<?xml version="1.0" encoding="UTF-8"?>
<svg id="Calque_1" data-name="Calque 1" xmlns="http://www.w3.org/2000/svg" viewBox="0 0 236.08 118.28">
  <defs>
    <style>
      .cls-1 {
        font-family: Bahnschrift, Bahnschrift;
        font-size: 12px;
        font-variation-settings: 'wght' 400, 'wdth' 100;
      }

      .cls-1, .cls-2 {
        fill: #1d1d1b;
      }

      .cls-3 {
        stroke: #009fe3;
      }

      .cls-3, .cls-4 {
        fill: none;
        stroke-miterlimit: 10;
      }

      .cls-4 {
        stroke: #1d1d1b;
      }

      .cls-5 {
        letter-spacing: -.01em;
      }

      .cls-6 {
        letter-spacing: 0em;
      }

      .cls-2 {
        stroke-width: 0px;
      }
    </style>
  </defs>
  <text class="cls-1" transform="translate(68.13 12.04)"><tspan x="0" y="0">Choisir un nomb</tspan><tspan class="cls-6" x="87.9" y="0">r</tspan><tspan x="92.91" y="0">e</tspan></text>
  <text class="cls-1" transform="translate(2.37 47.22)"><tspan x="0" y="0">Multiplier par 4</tspan><tspan x="35.98" y="14.4">et</tspan><tspan x="15.38" y="28.8">aj</tspan><tspan class="cls-5" x="24.98" y="28.8">o</tspan><tspan x="31.37" y="28.8">uter 12</tspan></text>
  <text class="cls-1" transform="translate(151.64 47.22)"><tspan x="0" y="0">Multiplier par 3</tspan><tspan x="35.74" y="14.4">et</tspan><tspan x="8.51" y="28.8">s</tspan><tspan class="cls-5" x="14.73" y="28.8">o</tspan><tspan x="21.12" y="28.8">ustrai</tspan><tspan class="cls-6" x="52.45" y="28.8">r</tspan><tspan x="57.46" y="28.8">e 2</tspan></text>
  <text class="cls-1" transform="translate(42.47 113.94)"><tspan x="0" y="0">Multiplier les d</tspan><tspan class="cls-5" x="80.04" y="0">e</tspan><tspan x="86.33" y="0">ux </tspan><tspan class="cls-6" x="102.43" y="0">r</tspan><tspan x="107.43" y="0">ésultats</tspan></text>
  <rect class="cls-3" x="61.32" y=".5" width="109.62" height="14.98" rx="5" ry="5"/>
  <rect class="cls-3" x="40.39" y="102.8" width="154.21" height="14.98" rx="5" ry="5"/>
  <rect class="cls-3" x=".5" y="35.39" width="86.04" height="44.68" rx="5" ry="5"/>
  <rect class="cls-3" x="149.53" y="35.39" width="86.04" height="44.68" rx="5" ry="5"/>
  <g>
    <line class="cls-4" x1="66.32" y1="15.48" x2="48.84" y2="30.75"/>
    <polygon class="cls-2" points="43.52 35.39 48.34 25.79 49.24 30.4 53.69 31.91 43.52 35.39"/>
  </g>
  <g>
    <line class="cls-4" x1="165.94" y1="15.48" x2="186.9" y2="31.16"/>
    <polygon class="cls-2" points="192.55 35.39 182.15 32.69 186.48 30.85 187.02 26.18 192.55 35.39"/>
  </g>
  <g>
    <line class="cls-4" x1="43.52" y1="80.07" x2="69.7" y2="98.7"/>
    <polygon class="cls-2" points="75.45 102.8 64.99 100.34 69.27 98.4 69.7 93.72 75.45 102.8"/>
  </g>
  <g>
    <line class="cls-4" x1="192.55" y1="80.07" x2="164.28" y2="99.11"/>
    <polygon class="cls-2" points="158.43 103.05 164.41 94.12 164.72 98.81 168.95 100.87 158.43 103.05"/>
  </g>
</svg>