<?xml version="1.0" encoding="UTF-8"?>
<svg id="Calque_1" data-name="Calque 1" xmlns="http://www.w3.org/2000/svg" viewBox="0 0 152.19 123.38">
  <defs>
    <style>
      .cls-1 {
        stroke: #e30613;
      }

      .cls-1, .cls-2, .cls-3 {
        fill: none;
        stroke-linecap: round;
        stroke-miterlimit: 10;
      }

      .cls-1, .cls-3 {
        stroke-width: 2px;
      }

      .cls-4 {
        fill: #1d1d1b;
        font-family: Cambria-BoldItalic, Cambria;
        font-size: 12px;
        font-style: italic;
        font-weight: 700;
      }

      .cls-2 {
        stroke: #009fe3;
      }

      .cls-3 {
        stroke: #1d1d1b;
      }

      .cls-5 {
        fill: #009fe3;
      }

      .cls-5, .cls-6 {
        stroke-width: 0px;
      }

      .cls-6 {
        fill: #44ace2;
      }
    </style>
  </defs>
  <path class="cls-6" d="m78.15,58.62c-5.12-2.32-8.68-7.47-8.68-13.46,0-.29,0-.58.03-.87l14.74.87-6.09,13.46Z"/>
  <path class="cls-6" d="m69.79,76.99l-6.41,14.17c-5.12-2.32-8.68-7.47-8.68-13.46"/>
  <line class="cls-3" x1="19.29" y1="41.34" x2="146.85" y2="48.85"/>
  <line class="cls-3" x1="13.68" y1="80" x2="151.19" y2="72.34"/>
  <line class="cls-1" x1="99.98" y1="10.36" x2="49.32" y2="122.38"/>
  <text class="cls-4" transform="translate(11.32 33.99)"><tspan x="0" y="0">(d</tspan></text>
  <text class="cls-4" transform="translate(22.92 37.99) scale(.58)"><tspan x="0" y="0">1</tspan></text>
  <text class="cls-4" transform="translate(26.93 33.99)"><tspan x="0" y="0">)</tspan></text>
  <text class="cls-4" transform="translate(0 71.45)"><tspan x="0" y="0">(d</tspan></text>
  <text class="cls-4" transform="translate(11.6 75.45) scale(.58)"><tspan x="0" y="0">2</tspan></text>
  <text class="cls-4" transform="translate(15.6 71.45)"><tspan x="0" y="0">)</tspan></text>
  <text class="cls-4" transform="translate(103.6 10)"><tspan x="0" y="0">(d)</tspan></text>
  <g>
    <line class="cls-2" x1="53.05" y1="106.63" x2="47.19" y2="106.63"/>
    <polygon class="cls-5" points="44.37 106.63 48.35 105.01 47.4 106.63 48.35 108.26 44.37 106.63"/>
  </g>
  <g>
    <line class="cls-2" x1="74.64" y1="60.59" x2="68.79" y2="60.59"/>
    <polygon class="cls-5" points="65.96 60.59 69.94 58.97 69 60.59 69.94 62.22 65.96 60.59"/>
  </g>
  <g>
    <line class="cls-2" x1="58.63" y1="45.09" x2="56.99" y2="51.19"/>
    <polygon class="cls-5" points="56.26 53.91 55.72 49.65 57.05 50.98 58.86 50.49 56.26 53.91"/>
  </g>
  <g>
    <line class="cls-2" x1="49.15" y1="80.48" x2="47.52" y2="86.58"/>
    <polygon class="cls-5" points="46.79 89.3 46.25 85.04 47.57 86.37 49.39 85.88 46.79 89.3"/>
  </g>
</svg>