<?xml version="1.0" encoding="UTF-8"?>
<svg id="Calque_1" data-name="Calque 1" xmlns="http://www.w3.org/2000/svg" viewBox="0 0 152.19 123.38">
  <defs>
    <style>
      .cls-1 {
        stroke: #e30613;
      }

      .cls-1, .cls-2, .cls-3 {
        fill: none;
        stroke-linecap: round;
        stroke-miterlimit: 10;
      }

      .cls-1, .cls-3 {
        stroke-width: 2px;
      }

      .cls-4 {
        fill: #1d1d1b;
        font-family: Cambria-BoldItalic, Cambria;
        font-size: 12px;
        font-style: italic;
        font-weight: 700;
      }

      .cls-2 {
        stroke: #009fe3;
      }

      .cls-3 {
        stroke: #1d1d1b;
      }

      .cls-5 {
        fill: #009fe3;
        stroke-width: 0px;
      }
    </style>
  </defs>
  <path class="cls-5" d="m88.16,35.88c3.59,1.52,6.11,5.07,6.11,9.21,0,.22,0,.44-.02.66l-10.01-.59,3.92-9.28Z"/>
  <path class="cls-5" d="m65.78,85.98c-3.31-1.5-5.65-4.74-5.86-8.56l9.98-.56-4.12,9.11Z"/>
  <line class="cls-3" x1="19.3" y1="41.34" x2="146.85" y2="48.85"/>
  <line class="cls-3" x1="13.68" y1="80" x2="151.19" y2="72.34"/>
  <line class="cls-1" x1="99.98" y1="10.36" x2="49.32" y2="122.38"/>
  <text class="cls-4" transform="translate(11.32 34)"><tspan x="0" y="0">(d</tspan></text>
  <text class="cls-4" transform="translate(22.92 37.99) scale(.58)"><tspan x="0" y="0">1</tspan></text>
  <text class="cls-4" transform="translate(26.93 34)"><tspan x="0" y="0">)</tspan></text>
  <text class="cls-4" transform="translate(0 71.45)"><tspan x="0" y="0">(d</tspan></text>
  <text class="cls-4" transform="translate(11.6 75.45) scale(.58)"><tspan x="0" y="0">2</tspan></text>
  <text class="cls-4" transform="translate(15.6 71.45)"><tspan x="0" y="0">)</tspan></text>
  <text class="cls-4" transform="translate(103.6 10)"><tspan x="0" y="0">(d)</tspan></text>
  <g>
    <line class="cls-2" x1="100.69" y1="43.8" x2="102.32" y2="37.71"/>
    <polygon class="cls-5" points="103.05 34.98 103.59 39.24 102.27 37.91 100.45 38.4 103.05 34.98"/>
  </g>
  <g>
    <line class="cls-2" x1="94.84" y1="30.35" x2="100.93" y2="31.98"/>
    <polygon class="cls-5" points="103.66 32.71 99.39 33.25 100.72 31.93 100.23 30.11 103.66 32.71"/>
  </g>
  <g>
    <line class="cls-2" x1="53" y1="79.83" x2="51.37" y2="85.92"/>
    <polygon class="cls-5" points="50.64 88.65 50.1 84.38 51.42 85.71 53.24 85.22 50.64 88.65"/>
  </g>
  <g>
    <line class="cls-2" x1="59.91" y1="93.35" x2="53.82" y2="91.72"/>
    <polygon class="cls-5" points="51.09 90.99 55.36 90.45 54.03 91.77 54.52 93.59 51.09 90.99"/>
  </g>
</svg>