<?xml version="1.0" encoding="UTF-8"?>
<svg id="Calque_1" data-name="Calque 1" xmlns="http://www.w3.org/2000/svg" viewBox="0 0 139.51 114.02">
  <defs>
    <style>
      .cls-1, .cls-2 {
        isolation: isolate;
      }

      .cls-3 {
        stroke: #000;
      }

      .cls-3, .cls-4 {
        fill: none;
        stroke-linecap: round;
        stroke-miterlimit: 10;
        stroke-width: 2px;
      }

      .cls-4 {
        stroke: #1d1d1b;
      }

      .cls-2 {
        fill: #1d1d1b;
        font-family: Bahnschrift, Bahnschrift;
        font-size: 12px;
        font-variation-settings: 'wght' 400, 'wdth' 100;
      }
    </style>
  </defs>
  <line class="cls-4" x1="6.61" y1="31.98" x2="134.17" y2="39.49"/>
  <line class="cls-4" x1="1" y1="70.64" x2="138.51" y2="62.98"/>
  <line class="cls-3" x1="87.3" y1="1" x2="36.64" y2="113.02"/>
  <g class="cls-1">
    <text class="cls-2" transform="translate(64.23 31.64)"><tspan x="0" y="0">A</tspan></text>
  </g>
  <g class="cls-1">
    <text class="cls-2" transform="translate(112.08 35.74)"><tspan x="0" y="0">N</tspan></text>
  </g>
  <g class="cls-1">
    <text class="cls-2" transform="translate(56.75 79.59)"><tspan x="0" y="0">B</tspan></text>
  </g>
  <g class="cls-1">
    <text class="cls-2" transform="translate(116.24 76.7)"><tspan x="0" y="0">S</tspan></text>
  </g>
  <g class="cls-1">
    <text class="cls-2" transform="translate(7.18 82.31)"><tspan x="0" y="0">R</tspan></text>
  </g>
  <g class="cls-1">
    <text class="cls-2" transform="translate(6.59 28.7)"><tspan x="0" y="0">M</tspan></text>
  </g>
  <g class="cls-1">
    <text class="cls-2" transform="translate(51.6 107.85)"><tspan x="0" y="0">T</tspan></text>
  </g>
  <g class="cls-1">
    <text class="cls-2" transform="translate(86.85 12.19)"><tspan x="0" y="0">P</tspan></text>
  </g>
  <line class="cls-3" x1="21.09" y1="28.7" x2="19.04" y2="37.87"/>
  <line class="cls-3" x1="121.98" y1="34.22" x2="119.93" y2="43.39"/>
  <line class="cls-3" x1="16.96" y1="65.29" x2="14.91" y2="74.47"/>
  <line class="cls-3" x1="113.66" y1="60.02" x2="111.61" y2="69.19"/>
  <line class="cls-3" x1="85.97" y1="14.54" x2="77.83" y2="9.84"/>
  <line class="cls-3" x1="49.34" y1="97.68" x2="40.44" y2="94.64"/>
</svg>