<?xml version="1.0" encoding="UTF-8"?>
<svg id="a" data-name="Calque 1" xmlns="http://www.w3.org/2000/svg" viewBox="0 0 209.67 130.52">
  <rect x="7.85" y=".5" width="14.32" height="14.32" style="fill: #e52421; stroke: #1d1d1b; stroke-miterlimit: 10;"/>
  <rect x="126.59" y="30.57" width="14.32" height="14.32" style="fill: #e52421; stroke: #1d1d1b; stroke-miterlimit: 10;"/>
  <rect x="187.92" y="96.46" width="14.32" height="14.32" style="fill: #e52421; stroke: #1d1d1b; stroke-miterlimit: 10;"/>
  <rect x="148.66" y="110.47" width="14.32" height="14.32" style="fill: #6ec6d9; stroke: #1d1d1b; stroke-miterlimit: 10;"/>
  <rect x="27.93" y="104.19" width="14.32" height="14.32" style="fill: #6ec6d9; stroke: #1d1d1b; stroke-miterlimit: 10;"/>
  <rect x="172.72" y="7.66" width="14.32" height="14.32" style="fill: #6ec6d9; stroke: #1d1d1b; stroke-miterlimit: 10;"/>
  <rect x="172.72" y="46.32" width="14.32" height="14.32" style="fill: #f3e600; stroke: #1d1d1b; stroke-miterlimit: 10;"/>
  <rect x="127.01" y="53.48" width="14.32" height="14.32" style="fill: #f3e600; stroke: #1d1d1b; stroke-miterlimit: 10;"/>
  <rect x="67.57" y="63.81" width="14.32" height="14.32" style="fill: #6ec6d9; stroke: #1d1d1b; stroke-miterlimit: 10;"/>
  <rect x="102.62" y="14.82" width="14.32" height="14.32" style="fill: #6ec6d9; stroke: #1d1d1b; stroke-miterlimit: 10;"/>
  <rect x="52.13" y="30.57" width="14.32" height="14.32" style="fill: #6ec6d9; stroke: #1d1d1b; stroke-miterlimit: 10;"/>
  <rect x="75.95" y="39.15" width="14.32" height="14.32" style="fill: #f3e600; stroke: #1d1d1b; stroke-miterlimit: 10;"/>
  <rect x="52.77" y="115.7" width="14.32" height="14.32" style="fill: #f3e600; stroke: #1d1d1b; stroke-miterlimit: 10;"/>
  <circle cx="36.59" cy="24" r="7.16" style="fill: #e52421; stroke: #1d1d1b; stroke-miterlimit: 10;"/>
  <circle cx="35.09" cy="84.53" r="7.16" style="fill: #e52421; stroke: #1d1d1b; stroke-miterlimit: 10;"/>
  <circle cx="162.98" cy="77.37" r="7.16" style="fill: #e52421; stroke: #1d1d1b; stroke-miterlimit: 10;"/>
  <circle cx="22.17" cy="56.65" r="7.16" style="fill: #6ec6d9; stroke: #1d1d1b; stroke-miterlimit: 10;"/>
  <circle cx="57.42" cy="93.91" r="7.16" style="fill: #f3e600; stroke: #1d1d1b; stroke-miterlimit: 10;"/>
  <circle cx="90.27" cy="89.3" r="7.16" style="fill: #f3e600; stroke: #1d1d1b; stroke-miterlimit: 10;"/>
  <circle cx="171.3" cy="98.96" r="7.16" style="fill: #f3e600; stroke: #1d1d1b; stroke-miterlimit: 10;"/>
  <circle cx="13.87" cy="32.16" r="7.16" style="fill: #f3e600; stroke: #1d1d1b; stroke-miterlimit: 10;"/>
  <circle cx="85.38" cy="16.84" r="7.16" style="fill: #6ec6d9; stroke: #1d1d1b; stroke-miterlimit: 10;"/>
  <circle cx="134.17" cy="14.82" r="7.16" style="fill: #e52421; stroke: #1d1d1b; stroke-miterlimit: 10;"/>
  <circle cx="155.82" cy="56.65" r="7.16" style="fill: #6ec6d9; stroke: #1d1d1b; stroke-miterlimit: 10;"/>
  <circle cx="126.07" cy="118.51" r="7.16" style="fill: #f3e600; stroke: #1d1d1b; stroke-miterlimit: 10;"/>
  <polygon points="59.93 20.31 52.92 24 54.25 16.19 48.58 10.65 56.42 9.51 59.93 2.41 63.44 9.51 71.28 10.65 65.6 16.19 66.94 24 59.93 20.31" style="fill: #f3e600; stroke: #1d1d1b; stroke-miterlimit: 10;"/>
  <polygon points="107.56 56.95 100.54 60.64 101.88 52.83 96.21 47.29 104.05 46.15 107.56 39.05 111.07 46.15 118.91 47.29 113.23 52.83 114.57 60.64 107.56 56.95" style="fill: #6ec6d9; stroke: #1d1d1b; stroke-miterlimit: 10;"/>
  <polygon points="107.56 113.94 100.54 117.63 101.88 109.82 96.21 104.29 104.05 103.15 107.56 96.04 111.07 103.15 118.91 104.29 113.23 109.82 114.57 117.63 107.56 113.94" style="fill: #6ec6d9; stroke: #1d1d1b; stroke-miterlimit: 10;"/>
  <polygon points="197.24 39.26 190.23 42.95 191.57 35.14 185.89 29.61 193.74 28.47 197.24 21.36 200.75 28.47 208.59 29.61 202.92 35.14 204.26 42.95 197.24 39.26" style="fill: #6ec6d9; stroke: #1d1d1b; stroke-miterlimit: 10;"/>
  <polygon points="47.94 63.76 40.93 67.45 42.27 59.63 36.59 54.1 44.44 52.96 47.94 45.86 51.45 52.96 59.3 54.1 53.62 59.63 54.96 67.45 47.94 63.76" style="fill: #e52421; stroke: #1d1d1b; stroke-miterlimit: 10;"/>
  <polygon points="78.92 116.86 71.91 120.55 73.25 112.74 67.57 107.21 75.42 106.07 78.92 98.96 82.43 106.07 90.27 107.21 84.6 112.74 85.94 120.55 78.92 116.86" style="fill: #e52421; stroke: #1d1d1b; stroke-miterlimit: 10;"/>
  <polygon points="189.63 87.5 182.62 91.19 183.96 83.38 178.28 77.85 186.12 76.71 189.63 69.6 193.14 76.71 200.98 77.85 195.31 83.38 196.64 91.19 189.63 87.5" style="fill: #e52421; stroke: #1d1d1b; stroke-miterlimit: 10;"/>
  <polygon points="111.01 81.71 103.99 85.4 105.33 77.59 99.66 72.06 107.5 70.92 111.01 63.81 114.52 70.92 122.36 72.06 116.68 77.59 118.02 85.4 111.01 81.71" style="fill: #e52421; stroke: #1d1d1b; stroke-miterlimit: 10;"/>
  <polygon points="159.94 38.26 152.93 41.95 154.27 34.14 148.59 28.61 156.44 27.47 159.94 20.36 163.45 27.47 171.3 28.61 165.62 34.14 166.96 41.95 159.94 38.26" style="fill: #f3e600; stroke: #1d1d1b; stroke-miterlimit: 10;"/>
  <polygon points="140.91 96.24 133.9 99.93 135.24 92.12 129.56 86.59 137.41 85.45 140.91 78.34 144.42 85.45 152.26 86.59 146.59 92.12 147.93 99.93 140.91 96.24" style="fill: #f3e600; stroke: #1d1d1b; stroke-miterlimit: 10;"/>
  <polygon points="12.42 103.15 5.41 106.84 6.75 99.02 1.07 93.49 8.92 92.35 12.42 85.25 15.93 92.35 23.77 93.49 18.1 99.02 19.44 106.84 12.42 103.15" style="fill: #e52421; stroke: #1d1d1b; stroke-miterlimit: 10;"/>
</svg>