<?xml version="1.0" encoding="UTF-8"?>
<svg id="Calque_1" data-name="Calque 1" xmlns="http://www.w3.org/2000/svg" viewBox="0 0 305.83 302.15">
  <defs>
    <style>
      .cls-1, .cls-2, .cls-3 {
        stroke-width: 0px;
      }

      .cls-2 {
        fill: #fff;
      }

      .cls-4 {
        letter-spacing: 0em;
      }

      .cls-5 {
        letter-spacing: 0em;
      }

      .cls-6 {
        font-family: Bahnschrift, Bahnschrift;
        font-size: 8.5px;
        font-variation-settings: 'wght' 400, 'wdth' 100;
      }

      .cls-6, .cls-3 {
        fill: #1d1d1b;
      }

      .cls-7 {
        letter-spacing: 0em;
      }

      .cls-8 {
        fill: none;
        stroke: #1d1d1b;
        stroke-miterlimit: 10;
        stroke-width: 1.42px;
      }

      .cls-9 {
        letter-spacing: -.02em;
      }
    </style>
  </defs>
  <g>
    <path class="cls-1" d="m.09,302.06C-.03,301.12-.03,1.14.09.11.27.08.46.02.66,0,.98,0,1.31,0,1.63,0c100.84,0,201.69,0,302.53,0,.49,0,.99.01,1.53.02.04.26.09.46.1.66.02.39,0,.78,0,1.18,0,51.75,0,103.5,0,155.25,0,1.06.08,2.12.02,3.18-.06,1.1-.01,2.21-.01,3.31,0,1.07,0,2.14,0,3.21v135.18c-.26.06-.45.13-.65.14-.32.02-.64,0-.96,0-100.84,0-201.69,0-302.53,0-.52,0-1.06.06-1.56-.08Zm100.88-108.96c.27,1.42.83,2.7,1.03,4.11-.48.17-.82.51-1.31.55-.22-.26-.43-.5-.63-.75-2.2-2.76-4.41-5.5-6.57-8.29-.8-1.03-1.72-1.89-2.73-2.69-.13-.1-.29-.15-.49-.26-.08.87-.17,1.65-.24,2.43-.17,1.95-.34,3.9-.51,5.85-.19,2.09-.38,4.18-.56,6.28-.17,1.92-.33,3.83-.5,5.75-.19,2.13-.38,4.26-.57,6.38-.17,1.88-.31,3.76-.5,5.64-.07.69-.21,1.37-.41,2.03-2.24,7.33-4.51,14.66-6.76,21.99-.2.66-.52,1.22-1,1.73-1.72,1.85-3.42,3.73-5.12,5.6-.23.26-.45.53-.69.82.13.11.19.19.28.23,10.46,5.42,20.91,10.83,31.35,16.24l.44.21c.85.44,1.71.86,2.54,1.34.55.31,1.1.43,1.73.41,2.38-.08,4.77-.12,7.15-.18,3.6-.09,7.19-.18,10.79-.29.38-.01.78.08,1.2-.16.11-.67.21-1.37.35-2.06.16-.83.89-1.21,1.69-.9.23.09.46.2.69.3,4.68,1.99,9.36,3.98,14.04,5.97.39.17.78.32,1.21.49.65-.47,1.29-.92,1.91-1.39.56-.43,1.15-.44,1.79-.1s1.35.67,2.07.9c.62.2.95.62,1.03,1.21.05.35.06.71.09,1.06.03.35.06.7.09,1.08.19.13.31.24.56.36.09.04.17.1.26.13,2.25.54,4.5,1.07,6.75,1.59.2.05.42.04.64.02.71-.06,1.42-.13,2.13-.2,3.22-.33,6.44-.66,9.67-.98,3.26-.32,6.52-.62,9.78-.93.41-.04.85-.04,1.23-.28-.06-.31-.1-.59-.16-.87-.85-3.53-1.69-7.06-2.57-10.58-.22-.87-.11-1.55.42-2.29,2.4-3.32,4.76-6.67,7.1-10.03.44-.64.98-1.08,1.67-1.43,5.31-2.67,10.6-5.38,15.9-8.07,1.6-.81,1.29-.82,3.12-.33.47.13.93.36,1.4.3l.38.15c.37.11.69.23,1.03.32,4.63,1.27,9.26,2.51,13.88,3.82,1.74.49,3.43,1.14,5,2.06.03.03.06.06.09.09.27.49.72.71,1.23.59.5-.12.9.02,1.33.2,2.71,1.08,5.42,2.15,8.14,3.22.4.16.79.29,1.23.3,2.71.06,5.41.15,8.12.23.78.02,1.57.05,2.35.08,2.14.06,4.27.12,6.41.19.11,0,.22.03.32,0,.19-.07.4-.14.55-.27.19-.16.32-.38.48-.57,2.68-3.28,5.36-6.56,8.04-9.85,3.24-3.97,6.48-7.95,9.73-11.91.37-.45.64-.92.82-1.48.92-2.95,1.87-5.9,2.8-8.85.08-.26.12-.54.18-.8-.12-.06-.18-.11-.24-.11-2.33-.3-4.66-.59-6.99-.89-1.55-.2-3.1-.42-4.66-.6-.59-.07-.98-.36-1.23-.89-.08-.16-.15-.32-.23-.48-1.55-3.2-3.07-6.42-4.65-9.61-.38-.78-.57-1.51-.29-2.35.1-.3.11-.63.17-.94.23-1.33.46-2.66.69-3.99-.22-.24-.4-.45-.59-.66-2.34-2.49-4.68-4.99-7.02-7.48-.17-.18-.36-.35-.5-.55-.13-.19-.21-.42-.33-.67l.21-.42c.26-.38.66-.51,1.06-.67,2.43-1.01,4.86-2.03,7.3-3.02.44-.18.71-.41.8-.9.07-.42.23-.82.33-1.24.36-1.37.72-2.75,1.08-4.15-.25-.24-.48-.46-.72-.66-1.47-1.24-2.94-2.48-4.41-3.72-1.06-.9-2.11-1.81-3.19-2.68-.52-.42-.48-.99-.3-1.44.09-.23.25-.43.38-.64,1.2-1.98,2.4-3.96,3.6-5.94.14-.24.27-.49.39-.7-.91-1.89-6.76-12.44-7.32-13.17-2.14.32-4.31.64-6.51.96-.17.34-.33.65-.49.97-.63,1.32-1.27,2.63-1.88,3.95-.23.49-.52.91-.96,1.26-1.25,1-2.49,2.02-3.71,3.06-.45.39-.89.55-1.4.28-.4-.39-.43-.83-.35-1.31.18-1.05.36-2.1.53-3.16.12-.77.28-1.55.32-2.32.08-1.46.08-2.92.11-4.38l.05-1.68c-.04-.57.2-1.02.52-1.47,1.66-2.36,3.32-4.72,4.97-7.09.34-.5.67-1.01.96-1.54,1.5-2.67,2.99-5.34,4.47-8.03.34-.62.64-1.27.88-1.94,1.39-3.81,2.77-7.62,4.13-11.45.29-.81.75-1.23,1.64-1.22.75,0,1.49-.07,2.24-.11l1.75-.04c2.41-.16,4.83-.3,7.24-.46.09,0,.18-.08.31-.14-.03-.25-.06-.49-.1-.73-.11-.7-.32-1.4-.33-2.1-.07-6.16-.24-12.31-.04-18.47.04-1.22.24-2.37.66-3.53,1.03-2.84,1.97-5.71,2.92-8.58,1.21-3.64,2.39-7.29,3.59-10.94.1-.3.27-.58.11-.9-.08-.03-.14-.07-.21-.08-3.15-.35-6.29-.69-9.44-1.04l-1.45-.12c-1.73-.2-3.46-.39-5.2-.58-1.73-.19-3.46-.42-5.2-.55-.79-.06-1.41-.39-2.02-.84-4.5-3.37-9.03-6.7-13.52-10.08-.65-.49-1.35-.75-2.12-.91-.38-.08-.68-.01-.96.29-.56.6-1.19,1.13-1.72,1.75-.69.82-1.44.89-2.37.47-1.04-.46-2.14-.79-3.17-1.27-1.48-.7-3.03-1.04-4.65-.96-1.47.07-2.82-.28-4.09-.96l-1.72-.71c-.63-.28-1.18-.52-1.73-.75-2.36-1-4.7-2.03-7.08-2.99-.77-.31-1.19-.79-1.39-1.6-.33-1.31-.74-2.6-1.13-3.89-.19-.63-.22-1.25,0-1.9.14-.41.24-.83.26-1.27.02-.37.24-.72.03-1.17-.22.13-.43.25-.63.39-.87.62-1.77,1.2-2.59,1.89-.82.68-1.72.9-2.76.92-2.1.05-4.19.18-6.29.28-.16,0-.33.07-.52.11-.49-.02-.98-.12-1.18-.19l-.47-.53c-.03-.41-.04-.8-.08-1.18-.04-.39-.1-.78-.15-1.17-.24-2.12-.46-4.25-.71-6.37-.02-.2-.12-.39-.2-.63-.32,0-.61,0-.89,0-2.03-.04-4.06-.11-6.09-.13-.83,0-1.33-.33-1.6-1.12-.3-.88-.67-1.72-.98-2.6-.13-.38-.37-.55-.75-.66-1.65-.44-3.28-.94-4.94-1.35-.76-.19-1.24-.59-1.55-1.3-.7-1.6-1.44-3.17-2.18-4.76-.13-.28-.28-.56-.46-.9-.3.12-.56.22-.82.33-.99.41-1.98.8-2.96,1.23-.65.29-1.22.24-1.79-.21-1.37-1.09-2.74-2.16-4.13-3.21-.52-.39-.77-.87-.84-1.52-.17-1.7-.39-3.39-.59-5.09-.07-.55-.11-1.1-.29-1.64-.21.04-.36.06-.49.1-4.16,1.46-8.32,2.93-12.48,4.39-.5.17-.83.48-1.13.96-.58.95-1.28,1.82-2.08,2.6-.42.41-.59.84-.64,1.37-.07.81-.18,1.63-.28,2.44-.32,2.58-.65,5.15-.98,7.73-.07.6-.13,1.19-.19,1.82l-.03.39c-.08.46-.15.84-.2,1.22-.15,1.16-.31,2.33-.43,3.5-.05.49-.24.88-.56,1.23-.53.57-1.05,1.16-1.58,1.74-.55.61-1.09,1.21-1.61,1.79l-.72.77c-1.26,1.4-2.55,2.78-3.79,4.21-.51.58-1.1.97-1.82,1.24-5.79,2.19-11.56,4.41-17.34,6.62-.29.11-.57.25-.88.39.04.37.05.69.1,1,.35,2.03.7,4.07,1.08,6.09.08.43.08.83-.03,1.2l-.18.31c-.18.08-.35.15-.5.23-2.54,1.29-5.08,2.57-7.61,3.88-.53.28-1.05.43-1.63.21-.17-.06-.35-.08-.52-.12-4.69-1.19-9.37-2.38-14.06-3.57-.93-.24-1.86-.48-2.79-.71-.64-.16-1.09-.5-1.22-1.18-.04-.21-.12-.41-.18-.61-.57-1.98-1.13-3.97-1.71-5.95-.08-.26-.2-.52-.3-.78-1.54-.18-3.02-.38-4.5-.51-1.51-.14-3.01-.39-4.49-.45-.06.1-.1.14-.09.16,2.12,11.21,4.24,22.43,6.36,33.65-.06.09-.1.2-.18.27l-.72.75c-.13-.05-.22-.11-.33-.13-4.02-.92-8.05-1.84-12.07-2.74-.27-.06-.56-.06-.84-.01-1.02.16-2.03.34-3.05.52-3.19.54-6.38,1.09-9.58,1.62-.52.09-1.05.11-1.52.15-1.09-1.3-2.1-2.54-3.16-3.74-1.08-1.22-2.17-2.44-3.3-3.63-.76.12-1.46.23-2.16.36-3.08.54-6.17,1.08-9.25,1.61-2.31.4-4.62.8-6.87,1.51-4.72,1.48-9.46,2.88-14.19,4.32-.33.1-.66.23-.96.34-.04,1.02.24,3.2.55,4.22.81.24,1.66.52,2.51.75.61.16,1.08.47,1.48.97,1.36,1.7,2.73,3.38,4.13,5.04.35.41.51.83.41,1.35-.28.42-.68.55-1.18.56-2.07.04-4.13.12-6.19.19-.19,0-.44-.08-.59.23.23.24.46.49.71.74,1.37,1.35,2.77,2.67,4.1,4.06.52.54,1.11.82,1.83.98,5.07,1.14,10.13,2.3,15.19,3.48.51.12,1.02.32,1.49.56,2.32,1.17,4.65,2.33,6.93,3.56,2.39,1.28,4.85,2.38,7.42,3.25.27.09.54.19.8.29,2.27.84,4.53,1.67,6.84,2.53l.09.26c0,.87-.01,1.72,0,2.57.02.88-.19,1.77-.02,2.66.32.19.63.37.94.54,1.61.91,3.21,1.86,4.85,2.7.82.42,1.17,1.03,1.34,1.9.78,4.13,1.59,8.25,2.39,12.37.11.57.32,1.07.67,1.54,2.63,3.5,5.24,7.02,7.85,10.54.28.38.6.68,1.02.91,1.63.88,3.25,1.77,4.86,2.68l1.19.58c.27.17.5.34.75.47.65.37,1.3.74,1.97,1.08.65.33.92.85.86,1.57-.02.18-.02.36-.03.53-.06,1.14-.13,2.28-.19,3.41-.08,1.42-.17,2.85-.25,4.27-.04.79-.2,1.54-.54,2.27-.38.8-.7,1.62-1.05,2.47.28.29.53.54.78.79,2.28,2.21,4.56,4.41,6.84,6.62.33.32.66.64.87,1.07,1.12,2.42,2.26,4.84,3.4,7.28l.08.51ZM.67,39.4c0,.58-.02,1.04-.02,1.5,0,66.93,0,133.86,0,200.79,0,.29-.01.57,0,.86.01.2.07.4.11.61.3.03.54.07.79.09,2.09.22,4.18.43,6.27.65,2.55.27,5.1.54,7.64.81,1.1.12,2.19.27,3.29.36.71.06,1.41.12,2.13.01,1.76-.28,3.51-.55,5.28-.8,2.85-.4,5.71-.77,8.56-1.19.63-.09,1.19-.02,1.76.23,3.21,1.44,6.43,2.87,9.64,4.33.52.24,1,.26,1.54.07,1.31-.44,2.65-.83,3.97-1.25.52-.17,1.02-.19,1.55-.01,2.98.95,5.96,1.89,8.95,2.82.51.16,1.04.27,1.56.31,1.63.12,3.27.19,4.9.28.92.05,1.84.1,2.79.15.26-.26.53-.49.77-.75,1.88-2.05,3.74-4.12,5.63-6.15.52-.56.88-1.18,1.1-1.91,2.18-7.14,4.38-14.28,6.57-21.42.18-.58.32-1.16.36-1.77.06-.82.14-1.63.21-2.44.26-2.8.52-5.6.77-8.41.18-1.99.33-3.97.5-5.96.25-2.8.52-5.6.77-8.4.18-1.99.33-3.98.5-5.96.07-.78.13-1.56.21-2.34.02-.17.06-.37.16-.49.24-.29.53-.54.86-.86.23.17.46.33.66.5.86.75,1.7,1.51,2.58,2.24.3.25.57.52.82.83,1.63,2.07,3.28,4.13,4.92,6.19.15.18.32.35.63.67-.15-.73-.32-1.22-.55-1.7-.8-1.67-1.6-3.34-2.35-5.03-.34-.77-.81-1.4-1.41-1.97-2.35-2.24-4.65-4.52-7.01-6.75-.68-.64-.87-1.26-.43-2.18.35-.74.63-1.51.96-2.26.22-.49.36-.99.39-1.54.08-1.64.21-3.27.3-4.91.07-1.17.11-2.34.16-3.55-.33-.19-.63-.37-.93-.54-2.65-1.46-5.3-2.92-7.96-4.37-.48-.26-.89-.56-1.22-1.01-.99-1.35-2.02-2.67-3.01-4.02-1.78-2.4-3.55-4.82-5.34-7.21-.24-.32-.41-.64-.49-1.04-.26-1.33-.56-2.65-.82-3.97-.57-2.9-1.15-5.79-1.67-8.7-.13-.74-.48-1.18-1.13-1.53-1.79-.95-3.54-1.98-5.32-2.96-.59-.33-.88-.79-.85-1.47.05-1.18.07-2.35.09-3.53,0-.24-.02-.48-.04-.72-.61-.24-1.16-.47-1.73-.68-2.6-.96-5.22-1.9-7.82-2.87-.67-.25-1.32-.53-1.95-.86-3.11-1.58-6.21-3.18-9.31-4.77-.64-.33-1.29-.59-2-.72-1.15-.22-2.3-.49-3.44-.75-4.02-.93-8.04-1.88-12.06-2.79-.48-.11-.85-.33-1.19-.66-2.27-2.22-4.53-4.44-6.8-6.66-.14-.14-.24-.33-.36-.5.3-.37.56-.69.81-.99,2.36-.08,4.68-.15,6.99-.23.22,0,.51.12.68-.25-1.13-1.39-2.28-2.79-3.43-4.2-.21-.26-.47-.41-.8-.5-.86-.24-1.7-.52-2.55-.76-.66-.18-1.03-.58-1.1-1.27-.12-1.03-.27-2.05-.41-3.07-.07-.49-.16-.99-.19-1.48-.04-.54.31-1.06.82-1.25.27-.1.54-.17.82-.25,5.51-1.67,11.02-3.34,16.54-4.99.78-.23,1.58-.42,2.38-.56,2.73-.49,5.47-.94,8.2-1.41,2.03-.35,4.07-.69,6.1-1.07.55-.1.98.05,1.36.42.15.15.29.31.43.47,1.72,1.9,3.45,3.8,5.17,5.7.21.23.45.45.66.66.19-.02.33-.03.47-.05,1.58-.26,3.16-.52,4.74-.79,2.6-.44,5.19-.89,7.79-1.34.5-.09.98-.08,1.48.04,3.53.82,7.07,1.63,10.61,2.43.16.04.33,0,.55,0-.05-.29-.07-.49-.11-.7-.7-3.63-1.39-7.27-2.09-10.9-.57-2.94-1.14-5.87-1.71-8.8-.72-3.77-1.44-7.55-2.16-11.32-.1-.52-.21-1.05-.27-1.58-.07-.62.22-1.07.79-1.21.23-.06.49-.02.74,0,1.52.17,3.04.36,4.56.52,1.56.17,3.11.34,4.68.49.92.08,1.47.48,1.71,1.44.5,1.96,1.1,3.9,1.65,5.85q.37,1.31,1.74,1.65c2.14.53,4.28,1.05,6.42,1.6,3.03.77,6.07,1.55,9.09,2.35.56.15,1.02.11,1.53-.16,2.12-1.1,4.25-2.16,6.38-3.24.25-.12.48-.28.68-.41,0-.22.02-.36,0-.5-.38-2.17-.76-4.35-1.16-6.52-.21-1.15-.01-1.54,1.06-1.98.1-.04.2-.09.29-.13,3.25-1.25,6.5-2.52,9.76-3.76,2.59-.99,5.19-1.96,7.79-2.92.68-.25,1.25-.61,1.74-1.17,1.36-1.56,2.77-3.07,4.15-4.6,1.03-1.14,2.06-2.27,3.08-3.41.21-.24.42-.46.46-.82.12-1.1.28-2.19.41-3.28.24-1.98.47-3.96.71-5.94.33-2.65.68-5.3.99-7.95.07-.59.23-1.09.61-1.55.93-1.13,1.84-2.27,2.73-3.43.36-.48.81-.76,1.37-.96,4.47-1.56,8.93-3.13,13.4-4.7.17-.06.35-.19.5-.16.72.16,1.21-.28,1.75-.59,1.51-.87,3.01-1.76,4.52-2.64,1.94-1.12,3.91-2.2,5.54-3.78.19-.19.5-.29.5-.63-.07-.05-.13-.12-.18-.12-12.24-.01-24.49-.02-36.73-.02-.53,0-1.05.04-1.58.07.7.15,1.4.17,2.1.22.46.03.92.08,1.38.14.28.04.39.26.35.55-.03.18-.07.35-.11.52-.36,1.49-.71,2.98-1.08,4.46-.07.27-.2.53-.35.77-1.49,2.34-2.99,4.68-4.48,7.02-.26.41-.59.67-1.03.87-1.85.84-3.67,1.73-5.51,2.58-.35.16-.73.28-1.11.36-4.01.83-8.01,1.65-12.02,2.48-.71.15-1.41.14-2.12.03-.95-.14-1.9-.27-2.85-.4-2.54-.34-5.08-.69-7.61-1.02-1.16-.16-2.33-.33-3.5-.44-1.27-.12-2.56-.06-3.84-.12-2.42-.12-4.84-.06-7.26-.09-.58,0-1.12.12-1.66.34-1.52.62-3.04,1.22-4.56,1.81-1.23.48-2.43,1.03-3.69,1.41-2.92.89-5.87,1.7-8.81,2.54-1.33.38-2.67.75-4,1.12-1.1-.55-2.19-1.09-3.27-1.63-1.43-.72-2.86-1.43-4.29-2.15-.32-.16-.66-.25-1.02-.27-1.03-.05-2.06-.12-3.09-.2-1.74-.12-3.48-.26-5.22-.37-.39-.03-.77,0-1.16,0-.14.29-.26.54-.38.8-1.18,2.59-2.36,5.18-3.54,7.77-.97,2.14-1.95,4.27-2.92,6.41-.13.29-.22.61-.66.73-1.06-.44-2.17-.9-3.28-1.37-1.08-.45-2.16-.9-3.25-1.35-1.12-.46-2.24-.92-3.35-1.39-1.08-.45-2.15-.94-3.25-1.35-1.12-.42-2.19-1-3.38-1.35-.28.32-.54.61-.78.91-3.23,3.93-6.47,7.87-9.7,11.8-.18.22-.36.44-.56.64-.21.21-.44.24-.68.08-.15-.1-.28-.22-.41-.33-1.28-1.02-2.57-2.03-3.83-3.07-.32-.26-.64-.43-1.05-.46-1.74-.11-3.48-.23-5.22-.34-.24-.02-.49,0-.87,0Zm130.03,227.27c-.12.72-.2,1.29-.31,1.84-.15.8-.57,1.17-1.38,1.2-1.25.05-2.49.1-3.74.13-5.27.15-10.54.28-15.81.44-.67.02-1.25-.17-1.83-.47-3.66-1.91-7.34-3.8-11-5.7-7.97-4.12-15.94-8.25-23.9-12.37-.35-.18-.71-.35-.99-.61-.21-.19-.39-.26-.65-.28-2.42-.14-4.83-.28-7.25-.42-.64-.04-1.27-.14-1.88-.34-2.88-.92-5.77-1.8-8.66-2.72-.6-.19-1.16-.2-1.77,0-1.28.43-2.59.78-3.87,1.21-.58.19-1.07.18-1.64-.07-3.24-1.46-6.51-2.89-9.75-4.34-.54-.24-1.05-.31-1.64-.22-2.74.42-5.5.78-8.25,1.17-1.73.24-3.46.45-5.18.74-.79.13-1.56.15-2.34.07-1.13-.12-2.26-.27-3.39-.38-2.27-.23-4.54-.45-6.8-.68-2.37-.25-4.74-.52-7.11-.77-.27-.03-.55-.1-.81.03-.12.93-.13,56.25-.01,57.23.5.22,1.04.12,1.57.12,57.3,0,114.6,0,171.89,0,.21,0,.43-.01.64,0,.56.04,1.01-.14,1.47-.48,3.65-2.73,7.32-5.44,10.99-8.15.17-.12.32-.27.5-.42-.25-.89-.72-1.65-1.08-2.45-.35-.78-.72-1.55-1.09-2.32-.38-.8-.75-1.61-1.14-2.44.23-.31.43-.6.65-.88.92-1.18,1.86-2.35,2.78-3.53.17-.22.32-.46.46-.66-.8-1.66-1.92-3.63-2.41-4.22-.13,0-.27-.01-.41,0-2.34.23-4.68.45-7.02.69-2.48.25-4.96.51-7.44.76-2.8.28-5.6.55-8.4.83-.71.07-1.41.06-2.12-.11-2.31-.57-4.65-1.06-6.96-1.64-.62-.16-1.09-.06-1.6.27-.81.52-1.65.99-2.5,1.5-.93-.27-1.84-.55-2.74-.81-.3-1.39-.21-2.76-.54-4.12-5.15-2.19-10.28-4.37-15.54-6.6Zm142.44-155.86c1.07.05,15.76-1.55,16.99-1.85.03-1.04-.2-2.09-.18-3.15.02-1.09-.31-2.17-.12-3.32.43.11.81.2,1.18.31,2.57.73,5.13,1.46,7.7,2.2.53.15,1.01.16,1.54-.09,1.42-.66,2.86-1.27,4.3-1.9.19-.08.37-.19.61-.32v-1.28c0-33.11,0-66.21,0-99.32,0-.25,0-.5,0-.75-.01-.2-.05-.4-.07-.59-1.03-.13-70.9-.13-71.77,0-.21.35-.17.75-.19,1.14-.05,1.03-.08,2.07-.13,3.1-.1,2.03-.22,4.06-.33,6.08-.03.5.02.99.15,1.48.35,1.34.66,2.7.98,4.05.05.21.13.41.14.62,0,.23-.06.47-.09.68,2.34,2.88,4.7,5.69,7.02,8.57-1.54,2.58-3.06,5.11-4.54,7.59.71,2.62,1.4,5.16,2.1,7.7.07.27.19.52.29.81,1.78.59,3.54,1.17,5.29,1.76.36.12.78.17,1.04.64-.9,2.96-1.82,5.98-2.75,9.01.29.23.53.43.79.62,2.54,1.89,5.09,3.78,7.63,5.67,1.83,1.36,3.66,2.72,5.49,4.08.34.25.67.48,1.14.53,2.48.25,4.96.54,7.43.81,2.3.25,4.6.48,6.91.72,2.48.26,4.95.56,7.43.8.68.07,1.23.26,1.71.83-.06.25-.11.52-.19.79-.96,2.91-1.91,5.81-2.89,8.71-1.48,4.38-2.97,8.76-4.44,13.15-.14.43-.23.9-.23,1.36-.02,6.02-.02,12.04-.02,18.07,0,.24.06.48.08.71Zm-.5,190.46c.01-.34.04-.73.04-1.12,0-1,0-1.99,0-2.99,0-5.45,0-10.9,0-16.35,0-5.31,0-10.62,0-15.92,0-5.59,0-11.19,0-16.78,0-1.35,0-2.71,0-4.06,0-.34-.08-.72.27-1.07h1.22c9.8,0,19.6,0,29.39,0,.32,0,.64.01.96,0,.2-.01.4-.08.63-.12v-1.22c0-9.34,0-18.67,0-28.01,0-.25,0-.5,0-.75,0-.16.05-.36-.13-.45-.06-.02-.1-.04-.12-.03-1.56.76-3.13,1.52-4.68,2.31-.21.1-.38.31-.52.51-.67.96-1.33,1.94-1.99,2.91-1.5,2.21-3,4.41-4.49,6.63-.27.4-.6.68-1.05.85-1.53.57-3.06,1.15-4.59,1.73-1.63.61-3.26,1.22-4.9,1.83-.3.11-.54.28-.76.55-2.63,3.28-5.27,6.54-7.93,9.8-3.15,3.86-6.32,7.71-9.48,11.57-.56.69-1.14,1.37-1.69,2.07-.38.49-.86.73-1.48.68-.18-.01-.36-.02-.53-.02-3.2-.11-6.4-.22-9.6-.32-2.38-.08-4.77-.15-7.15-.21-.58-.01-1.13-.09-1.66-.33-.62-.27-1.25-.51-1.88-.76-3.38-1.33-6.75-2.66-10.13-4-1.85-.73-3.69-1.48-5.64-1.94-.69-.17-1.37-.36-2.06-.55-3.6-.98-7.2-1.97-10.8-2.95-.99-.27-1.99-.54-2.99-.81-.94.47-1.86.92-2.78,1.39-1.77.91-3.54,1.84-5.31,2.74-2.89,1.46-5.78,2.92-8.68,4.36-.56.28-.99.65-1.34,1.16-1.88,2.69-3.77,5.35-5.66,8.03-.55.78-1.1,1.57-1.62,2.31,1.05,4.37,2.08,8.65,3.13,12.94.08.34.24.67.41.98.64,1.19,1.31,2.37,1.96,3.55.15.27.27.56.4.83-1.3,1.72-2.66,3.32-3.91,5.03,1.07,2.48,2.31,4.84,3.4,7.37-.96.78-1.93,1.49-2.9,2.19-.95.69-1.89,1.39-2.84,2.09-.97.72-1.96,1.43-2.91,2.17-.94.74-1.98,1.35-2.93,2.25.24.05.37.11.5.11.43.01.85,0,1.28,0,25.9,0,51.8,0,77.7,0,4.85,0,9.69,0,14.54,0,.42,0,.86.1,1.33-.19ZM32.93,6.07c-.16.17-.25.28-.34.38-3.02,3.6-6.05,7.2-9.07,10.8-.36.44-.7.9-1.03,1.36-1.36,1.96-2.71,3.93-4.05,5.9-.33.48-.72.87-1.2,1.2-2.92,2.03-5.83,4.08-8.75,6.12-.32.22-.66.42-1,.61-1.27.72-2.55,1.43-3.82,2.14-.59.33-1.19.65-1.76,1-.2.12-.44.3-.51.51-.25.77-.53,1.53-.63,2.38.22.02.39.05.57.06,1.78.12,3.55.27,5.33.35.64.03,1.14.25,1.63.66,1.04.87,2.11,1.7,3.17,2.54.27.22.56.41.86.64.2-.23.37-.41.53-.6,1.56-1.9,3.12-3.8,4.68-5.69,1.76-2.15,3.53-4.29,5.3-6.44.24-.3.44-.66.94-.78,5.39,2.24,10.83,4.5,16.35,6.8.19-.41.37-.75.53-1.1,2.05-4.5,4.09-9.01,6.14-13.51.16-.35.25-.75.68-1.04.56.03,1.2.05,1.83.09,2.66.18,5.33.37,7.99.54.47.03.9.14,1.32.35,1.97,1,3.94,1.98,5.92,2.97.48.24.96.46,1.43.68,3.29-.94,6.54-1.86,9.78-2.8,1.19-.35,2.4-.67,3.56-1.11,2.5-.94,4.97-1.94,7.45-2.94.58-.23,1.14-.34,1.76-.33,1.92.04,3.85.04,5.77.07,1.71.03,3.41.07,5.12.12.28,0,.57.04.85.08,2.4.33,4.79.66,7.19.99,1.97.27,3.95.54,5.93.8.78.1,1.56.19,2.34.01.45-.1.9-.2,1.36-.3,3-.61,6-1.2,8.99-1.83.87-.18,1.76-.29,2.57-.68,1.73-.83,3.47-1.66,5.21-2.46.44-.2.77-.47,1.03-.88,1.39-2.2,2.79-4.39,4.2-6.57.22-.34.36-.69.45-1.07.29-1.21.59-2.42.88-3.63.04-.19,0-.4,0-.62-1.25-.08-2.45-.18-3.66-.25-2.98-.17-5.97-.34-8.95-.51-.53-.03-1.07.03-1.52-.36-.11-.1-.34-.08-.51-.08-.28-.01-.57,0-.85,0-21.52,0-43.03,0-64.55,0-.36,0-.71,0-1.07,0-.14,0-.27.05-.44.09-.03.48-.07.93-.1,1.43-.21.16-.41.36-.65.51-2.33,1.51-4.67,3.01-7,4.52-.35.23-.69.31-1.11.27-1.06-.11-2.13-.18-3.19-.27-2.02-.17-4.04-.35-6.06-.52-2.31-.19-4.61-.38-6.92-.57-.28-.02-.57-.03-.9-.05Zm257.69,97.44c-.05.82.04,1.48.09,2.16.05.67.09,1.35.11,2.03.01.66.21,1.33.08,2.05-2.97.42-5.91.66-8.84,1.01-2.93.34-5.87.6-8.87,1,.06.42.11.77.17,1.11.08.42.17.84.28,1.25.12.45.05.84-.28,1.18-.12.13-.24.26-.36.4-.73.04-1.44.07-2.15.11-3.27.19-6.54.37-9.82.56-.24.01-.48.06-.72.09-.89,2.45-1.76,4.86-2.63,7.27-.64,1.77-1.18,3.59-1.96,5.31-.79,1.74-1.86,3.37-2.75,5.07-1.78,3.38-3.8,6.6-6.06,9.68-.76,1.03-1.47,2.1-2.21,3.15-.19.27-.32.55-.3.89.01.28,0,.57,0,.86-.06,2.78,0,5.56-.59,8.3-.06.26,0,.54,0,.92.21-.14.36-.22.49-.32.5-.4.98-.84,1.49-1.21.66-.47,1.09-1.09,1.42-1.82.64-1.43,1.34-2.83,2-4.25.27-.56.7-.86,1.32-.95,2.19-.31,4.37-.62,6.55-.96.69-.11,1.17.13,1.52.71.09.15.17.31.26.47,2.16,3.93,4.33,7.86,6.49,11.79.19.34.47.67.55,1.03.16.8.73,1.17,1.35,1.53.46.27.91.56,1.35.87.4.29.78.36,1.29.21,2.94-.85,5.89-1.66,8.83-2.49.45-.13.87-.29,1.25-.57,1.99-1.45,3.97-2.89,5.98-4.31.47-.33.71-.75.86-1.29.69-2.43,1.4-4.86,2.11-7.28.09-.3.2-.59.29-.83.11-.06.14-.09.17-.09,1.21.04,2.42.06,3.63.13.22.01.46.16.65.31.82.63,1.63,1.27,2.44,1.91,2.93,2.32,5.95,4.55,8.51,7.3.02.03.05.05.08.07.13.1.23.29.48.17.01-.16.03-.33.03-.51,0-17.85-.02-35.71-.03-53.56,0-.03-.02-.07-.04-.1-.02-.03-.05-.04-.14-.11-.25.09-.55.18-.84.3-1.21.53-2.42,1.04-3.61,1.6-.62.3-1.19.34-1.85.13-1.5-.46-3.01-.87-4.52-1.29-1.13-.32-2.25-.63-3.52-.98Zm-28.97,67.3c.39.34.73.64,1.08.94,2.29,1.93,4.56,3.88,6.87,5.78.64.53.84,1.11.61,1.88-.13.44-.25.89-.37,1.34-.38,1.45-.77,2.89-1.14,4.34-.16.63-.48,1.1-1.13,1.3-.14.04-.26.1-.4.16-2.04.85-4.07,1.7-6.11,2.55-.32.13-.63.29-1.02.47.27.31.47.55.69.78,1.53,1.64,3.07,3.27,4.61,4.91.71.75,1.4,1.52,2.12,2.26.38.39.53.83.45,1.36-.03.21-.06.42-.1.63-.25,1.4-.48,2.81-.76,4.2-.13.63-.04,1.17.24,1.74,1.47,3,2.92,6.02,4.37,9.04.14.29.29.57.43.85.17.04.31.07.45.09,1.8.23,3.6.46,5.4.69,2.05.26,4.09.56,6.15.76.73.07,1.2.35,1.48,1,.03.06.04.14.07.24-.52,1.64-1.04,3.3-1.56,4.96-.53,1.68-1.11,3.35-1.6,5.17.27-.05.44-.06.6-.12,2.86-1.08,5.72-2.17,8.59-3.24.46-.17.79-.44,1.05-.84.66-1.01,1.35-2.01,2.03-3.01,1.42-2.09,2.85-4.18,4.26-6.28.29-.43.63-.74,1.1-.96,1.41-.68,2.81-1.39,4.21-2.09.28-.14.54-.31.81-.47v-51.84c-1.83-1.67-3.48-3.55-5.46-5.08-2.03-1.57-4.03-3.18-6.05-4.76-.25-.19-.52-.45-.81-.49-1.01-.13-2.03-.23-3.07-.1-.09.28-.18.51-.25.75-.68,2.36-1.37,4.72-2.02,7.08-.15.55-.42.94-.88,1.28-2.04,1.5-4.06,3.01-6.09,4.53-.41.3-.84.51-1.33.65-2.75.75-5.48,1.54-8.22,2.3-.58.16-1.17.29-1.76.44-.55-.32-1.11-.63-1.65-.95-.57-.34-1.12-.73-1.81-.97-1.37,2.25-2.71,4.46-4.09,6.73Zm-21.76-144.27c-.19-.25-.35-.48-.53-.69-1.92-2.34-3.86-4.67-5.76-7.02-.42-.52-.92-.84-1.54-1.07-2.37-.88-4.72-1.8-7.08-2.7-.33-.12-.65-.26-1-.41.07-.37.12-.68.2-.98.22-.83.45-1.65.67-2.47.31-1.13.62-2.27.92-3.4.09-.35.14-.69-.05-1.04-.71-1.27-1.4-2.55-2.12-3.85-.21,0-.39-.01-.56,0-2.17.16-4.33.33-6.5.5-.29.02-.57.04-.81-.17-.92-.83-1.98-1.51-2.83-2.57h-1.1c-3.53,0-7.05,0-10.58,0-2.39,0-4.77,0-7.16,0-.49,0-1-.07-1.35.44-.08.12-.31.16-.48.2-.38.1-.76.17-1.15.25-3.05.71-6.11,1.38-9.14,2.16-1.27.33-2.51.43-3.8.35-1.1-.07-2.21-.1-3.31-.18-.6-.04-1.1.11-1.61.42-2.51,1.5-5.03,2.96-7.55,4.44-.21.12-.41.26-.67.43.31,2.66.59,5.31.96,7.95,1.48,1.15,2.94,2.28,4.41,3.42.42-.16.78-.3,1.14-.45,1.02-.42,2.04-.84,3.05-1.28.32-.14.59-.14.92-.03.41.14.63.41.8.79.69,1.53,1.39,3.04,2.09,4.56.24.51.49,1.02.73,1.54.3.09.56.19.84.26,1.58.44,3.15.89,4.73,1.3.76.2,1.25.6,1.48,1.37.19.65.46,1.27.71,1.9.13.32.27.64.42,1.01.37,0,.69,0,1,0,1.39.02,2.78.04,4.17.06.75.01,1.5.03,2.24.07.71.04,1.1.39,1.24,1.09.05.28.08.56.11.85.28,2.44.56,4.88.84,7.32.02.2.07.4.11.62.56,0,1.06.02,1.55,0,1.71-.07,3.42-.16,5.12-.24.21-.01.43-.04.64-.04.48-.01.88-.18,1.27-.47,1.49-1.1,3-2.17,4.5-3.25.26-.18.53-.34.79-.51.45.25.88.43,1.14.87-.3,1.47-.6,2.93-.9,4.39-.11.5-.11.97.04,1.47.35,1.12.65,2.26.98,3.38.08.27.2.52.29.75.38.17.7.32,1.03.45,3.47,1.48,6.95,2.94,10.41,4.44.83.36,1.66.58,2.57.56,1.06-.02,2.12.05,3.23.08.36-.88.69-1.74,1.06-2.58.18-.42.19-.79.04-1.23-.5-1.48-.93-2.99-1.43-4.47-.14-.43-.14-.81.02-1.23.26-.66.47-1.34.66-2.03.45-1.65.88-3.3,1.32-4.95.09-.34.21-.67.31-1,1.02-.53,1.98-1.06,2.97-1.54.57-.28.97-.65,1.3-1.21,1.15-1.97,2.34-3.91,3.51-5.87.14-.24.27-.49.42-.76Zm65.08,274.77c.16-.45.09-.92.09-1.37,0-17.88,0-35.76,0-53.64,0-.71,0-1.42,0-2.14,0-.24-.06-.47-.1-.78h-1.22c-9.79,0-19.59,0-29.38,0-.21,0-.43-.01-.64,0-.2.02-.4.07-.64.11,0,19.18,0,38.3,0,57.43,0,.14.05.27.07.43.16.04.29.09.43.09,10.36,0,20.73,0,31.09-.01.1,0,.19-.07.3-.12ZM.65,35.34c1.85-1.04,3.53-1.97,5.2-2.92.86-.49,1.75-.96,2.57-1.52,2.76-1.9,5.48-3.84,8.23-5.74.51-.35.92-.77,1.27-1.28.88-1.3,1.76-2.59,2.66-3.88.79-1.14,1.55-2.31,2.42-3.38,2.92-3.58,5.84-7.18,8.92-10.63.23-.26.48-.51.73-.78,1.03.08,2.02.15,3.01.22.92.07,1.85.13,2.77.21,1.35.12,2.69.27,4.04.38,1.31.11,2.63.2,3.94.3.96.08,1.92.12,2.87.26.74.1,1.36,0,2-.43,2.04-1.36,4.12-2.66,6.18-3.99.17-.11.33-.26.49-.39v-.98c-.08-.04-.14-.1-.2-.1-18.75,0-37.5,0-56.25,0-.24,0-.48.01-.75.02-.03.2-.07.34-.07.47,0,11.33,0,22.65,0,34.16Zm229.82,18.35c.72.45,4.07,1.77,5.13,2.04.21-.19.44-.4.67-.62.58-.58,1.16-1.16,1.74-1.74.41-.4.88-.57,1.46-.4.41.12.83.22,1.24.3.23.04.48.03.66.04.08-.08.12-.11.13-.14.82-2.43,1.63-4.85,2.44-7.28.06-.19.04-.4.06-.63-.32-.12-.58-.22-.85-.32-1.47-.53-2.94-1.07-4.43-1.56-.57-.19-.85-.5-1-1.09-.59-2.31-1.23-4.6-1.86-6.9-.05-.19-.15-.38-.25-.64-1.01.52-1.96.99-2.89,1.51-.19.11-.35.36-.43.58-.27.77-.51,1.55-.73,2.34-.48,1.71-.94,3.43-1.43,5.14-.09.3-.04.55.05.83.45,1.39.87,2.79,1.34,4.17.22.64.27,1.21-.06,1.84-.31.6-.52,1.25-.77,1.87-.09.22-.15.46-.22.67Zm2.45-36.58c-.04-.32-.05-.64-.12-.94-.24-1.11-.5-2.22-.73-3.33-.09-.45-.21-.91-.2-1.36.04-1.49.14-2.99.22-4.48.1-1.88.21-3.77.3-5.65.01-.2-.03-.4-.05-.59-.84-.11-16.42-.16-17.99-.06-.05,0-.1.08-.2.17.48.47,1.03.85,1.51,1.31.36.34.76.47,1.26.43,1.31-.12,2.62-.22,3.94-.32.53-.04,1.07-.07,1.6-.1.53-.03,1.05-.05,1.57-.08.18.31.33.54.47.79.62,1.12,1.2,2.26,1.85,3.36.32.54.37,1.02.2,1.62-.53,1.84-1.01,3.7-1.5,5.56-.06.23-.06.47-.08.68,1.29.67,7.18,2.88,7.97,2.98ZM190.8.72c-.4-.03-.61-.06-.81-.06-1.24,0-2.49,0-3.73,0-2.56,0-5.12.01-7.68,0-.53,0-.96.12-1.35.48-.55.5-1.14.96-1.71,1.45-.12.11-.22.25-.4.45.32.05.52.11.72.12,1.14.06,2.27.12,3.41.14.46,0,.92-.04,1.37-.14,3.02-.67,6.03-1.36,9.04-2.05.33-.08.68-.12,1.15-.37Zm-41.39,276.66c.54-.33,1.03-.61,1.51-.92.47-.31.92-.64,1.4-.98-.13-.96.01-1.89-.31-2.78-.77-.4-1.54-.73-2.32-1.02-.71.52-1.36,1.02-2.03,1.47-.41.28-.53.64-.49,1.09.06.64.12,1.27.19,1.9.02.2.08.4.14.66.63.19,1.23.37,1.91.57Z"/>
    <path class="cls-2" d="m143.65,241.52c-.82-.02-1.58.7-1.6,1.54-.02.83.7,1.58,1.54,1.6.83.02,1.57-.7,1.59-1.54.02-.84-.69-1.58-1.53-1.6Z"/>
    <path class="cls-2" d="m77.24,127.46c-.88,0-1.54.64-1.55,1.52,0,.88.64,1.54,1.52,1.55.89,0,1.54-.64,1.55-1.52,0-.89-.64-1.54-1.52-1.55Z"/>
    <path class="cls-2" d="m200.93,242.53c.84,0,1.56-.73,1.55-1.57,0-.84-.74-1.57-1.57-1.57-.82,0-1.57.76-1.56,1.58,0,.84.74,1.56,1.58,1.55Z"/>
    <path class="cls-2" d="m201.77,77.13c.86,0,1.56-.69,1.57-1.54,0-.85-.69-1.55-1.55-1.55-.86,0-1.57.68-1.58,1.53,0,.83.71,1.56,1.56,1.57Z"/>
    <path class="cls-2" d="m238.4,64.64c-.86-.01-1.55.66-1.57,1.53-.01.86.67,1.57,1.52,1.59.84.02,1.55-.68,1.56-1.54.01-.87-.66-1.56-1.52-1.58Z"/>
    <path class="cls-2" d="m159.4,45.82c-.86-.02-1.57.66-1.59,1.51-.02.86.65,1.57,1.51,1.6.84.03,1.58-.67,1.61-1.52.03-.84-.67-1.57-1.52-1.59Z"/>
    <path class="cls-2" d="m104.19,72.54c.86-.02,1.52-.71,1.5-1.59-.01-.86-.72-1.55-1.57-1.52-.86.02-1.52.72-1.5,1.6.02.86.71,1.53,1.57,1.52Z"/>
    <path class="cls-2" d="m240.18,126.63c.84.01,1.58-.7,1.59-1.54.02-.82-.72-1.58-1.55-1.6-.82-.02-1.57.72-1.58,1.55-.01.84.69,1.57,1.54,1.58Z"/>
    <path class="cls-2" d="m135.15,62.49c0-.87-.68-1.53-1.56-1.53-.87,0-1.55.69-1.55,1.55,0,.86.7,1.53,1.57,1.53.88,0,1.54-.67,1.54-1.55Z"/>
    <path class="cls-2" d="m274.31,81.08c.01-.85-.68-1.57-1.54-1.58-.84-.01-1.6.7-1.59,1.53.01.96.79,1.58,1.54,1.57.86,0,1.57-.68,1.59-1.52Z"/>
    <path class="cls-1" d="m232,247.37c-.12-.25-.29-.49-.36-.76-.2-.78.29-1.59,1.07-1.84.73-.23,1.53.14,1.86.86.32.71.07,1.55-.6,1.95-.41.24-.84.39-1.31.15-.19-.1-.38-.18-.57-.27-.03-.03-.06-.06-.09-.09Z"/>
    <path class="cls-2" d="m178.46,174.91c.02-.83-.71-1.61-1.54-1.6-.92.01-1.58.74-1.58,1.54,0,.85.68,1.58,1.53,1.59.84.02,1.57-.69,1.59-1.53Z"/>
    <path class="cls-1" d="m143.65,241.52c.84.02,1.54.76,1.53,1.6-.02.84-.76,1.56-1.59,1.54-.84-.02-1.56-.77-1.54-1.6.02-.83.78-1.56,1.6-1.54Z"/>
    <path class="cls-2" d="m220.84,124.51c.03-.83-.68-1.58-1.52-1.61-.84-.03-1.59.67-1.62,1.51-.03.83.67,1.57,1.52,1.6.86.02,1.58-.65,1.62-1.5Z"/>
    <path class="cls-1" d="m214.74,173.2c.88.02,1.51.69,1.49,1.58-.02.88-.69,1.51-1.58,1.49-.87-.02-1.51-.7-1.49-1.58.02-.88.69-1.51,1.58-1.49Z"/>
    <path class="cls-1" d="m103.1,201.59c.02.87-.65,1.58-1.5,1.6-.86.02-1.55-.66-1.58-1.52-.03-.94.69-1.55,1.5-1.6.83-.05,1.56.67,1.58,1.53Z"/>
    <path class="cls-1" d="m77.24,127.46c.89,0,1.53.66,1.52,1.55,0,.88-.66,1.53-1.55,1.52-.88,0-1.53-.67-1.52-1.55,0-.88.67-1.53,1.55-1.52Z"/>
    <path class="cls-1" d="m200.93,242.53c-.84,0-1.57-.72-1.58-1.55,0-.82.74-1.58,1.56-1.58.83,0,1.56.73,1.57,1.57,0,.84-.71,1.57-1.55,1.57Z"/>
    <path class="cls-1" d="m75.55,103.2c.01.86-.67,1.58-1.51,1.6-.83.02-1.55-.69-1.57-1.54-.01-.86.67-1.58,1.51-1.6.84-.02,1.55.68,1.57,1.54Z"/>
    <path class="cls-1" d="m201.77,77.13c-.84,0-1.56-.73-1.56-1.57,0-.85.72-1.54,1.58-1.53.86,0,1.55.7,1.55,1.55,0,.85-.71,1.55-1.57,1.54Z"/>
    <path class="cls-1" d="m120.45,150.49c.01.87-.66,1.57-1.52,1.58-.85.01-1.55-.68-1.56-1.54,0-.86.67-1.58,1.51-1.59.84-.02,1.55.69,1.56,1.55Z"/>
    <path class="cls-1" d="m238.4,64.64c.86.01,1.53.71,1.52,1.58-.01.86-.72,1.56-1.56,1.54-.85-.02-1.53-.73-1.52-1.59.01-.87.7-1.54,1.57-1.53Z"/>
    <path class="cls-2" d="m164.66,80.46c.02-.88-.63-1.57-1.5-1.59-.86-.03-1.57.65-1.59,1.51-.02.87.64,1.57,1.5,1.59.87.02,1.56-.64,1.58-1.5Z"/>
    <path class="cls-1" d="m159.4,45.82c.85.02,1.55.75,1.52,1.59-.03.85-.77,1.55-1.61,1.52-.86-.03-1.53-.74-1.51-1.6.02-.85.74-1.53,1.59-1.51Z"/>
    <path class="cls-1" d="m104.19,72.54c-.86.02-1.56-.65-1.57-1.52-.02-.87.64-1.57,1.5-1.6.85-.02,1.56.66,1.57,1.52.01.88-.64,1.57-1.5,1.59Z"/>
    <path class="cls-1" d="m240.18,126.63c-.85-.01-1.55-.74-1.54-1.58.01-.84.76-1.57,1.58-1.55.82.02,1.56.78,1.55,1.6-.02.84-.75,1.55-1.59,1.54Z"/>
    <path class="cls-1" d="m293.78,299.65c-1.71-1.06-3.37-2.1-5.03-3.13-1.33-.83-2.65-1.67-3.99-2.48-.59-.35-1.11-.75-1.47-1.42.35-.63.98-1.05,1.5-1.57.5-.5,1.02-.98,1.51-1.44-.08-.33-.29-.26-.44-.28-.78-.08-1.56-.15-2.34-.22-.41-.04-.74-.16-1-.52-.24-.35-.32-.67-.23-1.09.28-1.21.51-2.44.76-3.66.02-.1,0-.21,0-.39-.2,0-.41-.03-.6,0-.7.14-1.39.32-2.08.47-.92.2-1.62-.45-1.46-1.36.22-1.22.43-2.45.68-3.67.08-.39-.05-.7-.21-1.01-.63-1.27-1.27-2.55-1.91-3.82-.13-.26-.26-.5-.21-.81.07-.45.23-.8.65-1.04.59-.33,1.16-.7,1.73-1.06.17-.11.33-.25.54-.4-.18-.24-.31-.45-.46-.63-.27-.33-.54-.65-.82-.98-.37-.43-.4-.9-.19-1.39.22-.52.47-1.04.71-1.55.79-1.63,1.59-3.26,2.36-4.9.26-.55.64-.9,1.22-1.11,1.94-.7,3.86-1.45,5.8-2.15.43-.16.9-.23,1.35-.29.81-.12,1.62-.2,2.43-.3.1-.01.2-.08.33-.13,0-.2.03-.41,0-.6-.3-1.72-.61-3.43-.91-5.15-.04-.24-.11-.49-.1-.74.07-1.24.15-2.49.26-3.73.06-.68.39-1.02.98-1.06.2-.02.43.03.6.13.7.42,1.37.9,2.08,1.31.54.32.8.78.88,1.38.08.64.16,1.27.23,1.91.3,2.47.6,4.95.88,7.42.05.41.2.75.43,1.07.64.9,1.26,1.81,1.93,2.69.45.59.65,1.22.66,1.97.06,3.53.13,7.05.25,10.58.07,2.01-.22,3.97-.55,5.94-.41,2.49-.8,4.99-1.2,7.48-.1.6-.22,1.19-.32,1.79-.09.57-.27,1.1-.51,1.62-1.09,2.36-2.15,4.73-3.23,7.09-.06.13-.14.25-.18.39-.13.43-.43.63-.85.71-.14.03-.27.08-.49.14Zm-11.99-17.56s.02.08.05.09c.74.32,1.43.31,2.03-.3l.02-.02s.07-.05.09-.05c.55.11.87.44.86.88,0,.21-.05.42-.09.63-.24,1.19-.49,2.37-.72,3.56-.04.2,0,.41,0,.68.73.07,1.44.14,2.14.21.74.07,1.47.15,2.24.22.17.45.31.84.47,1.26-1.07,1.17-2.3,2.13-3.33,3.3.86.72,7.52,4.85,8.32,5.16.08-.14.18-.28.25-.43,1.03-2.27,2.07-4.53,3.09-6.8.14-.32.23-.67.29-1.02.63-3.79,1.23-7.59,1.88-11.37.17-.99.2-1.98.18-2.98-.08-3.63-.17-7.26-.22-10.9,0-.6-.18-1.09-.53-1.57-.68-.91-1.32-1.86-1.98-2.79-.23-.32-.41-.66-.45-1.06-.2-1.8-.43-3.6-.65-5.41-.16-1.31-.3-2.62-.47-3.92-.09-.73-.74-1.24-1.6-1.25-.01,1.17-.23,2.33-.02,3.5.16.91.34,1.82.51,2.73.17.94.36,1.89.51,2.84.14.93-.21,1.43-1.12,1.58-.88.14-1.77.22-2.64.36-.63.1-1.27.2-1.87.41-1.68.59-3.33,1.25-5.01,1.84-.48.17-.77.43-.98.89-.83,1.77-1.68,3.53-2.53,5.3-.09.19-.15.39-.24.63.5.61,1.01,1.2,1.5,1.81.46.57.34,1.35-.27,1.75-.63.41-1.27.78-1.91,1.18-.2.13-.38.29-.59.45.1.24.17.43.27.62.55,1.12,1.1,2.24,1.68,3.34.26.5.33,1.01.23,1.55-.05.24-.11.49-.15.73-.13.79-.33,1.58-.35,2.4h1.19l-.04-.04Z"/>
    <path class="cls-1" d="m135.15,62.49c0,.87-.66,1.54-1.54,1.55-.87,0-1.56-.67-1.57-1.53,0-.86.68-1.54,1.55-1.55.88,0,1.55.66,1.56,1.53Z"/>
    <path class="cls-1" d="m173.47,25.91c-.85-.02-1.55-.75-1.53-1.59.02-.83.77-1.56,1.6-1.54.83.02,1.56.79,1.54,1.61-.03.84-.76,1.54-1.61,1.52Z"/>
    <path class="cls-1" d="m274.31,81.08c-.01.85-.73,1.52-1.59,1.52-.75,0-1.53-.61-1.54-1.57-.01-.83.76-1.54,1.59-1.53.85.01,1.55.73,1.54,1.58Z"/>
    <path class="cls-2" d="m137.45,173.73c-.04.93.67,1.56,1.49,1.61.83.05,1.56-.67,1.58-1.52.02-.87-.64-1.58-1.49-1.6-.85-.03-1.56.65-1.58,1.51Z"/>
    <path class="cls-1" d="m178.46,174.91c-.02.84-.75,1.55-1.59,1.53-.85-.02-1.53-.74-1.53-1.59,0-.8.66-1.53,1.58-1.54.83,0,1.55.77,1.54,1.6Z"/>
    <path class="cls-1" d="m220.84,124.51c-.03.85-.76,1.52-1.62,1.5-.85-.02-1.55-.76-1.52-1.6.03-.84.78-1.54,1.62-1.51.84.03,1.55.78,1.52,1.61Z"/>
    <path class="cls-1" d="m152.13,107.21c.84.02,1.56.76,1.54,1.59-.02.83-.78,1.56-1.6,1.54-.84-.02-1.54-.76-1.53-1.6.02-.85.74-1.55,1.58-1.53Z"/>
    <path class="cls-1" d="m164.66,80.46c-.02.86-.71,1.52-1.58,1.5-.87-.02-1.52-.71-1.5-1.59.02-.86.73-1.53,1.59-1.51.87.03,1.51.71,1.5,1.59Z"/>
    <path class="cls-1" d="m281.83,282.13c-.15-.19-.31-.38-.45-.58-.41-.59-.39-1.35.03-1.88.43-.54,1.21-.74,1.83-.47.66.28,1.05,1.01.9,1.75-.06.31-.18.61-.27.92,0,0-.02.02-.02.02-.67.25-1.36.35-2.07.21l.04.04Z"/>
    <path class="cls-2" d="m281.79,282.09c.71.14,1.4.04,2.07-.21-.6.61-1.29.62-2.03.3-.02-.01-.03-.06-.05-.09Z"/>
    <path class="cls-1" d="m137.45,173.73c.02-.86.72-1.54,1.58-1.51.85.03,1.51.74,1.49,1.6-.02.85-.75,1.57-1.58,1.52-.82-.05-1.53-.68-1.49-1.61Z"/>
  </g>
  <g>
    <text class="cls-6" transform="translate(143.42 294.23)"><tspan x="0" y="0">1</tspan><tspan class="cls-9" x="2.83" y="0">0</tspan><tspan x="7.35" y="0">0 km</tspan></text>
    <g>
      <polyline class="cls-8" points="142.3 297.36 151.75 297.36 161.2 297.36 170.65 297.36"/>
      <rect class="cls-3" x="141.59" y="292.75" width="1.42" height="9.21"/>
      <rect class="cls-3" x="169.94" y="292.75" width="1.42" height="9.21"/>
    </g>
  </g>
  <text class="cls-6" transform="translate(159.22 184.84) rotate(-.03)"><tspan x="0" y="0">Clermont</tspan><tspan x="15.64" y="5.67">-</tspan><tspan x="2.46" y="11.34">Ferrand</tspan></text>
  <text class="cls-6" transform="translate(218.32 178.97) rotate(-.03)"><tspan class="cls-5" x="0" y="0">L</tspan><tspan class="cls-4" x="4.85" y="0">y</tspan><tspan class="cls-7" x="8.88" y="0">on</tspan></text>
</svg>