<?xml version="1.0" encoding="utf-8"?>
<!-- Generator: Adobe Illustrator 28.0.0, SVG Export Plug-In . SVG Version: 6.00 Build 0)  -->
<svg version="1.1" id="Calque_1" xmlns="http://www.w3.org/2000/svg" xmlns:xlink="http://www.w3.org/1999/xlink" x="0px" y="0px"
	 viewBox="0 0 27 33" style="enable-background:new 0 0 27 33;" xml:space="preserve">
<style type="text/css">
	.st0{fill:#4C9D71;}
	.st1{fill:#F5F5F5;}
	.st2{fill:#2C2C2C;}
</style>
<path class="st0" d="M3.5,0C1.6,0,0.1,1.5,0.1,3.4v26.2c0,1.9,1.5,3.4,3.4,3.4h20c1.9,0,3.4-1.5,3.4-3.4V8.1c0-0.4-0.1-0.9-0.2-1.2
	c-0.2-0.4-0.4-0.7-0.7-1l0,0L21,1l0,0c-0.3-0.3-0.7-0.5-1.1-0.7S19,0,18.5,0H3.5L3.5,0z"/>
<path class="st1" d="M3.5,1.1h15c0.4,0,0.7,0.1,1,0.2s0.5,0.3,0.7,0.5l0,0l5,4.9c0.2,0.2,0.3,0.4,0.4,0.6s0.1,0.5,0.1,0.7l0,0v21.6
	c0,1.3-1,2.3-2.3,2.3l0,0h-20c-1.3,0-2.3-1-2.3-2.3l0,0V3.4C1.2,2.2,2.2,1.1,3.5,1.1L3.5,1.1z"/>
<path class="st0" d="M18.7,13.8V16H8.3v-2.2h-2V18h14.4v-4.2H18.7z M13.5,15l4-6.9h-2V4.9h-4v3.2h-2L13.5,15z"/>
<g>
	<path class="st2" d="M5.2,28.3l1.5-2.7l-1.3-2.5h1l0.9,1.6l0.8-1.6h1l-1.3,2.5l1.5,2.6H8.1l-1-1.8l-1,1.8H5.2z"/>
	<path class="st2" d="M9.4,26.6l0.8-0.1c0.1,0.3,0.2,0.6,0.3,0.7c0.2,0.2,0.4,0.2,0.6,0.2c0.3,0,0.5-0.1,0.6-0.2
		c0.1-0.1,0.2-0.3,0.2-0.5c0-0.1,0-0.2-0.1-0.3c-0.1-0.1-0.2-0.2-0.3-0.2c-0.1,0-0.3-0.1-0.7-0.2c-0.5-0.1-0.8-0.3-1-0.5
		c-0.3-0.3-0.4-0.6-0.4-1c0-0.3,0.1-0.5,0.2-0.7c0.1-0.2,0.3-0.4,0.5-0.5c0.2-0.1,0.5-0.2,0.8-0.2c0.5,0,0.9,0.1,1.2,0.4
		c0.3,0.3,0.4,0.7,0.4,1.1l-0.9,0c0-0.3-0.1-0.5-0.2-0.6s-0.3-0.2-0.6-0.2c-0.3,0-0.5,0.1-0.6,0.2c-0.1,0.1-0.1,0.2-0.1,0.3
		c0,0.1,0,0.2,0.1,0.3c0.1,0.1,0.4,0.2,0.8,0.3c0.4,0.1,0.7,0.2,0.9,0.4c0.2,0.1,0.4,0.3,0.5,0.5s0.2,0.5,0.2,0.8
		c0,0.3-0.1,0.6-0.2,0.8c-0.1,0.3-0.3,0.4-0.6,0.6c-0.3,0.1-0.6,0.2-0.9,0.2c-0.5,0-1-0.1-1.3-0.4S9.5,27.2,9.4,26.6z"/>
	<path class="st2" d="M13.7,28.3v-5.1h0.9v4.2h2.2v0.9H13.7z"/>
	<path class="st2" d="M16.9,28.3l1.5-2.7L17,23.2h1l0.9,1.6l0.8-1.6h1l-1.3,2.5l1.5,2.6h-1.1l-1-1.8l-1,1.8H16.9z"/>
</g>
</svg>
