<?xml version="1.0" encoding="UTF-8"?>
<svg id="a" data-name="Calque 1" xmlns="http://www.w3.org/2000/svg" viewBox="0 0 50 20">
  <line x1="41.43" y1="10" x2="2.5" y2="10" style="fill: none; stroke: #000; stroke-miterlimit: 10; stroke-width: 1.5px;"/>
  <g>
    <path d="m41.11,4.36c3.11,0,5.64,2.53,5.64,5.64s-2.53,5.64-5.64,5.64-5.64-2.53-5.64-5.64,2.53-5.64,5.64-5.64Z" style="fill: #fff; stroke-width: 0px;"/>
    <path d="m41.11,3.61c-3.52,0-6.39,2.87-6.39,6.39s2.87,6.39,6.39,6.39,6.39-2.87,6.39-6.39-2.87-6.39-6.39-6.39,3.52,0,0,0Zm0,11.28c-2.7,0-4.89-2.19-4.89-4.89s2.19-4.89,4.89-4.89,4.89,2.19,4.89,4.89-2.19,4.89-4.89,4.89,2.7,0,0,0Z" style="stroke-width: 0px;"/>
  </g>
</svg>