<?xml version="1.0" encoding="UTF-8"?>
<svg id="Calque_1" data-name="Calque 1" xmlns="http://www.w3.org/2000/svg" viewBox="0 0 258.01 279.28">
  <defs>
    <style>
      .cls-1 {
        opacity: .5;
      }

      .cls-1, .cls-2 {
        fill: #f6a117;
        isolation: isolate;
        stroke-width: 0px;
      }

      .cls-2 {
        opacity: .7;
      }

      .cls-3, .cls-4, .cls-5, .cls-6 {
        fill: none;
        stroke: #b97911;
        stroke-linecap: round;
        stroke-linejoin: round;
        stroke-width: 2px;
      }

      .cls-4 {
        stroke-dasharray: 0 0 14.58 8.33;
      }

      .cls-7 {
        font-family: Bahnschrift, Bahnschrift;
        font-size: 27px;
        font-variation-settings: 'wght' 400, 'wdth' 100;
      }

      .cls-5 {
        stroke-dasharray: 0 0 14.6 8.34;
      }

      .cls-6 {
        stroke-dasharray: 0 0 14 8;
      }
    </style>
  </defs>
  <polygon class="cls-1" points="18.87 241.09 18.87 81.09 71.87 28.09 71.87 188.09 18.87 241.09"/>
  <rect class="cls-1" x="71.87" y="28.09" width="160" height="160"/>
  <polygon class="cls-2" points="18.87 241.09 71.87 188.09 231.87 188.09 178.87 241.09 18.87 241.09"/>
  <g>
    <line class="cls-3" x1="231.87" y1="188.09" x2="224.87" y2="188.09"/>
    <line class="cls-4" x1="216.54" y1="188.09" x2="83.25" y2="188.09"/>
    <polyline class="cls-3" points="79.08 188.09 72.08 188.09 72.08 181.09"/>
    <line class="cls-5" x1="72.08" y1="172.74" x2="72.08" y2="39.23"/>
    <line class="cls-3" x1="72.08" y1="35.06" x2="72.08" y2="28.06"/>
  </g>
  <path class="cls-6" d="m71.87,188.09l-53,53"/>
  <path class="cls-3" d="m18.87,81.09l53-53"/>
  <path class="cls-3" d="m18.87,81.09h160"/>
  <path class="cls-3" d="m18.87,81.09v160"/>
  <path class="cls-3" d="m231.87,28.09H71.87"/>
  <path class="cls-3" d="m231.87,28.09l-53,53"/>
  <path class="cls-3" d="m231.87,28.09v160"/>
  <path class="cls-3" d="m178.87,241.09H18.87"/>
  <path class="cls-3" d="m178.87,241.09l53-53"/>
  <path class="cls-3" d="m178.87,241.09V81.09"/>
  <text class="cls-7" transform="translate(2.59 271.98)"><tspan x="0" y="0">E</tspan></text>
  <text class="cls-7" transform="translate(188.62 271.97)"><tspan x="0" y="0">F</tspan></text>
  <text class="cls-7" transform="translate(168.35 74.33)"><tspan x="0" y="0">B</tspan></text>
  <text class="cls-7" transform="translate(0 83.67)"><tspan x="0" y="0">A</tspan></text>
  <text class="cls-7" transform="translate(67.58 212.21)"><tspan x="0" y="0">H</tspan></text>
  <text class="cls-7" transform="translate(240.55 201.18)"><tspan x="0" y="0">G</tspan></text>
  <text class="cls-7" transform="translate(59.67 23.08)"><tspan x="0" y="0">D</tspan></text>
  <text class="cls-7" transform="translate(239.91 25.31)"><tspan x="0" y="0">C</tspan></text>
</svg>