<?xml version="1.0" encoding="UTF-8"?>
<svg id="Calque_1" data-name="Calque 1" xmlns="http://www.w3.org/2000/svg" viewBox="0 0 21 21">
  <defs>
    <style>
      .cls-1 {
        stroke-width: 0px;
      }
    </style>
  </defs>
  <path class="cls-1" d="m0,0v21h21V0H0Zm20,4.95c-2.08-.23-3.74-1.87-3.97-3.95h3.97v3.95Zm-4.5,15.05c-2.32,0-4.24-1.77-4.48-4.02,1.99-.19,3.67-1.44,4.48-3.18.8,1.74,2.48,3,4.48,3.18-.24,2.26-2.15,4.02-4.48,4.02Zm-5-5c-2.32,0-4.24-1.77-4.48-4.02,0,0,.01,0,.02,0,.32-.03.63-.09.93-.18.03,0,.07-.02.1-.03.29-.09.57-.2.83-.33.04-.02.08-.04.12-.06.26-.13.5-.29.74-.46.04-.03.08-.06.11-.08.23-.18.44-.37.64-.58.03-.03.06-.07.1-.11.19-.22.37-.44.52-.69.02-.04.05-.08.07-.11.11-.18.21-.37.3-.57.09.2.19.39.3.57.02.04.05.08.07.11.16.24.33.47.52.69.03.04.06.07.1.11.2.21.41.4.64.58.04.03.07.06.11.08.23.17.48.33.74.46.04.02.08.04.12.06.27.13.54.24.83.33.03,0,.07.02.1.03.3.08.61.15.93.18,0,0,.01,0,.02,0-.24,2.26-2.15,4.02-4.48,4.02Zm-5,5c-2.32,0-4.24-1.77-4.48-4.02,1.99-.19,3.67-1.44,4.48-3.18.8,1.74,2.48,3,4.48,3.18-.24,2.26-2.15,4.02-4.48,4.02Zm14.43-13.79c-.02.13-.05.26-.08.38-.04.15-.09.3-.14.45-.04.12-.09.24-.14.35-.07.14-.14.28-.22.41-.06.11-.13.22-.2.32-.09.13-.19.24-.3.36-.08.09-.16.19-.25.27-.11.11-.24.21-.37.3-.1.07-.19.15-.29.22-.14.09-.29.16-.44.24-.1.05-.2.11-.31.15-.17.07-.36.12-.54.17-.09.03-.19.06-.28.08-.28.06-.58.09-.88.09s-.59-.03-.88-.09c-.1-.02-.19-.06-.28-.08-.18-.05-.37-.1-.54-.17-.11-.04-.2-.1-.31-.15-.15-.07-.3-.15-.44-.24-.1-.07-.19-.14-.29-.22-.13-.1-.25-.19-.37-.3-.09-.09-.17-.18-.25-.27-.1-.12-.21-.23-.3-.36-.07-.1-.14-.21-.2-.32-.08-.13-.16-.27-.22-.41-.05-.12-.1-.23-.14-.35-.05-.15-.1-.3-.14-.45-.03-.13-.06-.25-.08-.38-.01-.08-.02-.16-.02-.23,1.98-.2,3.65-1.45,4.45-3.18.8,1.73,2.47,2.98,4.45,3.18,0,.08-.01.16-.02.23Zm-9.43-1.21c-2.31,0-4.22-1.75-4.47-4h8.94c-.25,2.25-2.16,4-4.47,4Zm-.55.97c0,.08-.01.16-.02.23-.02.13-.05.26-.08.38-.04.15-.09.3-.14.45-.04.12-.09.24-.14.35-.07.14-.14.28-.22.41-.06.11-.13.22-.2.32-.09.13-.19.24-.3.36-.08.09-.16.19-.25.27-.11.11-.24.21-.37.3-.1.07-.19.15-.29.22-.14.09-.29.16-.44.24-.1.05-.2.11-.31.15-.17.07-.36.12-.54.17-.09.03-.19.06-.28.08-.28.06-.58.09-.88.09s-.59-.03-.88-.09c-.1-.02-.19-.06-.28-.08-.18-.05-.37-.1-.54-.17-.11-.04-.2-.1-.31-.15-.15-.07-.3-.15-.44-.24-.1-.07-.19-.14-.29-.22-.13-.1-.25-.19-.37-.3-.09-.09-.17-.18-.25-.27-.1-.12-.21-.23-.3-.36-.07-.1-.14-.21-.2-.32-.08-.13-.16-.27-.22-.41-.05-.12-.1-.23-.14-.35-.05-.15-.1-.3-.14-.45-.03-.13-.06-.25-.08-.38-.01-.08-.02-.16-.02-.23,1.98-.2,3.65-1.45,4.45-3.18.8,1.73,2.47,2.98,4.45,3.18ZM1,8.65c.12.17.26.34.4.5.03.04.06.07.1.11.2.21.41.4.64.58.04.03.07.06.11.08.23.17.48.33.74.46.04.02.08.04.12.06.27.13.54.24.83.33.03,0,.07.02.1.03.3.08.61.15.93.18,0,0,.01,0,.02,0-.22,2.09-1.89,3.74-3.98,3.98v-6.3Zm15.02,2.32s.01,0,.02,0c.32-.03.63-.09.93-.18.03,0,.07-.02.1-.03.29-.09.57-.2.83-.33.04-.02.08-.04.12-.06.26-.13.5-.29.74-.46.04-.03.08-.06.11-.08.23-.18.44-.37.64-.58.03-.03.06-.07.1-.11.14-.16.27-.32.4-.5v6.3c-2.09-.23-3.75-1.89-3.98-3.98ZM4.97,1c-.23,2.08-1.89,3.72-3.97,3.95V1h3.97ZM1,20v-1.35c.37.52.82.98,1.35,1.35h-1.35Zm7.65,0c.8-.56,1.44-1.33,1.85-2.22.41.9,1.05,1.66,1.85,2.22h-3.7Zm11.35,0h-1.35c.52-.37.98-.82,1.35-1.35v1.35Z"/>
</svg>