<?xml version="1.0" encoding="UTF-8"?>
<svg id="Calque_1" data-name="Calque 1" xmlns="http://www.w3.org/2000/svg" viewBox="0 0 21 21">
  <defs>
    <style>
      .cls-1 {
        stroke-width: 0px;
      }
    </style>
  </defs>
  <path class="cls-1" d="m0,0v21h21V0H0Zm18.5,20h-2.5l4-4v2.5l-1.5,1.5Zm-.5-9.5h-2.5l-5,5h2.5l2.5-2.5v2.5h2.5l-2.5,2.5v2h-5v-2l-2,2h-2.5l4.5-4.5v-2.5l2.5-2.5h-2.5v-2.5l-2.5,2.5h-2.5L1,15v-2.5l2-2H1v-5h2l2.5-2.5v2.5h2.5l-2.5,2.5v2.5l5-5v-2.5l2-2h2.5l-4.5,4.5h2.5l2.5-2.5v2.5h2.5l-2.5,2.5v2.5l4.5-4.5v2.5l-2,2ZM2.5,1h2.5L1,5v-2.5l1.5-1.5ZM1,15.5h2l2.5-2.5v2.5h2.5l-2.5,2.5v2H1v-4.5Z"/>
</svg>