<?xml version="1.0" encoding="UTF-8"?>
<svg id="Calque_1" data-name="Calque 1" xmlns="http://www.w3.org/2000/svg" viewBox="0 0 21 21">
  <defs>
    <style>
      .cls-1 {
        stroke-width: 0px;
      }
    </style>
  </defs>
  <circle class="cls-1" cx="16.8" cy="5.7" r="2"/>
  <circle class="cls-1" cx="6.8" cy="15.7" r="2"/>
  <circle class="cls-1" cx="16.8" cy="15.7" r="2"/>
  <circle class="cls-1" cx="11.8" cy="10.7" r="2"/>
  <circle class="cls-1" cx="6.8" cy="5.7" r="2"/>
  <path class="cls-1" d="m0,0v21h21V0H0Zm13.66,20c-.28-.76-1.01-1.3-1.87-1.3s-1.58.54-1.87,1.3H3.66c-.28-.76-1.01-1.3-1.87-1.3-.29,0-.55.08-.8.19v-6.43c.21.15.46.24.8.24,1.1,0,2-.9,2-2s-.9-2-2-2c-.33,0-.59.08-.8.22V2.53c.24.11.51.17.8.17,1,0,1.82-.74,1.97-1.7h6.06c.15.96.97,1.7,1.97,1.7s1.82-.74,1.97-1.7h6.06c.03.2.09.39.17.57v8.28c-.12.26-.2.54-.2.85s.08.6.2.86v8.44h-6.34Z"/>
</svg>