<?xml version="1.0" encoding="UTF-8"?>
<svg id="Calque_1" data-name="Calque 1" xmlns="http://www.w3.org/2000/svg" viewBox="0 0 21 21">
  <defs>
    <style>
      .cls-1 {
        stroke-width: 0px;
      }
    </style>
  </defs>
  <path class="cls-1" d="m0,0v21h21V0H0Zm18.5,15.5l1.5-3.75v7.5l-1.5-3.75Zm.75,4.5h-7.5l3.75-1.5,3.75,1.5Zm-3.75-7.5l-5-2,2,5-1.8,4.5h-.4l-1.8-4.5,2-5-5,2-4.5-1.8v-.4l4.5-1.8,5,2-2-5,1.8-4.5h.4l1.8,4.5-2,5,5-2,4.5,1.8v.4l-4.5,1.8Zm-10,6l3.75,1.5H1.75l3.75-1.5Zm-4.5.75v-7.5l1.5,3.75-1.5,3.75Zm1.5-13.75l-1.5,3.75V1.75l1.5,3.75ZM1.75,1h7.5l-3.75,1.5L1.75,1Zm16.75,4.5l1.5-3.75v7.5l-1.5-3.75Zm-3-3l-3.75-1.5h7.5l-3.75,1.5Z"/>
</svg>