<?xml version="1.0" encoding="utf-8"?>
<!-- Generator: Adobe Illustrator 28.0.0, SVG Export Plug-In . SVG Version: 6.00 Build 0)  -->
<svg version="1.1" id="Calque_1" xmlns="http://www.w3.org/2000/svg" xmlns:xlink="http://www.w3.org/1999/xlink" x="0px" y="0px"
	 viewBox="0 0 307.3 261.9" style="enable-background:new 0 0 307.3 261.9;" xml:space="preserve">
<style type="text/css">
	.st0{fill:none;stroke:#3AAA35;stroke-width:3;stroke-linecap:round;stroke-linejoin:round;stroke-miterlimit:10;}
	.st1{fill:none;stroke:#3AAA35;stroke-width:2;stroke-linecap:round;stroke-linejoin:round;stroke-miterlimit:10;}
	.st2{fill:none;stroke:#009FE3;stroke-width:3;stroke-linecap:round;stroke-linejoin:round;stroke-miterlimit:10;}
	.st3{fill:none;stroke:#009FE3;stroke-width:2;stroke-linecap:round;stroke-linejoin:round;stroke-miterlimit:10;}
	.st4{fill:none;stroke:#E30613;stroke-width:3;stroke-linecap:round;stroke-linejoin:round;stroke-miterlimit:10;}
	.st5{fill:none;stroke:#000000;stroke-width:3;stroke-linecap:round;stroke-linejoin:round;stroke-miterlimit:10;}
	.st6{fill:none;stroke:#E30613;stroke-width:2;stroke-linecap:round;stroke-linejoin:round;stroke-miterlimit:10;}
	.st7{fill:#009FE3;}
	.st8{fill:#E30613;}
	.st9{fill:#3AAA35;}
	.st10{fill:none;stroke:#000000;stroke-width:2;stroke-linecap:round;stroke-linejoin:round;stroke-miterlimit:10;}
</style>
<line class="st0" x1="92.5" y1="167.5" x2="92.5" y2="17.5"/>
<line class="st1" x1="86.7" y1="137.5" x2="98.3" y2="137.5"/>
<line class="st1" x1="86.7" y1="77.5" x2="98.3" y2="77.5"/>
<line class="st1" x1="86.7" y1="107.5" x2="98.3" y2="107.5"/>
<line class="st1" x1="86.7" y1="47.5" x2="98.3" y2="47.5"/>
<line class="st2" x1="292.5" y1="167.5" x2="92.5" y2="167.5"/>
<line class="st3" x1="121.1" y1="173" x2="121.1" y2="161.9"/>
<line class="st3" x1="149.7" y1="173" x2="149.7" y2="161.9"/>
<line class="st3" x1="178.2" y1="173" x2="178.2" y2="161.9"/>
<line class="st3" x1="206.8" y1="173" x2="206.8" y2="161.9"/>
<line class="st3" x1="235.4" y1="173" x2="235.4" y2="161.9"/>
<line class="st3" x1="263.9" y1="173" x2="263.9" y2="161.9"/>
<line class="st4" x1="92.5" y1="167.5" x2="17.5" y2="242.5"/>
<line class="st5" x1="292.5" y1="17.5" x2="292.5" y2="167.5"/>
<line class="st5" x1="92.5" y1="17.5" x2="292.5" y2="17.5"/>
<line class="st5" x1="17.5" y1="242.5" x2="17.5" y2="92.5"/>
<line class="st5" x1="217.5" y1="242.5" x2="17.5" y2="242.5"/>
<line class="st5" x1="217.5" y1="92.5" x2="217.5" y2="242.5"/>
<line class="st5" x1="17.5" y1="92.5" x2="217.5" y2="92.5"/>
<line class="st5" x1="92.5" y1="17.5" x2="17.5" y2="92.5"/>
<line class="st5" x1="292.5" y1="17.5" x2="217.5" y2="92.5"/>
<line class="st5" x1="292.5" y1="167.5" x2="217.5" y2="242.5"/>
<g>
	<g>
		<path d="M294.2,2.3h1.6v11.4h-1.6V2.3z M295.2,7.3h6.3v1.5h-6.3V7.3z M300.7,2.3h1.6v11.4h-1.6V2.3z"/>
	</g>
</g>
<g>
	<g>
		<path d="M80.6,157.2H82l4.2,11.4h-1.7l-3.1-9.2l-3.1,9.2h-1.7L80.6,157.2z M78.3,164.5h6v1.5h-6V164.5z"/>
	</g>
</g>
<g>
	<g>
		<path d="M1.4,237.5H3v11.4H1.4V237.5z M2.3,247.3h3.1c0.8,0,1.4-0.2,1.8-0.5c0.4-0.3,0.6-0.7,0.6-1.3v0c0-0.4-0.1-0.7-0.2-1
			c-0.1-0.3-0.3-0.5-0.6-0.6c-0.3-0.1-0.7-0.2-1.1-0.2H2.3v-1.4h3.5c0.6,0,1-0.1,1.3-0.4c0.3-0.3,0.4-0.7,0.4-1.2
			c0-0.6-0.2-1-0.5-1.3c-0.3-0.3-0.8-0.4-1.5-0.4H2.3v-1.5h3.5c0.7,0,1.3,0.1,1.8,0.4c0.5,0.2,0.9,0.6,1.1,1.1
			c0.2,0.5,0.4,1,0.4,1.6c0,0.4-0.1,0.8-0.2,1.1c-0.2,0.3-0.4,0.6-0.7,0.9c-0.3,0.2-0.7,0.4-1.2,0.5c0.5,0.1,0.9,0.2,1.2,0.5
			c0.3,0.3,0.6,0.6,0.8,1c0.2,0.4,0.3,0.8,0.3,1.2v0c0,0.6-0.1,1.2-0.4,1.6c-0.3,0.5-0.7,0.8-1.2,1.1c-0.5,0.3-1.1,0.4-1.8,0.4H2.3
			V247.3z"/>
	</g>
</g>
<g>
	<g>
		<path d="M221.4,257.1c-0.6-0.3-1.1-0.8-1.4-1.5s-0.5-1.4-0.5-2.2v-3.1c0-0.8,0.2-1.6,0.5-2.2s0.8-1.1,1.4-1.5
			c0.6-0.4,1.3-0.5,2.1-0.5c0.7,0,1.2,0.1,1.8,0.4c0.5,0.3,1,0.7,1.4,1.2c0.4,0.5,0.6,1.1,0.7,1.8h-1.6c-0.1-0.4-0.3-0.7-0.5-0.9
			c-0.2-0.3-0.5-0.5-0.8-0.6c-0.3-0.2-0.6-0.2-1-0.2c-0.5,0-0.9,0.1-1.2,0.3c-0.3,0.2-0.6,0.5-0.8,0.9c-0.2,0.4-0.3,0.9-0.3,1.4v3.1
			c0,0.5,0.1,1,0.3,1.4c0.2,0.4,0.5,0.7,0.8,0.9c0.3,0.2,0.8,0.3,1.2,0.3c0.3,0,0.7-0.1,1-0.2c0.3-0.1,0.6-0.3,0.8-0.6
			c0.2-0.3,0.4-0.6,0.5-1h1.6c-0.1,0.7-0.4,1.3-0.8,1.8c-0.4,0.5-0.8,0.9-1.4,1.2c-0.5,0.3-1.1,0.4-1.8,0.4
			C222.7,257.6,222,257.4,221.4,257.1z"/>
	</g>
</g>
<g>
	<g>
		<path d="M298.2,154.2h1.6v11.4h-1.6V154.2z M299.3,164h2.6c0.8,0,1.5-0.2,1.9-0.7c0.5-0.4,0.7-1,0.7-1.8v-3.3
			c0-0.8-0.2-1.4-0.7-1.8c-0.5-0.4-1.1-0.7-1.9-0.7h-2.6v-1.5h2.5c0.9,0,1.7,0.2,2.3,0.5c0.6,0.3,1.1,0.8,1.5,1.4s0.5,1.3,0.5,2.2
			v3.2c0,0.9-0.2,1.6-0.5,2.2s-0.8,1.1-1.5,1.4c-0.6,0.3-1.4,0.5-2.3,0.5h-2.5V164z"/>
	</g>
</g>
<g>
	<g>
		<path d="M230.4,97.4v2c0,0.8-0.2,1.6-0.5,2.2c-0.3,0.6-0.8,1.1-1.4,1.5s-1.3,0.5-2.1,0.5c-0.8,0-1.5-0.2-2.1-0.5
			c-0.6-0.3-1.1-0.8-1.4-1.4c-0.3-0.6-0.5-1.3-0.5-2.1v-3.4c0-0.8,0.2-1.6,0.5-2.2s0.8-1.1,1.4-1.5s1.3-0.5,2.1-0.5
			c0.7,0,1.3,0.1,1.8,0.4c0.5,0.3,1,0.7,1.4,1.2c0.4,0.5,0.6,1.1,0.8,1.8h-1.7c-0.1-0.4-0.3-0.7-0.5-1c-0.2-0.3-0.5-0.5-0.8-0.6
			c-0.3-0.1-0.6-0.2-0.9-0.2c-0.5,0-0.9,0.1-1.2,0.3c-0.4,0.2-0.6,0.5-0.8,0.9c-0.2,0.4-0.3,0.9-0.3,1.4v3.4c0,0.5,0.1,0.9,0.3,1.3
			c0.2,0.4,0.5,0.7,0.8,0.9c0.4,0.2,0.8,0.3,1.3,0.3c0.5,0,0.9-0.1,1.2-0.3c0.4-0.2,0.6-0.5,0.8-0.9c0.2-0.4,0.3-0.9,0.3-1.4v-0.5
			h-2.3v-1.5H230.4z"/>
	</g>
</g>
<g>
	<g>
		<path d="M78.4,7.2H80v11.4h-1.6V7.2z M79.2,7.2h6.5v1.5h-6.5V7.2z M79.2,12.1h5.7v1.5h-5.7V12.1z M79.2,17h6.5v1.5h-6.5V17z"/>
	</g>
</g>
<g>
	<g>
		<path d="M5.2,85.7h1.6v11.4H5.2V85.7z M5.9,85.7h6.4v1.5H5.9V85.7z M5.9,90.8h5.5v1.5H5.9V90.8z"/>
	</g>
</g>
<line class="st6" x1="70" y1="182.4" x2="77.5" y2="190"/>
<line class="st6" x1="51.3" y1="201.2" x2="58.8" y2="208.7"/>
<line class="st6" x1="32.5" y1="219.9" x2="40" y2="227.5"/>
<g>
	<g>
		<path class="st7" d="M122.3,186.2h-1.6v-9.6l-1.6,1v-1.6l1.6-1.1h1.6V186.2z"/>
	</g>
</g>
<g>
	<g>
		<path class="st7" d="M300.5,172.7l-2.9,9.9h-1.7l2.9-9.8h-2.9v1.6h-1.6v-3.1h6.2V172.7z"/>
	</g>
</g>
<g>
	<g>
		<path class="st8" d="M85,200.5h-1.6v-9.6l-1.6,1v-1.6l1.6-1.1H85V200.5z"/>
	</g>
</g>
<g>
	<g>
		<path class="st8" d="M14,254.5l3.8-8.2h1.6l-3.7,8.1h5.6v1.5H14V254.5z M18.9,250.9h1.6v6.7h-1.6V250.9z"/>
	</g>
</g>
<g>
	<g>
		<path class="st9" d="M106,143.3h-1.6v-9.6l-1.6,1V133l1.6-1.1h1.6V143.3z"/>
	</g>
</g>
<g>
	<g>
		<path class="st9" d="M91,13.5c-0.4-0.2-0.8-0.5-1.1-1c-0.3-0.4-0.5-0.9-0.6-1.5v0h1.6v0c0.1,0.4,0.2,0.7,0.5,1
			c0.3,0.2,0.6,0.3,1.1,0.3c0.5,0,0.9-0.2,1.2-0.5c0.3-0.3,0.4-0.8,0.4-1.4v-1c0-0.6-0.1-1.1-0.4-1.4c-0.3-0.3-0.7-0.5-1.2-0.5
			c-0.3,0-0.5,0.1-0.8,0.2C91.5,7.8,91.2,8,91,8.3h-1.5v-6h5.8v1.5h-4.2v2.6c0.2-0.2,0.4-0.3,0.7-0.4c0.2-0.1,0.5-0.1,0.8-0.1
			c0.7,0,1.2,0.1,1.7,0.4c0.5,0.3,0.8,0.7,1.1,1.2s0.4,1.1,0.4,1.9v1c0,0.7-0.1,1.4-0.4,1.9s-0.6,0.9-1.1,1.2
			c-0.5,0.3-1.1,0.4-1.7,0.4C91.9,13.8,91.4,13.7,91,13.5z"/>
	</g>
</g>
<line class="st10" x1="104.8" y1="248" x2="104.8" y2="236.9"/>
<g>
	<g>
		<path d="M101,222.1h1.6v11.4H101V222.1z M102.3,228.5l5-6.4h2l-7.2,8.8L102.3,228.5z M104.2,227.4l1.3-1.2l4.3,7.2h-2L104.2,227.4
			z"/>
	</g>
</g>
</svg>
