<?xml version="1.0" encoding="utf-8"?>
<!-- Generator: Adobe Illustrator 28.0.0, SVG Export Plug-In . SVG Version: 6.00 Build 0)  -->
<svg version="1.1" id="Calque_1" xmlns="http://www.w3.org/2000/svg" xmlns:xlink="http://www.w3.org/1999/xlink" x="0px" y="0px"
	 viewBox="0 0 306.1 256.3" style="enable-background:new 0 0 306.1 256.3;" xml:space="preserve">
<style type="text/css">
	.st0{fill:none;stroke:#706F6F;stroke-width:3;stroke-linecap:round;stroke-linejoin:round;}
	.st1{fill:none;stroke:#706F6F;stroke-width:3;stroke-linecap:round;stroke-linejoin:round;stroke-dasharray:5.76,5.76;}
	.st2{fill:none;stroke:#706F6F;stroke-width:3;stroke-linecap:round;stroke-linejoin:round;stroke-dasharray:5.8788,5.8788;}
	.st3{fill:none;stroke:#706F6F;stroke-width:3;stroke-linecap:round;stroke-linejoin:round;stroke-dasharray:5.8862,5.8862;}
	.st4{fill:none;stroke:#000000;stroke-width:3;stroke-linecap:round;stroke-linejoin:round;stroke-miterlimit:10;}
	.st5{fill:#E30613;}
</style>
<g>
	<g>
		<line class="st0" x1="93.6" y1="165.7" x2="93.6" y2="162.7"/>
		<line class="st1" x1="93.6" y1="156.9" x2="93.6" y2="21.6"/>
		<line class="st0" x1="93.6" y1="18.7" x2="93.6" y2="15.7"/>
	</g>
</g>
<g>
	<g>
		<line class="st0" x1="293.6" y1="165.7" x2="290.6" y2="165.7"/>
		<line class="st2" x1="284.8" y1="165.7" x2="99.6" y2="165.7"/>
		<line class="st0" x1="96.6" y1="165.7" x2="93.6" y2="165.7"/>
	</g>
</g>
<g>
	<g>
		<line class="st0" x1="93.6" y1="165.7" x2="91.5" y2="167.8"/>
		<line class="st3" x1="87.4" y1="172" x2="22.8" y2="236.5"/>
		<line class="st0" x1="20.8" y1="238.6" x2="18.6" y2="240.7"/>
	</g>
</g>
<line class="st4" x1="293.6" y1="15.7" x2="293.6" y2="165.7"/>
<line class="st4" x1="93.6" y1="15.7" x2="293.6" y2="15.7"/>
<line class="st4" x1="18.6" y1="240.7" x2="18.6" y2="90.7"/>
<line class="st4" x1="218.6" y1="240.7" x2="18.6" y2="240.7"/>
<line class="st4" x1="218.6" y1="90.7" x2="218.6" y2="240.7"/>
<line class="st4" x1="18.6" y1="90.7" x2="218.6" y2="90.7"/>
<line class="st4" x1="93.6" y1="15.7" x2="18.6" y2="90.7"/>
<line class="st4" x1="293.6" y1="15.7" x2="218.6" y2="90.7"/>
<line class="st4" x1="293.6" y1="165.7" x2="218.6" y2="240.7"/>
<g>
	<g>
		<path d="M8.6,251.5c-0.6-0.3-1.1-0.8-1.4-1.5c-0.3-0.6-0.5-1.4-0.5-2.2v-3.2c0-0.8,0.2-1.6,0.5-2.2c0.3-0.6,0.8-1.1,1.4-1.5
			c0.6-0.3,1.3-0.5,2.1-0.5c0.8,0,1.5,0.2,2.1,0.5c0.6,0.3,1.1,0.8,1.4,1.5c0.3,0.6,0.5,1.4,0.5,2.2v3.2c0,0.8-0.2,1.6-0.5,2.2
			c-0.3,0.6-0.8,1.1-1.4,1.5c-0.6,0.3-1.3,0.5-2.1,0.5C9.9,252,9.2,251.9,8.6,251.5z M11.9,250.2c0.4-0.2,0.6-0.5,0.8-0.9
			c0.2-0.4,0.3-0.8,0.3-1.3v-3.3c0-0.5-0.1-1-0.3-1.3c-0.2-0.4-0.5-0.7-0.8-0.9c-0.4-0.2-0.8-0.3-1.2-0.3s-0.9,0.1-1.2,0.3
			c-0.4,0.2-0.6,0.5-0.8,0.9c-0.2,0.4-0.3,0.8-0.3,1.3v3.3c0,0.5,0.1,1,0.3,1.3c0.2,0.4,0.5,0.7,0.8,0.9c0.4,0.2,0.8,0.3,1.2,0.3
			S11.6,250.4,11.9,250.2z"/>
	</g>
</g>
<g>
	<g>
		<path d="M222.3,241.6h1.4l4.2,11.4h-1.7l-3.1-9.2l-3.1,9.2h-1.7L222.3,241.6z M220.1,248.9h6v1.5h-6V248.9z"/>
	</g>
</g>
<g>
	<g>
		<path d="M297.2,158.9h1.6v11.4h-1.6V158.9z M298.2,168.8h3.1c0.8,0,1.4-0.2,1.8-0.5c0.4-0.3,0.6-0.7,0.6-1.3v0
			c0-0.4-0.1-0.7-0.2-1c-0.1-0.3-0.3-0.5-0.6-0.6s-0.7-0.2-1.1-0.2h-3.5v-1.4h3.5c0.6,0,1-0.1,1.3-0.4c0.3-0.3,0.4-0.7,0.4-1.2
			c0-0.6-0.2-1-0.5-1.3s-0.8-0.4-1.5-0.4h-3.2v-1.5h3.5c0.7,0,1.3,0.1,1.8,0.4s0.9,0.6,1.1,1.1c0.2,0.5,0.4,1,0.4,1.6
			c0,0.4-0.1,0.8-0.2,1.1c-0.2,0.3-0.4,0.6-0.7,0.9s-0.7,0.4-1.2,0.5c0.5,0.1,0.9,0.2,1.2,0.5s0.6,0.6,0.8,1
			c0.2,0.4,0.3,0.8,0.3,1.2v0c0,0.6-0.1,1.2-0.4,1.6s-0.7,0.8-1.2,1.1c-0.5,0.3-1.1,0.4-1.8,0.4h-3.7V168.8z"/>
	</g>
</g>
<g>
	<g>
		<path d="M82.7,165.9c-0.6-0.3-1.1-0.8-1.4-1.5s-0.5-1.4-0.5-2.2v-3.1c0-0.8,0.2-1.6,0.5-2.2s0.8-1.1,1.4-1.5
			c0.6-0.4,1.3-0.5,2.1-0.5c0.7,0,1.2,0.1,1.8,0.4c0.5,0.3,1,0.7,1.4,1.2c0.4,0.5,0.6,1.1,0.7,1.8H87c-0.1-0.4-0.3-0.7-0.5-0.9
			c-0.2-0.3-0.5-0.5-0.8-0.6c-0.3-0.2-0.6-0.2-1-0.2c-0.5,0-0.9,0.1-1.2,0.3c-0.3,0.2-0.6,0.5-0.8,0.9c-0.2,0.4-0.3,0.9-0.3,1.4v3.1
			c0,0.5,0.1,1,0.3,1.4c0.2,0.4,0.5,0.7,0.8,0.9c0.3,0.2,0.8,0.3,1.2,0.3c0.3,0,0.7-0.1,1-0.2c0.3-0.1,0.6-0.3,0.8-0.6
			c0.2-0.3,0.4-0.6,0.5-1h1.6c-0.1,0.7-0.4,1.3-0.8,1.8c-0.4,0.5-0.8,0.9-1.4,1.2c-0.5,0.3-1.1,0.4-1.8,0.4
			C83.9,166.4,83.3,166.3,82.7,165.9z"/>
	</g>
</g>
<g>
	<g>
		<path d="M7.5,82.3h1.6v11.4H7.5V82.3z M8.6,92.2h2.6c0.8,0,1.5-0.2,1.9-0.7c0.5-0.4,0.7-1,0.7-1.8v-3.3c0-0.8-0.2-1.4-0.7-1.8
			c-0.5-0.4-1.1-0.7-1.9-0.7H8.6v-1.5h2.5c0.9,0,1.7,0.2,2.3,0.5c0.6,0.3,1.1,0.8,1.5,1.4c0.3,0.6,0.5,1.3,0.5,2.2v3.2
			c0,0.9-0.2,1.6-0.5,2.2c-0.3,0.6-0.8,1.1-1.5,1.4c-0.6,0.3-1.4,0.5-2.3,0.5H8.6V92.2z"/>
	</g>
</g>
<g>
	<g>
		<path d="M91.9,7.6v2c0,0.8-0.2,1.6-0.5,2.2c-0.3,0.6-0.8,1.1-1.4,1.5s-1.3,0.5-2.1,0.5c-0.8,0-1.5-0.2-2.1-0.5
			c-0.6-0.3-1.1-0.8-1.4-1.4c-0.3-0.6-0.5-1.3-0.5-2.1V6.4c0-0.8,0.2-1.6,0.5-2.2s0.8-1.1,1.4-1.5s1.3-0.5,2.1-0.5
			c0.7,0,1.3,0.1,1.8,0.4c0.5,0.3,1,0.7,1.4,1.2c0.4,0.5,0.6,1.1,0.8,1.8h-1.7c-0.1-0.4-0.3-0.7-0.5-1c-0.2-0.3-0.5-0.5-0.8-0.6
			c-0.3-0.1-0.6-0.2-0.9-0.2c-0.5,0-0.9,0.1-1.2,0.3C86.3,4.3,86,4.6,85.8,5c-0.2,0.4-0.3,0.9-0.3,1.4v3.4c0,0.5,0.1,0.9,0.3,1.3
			c0.2,0.4,0.5,0.7,0.8,0.9c0.4,0.2,0.8,0.3,1.3,0.3c0.5,0,0.9-0.1,1.2-0.3c0.4-0.2,0.6-0.5,0.8-0.9c0.2-0.4,0.3-0.9,0.3-1.4V9.1H88
			V7.6H91.9z"/>
	</g>
</g>
<g>
	<g>
		<path d="M222.9,91.3h1.6v11.4h-1.6V91.3z M223.7,91.3h6.5v1.5h-6.5V91.3z M223.7,96.2h5.7v1.5h-5.7V96.2z M223.7,101.1h6.5v1.5
			h-6.5V101.1z"/>
	</g>
</g>
<g>
	<g>
		<path d="M297,5.7h1.6V17H297V5.7z M297.8,5.7h6.4v1.5h-6.4V5.7z M297.8,10.7h5.5v1.5h-5.5V10.7z"/>
	</g>
</g>
<g>
	<g>
		<path class="st5" d="M95.2,251.9l3.8-8.2h1.6l-3.7,8.1h5.6v1.5h-7.3V251.9z M100.1,248.3h1.6v6.7h-1.6V248.3z"/>
		<path class="st5" d="M110.2,254.7c-0.5-0.3-0.9-0.7-1.2-1.2c-0.3-0.5-0.4-1.2-0.4-1.9v-1.3c0-0.7,0.1-1.4,0.4-1.9
			c0.3-0.5,0.7-0.9,1.2-1.2s1.2-0.4,1.9-0.4c0.4,0,0.8,0.1,1.2,0.2c0.4,0.1,0.7,0.2,1,0.4c0.3,0.2,0.5,0.4,0.7,0.7l-1.1,1
			c-0.2-0.3-0.5-0.5-0.8-0.6c-0.3-0.1-0.6-0.2-1-0.2c-0.6,0-1.1,0.2-1.4,0.5c-0.3,0.3-0.5,0.8-0.5,1.5v1.3c0,0.6,0.2,1.1,0.5,1.5
			c0.3,0.3,0.8,0.5,1.4,0.5c0.3,0,0.7-0.1,1-0.2c0.3-0.2,0.6-0.4,0.8-0.6l1.1,1.1c-0.2,0.3-0.5,0.5-0.8,0.7c-0.3,0.2-0.6,0.3-1,0.4
			c-0.4,0.1-0.8,0.1-1.2,0.1C111.3,255.1,110.7,255,110.2,254.7z"/>
		<path class="st5" d="M116.8,246.9h1.6v8.1h-1.6V246.9z M121.6,250.1c0-0.6-0.1-1-0.4-1.3s-0.7-0.5-1.2-0.5c-0.5,0-0.9,0.1-1.2,0.4
			c-0.3,0.3-0.4,0.7-0.4,1.2l-0.2-1.6c0.2-0.5,0.6-0.9,1-1.1c0.4-0.3,0.9-0.4,1.3-0.4c0.6,0,1.1,0.1,1.5,0.4
			c0.4,0.3,0.7,0.6,0.9,1.1c0.2,0.5,0.3,1.1,0.3,1.8v4.9h-1.6V250.1z M126.5,250.1c0-0.6-0.1-1-0.4-1.3s-0.7-0.5-1.2-0.5
			c-0.5,0-0.9,0.2-1.1,0.5c-0.3,0.3-0.4,0.7-0.4,1.3l-0.3-1.6c0.3-0.5,0.6-1,1-1.2c0.4-0.3,0.9-0.4,1.4-0.4c0.6,0,1.1,0.1,1.5,0.4
			s0.7,0.6,0.9,1.1c0.2,0.5,0.3,1.1,0.3,1.8v4.9h-1.6V250.1z"/>
	</g>
</g>
<g>
	<g>
		<path class="st5" d="M264.8,216.2c-0.5,0.2-1,0.2-1.5,0.1c-0.5-0.1-1-0.3-1.5-0.7l1.1-1.1c0.3,0.2,0.5,0.3,0.8,0.3
			c0.3,0,0.5,0,0.8-0.1c0.2-0.1,0.5-0.3,0.7-0.5c0.4-0.4,0.6-0.8,0.6-1.2c0-0.4-0.2-0.8-0.5-1.1l-0.2-0.2c-0.4-0.4-0.8-0.6-1.2-0.6
			c-0.4,0-0.8,0.1-1.2,0.5l-0.6,0.6l-1.1-1.1l0.6-0.6c0.3-0.3,0.5-0.6,0.4-1c0-0.4-0.2-0.7-0.5-1.1l-0.2-0.2c-0.3-0.3-0.7-0.5-1-0.5
			c-0.4,0-0.7,0.2-1,0.5c-0.2,0.2-0.3,0.4-0.4,0.6c-0.1,0.2-0.1,0.5-0.1,0.7c0,0.3,0.2,0.5,0.3,0.8l-1.1,1.1c-0.4-0.5-0.6-1-0.7-1.5
			c-0.1-0.5-0.1-1,0.1-1.5c0.2-0.5,0.4-0.9,0.8-1.3c0.7-0.7,1.4-1,2.2-1.1c0.7,0,1.4,0.3,2.1,1l0.1,0.1c0.4,0.4,0.6,0.9,0.7,1.4
			s0,1-0.3,1.6c0.5-0.3,1.1-0.5,1.7-0.4s1.1,0.4,1.6,0.9l0.1,0.1c0.5,0.5,0.8,1,0.9,1.5c0.2,0.5,0.1,1,0,1.5c-0.2,0.5-0.5,1-1,1.5
			C265.8,215.7,265.3,216,264.8,216.2z"/>
		<path class="st5" d="M273.9,207c-0.6,0.2-1.1,0.2-1.7,0c-0.6-0.2-1.1-0.5-1.6-1.1l-0.9-0.9c-0.5-0.5-0.9-1.1-1-1.6
			c-0.2-0.6-0.2-1.1,0-1.7s0.5-1.1,1-1.6c0.3-0.3,0.6-0.5,1-0.7c0.3-0.2,0.7-0.3,1-0.4c0.3-0.1,0.7-0.1,1,0l-0.1,1.5
			c-0.3,0-0.7,0-1,0.1c-0.3,0.1-0.6,0.3-0.8,0.5c-0.4,0.4-0.7,0.9-0.6,1.4c0,0.5,0.2,0.9,0.7,1.4l0.9,0.9c0.5,0.5,0.9,0.7,1.4,0.7
			c0.5,0,0.9-0.2,1.4-0.6c0.2-0.2,0.4-0.5,0.5-0.8s0.1-0.7,0.1-1l1.6,0c0,0.3,0,0.7,0,1c-0.1,0.3-0.2,0.7-0.4,1s-0.4,0.6-0.7,0.9
			C275,206.5,274.5,206.8,273.9,207z"/>
		<path class="st5" d="M273,196.8l1.1-1.1l5.7,5.7l-1.1,1.1L273,196.8z M278.7,195.7c-0.4-0.4-0.8-0.6-1.2-0.6
			c-0.4,0-0.8,0.1-1.2,0.5c-0.4,0.4-0.6,0.8-0.6,1.1c0,0.4,0.2,0.8,0.5,1.1l-1.2-1c-0.2-0.5-0.2-1-0.1-1.5s0.3-0.9,0.7-1.2
			c0.4-0.4,0.8-0.7,1.3-0.8c0.5-0.1,0.9-0.1,1.4,0.1s1,0.5,1.5,1l3.5,3.5l-1.1,1.1L278.7,195.7z M282.1,192.2
			c-0.4-0.4-0.8-0.6-1.3-0.6c-0.4,0-0.8,0.2-1.2,0.6c-0.4,0.4-0.5,0.7-0.5,1.1c0,0.4,0.2,0.8,0.6,1.2l-1.3-0.9
			c-0.2-0.6-0.3-1.1-0.2-1.6c0.1-0.5,0.3-0.9,0.7-1.3c0.4-0.4,0.9-0.7,1.3-0.8c0.5-0.1,1-0.1,1.5,0.1c0.5,0.2,1,0.5,1.5,1l3.5,3.5
			l-1.1,1.1L282.1,192.2z"/>
	</g>
</g>
<g>
	<g>
		<path class="st5" d="M13.4,180.1c-0.2,0.5-0.6,0.9-1,1.2c-0.4,0.3-1,0.5-1.6,0.6v-1.6c0.3,0,0.6-0.1,0.8-0.3
			c0.2-0.2,0.4-0.4,0.5-0.6c0.1-0.2,0.2-0.5,0.2-0.9c0-0.5-0.1-0.9-0.4-1.2c-0.3-0.3-0.7-0.4-1.2-0.4h-0.3c-0.6,0-1,0.1-1.3,0.4
			c-0.3,0.3-0.5,0.7-0.5,1.2v0.8H7v-0.8c0-0.4-0.1-0.8-0.4-1C6.4,177.1,6,177,5.5,177H5.1c-0.4,0-0.8,0.1-1,0.4
			c-0.2,0.3-0.4,0.6-0.4,1.1c0,0.3,0.1,0.5,0.2,0.7c0.1,0.2,0.3,0.4,0.5,0.5s0.5,0.3,0.8,0.3v1.6c-0.6-0.1-1.2-0.3-1.6-0.6
			c-0.4-0.3-0.8-0.7-1-1.1c-0.2-0.4-0.3-1-0.3-1.5c0-1,0.3-1.7,0.8-2.3c0.5-0.5,1.2-0.8,2.2-0.8h0.2c0.6,0,1.1,0.2,1.5,0.5
			c0.4,0.3,0.7,0.7,0.9,1.3c0.1-0.6,0.4-1.1,0.9-1.4c0.5-0.3,1.1-0.5,1.8-0.5h0.2c0.7,0,1.2,0.1,1.7,0.4c0.5,0.3,0.8,0.6,1.1,1.1
			c0.2,0.5,0.4,1.1,0.4,1.8C13.8,179.1,13.7,179.6,13.4,180.1z"/>
		<path class="st5" d="M13.4,167.2c-0.3,0.5-0.7,0.9-1.2,1.2c-0.5,0.3-1.2,0.4-1.9,0.4H8.9c-0.7,0-1.4-0.1-1.9-0.4
			c-0.5-0.3-0.9-0.7-1.2-1.2s-0.4-1.2-0.4-1.9c0-0.4,0.1-0.8,0.2-1.2c0.1-0.4,0.2-0.7,0.4-1c0.2-0.3,0.4-0.5,0.7-0.7l1,1.1
			c-0.3,0.2-0.5,0.5-0.6,0.8c-0.1,0.3-0.2,0.6-0.2,1c0,0.6,0.2,1.1,0.5,1.4c0.3,0.3,0.8,0.5,1.5,0.5h1.3c0.6,0,1.1-0.2,1.5-0.5
			c0.3-0.3,0.5-0.8,0.5-1.4c0-0.3-0.1-0.7-0.2-1c-0.2-0.3-0.4-0.6-0.6-0.8l1.1-1.1c0.3,0.2,0.5,0.5,0.7,0.8c0.2,0.3,0.3,0.6,0.4,1
			c0.1,0.4,0.1,0.8,0.1,1.2C13.8,166,13.7,166.6,13.4,167.2z"/>
		<path class="st5" d="M8.8,150.9c-0.6,0-1,0.1-1.3,0.4S7,152,7,152.6c0,0.5,0.2,0.9,0.5,1.1c0.3,0.3,0.7,0.4,1.3,0.4l-1.6,0.3
			c-0.5-0.3-1-0.6-1.2-1c-0.3-0.4-0.4-0.9-0.4-1.4c0-0.6,0.1-1.1,0.4-1.5s0.6-0.7,1.1-0.9c0.5-0.2,1.1-0.3,1.8-0.3h4.9v1.6H8.8z
			 M8.8,155.7c-0.6,0-1,0.1-1.3,0.4S7,156.8,7,157.3c0,0.5,0.1,0.9,0.4,1.2c0.3,0.3,0.7,0.4,1.2,0.4L7,159.1c-0.5-0.2-0.9-0.6-1.1-1
			c-0.3-0.4-0.4-0.9-0.4-1.3c0-0.6,0.1-1.1,0.4-1.5c0.3-0.4,0.6-0.7,1.1-0.9c0.5-0.2,1.1-0.3,1.8-0.3h4.9v1.6H8.8z M5.6,160.6V159
			h8.1v1.6H5.6z"/>
	</g>
</g>
</svg>
