<?xml version="1.0" encoding="UTF-8"?>
<svg id="Calque_2" data-name="Calque 2" xmlns="http://www.w3.org/2000/svg" viewBox="0 0 90.62 59.7">
  <defs>
    <style>
      .cls-1 {
        fill: #f6b8ca;
      }

      .cls-1, .cls-2, .cls-3 {
        stroke: #951b81;
      }

      .cls-1, .cls-3, .cls-4 {
        stroke-linecap: round;
        stroke-linejoin: round;
      }

      .cls-2 {
        fill: #e6007e;
        stroke-miterlimit: 10;
      }

      .cls-3 {
        fill: none;
        stroke-dasharray: 0 2;
        stroke-width: .75px;
      }

      .cls-4 {
        fill: #c1ddf5;
        stroke: #1d71b8;
      }
    </style>
  </defs>
  <path class="cls-1" d="m32.77,32.69l-7.9,16.54c-.1.33-.15.66-.15,1,0,4.95,10.5,8.97,23.45,8.97s23.45-4.01,23.45-8.97c0-.38-.06-.76-.18-1.13l-7.85-16.38"/>
  <path class="cls-3" d="m24.87,49.23c1.31-4.48,11.24-7.96,23.3-7.96s21.81,3.42,23.26,7.84"/>
  <polygon class="cls-4" points=".5 29.1 18.18 45.63 90.12 40.84 72.5 24.18 .5 29.1"/>
  <path class="cls-1" d="m32.76,32.69c-.13.27-.2.55-.2.84,0,2.87,6.97,5.19,15.57,5.19s15.57-2.32,15.57-5.19c0-.27-.06-.53-.18-.79L48.14.5l-15.37,32.19Z"/>
  <path class="cls-3" d="m32.76,32.69c1.2-2.47,7.63-4.36,15.37-4.36s14.25,1.91,15.39,4.4"/>
  <path class="cls-2" d="m32.76,32.69c1.2-2.47,7.63-4.36,15.37-4.36s14.25,1.91,15.39,4.4c.12.26.18.52.18.79,0,2.87-6.97,5.19-15.57,5.19s-15.57-2.32-15.57-5.19c0-.28.07-.56.2-.84"/>
</svg>