<?xml version="1.0" encoding="UTF-8"?>
<svg id="Calque_2" data-name="Calque 2" xmlns="http://www.w3.org/2000/svg" viewBox="0 0 115.3 38.11">
  <defs>
    <style>
      .cls-1, .cls-2, .cls-3, .cls-4, .cls-5, .cls-6, .cls-7 {
        stroke-linecap: round;
        stroke-linejoin: round;
      }

      .cls-1, .cls-2, .cls-3, .cls-5 {
        fill: none;
      }

      .cls-1, .cls-2, .cls-5, .cls-7 {
        stroke: #652581;
      }

      .cls-1, .cls-5 {
        stroke-width: .75px;
      }

      .cls-3, .cls-4 {
        stroke: #662483;
      }

      .cls-4 {
        fill: #733a8e;
      }

      .cls-5 {
        stroke-dasharray: 0 0 2.07 2.07;
      }

      .cls-6 {
        fill: #c1ddf5;
        stroke: #1d71b8;
      }

      .cls-7 {
        fill: #a37bb4;
      }
    </style>
  </defs>
  <polygon class="cls-7" points="33.56 30.67 43.9 37.07 67.48 32.41 54.8 27.63 33.56 30.67"/>
  <polyline class="cls-7" points="67.48 29.75 67.48 32.41 54.8 27.63 67.48 29.75"/>
  <line class="cls-2" x1="43.9" y1="37.07" x2="43.9" y2="35.01"/>
  <polygon class="cls-6" points=".5 17.78 32.16 37.61 114.8 19.22 81.18 3.9 .5 17.78"/>
  <polygon class="cls-7" points="33.56 3.54 33.56 20.02 54.8 16.98 67.48 22.76 67.48 6.29 54.8 .5 33.56 3.54"/>
  <polygon class="cls-3" points="33.56 3.54 43.9 9.95 67.48 6.29 54.8 .5 33.56 3.54"/>
  <polygon class="cls-4" points="33.56 20.02 43.9 26.42 67.48 22.76 54.8 16.98 33.56 20.02"/>
  <g>
    <line class="cls-1" x1="54.8" y1=".5" x2="54.8" y2="1.5"/>
    <line class="cls-5" x1="54.8" y1="3.57" x2="54.8" y2="14.94"/>
    <line class="cls-1" x1="54.8" y1="15.98" x2="54.8" y2="16.98"/>
  </g>
  <line class="cls-2" x1="43.9" y1="9.95" x2="43.9" y2="26.42"/>
</svg>