<?xml version="1.0" encoding="utf-8"?>
<!-- Generator: Adobe Illustrator 28.0.0, SVG Export Plug-In . SVG Version: 6.00 Build 0)  -->
<svg version="1.0" id="Calque_1" xmlns="http://www.w3.org/2000/svg" xmlns:xlink="http://www.w3.org/1999/xlink" x="0px" y="0px"
	 viewBox="0 0 99.4 35.3" enable-background="new 0 0 99.4 35.3" xml:space="preserve">
<line fill="none" stroke="#000000" stroke-miterlimit="10" x1="3.9" y1="16.6" x2="99.4" y2="16.6"/>
<line fill="none" stroke="#000000" stroke-miterlimit="10" x1="3.9" y1="13.3" x2="3.9" y2="19.8"/>
<line fill="none" stroke="#000000" stroke-miterlimit="10" x1="53.7" y1="12.8" x2="53.7" y2="19.9"/>
<line fill="none" stroke="#000000" stroke-miterlimit="10" x1="74.6" y1="13.4" x2="74.6" y2="19.9"/>
<g>
	<g>
		<path fill="#E30613" d="M2.3,31.7c-0.5-0.3-0.8-0.6-1.1-1.1s-0.4-1-0.4-1.6v-2.4c0-0.6,0.1-1.2,0.4-1.6s0.6-0.8,1.1-1.1
			s1-0.4,1.6-0.4s1.1,0.1,1.6,0.4s0.8,0.6,1.1,1.1s0.4,1,0.4,1.6V29c0,0.6-0.1,1.2-0.4,1.6s-0.6,0.8-1.1,1.1s-1,0.4-1.6,0.4
			S2.8,32,2.3,31.7z M4.8,30.7c0.3-0.2,0.5-0.4,0.6-0.7s0.2-0.6,0.2-1v-2.5c0-0.4-0.1-0.7-0.2-1S5.1,25,4.8,24.8s-0.6-0.2-0.9-0.2
			s-0.7,0.1-0.9,0.2s-0.5,0.4-0.6,0.7s-0.2,0.6-0.2,1V29c0,0.4,0.1,0.7,0.2,1s0.4,0.5,0.6,0.7s0.6,0.2,0.9,0.2S4.5,30.8,4.8,30.7z"
			/>
	</g>
</g>
<g>
	<g>
		<path d="M53.2,1.7h1l3.1,8.5h-1.3l-2.4-6.9l-2.4,6.9h-1.3L53.2,1.7z M51.5,7.3H56v1.1h-4.5V7.3z"/>
	</g>
</g>
<g>
	<g>
		<path d="M71.7,23.5h1.2V32h-1.2V23.5z M72.4,30.9h2.3c0.6,0,1-0.1,1.3-0.3s0.4-0.6,0.4-1v0c0-0.3,0-0.5-0.1-0.7s-0.3-0.4-0.5-0.5
			s-0.5-0.2-0.8-0.2h-2.6v-1.1H75c0.4,0,0.8-0.1,1-0.3s0.3-0.5,0.3-0.9c0-0.4-0.1-0.7-0.4-1s-0.6-0.3-1.1-0.3h-2.4v-1.1h2.7
			c0.6,0,1,0.1,1.4,0.3s0.6,0.5,0.8,0.8s0.3,0.8,0.3,1.2c0,0.3-0.1,0.6-0.2,0.8s-0.3,0.5-0.5,0.7s-0.5,0.3-0.9,0.4
			c0.3,0.1,0.6,0.2,0.9,0.4s0.4,0.4,0.6,0.7s0.2,0.6,0.2,0.9v0c0,0.5-0.1,0.9-0.3,1.2s-0.5,0.6-0.9,0.8S75.7,32,75.2,32h-2.8V30.9z"
			/>
	</g>
</g>
</svg>
