<?xml version="1.0" encoding="utf-8"?>
<!-- Generator: Adobe Illustrator 28.0.0, SVG Export Plug-In . SVG Version: 6.00 Build 0)  -->
<svg version="1.1" id="Calque_1" xmlns="http://www.w3.org/2000/svg" xmlns:xlink="http://www.w3.org/1999/xlink" x="0px" y="0px"
	 viewBox="0 0 295.1 242.6" style="enable-background:new 0 0 295.1 242.6;" xml:space="preserve">
<style type="text/css">
	.st0{fill:none;stroke:#009FE3;stroke-miterlimit:10;}
	.st1{fill:#009FE3;}
	.st2{fill:none;stroke:#1D1D1B;stroke-width:3;stroke-linecap:round;stroke-miterlimit:10;}
	.st3{fill:none;stroke:#E30613;stroke-width:3;stroke-linecap:round;stroke-miterlimit:10;}
	.st4{enable-background:new    ;}
	.st5{fill:#1D1D1B;}
</style>
<path class="st0" d="M169.6,79.6l12.8-28.3c10.2,4.6,17.4,14.9,17.4,26.9"/>
<path class="st0" d="M137,149.8l-12.8,28.3c-10.2-4.6-17.4-14.9-17.4-26.9"/>
<circle class="st1" cx="195.4" cy="62.6" r="3.7"/>
<circle class="st1" cx="111" cy="166.6" r="3.7"/>
<line class="st2" x1="35.7" y1="78.9" x2="290.8" y2="78.9"/>
<line class="st2" x1="19.1" y1="150.8" x2="294.1" y2="150.8"/>
<line class="st3" x1="197.1" y1="17.5" x2="95.8" y2="241.6"/>
<g class="st4">
	<path class="st5" d="M26.4,69.9c-1.1,0-2.1-0.2-2.8-0.7s-1.4-1.1-1.8-1.9s-0.6-1.8-0.6-2.9c0-1.7,0.2-3.7,0.7-5.8
		c0.5-2.3,1.1-4.1,1.7-5.6c0.6-1.2,1.2-2.2,2-3c0.7-0.7,1.4-1.2,2.3-1.5c0.9-0.4,2.1-0.5,3.4-0.5L31,49.3c-0.6,0-1.2,0.1-1.7,0.4
		s-0.9,0.6-1.4,1.2c-0.6,0.7-1.1,1.8-1.5,3.2c-0.5,1.6-1,3.6-1.5,6c-0.4,2.2-0.6,3.9-0.6,5.1c0,0.9,0.1,1.6,0.3,2.1s0.4,0.8,0.8,1
		s0.8,0.3,1.4,0.3L26.4,69.9z"/>
	<path class="st5" d="M39.4,51.6c0-0.2,0.1-0.5,0.2-0.8s0.1-0.6,0.1-0.8c0-0.2,0-0.3-0.1-0.4s-0.1-0.2-0.2-0.2s-0.2-0.1-0.3-0.1
		S38.8,49,38.5,49l0.2-0.8l3.5-0.2h1.3l-3,13.3c-0.1,0.4-0.2,0.7-0.2,1s-0.1,0.5-0.1,0.7c0,0.4,0.1,0.6,0.3,0.8S41,64,41.5,64
		l-0.1,0.8h-4.5l0.6-2.4l-0.2,0c-0.5,0.7-1,1.2-1.5,1.6s-0.9,0.6-1.3,0.8S33.5,65,33,65c-0.5,0-1-0.1-1.4-0.4s-0.7-0.7-1-1.2
		s-0.4-1.3-0.4-2.1c0-0.8,0.1-1.6,0.3-2.5s0.5-1.6,0.8-2.3s0.8-1.3,1.4-1.9s1.2-0.9,1.9-1.2S36.2,53,37,53c0.7,0,1.4,0.1,2,0.4
		L39.4,51.6z M38.2,57.5c0-0.2,0.1-0.5,0.1-0.8s0.1-0.6,0.1-0.9c0-0.5-0.1-0.9-0.3-1.2s-0.5-0.4-1-0.4c-0.7,0-1.4,0.4-1.9,1.1
		s-1,1.7-1.4,2.9s-0.5,2.3-0.5,3.3c0,0.6,0.1,1,0.3,1.3s0.4,0.4,0.8,0.4c0.5,0,1-0.3,1.6-0.8s1-1.1,1.3-1.8s0.6-1.6,0.9-2.8
		L38.2,57.5z"/>
</g>
<g class="st4">
	<path class="st5" d="M47.9,70.7c-0.1,0.4-0.1,0.7-0.1,0.8c0,0.2,0,0.3,0.1,0.4c0.1,0.1,0.3,0.2,0.5,0.2c0.2,0,0.6,0.1,1,0.1
		l-0.1,0.6h-5.6l0.1-0.6c0.5,0,0.8-0.1,1.1-0.1c0.2,0,0.4-0.1,0.5-0.2c0.1-0.1,0.2-0.2,0.3-0.4c0.1-0.1,0.1-0.4,0.2-0.8l1-4.4
		c0-0.2,0.1-0.4,0.1-0.6c0-0.1,0-0.2-0.1-0.3c-0.1-0.1-0.1-0.1-0.2-0.1c-0.1,0-0.2,0-0.3,0.1c-0.1,0-0.2,0.1-0.4,0.2
		c-0.2,0.1-0.5,0.2-0.9,0.5l-0.3-0.7l3.9-2h0.9c-0.1,0.5-0.3,1.1-0.4,1.8L47.9,70.7z"/>
</g>
<g class="st4">
	<path class="st5" d="M54,48c1.1,0,2.1,0.2,2.8,0.7s1.4,1.1,1.8,1.9s0.6,1.8,0.6,2.9c0,1.9-0.3,4-0.8,6.4s-1.2,4.3-2,5.8
		s-1.7,2.5-2.8,3.2s-2.6,1-4.4,1l0.3-1.3c0.6,0,1.1-0.1,1.6-0.3s0.9-0.6,1.3-1.1c0.5-0.6,1-1.5,1.4-2.6s0.8-2.4,1.2-4
		c0.3-1.2,0.5-2.3,0.7-3.4c0.3-1.9,0.5-3.4,0.5-4.6c0-0.8-0.1-1.4-0.2-1.9s-0.4-0.8-0.8-1s-0.8-0.3-1.4-0.3L54,48z"/>
</g>
<g class="st4">
	<path class="st5" d="M5.2,141.3c-1.1,0-2.1-0.2-2.8-0.7s-1.4-1.1-1.8-1.9S0,136.9,0,135.8c0-1.7,0.2-3.7,0.7-5.8
		c0.5-2.3,1.1-4.1,1.7-5.6c0.6-1.2,1.2-2.2,2-3c0.7-0.7,1.4-1.2,2.3-1.5c0.9-0.4,2.1-0.5,3.4-0.5l-0.3,1.3c-0.6,0-1.2,0.1-1.7,0.4
		s-0.9,0.6-1.4,1.2c-0.6,0.7-1.1,1.8-1.5,3.2c-0.5,1.6-1,3.6-1.5,6c-0.4,2.2-0.6,3.9-0.6,5.1c0,0.9,0.1,1.6,0.3,2.1s0.4,0.8,0.8,1
		s0.8,0.3,1.4,0.3L5.2,141.3z"/>
	<path class="st5" d="M18.2,122.9c0-0.2,0.1-0.5,0.2-0.8s0.1-0.6,0.1-0.8c0-0.2,0-0.3-0.1-0.4s-0.1-0.2-0.2-0.2s-0.2-0.1-0.3-0.1
		s-0.3-0.1-0.7-0.1l0.2-0.8l3.5-0.2h1.3l-3,13.3c-0.1,0.4-0.2,0.7-0.2,1s-0.1,0.5-0.1,0.7c0,0.4,0.1,0.6,0.3,0.8s0.5,0.3,0.9,0.3
		l-0.1,0.8h-4.5l0.6-2.4l-0.2,0c-0.5,0.7-1,1.2-1.5,1.6s-0.9,0.6-1.3,0.8s-1,0.2-1.5,0.2c-0.5,0-1-0.1-1.4-0.4s-0.7-0.7-1-1.2
		s-0.4-1.3-0.4-2.1c0-0.8,0.1-1.6,0.3-2.5s0.5-1.6,0.8-2.3s0.8-1.3,1.4-1.9s1.2-0.9,1.9-1.2s1.5-0.4,2.4-0.4c0.7,0,1.4,0.1,2,0.4
		L18.2,122.9z M17,128.9c0-0.2,0.1-0.5,0.1-0.8s0.1-0.6,0.1-0.9c0-0.5-0.1-0.9-0.3-1.2s-0.5-0.4-1-0.4c-0.7,0-1.4,0.4-1.9,1.1
		s-1,1.7-1.4,2.9s-0.5,2.3-0.5,3.3c0,0.6,0.1,1,0.3,1.3s0.4,0.4,0.8,0.4c0.5,0,1-0.3,1.6-0.8s1-1.1,1.3-1.8s0.6-1.6,0.9-2.8
		L17,128.9z"/>
</g>
<g class="st4">
	<path class="st5" d="M26.4,142.5c0.2,0,0.4,0,0.5-0.1c0.1,0,0.2-0.1,0.3-0.2c0.1-0.1,0.2-0.3,0.3-0.5h0.8l-0.6,2.4h-6l0.1-0.4
		c0.2-0.4,0.6-0.9,1-1.4c0.4-0.5,1-1.1,1.8-1.8c0.7-0.6,1.2-1.2,1.6-1.6s0.6-0.8,0.8-1.2c0.2-0.4,0.3-0.8,0.3-1.2
		c0-0.3-0.1-0.6-0.3-0.8s-0.4-0.3-0.7-0.3c-0.4,0-0.7,0.1-1,0.4c-0.3,0.2-0.5,0.6-0.7,1.1h-1.2l0.4-1.6c0.7-0.2,1.3-0.4,1.7-0.5
		c0.5-0.1,0.9-0.1,1.4-0.1c0.5,0,1,0.1,1.4,0.2c0.4,0.2,0.6,0.4,0.8,0.6c0.2,0.3,0.3,0.6,0.3,0.9c0,0.3,0,0.6-0.1,0.9
		s-0.3,0.5-0.5,0.8c-0.2,0.3-0.5,0.6-0.9,1c-0.4,0.4-0.9,0.8-1.6,1.4c-0.3,0.3-0.7,0.6-1.1,0.9c-0.4,0.4-0.7,0.7-0.9,0.9l0,0.1H26.4
		z"/>
</g>
<g class="st4">
	<path class="st5" d="M32.7,119.4c1.1,0,2.1,0.2,2.8,0.7s1.4,1.1,1.8,1.9s0.6,1.8,0.6,2.9c0,1.9-0.3,4-0.8,6.4s-1.2,4.3-2,5.8
		s-1.7,2.5-2.8,3.2s-2.6,1-4.4,1l0.3-1.3c0.6,0,1.1-0.1,1.6-0.3s0.9-0.6,1.3-1.1c0.5-0.6,1-1.5,1.4-2.6s0.8-2.4,1.2-4
		c0.3-1.2,0.5-2.3,0.7-3.4c0.3-1.9,0.5-3.4,0.5-4.6c0-0.8-0.1-1.4-0.2-1.9s-0.4-0.8-0.8-1s-0.8-0.3-1.4-0.3L32.7,119.4z"/>
</g>
<g class="st4">
	<path class="st5" d="M211,21.9c-1.1,0-2.1-0.2-2.8-0.7s-1.4-1.1-1.8-1.9s-0.6-1.8-0.6-2.9c0-1.7,0.2-3.7,0.7-5.8
		c0.5-2.3,1.1-4.1,1.7-5.6c0.6-1.2,1.2-2.2,2-3c0.7-0.7,1.4-1.2,2.3-1.5c0.9-0.4,2.1-0.5,3.4-0.5l-0.3,1.3c-0.6,0-1.2,0.1-1.7,0.4
		s-0.9,0.6-1.4,1.2c-0.6,0.7-1.1,1.8-1.5,3.2c-0.5,1.6-1,3.6-1.5,6c-0.4,2.2-0.6,3.9-0.6,5.1c0,0.9,0.1,1.6,0.3,2.1s0.4,0.8,0.8,1
		s0.8,0.3,1.4,0.3L211,21.9z"/>
	<path class="st5" d="M224,3.6c0-0.2,0.1-0.5,0.2-0.8s0.1-0.6,0.1-0.8c0-0.2,0-0.3-0.1-0.4s-0.1-0.2-0.2-0.2s-0.2-0.1-0.3-0.1
		S223.4,1,223.1,1l0.2-0.8l3.5-0.2h1.3l-3,13.3c-0.1,0.4-0.2,0.7-0.2,1s-0.1,0.5-0.1,0.7c0,0.4,0.1,0.6,0.3,0.8s0.5,0.3,0.9,0.3
		l-0.1,0.8h-4.5l0.6-2.4l-0.2,0c-0.5,0.7-1,1.2-1.5,1.6s-0.9,0.6-1.3,0.8s-1,0.2-1.5,0.2c-0.5,0-1-0.1-1.4-0.4s-0.7-0.7-1-1.2
		s-0.4-1.3-0.4-2.1c0-0.8,0.1-1.6,0.3-2.5s0.5-1.6,0.8-2.3s0.8-1.3,1.4-1.9s1.2-0.9,1.9-1.2s1.5-0.4,2.4-0.4c0.7,0,1.4,0.1,2,0.4
		L224,3.6z M222.8,9.5c0-0.2,0.1-0.5,0.1-0.8s0.1-0.6,0.1-0.9c0-0.5-0.1-0.9-0.3-1.2s-0.5-0.4-1-0.4c-0.7,0-1.4,0.4-1.9,1.1
		s-1,1.7-1.4,2.9s-0.5,2.3-0.5,3.3c0,0.6,0.1,1,0.3,1.3s0.4,0.4,0.8,0.4c0.5,0,1-0.3,1.6-0.8s1-1.1,1.3-1.8s0.6-1.6,0.9-2.8
		L222.8,9.5z"/>
	<path class="st5" d="M230.5,0c1.1,0,2.1,0.2,2.8,0.7s1.4,1.1,1.8,1.9s0.6,1.8,0.6,2.9c0,1.9-0.3,4-0.8,6.4s-1.2,4.3-2,5.8
		s-1.7,2.5-2.8,3.2s-2.6,1-4.4,1l0.3-1.3c0.6,0,1.1-0.1,1.6-0.3s0.9-0.6,1.3-1.1c0.5-0.6,1-1.5,1.4-2.6s0.8-2.4,1.2-4
		c0.3-1.2,0.5-2.3,0.7-3.4c0.3-1.9,0.5-3.4,0.5-4.6c0-0.8-0.1-1.4-0.2-1.9s-0.4-0.8-0.8-1s-0.8-0.3-1.4-0.3L230.5,0z"/>
</g>
</svg>
