<?xml version="1.0" encoding="UTF-8"?>
<svg id="Calque_1" data-name="Calque 1" xmlns="http://www.w3.org/2000/svg" viewBox="0 0 152.19 123.38">
  <defs>
    <style>
      .cls-1 {
        stroke: #e30613;
      }

      .cls-1, .cls-2, .cls-3 {
        fill: none;
        stroke-linecap: round;
        stroke-miterlimit: 10;
      }

      .cls-1, .cls-3 {
        stroke-width: 2px;
      }

      .cls-4 {
        fill: #1d1d1b;
        font-family: Cambria-BoldItalic, Cambria;
        font-size: 12px;
        font-style: italic;
        font-weight: 700;
      }

      .cls-2 {
        stroke: #009fe3;
      }

      .cls-3 {
        stroke: #1d1d1b;
      }

      .cls-5 {
        fill: #009fe3;
        stroke-width: 0px;
      }
    </style>
  </defs>
  <path class="cls-5" d="m94.22,45.75c-.3,5.25-4.66,9.41-9.98,9.41-1.47,0-2.86-.32-4.12-.89l4.12-9.11,9.98.59Z"/>
  <path class="cls-5" d="m73.79,67.65c-1.2-.51-2.51-.79-3.89-.79-5.52,0-10,4.48-10,10,0,.19,0,.37.02.56l9.98-.56,3.89-9.21Z"/>
  <line class="cls-3" x1="19.29" y1="41.34" x2="146.85" y2="48.85"/>
  <line class="cls-3" x1="13.68" y1="80" x2="151.19" y2="72.34"/>
  <line class="cls-1" x1="99.98" y1="10.36" x2="49.32" y2="122.38"/>
  <text class="cls-4" transform="translate(11.32 33.99)"><tspan x="0" y="0">(d</tspan></text>
  <text class="cls-4" transform="translate(22.92 37.99) scale(.58)"><tspan x="0" y="0">1</tspan></text>
  <text class="cls-4" transform="translate(26.93 33.99)"><tspan x="0" y="0">)</tspan></text>
  <text class="cls-4" transform="translate(0 71.45)"><tspan x="0" y="0">(d</tspan></text>
  <text class="cls-4" transform="translate(11.6 75.45) scale(.58)"><tspan x="0" y="0">2</tspan></text>
  <text class="cls-4" transform="translate(15.6 71.45)"><tspan x="0" y="0">)</tspan></text>
  <text class="cls-4" transform="translate(103.6 10)"><tspan x="0" y="0">(d)</tspan></text>
  <g>
    <line class="cls-2" x1="97.79" y1="48.37" x2="96.16" y2="54.46"/>
    <polygon class="cls-5" points="95.43 57.19 94.89 52.93 96.21 54.26 98.03 53.77 95.43 57.19"/>
  </g>
  <g>
    <line class="cls-2" x1="54.25" y1="75.45" x2="55.88" y2="69.36"/>
    <polygon class="cls-5" points="56.61 66.63 57.15 70.89 55.83 69.56 54.01 70.05 56.61 66.63"/>
  </g>
  <g>
    <line class="cls-2" x1="81.82" y1="58.42" x2="87.91" y2="60.05"/>
    <polygon class="cls-5" points="90.64 60.78 86.38 61.32 87.71 59.99 87.22 58.18 90.64 60.78"/>
  </g>
  <g>
    <line class="cls-2" x1="72.38" y1="64.23" x2="66.28" y2="62.59"/>
    <polygon class="cls-5" points="63.56 61.86 67.82 61.32 66.49 62.65 66.98 64.46 63.56 61.86"/>
  </g>
</svg>