<?xml version="1.0" encoding="UTF-8"?>
<svg id="Calque_1" data-name="Calque 1" xmlns="http://www.w3.org/2000/svg" viewBox="0 0 152.19 123.38">
  <defs>
    <style>
      .cls-1 {
        stroke: #e30613;
      }

      .cls-1, .cls-2 {
        fill: none;
        stroke-linecap: round;
        stroke-miterlimit: 10;
        stroke-width: 2px;
      }

      .cls-3 {
        fill: #1d1d1b;
        font-family: Cambria-BoldItalic, Cambria;
        font-size: 12px;
        font-style: italic;
        font-weight: 700;
      }

      .cls-2 {
        stroke: #1d1d1b;
      }

      .cls-4 {
        fill: #f6a117;
      }

      .cls-4, .cls-5 {
        stroke-width: 0px;
      }

      .cls-5 {
        fill: #74bd83;
      }
    </style>
  </defs>
  <g>
    <path class="cls-5" d="m64.44,89.25c-4.37-1.98-7.47-6.27-7.75-11.31l13.19-.73-5.45,12.04Z"/>
    <path class="cls-5" d="m97.44,46.28c.02-.28.03-.56.03-.85,0-5.36-3.19-9.97-7.77-12.04l-5.48,12.11,13.22.78Z"/>
  </g>
  <g>
    <path class="cls-4" d="m63.53,91.4c1.98.9,4.18,1.4,6.49,1.4,8.7,0,15.75-7.05,15.75-15.75,0-.29,0-.59-.02-.88l-15.72.88-6.49,14.35Z"/>
    <path class="cls-4" d="m90.84,30.84c-1.95-.88-4.12-1.38-6.4-1.38-8.3,0-15.08,6.51-15.51,14.7l15.47.91,6.44-14.24Z"/>
  </g>
  <line class="cls-2" x1="19.29" y1="41.34" x2="146.85" y2="48.85"/>
  <line class="cls-2" x1="13.68" y1="80" x2="151.19" y2="72.34"/>
  <line class="cls-1" x1="99.98" y1="10.36" x2="49.32" y2="122.38"/>
  <text class="cls-3" transform="translate(11.32 34)"><tspan x="0" y="0">(d</tspan></text>
  <text class="cls-3" transform="translate(22.92 37.99) scale(.58)"><tspan x="0" y="0">1</tspan></text>
  <text class="cls-3" transform="translate(26.93 34)"><tspan x="0" y="0">)</tspan></text>
  <text class="cls-3" transform="translate(0 71.45)"><tspan x="0" y="0">(d</tspan></text>
  <text class="cls-3" transform="translate(11.6 75.45) scale(.58)"><tspan x="0" y="0">2</tspan></text>
  <text class="cls-3" transform="translate(15.6 71.45)"><tspan x="0" y="0">)</tspan></text>
  <text class="cls-3" transform="translate(103.6 10)"><tspan x="0" y="0">(d)</tspan></text>
</svg>