<?xml version="1.0" encoding="utf-8"?>
<!-- Generator: Adobe Illustrator 28.0.0, SVG Export Plug-In . SVG Version: 6.00 Build 0)  -->
<svg version="1.1" id="Calque_1" xmlns="http://www.w3.org/2000/svg" xmlns:xlink="http://www.w3.org/1999/xlink" x="0px" y="0px"
	 viewBox="0 0 95.4 96.4" style="enable-background:new 0 0 95.4 96.4;" xml:space="preserve">
<style type="text/css">
	.st0{fill:#E7D900;}
	.st1{fill:#B5D1EF;}
	.st2{fill:none;stroke:#1D1D1B;stroke-width:2;stroke-linecap:round;stroke-linejoin:round;}
	.st3{enable-background:new    ;}
	.st4{fill:#1D1D1B;}
	.st5{fill:none;stroke:#1D1D1B;stroke-width:2;stroke-linecap:round;stroke-miterlimit:10;}
	.st6{fill:none;stroke:#000000;stroke-width:2;stroke-miterlimit:10;}
</style>
<path class="st0" d="M67.1,55.4c-5.5,3.8-9.2,10.2-9.2,17.4H79L67.1,55.4z"/>
<path class="st1" d="M79,52.1c-4.4,0-8.5,1.4-11.9,3.7L79,73.1V52.1z"/>
<line class="st2" x1="31.9" y1="3.5" x2="78.9" y2="72.8"/>
<line class="st2" x1="0.5" y1="72.8" x2="79" y2="72.8"/>
<g>
	<g class="st3">
		<path class="st4" d="M32.5,61.4c-0.8,0-1.4-0.2-1.9-0.7c-0.5-0.4-0.8-1.1-0.9-1.9v0h1.4v0c0.1,0.4,0.2,0.7,0.4,0.9
			c0.2,0.2,0.6,0.3,1,0.3c0.5,0,0.8-0.2,1.1-0.5c0.2-0.3,0.4-0.7,0.4-1.3v-0.8c0-0.6-0.1-1-0.4-1.3s-0.6-0.5-1.1-0.5
			c-0.2,0-0.5,0.1-0.7,0.2s-0.4,0.3-0.6,0.6h-1.3v-5.3H35v1.4h-3.7v2.3c0.2-0.1,0.4-0.3,0.6-0.3c0.2-0.1,0.4-0.1,0.7-0.1
			c0.9,0,1.6,0.3,2,0.8s0.7,1.3,0.7,2.3v0.8c0,1-0.2,1.8-0.7,2.3C34.1,61.2,33.4,61.4,32.5,61.4z"/>
		<path class="st4" d="M37.3,59.8v-1.2l3.4-7.3h1.5l-3.3,7.2h5v1.3H37.3z M41.7,61.3v-6H43v6H41.7z"/>
		<path class="st4" d="M47.1,55.2c-0.7,0-1.2-0.2-1.5-0.6c-0.4-0.4-0.5-0.9-0.5-1.5c0-0.7,0.2-1.2,0.5-1.5c0.4-0.4,0.9-0.5,1.5-0.5
			c0.7,0,1.2,0.2,1.5,0.5c0.4,0.4,0.5,0.9,0.5,1.5c0,0.6-0.2,1.2-0.5,1.5C48.2,55.1,47.7,55.2,47.1,55.2z M47.1,54.1
			c0.3,0,0.5-0.1,0.6-0.3c0.2-0.2,0.2-0.4,0.2-0.7c0-0.3-0.1-0.5-0.2-0.7c-0.2-0.2-0.4-0.2-0.6-0.2s-0.5,0.1-0.6,0.2
			c-0.1,0.2-0.2,0.4-0.2,0.7c0,0.3,0.1,0.5,0.2,0.7C46.6,54.1,46.8,54.1,47.1,54.1z"/>
	</g>
</g>
<g>
	<g class="st3">
		<path class="st4" d="M61.6,38.3c-0.6,0-1.1-0.1-1.5-0.3c-0.4-0.2-0.8-0.5-1-0.9c-0.3-0.4-0.4-0.9-0.5-1.4H60
			c0.1,0.4,0.2,0.8,0.5,1c0.3,0.2,0.6,0.3,1.1,0.3c0.5,0,0.8-0.1,1.1-0.4c0.3-0.3,0.4-0.6,0.4-1.1v-0.3c0-0.5-0.1-0.9-0.4-1.2
			c-0.2-0.3-0.6-0.4-1-0.4h-0.7v-1.4h0.7c0.4,0,0.7-0.1,0.9-0.4s0.3-0.6,0.3-1v-0.3c0-0.4-0.1-0.7-0.3-0.9c-0.2-0.2-0.6-0.3-1-0.3
			c-0.4,0-0.7,0.1-0.9,0.3c-0.2,0.2-0.4,0.5-0.5,1h-1.4c0.1-0.8,0.5-1.5,1-1.9c0.5-0.5,1.1-0.7,1.9-0.7c0.9,0,1.5,0.2,2,0.7
			c0.5,0.5,0.7,1.1,0.7,1.9v0.2c0,0.5-0.1,0.9-0.4,1.3c-0.3,0.4-0.7,0.6-1.2,0.8c0.6,0.1,1,0.4,1.3,0.8c0.3,0.4,0.5,1,0.5,1.6v0.2
			c0,0.9-0.3,1.6-0.8,2.1C63.2,38,62.5,38.3,61.6,38.3z"/>
		<path class="st4" d="M69.1,38.3c-0.9,0-1.6-0.3-2.1-0.8c-0.5-0.5-0.7-1.3-0.7-2.3v0c0-0.4,0.1-0.9,0.2-1.4s0.3-1,0.5-1.4l2.2-4.4
			h1.5l-2.6,5l0-0.3c0.2-0.5,0.7-0.7,1.3-0.7c0.8,0,1.4,0.3,1.8,0.8c0.4,0.5,0.7,1.3,0.7,2.2v0c0,1-0.2,1.7-0.7,2.3
			C70.7,38,70,38.3,69.1,38.3z M69.1,36.9c0.5,0,0.8-0.1,1-0.4c0.2-0.3,0.4-0.7,0.4-1.2v0c0-0.6-0.1-1-0.4-1.3
			c-0.3-0.3-0.6-0.5-1.1-0.5c-0.4,0-0.7,0.2-1,0.5s-0.3,0.7-0.3,1.3v0c0,0.5,0.1,0.9,0.4,1.2C68.3,36.8,68.7,36.9,69.1,36.9z"/>
		<path class="st4" d="M75.4,32.1c-0.7,0-1.2-0.2-1.5-0.5c-0.4-0.4-0.5-0.9-0.5-1.5c0-0.7,0.2-1.2,0.5-1.5c0.4-0.4,0.9-0.5,1.5-0.5
			s1.2,0.2,1.5,0.5c0.4,0.4,0.5,0.9,0.5,1.5c0,0.6-0.2,1.2-0.5,1.5C76.5,31.9,76,32.1,75.4,32.1z M75.4,31c0.3,0,0.5-0.1,0.6-0.3
			s0.2-0.4,0.2-0.7c0-0.3-0.1-0.5-0.2-0.7c-0.2-0.2-0.4-0.2-0.6-0.2c-0.3,0-0.5,0.1-0.6,0.2c-0.1,0.2-0.2,0.4-0.2,0.7
			c0,0.3,0.1,0.6,0.2,0.7C74.9,30.9,75.1,31,75.4,31z"/>
	</g>
</g>
<line class="st5" x1="11.5" y1="69.2" x2="11.5" y2="77.1"/>
<line class="st5" x1="82.9" y1="9.4" x2="75.1" y2="9.4"/>
<line class="st5" x1="46.9" y1="18.5" x2="40.4" y2="22.9"/>
<g>
	<g class="st3">
		<path class="st4" d="M6.1,92.6l3.7-10.1h1.2l3.7,10.1h-1.5l-2.8-8.2l-2.8,8.2H6.1z M7.8,90.3V89h5.3v1.4H7.8z"/>
	</g>
</g>
<g>
	<g class="st3">
		<path class="st4" d="M49.8,16.7V6.5h1.4v10.1H49.8z M50.6,16.7v-1.3h2.7c0.8,0,1.3-0.1,1.6-0.4c0.3-0.3,0.5-0.7,0.5-1.1v0
			c0-0.5-0.1-0.9-0.4-1.2c-0.3-0.3-0.7-0.4-1.3-0.4h-3.1v-1.3h3.1c0.5,0,0.9-0.1,1.2-0.4c0.3-0.2,0.4-0.6,0.4-1.1
			c0-0.5-0.1-0.9-0.4-1.1c-0.3-0.3-0.7-0.4-1.3-0.4h-2.9V6.5h3.2c1,0,1.7,0.2,2.2,0.7c0.5,0.5,0.7,1.2,0.7,2c0,0.5-0.1,1-0.4,1.4
			c-0.3,0.4-0.8,0.7-1.4,0.8c0.6,0.1,1.1,0.4,1.5,0.8c0.3,0.5,0.5,1,0.5,1.6v0c0,0.8-0.3,1.5-0.8,2c-0.5,0.5-1.3,0.8-2.2,0.8H50.6z"
			/>
	</g>
</g>
<g>
	<g class="st3">
		<path class="st4" d="M87.3,13.5V3.4h1.4v10.1H87.3z M88.3,13.5v-1.4h2.3c0.7,0,1.3-0.2,1.7-0.6c0.4-0.4,0.6-0.9,0.6-1.6V7
			c0-0.7-0.2-1.3-0.6-1.6s-1-0.6-1.7-0.6h-2.3V3.4h2.2c1.2,0,2.2,0.3,2.8,1s1,1.5,1,2.7v2.9c0,0.8-0.2,1.4-0.5,2
			c-0.3,0.5-0.7,1-1.3,1.2s-1.3,0.4-2.1,0.4H88.3z"/>
	</g>
</g>
<g>
	<g class="st3">
		<path class="st4" d="M78.7,90.7c-0.7,0-1.3-0.2-1.9-0.5c-0.5-0.3-0.9-0.7-1.2-1.3s-0.4-1.2-0.4-2v-2.9c0-0.8,0.1-1.4,0.4-2
			c0.3-0.6,0.7-1,1.2-1.3c0.5-0.3,1.2-0.5,1.9-0.5c0.7,0,1.3,0.2,1.9,0.5c0.5,0.3,0.9,0.7,1.2,1.3c0.3,0.6,0.4,1.2,0.4,2V87
			c0,0.7-0.1,1.4-0.4,2c-0.3,0.6-0.7,1-1.2,1.3C80,90.5,79.4,90.7,78.7,90.7z M78.7,89.3c0.6,0,1.1-0.2,1.5-0.6s0.6-1,0.6-1.7v-3
			c0-0.7-0.2-1.2-0.6-1.7c-0.4-0.4-0.9-0.6-1.5-0.6c-0.6,0-1.1,0.2-1.5,0.6c-0.4,0.4-0.6,1-0.6,1.7v3c0,0.7,0.2,1.2,0.6,1.7
			C77.5,89.1,78,89.3,78.7,89.3z"/>
	</g>
</g>
<line class="st6" x1="79" y1="72.8" x2="79" y2="0"/>
</svg>
