<?xml version="1.0" encoding="utf-8"?>
<!-- Generator: Adobe Illustrator 28.0.0, SVG Export Plug-In . SVG Version: 6.00 Build 0)  -->
<svg version="1.1" id="Calque_1" xmlns="http://www.w3.org/2000/svg" xmlns:xlink="http://www.w3.org/1999/xlink" x="0px" y="0px"
	 viewBox="0 0 317.8 257.4" style="enable-background:new 0 0 317.8 257.4;" xml:space="preserve">
<style type="text/css">
	.st0{fill:none;stroke:#1D1D1B;stroke-width:4;stroke-linecap:round;stroke-miterlimit:10;}
	.st1{fill:none;stroke:#E30613;stroke-width:4;stroke-linecap:round;stroke-miterlimit:10;}
	.st2{enable-background:new    ;}
	.st3{fill:#1D1D1B;}
</style>
<line class="st0" x1="40.4" y1="86.6" x2="307.7" y2="102.4"/>
<line class="st0" x1="28.7" y1="167.6" x2="316.8" y2="151.6"/>
<line class="st1" x1="209.5" y1="21.7" x2="103.3" y2="256.4"/>
<g class="st2">
	<path class="st3" d="M30.7,76.6c-1.2,0-2.2-0.2-3-0.7s-1.4-1.1-1.9-2s-0.6-1.9-0.6-3c0-1.8,0.2-3.8,0.7-6.1
		c0.5-2.4,1.1-4.3,1.8-5.8c0.6-1.3,1.3-2.4,2.1-3.1c0.7-0.7,1.5-1.2,2.4-1.6c1-0.4,2.2-0.6,3.6-0.6L35.5,55c-0.7,0-1.2,0.1-1.7,0.4
		s-1,0.7-1.4,1.3c-0.6,0.8-1.1,1.9-1.6,3.4c-0.6,1.6-1.1,3.7-1.6,6.3c-0.5,2.3-0.7,4.1-0.7,5.4c0,0.9,0.1,1.6,0.3,2.1
		c0.2,0.5,0.5,0.9,0.8,1.1c0.4,0.2,0.9,0.3,1.5,0.3L30.7,76.6z"/>
	<path class="st3" d="M44.3,57.3c0-0.2,0.1-0.5,0.2-0.9c0.1-0.4,0.1-0.7,0.1-0.9c0-0.2,0-0.3-0.1-0.4c0-0.1-0.1-0.2-0.2-0.3
		s-0.2-0.1-0.3-0.2c-0.1,0-0.4-0.1-0.7-0.1l0.2-0.8l3.7-0.2h1.4l-3.1,14c-0.1,0.4-0.2,0.7-0.2,1c0,0.3-0.1,0.5-0.1,0.7
		c0,0.4,0.1,0.6,0.3,0.8s0.5,0.3,1,0.3l-0.1,0.8h-4.7l0.7-2.5l-0.2,0c-0.6,0.7-1.1,1.3-1.6,1.7c-0.5,0.4-0.9,0.7-1.4,0.8
		c-0.5,0.2-1,0.2-1.6,0.2c-0.6,0-1.1-0.1-1.5-0.4c-0.4-0.3-0.8-0.7-1-1.3c-0.3-0.6-0.4-1.3-0.4-2.2c0-0.9,0.1-1.7,0.3-2.6
		c0.2-0.9,0.5-1.7,0.9-2.4c0.4-0.8,0.9-1.4,1.5-1.9c0.6-0.5,1.3-1,2-1.2c0.8-0.3,1.6-0.4,2.5-0.4c0.7,0,1.4,0.1,2.1,0.4L44.3,57.3z
		 M43,63.6c0-0.2,0.1-0.5,0.1-0.9s0.1-0.6,0.1-1c0-0.5-0.1-1-0.3-1.2s-0.5-0.4-1-0.4c-0.8,0-1.4,0.4-2,1.1c-0.6,0.8-1.1,1.8-1.4,3.1
		c-0.4,1.3-0.5,2.5-0.5,3.5c0,0.6,0.1,1,0.3,1.3c0.2,0.3,0.4,0.4,0.8,0.4c0.5,0,1.1-0.3,1.7-0.8s1-1.1,1.4-1.9
		c0.3-0.7,0.7-1.7,0.9-2.9L43,63.6z"/>
</g>
<g class="st2">
	<path class="st3" d="M53.2,77.4c-0.1,0.4-0.1,0.7-0.1,0.9c0,0.2,0.1,0.3,0.2,0.4c0.1,0.1,0.3,0.2,0.5,0.2c0.2,0,0.6,0.1,1.1,0.1
		l-0.1,0.6h-5.9l0.1-0.6c0.5,0,0.9-0.1,1.1-0.1c0.2,0,0.4-0.1,0.5-0.2c0.1-0.1,0.2-0.2,0.3-0.4c0.1-0.2,0.2-0.4,0.2-0.8l1-4.6
		c0.1-0.2,0.1-0.4,0.1-0.6c0-0.1,0-0.2-0.1-0.3c-0.1-0.1-0.1-0.1-0.2-0.1c-0.1,0-0.2,0-0.3,0.1s-0.3,0.1-0.4,0.2
		c-0.2,0.1-0.5,0.3-1,0.5l-0.4-0.7l4.1-2.1h1c-0.1,0.5-0.3,1.1-0.4,1.9L53.2,77.4z"/>
</g>
<g class="st2">
	<path class="st3" d="M59.5,53.6c1.2,0,2.2,0.2,3,0.7c0.8,0.5,1.4,1.1,1.9,2s0.6,1.9,0.6,3c0,2-0.3,4.2-0.9,6.7
		c-0.6,2.5-1.3,4.6-2.1,6.1s-1.8,2.6-3,3.3c-1.2,0.7-2.7,1.1-4.6,1.1l0.3-1.4c0.6,0,1.2-0.1,1.7-0.3s0.9-0.6,1.4-1.1
		c0.5-0.7,1-1.6,1.5-2.8c0.4-1.2,0.9-2.6,1.2-4.2c0.3-1.2,0.6-2.4,0.8-3.6c0.4-1.9,0.5-3.6,0.5-4.9c0-0.8-0.1-1.5-0.3-2
		s-0.4-0.8-0.8-1.1c-0.4-0.2-0.9-0.3-1.5-0.3L59.5,53.6z"/>
</g>
<g class="st2">
	<path class="st3" d="M7,155.1c-1.2,0-2.2-0.2-3-0.7s-1.4-1.1-1.9-2c-0.4-0.9-0.6-1.9-0.6-3c0-1.8,0.2-3.8,0.7-6.1
		c0.5-2.4,1.1-4.3,1.8-5.8c0.6-1.3,1.3-2.4,2.1-3.1c0.7-0.7,1.5-1.2,2.4-1.6c1-0.4,2.2-0.6,3.6-0.6l-0.3,1.4c-0.7,0-1.2,0.1-1.7,0.4
		s-1,0.7-1.4,1.3c-0.6,0.8-1.1,1.9-1.6,3.4c-0.6,1.6-1.1,3.7-1.6,6.3c-0.5,2.3-0.7,4.1-0.7,5.4c0,0.9,0.1,1.6,0.3,2.1
		c0.2,0.5,0.5,0.9,0.8,1.1c0.4,0.2,0.9,0.3,1.5,0.3L7,155.1z"/>
	<path class="st3" d="M20.6,135.8c0-0.2,0.1-0.5,0.2-0.9s0.1-0.7,0.1-0.9c0-0.2,0-0.3-0.1-0.4c0-0.1-0.1-0.2-0.2-0.3
		s-0.2-0.1-0.3-0.2c-0.1,0-0.4-0.1-0.7-0.1l0.2-0.8l3.7-0.2h1.4l-3.1,14c-0.1,0.4-0.2,0.7-0.2,1c0,0.3-0.1,0.5-0.1,0.7
		c0,0.4,0.1,0.6,0.3,0.8s0.5,0.3,1,0.3l-0.1,0.8h-4.7l0.7-2.5l-0.2,0c-0.6,0.7-1.1,1.3-1.6,1.7c-0.5,0.4-0.9,0.7-1.4,0.8
		c-0.5,0.2-1,0.2-1.6,0.2c-0.6,0-1.1-0.1-1.5-0.4c-0.4-0.3-0.8-0.7-1-1.3c-0.3-0.6-0.4-1.3-0.4-2.2c0-0.9,0.1-1.7,0.3-2.6
		c0.2-0.9,0.5-1.7,0.9-2.4s0.9-1.4,1.5-1.9s1.3-1,2-1.2c0.8-0.3,1.6-0.4,2.5-0.4c0.7,0,1.4,0.1,2.1,0.4L20.6,135.8z M19.3,142.1
		c0-0.2,0.1-0.5,0.1-0.9s0.1-0.6,0.1-1c0-0.5-0.1-1-0.3-1.2s-0.5-0.4-1-0.4c-0.8,0-1.4,0.4-2,1.1s-1.1,1.8-1.4,3.1
		c-0.4,1.3-0.5,2.5-0.5,3.5c0,0.6,0.1,1,0.3,1.3c0.2,0.3,0.4,0.4,0.8,0.4c0.5,0,1.1-0.3,1.7-0.8s1-1.1,1.4-1.9
		c0.3-0.7,0.7-1.7,0.9-2.9L19.3,142.1z"/>
</g>
<g class="st2">
	<path class="st3" d="M29.1,156.4c0.2,0,0.4,0,0.6-0.1c0.1,0,0.3-0.1,0.3-0.2c0.1-0.1,0.2-0.3,0.3-0.6h0.9l-0.6,2.5h-6.3l0.1-0.5
		c0.3-0.4,0.6-0.9,1-1.4c0.4-0.5,1-1.1,1.8-1.9c0.7-0.7,1.3-1.2,1.6-1.7s0.6-0.8,0.8-1.2c0.2-0.4,0.3-0.8,0.3-1.2
		c0-0.3-0.1-0.6-0.3-0.8c-0.2-0.2-0.4-0.3-0.7-0.3c-0.4,0-0.7,0.1-1,0.4c-0.3,0.3-0.5,0.7-0.7,1.2H26l0.4-1.7
		c0.7-0.2,1.3-0.4,1.8-0.5c0.5-0.1,1-0.1,1.5-0.1c0.6,0,1,0.1,1.4,0.2c0.4,0.2,0.7,0.4,0.8,0.6c0.2,0.3,0.3,0.6,0.3,0.9
		c0,0.3-0.1,0.6-0.2,0.9c-0.1,0.3-0.3,0.6-0.5,0.9c-0.2,0.3-0.6,0.6-1,1c-0.4,0.4-1,0.9-1.7,1.5c-0.3,0.3-0.7,0.6-1.1,1
		c-0.4,0.4-0.7,0.7-1,0.9l0,0.1H29.1z"/>
</g>
<g class="st2">
	<path class="st3" d="M35.8,132.1c1.2,0,2.2,0.2,3,0.7s1.4,1.1,1.9,2c0.4,0.9,0.6,1.9,0.6,3c0,2-0.3,4.2-0.9,6.7
		c-0.6,2.5-1.3,4.6-2.1,6.1s-1.8,2.6-3,3.3c-1.2,0.7-2.7,1.1-4.6,1.1l0.3-1.4c0.6,0,1.2-0.1,1.7-0.3c0.5-0.2,0.9-0.6,1.4-1.1
		c0.5-0.7,1-1.6,1.5-2.8c0.4-1.2,0.9-2.6,1.2-4.2c0.3-1.2,0.6-2.4,0.8-3.6c0.4-1.9,0.5-3.6,0.5-4.9c0-0.8-0.1-1.5-0.3-2
		c-0.2-0.5-0.4-0.8-0.8-1.1c-0.4-0.2-0.9-0.3-1.5-0.3L35.8,132.1z"/>
</g>
<g class="st2">
	<path class="st3" d="M224.1,26.3c-1.2,0-2.2-0.2-3-0.7s-1.4-1.1-1.9-2c-0.4-0.9-0.6-1.9-0.6-3c0-1.8,0.2-3.8,0.7-6.1
		c0.5-2.4,1.1-4.3,1.8-5.8c0.6-1.3,1.3-2.4,2.1-3.1c0.7-0.7,1.5-1.2,2.4-1.6c1-0.4,2.2-0.6,3.6-0.6l-0.3,1.4c-0.7,0-1.2,0.1-1.7,0.4
		c-0.5,0.3-1,0.7-1.4,1.3c-0.6,0.8-1.1,1.9-1.6,3.4c-0.6,1.6-1.1,3.7-1.6,6.3c-0.5,2.3-0.7,4.1-0.7,5.4c0,0.9,0.1,1.6,0.3,2.1
		c0.2,0.5,0.5,0.9,0.8,1.1c0.4,0.2,0.9,0.3,1.5,0.3L224.1,26.3z"/>
	<path class="st3" d="M237.7,7.1c0-0.2,0.1-0.5,0.2-0.9c0.1-0.4,0.1-0.7,0.1-0.9c0-0.2,0-0.3-0.1-0.4c0-0.1-0.1-0.2-0.2-0.3
		c-0.1-0.1-0.2-0.1-0.3-0.2c-0.1,0-0.4-0.1-0.7-0.1l0.2-0.8l3.7-0.2h1.4l-3.1,14c-0.1,0.4-0.2,0.7-0.2,1c0,0.3-0.1,0.5-0.1,0.7
		c0,0.4,0.1,0.6,0.3,0.8s0.5,0.3,1,0.3l-0.1,0.8h-4.7l0.7-2.5l-0.2,0c-0.6,0.7-1.1,1.3-1.6,1.7c-0.5,0.4-1,0.7-1.4,0.8
		c-0.5,0.2-1,0.2-1.6,0.2c-0.6,0-1.1-0.1-1.5-0.4c-0.4-0.3-0.8-0.7-1-1.3c-0.3-0.6-0.4-1.3-0.4-2.2c0-0.9,0.1-1.7,0.3-2.6
		c0.2-0.9,0.5-1.7,0.9-2.4c0.4-0.8,0.9-1.4,1.5-1.9c0.6-0.5,1.3-1,2-1.2c0.8-0.3,1.6-0.4,2.5-0.4c0.7,0,1.4,0.1,2.1,0.4L237.7,7.1z
		 M236.4,13.3c0-0.2,0.1-0.5,0.1-0.9s0.1-0.6,0.1-1c0-0.5-0.1-1-0.3-1.2c-0.2-0.3-0.5-0.4-1-0.4c-0.8,0-1.4,0.4-2,1.1
		c-0.6,0.8-1.1,1.8-1.4,3.1c-0.4,1.3-0.5,2.5-0.5,3.5c0,0.6,0.1,1,0.3,1.3c0.2,0.3,0.4,0.4,0.8,0.4c0.5,0,1.1-0.3,1.7-0.8
		s1-1.1,1.4-1.9c0.3-0.7,0.7-1.7,0.9-2.9L236.4,13.3z"/>
	<path class="st3" d="M244.5,3.3c1.2,0,2.2,0.2,3,0.7c0.8,0.5,1.4,1.1,1.9,2c0.4,0.9,0.6,1.9,0.6,3c0,2-0.3,4.2-0.9,6.7
		c-0.6,2.5-1.3,4.6-2.1,6.1c-0.8,1.5-1.8,2.6-3,3.3s-2.7,1.1-4.6,1.1l0.3-1.4c0.6,0,1.2-0.1,1.7-0.3c0.5-0.2,0.9-0.6,1.4-1.1
		c0.5-0.7,1-1.6,1.5-2.8c0.4-1.2,0.9-2.6,1.2-4.2c0.3-1.2,0.6-2.4,0.8-3.6c0.4-1.9,0.5-3.6,0.5-4.9c0-0.8-0.1-1.5-0.3-2
		c-0.2-0.5-0.4-0.8-0.8-1.1c-0.4-0.2-0.9-0.3-1.5-0.3L244.5,3.3z"/>
</g>
</svg>
