<?xml version="1.0" encoding="utf-8"?>
<!-- Generator: Adobe Illustrator 28.0.0, SVG Export Plug-In . SVG Version: 6.00 Build 0)  -->
<svg version="1.0" id="Calque_1" xmlns="http://www.w3.org/2000/svg" xmlns:xlink="http://www.w3.org/1999/xlink" x="0px" y="0px"
	 viewBox="0 0 75 76.2" enable-background="new 0 0 75 76.2" xml:space="preserve">
<rect x="13.6" y="47.4" fill="#74BD83" fill-opacity="0.5" stroke="#74BD83" stroke-miterlimit="10" width="11.2" height="11.2"/>
<polyline fill="none" stroke="#000000" stroke-miterlimit="10" points="13.6,0 13.6,58.7 75,58.7 "/>
<line fill="none" stroke="#000000" stroke-miterlimit="10" x1="9.8" y1="9.3" x2="17.1" y2="9.3"/>
<line fill="none" stroke="#000000" stroke-miterlimit="10" x1="67.3" y1="55.8" x2="67.3" y2="62.3"/>
<g>
	<g>
		<path d="M3.4,4.2h1l3.1,8.5H6.2L3.9,5.9l-2.4,6.9H0.2L3.4,4.2z M1.7,9.7h4.5v1.1H1.7V9.7z"/>
	</g>
</g>
<g>
	<g>
		<path d="M64.5,64.5h1.2V73h-1.2V64.5z M65.2,71.9h2.3c0.6,0,1-0.1,1.3-0.3s0.4-0.6,0.4-1v0c0-0.3,0-0.5-0.1-0.7s-0.3-0.4-0.5-0.5
			s-0.5-0.2-0.8-0.2h-2.6v-1.1h2.6c0.4,0,0.8-0.1,1-0.3s0.3-0.5,0.3-0.9c0-0.4-0.1-0.7-0.4-1s-0.6-0.3-1.1-0.3h-2.4v-1.1h2.7
			c0.6,0,1,0.1,1.4,0.3s0.6,0.5,0.8,0.8s0.3,0.8,0.3,1.2c0,0.3-0.1,0.6-0.2,0.8s-0.3,0.5-0.5,0.7s-0.5,0.3-0.9,0.4
			c0.3,0.1,0.6,0.2,0.9,0.4s0.4,0.4,0.6,0.7s0.2,0.6,0.2,0.9v0c0,0.5-0.1,0.9-0.3,1.2s-0.5,0.6-0.9,0.8S68.4,73,67.9,73h-2.8V71.9z"
			/>
	</g>
</g>
<g>
	<g>
		<path fill="#E30613" d="M8.2,67.4c-0.5-0.3-0.8-0.6-1.1-1.1s-0.4-1-0.4-1.6v-2.4c0-0.6,0.1-1.2,0.4-1.6s0.6-0.8,1.1-1.1
			s1-0.4,1.6-0.4s1.1,0.1,1.6,0.4s0.8,0.6,1.1,1.1s0.4,1,0.4,1.6v2.4c0,0.6-0.1,1.2-0.4,1.6s-0.6,0.8-1.1,1.1s-1,0.4-1.6,0.4
			S8.7,67.7,8.2,67.4z M10.7,66.4c0.3-0.2,0.5-0.4,0.6-0.7s0.2-0.6,0.2-1v-2.5c0-0.4-0.1-0.7-0.2-1s-0.4-0.5-0.6-0.7
			s-0.6-0.2-0.9-0.2s-0.7,0.1-0.9,0.2s-0.5,0.4-0.6,0.7S8,61.9,8,62.2v2.5c0,0.4,0.1,0.7,0.2,1s0.4,0.5,0.6,0.7s0.6,0.2,0.9,0.2
			S10.5,66.6,10.7,66.4z"/>
	</g>
</g>
<g>
	<g>
		<path fill="#74BD83" d="M30,39.6l0,0.2c-0.1,0.2-0.2,0.3-0.4,0.4s-0.4,0.1-0.7,0.1c-0.4,0-0.8-0.1-1.1-0.3s-0.5-0.5-0.7-0.9
			s-0.3-0.8-0.3-1.3v0c0-0.6,0.1-1,0.3-1.4s0.5-0.7,0.8-0.9s0.8-0.3,1.3-0.3s0.9,0.1,1.3,0.3s0.6,0.5,0.8,0.9s0.3,0.9,0.3,1.4v0
			c0,0.3,0,0.6-0.1,1s-0.2,0.7-0.3,1c0,0.1,0,0.1-0.1,0.2s0,0.1-0.1,0.2l-1.8,3.7h-1.3L30,39.6z M30.1,38.9c0.2-0.3,0.3-0.6,0.3-1.1
			v0c0-0.4-0.1-0.8-0.3-1s-0.5-0.4-0.9-0.4c-0.4,0-0.7,0.1-0.9,0.4s-0.3,0.6-0.3,1v0c0,0.5,0.1,0.8,0.3,1.1s0.5,0.4,0.9,0.4
			C29.6,39.3,29.9,39.2,30.1,38.9z"/>
		<path fill="#74BD83" d="M33.8,43.3c-0.4-0.4-0.6-1-0.6-1.8v-3.9c0-0.8,0.2-1.4,0.6-1.8s1-0.6,1.8-0.6c0.8,0,1.4,0.2,1.8,0.6
			s0.6,1,0.6,1.8v3.9c0,0.8-0.2,1.4-0.6,1.8s-1,0.6-1.8,0.6C34.8,44,34.2,43.8,33.8,43.3z M36.5,42.5c0.2-0.2,0.3-0.5,0.3-1v-3.9
			c0-0.4-0.1-0.7-0.3-1s-0.5-0.3-0.9-0.3s-0.7,0.1-0.9,0.3s-0.3,0.5-0.3,1v3.9c0,0.4,0.1,0.7,0.3,1s0.5,0.3,0.9,0.3
			S36.3,42.7,36.5,42.5z"/>
		<path fill="#74BD83" d="M39.8,38.3c-0.3-0.3-0.4-0.7-0.4-1.3c0-0.6,0.1-1,0.4-1.3s0.7-0.5,1.3-0.5c0.6,0,1,0.2,1.3,0.5
			s0.4,0.7,0.4,1.3c0,0.6-0.2,1-0.5,1.3s-0.7,0.5-1.3,0.5C40.6,38.8,40.1,38.6,39.8,38.3z M41.6,37.6c0.1-0.1,0.2-0.3,0.2-0.6
			c0-0.3-0.1-0.5-0.2-0.6s-0.3-0.2-0.5-0.2s-0.4,0.1-0.5,0.2s-0.2,0.3-0.2,0.6s0.1,0.5,0.2,0.6s0.3,0.2,0.5,0.2
			C41.3,37.8,41.5,37.8,41.6,37.6z"/>
	</g>
</g>
</svg>
