<?xml version="1.0" encoding="utf-8"?>
<!-- Generator: Adobe Illustrator 28.0.0, SVG Export Plug-In . SVG Version: 6.00 Build 0)  -->
<svg version="1.1" id="Calque_1" xmlns="http://www.w3.org/2000/svg" xmlns:xlink="http://www.w3.org/1999/xlink" x="0px" y="0px"
	 viewBox="0 0 234.2 131.1" style="enable-background:new 0 0 234.2 131.1;" xml:space="preserve">
<style type="text/css">
	.st0{fill:#74BD83;}
	.st1{fill:#E7D900;}
	.st2{fill:#B5D1EF;}
	.st3{fill:none;stroke:#1D1D1B;stroke-width:2;stroke-linecap:round;stroke-linejoin:round;}
	.st4{enable-background:new    ;}
	.st5{fill:#1D1D1B;}
	.st6{fill:none;stroke:#1D1D1B;stroke-width:2;stroke-linecap:round;stroke-miterlimit:10;}
</style>
<rect x="106.6" y="83.8" transform="matrix(0.8321 -0.5547 0.5547 0.8321 -30.8995 77.5015)" class="st0" width="11.9" height="11.9"/>
<path class="st1" d="M94.2,73.7C86.5,79,81.4,87.9,81.4,98h29.5L94.2,73.7z"/>
<path class="st2" d="M140.4,98c0-6.2-1.9-11.9-5.1-16.6L110.9,98H140.4z"/>
<polyline class="st3" points="45,1 110.7,98 233.2,15 "/>
<line class="st3" x1="1" y1="98" x2="220.8" y2="98"/>
<g>
	<g class="st4">
		<path class="st5" d="M45.8,82.1c-1.1,0-2-0.3-2.7-0.9c-0.7-0.6-1.1-1.5-1.3-2.6v0h2v0c0.1,0.5,0.3,0.9,0.6,1.2
			c0.3,0.3,0.8,0.4,1.3,0.4c0.6,0,1.1-0.2,1.5-0.6s0.5-1,0.5-1.8v-1.2c0-0.8-0.2-1.4-0.5-1.8c-0.3-0.4-0.8-0.6-1.5-0.6
			c-0.3,0-0.7,0.1-1,0.3s-0.6,0.5-0.8,0.8h-1.8v-7.5h7.2v1.9h-5.2v3.2c0.2-0.2,0.5-0.4,0.8-0.5c0.3-0.1,0.6-0.2,0.9-0.2
			c1.2,0,2.2,0.4,2.9,1.1c0.7,0.8,1,1.8,1,3.2v1.2c0,1.4-0.3,2.5-1,3.2C48,81.7,47.1,82.1,45.8,82.1z"/>
		<path class="st5" d="M52.5,79.8V78l4.8-10.3h2l-4.6,10.2h7v1.8H52.5z M58.6,81.9v-8.3h1.9v8.3H58.6z"/>
		<path class="st5" d="M66.2,73.4c-0.9,0-1.6-0.3-2.1-0.8c-0.5-0.5-0.7-1.2-0.7-2.1c0-0.9,0.2-1.6,0.7-2.1c0.5-0.5,1.2-0.8,2.1-0.8
			c0.9,0,1.6,0.3,2.1,0.8c0.5,0.5,0.7,1.2,0.7,2.2c0,0.9-0.2,1.6-0.7,2.1C67.8,73.2,67.1,73.4,66.2,73.4z M66.2,71.9
			c0.4,0,0.7-0.1,0.9-0.4c0.2-0.2,0.3-0.6,0.3-1c0-0.4-0.1-0.7-0.3-1c-0.2-0.2-0.5-0.3-0.9-0.3c-0.4,0-0.7,0.1-0.9,0.3
			s-0.3,0.6-0.3,1s0.1,0.8,0.3,1C65.5,71.8,65.8,71.9,66.2,71.9z"/>
	</g>
</g>
<g>
	<g class="st4">
		<path class="st5" d="M163.8,86.2c-0.8,0-1.5-0.1-2.1-0.4c-0.6-0.3-1.1-0.7-1.4-1.3c-0.4-0.5-0.6-1.2-0.7-2h2
			c0.1,0.6,0.3,1.1,0.7,1.3c0.4,0.3,0.9,0.4,1.5,0.4c0.7,0,1.2-0.2,1.5-0.5c0.4-0.4,0.5-0.8,0.5-1.5v-0.4c0-0.7-0.2-1.3-0.5-1.6
			s-0.8-0.6-1.5-0.6h-1v-1.9h1c0.6,0,1-0.2,1.3-0.5c0.3-0.3,0.5-0.8,0.5-1.4v-0.4c0-0.6-0.2-1-0.5-1.3c-0.3-0.3-0.8-0.5-1.4-0.5
			c-0.5,0-0.9,0.1-1.3,0.4s-0.6,0.7-0.7,1.3h-2c0.2-1.2,0.7-2.1,1.4-2.7c0.7-0.6,1.6-1,2.7-1c1.2,0,2.2,0.3,2.8,1
			c0.7,0.6,1,1.6,1,2.7v0.2c0,0.7-0.2,1.3-0.6,1.8c-0.4,0.5-0.9,0.9-1.6,1.2c0.8,0.2,1.4,0.5,1.8,1.1s0.6,1.4,0.6,2.3v0.2
			c0,1.2-0.4,2.2-1.1,2.9C166.1,85.9,165.1,86.2,163.8,86.2z"/>
		<path class="st5" d="M174.4,86.2c-1.3,0-2.2-0.4-2.9-1.1c-0.7-0.7-1-1.8-1-3.2v0c0-0.6,0.1-1.3,0.3-1.9c0.2-0.7,0.4-1.3,0.7-2
			l3.1-6.1h2.1L173,79l0-0.4c0.3-0.6,0.9-1,1.8-1c1.1,0,2,0.4,2.6,1.1c0.6,0.7,0.9,1.8,0.9,3.1v0c0,1.4-0.3,2.4-1,3.2
			C176.6,85.8,175.6,86.2,174.4,86.2z M174.4,84.3c0.6,0,1.1-0.2,1.5-0.6c0.3-0.4,0.5-0.9,0.5-1.7v0c0-0.8-0.2-1.4-0.5-1.8
			c-0.4-0.4-0.9-0.6-1.5-0.6c-0.6,0-1,0.2-1.4,0.7s-0.5,1-0.5,1.8v0c0,0.7,0.2,1.3,0.5,1.7C173.3,84.1,173.7,84.3,174.4,84.3z"/>
		<path class="st5" d="M183.1,77.6c-0.9,0-1.6-0.3-2.1-0.8c-0.5-0.5-0.7-1.2-0.7-2.1c0-0.9,0.2-1.6,0.7-2.1c0.5-0.5,1.2-0.8,2.1-0.8
			c0.9,0,1.6,0.3,2.1,0.8c0.5,0.5,0.7,1.2,0.7,2.2c0,0.9-0.2,1.6-0.7,2.1C184.7,77.3,184,77.6,183.1,77.6z M183.1,76
			c0.4,0,0.7-0.1,0.9-0.4c0.2-0.2,0.3-0.6,0.3-1c0-0.4-0.1-0.7-0.3-1c-0.2-0.2-0.5-0.3-0.9-0.3s-0.7,0.1-0.9,0.3s-0.3,0.6-0.3,1
			s0.1,0.8,0.3,1C182.4,75.9,182.7,76,183.1,76z"/>
	</g>
</g>
<line class="st6" x1="16.4" y1="93" x2="16.4" y2="104"/>
<line class="st6" x1="202.4" y1="92.5" x2="202.4" y2="103.5"/>
<line class="st6" x1="66" y1="22" x2="56.9" y2="28.1"/>
<line class="st6" x1="208.6" y1="38.5" x2="202.4" y2="29.4"/>
<g>
	<g class="st4">
		<path class="st5" d="M8.9,125.7l5.2-14.2h1.7l5.2,14.2h-2.1l-3.9-11.4L11,125.7H8.9z M11.3,122.6v-1.9h7.5v1.9H11.3z"/>
	</g>
</g>
<g>
	<g class="st4">
		<path class="st5" d="M70,19.4V5.2h2v14.2H70z M71.1,19.4v-1.8H75c1.1,0,1.8-0.2,2.2-0.6c0.4-0.4,0.7-0.9,0.7-1.6v0
			c0-0.7-0.2-1.3-0.6-1.7c-0.4-0.4-1-0.6-1.8-0.6h-4.3v-1.8h4.3c0.7,0,1.3-0.2,1.7-0.5c0.4-0.3,0.6-0.9,0.6-1.5
			c0-0.7-0.2-1.2-0.6-1.6c-0.4-0.4-1-0.5-1.9-0.5h-4.1V5.2h4.4c1.4,0,2.4,0.3,3.1,1c0.7,0.7,1,1.6,1,2.8c0,0.7-0.2,1.4-0.6,1.9
			c-0.4,0.6-1.1,1-2,1.1c0.9,0.1,1.6,0.5,2,1.2s0.7,1.4,0.7,2.2v0c0,1.2-0.4,2.1-1.1,2.8c-0.7,0.7-1.8,1.1-3,1.1H71.1z"/>
	</g>
</g>
<g>
	<g class="st4">
		<path class="st5" d="M194.6,23.7c-1,0-1.9-0.2-2.6-0.7c-0.7-0.4-1.3-1.1-1.7-1.8c-0.4-0.8-0.6-1.7-0.6-2.8v-3.9
			c0-1.1,0.2-2,0.6-2.8c0.4-0.8,1-1.4,1.7-1.8c0.7-0.4,1.6-0.7,2.6-0.7c0.8,0,1.6,0.2,2.2,0.5c0.7,0.4,1.2,0.8,1.7,1.5
			c0.5,0.6,0.8,1.4,0.9,2.2h-2c-0.1-0.5-0.3-0.9-0.6-1.2s-0.6-0.6-1-0.8c-0.4-0.2-0.8-0.3-1.2-0.3c-0.9,0-1.6,0.3-2.1,0.9
			c-0.5,0.6-0.8,1.4-0.8,2.4v3.9c0,1,0.3,1.8,0.8,2.4c0.5,0.6,1.2,0.9,2.1,0.9c0.6,0,1.2-0.2,1.7-0.6c0.5-0.4,0.9-1,1.1-1.7h2
			c-0.2,0.8-0.5,1.6-0.9,2.2c-0.5,0.6-1,1.1-1.7,1.5C196.1,23.5,195.4,23.7,194.6,23.7z"/>
	</g>
</g>
<g>
	<g class="st4">
		<path class="st5" d="M198.7,125.1V111h2v14.2H198.7z M200,125.1v-1.9h3.2c1,0,1.9-0.3,2.4-0.8c0.6-0.5,0.9-1.3,0.9-2.3V116
			c0-1-0.3-1.8-0.9-2.3c-0.6-0.5-1.4-0.8-2.4-0.8H200V111h3.1c1.7,0,3,0.4,4,1.3c0.9,0.9,1.4,2.1,1.4,3.7v4c0,1.1-0.2,2-0.6,2.7
			c-0.4,0.8-1,1.3-1.8,1.7c-0.8,0.4-1.8,0.6-2.9,0.6H200z"/>
	</g>
</g>
<g>
	<g class="st4">
		<path class="st5" d="M110.4,123.1c-1,0-1.9-0.2-2.6-0.6s-1.3-1-1.7-1.8c-0.4-0.8-0.6-1.7-0.6-2.8v-4c0-1.1,0.2-2,0.6-2.8
			c0.4-0.8,1-1.4,1.7-1.8c0.7-0.4,1.6-0.6,2.6-0.6c1,0,1.9,0.2,2.6,0.6c0.7,0.4,1.3,1,1.7,1.8c0.4,0.8,0.6,1.7,0.6,2.8v4
			c0,1-0.2,2-0.6,2.8c-0.4,0.8-1,1.4-1.7,1.8S111.4,123.1,110.4,123.1z M110.4,121.1c0.9,0,1.6-0.3,2.1-0.9c0.5-0.6,0.8-1.4,0.8-2.3
			v-4.2c0-1-0.3-1.7-0.8-2.3c-0.5-0.6-1.2-0.9-2.1-0.9c-0.9,0-1.6,0.3-2.1,0.9c-0.5,0.6-0.8,1.4-0.8,2.3v4.2c0,1,0.3,1.7,0.8,2.3
			S109.6,121.1,110.4,121.1z"/>
	</g>
</g>
</svg>
