<?xml version="1.0" encoding="utf-8"?>
<!-- Generator: Adobe Illustrator 28.0.0, SVG Export Plug-In . SVG Version: 6.00 Build 0)  -->
<svg version="1.1" id="Calque_1" xmlns="http://www.w3.org/2000/svg" xmlns:xlink="http://www.w3.org/1999/xlink" x="0px" y="0px"
	 viewBox="0 0 302 242.6" style="enable-background:new 0 0 302 242.6;" xml:space="preserve">
<style type="text/css">
	.st0{fill:#44ACE2;}
	.st1{fill:none;stroke:#1D1D1B;stroke-width:3;stroke-linecap:round;stroke-miterlimit:10;}
	.st2{fill:none;stroke:#E30613;stroke-width:3;stroke-linecap:round;stroke-miterlimit:10;}
	.st3{enable-background:new    ;}
	.st4{fill:#1D1D1B;}
	.st5{fill:none;stroke:#009FE3;stroke-linecap:round;stroke-miterlimit:10;}
	.st6{fill:#009FE3;}
</style>
<path class="st0" d="M154.9,114.1c-10.2-4.6-17.4-14.9-17.4-26.9c0-0.6,0-1.2,0.1-1.7l29.5,1.7C167.1,87.1,154.9,114.1,154.9,114.1z
	"/>
<path class="st0" d="M138.2,150.8l-12.8,28.3c-10.2-4.6-17.4-14.9-17.4-26.9"/>
<line class="st1" x1="37.2" y1="79.5" x2="292.3" y2="94.5"/>
<line class="st1" x1="25.9" y1="156.8" x2="301" y2="141.5"/>
<line class="st2" x1="198.5" y1="17.5" x2="97.2" y2="241.6"/>
<g class="st3">
	<path class="st4" d="M27.9,69.9c-1.1,0-2.1-0.2-2.8-0.7s-1.4-1.1-1.8-1.9s-0.6-1.8-0.6-2.9c0-1.7,0.2-3.7,0.7-5.8
		c0.5-2.3,1.1-4.1,1.7-5.6c0.6-1.2,1.2-2.2,2-3c0.7-0.7,1.4-1.2,2.3-1.5c0.9-0.4,2.1-0.5,3.4-0.5l-0.3,1.3c-0.6,0-1.2,0.1-1.7,0.4
		s-0.9,0.6-1.4,1.2c-0.6,0.7-1.1,1.8-1.5,3.2c-0.5,1.6-1,3.6-1.5,6c-0.4,2.2-0.6,3.9-0.6,5.1c0,0.9,0.1,1.6,0.3,2.1s0.4,0.8,0.8,1
		s0.8,0.3,1.4,0.3L27.9,69.9z"/>
	<path class="st4" d="M40.8,51.6c0-0.2,0.1-0.5,0.2-0.8s0.1-0.6,0.1-0.8c0-0.2,0-0.3-0.1-0.4s-0.1-0.2-0.2-0.2s-0.2-0.1-0.3-0.1
		S40.3,49,39.9,49l0.2-0.8l3.5-0.2h1.3l-3,13.3c-0.1,0.4-0.2,0.7-0.2,1s-0.1,0.5-0.1,0.7c0,0.4,0.1,0.6,0.3,0.8s0.5,0.3,0.9,0.3
		l-0.1,0.8h-4.5l0.6-2.4l-0.2,0c-0.5,0.7-1,1.2-1.5,1.6s-0.9,0.6-1.3,0.8s-1,0.2-1.5,0.2c-0.5,0-1-0.1-1.4-0.4s-0.7-0.7-1-1.2
		s-0.4-1.3-0.4-2.1c0-0.8,0.1-1.6,0.3-2.5s0.5-1.6,0.8-2.3s0.8-1.3,1.4-1.9s1.2-0.9,1.9-1.2s1.5-0.4,2.4-0.4c0.7,0,1.4,0.1,2,0.4
		L40.8,51.6z M39.6,57.5c0-0.2,0.1-0.5,0.1-0.8s0.1-0.6,0.1-0.9c0-0.5-0.1-0.9-0.3-1.2s-0.5-0.4-1-0.4c-0.7,0-1.4,0.4-1.9,1.1
		s-1,1.7-1.4,2.9s-0.5,2.3-0.5,3.3c0,0.6,0.1,1,0.3,1.3s0.4,0.4,0.8,0.4c0.5,0,1-0.3,1.6-0.8s1-1.1,1.3-1.8s0.6-1.6,0.9-2.8
		L39.6,57.5z"/>
</g>
<g class="st3">
	<path class="st4" d="M49.4,70.7c-0.1,0.4-0.1,0.7-0.1,0.8c0,0.2,0,0.3,0.1,0.4c0.1,0.1,0.3,0.2,0.5,0.2c0.2,0,0.6,0.1,1,0.1
		l-0.1,0.6h-5.6l0.1-0.6c0.5,0,0.8-0.1,1.1-0.1c0.2,0,0.4-0.1,0.5-0.2c0.1-0.1,0.2-0.2,0.3-0.4c0.1-0.1,0.1-0.4,0.2-0.8l1-4.4
		c0-0.2,0.1-0.4,0.1-0.6c0-0.1,0-0.2-0.1-0.3c-0.1-0.1-0.1-0.1-0.2-0.1c-0.1,0-0.2,0-0.3,0.1c-0.1,0-0.2,0.1-0.4,0.2
		c-0.2,0.1-0.5,0.2-0.9,0.5l-0.3-0.7l3.9-2H51c-0.1,0.5-0.3,1.1-0.4,1.8L49.4,70.7z"/>
</g>
<g class="st3">
	<path class="st4" d="M55.4,48c1.1,0,2.1,0.2,2.8,0.7s1.4,1.1,1.8,1.9s0.6,1.8,0.6,2.9c0,1.9-0.3,4-0.8,6.4s-1.2,4.3-2,5.8
		s-1.7,2.5-2.8,3.2s-2.6,1-4.4,1l0.3-1.3c0.6,0,1.1-0.1,1.6-0.3s0.9-0.6,1.3-1.1c0.5-0.6,1-1.5,1.4-2.6s0.8-2.4,1.2-4
		c0.3-1.2,0.5-2.3,0.7-3.4c0.3-1.9,0.5-3.4,0.5-4.6c0-0.8-0.1-1.4-0.2-1.9s-0.4-0.8-0.8-1s-0.8-0.3-1.4-0.3L55.4,48z"/>
</g>
<g class="st3">
	<path class="st4" d="M5.2,144.8c-1.1,0-2.1-0.2-2.8-0.7s-1.4-1.1-1.8-1.9S0,140.4,0,139.3c0-1.7,0.2-3.7,0.7-5.8
		c0.5-2.3,1.1-4.1,1.7-5.6c0.6-1.2,1.2-2.2,2-3c0.7-0.7,1.4-1.2,2.3-1.5c0.9-0.4,2.1-0.5,3.4-0.5l-0.3,1.3c-0.6,0-1.2,0.1-1.7,0.4
		s-0.9,0.6-1.4,1.2c-0.6,0.7-1.1,1.8-1.5,3.2c-0.5,1.6-1,3.6-1.5,6c-0.4,2.2-0.6,3.9-0.6,5.1c0,0.9,0.1,1.6,0.3,2.1s0.4,0.8,0.8,1
		s0.8,0.3,1.4,0.3L5.2,144.8z"/>
	<path class="st4" d="M18.2,126.5c0-0.2,0.1-0.5,0.2-0.8s0.1-0.6,0.1-0.8c0-0.2,0-0.3-0.1-0.4s-0.1-0.2-0.2-0.2S18.1,124,18,124
		s-0.3-0.1-0.7-0.1l0.2-0.8l3.5-0.2h1.3l-3,13.3c-0.1,0.4-0.2,0.7-0.2,1s-0.1,0.5-0.1,0.7c0,0.4,0.1,0.6,0.3,0.8s0.5,0.3,0.9,0.3
		l-0.1,0.8h-4.5l0.6-2.4l-0.2,0c-0.5,0.7-1,1.2-1.5,1.6s-0.9,0.6-1.3,0.8s-1,0.2-1.5,0.2c-0.5,0-1-0.1-1.4-0.4s-0.7-0.7-1-1.2
		s-0.4-1.3-0.4-2.1c0-0.8,0.1-1.6,0.3-2.5s0.5-1.6,0.8-2.3s0.8-1.3,1.4-1.9s1.2-0.9,1.9-1.2s1.5-0.4,2.4-0.4c0.7,0,1.4,0.1,2,0.4
		L18.2,126.5z M17,132.4c0-0.2,0.1-0.5,0.1-0.8s0.1-0.6,0.1-0.9c0-0.5-0.1-0.9-0.3-1.2s-0.5-0.4-1-0.4c-0.7,0-1.4,0.4-1.9,1.1
		s-1,1.7-1.4,2.9s-0.5,2.3-0.5,3.3c0,0.6,0.1,1,0.3,1.3s0.4,0.4,0.8,0.4c0.5,0,1-0.3,1.6-0.8s1-1.1,1.3-1.8s0.6-1.6,0.9-2.8
		L17,132.4z"/>
</g>
<g class="st3">
	<path class="st4" d="M26.4,146.1c0.2,0,0.4,0,0.5-0.1c0.1,0,0.2-0.1,0.3-0.2c0.1-0.1,0.2-0.3,0.3-0.5h0.8l-0.6,2.4h-6l0.1-0.4
		c0.2-0.4,0.6-0.9,1-1.4c0.4-0.5,1-1.1,1.8-1.8c0.7-0.6,1.2-1.2,1.6-1.6s0.6-0.8,0.8-1.2c0.2-0.4,0.3-0.8,0.3-1.2
		c0-0.3-0.1-0.6-0.3-0.8s-0.4-0.3-0.7-0.3c-0.4,0-0.7,0.1-1,0.4c-0.3,0.2-0.5,0.6-0.7,1.1h-1.2l0.4-1.6c0.7-0.2,1.3-0.4,1.7-0.5
		c0.5-0.1,0.9-0.1,1.4-0.1c0.5,0,1,0.1,1.4,0.2c0.4,0.2,0.6,0.4,0.8,0.6c0.2,0.3,0.3,0.6,0.3,0.9c0,0.3,0,0.6-0.1,0.9
		s-0.3,0.5-0.5,0.8c-0.2,0.3-0.5,0.6-0.9,1c-0.4,0.4-0.9,0.8-1.6,1.4c-0.3,0.3-0.7,0.6-1.1,0.9c-0.4,0.4-0.7,0.7-0.9,0.9l0,0.1H26.4
		z"/>
</g>
<g class="st3">
	<path class="st4" d="M32.7,122.9c1.1,0,2.1,0.2,2.8,0.7s1.4,1.1,1.8,1.9s0.6,1.8,0.6,2.9c0,1.9-0.3,4-0.8,6.4s-1.2,4.3-2,5.8
		s-1.7,2.5-2.8,3.2s-2.6,1-4.4,1l0.3-1.3c0.6,0,1.1-0.1,1.6-0.3s0.9-0.6,1.3-1.1c0.5-0.6,1-1.5,1.4-2.6s0.8-2.4,1.2-4
		c0.3-1.2,0.5-2.3,0.7-3.4c0.3-1.9,0.5-3.4,0.5-4.6c0-0.8-0.1-1.4-0.2-1.9s-0.4-0.8-0.8-1s-0.8-0.3-1.4-0.3L32.7,122.9z"/>
</g>
<g class="st3">
	<path class="st4" d="M212.4,21.9c-1.1,0-2.1-0.2-2.8-0.7s-1.4-1.1-1.8-1.9s-0.6-1.8-0.6-2.9c0-1.7,0.2-3.7,0.7-5.8
		c0.5-2.3,1.1-4.1,1.7-5.6c0.6-1.2,1.2-2.2,2-3c0.7-0.7,1.4-1.2,2.3-1.5c0.9-0.4,2.1-0.5,3.4-0.5L217,1.3c-0.6,0-1.2,0.1-1.7,0.4
		s-0.9,0.6-1.4,1.2c-0.6,0.7-1.1,1.8-1.5,3.2c-0.5,1.6-1,3.6-1.5,6c-0.4,2.2-0.6,3.9-0.6,5.1c0,0.9,0.1,1.6,0.3,2.1s0.4,0.8,0.8,1
		s0.8,0.3,1.4,0.3L212.4,21.9z"/>
	<path class="st4" d="M225.4,3.6c0-0.2,0.1-0.5,0.2-0.8s0.1-0.6,0.1-0.8c0-0.2,0-0.3-0.1-0.4s-0.1-0.2-0.2-0.2s-0.2-0.1-0.3-0.1
		S224.8,1,224.5,1l0.2-0.8l3.5-0.2h1.3l-3,13.3c-0.1,0.4-0.2,0.7-0.2,1s-0.1,0.5-0.1,0.7c0,0.4,0.1,0.6,0.3,0.8s0.5,0.3,0.9,0.3
		l-0.1,0.8h-4.5l0.6-2.4l-0.2,0c-0.5,0.7-1,1.2-1.5,1.6s-0.9,0.6-1.3,0.8s-1,0.2-1.5,0.2c-0.5,0-1-0.1-1.4-0.4s-0.7-0.7-1-1.2
		s-0.4-1.3-0.4-2.1c0-0.8,0.1-1.6,0.3-2.5s0.5-1.6,0.8-2.3s0.8-1.3,1.4-1.9s1.2-0.9,1.9-1.2S222.1,5,223,5c0.7,0,1.4,0.1,2,0.4
		L225.4,3.6z M224.2,9.5c0-0.2,0.1-0.5,0.1-0.8s0.1-0.6,0.1-0.9c0-0.5-0.1-0.9-0.3-1.2s-0.5-0.4-1-0.4c-0.7,0-1.4,0.4-1.9,1.1
		s-1,1.7-1.4,2.9s-0.5,2.3-0.5,3.3c0,0.6,0.1,1,0.3,1.3s0.4,0.4,0.8,0.4c0.5,0,1-0.3,1.6-0.8s1-1.1,1.3-1.8s0.6-1.6,0.9-2.8
		L224.2,9.5z"/>
	<path class="st4" d="M231.9,0c1.1,0,2.1,0.2,2.8,0.7s1.4,1.1,1.8,1.9s0.6,1.8,0.6,2.9c0,1.9-0.3,4-0.8,6.4s-1.2,4.3-2,5.8
		s-1.7,2.5-2.8,3.2s-2.6,1-4.4,1l0.3-1.3c0.6,0,1.1-0.1,1.6-0.3s0.9-0.6,1.3-1.1c0.5-0.6,1-1.5,1.4-2.6s0.8-2.4,1.2-4
		c0.3-1.2,0.5-2.3,0.7-3.4c0.3-1.9,0.5-3.4,0.5-4.6c0-0.8-0.1-1.4-0.2-1.9s-0.4-0.8-0.8-1s-0.8-0.3-1.4-0.3L231.9,0z"/>
</g>
<g>
	<line class="st5" x1="104.7" y1="210.1" x2="93" y2="210.1"/>
	<polygon class="st6" points="87.3,210.1 95.3,206.8 93.4,210.1 95.3,213.3 	"/>
</g>
<g>
	<line class="st5" x1="147.9" y1="118" x2="136.2" y2="118"/>
	<polygon class="st6" points="130.5,118 138.5,114.8 136.6,118 138.5,121.3 	"/>
</g>
<g>
	<line class="st5" x1="115.8" y1="87" x2="112.6" y2="99.2"/>
	<polygon class="st6" points="111.1,104.6 110,96.1 112.7,98.8 116.3,97.8 	"/>
</g>
<g>
	<line class="st5" x1="96.9" y1="157.8" x2="93.6" y2="170"/>
	<polygon class="st6" points="92.2,175.4 91.1,166.9 93.7,169.6 97.4,168.6 	"/>
</g>
</svg>
