<?xml version="1.0" encoding="utf-8"?>
<!-- Generator: Adobe Illustrator 28.0.0, SVG Export Plug-In . SVG Version: 6.00 Build 0)  -->
<svg version="1.0" id="Calque_1" xmlns="http://www.w3.org/2000/svg" xmlns:xlink="http://www.w3.org/1999/xlink" x="0px" y="0px"
	 viewBox="0 0 135.3 115" enable-background="new 0 0 135.3 115" xml:space="preserve">
<path fill="#B44090" fill-opacity="0.5" stroke="#B44090" stroke-miterlimit="10" d="M72.3,73.8c-5.5,13.8-18.8,23-34.5,23
	c-20.6,0-37.3-16.7-37.3-37.3s16.7-37.3,37.3-37.3c13.6,0,25.1,6.7,31.6,17.5L36.4,59.5L72.3,73.8z"/>
<polyline fill="none" stroke="#000000" stroke-miterlimit="10" points="132.8,1.6 36.5,59.5 135.1,98.9 "/>
<line fill="none" stroke="#000000" stroke-miterlimit="10" x1="100.5" y1="13.4" x2="106.5" y2="23.1"/>
<line fill="none" stroke="#000000" stroke-miterlimit="10" x1="124.3" y1="88.9" x2="120.8" y2="98.9"/>
<g>
	<g>
		<path fill="#009FE3" d="M100.3,1.5h1.1V10h-1.2V3.7l0.1,0.4l-2.1,4.8h-0.8l-2.1-4.7l0.1-0.5V10h-1.2V1.5h1.1l2.5,5.6L100.3,1.5z"
			/>
	</g>
</g>
<g>
	<g>
		<path fill="#009FE3" d="M114.7,103.5h1.1l4.2,6.6l-0.1,0.2v-6.7h1.2v8.5h-1.1l-4.2-6.5l0.1-0.2v6.6h-1.2V103.5z"/>
	</g>
</g>
<g>
	<g>
		<path d="M29,64.1c-0.5-0.3-0.8-0.6-1.1-1.1s-0.4-1-0.4-1.6v-2.4c0-0.6,0.1-1.2,0.4-1.6s0.6-0.8,1.1-1.1s1-0.4,1.6-0.4
			s1.1,0.1,1.6,0.4s0.8,0.6,1.1,1.1s0.4,1,0.4,1.6v2.4c0,0.6-0.1,1.2-0.4,1.6s-0.6,0.8-1.1,1.1s-1,0.4-1.6,0.4S29.5,64.3,29,64.1z
			 M31.5,63.1c0.3-0.2,0.5-0.4,0.6-0.7s0.2-0.6,0.2-1v-2.5c0-0.4-0.1-0.7-0.2-1s-0.4-0.5-0.6-0.7s-0.6-0.2-0.9-0.2s-0.7,0.1-0.9,0.2
			s-0.5,0.4-0.6,0.7s-0.2,0.6-0.2,1v2.5c0,0.4,0.1,0.7,0.2,1s0.4,0.5,0.6,0.7s0.6,0.2,0.9,0.2S31.2,63.2,31.5,63.1z"/>
	</g>
</g>
</svg>
