<?xml version="1.0" encoding="utf-8"?>
<!-- Generator: Adobe Illustrator 28.0.0, SVG Export Plug-In . SVG Version: 6.00 Build 0)  -->
<svg version="1.0" id="Calque_1" xmlns="http://www.w3.org/2000/svg" xmlns:xlink="http://www.w3.org/1999/xlink" x="0px" y="0px"
	 viewBox="0 0 25.4 19" enable-background="new 0 0 25.4 19" xml:space="preserve">
<g>
	<g>
		<path fill="#009FE3" d="M7.2,7.3h1.1v8.5H7.1V9.4l0.1,0.4l-2.1,4.8H4.3L2.2,9.9l0.1-0.5v6.4H1.1V7.3h1.1l2.5,5.6L7.2,7.3z"/>
		<path fill="#E30613" d="M11.7,15.5c-0.5-0.3-0.8-0.6-1.1-1.1s-0.4-1-0.4-1.6v-2.4c0-0.6,0.1-1.2,0.4-1.6s0.6-0.8,1.1-1.1
			s1-0.4,1.6-0.4s1.1,0.1,1.6,0.4s0.8,0.6,1.1,1.1s0.4,1,0.4,1.6v2.4c0,0.6-0.1,1.2-0.4,1.6s-0.6,0.8-1.1,1.1s-1,0.4-1.6,0.4
			S12.1,15.7,11.7,15.5z M14.2,14.5c0.3-0.2,0.5-0.4,0.6-0.7s0.2-0.6,0.2-1v-2.5c0-0.4-0.1-0.7-0.2-1s-0.4-0.5-0.6-0.7
			s-0.6-0.2-0.9-0.2s-0.7,0.1-0.9,0.2S11.8,9,11.7,9.3s-0.2,0.6-0.2,1v2.5c0,0.4,0.1,0.7,0.2,1s0.4,0.5,0.6,0.7s0.6,0.2,0.9,0.2
			S13.9,14.6,14.2,14.5z"/>
		<path fill="#009FE3" d="M18,7.3h1.1l4.2,6.6L23.1,14V7.3h1.2v8.5h-1.1l-4.2-6.5l0.1-0.2v6.6H18V7.3z"/>
	</g>
</g>
<g>
	<line fill="#FFFFFF" stroke="#000000" stroke-miterlimit="10" x1="1.4" y1="2.3" x2="12.9" y2="5.9"/>
	<line fill="#FFFFFF" stroke="#000000" stroke-miterlimit="10" x1="24" y1="2.3" x2="12.4" y2="5.9"/>
</g>
</svg>
