<?xml version="1.0" encoding="utf-8"?>
<!-- Generator: Adobe Illustrator 28.0.0, SVG Export Plug-In . SVG Version: 6.00 Build 0)  -->
<svg version="1.1" id="Calque_1" xmlns="http://www.w3.org/2000/svg" xmlns:xlink="http://www.w3.org/1999/xlink" x="0px" y="0px"
	 viewBox="0 0 413.9 341.1" style="enable-background:new 0 0 413.9 341.1;" xml:space="preserve">
<style type="text/css">
	.st0{fill:#F39200;}
	.st1{fill:#009FE3;}
	.st2{fill:none;stroke:#000000;stroke-width:3;stroke-linejoin:round;stroke-miterlimit:10;}
	.st3{fill:none;stroke:#E30613;stroke-width:2;stroke-miterlimit:10;}
	.st4{fill:#E30613;}
</style>
<path class="st0" d="M80,297.3c0-20.1-11-37.9-27.5-47l-26.6,47H80z"/>
<path class="st1" d="M330.7,297.3c0-17.8,8.1-34,20.7-44.7l38.2,44.7H330.7z"/>
<polygon class="st2" points="25.9,297.3 389.6,297.3 170.4,40.5 "/>
<g>
	<g>
		<path d="M10.4,299.3h3.2l10,27.5h-4.2l-7.8-22.3l-7.8,22.3H0L10.4,299.3z M4.9,317.4h14.6v3.6H4.9V317.4z"/>
	</g>
</g>
<g>
	<g>
		<path d="M399.3,321.6c-1.3-1-2.6-1.9-3.2-3.6c-0.6-1.6-1.3-3.2-1.3-5.5v-7.4c0-1.9,0.3-3.9,1.3-5.5c1-1.6,1.9-2.9,3.2-3.6
			c1.3-0.6,3.2-1.3,5.2-1.3c1.6,0,2.9,0.3,4.2,1s2.6,1.6,3.2,2.9c0.6,1.3,1.6,2.6,1.9,4.2H410c-0.3-1-0.6-1.6-1.3-2.3
			s-1.3-1.3-1.9-1.6c-0.6-0.3-1.6-0.6-2.3-0.6c-1,0-2.3,0.3-2.9,1s-1.6,1.3-1.9,2.3c-0.3,1-0.6,2.3-0.6,3.6v7.4
			c0,1.3,0.3,2.6,0.6,3.6c0.3,1,1,1.6,1.9,2.3c1,0.6,1.9,0.6,2.9,0.6c1,0,1.6-0.3,2.3-0.6c0.6-0.3,1.3-1,1.9-1.6s1-1.6,1.3-2.3h3.9
			c-0.3,1.6-1,2.9-1.9,4.2s-1.9,2.3-3.2,2.9s-2.9,1-4.2,1C402.6,322.9,401,322.6,399.3,321.6z"/>
	</g>
</g>
<g>
	<g>
		<path d="M161.3,0h3.9v27.5h-3.9V0z M163.6,24.3h7.4c1.9,0,3.2-0.3,4.2-1c1-0.6,1.3-1.9,1.3-3.2l0,0c0-1,0-1.6-0.3-2.3
			c-0.3-0.6-1-1.3-1.6-1.6c-0.6-0.3-1.6-0.6-2.6-0.6h-8.4v-3.9h8.4c1.3,0,2.6-0.3,3.2-1s1-1.6,1-2.9s-0.3-2.3-1.3-3.2s-1.9-1-3.6-1
			h-7.8V0h8.7c1.9,0,3.2,0.3,4.5,1c1.3,0.6,1.9,1.6,2.6,2.6s1,2.6,1,3.9c0,1-0.3,1.9-0.6,2.6s-1,1.6-1.6,2.3c-0.6,0.6-1.6,1-2.9,1.3
			c1,0.3,1.9,0.6,2.9,1.3c1,0.6,1.3,1.3,1.9,2.3c0.6,1,0.6,1.9,0.6,2.9l0,0c0,1.6-0.3,2.9-1,3.9c-0.6,1-1.6,1.9-2.9,2.6
			c-1.3,0.6-2.6,1-4.2,1h-9.1V24.3z"/>
	</g>
</g>
<g>
	<g>
		<path d="M172,340.4c-1.3-0.6-1.9-1.6-2.6-2.9c-0.6-1.3-1-2.6-1-4.5l0,0c0-1,0-1.9,0.3-3.2c0.3-1.3,0.6-2.3,1-3.2
			c0-0.3,0-0.3,0.3-0.6c0.3-0.3,0.3-0.3,0.3-0.6l6.2-12h4.2l-7.1,13.6v-0.6c0.3-0.6,0.6-1,1.3-1.3c0.6-0.3,1.3-0.6,2.3-0.6
			c1.3,0,2.6,0.3,3.6,1c1,0.6,1.9,1.6,2.3,2.9s0.6,2.6,0.6,4.5l0,0c0,1.6-0.3,3.2-1,4.5c-0.6,1.3-1.6,2.3-2.6,2.9
			c-1,0.6-2.6,1-4.2,1C174.2,341,173.3,341,172,340.4z M179.1,336.5c0.6-0.6,1-1.9,1-3.2l0,0c0-1.6-0.3-2.6-1-3.6
			c-0.6-1-1.6-1.3-2.9-1.3c-1.3,0-1.9,0.3-2.6,1.3c-0.6,1-1,1.9-1,3.6l0,0c0,1.3,0.3,2.6,1,3.2c0.6,0.6,1.6,1,2.9,1
			C177.5,337.5,178.5,337.2,179.1,336.5z"/>
		<path d="M203.1,340.4c-1.3-0.6-2.3-1.6-2.9-2.9c-0.6-1.3-1-2.9-1-4.5v-3.2c0-1.9,0.3-3.2,1-4.5c0.6-1.3,1.6-2.3,2.9-2.9
			c1.3-0.6,2.9-1,4.5-1c1,0,1.9,0,2.9,0.3c1,0.3,1.6,0.6,2.6,1c1,0.3,1.3,1,1.9,1.6l-2.9,2.6c-0.6-0.6-1.3-1-1.9-1.6
			c-0.6-0.6-1.6-0.6-2.3-0.6c-1.6,0-2.6,0.3-3.6,1.3c-1,1-1.3,1.9-1.3,3.6v3.2c0,1.6,0.3,2.9,1.3,3.6s1.9,1.3,3.6,1.3
			c1,0,1.6-0.3,2.3-0.6c0.6-0.3,1.3-1,1.9-1.6l2.9,2.6c-0.6,0.6-1,1.3-1.9,1.6c-1,0.3-1.6,1-2.6,1c-1,0-1.9,0.3-2.9,0.3
			C205.7,341.4,204.4,341,203.1,340.4z"/>
		<path d="M218.9,321.3h3.9V341h-3.9V321.3z M230.9,329.1c0-1.3-0.3-2.6-1-3.2c-0.6-0.6-1.6-1.3-2.9-1.3c-1.3,0-2.3,0.3-2.9,1
			s-1,1.6-1,2.9l-0.3-3.9c0.6-1.3,1.3-2.3,2.3-2.6c1-0.3,1.9-1,3.2-1c1.3,0,2.6,0.3,3.6,1s1.6,1.6,2.3,2.6c0.6,1,0.6,2.6,0.6,4.2v12
			h-3.9L230.9,329.1L230.9,329.1z M242.6,329.1c0-1.3-0.3-2.6-1-3.2c-0.6-0.6-1.6-1.3-2.9-1.3s-2.3,0.3-2.9,1s-1,1.6-1,3.2l-0.6-3.9
			c0.6-1.3,1.3-2.3,2.6-2.9s2.3-1,3.2-1c1.3,0,2.6,0.3,3.6,1c1,0.6,1.6,1.6,2.3,2.6c0.6,1,0.6,2.6,0.6,4.2v12h-3.9
			C242.6,340.7,242.6,329.1,242.6,329.1z"/>
	</g>
</g>
<g>
	<g>
		<line class="st3" x1="35" y1="306.1" x2="380.6" y2="306.1"/>
		<g>
			<polygon class="st4" points="25.9,306.1 38.9,311.2 35.6,306.1 38.9,300.9 			"/>
		</g>
		<g>
			<polygon class="st4" points="389.6,306.1 376.7,311.2 379.9,306.1 376.7,300.9 			"/>
		</g>
	</g>
</g>
<g>
	<g>
		<path d="M84.5,270.4c-1.3-0.6-1.9-1.6-2.6-2.9s-1-2.6-1-4.5l0,0c0-1,0-1.9,0.3-3.2c0.3-1.3,0.6-2.3,1-3.2c0-0.3,0-0.3,0.3-0.6
			c0.3-0.3,0.3-0.3,0.3-0.6l6.2-12h4.2l-7.1,13.6v-0.6c0.3-0.6,0.6-1,1.3-1.3c0.6-0.3,1.3-0.6,2.3-0.6c1.3,0,2.6,0.3,3.6,1
			c1,0.6,1.9,1.6,2.3,2.9s0.6,2.6,0.6,4.5l0,0c0,1.6-0.3,3.2-1,4.5c-0.6,1.3-1.6,2.3-2.6,2.9s-2.6,1-4.2,1
			C86.8,271.1,85.5,271.1,84.5,270.4z M91.3,266.6c0.6-0.6,1-1.9,1-3.2l0,0c0-1.6-0.3-2.6-1-3.6s-1.6-1.3-2.9-1.3
			c-1.3,0-1.9,0.3-2.6,1.3c-0.6,1-1,1.9-1,3.6l0,0c0,1.3,0.3,2.6,1,3.2c0.6,0.6,1.6,1,2.9,1C89.7,267.8,90.7,267.5,91.3,266.6z"/>
		<path d="M108.2,271.1h-3.9v-23.3l-3.9,2.6v-3.9l3.9-2.6h3.9C108.2,243.9,108.2,271.1,108.2,271.1z"/>
		<path d="M114.7,253.3c-1-1-1.3-2.3-1.3-4.2c0-1.9,0.3-3.2,1.3-4.2c1-1,2.3-1.6,4.2-1.6s3.2,0.6,4.2,1.6s1.3,2.3,1.3,4.2
			c0,1.9-0.6,3.2-1.6,4.2s-2.3,1.6-4.2,1.6C116.9,254.6,115.6,254.2,114.7,253.3z M120.5,251c0.3-0.3,0.6-1,0.6-1.9
			c0-1-0.3-1.6-0.6-1.9s-1-0.6-1.6-0.6c-0.6,0-1.3,0.3-1.6,0.6c-0.3,0.3-0.6,1-0.6,1.9s0.3,1.6,0.6,1.9s1,0.6,1.6,0.6
			C119.5,251.7,119.8,251.3,120.5,251z"/>
	</g>
</g>
<g>
	<g>
		<path d="M287.3,264l9.4-20.1h3.9l-9.1,19.8h13.6v3.6h-17.8C287.3,267.2,287.3,264,287.3,264z M299.3,255.2h3.9v16.2h-3.9V255.2z"
			/>
		<path d="M312.9,270.8c-1.3-0.6-2.3-1.3-2.9-2.6s-1.3-2.3-1.3-3.9h3.9c0,0.6,0.3,1.3,0.6,1.9c0.3,0.6,1,1,1.6,1s1.3,0.3,2.3,0.3
			c1.3,0,2.3-0.3,2.9-1s1-1.6,1-2.9v-0.3c0-1.3-0.3-2.6-1-3.2c-0.6-0.6-1.6-1-2.9-1h-1.9v-3.6h1.9c1,0,1.9-0.3,2.6-1s1-1.6,1-2.6v-1
			c0-1-0.3-1.9-1-2.6s-1.6-1-2.6-1c-0.6,0-1.3,0-1.6,0.3c-0.3,0.3-1,0.6-1.3,1.3c-0.3,0.6-0.6,1.3-0.6,1.9h-3.9
			c0.3-1.6,0.6-2.9,1.3-3.9c0.6-1,1.6-1.9,2.6-2.6c1-0.6,2.3-1,3.6-1c2.3,0,4.2,0.6,5.5,1.9c1.3,1.3,1.9,2.9,1.9,5.2v0.3
			c0,1.3-0.3,2.6-1,3.6s-1.9,1.6-3.2,2.3c1.6,0.3,2.6,1,3.6,2.3c1,1.3,1.3,2.6,1.3,4.5v0.3c0,1.6-0.3,2.9-1,4.2s-1.6,1.9-2.6,2.6
			c-1,0.6-2.6,1-4.2,1C315.5,271.7,314.2,271.4,312.9,270.8z"/>
		<path d="M330.7,253.3c-1-1-1.3-2.3-1.3-4.2c0-1.9,0.3-3.2,1.3-4.2s2.3-1.6,4.2-1.6c1.9,0,3.2,0.6,4.2,1.6s1.3,2.3,1.3,4.2
			c0,1.9-0.6,3.2-1.6,4.2c-1,1-2.3,1.6-4.2,1.6C332.9,254.9,331.6,254.2,330.7,253.3z M336.5,251.3c0.3-0.3,0.6-1,0.6-1.9
			c0-1-0.3-1.6-0.6-1.9c-0.3-0.3-1-0.6-1.6-0.6s-1.3,0.3-1.6,0.6c-0.3,0.3-0.6,1-0.6,1.9c0,1,0.3,1.6,0.6,1.9c0.3,0.3,1,0.6,1.6,0.6
			C335.5,252,335.9,251.7,336.5,251.3z"/>
	</g>
</g>
</svg>
