<svg height="500" version="1.1" width="500" xmlns="http://www.w3.org/2000/svg" xmlns:xlink="http://www.w3.org/1999/xlink" style="overflow: hidden; position: relative; top: -0.75px;">
<desc>Created with Raphaël 2.3.0</desc>
<defs>
</defs>
<ellipse cx="250" cy="250" rx="244" ry="244" fill="none" stroke="#000000" style="stroke-linecap: round; stroke-linejoin: round;" stroke-width="6" stroke-linecap="round" stroke-linejoin="round" stroke-dasharray="none">
</ellipse>
<path style="stroke-linecap: round; stroke-linejoin: round;" fill="#80ff00" stroke="#000000" d="M494,250A244,244,0,0,1,422.534,422.534L250,250Z" stroke-width="6" stroke-linecap="round" stroke-linejoin="round" stroke-dasharray="none">
</path>
<path style="stroke-linecap: round; stroke-linejoin: round;" fill="#80ff00" stroke="#000000" d="M422.534,422.534A244,244,0,0,1,250,494L250,250Z" stroke-width="6" stroke-linecap="round" stroke-linejoin="round" stroke-dasharray="none">
</path>
<path style="stroke-linecap: round; stroke-linejoin: round;" fill="#80ff00" stroke="#000000" d="M250,494A244,244,0,0,1,77.466,422.534L250,250Z" stroke-width="6" stroke-linecap="round" stroke-linejoin="round" stroke-dasharray="none">
</path>
<path style="stroke-linecap: round; stroke-linejoin: round;" fill="#80ff00" stroke="#000000" d="M77.466,422.534A244,244,0,0,1,6,250L250,250Z" stroke-width="6" stroke-linecap="round" stroke-linejoin="round" stroke-dasharray="none">
</path>
<path style="stroke-linecap: round; stroke-linejoin: round;" fill="#80ff00" stroke="#000000" d="M6,250A244,244,0,0,1,77.466,77.466L250,250Z" stroke-width="6" stroke-linecap="round" stroke-linejoin="round" stroke-dasharray="none">
</path>
<path style="stroke-linecap: round; stroke-linejoin: round;" fill="none" stroke="#000000" d="M77.466,77.466A244,244,0,0,1,250,6L250,250Z" stroke-width="6" stroke-linecap="round" stroke-linejoin="round" stroke-dasharray="none">
</path>
<path style="stroke-linecap: round; stroke-linejoin: round;" fill="none" stroke="#000000" d="M250,6A244,244,0,0,1,422.534,77.466L250,250Z" stroke-width="6" stroke-linecap="round" stroke-linejoin="round" stroke-dasharray="none">
</path>
<path style="stroke-linecap: round; stroke-linejoin: round;" fill="none" stroke="#000000" d="M422.534,77.466A244,244,0,0,1,494,250L250,250Z" stroke-width="6" stroke-linecap="round" stroke-linejoin="round" stroke-dasharray="none">
</path>
</svg>