<?xml version="1.0" encoding="utf-8"?>
<!-- Generator: Adobe Illustrator 28.0.0, SVG Export Plug-In . SVG Version: 6.00 Build 0)  -->
<svg version="1.1" id="Calque_1" xmlns="http://www.w3.org/2000/svg" xmlns:xlink="http://www.w3.org/1999/xlink" x="0px" y="0px"
	 viewBox="0 0 27 33" style="enable-background:new 0 0 27 33;" xml:space="preserve">
<path fill="#295497" d="M3.5,0C1.6,0,0.1,1.5,0.1,3.4v26.2c0,1.9,1.5,3.4,3.4,3.4h20c1.9,0,3.4-1.5,3.4-3.4V8.1c0-0.4-0.1-0.9-0.2-1.2c-0.2-0.4-0.4-0.7-0.7-1l0,0l-5-4.9l0,0c-0.3-0.3-0.7-0.5-1.1-0.7C19.5,0.1,19,0,18.5,0L3.5,0L3.5,0z"/>
<path fill="#F5F5F5" d="M3.5,1.1h15c0.4,0,0.7,0.1,1,0.2c0.3,0.1,0.5,0.3,0.7,0.5l0,0l5,4.9c0.2,0.2,0.3,0.4,0.4,0.6c0.1,0.2,0.1,0.5,0.1,0.7c0,0,0,0,0,0v21.6c0,1.3-1,2.3-2.3,2.3c0,0,0,0,0,0h-20c-1.3,0-2.3-1-2.3-2.3c0,0,0,0,0,0V3.4C1.2,2.2,2.2,1.1,3.5,1.1C3.5,1.1,3.5,1.1,3.5,1.1z"/>
<path fill="#295497" d="M18.7,13.8v2.2H8.3v-2.2h-2v4.2h14.4v-4.2H18.7z M13.5,15l4-6.9h-2V4.9h-4v3.2h-2L13.5,15z"/>
<path fill="#2C2C2C" d="M6.4,23h1.3c1.3,0,1.8,0.9,1.8,2.5c0,1.8-0.5,2.7-1.9,2.7H6.4V23z M7.3,27.6h0.4c0.8,0,1.1-0.6,1.1-2c0-1.3-0.3-1.8-1.1-1.8H7.3V27.6z"/>
<path fill="#2C2C2C" d="M13.4,25.6c0,1.9-0.5,2.7-1.7,2.7c-1.1,0-1.6-0.9-1.6-2.7c0-1.8,0.6-2.6,1.7-2.6C12.9,23,13.4,23.8,13.4,25.6z M11,25.6c0,1.3,0.2,2.1,0.8,2.1c0.6,0,0.8-0.7,0.8-2.1c0-1.3-0.2-1.9-0.8-1.9C11.2,23.7,11,24.3,11,25.6z"/>
<path fill="#2C2C2C" d="M17.1,26.8c0,0.3-0.1,1.6-1.5,1.6c-1.5,0-1.6-1.4-1.6-2.7c0-1.6,0.5-2.7,1.7-2.7c1.3,0,1.4,1.2,1.5,1.6h-0.8c0-0.2,0-0.9-0.7-0.9c-0.7,0-0.8,0.9-0.8,2c0,1,0.1,2,0.8,2c0.6,0,0.7-0.7,0.7-0.9H17.1z"/>
<path fill="#2C2C2C" d="M19.8,28.3l-0.8-2h0l-0.9,2h-0.9l1.3-2.7L17.3,23h0.9l0.8,1.8l0,0l0.8-1.8h0.9l-1.2,2.5l1.3,2.8H19.8z"/>
</svg>
