<?xml version="1.0" encoding="UTF-8"?>
<svg id="a" data-name="Calque 1" xmlns="http://www.w3.org/2000/svg" viewBox="0 0 283.96 134.66">
  <polygon points="24.04 109.34 260.97 111.04 104.72 28.66 24.04 109.34" style="fill: none; stroke: #1d1d1b; stroke-linecap: round; stroke-linejoin: round; stroke-width: 2.83px;"/>
  <text transform="translate(95.77 24.24)" style="fill: #1d1d1b; font-family: Bahnschrift, Bahnschrift; font-size: 28.35px; font-variation-settings: &apos;wght&apos; 400, &apos;wdth&apos; 100;"><tspan x="0" y="0">A</tspan></text>
  <text transform="translate(0 126.99)" style="fill: #1d1d1b; font-family: Bahnschrift, Bahnschrift; font-size: 28.35px; font-variation-settings: &apos;wght&apos; 400, &apos;wdth&apos; 100;"><tspan x="0" y="0">B</tspan></text>
  <text transform="translate(266.42 126.99)" style="fill: #1d1d1b; font-family: Bahnschrift, Bahnschrift; font-size: 28.35px; font-variation-settings: &apos;wght&apos; 400, &apos;wdth&apos; 100;"><tspan x="0" y="0">C</tspan></text>
  <path d="m56.04,109.34c0-8.84-3.58-16.84-9.37-22.63l-22.63,22.63h32Z" style="fill: #95c11f; stroke: #1d1d1b; stroke-miterlimit: 10; stroke-width: 1.7px;"/>
  <path d="m130.32,42.16c-4.85,9.18-14.5,15.44-25.6,15.44-7.99,0-15.22-3.24-20.46-8.48l20.46-20.46,25.6,13.5Z" style="fill: #f9b233; stroke: #1d1d1b; stroke-miterlimit: 10; stroke-width: 1.7px;"/>
  <path d="m229.53,111.04c0-5.3,1.31-10.29,3.62-14.67l27.82,14.67h-31.45Z" style="fill: #36a9e1; stroke: #1d1d1b; stroke-miterlimit: 10; stroke-width: 1.7px;"/>
</svg>