<?xml version="1.0" encoding="UTF-8"?>
<svg id="Calque_1" data-name="Calque 1" xmlns="http://www.w3.org/2000/svg" viewBox="0 0 205.94 206.47">
  <line y1="27.33" x2="205.94" y2="27.33" style="fill: none; stroke: #ff1900; stroke-miterlimit: 10;"/>
  <line y1="174.13" x2="205.94" y2="174.13" style="fill: none; stroke: #ff1900; stroke-miterlimit: 10;"/>
  <line x1="30.64" y1="205.48" x2="151.78" y2=".25" style="fill: none; stroke: #ff1900; stroke-miterlimit: 10;"/>
  <line x1="45.61" y1="7.38" x2="178.86" y2="206.19" style="fill: none; stroke: #ff1900; stroke-miterlimit: 10;"/>
  <polygon points="58.98 27.33 135.8 27.33 99.82 88.27 157.37 174.13 49.15 174.13 99.82 88.27 58.98 27.33" style="fill: none; stroke: #70b; stroke-miterlimit: 10;"/>
  <path d="m45.34,21.51l-.98,2.97h-1.26l3.21-9.44h1.47l3.22,9.44h-1.3l-1.01-2.97h-3.35Zm3.1-.95l-.92-2.72c-.21-.62-.35-1.18-.49-1.72h-.03c-.14.56-.29,1.13-.48,1.71l-.92,2.73h2.84Z"/>
  <path d="m146.42,15.17c.74-.11,1.62-.2,2.59-.2,1.75,0,3,.41,3.82,1.18.84.77,1.33,1.86,1.33,3.39s-.48,2.8-1.36,3.67c-.88.88-2.34,1.36-4.17,1.36-.87,0-1.6-.04-2.21-.11v-9.29Zm1.22,8.35c.31.06.76.07,1.23.07,2.6,0,4.02-1.46,4.02-4.01.01-2.23-1.25-3.64-3.82-3.64-.63,0-1.11.06-1.43.13v7.45Z"/>
  <path d="m90.91,90.32h-3.67v3.4h4.09v1.02h-5.31v-9.44h5.1v1.02h-3.88v2.98h3.67v1.01Z"/>
  <path d="m48.23,170.34c-.45.22-1.34.45-2.49.45-2.66,0-4.66-1.68-4.66-4.78s2-4.96,4.93-4.96c1.18,0,1.92.25,2.24.42l-.29.99c-.46-.22-1.12-.39-1.9-.39-2.21,0-3.68,1.41-3.68,3.89,0,2.31,1.33,3.8,3.63,3.8.74,0,1.5-.15,1.99-.39l.25.97Z"/>
  <path d="m160.51,161.34c.53-.11,1.37-.2,2.23-.2,1.22,0,2,.21,2.59.69.49.36.79.92.79,1.67,0,.91-.6,1.71-1.6,2.07v.03c.9.22,1.95.97,1.95,2.37,0,.81-.32,1.43-.8,1.89-.66.6-1.72.88-3.26.88-.84,0-1.49-.06-1.89-.11v-9.29Zm1.22,3.87h1.11c1.29,0,2.04-.67,2.04-1.58,0-1.11-.84-1.54-2.07-1.54-.56,0-.88.04-1.08.08v3.04Zm0,4.52c.24.04.59.06,1.02.06,1.26,0,2.42-.46,2.42-1.83,0-1.29-1.11-1.82-2.44-1.82h-1.01v3.6Z"/>
  <g>
    <path d="m82.99,23.07c.35.22,1.16.57,2.02.57,1.58,0,2.07-1.01,2.06-1.77-.01-1.27-1.16-1.82-2.35-1.82h-.69v-.92h.69c.9,0,2.03-.46,2.03-1.54,0-.73-.46-1.37-1.6-1.37-.73,0-1.43.32-1.82.6l-.32-.9c.48-.35,1.4-.7,2.38-.7,1.79,0,2.61,1.06,2.61,2.17,0,.94-.56,1.74-1.68,2.14v.03c1.12.22,2.03,1.06,2.03,2.34,0,1.46-1.13,2.73-3.32,2.73-1.02,0-1.92-.32-2.37-.62l.34-.95Z"/>
    <path d="m89.47,26.21c.31-.83.69-2.33.84-3.35l1.37-.14c-.32,1.19-.94,2.75-1.33,3.4l-.88.08Z"/>
    <path d="m98.21,16.41h-3.47l-.35,2.34c.21-.03.41-.06.74-.06.7,0,1.4.15,1.96.49.71.41,1.3,1.19,1.3,2.34,0,1.78-1.42,3.11-3.39,3.11-.99,0-1.83-.28-2.27-.56l.31-.94c.38.22,1.12.5,1.95.5,1.16,0,2.16-.76,2.16-1.98-.01-1.18-.8-2.02-2.62-2.02-.52,0-.92.06-1.26.1l.59-4.37h4.36v1.04Z"/>
    <path d="m105.18,24.23c-.32.17-1.04.39-1.95.39-2.05,0-3.38-1.39-3.38-3.46s1.43-3.6,3.64-3.6c.73,0,1.37.18,1.71.35l-.28.95c-.29-.17-.76-.32-1.43-.32-1.55,0-2.4,1.15-2.4,2.56,0,1.57,1.01,2.54,2.35,2.54.7,0,1.16-.18,1.51-.34l.21.92Z"/>
    <path d="m106.62,19.54c0-.7-.01-1.27-.06-1.83h1.08l.06,1.09h.04c.38-.64,1.01-1.25,2.13-1.25.92,0,1.62.56,1.92,1.36h.03c.21-.38.48-.67.76-.88.41-.31.85-.48,1.5-.48.9,0,2.23.59,2.23,2.94v3.99h-1.2v-3.84c0-1.3-.48-2.09-1.47-2.09-.7,0-1.25.52-1.46,1.12-.06.17-.1.39-.1.62v4.19h-1.21v-4.06c0-1.08-.48-1.86-1.41-1.86-.77,0-1.33.62-1.53,1.23-.07.18-.1.39-.1.6v4.09h-1.2v-4.94Z"/>
  </g>
  <g>
    <path d="m124.44,68.56l-2.14-1.26-2.14,3.65-.7-.41-2.95-6.45.67-1.15,4.88,2.87.65-1.1.83.49-.65,1.1,2.14,1.26-.59,1Zm-2.97-1.75l-2.62-1.54c-.41-.24-.82-.5-1.21-.76l-.02.04c.32.51.54.9.78,1.33l1.54,3.49h.02s1.51-2.56,1.51-2.56Z"/>
    <path d="m130.08,58.46c-.02.36-.19,1.09-.65,1.88-1.04,1.76-2.91,2.21-4.69,1.16-1.8-1.06-2.38-3.06-1.26-4.96.37-.63.85-1.09,1.17-1.3l.68.72c-.29.17-.66.49-1,1.07-.79,1.34-.22,2.65,1,3.36,1.35.79,2.7.42,3.38-.74.35-.6.43-1.09.48-1.47l.9.29Z"/>
    <path d="m126.76,54.84c-.6-.36-1.11-.63-1.61-.88l.55-.93.97.51.02-.04c-.36-.65-.56-1.5,0-2.47.47-.8,1.31-1.12,2.14-.97v-.02c-.21-.37-.32-.75-.36-1.1-.06-.51.02-.98.35-1.53.45-.77,1.64-1.62,3.66-.43l3.44,2.02-.61,1.04-3.31-1.94c-1.12-.66-2.04-.65-2.54.21-.35.6-.19,1.34.23,1.82.12.13.29.28.48.4l3.61,2.12-.61,1.04-3.5-2.06c-.93-.55-1.85-.53-2.32.28-.39.66-.14,1.46.29,1.94.12.15.29.28.47.39l3.53,2.07-.61,1.04-4.26-2.5Z"/>
  </g>
  <g>
    <path d="m73.8,140.14l-1.76,3,1.84,1.49c.08-.19.16-.38.33-.67.35-.6.84-1.13,1.42-1.44.71-.41,1.69-.52,2.68.06,1.53.9,1.96,2.79.96,4.5-.5.86-1.17,1.44-1.63,1.67l-.65-.74c.38-.21,1-.71,1.42-1.42.59-1,.44-2.24-.61-2.86-1.02-.58-2.14-.33-3.07,1.24-.26.45-.42.83-.55,1.14l-3.47-2.72,2.21-3.76.89.52Z"/>
    <path d="m85.57,135.53c-.02.36-.19,1.09-.65,1.88-1.04,1.76-2.91,2.21-4.69,1.16-1.8-1.06-2.38-3.06-1.26-4.96.37-.63.85-1.09,1.17-1.3l.68.72c-.29.17-.66.49-1,1.07-.79,1.34-.22,2.65,1,3.36,1.35.79,2.7.41,3.38-.75.35-.6.43-1.09.48-1.47l.9.29Z"/>
    <path d="m82.25,131.91c-.6-.36-1.11-.63-1.61-.88l.55-.93.97.5.02-.04c-.36-.65-.56-1.5,0-2.47.47-.8,1.31-1.12,2.14-.97v-.02c-.21-.37-.32-.75-.36-1.1-.06-.51.02-.98.35-1.53.45-.77,1.64-1.62,3.66-.43l3.44,2.02-.61,1.04-3.31-1.94c-1.12-.66-2.04-.65-2.54.21-.35.6-.19,1.34.23,1.82.12.13.29.28.48.4l3.61,2.12-.61,1.04-3.5-2.06c-.93-.55-1.85-.53-2.32.28-.39.66-.14,1.46.29,1.94.12.15.29.28.47.39l3.53,2.07-.61,1.04-4.26-2.5Z"/>
  </g>
  <path d="m102.39,183.97l-.03-.36c-.08-.76.17-1.58.87-2.42.63-.74.98-1.29.98-1.92,0-.71-.45-1.19-1.33-1.21-.5,0-1.06.17-1.41.43l-.34-.88c.46-.34,1.26-.56,2-.56,1.61,0,2.34.99,2.34,2.06,0,.95-.53,1.64-1.2,2.44-.62.73-.84,1.34-.8,2.06v.36s-1.08,0-1.08,0Zm-.31,1.96c0-.52.35-.88.84-.88s.83.36.83.88c0,.49-.32.87-.84.87-.49,0-.83-.38-.83-.87Z"/>
</svg>