<?xml version="1.0" encoding="UTF-8"?>
<svg id="Calque_1" data-name="Calque 1" xmlns="http://www.w3.org/2000/svg" viewBox="0 0 242.4 197.71">
  <polygon points="141.33 14.26 11.33 165.26 226.33 195.26 141.33 14.26" style="fill: none; stroke: #00da26; stroke-miterlimit: 10;"/>
  <line x1="27.33" y1="89.26" x2="242.33" y2="119.26" style="fill: #fff; stroke: red; stroke-miterlimit: 10;"/>
  <line x1="11.33" y1="165.26" x2="226.33" y2="195.26" style="fill: #fff; stroke: red; stroke-miterlimit: 10;"/>
  <text transform="translate(139.3 10.04)" style="font-family: MyriadPro-Regular, &apos;Myriad Pro&apos;; font-size: 12px;"><tspan x="0" y="0">A</tspan></text>
  <path d="m0,157.33c.46-.1,1.18-.17,1.91-.17,1.04,0,1.72.18,2.22.59.42.31.67.79.67,1.43,0,.78-.52,1.46-1.37,1.78v.02c.77.19,1.67.83,1.67,2.03,0,.7-.28,1.22-.68,1.62-.56.52-1.48.76-2.79.76-.72,0-1.27-.05-1.62-.1v-7.95Zm1.04,3.31h.95c1.1,0,1.75-.58,1.75-1.36,0-.95-.72-1.32-1.77-1.32-.48,0-.76.04-.92.07v2.6Zm0,3.87c.2.04.5.05.88.05,1.08,0,2.07-.4,2.07-1.57,0-1.1-.95-1.56-2.09-1.56h-.86v3.08Z"/>
  <path d="m240.69,197.32c-.38.19-1.15.38-2.13.38-2.28,0-3.99-1.44-3.99-4.09s1.71-4.25,4.22-4.25c1.01,0,1.64.22,1.92.36l-.25.85c-.4-.19-.96-.34-1.63-.34-1.89,0-3.15,1.21-3.15,3.33,0,1.98,1.14,3.25,3.11,3.25.64,0,1.28-.13,1.7-.34l.22.83Z"/>
  <path d="m71.13,85.92c-.06-1.13-.13-2.48-.12-3.49h-.04c-.28.95-.61,1.96-1.02,3.07l-1.43,3.92h-.79l-1.31-3.85c-.38-1.14-.71-2.18-.94-3.14h-.02c-.02,1.01-.08,2.36-.16,3.57l-.22,3.47h-1l.56-8.08h1.33l1.38,3.91c.34,1,.61,1.88.82,2.72h.04c.2-.82.49-1.7.85-2.72l1.44-3.91h1.33l.5,8.08h-1.02l-.2-3.55Z"/>
  <path d="m192.3,108.23v-8.08h1.14l2.59,4.09c.6.95,1.07,1.8,1.45,2.63h.02c-.1-1.09-.12-2.07-.12-3.33v-3.38h.98v8.08h-1.06l-2.57-4.1c-.56-.9-1.1-1.82-1.51-2.7h-.04c.06,1.03.08,2,.08,3.35v3.45h-.98Z"/>
  <g>
    <path d="m109.26,113.17c-6.16,8.75-7.36,23.56,3.57,25.58,7.93,1.47,18.49,3.11,31,5,13.36,2.02,3.78,17.81-4.07,26.94" style="fill: none; stroke: #000; stroke-miterlimit: 10;"/>
    <polygon points="114.33 108.26 104.46 112.52 109.02 113.68 110.27 118.21 114.33 108.26"/>
    <polygon points="134.83 175.76 138.72 165.74 140.05 170.25 144.62 171.33 134.83 175.76"/>
  </g>
  <ellipse cx="128.83" cy="141.76" rx="38" ry="9" style="fill: #fff;"/>
  <g>
    <path d="m101.03,136.8c-.88,1.17-1.51,2.73-1.51,4.91s.66,3.67,1.51,4.87h-.83c-.76-1-1.57-2.53-1.57-4.87.01-2.36.82-3.9,1.57-4.91h.83Z"/>
    <path d="m109,141.58c-.06-1.13-.13-2.48-.12-3.49h-.04c-.28.95-.61,1.96-1.02,3.07l-1.43,3.92h-.79l-1.31-3.85c-.38-1.14-.71-2.18-.94-3.14h-.02c-.02,1.01-.08,2.36-.16,3.57l-.22,3.47h-1l.56-8.08h1.33l1.38,3.91c.34,1,.61,1.88.82,2.72h.04c.2-.82.49-1.7.85-2.72l1.44-3.91h1.33l.5,8.08h-1.02l-.2-3.55Z"/>
    <path d="m111.83,145.12v-8.08h1.14l2.59,4.09c.6.95,1.07,1.8,1.45,2.63h.02c-.1-1.09-.12-2.08-.12-3.33v-3.38h.98v8.08h-1.06l-2.57-4.1c-.56-.9-1.1-1.82-1.51-2.7h-.04c.06,1.03.08,2,.08,3.35v3.45h-.98Z"/>
    <path d="m119.05,146.58c.85-1.19,1.51-2.75,1.51-4.91s-.65-3.68-1.51-4.87h.82c.77.98,1.57,2.52,1.57,4.88s-.8,3.87-1.57,4.89h-.82Z"/>
    <path d="m124.75,145.6l3.35-8.69h.82l-3.36,8.69h-.8Z"/>
    <path d="m128.87,145.6l3.35-8.69h.82l-3.36,8.69h-.8Z"/>
    <path d="m138.71,136.8c-.88,1.17-1.51,2.73-1.51,4.91s.66,3.67,1.51,4.87h-.83c-.76-1-1.57-2.53-1.57-4.87.01-2.36.82-3.9,1.57-4.91h.83Z"/>
    <path d="m139.86,137.15c.46-.1,1.18-.17,1.91-.17,1.04,0,1.71.18,2.22.59.42.31.67.79.67,1.43,0,.78-.52,1.46-1.37,1.78v.02c.77.19,1.67.83,1.67,2.03,0,.7-.28,1.22-.68,1.62-.56.52-1.48.76-2.79.76-.72,0-1.27-.05-1.62-.1v-7.95Zm1.04,3.31h.95c1.1,0,1.75-.58,1.75-1.36,0-.95-.72-1.32-1.78-1.32-.48,0-.75.04-.92.07v2.6Zm0,3.87c.2.04.5.05.88.05,1.08,0,2.08-.4,2.08-1.57,0-1.1-.95-1.56-2.09-1.56h-.86v3.08Z"/>
    <path d="m152.02,144.86c-.38.19-1.15.38-2.13.38-2.28,0-3.99-1.44-3.99-4.09s1.71-4.25,4.22-4.25c1.01,0,1.64.21,1.92.36l-.25.85c-.4-.19-.96-.34-1.63-.34-1.89,0-3.15,1.21-3.15,3.33,0,1.98,1.14,3.25,3.11,3.25.64,0,1.28-.13,1.7-.34l.22.83Z"/>
    <path d="m152.86,146.58c.85-1.19,1.51-2.75,1.51-4.91s-.65-3.68-1.51-4.87h.82c.77.98,1.57,2.52,1.57,4.88s-.8,3.87-1.57,4.89h-.82Z"/>
  </g>
</svg>