<?xml version="1.0" encoding="utf-8"?>
<!-- Generator: Adobe Illustrator 28.0.0, SVG Export Plug-In . SVG Version: 6.00 Build 0)  -->
<svg version="1.1" id="Calque_1" xmlns="http://www.w3.org/2000/svg" xmlns:xlink="http://www.w3.org/1999/xlink" x="0px" y="0px"
	 viewBox="0 0 1208.3 119" style="enable-background:new 0 0 1208.3 119;" xml:space="preserve">
<style type="text/css">
	.st0{fill:#39271C;}
	.st1{fill:#D7C8C2;}
	.st2{fill:#F7A900;}
	.st3{fill:#F9C044;}
	.st4{fill:#FED36F;}
	.st5{fill:#FFFFFF;}
	.st6{fill:#FFFFFF;stroke:#FFFFFF;stroke-width:2.8346;stroke-linecap:round;stroke-linejoin:round;stroke-miterlimit:10;}
	.st7{fill:none;stroke:#1D1D1B;stroke-width:2;stroke-miterlimit:10;}
	.st8{fill:#1D1D1B;}
	.st9{fill:none;stroke:#E30613;stroke-width:2;stroke-miterlimit:10;}
	.st10{enable-background:new    ;}
	.st11{fill:#E30613;}
	.st12{fill:#FF0000;stroke:#FF0000;stroke-width:2.8346;stroke-linecap:round;stroke-miterlimit:10;}
	.st13{fill:#FF0000;}
	.st14{fill:#FFFFFF;stroke:#FFFFFF;stroke-width:2.8346;stroke-miterlimit:10;}
</style>
<g id="Calque_2_00000173156653864360218420000006304761385183519388_">
	<g>
		<g>
			<g>
				<path class="st0" d="M45,46.5c-9.4-2-18.5-4.3-26.2-8.2c-5.1-2.5-8.5-5.7-10.4-9.5c0-1.8,0-3.6,0-5.4c0.2-0.1,0.6-0.1,0.6-0.2
					c4.9-7.7,14.9-11.1,27.9-12c5.9-0.4,11.6-1.2,16.8-3.2c3.2-1.3,6.9-1.6,10.8-1.7c5.6-0.2,10.5,2.1,16.2,1.2
					C82.8,7.1,85,7,87.1,6.3c4.2-1.3,8.6-1.8,13.3-1.2c14.2,2,28.2,2.7,42.2-0.6c2.6-0.6,5.7-0.8,8.4-0.1c5,1.4,9.9,1.2,14.7-0.2
					c6.6-1.9,13.8-1.9,20.7-1.2c10.7,1,21.1,0.7,31.3-1c6.2-1,12.4-1.6,18.6-0.3c3,0.6,6.1,1.2,9.4,0.6c3.7-0.7,7.6-0.6,11.3-0.4
					c5.9,0.2,11.1-1.3,16.7-2h10.6c1.5,1,3.5,0.5,5.3,0.7c17.8,2.3,35.7,2.6,53.7,0.4c3-0.4,6.1-1,9.3-0.4
					c7.6,1.4,15.2,1.9,23.1,1.3c2.4-0.2,5.2,0.6,7.2,0.1c10.8-2.7,21.1-1.5,31.6,0.7c16,3.4,32.3,5.2,49.3,4.6
					c3.4-0.1,6.8-0.1,10.2,0c18,0.3,28.5,4.8,34.3,14.7v6.4c-2,2.8-3.1,5.9-5.8,8.6c-4,4.1-9.6,7.2-16.5,9.4c-1.1,0.3-2,0.8-3,1.2
					c-5.2,0.8-9.4,2.9-15,3.4c-6.4,0.5-12.6,2-19.1,2.5c-14.7,1.2-29.4,2-44.1,2.3c-3.6,0.1-7.3-0.2-10.9,0.5c-1.4,0-2.7,0-4.1,0
					c-0.8,0-1.7,0-2.5,0c-1.3,0-2.7,0-4,0c-3.1,0-6.2-0.1-9.4-0.1c-44.6,0.7-89.2,0.6-133.8,0.6c-7.6,0-15.2,0-22.8,0
					c-0.2-0.1-0.4-0.1-0.7,0c-1.1,0-2.3,0-3.4,0c-7.4,0-14.7,0-22.1-0.1c-15.2-0.8-30.5-0.3-45.7-0.9c-0.2-0.1-0.5-0.1-0.7,0
					c-1.7,0-3.3,0-5,0c-1.1,0-2.2,0-3.2,0c-1.6-0.5-3.4-0.4-5.2-0.5c-7.5-0.4-15.1-0.4-22.5-1.1c-11.2-1-22.6-0.9-33.7-2.8
					c-3.6-0.6-8-0.5-11.2-1.2C57.7,48.7,51,48.2,45,46.5L45,46.5z M246.9,7.8c-0.6-0.5-1.4-0.7-2.4-0.6l0.1,0
					c-4.8-2-10.2-3.1-15.9-3.3c-8.4-0.2-16.4,2-25.7,1.9c4.6,1.6,8.4,2.8,11.9,4.2c5.2,2.1,10.3,4.4,15.5,6.7l0.1-0.1
					c-0.1,0.4,0.4,0.5,0.9,0.5c4.7,2.6,9.5,5.1,13.9,7.8c3.7,2.2,8.5,3.7,11.5,6.3c-2.3,0-3.5-1.2-5.5-1.5c-0.4-0.2-0.9-0.5-1.3-0.7
					l-0.2-0.1c-3.9-1.6-7.8-3.2-11.4-5c-15.6-7.4-31.3-14.5-51.2-17.4c-3.9-0.6-7.5-1-12.7-0.6c16.1,2.1,29.8,5.7,42,11.2
					c1,0.5,2.6,0.7,2.1,1.8c-17.2-7-36.2-10.5-57-10.7c2.3,1.6,4.9,2.9,7.4,4.3c19.7,10.6,42.7,17.5,68.5,21
					c3.7,0.5,7.7,0.5,11.2,1.5c-13.4,0-26.2-1.8-38.9-4.1c-13-2.9-25.1-6.7-36-11.9c-6.3-3-11.5-6.7-18.2-9.3c-3.1-3-8.1-3-13-2.7
					c-4.8,0.3-9.2,1.8-14.2,1.6c-3.5-0.1-7.1,0-11.3,0c3.1,1.4,5.4,2.3,7.6,3.4c5.1,2.6,10.2,5.4,15.2,8.1c8,4.5,17.2,8,27.1,10.9
					c-5,0.1-9.2-1.5-13.8-2.4c-10-3.3-19.2-7.4-27.7-11.9c-4.3-2.3-8.8-4.6-13.9-6.3c-5.8-2-11.9-3.2-19.1-3
					c0.6,0.3,0.8,0.6,1.1,0.6c13.3,2,24.2,6.3,34,11.8c0.9,0.5,2.4,0.9,1.9,2c-0.9-0.6-2.5-0.2-3.5-0.9c-5.4-3.5-12.6-5.5-19.5-7.6
					c-4.2-1.3-8.6-2.2-13.2-3c-1.6-0.2-3.1-0.1-3.6,0.5c-0.6,0.7,1.1,0.9,2,1.2c8,3.1,15.4,6.6,23.1,10
					c12.1,5.4,24.6,10.2,39.6,12.3c4.5,0.6,9.1,0.3,13.4,1.1c-13,1.2-25.2-1.1-36.9-4c-4.9-1.2-9.8-2.6-14.4-4.4
					c0.2-0.7-0.7-1-1.5-1.3c-5.1-2.1-10.3-4.3-15.4-6.4c-8.1-3.3-16-6.7-25.4-8.6C66.9,9.6,60.2,8.9,54,12.2
					c-7.7,2.7-16.9,2.4-25,4.2c-5.6,1.3-11.9,5.1-12.8,8.8c-1.1,4.7,3.5,7.7,9.1,10.2c12.1,5.4,26.5,7.5,40.9,9.6
					c19.8,2.8,40.1,3.9,60.4,4.9c27.1,1.2,54.4,1.1,81.6,1.3c41.9,0.3,83.8,0.5,125.7,0.1c36-0.3,72.2,1,108.1-2.1
					c5.3-0.5,10.9-0.6,16.2-1.3c11.5-1.5,22.8-3.3,31.9-8.2c8.3-4.4,12.6-10,12-16.8c-0.5-3.8-3.7-6.7-8.9-8.8
					c-6.4-2.6-13.5-3.7-21-3.8c-9.4-0.2-18.7,0.3-28-0.5c-4.9-0.4-9.8-1-14.6-1.5c7,2.9,12.6,6.8,19.2,9.9c2.9,2.3,7.7,3.6,10.1,6.2
					c-3-1.3-6.1-2.5-9.6-3.3c0.1-0.9-1.2-1.2-2.1-1.6c-7-3.1-13.9-6.3-21.1-9.2c-9.8-4-20.2-7.2-32.7-7c0.6,0.6,1.5,0.7,2.4,0.8
					c12.1,2.1,23.1,5.5,33.1,10.1c0.8,0.4,2.7,0.5,1.9,1.7c-8.5-2.2-16.4-5.2-25.2-7.2c-10.9-2.5-22.2-3.9-34.1-3.7
					c3.9,1.4,7.8,2.7,11.7,4.1c0.6,0.3,1.2,0.6,1.8,0.8c0.2,0.1,0.4,0.2,0.7,0.2c1.1,0.4,2.1,0.9,3.2,1.3c7.6,3.4,15.5,6.4,24,8.9
					c3.3,1.2,6.6,2.4,10.4,2.9c5.8,2,12.3,2.7,18.6,3.8c6.9,1.2,14,1.7,21.2,1.5c0.9,0,2.2-0.4,2.8,0.4c-8.4,0.8-16.8,0.7-25.1-0.2
					c-15.9-1.7-30.4-5.4-44.2-10.3c-9.6-3.4-18-8.1-28.6-10.6c-0.2-0.2-0.5-0.4-0.7-0.6v0c-7.5-3.1-15.5-4.6-24.9-3.4
					c-2.5,0.3-4.6,1.4-7.2,1.1c-5-0.5-9.9,0.2-14.9,0c-2.9-0.1-5.8-0.3-8.6,0.8c2,1.3,4.8,1.8,7,2.8c7.9,3.2,15.9,6.5,23.8,9.7l0,0
					c0.6,0.3,1.2,0.5,1.8,0.8c3.7,1.6,7.3,3.2,11,4.8c1,0.4,2.3,0.6,2,1.6c-2,0.3-3.6-0.4-4.8-1c-2.8-1.5-6.1-2.3-9.2-3.3
					c-3.3-1.3-6.5-2.6-9.9-3.8c-12.5-4.6-24.5-9.6-38.4-12.5c-5.7-1.2-11.5-2.3-18.6-1.6c8,0.9,14.8,2.3,21.4,4
					c5.8,1.5,11.3,3.2,16.6,5.2c0.7,0.3,2.6,0.9-0.2,0.9c-10.2-3-20.9-5.4-32.1-6.8c-5-0.7-10.2-1.1-15.3-1.4c-0.3,0-0.6,0-0.9,0
					h-13.9c-0.1,0.1-0.1,0.2-0.2,0.4c2.5,0.7,5,1.4,7.4,2.1l0.1,0c0.5,0.2,1.1,0.3,1.6,0.5c15.5,5.5,30.9,11,47.4,15.2
					c9.9,2.5,19.9,4.8,30.2,6.6c9.7,1.7,19.3,3.3,29.4,4c-0.6,0.7-1.3,0.7-2.8,0.7c-8.6-0.2-17-1.8-25.6-1.8
					c-0.6-0.8-1.9-0.8-3.1-0.9c-18.7-2.8-36.6-6.8-53.8-12.1c-11-3.4-21-7.7-32.1-10.9C249.3,8.2,248.1,8,246.9,7.8L246.9,7.8
					L246.9,7.8z"/>
				<path class="st1" d="M387.3,56.3c0.8,0,1.7,0,2.5,0c1.4,0.6,2.7,0.6,4.1,0c3.6-0.6,7.3-0.4,10.9-0.5c14.8-0.3,29.5-1,44.1-2.3
					c6.5-0.5,12.7-2,19.1-2.5c5.5-0.5,9.8-2.6,15-3.4c2.4,0.7,5.1,0.2,7.4,1c1.8,0.6,4.6,0.7,4.6,2.4c0.1,1.7-2.4,2-4.4,2.5
					c-4.9,1.2-10.1,1.9-15.3,2.3c-15,1.3-30,2.4-45.1,3.1c-13.4,0.6-26.8,1.1-40.2,1.5c-13.8,0.4-27.7,0.6-41.5,1
					c-12.1,0.4-24.2,0-36.3,0.4c-28.4,0.9-56.8,0.5-85.2,0.3c-19.6-0.2-39.1-0.1-58.7-0.5c-13.3-0.3-26.6-0.6-39.9-1
					c-15.4-0.4-30.8-1-46.2-2c-13.3-0.9-26.7-1.4-39.6-3.8c-2.5-0.5-4.9-1-7-2c-2.7-1.3-2.5-2.4,0.1-3.8c2.6-1.4,6.4-1.3,9.1-2.5
					c6,1.7,12.7,2.1,18.9,3.6c3.2,0.8,7.6,0.6,11.2,1.2c11,1.9,22.5,1.8,33.7,2.8c7.4,0.7,15,0.7,22.5,1.1c1.8,0.1,3.6,0,5.2,0.5
					c1.1,0.8,2.1,0.5,3.2,0c1.7,0,3.3,0,5,0c0.2,0.2,0.4,0.2,0.7,0c15.2,0.6,30.5,0.1,45.7,0.9c-2.1,0.1-4.2,0.2-6.3,0.2
					c5.9,0.2,11.7,0.3,17.5,0.2c3.6-0.1,7.3,0.5,10.9-0.4c1.1,0,2.3,0,3.4,0c0.2,0,0.5,0,0.7,0c7.6,0,15.2,0,22.8,0
					c44.6,0,89.2,0.1,133.8-0.6c3.1,0,6.2,0,9.4,0.1C384.7,56.9,386,56.9,387.3,56.3L387.3,56.3z"/>
				<path class="st2" d="M116.2,27.3c4.6,1.8,9.5,3.2,14.4,4.4c11.7,2.9,23.9,5.1,36.9,4c1.5-0.4,4.1,0.5,4.2-1.4
					c0.2-1.7-1.2-2.5-3.9-2.8c-0.4,0-0.7-0.2-1.1-0.3c-9.9-2.9-19.1-6.4-27.1-10.9c0-1.5-1.8-2.5-2.8-3.6c-2.4-3-1-5.1,4.3-6.1
					c3.4-0.6,7-0.4,10.4-0.2c1.4,0.1,2.6,0,3.7-0.5c6.7,2.6,11.9,6.4,18.2,9.3c10.9,5.2,23.1,9,36,11.9c-0.5,0.2-1.1,0.6-1.6,0.6
					c-4.2,0-8.4,0.3-12.6-0.2c-5.4-0.6-10.8,0.2-16.2-0.5c2.8,0.8,5.5,1.4,8.4,1.9c16.4,2.8,33.2,4.2,50.2,5.4
					c17.1,1.1,34.3,1.5,51.5,1.8c17.9,0.4,35.8-0.1,53.7-0.8c11.5-0.4,23-1,34.4-1.7c14-0.9,27.9-2.2,41.5-4.3
					c4.4-0.7,8.6-1.7,12.9-2.5c-9.5-0.1-18.8,0.5-28.1,0.6c-9,0.1-17.9,0.9-26.8,0.6c-1,0-2.1,0.3-3.1,0.5c-5.1-2.6-9.2-6-16.3-7
					c0.2-1-1.1-1.1-2-1.6c-3.7-1.6-7.4-3.2-11-4.8c0-0.7-0.7-0.9-1.8-0.8l0,0c0.1-1.1-1.5-1.5-2.3-2.2c-4.6-3.9-2.6-7.7,5-9.1
					c3.6-0.7,7.1-1,11-0.7c3.7,0.3,7.2,1.3,11.1,0.9l0,0c0.2,0.2,0.5,0.4,0.7,0.6c10.6,2.5,19,7.1,28.6,10.6
					c13.8,4.9,28.4,8.6,44.2,10.3c8.3,0.9,16.8,1,25.1,0.2c1.5,0,2-0.7,2.9-1.1c-3.4-1.2-6.7-2.3-9.9-3.4c-2.5-2.6-7.2-3.8-10.1-6.2
					c0.3-0.2,0.8-0.4,0.7-0.5c-0.1-2.8,2.8-3.6,6.8-4.1c9.9-1,19.2,0.7,28.6,2.1c7.2,1.1,12.9,3.6,17.4,7.2
					c0.7,6.8-3.6,12.4-12,16.8c-9,4.8-20.4,6.7-31.9,8.1c-5.3,0.7-10.9,0.8-16.2,1.3c-35.9,3.1-72.1,1.8-108.1,2.1
					c-41.9,0.3-83.8,0.2-125.7-0.1c-27.2-0.2-54.4,0-81.6-1.3c-20.3-0.9-40.5-2-60.4-4.9c-14.3-2.1-28.7-4.2-40.9-9.6
					c-5.6-2.5-10.2-5.5-9.1-10.2c0.9-3.6,7.2-7.5,12.8-8.8c8.2-1.9,17.3-1.5,25-4.2c1.5,1.2,3.5,0.1,5.3,0.3
					c12.6,1.5,23.3,5.7,34.6,8.8C101.3,23.3,108.6,25.5,116.2,27.3L116.2,27.3z"/>
				<path class="st2" d="M256.6,31.3c-3-2.6-7.8-4.1-11.5-6.3c-4.5-2.7-9.3-5.2-13.9-7.8c-0.3-0.2-0.6-0.4-0.9-0.5l-0.1,0.1
					c0.5-0.9-0.6-1.5-1-2.2c-1-1.8-2.5-3.8-0.1-5.6c2.1-1.6,5.1-1.9,8.4-1.7c2.3,0.1,4.6,0,6.9,0l-0.1,0c0.4,0.8,1.5,0.6,2.4,0.6
					l-0.1,0c0.2,1.4,2,0.9,3.3,1c11.1,3.2,21.1,7.6,32.1,10.9c17.2,5.2,35.1,9.3,53.8,12.1c1.2,0.2,2.5,0.1,3.1,0.9
					c-19.8,0-39.6,0.8-59.4,0.5c-3.9-0.1-7.9,0.2-11.8-0.2c-2-0.2-3.4,0-4.8,0.7C261.3,32.7,259.6,31.4,256.6,31.3L256.6,31.3z"/>
				<path class="st3" d="M263.2,33.7c1.4-0.7,2.8-0.8,4.8-0.7c3.9,0.3,7.9,0.1,11.8,0.2c19.8,0.3,39.6-0.5,59.4-0.5
					c8.6,0,17,1.6,25.6,1.8c1.5,0,2.2,0.1,2.8-0.7c2.1,0.2,4,0.7,6.7,0.5c-2.2-0.5-2-1.2-0.9-1.9c1-0.2,2.1-0.5,3.1-0.5
					c9,0.3,17.9-0.5,26.8-0.6c9.3-0.1,18.6-0.6,28.1-0.6c-4.3,0.9-8.5,1.8-12.9,2.5c-13.6,2.1-27.5,3.5-41.5,4.3
					c-11.4,0.7-22.9,1.3-34.4,1.7c-17.9,0.7-35.8,1.2-53.7,0.8c-17.2-0.3-34.3-0.7-51.4-1.8c-16.9-1.1-33.8-2.6-50.2-5.4
					c-2.8-0.5-5.6-1.1-8.4-1.9c5.4,0.7,10.9,0,16.2,0.5c4.2,0.5,8.4,0.2,12.6,0.2c0.5,0,1.1-0.4,1.6-0.6c12.7,2.3,25.5,4.1,38.9,4.1
					c1.5-0.2,2.9,0,4.4,0C256.4,35.2,260.4,35.9,263.2,33.7L263.2,33.7z"/>
				<path class="st4" d="M263.2,33.7c-2.9,2.1-6.9,1.5-10.5,1.5c-1.4,0-2.9-0.2-4.4,0c-3.6-1-7.5-1-11.2-1.5
					c-25.8-3.5-48.8-10.4-68.5-21c-2.5-1.4-5.1-2.7-7.4-4.3c20.8,0.2,39.8,3.8,57,10.7c8.4,3.4,16.7,6.8,26.1,9.1
					c1.7,0.4,3,1.5,5.1,0.8l0.2,0.1c-0.3,0.8,0.6,0.6,1.3,0.7c2,0.3,3.3,1.6,5.5,1.5C259.6,31.4,261.3,32.7,263.2,33.7L263.2,33.7z"
					/>
				<path class="st4" d="M388.7,11.2c7.6,3.4,15.5,6.4,24,8.9c5.4,1.7,4.1,1.8,10.4,2.9c5.8,2,12.3,2.7,18.6,3.8
					c6.9,1.2,14,1.7,21.2,1.5c0.9,0,2.2-0.4,2.8,0.4c1.5,0,2-0.7,2.9-1.1c-3.4-1.2-6.7-2.3-9.9-3.4c-3-1.3-6.1-2.5-9.6-3.3
					c-5.3,0-9.7-1.4-13.6-3.4c-2-0.4-3.7-1-5-1.9l0,0c-8.5-2.2-16.4-5.2-25.2-7.2c-10.9-2.5-22.2-3.9-34.1-3.7
					c3.9,1.4,7.6,2.8,11.7,4.1C384.4,9.7,388.7,11.2,388.7,11.2L388.7,11.2z"/>
				<path class="st4" d="M166.7,31.2c0.4,0.1,0.7,0.3,1.1,0.3c2.7,0.2,4.1,1.1,3.9,2.8c-0.2,1.8-2.8,1-4.2,1.4
					c-4.4-0.8-9-0.5-13.4-1.1c-15-2.1-27.5-7-39.6-12.3c-7.6-3.4-15.1-6.9-23.1-10c-0.8-0.3-2.6-0.5-2-1.2c0.5-0.6,2-0.8,3.6-0.5
					c4.6,0.7,9,1.7,13.2,3c6.9,2.1,14.1,4.1,19.5,7.6c1,0.7,2.6,0.3,3.5,0.9c3,1.2,5.8,2.6,8.9,3.6c4.6,1.5,9.2,3.3,14.8,3.2
					C157.5,29.7,161.7,31.3,166.7,31.2L166.7,31.2z"/>
				<path class="st3" d="M502,22.9c-4.5-3.6-10.2-6.1-17.4-7.2c-9.4-1.4-18.7-3.1-28.6-2.1c-4,0.4-6.9,1.3-6.8,4.1
					c0,0.2-0.5,0.4-0.7,0.5c-6.6-3.1-12.1-7-19.2-9.9c4.9,0.5,9.7,1.1,14.6,1.5c9.3,0.8,18.7,0.3,28,0.5c7.5,0.1,14.7,1.3,21,3.8
					C498.4,16.2,501.6,19,502,22.9L502,22.9z"/>
				<path class="st3" d="M367.1,7.2c-3.8,0.4-7.4-0.6-11.1-0.9c-3.9-0.3-7.5,0-11,0.7c-7.6,1.4-9.5,5.2-5,9.1
					c0.8,0.7,2.4,1.1,2.3,2.2c-7.9-3.2-15.9-6.5-23.8-9.7c-2.3-0.9-5.1-1.5-7-2.8c2.8-1.1,5.8-0.9,8.6-0.8c5,0.1,9.9-0.5,14.9,0
					c2.6,0.3,4.8-0.8,7.2-1.1C351.6,2.6,359.6,4.1,367.1,7.2L367.1,7.2z"/>
				<path class="st3" d="M116.2,27.3c-7.6-1.8-14.9-4-22.3-6c-11.4-3.1-22-7.3-34.6-8.8c-1.8-0.2-3.7,0.9-5.3-0.3
					c6.1-3.2,12.9-2.6,19.8-1.2c9.4,1.9,17.3,5.3,25.4,8.6c5.2,2.1,10.3,4.3,15.4,6.4C115.4,26.3,116.4,26.6,116.2,27.3L116.2,27.3z
					"/>
				<path class="st3" d="M244.5,7.2c-2.3,0-4.6,0.1-6.9,0c-3.3-0.2-6.2,0.1-8.4,1.7c-2.4,1.8-0.9,3.8,0.1,5.6c0.4,0.7,1.5,1.4,1,2.2
					c-5.1-2.2-10.2-4.5-15.5-6.7c-3.5-1.4-7.2-2.6-11.9-4.2c9.3,0.1,17.2-2.1,25.7-1.9C234.3,4.1,239.8,5.2,244.5,7.2L244.5,7.2z"/>
				<path class="st3" d="M249.6,29c-2.1,0.7-3.5-0.3-5.1-0.8c-9.4-2.3-17.7-5.7-26.1-9.1c0.5-1.1-1.1-1.4-2.1-1.8
					c-12.2-5.5-25.9-9.2-42-11.2c5.2-0.4,8.8,0,12.7,0.6c20,2.8,35.6,10,51.2,17.4C241.8,25.8,245.7,27.4,249.6,29L249.6,29z"/>
				<path class="st3" d="M155.2,9.8c-1.1,0.5-2.2,0.5-3.7,0.5c-3.5-0.1-7-0.4-10.4,0.2c-5.3,1-6.8,3.1-4.3,6.1
					c1,1.2,2.8,2.2,2.8,3.6c-5.1-2.7-10.1-5.4-15.2-8.1c-2.2-1.1-4.5-2.1-7.6-3.4c4.2,0,7.7-0.1,11.3,0c5,0.2,9.4-1.3,14.2-1.6
					C147.1,6.8,152.2,6.8,155.2,9.8L155.2,9.8z"/>
				<path class="st3" d="M449.1,21c-5.3,0-9.7-1.4-13.6-3.4c-1.4-0.9-2.2-2.3-5-1.9l0,0c0.9-1.1-1-1.3-1.9-1.7
					c-10-4.6-21-8-33.1-10.1c-0.9-0.2-1.9-0.2-2.4-0.8c12.4-0.2,22.8,3.1,32.7,7c7.2,2.9,14.1,6.1,21.1,9.2
					C448,19.8,449.3,20.1,449.1,21L449.1,21z"/>
				<path class="st3" d="M343.1,21c-1.5,0.7-2.8,0.1-4.1-0.3c-6.9-2.1-13.8-4.3-20.7-6.4c-1.4-0.4-2.9-0.7-4.4-1.1
					c2.8-0.1,0.9-0.7,0.2-0.9c-5.3-2-10.8-3.7-16.6-5.2c-6.6-1.7-13.4-3-21.4-4c7.2-0.7,13,0.4,18.6,1.6c14,2.9,26,8,38.4,12.5
					C336.6,18.5,339.8,19.8,343.1,21L343.1,21z"/>
				<path class="st3" d="M152.9,28.8c-5.6,0-10.1-1.8-14.8-3.2c-3.2-1-6-2.4-8.9-3.6c0.5-1-0.9-1.4-1.9-2c-9.8-5.5-20.8-9.8-34-11.8
					c-0.3-0.1-0.6-0.3-1.1-0.6c7.2-0.2,13.3,1,19.1,3c5.1,1.7,9.6,4,13.9,6.3C133.8,21.5,142.9,25.5,152.9,28.8L152.9,28.8z"/>
				<path class="st5" d="M213.3,56.8c-3.6,0.8-7.2,0.3-10.9,0.4c-5.8,0.1-11.7,0-17.5-0.2c2.1-0.1,4.2-0.2,6.3-0.2
					C198.5,56.8,205.9,56.8,213.3,56.8z"/>
				<path class="st3" d="M250.2,8.8c-1.3-0.1-3.1,0.4-3.3-1C248.1,8,249.3,8.2,250.2,8.8z"/>
				<path class="st5" d="M387.3,56.3c-1.3,0.6-2.6,0.6-4,0C384.7,56.3,386,56.3,387.3,56.3z"/>
				<path class="st5" d="M393.9,56.2c-1.3,0.7-2.7,0.7-4.1,0C391.2,56.2,392.6,56.2,393.9,56.2z"/>
				<path class="st5" d="M139.8,55.8c-1.1,0.4-2.2,0.8-3.2,0C137.6,55.8,138.7,55.8,139.8,55.8z"/>
				<path class="st3" d="M246.9,7.8c-0.9,0-2,0.2-2.4-0.6C245.5,7.1,246.3,7.3,246.9,7.8z"/>
				<path class="st3" d="M342.3,18.1c1-0.1,1.7,0.1,1.8,0.8C343.5,18.7,342.9,18.4,342.3,18.1z"/>
				<path class="st4" d="M373.4,32.3c-5.1-2.6-9.2-6-16.3-7c-2,0.3-3.6-0.4-4.8-1c-2.8-1.5-6.1-2.3-9.2-3.3
					c-1.5,0.7-2.8,0.1-4.1-0.3c-6.9-2.1-13.8-4.3-20.7-6.4c-1.4-0.4-2.9-0.7-4.4-1.1c-10.2-3-20.9-5.4-32.1-6.8
					c-5-0.7-10.2-1.1-15.3-1.4c-0.3,0-0.6,0-0.9,0h-13.9c-0.1,0.1-0.1,0.2-0.2,0.4c2.5,0.7,5,1.4,7.4,2.1l0.1,0
					c0.5,0.2,1.1,0.3,1.6,0.5c15.5,5.5,30.9,11,47.4,15.2c9.9,2.5,19.9,4.8,30.2,6.6c9.7,1.7,19.3,3.3,29.4,4c2.1,0.2,4,0.7,6.7,0.5
					C372.1,33.7,372.3,33.1,373.4,32.3L373.4,32.3z"/>
				<path class="st3" d="M251.1,29.8c-0.7,0-1.6,0.1-1.3-0.7C250.2,29.3,250.7,29.5,251.1,29.8z"/>
				<path class="st3" d="M230.4,16.7c0.3,0.2,0.6,0.4,0.9,0.5C230.7,17.1,230.3,17,230.4,16.7z"/>
				<path class="st3" d="M367.8,7.8c-0.2-0.2-0.5-0.4-0.7-0.6C367.4,7.4,367.6,7.6,367.8,7.8z"/>
				<path class="st5" d="M145.5,55.8c-0.2,0.2-0.5,0.2-0.7,0C145,55.8,145.2,55.8,145.5,55.8z"/>
				<path class="st5" d="M217.4,56.8c-0.2,0-0.5,0-0.7,0C216.9,56.8,217.1,56.8,217.4,56.8z"/>
				<path class="st0" d="M430.6,15.7c2.8-0.4,3.6,1,5,1.9C433.6,17.2,431.9,16.6,430.6,15.7z"/>
			</g>
			<g>
				<path class="st0" d="M545,46.5c-9.4-2-18.5-4.3-26.2-8.2c-5.1-2.5-8.5-5.7-10.5-9.5c0-1.8,0-3.6,0-5.4c0.2-0.1,0.6-0.1,0.6-0.2
					c4.9-7.7,14.9-11.1,27.9-12c5.9-0.4,11.6-1.2,16.8-3.2c3.2-1.3,6.9-1.6,10.8-1.7c5.6-0.2,10.5,2.1,16.2,1.2
					c2.2-0.3,4.4-0.4,6.5-1.1c4.2-1.3,8.6-1.8,13.3-1.2c14.2,2,28.2,2.7,42.2-0.6c2.6-0.6,5.7-0.8,8.3-0.1c5,1.4,9.9,1.2,14.7-0.2
					c6.7-1.9,13.8-1.9,20.7-1.2c10.7,1,21.1,0.7,31.3-1c6.2-1,12.4-1.6,18.7-0.3c3,0.6,6.1,1.2,9.3,0.6c3.7-0.7,7.5-0.6,11.3-0.4
					c5.9,0.2,11.2-1.3,16.7-2h10.6c1.5,1,3.5,0.5,5.3,0.7c17.8,2.3,35.7,2.6,53.7,0.4c3-0.4,6.2-1,9.3-0.4
					c7.6,1.4,15.2,1.9,23.1,1.3c2.4-0.2,5.2,0.6,7.2,0.1c10.8-2.7,21.2-1.5,31.6,0.7c16,3.4,32.3,5.2,49.3,4.6
					c3.4-0.1,6.8-0.1,10.2,0c18,0.3,28.5,4.8,34.3,14.7v6.4c-2,2.8-3.1,5.9-5.8,8.6c-4,4.1-9.6,7.2-16.5,9.4c-1.1,0.3-2,0.8-3,1.2
					c-5.2,0.8-9.4,2.9-15,3.4c-6.4,0.5-12.6,2-19.1,2.5c-14.7,1.2-29.3,2-44.1,2.3c-3.6,0.1-7.3-0.2-10.9,0.5c-1.4,0-2.7,0-4.1,0
					c-0.8,0-1.7,0-2.5,0c-1.3,0-2.7,0-4,0c-3.1,0-6.2-0.1-9.4-0.1c-44.6,0.7-89.2,0.6-133.8,0.6c-7.6,0-15.2,0-22.8,0
					c-0.2-0.1-0.5-0.1-0.7,0c-1.1,0-2.3,0-3.4,0c-7.4,0-14.7,0-22.1-0.1c-15.2-0.8-30.5-0.3-45.7-0.9c-0.2-0.1-0.5-0.1-0.7,0
					c-1.7,0-3.3,0-5,0c-1.1,0-2.2,0-3.2,0c-1.7-0.5-3.5-0.4-5.2-0.5c-7.5-0.4-15.1-0.4-22.5-1.1c-11.2-1-22.6-0.9-33.7-2.8
					c-3.6-0.6-8-0.5-11.2-1.2C557.7,48.7,551,48.2,545,46.5L545,46.5z M746.9,7.8c-0.6-0.5-1.4-0.7-2.4-0.6l0,0
					c-4.8-2-10.2-3.1-15.8-3.3c-8.4-0.2-16.3,2-25.7,1.9c4.7,1.6,8.4,2.8,11.9,4.2c5.2,2.1,10.3,4.4,15.5,6.7l0-0.1
					c-0.1,0.4,0.4,0.5,0.9,0.5c4.7,2.6,9.5,5.1,13.9,7.8c3.7,2.2,8.5,3.7,11.5,6.3c-2.3,0-3.5-1.2-5.5-1.5c-0.4-0.2-0.8-0.5-1.3-0.7
					l-0.2-0.1c-3.9-1.6-7.8-3.2-11.4-5c-15.6-7.4-31.3-14.5-51.2-17.4c-3.9-0.6-7.5-1-12.7-0.6c16.1,2.1,29.8,5.7,42,11.2
					c1,0.5,2.6,0.7,2.1,1.8c-17.2-7-36.2-10.5-57-10.7c2.3,1.6,4.9,2.9,7.4,4.3c19.7,10.6,42.7,17.5,68.5,21
					c3.7,0.5,7.7,0.5,11.2,1.5c-13.4,0-26.2-1.8-38.9-4.1c-13-2.9-25.1-6.7-36-11.9c-6.3-3-11.5-6.7-18.2-9.3c-3.1-3-8.1-3-13-2.7
					c-4.8,0.3-9.2,1.8-14.2,1.6c-3.5-0.1-7.1,0-11.3,0c3,1.4,5.4,2.3,7.6,3.4c5.1,2.6,10.2,5.4,15.2,8.1c8,4.5,17.2,8,27.1,10.9
					c-5,0.1-9.2-1.5-13.8-2.4c-10-3.3-19.2-7.4-27.7-11.9c-4.3-2.3-8.8-4.6-13.9-6.3c-5.8-2-11.9-3.2-19.1-3
					c0.6,0.3,0.8,0.6,1.1,0.6c13.3,2,24.2,6.3,34,11.8c0.9,0.5,2.4,0.9,1.9,2c-0.9-0.6-2.5-0.2-3.5-0.9c-5.4-3.5-12.6-5.5-19.5-7.6
					c-4.2-1.3-8.6-2.2-13.2-3c-1.5-0.2-3.1-0.1-3.6,0.5c-0.6,0.7,1.1,0.9,2,1.2c8,3.1,15.5,6.6,23.1,10
					c12.1,5.4,24.6,10.2,39.6,12.3c4.5,0.6,9.1,0.3,13.5,1.1c-13,1.2-25.2-1.1-36.9-4c-4.9-1.2-9.8-2.6-14.4-4.4
					c0.2-0.7-0.7-1-1.5-1.3c-5.1-2.1-10.3-4.3-15.4-6.4c-8.1-3.3-16-6.7-25.4-8.6c-6.9-1.4-13.7-2.1-19.8,1.2
					c-7.7,2.7-16.9,2.4-25,4.2c-5.6,1.3-11.9,5.1-12.8,8.8c-1.1,4.7,3.5,7.7,9.1,10.2c12.2,5.4,26.5,7.5,40.9,9.6
					c19.8,2.8,40.1,3.9,60.4,4.9c27.1,1.2,54.4,1.1,81.6,1.3c41.9,0.3,83.8,0.5,125.7,0.1c36-0.3,72.2,1,108.1-2.1
					c5.3-0.5,10.9-0.6,16.2-1.3c11.5-1.5,22.8-3.3,31.9-8.2c8.3-4.4,12.6-10,12-16.8c-0.5-3.8-3.7-6.7-8.9-8.8
					c-6.4-2.6-13.5-3.7-21-3.8c-9.3-0.2-18.7,0.3-28-0.5c-4.9-0.4-9.8-1-14.6-1.5c7,2.9,12.6,6.8,19.2,9.9c2.9,2.3,7.7,3.6,10.2,6.2
					c-3-1.3-6.1-2.5-9.6-3.3c0.1-0.9-1.2-1.2-2.1-1.6c-7-3.1-13.9-6.3-21.1-9.2c-9.8-4-20.2-7.2-32.7-7c0.6,0.6,1.5,0.7,2.4,0.8
					c12.1,2.1,23.1,5.5,33.1,10.1c0.8,0.4,2.7,0.5,1.9,1.7c-8.5-2.2-16.4-5.2-25.2-7.2c-10.9-2.5-22.2-3.9-34.1-3.7
					c3.9,1.4,7.8,2.7,11.7,4.1c0.6,0.3,1.2,0.6,1.8,0.8c0.2,0.1,0.4,0.2,0.7,0.2c1.1,0.4,2.1,0.9,3.2,1.3c7.6,3.4,15.5,6.4,24,8.9
					c3.3,1.2,6.6,2.4,10.4,2.9c5.8,2,12.3,2.7,18.6,3.8c6.9,1.2,14,1.7,21.2,1.5c0.9,0,2.2-0.4,2.8,0.4c-8.4,0.8-16.8,0.7-25.2-0.2
					c-15.8-1.7-30.4-5.4-44.2-10.3c-9.6-3.4-18-8.1-28.6-10.6c-0.2-0.2-0.5-0.4-0.7-0.6v0c-7.5-3.1-15.5-4.6-24.8-3.4
					c-2.5,0.3-4.6,1.4-7.2,1.1c-5-0.5-9.9,0.2-14.9,0c-2.9-0.1-5.8-0.3-8.6,0.8c2,1.3,4.8,1.8,7,2.8c7.9,3.2,15.9,6.5,23.8,9.7l0,0
					c0.6,0.3,1.2,0.5,1.8,0.8c3.7,1.6,7.3,3.2,11,4.8c1,0.4,2.3,0.6,2,1.6c-2,0.3-3.6-0.4-4.8-1c-2.8-1.5-6.1-2.3-9.2-3.3
					c-3.3-1.3-6.5-2.6-9.9-3.8c-12.5-4.6-24.5-9.6-38.4-12.5c-5.7-1.2-11.5-2.3-18.6-1.6c8,0.9,14.8,2.3,21.4,4
					c5.8,1.5,11.3,3.2,16.6,5.2c0.7,0.3,2.6,0.9-0.2,0.9c-10.2-3-20.9-5.4-32.1-6.8c-5-0.7-10.2-1.1-15.3-1.4c-0.3,0-0.6,0-0.9,0
					h-13.9c-0.1,0.1-0.1,0.2-0.2,0.4c2.5,0.7,5,1.4,7.4,2.1l0.1,0c0.5,0.2,1.1,0.3,1.6,0.5c15.5,5.5,30.9,11,47.4,15.2
					c9.9,2.5,19.9,4.8,30.2,6.6c9.7,1.7,19.3,3.3,29.4,4c-0.6,0.7-1.3,0.7-2.8,0.7c-8.6-0.2-17-1.8-25.6-1.8
					c-0.6-0.8-1.9-0.8-3.1-0.9c-18.7-2.8-36.6-6.8-53.8-12.1c-11-3.4-21-7.7-32.2-10.9C749.3,8.2,748.1,8,746.9,7.8L746.9,7.8
					L746.9,7.8z"/>
				<path class="st1" d="M887.3,56.3c0.8,0,1.7,0,2.5,0c1.4,0.6,2.7,0.6,4.1,0c3.6-0.6,7.3-0.4,10.9-0.5c14.8-0.3,29.5-1,44.1-2.3
					c6.5-0.5,12.7-2,19.1-2.5c5.5-0.5,9.8-2.6,15-3.4c2.3,0.7,5.1,0.2,7.4,1c1.8,0.6,4.6,0.7,4.7,2.4c0.1,1.7-2.4,2-4.4,2.5
					c-4.9,1.2-10.1,1.9-15.3,2.3c-15,1.3-30,2.4-45.1,3.1c-13.4,0.6-26.8,1.1-40.2,1.5c-13.8,0.4-27.7,0.6-41.5,1
					c-12.1,0.4-24.2,0-36.3,0.4c-28.4,0.9-56.8,0.5-85.2,0.3c-19.6-0.2-39.2-0.1-58.7-0.5c-13.3-0.3-26.6-0.6-39.8-1
					c-15.4-0.4-30.8-1-46.2-2c-13.3-0.9-26.7-1.4-39.6-3.8c-2.5-0.5-4.9-1-7-2c-2.7-1.3-2.5-2.4,0.1-3.8c2.6-1.4,6.4-1.3,9.1-2.5
					c6,1.7,12.7,2.1,18.9,3.6c3.2,0.8,7.6,0.6,11.2,1.2c11,1.9,22.5,1.8,33.7,2.8c7.4,0.7,15,0.7,22.5,1.1c1.8,0.1,3.5,0,5.2,0.5
					c1,0.8,2.1,0.5,3.2,0c1.7,0,3.3,0,5,0c0.2,0.2,0.5,0.2,0.7,0c15.2,0.6,30.5,0.1,45.7,0.9c-2.1,0.1-4.2,0.2-6.3,0.2
					c5.8,0.2,11.7,0.3,17.5,0.2c3.6-0.1,7.3,0.5,10.9-0.4c1.1,0,2.3,0,3.4,0c0.2,0,0.5,0,0.7,0c7.6,0,15.2,0,22.8,0
					c44.6,0,89.2,0.1,133.8-0.6c3.1,0,6.2,0,9.4,0.1C884.7,56.9,886,56.9,887.3,56.3L887.3,56.3z"/>
				<path class="st2" d="M616.2,27.3c4.5,1.8,9.5,3.2,14.4,4.4c11.7,2.9,23.8,5.1,36.9,4c1.5-0.4,4,0.5,4.2-1.4
					c0.2-1.7-1.2-2.5-3.9-2.8c-0.4,0-0.7-0.2-1.1-0.3c-9.9-2.9-19.1-6.4-27.1-10.9c0-1.5-1.8-2.5-2.8-3.6c-2.5-3-1-5.1,4.3-6.1
					c3.4-0.6,7-0.4,10.4-0.2c1.5,0.1,2.6,0,3.7-0.5c6.7,2.6,12,6.4,18.2,9.3c10.9,5.2,23.1,9,36,11.9c-0.5,0.2-1.1,0.6-1.6,0.6
					c-4.2,0-8.4,0.3-12.6-0.2c-5.3-0.6-10.8,0.2-16.2-0.5c2.8,0.8,5.5,1.4,8.4,1.9c16.4,2.8,33.2,4.2,50.2,5.4
					c17.1,1.1,34.3,1.5,51.5,1.8c17.9,0.4,35.8-0.1,53.7-0.8c11.5-0.4,23-1,34.4-1.7c14-0.9,27.8-2.2,41.5-4.3
					c4.4-0.7,8.6-1.7,12.9-2.5c-9.5-0.1-18.8,0.5-28.1,0.6c-9,0.1-17.9,0.9-26.8,0.6c-1,0-2.1,0.3-3.1,0.5c-5.1-2.6-9.2-6-16.3-7
					c0.2-1-1.1-1.1-2-1.6c-3.7-1.6-7.3-3.2-11-4.8c0-0.7-0.7-0.9-1.8-0.8l0,0c0.2-1.1-1.5-1.5-2.3-2.2c-4.6-3.9-2.6-7.7,5-9.1
					c3.6-0.7,7.1-1,11-0.7c3.7,0.3,7.2,1.3,11.1,0.9l0,0c0.2,0.2,0.5,0.4,0.7,0.6c10.6,2.5,19,7.1,28.6,10.6
					c13.8,4.9,28.4,8.6,44.2,10.3c8.3,0.9,16.8,1,25.2,0.2c1.5,0,2-0.7,2.9-1.1c-3.4-1.2-6.7-2.3-9.9-3.4c-2.5-2.6-7.2-3.8-10.2-6.2
					c0.3-0.2,0.8-0.4,0.7-0.5c-0.1-2.8,2.8-3.6,6.8-4.1c9.9-1,19.2,0.7,28.6,2.1c7.2,1.1,12.9,3.6,17.4,7.2
					c0.7,6.8-3.6,12.4-12,16.8c-9,4.8-20.4,6.7-31.9,8.1c-5.3,0.7-10.9,0.8-16.2,1.3c-35.9,3.1-72.1,1.8-108.1,2.1
					c-41.9,0.3-83.8,0.2-125.7-0.1c-27.2-0.2-54.4,0-81.6-1.3c-20.3-0.9-40.5-2-60.4-4.9c-14.3-2.1-28.7-4.2-40.9-9.6
					c-5.6-2.5-10.2-5.5-9.1-10.2c0.9-3.6,7.2-7.5,12.8-8.8c8.2-1.9,17.3-1.5,25-4.2c1.5,1.2,3.5,0.1,5.3,0.3
					c12.6,1.5,23.2,5.7,34.6,8.8C601.3,23.3,608.6,25.5,616.2,27.3L616.2,27.3z"/>
				<path class="st2" d="M756.6,31.3c-3-2.6-7.8-4.1-11.5-6.3c-4.5-2.7-9.3-5.2-13.9-7.8c-0.3-0.2-0.6-0.4-0.9-0.5l0,0.1
					c0.5-0.9-0.6-1.5-1-2.2c-1-1.8-2.5-3.8-0.1-5.6c2.1-1.6,5.1-1.9,8.4-1.7c2.3,0.1,4.6,0,6.9,0l0,0c0.4,0.8,1.5,0.6,2.4,0.6l0,0
					c0.2,1.4,2,0.9,3.3,1c11.1,3.2,21.1,7.6,32.2,10.9c17.2,5.2,35.1,9.3,53.8,12.1c1.2,0.2,2.5,0.1,3.1,0.9
					c-19.8,0-39.6,0.8-59.4,0.5c-3.9-0.1-7.9,0.2-11.8-0.2c-2-0.2-3.4,0-4.8,0.7C761.3,32.7,759.6,31.4,756.6,31.3L756.6,31.3z"/>
				<path class="st3" d="M763.2,33.7c1.4-0.7,2.8-0.8,4.8-0.7c3.9,0.3,7.8,0.1,11.8,0.2c19.8,0.3,39.6-0.5,59.4-0.5
					c8.6,0,17,1.6,25.6,1.8c1.5,0,2.2,0.1,2.8-0.7c2.1,0.2,4,0.7,6.7,0.5c-2.2-0.5-2-1.2-0.9-1.9c1-0.2,2.1-0.5,3.1-0.5
					c9,0.3,17.9-0.5,26.8-0.6c9.3-0.1,18.6-0.6,28.1-0.6c-4.3,0.9-8.5,1.8-12.9,2.5c-13.6,2.1-27.5,3.5-41.5,4.3
					c-11.4,0.7-22.9,1.3-34.4,1.7c-17.9,0.7-35.8,1.2-53.7,0.8c-17.2-0.3-34.3-0.7-51.5-1.8c-17-1.1-33.8-2.6-50.2-5.4
					c-2.8-0.5-5.6-1.1-8.4-1.9c5.4,0.7,10.9,0,16.2,0.5c4.2,0.5,8.4,0.2,12.6,0.2c0.5,0,1.1-0.4,1.6-0.6c12.7,2.3,25.5,4.1,38.9,4.1
					c1.5-0.2,2.9,0,4.4,0C756.4,35.2,760.4,35.9,763.2,33.7L763.2,33.7z"/>
				<path class="st4" d="M763.2,33.7c-2.8,2.1-6.8,1.5-10.5,1.5c-1.5,0-2.9-0.2-4.4,0c-3.6-1-7.5-1-11.2-1.5
					c-25.8-3.5-48.8-10.4-68.5-21c-2.5-1.4-5-2.7-7.4-4.3c20.8,0.2,39.8,3.8,57,10.7c8.4,3.4,16.7,6.8,26.1,9.1
					c1.7,0.4,3,1.5,5.2,0.8l0.2,0.1c-0.3,0.8,0.6,0.6,1.3,0.7c2,0.3,3.3,1.6,5.5,1.5C759.6,31.4,761.3,32.7,763.2,33.7L763.2,33.7z"
					/>
				<path class="st4" d="M888.7,11.2c7.6,3.4,15.5,6.4,24,8.9c5.4,1.7,4.1,1.8,10.4,2.9c5.8,2,12.3,2.7,18.6,3.8
					c6.9,1.2,14,1.7,21.2,1.5c0.9,0,2.2-0.4,2.8,0.4c1.5,0,2-0.7,2.9-1.1c-3.4-1.2-6.7-2.3-9.9-3.4c-3-1.3-6.1-2.5-9.6-3.3
					c-5.3,0-9.7-1.4-13.6-3.4c-2-0.4-3.7-1-5-1.9l0,0c-8.5-2.2-16.4-5.2-25.2-7.2c-10.9-2.5-22.2-3.9-34.1-3.7
					c3.9,1.4,7.7,2.8,11.7,4.1C884.4,9.7,888.7,11.2,888.7,11.2L888.7,11.2z"/>
				<path class="st4" d="M666.7,31.2c0.4,0.1,0.7,0.3,1.1,0.3c2.7,0.2,4.1,1.1,3.9,2.8c-0.2,1.8-2.8,1-4.2,1.4
					c-4.4-0.8-9-0.5-13.5-1.1c-15-2.1-27.5-7-39.6-12.3c-7.6-3.4-15.1-6.9-23.1-10c-0.8-0.3-2.6-0.5-2-1.2c0.5-0.6,2-0.8,3.6-0.5
					c4.6,0.7,9,1.7,13.2,3c6.9,2.1,14.1,4.1,19.5,7.6c1,0.7,2.6,0.3,3.5,0.9c3,1.2,5.8,2.6,8.9,3.6c4.7,1.5,9.2,3.3,14.8,3.2
					C657.5,29.7,661.7,31.3,666.7,31.2L666.7,31.2z"/>
				<path class="st3" d="M1002,22.9c-4.5-3.6-10.2-6.1-17.4-7.2c-9.3-1.4-18.7-3.1-28.6-2.1c-4,0.4-6.9,1.3-6.8,4.1
					c0,0.2-0.5,0.4-0.7,0.5c-6.6-3.1-12.2-7-19.2-9.9c4.9,0.5,9.7,1.1,14.6,1.5c9.3,0.8,18.7,0.3,28,0.5c7.5,0.1,14.7,1.3,21,3.8
					C998.4,16.2,1001.6,19,1002,22.9z"/>
				<path class="st3" d="M867.1,7.2c-3.8,0.4-7.4-0.6-11.1-0.9c-3.9-0.3-7.5,0-11,0.7c-7.6,1.4-9.5,5.2-5,9.1
					c0.8,0.7,2.4,1.1,2.3,2.2c-7.9-3.2-15.9-6.5-23.8-9.7c-2.3-0.9-5.1-1.5-7-2.8c2.8-1.1,5.8-0.9,8.6-0.8c5,0.1,9.9-0.5,14.9,0
					c2.6,0.3,4.8-0.8,7.2-1.1C851.6,2.6,859.6,4.1,867.1,7.2L867.1,7.2z"/>
				<path class="st3" d="M616.2,27.3c-7.6-1.8-14.9-4-22.3-6c-11.4-3.1-22-7.3-34.6-8.8c-1.8-0.2-3.7,0.9-5.3-0.3
					c6.1-3.2,12.9-2.6,19.8-1.2c9.4,1.9,17.3,5.3,25.4,8.6c5.2,2.1,10.3,4.3,15.4,6.4C615.5,26.3,616.4,26.6,616.2,27.3L616.2,27.3z
					"/>
				<path class="st3" d="M744.5,7.2c-2.3,0-4.6,0.1-6.9,0c-3.3-0.2-6.2,0.1-8.4,1.7c-2.4,1.8-0.9,3.8,0.1,5.6c0.4,0.7,1.5,1.4,1,2.2
					c-5.1-2.2-10.2-4.5-15.5-6.7c-3.5-1.4-7.2-2.6-11.9-4.2c9.3,0.1,17.2-2.1,25.7-1.9C734.3,4.1,739.8,5.2,744.5,7.2L744.5,7.2z"/>
				<path class="st3" d="M749.6,29c-2.1,0.7-3.5-0.3-5.2-0.8c-9.4-2.3-17.7-5.7-26.1-9.1c0.5-1.1-1.1-1.4-2.1-1.8
					c-12.2-5.5-25.9-9.2-42-11.2c5.2-0.4,8.8,0,12.7,0.6c20,2.8,35.6,10,51.2,17.4C741.8,25.8,745.7,27.4,749.6,29L749.6,29z"/>
				<path class="st3" d="M655.2,9.8c-1.1,0.5-2.2,0.5-3.7,0.5c-3.5-0.1-7-0.4-10.4,0.2c-5.3,1-6.8,3.1-4.3,6.1
					c1,1.2,2.8,2.2,2.8,3.6c-5.1-2.7-10.1-5.4-15.2-8.1c-2.2-1.1-4.5-2.1-7.6-3.4c4.2,0,7.7-0.1,11.3,0c5,0.2,9.4-1.3,14.2-1.6
					C647.1,6.8,652.2,6.8,655.2,9.8L655.2,9.8z"/>
				<path class="st3" d="M949.2,21c-5.3,0-9.7-1.4-13.6-3.4c-1.4-0.9-2.2-2.3-5-1.9l0,0c0.9-1.1-1-1.3-1.9-1.7
					c-10-4.6-21-8-33.1-10.1c-0.9-0.2-1.9-0.2-2.4-0.8c12.4-0.2,22.8,3.1,32.7,7c7.2,2.9,14.1,6.1,21.1,9.2
					C948,19.8,949.3,20.1,949.2,21z"/>
				<path class="st3" d="M843.1,21c-1.5,0.7-2.8,0.1-4.1-0.3c-6.9-2.1-13.8-4.3-20.7-6.4c-1.4-0.4-2.9-0.7-4.4-1.1
					c2.8-0.1,0.9-0.7,0.2-0.9c-5.3-2-10.8-3.7-16.6-5.2c-6.6-1.7-13.4-3-21.4-4c7.2-0.7,13,0.4,18.6,1.6c14,2.9,26,8,38.4,12.5
					C836.6,18.5,839.8,19.8,843.1,21L843.1,21z"/>
				<path class="st3" d="M652.9,28.8c-5.6,0-10.1-1.8-14.8-3.2c-3.2-1-6-2.4-8.9-3.6c0.5-1-0.9-1.4-1.9-2c-9.8-5.5-20.8-9.8-34-11.8
					c-0.3-0.1-0.5-0.3-1.1-0.6c7.2-0.2,13.3,1,19.1,3c5.1,1.7,9.6,4,13.9,6.3C633.8,21.5,642.9,25.5,652.9,28.8L652.9,28.8z"/>
				<path class="st5" d="M713.3,56.8c-3.5,0.8-7.2,0.3-10.9,0.4c-5.8,0.1-11.7,0-17.5-0.2c2.1-0.1,4.2-0.2,6.3-0.2
					C698.5,56.8,705.9,56.8,713.3,56.8L713.3,56.8z"/>
				<path class="st3" d="M750.2,8.8c-1.3-0.1-3.1,0.4-3.3-1C748.1,8,749.3,8.2,750.2,8.8z"/>
				<path class="st5" d="M887.3,56.3c-1.3,0.6-2.7,0.6-4,0C884.7,56.3,886,56.3,887.3,56.3z"/>
				<path class="st5" d="M893.9,56.2c-1.3,0.7-2.7,0.7-4.1,0C891.2,56.2,892.6,56.2,893.9,56.2z"/>
				<path class="st5" d="M639.8,55.8c-1.1,0.4-2.2,0.8-3.2,0C637.6,55.8,638.7,55.8,639.8,55.8z"/>
				<path class="st3" d="M746.9,7.8c-0.9,0-2,0.2-2.4-0.6C745.5,7.1,746.3,7.3,746.9,7.8z"/>
				<path class="st3" d="M842.3,18.1c1-0.1,1.7,0.1,1.8,0.8C843.5,18.7,842.9,18.4,842.3,18.1z"/>
				<path class="st4" d="M873.4,32.3c-5.1-2.6-9.2-6-16.3-7c-2,0.3-3.6-0.4-4.8-1c-2.8-1.5-6.1-2.3-9.2-3.3
					c-1.5,0.7-2.8,0.1-4.1-0.3c-6.9-2.1-13.8-4.3-20.7-6.4c-1.4-0.4-2.9-0.7-4.4-1.1c-10.2-3-20.9-5.4-32.1-6.8
					c-5-0.7-10.2-1.1-15.3-1.4c-0.3,0-0.6,0-0.9,0h-13.9c-0.1,0.1-0.1,0.2-0.2,0.4c2.5,0.7,5,1.4,7.4,2.1l0.1,0
					c0.5,0.2,1.1,0.3,1.6,0.5c15.5,5.5,30.9,11,47.4,15.2c9.9,2.5,19.9,4.8,30.2,6.6c9.7,1.7,19.3,3.3,29.4,4c2.1,0.2,4,0.7,6.7,0.5
					C872.1,33.7,872.3,33.1,873.4,32.3L873.4,32.3z"/>
				<path class="st3" d="M751.1,29.8c-0.7,0-1.6,0.1-1.3-0.7C750.2,29.3,750.7,29.5,751.1,29.8z"/>
				<path class="st3" d="M730.4,16.7c0.3,0.2,0.6,0.4,0.9,0.5C730.7,17.1,730.3,17,730.4,16.7z"/>
				<path class="st3" d="M867.8,7.8c-0.2-0.2-0.5-0.4-0.7-0.6C867.3,7.4,867.6,7.6,867.8,7.8z"/>
				<path class="st5" d="M645.5,55.8c-0.2,0.2-0.5,0.2-0.7,0C645,55.8,645.2,55.8,645.5,55.8z"/>
				<path class="st5" d="M717.4,56.8c-0.2,0-0.5,0-0.7,0C716.9,56.8,717.1,56.8,717.4,56.8z"/>
				<path class="st0" d="M930.6,15.7c2.8-0.4,3.6,1,5,1.9C933.6,17.2,931.9,16.6,930.6,15.7z"/>
			</g>
		</g>
	</g>
</g>
<g>
	<g>
		<g>
			<path class="st6" d="M308.3,14l5.3-12h2.4v18.1h-2.5V6.6l0.1,0.8l-4.5,10.3h-1.8l-4.5-10l0.1-1v13.6h-2.5V2h2.4L308.3,14z"/>
		</g>
	</g>
</g>
<g id="Calque_1_00000158029751727497743830000011114733208323710083_">
	<g>
		<line class="st7" x1="8.3" y1="31.1" x2="1193.9" y2="31.1"/>
		<polygon class="st8" points="1191,41.1 1208.3,31.1 1191,21.1 		"/>
	</g>
	<line class="st7" x1="8.3" y1="16.1" x2="8.3" y2="46.1"/>
	<line class="st7" x1="108.3" y1="21.1" x2="108.3" y2="41.1"/>
	<line class="st7" x1="208.3" y1="21.1" x2="208.3" y2="41.1"/>
	<line class="st7" x1="308.3" y1="21.1" x2="308.3" y2="41.1"/>
	<line class="st7" x1="408.3" y1="21.1" x2="408.3" y2="41.1"/>
	<line class="st9" x1="508.3" y1="16.1" x2="508.3" y2="46.1"/>
	<line class="st7" x1="608.3" y1="21.1" x2="608.3" y2="41.1"/>
	<line class="st7" x1="708.3" y1="21.1" x2="708.3" y2="41.1"/>
	<line class="st7" x1="808.3" y1="21.1" x2="808.3" y2="41.1"/>
	<line class="st7" x1="908.3" y1="21.1" x2="908.3" y2="41.1"/>
	<line class="st9" x1="1008.3" y1="16.1" x2="1008.3" y2="46.1"/>
	<line class="st7" x1="1108.3" y1="21.1" x2="1108.3" y2="41.1"/>
	<g>
		<g class="st10">
			<path class="st8" d="M8.3,78.1c-2,0-3.6-0.5-4.6-1.6c-1-1.1-1.5-2.6-1.5-4.4v-9.7c0-1.9,0.5-3.4,1.5-4.4s2.5-1.6,4.5-1.6
				c2,0,3.5,0.5,4.5,1.6c1,1.1,1.5,2.6,1.5,4.4V72c0,1.9-0.5,3.4-1.5,4.4S10.3,78.1,8.3,78.1z M8.3,75.2c1.1,0,1.9-0.3,2.4-0.9
				c0.5-0.6,0.7-1.4,0.7-2.4v-9.7c0-1-0.2-1.8-0.7-2.4s-1.3-0.8-2.4-0.8S6.4,59.4,5.9,60s-0.7,1.4-0.7,2.4V72c0,1,0.2,1.8,0.7,2.4
				C6.4,75,7.2,75.2,8.3,75.2z"/>
		</g>
	</g>
	<g>
		<g>
			<g class="st10">
				<path class="st8" d="M110.6,55.4v21.3h-3v-18l-3,1.9v-3.1l3-2H110.6z"/>
			</g>
		</g>
		<g>
			<g class="st10">
				<path class="st8" d="M108.3,111.1c-1.6,0-3-0.5-4-1.4c-1-0.9-1.7-2.2-2-3.9v0h3v0c0.1,0.8,0.4,1.4,0.9,1.8s1.2,0.7,2,0.7
					c1,0,1.7-0.3,2.2-1c0.5-0.6,0.8-1.5,0.8-2.7v-1.8c0-1.2-0.3-2.1-0.8-2.7s-1.3-1-2.2-1c-0.5,0-1,0.1-1.5,0.4s-0.9,0.7-1.3,1.2
					h-2.7V89.6h10.9v2.8h-7.9v4.8c0.4-0.3,0.8-0.5,1.2-0.7s0.9-0.2,1.4-0.2c1.9,0,3.3,0.6,4.3,1.7s1.5,2.7,1.5,4.8v1.8
					c0,2.1-0.5,3.7-1.6,4.8S110.2,111.1,108.3,111.1z"/>
			</g>
		</g>
		<line class="st7" x1="96.5" y1="81.4" x2="120" y2="81.4"/>
	</g>
	<g>
		<g class="st10">
			<path class="st8" d="M202.4,76.7v-2.6l7.4-9.9c0.4-0.6,0.8-1.2,1-1.8s0.4-1.2,0.4-1.7v0c0-0.8-0.2-1.5-0.7-2s-1.2-0.7-2.1-0.7
				c-0.9,0-1.6,0.3-2.1,0.8c-0.5,0.5-0.9,1.2-1,2.2v0h-3.1v0c0.3-1.8,0.9-3.3,2-4.3c1.1-1,2.5-1.5,4.1-1.5c1.9,0,3.4,0.5,4.4,1.5
				s1.6,2.3,1.6,4.1v0c0,0.8-0.2,1.5-0.5,2.4s-0.7,1.6-1.3,2.4l-6.2,8.4h8.1v2.8H202.4z"/>
		</g>
	</g>
	<g>
		<g class="st10">
			<path class="st8" d="M208.3,111.1c-1.6,0-3-0.5-4-1.4c-1-0.9-1.7-2.2-2-3.9v0h3v0c0.1,0.8,0.4,1.4,0.9,1.8s1.2,0.7,2,0.7
				c1,0,1.7-0.3,2.2-1c0.5-0.6,0.8-1.5,0.8-2.7v-1.8c0-1.2-0.3-2.1-0.8-2.7s-1.3-1-2.2-1c-0.5,0-1,0.1-1.5,0.4s-0.9,0.7-1.3,1.2
				h-2.7V89.6h10.9v2.8h-7.9v4.8c0.4-0.3,0.8-0.5,1.2-0.7s0.9-0.2,1.4-0.2c1.9,0,3.3,0.6,4.3,1.7s1.5,2.7,1.5,4.8v1.8
				c0,2.1-0.5,3.7-1.6,4.8S210.2,111.1,208.3,111.1z"/>
		</g>
	</g>
	<line class="st7" x1="196.5" y1="81.4" x2="220" y2="81.4"/>
	<g>
		<g class="st10">
			<path class="st8" d="M308,76.9c-1.2,0-2.3-0.2-3.2-0.7c-0.9-0.4-1.6-1.1-2.2-1.9s-0.9-1.8-1.1-3h3c0.1,0.9,0.5,1.6,1.1,2
				c0.6,0.4,1.3,0.6,2.3,0.6c1,0,1.8-0.3,2.3-0.8s0.8-1.3,0.8-2.2v-0.6c0-1.1-0.3-1.9-0.8-2.5s-1.2-0.9-2.2-0.9h-1.5v-2.8h1.5
				c0.8,0,1.5-0.2,1.9-0.7s0.7-1.2,0.7-2.1v-0.7c0-0.8-0.2-1.5-0.7-1.9S308.9,58,308,58c-0.8,0-1.4,0.2-1.9,0.6
				c-0.5,0.4-0.9,1.1-1.1,2h-3c0.3-1.8,1-3.1,2-4.1c1-1,2.4-1.4,4-1.4c1.8,0,3.3,0.5,4.3,1.5s1.5,2.3,1.5,4.1v0.4
				c0,1.1-0.3,2-0.9,2.8s-1.4,1.4-2.4,1.7c1.2,0.2,2.1,0.8,2.7,1.7c0.6,0.9,1,2,1,3.4V71c0,1.9-0.5,3.3-1.6,4.3S310,76.9,308,76.9z"
				/>
		</g>
	</g>
	<g>
		<g class="st10">
			<path class="st8" d="M308.3,111.1c-1.6,0-3-0.5-4-1.4c-1-0.9-1.7-2.2-2-3.9v0h3v0c0.1,0.8,0.4,1.4,0.9,1.8s1.2,0.7,2,0.7
				c1,0,1.7-0.3,2.2-1c0.5-0.6,0.8-1.5,0.8-2.7v-1.8c0-1.2-0.3-2.1-0.8-2.7s-1.3-1-2.2-1c-0.5,0-1,0.1-1.5,0.4s-0.9,0.7-1.3,1.2
				h-2.7V89.6h10.9v2.8h-7.9v4.8c0.4-0.3,0.8-0.5,1.2-0.7s0.9-0.2,1.4-0.2c1.9,0,3.3,0.6,4.3,1.7s1.5,2.7,1.5,4.8v1.8
				c0,2.1-0.5,3.7-1.6,4.8S310.2,111.1,308.3,111.1z"/>
		</g>
	</g>
	<line class="st7" x1="296.5" y1="81.4" x2="320" y2="81.4"/>
	<g>
		<g>
			<g class="st10">
				<path class="st8" d="M714.8,55.4v2.7l-5.5,18.6h-3.2l5.5-18.5h-5.4v3.1h-3v-5.9H714.8z"/>
			</g>
		</g>
		<g>
			<g class="st10">
				<path class="st8" d="M709.1,111.1c-1.6,0-3-0.5-4-1.4c-1-0.9-1.7-2.2-2-3.9v0h3v0c0.1,0.8,0.4,1.4,0.9,1.8s1.2,0.7,2,0.7
					c1,0,1.7-0.3,2.2-1c0.5-0.6,0.8-1.5,0.8-2.7v-1.8c0-1.2-0.3-2.1-0.8-2.7s-1.3-1-2.2-1c-0.5,0-1,0.1-1.5,0.4s-0.9,0.7-1.3,1.2
					h-2.7V89.6h10.9v2.8h-7.9v4.8c0.4-0.3,0.8-0.5,1.2-0.7s0.9-0.2,1.4-0.2c1.9,0,3.3,0.6,4.3,1.7s1.5,2.7,1.5,4.8v1.8
					c0,2.1-0.5,3.7-1.6,4.8S711,111.1,709.1,111.1z"/>
			</g>
		</g>
		<line class="st7" x1="697.4" y1="81.4" x2="720.9" y2="81.4"/>
	</g>
	<g>
		<g class="st10">
			<path class="st11" d="M510.6,55.4v21.3h-3v-18l-3,1.9v-3.1l3-2H510.6z"/>
		</g>
	</g>
	<g>
		<g class="st10">
			<path class="st11" d="M1002.4,76.7v-2.6l7.4-9.9c0.4-0.6,0.8-1.2,1-1.8s0.4-1.2,0.4-1.7v0c0-0.8-0.2-1.5-0.7-2s-1.2-0.7-2.1-0.7
				c-0.9,0-1.6,0.3-2.1,0.8c-0.5,0.5-0.9,1.2-1,2.2v0h-3.1v0c0.3-1.8,0.9-3.3,2-4.3c1.1-1,2.5-1.5,4.1-1.5c1.9,0,3.4,0.5,4.4,1.5
				s1.6,2.3,1.6,4.1v0c0,0.8-0.2,1.5-0.5,2.4s-0.7,1.6-1.3,2.4l-6.2,8.4h8.1v2.8H1002.4z"/>
		</g>
	</g>
</g>
<g>
	<g>
		<line class="st12" x1="299.8" y1="22.6" x2="316.7" y2="39.6"/>
		<line class="st12" x1="316.7" y1="22.6" x2="299.8" y2="39.6"/>
	</g>
	<g>
		<g>
			<g>
				<path class="st13" d="M308.3,14l5.3-12h2.4v18.1h-2.5V6.6l0.1,0.8l-4.5,10.3h-1.8l-4.5-10l0.1-1v13.6h-2.5V2h2.4L308.3,14z"/>
			</g>
		</g>
	</g>
</g>
<g>
	<g>
		<path class="st14" d="M701.6,20.4V2.3h2.3l8.9,14l-0.3,0.3V2.3h2.5v18.1h-2.3l-8.8-13.8l0.3-0.3v14.1H701.6z"/>
	</g>
</g>
<g>
	<g>
		<line class="st12" x1="699.8" y1="22.5" x2="716.7" y2="39.5"/>
		<line class="st12" x1="716.7" y1="22.5" x2="699.8" y2="39.5"/>
	</g>
	<g>
		<g>
			<path class="st13" d="M701.6,20V1.9h2.3l8.9,14l-0.3,0.3V1.9h2.5V20h-2.3l-8.8-13.8l0.3-0.3V20H701.6z"/>
		</g>
	</g>
</g>
</svg>
