<?xml version="1.0" encoding="UTF-8"?>
<svg id="a" data-name="Calque 1" xmlns="http://www.w3.org/2000/svg" viewBox="0 0 169.01 246.76">
  <g id="b" data-name="10_diamond">
    <g id="c" data-name="base">
      <path d="m1.25,238.04c0,3.78,3.09,6.87,6.87,6.87h152.79c3.77,0,6.86-3.09,6.86-6.87V9.72c0-3.78-3.09-6.87-6.86-6.87H8.12c-3.78,0-6.87,3.09-6.87,6.87v228.32Z" style="fill: #fff; stroke: #010101; stroke-miterlimit: 4; stroke-width: 2.5px;"/>
    </g>
    <g id="d" data-name="n 10">
      <text transform="translate(5.25 38.99) scale(.31 1)" style="fill: #e41f13; font-family: Arial-BoldMT, Arial; font-size: 45.45px; font-weight: 700; isolation: isolate;"><tspan x="0" y="0">10</tspan></text>
    </g>
    <g id="e" data-name="n 10">
      <text transform="translate(164.77 207.77) rotate(-180) scale(.31 1)" style="fill: #e41f13; font-family: Arial-BoldMT, Arial; font-size: 45.45px; font-weight: 700; isolation: isolate;"><tspan x="0" y="0">10</tspan></text>
    </g>
    <g id="f" data-name="diamond">
      <path d="m14.9,52.99h7.68c-.87-.04-1.62-.6-2.32-1.07-1.58-1.19-3.06-2.56-4.22-4.15-.54-.8-1.12-1.71-1.13-2.71m7.68,7.94c-1.11.03-2.06.74-2.9,1.39-1.49,1.25-2.79,2.75-3.88,4.36-.4.67-.87,1.38-.89,2.18v-7.94m0,7.94c-.04-1.18-.76-2.21-1.44-3.12-1.21-1.51-2.65-2.84-4.23-3.96-.61-.38-1.27-.84-2.01-.86h7.68m-7.68,0c1.11-.03,2.06-.74,2.9-1.39,1.49-1.26,2.79-2.75,3.88-4.36.4-.67.87-1.38.89-2.18v7.94" style="fill: #e41f13; stroke-width: 0px;"/>
    </g>
    <g id="g" data-name="diamond">
      <path d="m155.12,193.77h-7.68c.87.04,1.62.6,2.32,1.07,1.58,1.19,3.06,2.56,4.22,4.15.54.8,1.12,1.71,1.13,2.71m-7.68-7.94c1.11-.03,2.06-.74,2.9-1.39,1.49-1.25,2.79-2.75,3.88-4.36.4-.67.87-1.38.89-2.18v7.94m0-7.94c.04,1.18.76,2.21,1.44,3.12,1.21,1.51,2.65,2.84,4.23,3.96.61.38,1.27.84,2.01.86h-7.68m7.68,0c-1.11.03-2.06.74-2.9,1.39-1.49,1.26-2.79,2.75-3.88,4.36-.4.67-.87,1.38-.89,2.18v-7.94" style="fill: #e41f13; stroke-width: 0px;"/>
    </g>
    <g id="h" data-name="diamond">
      <path d="m45.1,39.6h18.43c-2.1-.09-3.88-1.45-5.57-2.57-3.79-2.86-7.34-6.13-10.14-9.97-1.31-1.93-2.68-4.1-2.72-6.51m18.43,19.05c-2.66.08-4.94,1.78-6.97,3.34-3.59,3.01-6.69,6.59-9.31,10.47-.96,1.61-2.09,3.31-2.15,5.24v-19.05m0,19.05c-.09-2.84-1.82-5.29-3.45-7.49-2.91-3.62-6.35-6.83-10.14-9.51-1.47-.92-3.04-2.01-4.83-2.06h18.43m-18.43,0c2.66-.08,4.94-1.78,6.97-3.34,3.59-3.01,6.69-6.6,9.31-10.47.96-1.61,2.09-3.31,2.15-5.24v19.05" style="fill: #e41f13; stroke-width: 0px;"/>
    </g>
    <g id="i" data-name="diamond">
      <path d="m45.1,93.74h18.43c-2.1-.09-3.88-1.45-5.57-2.57-3.79-2.86-7.34-6.13-10.14-9.97-1.31-1.93-2.68-4.1-2.72-6.51m18.43,19.05c-2.66.08-4.94,1.78-6.97,3.34-3.59,3.01-6.69,6.59-9.31,10.47-.96,1.61-2.09,3.31-2.15,5.24v-19.05m0,19.05c-.09-2.84-1.82-5.29-3.45-7.49-2.91-3.62-6.35-6.83-10.14-9.51-1.47-.92-3.04-2.01-4.83-2.06h18.43m-18.43,0c2.66-.08,4.94-1.78,6.97-3.34,3.59-3.01,6.69-6.6,9.31-10.47.96-1.61,2.09-3.31,2.15-5.24v19.05" style="fill: #e41f13; stroke-width: 0px;"/>
    </g>
    <g id="j" data-name="diamond">
      <path d="m45.1,148.88h-18.43c2.1.09,3.88,1.45,5.57,2.57,3.79,2.86,7.34,6.13,10.14,9.97,1.31,1.93,2.68,4.1,2.72,6.51m-18.43-19.05c2.66-.08,4.94-1.78,6.97-3.34,3.59-3.01,6.69-6.59,9.31-10.47.96-1.61,2.09-3.31,2.15-5.24v19.05m0-19.05c.09,2.84,1.82,5.29,3.45,7.49,2.91,3.62,6.35,6.83,10.14,9.51,1.47.92,3.04,2.01,4.83,2.06h-18.43m18.43,0c-2.66.08-4.94,1.78-6.97,3.34-3.59,3.01-6.69,6.6-9.31,10.47-.96,1.61-2.09,3.31-2.15,5.24v-19.05" style="fill: #e41f13; stroke-width: 0px;"/>
    </g>
    <g id="k" data-name="diamond">
      <path d="m45.1,203.01h-18.43c2.1.09,3.88,1.45,5.57,2.57,3.79,2.86,7.34,6.13,10.14,9.97,1.31,1.93,2.68,4.1,2.72,6.51m-18.43-19.05c2.66-.08,4.94-1.78,6.97-3.34,3.59-3.01,6.69-6.59,9.31-10.47.96-1.61,2.09-3.31,2.15-5.24v19.05m0-19.05c.09,2.84,1.82,5.29,3.45,7.49,2.91,3.62,6.35,6.83,10.14,9.51,1.47.92,3.04,2.01,4.83,2.06h-18.43m18.43,0c-2.66.08-4.94,1.78-6.97,3.34-3.59,3.01-6.69,6.6-9.31,10.47-.96,1.61-2.09,3.31-2.15,5.24v-19.05" style="fill: #e41f13; stroke-width: 0px;"/>
    </g>
    <g id="l" data-name="diamond">
      <path d="m124.93,39.6h18.43c-2.1-.09-3.88-1.45-5.57-2.57-3.79-2.86-7.34-6.13-10.14-9.97-1.31-1.93-2.68-4.1-2.72-6.51m18.43,19.05c-2.66.08-4.94,1.78-6.97,3.34-3.59,3.01-6.69,6.59-9.31,10.47-.96,1.61-2.09,3.31-2.15,5.24v-19.05m0,19.05c-.09-2.84-1.82-5.29-3.45-7.49-2.91-3.62-6.35-6.83-10.14-9.51-1.47-.92-3.04-2.01-4.83-2.06h18.43m-18.43,0c2.66-.08,4.94-1.78,6.97-3.34,3.59-3.01,6.69-6.6,9.31-10.47.96-1.61,2.09-3.31,2.15-5.24v19.05" style="fill: #e41f13; stroke-width: 0px;"/>
    </g>
    <g id="m" data-name="diamond">
      <path d="m124.93,93.74h18.43c-2.1-.09-3.88-1.45-5.57-2.57-3.79-2.86-7.34-6.13-10.14-9.97-1.31-1.93-2.68-4.1-2.72-6.51m18.43,19.05c-2.66.08-4.94,1.78-6.97,3.34-3.59,3.01-6.69,6.59-9.31,10.47-.96,1.61-2.09,3.31-2.15,5.24v-19.05m0,19.05c-.09-2.84-1.82-5.29-3.45-7.49-2.91-3.62-6.35-6.83-10.14-9.51-1.47-.92-3.04-2.01-4.83-2.06h18.43m-18.43,0c2.66-.08,4.94-1.78,6.97-3.34,3.59-3.01,6.69-6.6,9.31-10.47.96-1.61,2.09-3.31,2.15-5.24v19.05" style="fill: #e41f13; stroke-width: 0px;"/>
    </g>
    <g id="n" data-name="diamond">
      <path d="m124.93,148.88h-18.43c2.1.09,3.88,1.45,5.57,2.57,3.79,2.86,7.34,6.13,10.14,9.97,1.31,1.93,2.68,4.1,2.72,6.51m-18.43-19.05c2.66-.08,4.94-1.78,6.97-3.34,3.59-3.01,6.69-6.59,9.31-10.47.96-1.61,2.09-3.31,2.15-5.24v19.05m0-19.05c.09,2.84,1.82,5.29,3.45,7.49,2.91,3.62,6.35,6.83,10.14,9.51,1.47.92,3.04,2.01,4.83,2.06h-18.43m18.43,0c-2.66.08-4.94,1.78-6.97,3.34-3.59,3.01-6.69,6.6-9.31,10.47-.96,1.61-2.09,3.31-2.15,5.24v-19.05" style="fill: #e41f13; stroke-width: 0px;"/>
    </g>
    <g id="o" data-name="diamond">
      <path d="m124.93,203.01h-18.43c2.1.09,3.88,1.45,5.57,2.57,3.79,2.86,7.34,6.13,10.14,9.97,1.31,1.93,2.68,4.1,2.72,6.51m-18.43-19.05c2.66-.08,4.94-1.78,6.97-3.34,3.59-3.01,6.69-6.59,9.31-10.47.96-1.61,2.09-3.31,2.15-5.24v19.05m0-19.05c.09,2.84,1.82,5.29,3.45,7.49,2.91,3.62,6.35,6.83,10.14,9.51,1.47.92,3.04,2.01,4.83,2.06h-18.43m18.43,0c-2.66.08-4.94,1.78-6.97,3.34-3.59,3.01-6.69,6.6-9.31,10.47-.96,1.61-2.09,3.31-2.15,5.24v-19.05" style="fill: #e41f13; stroke-width: 0px;"/>
    </g>
    <g id="p" data-name="diamond">
      <path d="m85.01,66.67h18.43c-2.1-.09-3.88-1.45-5.57-2.57-3.79-2.86-7.34-6.13-10.14-9.97-1.31-1.93-2.68-4.1-2.72-6.51m18.43,19.05c-2.66.08-4.94,1.78-6.97,3.34-3.59,3.01-6.69,6.59-9.31,10.47-.96,1.61-2.09,3.31-2.15,5.24v-19.05m0,19.05c-.09-2.84-1.82-5.29-3.45-7.49-2.91-3.62-6.35-6.83-10.14-9.51-1.47-.92-3.04-2.01-4.83-2.06h18.43m-18.43,0c2.66-.08,4.94-1.78,6.97-3.34,3.59-3.01,6.69-6.6,9.31-10.47.96-1.61,2.09-3.31,2.15-5.24v19.05" style="fill: #e41f13; stroke-width: 0px;"/>
    </g>
    <g id="q" data-name="diamond">
      <path d="m85.01,175.94h-18.43c2.1.09,3.88,1.45,5.57,2.57,3.79,2.86,7.34,6.13,10.14,9.97,1.31,1.93,2.68,4.1,2.72,6.51m-18.43-19.05c2.66-.08,4.94-1.78,6.97-3.34,3.59-3.01,6.69-6.59,9.31-10.47.96-1.61,2.09-3.31,2.15-5.24v19.05m0-19.05c.09,2.84,1.82,5.29,3.45,7.49,2.91,3.62,6.35,6.83,10.14,9.51,1.47.92,3.04,2.01,4.83,2.06h-18.43m18.43,0c-2.66.08-4.94,1.78-6.97,3.34-3.59,3.01-6.69,6.6-9.31,10.47-.96,1.61-2.09,3.31-2.15,5.24v-19.05" style="fill: #e41f13; stroke-width: 0px;"/>
    </g>
  </g>
</svg>