<?xml version="1.0" encoding="UTF-8"?>
<svg id="a" data-name="Calque 1" xmlns="http://www.w3.org/2000/svg" viewBox="0 0 169.01 245.84">
  <g id="b" data-name="jack diamond">
    <g id="c" data-name="base">
      <path d="m1.25,237.57c0,3.78,3.09,6.87,6.87,6.87h152.79c3.77,0,6.86-3.09,6.86-6.87V9.26c0-3.78-3.09-6.87-6.86-6.87H8.12c-3.78,0-6.87,3.09-6.87,6.87v228.32Z" style="fill: #fff; stroke: #010101; stroke-miterlimit: 4; stroke-width: 2.5px;"/>
    </g>
    <g>
      <path d="m9.25,62.52v177.32" style="fill: none; stroke: #010101; stroke-miterlimit: 4; stroke-width: 1px;"/>
      <path d="m9.25,239.84h132.23" style="fill: none; stroke: #010101; stroke-miterlimit: 4; stroke-width: 1px;"/>
      <path d="m160.77,183.57V5.99" style="fill: none; stroke: #010101; stroke-miterlimit: 4; stroke-width: 1px;"/>
      <path d="m160.77,5.99H28.54" style="fill: none; stroke: #010101; stroke-miterlimit: 4; stroke-width: 1px;"/>
    </g>
    <g>
      <g id="d" data-name="diamond">
        <path d="m37.32,33.03h18.43c-2.1-.09-3.88-1.45-5.57-2.57-3.79-2.86-7.34-6.13-10.14-9.97-1.31-1.93-2.68-4.1-2.72-6.51m18.43,19.05c-2.66.08-4.94,1.78-6.97,3.34-3.59,3.01-6.69,6.59-9.31,10.47-.96,1.61-2.09,3.31-2.15,5.24v-19.05m0,19.05c-.09-2.84-1.82-5.29-3.45-7.49-2.91-3.62-6.35-6.83-10.14-9.51-1.47-.92-3.04-2.01-4.83-2.06h18.43m-18.43,0c2.66-.08,4.94-1.78,6.97-3.34,3.59-3.01,6.69-6.6,9.31-10.47.96-1.61,2.09-3.31,2.15-5.24v19.05" style="fill: #e41f13; stroke-width: 0px;"/>
      </g>
      <rect x="18.82" y="14.06" width="9.69" height="37.95" style="fill: #fff; stroke-width: 0px;"/>
    </g>
    <g>
      <g id="e" data-name="diamond">
        <path d="m132.69,212.93h-18.43c2.1.09,3.88,1.45,5.57,2.57,3.79,2.86,7.34,6.13,10.14,9.97,1.31,1.93,2.68,4.1,2.72,6.51m-18.43-19.05c2.66-.08,4.94-1.78,6.97-3.34,3.59-3.01,6.69-6.59,9.31-10.47.96-1.61,2.09-3.31,2.15-5.24v19.05m0-19.05c.09,2.84,1.82,5.29,3.45,7.49,2.91,3.62,6.35,6.83,10.14,9.51,1.47.92,3.04,2.01,4.83,2.06h-18.43m18.43,0c-2.66.08-4.94,1.78-6.97,3.34-3.59,3.01-6.69,6.6-9.31,10.47-.96,1.61-2.09,3.31-2.15,5.24v-19.05" style="fill: #e41f13; stroke-width: 0px;"/>
      </g>
      <rect x="141.94" y="193.95" width="9.69" height="37.95" style="fill: #fff; stroke-width: 0px;"/>
    </g>
    <g>
      <line x1="50.15" y1="177.07" x2="119.87" y2="68.77" style="fill: none; stroke: #010101; stroke-miterlimit: 4; stroke-width: 7.25px;"/>
      <circle cx="52.47" cy="173.94" r="2.2" transform="translate(-5.44 1.73) rotate(-1.8)" style="fill: #fff; stroke-width: 0px;"/>
      <circle cx="52.47" cy="173.94" r=".7" transform="translate(-5.44 1.73) rotate(-1.8)" style="fill: #010101; stroke-width: 0px;"/>
      <circle cx="55.73" cy="168.86" r="2.2" transform="translate(-5.28 1.83) rotate(-1.8)" style="fill: #fff; stroke-width: 0px;"/>
      <circle cx="55.73" cy="168.86" r=".7" transform="translate(-5.28 1.83) rotate(-1.8)" style="fill: #010101; stroke-width: 0px;"/>
      <circle cx="59" cy="163.78" r="2.2" transform="translate(-5.12 1.93) rotate(-1.8)" style="fill: #fff; stroke-width: 0px;"/>
      <circle cx="59" cy="163.78" r=".7" transform="translate(-5.12 1.93) rotate(-1.8)" style="fill: #010101; stroke-width: 0px;"/>
      <circle cx="62.27" cy="158.7" r="2.2" transform="translate(-4.95 2.03) rotate(-1.8)" style="fill: #fff; stroke-width: 0px;"/>
      <circle cx="62.27" cy="158.7" r=".7" transform="translate(-4.95 2.03) rotate(-1.8)" style="fill: #010101; stroke-width: 0px;"/>
      <circle cx="65.54" cy="153.63" r="2.2" transform="translate(-4.79 2.13) rotate(-1.8)" style="fill: #fff; stroke-width: 0px;"/>
      <circle cx="65.54" cy="153.63" r=".7" transform="translate(-4.79 2.13) rotate(-1.8)" style="fill: #010101; stroke-width: 0px;"/>
      <circle cx="68.81" cy="148.55" r="2.2" transform="translate(-4.63 2.23) rotate(-1.8)" style="fill: #fff; stroke-width: 0px;"/>
      <circle cx="68.81" cy="148.55" r=".7" transform="translate(-4.63 2.23) rotate(-1.8)" style="fill: #010101; stroke-width: 0px;"/>
      <circle cx="72.07" cy="143.47" r="2.2" transform="translate(-4.47 2.33) rotate(-1.8)" style="fill: #fff; stroke-width: 0px;"/>
      <circle cx="72.07" cy="143.47" r=".7" transform="translate(-4.47 2.33) rotate(-1.8)" style="fill: #010101; stroke-width: 0px;"/>
      <circle cx="75.34" cy="138.4" r="2.2" transform="translate(-4.31 2.43) rotate(-1.8)" style="fill: #fff; stroke-width: 0px;"/>
      <circle cx="75.34" cy="138.4" r=".7" transform="translate(-4.31 2.43) rotate(-1.8)" style="fill: #010101; stroke-width: 0px;"/>
      <circle cx="78.61" cy="133.32" r="2.2" transform="translate(-4.15 2.54) rotate(-1.8)" style="fill: #fff; stroke-width: 0px;"/>
      <circle cx="78.61" cy="133.32" r=".7" transform="translate(-4.15 2.54) rotate(-1.8)" style="fill: #010101; stroke-width: 0px;"/>
      <circle cx="81.89" cy="128.24" r="2.2" transform="translate(-3.99 2.64) rotate(-1.8)" style="fill: #fff; stroke-width: 0px;"/>
      <circle cx="81.89" cy="128.24" r=".7" transform="translate(-3.99 2.64) rotate(-1.8)" style="fill: #010101; stroke-width: 0px;"/>
      <circle cx="85.15" cy="123.17" r="2.2" transform="translate(-3.83 2.74) rotate(-1.8)" style="fill: #fff; stroke-width: 0px;"/>
      <circle cx="85.15" cy="123.17" r=".7" transform="translate(-3.83 2.74) rotate(-1.8)" style="fill: #010101; stroke-width: 0px;"/>
      <circle cx="88.42" cy="118.09" r="2.2" transform="translate(-3.67 2.84) rotate(-1.8)" style="fill: #fff; stroke-width: 0px;"/>
      <circle cx="88.42" cy="118.09" r=".7" transform="translate(-3.67 2.84) rotate(-1.8)" style="fill: #010101; stroke-width: 0px;"/>
      <circle cx="91.69" cy="113.01" r="2.2" transform="translate(-3.5 2.94) rotate(-1.8)" style="fill: #fff; stroke-width: 0px;"/>
      <circle cx="91.69" cy="113.01" r=".7" transform="translate(-3.5 2.94) rotate(-1.8)" style="fill: #010101; stroke-width: 0px;"/>
      <circle cx="94.96" cy="107.94" r="2.2" transform="translate(-3.34 3.04) rotate(-1.8)" style="fill: #fff; stroke-width: 0px;"/>
      <circle cx="94.96" cy="107.94" r=".7" transform="translate(-3.34 3.04) rotate(-1.8)" style="fill: #010101; stroke-width: 0px;"/>
      <circle cx="98.23" cy="102.86" r="2.2" transform="translate(-3.18 3.14) rotate(-1.8)" style="fill: #fff; stroke-width: 0px;"/>
      <circle cx="98.23" cy="102.86" r=".7" transform="translate(-3.18 3.14) rotate(-1.8)" style="fill: #010101; stroke-width: 0px;"/>
      <circle cx="101.49" cy="97.78" r="2.2" transform="translate(-3.02 3.24) rotate(-1.8)" style="fill: #fff; stroke-width: 0px;"/>
      <circle cx="101.49" cy="97.78" r=".7" transform="translate(-3.02 3.24) rotate(-1.8)" style="fill: #010101; stroke-width: 0px;"/>
      <circle cx="104.76" cy="92.71" r="2.2" transform="translate(-2.86 3.34) rotate(-1.8)" style="fill: #fff; stroke-width: 0px;"/>
      <circle cx="104.76" cy="92.71" r=".7" transform="translate(-2.86 3.34) rotate(-1.8)" style="fill: #010101; stroke-width: 0px;"/>
      <circle cx="108.03" cy="87.63" r="2.2" transform="translate(-2.7 3.44) rotate(-1.8)" style="fill: #fff; stroke-width: 0px;"/>
      <circle cx="108.03" cy="87.63" r=".7" transform="translate(-2.7 3.44) rotate(-1.8)" style="fill: #010101; stroke-width: 0px;"/>
      <circle cx="111.3" cy="82.55" r="2.2" transform="translate(-2.54 3.54) rotate(-1.8)" style="fill: #fff; stroke-width: 0px;"/>
      <circle cx="111.3" cy="82.55" r=".7" transform="translate(-2.54 3.54) rotate(-1.8)" style="fill: #010101; stroke-width: 0px;"/>
      <circle cx="114.57" cy="77.47" r="2.2" transform="translate(-2.38 3.64) rotate(-1.8)" style="fill: #fff; stroke-width: 0px;"/>
      <circle cx="114.57" cy="77.47" r=".7" transform="translate(-2.38 3.64) rotate(-1.8)" style="fill: #010101; stroke-width: 0px;"/>
      <circle cx="117.83" cy="72.4" r="2.2" transform="translate(-2.22 3.74) rotate(-1.8)" style="fill: #fff; stroke-width: 0px;"/>
      <circle cx="117.83" cy="72.4" r=".7" transform="translate(-2.22 3.74) rotate(-1.8)" style="fill: #010101; stroke-width: 0px;"/>
    </g>
    <g id="f" data-name="jack">
      <text transform="translate(10.28 34.3) scale(.56 1)" style="fill: #e41f13; font-family: Arial-BoldMT, Arial; font-size: 39.99px; font-weight: 700; isolation: isolate;"><tspan x="0" y="0">J</tspan></text>
    </g>
    <g id="g" data-name="jack">
      <text transform="translate(159.74 211.53) rotate(-180) scale(.56 1)" style="fill: #e41f13; font-family: Arial-BoldMT, Arial; font-size: 39.99px; font-weight: 700; isolation: isolate;"><tspan x="0" y="0">J</tspan></text>
    </g>
    <g id="h" data-name="diamond">
      <path d="m14.89,52.53h7.68c-.87-.04-1.62-.6-2.32-1.07-1.58-1.19-3.06-2.56-4.22-4.15-.54-.8-1.12-1.71-1.13-2.71m7.68,7.94c-1.11.03-2.06.74-2.9,1.39-1.49,1.25-2.79,2.75-3.88,4.36-.4.67-.87,1.38-.89,2.18v-7.94m0,7.94c-.04-1.18-.76-2.21-1.44-3.12-1.21-1.51-2.65-2.84-4.23-3.96-.61-.38-1.27-.84-2.01-.86h7.68m-7.68,0c1.11-.03,2.06-.74,2.9-1.39,1.49-1.26,2.79-2.75,3.88-4.36.4-.67.87-1.38.89-2.18v7.94" style="fill: #e41f13; stroke-width: 0px;"/>
    </g>
    <g id="i" data-name="diamond">
      <path d="m155.11,193.31h-7.68c.87.04,1.62.6,2.32,1.07,1.58,1.19,3.06,2.56,4.22,4.15.54.8,1.12,1.71,1.13,2.71m-7.68-7.94c1.11-.03,2.06-.74,2.9-1.39,1.49-1.25,2.79-2.75,3.88-4.36.4-.67.87-1.38.89-2.18v7.94m0-7.94c.04,1.18.76,2.21,1.44,3.12,1.21,1.51,2.65,2.84,4.23,3.96.61.38,1.27.84,2.01.86h-7.68m7.68,0c-1.11.03-2.06.74-2.9,1.39-1.49,1.26-2.79,2.75-3.88,4.36-.4.67-.87,1.38-.89,2.18v-7.94" style="fill: #e41f13; stroke-width: 0px;"/>
    </g>
    <g id="j" data-name="use1587">
      <g id="k" data-name="jack 1">
        <rect x="9.07" y="101.7" width="3.08" height="1.62" transform="translate(-91.92 112.96) rotate(-89.91)" style="fill: #2b2f74; stroke-width: 0px;"/>
        <g>
          <path d="m42.71,166.57c1.07,2.9,3.06,5.3,4.92,7.76l.63-.46c1.14-1.79,3.02-5.26,3.02-5.26l-5.62-1.23" style="fill: #e41d13; stroke-width: 0px;"/>
          <path d="m57.63,146.95l-6.31,1.72c-1.5-.3-3.01-.61-4.5-.91-1.08-1.24-2.15-2.48-3.24-3.71l-.58-2.97-1.75.02-.71,2.12c-2.57,4.13-4.52,8.55-6.62,12.93l-1.45,3.31-.85,2.44c3.44,1.85,6.41,3.16,10.15,4.29,3.15.96,6.27,1.7,9.48,2.4,1.26-1.23,2.11-2.58,3.08-4.05,0,0,5.95-9.7,8.59-13.73l-.74-1.24" style="fill: #f7c213; stroke-width: 0px;"/>
          <path d="m56.11,25.62c1.94,1.45,3.89,2.86,5.88,4.24,4.33-2.84,8.84-5.36,13.83-6.87,5.07-1.53,10.39-2.2,15.6-3.06v-.04s7.27-.17,7.27-.17c1.68-2.28,3.21-4.54,4.67-6.96l-.87-.76c-3.94-1.58-7.34-3.35-11.56-4.14v.27c-4.33.3-8.45.91-12.73,1.62-3.64.61-7.66.74-11.2,1.69-2.34,1.77-4.24,3.99-6.45,5.91-2.43,2.11-4.9,4.18-7.37,6.23l-.29.89,1.63.2,1.58.94" style="fill: #e41d13; stroke-width: 0px;"/>
          <path d="m80.14,82.31l-4.47-4.36h-.11s-2.62-2.31-2.62-2.31v1.3s.02,0,.02,0c1.24,8.77,2.56,17.48,3.56,26.28l16.3-.11v-.85s1.52-.24,1.52-.24l1.38-2.36-2.95-4.07v-.05c-4.29-4.32-8.43-8.8-12.63-13.22" style="fill: #f7c213; stroke-width: 0px;"/>
          <path d="m46.3,91.58c-.81-.5-1.61-.99-2.42-1.48v1.39s2.42.09,2.42.09" style="fill: #e41d13; stroke-width: 0px;"/>
          <path d="m73.75,82.45l-.77-5.5h0s0-1.3,0-1.3c-4.85-4.28-9.81-8.27-14.92-12.24-3.41,9.71-7.01,19.05-11.49,28.32l-.16-.1-1.1,2.3,6.27.07-.07.51,6.42-.05.03,4.43,3.5-.02.03,5.14,13.78-.1v-.23s1.33-.05,1.33-.05c-.81-7.12-1.69-14.14-2.84-21.2" style="fill: #e41d13; stroke-width: 0px;"/>
          <polyline points="52.86 59.72 52.8 59.72 53.67 60.29 52.86 59.72" style="fill: #e41d13; stroke-width: 0px;"/>
          <path d="m45.06,145.73l1.77,2.03c1.5.3,3.01.61,4.5.91l6.31-1.72,2.11-1.89-.1-.22-.43-4.73c1.56-5.28,3.25-10.53,4.46-15.91h-.06s2.83-15,2.83-15l-9.61.8c-3.79,7.66-7.64,15.3-11.51,22.93l.23.37h-.12s-2.75,6.21-2.75,6.21c.29,1.51.59,3.03.88,4.54l1.48,1.67" style="fill: #2b2f74; stroke-width: 0px;"/>
          <path d="m76.57,108.38h.09s0-.04,0-.04l-10.12.43c-.98,5.14-1.95,10.3-2.92,15.44h.12c-1.06,5.38-2.98,10.65-4.52,15.92l.43,4.73c.73,1.55,1.47,3.09,2.2,4.64.49.13.99.27,1.48.4,4.75-6.8,9.18-13.83,13.73-20.77v-.26s-.41-.9-.41-.9l-.07-19.58" style="fill: #e41d13; stroke-width: 0px;"/>
          <path d="m9.57,103.41c.06,7.46.08,14.92.18,22.39.04,3.6.32,6.74,1.1,10.24.89,3.98,1.34,8.19,3.33,11.76l.08-.22v-.12c.81-4.1,1.64-8.18,2.4-12.29h-.11c2.13-8.12,4.3-16.12,6.95-24.1h.07c1.95-4.41,3.47-8.72,7.08-12.04,3.78-3.48,8-5.72,12.76-7.58l.25-1.5c-3.05-1.85-6.26-3.38-9.44-4.98,0,0-3.52-.63-5.36-.71l-5.1,1.87v-.03c-.42.22-6.02,3.09-8.11,4.36-1.56.95-2.71,2.63-3.93,3.95l-1.05,4.35" style="fill: #2b2f74; stroke-width: 0px;"/>
          <path d="m23.73,86.1v.03s5.1-1.87,5.1-1.87c1.84.08,3.67.19,5.51.33,1.85-4.6,4.19-8.96,6.77-13.19,2.73-4.5,6.18-8.76,8.48-13.46l-1.75-1.46-4.58.05-2.87,1.19-2.86,2.45c-1.58,2.55-3.2,5.06-4.87,7.56l-.29-.1c-3.12,2.9-5.95,5.76-8.71,8.99l-.08-.03-1.71,2.82c-.52,2.51-.82,4.73-.89,7.29.9-.15,1.95-.18,2.75-.61" style="fill: #e41d13; stroke-width: 0px;"/>
          <path d="m44.2,66.31c-3.69,6.07-7.35,12.05-10.02,18.66,4.14,2.08,8.16,4.19,12.1,6.61-.97-.04-1.94-.08-2.91-.11-4.56,1.78-8.74,3.89-12.37,7.22-3.8,3.5-5.41,7.73-7.46,12.4h-.07c-2.65,7.97-4.81,15.96-6.95,24.1h.11c-.77,4.11-1.6,8.19-2.41,12.29.73,5.98,4.77,13.05,9.88,16.31,0-4.63-.11-9.19.74-13.75,1-5.31,2.04-10.55,3.31-15.79h0c2.13-7.91,4.95-15.07,8.38-22.51h.17s1.43-2.99,1.43-2.99l4.08,1.98,1.67-.85-1.13-1.97c1.53-1.87,3.16-3.21,5.29-4.36l2.2.12c.42-3.22.85-6.43,1.27-9.65l-6.27-.07,1.1-2.3.16.1c4.48-9.28,8.08-18.61,11.49-28.32-2.61-2.1-5.52-3.87-8.32-5.68-1.47,3.07-3.52,5.76-5.47,8.58" style="fill: #f7c213; stroke-width: 0px;"/>
          <path d="m76.57,108.38l.07,19.58c.16.34.31.68.46,1.03l13.54-21.02c-4.69.14-9.38.27-14.07.41" style="fill: #f7c213; stroke-width: 0px;"/>
          <path d="m72.46,58.7l4.86,4.71c4.44-.03,9.24.49,13.64-.19,1.75-2.98,3.28-6.08,4.91-9.13l-1.04-.7-2.37-.08-2.16,4.97-1.22,1.13-3.24.03-.02.14c-2.16,0-4.19.05-6.31.34l-2.11-1.03c-3.12-3.39-6.53-6.41-10.13-9.29l-3.85.32c2.98,2.95,5.98,5.89,9.03,8.78" style="fill: #e41d13; stroke-width: 0px;"/>
          <path d="m90.03,63.31c-4.43.03-8.87.06-13.3.1,3.45,3.77,6.69,7.71,10.3,11.31,1.26-3.76,2.39-7.53,4.08-11.11v-.31s-1.08,0-1.08,0" style="fill: #f7c213; stroke-width: 0px;"/>
          <path d="m107.99,63.12c0,1.76.01,3.53.03,5.29l3.88,6.19c1.5-2.31,3-4.6,4.37-6.99l.15-1.01c-1.58-2.06-3.09-4.16-4.6-6.28-1.28.31-2.55.64-3.83.95v1.84" style="fill: #f7c213; stroke-width: 0px;"/>
          <path d="m107.96,63.15l-.02-1.67-2.86,1.57c-2.72,2.96-4.91,5.87-7.17,9.2-1.86,2.73-2.93,6.03-4.41,9l-1.14.48c2.42,4.04,4.85,8.09,7.26,12.13l12.05-18.94-3.65-6.23c-.03-1.85-.05-3.7-.07-5.54" style="fill: #e41d13; stroke-width: 0px;"/>
          <path d="m57.16,62.74c7.01,5.43,13.89,10.91,20.31,17.03,6.49,6.19,12.47,12.91,18.79,19.28l3.16-4.95c-2.2-3.72-4.39-7.45-6.65-11.14,3.09-7.48,6.8-13.94,12.28-19.91,1.9-1.04,3.56-1.79,5.63-2.44l.97-.9-2.21-2.34c-3.57-1.83-7.14-2.64-11.03-3.65l-2.43.12c-3.65,6.81-6.51,13.54-8.97,20.87-4.33-4.31-8.24-9.06-12.37-13.57v-.03c-3.71-3.79-7.49-7.49-11.26-11.23l-2.41-.24-1.84,2.71-3.45-.33c-2.57,1.47-5.13,2.88-7.75,4.24,3.08,2.16,6.16,4.31,9.23,6.48" style="fill: #2b2f74; stroke-width: 0px;"/>
        </g>
        <path d="m52.12,24.52c.95.17,2.09.21,2.93.72,1.41.84,2.68,1.84,3.88,2.96.54.5,2.26,1.67,2.39,2.48.22,1.42.37,2.85,1.03,4.15.55,1.08,1.96,2.11,1.97,3.4.02.87.14.92-.66,1.28-.55.24-.98-.22-1.32-.65-.26-.32-.59-.87-1.01-.92-.66-.07-.97.67-1.26,1.12-.63,1,0,2.25-.58,3.14-.26.4-.92.55-1.28.86-.55.46-1,1-1.28,1.67-.24.57-.34,1.25-.79,1.7-.9.9-3.16.14-3.13,2.1,2.03-.41,3.45.97,5.45.95-.61,1.08-1.89.55-2.87.58-1.27.05-1.77.44-2.64,1.27-.34.33-.49.79-.78,1.16-.36.43-.82.76-1.19,1.19-.68.82-1.67,1.3-2.62,1.75-2,.95-4.18.31-6.25,1.09-2.19.83-3.9,2.2-5.38,3.98-1.32,1.59-1.73,3.7-3.02,5.26-1.48,1.79-3.43,3.4-5.19,4.91-3.27,2.81-6.47,6.28-7.5,10.59-.47,1.94,0,4.57-1.53,6.07-1.62,1.57-3.87,2.24-5.57,3.72-1.62,1.4-2.61,3.23-3.26,5.25-1.79,5.42-1.25,11.16-1.22,16.79.01,3.1.09,6.2.08,9.29,0,2.92-.14,5.8.11,8.71.25,2.91,1.01,5.86,1.57,8.72.55,2.82,1.19,5.42,2.45,7.99.57,1.18.74,2.51,1.23,3.73.58,1.45,1.16,2.91,1.9,4.29,1.28,2.42,2.98,4.7,4.84,6.7.71.76,1.79,1.34,2.68,1.87,1.97,1.19,3.94,1.69,6.22,1.09,1.08-.29,2.04-.81,3.09-1.13,1.05-.32,2.02.19,3,.51,1.36.45,2.71.94,4.08,1.39,1.73.58,2.49,2.48,3.45,3.88.6.88,1.28,1.74,1.8,2.67.46.83.78,1.8,1.56,2.42,1.71-2.65,3.82-5.33,5.14-8.2-1.89.15-3.64-.79-5.37-1.37-1.92-.65-3.87-1.18-5.78-1.89-1.88-.7-3.75-1.4-5.63-2.09-1.09-.4-4.05-1.71-2.54-3.26.32-.33.75-1.07,1.27-.97,1.5.28,3.25,1.25,4.39,2.25-.84.04-1.62.26-2.47.26.16.99.88,1.28,1.66,1.77.4.25.5.38.96.32.45-.06.9-.14,1.36-.15-.02-.86-.71-1.62-1.25-2.22,1.27.15,2.42.74,3.59,1.2,1.28.52,2.6.91,3.91,1.35,2.52.85,5.23,1.07,7.63,2.28.29-1.01,1.14-1.74,1.46-2.73-1.55.28-3.32-.67-4.82-1.03-1.99-.47-3.9-1.26-5.82-1.94-1.94-.69-3.86-1.42-5.72-2.3-.89-.42-1.76-.87-2.62-1.35-.72-.4-1.77-.36-1.45-1.31.33-1,1.08-1.9,1.96-2.44.87-.53,2.08-1.44,3.11-1.47.91-.03,1.05.08,1.78.63.39.29.62.74.88,1.15-1.1.23-2.02-1.23-2.98-.84-.72.31-1.36,2.38-1.49,3.04-.12.6.88.61,1.22.66.29.04.6-.03.89-.05.24-.02.49.2.72.25,1.48.33,1.48-1.05.89-2.07.79,0,1.2.8,1.44,1.45.37.98.88,1.77,1.54,2.6.34.43,1.63.94,2.14.85,1.03-.18,1.75-.34,2.58-.99-.35,1.23,1.26,2.27,2.01,3.03.41.42,1.28-.72,1.53-.98.36-.38.71-.98.4-1.48-.15-.24-1.68-.9-.68-1.16.65-.18,1.25.17,1.53.76.57,1.17.92,2.6,2.16,3.24.42-.69.79-1.39,1.12-2.14.22-.5.75-.68.94-1.05.26-.51.44-.96.6-1.51.13-.46-.37-.55-.72-.79-.35-.23-.51-.44-.86-.09-.26.27-.27.85-.28,1.21-.01.27-.07,1.03-.58.66-.11-.09-.34-.95-.41-1.11-.37-.83-.87-1.31-1.64-1.73-.81-.45-1.37-.65-2.33-.58-.86.06-1.5.25-2.32.5.12-.47.24-1.3-.39-1.49-.52-.17-1.35-.63-1.89-.65-.74-.04-1.25-.22-1.44.65-.13.58-.32,1.16-.99,1.28,0-1.55-.88-3.07-1.52-4.45,2.92.72,5.62,2.36,8.5,3.27,1.55.49,3.15.9,4.69,1.41.99.33,2.41.94,3.42.39-.32-.37-2.48-.92-2.48-1.05,0-.97,1.88-.3,2.42-.97.24-.3.66-1.14,1.11-1.15.33,0,.52.04.84.14.17.06.35-.54.41-.71.22-.59.03-.48-.42-.78-.39-.25-.75-.59-1.02-.97-.51-.75-1.63-3.78-2.54-3.52-1.19.34-2.21,1.53-3.36,2.06-1.23.57-2.55.95-3.9,1.12-1.97.25-4.53-.44-6.04-1.71-1.73-1.46-2.35-3.59-2.42-5.76-.02-.54-.07-1.09-.02-1.63.08-1.06.7-2.02,1.16-2.95.6-1.21,1.18-2.42,1.78-3.64,1.3-2.63,2.33-5.37,3.65-8,1.27-2.51,2.49-5.05,3.73-7.58.63-1.27,1.25-2.52,1.9-3.78.41-.8.85-2.13,1.94-2.15-.2,1.29-1.03,2.45-1.6,3.6-.63,1.25-1.22,2.51-1.78,3.79-1.16,2.67-2.4,5.3-3.54,7.99-1.02,2.43-2.25,4.8-3.11,7.3-.86,2.49-1.9,5.63-1.22,8.26.61,2.35,2.45,3.59,4.74,3.94,2.06.32,4.47-1.08,5.88-2.45.76-.74,1.6-1.52,2-2.53.93-2.33,1.91-4.54,2.55-6.98.71-2.69,1.49-5.36,2.09-8.08.62-2.79,1.2-5.58,1.78-8.38.29-1.39.57-2.8.85-4.19.14-.69.2-2.05.79-2.57.47-.41.9-.48,1.45-.76.58,2.72-.33,5.72-.77,8.41-.51,3.11-1.23,6.17-1.79,9.27-.52,2.88-1.06,5.76-1.65,8.63-.62,2.98-1.25,5.72-.89,8.79.04.37.74,2.54,1.23,2.54,1.04,0,.33-1.49.12-1.98-.69-1.59-.6-3.57-.42-5.28.41-3.83,1.58-7.62,2.29-11.4.68-3.56,1.51-7.11,2.06-10.69.27-1.74.55-3.5.73-5.25.07-.65-.03-2.46.79-2.72,1.08-.34,2.04-.55,3.18-.6.96-.04,2.22-.38,2.68.66.56,1.25.1,2.74.11,4.05,0,1.74.02,3.48.04,5.22.03,3.53-.2,7.06-.18,10.59.84-.5,1.42-1.58,1.72-2.48-.61.32-.74.4-.74-.29-.02-3.55.26-7.11.21-10.66,0-.81-.78-7.17.65-7.27.97-.07.77,2.21.84,2.81.11.95-.14,1.88-.04,2.83.11,1.14.11,2.26.09,3.4-.01,2.39-.05,4.79-.03,7.18,1.13-.25,1.08-2.04,1.07-2.9-.03-1.65-.12-3.3-.14-4.95-.02-2.21-.24-4.43-.21-6.64.04-2.39,1.35-2.17,3.2-2.53.39-.08,1.08-.21,1.44-.07.84.33.92.39,1.15,1.25.49,1.85.08,4.22.1,6.13,1.11-.91,1.12-2.52,1.07-3.83-.03-.79-.11-1.58-.08-2.38.02-.48.07-.97.19-1.43.03-.15.49-.07.53.06.38,1.35.49,2.7.5,4.1,1.24-1,.57-2.37.92-3.62.25-.87,1.2-.67,1.86-.62.5.04,1.42-2.14,1.66-2.5.78-1.23,2.37-2.87,2.54-4.35.08-.69.01-1.39.11-2.08.25.46.25.98.25,1.48.45-.27,1.84-1.99,1.29-2.36-1.82-1.23-3.15-3.49-4.67-5.07-1.85-1.93-3.63-3.92-5.51-5.81-4.01-4-8.04-8-12.1-11.96-3.8-3.72-7.86-7.17-12.14-10.32-2.11-1.56-4.27-3.05-6.46-4.49s-4.53-2.69-6.5-4.43c1.11-.18,2.01-1.06,3-1.52,1.22-.56,2.41-1.42,3.64-1.88,1.04-.38,2.02.02,3.08-.09,1.37-.16,1.78-1.43,2.72-2.24.51-.44.85-.34,1.42.02,3.81,2.37,7.03,5.95,10.05,9.22,3.32,3.59,6.61,7.22,9.84,10.89,3.2,3.64,6.13,7.47,8.84,11.49,1.37,2.04,2.7,4.12,3.99,6.22.64,1.05,1.27,2.1,1.9,3.15.56.95,1.51,2.08,1.53,3.24,1.44-1.24,1.67-3.16,1.92-4.94.35-2.41.94-4.88,1.43-7.34.48-2.39.91-4.81,1.09-7.24.19-2.46.1-4.54-.53-6.92-.23-.87-.21-1.11.08-1.96.67.69,1.36,1.57,1.66,2.51.16.5.31.98.42,1.49.27,1.18,3.22-1.98,3.12-.07-.04.88-1.36,1.81-1.78,2.52-1.57,2.65-2.28,5.92-3.02,8.88-.37,1.45-.63,2.92-.87,4.4-.22,1.34-1.13,3.2-.85,4.53.62-.54.98-1.28,1.51-1.91.62-.75.61-.83.45-1.66-.2-.95.21-2.19.39-3.11.26-1.32.59-2.61.96-3.9.66-2.29,1.12-4.88,2.52-6.85.71-1.01,1.56-1.38,2.34-.23.85,1.25-.27,2.63-1.02,3.61-1.13,1.5-1.1,2.56-1.05,4.37.79-.69.8-1.81,1.26-2.69.57-1.09,1.28-2.1,1.66-3.26.22.21.56.74.87.32.1-.15.64-.77.58-.88-1.29-2.03-2.72-4.03-3.47-6.35.87.56,1.22,1.62,1.63,2.53.52,1.19,1.18,2.3,1.88,3.39.49-.28.75-.98.49-1.48.23-.04.5-.04.71-.14.48-.22.03-2.58.04-3.14.02-1.31-.02-2.31-1.27-2.88-.55-.25-1.18-.4-1.78-.48-.42-.06-.48.08-.5-.38-.02-.36-.03-.69-.02-1.05.03-.8-.14-3.15.99-3.3-.36.67-.37,1.74-.32,2.49.04.55-.09,1.15.4,1.5.39.29,1.04.42,1.49.56,1.16.38,1.41,1.05,1.44,2.19.03.98-.1,2.03.52,2.87.69-.6,1.39-1.67,1.8-2.49.18-.36.54-1.1.53-1.48-.02-1-1.43-2.29-1.99-3.02-1.01-1.31-1.61-2.61-2.36-4.05-.89-1.72-3.63-3.17-5.31-3.91-1.02-.45-2.13-.6-3.21-.82-1.23-.24-2.38-.68-3.57-1.07-1.21-.4-2.39-.61-3.67-.62-1.1,0-2.45-.11-3.43-.68-.77-.45-.63-.69.01-1.17.56-.41,2.38-.31,3.07-.35.85-.04,2.14-.24,2.5-1.16.17-.43.66-1.19.63-1.65-.06-.59-.24-1.09-.37-1.66-.21-.85.93-1.9,1.24-2.68.21-.53.31-.96.23-1.54-.22-1.51.56-1.31,1.69-1.88,1.21-.61.64-2.18.39-3.19-.39-1.65-.93-3.26-1.37-4.89-.47-1.71-.53-3.18-.6-4.92-.06-1.65-.76-3.28-1.17-4.86-.41-1.6-.39-2.32.52-3.67.86-1.27,1.82-2.48,2.71-3.73.38-.52,1.67-1.87,1.24-2.59-.84-1.42-3.6-1.69-4.98-2.39-2.25-1.13-4.38-2.45-6.98-2.47-3.96-.02-7.94.9-11.82,1.57-3.87.68-7.79,1.17-11.69,1.61-1.84.21-3.24,1.81-4.48,3.06-1.34,1.35-2.69,2.67-4.12,3.92-1.51,1.32-3.02,2.66-4.63,3.87-.8.65-2.93,1.54-2.93,2.81m1.49-.5c.71-1.44,2.44-2.35,3.66-3.33,1.61-1.29,3.18-2.62,4.69-4.02,1.35-1.24,2.53-2.62,3.81-3.93,1.31-1.33,2.74-1.55,4.56-1.68,4-.26,7.91-.79,11.86-1.5,3.72-.67,7.8-1.52,11.58-.85,2.09.37,3.89,1.6,5.79,2.45.67.31,3.05.76,2.94,1.78-.09.86-.23.76-1.05,1.04-.53.18-1.18-.3-1.66-.46-1.1-.37-2.18-.82-3.22-1.3-1.84-.86-3.68-2.19-5.77-2.28-1.43-.05-3,.55-4.41.83-1.72.34-3.43.7-5.17.93-3.45.47-6.95,1.07-10.43,1.28-1.57.1-2.81.39-4.01,1.47-1.03.92-1.81,2.06-2.69,3.11-2.08,2.49-4.97,4.87-7.82,6.4-.89.46-1.72.37-2.65.05m36.77-12.13c-.08.44-.3.84-.49,1.25-.26-.4.16-1.01.49-1.25m-3.71.27c-.2,1.33-1.83,2.58-1.45,3.97.92-.99,1.88-1.99,2.45-3.23.64,1-1.39,2.58-1.21,3.72.73-.36,1.26-1.08,1.97-1.5-.21.62-.41,1.33-.23,1.98,1.43-.87,1.83-2.81,3.19-3.74-.56,1.21-1.8,2.36-1.96,3.73,2.03-.03,2.65-3.56,4.17-4.49-.06.32-2.99,4.86-2.44,4.96.56.1,1.48-1.39,1.69-1.73.63-.98,1.2-2.14,2.24-2.76-.38,1.17-1.15,2.16-1.81,3.16-.05.08-1.08,2.08-.57,1.76.91-.56,1.49-1.52,2.03-2.41.46-.74.88-1.83,1.83-2.04-.56,1.69-2.21,2.9-2.44,4.72,1.78-.59,1.96-3.74,3.68-3.98-.24,1.64-2.2,2.7-1.95,4.47,1.54-.93,1.63-3.41,3.43-3.98-.35,1.29-1.26,2.49-1.8,3.72-.57,1.3-3.96.82-5.14.88-4.1.24-8.28,1.1-12.29,1.94-3.88.82-7.49,2.12-11.08,3.77-1.81.84-3.46,1.85-5.16,2.88-1.79,1.1-2.79,1.14-4.29-.33-.8-.78-1.73-1.52-2.45-2.37-.4-.48-.21-.54.22-.8,2.29-1.4,4.37-3.17,6.24-5.09.93-.95,1.84-1.95,2.69-2.98.69-.85,1.29-1.7,2.39-2.02,2.59-.75,5.51-.65,8.19-1.02,2.7-.37,5.39-.95,8.13-.97-.23,1.12-1.28,1.85-1.46,2.98,1.16-.21,2.55-2.07,2.2-3.23.34.02.66.02.99.02m-4.68,2.75c.48.06,2.23-1,1.66-1.56-.63-.62-1.59.98-1.66,1.56m7.17-.79c-.37.75-.74.37,0,0m11.39,1.16c.54,1.03-1.27,3.16-2.2,3.48.13-1.09,1.3-2.89,2.2-3.48m-2.3,24.51c-.58.12-.75-.35-.64-.85.11-.53.57-.94.87-1.37-.6.22-1.44.79-1.48,1.49-.06,1.16,1.19,1.25,1.99,1.22,0,.84.04,1.53-.75,2.04-.53.35-1.86.87-1.71-.29-.44.49-.9,1.07-.97,1.74.66.08.95.08,1.4.58.54.59.68,1.48,1.05,2.18.35.67.91,1.58.56,2.37-1,2.23-3.99,1.81-6.05,1.83-1.88.02-4.46-.32-6.1-1.3-1.47-.87-2.83-1.92-3.97-3.18-1.02-1.12-1.67-3.07-2.97-3.84.97,1.76,1.92,3.74,3.48,5.08,1.09.94,2.26,1.8,3.56,2.44,1.29.63,2.74.74,4.02,1.35.84.41.52,3.97.36,4.65-.2.87-.72,2.29-1.46,2.86-1.34,1.02-4.1.4-5.68.5-2.37.14-4.8.75-6.6-1.14-1.7-1.79-3.38-3.56-5.25-5.18-.84-.72-1.68-1.46-2.55-2.13-.7-.55-1.58-1.18-1.47-2.19.02-.19.38-1.04.58-.92.38.23.72.5,1.08.75,1.04.75,1.83.79,3.09.78,1.01-.02,1.79-1.09,2.38-1.77,1.3-1.53.18-4.16-1.68-4.53.22-.69.86-1.14,1.44-1.53.71-.48,1.4-1.37,2.24-1.62.91-.27,1.54,1.2,2.13,1.65,1.08.81,2.28-1.58,2.82-2.21.58-.68,1.32-1.16,1.95-1.77.72-.7.97-1.81,1.33-2.73.59-1.48-1.02-3.1-.43-4.5.46-1.09.96-2.02,1.18-3.18.09-.49.02-.93-.03-1.44-.05-.53-.36-.83.29-.99,1.07-.26,1.67-.87,2.52-1.58-.52.22-1.14.21-1.69.27-.72.08-.71-.95-.77-1.37-.14-.92,1.92-1.06,2.57-1.14,2.66-.35,5.3-.75,8-.54.75.06.91.06,1.32.68.69,1.05.85,2.42,1.22,3.59.44,1.4.5,2.6.44,4.05-.06,1.41.43,2.7.79,4.05.38,1.49.76,2.97,1.17,4.45.14.5.94,3.07-.29,2.85-.98-.19-2.64-1.43-3.25-.13m-14.48-17.97c0,.84-.24,1.63-.23,2.47-.47-.51-.38-2.08.23-2.47m-2.97.52c-.17,1.05-.61,1.94-.69,3.02-.12,1.6.4,3.22,1.1,4.63.66,1.33,1.45,2.67,1.4,4.21-.98-.26-1.5-1.54-2.02-2.3-.69-1.04-1.5-1.99-1.77-3.25-.33-1.65-.64-6.23,1.97-6.31m-2.47.76c-.89,2.73-1.15,5.93.45,8.5.78,1.25,1.93,2.54,2.31,3.97.31,1.18.73,3.47-.92,3.84-.03-1.17-.59-2.09-1.25-3-1.3-1.8-3.66-3.13-4.22-5.41-.3-1.25-.3-2.4-.31-3.67.39.47.37,1.35.59,1.9.28.7.6,1.4,1.01,2.03.94,1.5,2.52,2.48,3.62,3.87.69.87.78,1.99,1.05,3.03.71-1.19-.11-3.1-1.05-3.96-1.22-1.12-2.48-2.04-3.27-3.52-.74-1.4-.89-3.11-.61-4.66.16-.88,1.35-3.56,2.6-2.92m-2.23.26c-.02.47-.24.85-.49,1.24-.29-.22-.6-.39-.75-.73.4-.22.81-.37,1.24-.5m5.44-.04c0,1.14-.01,2.28.13,3.4.18,1.37.73,2.64.91,4.01-.96-.71-1.5-2.64-1.74-3.75-.23-1.04-.35-2.99.69-3.66m3.47.72c.12.41.24.81.26,1.24-.41-.26-.56-.84-.26-1.24m-11.63.58c-.21.33-.44.51-.73.75.04-.47.23-.8.73-.75m9.15-.06c.54.8,1.24,1.64,1.48,2.61.05.21-.53.37-.71.42-.29.09-.7.32-.79-.01-.2-.78-.52-2.32.02-3.02m5.24,5.65c.72-.57.75-1.66,1.62-2.18,1.01-.61,2-.99,3.16-1.25,2.08-.47,4.29.05,6.33.39-.16-1.17-2.05-1.26-2.93-1.5-.98-.27-2.3,0-3.27.24-1.04.25-2.3.68-3.15,1.33-.52.39-.97.69-1.36,1.22-.36.49-.32,1.16-.41,1.76m-15.36-4.34c-.16.98-.62,1.94-.84,2.91-.39,1.69.13,3.14.74,4.69.52,1.34,1.15,3.05.29,4.38-1.18,1.8-3.4,2.81-4.16,4.89-.62,1.68-.27,4.7-2.06,5.69.05-.34.15-.66.24-.99-1.36.34-2.63.17-4.01.26-.67.05-1.33.27-1.81.72-.85.79-.84,2.74-2.08,3.15-.67.23-1.37-.18-2.01-.23-.98-.07-1.26.11-2.12.6-.52.31-.96.83-1.54,1.03.1-.88.62-2.06,1.55-2.32,1.15-.31,2.08.59,3.15.36,1.56-.33,1.31-2.09,2.06-3.09.4-.52,1.02-.82,1.37-1.38.4-.64.59-.57,1.32-.34.27.09.42.14.61.36.17.19-.1.39.21.44,1.26.18,2.07.03,2.85-.99.33-.43.76-.81.83-1.34.19-1.4.24-3.35,1.44-4.3,1.12-.89,2.5-1.58,3.27-2.83,1.03-1.68-.38-3.91-.9-5.54-.67-2.08-.23-3.85.7-5.75.2-.46.39-.35.89-.34m1.24-.02c-.06,1.73-.57,3.63.04,5.33.56,1.54,1.77,3.41,1.72,5.09-.02,1.17-.29,1.77-.79,2.85-.69,1.5-2.72,2.63-2.91,4.35-.11.96.04,1.61.58,2.43.31-.2.61-.44.99-.5-.16,1.36-2.1.96-2.38-.11-.21-.78-.29-1.23-.19-2.02.07-.6.21-1.21.32-1.81-.78.88-1.07,1.66-1.2,2.82-.05.51.11,1.09.18,1.6.04.31.97.89,1.21,1.09,1.72,1.51,4.08-1.34,2.06-2.82.44-.38.84.14,1.1.45.4.5.19,1.16.16,1.78-.07,1.27-1.18,1.53-2.19,1.72-.56.11-.87.26-1.37-.01-.65-.36-1.04-.57-1.5-1.14-.61-.78-.63-2.15-.48-3.07.17-1.04.67-2.08,1.5-2.75.85-.68,1.82-1.17,2.66-1.9.7-.61,1.13-1.98,1.19-2.89.11-1.85-1.45-3.12-1.96-4.75-.22-.67-.18-1.33-.18-2.03,0-1.2.47-2.91,1.46-3.71m-3.71.28c-.04.98-.21,1.94-.33,2.92-.26,2.19,1.38,3.75,1.55,5.77.07.84.29,2.23-.65,2.68-.05-2.19-2.16-4.09-2.9-6.1-.69-1.88-.21-5.28,2.32-5.27m-3.45,2c-.04,1.35-.35,2.65.39,3.91.65,1.1,1.93,2.46,2.13,3.74-.38-.18-.68-.48-1-.73-.1.61.26,1.34.26,1.98-1.16-.7-1.97-2.93-2.19-4.19-.15-.94-.58-4.05.4-4.71m23.28,3.79c.83.53.91,1.74,2,1.96-.1-.49-.33-.98-.25-1.48,1.09.87,2.4.92,3.72.72,0,.33,0,.66,0,.99,1.08-.19,1.12-2.03,1.27-2.84.11-.62,1.6-3.64-.41-3.25-1.44.28-2.42,1.2-3.64,1.91-.86.5-2.49.84-2.69,1.98m-5.71-3.42c.08.17.17.33.25.5-.62.14-.66-.55-.25-.5m-20.29.89c0,.62-.26,1.25-.23,1.86.13,2.27,1.46,4.09,1.77,6.29-1.42-.98-1.88-2.69-2.31-4.25-.21-.78-.58-4.14.77-3.9m1.24,0c0,1.5.06,3.08.67,4.48.69,1.61,1.45,3.14,1.63,4.9-.59-.64-.64-1.62-.93-2.41-.34-.91-.79-1.78-1.13-2.7-.42-1.15-1.28-3.21-.23-4.28m29.45.28c-.37.62-.98,1.16-1.72,1.25.15-.68,1.06-1.23,1.72-1.25m-1.47,2.23c.25-.13.67-.4.97-.37.53.07.44.44.51.9.05.31-.7.28-.86.24-.37-.07-.49-.47-.62-.76m-9.65-.17c.37,1.1.46,2.06.52,3.22-.4-.48-.99-2.71-.52-3.22m-4.66,5.48c.17.26,1.14,2.44.41,2.19-.83-.28-1.22-1.63-.41-2.19m-18.05,2.36c.38.33.65.76,1,1.12.51.54.9.65,1.61.91.96.35,1.72-1.4,2.6-1.58-.2,1.44-1.56,3.14-3.19,2.89-1.3-.19-3.02-2.05-2.01-3.35m5.72,2.68c0,.93.05,1.61-.34,2.46-.42.91-.64,1.89-1.86,1.76.39-.65,1.09-1.07,1.47-1.74-.52.11-1.01.34-1.53.46-.87.21-1.77-.06-2.64.12-.85.18-1.62.58-2.49.7-.02-1.75,2.12-1.83,3.33-2.02.65-.11,1.64-.13,2.22-.47.65-.39,1.21-.89,1.85-1.27m-6.18.78c-.49.75-1.68,1.6-2.46,2,.03-1.25,1.31-1.99,2.46-2m38.6,1.95c-.58-.19-1.71-.71-.78-1.19.84-.43,1.09.58.78,1.19m-35.35,3.22c-.39.28-.76.26-1.24.26.35-.28.81-.24,1.24-.26m1.01,1.98c2.02-1,3.9.37,5.38,1.7,1.85,1.67,3.76,3.28,5.46,5.09,1.33,1.42,2.67,3.24,4.82,3.23.8,0,1.6-.24,2.42-.26.86-.02,1.71-.03,2.57-.03,1.42,0,3.31.27,4.58-.52,1.1-.68,1.78-2.21,2.26-3.37.33-.77,1.53-2.94,2.73-2.06.27.2.07,1.22-.12,1.49-.84,1.22-1.44,2.57-2.06,3.91-.42.88-.92,2.42-1.76,3.02-.74.53-2.41.23-3.26.27-1.44.06-2.87.16-4.3.26-2.13.15-5.01.8-6.77-.74-2.2-1.93-4.03-4.25-6.14-6.28-1.03-1-2.03-2.04-3.11-2.98-.98-.79-2.14-1.6-2.73-2.72m39.63,5.66c-.51.89-1.33,1.53-2.09,2.18-.86.74-1.62,1.6-2.4,2.43-1.54,1.62-2.73,3.57-3.77,5.53-1.1,2.06-1.9,4.25-2.64,6.47-.74,2.17-1.67,4.3-2.29,6.5-.94-.57-1.53-1.54-2.2-2.37-.73-.91-.95-1.73-.66-2.86.93-3.66,2.34-7.13,3.82-10.59.72-1.67,1.41-3.35,2.26-4.95.65-1.21,1.71-3.52,3.12-4.02,1-.35,2.12.24,3.06.54,1.25.39,2.5.84,3.79,1.15m-82.67,30.28c-.02-2.22.08-4.35.94-6.44,1.71-4.1,5.43-6.79,8.59-9.7.81-.76,1.47-1.66,2.21-2.49.68-.76,1.53-1.42,2-2.35,1.05-2.03,1.9-3.91,3.66-5.45,1.66-1.45,3.41-2.63,5.64-2.93,1.22-.17,2.19.13,3.36.45,1.22.32,1.19,1.35.68,2.25-1.15,2.03-2.83,3.81-4.07,5.8-1.49,2.4-2.94,4.82-4.37,7.27-1.29,2.19-2.58,4.37-3.64,6.68-.67,1.45-1.22,4.79-3.15,4.91-.96.06-2.03-.19-2.99-.32-3.26-.46-5.75,2.3-8.86,2.32m89.62-26.37c-1.93.65-4,1.23-5.57,2.58-3.41,2.92-6.26,6.47-8.5,10.37-1.03,1.79-2.03,3.67-2.66,5.64-.22.7-.45,1.42-.82,2.07-.21.35-1.17,1.45-1.46.7-.07-.18-.28-.52-.25-.71.42-2.71,1.52-5.38,2.48-7.95.97-2.65,2-5.4,3.47-7.82,1.46-2.4,3.41-4.3,5.48-6.17.84-.75,1.62-1.63,2.67-2.1.93-.41,2.16.48,2.87.99.77.55,2.17,1.36,2.29,2.41m-60.88-.63c1.39-.21-.3,2.14-.52,2.43-2.91,3.96-5.61,8.1-7.93,12.44-1.13,2.13-2.16,4.31-3.14,6.53-.35.79-1.43,5.23-2.91,4.59-.62-.28-.38-.95-.35-1.5.05-1.09.75-2.09,1.21-3.04.53-1.07,1.02-2.16,1.57-3.2,1.23-2.34,2.54-4.66,3.91-6.91,1.35-2.23,2.8-4.42,4.27-6.58,1.03-1.54,2.09-3.98,3.89-4.74m1.51,1.3c.31,1.23.52,2.47.89,3.69.2.62.69,1.91.09,2.45-1.18,1.07-2.85,1.39-4.3,1.92-.7.26.41,3.88.43,4.57.03,1.35-.9,1.53-1.95,1.95-.49.19-.94.35-1.38.64-.7.45-.84.56-.99,1.39-.25,1.44.67,2.85.33,4.32-.2.87-2.7,1.51-3.36,1.91-.55.35-.48,1.11-.4,1.66.15,1.01.19,2.01.2,3.03-1.02-.33-1.29-1.23-1.51-2.19-.26-1.12-.63-2.25-.52-3.4.08-.81,2.16-1.24,2.76-1.51,1.2-.54,1.02-1.64.87-2.69-.13-.93-.46-2.13-.14-3.04.77-2.17,4.77-.8,4.42-3.88-.14-1.16-.5-2.12-.38-3.3.17-1.67,4.17-.6,4.25-2.59.07-1.66-1.15-3.84.69-4.96m3.47,1.71c-.28.43-.53.74-.98,1,.46.34.88.65,1.48.49.02,2.15-1.24,4.61-1.99,6.59-.86,2.27-1.74,4.56-2.72,6.78-.96,2.2-2.05,4.33-3.22,6.42-1.03,1.85-2.08,4.38-3.74,5.74-.29.24-1.26-.23-1.38-.51-.44-.93-.78-2.03-.84-3.07-.04-.65-.07-1.08.13-1.69.17-.52,1.38-.85,1.83-1.04.76-.31,1.81-.76,1.76-1.74-.04-.87-.84-4.08.06-4.65.84-.53,1.68-.89,2.6-1.23.67-.25,1.36-.63,1.43-1.42.09-1.05-.3-2.12-.37-3.17-.09-1.22.07-1.77,1.34-2.21.86-.3,2.37-.62,2.9-1.41.51-.75.1-1.94-.08-2.72-.29-1.2-.46-2.42-.71-3.62.96,0,1.85.85,2.49,1.47m56.66-.9c.82,1.07,1.7,2.09,2.52,3.15.75.97,1.81,1.97,1.97,3.25-1.1-.21-2.22-2.1-2.81-2.94-.41-.61-2.01-2.67-1.69-3.46m-2.87,5.58c0,.33-.35.15-.35.15l.17-5.34.45-.18m-1.59.82c.33,1.09.1,2.23.03,3.34-.03.57.22,1.9-.29,2.31-.31.25-.58.51-.95.67-.47.2-.5.11-.75-.28-.35-.53-.72-1.05-1.01-1.61-.4-.8-.65-1.19-.21-2,.56-1.04,1.99-2.23,3.18-2.42m-50.46,1.59c-.83,5.15-2.92,10.02-4.9,14.81-1.01,2.45-2.07,4.89-3.2,7.28-.45.95-1.82,5.14-3.34,4.96-1.19-.14-.41-1.97-.11-2.5,2.36-4.18,4.8-8.34,6.75-12.75.96-2.19,1.81-4.43,2.6-6.68.25-.69,1.28-5.34,2.21-5.12m33.15-.23c-.07,1.82-1.12,3.56-1.7,5.25-.34,1-.66,2-.98,3-.19.56-.33,1.91-1.13,1.92-.35,0-.78-.81-.99-1.05-.66-.77-1.52-1.58-1.77-2.6-.12-.47.46-.63.46-1.17.01-.43-.62-1.05-1.07-.81-.48.26-.48.6-1.04.21-1.27-.88-2.46-2.34-3.33-3.61-.16-.24-.29-.53-.34-.81,1.77-.02,3.53-.29,5.31-.29,2.2.01,4.38-.02,6.57-.04m-2.91.68c-.58.3-.46.77-.35,1.31.07.37.91.42,1.25.51.1-.46.19-.93.29-1.39.01-.1-1.04-.37-1.19-.42m-29,.29c1.43.62,3.99,2.19,4.59,3.72,1.18,3.04,1.77,6.26,2.48,9.42.73,3.25,1.27,6.45,1.6,9.76.32,3.16.86,6.29,1.11,9.45.05.63.79,6.28-1,5.63-.64-.23-.96-.27-1.03-.99-.6-6.57-1.24-13.16-2.62-19.64-.7-3.28-1.41-6.55-2.47-9.73-.54-1.62-1.18-3.17-1.96-4.69-.36-.68-1.39-2.18-.7-2.92m25.85.06c-.13.45-.37.84-.18,1.27.32.74,1.42.29,1.47-.39.04-.63-.68-1.4-1.29-.87m-2.97.27c-.04.38-.09.75-.14,1.12.39.04.76.09,1.15.13.02-.2.22-1.01.11-1.15-.11-.13-.92-.08-1.12-.1m-23.37,1.64c1.47,1.96,2.1,4.96,2.77,7.29.82,2.82,1.42,5.7,2.01,8.58,1.25,6.07,2.36,12.5,2.39,18.72-.42-.03-.82-.02-1.24,0,0-.51-.13-.99-.25-1.48-.71.37-.76.28-.94-.49-.11-.49-.19-.99-.31-1.48-.2.32-.44.62-.49.99-.5-.54-.56-2.53-.52-3.21-1.03.65-.73,2.21-.72,3.23-.53-.57-.29-1.5-.27-2.21.03-1.09-.25-2.15-.25-3.24-.28.22-.59.4-.73.75-.44-.48-.29-1.48-.44-2.09-.22-.91.11-1.32.28-2.16.4-2.09.42-4.23.53-6.36.03-.59.34-8.2-.76-8.2-1.42,0,.65,4.17-1.11,4.44-.25.04-.08,1.62-.08,1.75-.36-.1-.69-.29-.99-.49-.07.42-.17.82-.24,1.24-.25-.17-.48-.35-.75-.49-.11.57-.27,1.15-.23,1.73-.29-.16-.35-.48-.5-.74-.05.05-.58.77-.49.74-.31.11-.55-.31-.74-.49-.2.62-.17,1.41.51,1.73,0-.33,0-.66,0-.99.36.44.28,1.05.57,1.52.31.49.68.35.68.96,0,.48,0,.98,0,1.46.33-.17.65-.34.99-.5,0,.57,0,1.16.02,1.73.35-.15.52-.46.73-.75,1.44,2.18-1,4.08-2.19,5.71-.46-.72.16-1.75.07-2.54-.13-1.13-1.26-2-2.09-2.65-.4,1.26,1.39,2.02.77,3.21-.28-.39-.26-.76-.26-1.24-.25.13-.46.29-.74.26.13.5.06.98,0,1.48-.49-.59-.26-1.73-.51-2.47-.61.78-.48,1.79-.47,2.72-.39-.45-.19-1.98-.76-1.97-.57,0-.23,2.41-.23,2.72-.54-.65-.15-1.69-1.01-2.22,0,.43-.04.86-.24,1.24-.25-.17-.48-.35-.74-.49-.12.25-.28.46-.24.74-.57-.08-.83-.27-1.24-.67-.38-.36,0-1.11.15-1.49.8-2.05,1.95-3.95,2.85-5.94.93-2.07,1.82-4.15,2.69-6.25.88-2.12,1.76-4.24,2.49-6.42.27-.81,1.16-5.43,2.24-5.24m51.46-.36c1.1.55,2.97.02,2.99,1.8.02,1.48.03,2.91.28,4.37-.93-.78-1.67-2.3-2-3.45.33-.1.65-.2.99-.26-.16-1.28-1.29.07-1.6-.41-.31-.48-1.09-1.52-.65-2.06m-23.19,1.89c-.12.09-.6.61-.34.76.23.13.83.65,1.07.54.15-.07.39-.85.33-1.01-.17-.44-.68-.29-1.06-.29m15.29.14c1.96,2.51.75,5.87.55,8.71-.12,1.78-.55,3.47-.85,5.23-.14.79-.25,1.63-.49,2.39-.16.5-.95.05-1.07.75-.33-.36-.38-1.03-.5-1.49-.11.18-.54.42-.74.26-.1-.08,0-.84,0-.99-.23.12-.74.49-.74.06-.03-2.61.8-5.29,1.25-7.86.38-2.22.42-5.76,2.6-7.07m-36.61,1.25c.85.48,1.6,1.17,2.34,1.8.81.69,5.28,6.79,5.5,7.8.87,4.2,1.76,8.33,2.24,12.59.23,2.12.56,4.22.78,6.33.1.93.83,4.29-.14,4.63-1.16.41-2.63.18-3.83.17-.45,0-2.09.22-2.45-.2-.45-.52.01-2.11,0-2.74-.05-1.46-.27-2.94-.42-4.39-.31-3.12-.78-6.21-1.19-9.31-.41-3.13-.85-6.23-1.55-9.31-.34-1.5-.72-3-1.06-4.5-.18-.73-.78-1.94-.32-2.66.03-.06.07-.13.11-.19m-14.1,1.84c.74-.04,1.02-.19.88-.93-.05-.26-.55-.05-.66.06-.18.18-.21.63-.22.87m47.28,2.13c-.08,2.22-.71,4.36-.99,6.56-.14,1.1-.34,2.2-.51,3.28-.17,1.1-.13,2.26-.63,3.27-.81-.56-.35-1.96-.28-2.74.14-1.48.33-2.97.48-4.45.19-1.9.03-4.77,1.93-5.92m-24.48,3.39c1.67,1.36,3.58,2.9,4.05,5.1.76,3.58.55,7.3,1.16,10.9.29,1.77.36,3.57.5,5.36.05.64.69,4.04-.28,4.35-.44.14-1.08.12-1.45-.15-1.27-.87-.87-3.84-.98-5.12-.19-2.46-.54-4.92-.96-7.35-.41-2.45-.9-4.87-1.38-7.3-.21-1.05-.39-2.11-.64-3.16-.17-.75-.54-1.96,0-2.64m-25.67.67c-.19.14-.47.43-.37.7.13.33.63.26.95.31,0-.43.16-1.43-.58-1.01m46.97,2.39c0,1.14.19,3.56-.71,4.46-.52-.8-.67-1.34-.43-2.28.19-.74.56-1.68,1.14-2.19m-16.07,2.09c.78.74,2.61,1.93,2.61,3.14,0,1.14-.53,3.17,1.15,3.52.05-.45.3-.89.51-1.29.35-.66.55-.33,1.09.04.38.26.61,1.05.82,1.45.37.67.19,1.73.26,2.47.11,1.04.15,2.09.21,3.13.14,2.04.36,4.05.41,6.1,0,.5.07,1.07-.14,1.54-.28.63-1.06.39-1.61.45-1.02.11-3.43.67-3.7-.84-.63-3.44-.31-7.01-.88-10.45-.3-1.78-.26-3.63-.49-5.43-.15-1.17-1.07-2.75-.23-3.83m-36.81,7.94c.35-.18.43-.35.66-.03.12.15.3.23.44.36.33.28.38.03.38.53s-.1.4-.56.51c-5.08,1.28-9.86,4.71-13.42,8.47-2.6,2.74-4.2,6.32-5.63,9.77-1.63,3.92-2.91,7.97-4.04,12.06-1.16,4.22-2.3,8.48-3.35,12.73-1.03,4.15-1.54,8.49-2.29,12.71-.91-.86-1.07-2.65-1.37-3.81-.42-1.69-.72-3.42-.99-5.14-.56-3.51-1.16-7.08-1.42-10.62-.25-3.42,1.05-6.09,2.16-9.24.44-1.25,1.61-4.87-.49-5.28-.57-.11-.89,1.66-.98,2.01-.32,1.24-.02,2.5,0,3.75.04,1.21-.29,2.53-.82,3.62-.58-.68-.43-1.73-.34-2.54.13-1.22.09-2.42.07-3.65-.06-2.76.03-5.54-.07-8.3-.04-1.04-.16-2.08-.12-3.12.05-1.24.56-2.29.91-3.45.73-2.41.47-5.23,1.96-7.4,1.75-2.53,4.76-4.24,7.45-5.57,3.19-1.57,6.52-3.3,10.11-3.59,1.98-.16,4.57,1.05,6.31,1.86,1.18.55,2.31,1.18,3.43,1.85.61.35,1.81.74,2,1.52m1.45-3.98c.74.21,1.26-.26,1.23-1-.63-.01-1.23.29-1.23,1m42.84,3.65c1.85,1.16,1.04,4.83,1.16,6.62.06.92.92,5.64-.56,6-.07-2.42-.49-4.82-.57-7.25-.06-1.36-.96-4.15-.02-5.36m-4.45.77c-.24.74-.73,1.36-.61,2.18.14.82.4,1.7,1.27,2,.48.16.72-2.08.76-2.31.11-.77-.71-1.7-1.42-1.86m-36.35,1.74c-.48.75-1.55.83-2.33,1.06-1.35.37-2.57,1.01-3.77,1.71-2.49,1.45-4.85,3.01-6.89,5.08-4.15,4.23-6.4,9.55-8.32,15.05-.96,2.77-1.72,5.59-2.42,8.44-.71,2.91-1.61,5.75-2.3,8.67-1.41,6.01-2.6,12.06-3.76,18.11-1.92-.36-.64-4.32-.47-5.48,1.14-7.64,3.32-15.12,5.23-22.59,1.83-7.15,4.07-15.01,8.5-21.04,1.46-1.99,3.43-3.5,5.49-4.82,2.08-1.33,4.23-2.82,6.53-3.76,1.17-.46,3.33-1.01,4.5-.41m12.87-.09c0,.91.02,1.81.02,2.72-.45-.55-.45-2.16-.02-2.72m29.94-.21c1.27.59,1.98,1.75,2.5,2.96.25.55-.29,1.24-.51,1.72-.31.69-.3,1.33-.09,2.04.16.54.43,1.08.56,1.62.23.99.85-.35.98-.7.17-.47.55-1.28.51-1.78-.04-.57-.31-1.39-.22-1.94.89.51,1.18,1.18,1.57,2.09.25.58.35,2.02.19,2.63-.1.38-.13,1.17-.44,1.41-.49.4-4.98.63-4.99.2-.02-1.94.05-3.87-.15-5.81-.11-1.09-.67-3.49.09-4.45m-40.56,2.51c.47.87-.34,2.09-1.3,1.94-.8-.12-2.44-.72-3.2-.32-1.05.55-1.1,1.98-1.99,2.66-.86.66-2.21-.17-3.14.07-.73.2-1.05.13-1.34.82-.42.97-.07,2.17-.67,3.08-.5.75-1.93.67-2.71.85-1.15.26-1.94.82-1.95,2.08-.01.8.64,2.76-.04,3.38-.99.9-2.23,1.4-3.24,2.24-1.25,1.04-.16,2.89.03,4.19.08.49.21.92-.17,1.3-1.18,1.23-3.12,1.88-2.88,3.85.14,1.09.66,2.1.83,3.19.21,1.33-1.79,2.33-2.53,3.17-1.39,1.56,1.42,3.38.44,5.03-.56.94-1.64,1.41-2.29,2.26-.76.99-.77,1.74-.37,2.92.31.9,1.05,2.29.7,3.25-.36,1.01-1.7,1.64-2.43,2.4-.98,1.04.87,3.38,1.07,4.47.36,1.97-2.15,2.1-2.67,3.67-.49,1.48,2.69,4.67.09,5.3-.1-.45.16-.89.2-1.32.14-1.29-1.19-2.29-1.53-3.46-.51-1.8,1.31-2.16,2.08-3.35.46-.7.51-.78.35-1.58-.12-.56-.33-1.09-.53-1.63-.39-1.07-.82-2.09-.1-3.05.62-.83,1.91-1.38,2.29-2.39.66-1.76-1.41-3.4-.57-5.14.46-.95,2.71-2.17,2.56-3.24-.16-1.08-.67-2.09-.78-3.15-.07-.66-.17-1.01.32-1.51.39-.4.88-.74,1.3-1.12.88-.79,1.56-1.52,1.25-2.77-.27-1.07-.68-2.09-.87-3.18-.19-1.15,1.2-1.78,2.05-2.36.96-.66,1.08-1.57.8-2.63-.19-.69-.92-2.58-.3-3.21.87-.87,1.7-1.47,2.74-2.13,1.03-.66,1.26-1.39,1.25-2.59,0-.84-.26-2.76.53-3.32.84-.59,2.16-.45,3.05-.93.69-.37,1.14-.9,1.34-1.66.17-.66.11-1.93.63-2.44.8-.79,2.82.03,3.84-.15,1.65-.3,1.53-2.46,2.91-3.09.67-.31,1.85.29,2.54.39,1.02.17,1.58-.14,2.39-.79m11.63-.08c0,.74,0,1.48.02,2.23-.42-.5-.41-1.71-.02-2.23m-3.46,1.01c.48,1.44,1.12,2.8,1.8,4.15.61,1.22,1.17,2.51.71,3.87-.94,2.78-1.99,5.52-2.89,8.31-.82-.17-1.06-.99-1.33-1.68-.43-1.05-.81-2.13-1.27-3.17-.45-1.05-1.47-2.23-1.21-3.45.17-.8.28-1.6.41-2.41.2-1.25,1.44-2.18,1.84-3.4.31-.97.74-2.18,1.95-2.21m-6.68.54c.22.47.49.96.5,1.49-.29-.05-.57-.12-.87-.16-.36-.05-.62.04-.62-.37,0-.53.49-.94.99-.96m33.19,4.22c.64,0,.59.07.88-.4.19-.31.29-.66.39-1,.22-.76.29-1.91-.59-2.34-.46-.22-.68-.31-1.04.11-.23.27-.45.85-.4,1.2.14.89.58,1.61.76,2.44m-36.15-2.71c-.38.26-.79.47-1.23.61-.61.2-.7.21-.88-.43-.17-.58-.7-.59-.65.08.03.44.46.86.07,1.15-4.28,3.06-7.19,8.02-9.55,12.61-2.58,5.01-4.65,10.21-6.27,15.61-1.62,5.38-3.23,10.88-4.39,16.38-.61,2.88-1.13,5.79-1.56,8.7-.2,1.34-.31,2.66-.43,4.01-.11,1.25-.65,2.84-.39,4.07-.51-.07-.66-.62-.8-1.04-.2-.59-.86-.87-1.1-1.46-.39-.99.95-1.55.8-2.55s-.97-1.89-1.09-2.9c-.06-.45-.32-1.17.02-1.52.85-.9,1.81-1.48,2.51-2.54.62-.95-1.22-3.39-1.24-4.49-.02-1.15,1.14-1.73,1.85-2.43,1.16-1.14.39-2.46.12-3.82-.29-1.47-.56-2.48.58-3.52.49-.44,2.2-1.52,2.05-2.32-.11-.61-.19-1.21-.4-1.79-.46-1.25-.61-1.93.15-3.06.61-.89,1.65-1.42,2.28-2.34.42-.6-.35-2.42-.56-3.09-.34-1.13-.57-1.97.53-2.76.48-.35,2.33-1.32,2.32-1.99-.02-1.11-.51-2.1-.68-3.19-.21-1.34.27-1.94,1.42-2.57.84-.46,2.08-1.09,2.47-2,.65-1.5-.92-3.71,1.08-4.59.99-.43,3.45-.37,3.64-1.79.07-.53.07-1.13.25-1.64.31-.87.28-.96,1.14-1.25,1.1-.37,2.22.33,3.28-.31.57-.36,1.26-2.25,1.89-2.3.89-.06,2.13-.25,2.78.49m3.97,2.19c-1.15-.3-2.12-.53-3.28-.24-1.06.26-2.02.77-2.86,1.45-4.08,3.3-6.29,8.14-8.68,12.67-2.65,5-4.65,10.44-6.27,15.86-3.27,10.93-5.5,22.36-5.43,33.78-2.05-1.05-2.08-3.66-1.81-5.64.32-2.32.4-4.66.74-6.99.35-2.39.88-4.76,1.4-7.12,1.08-4.89,2.38-9.7,3.75-14.51,1.34-4.68,2.83-9.35,4.95-13.74,2.05-4.23,4.32-8.57,7.48-12.08,1.47-1.63,3.04-2.94,4.83-4.21.73-.52,1.77-.95,2.69-.89.9.05,2.35.63,2.48,1.66m-1.23,1c-1.62.05-3.08,1.26-4.3,2.21-.7.55-1.4,1.11-2.05,1.71-.6.56-1.17,1.4-2.03,1.58.15-.94.77-1.75,1.32-2.49.64-.87,1.31-1.69,2.21-2.3.84-.57,4.4-2.52,4.85-.7m-10.88,1.07c.71.4,1.4-.28.98-1-.47.24-.88.42-.98,1m11.65,1.65c-.59,0-1.55-.11-2.06.21-1.16.74-2.25,1.55-3.34,2.37-.87.65-2.04,1.5-2.23,2.66.43-.02,1.31.74,1,1.23-.32.51-1.82,0-2.05-.41-.12-.21-.64-.87-.57-1.1.14-.46.22-.87.52-1.25,1.49-1.91,3.53-3.7,5.62-4.91.56-.34,1.52-.87,2.16-.58.75.36,1.4.82.96,1.77m-7.51,22.81c.65.13,1.39,1.09,2.04,1.03.9-.08,1.96-.51,2.28-1.43.27-.78.7-1.67.8-2.48.13-1.01-.32-2.01-.68-2.93-.46-1.19-.77-2.45-1.14-3.66-.61-2.01-2.04-4.72-.44-6.62-.42-.14-.71-.38-1.05-.65-.25-.21-.59-1.24-.56-1.55.06-.79,1.35-1.83,1.91-2.28.86-.69,1.74-1.48,2.86-1.64s2.12.28,2.9,1.14c.98,1.09,1.3,2.7,1.86,4.02.61,1.46,1.65,3.57,1.13,5.18-.99,3.08-2.67,5.91-4.13,8.78-.66,1.29-1.23,2.61-1.91,3.88-.7,1.32-1.42,1.88-2.87,2.21-.87.2-1.53.1-2.03-.79-.37-.7-.83-1.4-.97-2.2m-8.19-19.97c-.41.29.08,1.03.51.74.51-.34-.16-.93-.51-.74m10.78.91c.05.61.06,1.27.75,1.48,0-.51-.2-1.29-.75-1.48m-3.92,5.48c.32-.28.64-.5.98-.75.59,1.09.37,2.52.29,3.7-.1,1.46.19,3.63-.47,4.96-.64-.58-.39-1.6-.32-2.35.13-1.28.03-2.55.03-3.84-.88.57-1.02,2.03-.96,2.98-.6-.36-.87-1.33-1.07-1.94-.14-.44-.33-.71.14-.91.33-.14.81-.2,1.02-.54.13-.23-.39-.85-.69-.79-.4.07-.94.37-1.31.36-.43-.01-.62-.15-.8-.53-.08-.16-.82.13-1.03.17-.27-1.13,1.12-2.69,1.93-3.28.5-.37,1.3.66,1.54.94.42.52.53,1.17.73,1.82m42.32.93c.35-.5.76-1.4.68-2.03-.09-.62-.22-2.07-1.19-2-.69.05-.96,1.51-.86,2.01.16.82.43,1.83,1.38,2.02m-44.7-2.64c-.39.32-.39.6-.41,1.07-.02.68.3.68.9.67.73,0,.59-2.3-.49-1.74m27.35-.45c-.09,2.62-.81,5.21-1.33,7.78-.57,2.82-1.14,5.64-1.8,8.44-1.23,5.14-2.37,10.53-5.41,14.94-1.1,1.6-3.07,3.32-5.12,3.34-1.93.02-4.9-1.09-4.91-3.47-.04-5.91,2.65-10.89,4.97-16.17,1.16-2.63,2.23-5.29,3.49-7.87.68-1.37,1.37-2.73,2.11-4.06.47-.85.73-2.06,1.73-2.45,1.82-.74,4.35-.45,6.28-.46m-35.86,2.24c.36.74.79.94,1.15.11.24-.55-.98-.22-1.15-.11m7.68,1.43c0,.67-.36,1.43-.97,1.74,0-.33,0-.66,0-.99-.78.49-.56,2.17-.72,2.98.48.09,1.37-.63,1.38.18,0,.6.21,1.21.37,1.78.39-.51.58-1.02.85-1.59.24-.49.33-.39.89-.34.33.03.65.01.97-.07.02,2.91-.1,5.82-.15,8.73-.02,1.2,0,2.39-.05,3.59-.03.81-.09,2.11.8,2.52-.02-1.67.15-3.29.22-4.95,1.67,1.27-.8,4.45,1.28,5.44,0-.83-.31-2.14.47-2.72.54,1.01-.23,2.87,1.01,3.46,0-.83-.16-2.07.48-2.72.99,1.82-.34,4.36-1.26,5.92-2.08,3.54-3.94,7.22-5.74,10.91-.9,1.85-1.74,3.72-2.65,5.57-.45.92-.91,1.84-1.41,2.73-.19.35-.37.84-.68,1.09-.26.19-.79.3-.93.6-.09.19.26,1.2.25,1.48-.47-.14-.58-.56-.75-.98-1.24.89-2.26,2.38-2.95,3.74,1.07-.04.99,1.25,1.01,1.97.4-.21.64-.56.9-.92.48-.65.74-.53,1.48-.39.43.08.94.43,1.03.9.12.57-.53.7-.99.96-1.38.76-4.85,1.38-6.02-.11-.69-.88-1.36-1.76-1.37-2.94,0-1.48.67-16.48,1.81-16.24.25.05.47.07.68.22.54.41.88.53.51,1.22-.45.84-1.45,1.51-1.61,2.48.79,0,.99-.23.99.58,0,.71,0,1.43.02,2.14.66-.39.93-1.29,1.22-1.96.17-.39.23-.64.69-.39.3.16.71.29,1.04.36-.21-.76-1.25-3.64-.28-3.89.44-.11.6-.16.97-.44.44-.34-.15-.55-.44-.74-.21-.14-.76,0-1.03,0-.75-.03-1.43-.48-2.21-.55-.58-.05-.57-.12-.47-.69.19-1.06.94-1.86,1.03-2.95.08-.98-.14-2.31.61-3.09.48.88.26,2.26.27,3.22,1.12-1.45.75-4.19.86-5.99.06-.91.11-1.83.23-2.74.02-.17.02-.52.15-.66.22-.23,1.16.17,1.17.52,0,.63,0,1.28.02,1.92.45-.29.74-.84,1.07-1.25.52-.63.81-.5,1.63-.51-.25-.83-.54-1.66-.69-2.51-.23-1.29.14-.69.97-1.03.38-.15.66-.25.47-.66-.23-.49-.64-.42-1.13-.47-.3-.03-.34-1.96-.41-2.24-.35.18-.67.42-.87-.08-.13-.33-.02-.74.04-1.07.13-.68.41-1.49.8-2.07.74.56.51,2.15.52,2.97,2.1-1.21-.42-5.06,1.19-6.69.6,1.11.21,2.97.17,4.18-.05,1.49-.06,3.03.38,4.47.19-.2.41-.36.66-.47.19-.07.28.58.31.74.32,2.23.06,4.65.08,6.9.78-.93.76-2.13.73-3.26-.04-1.38.04-2.76.12-4.14.16-2.82.06-5.61.03-8.43-1.05,1.25-.87,3.16-.77,4.67.04.69.37,2.83-.66,3.02-.02-2.42-.01-4.85-.08-7.27,0-.28-.01-5.1.79-4.84.55.15,1.08.35,1.67.18m-25.47.93c-.01.78.11,1.74-.23,2.47-.46-.51-.35-2.08.23-2.47m70.79,4.44c1.1-.54,1.74-3.95.09-4.17-.76-.1-1.25,1.38-1.18,1.95.1.83.59,1.58,1.09,2.22m-39.87-3.91c.28.5.62,4.45.03,4.45-.41,0-.25-.34-.26-.71,0-.97-.41-2.92.22-3.74m-15.8,4.56c-.06.44.41.8.75.57.35-.25.4-.67.49-1.07-.48.03-.85.26-1.24.5m11.63-.33c.02,2.4-.21,4.8-.24,7.19-.01,1.17.04,2.35.05,3.51.02.89-.32,1.66.71,1.65.2,0,.19-6.06.19-6.48.01-1.37.02-2.73.03-4.1v-1.13c0-.66-.1-.65-.74-.65m-1.24.26c-.43.81-.29,1.78-.29,2.66,0,1.05-.17,2.09-.16,3.14.02,2.28.03,4.55.05,6.83.72-.17.76-1.16.76-1.74,0-1.14-.03-2.26.06-3.4.12-1.55.1-3.11.09-4.66,0-.65.45-2.86-.51-2.82m5.46,1.7c.52.35.88.77,1.44,1.08.7.38,1.13-.33,1.53-.85,1.3.79.04,2.79-1.29,2.56-.92-.17-2.45-1.82-1.68-2.79m-1.23,1.24c.72.63,1.58,2.07,2.62,2.16.46.04.89.04,1.36.03.05,1.44-1.55,1.7-2.5.88-.59-.52-2.23-2.16-1.48-3.07m-17.03,5.32c.26.08.57.23.84.12.21-.08.57-.48.4-.76-.43-.63-1.1.31-1.24.64m6.18.2c.02.88-.51,2.06-1.47,2.23.23-.88.4-2.08,1.47-2.23m3.46-.02c-.44,2.27-.24,4.63-.2,6.93,1.4-.29.71-4.91.7-5.83,0-.67.25-1.14-.5-1.1m-4.67,4.49c-.48,1.97-.21,4.17-.21,6.18.94-.15.87-2.39.91-3.14.04-.89-.04-2.37-.7-3.05m2.97.48c-.03.75-.61,2.97.52,3.22-.09-1.06.71-2.56-.52-3.22m4.47,2.19c.85-.02,1.84-1.82.67-2.09-.91-.22-.81,1.6-.67,2.09m-5.7-1.44c-.72,1-.48,2.56-.47,3.71,1.13-.18,1.28-3.13.47-3.71m-8.64,2.03c.62.11,1.22-.36,1.23-1-.63-.01-1.24.29-1.23,1m12.11-.57c-.19,1.07,1.34.78,1.99.73.01-1.02-1.3-1.09-1.99-.73m2.98,1.21c.39.11,2.57.18,1.97-.76-.2-.31-.92-.28-1.2-.26-.5.06-.76.52-.77,1.02m-.99-.24c-.71,1.52-1.99,2.72-2.69,4.22.46.23,1.01.07,1.48,0,0,.89.04,1.61.26,2.47.63-.52,1.09-1.69,1.22-2.48.4.26.81.53,1.25.73.28-.78-.22-1.9-.39-2.66-.17-.68-.09-2.48-1.13-2.28m5.24,5.15c.17.1.45.74.18.74-.31,0-.61,0-.91,0,.23-.31.41-.53.73-.75m-13.86.6c-.09.49-.21,2.63.85,1.79.85-.67.04-1.84-.85-1.79m-7.41,1.28c.05.32.22,1.52.81.92.67-.68-.3-.84-.81-.92m34.19,6.19c-.35,1.89,2.05,1.43,2.25,2.95-3.34-.93-6.72-1.93-9.87-3.41-1.56-.73-3.09-1.51-4.67-2.2-.7-.31-3.2-1.01-3.01-1.93.06-.31.2-1.05.59-.94.65.18,1.18.21,1.86.21,1.09,0,1.75,1.4,2.28,2.16,1.04,1.47,3.42,2.22,5.11,2.4,1.96.21,3.69-.35,5.45.76m-13.38-2.38c-.45.36-1.19.35-1.73.48-.51.12-1.66.66-1.46-.2.21-.9.47-1.27,1.39-1.14.63.08,1.28.51,1.81.85m16.08.38c.3.46.78.32,1.24.24-.14,1.05-1.84.49-1.24-.24m-1.48.25c-.19.28-.45.38-.74.5.17-.29.46-.39.74-.5m.32,10.14c-.82-.5-.83-1.81-1.47-2.5-.69-.72-1.68-1.67-2.79-1.27-1.11.38-1.86.94-2.81,1.63-1.01.73-1.89,1.19-3.14.8-.62-.2-1.47-1.53-1.72-2.09-.53-1.18-.46-2.5-1.17-3.64-.6-.97-1.51-1.59-2.61-1.78-1.34-.24-2.39.88-3.64,1.08.96-1.95,3.7-2.29,5.51-1.45,1.98.92,1.52,3.86,2.75,5.35.87,1.05,1.33,1.92,2.78,1.43,1-.33,1.64-1.25,2.62-1.62,1.21-.45,1.95-.75,3.15-.14.97.49,1.56,1.25,1.94,2.25.23.62.52,1.28.61,1.95m4.14-8.94c-.82.13-.74,1.36-.73,1.99-.51-.34-.77-1.32-.57-1.88.19-.51.11-.89.67-.75.31.08.52.35.62.64m-3.71.02c0,.72-.44,1.48-1.23,1.49,0-.66.57-1.39,1.23-1.49m1.49.49c-.06.71.04,1.61-.73,1.99-.21-.65-.31-2.18.73-1.99m-39.08,1.76c.22.29.39.59.75.73.18-.31.19-.65.24-.99-.35.06-.68.08-.99.26m29.22,2.77c.2,1.03-1.78,1.21-1.98.26.7-.14,1.24-.48,1.98-.26m-17.55,3.09c.54.1.65-.21.82-.66.19-.5-.05-.72-.34-1.11-.23-.3-.73.39-.79.55-.13.42.07.9.31,1.22m23.79,5.27c-.51.85-2.2.21-2.95.04-3.93-.86-7.78-2.05-11.5-3.57-1.53-.63-3.11-1.26-4.56-2.07-.28-.15-2.18-1.22-1.24-1.56,1.18-.43,2.64.84,3.59,1.36,1.79.97,3.75,1.74,5.66,2.44,1.87.69,3.8,1.18,5.7,1.76,1.76.54,3.67.71,5.31,1.58m-3.26-5.67c-.59-.12-1.13-.21-1.73-.23.39-.83,1.74-.84,1.73.23m-23.25,1.15c.3.16.64.38.99.36.51-.04.53-.33.69-.76.12-.31-.73-.37-.9-.41-.33-.07-.7.57-.78.81m28.45.29c.2.23.44.43.5.74-.31-.09-.9-.4-.5-.74m-5.37,9.44c-.58.46-1.45.2-2.11.04-3.33-.82-6.68-1.6-9.93-2.68-1.55-.51-3.12-1.06-4.59-1.76-.98-.46-2.52-1.06-2.97-2.14,1.16-.62,3.43.89,4.51,1.31,1.77.72,3.54,1.39,5.35,2.01,1.67.57,3.37,1.05,5.03,1.65,1.53.56,3.24.81,4.7,1.57m-6.47-4.65c.05,1.49,2.49,2.6,3.65,1.66.62-.5-.8-1.61-1.2-1.76-.74-.27-1.66.14-2.44.1m1.03,5.19c-.16.27-.46.31-.74.26.38,1.92,2.79,3.11,2.75,5.18-1.08-.05-1.74-1.44-2.23-2.23-.83-1.32-1.97-2.44-2.5-3.93.78.03,2.19.04,2.72.73m4.46,1.2c-.22.29-.39.6-.73.75,0-.32,0-.63,0-.95,0-.24.66.06.74.2" style="fill: #010101; stroke-width: 0px;"/>
      </g>
    </g>
    <g id="l" data-name="use1588">
      <g id="m" data-name="jack 1">
        <rect x="158.03" y="142.49" width="3.08" height="1.62" transform="translate(15.81 302.45) rotate(-89.83)" style="fill: #2b2f74; stroke-width: 0px;"/>
        <g>
          <path d="m127.55,79.2c-1.07-2.9-3.05-5.3-4.91-7.76l-.63.46c-1.14,1.79-3.02,5.26-3.02,5.26l5.62,1.23" style="fill: #e41d13; stroke-width: 0px;"/>
          <path d="m112.6,98.8l6.31-1.71c1.5.3,3.01.61,4.5.91,1.08,1.24,2.15,2.48,3.24,3.71l.58,2.97h1.75s.71-2.13.71-2.13c2.58-4.13,4.53-8.55,6.64-12.93l1.45-3.31.85-2.44c-3.44-1.85-6.4-3.17-10.14-4.3-3.14-.96-6.27-1.71-9.47-2.41-1.26,1.22-2.12,2.58-3.09,4.05,0,0-5.97,9.69-8.61,13.72l.74,1.24" style="fill: #f7c213; stroke-width: 0px;"/>
          <path d="m113.97,220.14c-1.94-1.45-3.89-2.86-5.88-4.24-4.33,2.84-8.84,5.35-13.84,6.85-5.07,1.52-10.4,2.19-15.61,3.04v.04s-7.27.16-7.27.16c-1.68,2.28-3.22,4.53-4.68,6.95l.87.76c3.93,1.58,7.33,3.36,11.56,4.15v-.27c4.33-.29,8.45-.9,12.73-1.61,3.64-.6,7.66-.73,11.2-1.68,2.34-1.76,4.25-3.99,6.46-5.9,2.43-2.11,4.9-4.17,7.38-6.22l.29-.89-1.63-.2-1.58-.94" style="fill: #e41d13; stroke-width: 0px;"/>
          <path d="m90,163.41l4.46,4.37h.11s2.62,2.31,2.62,2.31v-1.3s-.02,0-.02,0c-1.23-8.77-2.54-17.48-3.53-26.29l-16.3.09v.85s-1.52.23-1.52.23l-1.38,2.36,2.95,4.08v.05c4.28,4.33,8.42,8.81,12.61,13.24" style="fill: #f7c213; stroke-width: 0px;"/>
          <path d="m123.86,154.19c.81.5,1.61.99,2.42,1.48v-1.39s-2.42-.1-2.42-.1" style="fill: #e41d13; stroke-width: 0px;"/>
          <path d="m96.4,163.28l.77,5.5h0s0,1.3,0,1.3c4.85,4.29,9.8,8.28,14.91,12.26,3.42-9.71,7.03-19.04,11.52-28.31l.16.1,1.11-2.3-6.27-.08.07-.51-6.42.04-.03-4.43-3.5.02-.02-5.14-13.78.08v.23s-1.33.05-1.33.05c.8,7.12,1.67,14.15,2.81,21.21" style="fill: #e41d13; stroke-width: 0px;"/>
          <polyline points="117.25 186.03 117.31 186.03 116.44 185.47 117.25 186.03" style="fill: #e41d13; stroke-width: 0px;"/>
          <path d="m125.17,100.04l-1.77-2.03c-1.5-.3-3.01-.61-4.5-.91l-6.31,1.71-2.11,1.88.1.22.42,4.73c-1.57,5.28-3.27,10.53-4.48,15.9h.06s-2.85,14.99-2.85,14.99l9.61-.78c3.8-7.66,7.66-15.29,11.54-22.92l-.23-.37h.12s2.76-6.21,2.76-6.21c-.29-1.51-.59-3.03-.88-4.54l-1.48-1.68" style="fill: #2b2f74; stroke-width: 0px;"/>
          <path d="m93.61,137.34h-.09s0,.04,0,.04l10.13-.42c.98-5.14,1.96-10.3,2.94-15.44h-.12c1.06-5.38,2.99-10.65,4.54-15.91l-.42-4.73c-.73-1.55-1.47-3.09-2.19-4.64-.49-.13-.99-.27-1.48-.4-4.76,6.79-9.19,13.82-13.76,20.75v.26s.41.9.41.9l.04,19.59" style="fill: #e41d13; stroke-width: 0px;"/>
          <path d="m160.61,142.41c-.05-7.46-.07-14.92-.15-22.39-.04-3.6-.31-6.74-1.09-10.25-.89-3.98-1.33-8.19-3.31-11.77l-.08.22v.12c-.81,4.09-1.65,8.18-2.42,12.28h.11c-2.14,8.12-4.32,16.12-6.98,24.09h-.07c-1.95,4.41-3.48,8.72-7.09,12.03-3.78,3.47-8,5.71-12.77,7.56l-.25,1.5c3.05,1.85,6.25,3.39,9.44,5,0,0,3.52.63,5.36.72l5.1-1.87v.03c.42-.22,6.03-3.08,8.12-4.35,1.56-.95,2.71-2.62,3.93-3.95l1.05-4.35" style="fill: #2b2f74; stroke-width: 0px;"/>
          <path d="m146.42,159.69v-.03s-5.1,1.87-5.1,1.87c-1.84-.08-3.67-.2-5.51-.33-1.85,4.6-4.2,8.95-6.79,13.18-2.73,4.49-6.19,8.75-8.5,13.44l1.75,1.46,4.58-.05,2.87-1.19,2.87-2.45c1.58-2.55,3.21-5.06,4.88-7.56l.29.1c3.13-2.9,5.95-5.75,8.72-8.98l.08.03,1.71-2.82c.52-2.51.83-4.73.9-7.29-.9.15-1.95.18-2.75.61" style="fill: #e41d13; stroke-width: 0px;"/>
          <path d="m125.92,179.46c3.7-6.07,7.37-12.04,10.04-18.65-4.14-2.09-8.15-4.2-12.09-6.63.97.04,1.94.08,2.91.12,4.56-1.78,8.75-3.88,12.38-7.21,3.8-3.49,5.42-7.72,7.48-12.39h.07c2.66-7.97,4.83-15.96,6.98-24.09h-.11c.77-4.11,1.61-8.19,2.43-12.28-.72-5.98-4.75-13.06-9.86-16.32,0,4.63.1,9.19-.76,13.75-1,5.31-2.05,10.54-3.33,15.78h0c-2.14,7.91-4.97,15.07-8.41,22.5h-.17s-1.43,2.98-1.43,2.98l-4.08-1.98-1.67.85,1.13,1.97c-1.53,1.87-3.17,3.21-5.3,4.35l-2.2-.13c-.42,3.22-.86,6.43-1.28,9.65l6.27.08-1.11,2.3-.16-.1c-4.49,9.27-8.1,18.6-11.52,28.31,2.61,2.11,5.51,3.88,8.32,5.69,1.47-3.06,3.53-5.76,5.48-8.57" style="fill: #f7c213; stroke-width: 0px;"/>
          <path d="m93.61,137.34l-.04-19.58c-.16-.34-.3-.68-.46-1.03l-13.57,21c4.69-.13,9.38-.26,14.07-.39" style="fill: #f7c213; stroke-width: 0px;"/>
          <path d="m97.66,187.04l-4.86-4.71c-4.44.03-9.24-.5-13.64.17-1.75,2.97-3.28,6.08-4.93,9.12l1.04.71,2.37.09,2.16-4.97,1.22-1.12,3.24-.03.02-.14c2.16,0,4.19-.05,6.31-.33l2.1,1.04c3.12,3.39,6.52,6.42,10.12,9.3l3.85-.32c-2.98-2.96-5.97-5.9-9.02-8.79" style="fill: #e41d13; stroke-width: 0px;"/>
          <path d="m80.09,182.4c4.43-.03,8.87-.05,13.3-.08-3.44-3.77-6.68-7.72-10.29-11.32-1.27,3.76-2.4,7.52-4.09,11.1v.31s1.08,0,1.08,0" style="fill: #f7c213; stroke-width: 0px;"/>
          <path d="m62.13,182.57c0-1.76,0-3.53-.02-5.29l-3.87-6.2c-1.5,2.31-3,4.59-4.37,6.98l-.15,1.01c1.58,2.06,3.09,4.17,4.59,6.29,1.28-.31,2.56-.64,3.83-.95v-1.84" style="fill: #f7c213; stroke-width: 0px;"/>
          <path d="m62.16,182.54v1.67s2.88-1.57,2.88-1.57c2.72-2.96,4.92-5.86,7.18-9.19,1.86-2.73,2.94-6.03,4.42-8.99l1.14-.48c-2.41-4.04-4.84-8.1-7.25-12.14l-12.08,18.93,3.64,6.24c.02,1.85.05,3.7.06,5.54" style="fill: #e41d13; stroke-width: 0px;"/>
          <path d="m112.96,183.01c-7-5.44-13.87-10.93-20.29-17.06-6.48-6.19-12.45-12.93-18.77-19.3l-3.17,4.95c2.2,3.73,4.38,7.45,6.64,11.15-3.1,7.47-6.82,13.93-12.31,19.9-1.9,1.03-3.56,1.78-5.63,2.43l-.97.9,2.21,2.34c3.57,1.83,7.14,2.65,11.02,3.66l2.43-.12c3.66-6.81,6.53-13.53,9-20.86,4.32,4.32,8.23,9.07,12.35,13.58v.03c3.71,3.79,7.48,7.5,11.25,11.25l2.41.24,1.84-2.71,3.45.34c2.57-1.47,5.13-2.87,7.75-4.23-3.08-2.17-6.15-4.32-9.22-6.49" style="fill: #2b2f74; stroke-width: 0px;"/>
        </g>
        <path d="m117.95,221.24c-.95-.17-2.09-.21-2.93-.72-1.41-.85-2.68-1.84-3.88-2.96-.54-.5-2.26-1.67-2.39-2.48-.21-1.42-.37-2.85-1.03-4.15-.55-1.08-1.95-2.11-1.97-3.4-.02-.87-.14-.92.66-1.27.55-.24.98.22,1.31.65.26.32.59.87,1.01.92.66.07.97-.67,1.26-1.11.63-1,0-2.25.58-3.14.26-.4.92-.55,1.28-.86.55-.46,1-1,1.28-1.67.24-.57.34-1.25.8-1.7.9-.9,3.16-.14,3.13-2.1-2.03.41-3.45-.97-5.45-.96.61-1.08,1.89-.55,2.87-.58,1.27-.05,1.77-.44,2.65-1.27.34-.33.49-.79.79-1.16.36-.43.82-.76,1.19-1.18.69-.82,1.68-1.3,2.62-1.74,2-.94,4.18-.3,6.25-1.08,2.19-.82,3.91-2.2,5.39-3.97,1.32-1.59,1.73-3.7,3.02-5.26,1.48-1.79,3.43-3.39,5.2-4.9,3.27-2.8,6.48-6.28,7.51-10.58.47-1.94,0-4.57,1.54-6.07,1.62-1.57,3.88-2.24,5.57-3.71,1.62-1.4,2.61-3.23,3.27-5.25,1.8-5.42,1.26-11.16,1.25-16.79-.01-3.1-.08-6.2-.07-9.29,0-2.92.15-5.8-.1-8.71-.25-2.91-1-5.86-1.56-8.72-.55-2.82-1.18-5.42-2.44-7.99-.57-1.18-.73-2.52-1.23-3.73-.58-1.45-1.16-2.91-1.9-4.29-1.28-2.42-2.98-4.7-4.83-6.7-.71-.76-1.79-1.34-2.68-1.88-1.97-1.19-3.93-1.69-6.22-1.1-1.08.28-2.04.81-3.09,1.13-1.05.32-2.02-.19-3-.51-1.36-.45-2.71-.95-4.07-1.4-1.73-.58-2.49-2.48-3.44-3.88-.6-.88-1.28-1.75-1.79-2.68-.46-.83-.78-1.8-1.56-2.42-1.71,2.65-3.83,5.32-5.15,8.19,1.89-.14,3.64.79,5.37,1.38,1.92.65,3.87,1.19,5.77,1.9,1.88.7,3.75,1.41,5.62,2.09,1.09.4,4.05,1.71,2.53,3.26-.32.33-.76,1.07-1.27.97-1.5-.28-3.25-1.26-4.39-2.26.84-.04,1.62-.26,2.47-.26-.16-.99-.88-1.28-1.66-1.78-.4-.25-.5-.38-.96-.32-.45.06-.9.14-1.36.14.02.86.71,1.63,1.25,2.22-1.27-.15-2.42-.74-3.59-1.21-1.28-.52-2.6-.92-3.91-1.36-2.52-.85-5.23-1.07-7.62-2.29-.29,1.01-1.14,1.74-1.46,2.73,1.55-.28,3.32.67,4.82,1.03,1.99.47,3.9,1.27,5.81,1.95,1.94.69,3.86,1.43,5.71,2.3.89.42,1.76.88,2.62,1.35.72.4,1.77.36,1.45,1.31-.33,1-1.08,1.9-1.97,2.44-.87.53-2.08,1.44-3.11,1.47-.91.03-1.05-.08-1.78-.63-.39-.29-.62-.74-.88-1.15,1.1-.22,2.02,1.23,2.98.84.72-.3,1.36-2.38,1.49-3.03.12-.6-.88-.62-1.22-.66-.29-.04-.6.03-.89.05-.24.02-.49-.2-.72-.25-1.48-.33-1.48,1.04-.9,2.07-.79,0-1.2-.81-1.44-1.45-.37-.98-.88-1.77-1.54-2.6-.34-.43-1.63-.94-2.14-.86-1.03.18-1.75.34-2.59.98.35-1.23-1.26-2.27-2.01-3.03-.4-.42-1.28.72-1.53.98-.36.38-.72.98-.4,1.48.15.24,1.68.91.68,1.16-.65.18-1.25-.17-1.53-.77-.57-1.17-.91-2.61-2.16-3.24-.42.69-.8,1.39-1.12,2.13-.22.5-.75.68-.94,1.05-.26.51-.44.96-.6,1.51-.13.45.36.56.72.79.35.23.51.44.86.09.26-.27.27-.85.28-1.21.01-.27.07-1.03.58-.66.11.09.34.95.41,1.11.37.83.87,1.31,1.64,1.74.81.45,1.37.65,2.33.58.86-.06,1.5-.25,2.32-.5-.12.47-.24,1.3.39,1.5.52.17,1.35.63,1.89.65.74.04,1.25.22,1.44-.65.13-.58.32-1.16.99-1.28,0,1.55.87,3.07,1.51,4.45-2.92-.72-5.61-2.37-8.49-3.28-1.55-.49-3.14-.9-4.69-1.42-.99-.33-2.41-.95-3.42-.4.32.37,2.48.93,2.48,1.06,0,.97-1.88.3-2.42.96-.24.3-.67,1.14-1.11,1.14-.33,0-.52-.04-.84-.14-.17-.06-.35.54-.41.71-.22.59-.03.48.42.78.39.25.75.59,1.02.97.51.75,1.62,3.79,2.53,3.52,1.19-.34,2.21-1.53,3.36-2.06,1.23-.57,2.56-.94,3.9-1.12,1.97-.25,4.53.45,6.04,1.72,1.73,1.46,2.34,3.59,2.41,5.77.02.54.07,1.09.02,1.63-.08,1.06-.7,2.02-1.17,2.95-.6,1.21-1.18,2.42-1.78,3.64-1.3,2.63-2.34,5.37-3.66,8-1.27,2.51-2.5,5.05-3.74,7.58-.63,1.26-1.25,2.52-1.9,3.77-.41.8-.86,2.13-1.95,2.15.2-1.29,1.04-2.45,1.6-3.6.63-1.25,1.22-2.51,1.78-3.79,1.17-2.67,2.41-5.3,3.55-7.99,1.03-2.43,2.26-4.79,3.12-7.29.86-2.49,1.91-5.63,1.23-8.26-.61-2.35-2.44-3.59-4.74-3.94-2.06-.32-4.48,1.08-5.89,2.45-.76.74-1.6,1.52-2.01,2.53-.94,2.33-1.91,4.54-2.56,6.98-.71,2.69-1.5,5.36-2.1,8.08-.62,2.79-1.2,5.58-1.79,8.38-.29,1.39-.57,2.8-.85,4.19-.14.69-.2,2.05-.79,2.57-.47.41-.9.48-1.45.76-.58-2.72.33-5.72.78-8.41.51-3.11,1.24-6.17,1.8-9.27.52-2.88,1.07-5.76,1.66-8.62.62-2.98,1.25-5.72.9-8.79-.04-.37-.73-2.55-1.23-2.54-1.04,0-.33,1.49-.12,1.98.69,1.6.59,3.57.41,5.28-.42,3.83-1.59,7.62-2.31,11.39-.68,3.56-1.51,7.11-2.07,10.69-.27,1.74-.55,3.5-.74,5.25-.07.65.02,2.46-.79,2.72-1.08.34-2.04.55-3.18.59-.96.04-2.22.38-2.68-.66-.56-1.25-.1-2.74-.11-4.05,0-1.74-.02-3.48-.03-5.22-.03-3.53.21-7.06.19-10.59-.84.5-1.42,1.58-1.72,2.48.61-.31.74-.4.74.29.02,3.55-.27,7.1-.22,10.66,0,.81.77,7.17-.66,7.27-.97.07-.77-2.21-.83-2.81-.11-.95.14-1.88.05-2.83-.11-1.14-.1-2.26-.09-3.4.02-2.39.05-4.79.04-7.18-1.13.24-1.08,2.04-1.08,2.9.02,1.65.12,3.3.13,4.95.01,2.21.23,4.43.2,6.64-.05,2.39-1.35,2.16-3.2,2.52-.39.08-1.08.2-1.44.07-.84-.33-.92-.39-1.14-1.25-.49-1.85-.08-4.22-.09-6.13-1.11.91-1.13,2.52-1.07,3.83.03.79.1,1.58.07,2.38-.02.48-.07.97-.19,1.43-.03.15-.5.07-.53-.06-.38-1.35-.49-2.7-.49-4.1-1.24,1-.57,2.37-.92,3.62-.25.87-1.2.67-1.86.62-.5-.04-1.42,2.13-1.66,2.5-.79,1.22-2.37,2.86-2.55,4.35-.08.69-.01,1.39-.11,2.08-.25-.46-.24-.98-.25-1.49-.45.27-1.85,1.98-1.29,2.36,1.82,1.23,3.15,3.49,4.67,5.08,1.85,1.94,3.62,3.93,5.51,5.82,4.01,4.01,8.03,8.01,12.09,11.98,3.8,3.72,7.85,7.18,12.12,10.34,2.1,1.56,4.27,3.05,6.45,4.5s4.52,2.69,6.5,4.44c-1.11.17-2.01,1.05-3,1.52-1.22.56-2.41,1.42-3.65,1.88-1.04.38-2.02-.03-3.08.09-1.37.15-1.79,1.43-2.72,2.24-.51.44-.85.33-1.42-.02-3.8-2.38-7.02-5.96-10.04-9.23-3.31-3.59-6.6-7.22-9.83-10.9-3.2-3.64-6.12-7.48-8.82-11.51-1.37-2.04-2.69-4.12-3.98-6.23-.64-1.05-1.27-2.1-1.9-3.15-.56-.95-1.51-2.08-1.52-3.24-1.44,1.24-1.67,3.16-1.92,4.93-.35,2.41-.94,4.88-1.44,7.34-.48,2.39-.91,4.81-1.1,7.24-.2,2.46-.1,4.54.52,6.92.23.87.2,1.11-.08,1.96-.67-.69-1.36-1.57-1.66-2.51-.16-.5-.3-.98-.42-1.49-.26-1.18-3.22,1.98-3.12.07.04-.88,1.36-1.81,1.78-2.52,1.57-2.65,2.28-5.92,3.03-8.88.37-1.45.63-2.92.87-4.4.22-1.34,1.14-3.2.85-4.53-.63.54-.98,1.28-1.51,1.91-.63.75-.62.83-.45,1.66.2.95-.21,2.19-.39,3.11-.26,1.32-.59,2.61-.96,3.9-.66,2.29-1.12,4.88-2.53,6.85-.72,1.01-1.56,1.38-2.34.23-.85-1.25.27-2.63,1.02-3.61,1.13-1.5,1.11-2.56,1.05-4.37-.79.69-.81,1.81-1.26,2.69-.57,1.09-1.28,2.09-1.66,3.26-.22-.21-.56-.74-.87-.32-.1.15-.65.77-.58.88,1.29,2.03,2.72,4.04,3.47,6.35-.87-.56-1.22-1.63-1.63-2.53-.52-1.19-1.18-2.3-1.88-3.39-.49.28-.75.98-.49,1.48-.23.04-.5.04-.71.14-.48.22-.04,2.58-.05,3.14-.02,1.31.01,2.31,1.27,2.88.55.25,1.18.4,1.78.48.42.06.48-.08.5.38.02.36.03.69.02,1.05-.03.8.14,3.15-1,3.3.36-.67.37-1.74.32-2.49-.04-.55.09-1.15-.4-1.51-.39-.29-1.04-.42-1.49-.56-1.16-.38-1.41-1.05-1.44-2.19-.03-.98.1-2.03-.52-2.87-.69.6-1.39,1.67-1.8,2.49-.18.36-.54,1.1-.53,1.48.02,1,1.43,2.29,1.99,3.02,1.01,1.31,1.61,2.61,2.35,4.05.89,1.72,3.62,3.18,5.3,3.91,1.02.45,2.13.6,3.21.82,1.23.24,2.38.68,3.57,1.08,1.21.4,2.39.61,3.67.62,1.1,0,2.45.12,3.43.68.77.45.63.69-.01,1.17-.57.41-2.38.31-3.07.35-.85.04-2.14.24-2.5,1.16-.17.43-.67,1.19-.63,1.65.06.59.23,1.09.37,1.66.21.85-.94,1.9-1.24,2.68-.21.53-.31.96-.23,1.54.21,1.51-.56,1.3-1.69,1.88-1.21.61-.64,2.18-.4,3.19.39,1.65.92,3.26,1.36,4.89.47,1.71.53,3.18.59,4.92.05,1.65.75,3.28,1.16,4.86.41,1.6.39,2.32-.53,3.67-.86,1.26-1.82,2.48-2.71,3.72-.38.52-1.67,1.87-1.24,2.59.84,1.42,3.6,1.69,4.98,2.4,2.25,1.13,4.38,2.46,6.98,2.47,3.96.02,7.94-.89,11.82-1.56,3.87-.67,7.79-1.16,11.69-1.6,1.84-.21,3.24-1.8,4.48-3.05,1.34-1.35,2.69-2.66,4.13-3.92,1.51-1.32,3.03-2.65,4.63-3.87.8-.65,2.93-1.54,2.94-2.8m-1.49.5c-.72,1.44-2.44,2.35-3.66,3.32-1.61,1.29-3.18,2.61-4.69,4.01-1.35,1.24-2.53,2.62-3.81,3.93-1.31,1.33-2.75,1.55-4.57,1.67-4,.26-7.91.78-11.86,1.48-3.72.66-7.8,1.51-11.58.84-2.09-.37-3.88-1.6-5.78-2.46-.67-.31-3.05-.76-2.93-1.78.09-.86.23-.76,1.05-1.04.53-.18,1.18.3,1.66.46,1.1.37,2.17.82,3.22,1.31,1.84.87,3.68,2.2,5.76,2.28,1.43.05,3-.55,4.41-.83,1.72-.34,3.43-.69,5.17-.93,3.46-.47,6.95-1.06,10.43-1.27,1.57-.09,2.81-.39,4.01-1.46,1.03-.92,1.82-2.05,2.69-3.11,2.09-2.49,4.97-4.86,7.83-6.39.89-.46,1.72-.37,2.65-.04m-36.79,12.09c.08-.44.3-.84.49-1.25.26.4-.16,1.01-.49,1.25m3.71-.27c.2-1.33,1.84-2.58,1.46-3.96-.92.99-1.89,1.98-2.45,3.23-.64-1,1.39-2.58,1.22-3.72-.73.36-1.26,1.08-1.97,1.5.21-.62.41-1.32.23-1.98-1.43.87-1.83,2.81-3.2,3.73.56-1.21,1.8-2.36,1.96-3.73-2.03.02-2.65,3.56-4.18,4.48.06-.32,2.99-4.86,2.45-4.96-.56-.1-1.48,1.39-1.69,1.73-.63.98-1.2,2.13-2.24,2.75.38-1.17,1.15-2.15,1.81-3.16.05-.08,1.08-2.08.57-1.76-.91.56-1.49,1.52-2.04,2.41-.46.74-.89,1.83-1.84,2.03.56-1.69,2.22-2.89,2.45-4.71-1.78.59-1.96,3.74-3.68,3.98.24-1.64,2.2-2.7,1.95-4.47-1.54.93-1.63,3.41-3.44,3.98.35-1.29,1.26-2.49,1.8-3.72.57-1.29,3.96-.81,5.14-.88,4.1-.24,8.28-1.09,12.3-1.92,3.88-.81,7.49-2.11,11.08-3.76,1.81-.84,3.46-1.84,5.16-2.87,1.79-1.09,2.79-1.14,4.29.34.8.78,1.73,1.52,2.45,2.37.4.48.21.54-.22.8-2.29,1.4-4.37,3.16-6.25,5.08-.93.95-1.85,1.94-2.69,2.98-.7.85-1.29,1.7-2.39,2.01-2.59.74-5.51.65-8.19,1.01-2.7.37-5.39.94-8.13.96.23-1.12,1.28-1.85,1.46-2.97-1.16.2-2.55,2.07-2.21,3.23-.34-.02-.66-.02-.99-.02m4.68-2.75c-.48-.06-2.23.99-1.66,1.56.63.63,1.6-.98,1.66-1.56m-7.17.78c.37-.75.74-.37,0,0m-11.39-1.17c-.54-1.03,1.28-3.16,2.21-3.48-.13,1.09-1.3,2.89-2.21,3.48m2.33-24.51c.58-.12.75.35.64.85-.11.53-.57.94-.87,1.37.6-.22,1.44-.79,1.48-1.49.06-1.16-1.18-1.25-1.99-1.22,0-.84-.04-1.53.75-2.04.54-.34,1.86-.87,1.71.29.44-.49.9-1.07.97-1.74-.66-.08-.95-.08-1.4-.58-.54-.6-.68-1.48-1.04-2.18-.34-.67-.91-1.59-.56-2.37,1.01-2.22,3.99-1.81,6.05-1.82,1.88-.01,4.46.33,6.1,1.3,1.47.88,2.82,1.93,3.97,3.19,1.02,1.12,1.66,3.07,2.97,3.85-.96-1.76-1.92-3.75-3.47-5.09-1.09-.94-2.26-1.81-3.56-2.44-1.28-.63-2.74-.74-4.01-1.36-.84-.41-.51-3.97-.35-4.65.2-.87.72-2.29,1.46-2.86,1.34-1.02,4.1-.39,5.68-.49,2.37-.14,4.8-.75,6.6,1.15,1.7,1.8,3.37,3.56,5.24,5.19.84.72,1.68,1.46,2.55,2.14.7.55,1.58,1.18,1.47,2.19-.02.19-.38,1.04-.58.92-.38-.23-.72-.5-1.08-.76-1.04-.76-1.83-.8-3.09-.78-1.01.02-1.79,1.08-2.38,1.76-1.3,1.53-.19,4.16,1.68,4.53-.22.69-.86,1.14-1.44,1.53-.71.48-1.4,1.37-2.24,1.62-.91.26-1.54-1.2-2.12-1.65-1.08-.81-2.28,1.58-2.83,2.21-.59.68-1.32,1.15-1.95,1.77-.72.7-.98,1.81-1.33,2.73-.59,1.48,1.02,3.1.42,4.5-.46,1.09-.97,2.02-1.19,3.18-.09.49-.02.93.03,1.44.05.53.36.83-.29.99-1.07.25-1.67.87-2.52,1.58.53-.22,1.14-.2,1.69-.27.72-.08.71.95.77,1.37.14.92-1.92,1.05-2.58,1.14-2.66.35-5.3.75-8,.53-.75-.06-.91-.06-1.31-.68-.69-1.05-.84-2.42-1.22-3.6-.44-1.4-.5-2.6-.43-4.05.06-1.41-.43-2.7-.78-4.05-.38-1.49-.75-2.97-1.16-4.45-.14-.51-.93-3.07.3-2.85.98.19,2.64,1.43,3.25.14m14.46,17.98c0-.84.24-1.63.23-2.47.47.51.38,2.08-.23,2.47m2.97-.52c.17-1.05.61-1.94.69-3.02.12-1.6-.4-3.22-1.1-4.63-.66-1.33-1.45-2.68-1.39-4.21.98.26,1.5,1.54,2.01,2.3.69,1.04,1.5,1.99,1.76,3.25.33,1.65.64,6.23-1.98,6.31m2.47-.75c.89-2.73,1.16-5.92-.44-8.5-.78-1.25-1.92-2.54-2.3-3.98-.31-1.18-.72-3.48.92-3.84.03,1.17.59,2.09,1.25,3,1.3,1.8,3.65,3.14,4.21,5.42.3,1.25.3,2.4.31,3.67-.38-.47-.37-1.35-.59-1.9-.28-.7-.6-1.4-1-2.03-.94-1.5-2.52-2.48-3.61-3.87-.69-.87-.78-1.99-1.05-3.03-.72,1.19.11,3.1,1.05,3.96,1.21,1.12,2.48,2.05,3.27,3.52.74,1.4.88,3.11.6,4.66-.16.88-1.36,3.56-2.6,2.91m2.23-.26c.02-.47.24-.85.49-1.24.29.22.6.39.75.73-.4.22-.81.37-1.24.5m-5.44.03c0-1.14.02-2.28-.13-3.4-.17-1.37-.72-2.64-.91-4.01.96.72,1.5,2.65,1.73,3.76.22,1.04.35,2.99-.69,3.66m-3.47-.72c-.12-.41-.24-.81-.25-1.24.41.26.56.84.25,1.24m11.63-.57c.21-.33.44-.51.73-.75-.04.47-.23.8-.73.75m-9.15.05c-.54-.8-1.24-1.65-1.48-2.61-.05-.21.53-.36.71-.42.29-.09.7-.31.79.01.2.78.52,2.32-.03,3.02m-5.23-5.66c-.72.57-.76,1.66-1.62,2.18-1.01.61-2,.98-3.16,1.25-2.08.47-4.28-.05-6.33-.39.15,1.17,2.04,1.26,2.92,1.5.98.27,2.3,0,3.27-.24,1.04-.24,2.3-.68,3.15-1.33.52-.38.97-.69,1.36-1.21.36-.49.32-1.16.41-1.76m15.36,4.36c.16-.98.62-1.94.84-2.91.39-1.69-.13-3.14-.74-4.69-.52-1.34-1.15-3.05-.28-4.38,1.18-1.8,3.4-2.8,4.17-4.89.62-1.68.28-4.7,2.06-5.68-.05.34-.15.66-.24.99,1.36-.34,2.63-.17,4.01-.26.67-.05,1.33-.26,1.81-.72.85-.79.84-2.74,2.09-3.15.67-.23,1.37.18,2.01.23.98.07,1.26-.11,2.12-.6.53-.31.96-.83,1.54-1.02-.1.88-.62,2.06-1.55,2.32-1.15.31-2.08-.59-3.15-.37-1.56.33-1.31,2.08-2.07,3.09-.4.52-1.02.82-1.37,1.38-.4.64-.6.57-1.32.34-.27-.09-.42-.14-.61-.36-.17-.19.1-.39-.21-.44-1.26-.18-2.07-.04-2.85.99-.33.42-.76.81-.84,1.34-.19,1.39-.25,3.35-1.45,4.3-1.12.89-2.5,1.58-3.27,2.83-1.03,1.68.37,3.91.89,5.54.67,2.08.23,3.85-.71,5.75-.2.46-.39.35-.89.34m-1.24.02c.06-1.73.57-3.63-.03-5.33-.56-1.55-1.76-3.41-1.72-5.09.02-1.17.29-1.77.79-2.85.69-1.5,2.72-2.62,2.91-4.35.11-.96-.03-1.61-.58-2.43-.31.2-.61.44-.99.5.16-1.36,2.1-.95,2.38.12.21.78.28,1.23.19,2.02-.07.6-.21,1.21-.32,1.81.78-.88,1.07-1.66,1.21-2.82.05-.51-.11-1.09-.17-1.6-.04-.31-.97-.89-1.2-1.09-1.72-1.51-4.08,1.33-2.07,2.81-.44.37-.84-.14-1.1-.45-.4-.5-.18-1.16-.15-1.78.07-1.27,1.18-1.53,2.19-1.72.56-.11.87-.25,1.37.01.65.36,1.04.57,1.5,1.14.61.78.63,2.15.48,3.07-.17,1.04-.67,2.08-1.5,2.75-.85.68-1.82,1.17-2.66,1.89-.7.61-1.13,1.98-1.2,2.89-.11,1.85,1.45,3.12,1.96,4.76.22.67.17,1.33.18,2.03,0,1.2-.47,2.91-1.47,3.71m3.71-.28c.04-.98.21-1.94.34-2.92.26-2.19-1.37-3.75-1.55-5.77-.07-.84-.29-2.23.65-2.68.04,2.19,2.16,4.09,2.89,6.1.69,1.88.2,5.28-2.33,5.27m3.45-2c.04-1.35.35-2.65-.38-3.91-.65-1.1-1.92-2.46-2.13-3.75.38.18.68.48,1,.74.1-.61-.25-1.34-.26-1.98,1.16.71,1.97,2.94,2.18,4.19.15.94.57,4.05-.41,4.71m-23.28-3.82c-.83-.53-.91-1.74-1.99-1.97.1.49.32.98.25,1.49-1.09-.87-2.4-.93-3.72-.72,0-.33,0-.66,0-.99-1.08.18-1.12,2.03-1.27,2.84-.11.62-1.6,3.64.41,3.25,1.44-.28,2.42-1.2,3.64-1.91.86-.5,2.49-.83,2.7-1.98m5.71,3.43c-.08-.17-.17-.33-.25-.5.62-.14.66.55.25.5m20.29-.86c0-.62.26-1.25.23-1.86-.12-2.27-1.45-4.09-1.76-6.29,1.42.98,1.87,2.7,2.3,4.25.21.78.57,4.14-.77,3.9m-1.24,0c0-1.5-.06-3.08-.66-4.48-.69-1.62-1.45-3.14-1.62-4.9.59.64.64,1.62.92,2.41.34.91.79,1.78,1.13,2.7.42,1.15,1.28,3.21.23,4.28m-29.45-.32c.37-.62.98-1.16,1.73-1.25-.15.68-1.06,1.22-1.73,1.25m1.47-2.23c-.25.13-.67.4-.97.37-.53-.07-.44-.44-.51-.9-.05-.31.7-.28.86-.24.37.07.49.47.62.76m9.65.19c-.37-1.1-.46-2.06-.52-3.22.4.48.98,2.71.52,3.22m4.67-5.47c-.17-.26-1.14-2.44-.41-2.19.83.28,1.22,1.64.41,2.19m18.06-2.33c-.38-.33-.65-.76-1-1.12-.51-.54-.9-.66-1.61-.92-.96-.35-1.73,1.4-2.6,1.58.2-1.44,1.56-3.14,3.19-2.89,1.3.19,3.01,2.06,2.01,3.35m-5.71-2.69c0-.93-.04-1.61.34-2.46.42-.91.64-1.89,1.87-1.76-.39.65-1.09,1.07-1.47,1.74.52-.11,1.01-.34,1.54-.46.87-.21,1.77.06,2.64-.12.85-.18,1.62-.58,2.49-.7.01,1.75-2.12,1.82-3.33,2.02-.65.11-1.64.12-2.22.47-.65.39-1.21.89-1.85,1.27m6.18-.77c.49-.75,1.68-1.6,2.46-1.99-.03,1.25-1.31,1.99-2.46,1.99m-38.6-2c.58.19,1.71.71.78,1.19-.84.43-1.09-.58-.78-1.19m35.36-3.17c.39-.28.76-.26,1.24-.25-.35.28-.81.24-1.24.25m-1-1.98c-2.02.99-3.9-.38-5.38-1.71-1.85-1.67-3.75-3.29-5.46-5.09-1.33-1.42-2.66-3.24-4.82-3.24-.8,0-1.6.24-2.42.26-.86.02-1.71.02-2.57.02-1.42,0-3.31-.28-4.58.51-1.1.68-1.78,2.21-2.27,3.37-.33.77-1.53,2.93-2.74,2.06-.27-.2-.07-1.22.12-1.49.84-1.21,1.44-2.57,2.07-3.9.42-.88.93-2.42,1.76-3.01.74-.53,2.41-.23,3.26-.27,1.44-.06,2.87-.16,4.3-.25,2.13-.14,5.01-.8,6.77.75,2.2,1.94,4.03,4.26,6.13,6.29,1.03,1,2.02,2.04,3.11,2.99.98.79,2.13,1.6,2.72,2.72m-39.62-5.71c.51-.89,1.33-1.53,2.09-2.18.86-.74,1.62-1.6,2.4-2.43,1.54-1.62,2.73-3.56,3.78-5.52,1.1-2.06,1.9-4.25,2.65-6.46.74-2.17,1.67-4.3,2.29-6.5.94.57,1.53,1.54,2.2,2.37.73.91.95,1.73.65,2.86-.93,3.66-2.35,7.13-3.83,10.59-.72,1.67-1.41,3.35-2.27,4.95-.65,1.21-1.71,3.52-3.13,4.02-1,.35-2.12-.24-3.06-.54-1.25-.39-2.5-.84-3.79-1.16m82.71-30.17c.01,2.22-.08,4.35-.95,6.44-1.71,4.1-5.44,6.78-8.6,9.69-.81.76-1.47,1.66-2.21,2.49-.69.76-1.53,1.42-2.01,2.35-1.05,2.03-1.9,3.9-3.67,5.44-1.67,1.45-3.41,2.62-5.64,2.92-1.22.16-2.19-.13-3.36-.46-1.22-.32-1.18-1.35-.68-2.25,1.15-2.03,2.83-3.8,4.07-5.8,1.49-2.4,2.94-4.82,4.38-7.26,1.29-2.18,2.59-4.37,3.65-6.68.67-1.45,1.22-4.79,3.16-4.91.96-.06,2.03.19,2.99.33,3.25.46,5.76-2.29,8.86-2.31m-89.66,26.25c1.93-.65,4-1.23,5.57-2.58,3.41-2.92,6.27-6.46,8.51-10.36,1.03-1.79,2.04-3.67,2.67-5.63.22-.7.45-1.42.83-2.07.21-.35,1.17-1.45,1.46-.7.07.18.28.52.25.71-.42,2.71-1.53,5.38-2.49,7.95-.98,2.65-2,5.4-3.48,7.82-1.46,2.4-3.42,4.3-5.49,6.16-.84.75-1.62,1.63-2.67,2.1-.93.41-2.16-.48-2.87-1-.77-.55-2.16-1.36-2.29-2.41m60.88.71c-1.39.2.3-2.14.52-2.43,2.91-3.96,5.62-8.09,7.94-12.43,1.13-2.12,2.17-4.31,3.15-6.52.35-.79,1.44-5.23,2.91-4.58.62.28.38.95.35,1.51-.05,1.09-.75,2.09-1.22,3.03-.53,1.07-1.03,2.15-1.57,3.2-1.23,2.34-2.55,4.65-3.92,6.91-1.35,2.23-2.8,4.42-4.27,6.58-1.03,1.54-2.1,3.98-3.89,4.74m-1.51-1.3c-.31-1.23-.52-2.48-.89-3.69-.2-.62-.69-1.91-.08-2.45,1.18-1.07,2.85-1.39,4.3-1.92.7-.26-.4-3.88-.42-4.57-.03-1.35.9-1.53,1.96-1.94.49-.19.94-.35,1.38-.64.7-.45.84-.56.99-1.39.25-1.44-.66-2.85-.32-4.32.2-.87,2.71-1.51,3.36-1.91.56-.34.48-1.11.4-1.66-.15-1.01-.19-2.01-.2-3.03,1.02.33,1.29,1.23,1.51,2.19.25,1.12.63,2.25.51,3.4-.08.81-2.16,1.24-2.77,1.51-1.2.54-1.02,1.64-.87,2.69.13.93.46,2.13.14,3.04-.77,2.17-4.77.8-4.42,3.88.14,1.16.5,2.12.38,3.3-.17,1.67-4.17.59-4.25,2.58-.07,1.66,1.15,3.84-.7,4.96m-3.47-1.71c.28-.42.53-.74.98-1-.46-.34-.88-.66-1.48-.49-.01-2.15,1.25-4.61,2-6.59.87-2.27,1.75-4.56,2.73-6.78.97-2.19,2.05-4.33,3.22-6.41,1.03-1.85,2.08-4.38,3.75-5.74.29-.24,1.26.23,1.38.51.44.93.78,2.03.83,3.07.04.65.07,1.08-.13,1.69-.17.52-1.38.85-1.83,1.03-.76.3-1.81.76-1.77,1.74.04.87.84,4.08-.06,4.65-.84.53-1.68.89-2.61,1.23-.67.25-1.36.63-1.43,1.42-.09,1.05.3,2.12.37,3.17.09,1.22-.07,1.77-1.34,2.21-.86.29-2.37.62-2.9,1.41-.51.75-.1,1.94.08,2.72.28,1.2.46,2.42.7,3.62-.96,0-1.85-.86-2.49-1.47m-56.66.83c-.82-1.07-1.7-2.09-2.51-3.15-.75-.97-1.81-1.97-1.97-3.25,1.1.21,2.22,2.1,2.8,2.95.41.61,2.01,2.67,1.68,3.46m2.88-5.57c0-.33.35-.15.35-.15l-.17,5.34-.45.18m1.6-.82c-.33-1.09-.09-2.23-.03-3.34.03-.57-.22-1.9.29-2.31.31-.25.59-.51.95-.67.47-.2.51-.11.75.28.34.53.72,1.05,1,1.62.4.8.65,1.19.21,2-.56,1.04-2,2.23-3.18,2.42m50.47-1.53c.84-5.15,2.93-10.02,4.92-14.8,1.02-2.45,2.07-4.88,3.21-7.27.45-.95,1.83-5.14,3.35-4.96,1.19.14.41,1.97.11,2.5-2.37,4.18-4.81,8.34-6.77,12.74-.97,2.18-1.81,4.43-2.61,6.67-.25.69-1.28,5.34-2.21,5.12m-33.15.19c.07-1.82,1.13-3.56,1.71-5.25.34-1,.66-2,.99-3,.19-.56.33-1.91,1.13-1.92.35,0,.78.81.99,1.05.66.77,1.52,1.58,1.76,2.6.12.47-.46.63-.46,1.17-.01.43.62,1.05,1.07.81.48-.26.48-.6,1.04-.2,1.26.88,2.46,2.34,3.32,3.61.16.24.29.54.33.81-1.77.01-3.53.29-5.32.28-2.2-.02-4.38.02-6.57.03m2.91-.67c.58-.3.46-.77.35-1.31-.07-.37-.91-.42-1.25-.51-.1.46-.19.93-.29,1.39-.01.1,1.04.37,1.19.42m29-.25c-1.43-.62-3.99-2.2-4.58-3.72-1.18-3.04-1.76-6.26-2.47-9.42-.72-3.25-1.26-6.46-1.58-9.76-.32-3.16-.85-6.29-1.1-9.45-.05-.63-.78-6.28,1.01-5.63.64.23.96.27,1.03.99.59,6.57,1.22,13.17,2.6,19.64.69,3.28,1.41,6.56,2.46,9.74.54,1.62,1.18,3.17,1.96,4.7.35.68,1.39,2.18.69,2.92m-25.85-.09c.13-.44.37-.84.18-1.27-.31-.74-1.42-.29-1.47.39-.04.63.68,1.4,1.28.87m2.97-.27c.04-.38.09-.75.14-1.12-.39-.04-.76-.09-1.15-.13-.02.2-.22,1.01-.11,1.15.11.13.92.08,1.12.1m23.37-1.61c-1.47-1.96-2.09-4.96-2.76-7.29-.81-2.82-1.41-5.7-1.99-8.59-1.24-6.07-2.34-12.51-2.37-18.72.42.03.82.02,1.24,0,0,.51.13.99.25,1.49.71-.36.76-.27.94.49.11.5.19.99.31,1.49.2-.32.44-.62.49-.99.5.54.56,2.54.52,3.21,1.03-.65.73-2.2.72-3.22.53.58.29,1.51.27,2.21-.03,1.09.25,2.15.25,3.24.28-.22.59-.4.73-.75.44.48.29,1.49.44,2.09.22.91-.11,1.32-.28,2.16-.4,2.09-.43,4.23-.54,6.36-.03.59-.35,8.2.75,8.2,1.42,0-.64-4.17,1.11-4.44.25-.04.08-1.62.08-1.75.36.1.69.29.99.49.07-.42.17-.82.24-1.24.25.17.48.35.75.49.11-.57.27-1.15.23-1.73.29.16.34.48.5.74.05-.05.58-.77.49-.74.31-.11.55.31.74.49.2-.62.17-1.41-.51-1.73,0,.33,0,.66,0,.99-.36-.44-.27-1.05-.57-1.52-.31-.49-.68-.35-.68-.96,0-.48,0-.98,0-1.46-.33.17-.65.33-.99.5,0-.57,0-1.16-.01-1.73-.35.15-.52.46-.73.75-1.44-2.18,1-4.07,2.19-5.7.46.72-.16,1.75-.08,2.54.13,1.13,1.26,2,2.09,2.65.4-1.26-1.39-2.02-.76-3.21.28.39.26.76.25,1.24.25-.13.46-.29.74-.26-.13-.5-.06-.98,0-1.48.49.6.26,1.73.51,2.48.62-.78.48-1.79.47-2.72.38.45.19,1.98.76,1.97.57,0,.23-2.41.24-2.72.54.65.14,1.69,1,2.22,0-.43.04-.86.24-1.24.25.17.48.35.74.49.12-.25.28-.46.24-.74.57.08.83.27,1.24.67.38.36,0,1.11-.15,1.49-.8,2.05-1.95,3.94-2.86,5.94-.94,2.07-1.82,4.15-2.7,6.25-.89,2.12-1.76,4.24-2.5,6.42-.27.81-1.16,5.43-2.25,5.24m-51.46.3c-1.1-.55-2.97-.03-2.98-1.8-.02-1.48-.02-2.91-.27-4.37.93.78,1.67,2.3,2,3.45-.33.1-.65.2-.99.25.15,1.28,1.29-.07,1.6.41.31.48,1.08,1.52.65,2.06m23.19-1.86c.12-.09.61-.61.34-.76-.23-.13-.83-.66-1.07-.54-.15.07-.39.85-.33,1.01.17.44.68.29,1.06.29m-15.29-.16c-1.95-2.51-.75-5.87-.54-8.71.12-1.78.55-3.47.86-5.23.14-.79.25-1.63.49-2.39.16-.5.95-.05,1.07-.75.33.36.38,1.03.5,1.49.11-.18.54-.42.74-.26.1.08,0,.84,0,.99.23-.12.74-.49.74-.06.02,2.61-.81,5.29-1.26,7.85-.38,2.22-.42,5.76-2.61,7.07m36.61-1.2c-.85-.48-1.6-1.17-2.34-1.8-.81-.7-5.27-6.79-5.49-7.8-.87-4.2-1.75-8.33-2.22-12.59-.23-2.12-.55-4.22-.77-6.34-.1-.93-.83-4.29.14-4.63,1.16-.41,2.63-.18,3.83-.17.45,0,2.09-.22,2.45.21.45.52-.02,2.11,0,2.74.05,1.46.27,2.94.41,4.4.31,3.12.77,6.21,1.18,9.32.41,3.13.84,6.23,1.54,9.32.34,1.51.71,3,1.06,4.51.18.73.78,1.94.32,2.66-.03.06-.07.13-.11.19m14.1-1.82c-.74.04-1.02.19-.88.93.05.26.55.05.66-.06.18-.18.21-.63.22-.87m-47.28-2.19c.09-2.22.72-4.36,1-6.56.14-1.1.34-2.2.51-3.28.17-1.1.14-2.26.63-3.27.81.56.35,1.96.28,2.74-.14,1.48-.34,2.97-.49,4.45-.19,1.9-.03,4.77-1.94,5.92m24.48-3.36c-1.67-1.36-3.57-2.9-4.04-5.11-.75-3.58-.54-7.31-1.15-10.9-.29-1.77-.36-3.57-.49-5.37-.05-.64-.68-4.04.29-4.35.44-.14,1.08-.12,1.45.15,1.26.87.87,3.84.97,5.12.19,2.46.53,4.92.95,7.36.41,2.45.9,4.87,1.37,7.3.2,1.05.39,2.11.63,3.16.17.75.54,1.96,0,2.64m25.67-.64c.19-.14.47-.43.37-.7-.13-.33-.63-.26-.95-.31,0,.43-.16,1.43.58,1.01m-46.97-2.45c0-1.14-.19-3.56.72-4.46.52.8.67,1.34.43,2.28-.19.74-.56,1.68-1.14,2.18m16.07-2.07c-.78-.74-2.61-1.94-2.6-3.14,0-1.14.53-3.17-1.15-3.52-.05.45-.3.89-.51,1.29-.35.66-.56.32-1.09-.04-.38-.26-.61-1.05-.82-1.45-.36-.67-.18-1.73-.26-2.47-.11-1.04-.14-2.09-.21-3.13-.13-2.04-.35-4.05-.4-6.1,0-.5-.07-1.07.14-1.54.28-.63,1.06-.39,1.61-.45,1.02-.11,3.43-.66,3.7.84.62,3.44.3,7.01.87,10.45.3,1.78.26,3.63.48,5.43.15,1.17,1.07,2.75.23,3.83m36.82-7.89c-.35.18-.43.35-.66.03-.12-.15-.3-.23-.44-.36-.33-.28-.38-.03-.37-.53s.1-.4.57-.51c5.08-1.27,9.87-4.7,13.43-8.45,2.6-2.73,4.2-6.31,5.64-9.76,1.63-3.91,2.92-7.97,4.05-12.05,1.17-4.22,2.31-8.47,3.36-12.73,1.03-4.15,1.55-8.49,2.3-12.71.91.86,1.07,2.66,1.36,3.81.42,1.69.71,3.42.98,5.14.55,3.51,1.15,7.08,1.4,10.62.25,3.42-1.06,6.09-2.17,9.24-.44,1.25-1.62,4.86.48,5.28.57.11.9-1.66.99-2.01.32-1.24.03-2.5,0-3.75-.04-1.21.29-2.53.82-3.62.58.68.43,1.73.34,2.54-.13,1.22-.1,2.42-.07,3.65.06,2.76-.04,5.54.06,8.3.04,1.04.16,2.08.12,3.12-.05,1.24-.56,2.28-.91,3.45-.73,2.41-.48,5.23-1.97,7.4-1.75,2.53-4.76,4.23-7.46,5.56-3.19,1.56-6.52,3.3-10.11,3.57-1.98.15-4.57-1.05-6.31-1.87-1.18-.55-2.31-1.18-3.43-1.85-.61-.35-1.81-.74-1.99-1.52m-1.46,3.97c-.74-.21-1.26.25-1.23,1,.63.01,1.23-.29,1.23-1m-42.83-3.71c-1.85-1.16-1.04-4.83-1.15-6.62-.06-.92-.91-5.64.57-6,.06,2.42.48,4.82.56,7.26.06,1.36.96,4.15.01,5.36m4.46-.77c.24-.74.74-1.36.61-2.18-.14-.82-.4-1.7-1.27-2-.48-.16-.72,2.08-.76,2.31-.11.77.71,1.7,1.42,1.86m36.35-1.7c.48-.75,1.55-.83,2.33-1.05,1.35-.37,2.58-1,3.78-1.7,2.49-1.45,4.86-3,6.89-5.07,4.16-4.22,6.41-9.54,8.34-15.04.97-2.77,1.73-5.59,2.43-8.43.71-2.91,1.62-5.75,2.31-8.66,1.41-6.01,2.62-12.06,3.78-18.11,1.92.36.63,4.32.46,5.48-1.15,7.64-3.34,15.11-5.26,22.59-1.84,7.15-4.09,15-8.52,21.02-1.46,1.98-3.43,3.49-5.5,4.81-2.08,1.33-4.23,2.82-6.53,3.75-1.17.46-3.33,1.01-4.5.4m-12.87.07c0-.91-.01-1.81-.01-2.72.45.55.45,2.16.01,2.72m-29.94.17c-1.27-.59-1.97-1.76-2.5-2.97-.25-.55.29-1.24.51-1.72.31-.69.3-1.33.09-2.04-.16-.54-.43-1.08-.56-1.62-.22-.99-.85.34-.98.7-.17.47-.55,1.28-.51,1.78.04.57.31,1.39.22,1.94-.89-.51-1.17-1.18-1.57-2.09-.25-.58-.35-2.02-.19-2.63.1-.38.13-1.17.44-1.41.49-.39,4.98-.62,4.99-.19.01,1.94-.05,3.87.14,5.81.11,1.09.66,3.5-.09,4.45m40.56-2.46c-.47-.87.34-2.09,1.3-1.94.8.12,2.44.72,3.2.33,1.05-.55,1.1-1.98,2-2.66.86-.66,2.21.17,3.14-.07.73-.2,1.05-.13,1.34-.82.42-.97.08-2.17.67-3.08.5-.75,1.93-.67,2.71-.84,1.15-.25,1.94-.82,1.96-2.08.01-.8-.64-2.76.04-3.38.99-.9,2.23-1.4,3.24-2.24,1.25-1.04.17-2.89-.03-4.19-.08-.49-.21-.92.17-1.3,1.18-1.22,3.12-1.87,2.88-3.85-.14-1.09-.66-2.1-.82-3.19-.2-1.33,1.8-2.33,2.53-3.17,1.39-1.56-1.42-3.38-.43-5.03.56-.94,1.64-1.41,2.29-2.26.76-.99.78-1.74.37-2.92-.3-.9-1.04-2.29-.69-3.25.36-1.01,1.71-1.64,2.43-2.4.98-1.04-.86-3.38-1.07-4.48-.36-1.97,2.15-2.1,2.67-3.66.49-1.48-2.69-4.67-.08-5.3.1.45-.16.89-.2,1.32-.14,1.29,1.19,2.29,1.52,3.46.51,1.8-1.31,2.15-2.09,3.35-.46.7-.51.78-.35,1.58.12.56.33,1.09.53,1.63.39,1.07.82,2.09.1,3.05-.63.83-1.91,1.38-2.29,2.39-.66,1.76,1.41,3.4.56,5.14-.46.95-2.71,2.17-2.56,3.24.16,1.08.67,2.09.77,3.15.07.66.17,1.01-.32,1.51-.39.39-.88.74-1.3,1.11-.88.79-1.56,1.52-1.25,2.77.26,1.07.68,2.09.86,3.18.18,1.15-1.2,1.78-2.06,2.36-.96.66-1.08,1.57-.8,2.63.19.69.91,2.59.3,3.21-.87.87-1.71,1.47-2.75,2.13-1.03.66-1.26,1.39-1.25,2.59,0,.84.26,2.76-.53,3.32-.84.59-2.16.45-3.05.92-.69.36-1.14.9-1.34,1.66-.17.66-.11,1.93-.63,2.44-.8.79-2.82-.04-3.84.15-1.65.3-1.53,2.46-2.92,3.09-.67.3-1.85-.29-2.54-.39-1.02-.17-1.58.13-2.39.78m-11.63.07c0-.74,0-1.48-.01-2.23.42.5.41,1.71.01,2.23m3.46-1.01c-.48-1.44-1.12-2.8-1.8-4.15-.61-1.22-1.17-2.51-.7-3.87.95-2.78,2-5.52,2.9-8.3.82.17,1.06.99,1.33,1.69.43,1.05.81,2.13,1.27,3.17.45,1.05,1.47,2.23,1.21,3.45-.17.8-.28,1.6-.41,2.41-.2,1.25-1.44,2.18-1.84,3.4-.31.97-.74,2.18-1.96,2.21m6.68-.53c-.22-.47-.49-.96-.5-1.49.29.05.57.12.87.16.36.05.62-.04.62.37,0,.53-.49.94-.99.96m-33.18-4.26c-.64,0-.59-.07-.88.4-.19.31-.29.66-.39,1-.22.76-.29,1.91.59,2.34.46.22.68.31,1.04-.11.23-.27.45-.85.4-1.2-.14-.89-.58-1.61-.75-2.44m36.14,2.76c.38-.26.79-.47,1.23-.61.61-.2.7-.21.88.43.17.58.7.59.65-.08-.03-.44-.46-.86-.07-1.15,4.28-3.06,7.2-8.02,9.57-12.6,2.59-5.01,4.66-10.2,6.29-15.6,1.63-5.38,3.25-10.88,4.41-16.38.61-2.88,1.13-5.79,1.57-8.69.2-1.34.31-2.66.44-4.01.11-1.25.65-2.84.4-4.07.51.07.66.63.8,1.04.2.59.86.87,1.09,1.46.39.99-.95,1.55-.8,2.55s.96,1.89,1.09,2.9c.06.45.32,1.17-.02,1.52-.85.9-1.82,1.48-2.51,2.54-.63.95,1.22,3.39,1.23,4.5.02,1.15-1.14,1.73-1.86,2.43-1.16,1.13-.39,2.46-.12,3.82.29,1.47.56,2.49-.58,3.52-.49.44-2.2,1.52-2.06,2.32.11.61.18,1.21.4,1.79.46,1.25.61,1.93-.16,3.06-.61.89-1.65,1.42-2.28,2.34-.42.6.35,2.42.56,3.09.34,1.13.57,1.97-.53,2.76-.48.34-2.33,1.32-2.32,1.98.02,1.11.51,2.1.67,3.19.2,1.34-.27,1.94-1.42,2.57-.84.46-2.08,1.08-2.47,1.99-.65,1.5.92,3.71-1.08,4.59-.99.43-3.45.37-3.65,1.78-.07.53-.07,1.13-.25,1.64-.31.87-.28.96-1.14,1.25-1.1.37-2.22-.33-3.28.31-.58.35-1.26,2.25-1.9,2.3-.89.06-2.13.25-2.78-.49m-3.97-2.2c1.15.3,2.12.53,3.27.25,1.06-.25,2.02-.77,2.86-1.45,4.09-3.29,6.3-8.14,8.7-12.66,2.66-5,4.66-10.44,6.29-15.86,3.29-10.93,5.53-22.35,5.47-33.77,2.05,1.05,2.08,3.66,1.8,5.65-.32,2.31-.41,4.66-.75,6.98-.35,2.39-.88,4.76-1.41,7.12-1.08,4.89-2.39,9.7-3.77,14.51-1.35,4.68-2.84,9.34-4.97,13.73-2.05,4.23-4.33,8.57-7.5,12.07-1.47,1.63-3.05,2.94-4.83,4.2-.73.52-1.77.94-2.69.88-.9-.05-2.35-.63-2.48-1.66m1.23-1c1.62-.04,3.08-1.26,4.3-2.2.7-.55,1.4-1.1,2.05-1.71.61-.56,1.17-1.4,2.03-1.58-.15.94-.78,1.75-1.32,2.49-.65.87-1.31,1.69-2.21,2.3-.84.57-4.4,2.51-4.85.7m10.88-1.06c-.71-.4-1.4.28-.98,1,.47-.24.88-.42.98-1m-11.64-1.67c.59,0,1.55.11,2.06-.21,1.16-.74,2.25-1.55,3.34-2.37.87-.65,2.04-1.5,2.23-2.66-.43.02-1.3-.75-1-1.23.32-.51,1.82,0,2.05.41.12.21.64.87.57,1.1-.14.45-.22.87-.52,1.25-1.49,1.91-3.53,3.69-5.63,4.9-.57.33-1.52.87-2.16.58-.75-.36-1.4-.83-.95-1.77m7.54-22.8c-.65-.13-1.39-1.09-2.04-1.04-.9.08-1.96.51-2.28,1.43-.27.78-.7,1.67-.8,2.48-.13,1.01.32,2.01.67,2.93.46,1.19.76,2.45,1.14,3.66.61,2.01,2.03,4.73.44,6.62.42.14.71.38,1.05.66.25.21.59,1.24.56,1.56-.06.79-1.35,1.83-1.92,2.28-.86.69-1.75,1.48-2.86,1.63s-2.12-.28-2.9-1.15c-.98-1.09-1.3-2.71-1.86-4.02-.61-1.46-1.64-3.57-1.12-5.18,1-3.07,2.68-5.91,4.14-8.78.66-1.28,1.23-2.61,1.91-3.87.71-1.32,1.42-1.88,2.88-2.21.87-.2,1.53-.09,2.03.79.37.7.83,1.4.96,2.2m8.17,19.98c.41-.29-.08-1.03-.51-.74-.51.34.16.93.51.74m-10.77-.92c-.05-.61-.06-1.27-.75-1.48,0,.51.19,1.29.75,1.48m3.92-5.47c-.32.28-.64.5-.98.75-.59-1.09-.37-2.52-.29-3.7.1-1.46-.19-3.63.48-4.96.64.59.39,1.6.32,2.35-.13,1.28-.04,2.55-.03,3.84.88-.57,1.03-2.03.97-2.98.6.36.87,1.33,1.06,1.94.14.44.32.71-.14.91-.33.14-.81.2-1.02.54-.13.23.39.85.69.79.4-.07.94-.37,1.31-.36.43.01.62.15.8.53.08.16.82-.13,1.03-.17.26,1.13-1.13,2.69-1.93,3.28-.5.36-1.29-.66-1.54-.94-.42-.52-.53-1.17-.73-1.82m-42.31-.98c-.35.5-.77,1.4-.68,2.03.09.62.22,2.07,1.19,2,.69-.05.96-1.51.87-2.01-.16-.82-.43-1.83-1.38-2.02m44.69,2.7c.39-.32.39-.6.41-1.07.02-.68-.29-.68-.9-.68-.73,0-.59,2.29.49,1.74m-27.35.42c.1-2.62.82-5.21,1.34-7.77.57-2.82,1.14-5.64,1.82-8.44,1.23-5.14,2.39-10.52,5.43-14.94,1.1-1.6,3.08-3.32,5.13-3.33,1.93-.01,4.9,1.09,4.91,3.48.03,5.91-2.66,10.89-4.99,16.17-1.17,2.63-2.23,5.29-3.5,7.87-.68,1.37-1.37,2.73-2.12,4.06-.47.85-.73,2.06-1.73,2.45-1.82.74-4.35.44-6.28.46m35.86-2.19c-.35-.74-.79-.94-1.15-.11-.24.55.98.22,1.15.11m-7.68-1.44c0-.67.36-1.43.97-1.74,0,.33,0,.66,0,.99.78-.49.56-2.17.72-2.98-.48-.09-1.37.63-1.38-.18,0-.6-.2-1.21-.37-1.78-.39.51-.58,1.02-.86,1.59-.24.49-.33.39-.89.34-.33-.03-.65-.01-.97.07-.01-2.91.11-5.82.16-8.73.02-1.2,0-2.39.05-3.59.03-.81.1-2.11-.79-2.53.01,1.67-.16,3.29-.22,4.95-1.67-1.27.8-4.45-1.27-5.44,0,.83.31,2.14-.47,2.72-.54-1.01.24-2.87-1.01-3.46,0,.83.15,2.07-.48,2.72-.98-1.82.35-4.36,1.26-5.91,2.09-3.54,3.95-7.21,5.75-10.9.91-1.85,1.74-3.72,2.66-5.56.45-.92.92-1.84,1.41-2.73.19-.35.37-.84.69-1.09.26-.19.79-.29.93-.6.09-.19-.25-1.2-.25-1.49.47.14.58.56.75.98,1.24-.89,2.26-2.38,2.95-3.73-1.07.04-.99-1.25-1-1.97-.4.21-.64.56-.9.92-.48.65-.74.53-1.48.39-.43-.08-.94-.43-1.03-.9-.12-.57.53-.7.99-.96,1.38-.76,4.85-1.37,6.02.12.69.88,1.36,1.77,1.37,2.94,0,1.48-.69,16.48-1.83,16.23-.25-.05-.47-.07-.68-.22-.54-.41-.88-.53-.51-1.22.45-.84,1.45-1.51,1.61-2.48-.79,0-.99.22-.99-.58,0-.71,0-1.43-.01-2.14-.66.39-.93,1.29-1.22,1.96-.17.39-.23.64-.69.39-.3-.16-.71-.29-1.04-.36.21.76,1.25,3.65.28,3.89-.44.11-.6.16-.97.44-.44.34.15.55.44.74.21.14.76,0,1.03,0,.75.03,1.43.48,2.21.55.58.05.57.12.47.69-.19,1.06-.95,1.86-1.04,2.95-.08.98.14,2.31-.61,3.09-.48-.88-.26-2.26-.27-3.22-1.12,1.45-.75,4.19-.87,5.98-.06.91-.11,1.83-.24,2.74-.02.17-.02.52-.15.66-.22.23-1.16-.17-1.17-.52,0-.63,0-1.28-.01-1.92-.45.29-.74.84-1.07,1.24-.52.63-.81.5-1.63.51.25.83.54,1.66.69,2.52.22,1.29-.14.69-.97,1.03-.38.15-.66.25-.47.66.23.49.64.42,1.13.47.3.03.34,1.96.41,2.24.35-.18.67-.42.87.08.13.33.02.74-.04,1.07-.13.68-.41,1.49-.81,2.07-.74-.56-.51-2.15-.52-2.97-2.1,1.21.41,5.06-1.2,6.69-.6-1.11-.21-2.97-.17-4.18.05-1.49.07-3.03-.37-4.47-.19.2-.41.36-.66.47-.19.07-.28-.58-.3-.74-.32-2.23-.06-4.65-.07-6.9-.78.93-.76,2.13-.73,3.26.04,1.38-.05,2.76-.12,4.14-.17,2.82-.07,5.61-.04,8.43,1.05-1.24.87-3.15.78-4.67-.04-.69-.37-2.83.66-3.02.01,2.42,0,4.85.07,7.27,0,.28,0,5.1-.8,4.84-.55-.15-1.08-.35-1.67-.18m25.48-.9c.01-.78-.1-1.74.23-2.47.46.51.35,2.08-.23,2.47m-70.79-4.53c-1.1.54-1.74,3.94-.09,4.17.76.1,1.25-1.38,1.18-1.95-.1-.83-.59-1.59-1.09-2.22m39.86,3.96c-.28-.5-.61-4.46-.03-4.45.41,0,.25.34.26.71,0,.97.41,2.92-.23,3.74m15.81-4.54c.06-.44-.41-.8-.75-.57-.35.25-.4.67-.49,1.07.48-.03.85-.25,1.24-.5m-11.63.31c-.01-2.4.21-4.8.25-7.19.01-1.17-.03-2.35-.05-3.51-.02-.89.32-1.66-.71-1.65-.2,0-.2,6.06-.2,6.48-.01,1.37-.03,2.73-.03,4.1v1.13c0,.66.09.65.74.66m1.24-.25c.43-.81.29-1.78.29-2.66,0-1.05.17-2.09.17-3.14-.01-2.28-.03-4.55-.04-6.83-.72.17-.77,1.16-.77,1.74,0,1.14.02,2.26-.07,3.4-.12,1.55-.11,3.11-.09,4.66,0,.65-.45,2.86.51,2.82m-5.46-1.71c-.52-.35-.88-.77-1.44-1.08-.7-.38-1.13.33-1.53.85-1.29-.8-.03-2.79,1.29-2.56.92.17,2.45,1.83,1.67,2.8m1.23-1.24c-.72-.64-1.58-2.07-2.62-2.16-.46-.04-.89-.04-1.36-.03-.05-1.44,1.55-1.7,2.5-.87.59.52,2.23,2.16,1.48,3.07m17.04-5.29c-.26-.08-.57-.23-.84-.12-.21.08-.58.48-.4.76.43.63,1.1-.31,1.24-.64m-6.18-.21c-.02-.88.51-2.06,1.47-2.23-.23.88-.4,2.08-1.47,2.23m-3.46.02c.44-2.26.24-4.63.21-6.93-1.4.29-.72,4.91-.71,5.83,0,.67-.25,1.14.5,1.1m4.67-4.48c.48-1.97.22-4.17.22-6.18-.94.15-.88,2.39-.91,3.13-.04.89.03,2.37.69,3.05m-2.97-.48c.03-.75.61-2.97-.52-3.22.09,1.06-.71,2.56.52,3.22m-4.47-2.2c-.85.02-1.85,1.82-.67,2.09.91.22.82-1.6.67-2.09m5.7,1.45c.73-1,.48-2.56.48-3.71-1.13.17-1.29,3.12-.48,3.71m8.65-2.02c-.62-.11-1.22.36-1.23,1,.63.01,1.24-.29,1.23-1m-12.11.56c.19-1.07-1.34-.79-1.99-.73-.01,1.02,1.3,1.09,1.99.73m-2.98-1.22c-.39-.11-2.57-.19-1.97.76.2.31.92.28,1.2.26.5-.06.76-.52.77-1.02m.99.24c.71-1.52,2-2.72,2.69-4.22-.46-.23-1.01-.07-1.48,0,0-.89-.03-1.61-.26-2.47-.63.52-1.09,1.69-1.22,2.48-.4-.26-.81-.53-1.24-.74-.28.78.22,1.9.39,2.66.17.68.09,2.48,1.13,2.28m-5.23-5.16c-.17-.1-.45-.74-.18-.74.31,0,.61,0,.91,0-.23.31-.41.53-.73.75m13.86-.58c.09-.49.22-2.63-.85-1.79-.85.67-.04,1.84.85,1.79m7.42-1.28c-.05-.32-.21-1.52-.81-.92-.67.68.29.84.81.92m-34.18-6.23c.35-1.89-2.04-1.43-2.25-2.96,3.34.93,6.71,1.94,9.87,3.42,1.56.74,3.08,1.51,4.66,2.21.7.31,3.2,1.02,3,1.94-.06.31-.2,1.05-.59.94-.65-.18-1.18-.21-1.86-.21-1.09,0-1.75-1.4-2.28-2.16-1.03-1.47-3.42-2.23-5.11-2.41-1.96-.21-3.69.35-5.45-.77m13.37,2.39c.45-.35,1.19-.35,1.73-.48.51-.12,1.66-.66,1.46.2-.21.9-.47,1.27-1.39,1.13-.63-.08-1.28-.51-1.81-.86m-16.08-.4c-.3-.46-.78-.32-1.24-.24.14-1.05,1.84-.49,1.24.24m1.49-.25c.19-.28.45-.37.74-.5-.17.29-.46.38-.74.5m-.31-10.14c.82.5.83,1.81,1.47,2.5.69.72,1.68,1.67,2.79,1.27,1.11-.38,1.86-.93,2.82-1.62,1.01-.73,1.89-1.19,3.14-.79.62.2,1.47,1.53,1.72,2.09.53,1.18.46,2.51,1.17,3.65.6.97,1.51,1.59,2.61,1.78,1.34.24,2.39-.87,3.64-1.08-.97,1.95-3.71,2.29-5.52,1.44-1.98-.93-1.51-3.86-2.75-5.35-.87-1.05-1.33-1.92-2.78-1.43-1,.33-1.65,1.25-2.62,1.62-1.21.45-1.95.75-3.15.14-.97-.49-1.56-1.25-1.93-2.25-.23-.62-.52-1.28-.61-1.95m-4.15,8.93c.82-.13.75-1.36.73-1.99.51.34.77,1.32.57,1.88-.19.51-.11.89-.68.75-.31-.08-.52-.35-.62-.65m3.71-.02c0-.72.44-1.48,1.23-1.49,0,.66-.57,1.39-1.23,1.49m-1.49-.49c.06-.71-.03-1.61.73-1.99.21.65.31,2.18-.73,1.99m39.09-1.71c-.22-.29-.39-.59-.75-.73-.18.31-.19.65-.24.99.35-.06.68-.08.99-.25m-29.22-2.81c-.19-1.03,1.78-1.21,1.98-.26-.7.14-1.24.48-1.98.26m17.56-3.07c-.54-.1-.65.21-.82.66-.19.5.05.72.34,1.11.23.3.73-.39.79-.55.13-.42-.07-.9-.31-1.22m-23.79-5.3c.51-.85,2.2-.21,2.95-.04,3.93.86,7.77,2.06,11.5,3.59,1.53.63,3.1,1.27,4.56,2.07.28.15,2.17,1.22,1.24,1.56-1.18.43-2.64-.84-3.59-1.37-1.79-.98-3.75-1.74-5.65-2.45-1.87-.69-3.8-1.19-5.7-1.77-1.76-.54-3.67-.71-5.31-1.59m3.25,5.67c.59.12,1.13.21,1.73.23-.39.83-1.74.84-1.73-.23m23.25-1.12c-.3-.16-.64-.38-.99-.36-.51.04-.53.33-.69.76-.12.31.73.37.9.41.33.07.7-.57.78-.81m-28.45-.33c-.2-.23-.44-.43-.5-.74.31.09.9.4.5.74m5.38-9.44c.59-.46,1.45-.19,2.11-.03,3.33.82,6.68,1.61,9.93,2.69,1.55.51,3.11,1.07,4.59,1.76.98.46,2.52,1.07,2.96,2.15-1.16.62-3.43-.89-4.51-1.32-1.77-.72-3.54-1.4-5.35-2.01-1.67-.57-3.37-1.06-5.03-1.66-1.53-.56-3.24-.81-4.7-1.58m6.47,4.66c-.05-1.49-2.49-2.6-3.65-1.66-.62.5.8,1.62,1.2,1.77.74.27,1.66-.13,2.44-.1m-1.02-5.19c.16-.27.46-.31.74-.26-.38-1.92-2.78-3.12-2.75-5.18,1.08.05,1.74,1.44,2.23,2.23.83,1.32,1.96,2.44,2.49,3.94-.78-.03-2.19-.05-2.72-.73m-4.46-1.21c.22-.29.39-.6.73-.75,0,.32,0,.63,0,.95,0,.24-.66-.06-.74-.2" style="fill: #010101; stroke-width: 0px;"/>
      </g>
    </g>
  </g>
</svg>