<?xml version="1.0" encoding="UTF-8"?>
<svg id="a" data-name="Calque 1" xmlns="http://www.w3.org/2000/svg" viewBox="0 0 169.01 246.33">
  <g id="b" data-name="queen diamond">
    <g id="c" data-name="base">
      <path d="m1.25,237.82c0,3.78,3.09,6.87,6.87,6.87h152.79c3.77,0,6.86-3.09,6.86-6.87V9.51c0-3.78-3.09-6.87-6.86-6.87H8.12c-3.78,0-6.87,3.09-6.87,6.87v228.32Z" style="fill: #fff; stroke: #010101; stroke-miterlimit: 4; stroke-width: 2.5px;"/>
    </g>
    <g>
      <path d="m9.25,62.77v177.32" style="fill: none; stroke: #010101; stroke-miterlimit: 4; stroke-width: 1px;"/>
      <path d="m9.25,240.09h132.23" style="fill: none; stroke: #010101; stroke-miterlimit: 4; stroke-width: 1px;"/>
      <path d="m160.77,183.81V6.24" style="fill: none; stroke: #010101; stroke-miterlimit: 4; stroke-width: 1px;"/>
      <path d="m160.77,6.24H28.54" style="fill: none; stroke: #010101; stroke-miterlimit: 4; stroke-width: 1px;"/>
    </g>
    <g>
      <g id="d" data-name="diamond">
        <path d="m37.32,33.28h18.43c-2.1-.09-3.88-1.45-5.57-2.57-3.79-2.86-7.34-6.13-10.14-9.97-1.31-1.93-2.68-4.1-2.72-6.51m18.43,19.05c-2.66.08-4.94,1.78-6.97,3.34-3.59,3.01-6.69,6.59-9.31,10.47-.96,1.61-2.09,3.31-2.15,5.24v-19.05m0,19.05c-.09-2.84-1.82-5.29-3.45-7.49-2.91-3.62-6.35-6.83-10.14-9.51-1.47-.92-3.04-2.01-4.83-2.06h18.43m-18.43,0c2.66-.08,4.94-1.78,6.97-3.34,3.59-3.01,6.69-6.6,9.31-10.47.96-1.61,2.09-3.31,2.15-5.24v19.05" style="fill: #e41f13; stroke-width: 0px;"/>
      </g>
      <rect x="18.83" y="14.3" width="9.69" height="37.95" style="fill: #fff; stroke-width: 0px;"/>
    </g>
    <g>
      <g id="e" data-name="diamond">
        <path d="m132.7,213.17h-18.43c2.1.09,3.88,1.45,5.57,2.57,3.79,2.86,7.34,6.13,10.14,9.97,1.31,1.93,2.68,4.1,2.72,6.51m-18.43-19.05c2.66-.08,4.94-1.78,6.97-3.34,3.59-3.01,6.69-6.59,9.31-10.47.96-1.61,2.09-3.31,2.15-5.24v19.05m0-19.05c.09,2.84,1.82,5.29,3.45,7.49,2.91,3.62,6.35,6.83,10.14,9.51,1.47.92,3.04,2.01,4.83,2.06h-18.43m18.43,0c-2.66.08-4.94,1.78-6.97,3.34-3.59,3.01-6.69,6.6-9.31,10.47-.96,1.61-2.09,3.31-2.15,5.24v-19.05" style="fill: #e41f13; stroke-width: 0px;"/>
      </g>
      <rect x="141.95" y="194.2" width="9.69" height="37.95" style="fill: #fff; stroke-width: 0px;"/>
    </g>
    <g>
      <line x1="48.32" y1="180.14" x2="121.69" y2="66.19" style="fill: none; stroke: #010101; stroke-miterlimit: 4; stroke-width: 7.25px;"/>
      <circle cx="50.65" cy="177.01" r="2.2" transform="translate(-5.54 1.68) rotate(-1.8)" style="fill: #fff; stroke-width: 0px;"/>
      <circle cx="50.65" cy="177.01" r=".7" transform="translate(-5.54 1.68) rotate(-1.8)" style="fill: #010101; stroke-width: 0px;"/>
      <circle cx="53.79" cy="172.13" r="2.2" transform="translate(-5.38 1.77) rotate(-1.8)" style="fill: #fff; stroke-width: 0px;"/>
      <circle cx="53.79" cy="172.13" r=".7" transform="translate(-5.38 1.77) rotate(-1.8)" style="fill: #010101; stroke-width: 0px;"/>
      <circle cx="56.93" cy="167.25" r="2.2" transform="translate(-5.23 1.87) rotate(-1.8)" style="fill: #fff; stroke-width: 0px;"/>
      <circle cx="56.93" cy="167.25" r=".7" transform="translate(-5.23 1.87) rotate(-1.8)" style="fill: #010101; stroke-width: 0px;"/>
      <circle cx="60.08" cy="162.37" r="2.2" transform="translate(-5.07 1.97) rotate(-1.8)" style="fill: #fff; stroke-width: 0px;"/>
      <circle cx="60.08" cy="162.37" r=".7" transform="translate(-5.07 1.97) rotate(-1.8)" style="fill: #010101; stroke-width: 0px;"/>
      <circle cx="63.21" cy="157.49" r="2.2" transform="translate(-4.92 2.06) rotate(-1.8)" style="fill: #fff; stroke-width: 0px;"/>
      <circle cx="63.21" cy="157.49" r=".7" transform="translate(-4.92 2.06) rotate(-1.8)" style="fill: #010101; stroke-width: 0px;"/>
      <circle cx="66.36" cy="152.6" r="2.2" transform="translate(-4.76 2.16) rotate(-1.8)" style="fill: #fff; stroke-width: 0px;"/>
      <circle cx="66.36" cy="152.6" r=".7" transform="translate(-4.76 2.16) rotate(-1.8)" style="fill: #010101; stroke-width: 0px;"/>
      <circle cx="69.51" cy="147.72" r="2.2" transform="translate(-4.61 2.26) rotate(-1.8)" style="fill: #fff; stroke-width: 0px;"/>
      <circle cx="69.51" cy="147.72" r=".7" transform="translate(-4.61 2.26) rotate(-1.8)" style="fill: #010101; stroke-width: 0px;"/>
      <circle cx="72.65" cy="142.84" r="2.2" transform="translate(-4.45 2.35) rotate(-1.8)" style="fill: #fff; stroke-width: 0px;"/>
      <circle cx="72.65" cy="142.84" r=".7" transform="translate(-4.45 2.35) rotate(-1.8)" style="fill: #010101; stroke-width: 0px;"/>
      <circle cx="75.79" cy="137.96" r="2.2" transform="translate(-4.3 2.45) rotate(-1.8)" style="fill: #fff; stroke-width: 0px;"/>
      <circle cx="75.79" cy="137.96" r=".7" transform="translate(-4.3 2.45) rotate(-1.8)" style="fill: #010101; stroke-width: 0px;"/>
      <circle cx="78.93" cy="133.08" r="2.2" transform="translate(-4.14 2.54) rotate(-1.8)" style="fill: #fff; stroke-width: 0px;"/>
      <circle cx="78.93" cy="133.08" r=".7" transform="translate(-4.14 2.54) rotate(-1.8)" style="fill: #010101; stroke-width: 0px;"/>
      <circle cx="82.08" cy="128.2" r="2.2" transform="translate(-3.99 2.64) rotate(-1.8)" style="fill: #fff; stroke-width: 0px;"/>
      <circle cx="82.08" cy="128.2" r=".7" transform="translate(-3.99 2.64) rotate(-1.8)" style="fill: #010101; stroke-width: 0px;"/>
      <circle cx="85.22" cy="123.32" r="2.2" transform="translate(-3.83 2.74) rotate(-1.8)" style="fill: #fff; stroke-width: 0px;"/>
      <circle cx="85.22" cy="123.32" r=".7" transform="translate(-3.83 2.74) rotate(-1.8)" style="fill: #010101; stroke-width: 0px;"/>
      <circle cx="88.36" cy="118.44" r="2.2" transform="translate(-3.68 2.83) rotate(-1.8)" style="fill: #fff; stroke-width: 0px;"/>
      <circle cx="88.36" cy="118.44" r=".7" transform="translate(-3.68 2.83) rotate(-1.8)" style="fill: #010101; stroke-width: 0px;"/>
      <circle cx="91.51" cy="113.55" r="2.2" transform="translate(-3.52 2.93) rotate(-1.8)" style="fill: #fff; stroke-width: 0px;"/>
      <circle cx="91.51" cy="113.55" r=".7" transform="translate(-3.52 2.93) rotate(-1.8)" style="fill: #010101; stroke-width: 0px;"/>
      <circle cx="94.64" cy="108.67" r="2.2" transform="translate(-3.37 3.03) rotate(-1.8)" style="fill: #fff; stroke-width: 0px;"/>
      <circle cx="94.64" cy="108.67" r=".7" transform="translate(-3.37 3.03) rotate(-1.8)" style="fill: #010101; stroke-width: 0px;"/>
      <circle cx="97.79" cy="103.79" r="2.2" transform="translate(-3.21 3.12) rotate(-1.8)" style="fill: #fff; stroke-width: 0px;"/>
      <circle cx="97.79" cy="103.79" r=".7" transform="translate(-3.21 3.12) rotate(-1.8)" style="fill: #010101; stroke-width: 0px;"/>
      <circle cx="100.94" cy="98.91" r="2.2" transform="translate(-3.06 3.22) rotate(-1.8)" style="fill: #fff; stroke-width: 0px;"/>
      <circle cx="100.94" cy="98.91" r=".7" transform="translate(-3.06 3.22) rotate(-1.8)" style="fill: #010101; stroke-width: 0px;"/>
      <circle cx="104.08" cy="94.03" r="2.2" transform="translate(-2.9 3.32) rotate(-1.8)" style="fill: #fff; stroke-width: 0px;"/>
      <circle cx="104.08" cy="94.03" r=".7" transform="translate(-2.9 3.32) rotate(-1.8)" style="fill: #010101; stroke-width: 0px;"/>
      <circle cx="107.22" cy="89.15" r="2.2" transform="translate(-2.75 3.41) rotate(-1.8)" style="fill: #fff; stroke-width: 0px;"/>
      <circle cx="107.22" cy="89.15" r=".7" transform="translate(-2.75 3.41) rotate(-1.8)" style="fill: #010101; stroke-width: 0px;"/>
      <circle cx="110.36" cy="84.26" r="2.2" transform="translate(-2.59 3.51) rotate(-1.8)" style="fill: #fff; stroke-width: 0px;"/>
      <circle cx="110.36" cy="84.26" r=".7" transform="translate(-2.59 3.51) rotate(-1.8)" style="fill: #010101; stroke-width: 0px;"/>
      <circle cx="113.51" cy="79.38" r="2.2" transform="translate(-2.44 3.6) rotate(-1.8)" style="fill: #fff; stroke-width: 0px;"/>
      <circle cx="113.51" cy="79.38" r=".7" transform="translate(-2.44 3.6) rotate(-1.8)" style="fill: #010101; stroke-width: 0px;"/>
      <circle cx="116.64" cy="74.5" r="2.2" transform="translate(-2.28 3.7) rotate(-1.8)" style="fill: #fff; stroke-width: 0px;"/>
      <circle cx="116.64" cy="74.5" r=".7" transform="translate(-2.28 3.7) rotate(-1.8)" style="fill: #010101; stroke-width: 0px;"/>
      <circle cx="119.79" cy="69.62" r="2.2" transform="translate(-2.13 3.8) rotate(-1.8)" style="fill: #fff; stroke-width: 0px;"/>
      <circle cx="119.79" cy="69.62" r=".7" transform="translate(-2.13 3.8) rotate(-1.8)" style="fill: #010101; stroke-width: 0px;"/>
    </g>
    <g id="f" data-name="queen">
      <text transform="translate(5.25 35.16) scale(.56 1)" style="fill: #e41f13; font-family: Arial-BoldMT, Arial; font-size: 40.98px; font-weight: 700; isolation: isolate;"><tspan x="0" y="0">Q</tspan></text>
    </g>
    <g id="g" data-name="queen">
      <text transform="translate(164.77 211.17) rotate(-180) scale(.56 1)" style="fill: #e41f13; font-family: Arial-BoldMT, Arial; font-size: 40.98px; font-weight: 700; isolation: isolate;"><tspan x="0" y="0">Q</tspan></text>
    </g>
    <g id="h" data-name="diamond">
      <path d="m14.89,52.77h7.68c-.87-.04-1.62-.6-2.32-1.07-1.58-1.19-3.06-2.56-4.22-4.15-.54-.8-1.12-1.71-1.13-2.71m7.68,7.94c-1.11.03-2.06.74-2.9,1.39-1.49,1.25-2.79,2.75-3.88,4.36-.4.67-.87,1.38-.89,2.18v-7.94m0,7.94c-.04-1.18-.76-2.21-1.44-3.12-1.21-1.51-2.65-2.84-4.23-3.96-.61-.38-1.27-.84-2.01-.86h7.68m-7.68,0c1.11-.03,2.06-.74,2.9-1.39,1.49-1.26,2.79-2.75,3.88-4.36.4-.67.87-1.38.89-2.18v7.94" style="fill: #e41f13; stroke-width: 0px;"/>
    </g>
    <g id="i" data-name="diamond">
      <path d="m155.12,193.56h-7.68c.87.04,1.62.6,2.32,1.07,1.58,1.19,3.06,2.56,4.22,4.15.54.8,1.12,1.71,1.13,2.71m-7.68-7.94c1.11-.03,2.06-.74,2.9-1.39,1.49-1.25,2.79-2.75,3.88-4.36.4-.67.87-1.38.89-2.18v7.94m0-7.94c.04,1.18.76,2.21,1.44,3.12,1.21,1.51,2.65,2.84,4.23,3.96.61.38,1.27.84,2.01.86h-7.68m7.68,0c-1.11.03-2.06.74-2.9,1.39-1.49,1.26-2.79,2.75-3.88,4.36-.4.67-.87,1.38-.89,2.18v-7.94" style="fill: #e41f13; stroke-width: 0px;"/>
    </g>
    <g id="j" data-name="use1585">
      <g id="k" data-name="queen 4">
        <g>
          <path d="m48.61,194.63l-5.96.57-2.2,3.3-1.38,5.11c1.09,1.39,2.19,2.69,3.38,3.99l1.69-.26,2.18.43c1.38-.59,2.76-1.19,4.15-1.76l.67-2.04,1.31-.56.7-1.99-2.24-5.25-2.32-1.53" style="fill: #e41d13; stroke-width: 0px;"/>
          <path d="m53.47,183.93l-4.23.55-1.99,1.7-1.43-.06-1.85-4.24.06-3.98-.56-.66-1,.02-.26,1.81.66,5.14-.48,2.39-1.73-1.35c-1.95-.85-3.91-1.66-5.88-2.46l-1.66,3.34,1.63,3.63,1.81.96,2.09.36c1.5-.99,2.78-2.26,4.11-3.46l.77.16,1.02,5.55,1.92,1.04-1.04-6.76,4.24,3.34c1.68.48,3.32.78,5.05,1.07l1.76-1.28.24-1.61,1.59-2.23-.31-2.24-4.54-.74" style="fill: #f7c213; stroke-width: 0px;"/>
          <path d="m114.63,219.94l-2.94.14-2.5-1.91-1.68-.02-3.12,4.33c-2.37,2.38-4.7,4.45-7.34,6.51l-4.91,2.31-5.95,1.05-.47,1.76.48,3.07c2.47-.03,4.89-.33,7.35-.59l1.79,2.68,1.69-.32-1.43-1.93,1.7-2.84,2.23-.3c-.17.93-.48,1.84-.87,2.7l.89,1.09c1.53.54,3.03,1.08,4.5,1.77l1.72.28,1.06-3.49.12-4.44-.89-.49-2.44,1.4-1.19.02,1.03-3.05,2.68-2.18c1.57,1.2,3.15,2.39,4.73,3.57l1.06-.56-1.14-2.63-2.67-1.18.35-2.95,2.73-2.43.42,2.21,1.07.91,2.72-.17.37-1.39,2.17-.35,1.7-1.75-2.73.19-2.29-1.01" style="fill: #f7c213; stroke-width: 0px;"/>
          <polyline points="141.98 152.16 142.53 153.12 142.92 153.25 143.31 153.69 144.86 153.94 145.89 151.66 144.43 151.43 143.42 151.5 141.98 152.16" style="fill: #2b2f74; stroke-width: 0px;"/>
          <path d="m136.9,162.05l-1.2.7c-.92.92-1.71,1.97-2.53,2.98l-.33,2.36.62,1.94,1.06-1.07-.09-.61-.29-.66.1-.64-.22-1.49,1.64-1.45.5-.14.24-.24.55.03,1.46-.39-.38-1.05-.28-.24c-.3,0-.58-.02-.88-.02" style="fill: #2b2f74; stroke-width: 0px;"/>
          <path d="m123.28,140.17l1.51.46c6.8.86,13.19,1.47,20.04,1.47l-.17-2.02-2.91-5.92-2.41-3.33.06-.06-5.23-6.62-1.14-.66c-1.35-1.17-2.67-2.34-4.03-3.49l-1.74-.75-3.77-.91.88,3.48-1.3-.27-2.16-1.27-.16,1.18.61,3.28-2.62-1.19-.9-.09.42,3.28-1.67-.18.76,2.77.11.23,1.51,1.85,4.3,8.76" style="fill: #2b2f74; stroke-width: 0px;"/>
          <path d="m121.86,170.96l.32-2.05v-.36c.14-.53.25-1.09.31-1.64.41-.99.7-2.03.95-3.07l.51-.9.07-.19c.82-1.27,1.52-2.6,2.28-3.91l.57-.52.33-.5c1.29-1.02,2.49-2.08,3.71-3.19l.78-.37.04-.03c1.23-.54,2.43-1.12,3.64-1.68l-.39-.85-.34-.07c-2.98.03-5.91-1.09-8.76-1.78-1.72-.63-3.51-1.1-5.26-1.63-2.57-1.42-5.23-2.74-7.71-4.3l-.56,1.22c-.05,8.32-.16,16.48.78,24.74l2.7,5.49c1.05,1.37,2.09,2.73,3.19,4.06l4.65-1.31c-.39-1.32-.89-2.58-1.38-3.86l-.44-3.3" style="fill: #2b2f74; stroke-width: 0px;"/>
          <path d="m133.03,123.49c.7.41,1.41.82,2.11,1.23l2.63,3.76,1.32-.11c2.38-4.01,3.95-8.4,5.75-12.7l1.13-4.89c-.67-2.02-1.27-4.03-2.2-5.94,1.57-6.53,2.03-12.68,2.23-19.39l-1.13-2.96c-2.32-2.01-4.7-3.83-7.16-5.67-1.83,6.44-3.44,13.07-5.83,19.34-2.45,6.45-5.94,12.39-9.21,18.45,3.46,2.95,6.93,5.9,10.36,8.88" style="fill: #e41d13; stroke-width: 0px;"/>
          <path d="m116.03,175.75c-.96-1.97-1.93-3.93-2.9-5.9-.92-8.1-.72-16.06-1.06-24.2l-9.51-5.53-17.94-4.71-1.43,3.99c2.8,8.4,4.61,15.75,4.65,24.66l.66.09,6.13-.18,3.49-1.01.06.06h.03s1.48.94,1.48.94c2.16,4.12,4.47,7.35,7.48,10.9,2.36,1.64,4.66,3.47,7.19,4.84l3.07.92,1.7-1.07c-1.04-1.26-2.07-2.52-3.11-3.8" style="fill: #e41d13; stroke-width: 0px;"/>
          <path d="m111.18,139.73l.33-1.28.13-6.22,2.42-2.27,2.92-1.24c-1.56-2.82-3.09-5.52-4.98-8.13l-1.31-1.25c-.62-.26-1.26-.44-1.92-.53l-.43-.32-.42-.15c-.66-.65-1.4-1.24-2.17-1.76-.37-.43-.74-.84-1.14-1.24-.41-.49-.82-.97-1.26-1.43l-.45-1.04-.54-.8c-.29-1.43-.94-2.72-1.5-4.05l.05-1.39-.37-1.38-15.91,25.01-.04.43,25.23,9.03h1.35" style="fill: #e41d13; stroke-width: 0px;"/>
          <path d="m119.04,84.9l1.46-.07.35-5.42-.49-3.59-.7-.56-6.2,9.92c1.69-.08,3.25-.2,4.91-.51l.68.25" style="fill: #e41d13; stroke-width: 0px;"/>
          <path d="m71.54,164.25l1.37-1.23c.91-5,1.8-9.94,2.38-14.98l-1-1.42c-3.65,5.26-7.11,10.64-10.56,16.04l3.34,1.37,2.58.31,1.89-.09" style="fill: #e41d13; stroke-width: 0px;"/>
          <path d="m102.02,110.73c.46,1.06.9,2.13,1.35,3.19.8.89,1.59,1.78,2.39,2.67,1,.74,2.01,1.48,3.01,2.23.75.15,1.49.31,2.25.46.26-5.42.34-10.86,1.07-16.23.87-2.59,2-4.96,3.2-7.42l.48-3.21,1.58-3.07,2.96-2.56.49-1.24c-.81-.3-1.63-.59-2.44-.89-1.73.33-3.47.65-5.21.98-4.13,6.35-7.97,12.89-12.15,19.19l-.12,3.21,1.15,2.7" style="fill: #f7c213; stroke-width: 0px;"/>
          <path d="m151.82,138.43l-6.93-5.71-4.84-2.63c-.24.25-.48.5-.71.75,1.71,2.36,3.42,4.7,5.14,7.06.13,1.45.25,2.92.38,4.37-7.2-.14-14.61,0-21.57-2.1l-4.29-8.76c-.67-.83-1.36-1.65-2.03-2.48l-3.5,1.76-1.77,2.74c.13,3.26,0,6.5.07,9.76,2.91,1.77,5.9,3.37,8.88,5.02,4.21,1.28,8.27,2.51,12.6,3.3,4.11.74,8.54.11,12.67-.17l3.14-3.89,3.38-5.96-.59-3.06" style="fill: #f7c213; stroke-width: 0px;"/>
          <path d="m110.39,177.4l-3.17-2.46c-2.96-3.48-5.4-6.92-7.83-10.79-.43-.39-.85-.78-1.28-1.17-1.24.36-2.46.71-3.7,1.07l-4.25.35c-1.91-.26-3.83-.52-5.74-.78l-2.34-.73-5.22,1.41-5.59.26c-2.38-.29-4.75-.56-7.13-.85l-.74,1.69.18.86-.13-.41-.89-1.34c-1.76,1.99-2.55,4.63-4.3,6.64l1.41,2.88c2.53,2.43,5.32,4.19,8.37,5.92l1.16-.59-.83-1.09c2.09,1.94,4.17,3.69,6.44,5.42l4.83,1.87,3.51-1.9,5.24-.67,4.55.24,2.89.63,3.6,1.43,3.33,2.03,12.96-5.58-.12-1.29c-1.74-1.02-3.49-2.04-5.24-3.05" style="fill: #f7c213; stroke-width: 0px;"/>
          <path d="m142.53,153.12l-2.39-.82-4.42.41c-1.34.5-2.66,1.01-4,1.51-1.51,1.2-3.02,2.39-4.53,3.58-1.06,1.64-2.12,3.3-3.18,4.94-.51,1.39-1.02,2.77-1.53,4.16-.21,1.35-.42,2.7-.62,4.05l.44,3.3c.38,1,.75,2,1.13,3l1.62.81,4.07-2.5,2.02-1.76,2.47-3.34c-.26-.79-.5-1.58-.76-2.38.12-.83.23-1.65.35-2.48.82-.97,1.62-1.95,2.51-2.85l1.2-.7c.95.03,1.9,0,2.85-.04,1.51-2.41,3-4.85,4.47-7.28-.44-.48-.87-.98-1.31-1.46l-.39-.13" style="fill: #f7c213; stroke-width: 0px;"/>
          <path d="m136.18,163.95l-1.73,1.79c-.1.64-.2,1.3-.3,1.94.19.44.38.87.56,1.31,1.2-1.11,2.06-2.55,3.01-3.87l.29-1.32c-.53-.03-1.06-.06-1.59-.09l-.24.24" style="fill: #f7c213; stroke-width: 0px;"/>
        </g>
        <path d="m103.45,232.4c-.31-1.08.16-2.14.89-2.95.61-.67,2.1-1.58,2.96-.87.76.62.38,1.76,1.49,2.25,1.12.49,2.36.79,3.58.81.02-.94-.08-2.03-.59-2.84-.26-.4-.44-.86-.8-1.17-.52-.43-1.36-.48-1.96-.76-1.71-.78.7-4.71,2.12-4.92-.33.59-.28,1.21.14,1.74.31.4,1.11,1.43,1.67,1.39.81-.05,2.69.02,3.13-.92.15-.31.08-.83.48-.88.48-.06.89,0,1.36-.2,1.02-.41,2.64-1.52,2.66-2.76,0-.33-1.77.03-1.99.05-1.35.13-2.27-.26-3.44-.82-.92-.44-2.12.33-3.14,0-1.17-.37-2.2-2.29-3.48-2.13.03-1.66,1.1-3.11,2.06-4.37,1.13-1.5,2.16-3.06,3.15-4.66,2.14-3.47,4-7.09,6.06-10.59,2.09-3.54,2.52-7.23,3.09-11.22.27-1.89.9-3.71,1.31-5.56.32-1.41.87-2.63,2.29-3.22,3.38-1.44,5.95-4.95,8.16-7.76,2.52-3.21,4.66-6.65,6.82-10.1s4.19-6.98,6.45-10.36c1.15-1.71,2.32-3.41,3.39-5.17.89-1.44,2.21-3.08,1.51-4.85-.89-2.28-3.32-3.84-5.2-5.25-1.25-.93-2.55-1.78-3.88-2.6-1.2-.73-2.81-1.24-3.78-2.27-.84-.89.19-2.16.59-2.99.73-1.49,1.41-3.02,2.05-4.55,1.22-2.92,2.58-5.86,3.3-8.95.33-1.39.44-2.84-.05-4.2-.44-1.24-1.91-2.9-1.73-4.28.19-1.39.76-2.79,1.07-4.17.38-1.65.66-3.34.73-5.03.06-1.56.32-3.1.36-4.66.04-1.61,0-3.19-.08-4.8-.16-3.24-2.33-4.66-4.63-6.59-2.54-2.12-5.27-4.06-8.02-5.9-2.7-1.81-5.57-3.93-8.56-5.23-.58-.26-.61-.3-.98.25-.33.48-.76.99-1,1.52-.25.54.43.99.53,1.6.18,1,.18,2.1.63,3.03.53-.24,2.38-1.99,2.82-1.43.79.99.59,2.31.84,3.51,1.03-.17,1.8-1.27,2.76-1.66.24,1.1.44,2.36.41,3.47,1.14-.16,1.89-1.21,3.01-1.41.13.92-.06,2.33.32,3.16.16.36.64.84.95.41.26-.37.67-.7,1.14-.77.03.48-.38,3.49-1.38,3.31-1.44-.32-2.68-1.22-3.95-1.96-1.43-.84-2.89-1.68-4.33-2.5-2.19-1.26-5.93-2.08-5.75-5.19-.67.54-1.36,1.58-1.54,2.43.98-.39.69,2.08.72,2.5.05.85.21,1.66.16,2.51-.05.89.39,2.09.11,2.92-.41,1.21-2.55.36-3.49.48-1.61.22-3.02.05-3.94,1.54.97-.25,7.37-2.09,7.32.32-.05,1.83-2.83,1.4-3.89,1.43-.97.04-1.98.25-2.91.54-.45.14-.88.32-1.34.41-.31.06-.91-.16-1.12.17-.42.62-.91,1.29-1.17,2,2.73-1.2,4.87-2.59,7.99-2.51-1.16.94-2.71.97-4.11,1.24-1.55.3-2.62,1.16-3.9,2.01-.35.24-.69.21-.98.54-.38.46-.65,1-.93,1.51-.76,1.43-1.62,2.53-2.03,4.13-.92,3.55-1.24,7.61.23,11.05.56,1.32,1.36,2.5,2.41,3.45.77.69,2.36,1.85,1.91,3.09-2.68-2.02-4.58-4.48-5.6-7.7-.5-1.62-.81-3.36-.73-5.06.06-1.26,1.04-2.77.83-3.98-.63.48-1,1.25-1.33,1.95-.45.94-.29,1.58-.27,2.59.04,2.23.53,4.5,1.39,6.56.75,1.81,1.83,3.3,3.32,4.58,1.35,1.16,3.13,2.07,2.81,4.13-.07.43-1.05.5-1.39.4-2.28-.76-4.68-3.23-5.93-5.23-1.57-2.52-2.45-5.91-2.49-8.87-1.56,1.23-.48,3.77.06,5.25.44,1.23,1.04,2.49,1.13,3.8.1,1.47-.41,3-.73,4.42-.66,2.91-1.44,5.79-2.37,8.63-.42,1.3-1.61,7.08-3.67,6.76-.57-.09-1.02-.27-1.51-.57-1.28-.78-.49-2.54-.25-3.69.43-1.96.88-3.91,1.32-5.87.86-3.83.88-7.82,1.64-11.67-1.33.73-1.25,2.33-1.37,3.6-.17,1.9-.37,3.81-.72,5.69-.34,1.79-.53,3.6-.93,5.38-.39,1.71-.67,3.88-1.72,5.32-.61.83-1.96.29-2.76.03-1.48-.48-2.98-.89-4.42-1.47-.45-.18-1.1,1.3-1.27,1.57-.63,1.06-.6,1.77-.32,2.95.54,2.23-1.39,5.75-3.9,5.71-.3,0-.59-.07-.87-.18-.52-.21-.53.3-.8.73-.61,1.01-1.29,1.98-1.94,2.97-.51.79-1.01,1.6-1.42,2.45-.35.75.51,1.51.41,2.28-.38-.48-.71-1.12-.69-1.75-1.47,1.21-.04,3.25.22,4.7.2,1.15.53,3.22-.68,3.95.06-2.33-.59-4.42-.82-6.7-.75.58-.6,1.47-.46,2.3.24,1.33.41,2.68.52,4.02.21,2.39-.05,4.86-.17,7.25,0,.08-.46.08-.49.03-.29-.3,0-1.3.04-1.66.12-1.11.07-2.27.1-3.38.04-1.44.08-4.94-1.84-5.4-.3.87.33,1.85.63,2.63.32.8.37,1.7.35,2.55-.05,2.29.09,4.49-.55,6.7-1.42-.49-2.98-.21-4.43-.53-.17-.04-2.61-1.05-2.74-.83-.14.22-1.59,2.14-1.18,2.44.45.32.52.66.62,1.2-.29-.15-1.15-.67-1.47-.53-.45.2-.66,1.1-.89,1.48-.59.95-1.31,1.85-1.69,2.91.45.26.97.26,1.47.29.02-.8.27-3.29,1.65-2.09.45.39,1.11.85,1.18,1.5.02.21-.76,2.42-.44,2.49.85.17,1.95-.61,2.36.58.06.18.67,1.87.24,1.86-.6-.02-1.15.09-1.64.46.37.68,1.6,1.1,2.24,1.52.14.09,0,.9,0,1.08,0,.57-1.27-.08-1.48-.2-1.1-.62-1.5-1.49-1.6-2.7-.2-2.48-2.75-3.26-4.73-3.81-.6,2.23,1.51,3.05,2.4,4.81.46.91.52,1.94.81,2.9.23.78.65,1.7.48,2.53-1.37-.2-2.39-1.43-3.43-2.22-1.21-.89-2.29-1.96-3.61-2.67.03.23-.31.6-.27.73.06.19,1.09.66,1.25.79.63.51,1.3.99,1.97,1.45,1.34.92,2.73,1.88,3.85,3.06,1.04,1.09,1.32,2.32,1.67,3.73.44,1.75.91,3.49,1.4,5.24.95,3.43,1.78,6.9,2.69,10.34.46,1.72.86,3.45,1.34,5.16.2.71.42,1.42.62,2.12.14.45.63.97.49,1.46-.36,1.23-1.23,2.13-1.36,3.46-.13,1.36.6,2.53,1.43,3.52.87,1.05.42,1.9.61,3.12.22,1.36,1.1,1.95,2.25,2.6,1.15.66,1.54,1.91,2.27,2.96.83,1.21,2,2.22,3.2,3.05,1.1.76,2.29,1.42,3.51,1.96.52.23,3.29.84,3.31,1.57.06,1.2-.21,2.2.06,3.42.13.61.21,2.18,1.05,2.14.65-.04,1.1-.18,1.72-.41.09.36.29.69.47,1,.94-.76,1.66-1.42,2.99-1.45.68-.02,2.25.04,2.28,1.02.02.5-.26,1.02.32,1.19.82.24,1.65-.2,2.49-.07.62.09,1.47.29,1.82-.42-.77-.11-2.38-1.65-2.09-2.47.38-1.07,1.73-2.36,2.95-2.21-.2.52-.48,1-.7,1.52-.3.75.11.98.6,1.58.81.98,1.88.84,2.95,1.18-.24.13-.48.73-.11.74,1.22.03,2.32.35,3.5.55,1.39.23,1.55-2.48,1.83-3.31.49-1.48.3-3.47-.04-4.99-.13-.6-1.51-.78-2-.76-.91.06-1.38.75-1.82,1.38m1.54,6.96c-.35-.79-1.15-.69-1.86-.56-.27.05-.49-1.74-.54-1.97-.63.3-1.29.93-2.05.69-.32-.1-1.43-.39-1.4-.82.03-.51.47-1.92,1.15-1.91.63,0,1.31,1.13,1.79,1.48.85.62,1.66.76,2.68.86.12,0,.19-.87.79-.72-.11-.78-1.04-.7-1.2-1.27-.15-.46.71-1.44.79-1.96-.28-.04-.5.11-.75.23.05-1.02,1.04-1.94,2.07-1.5.68.29-.22,2.34-.76,2.5-.05.02.65,2,.54,2.29-.38.95.03,2.69-1.26,2.66m-9.39-.49c.33-.6.46-.6.74.02-.25,0-.49,0-.74-.02m-9.1-1.97c.5-.73,1.59-.63,2.37-.73,1.32-.17,2.64-.66,3.88-1.11,2.58-.93,5.2-2.15,7.4-3.8,2.03-1.52,3.73-3.44,5.33-5.4.89-1.09,1.75-2.2,2.64-3.29.58-.71,1.56-2.45,2.57-2.6.14,1.02-.94,1.82-1.5,2.51-.9,1.11-1.8,2.22-2.7,3.32-1.63,1.98-3.33,4.16-5.46,5.61-4.42,3-9.03,5.46-14.53,5.49m7.68-.29c-.12-.65.49-.64,1.01-.71-.08.44-.48,1.65-1.01.71m-6.91-.93c.05-.77-.75-2.54-.02-2.9.33-.15.75-.2,1.1-.29.17,1.18-.72,1.61.17,2.73-.36.24-.82.41-1.25.46m15.13-1.09c.46.07,1.14.12.97.77-.43-.1-.93-.28-.97-.77m-12.39.42c.09-.45.37-1.03.29-1.47.26.27.35.62.41.98.11.64-.08.52-.69.49m-3.95-.35c.06-.36.41-.56.75-.48-.17.29-.47.37-.75.48m14.13-.86c.09-.42.43-.85.77-1.1.41-.29.68-.47.95,0,.59,1-1.11,1.32-1.72,1.11m-6.2.09c.18-.94-.51-1.61-.67-2.49.14-.04.96-.31,1.02-.16.25.57.67,1.5.65,2.14,0,.45-.57.45-1,.51m-4.92-1.13c.42-.61,1.39-.2.98.52-.35-.09-.67-.37-.98-.52m6.67.42c-.08-.33-.18-.65-.22-1,.53,0,1.02.06,1.49-.21.2.61-.8,1.1-1.28,1.21m1.76-.93c-.1-.79,2.04-1.49,2.53-1.99.45-.46.74-1.01.04-1.42-.59-.34-1.16.08-1.74.21.56-.92,1.41-1.62,2.24-2.3.39-.32,1.28-1.43,1.82-1.32.55.12.69.98,1.46,1.03-.07.36-.36.76-.64.97-.53.4-.54-.09-1.02-.39-.67-.43-1.5,1.3-.13,1.35-.19.93-1.08,1.58-1.78,2.13-.84.66-1.66,1.57-2.78,1.72m-22.55-8.52c1.27.8,2.07,2.29,3.18,3.29,1.37,1.23,3.05,2,4.87,2.19,1.8.18,3.6-.24,5.38-.48,2.01-.27,4.01-.58,5.99-1.05,1.61-.38,3.33-.89,4.63-1.96,1.46-1.19,2.42-2.92,3.48-4.44,1.06-1.54,2.11-3.08,3.25-4.56.99-1.29,2.39-2.76,2.44-4.48-1.47.22-1.87,2.39-3.05,3.14.1-1.71.8-3.22,1.6-4.69.82-1.52.39-3.24.84-4.86,1-3.61,2.56-7.2,3.86-10.72,1.29-3.47,2.54-7.14,4.25-10.43.72-1.4,1.14-3.01,2.51-3.93.18-.12,3.25-1.64,3.23-1.22-.02,1.26-1.08,2.94-1.6,4.07-.75,1.63-1.65,3.18-2.42,4.8-.79,1.66-1.44,3.37-2.28,5.03-.77,1.53-1.6,3.11-2.12,4.75-.5,1.6-.28,3.42-.38,5.09-.11,1.78-.57,3.53-1.18,5.22-1.17,3.26-2.64,6.63-4.41,9.61-3.35,5.64-8.79,11.1-15.23,13.02-3.56,1.06-7.11.54-10.45-.89-2.33-1-6.52-3.48-6.39-6.48m21.35,7.49c-.37-.21-.81-.31-1.23-.28.31-.46.75-.57,1.26-.71.08.33.17.7-.03.99m14.36-.61c-.28-.48-.81-.8-1.05-1.3-.25-.5-.4-1.28.34-1.15.62.11.97.52,1.16,1.16.19.57.58,1.51-.45,1.29m-11.87-.32c.2-.27.46-.36.75-.48-.17.29-.47.38-.75.48m-1.97-.3c.24-.37.57-.64,1.01-.71-.21.37-.59.65-1.01.71m-13.33-1.58c.17-.93.51-2.38,1.55-2.68-.17.74-.29,1.45-.31,2.22.36-.44.51-1.17,1.05-1.43.7-.35,1.41-.78,2.23-.7-.03.47-.24.87-.52,1.23.73-.1,2.73-.86,2.9-1.62.33-1.47-1.65-.78-1.56-2.31,1.18.16,2.33.21,2.66,1.55.16.64-.43,1.78-.8,2.3-.41.56-1.34.88-1.96,1.09-.91.31-1.8.33-2.74.45-.77.11-1.76.35-2.49-.08m-5.57-4.35c.99.63,1.71,1.36,2.81,1.87.95.45,1.89,1.37,2.03,2.45-1.21,0-2.45-1.01-3.47-1.56-1.06-.56-1.42-1.6-1.37-2.76m23.65,3.84c.09-.08.17-.16.26-.24-.09.07-.17.15-.26.24m4.97-.6c.03-.56.45-1.12,1.02-1.21,0,.4-.02.79-.03,1.2,0,.07-.85,0-.99,0m-14.09-.39c.03-.6.36-1.57,1.03-1.7.04.7-.23,1.6-1.03,1.7m-15.99-3.88c.94-.19.71,1.23.69,1.75-2.35-1.35-3.57-5.2-3.51-7.77.45-.06.84.2,1.29.18.65-.03,1.25-.06,1.87-.28.96-.34,1.66-.95,2.24-1.77,1.42-2.02.68-4.73.23-6.94-.13-.6-1.31-6.16-.12-6.16.81,0,1.2.34,1.87.74.82.49,1.71.56,2.64.37,0,.42-.02.82-.03,1.24.53-.33.94-1.35.44-1.85-.59-.59-1.36-.39-2.11-.51-.68-.13-1.36-.71-2.09-.52-.91.24-1.58.31-1.67,1.35-.24,2.87.92,5.63.79,8.48,0,.27-.75.11-.99.11.22-.9.17-1.49-.69-2,.08.33.18.65.22,1-.56,0-1.18-.1-1.69.18-.48.26-.73.92-1.32.99.04-.78.12-1.45.31-2.22-.31.17-.65.18-1,.22-.57-4.8.97-9.72,3.32-13.88,1.85-3.29,4.96-6.42,9.06-5.69,2.29.42,4.28,1.65,6.27,2.76,1.95,1.08,3.16,3.05,4.95,4.31-1.87-2.44-3.9-4.35-6.65-5.82-2.85-1.51-5.54-2.36-8.73-1.58-.98.25-.98-3.66-.77-4.21.56-1.41,2.44-1.64,3.74-1.88,1.82-.33,3.68-.36,5.53-.32,3.49.1,7.8.86,10.44,3.33.97.9-.16,3.26-.42,4.29-.45,1.76-.8,3.5-1.07,5.29-.12.76-.15,1.4-.71,1.96-.35.35-.94.92-.9,1.47.17,2.12-.05,4.04-.17,6.15.66.17.67-.94.99-1.4.26-.4,4.32,4.76,2.15,4.44.09.33.17.66.22,1-.95-.25-.78-1.78-1.67-2.27.19.92-1.23.71-1.75.69.1.88.6,1.76.41,2.66-.25,1.17-1.26,2.43-1.8,3.5-1.05,2.03.63,4.12.58,6.19-1.09-.05-1.74-.15-2.64.54-.79.6-.94,1.1-1.43,1.92-.25.42-.13.37-.6.27-.97-.2-1.98-1.03-3.04-.8-.77.17-.95,1.1-1.57,1.46-.71.43-1.65.36-2.4.74-.7.35-1.25.89-2.02,1.12-.79.24-1.75-.44-2.31-.94-.69-.61.03-2.32-1.26-2.62-1.26-.28-2.18-.19-3.09.72m19.48,2.99c-.33-.71-.42-1.6-1.19-2.01,0,.42-.02.82-.03,1.24-.38-.42-.52-1.02-.6-1.56-.02-.14-.3-1.44-.27-1.48.37-.53,1.02-1.03,1.72-.89-.17.53-.87.87-1.27,1.21.87-.17,1.58.77,1.69,1.52,3.88-.94,2.03-6.71,2.65-9.28.45-1.82,2.66-2.4,3.42-4.08.42-.91.72-1.87.26-2.83-.45-.91-1.11-1.77-1.24-2.81-.13-1,.34-2.37,1.65-2.12-.26,2.33,1.25,4.34.54,6.69-.34,1.13-.9,2.18-1.6,3.12-.59.8-1.69,1.5-2.07,2.42-.82,2,.08,4.31-.42,6.41-.4,1.62-1.35,4.23-3.27,4.45m7.69-.53c.25-.47.45-.88,1.02-.96-.05.25-.13.49-.2.73-.13.39-.45.24-.82.23m-24.45-1.88c-.04-.25.14-.87.5-.48s-.26.54-.5.48m33.88.64c0-.15.13-.9.03-.99-.17-.15-1-.03-1.24-.03.02-.97.57-1.44,1.05-2.2.23.39-.1.88-.28,1.23,1.04.07,1.02-.08.96,1.02.62-.14,1.11-.22,1.74-.21-.05,1.18-1.43,1.09-2.27,1.18m-8.63-.98c.24-1.25,1.46-.48,2.24-.44-.07,1.52-1.41.64-2.24.44m-4.96.12c.17-.88.4-1.91.81-2.7.25.17.48.37.73.51.42-1.78.05-3.38.14-5.17.07-1.37.49-3.04,1.82-3.7,0,.65.16,1.38-.08,2.01-.22.57-.6,1.07-.82,1.65-.36.96-.5,2.36.48,3.02-.28-1.52.06-3.61,1.6-4.41-.05,1.73-.38,3.51-1.38,4.96-.52.76-1.11,1.48-1.63,2.25-.42.6-.86,1.48-1.67,1.58m-27.92-1.72c.27-.37.49-.76.52-1.23.87.21,1.88,1.09,2.15,1.94.11.35-.78.24-.91.23-.67-.08-1.29-.48-1.76-.94m25.71.93c.08-1.16.42-2.3.23-3.46-.18-1.15-.86-2.18-.77-3.36.08-1.18.87-2.16,1.41-3.17.43-.8.54-2.21,1.21-2.83,1.76,1.76-2.03,4.19-1.83,6.03.15,1.4.26,2.79.39,4.2.07.84.25,2.08-.62,2.6m18.58-.51c.49-.39,2.14-.81,2.74-.67-.65.69-1.84,1.2-2.74.67m-8.15-.46c-.47-.38-.96-.69-1.45-1.03.27-.46,1.09-1.42,1.7-.95.14.1.46.91.4,1.07-.13.4-.28.69-.64.91m6.2-.58c.23-.33.65-.41,1-.22-.2.31-.68.41-1,.22m-5.15-2.12c-.17-.76.29-.44.49,0-.16,0-.34.03-.49,0m-37.09-1.22c-.96-.6-1.15-1.43-1.36-2.47-.19-.91.93-1.78.75-2.73-.51.53-1.06,1.73-1.78,1.93.04-.9.68-1.47,1.25-2.09.8-.88.59-1.84,1.03-2.86.25-.57,1.05.52,1.11.86.24,1.34-.02,2.39-.63,3.55-.33.62-.57,1.43-.42,2.14.1.51.43,1.21.05,1.67m23.1-3.1c-.78.2-1.42.74-2.09,1.15-.89.53-1.91.79-2.92.95-1.02.16-1.94-.03-2.94-.22-1.03-.2-2.19-.62-3.22-.69,2.31,3.23,9.4,2.18,11.16-1.19m5.38,2.36c0-.25,0-.49.02-.74.2.23.18.53-.02.74m-26.62-4.16c1.01.56,1.74,1.06,2.84,1.44,1.02.36,1.89-.66,2.84-.8.09.46-.48,1.91-.91,2.06-1.3.44-4.02,1.63-4.8-.2-.39-.87-.47-1.62.03-2.5m20.06-.22c-.17-.95-1.15-1.74-1.66-2.51-.24.27-.27.63-.28.98-1.23-.84-3.78-1.35-5.19-.63-.08-.33-.18-.65-.22-1-.74.38-1.26,1.38-1.3,2.2.48-.08.99-.29,1.49-.21-.52.57-1.73,1.44-.85,2.19,1.09.9,2.12,1.22,3.51.76,1.46-.47,3.1-1.11,4.48-1.77m-7.44.54c1.3.31,2.42,0,3.71.1-.8.95-3.27,1.41-3.71-.1m-10.91.46c.61-.48,1.75-.45,2.48-.43-.2.97-1.82.8-2.48.43m.51-.71c.06-.34.09-.68.28-.98.29.41.48,1.15-.28.98m11.64.04c0-.3.14-1.36.76-.72.03.04.02.7-.02.74-.09.09-.62,0-.74-.02m2.76-1.65c.42-.03.87.08,1.23.28-.35.47-1.15.37-1.23-.28m14.08.87c.22-1.18.5-2.25.58-3.45.87.86.39,2.86-.58,3.45m-15.82-.66c-.3-.19-.64-.21-.98-.28.4-.3.81-.12,1.24.03-.08.08-.16.18-.26.25m-42.7-22.91c2.07.39,3.07,2.78,5.1,3.34,2.28.62,4.49.86,6.08-1.22.3-.4.35-.87.49-1.33.18-.54.56-.97.83-1.46.48-.88.94-2.02.72-3.05-.25-1.13-1.72-.93-2.63-.97-1.43-.08-2.38-.86-3.8-.41-.66.21-1.14.45-1.84.4-.55-.04-1.16.04-1.67.26-.76.33-1.7,2.12-2.67,1.56-1.43-.8-1.66-3.04-1.85-4.47-.1-.83-.13-1.68-.08-2.51.06-.94-.09-1.1-.78-1.67-.2-.17-1.3-.44-1.43-.17-1.39,2.81,1.06,6.16-.08,9.1-.95-1-1.94-2.19-3.36-2.48-.89-.19-1.44-.48-2.25-.9-.58-.31-1.36-.47-1.74.22,1.23.68,2.26,2.1,3.78,2.06,1.77-.04,2.24,2.3,3.78,2.34-.68,1.18-2.68,1.68-3.87,1.08-.69-.36-1.37-.73-1.9-1.32-.54-.59-1.03-1.45-1.85-1.69,0,2.71,3.01,3.73,5.09,4.33-.24.67-.92,1.24-1.66,1.02-.89-.26-1.94-.19-2.56-.98-.89-1.13-1.67-2.41-2.37-3.68-1.11.73.63,2.67.93,3.46.4,1.03,1.24,1.05,2.2,1.4.55.21,1.6.96,2.21.63.92-.48,1.51-.76,2.21-1.56.66-.77,1.49-1.54,2.55-1.68.19,1.92,1.74,4.29.17,5.95-.96,1-1.85,1.52-2.55,2.78-.67,1.21-1.43,2.43-1.9,3.74-.31.86-.47,2.56.07,3.38.33.5.71.97,1.12,1.42.42.47.51,1.1.99,1.52.37.34.83.54,1.26.79.61.36,1.37-.14,2-.17,1.16-.05,2.07.72,3.25.17.47-.22.82-.59,1.29-.8.51-.24,1.09-.36,1.56-.68.55-.39.71-1,1.04-1.55.35-.58,1.01-.88,1.44-1.39,1.93-2.25-.61-6.29-2.31-8.02-1.02-1.03-2.68-1.36-3.56-2.46-.75-.91-1.44-3.14-1.43-4.31m60.34,20.64c-.15-1.1-.38-2.11-.41-3.23.72.49.96,2.55.41,3.23m-36.36-.95c-1.04-2.1-1.11-4.66-1.74-6.9-.8-2.82-1.56-5.65-2.3-8.49-.7-2.75-1.39-5.5-2.08-8.25-.67-2.63-1.84-5.27-1.96-8.01.91.16,1.63.83,2.39,1.31,1.1.69,2.27,1.25,3.34,2,.69.49.78,1.69.9,2.44.23,1.41.51,2.8.83,4.19.73,3.17,1.45,6.32,2.17,9.5.34,1.48.68,2.97,1,4.45.22.99.5,2.02-.18,2.88-.79,1.01-1.22,1.56-1.28,2.89-.03.96-.16,1.55-1.1,1.99m-26.52-7.88c-.02.68,0,1.41-.33,2.03-.34.62-1,1.4-.77,2.16.96-.29,1.06-1.2,1.42-1.99.34-.76,1.66-1.05,2.39-1.38-.03,1.1-.3,2.13-.33,3.21,1.49.02,1.08-1.73,1.06-2.69.15,0,.9.13.99.03.15-.17.03-1,.03-1.24,1.72.38,1.07,2.57,2.19,3.29.1.07.69.34.69.3-.02.23.06,1.08-.12,1.2-.65.46-1.08.66-1.64-.05-.53.59-.95,1.28-1.44,1.91-.56.71-1.43-.05-1.93-.43-1.05-.78-1.56.36-2.6.36-.91,0-1.69-1.33-2.13-1.97-.6-.89-1.36-1.51-1.05-2.69.09-.32.09-.8.45-.94.91-.34,2.15-1.11,3.13-1.1m29.26,7.21c-.68-.9-.85-1.61-.92-2.75.51.24.95.17,1.48.04.21.75.22,2.23-.56,2.71m40.07.79c.26-2.54,1.25-4.83.79-7.44-.21-1.23.34-2.49.72-3.63.46-1.32.96-2.59,1.56-3.85,1.2-2.47,2.38-4.96,3.62-7.41.61-1.21,1.13-2.44,1.65-3.68.41-.94.8-2.66,1.65-3.32.41-.32,1.16-.26,1.65-.32-.28,2.78-1.57,5.35-1.9,8.14-.33,2.76-.57,5.41-1.68,8.01-1.07,2.49-2.49,4.96-3.84,7.31-.72,1.27-1.44,2.58-2.33,3.75-.58.81-.98,1.95-1.91,2.43m-8.36-1.7c-.41-1.99.45-3.04,1.4-4.66.97-1.66-.41-2.75-1.92-3.28-.08.26-.4,1.72-.62,1.71-.41,0-.53-.06-.57-.5-.07-.75,1.25-2.09,2.1-1.83.61.18,1.21.55,1.81.69-.43-.91-1.44-.99-1.91-1.75-.99-1.57-.12-3.26.36-4.87.54-1.86.94-4.09,1.97-5.75.87-1.42,3.24-1.83,4.66-2.43.84-.36,1.7-.67,2.51-1.08.63-.32,1.5-.88,2.25-.69-.26,1.49-1.07,2.84-1.72,4.19-.81,1.66-1.5,3.4-2.15,5.14-1.32,3.52-2.8,6.98-4.07,10.52-.4-.32-.48-.88-.63-1.33-.25-.69-.81-1.22-1.01-1.94-.25.69.08,1.51.15,2.21.08.69-.34,1.41-.64,1.99-.34.64-.96,1.13-1.19,1.83-.21.6-.28,1.37-.76,1.84m-52.38-3.44c-.31-.02-.81.07-1.02-.17-.29-.33-1.44-1.5-1.05-2.06.1-.15.62-1.05.75-1.01.94.31,1.48.62,2.03,1.45.47.71.02,1.59-.71,1.78m21.53-.09c-.89-3.75-1.64-7.54-2.42-11.32-.78-3.69-2.12-7.53-2.18-11.32,1.87.05,3.85,1.59,5.05,2.94,1.64,1.86,1.26,4.6,1.49,6.93.13,1.26.16,2.51.33,3.77.17,1.33-.41,1.86-1.1,2.88-1.16,1.72,1.08,4.75-1.17,6.13m26.74-.3c-.37-.71-.14-1.6.31-2.22.85.7.7,1.8-.31,2.22m3.22-.16c.08-1.1.54-2.07.58-3.21,1.15.21,1.03,1.02.94,1.96-.06.56-1.05,1.11-1.52,1.25m-59.78-4.04c-1.11.5-1.77,1.59-3.02,1.9-.21-.43-.04-.84.13-1.24.21-.49.36-.75.91-.47.33-.89.32-2.23,1.31-2.69.02.58-.17,1.16-.29,1.72.43-.42,1-.86,1.32-1.37.38-.58.87.05,1.43.2.12-.54.47-1.02.78-1.46.33.35.38.8.47,1.25.54-.43,1.04-.61,1.74-.45.02-.57-.16-1.23.62-.95,1.82.66,2.8,2.51,3.26,4.27-.48-.09-.82-.5-1.28-.6-.41-.09-.87-.23-1.2.12-.36.38-.34.91-.9.83-.84-.13-1.64-1.01-2.29-1.49-.25.82-.78,1.77-1.48,2.24-.97.63-1.32-1.17-1.51-1.8m55.37,2.68c-.05-.1-.51-2.52.15-2.19.84.46.6,1.75-.15,2.19m-15.58-.65c-.53-.8-2.68-.72-3.45-.34.37.63,2.89.49,3.45.34m1.98-.19c.18-.48.45-.96.53-1.47-2.06-.06-4.12-.45-6.18-.11-.81.13-1.03.63-1.03,1.41,1.21-.78,2.62-.65,3.99-.65.51,0,1.38-.16,1.78.25.27.28.43.67.9.58m15.13-1.35c-.35-.64.14-1.29.78-1.46.11.51-.36,1.22-.78,1.46m-25.47-.66c0-.51.11-1.15.53-1.47.19.51-.07,1.2-.53,1.47m5.22-.6c1.19-.56,2.45-.62,3.72-.4-.26-1.5-4.36-.69-3.72.4m20.85-2.41c.72-.12,2.69,1.3,1.62,1.63-.76.25-.89.11-1.61-.26-.4-.21-.06-1.11,0-1.38m-17.83.51c-.46-.35-1.71-.13-1.94-.67-.31-.73-.81-1.69-.06-2.32.69-.57,1.17-1.27,2.13-1.08.99.19,1.64.56,2.68.44-.11-.9-1.97-1.05-2.65-1.23-1.05-.26-2.11.97-2.6,1.7-.63.95-.81,1.75-.1,2.69.47.61.48.74,1.24.81.39.02.96-.19,1.31-.35m11.62.55c-.07-.36-.35-.71-.72-.76,0,.39.34.72.72.76m-1.45-1.03c-.13-.29-.18-.59-.48-.75.11.31.22.54.48.75m-16.82-.45c-.49-1.7-.68-3.48-.82-5.25-.04-.5-.56-4.64-.21-4.75,1.25-.42,3.07.79,3.29,2.04.5,2.84.68,6.38-2.26,7.96m15.84-.08c-.12-.44-.23-.87-.71-1.01.07.44.35.77.71,1.01m10.64.03c.07-1.38.74-2.65,1.18-3.93.49-1.47.75-3.04,1.51-4.41.47.5-.02,1.4-.2,1.92-.31.91-.55,1.84-.81,2.76-.17.61-.83,3.9-1.68,3.66m-59.68-17.41c.32.66.25,1.46.38,2.18.13.7.26,1.38.29,2.1.04,1.2.13,2.59.86,3.6.37.5-.02.8-.08,1.34-.07.63.13,1.33.29,1.94.41,1.57,1.11,3.16,1.32,4.77-1.19.03-1.35-1.66-1.45-2.51-.23-1.66-.63-3.36-1.21-4.95-.29-.8-.21-1.37-.19-2.2.02-.86-.19-1.79-.29-2.64-.13-.93-.88-2.9.09-3.62m47.83,16.86c-.04-.34-.14-.66-.22-1-.31.36-.07.69.22,1m10.64-.23c.02-.76.3-1.49.55-2.22.48.56.04,1.87-.55,2.22m-11.86-.56c-.12-.44-.23-.87-.71-1.01.07.45.35.77.71,1.01m-1.23-.51c-.07-.42-.35-.8-.71-1.01.06.43.22.93.71,1.01m-1.48-.3c-.03-.16-.4-1.55-.77-1.2-.4.39.43.99.77,1.2m-37.54-2.96c2.29-.03,3.89-1.06,5.51-2.57-.84.12-1.53.75-2.27,1.14-.85.45-1.86.6-2.81.54-1.56-.09-3.51-.71-4.31-2.18.44.12,1.2.28,1.6.1.82-.36,1.17-1.33,1.91-1.77.67-.41,1.42.41,2.2,0,.95-.51,1.43-.88,2.54-.51,1.12.37,2.4-.06,3.46.45.37.18.48.95.43,1.32-.07.6-.37,1.05-.79,1.46-.17.17-1.49.87-1.49,1.02-.02.76,1.23.6.73,1.43-.79,1.31-2.57,1.45-3.95,1.25-.87-.13-2.64-.61-2.76-1.67m52.92,1.88c.06-.92.5-3.95,1.59-4.17-.14.8-.51,1.54-.81,2.3-.25.62-.28,1.39-.78,1.87m-22.98-1.58c.03-1.15-.71-2.93-.14-3.97.47.5.83,3.55.14,3.97m-.84-5.48c.02-1.45,3.49-2.05,4.47-2.31,2.6-.67,5.35-.74,8.03-.57,2.54.16,5.02.9,7.41,1.72,1.32.46,4.55,1.2,4.55,3.05-1.78.04-3.75-1.59-5.29-2.35-1.86-.91-3.85-1.31-5.91-1.41-2.27-.1-4.62-.32-6.86.14-1.07.22-2.16.41-3.18.8-1.06.41-2.09.96-3.23.92m27.21.22c-.11-.72,1.38-1.55,1.82-1.97.84-.79,1.68-1.81,2.8-2.2.72-.25,1.57.48,2.12.86.71.49.39.93-.25,1.32-.97.59-2.16.84-3.19,1.32-.89.43-2.32,1.21-3.31.67m-2.47-.06c-.97-.69-2.09-1.14-3.18-1.59-1.13-.47-2.23-1.06-3.43-1.3.94-.75,2.76.56,3.66.92.61.25,3.2,1,2.95,1.97m1.76-.82c-.55-.19-1.66-.37-1.49-1.18.2-1.01,1.13-1.87,1.73-2.66.54-.7,1.45-1.91,2.5-1.61.66.19,1.05.55,1.39,1.15.81,1.45-3.14,3.84-4.13,4.3m-27.96-.6c.19-1.15,2.54-1.69,3.41-2,1.76-.61,3.55-.99,5.41-1.14,3.63-.29,7.07-.02,10.53,1.16-.84.6-3-.41-3.93-.53-1.75-.25-3.67-.29-5.44-.24-1.86.05-3.65.6-5.46,1-1.52.35-2.97,1.72-4.52,1.75m-2.46-.32c-1.77-.82-3.13-2.31-4.5-3.65-1.43-1.4-2.5-2.96-3.35-4.76-.91-1.93-1.68-3.96-2.21-6.03-.24-.94-1.29-3.54-.26-4.28.76-.53,2.06.05,2.86.18,1.56.25,3.16.36,4.74.43,3.34.15,6.49-.5,9.66-1.5,1.2-.38,2.63.4,3.82.67,1.54.35,3.2.79,4.78.8,1.55,0,3.3-.14,4.8-.51.81-.21,2.91-1.52,3.48-.56,2.05,3.51,4.09,7.02,6.95,9.95,2.72,2.78,6.07,5.8,9.8,7.1.15.05.17.49.03.55-2.1.77-4.77-1.69-6.27-2.9-1.96-1.6-3.85-3.3-5.55-5.17-1.63-1.8-3.08-3.72-4.21-5.88-.36-.68-.95-1.65-1.78-1.81-1.3-.24-2.84.36-4.16.44-2.55.15-5.13.05-7.64-.46-.97-.21-2.06-.84-3.07-.57-1.24.34-2.46.76-3.74.94-2.45.35-5.09.61-7.55.28-.79-.11-5.93-1.29-6.08.02-.35,3.13,1.49,6.5,3.14,9.06.93,1.44,1.98,2.81,3.16,4.07,1.09,1.17,2.03,2.57,3.43,3.38-.1.06-.19.19-.28.23m35.77-.04c.42-.27-.06-1.06-.48-.76-.4.28.08,1.02.48.76m-43.81-14.02c.99.61,1.43,1.94,1.96,2.91.77,1.4,1.79,2.68,2.73,3.97.87,1.2,1.87,2.38,2.97,3.36.8.72,2.14,1.66,2.14,2.88-1.19.02-2.12-.95-2.87-1.75-1.03-1.1-2.06-2.19-2.93-3.42-1.72-2.41-3.13-5.11-4-7.95m37.45,6.43c1.31.27,1.77,1.16,2.3,2.26.22.44-.89,1.81-1.13,2.09-.79.89-1.63,1.73-2.55,2.5-.55.46-1.55-.18-1.64-.76-.12-.83.83-1.87,1.23-2.54.66-1.15,1.42-2.28,1.8-3.54m-36.89-8.9c1.08.13,2.18.12,3.25.34.62.12,2.52.05,2.92.66,1.2,1.9,1.65,4.14,2.54,6.18.46,1.05.9,2.1,1.43,3.11.48.91,1.26,1.77,1.43,2.82.09.51.26,1.09-.4,1.3-1.44.47-2.8-.97-3.68-1.93-1.19-1.3-2.32-2.63-3.34-4.06-1.06-1.46-2.08-2.99-2.94-4.57-.53-.97-1.84-2.68-1.22-3.84m34,5.85c.71.17,1.46.95,1.86,1.53.87,1.32-.28,3.07-.84,4.28-.37.78-1.12,2.72-2.14,2.84-.79.08-2.28.12-2.06-1.14.48-2.63,2.37-4.97,3.18-7.51m6.34,8.58c.42-.27-.04-1.04-.48-.76-.52.31.12.93.48.76m-33.18-13.75c.85,0,3.85-.9,4.42.02.56.89.67,2.16.91,3.16.34,1.39.68,2.78,1.08,4.15.39,1.33.89,2.6,1.26,3.93.34,1.24-.43,1.56-1.5,1.5-1.77-.09-2.86-3.85-3.41-5.17-.99-2.34-2.51-5.02-2.75-7.59m23.26.11c1.29.06,3.05,3.26,2.94,4.37-.24,2.5-1.76,4.76-2.79,7-.45.97-1.28,1.67-2.33,1.1-.37-.2-1.09-.42-1.03-.96.22-2.03.93-3.98,1.52-5.93.54-1.81,1.41-3.7,1.68-5.58m-13.43,12.17c-1.82-.17-2.33-3.05-2.65-4.42-.24-1.03-.53-2.05-.79-3.08-.35-1.39-1-2.97-1.06-4.38-.1-1.97,4.39-2.63,5.23-1.02.38.75.16,1.76.08,2.55-.1,1.01-.03,2.04.09,3.05.12,1.12.29,2.24.45,3.34.13.87.73,2.48.3,3.32-.29.53-1.11.58-1.63.64m-16.55-1.57c.51.26.61.73.71,1.26-.67,0-1.06-.68-.71-1.26m44.97-6.49c1.07,1.61,2.03,3.31,3.24,4.83.54.69,2.7,2.2,2.36,3.21-.72,2.02-5.04-.63-5.91-1.17-1.1-.68-2.08-1.52-3.15-2.25-.6-.41-1.81-1.02-1.93-1.83-.09-.63,0-.93.65-1.19,1.55-.58,3.16-1.1,4.74-1.6m-15.72-4.87c-.18,2.21-.87,4.22-1.55,6.3-.62,1.93-.81,4.54-2.07,6.19-.19.25-1.03.31-1.33.19-.62-.25-1-.31-1.02-1.03-.07-2.02.14-3.96.34-5.96.1-.94.09-1.89.26-2.82.08-.45.2-2,.78-2.14,1.44-.38,3.1-.84,4.59-.73m-7.5,12.59c-1.15.07-2.19,0-2.77-1.09-.77-1.39-.82-3.64-.94-5.2-.15-1.99-.34-4.07.38-5.97.26-.66,4.17-.17,4.59.31,1.03,1.19,0,4.39-.09,5.73-.09,1.31-.08,2.62-.11,3.94-.03.85-.09,1.99-1.06,2.28m23.42-34.69c1.48.3,2.88,1.67,4.24,2.34,1.76.87,3.49,1.77,5.34,2.44,1.98.71,4.01,1.31,6.05,1.83,1.97.51,3.99.67,5.97,1.12-.52.68-1.99,1.11-2.73,1.53-1.08.63-2.09,1.35-3.06,2.13-1.9,1.53-3.7,3.69-4.76,5.9-1.19,2.47-1.95,4.85-2.27,7.59-.16,1.37-.12,2.69.12,4.05.11.6.24,1.21.41,1.79.17.58.59,1.26.54,1.87-.06.78-.16.87-.94,1.08-1.29.35-1.91.35-2.64-.85-1.38-2.24-2.37-4.69-3.28-7.15-1-2.7-1.44-5.47-2.26-8.22-.8-2.71-.78-5.59-.72-8.39.08-3-.09-6.03,0-9.06m-8.79,33.44c.25.08.58.26.84.15.2-.09.57-.46.42-.74-.39-.7-1.1.28-1.26.59m39.45-22.74c-1.49-.04-2.76-1.08-4.3-1.14-1.48-.05-2.96,0-4.37.51-2.72.97-5.06,2.91-6.84,5.17-1.75,2.23-2.99,4.83-3.77,7.55-.47,1.63-.47,3.34-.29,5.01.09.85.26,1.69.51,2.51.27.86.75,1.74.64,2.67-2.89-.42-2.97-5.36-2.82-7.64.21-3.18,1.39-6.2,3.05-8.9,1.61-2.63,3.82-5.12,6.6-6.55,2.66-1.37,6.32-2.33,9.26-1.45.99.31,2.51.99,2.33,2.26m-26.06,21.6c-3.68-2.94-4.82-9.33-4.84-13.75.79.61.88,1.88,1.1,2.77.37,1.46.75,2.95,1.32,4.35.54,1.33,1,2.72,1.67,3.98.34.61,1.24,1.92.75,2.64m25.29-20.38c-.31.49-1.75-.02-2.16-.12-1.05-.25-2.13-.31-3.2-.13-2.76.46-5.7,2.44-7.5,4.53-1.91,2.21-3.37,4.58-3.96,7.48-.3,1.47-.15,2.87.09,4.33.11.69.25,1.4.53,2.04.15.34.52.91.41,1.3-.11.34-.4,1.26-.9.67-1.87-2.19-1.75-5.78-1.26-8.44.56-2.98,2.04-5.66,3.88-8.04,1.97-2.56,4.23-4.29,7.4-5.09,1.46-.37,6.21-.91,6.66,1.45m-81.66,18.4c-.67-.39-1.34-1.09-1.68-1.77.75-.14,2.22.95,1.68,1.77m41.58-.15c-.48-.29-1.2-.07-1.14.56.09,1,.99-.26,1.14-.56m39.07-17.55c.08,1.42-1,2.81-1.78,3.9-.3.41-.65.7-1.15.81-.32.07-1.4-.08-1.42.38,0,.48.48.08.73.51-.37.33-.91.4-1.37.49-.72.16-1.21.67-1.89.9.53-.87,1.52-1.3,2.04-2.18-2.19,1.06-4.36,2.86-4.36,5.54,0,1.17.74,2.51.18,3.6-.56,1.1-1.47,2.05-2.3,2.97-.48.53-.89.34-1.41.04-.81-.48-1.01-2.11-.49-2.92.56-.88,2.28-.73,2.71-1.6.11-.21.72-1.1.18-1.23-.95-.23-1.68-.02-2.62,0-.71.03-1.67-.14-1.82-.98-.17-.94.6-2.39,1.47-2.8,1.03-.49,1.97.93,3.14.42.51-.23-1.61-2.33-1.66-2.5-.31-.97.99-1.85,1.72-2.07,1.27-.38,1.45,1.28,2.66,1.12.48-.06.29-.72.19-1-.26-.74-.33-1.26-.22-2.04.12-.91,1.86-1.37,2.61-1.05,1.16.49-.17,2.19.87,2.76,1.01.52,1.28-1.89,1.77-2.21.8-.49,1.27-.9,2.21-.88m-29.73,10.36c.11.82.3,1.55.3,2.39,0,1.04-1.91,1.52-2.65,1.81-.8.31-2.74,1.22-3.59.75-.31-.17-.85-.31-.92-.68-.23-1.04,2.09-1.76,2.68-2.13.99-.59,2.97-2.37,4.19-2.14m-13.03,4.36c.23-.12.48-.46.4-.73-.03-.09-.92-.65-1-.63-.72.21-.2,1.78.6,1.37m5.04-1.35c-.34-1.12-.1-2.32-.16-3.46-.43.06-.91.35-1.29.54-.55.3-.72-.22-.55-.7.57-1.65,1.91-3.11,2.83-4.58,1.04-1.67,1.75-3.38,2.26-5.28.54-2.08.71-4.09.46-6.21-.12-1.01-.31-2.01-.53-3-.24-1.01-.86-2.21-.84-3.24,1.13.82,1.75,2.93,2.32,4.16.84,1.8,1.53,3.66,2.09,5.57.58,2.01.92,4.09.87,6.18-.03.94-.05,1.88-.07,2.82-.02.82.34,1.92.17,2.7-.59-.24-.51-1.2-.53-1.7-.04-1.1-.26-2.25-.5-3.32-.35-1.48-.73-3.63-2.17-4.47-.82,2.9-1.31,5.9-2.02,8.83-.31,1.2-.68,4.96-2.32,5.18m-33.18-1.13c.09-.19.48-.74.43-.93-.05-.24-.78-.45-.97-.35-.07.04-.3.87-.27.95.11.33.54.48.81.33m6.43-.08c.6-.26,0-1.56-.6-1.26-.6.31-.14,1.64.6,1.26m28.76.26c.14-1.97.93-3.82,1.46-5.7.38-1.35,1.29-3.44,1.04-4.87,1.56.36,1.57,4.57,1.74,5.72.35,2.44-1.81,4.55-4.25,4.85m-12.37-.32c.5-.02,1.96-.33,1.21-1.16-.12-.13-.88-.05-.97.1-.19.37-.2.65-.24,1.06m-4.77-.37c.06-.18.37-.77.3-.93-.08-.19-.62-.44-.81-.33-.48.27-.22,1.69.51,1.26m-7.1-.2c.31,0,.89.06,1.13-.22.16-.18.22-.9.03-1.11-.28-.32-.82-.12-1.01.15-.19.3-.13.87-.15,1.18m51.96.87c-.75-.68-.44-2.34-.41-3.23.36.42.73,2.81.41,3.23m.78-1.46c-.44-1.69,1.21-4.32,3.08-4.13-.16,1.03-.94,1.91-1.49,2.75-.5.77-.61,1.4-1.58,1.38m-31.05-5.03c-.12.77-1.8,3.66-2.71,2.43-.58-.78-.02-1.39.64-1.76.48-.26,1.5-.8,2.07-.67m-28.73.73c.22-3.62.95-7.23,1.4-10.84.2-1.63.14-3.3.49-4.91.37-1.65-.09-3.34-.11-5.01.91,1.05.41,3.63.37,4.85-.06,2.12-.09,4.22-.17,6.33-.04,1.09-.13,9.98-1.98,9.57m-1.48-.02c.17-2.57.89-5.12,1.43-7.63.38.44.25,1.11.14,1.61-.2.91-.24,1.86-.36,2.79-.09.59-.09,3.46-1.22,3.23m17.13-2.04c.09.53-.26,1.18-.29,1.72-.57-.63-.49-1.67-.55-2.46-.09-1.18-.07-2.32-.03-3.49.79.66.99,2.05,1.59,2.89.81,1.12,2.08,1.91,2.7,3.16-1.51,0-2.1-1.5-3.42-1.81m-2.03,1.67c.41-2.19-.13-4.48-.07-6.69.52.59.43,2.67.42,3.42,0,.54.69,3.44-.35,3.27m-1.98-.05c.11-3.84-.39-7.56-.78-11.36-.19-1.84-.66-3.69-1.17-5.46-.48-1.64-1.24-3.31-1.19-5.05,1.18.94,1.47,3.64,1.92,4.99.66,2.02,1.22,4.02,1.57,6.12.36,2.13.58,4.38.69,6.54.04.92.5,4.23-1.05,4.23m-4.14-21.38c1.03.75,1.26,3.42,1.56,4.57.57,2.14.98,4.33,1.25,6.53.27,2.21.39,4.42.65,6.62.1.79.41,3.15-.59,3.47-.37.12-.97-.4-1.02-.72-.23-1.44.29-3.13.28-4.61,0-1.84,0-3.64-.23-5.47-.22-1.73-.44-3.47-.77-5.2-.33-1.64-1.15-3.52-1.13-5.2m-1.89,15.53c.77.43,2.19,1.86,2.27,2.78.12,1.34-1.18,2.56-2.41,2.75-1.58.24-2.05-1.3-2.38-2.51-.25-.89,1.94-2.49,2.52-3.02m18.23-15.84c-.56,2-1.44,4.09-1.78,6.14-.16.99.12,1.99-.16,2.97-.28.98-.99,1.74-1.34,2.68,2.04-1.13,2.27-3.16,2.38-5.21.13-2.13.49-4.62,1.91-6.31.39-.46,1.87.06,2.31.21,1.06.38.56,1.22.12,1.99-1.32,2.27-3.2,4.56-3.41,7.26-.06.77.21,1.74.91,2.16.02-.7-.19-1.4-.2-2.1,0-.77.38-1.52.66-2.23.45-1.06.96-2.09,1.51-3.1.5-.92,2.23-3.92,3.3-1.92,1.26,2.33,1.79,4.71,2.02,7.32.21,2.32.14,5.22-.97,7.33-.89,1.71-2.6,3.33-4.42,4-1.16.43-1.58-.04-2.65-.37-1.12-.35-2.29.64-3.47.47-2.14-.32-3.93-3.02-4.58-4.86-.82-2.3-1.46-5.29-.88-7.7.54-2.22,1.98-4.28,3.55-5.88.96-.99,3.66-3.74,5.21-2.86m-16.51,16.15c-.48-.15-.87-.53-1.37-.67-.63-.18-1.3.58-1.97.16-1.11-.68-.14-2.47.55-3.06.54-.47.87-.84,1.55-.47.53.29.86.62,1.28,1.06.96.98,1.43,2.26-.05,2.98m5.98-1.35c.16-.78-.25-1.71-.41-2.47-.19-.95-.38-1.9-.59-2.84-.47-1.94.1-3,1.12-4.58,1.56-2.45,4.96-6.04,8.21-5.73-.64,1.24-2.25,2.17-3.25,3.12-1.29,1.2-2.26,2.69-3.12,4.22-.81,1.44-1.15,2.77-1.39,4.39-.1.67-.27,1.33-.27,2.01,0,.6.11,1.4-.32,1.89m-13.09-.83c.02-.82.04-1.65.07-2.47.41.54.36,1.95-.07,2.47m36.65-1.02c-.86-1.72-1.31-3.62-2.12-5.37-.7-1.52-1.9-3.12-1.82-4.87,1.61.57,2.52,2.68,3.07,4.17.48,1.33,1.95,4.77.87,6.08m-33.13-.87c-.69-1.08,0-1.93.69-2.79.9-1.11,1.66-1.2,2.68-.25.39.37.64.82.73,1.34.16.93-.98.98-1.54.87-1.06-.19-1.56.69-2.56.83m64.93-1.92c.51-.03,1.94-.44,1.93.38,0,.48-.46,1.31-1.03,1.29-.7-.02-1.4-.38-1.7-1.03m-29.93-10.19c1.21.27,2.21,1.26,3.24,1.9,1.21.76,2.45,1.45,3.72,2.1,2.84,1.43,5.82,2.46,8.95,3.07,3,.58,6.23.97,9.28.98,1.48,0,2.97-.04,4.45-.04,1.08,0,3.1-.47,4.08.05-.77.93-2.78.89-3.88.9-1.63.02-3.25.04-4.87.09-3.34.1-6.52-.37-9.73-1.22-3.32-.88-6.58-1.85-9.64-3.43-1.48-.75-5.66-2.34-5.6-4.39m-30.88,7.12c-.97-.05-1.56.02-2.5.21-1.1.22-.72-1.49-.38-2.02.58-.85,1.27-1.23,2.19-.6.77.51,1.05,1.57.69,2.41m30.69-9.35c.52-.73,1.96-.55,2.4.12.48.74,1.08,2.32,2,2.6,1.03.32,2.28-.37,3.09.56.4.47.78,1.23,1.31,1.54.58.35,1.43.03,2.07.03,1.68,0,2.21,1.28,3.61,1.79,1.37.49,2.53-1.09,3.91-.73,1.09.29,2.19,2.2,3.32,1.89,1.25-.34,2.41-.89,3.67-1.2,1.28-.31,2.17,1.26,3.36,1.45,1.57.27,3.52-2.31,5.01-.95.46.41,1.05.84,1.16,1.48-.71-.03-2.07-1.36-2.74-1.09-1.11.46-2.12,1.17-3.31,1.43-1.03.24-1.82-.75-2.49-1.36-1.18-1.08-3.49.68-4.78.95-1.49.32-2.33-1.99-3.97-1.64-.98.21-2.18,1.17-3.21.97-.87-.17-1.64-1.58-2.4-2.05-1-.59-2.39.47-3.46-.04-.75-.36-1.04-1.25-1.54-1.85-.72-.86-2.07-.75-3.09-.82-.99-.08-1.45-2.28-2.29-2.79-.47-.33-1.11-.04-1.62-.32m-26.19,7.74c-1.02-2.02.79-3.71,2.24-4.88,1.22-.98,3.91-2.99,5.63-2.59-.38.6-1.06.97-1.66,1.32-.85.48-1.6,1.06-2.32,1.73-1.37,1.29-2.32,3.42-3.89,4.42m24.98.42c-.27-.94-1-1.81-1.17-2.75,1.33-.2,1.9,1.87,1.17,2.75m-29.88-2.29c-.85-.04-1.36.18-2.15.3-1.26.16-1.21-.94-.78-1.8.2-.41.51-.63.87-.89.34-.25.89.14,1.26.28.93.36.82,1.32.8,2.12m34.09-7.27c.84.42,1.4,1.22,1.93,1.95.47.62,1.16.47,1.87.46,1.17-.02,1.34.71,2.13,1.38.86.73,1.3.68,2.41.6,2.13-.15,2.92,2.22,5.19,1.46,1.08-.37,2.17-.73,3.26-.18.6.31,1.65,1.48,2.39,1.39,1.12-.16,2.07-.82,3.19-.95,1.58-.18,2.42,1.74,3.99,1.48,1.53-.25,2.88-1.87,4.49-.87.76.47,1.64,1.04,2.1,1.83-.86.35-2.08-.95-2.87-1.24-1.46-.51-2.9,1.88-4.22,1.32-1.07-.47-2.02-1.67-3.26-1.58-1.41.11-2.84,1.8-4.29.99-.51-.29-2.06-1.88-2.66-1.72-1.05.26-2.15.73-3.21.83-1.19.11-1.84-.99-2.72-1.57-1.11-.71-2.05.27-3.16-.02-1.01-.25-1.34-1.53-2.03-2.18-.92-.85-2.23.29-3.11-.53-.71-.63-1.33-1.86-1.43-2.84m-30.1,6.16c-.49-.96-3.27-6-1.07-6.46,2.26-.48,5.2.67,7.38,1.18-.27,1.19-1.83,1.84-2.76,2.4-1.32.78-2.15,2.25-3.55,2.88m-4.9-2.12c-.66-.23-1.11.09-1.73.25-.69.17-1.28-.22-.79-1,.62-1.03,3.37-.64,2.52.75m31.67-8.83c1.2.67,2.01,1.87,3.05,2.74,1.3,1.09,2.8,1.94,4.3,2.69,3.31,1.65,6.78,2.48,10.44,2.86,3.53.36,7.07.57,10.61.72,1.84.08,3.69.04,5.53.07,1.82.03,3.6-.43,5.42-.37-1.21,2.17-5.66,1.38-7.65,1.22-2.02-.17-4.04,0-6.07-.1-2.24-.1-4.4-.49-6.61-.78-4.03-.52-7.77-1.15-11.45-2.95-1.56-.76-3.32-1.35-4.68-2.45-1.07-.87-2.77-2.15-2.9-3.65m-29.15,7.42c-.24-.36-.41-.82-.47-1.25.49.14.76.79.47,1.25m34.27-13.95c.6.35,1.27.92,1.95,1.04-.04-1.59-.69-2.93-.87-4.47,1.47.27,2.46,1.69,3.91,2.09.05-1.75-1.13-3.27-1.11-4.98,1.38.31,3.2,2.85,4.64,2.35-.68-1.34-1.48-3.05-1.86-4.5,1.17-.06,2.28.66,3.33,1.07,1.3.49,2.35,1.02,3.42,1.89,2.3,1.87,4.3,3.94,6.16,6.25,1.74,2.17,3.34,4.46,4.65,6.92.68,1.27,1.33,2.56,1.97,3.85.19.37,1.68,2.73.84,2.89-3.21.6-6.52-.23-9.73-.33-3.19-.08-6.58-.38-9.69-1.08-2.23-.51-3.02-3.28-3.74-5.13-.5-1.31-1.2-2.5-1.87-3.73-.64-1.18-2.03-2.72-2-4.13m-35.08,7.23c-1.28.25-.84,2-1.34,2.85-.25.44-.75,1.06-1.24,1.23-.73.25-.92.53-1.29,1.26,2.98,0,3.79-2.9,3.86-5.33m67.4,5.98c.03-.84.29-1.62.32-2.46-.56.58-1.06,1.29-1.78,1.69.13-.74.41-1.47.55-2.22-.68.36-1.09,1.06-1.77,1.43.02-.86.44-1.62.55-2.46-.81.39-1.28,1.21-2.02,1.68.03-1.02.61-1.94.57-2.96-.65.34-1.01,1.36-1.77,1.43.02-.62.41-1.38.3-1.97-.44.21-.78.59-1.26.71.02-.57.03-1.16.05-1.73-.32.19-.62.43-1,.47.11-.41.13-.83.03-1.24-1.18.37-2.32-1.24-2.41-2.29,1.35.26,2.53,1.24,3.68,1.92,1.34.78,2.62,1.67,3.84,2.62,1.03.8,5.13,3.39,4.11,5.18-.27-.36-.22-.81-.22-1.25-.6.3-1.08,1.58-1.77,1.43m-37.39-18.31c.82-.13,1.74,1.84,2.1,2.43.57.95,1.98,2.67,1.96,3.81-.02.63-1.61,1.16-2.06,1.39-1,.51-1.78,1.15-2.43,2.07-1.52,2.15-.02,4.56-.7,6.84-.2.69-.61.68-1.26.48-.97-.29-4.63-1.32-4.53-2.75.07-1.07,1.11-2.35,1.61-3.27.67-1.23,1.37-2.43,1.97-3.7,1.15-2.4,2.07-4.94,3.34-7.3m-.18,16.33c-.13-.83.9-.8,1.49-.82.74-.03,1.37.21,1.72.91-1.03-.19-2.28.47-3.22-.09m8.45-1.25c-.18-.67-.3-1.42-.69-2-.1.33-.21.64-.28.98-.66-.59-.66-2.66-.65-3.48-.5.74-.53,1.54-.56,2.4,0,.09-.48.13-.5-.02-.04-.28-.03-.48-.08-.78-.2-1.11-.07-2.25-.05-3.35-.48.75-.78,1.55-.8,2.45-.68-.61-.45-1.91-.43-2.73-.73.56-1,1.81-1.06,2.69-.5-.62-.46-2.47-.09-3.09.34-.55,1.08-.56,1.63-.69,1.43-.35,4.8,6.93,3.56,7.62m-16.31-1.19c.08-1.24.99-2.32,1.62-3.32.88-1.42,1.57-2.95,2.25-4.46.58-1.31,1.34-2.54,1.74-3.93.29-.96.81-3.07,1.71-3.68.51,1.01-.2,2.39-.64,3.3-.75,1.55-1.4,3.18-2.25,4.67-.82,1.43-1.59,2.88-2.33,4.36-.29.59-1.2,3.26-2.11,3.06m-1.17-21.32c1.21.28,2.14,1.76,3.05,2.52,1.02.86,2.22,1.6,3.47,2.06,1.32.48.98.85.55,1.97-.56,1.47-1.23,2.92-1.84,4.36-1.27,2.99-2.61,6.09-4.45,8.78-.96,1.41-1.48,1.52-3.12,1-.9-.29-2.34-.5-2.88-1.39-.54-.9.32-2.24.62-3.08.59-1.69,1.24-3.31,1.72-5.05,1.03-3.69,1.92-7.44,2.87-11.18m10.92,17.63c-.22-.23-.39-.55-.73-.51.29-.45.7-.87,1.27-.96.08.44-.21,1.17-.53,1.47m29.63-25.71c3.9,2.48,1,8.62-.28,11.69-.98,2.33-1.94,4.66-2.94,6.98-.35.81-.71,1.97-1.43,2.54-.81.66-1.7-.48-2.15-1.05-.65-.82-1.13-1.42-.87-2.48.33-1.36,1.21-2.63,1.81-3.88.75-1.54,1.46-3.1,2.16-4.66,1.32-2.98,2.13-6.29,3.69-9.13m-16.89,11.93c-1.16-.27-2.35-.87-3.49-.69-.52.08.6,3.01.7,3.34-1.2-.06-2.7-1.16-3.66-1.83-.43,1.32.41,3.15.62,4.47-1.33,0-2.23-1.17-3.42-1.57-.36,1.25.43,2.68.4,3.97-.91-.14-1.79-.85-2.42-1.48-.26-.26-.97-1.3-.76-1.68.85-1.53,2.17-2.74,3.52-3.82,1.38-1.09,2.73-2.38,4.45-2.9,1.43-.44,3.43.96,4.07,2.2m18.45-33.17c.91.6.37,2.22.49,3.11.22,1.56-.14,3.32-.17,4.92-.02.85-.21,1.69-.29,2.54-.08.95-.02,1.95-.26,2.88-.4,1.54-.62,3.16-1.07,4.67-1,3.42-2.36,6.76-3.75,10.04-1.46,3.44-2.94,6.93-4.81,10.17-.32.53-.37.53-.87.21-.95-.61-3.18-2.11-2.44-3.48.72-1.33,1.9-2.41,2.72-3.68.86-1.33,1.64-2.71,2.35-4.13,1.43-2.91,2.65-6.1,3.39-9.26.38-1.61.57-3.27.64-4.92.03-.67-.21-1.38-.11-2.04.1-.72.49-1.44.75-2.13.56-1.47,1.12-2.96,1.73-4.41.61-1.45.91-3.11,1.68-4.49m-31.41,37.04c-1.02-1.51,1.28-3.29,2.26-4.13,1.14-.97,4.13-4.2,5.81-3.2,1.14.67-2.56,2.92-2.93,3.21-.88.7-1.74,1.43-2.6,2.17-.77.67-1.51,1.66-2.53,1.95m-1.2-1.76c-.74-1.46,1.46-3.22,2.35-4.09,1.3-1.28,2.96-3.32,5.03-2.93.87.16-2.2,2.51-2.33,2.61-1.02.83-1.93,1.72-2.84,2.68-.62.65-1.26,1.56-2.21,1.72m27.8-21.78c-.11,3.92-1.38,7.73-2.89,11.31-1.43,3.36-3.29,6.96-5.97,9.51-.76.72-2.23,0-2.56-.89-.51-1.38,1.86-3.65,2.55-4.69,1.26-1.88,2.33-3.88,3.45-5.83,1.09-1.89,2.24-3.8,3.21-5.75.44-.89,1.04-3.44,2.21-3.66m-28.49,20.04c-.99-2.06-.11-4.51-.08-6.68.04-2.52,0-5.02.34-7.53.32-2.42,1.1-4.36,2.19-6.52,1.2-2.38,1.74-4.82,2.49-7.35.43.48.13,1.3,0,1.83-.21.86-.23,1.75-.12,2.62.48-.85.51-1.84.73-2.77.21-.88.55-1.73.96-2.54.63-1.26,1.67-2.84,3.22-2.97-.17,1.12-1.11,1.98-1.43,3.06-.38,1.24-.69,2.57-.72,3.87,0,.49-.14.98-.15,1.47,0,.54.26,1.13.36,1.65.27,1.43.14,2.93.06,4.37-.11,1.97-.35,4-.71,5.95-.24,1.25-.82,3.06-2.45,2.5.23.97.96,1.8.18,2.73.31.1.61.2.9.36.48.27.22.51-.08.87-.79.97-2,1.7-2.88,2.61-.69.7-1.73,2.34-2.8,2.46m15.63-1.33c-1.35-.41-2.93-1.4-3.86-2.46-.91-1.06.64-3.05,1.24-3.95,1.07-1.63,2.08-3.23,2.97-4.97,1.8-3.53,3.41-7.19,4.74-10.94,1.31-3.65,2.25-7.44,3.45-11.13.48-1.43.72-2.88,1.01-4.36.09-.46.41-2.42,1.23-2.08,1.44.61,2.7,1.78,3.93,2.74,1.1.87,3.03,2.24,2.61,3.87-.8,3.15-2.27,6.13-3.39,9.15-1.21,3.24-2.62,6.4-4.23,9.47-1.56,2.97-3.26,5.85-5.02,8.7-.8,1.31-1.53,2.64-2.39,3.91-.44.65-1.34,2.22-2.3,2.05m-7.19-8.86c.36.75.21,1.68.19,2.48.64-.21,1.16-.65,1.76-.94.23.47.14.99.26,1.47.11.45.73.68.66,1.18-.07.5-.68.94-1.14.91-.82-.05-1.79-.69-2.54-1.03-.88-.4-1.61-1.03-1.47-2.08.12-.93,1.46-1.79,2.29-2m-9.49,3.22c-.08-.42-.18-.84.03-1.24.28.36.26.9-.03,1.24m-1.7-1.28c-.88-1.7,1.37-4.01,1.63-5.65-.44,0-4.49.22-4.42-.65.07-.85.98-1.2,1.58-1.61.37-.26,1.67-.4,1.68-.98.02-.76-3.67-2.04-2.63-3.29.62-.76,3.82.28,4.44.61.16-1.05-.57-1.94-.86-2.9-.3-1-.47-2.03-.48-3.08,1.65.14,2.14,2.02,3.39,2.81.33-1.43.63-3.9,2.11-4.65-.04,1.68-.17,3.39-.86,4.95-.64,1.43-1.44,2.8-2.03,4.26-.59,1.46-.97,3.04-1.13,4.61-.13,1.28.19,2.96-.44,4.13-.38.66-1.27,1.27-2,1.44m14.87-.84c-.31-.28-.64-.51-.97-.77.46-.29,1.33.23.97.77m.29-1.24c.04-.76.75-1.46,1.52-1.44.02.5-.16.86-.35,1.33-.19.46-.82.2-1.18.12m-1.73-.05c-.77-.18-2.33-1.21-2.42-2.04.66.22,2.64,1.19,2.42,2.04m-15.81-1.16c.03-.63.46-1.09,1-1.34.2-.09,1.77-.72,1.76-.23-.02.67-.43,1.16-.9,1.61-.43.41-1.36.03-1.86-.05m14.95-3.81c-.02.95,0,1.79.18,2.73.6-.37,1.28-.87,2.01-.94,0,.5.12,1.65-.42,1.97-.71.42-2.12-.8-2.67-1.21-1.28-.91-.44-2.28.9-2.55m-1.17-2.76c1.53.11,2.69,1.5,3.87,2.34.89.63,2.64,1.51,2.68,2.78-1.54-.07-2.6-1.6-3.8-2.38-.91-.57-2.77-1.46-2.75-2.74m2.34-4.15c.17.95.2,1.76.18,2.73.26-.05,1.96-1.05,2.03-.87.34.91.17,1.95.15,2.91.75-.42,1.42-1.2,2.27-1.43.37.74.03,1.53.28,2.28.14.43.68.86.52,1.36-.46,1.47-2.08.2-2.77-.37-1.45-1.17-3.14-2.04-4.47-3.34-.73-.73-.27-1.3.2-1.98.45-.64.78-1.21,1.62-1.29m-16.48,5.26c-.08-.48.12-.61.53-.73.22-.06,1.02-.2,1.21.04.08.09,0,.56-.02.68,0,.42-1.59.09-1.72,0m14.58-8.27c1.13-.07,2.19.83,3.07,1.43,1.09.72,2.19,1.43,3.28,2.17.24.16,3.5,2.47,2.39,2.83-.94.3-3.38-2.1-4.04-2.58-1.02-.74-2.06-1.46-3.13-2.14-.59-.38-1.61-.88-1.57-1.7m1.49-.22c0-.49-.1-.68.36-.9.45-.22.9-.58,1.38-.7.53-.14.6.8,1.4.57.52-.15,1.26-1.38,1.57-.34.25.79.31,1.67.48,2.48.82-.24,1.28-1.03,2.02-1.43.25.52.22,1.11.23,1.67,0,.6.3,1.2.18,1.8.41-.27.81-.5,1.26-.71,0,.31-.48,2.84-.87,2.67-2.96-1.19-4.93-4.07-7.99-5.12m-14.42,2.35c.81.02,2.25.57,1.81,1.69-.23.58-.78.08-1.15-.24-.44-.39-.67-.86-.66-1.45m4.07-4.33c1.2.28,1.45,1.47.96,2.43-.25.47-1.04-.86-1.11-1.03-.18-.46-.08-.99.15-1.41m12.45-2.9c1.47-.77,3.46,1.12,4.71,1.74.73.38,3.76,1.71,3.09,2.92-1.54-.48-2.77-1.59-4.2-2.3-1.23-.6-2.89-1.1-3.6-2.37m-4.31,4.33c.26-1.36,2.23-2.27,3.52-2.14-.57,1.06-2.31,2.15-3.52,2.14m4.87-6.55c-.49.13-.91.43-1.43.48-1.67.17-2.42-2.18-2.39-3.48.03-1,.27-1.63,1.05-2.28.27-.23,1.06-.99,1.44-.7.29.21.22,1.15.25,1.45.06.77.26,1.51.4,2.28.25-.14,2.17-1.93,2.3-1.61.42,1.02.34,2.12.63,3.18.88-.48,1.68-1.69,2.76-1.66-.03,1.08.19,2.13.16,3.22,1.01-.11,1.53-1.38,2.51-1.66.37.86.09,1.8.43,2.67.38.98.36,1.99-.16,2.94-.53,1.02-4.14-1.69-4.73-2.03-1.18-.65-3.06-1.19-3.22-2.78m-4.07,4.11c-.7-1.43,1.99-2.87,3.05-3.14-.02,1.31-2.02,2.54-3.05,3.14m.11-13.62c1.26-.23,2.74,1.16,3.78,1.71,1.63.88,3.28,1.72,4.9,2.63.32.18,5.87,3.06,5.16,3.74-.58.55-2.09-.66-2.56-.97-1.37-.89-2.81-1.69-4.22-2.5-1.55-.89-3.15-1.72-4.77-2.49-.93-.43-2.37-.83-2.29-2.12m2.67-7.35c-.29-1.83,4.83,1.54,5.18,1.74,1.55.9,3,1.95,4.47,2.96,1.06.72,2.82,1.43,3.36,2.67.4.93-.78.28-1.12.08-1.08-.64-2.1-1.41-3.12-2.15-2.7-1.96-5.58-4.21-8.78-5.3" style="fill: #010101; stroke-width: 0px;"/>
      </g>
    </g>
    <g id="l" data-name="use1586">
      <g id="m" data-name="queen 4">
        <g>
          <path d="m121.59,51.62l5.96-.57,2.2-3.3,1.38-5.11c-1.09-1.39-2.19-2.69-3.38-3.99l-1.69.26-2.18-.43c-1.38.59-2.76,1.19-4.15,1.76l-.67,2.04-1.31.56-.7,1.99,2.24,5.25,2.32,1.53" style="fill: #e41d13; stroke-width: 0px;"/>
          <path d="m116.73,62.32l4.23-.55,1.99-1.7,1.43.06,1.85,4.24-.06,3.98.56.66,1-.02.26-1.81-.66-5.14.48-2.39,1.73,1.35c1.95.85,3.91,1.66,5.88,2.46l1.66-3.34-1.63-3.63-1.81-.96-2.09-.36c-1.5.99-2.78,2.26-4.11,3.46l-.77-.16-1.02-5.55-1.92-1.04,1.04,6.76-4.24-3.34c-1.68-.48-3.32-.78-5.05-1.07l-1.76,1.28-.24,1.61-1.59,2.23.31,2.24,4.54.74" style="fill: #f7c213; stroke-width: 0px;"/>
          <path d="m55.57,26.3l2.94-.14,2.5,1.91,1.68.02,3.12-4.33c2.37-2.38,4.7-4.45,7.34-6.51l4.91-2.31,5.95-1.05.47-1.76-.48-3.07c-2.47.03-4.89.33-7.35.59l-1.79-2.68-1.69.32,1.43,1.93-1.7,2.84-2.23.3c.17-.93.48-1.84.87-2.7l-.89-1.09c-1.53-.54-3.03-1.08-4.5-1.77l-1.72-.28-1.06,3.49-.12,4.44.89.49,2.44-1.4,1.19-.02-1.03,3.05-2.68,2.18c-1.57-1.2-3.15-2.39-4.73-3.57l-1.06.56,1.14,2.63,2.67,1.18-.35,2.95-2.73,2.43-.42-2.21-1.07-.91-2.72.17-.37,1.39-2.17.35-1.7,1.75,2.73-.19,2.29,1.01" style="fill: #f7c213; stroke-width: 0px;"/>
          <polyline points="28.22 94.08 27.66 93.12 27.28 92.99 26.89 92.56 25.34 92.3 24.31 94.59 25.76 94.82 26.77 94.75 28.22 94.08" style="fill: #2b2f74; stroke-width: 0px;"/>
          <path d="m33.29,84.2l1.2-.7c.92-.92,1.71-1.97,2.53-2.98l.33-2.36-.62-1.94-1.06,1.07.09.61.29.66-.1.64.22,1.49-1.64,1.45-.5.14-.24.24-.55-.03-1.46.39.38,1.05.28.24c.3,0,.58.02.88.02" style="fill: #2b2f74; stroke-width: 0px;"/>
          <path d="m46.92,106.08l-1.51-.46c-6.8-.86-13.19-1.47-20.04-1.47l.17,2.02,2.91,5.92,2.41,3.33-.06.06,5.23,6.62,1.14.66c1.35,1.17,2.67,2.34,4.03,3.49l1.74.75,3.77.91-.88-3.48,1.3.27,2.16,1.27.16-1.18-.61-3.28,2.62,1.19.9.09-.42-3.28,1.67.18-.76-2.77-.11-.23-1.51-1.85-4.3-8.76" style="fill: #2b2f74; stroke-width: 0px;"/>
          <path d="m48.34,75.29l-.32,2.05v.36c-.14.53-.25,1.09-.31,1.64-.41.99-.7,2.03-.95,3.07l-.51.9-.07.19c-.82,1.27-1.52,2.6-2.28,3.91l-.57.52-.33.5c-1.29,1.02-2.49,2.08-3.71,3.19l-.78.37-.04.03c-1.23.54-2.43,1.12-3.64,1.68l.39.85.34.07c2.98-.03,5.91,1.09,8.76,1.78,1.72.63,3.51,1.1,5.26,1.63,2.57,1.42,5.23,2.74,7.71,4.3l.56-1.22c.05-8.32.16-16.48-.78-24.74l-2.7-5.49c-1.05-1.37-2.09-2.73-3.19-4.06l-4.65,1.31c.39,1.32.89,2.58,1.38,3.86l.44,3.3" style="fill: #2b2f74; stroke-width: 0px;"/>
          <path d="m37.16,122.75c-.7-.41-1.41-.82-2.11-1.23l-2.63-3.76-1.32.11c-2.38,4.01-3.95,8.4-5.75,12.7l-1.13,4.89c.67,2.02,1.27,4.03,2.2,5.94-1.57,6.53-2.03,12.68-2.23,19.39l1.13,2.96c2.32,2.01,4.7,3.83,7.16,5.67,1.83-6.44,3.44-13.07,5.83-19.34,2.45-6.45,5.94-12.39,9.21-18.45-3.46-2.95-6.93-5.9-10.36-8.88" style="fill: #e41d13; stroke-width: 0px;"/>
          <path d="m54.17,70.49c.96,1.97,1.93,3.93,2.9,5.9.92,8.1.72,16.06,1.06,24.2l9.51,5.53,17.94,4.71,1.43-3.99c-2.8-8.4-4.61-15.75-4.65-24.66l-.66-.09-6.13.18-3.49,1.01-.06-.06h-.03s-1.48-.94-1.48-.94c-2.16-4.12-4.47-7.35-7.48-10.9-2.36-1.64-4.66-3.47-7.19-4.84l-3.07-.92-1.7,1.07c1.04,1.26,2.07,2.52,3.11,3.8" style="fill: #e41d13; stroke-width: 0px;"/>
          <path d="m59.01,106.51l-.33,1.28-.13,6.22-2.42,2.27-2.92,1.24c1.56,2.82,3.09,5.52,4.98,8.13l1.31,1.25c.62.26,1.26.44,1.92.53l.43.32.42.15c.66.65,1.4,1.24,2.17,1.76.37.43.74.84,1.14,1.24.41.49.82.97,1.26,1.43l.45,1.04.54.8c.29,1.43.94,2.72,1.5,4.05l-.05,1.39.37,1.38,15.91-25.01.04-.43-25.23-9.03h-1.35" style="fill: #e41d13; stroke-width: 0px;"/>
          <path d="m51.16,161.35l-1.46.07-.35,5.42.49,3.59.7.56,6.2-9.92c-1.69.08-3.25.2-4.91.51l-.68-.25" style="fill: #e41d13; stroke-width: 0px;"/>
          <path d="m98.66,82l-1.37,1.23c-.91,5-1.8,9.94-2.38,14.98l1,1.42c3.65-5.26,7.11-10.64,10.56-16.04l-3.34-1.37-2.58-.31-1.89.09" style="fill: #e41d13; stroke-width: 0px;"/>
          <path d="m68.18,135.52c-.46-1.06-.9-2.13-1.35-3.19-.8-.89-1.59-1.78-2.39-2.67-1-.74-2.01-1.48-3.01-2.23-.75-.15-1.49-.31-2.25-.46-.26,5.42-.34,10.86-1.07,16.23-.87,2.59-2,4.96-3.2,7.42l-.48,3.21-1.58,3.07-2.96,2.56-.49,1.24c.81.3,1.63.59,2.44.89,1.73-.33,3.47-.65,5.21-.98,4.13-6.35,7.97-12.89,12.15-19.19l.12-3.21-1.15-2.7" style="fill: #f7c213; stroke-width: 0px;"/>
          <path d="m18.38,107.82l6.93,5.71,4.84,2.63c.24-.25.48-.5.71-.75-1.71-2.36-3.42-4.7-5.14-7.06-.13-1.45-.25-2.92-.38-4.37,7.2.14,14.61,0,21.57,2.1l4.29,8.76c.67.83,1.36,1.65,2.03,2.48l3.5-1.76,1.77-2.74c-.13-3.26,0-6.5-.07-9.76-2.91-1.77-5.9-3.37-8.88-5.02-4.21-1.28-8.27-2.51-12.6-3.3-4.11-.74-8.54-.11-12.67.17l-3.14,3.89-3.38,5.96.59,3.06" style="fill: #f7c213; stroke-width: 0px;"/>
          <path d="m59.81,68.85l3.17,2.46c2.96,3.48,5.4,6.92,7.83,10.79.43.39.85.78,1.28,1.17,1.24-.36,2.46-.71,3.7-1.07l4.25-.35c1.91.26,3.83.52,5.74.78l2.34.73,5.22-1.41,5.59-.26c2.38.29,4.75.56,7.13.85l.74-1.69-.18-.86.13.41.89,1.34c1.76-1.99,2.55-4.63,4.3-6.64l-1.41-2.88c-2.53-2.43-5.32-4.19-8.37-5.92l-1.16.59.83,1.09c-2.09-1.94-4.17-3.69-6.44-5.42l-4.83-1.87-3.51,1.9-5.24.67-4.55-.24-2.89-.63-3.6-1.43-3.33-2.03-12.96,5.58.12,1.29c1.74,1.02,3.49,2.04,5.24,3.05" style="fill: #f7c213; stroke-width: 0px;"/>
          <path d="m27.66,93.12l2.39.82,4.42-.41c1.34-.5,2.66-1.01,4-1.51,1.51-1.2,3.02-2.39,4.53-3.58,1.06-1.64,2.12-3.3,3.18-4.94.51-1.39,1.02-2.77,1.53-4.16.21-1.35.42-2.7.62-4.05l-.44-3.3c-.38-1-.75-2-1.13-3l-1.62-.81-4.07,2.5-2.02,1.76-2.47,3.34c.26.79.5,1.58.76,2.38-.12.83-.23,1.65-.35,2.48-.82.97-1.62,1.95-2.51,2.85l-1.2.7c-.95-.03-1.9,0-2.85.04-1.51,2.41-3,4.85-4.47,7.28.44.48.87.98,1.31,1.46l.39.13" style="fill: #f7c213; stroke-width: 0px;"/>
          <path d="m34.02,82.3l1.73-1.79c.1-.64.2-1.3.3-1.94-.19-.44-.38-.87-.56-1.31-1.2,1.11-2.06,2.55-3.01,3.87l-.29,1.32c.53.03,1.06.06,1.59.09l.24-.24" style="fill: #f7c213; stroke-width: 0px;"/>
        </g>
        <path d="m66.74,13.84c.31,1.08-.16,2.14-.89,2.95-.61.67-2.1,1.58-2.96.87-.76-.62-.38-1.76-1.49-2.25-1.12-.49-2.36-.79-3.58-.81-.02.94.08,2.03.59,2.84.26.4.44.86.8,1.17.52.43,1.36.48,1.96.76,1.71.78-.7,4.71-2.12,4.92.33-.59.28-1.21-.14-1.74-.31-.4-1.11-1.43-1.67-1.39-.81.05-2.69-.02-3.13.92-.15.31-.08.83-.48.88-.48.06-.89,0-1.36.2-1.02.41-2.64,1.52-2.66,2.76,0,.33,1.77-.03,1.99-.05,1.35-.13,2.27.26,3.44.82.92.44,2.12-.33,3.14,0,1.17.37,2.2,2.29,3.48,2.13-.03,1.66-1.1,3.11-2.06,4.37-1.13,1.5-2.16,3.06-3.15,4.66-2.14,3.47-4,7.09-6.06,10.59-2.09,3.54-2.52,7.23-3.09,11.22-.27,1.89-.9,3.71-1.31,5.56-.32,1.41-.87,2.63-2.29,3.22-3.38,1.44-5.95,4.95-8.16,7.76-2.52,3.21-4.66,6.65-6.82,10.1s-4.19,6.98-6.45,10.36c-1.15,1.71-2.32,3.41-3.39,5.17-.89,1.44-2.21,3.08-1.51,4.85.89,2.28,3.32,3.84,5.2,5.25,1.25.93,2.55,1.78,3.88,2.6,1.2.73,2.81,1.24,3.78,2.27.84.89-.19,2.16-.59,2.99-.73,1.49-1.41,3.02-2.05,4.55-1.22,2.92-2.58,5.86-3.3,8.95-.33,1.39-.44,2.84.05,4.2.44,1.24,1.91,2.9,1.73,4.28-.19,1.39-.76,2.79-1.07,4.17-.38,1.65-.66,3.34-.73,5.03-.06,1.56-.32,3.1-.36,4.66-.04,1.61,0,3.19.08,4.8.16,3.24,2.33,4.66,4.63,6.59,2.54,2.12,5.27,4.06,8.02,5.9,2.7,1.81,5.57,3.93,8.56,5.23.58.26.61.3.98-.25.33-.48.76-.99,1-1.52.25-.54-.43-.99-.53-1.6-.18-1-.18-2.1-.63-3.03-.53.24-2.38,1.99-2.82,1.43-.79-.99-.59-2.31-.84-3.51-1.03.17-1.8,1.27-2.76,1.66-.24-1.1-.44-2.36-.41-3.47-1.14.16-1.89,1.21-3.01,1.41-.13-.92.06-2.33-.32-3.16-.16-.36-.64-.84-.95-.41-.26.37-.67.7-1.14.77-.03-.48.38-3.49,1.38-3.31,1.44.32,2.68,1.22,3.95,1.96,1.43.84,2.89,1.68,4.33,2.5,2.19,1.26,5.93,2.08,5.75,5.19.67-.54,1.36-1.58,1.54-2.43-.98.39-.69-2.08-.72-2.5-.05-.85-.21-1.66-.16-2.51.05-.89-.39-2.09-.11-2.92.41-1.21,2.55-.36,3.49-.48,1.61-.22,3.02-.05,3.94-1.54-.97.25-7.37,2.09-7.32-.32.05-1.83,2.83-1.4,3.89-1.43.97-.04,1.98-.25,2.91-.54.45-.14.88-.32,1.34-.41.31-.06.91.16,1.12-.17.42-.62.91-1.29,1.17-2-2.73,1.2-4.87,2.59-7.99,2.51,1.16-.94,2.71-.97,4.11-1.24,1.55-.3,2.62-1.16,3.9-2.01.35-.24.69-.21.98-.54.38-.46.65-1,.93-1.51.76-1.43,1.62-2.53,2.03-4.13.92-3.55,1.24-7.61-.23-11.05-.56-1.32-1.36-2.5-2.41-3.45-.77-.69-2.36-1.85-1.91-3.09,2.68,2.02,4.58,4.48,5.6,7.7.5,1.62.81,3.36.73,5.06-.06,1.26-1.04,2.77-.83,3.98.63-.48,1-1.25,1.33-1.95.45-.94.29-1.58.27-2.59-.04-2.23-.53-4.5-1.39-6.56-.75-1.81-1.83-3.3-3.32-4.58-1.35-1.16-3.13-2.07-2.81-4.13.07-.43,1.05-.5,1.39-.4,2.28.76,4.68,3.23,5.93,5.23,1.57,2.52,2.45,5.91,2.49,8.87,1.56-1.23.48-3.77-.06-5.25-.44-1.23-1.04-2.49-1.13-3.8-.1-1.47.41-3,.73-4.42.66-2.91,1.44-5.79,2.37-8.63.42-1.3,1.61-7.08,3.67-6.76.57.09,1.02.27,1.51.57,1.28.78.49,2.54.25,3.69-.43,1.96-.88,3.91-1.32,5.87-.86,3.83-.88,7.82-1.64,11.67,1.33-.73,1.25-2.33,1.37-3.6.17-1.9.37-3.81.72-5.69.34-1.79.53-3.6.93-5.38.39-1.71.67-3.88,1.72-5.32.61-.83,1.96-.29,2.76-.03,1.48.48,2.98.89,4.42,1.47.45.18,1.1-1.3,1.27-1.57.63-1.06.6-1.77.32-2.95-.54-2.23,1.39-5.75,3.9-5.71.3,0,.59.07.87.18.52.21.53-.3.8-.73.61-1.01,1.29-1.98,1.94-2.97.51-.79,1.01-1.6,1.42-2.45.35-.75-.51-1.51-.41-2.28.38.48.71,1.12.69,1.75,1.47-1.21.04-3.25-.22-4.7-.2-1.15-.53-3.22.68-3.95-.06,2.33.59,4.42.82,6.7.75-.58.6-1.47.46-2.3-.24-1.33-.41-2.68-.52-4.02-.21-2.39.05-4.86.17-7.25,0-.08.46-.08.49-.03.29.3,0,1.3-.04,1.66-.12,1.11-.07,2.27-.1,3.38-.04,1.44-.08,4.94,1.84,5.4.3-.87-.33-1.85-.63-2.63-.32-.8-.37-1.7-.35-2.55.05-2.29-.09-4.49.55-6.7,1.42.49,2.98.21,4.43.53.17.04,2.61,1.05,2.74.83.14-.22,1.59-2.14,1.18-2.44-.45-.32-.52-.66-.62-1.2.29.15,1.15.67,1.47.53.45-.2.66-1.1.89-1.48.59-.95,1.31-1.85,1.69-2.91-.45-.26-.97-.26-1.47-.29-.02.8-.27,3.29-1.65,2.09-.45-.39-1.11-.85-1.18-1.5-.02-.21.76-2.42.44-2.49-.85-.17-1.95.61-2.36-.58-.06-.18-.67-1.87-.24-1.86.6.02,1.15-.09,1.64-.46-.37-.68-1.6-1.1-2.24-1.52-.14-.09,0-.9,0-1.08,0-.57,1.27.08,1.48.2,1.1.62,1.5,1.49,1.6,2.7.2,2.48,2.75,3.26,4.73,3.81.6-2.23-1.51-3.05-2.4-4.81-.46-.91-.52-1.94-.81-2.9-.23-.78-.65-1.7-.48-2.53,1.37.2,2.39,1.43,3.43,2.22,1.21.89,2.29,1.96,3.61,2.67-.03-.23.31-.6.27-.73-.06-.19-1.09-.66-1.25-.79-.63-.51-1.3-.99-1.97-1.45-1.34-.92-2.73-1.88-3.85-3.06-1.04-1.09-1.32-2.32-1.67-3.73-.44-1.75-.91-3.49-1.4-5.24-.95-3.43-1.78-6.9-2.69-10.34-.46-1.72-.86-3.45-1.34-5.16-.2-.71-.42-1.42-.62-2.12-.14-.45-.63-.97-.49-1.46.36-1.23,1.23-2.13,1.36-3.46.13-1.36-.6-2.53-1.43-3.52-.87-1.05-.42-1.9-.61-3.12-.22-1.36-1.1-1.95-2.25-2.6-1.15-.66-1.54-1.91-2.27-2.96-.83-1.21-2-2.22-3.2-3.05-1.1-.76-2.29-1.42-3.51-1.96-.52-.23-3.29-.84-3.31-1.57-.06-1.2.21-2.2-.06-3.42-.13-.61-.21-2.18-1.05-2.14-.65.04-1.1.18-1.72.41-.09-.36-.29-.69-.47-1-.94.76-1.66,1.42-2.99,1.45-.68.02-2.25-.04-2.28-1.02-.02-.5.26-1.02-.32-1.19-.82-.24-1.65.2-2.49.07-.62-.09-1.47-.29-1.82.42.77.11,2.38,1.65,2.09,2.47-.38,1.07-1.73,2.36-2.95,2.21.2-.52.48-1,.7-1.52.3-.75-.11-.98-.6-1.58-.81-.98-1.88-.84-2.95-1.18.24-.13.48-.73.11-.74-1.22-.03-2.32-.35-3.5-.55-1.39-.23-1.55,2.48-1.83,3.31-.49,1.48-.3,3.47.04,4.99.13.6,1.51.78,2,.76.91-.06,1.38-.75,1.82-1.38m-1.54-6.96c.35.79,1.15.69,1.86.56.27-.05.49,1.74.54,1.97.63-.3,1.29-.93,2.05-.69.32.1,1.43.39,1.4.82-.03.51-.47,1.92-1.15,1.91-.63,0-1.31-1.13-1.79-1.48-.85-.62-1.66-.76-2.68-.86-.12,0-.19.87-.79.72.11.78,1.04.7,1.2,1.27.15.46-.71,1.44-.79,1.96.28.04.5-.11.75-.23-.05,1.02-1.04,1.94-2.07,1.5-.68-.29.22-2.34.76-2.5.05-.02-.65-2-.54-2.29.38-.95-.03-2.69,1.26-2.66m9.39.49c-.33.6-.46.6-.74-.02.25,0,.49,0,.74.02m9.1,1.97c-.5.73-1.59.63-2.37.73-1.32.17-2.64.66-3.88,1.11-2.58.93-5.2,2.15-7.4,3.8-2.03,1.52-3.73,3.44-5.33,5.4-.89,1.09-1.75,2.2-2.64,3.29-.58.71-1.56,2.45-2.57,2.6-.14-1.02.94-1.82,1.5-2.51.9-1.11,1.8-2.22,2.7-3.32,1.63-1.98,3.33-4.16,5.46-5.61,4.42-3,9.03-5.46,14.53-5.49m-7.68.29c.12.65-.49.64-1.01.71.08-.44.48-1.65,1.01-.71m6.91.93c-.05.77.75,2.54.02,2.9-.33.15-.75.2-1.1.29-.17-1.18.72-1.61-.17-2.73.36-.24.82-.41,1.25-.46m-15.13,1.09c-.46-.07-1.14-.12-.97-.77.43.1.93.28.97.77m12.39-.42c-.09.45-.37,1.03-.29,1.47-.26-.27-.35-.62-.41-.98-.11-.64.08-.52.69-.49m3.95.35c-.06.36-.41.56-.75.48.17-.29.47-.37.75-.48m-14.13.86c-.09.42-.43.85-.77,1.1-.41.29-.68.47-.95,0-.59-1,1.11-1.32,1.72-1.11m6.2-.09c-.18.94.51,1.61.67,2.49-.14.04-.96.31-1.02.16-.25-.57-.67-1.5-.65-2.14,0-.45.57-.45,1-.51m4.92,1.13c-.42.61-1.39.2-.98-.52.35.09.67.37.98.52m-6.67-.42c.08.33.18.65.22,1-.53,0-1.02-.06-1.49.21-.2-.61.8-1.1,1.28-1.21m-1.76.93c.1.79-2.04,1.49-2.53,1.99-.45.46-.74,1.01-.04,1.42.59.34,1.16-.08,1.74-.21-.56.92-1.41,1.62-2.24,2.3-.39.32-1.28,1.43-1.82,1.32-.55-.12-.69-.98-1.46-1.03.07-.36.36-.76.64-.97.53-.4.54.09,1.02.39.67.43,1.5-1.3.13-1.35.19-.93,1.08-1.58,1.78-2.13.84-.66,1.66-1.57,2.78-1.72m22.55,8.52c-1.27-.8-2.07-2.29-3.18-3.29-1.37-1.23-3.05-2-4.87-2.19-1.8-.18-3.6.24-5.38.48-2.01.27-4.01.58-5.99,1.05-1.61.38-3.33.89-4.63,1.96-1.46,1.19-2.42,2.92-3.48,4.44-1.06,1.54-2.11,3.08-3.25,4.56-.99,1.29-2.39,2.76-2.44,4.48,1.47-.22,1.87-2.39,3.05-3.14-.1,1.71-.8,3.22-1.6,4.69-.82,1.52-.39,3.24-.84,4.86-1,3.61-2.56,7.2-3.86,10.72-1.29,3.47-2.54,7.14-4.25,10.43-.72,1.4-1.14,3.01-2.51,3.93-.18.12-3.25,1.64-3.23,1.22.02-1.26,1.08-2.94,1.6-4.07.75-1.63,1.65-3.18,2.42-4.8.79-1.66,1.44-3.37,2.28-5.03.77-1.53,1.6-3.11,2.12-4.75.5-1.6.28-3.42.38-5.09.11-1.78.57-3.53,1.18-5.22,1.17-3.26,2.64-6.63,4.41-9.61,3.35-5.64,8.79-11.1,15.23-13.02,3.56-1.06,7.11-.54,10.45.89,2.33,1,6.52,3.48,6.39,6.48m-21.35-7.49c.37.21.81.31,1.23.28-.31.46-.75.57-1.26.71-.08-.33-.17-.7.03-.99m-14.36.61c.28.48.81.8,1.05,1.3.25.5.4,1.28-.34,1.15-.62-.11-.97-.52-1.16-1.16-.19-.57-.58-1.51.45-1.29m11.87.32c-.2.27-.46.36-.75.48.17-.29.47-.38.75-.48m1.97.3c-.24.37-.57.64-1.01.71.21-.37.59-.65,1.01-.71m13.33,1.58c-.17.93-.51,2.38-1.55,2.68.17-.74.29-1.45.31-2.22-.36.44-.51,1.17-1.05,1.43-.7.35-1.41.78-2.23.7.03-.47.24-.87.52-1.23-.73.1-2.73.86-2.9,1.62-.33,1.47,1.65.78,1.56,2.31-1.18-.16-2.33-.21-2.66-1.55-.16-.64.43-1.78.8-2.3.41-.56,1.34-.88,1.96-1.09.91-.31,1.8-.33,2.74-.45.77-.11,1.76-.35,2.49.08m5.57,4.35c-.99-.63-1.71-1.36-2.81-1.87-.95-.45-1.89-1.37-2.03-2.45,1.21,0,2.45,1.01,3.47,1.56,1.06.56,1.42,1.6,1.37,2.76m-23.65-3.84c-.09.08-.17.16-.26.24.09-.07.17-.15.26-.24m-4.97.6c-.03.56-.45,1.12-1.02,1.21,0-.4.02-.79.03-1.2,0-.07.85,0,.99,0m14.09.39c-.03.6-.36,1.57-1.03,1.7-.04-.7.23-1.6,1.03-1.7m15.99,3.88c-.94.19-.71-1.23-.69-1.75,2.35,1.35,3.57,5.2,3.51,7.77-.45.06-.84-.2-1.29-.18-.65.03-1.25.06-1.87.28-.96.34-1.66.95-2.24,1.77-1.42,2.02-.68,4.73-.23,6.94.13.6,1.31,6.16.12,6.16-.81,0-1.2-.34-1.87-.74-.82-.49-1.71-.56-2.64-.37,0-.42.02-.82.03-1.24-.53.33-.94,1.35-.44,1.85.59.59,1.36.39,2.11.51.68.13,1.36.71,2.09.52.91-.24,1.58-.31,1.67-1.35.24-2.87-.92-5.63-.79-8.48,0-.27.75-.11.99-.11-.22.9-.17,1.49.69,2-.08-.33-.18-.65-.22-1,.56,0,1.18.1,1.69-.18.48-.26.73-.92,1.32-.99-.04.78-.12,1.45-.31,2.22.31-.17.65-.18,1-.22.57,4.8-.97,9.72-3.32,13.88-1.85,3.29-4.96,6.42-9.06,5.69-2.29-.42-4.28-1.65-6.27-2.76-1.95-1.08-3.16-3.05-4.95-4.31,1.87,2.44,3.9,4.35,6.65,5.82,2.85,1.51,5.54,2.36,8.73,1.58.98-.25.98,3.66.77,4.21-.56,1.41-2.44,1.64-3.74,1.88-1.82.33-3.68.36-5.53.32-3.49-.1-7.8-.86-10.44-3.33-.97-.9.16-3.26.42-4.29.45-1.76.8-3.5,1.07-5.29.12-.76.15-1.4.71-1.96.35-.35.94-.92.9-1.47-.17-2.12.05-4.04.17-6.15-.66-.17-.67.94-.99,1.4-.26.4-4.32-4.76-2.15-4.44-.09-.33-.17-.66-.22-1,.95.25.78,1.78,1.67,2.27-.19-.92,1.23-.71,1.75-.69-.1-.88-.6-1.76-.41-2.66.25-1.17,1.26-2.43,1.8-3.5,1.05-2.03-.63-4.12-.58-6.19,1.09.05,1.74.15,2.64-.54.79-.6.94-1.1,1.43-1.92.25-.42.13-.37.6-.27.97.2,1.98,1.03,3.04.8.77-.17.95-1.1,1.57-1.46.71-.43,1.65-.36,2.4-.74.7-.35,1.25-.89,2.02-1.12.79-.24,1.75.44,2.31.94.69.61-.03,2.32,1.26,2.62,1.26.28,2.18.19,3.09-.72m-19.48-2.99c.33.71.42,1.6,1.19,2.01,0-.42.02-.82.03-1.24.38.42.52,1.02.6,1.56.02.14.3,1.44.27,1.48-.37.53-1.02,1.03-1.72.89.17-.53.87-.87,1.27-1.21-.87.17-1.58-.77-1.69-1.52-3.88.94-2.03,6.71-2.65,9.28-.45,1.82-2.66,2.4-3.42,4.08-.42.91-.72,1.87-.26,2.83.45.91,1.11,1.77,1.24,2.81.13,1-.34,2.37-1.65,2.12.26-2.33-1.25-4.34-.54-6.69.34-1.13.9-2.18,1.6-3.12.59-.8,1.69-1.5,2.07-2.42.82-2-.08-4.31.42-6.41.4-1.62,1.35-4.23,3.27-4.45m-7.69.53c-.25.47-.45.88-1.02.96.05-.25.13-.49.2-.73.13-.39.45-.24.82-.23m24.45,1.88c.04.25-.14.87-.5.48s.26-.54.5-.48m-33.88-.64c0,.15-.13.9-.03.99.17.15,1,.03,1.24.03-.02.97-.57,1.44-1.05,2.2-.23-.39.1-.88.28-1.23-1.04-.07-1.02.08-.96-1.02-.62.14-1.11.22-1.74.21.05-1.18,1.43-1.09,2.27-1.18m8.63.98c-.24,1.25-1.46.48-2.24.44.07-1.52,1.41-.64,2.24-.44m4.96-.12c-.17.88-.4,1.91-.81,2.7-.25-.17-.48-.37-.73-.51-.42,1.78-.05,3.38-.14,5.17-.07,1.37-.49,3.04-1.82,3.7,0-.65-.16-1.38.08-2.01.22-.57.6-1.07.82-1.65.36-.96.5-2.36-.48-3.02.28,1.52-.06,3.61-1.6,4.41.05-1.73.38-3.51,1.38-4.96.52-.76,1.11-1.48,1.63-2.25.42-.6.86-1.48,1.67-1.58m27.92,1.72c-.27.37-.49.76-.52,1.23-.87-.21-1.88-1.09-2.15-1.94-.11-.35.78-.24.91-.23.67.08,1.29.48,1.76.94m-25.71-.93c-.08,1.16-.42,2.3-.23,3.46.18,1.15.86,2.18.77,3.36-.08,1.18-.87,2.16-1.41,3.17-.43.8-.54,2.21-1.21,2.83-1.76-1.76,2.03-4.19,1.83-6.03-.15-1.4-.26-2.79-.39-4.2-.07-.84-.25-2.08.62-2.6m-18.58.51c-.49.39-2.14.81-2.74.67.65-.69,1.84-1.2,2.74-.67m8.15.46c.47.38.96.69,1.45,1.03-.27.46-1.09,1.42-1.7.95-.14-.1-.46-.91-.4-1.07.13-.4.28-.69.64-.91m-6.2.58c-.23.33-.65.41-1,.22.2-.31.68-.41,1-.22m5.15,2.12c.17.76-.29.44-.49,0,.16,0,.34-.03.49,0m37.09,1.22c.96.6,1.15,1.43,1.36,2.47.19.91-.93,1.78-.75,2.73.51-.53,1.06-1.73,1.78-1.93-.04.9-.68,1.47-1.25,2.09-.8.88-.59,1.84-1.03,2.86-.25.57-1.05-.52-1.11-.86-.24-1.34.02-2.39.63-3.55.33-.62.57-1.43.42-2.14-.1-.51-.43-1.21-.05-1.67m-23.1,3.1c.78-.2,1.42-.74,2.09-1.15.89-.53,1.91-.79,2.92-.95,1.02-.16,1.94.03,2.94.22,1.03.2,2.19.62,3.22.69-2.31-3.23-9.4-2.18-11.16,1.19m-5.38-2.36c0,.25,0,.49-.02.74-.2-.23-.18-.53.02-.74m26.62,4.16c-1.01-.56-1.74-1.06-2.84-1.44-1.02-.36-1.89.66-2.84.8-.09-.46.48-1.91.91-2.06,1.3-.44,4.02-1.63,4.8.2.39.87.47,1.62-.03,2.5m-20.06.22c.17.95,1.15,1.74,1.66,2.51.24-.27.27-.63.28-.98,1.23.84,3.78,1.35,5.19.63.08.33.18.65.22,1,.74-.38,1.26-1.38,1.3-2.2-.48.08-.99.29-1.49.21.52-.57,1.73-1.44.85-2.19-1.09-.9-2.12-1.22-3.51-.76-1.46.47-3.1,1.11-4.48,1.77m7.44-.54c-1.3-.31-2.42,0-3.71-.1.8-.95,3.27-1.41,3.71.1m10.91-.46c-.61.48-1.75.45-2.48.43.2-.97,1.82-.8,2.48-.43m-.51.71c-.06.34-.09.68-.28.98-.29-.41-.48-1.15.28-.98m-11.64-.04c0,.3-.14,1.36-.76.72-.03-.04-.02-.7.02-.74.09-.09.62,0,.74.02m-2.76,1.65c-.42.03-.87-.08-1.23-.28.35-.47,1.15-.37,1.23.28m-14.08-.87c-.22,1.18-.5,2.25-.58,3.45-.87-.86-.39-2.86.58-3.45m15.82.66c.3.19.64.21.98.28-.4.3-.81.12-1.24-.03.08-.08.16-.18.26-.25m42.7,22.91c-2.07-.39-3.07-2.78-5.1-3.34-2.28-.62-4.49-.86-6.08,1.22-.3.4-.35.87-.49,1.33-.18.54-.56.97-.83,1.46-.48.88-.94,2.02-.72,3.05.25,1.13,1.72.93,2.63.97,1.43.08,2.38.86,3.8.41.66-.21,1.14-.45,1.84-.4.55.04,1.16-.04,1.67-.26.76-.33,1.7-2.12,2.67-1.56,1.43.8,1.66,3.04,1.85,4.47.1.83.13,1.68.08,2.51-.06.94.09,1.1.78,1.67.2.17,1.3.44,1.43.17,1.39-2.81-1.06-6.16.08-9.1.95,1,1.94,2.19,3.36,2.48.89.19,1.44.48,2.25.9.58.31,1.36.47,1.74-.22-1.23-.68-2.26-2.1-3.78-2.06-1.77.04-2.24-2.3-3.78-2.34.68-1.18,2.68-1.68,3.87-1.08.69.36,1.37.73,1.9,1.32.54.59,1.03,1.45,1.85,1.69,0-2.71-3.01-3.73-5.09-4.33.24-.67.92-1.24,1.66-1.02.89.26,1.94.19,2.56.98.89,1.13,1.67,2.41,2.37,3.68,1.11-.73-.63-2.67-.93-3.46-.4-1.03-1.24-1.05-2.2-1.4-.55-.21-1.6-.96-2.21-.63-.92.48-1.51.76-2.21,1.56-.66.77-1.49,1.54-2.55,1.68-.19-1.92-1.74-4.29-.17-5.95.96-1,1.85-1.52,2.55-2.78.67-1.21,1.43-2.43,1.9-3.74.31-.86.47-2.56-.07-3.38-.33-.5-.71-.97-1.12-1.42-.42-.47-.51-1.1-.99-1.52-.37-.34-.83-.54-1.26-.79-.61-.36-1.37.14-2,.17-1.16.05-2.07-.72-3.25-.17-.47.22-.82.59-1.29.8-.51.24-1.09.36-1.56.68-.55.39-.71,1-1.04,1.55-.35.58-1.01.88-1.44,1.39-1.93,2.25.61,6.29,2.31,8.02,1.02,1.03,2.68,1.36,3.56,2.46.75.91,1.44,3.14,1.43,4.31m-60.34-20.64c.15,1.1.38,2.11.41,3.23-.72-.49-.96-2.55-.41-3.23m36.36.95c1.04,2.1,1.11,4.66,1.74,6.9.8,2.82,1.56,5.65,2.3,8.49.7,2.75,1.39,5.5,2.08,8.25.67,2.63,1.84,5.27,1.96,8.01-.91-.16-1.63-.83-2.39-1.31-1.1-.69-2.27-1.25-3.34-2-.69-.49-.78-1.69-.9-2.44-.23-1.41-.51-2.8-.83-4.19-.73-3.17-1.45-6.32-2.17-9.5-.34-1.48-.68-2.97-1-4.45-.22-.99-.5-2.02.18-2.88.79-1.01,1.22-1.56,1.28-2.89.03-.96.16-1.55,1.1-1.99m26.52,7.88c.02-.68,0-1.41.33-2.03.34-.62,1-1.4.77-2.16-.96.29-1.06,1.2-1.42,1.99-.34.76-1.66,1.05-2.39,1.38.03-1.1.3-2.13.33-3.21-1.49-.02-1.08,1.73-1.06,2.69-.15,0-.9-.13-.99-.03-.15.17-.03,1-.03,1.24-1.72-.38-1.07-2.57-2.19-3.29-.1-.07-.69-.34-.69-.3.02-.23-.06-1.08.12-1.2.65-.46,1.08-.66,1.64.05.53-.59.95-1.28,1.44-1.91.56-.71,1.43.05,1.93.43,1.05.78,1.56-.36,2.6-.36.91,0,1.69,1.33,2.13,1.97.6.89,1.36,1.51,1.05,2.69-.09.32-.09.8-.45.94-.91.34-2.15,1.11-3.13,1.1m-29.26-7.21c.68.9.85,1.61.92,2.75-.51-.24-.95-.17-1.48-.04-.21-.75-.22-2.23.56-2.71m-40.07-.79c-.26,2.54-1.25,4.83-.79,7.44.21,1.23-.34,2.49-.72,3.63-.46,1.32-.96,2.59-1.56,3.85-1.2,2.47-2.38,4.96-3.62,7.41-.61,1.21-1.13,2.44-1.65,3.68-.41.94-.8,2.66-1.65,3.32-.41.32-1.16.26-1.65.32.28-2.78,1.57-5.35,1.9-8.14.33-2.76.57-5.41,1.68-8.01,1.07-2.49,2.49-4.96,3.84-7.31.72-1.27,1.44-2.58,2.33-3.75.58-.81.98-1.95,1.91-2.43m8.36,1.7c.41,1.99-.45,3.04-1.4,4.66-.97,1.66.41,2.75,1.92,3.28.08-.26.4-1.72.62-1.71.41,0,.53.06.57.5.07.75-1.25,2.09-2.1,1.83-.61-.18-1.21-.55-1.81-.69.43.91,1.44.99,1.91,1.75.99,1.57.12,3.26-.36,4.87-.54,1.86-.94,4.09-1.97,5.75-.87,1.42-3.24,1.83-4.66,2.43-.84.36-1.7.67-2.51,1.08-.63.32-1.5.88-2.25.69.26-1.49,1.07-2.84,1.72-4.19.81-1.66,1.5-3.4,2.15-5.14,1.32-3.52,2.8-6.98,4.07-10.52.4.32.48.88.63,1.33.25.69.81,1.22,1.01,1.94.25-.69-.08-1.51-.15-2.21-.08-.69.34-1.41.64-1.99.34-.64.96-1.13,1.19-1.83.21-.6.28-1.37.76-1.84m52.38,3.44c.31.02.81-.07,1.02.17.29.33,1.44,1.5,1.05,2.06-.1.15-.62,1.05-.75,1.01-.94-.31-1.48-.62-2.03-1.45-.47-.71-.02-1.59.71-1.78m-21.53.09c.89,3.75,1.64,7.54,2.42,11.32.78,3.69,2.12,7.53,2.18,11.32-1.87-.05-3.85-1.59-5.05-2.94-1.64-1.86-1.26-4.6-1.49-6.93-.13-1.26-.16-2.51-.33-3.77-.17-1.33.41-1.86,1.1-2.88,1.16-1.72-1.08-4.75,1.17-6.13m-26.74.3c.37.71.14,1.6-.31,2.22-.85-.7-.7-1.8.31-2.22m-3.22.16c-.08,1.1-.54,2.07-.58,3.21-1.15-.21-1.03-1.02-.94-1.96.06-.56,1.05-1.11,1.52-1.25m59.78,4.04c1.11-.5,1.77-1.59,3.02-1.9.21.43.04.84-.13,1.24-.21.49-.36.75-.91.47-.33.89-.32,2.23-1.31,2.69-.02-.58.17-1.16.29-1.72-.43.42-1,.86-1.32,1.37-.38.58-.87-.05-1.43-.2-.12.54-.47,1.02-.78,1.46-.33-.35-.38-.8-.47-1.25-.54.43-1.04.61-1.74.45-.02.57.16,1.23-.62.95-1.82-.66-2.8-2.51-3.26-4.27.48.09.82.5,1.28.6.41.09.87.23,1.2-.12.36-.38.34-.91.9-.83.84.13,1.64,1.01,2.29,1.49.25-.82.78-1.77,1.48-2.24.97-.63,1.32,1.17,1.51,1.8m-55.37-2.68c.05.1.51,2.52-.15,2.19-.84-.46-.6-1.75.15-2.19m15.58.65c.53.8,2.68.72,3.45.34-.37-.63-2.89-.49-3.45-.34m-1.98.19c-.18.48-.45.96-.53,1.47,2.06.06,4.12.45,6.18.11.81-.13,1.03-.63,1.03-1.41-1.21.78-2.62.65-3.99.65-.51,0-1.38.16-1.78-.25-.27-.28-.43-.67-.9-.58m-15.13,1.35c.35.64-.14,1.29-.78,1.46-.11-.51.36-1.22.78-1.46m25.47.66c0,.51-.11,1.15-.53,1.47-.19-.51.07-1.2.53-1.47m-5.22.6c-1.19.56-2.45.62-3.72.4.26,1.5,4.36.69,3.72-.4m-20.85,2.41c-.72.12-2.69-1.3-1.62-1.63.76-.25.89-.11,1.61.26.4.21.06,1.11,0,1.38m17.83-.51c.46.35,1.71.13,1.94.67.31.73.81,1.69.06,2.32-.69.57-1.17,1.27-2.13,1.08-.99-.19-1.64-.56-2.68-.44.11.9,1.97,1.05,2.65,1.23,1.05.26,2.11-.97,2.6-1.7.63-.95.81-1.75.1-2.69-.47-.61-.48-.74-1.24-.81-.39-.02-.96.19-1.31.35m-11.62-.55c.07.36.35.71.72.76,0-.39-.34-.72-.72-.76m1.45,1.03c.13.29.18.59.48.75-.11-.31-.22-.54-.48-.75m16.82.45c.49,1.7.68,3.48.82,5.25.04.5.56,4.64.21,4.75-1.25.42-3.07-.79-3.29-2.04-.5-2.84-.68-6.38,2.26-7.96m-15.84.08c.12.44.23.87.71,1.01-.07-.44-.35-.77-.71-1.01m-10.64-.03c-.07,1.38-.74,2.65-1.18,3.93-.49,1.47-.75,3.04-1.51,4.41-.47-.5.02-1.4.2-1.92.31-.91.55-1.84.81-2.76.17-.61.83-3.9,1.68-3.66m59.68,17.41c-.32-.66-.25-1.46-.38-2.18-.13-.7-.26-1.38-.29-2.1-.04-1.2-.13-2.59-.86-3.6-.37-.5.02-.8.08-1.34.07-.63-.13-1.33-.29-1.94-.41-1.57-1.11-3.16-1.32-4.77,1.19-.03,1.35,1.66,1.45,2.51.23,1.66.63,3.36,1.21,4.95.29.8.21,1.37.19,2.2-.02.86.19,1.79.29,2.64.13.93.88,2.9-.09,3.62m-47.83-16.86c.04.34.14.66.22,1,.31-.36.07-.69-.22-1m-10.64.23c-.02.76-.3,1.49-.55,2.22-.48-.56-.04-1.87.55-2.22m11.86.56c.12.44.23.87.71,1.01-.07-.45-.35-.77-.71-1.01m1.23.51c.07.42.35.8.71,1.01-.06-.43-.22-.93-.71-1.01m1.48.3c.03.16.4,1.55.77,1.2.4-.39-.43-.99-.77-1.2m37.54,2.96c-2.29.03-3.89,1.06-5.51,2.57.84-.12,1.53-.75,2.27-1.14.85-.45,1.86-.6,2.81-.54,1.56.09,3.51.71,4.31,2.18-.44-.12-1.2-.28-1.6-.1-.82.36-1.17,1.33-1.91,1.77-.67.41-1.42-.41-2.2,0-.95.51-1.43.88-2.54.51-1.12-.37-2.4.06-3.46-.45-.37-.18-.48-.95-.43-1.32.07-.6.37-1.05.79-1.46.17-.17,1.49-.87,1.49-1.02.02-.76-1.23-.6-.73-1.43.79-1.31,2.57-1.45,3.95-1.25.87.13,2.64.61,2.76,1.67m-52.92-1.88c-.06.92-.5,3.95-1.59,4.17.14-.8.51-1.54.81-2.3.25-.62.28-1.39.78-1.87m22.98,1.58c-.03,1.15.71,2.93.14,3.97-.47-.5-.83-3.55-.14-3.97m.84,5.48c-.02,1.45-3.49,2.05-4.47,2.31-2.6.67-5.35.74-8.03.57-2.54-.16-5.02-.9-7.41-1.72-1.32-.46-4.55-1.2-4.55-3.05,1.78-.04,3.75,1.59,5.29,2.35,1.86.91,3.85,1.31,5.91,1.41,2.27.1,4.62.32,6.86-.14,1.07-.22,2.16-.41,3.18-.8,1.06-.41,2.09-.96,3.23-.92m-27.21-.22c.11.72-1.38,1.55-1.82,1.97-.84.79-1.68,1.81-2.8,2.2-.72.25-1.57-.48-2.12-.86-.71-.49-.39-.93.25-1.32.97-.59,2.16-.84,3.19-1.32.89-.43,2.32-1.21,3.31-.67m2.47.06c.97.69,2.09,1.14,3.18,1.59,1.13.47,2.23,1.06,3.43,1.3-.94.75-2.76-.56-3.66-.92-.61-.25-3.2-1-2.95-1.97m-1.76.82c.55.19,1.66.37,1.49,1.18-.2,1.01-1.13,1.87-1.73,2.66-.54.7-1.45,1.91-2.5,1.61-.66-.19-1.05-.55-1.39-1.15-.81-1.45,3.14-3.84,4.13-4.3m27.96.6c-.19,1.15-2.54,1.69-3.41,2-1.76.61-3.55.99-5.41,1.14-3.63.29-7.07.02-10.53-1.16.84-.6,3,.41,3.93.53,1.75.25,3.67.29,5.44.24,1.86-.05,3.65-.6,5.46-1,1.52-.35,2.97-1.72,4.52-1.75m2.46.32c1.77.82,3.13,2.31,4.5,3.65,1.43,1.4,2.5,2.96,3.35,4.76.91,1.93,1.68,3.96,2.21,6.03.24.94,1.29,3.54.26,4.28-.76.53-2.06-.05-2.86-.18-1.56-.25-3.16-.36-4.74-.43-3.34-.15-6.49.5-9.66,1.5-1.2.38-2.63-.4-3.82-.67-1.54-.35-3.2-.79-4.78-.8-1.55,0-3.3.14-4.8.51-.81.21-2.91,1.52-3.48.56-2.05-3.51-4.09-7.02-6.95-9.95-2.72-2.78-6.07-5.8-9.8-7.1-.15-.05-.17-.49-.03-.55,2.1-.77,4.77,1.69,6.27,2.9,1.96,1.6,3.85,3.3,5.55,5.17,1.63,1.8,3.08,3.72,4.21,5.88.36.68.95,1.65,1.78,1.81,1.3.24,2.84-.36,4.16-.44,2.55-.15,5.13-.05,7.64.46.97.21,2.06.84,3.07.57,1.24-.34,2.46-.76,3.74-.94,2.45-.35,5.09-.61,7.55-.28.79.11,5.93,1.29,6.08-.02.35-3.13-1.49-6.5-3.14-9.06-.93-1.44-1.98-2.81-3.16-4.07-1.09-1.17-2.03-2.57-3.43-3.38.1-.06.19-.19.28-.23m-35.77.04c-.42.27.06,1.06.48.76.4-.28-.08-1.02-.48-.76m43.81,14.02c-.99-.61-1.43-1.94-1.96-2.91-.77-1.4-1.79-2.68-2.73-3.97-.87-1.2-1.87-2.38-2.97-3.36-.8-.72-2.14-1.66-2.14-2.88,1.19-.02,2.12.95,2.87,1.75,1.03,1.1,2.06,2.19,2.93,3.42,1.72,2.41,3.13,5.11,4,7.95m-37.45-6.43c-1.31-.27-1.77-1.16-2.3-2.26-.22-.44.89-1.81,1.13-2.09.79-.89,1.63-1.73,2.55-2.5.55-.46,1.55.18,1.64.76.12.83-.83,1.87-1.23,2.54-.66,1.15-1.42,2.28-1.8,3.54m36.89,8.9c-1.08-.13-2.18-.12-3.25-.34-.62-.12-2.52-.05-2.92-.66-1.2-1.9-1.65-4.14-2.54-6.18-.46-1.05-.9-2.1-1.43-3.11-.48-.91-1.26-1.77-1.43-2.82-.09-.51-.26-1.09.4-1.3,1.44-.47,2.8.97,3.68,1.93,1.19,1.3,2.32,2.63,3.34,4.06,1.06,1.46,2.08,2.99,2.94,4.57.53.97,1.84,2.68,1.22,3.84m-34-5.85c-.71-.17-1.46-.95-1.86-1.53-.87-1.32.28-3.07.84-4.28.37-.78,1.12-2.72,2.14-2.84.79-.08,2.28-.12,2.06,1.14-.48,2.63-2.37,4.97-3.18,7.51m-6.34-8.58c-.42.27.04,1.04.48.76.52-.31-.12-.93-.48-.76m33.18,13.75c-.85,0-3.85.9-4.42-.02-.56-.89-.67-2.16-.91-3.16-.34-1.39-.68-2.78-1.08-4.15-.39-1.33-.89-2.6-1.26-3.93-.34-1.24.43-1.56,1.5-1.5,1.77.09,2.86,3.85,3.41,5.17.99,2.34,2.51,5.02,2.75,7.59m-23.26-.11c-1.29-.06-3.05-3.26-2.94-4.37.24-2.5,1.76-4.76,2.79-7,.45-.97,1.28-1.67,2.33-1.1.37.2,1.09.42,1.03.96-.22,2.03-.93,3.98-1.52,5.93-.54,1.81-1.41,3.7-1.68,5.58m13.43-12.17c1.82.17,2.33,3.05,2.65,4.42.24,1.03.53,2.05.79,3.08.35,1.39,1,2.97,1.06,4.38.1,1.97-4.39,2.63-5.23,1.02-.38-.75-.16-1.76-.08-2.55.1-1.01.03-2.04-.09-3.05-.12-1.12-.29-2.24-.45-3.34-.13-.87-.73-2.48-.3-3.32.29-.53,1.11-.58,1.63-.64m16.55,1.57c-.51-.26-.61-.73-.71-1.26.67,0,1.06.68.71,1.26m-44.97,6.49c-1.07-1.61-2.03-3.31-3.24-4.83-.54-.69-2.7-2.2-2.36-3.21.72-2.02,5.04.63,5.91,1.17,1.1.68,2.08,1.52,3.15,2.25.6.41,1.81,1.02,1.93,1.83.09.63,0,.93-.65,1.19-1.55.58-3.16,1.1-4.74,1.6m15.72,4.87c.18-2.21.87-4.22,1.55-6.3.62-1.93.81-4.54,2.07-6.19.19-.25,1.03-.31,1.33-.19.62.25,1,.31,1.02,1.03.07,2.02-.14,3.96-.34,5.96-.1.94-.09,1.89-.26,2.82-.08.45-.2,2-.78,2.14-1.44.38-3.1.84-4.59.73m7.5-12.59c1.15-.07,2.19,0,2.77,1.09.77,1.39.82,3.64.94,5.2.15,1.99.34,4.07-.38,5.97-.26.66-4.17.17-4.59-.31-1.03-1.19,0-4.39.09-5.73.09-1.31.08-2.62.11-3.94.03-.85.09-1.99,1.06-2.28m-23.42,34.69c-1.48-.3-2.88-1.67-4.24-2.34-1.76-.87-3.49-1.77-5.34-2.44-1.98-.71-4.01-1.31-6.05-1.83-1.97-.51-3.99-.67-5.97-1.12.52-.68,1.99-1.11,2.73-1.53,1.08-.63,2.09-1.35,3.06-2.13,1.9-1.53,3.7-3.69,4.76-5.9,1.19-2.47,1.95-4.85,2.27-7.59.16-1.37.12-2.69-.12-4.05-.11-.6-.24-1.21-.41-1.79-.17-.58-.59-1.26-.54-1.87.06-.78.16-.87.94-1.08,1.29-.35,1.91-.35,2.64.85,1.38,2.24,2.37,4.69,3.28,7.15,1,2.7,1.44,5.47,2.26,8.22.8,2.71.78,5.59.72,8.39-.08,3,.09,6.03,0,9.06m8.79-33.44c-.25-.08-.58-.26-.84-.15-.2.09-.57.46-.42.74.39.7,1.1-.28,1.26-.59m-39.45,22.74c1.49.04,2.76,1.08,4.3,1.14,1.48.05,2.96,0,4.37-.51,2.72-.97,5.06-2.91,6.84-5.17,1.75-2.23,2.99-4.83,3.77-7.55.47-1.63.47-3.34.29-5.01-.09-.85-.26-1.69-.51-2.51-.27-.86-.75-1.74-.64-2.67,2.89.42,2.97,5.36,2.82,7.64-.21,3.18-1.39,6.2-3.05,8.9-1.61,2.63-3.82,5.12-6.6,6.55-2.66,1.37-6.32,2.33-9.26,1.45-.99-.31-2.51-.99-2.33-2.26m26.06-21.6c3.68,2.94,4.82,9.33,4.84,13.75-.79-.61-.88-1.88-1.1-2.77-.37-1.46-.75-2.95-1.32-4.35-.54-1.33-1-2.72-1.67-3.98-.34-.61-1.24-1.92-.75-2.64m-25.29,20.38c.31-.49,1.75.02,2.16.12,1.05.25,2.13.31,3.2.13,2.76-.46,5.7-2.44,7.5-4.53,1.91-2.21,3.37-4.58,3.96-7.48.3-1.47.15-2.87-.09-4.33-.11-.69-.25-1.4-.53-2.04-.15-.34-.52-.91-.41-1.3.11-.34.4-1.26.9-.67,1.87,2.19,1.75,5.78,1.26,8.44-.56,2.98-2.04,5.66-3.88,8.04-1.97,2.56-4.23,4.29-7.4,5.09-1.46.37-6.21.91-6.66-1.45m81.66-18.4c.67.39,1.34,1.09,1.68,1.77-.75.14-2.22-.95-1.68-1.77m-41.58.15c.48.29,1.2.07,1.14-.56-.09-1-.99.26-1.14.56m-39.07,17.55c-.08-1.42,1-2.81,1.78-3.9.3-.41.65-.7,1.15-.81.32-.07,1.4.08,1.42-.38,0-.48-.48-.08-.73-.51.37-.33.91-.4,1.37-.49.72-.16,1.21-.67,1.89-.9-.53.87-1.52,1.3-2.04,2.18,2.19-1.06,4.36-2.86,4.36-5.54,0-1.17-.74-2.51-.18-3.6.56-1.1,1.47-2.05,2.3-2.97.48-.53.89-.34,1.41-.04.81.48,1.01,2.11.49,2.92-.56.88-2.28.73-2.71,1.6-.11.21-.72,1.1-.18,1.23.95.23,1.68.02,2.62,0,.71-.03,1.67.14,1.82.98.17.94-.6,2.39-1.47,2.8-1.03.49-1.97-.93-3.14-.42-.51.23,1.61,2.33,1.66,2.5.31.97-.99,1.85-1.72,2.07-1.27.38-1.45-1.28-2.66-1.12-.48.06-.29.72-.19,1,.26.74.33,1.26.22,2.04-.12.91-1.86,1.37-2.61,1.05-1.16-.49.17-2.19-.87-2.76-1.01-.52-1.28,1.89-1.77,2.21-.8.49-1.27.9-2.21.88m29.73-10.36c-.11-.82-.3-1.55-.3-2.39,0-1.04,1.91-1.52,2.65-1.81.8-.31,2.74-1.22,3.59-.75.31.17.85.31.92.68.23,1.04-2.09,1.76-2.68,2.13-.99.59-2.97,2.37-4.19,2.14m13.03-4.36c-.23.12-.48.46-.4.73.03.09.92.65,1,.63.72-.21.2-1.78-.6-1.37m-5.04,1.35c.34,1.12.1,2.32.16,3.46.43-.06.91-.35,1.29-.54.55-.3.72.22.55.7-.57,1.65-1.91,3.11-2.83,4.58-1.04,1.67-1.75,3.38-2.26,5.28-.54,2.08-.71,4.09-.46,6.21.12,1.01.31,2.01.53,3,.24,1.01.86,2.21.84,3.24-1.13-.82-1.75-2.93-2.32-4.16-.84-1.8-1.53-3.66-2.09-5.57-.58-2.01-.92-4.09-.87-6.18.03-.94.05-1.88.07-2.82.02-.82-.34-1.92-.17-2.7.59.24.51,1.2.53,1.7.04,1.1.26,2.25.5,3.32.35,1.48.73,3.63,2.17,4.47.82-2.9,1.31-5.9,2.02-8.83.31-1.2.68-4.96,2.32-5.18m33.18,1.13c-.09.19-.48.74-.43.93.05.24.78.45.97.35.07-.04.3-.87.27-.95-.11-.33-.54-.48-.81-.33m-6.43.08c-.6.26,0,1.56.6,1.26.6-.31.14-1.64-.6-1.26m-28.76-.26c-.14,1.97-.93,3.82-1.46,5.7-.38,1.35-1.29,3.44-1.04,4.87-1.56-.36-1.57-4.57-1.74-5.72-.35-2.44,1.81-4.55,4.25-4.85m12.37.32c-.5.02-1.96.33-1.21,1.16.12.13.88.05.97-.1.19-.37.2-.65.24-1.06m4.77.37c-.06.18-.37.77-.3.93.08.19.62.44.81.33.48-.27.22-1.69-.51-1.26m7.1.2c-.31,0-.89-.06-1.13.22-.16.18-.22.9-.03,1.11.28.32.82.12,1.01-.15.19-.3.13-.87.15-1.18m-51.96-.87c.75.68.44,2.34.41,3.23-.36-.42-.73-2.81-.41-3.23m-.78,1.46c.44,1.69-1.21,4.32-3.08,4.13.16-1.03.94-1.91,1.49-2.75.5-.77.61-1.4,1.58-1.38m31.05,5.03c.12-.77,1.8-3.66,2.71-2.43.58.78.02,1.39-.64,1.76-.48.26-1.5.8-2.07.67m28.73-.73c-.22,3.62-.95,7.23-1.4,10.84-.2,1.63-.14,3.3-.49,4.91-.37,1.65.09,3.34.11,5.01-.91-1.05-.41-3.63-.37-4.85.06-2.12.09-4.22.17-6.33.04-1.09.13-9.98,1.98-9.57m1.48.02c-.17,2.57-.89,5.12-1.43,7.63-.38-.44-.25-1.11-.14-1.61.2-.91.24-1.86.36-2.79.09-.59.09-3.46,1.22-3.23m-17.13,2.04c-.09-.53.26-1.18.29-1.72.57.63.49,1.67.55,2.46.09,1.18.07,2.32.03,3.49-.79-.66-.99-2.05-1.59-2.89-.81-1.12-2.08-1.91-2.7-3.16,1.51,0,2.1,1.5,3.42,1.81m2.03-1.67c-.41,2.19.13,4.48.07,6.69-.52-.59-.43-2.67-.42-3.42,0-.54-.69-3.44.35-3.27m1.98.05c-.11,3.84.39,7.56.78,11.36.19,1.84.66,3.69,1.17,5.46.48,1.64,1.24,3.31,1.19,5.05-1.18-.94-1.47-3.64-1.92-4.99-.66-2.02-1.22-4.02-1.57-6.12-.36-2.13-.58-4.38-.69-6.54-.04-.92-.5-4.23,1.05-4.23m4.14,21.38c-1.03-.75-1.26-3.42-1.56-4.57-.57-2.14-.98-4.33-1.25-6.53-.27-2.21-.39-4.42-.65-6.62-.1-.79-.41-3.15.59-3.47.37-.12.97.4,1.02.72.23,1.44-.29,3.13-.28,4.61,0,1.84,0,3.64.23,5.47.22,1.73.44,3.47.77,5.2.33,1.64,1.15,3.52,1.13,5.2m1.89-15.53c-.77-.43-2.19-1.86-2.27-2.78-.12-1.34,1.18-2.56,2.41-2.75,1.58-.24,2.05,1.3,2.38,2.51.25.89-1.94,2.49-2.52,3.02m-18.23,15.84c.56-2,1.44-4.09,1.78-6.14.16-.99-.12-1.99.16-2.97.28-.98.99-1.74,1.34-2.68-2.04,1.13-2.27,3.16-2.38,5.21-.13,2.13-.49,4.62-1.91,6.31-.39.46-1.87-.06-2.31-.21-1.06-.38-.56-1.22-.12-1.99,1.32-2.27,3.2-4.56,3.41-7.26.06-.77-.21-1.74-.91-2.16-.02.7.19,1.4.2,2.1,0,.77-.38,1.52-.66,2.23-.45,1.06-.96,2.09-1.51,3.1-.5.92-2.23,3.92-3.3,1.92-1.26-2.33-1.79-4.71-2.02-7.32-.21-2.32-.14-5.22.97-7.33.89-1.71,2.6-3.33,4.42-4,1.16-.43,1.58.04,2.65.37,1.12.35,2.29-.64,3.47-.47,2.14.32,3.93,3.02,4.58,4.86.82,2.3,1.46,5.29.88,7.7-.54,2.22-1.98,4.28-3.55,5.88-.96.99-3.66,3.74-5.21,2.86m16.51-16.15c.48.15.87.53,1.37.67.63.18,1.3-.58,1.97-.16,1.11.68.14,2.47-.55,3.06-.54.47-.87.84-1.55.47-.53-.29-.86-.62-1.28-1.06-.96-.98-1.43-2.26.05-2.98m-5.98,1.35c-.16.78.25,1.71.41,2.47.19.95.38,1.9.59,2.84.47,1.94-.1,3-1.12,4.58-1.56,2.45-4.96,6.04-8.21,5.73.64-1.24,2.25-2.17,3.25-3.12,1.29-1.2,2.26-2.69,3.12-4.22.81-1.44,1.15-2.77,1.39-4.39.1-.67.27-1.33.27-2.01,0-.6-.11-1.4.32-1.89m13.09.83c-.02.82-.04,1.65-.07,2.47-.41-.54-.36-1.95.07-2.47m-36.65,1.02c.86,1.72,1.31,3.62,2.12,5.37.7,1.52,1.9,3.12,1.82,4.87-1.61-.57-2.52-2.68-3.07-4.17-.48-1.33-1.95-4.77-.87-6.08m33.13.87c.69,1.08,0,1.93-.69,2.79-.9,1.11-1.66,1.2-2.68.25-.39-.37-.64-.82-.73-1.34-.16-.93.98-.98,1.54-.87,1.06.19,1.56-.69,2.56-.83m-64.93,1.92c-.51.03-1.94.44-1.93-.38,0-.48.46-1.31,1.03-1.29.7.02,1.4.38,1.7,1.03m29.93,10.19c-1.21-.27-2.21-1.26-3.24-1.9-1.21-.76-2.45-1.45-3.72-2.1-2.84-1.43-5.82-2.46-8.95-3.07-3-.58-6.23-.97-9.28-.98-1.48,0-2.97.04-4.45.04-1.08,0-3.1.47-4.08-.05.77-.93,2.78-.89,3.88-.9,1.63-.02,3.25-.04,4.87-.09,3.34-.1,6.52.37,9.73,1.22,3.32.88,6.58,1.85,9.64,3.43,1.48.75,5.66,2.34,5.6,4.39m30.88-7.12c.97.05,1.56-.02,2.5-.21,1.1-.22.72,1.49.38,2.02-.58.85-1.27,1.23-2.19.6-.77-.51-1.05-1.57-.69-2.41m-30.69,9.35c-.52.73-1.96.55-2.4-.12-.48-.74-1.08-2.32-2-2.6-1.03-.32-2.28.37-3.09-.56-.4-.47-.78-1.23-1.31-1.54-.58-.35-1.43-.03-2.07-.03-1.68,0-2.21-1.28-3.61-1.79-1.37-.49-2.53,1.09-3.91.73-1.09-.29-2.19-2.2-3.32-1.89-1.25.34-2.41.89-3.67,1.2-1.28.31-2.17-1.26-3.36-1.45-1.57-.27-3.52,2.31-5.01.95-.46-.41-1.05-.84-1.16-1.48.71.03,2.07,1.36,2.74,1.09,1.11-.46,2.12-1.17,3.31-1.43,1.03-.24,1.82.75,2.49,1.36,1.18,1.08,3.49-.68,4.78-.95,1.49-.32,2.33,1.99,3.97,1.64.98-.21,2.18-1.17,3.21-.97.87.17,1.64,1.58,2.4,2.05,1,.59,2.39-.47,3.46.04.75.36,1.04,1.25,1.54,1.85.72.86,2.07.75,3.09.82.99.08,1.45,2.28,2.29,2.79.47.33,1.11.04,1.62.32m26.19-7.74c1.02,2.02-.79,3.71-2.24,4.88-1.22.98-3.91,2.99-5.63,2.59.38-.6,1.06-.97,1.66-1.32.85-.48,1.6-1.06,2.32-1.73,1.37-1.29,2.32-3.42,3.89-4.42m-24.98-.42c.27.94,1,1.81,1.17,2.75-1.33.2-1.9-1.87-1.17-2.75m29.88,2.29c.85.04,1.36-.18,2.15-.3,1.26-.16,1.21.94.78,1.8-.2.41-.51.63-.87.89-.34.25-.89-.14-1.26-.28-.93-.36-.82-1.32-.8-2.12m-34.09,7.27c-.84-.42-1.4-1.22-1.93-1.95-.47-.62-1.16-.47-1.87-.46-1.17.02-1.34-.71-2.13-1.38-.86-.73-1.3-.68-2.41-.6-2.13.15-2.92-2.22-5.19-1.46-1.08.37-2.17.73-3.26.18-.6-.31-1.65-1.48-2.39-1.39-1.12.16-2.07.82-3.19.95-1.58.18-2.42-1.74-3.99-1.48-1.53.25-2.88,1.87-4.49.87-.76-.47-1.64-1.04-2.1-1.83.86-.35,2.08.95,2.87,1.24,1.46.51,2.9-1.88,4.22-1.32,1.07.47,2.02,1.67,3.26,1.58,1.41-.11,2.84-1.8,4.29-.99.51.29,2.06,1.88,2.66,1.72,1.05-.26,2.15-.73,3.21-.83,1.19-.11,1.84.99,2.72,1.57,1.11.71,2.05-.27,3.16.02,1.01.25,1.34,1.53,2.03,2.18.92.85,2.23-.29,3.11.53.71.63,1.33,1.86,1.43,2.84m30.1-6.16c.49.96,3.27,6,1.07,6.46-2.26.48-5.2-.67-7.38-1.18.27-1.19,1.83-1.84,2.76-2.4,1.32-.78,2.15-2.25,3.55-2.88m4.9,2.12c.66.23,1.11-.09,1.73-.25.69-.17,1.28.22.79,1-.62,1.03-3.37.64-2.52-.75m-31.67,8.83c-1.2-.67-2.01-1.87-3.05-2.74-1.3-1.09-2.8-1.94-4.3-2.69-3.31-1.65-6.78-2.48-10.44-2.86-3.53-.36-7.07-.57-10.61-.72-1.84-.08-3.69-.04-5.53-.07-1.82-.03-3.6.43-5.42.37,1.21-2.17,5.66-1.38,7.65-1.22,2.02.17,4.04,0,6.07.1,2.24.1,4.4.49,6.61.78,4.03.52,7.77,1.15,11.45,2.95,1.56.76,3.32,1.35,4.68,2.45,1.07.87,2.77,2.15,2.9,3.65m29.15-7.42c.24.36.41.82.47,1.25-.49-.14-.76-.79-.47-1.25m-34.27,13.95c-.6-.35-1.27-.92-1.95-1.04.04,1.59.69,2.93.87,4.47-1.47-.27-2.46-1.69-3.91-2.09-.05,1.75,1.13,3.27,1.11,4.98-1.38-.31-3.2-2.85-4.64-2.35.68,1.34,1.48,3.05,1.86,4.5-1.17.06-2.28-.66-3.33-1.07-1.3-.49-2.35-1.02-3.42-1.89-2.3-1.87-4.3-3.94-6.16-6.25-1.74-2.17-3.34-4.46-4.65-6.92-.68-1.27-1.33-2.56-1.97-3.85-.19-.37-1.68-2.73-.84-2.89,3.21-.6,6.52.23,9.73.33,3.19.08,6.58.38,9.69,1.08,2.23.51,3.02,3.28,3.74,5.13.5,1.31,1.2,2.5,1.87,3.73.64,1.18,2.03,2.72,2,4.13m35.08-7.23c1.28-.25.84-2,1.34-2.85.25-.44.75-1.06,1.24-1.23.73-.25.92-.53,1.29-1.26-2.98,0-3.79,2.9-3.86,5.33m-67.4-5.98c-.03.84-.29,1.62-.32,2.46.56-.58,1.06-1.29,1.78-1.69-.13.74-.41,1.47-.55,2.22.68-.36,1.09-1.06,1.77-1.43-.02.86-.44,1.62-.55,2.46.81-.39,1.28-1.21,2.02-1.68-.03,1.02-.61,1.94-.57,2.96.65-.34,1.01-1.36,1.77-1.43-.02.62-.41,1.38-.3,1.97.44-.21.78-.59,1.26-.71-.02.57-.03,1.16-.05,1.73.32-.19.62-.43,1-.47-.11.41-.13.83-.03,1.24,1.18-.37,2.32,1.24,2.41,2.29-1.35-.26-2.53-1.24-3.68-1.92-1.34-.78-2.62-1.67-3.84-2.62-1.03-.8-5.13-3.39-4.11-5.18.27.36.22.81.22,1.25.6-.3,1.08-1.58,1.77-1.43m37.39,18.31c-.82.13-1.74-1.84-2.1-2.43-.57-.95-1.98-2.67-1.96-3.81.02-.63,1.61-1.16,2.06-1.39,1-.51,1.78-1.15,2.43-2.07,1.52-2.15.02-4.56.7-6.84.2-.69.61-.68,1.26-.48.97.29,4.63,1.32,4.53,2.75-.07,1.07-1.11,2.35-1.61,3.27-.67,1.23-1.37,2.43-1.97,3.7-1.15,2.4-2.07,4.94-3.34,7.3m.18-16.33c.13.83-.9.8-1.49.82-.74.03-1.37-.21-1.72-.91,1.03.19,2.28-.47,3.22.09m-8.45,1.25c.18.67.3,1.42.69,2,.1-.33.21-.64.28-.98.66.59.66,2.66.65,3.48.5-.74.53-1.54.56-2.4,0-.09.48-.13.5.02.04.28.03.48.08.78.2,1.11.07,2.25.05,3.35.48-.75.78-1.55.8-2.45.68.61.45,1.91.43,2.73.73-.56,1-1.81,1.06-2.69.5.62.46,2.47.09,3.09-.34.55-1.08.56-1.63.69-1.43.35-4.8-6.93-3.56-7.62m16.31,1.19c-.08,1.24-.99,2.32-1.62,3.32-.88,1.42-1.57,2.95-2.25,4.46-.58,1.31-1.34,2.54-1.74,3.93-.29.96-.81,3.07-1.71,3.68-.51-1.01.2-2.39.64-3.3.75-1.55,1.4-3.18,2.25-4.67.82-1.43,1.59-2.88,2.33-4.36.29-.59,1.2-3.26,2.11-3.06m1.17,21.32c-1.21-.28-2.14-1.76-3.05-2.52-1.02-.86-2.22-1.6-3.47-2.06-1.32-.48-.98-.85-.55-1.97.56-1.47,1.23-2.92,1.84-4.36,1.27-2.99,2.61-6.09,4.45-8.78.96-1.41,1.48-1.52,3.12-1,.9.29,2.34.5,2.88,1.39.54.9-.32,2.24-.62,3.08-.59,1.69-1.24,3.31-1.72,5.05-1.03,3.69-1.92,7.44-2.87,11.18m-10.92-17.63c.22.23.39.55.73.51-.29.45-.7.87-1.27.96-.08-.44.21-1.17.53-1.47m-29.63,25.71c-3.9-2.48-1-8.62.28-11.69.98-2.33,1.94-4.66,2.94-6.98.35-.81.71-1.97,1.43-2.54.81-.66,1.7.48,2.15,1.05.65.82,1.13,1.42.87,2.48-.33,1.36-1.21,2.63-1.81,3.88-.75,1.54-1.46,3.1-2.16,4.66-1.32,2.98-2.13,6.29-3.69,9.13m16.89-11.93c1.16.27,2.35.87,3.49.69.52-.08-.6-3.01-.7-3.34,1.2.06,2.7,1.16,3.66,1.83.43-1.32-.41-3.15-.62-4.47,1.33,0,2.23,1.17,3.42,1.57.36-1.25-.43-2.68-.4-3.97.91.14,1.79.85,2.42,1.48.26.26.97,1.3.76,1.68-.85,1.53-2.17,2.74-3.52,3.82-1.38,1.09-2.73,2.38-4.45,2.9-1.43.44-3.43-.96-4.07-2.2m-18.45,33.17c-.91-.6-.37-2.22-.49-3.11-.22-1.56.14-3.32.17-4.92.02-.85.21-1.69.29-2.54.08-.95.02-1.95.26-2.88.4-1.54.62-3.16,1.07-4.67,1-3.42,2.36-6.76,3.75-10.04,1.46-3.44,2.94-6.93,4.81-10.17.32-.53.37-.53.87-.21.95.61,3.18,2.11,2.44,3.48-.72,1.33-1.9,2.41-2.72,3.68-.86,1.33-1.64,2.71-2.35,4.13-1.43,2.91-2.65,6.1-3.39,9.26-.38,1.61-.57,3.27-.64,4.92-.03.67.21,1.38.11,2.04-.1.72-.49,1.44-.75,2.13-.56,1.47-1.12,2.96-1.73,4.41-.61,1.45-.91,3.11-1.68,4.49m31.41-37.04c1.02,1.51-1.28,3.29-2.26,4.13-1.14.97-4.13,4.2-5.81,3.2-1.14-.67,2.56-2.92,2.93-3.21.88-.7,1.74-1.43,2.6-2.17.77-.67,1.51-1.66,2.53-1.95m1.2,1.76c.74,1.46-1.46,3.22-2.35,4.09-1.3,1.28-2.96,3.32-5.03,2.93-.87-.16,2.2-2.51,2.33-2.61,1.02-.83,1.93-1.72,2.84-2.68.62-.65,1.26-1.56,2.21-1.72m-27.8,21.78c.11-3.92,1.38-7.73,2.89-11.31,1.43-3.36,3.29-6.96,5.97-9.51.76-.72,2.23,0,2.56.89.51,1.38-1.86,3.65-2.55,4.69-1.26,1.88-2.33,3.88-3.45,5.83-1.09,1.89-2.24,3.8-3.21,5.75-.44.89-1.04,3.44-2.21,3.66m28.49-20.04c.99,2.06.11,4.51.08,6.68-.04,2.52,0,5.02-.34,7.53-.32,2.42-1.1,4.36-2.19,6.52-1.2,2.38-1.74,4.82-2.49,7.35-.43-.48-.13-1.3,0-1.83.21-.86.23-1.75.12-2.62-.48.85-.51,1.84-.73,2.77-.21.88-.55,1.73-.96,2.54-.63,1.26-1.67,2.84-3.22,2.97.17-1.12,1.11-1.98,1.43-3.06.38-1.24.69-2.57.72-3.87,0-.49.14-.98.15-1.47,0-.54-.26-1.13-.36-1.65-.27-1.43-.14-2.93-.06-4.37.11-1.97.35-4,.71-5.95.24-1.25.82-3.06,2.45-2.5-.23-.97-.96-1.8-.18-2.73-.31-.1-.61-.2-.9-.36-.48-.27-.22-.51.08-.87.79-.97,2-1.7,2.88-2.61.69-.7,1.73-2.34,2.8-2.46m-15.63,1.33c1.35.41,2.93,1.4,3.86,2.46.91,1.06-.64,3.05-1.24,3.95-1.07,1.63-2.08,3.23-2.97,4.97-1.8,3.53-3.41,7.19-4.74,10.94-1.31,3.65-2.25,7.44-3.45,11.13-.48,1.43-.72,2.88-1.01,4.36-.09.46-.41,2.42-1.23,2.08-1.44-.61-2.7-1.78-3.93-2.74-1.1-.87-3.03-2.24-2.61-3.87.8-3.15,2.27-6.13,3.39-9.15,1.21-3.24,2.62-6.4,4.23-9.47,1.56-2.97,3.26-5.85,5.02-8.7.8-1.31,1.53-2.64,2.39-3.91.44-.65,1.34-2.22,2.3-2.05m7.19,8.86c-.36-.75-.21-1.68-.19-2.48-.64.21-1.16.65-1.76.94-.23-.47-.14-.99-.26-1.47-.11-.45-.73-.68-.66-1.18.07-.5.68-.94,1.14-.91.82.05,1.79.69,2.54,1.03.88.4,1.61,1.03,1.47,2.08-.12.93-1.46,1.79-2.29,2m9.49-3.22c.08.42.18.84-.03,1.24-.28-.36-.26-.9.03-1.24m1.7,1.28c.88,1.7-1.37,4.01-1.63,5.65.44,0,4.49-.22,4.42.65-.07.85-.98,1.2-1.58,1.61-.37.26-1.67.4-1.68.98-.02.76,3.67,2.04,2.63,3.29-.62.76-3.82-.28-4.44-.61-.16,1.05.57,1.94.86,2.9.3,1,.47,2.03.48,3.08-1.65-.14-2.14-2.02-3.39-2.81-.33,1.43-.63,3.9-2.11,4.65.04-1.68.17-3.39.86-4.95.64-1.43,1.44-2.8,2.03-4.26.59-1.46.97-3.04,1.13-4.61.13-1.28-.19-2.96.44-4.13.38-.66,1.27-1.27,2-1.44m-14.87.84c.31.28.64.51.97.77-.46.29-1.33-.23-.97-.77m-.29,1.24c-.04.76-.75,1.46-1.52,1.44-.02-.5.16-.86.35-1.33.19-.46.82-.2,1.18-.12m1.73.05c.77.18,2.33,1.21,2.42,2.04-.66-.22-2.64-1.19-2.42-2.04m15.81,1.16c-.03.63-.46,1.09-1,1.34-.2.09-1.77.72-1.76.23.02-.67.43-1.16.9-1.61.43-.41,1.36-.03,1.86.05m-14.95,3.81c.02-.95,0-1.79-.18-2.73-.6.37-1.28.87-2.01.94,0-.5-.12-1.65.42-1.97.71-.42,2.12.8,2.67,1.21,1.28.91.44,2.28-.9,2.55m1.17,2.76c-1.53-.11-2.69-1.5-3.87-2.34-.89-.63-2.64-1.51-2.68-2.78,1.54.07,2.6,1.6,3.8,2.38.91.57,2.77,1.46,2.75,2.74m-2.34,4.15c-.17-.95-.2-1.76-.18-2.73-.26.05-1.96,1.05-2.03.87-.34-.91-.17-1.95-.15-2.91-.75.42-1.42,1.2-2.27,1.43-.37-.74-.03-1.53-.28-2.28-.14-.43-.68-.86-.52-1.36.46-1.47,2.08-.2,2.77.37,1.45,1.17,3.14,2.04,4.47,3.34.73.73.27,1.3-.2,1.98-.45.64-.78,1.21-1.62,1.29m16.48-5.26c.08.48-.12.61-.53.73-.22.06-1.02.2-1.21-.04-.08-.09,0-.56.02-.68,0-.42,1.59-.09,1.72,0m-14.58,8.27c-1.13.07-2.19-.83-3.07-1.43-1.09-.72-2.19-1.43-3.28-2.17-.24-.16-3.5-2.47-2.39-2.83.94-.3,3.38,2.1,4.04,2.58,1.02.74,2.06,1.46,3.13,2.14.59.38,1.61.88,1.57,1.7m-1.49.22c0,.49.1.68-.36.9-.45.22-.9.58-1.38.7-.53.14-.6-.8-1.4-.57-.52.15-1.26,1.38-1.57.34-.25-.79-.31-1.67-.48-2.48-.82.24-1.28,1.03-2.02,1.43-.25-.52-.22-1.11-.23-1.67,0-.6-.3-1.2-.18-1.8-.41.27-.81.5-1.26.71,0-.31.48-2.84.87-2.67,2.96,1.19,4.93,4.07,7.99,5.12m14.42-2.35c-.81-.02-2.25-.57-1.81-1.69.23-.58.78-.08,1.15.24.44.39.67.86.66,1.45m-4.07,4.33c-1.2-.28-1.45-1.47-.96-2.43.25-.47,1.04.86,1.11,1.03.18.46.08.99-.15,1.41m-12.45,2.9c-1.47.77-3.46-1.12-4.71-1.74-.73-.38-3.76-1.71-3.09-2.92,1.54.48,2.77,1.59,4.2,2.3,1.23.6,2.89,1.1,3.6,2.37m4.31-4.33c-.26,1.36-2.23,2.27-3.52,2.14.57-1.06,2.31-2.15,3.52-2.14m-4.87,6.55c.49-.13.91-.43,1.43-.48,1.67-.17,2.42,2.18,2.39,3.48-.03,1-.27,1.63-1.05,2.28-.27.23-1.06.99-1.44.7-.29-.21-.22-1.15-.25-1.45-.06-.77-.26-1.51-.4-2.28-.25.14-2.17,1.93-2.3,1.61-.42-1.02-.34-2.12-.63-3.18-.88.48-1.68,1.69-2.76,1.66.03-1.08-.19-2.13-.16-3.22-1.01.11-1.53,1.38-2.51,1.66-.37-.86-.09-1.8-.43-2.67-.38-.98-.36-1.99.16-2.94.53-1.02,4.14,1.69,4.73,2.03,1.18.65,3.06,1.19,3.22,2.78m4.07-4.11c.7,1.43-1.99,2.87-3.05,3.14.02-1.31,2.02-2.54,3.05-3.14m-.11,13.62c-1.26.23-2.74-1.16-3.78-1.71-1.63-.88-3.28-1.72-4.9-2.63-.32-.18-5.87-3.06-5.16-3.74.58-.55,2.09.66,2.56.97,1.37.89,2.81,1.69,4.22,2.5,1.55.89,3.15,1.72,4.77,2.49.93.43,2.37.83,2.29,2.12m-2.67,7.35c.29,1.83-4.83-1.54-5.18-1.74-1.55-.9-3-1.95-4.47-2.96-1.06-.72-2.82-1.43-3.36-2.67-.4-.93.78-.28,1.12-.08,1.08.64,2.1,1.41,3.12,2.15,2.7,1.96,5.58,4.21,8.78,5.3" style="fill: #010101; stroke-width: 0px;"/>
      </g>
    </g>
  </g>
</svg>