<?xml version="1.0" encoding="UTF-8"?>
<svg id="a" data-name="Calque 1" xmlns="http://www.w3.org/2000/svg" viewBox="0 0 169.01 246.76">
  <g id="b" data-name="1_spade">
    <g id="c" data-name="base">
      <path d="m1.25,238.04c0,3.78,3.09,6.87,6.87,6.87h152.79c3.77,0,6.86-3.09,6.86-6.87V9.72c0-3.78-3.09-6.87-6.86-6.87H8.12c-3.78,0-6.87,3.09-6.87,6.87v228.32Z" style="fill: #fff; stroke: #010101; stroke-miterlimit: 4; stroke-width: 2.5px;"/>
    </g>
    <g id="d" data-name="ace">
      <text transform="translate(5.25 38.99) scale(.53 1)" style="fill: #010101; font-family: Arial-BoldMT, Arial; font-size: 45.45px; font-weight: 700; isolation: isolate; letter-spacing: -.04em;"><tspan x="0" y="0">A</tspan></text>
    </g>
    <g id="e" data-name="ace">
      <text transform="translate(164.76 207.77) rotate(-180) scale(.53 1)" style="fill: #010101; font-family: Arial-BoldMT, Arial; font-size: 45.45px; font-weight: 700; isolation: isolate; letter-spacing: -.04em;"><tspan x="0" y="0">A</tspan></text>
    </g>
    <g id="f" data-name="spade">
      <path d="m10.98,60.92c1.67,0,2.55-1.78,3.01-3.56.46-1.78.5-3.56.5-3.56h.85s.16,7.12,3.5,7.12c0,0-7.86,0-7.86,0Z" style="fill: #010101; stroke-width: 0px;"/>
      <path d="m8.15,53.79c0-3.47,5.22-5.99,6.75-8.73,1.53,2.75,6.74,5.27,6.75,8.73,0,1.64-1.51,2.97-3.38,2.97s-3.37-1.33-3.37-2.97c0,1.64-1.51,2.97-3.38,2.97s-3.37-1.33-3.37-2.97Z" style="fill: #010101; stroke-width: 0px;"/>
    </g>
    <g id="g" data-name="spade">
      <path d="m159.04,185.85c-1.67,0-2.55,1.78-3.01,3.56-.46,1.78-.5,3.56-.5,3.56h-.85s-.16-7.12-3.5-7.12c0,0,7.86,0,7.86,0Z" style="fill: #010101; stroke-width: 0px;"/>
      <path d="m161.86,192.97c0,3.47-5.22,5.99-6.75,8.73-1.53-2.75-6.74-5.27-6.75-8.73,0-1.64,1.51-2.97,3.38-2.97s3.37,1.33,3.37,2.97c0-1.64,1.51-2.97,3.38-2.97s3.37,1.33,3.37,2.97Z" style="fill: #010101; stroke-width: 0px;"/>
    </g>
    <g id="h" data-name="spade">
      <path d="m75.6,135.54c4.01,0,6.12-4.27,7.22-8.54,1.1-4.27,1.2-8.54,1.2-8.54l2.04-.02s.38,17.11,8.4,17.11c0,0-18.86,0-18.86,0Z" style="fill: #010101; stroke-width: 0px;"/>
      <path d="m68.81,118.43c.02-8.32,12.52-14.37,16.19-20.94,3.67,6.6,16.17,12.64,16.19,20.94,0,3.93-3.62,7.13-8.11,7.13s-8.08-3.19-8.08-7.13c0,3.93-3.62,7.13-8.11,7.13s-8.08-3.19-8.08-7.13Z" style="fill: #010101; stroke-width: 0px;"/>
    </g>
  </g>
</svg>