<?xml version="1.0" encoding="UTF-8"?>
<svg id="a" data-name="Calque 1" xmlns="http://www.w3.org/2000/svg" viewBox="0 0 169.01 246.76">
  <g id="b" data-name="7_club">
    <g id="c" data-name="base">
      <path d="m1.25,238.04c0,3.78,3.09,6.87,6.87,6.87h152.79c3.77,0,6.86-3.09,6.86-6.87V9.72c0-3.78-3.09-6.87-6.86-6.87H8.12c-3.78,0-6.87,3.09-6.87,6.87v228.32Z" style="fill: #fff; stroke: #010101; stroke-miterlimit: 4; stroke-width: 2.5px;"/>
    </g>
    <g id="d" data-name="n 7">
      <text transform="translate(5.25 38.99) scale(.53 1)" style="fill: #010101; font-family: Arial-BoldMT, Arial; font-size: 45.45px; font-weight: 700; isolation: isolate;"><tspan x="0" y="0">7</tspan></text>
    </g>
    <g id="e" data-name="n 7">
      <text transform="translate(164.76 207.77) rotate(-180) scale(.53 1)" style="fill: #010101; font-family: Arial-BoldMT, Arial; font-size: 45.45px; font-weight: 700; isolation: isolate;"><tspan x="0" y="0">7</tspan></text>
    </g>
    <g id="f" data-name="club">
      <path d="m11.55,48.33c0,1.81,1.51,3.28,3.38,3.28s3.38-1.47,3.38-3.28-1.51-3.28-3.38-3.28-3.38,1.47-3.38,3.28Z" style="fill: #010101; stroke-width: 0px;"/>
      <path d="m7.19,54.54c0,1.81,1.51,3.28,3.38,3.28s3.38-1.47,3.38-3.28-1.51-3.28-3.38-3.28-3.38,1.47-3.38,3.28Z" style="fill: #010101; stroke-width: 0px;"/>
      <path d="m15.84,54.56c0,.66.2,1.28.55,1.8.6.89,1.65,1.48,2.83,1.48,1.87,0,3.38-1.47,3.38-3.28s-1.51-3.28-3.38-3.28-3.38,1.47-3.38,3.28Z" style="fill: #010101; stroke-width: 0px;"/>
      <path d="m10.96,60.93c1.67,0,2.55-1.36,3.01-2.72.46-1.36.5-2.72.5-2.72h.86s.16,5.43,3.5,5.44h-7.87Z" style="fill: #010101; stroke-width: 0px;"/>
      <path d="m17.21,50.74c-1.9,1.9-1.9,4.75-1.9,4.75h-.85s0-2.9-1.85-4.75" style="fill: #010101; stroke-width: 0px;"/>
      <path d="m16.83,56.84c-1.9-1.9-4.75-1.9-4.75-1.9v-.85s2.91,0,4.76-1.85" style="fill: #010101; stroke-width: 0px;"/>
      <path d="m13.03,56.85c1.9-1.9,4.75-1.9,4.75-1.9v-.85s-2.91,0-4.76-1.85" style="fill: #010101; stroke-width: 0px;"/>
    </g>
    <g id="g" data-name="club">
      <path d="m158.46,198.43c0-1.81-1.51-3.28-3.38-3.28s-3.38,1.47-3.38,3.28,1.51,3.28,3.38,3.28,3.38-1.47,3.38-3.28Z" style="fill: #010101; stroke-width: 0px;"/>
      <path d="m162.82,192.22c0-1.81-1.51-3.28-3.38-3.28s-3.38,1.47-3.38,3.28,1.51,3.28,3.38,3.28,3.38-1.47,3.38-3.28Z" style="fill: #010101; stroke-width: 0px;"/>
      <path d="m154.16,192.2c0-.66-.2-1.28-.55-1.8-.6-.89-1.65-1.48-2.83-1.48-1.87,0-3.38,1.47-3.38,3.28s1.51,3.28,3.38,3.28,3.38-1.47,3.38-3.28Z" style="fill: #010101; stroke-width: 0px;"/>
      <path d="m159.05,185.84c-1.67,0-2.55,1.36-3.01,2.72-.46,1.36-.5,2.72-.5,2.72h-.86s-.16-5.43-3.5-5.44h7.87Z" style="fill: #010101; stroke-width: 0px;"/>
      <path d="m152.79,196.02c1.9-1.9,1.9-4.75,1.9-4.75h.85s0,2.9,1.85,4.75" style="fill: #010101; stroke-width: 0px;"/>
      <path d="m153.17,189.92c1.9,1.9,4.75,1.9,4.75,1.9v.85s-2.91,0-4.76,1.85" style="fill: #010101; stroke-width: 0px;"/>
      <path d="m156.98,189.91c-1.9,1.9-4.75,1.9-4.75,1.9v.85s2.91,0,4.76,1.85" style="fill: #010101; stroke-width: 0px;"/>
    </g>
    <g id="h" data-name="club">
      <path d="m37.06,28.42c0,4.34,3.62,7.87,8.11,7.87s8.11-3.53,8.11-7.87-3.62-7.87-8.11-7.87-8.11,3.53-8.11,7.87Z" style="fill: #010101; stroke-width: 0px;"/>
      <path d="m26.59,43.32c0,4.34,3.62,7.87,8.11,7.87s8.11-3.53,8.11-7.87-3.62-7.87-8.11-7.87-8.11,3.53-8.11,7.87Z" style="fill: #010101; stroke-width: 0px;"/>
      <path d="m47.37,43.37c0,1.58.48,3.07,1.32,4.32,1.44,2.14,3.96,3.55,6.79,3.55,4.49,0,8.11-3.53,8.11-7.87s-3.62-7.87-8.11-7.87-8.11,3.53-8.11,7.87Z" style="fill: #010101; stroke-width: 0px;"/>
      <path d="m35.64,58.65c4.01,0,6.12-3.26,7.22-6.53,1.1-3.26,1.2-6.53,1.2-6.53h2.06s.38,13.03,8.4,13.05h-18.88Z" style="fill: #010101; stroke-width: 0px;"/>
      <path d="m50.66,34.2c-4.56,4.56-4.56,11.4-4.56,11.4l-2.04.02s0-6.98-4.44-11.42" style="fill: #010101; stroke-width: 0px;"/>
      <path d="m49.75,48.84c-4.56-4.56-11.4-4.56-11.4-4.56v-2.04s6.98,0,11.42-4.44" style="fill: #010101; stroke-width: 0px;"/>
      <path d="m40.61,48.86c4.56-4.56,11.4-4.56,11.4-4.56v-2.04s-6.98,0-11.42-4.44" style="fill: #010101; stroke-width: 0px;"/>
    </g>
    <g id="i" data-name="club">
      <path d="m37.06,105.33c0,4.34,3.62,7.87,8.11,7.87s8.11-3.53,8.11-7.87-3.62-7.87-8.11-7.87-8.11,3.53-8.11,7.87Z" style="fill: #010101; stroke-width: 0px;"/>
      <path d="m26.59,120.23c0,4.34,3.62,7.87,8.11,7.87s8.11-3.53,8.11-7.87-3.62-7.87-8.11-7.87-8.11,3.53-8.11,7.87Z" style="fill: #010101; stroke-width: 0px;"/>
      <path d="m47.37,120.28c0,1.58.48,3.07,1.32,4.32,1.44,2.14,3.96,3.55,6.79,3.55,4.49,0,8.11-3.53,8.11-7.87s-3.62-7.87-8.11-7.87-8.11,3.53-8.11,7.87Z" style="fill: #010101; stroke-width: 0px;"/>
      <path d="m35.64,135.56c4.01,0,6.12-3.26,7.22-6.53,1.1-3.26,1.2-6.53,1.2-6.53h2.06s.38,13.03,8.4,13.05h-18.88Z" style="fill: #010101; stroke-width: 0px;"/>
      <path d="m50.66,111.12c-4.56,4.56-4.56,11.4-4.56,11.4l-2.04.02s0-6.98-4.44-11.42" style="fill: #010101; stroke-width: 0px;"/>
      <path d="m49.75,125.75c-4.56-4.56-11.4-4.56-11.4-4.56v-2.04s6.98,0,11.42-4.44" style="fill: #010101; stroke-width: 0px;"/>
      <path d="m40.61,125.77c4.56-4.56,11.4-4.56,11.4-4.56v-2.04s-6.98,0-11.42-4.44" style="fill: #010101; stroke-width: 0px;"/>
    </g>
    <g id="j" data-name="club">
      <path d="m53.13,214.19c0-4.34-3.62-7.87-8.11-7.87s-8.11,3.53-8.11,7.87,3.62,7.87,8.11,7.87,8.11-3.53,8.11-7.87Z" style="fill: #010101; stroke-width: 0px;"/>
      <path d="m63.59,199.29c0-4.34-3.62-7.87-8.11-7.87s-8.11,3.53-8.11,7.87,3.62,7.87,8.11,7.87,8.11-3.53,8.11-7.87Z" style="fill: #010101; stroke-width: 0px;"/>
      <path d="m42.81,199.25c0-1.58-.48-3.07-1.32-4.32-1.44-2.14-3.96-3.55-6.79-3.55-4.49,0-8.11,3.53-8.11,7.87s3.62,7.87,8.11,7.87,8.11-3.53,8.11-7.87Z" style="fill: #010101; stroke-width: 0px;"/>
      <path d="m54.54,183.96c-4.01,0-6.12,3.26-7.22,6.53-1.1,3.26-1.2,6.53-1.2,6.53h-2.06s-.38-13.03-8.4-13.05h18.88Z" style="fill: #010101; stroke-width: 0px;"/>
      <path d="m39.53,208.41c4.56-4.56,4.56-11.4,4.56-11.4l2.04-.02s0,6.98,4.44,11.42" style="fill: #010101; stroke-width: 0px;"/>
      <path d="m40.44,193.78c4.56,4.56,11.4,4.56,11.4,4.56v2.04s-6.98,0-11.42,4.44" style="fill: #010101; stroke-width: 0px;"/>
      <path d="m49.58,193.75c-4.56,4.56-11.4,4.56-11.4,4.56v2.04s6.98,0,11.42,4.44" style="fill: #010101; stroke-width: 0px;"/>
    </g>
    <g id="k" data-name="club">
      <path d="m116.88,28.42c0,4.34,3.62,7.87,8.11,7.87s8.11-3.53,8.11-7.87-3.62-7.87-8.11-7.87-8.11,3.53-8.11,7.87Z" style="fill: #010101; stroke-width: 0px;"/>
      <path d="m106.42,43.32c0,4.34,3.62,7.87,8.11,7.87s8.11-3.53,8.11-7.87-3.62-7.87-8.11-7.87-8.11,3.53-8.11,7.87Z" style="fill: #010101; stroke-width: 0px;"/>
      <path d="m127.2,43.37c0,1.58.48,3.07,1.32,4.32,1.44,2.14,3.96,3.55,6.79,3.55,4.49,0,8.11-3.53,8.11-7.87s-3.62-7.87-8.11-7.87-8.11,3.53-8.11,7.87Z" style="fill: #010101; stroke-width: 0px;"/>
      <path d="m115.47,58.65c4.01,0,6.12-3.26,7.22-6.53,1.1-3.26,1.2-6.53,1.2-6.53h2.06s.38,13.03,8.4,13.05h-18.88Z" style="fill: #010101; stroke-width: 0px;"/>
      <path d="m130.49,34.2c-4.56,4.56-4.56,11.4-4.56,11.4l-2.04.02s0-6.98-4.44-11.42" style="fill: #010101; stroke-width: 0px;"/>
      <path d="m129.57,48.84c-4.56-4.56-11.4-4.56-11.4-4.56v-2.04s6.98,0,11.42-4.44" style="fill: #010101; stroke-width: 0px;"/>
      <path d="m120.43,48.86c4.56-4.56,11.4-4.56,11.4-4.56v-2.04s-6.98,0-11.42-4.44" style="fill: #010101; stroke-width: 0px;"/>
    </g>
    <g id="l" data-name="club">
      <path d="m116.88,105.33c0,4.34,3.62,7.87,8.11,7.87s8.11-3.53,8.11-7.87-3.62-7.87-8.11-7.87-8.11,3.53-8.11,7.87Z" style="fill: #010101; stroke-width: 0px;"/>
      <path d="m106.42,120.23c0,4.34,3.62,7.87,8.11,7.87s8.11-3.53,8.11-7.87-3.62-7.87-8.11-7.87-8.11,3.53-8.11,7.87Z" style="fill: #010101; stroke-width: 0px;"/>
      <path d="m127.2,120.28c0,1.58.48,3.07,1.32,4.32,1.44,2.14,3.96,3.55,6.79,3.55,4.49,0,8.11-3.53,8.11-7.87s-3.62-7.87-8.11-7.87-8.11,3.53-8.11,7.87Z" style="fill: #010101; stroke-width: 0px;"/>
      <path d="m115.47,135.56c4.01,0,6.12-3.26,7.22-6.53,1.1-3.26,1.2-6.53,1.2-6.53h2.06s.38,13.03,8.4,13.05h-18.88Z" style="fill: #010101; stroke-width: 0px;"/>
      <path d="m130.49,111.12c-4.56,4.56-4.56,11.4-4.56,11.4l-2.04.02s0-6.98-4.44-11.42" style="fill: #010101; stroke-width: 0px;"/>
      <path d="m129.57,125.75c-4.56-4.56-11.4-4.56-11.4-4.56v-2.04s6.98,0,11.42-4.44" style="fill: #010101; stroke-width: 0px;"/>
      <path d="m120.43,125.77c4.56-4.56,11.4-4.56,11.4-4.56v-2.04s-6.98,0-11.42-4.44" style="fill: #010101; stroke-width: 0px;"/>
    </g>
    <g id="m" data-name="club">
      <path d="m132.96,214.19c0-4.34-3.62-7.87-8.11-7.87s-8.11,3.53-8.11,7.87,3.62,7.87,8.11,7.87,8.11-3.53,8.11-7.87Z" style="fill: #010101; stroke-width: 0px;"/>
      <path d="m143.42,199.29c0-4.34-3.62-7.87-8.11-7.87s-8.11,3.53-8.11,7.87,3.62,7.87,8.11,7.87,8.11-3.53,8.11-7.87Z" style="fill: #010101; stroke-width: 0px;"/>
      <path d="m122.64,199.25c0-1.58-.48-3.07-1.32-4.32-1.44-2.14-3.96-3.55-6.79-3.55-4.49,0-8.11,3.53-8.11,7.87s3.62,7.87,8.11,7.87,8.11-3.53,8.11-7.87Z" style="fill: #010101; stroke-width: 0px;"/>
      <path d="m134.37,183.96c-4.01,0-6.12,3.26-7.22,6.53-1.1,3.26-1.2,6.53-1.2,6.53h-2.06s-.38-13.03-8.4-13.05h18.88Z" style="fill: #010101; stroke-width: 0px;"/>
      <path d="m119.35,208.41c4.56-4.56,4.56-11.4,4.56-11.4l2.04-.02s0,6.98,4.44,11.42" style="fill: #010101; stroke-width: 0px;"/>
      <path d="m120.27,193.78c4.56,4.56,11.4,4.56,11.4,4.56v2.04s-6.98,0-11.42,4.44" style="fill: #010101; stroke-width: 0px;"/>
      <path d="m129.41,193.75c-4.56,4.56-11.4,4.56-11.4,4.56v2.04s6.98,0,11.42,4.44" style="fill: #010101; stroke-width: 0px;"/>
    </g>
    <g id="n" data-name="club">
      <path d="m76.97,82.56c0,4.34,3.62,7.87,8.11,7.87s8.11-3.53,8.11-7.87-3.62-7.87-8.11-7.87-8.11,3.53-8.11,7.87Z" style="fill: #010101; stroke-width: 0px;"/>
      <path d="m66.51,97.46c0,4.34,3.62,7.87,8.11,7.87s8.11-3.53,8.11-7.87-3.62-7.87-8.11-7.87-8.11,3.53-8.11,7.87Z" style="fill: #010101; stroke-width: 0px;"/>
      <path d="m87.29,97.5c0,1.58.48,3.07,1.32,4.32,1.44,2.14,3.96,3.55,6.79,3.55,4.49,0,8.11-3.53,8.11-7.87s-3.62-7.87-8.11-7.87-8.11,3.53-8.11,7.87Z" style="fill: #010101; stroke-width: 0px;"/>
      <path d="m75.55,112.79c4.01,0,6.12-3.26,7.22-6.53,1.1-3.26,1.2-6.53,1.2-6.53h2.06s.38,13.03,8.4,13.05h-18.88Z" style="fill: #010101; stroke-width: 0px;"/>
      <path d="m90.57,88.34c-4.56,4.56-4.56,11.4-4.56,11.4l-2.04.02s0-6.98-4.44-11.42" style="fill: #010101; stroke-width: 0px;"/>
      <path d="m89.66,102.97c-4.56-4.56-11.4-4.56-11.4-4.56v-2.04s6.98,0,11.42-4.44" style="fill: #010101; stroke-width: 0px;"/>
      <path d="m80.52,103c4.56-4.56,11.4-4.56,11.4-4.56v-2.04s-6.98,0-11.42-4.44" style="fill: #010101; stroke-width: 0px;"/>
    </g>
  </g>
</svg>