<?xml version="1.0" encoding="utf-8"?>
<!-- Generator: Adobe Illustrator 28.0.0, SVG Export Plug-In . SVG Version: 6.00 Build 0)  -->
<svg version="1.0" id="Calque_1" xmlns="http://www.w3.org/2000/svg" xmlns:xlink="http://www.w3.org/1999/xlink" x="0px" y="0px"
	 viewBox="0 0 300 300" enable-background="new 0 0 300 300" xml:space="preserve">
<path fill="none" stroke="#505050" stroke-linecap="round" stroke-linejoin="round" d="M17,17v271"/>
<path fill="none" stroke="#505050" stroke-linecap="round" stroke-linejoin="round" d="M60.5,17v271"/>
<path fill="none" stroke="#505050" stroke-linecap="round" stroke-linejoin="round" d="M104,17v271"/>
<path fill="none" stroke="#505050" stroke-linecap="round" stroke-linejoin="round" d="M147.5,17v271"/>
<path fill="none" stroke="#505050" stroke-linecap="round" stroke-linejoin="round" d="M191,17v271"/>
<path fill="none" stroke="#505050" stroke-linecap="round" stroke-linejoin="round" d="M234.5,17v271"/>
<path fill="none" stroke="#505050" stroke-linecap="round" stroke-linejoin="round" d="M278,17v271"/>
<path fill="none" stroke="#505050" stroke-linecap="round" stroke-linejoin="round" d="M12,283h271"/>
<path fill="none" stroke="#505050" stroke-linecap="round" stroke-linejoin="round" d="M12,239.5h271"/>
<path fill="none" stroke="#505050" stroke-linecap="round" stroke-linejoin="round" d="M12,196h271"/>
<path fill="none" stroke="#505050" stroke-linecap="round" stroke-linejoin="round" d="M12,152.5h271"/>
<path fill="none" stroke="#505050" stroke-linecap="round" stroke-linejoin="round" d="M12,109h271"/>
<path fill="none" stroke="#505050" stroke-linecap="round" stroke-linejoin="round" d="M12,65.5h271"/>
<path fill="none" stroke="#505050" stroke-linecap="round" stroke-linejoin="round" d="M12,22h271"/>
<path fill="none" stroke="#505050" stroke-width="0.5" stroke-linecap="round" stroke-linejoin="round" d="M25.7,17v271"/>
<path fill="none" stroke="#505050" stroke-width="0.5" stroke-linecap="round" stroke-linejoin="round" d="M34.4,17v271"/>
<path fill="none" stroke="#505050" stroke-width="0.5" stroke-linecap="round" stroke-linejoin="round" d="M43.1,17v271"/>
<path fill="none" stroke="#505050" stroke-width="0.5" stroke-linecap="round" stroke-linejoin="round" d="M51.8,17v271"/>
<path fill="none" stroke="#505050" stroke-width="0.5" stroke-linecap="round" stroke-linejoin="round" d="M69.2,17v271"/>
<path fill="none" stroke="#505050" stroke-width="0.5" stroke-linecap="round" stroke-linejoin="round" d="M77.9,17v271"/>
<path fill="none" stroke="#505050" stroke-width="0.5" stroke-linecap="round" stroke-linejoin="round" d="M86.6,17v271"/>
<path fill="none" stroke="#505050" stroke-width="0.5" stroke-linecap="round" stroke-linejoin="round" d="M95.3,17v271"/>
<path fill="none" stroke="#505050" stroke-width="0.5" stroke-linecap="round" stroke-linejoin="round" d="M112.7,17v271"/>
<path fill="none" stroke="#505050" stroke-width="0.5" stroke-linecap="round" stroke-linejoin="round" d="M121.4,17v271"/>
<path fill="none" stroke="#505050" stroke-width="0.5" stroke-linecap="round" stroke-linejoin="round" d="M130.1,17v271"/>
<path fill="none" stroke="#505050" stroke-width="0.5" stroke-linecap="round" stroke-linejoin="round" d="M138.8,17v271"/>
<path fill="none" stroke="#505050" stroke-width="0.5" stroke-linecap="round" stroke-linejoin="round" d="M156.2,17v271"/>
<path fill="none" stroke="#505050" stroke-width="0.5" stroke-linecap="round" stroke-linejoin="round" d="M164.9,17v271"/>
<path fill="none" stroke="#505050" stroke-width="0.5" stroke-linecap="round" stroke-linejoin="round" d="M173.6,17v271"/>
<path fill="none" stroke="#505050" stroke-width="0.5" stroke-linecap="round" stroke-linejoin="round" d="M182.3,17v271"/>
<path fill="none" stroke="#505050" stroke-width="0.5" stroke-linecap="round" stroke-linejoin="round" d="M199.7,17v271"/>
<path fill="none" stroke="#505050" stroke-width="0.5" stroke-linecap="round" stroke-linejoin="round" d="M208.4,17v271"/>
<path fill="none" stroke="#505050" stroke-width="0.5" stroke-linecap="round" stroke-linejoin="round" d="M217.1,17v271"/>
<path fill="none" stroke="#505050" stroke-width="0.5" stroke-linecap="round" stroke-linejoin="round" d="M225.8,17v271"/>
<path fill="none" stroke="#505050" stroke-width="0.5" stroke-linecap="round" stroke-linejoin="round" d="M243.2,17v271"/>
<path fill="none" stroke="#505050" stroke-width="0.5" stroke-linecap="round" stroke-linejoin="round" d="M251.9,17v271"/>
<path fill="none" stroke="#505050" stroke-width="0.5" stroke-linecap="round" stroke-linejoin="round" d="M260.6,17v271"/>
<path fill="none" stroke="#505050" stroke-width="0.5" stroke-linecap="round" stroke-linejoin="round" d="M269.3,17v271"/>
<path fill="none" stroke="#505050" stroke-width="0.5" stroke-linecap="round" stroke-linejoin="round" d="M12,274.3h271"/>
<path fill="none" stroke="#505050" stroke-width="0.5" stroke-linecap="round" stroke-linejoin="round" d="M12,265.6h271"/>
<path fill="none" stroke="#505050" stroke-width="0.5" stroke-linecap="round" stroke-linejoin="round" d="M12,256.9h271"/>
<path fill="none" stroke="#505050" stroke-width="0.5" stroke-linecap="round" stroke-linejoin="round" d="M12,248.2h271"/>
<path fill="none" stroke="#505050" stroke-width="0.5" stroke-linecap="round" stroke-linejoin="round" d="M12,230.8h271"/>
<path fill="none" stroke="#505050" stroke-width="0.5" stroke-linecap="round" stroke-linejoin="round" d="M12,222.1h271"/>
<path fill="none" stroke="#505050" stroke-width="0.5" stroke-linecap="round" stroke-linejoin="round" d="M12,213.4h271"/>
<path fill="none" stroke="#505050" stroke-width="0.5" stroke-linecap="round" stroke-linejoin="round" d="M12,204.7h271"/>
<path fill="none" stroke="#505050" stroke-width="0.5" stroke-linecap="round" stroke-linejoin="round" d="M12,187.3h271"/>
<path fill="none" stroke="#505050" stroke-width="0.5" stroke-linecap="round" stroke-linejoin="round" d="M12,178.6h271"/>
<path fill="none" stroke="#505050" stroke-width="0.5" stroke-linecap="round" stroke-linejoin="round" d="M12,169.9h271"/>
<path fill="none" stroke="#505050" stroke-width="0.5" stroke-linecap="round" stroke-linejoin="round" d="M12,161.2h271"/>
<path fill="none" stroke="#505050" stroke-width="0.5" stroke-linecap="round" stroke-linejoin="round" d="M12,143.8h271"/>
<path fill="none" stroke="#505050" stroke-width="0.5" stroke-linecap="round" stroke-linejoin="round" d="M12,135.1h271"/>
<path fill="none" stroke="#505050" stroke-width="0.5" stroke-linecap="round" stroke-linejoin="round" d="M12,126.4h271"/>
<path fill="none" stroke="#505050" stroke-width="0.5" stroke-linecap="round" stroke-linejoin="round" d="M12,117.7h271"/>
<path fill="none" stroke="#505050" stroke-width="0.5" stroke-linecap="round" stroke-linejoin="round" d="M12,100.3h271"/>
<path fill="none" stroke="#505050" stroke-width="0.5" stroke-linecap="round" stroke-linejoin="round" d="M12,91.6h271"/>
<path fill="none" stroke="#505050" stroke-width="0.5" stroke-linecap="round" stroke-linejoin="round" d="M12,82.9h271"/>
<path fill="none" stroke="#505050" stroke-width="0.5" stroke-linecap="round" stroke-linejoin="round" d="M12,74.2h271"/>
<path fill="none" stroke="#505050" stroke-width="0.5" stroke-linecap="round" stroke-linejoin="round" d="M12,56.8h271"/>
<path fill="none" stroke="#505050" stroke-width="0.5" stroke-linecap="round" stroke-linejoin="round" d="M12,48.1h271"/>
<path fill="none" stroke="#505050" stroke-width="0.5" stroke-linecap="round" stroke-linejoin="round" d="M12,39.4h271"/>
<path fill="none" stroke="#505050" stroke-width="0.5" stroke-linecap="round" stroke-linejoin="round" d="M12,30.7h271"/>
<path fill="none" stroke="#44ACE2" stroke-width="2" stroke-linecap="round" stroke-linejoin="round" d="M17,147.5v10"/>
<path fill="none" stroke="#44ACE2" stroke-linecap="round" stroke-linejoin="round" d="M25.7,150v5"/>
<path fill="none" stroke="#44ACE2" stroke-linecap="round" stroke-linejoin="round" d="M34.4,150v5"/>
<path fill="none" stroke="#44ACE2" stroke-linecap="round" stroke-linejoin="round" d="M43.1,150v5"/>
<path fill="none" stroke="#44ACE2" stroke-linecap="round" stroke-linejoin="round" d="M51.8,150v5"/>
<path fill="none" stroke="#44ACE2" stroke-width="2" stroke-linecap="round" stroke-linejoin="round" d="M60.5,147.5v10"/>
<path fill="none" stroke="#44ACE2" stroke-linecap="round" stroke-linejoin="round" d="M69.2,150v5"/>
<path fill="none" stroke="#44ACE2" stroke-linecap="round" stroke-linejoin="round" d="M77.9,150v5"/>
<path fill="none" stroke="#44ACE2" stroke-linecap="round" stroke-linejoin="round" d="M86.6,150v5"/>
<path fill="none" stroke="#44ACE2" stroke-linecap="round" stroke-linejoin="round" d="M95.3,150v5"/>
<path fill="none" stroke="#44ACE2" stroke-width="2" stroke-linecap="round" stroke-linejoin="round" d="M104,147.5v10"/>
<path fill="none" stroke="#44ACE2" stroke-linecap="round" stroke-linejoin="round" d="M112.7,150v5"/>
<path fill="none" stroke="#44ACE2" stroke-linecap="round" stroke-linejoin="round" d="M121.4,150v5"/>
<path fill="none" stroke="#44ACE2" stroke-linecap="round" stroke-linejoin="round" d="M130.1,150v5"/>
<path fill="none" stroke="#44ACE2" stroke-linecap="round" stroke-linejoin="round" d="M138.8,150v5"/>
<path fill="none" stroke="#44ACE2" stroke-linecap="round" stroke-linejoin="round" d="M156.2,150v5"/>
<path fill="none" stroke="#44ACE2" stroke-linecap="round" stroke-linejoin="round" d="M164.9,150v5"/>
<path fill="none" stroke="#44ACE2" stroke-linecap="round" stroke-linejoin="round" d="M173.6,150v5"/>
<path fill="none" stroke="#44ACE2" stroke-linecap="round" stroke-linejoin="round" d="M182.3,150v5"/>
<path fill="none" stroke="#44ACE2" stroke-width="2" stroke-linecap="round" stroke-linejoin="round" d="M191,147.5v10"/>
<path fill="none" stroke="#44ACE2" stroke-linecap="round" stroke-linejoin="round" d="M199.7,150v5"/>
<path fill="none" stroke="#44ACE2" stroke-linecap="round" stroke-linejoin="round" d="M208.4,150v5"/>
<path fill="none" stroke="#44ACE2" stroke-linecap="round" stroke-linejoin="round" d="M217.1,150v5"/>
<path fill="none" stroke="#44ACE2" stroke-linecap="round" stroke-linejoin="round" d="M225.8,150v5"/>
<path fill="none" stroke="#44ACE2" stroke-width="2" stroke-linecap="round" stroke-linejoin="round" d="M234.5,147.5v10"/>
<path fill="none" stroke="#44ACE2" stroke-linecap="round" stroke-linejoin="round" d="M243.2,150v5"/>
<path fill="none" stroke="#44ACE2" stroke-linecap="round" stroke-linejoin="round" d="M251.9,150v5"/>
<path fill="none" stroke="#44ACE2" stroke-linecap="round" stroke-linejoin="round" d="M260.6,150v5"/>
<path fill="none" stroke="#44ACE2" stroke-linecap="round" stroke-linejoin="round" d="M269.3,150v5"/>
<path fill="none" stroke="#44ACE2" stroke-width="2" stroke-linecap="round" stroke-linejoin="round" d="M278,147.5v10"/>
<path fill="none" stroke="#74BD83" stroke-width="2" stroke-linecap="round" stroke-linejoin="round" d="M142.5,283h10"/>
<path fill="none" stroke="#74BD83" stroke-linecap="round" stroke-linejoin="round" d="M145,274.3h5"/>
<path fill="none" stroke="#74BD83" stroke-linecap="round" stroke-linejoin="round" d="M145,265.6h5"/>
<path fill="none" stroke="#74BD83" stroke-linecap="round" stroke-linejoin="round" d="M145,256.9h5"/>
<path fill="none" stroke="#74BD83" stroke-linecap="round" stroke-linejoin="round" d="M145,248.2h5"/>
<path fill="none" stroke="#74BD83" stroke-width="2" stroke-linecap="round" stroke-linejoin="round" d="M142.5,239.5h10"/>
<path fill="none" stroke="#74BD83" stroke-linecap="round" stroke-linejoin="round" d="M145,230.8h5"/>
<path fill="none" stroke="#74BD83" stroke-linecap="round" stroke-linejoin="round" d="M145,222.1h5"/>
<path fill="none" stroke="#74BD83" stroke-linecap="round" stroke-linejoin="round" d="M145,213.4h5"/>
<path fill="none" stroke="#74BD83" stroke-linecap="round" stroke-linejoin="round" d="M145,204.7h5"/>
<path fill="none" stroke="#74BD83" stroke-width="2" stroke-linecap="round" stroke-linejoin="round" d="M142.5,196h10"/>
<path fill="none" stroke="#74BD83" stroke-linecap="round" stroke-linejoin="round" d="M145,187.3h5"/>
<path fill="none" stroke="#74BD83" stroke-linecap="round" stroke-linejoin="round" d="M145,178.6h5"/>
<path fill="none" stroke="#74BD83" stroke-linecap="round" stroke-linejoin="round" d="M145,169.9h5"/>
<path fill="none" stroke="#74BD83" stroke-linecap="round" stroke-linejoin="round" d="M145,161.2h5"/>
<path fill="none" stroke="#74BD83" stroke-linecap="round" stroke-linejoin="round" d="M145,143.8h5"/>
<path fill="none" stroke="#74BD83" stroke-linecap="round" stroke-linejoin="round" d="M145,135.1h5"/>
<path fill="none" stroke="#74BD83" stroke-linecap="round" stroke-linejoin="round" d="M145,126.4h5"/>
<path fill="none" stroke="#74BD83" stroke-linecap="round" stroke-linejoin="round" d="M145,117.7h5"/>
<path fill="none" stroke="#74BD83" stroke-width="2" stroke-linecap="round" stroke-linejoin="round" d="M142.5,109h10"/>
<path fill="none" stroke="#74BD83" stroke-linecap="round" stroke-linejoin="round" d="M145,100.3h5"/>
<path fill="none" stroke="#74BD83" stroke-linecap="round" stroke-linejoin="round" d="M145,91.6h5"/>
<path fill="none" stroke="#74BD83" stroke-linecap="round" stroke-linejoin="round" d="M145,82.9h5"/>
<path fill="none" stroke="#74BD83" stroke-linecap="round" stroke-linejoin="round" d="M145,74.2h5"/>
<path fill="none" stroke="#74BD83" stroke-width="2" stroke-linecap="round" stroke-linejoin="round" d="M142.5,65.5h10"/>
<path fill="none" stroke="#74BD83" stroke-linecap="round" stroke-linejoin="round" d="M145,56.8h5"/>
<path fill="none" stroke="#74BD83" stroke-linecap="round" stroke-linejoin="round" d="M145,48.1h5"/>
<path fill="none" stroke="#74BD83" stroke-linecap="round" stroke-linejoin="round" d="M145,39.4h5"/>
<path fill="none" stroke="#74BD83" stroke-linecap="round" stroke-linejoin="round" d="M145,30.7h5"/>
<path fill="none" stroke="#74BD83" stroke-width="2" stroke-linecap="round" stroke-linejoin="round" d="M142.5,22h10"/>
<path fill="none" stroke="#44ACE2" stroke-width="2" stroke-linecap="round" stroke-linejoin="round" d="M12,152.5h271"/>
<path fill="none" stroke="#74BD83" stroke-width="2" stroke-linecap="round" stroke-linejoin="round" d="M147.5,288V17"/>
<path fill="#44ACE2" stroke="#44ACE2" stroke-width="2" stroke-linecap="round" stroke-linejoin="round" d="M283,152.5h1.2v2.5
	l3.8-2.5l-3.8-2.5v2.5H283z"/>
<path fill="#74BD83" stroke="#74BD83" stroke-width="2" stroke-linecap="round" stroke-linejoin="round" d="M147.5,17v-1.2h2.5
	l-2.5-3.8l-2.5,3.8h2.5V17z"/>
<path fill="none" stroke="#FF0000" stroke-width="3" stroke-linecap="round" stroke-linejoin="round" d="M147.5,147.5v10"/>
<path fill="none" stroke="#FF0000" stroke-width="3" stroke-linecap="round" stroke-linejoin="round" d="M142.5,152.5h10"/>
<text transform="matrix(1 0 0 1 152.833 146.9)" fill="#FFFFFF" font-family="Arial" font-weight="bold" font-size="12px">O</text>
<text transform="matrix(1 0 0 1 152.833 146.9)" fill="none" stroke="#FFFFFF" stroke-width="5" font-family="Arial" font-weight="bold" font-size="12px">O</text>
<text transform="matrix(1 0 0 1 152.833 146.9)" fill="#FF0000" font-family="Arial" font-size="12px">O</text>
<path fill="none" stroke="#000000" stroke-width="3" stroke-linecap="round" stroke-linejoin="round" d="M234.5,104v10"/>
<path fill="none" stroke="#000000" stroke-width="3" stroke-linecap="round" stroke-linejoin="round" d="M229.5,109h10"/>
<text transform="matrix(1 0 0 1 240.498 103.4)" fill="#FFFFFF" font-family="Arial" font-weight="bold" font-size="12px">E</text>
<text transform="matrix(1 0 0 1 240.498 103.4)" fill="none" stroke="#FFFFFF" stroke-width="5" font-family="Arial" font-weight="bold" font-size="12px">E</text>
<text transform="matrix(1 0 0 1 240.498 103.4)" font-family="Arial" font-size="12px">E</text>
<path fill="none" stroke="#000000" stroke-width="3" stroke-linecap="round" stroke-linejoin="round" d="M60.5,60.5v10"/>
<path fill="none" stroke="#000000" stroke-width="3" stroke-linecap="round" stroke-linejoin="round" d="M55.5,65.5h10"/>
<text transform="matrix(1 0 0 1 46.835 59.9)" fill="#FFFFFF" font-family="Arial" font-weight="bold" font-size="12px">F</text>
<text transform="matrix(1 0 0 1 46.835 59.9)" fill="none" stroke="#FFFFFF" stroke-width="5" font-family="Arial" font-weight="bold" font-size="12px">F</text>
<text transform="matrix(1 0 0 1 46.835 59.9)" font-family="Arial" font-size="12px">F</text>
<path fill="none" stroke="#000000" stroke-width="3" stroke-linecap="round" stroke-linejoin="round" d="M104,191v10"/>
<path fill="none" stroke="#000000" stroke-width="3" stroke-linecap="round" stroke-linejoin="round" d="M99,196h10"/>
<text transform="matrix(1 0 0 1 89.333 210.4)" fill="#FFFFFF" font-family="Arial" font-weight="bold" font-size="12px">G</text>
<text transform="matrix(1 0 0 1 89.333 210.4)" fill="none" stroke="#FFFFFF" stroke-width="5" font-family="Arial" font-weight="bold" font-size="12px">G</text>
<text transform="matrix(1 0 0 1 89.333 210.4)" font-family="Arial" font-size="12px">G</text>
<path fill="none" stroke="#000000" stroke-width="3" stroke-linecap="round" stroke-linejoin="round" d="M147.5,234.5v10"/>
<path fill="none" stroke="#000000" stroke-width="3" stroke-linecap="round" stroke-linejoin="round" d="M142.5,239.5h10"/>
<text transform="matrix(1 0 0 1 158.167 243.9)" fill="#FFFFFF" font-family="Arial" font-weight="bold" font-size="12px">H</text>
<text transform="matrix(1 0 0 1 158.167 243.9)" fill="none" stroke="#FFFFFF" stroke-width="5" font-family="Arial" font-weight="bold" font-size="12px">H</text>
<text transform="matrix(1 0 0 1 158.167 243.9)" font-family="Arial" font-size="12px">H</text>
<text transform="matrix(1 0 0 1 11.665 175.9)" fill="#FFFFFF" font-family="Arial" font-weight="bold" font-size="12px">-3</text>
<text transform="matrix(1 0 0 1 11.665 175.9)" fill="none" stroke="#FFFFFF" stroke-width="5" font-family="Arial" font-weight="bold" font-size="12px">-3</text>
<text transform="matrix(1 0 0 1 11.665 175.9)" font-family="Arial" font-size="12px">-3</text>
<text transform="matrix(1 0 0 1 55.165 175.9)" fill="#FFFFFF" font-family="Arial" font-weight="bold" font-size="12px">-2</text>
<text transform="matrix(1 0 0 1 55.165 175.9)" fill="none" stroke="#FFFFFF" stroke-width="5" font-family="Arial" font-weight="bold" font-size="12px">-2</text>
<text transform="matrix(1 0 0 1 55.165 175.9)" font-family="Arial" font-size="12px">-2</text>
<text transform="matrix(1 0 0 1 187.6631 175.9)" fill="#FFFFFF" font-family="Arial" font-weight="bold" font-size="12px">1</text>
<text transform="matrix(1 0 0 1 187.6631 175.9)" fill="none" stroke="#FFFFFF" stroke-width="5" font-family="Arial" font-weight="bold" font-size="12px">1</text>
<text transform="matrix(1 0 0 1 187.6631 175.9)" font-family="Arial" font-size="12px">1</text>
<text transform="matrix(1 0 0 1 231.1631 175.9)" fill="#FFFFFF" font-family="Arial" font-weight="bold" font-size="12px">2</text>
<text transform="matrix(1 0 0 1 231.1631 175.9)" fill="none" stroke="#FFFFFF" stroke-width="5" font-family="Arial" font-weight="bold" font-size="12px">2</text>
<text transform="matrix(1 0 0 1 231.1631 175.9)" font-family="Arial" font-size="12px">2</text>
<text transform="matrix(1 0 0 1 274.6631 175.9)" fill="#FFFFFF" font-family="Arial" font-weight="bold" font-size="12px">3</text>
<text transform="matrix(1 0 0 1 274.6631 175.9)" fill="none" stroke="#FFFFFF" stroke-width="5" font-family="Arial" font-weight="bold" font-size="12px">3</text>
<text transform="matrix(1 0 0 1 274.6631 175.9)" font-family="Arial" font-size="12px">3</text>
<path fill="none" stroke="#74BD83" d="M142.5,283h10"/>
<text transform="matrix(1 0 0 1 125.165 287.4)" fill="#FFFFFF" font-family="Arial" font-weight="bold" font-size="12px">-3</text>
<text transform="matrix(1 0 0 1 125.165 287.4)" fill="none" stroke="#FFFFFF" stroke-width="5" font-family="Arial" font-weight="bold" font-size="12px">-3</text>
<text transform="matrix(1 0 0 1 125.165 287.4)" font-family="Arial" font-size="12px">-3</text>
<text transform="matrix(1 0 0 1 125.165 243.9)" fill="#FFFFFF" font-family="Arial" font-weight="bold" font-size="12px">-2</text>
<text transform="matrix(1 0 0 1 125.165 243.9)" fill="none" stroke="#FFFFFF" stroke-width="5" font-family="Arial" font-weight="bold" font-size="12px">-2</text>
<text transform="matrix(1 0 0 1 125.165 243.9)" font-family="Arial" font-size="12px">-2</text>
<path fill="none" stroke="#74BD83" d="M142.5,196h10"/>
<path fill="none" stroke="#74BD83" d="M142.5,109h10"/>
<text transform="matrix(1 0 0 1 127.1631 113.4)" fill="#FFFFFF" font-family="Arial" font-weight="bold" font-size="12px">1</text>
<text transform="matrix(1 0 0 1 127.1631 113.4)" fill="none" stroke="#FFFFFF" stroke-width="5" font-family="Arial" font-weight="bold" font-size="12px">1</text>
<text transform="matrix(1 0 0 1 127.1631 113.4)" font-family="Arial" font-size="12px">1</text>
<path fill="none" stroke="#74BD83" d="M142.5,65.5h10"/>
<text transform="matrix(1 0 0 1 127.1631 69.9)" fill="#FFFFFF" font-family="Arial" font-weight="bold" font-size="12px">2</text>
<text transform="matrix(1 0 0 1 127.1631 69.9)" fill="none" stroke="#FFFFFF" stroke-width="5" font-family="Arial" font-weight="bold" font-size="12px">2</text>
<text transform="matrix(1 0 0 1 127.1631 69.9)" font-family="Arial" font-size="12px">2</text>
<path fill="none" stroke="#74BD83" d="M142.5,22h10"/>
<text transform="matrix(1 0 0 1 127.1631 26.4)" fill="#FFFFFF" font-family="Arial" font-weight="bold" font-size="12px">3</text>
<text transform="matrix(1 0 0 1 127.1631 26.4)" fill="none" stroke="#FFFFFF" stroke-width="5" font-family="Arial" font-weight="bold" font-size="12px">3</text>
<text transform="matrix(1 0 0 1 127.1631 26.4)" font-family="Arial" font-size="12px">3</text>
<g>
	<g>
		
			<line fill="none" stroke="#000000" stroke-width="3" stroke-linecap="round" stroke-linejoin="round" x1="147.5" y1="109" x2="150.5" y2="109"/>
		
			<line fill="none" stroke="#000000" stroke-width="3" stroke-linecap="round" stroke-linejoin="round" stroke-dasharray="6.5676,10.9459" x1="161.4" y1="109" x2="226" y2="109"/>
		
			<line fill="none" stroke="#000000" stroke-width="3" stroke-linecap="round" stroke-linejoin="round" x1="231.5" y1="109" x2="234.5" y2="109"/>
	</g>
</g>
<g>
	<g>
		
			<line fill="none" stroke="#000000" stroke-width="3" stroke-linecap="round" stroke-linejoin="round" x1="234.5" y1="109" x2="234.5" y2="112"/>
		
			<line fill="none" stroke="#000000" stroke-width="3" stroke-linecap="round" stroke-linejoin="round" stroke-dasharray="5.3571,8.9286" x1="234.5" y1="120.9" x2="234.5" y2="145"/>
		
			<line fill="none" stroke="#000000" stroke-width="3" stroke-linecap="round" stroke-linejoin="round" x1="234.5" y1="149.5" x2="234.5" y2="152.5"/>
	</g>
</g>
<g>
	<g>
		
			<line fill="none" stroke="#000000" stroke-width="3" stroke-linecap="round" stroke-linejoin="round" x1="104" y1="152.5" x2="104" y2="155.5"/>
		
			<line fill="none" stroke="#000000" stroke-width="3" stroke-linecap="round" stroke-linejoin="round" stroke-dasharray="5.3323,8.8872" x1="104" y1="164.4" x2="104" y2="188.4"/>
		
			<line fill="none" stroke="#000000" stroke-width="3" stroke-linecap="round" stroke-linejoin="round" x1="104" y1="192.8" x2="104" y2="195.8"/>
	</g>
</g>
<g>
	<g>
		
			<line fill="none" stroke="#000000" stroke-width="3" stroke-linecap="round" stroke-linejoin="round" x1="104" y1="195.8" x2="107" y2="195.8"/>
		
			<line fill="none" stroke="#000000" stroke-width="3" stroke-linecap="round" stroke-linejoin="round" stroke-dasharray="5.3542,8.9236" x1="115.9" y1="195.9" x2="140" y2="196"/>
		
			<line fill="none" stroke="#000000" stroke-width="3" stroke-linecap="round" stroke-linejoin="round" x1="144.5" y1="196" x2="147.5" y2="196"/>
	</g>
</g>
<g>
	<g>
		
			<line fill="none" stroke="#000000" stroke-width="3" stroke-linecap="round" stroke-linejoin="round" x1="147.6" y1="65.5" x2="144.6" y2="65.5"/>
		
			<line fill="none" stroke="#000000" stroke-width="3" stroke-linecap="round" stroke-linejoin="round" stroke-dasharray="6.5753,10.9589" x1="133.6" y1="65.5" x2="69" y2="65.5"/>
		
			<line fill="none" stroke="#000000" stroke-width="3" stroke-linecap="round" stroke-linejoin="round" x1="63.5" y1="65.5" x2="60.5" y2="65.5"/>
	</g>
</g>
<g>
	<g>
		
			<line fill="none" stroke="#000000" stroke-width="3" stroke-linecap="round" stroke-linejoin="round" x1="60.5" y1="65.5" x2="60.5" y2="68.5"/>
		
			<line fill="none" stroke="#000000" stroke-width="3" stroke-linecap="round" stroke-linejoin="round" stroke-dasharray="6.5676,10.946" x1="60.5" y1="79.4" x2="60.6" y2="144"/>
		
			<line fill="none" stroke="#000000" stroke-width="3" stroke-linecap="round" stroke-linejoin="round" x1="60.6" y1="149.5" x2="60.6" y2="152.5"/>
	</g>
</g>
</svg>
