<?xml version="1.0" encoding="utf-8"?>
<!-- Generator: Adobe Illustrator 28.0.0, SVG Export Plug-In . SVG Version: 6.00 Build 0)  -->
<svg version="1.1" id="Calque_1" xmlns="http://www.w3.org/2000/svg" xmlns:xlink="http://www.w3.org/1999/xlink" x="0px" y="0px"
	 viewBox="0 0 224.4 153.3" style="enable-background:new 0 0 224.4 153.3;" xml:space="preserve">
<style type="text/css">
	.st0{fill:none;stroke:#3AAA35;stroke-width:2;stroke-linecap:round;stroke-miterlimit:10;}
	.st1{fill:none;stroke:#E30613;stroke-width:2;stroke-linecap:round;stroke-miterlimit:10;}
	.st2{fill:none;stroke:#662483;stroke-width:2;stroke-linecap:round;stroke-miterlimit:10;}
	.st3{fill:#3AAA35;}
	.st4{font-family:'Cambria'; font-style: italic;}
	.st5{font-size:20px;}
	.st6{fill:#E30613;}
	.st7{fill:#662483;}
</style>
<line class="st0" x1="139.6" y1="21.3" x2="1" y2="78.5"/>
<line class="st1" x1="153.1" y1="56.5" x2="14.5" y2="113.6"/>
<line class="st2" x1="185.1" y1="91.8" x2="46.5" y2="148.9"/>
<text transform="matrix(1 0 0 1 141.6488 16.6653)" class="st3 st4 st5">(d</text>
<text transform="matrix(0.583 0 0 0.583 160.3793 23.3254)" class="st3 st4 st5">1</text>
<text transform="matrix(1 0 0 1 166.8354 16.6653)" class="st3 st4 st5">)</text>
<text transform="matrix(1 0 0 1 155.3237 54.743)" class="st6 st4 st5">(d</text>
<text transform="matrix(0.583 0 0 0.583 174.0542 61.4031)" class="st6 st4 st5">2</text>
<text transform="matrix(1 0 0 1 180.5103 54.743)" class="st6 st4 st5">)</text>
<text transform="matrix(1 0 0 1 191.6026 97.3386)" class="st7 st4 st5">(d</text>
<text transform="matrix(0.583 0 0 0.583 210.3331 103.9987)" class="st7 st4 st5">3</text>
<text transform="matrix(1 0 0 1 216.7891 97.3386)" class="st7 st4 st5">)</text>
</svg>
