<?xml version="1.0" encoding="utf-8"?>
<!-- Generator: Adobe Illustrator 28.0.0, SVG Export Plug-In . SVG Version: 6.00 Build 0)  -->
<svg version="1.1" id="Calque_1" xmlns="http://www.w3.org/2000/svg" xmlns:xlink="http://www.w3.org/1999/xlink" x="0px" y="0px"
	 viewBox="0 0 215.6 168.4" style="enable-background:new 0 0 215.6 168.4;" xml:space="preserve">
<style type="text/css">
	.st0{fill:#3AAA35;}
	.st1{font-family:'Cambria'; font-style: italic;}
	.st2{font-size:20px;}
	.st3{fill:#E30613;}
	.st4{fill:#662483;}
	.st5{fill:none;stroke:#662483;stroke-width:2;stroke-linecap:round;stroke-miterlimit:10;}
	.st6{fill:none;stroke:#E30613;stroke-width:2;stroke-linecap:round;stroke-miterlimit:10;}
	.st7{fill:none;stroke:#3AAA35;stroke-width:2;stroke-linecap:round;stroke-miterlimit:10;}
</style>
<text transform="matrix(1 0 0 1 182.8031 51.835)" class="st0 st1 st2">(d</text>
<text transform="matrix(0.583 0 0 0.583 201.5335 58.4951)" class="st0 st1 st2">1</text>
<text transform="matrix(1 0 0 1 207.9896 51.835)" class="st0 st1 st2">)</text>
<text transform="matrix(1 0 0 1 92.2128 16.6651)" class="st3 st1 st2">(d</text>
<text transform="matrix(0.583 0 0 0.583 110.9433 23.3253)" class="st3 st1 st2">2</text>
<text transform="matrix(1 0 0 1 117.3993 16.6651)" class="st3 st1 st2">)</text>
<rect x="69.5" y="50.1" transform="matrix(0.7493 0.6622 -0.6622 0.7493 56.7151 -36.2159)" width="13.3" height="13.3"/>
<rect x="137.5" y="110.6" transform="matrix(0.7493 0.6622 -0.6622 0.7493 113.8246 -66.1003)" width="13.3" height="13.3"/>
<text transform="matrix(1 0 0 1 13.8793 25.9911)" class="st4 st1 st2">(d</text>
<text transform="matrix(0.583 0 0 0.583 32.6098 32.6513)" class="st4 st1 st2">3</text>
<text transform="matrix(1 0 0 1 39.0659 25.9911)" class="st4 st1 st2">)</text>
<line class="st5" x1="50.7" y1="25.1" x2="157.4" y2="120.8"/>
<line class="st6" x1="96.7" y1="23.9" x2="1" y2="130.6"/>
<line class="st7" x1="186" y1="60.7" x2="90.4" y2="167.4"/>
</svg>
