<?xml version="1.0" encoding="UTF-8"?>
<svg id="Calque_1" data-name="Calque 1" xmlns="http://www.w3.org/2000/svg" viewBox="0 0 217.42 195.9">
  <polyline points="215.22 195.69 131.14 14.27 .38 164.61" style="fill: none; stroke: #00da26; stroke-miterlimit: 10;"/>
  <line x1="60.73" y1="94.91" x2="176.65" y2="111.5" style="fill: #fff; stroke: red; stroke-miterlimit: 10;"/>
  <line x1="2.5" y1="140.62" x2="217.34" y2="171.7" style="fill: #fff; stroke: red; stroke-miterlimit: 10;"/>
  <path d="m131.36,7.51l-.85,2.54h-1.08s2.79-8.08,2.79-8.08h1.26s2.72,8.1,2.72,8.1h-1.12s-.85-2.55-.85-2.55h-2.87Zm2.65-.82l-.78-2.33c-.18-.53-.29-1.01-.41-1.48h-.02c-.12.48-.26.97-.41,1.46l-.8,2.33h2.43Z"/>
  <path d="m56.45,84.96c.46-.09,1.18-.16,1.91-.16,1.04,0,1.71.19,2.22.6.42.31.67.79.67,1.43,0,.78-.52,1.46-1.38,1.77v.02c.77.2,1.66.84,1.66,2.04,0,.7-.28,1.22-.69,1.62-.57.51-1.48.75-2.8.74-.72,0-1.27-.05-1.62-.1l.04-7.95Zm1.01,7.19c.2.04.5.05.88.05,1.08,0,2.08-.39,2.08-1.56,0-1.1-.94-1.56-2.08-1.57h-.86s-.02,3.08-.02,3.08Zm.02-3.87h.95c1.1.01,1.75-.56,1.76-1.34,0-.95-.71-1.32-1.77-1.33-.48,0-.76.03-.92.07v2.6Z"/>
  <path d="m188.03,108.62c-.38.19-1.15.38-2.14.37-2.28-.01-3.99-1.46-3.97-4.11.01-2.53,1.74-4.24,4.24-4.22,1.01,0,1.64.22,1.92.37l-.26.85c-.39-.19-.96-.34-1.63-.34-1.89,0-3.16,1.19-3.17,3.32,0,1.98,1.12,3.26,3.09,3.27.64,0,1.28-.12,1.7-.33l.21.83Z"/>
  <path d="m16.32,136.35c-.05-1.13-.12-2.48-.1-3.49h-.04c-.28.95-.62,1.95-1.04,3.07l-1.45,3.91h-.79s-1.29-3.86-1.29-3.86c-.38-1.14-.7-2.19-.92-3.15h-.02c-.03,1.01-.1,2.36-.17,3.57l-.23,3.47h-1s.6-8.09.6-8.09h1.33s1.36,3.92,1.36,3.92c.33,1,.6,1.89.8,2.73h.04c.21-.81.5-1.7.87-2.72l1.46-3.9h1.33s.46,8.09.46,8.09h-1.02s-.19-3.56-.19-3.56Z"/>
  <path d="m207.33,168.63l.04-8.08h1.14s2.57,4.11,2.57,4.11c.59.95,1.06,1.8,1.44,2.63h.02c-.09-1.09-.11-2.08-.1-3.33l.02-3.38h.98s-.04,8.09-.04,8.09h-1.06s-2.55-4.12-2.55-4.12c-.56-.9-1.09-1.83-1.5-2.71h-.04c.06,1.03.07,2,.07,3.35l-.02,3.45h-.98Z"/>
</svg>