<svg xmlns="http://www.w3.org/2000/svg" viewBox="0 0 24 24" height="24px" width="24px" fill="#E3E3E3">
	<path d="M19.4,5.5h-7.5c-0.2,0-0.4,0.1-0.6,0.2L7.5,9.6l0,0c-0.2,0.2-0.2,0.4-0.2,0.6v7.5c0,0.5,0.4,0.8,0.9,0.8h7.5
		c0.2,0,0.5-0.1,0.6-0.3l3.8-3.8c0.2-0.2,0.2-0.4,0.2-0.6V6.4C20.3,5.9,19.9,5.5,19.4,5.5z M12.2,7.2h5.1l-2.1,2.1h-5.1L12.2,7.2z
		 M14.8,16.9H8.9V11h5.8V16.9z M16.5,15.7v-5.1l2.1-2.1v5.1L16.5,15.7z"/>
	<polygon points="6.5,12 4.7,10.2 2.9,12 4.2,12 4.2,15.9 2.9,15.9 4.7,17.7 6.5,15.9 5.2,15.9 5.2,12 	"/>
</svg>
