<svg xmlns="http://www.w3.org/2000/svg" viewBox="0 0 24 24" height="24px" width="24px" fill="#E3E3E3">
<path d="M18.7,15.2l1.1,0.8l-0.4-2.6l-2.5,0.4c0.1-0.1,0.1-0.2,0.1-0.4V5.9c0-0.5-0.4-0.9-0.8-0.9H8.5c-0.2,0-0.4,0.1-0.6,0.2
	L4.1,9.1l0,0C4,9.3,3.9,9.5,3.9,9.7v7.5c0,0.5,0.4,0.8,0.9,0.8h7.5c0.2,0,0.5-0.1,0.6-0.3l3.8-3.8c0.1-0.1,0.1-0.1,0.1-0.2l1,0.8
	l-1.3,1.8l-1.1-0.8l0.4,2.6l2.5-0.4L17.4,17L18.7,15.2z M8.9,6.8H14l-2.1,2.1H6.8L8.9,6.8z M11.4,16.4H5.6v-5.8h5.8V16.4z
	 M13.1,15.2v-5.1L15.2,8v5.1L13.1,15.2z"/>
</svg>
