<svg xmlns="http://www.w3.org/2000/svg" viewBox="0 0 24 24" height="24px" width="24px" fill="#E3E3E3">
	<path d="M17.7,3.9h-7.5C10,3.9,9.7,4,9.6,4.1L5.8,7.9l0,0C5.6,8.1,5.5,8.3,5.5,8.5v7.5c0,0.5,0.4,0.8,0.9,0.8h7.5
		c0.3,0,0.5-0.1,0.6-0.3l3.8-3.7c0.2-0.2,0.2-0.4,0.2-0.6V4.7C18.6,4.3,18.2,3.9,17.7,3.9z M10.5,5.6h5.1l-2.1,2.1H8.4L10.5,5.6z
		 M13.1,15.2H7.2V9.4h5.8V15.2z M14.8,14V8.9l2.1-2.1v5.1L14.8,14z"/>
	<polygon points="12.1,18.9 8.2,18.9 8.2,17.5 6.4,19.4 8.2,21.2 8.2,19.9 12.1,19.9 12.1,21.2 13.9,19.4 12.1,17.5 	"/>
</svg>
