
<svg xmlns="http://www.w3.org/2000/svg" viewBox="0 0 24 24" width="24px" height="24px" fill="#e3e3e3" >
<path d="M4.2,9l1.3-1.3l1.7,1.7C7.6,7.3,8.1,5.6,9,4.2c0.9-1.3,1.9-2,3-2c1.3,0,2.5,0.9,3.4,2.8
	c0.9,1.9,1.4,4.2,1.4,6.9s-0.5,5.1-1.4,6.9c-0.9,1.9-2.1,2.8-3.4,2.8c-1,0-1.9-0.5-2.7-1.6c-0.8-1.1-1.4-2.5-1.8-4.2h1.9
	c0.3,1.3,0.7,2.2,1.2,2.9c0.5,0.7,0.9,1,1.3,1c0.5,0,1.2-0.7,1.9-2.1c0.7-1.4,1.1-3.3,1.1-5.8s-0.4-4.4-1.1-5.8S12.5,4.1,12,4.1
	c-0.4,0-0.9,0.4-1.5,1.3c-0.6,0.9-1,2.1-1.3,3.7l1.5-1.4L12,9l-3.9,3.9L4.2,9z"/>
</svg>
