<svg xmlns="http://www.w3.org/2000/svg" viewBox="0 0 24 24" height="24px" width="24px" fill="#e3e3e3">
<path d="M20.23,7.98c-0.37,0-0.72,0.09-1.04,0.27l-5.07-3.68c0.03-0.14,0.04-0.27,0.04-0.4C14.17,2.97,13.2,2,12,2
	S9.83,2.97,9.83,4.17c0,0.13,0.01,0.26,0.04,0.4L4.81,8.25C4.49,8.07,4.13,7.98,3.77,7.98c-1.2,0-2.17,0.97-2.17,2.17
	c0,1.1,0.83,2.02,1.9,2.15l1.93,5.95c-0.43,0.41-0.69,0.98-0.69,1.58c0,1.2,0.97,2.17,2.17,2.17c0.84,0,1.6-0.49,1.95-1.25h6.27
	c0.36,0.75,1.11,1.25,1.95,1.25c1.2,0,2.17-0.97,2.17-2.17c0-0.6-0.25-1.17-0.69-1.58l1.93-5.95c1.07-0.13,1.9-1.05,1.9-2.15
	C22.4,8.96,21.43,7.98,20.23,7.98z M6.91,20.53c-0.38,0-0.7-0.31-0.7-0.7s0.31-0.7,0.7-0.7s0.7,0.31,0.7,0.7S7.29,20.53,6.91,20.53z
	 M3.77,9.46c0.38,0,0.7,0.31,0.7,0.7c0,0.38-0.31,0.7-0.7,0.7s-0.7-0.31-0.7-0.7C3.07,9.77,3.38,9.46,3.77,9.46z M5.89,9.75
	l5.07-3.68c0.64,0.36,1.44,0.36,2.08,0l5.07,3.68c-0.03,0.14-0.04,0.27-0.04,0.4c0,0.6,0.25,1.17,0.69,1.58l-1.93,5.95
	c-0.73,0.09-1.36,0.56-1.68,1.23H8.86c-0.32-0.67-0.95-1.13-1.68-1.23l-1.93-5.95c0.43-0.41,0.69-0.98,0.69-1.58
	C5.94,10.02,5.92,9.89,5.89,9.75z M12,4.86c-0.38,0-0.7-0.31-0.7-0.7s0.31-0.7,0.7-0.7s0.7,0.31,0.7,0.7S12.38,4.86,12,4.86z
	 M17.09,19.14c0.38,0,0.7,0.31,0.7,0.7s-0.31,0.7-0.7,0.7s-0.7-0.31-0.7-0.7S16.71,19.14,17.09,19.14z M19.54,10.15
	c0-0.38,0.31-0.7,0.7-0.7s0.7,0.31,0.7,0.7c0,0.38-0.31,0.7-0.7,0.7S19.54,10.53,19.54,10.15z"/>
</svg>
