<?xml version="1.0" encoding="utf-8"?>
<!-- Generator: Adobe Illustrator 28.0.0, SVG Export Plug-In . SVG Version: 6.00 Build 0)  -->
<svg version="1.1" id="Calque_1" xmlns="http://www.w3.org/2000/svg" xmlns:xlink="http://www.w3.org/1999/xlink" x="0px" y="0px"
	 viewBox="0 0 115 65" style="enable-background:new 0 0 115 65;" xml:space="preserve">
<style type="text/css">
	.st0{fill:none;stroke:#000000;stroke-miterlimit:10;}
	.st1{fill:none;stroke:#000000;stroke-linecap:round;stroke-miterlimit:10;}
	.st2{fill:#0871B8;}
	.st3{fill:none;stroke:#010202;stroke-linecap:round;stroke-miterlimit:10;}
	.st4{fill:#009245;}
	.st5{fill:#E52528;}
	.st6{fill:none;stroke:#0871B8;stroke-linecap:round;stroke-miterlimit:10;}
	.st7{fill:#8E2F89;}
</style>
<g>
	<g>
		<path d="M44.9,39.9c-0.4-0.1-0.7-0.2-1-0.4s-0.6-0.4-0.9-0.6l0.7-0.9c0.3,0.3,0.7,0.5,1.1,0.6s0.8,0.2,1.3,0.2
			c0.6,0,1.1-0.1,1.4-0.3s0.5-0.6,0.5-1v0c0-0.3-0.1-0.5-0.2-0.7s-0.4-0.3-0.6-0.4s-0.6-0.2-0.9-0.2c0,0,0,0,0,0s0,0,0,0l-0.1,0
			c-0.6-0.1-1-0.2-1.4-0.3s-0.7-0.3-0.9-0.7s-0.4-0.8-0.4-1.4v0c0-0.5,0.1-1,0.4-1.4s0.6-0.7,1-0.9s1-0.3,1.6-0.3
			c0.3,0,0.6,0,0.9,0.1s0.6,0.2,0.9,0.3s0.6,0.3,0.8,0.5l-0.7,0.9c-0.3-0.2-0.6-0.4-1-0.5s-0.6-0.2-1-0.2c-0.6,0-1,0.1-1.4,0.3
			s-0.5,0.6-0.5,1v0c0,0.3,0.1,0.5,0.2,0.7s0.4,0.3,0.6,0.4s0.6,0.2,1,0.2c0,0,0,0,0,0s0,0,0,0c0,0,0,0,0.1,0s0,0,0.1,0
			c0.5,0.1,0.9,0.2,1.3,0.4s0.6,0.4,0.9,0.7s0.3,0.8,0.3,1.3v0c0,0.5-0.1,1-0.4,1.3s-0.6,0.7-1.1,0.8s-1,0.3-1.7,0.3
			C45.7,40,45.3,39.9,44.9,39.9z"/>
		<path d="M50.8,31.4H52v1.2h-1.2V31.4z M50.8,33.8H52v6.1h-1.2V33.8z"/>
		<path d="M53.8,33.8H55v6.1h-1.2V33.8z M57.5,36.2c0-0.4-0.1-0.8-0.3-1s-0.5-0.4-0.9-0.4c-0.4,0-0.7,0.1-0.9,0.3S55,35.7,55,36
			l-0.1-1.2c0.2-0.4,0.4-0.7,0.7-0.8s0.6-0.3,1-0.3c0.7,0,1.2,0.2,1.5,0.6s0.5,1,0.5,1.8v3.7h-1.2V36.2z"/>
		<path d="M61.7,37.5c0,0.4,0.1,0.8,0.3,1s0.5,0.3,0.9,0.3c0.4,0,0.7-0.1,0.9-0.3s0.3-0.5,0.3-0.9l0.1,1.3c-0.1,0.3-0.3,0.6-0.6,0.8
			s-0.6,0.3-1,0.3c-0.7,0-1.2-0.2-1.6-0.6s-0.5-1-0.5-1.8v-3.7h1.2V37.5z M64.2,33.8h1.2v6.1h-1.2V33.8z"/>
		<path d="M68.4,39.9c-0.3-0.1-0.6-0.2-0.9-0.3s-0.5-0.3-0.8-0.5l0.7-0.9c0.3,0.2,0.7,0.4,1,0.6s0.6,0.2,1,0.2
			c0.5,0,0.8-0.1,1.1-0.2s0.4-0.4,0.4-0.7c0-0.2-0.1-0.3-0.2-0.4s-0.3-0.2-0.5-0.2s-0.5-0.1-0.8-0.1c0,0-0.1,0-0.1,0s-0.1,0-0.1,0
			c0,0,0,0,0,0s0,0,0,0c-0.4,0-0.7-0.1-1-0.2s-0.5-0.2-0.7-0.5s-0.3-0.6-0.3-1s0.1-0.8,0.3-1.1s0.4-0.5,0.8-0.6s0.8-0.2,1.3-0.2
			c0.3,0,0.6,0,0.9,0.1s0.6,0.1,0.8,0.3s0.5,0.3,0.8,0.4l-0.7,0.9c-0.3-0.2-0.6-0.3-0.9-0.4s-0.6-0.1-0.9-0.1
			c-0.4,0-0.7,0.1-0.9,0.2s-0.3,0.3-0.3,0.6c0,0.2,0.1,0.3,0.2,0.4s0.3,0.1,0.4,0.2s0.4,0.1,0.8,0.1c0,0,0,0,0.1,0s0.1,0,0.1,0
			c0,0,0,0,0,0s0,0,0,0c0.4,0,0.8,0.1,1.1,0.2s0.5,0.3,0.8,0.5s0.3,0.6,0.3,1.1c0,0.4-0.1,0.8-0.3,1.1s-0.5,0.5-0.8,0.6
			S69.9,40,69.4,40C69,40,68.7,39.9,68.4,39.9z"/>
	</g>
</g>
<rect x="29.2" y="28.1" class="st0" width="56.7" height="16.9"/>
<g>
	<g>
		<line class="st1" x1="7.4" y1="36.5" x2="25.6" y2="36.5"/>
		<g>
			<polygon points="29.2,36.5 24.2,38.6 25.4,36.5 24.2,34.5 			"/>
		</g>
	</g>
</g>
<g>
	<g>
		<line class="st1" x1="85.8" y1="36.5" x2="100.6" y2="36.5"/>
		<g>
			<polygon points="104.1,36.5 99.2,38.6 100.3,36.5 99.2,34.5 			"/>
		</g>
	</g>
</g>
<g>
	<g>
		<path class="st2" d="M15.4,42.3h1.2v8.5h-1.2V42.3z M16.1,49.7h2.3c0.6,0,1-0.1,1.3-0.3s0.4-0.6,0.4-1v0c0-0.3,0-0.5-0.1-0.7
			s-0.3-0.4-0.5-0.5S19.1,47,18.8,47h-2.6v-1.1h2.6c0.4,0,0.8-0.1,1-0.3s0.3-0.5,0.3-0.9c0-0.4-0.1-0.7-0.4-1s-0.6-0.3-1.1-0.3h-2.4
			v-1.1h2.7c0.6,0,1,0.1,1.4,0.3s0.6,0.5,0.8,0.8s0.3,0.8,0.3,1.2c0,0.3-0.1,0.6-0.2,0.8s-0.3,0.5-0.5,0.7s-0.5,0.3-0.9,0.4
			c0.3,0.1,0.6,0.2,0.9,0.4s0.4,0.4,0.6,0.7s0.2,0.6,0.2,0.9v0c0,0.5-0.1,0.9-0.3,1.2s-0.5,0.6-0.9,0.8s-0.8,0.3-1.3,0.3h-2.8V49.7z
			"/>
	</g>
</g>
<g>
	<g>
		<path d="M28,19.5c-0.4-0.1-0.7-0.2-1-0.4s-0.6-0.4-0.9-0.6l0.7-0.9c0.3,0.3,0.7,0.5,1.1,0.6s0.8,0.2,1.3,0.2
			c0.6,0,1.1-0.1,1.4-0.3s0.5-0.6,0.5-1v0c0-0.3-0.1-0.5-0.2-0.7s-0.4-0.3-0.6-0.4c-0.2-0.1-0.6-0.2-0.9-0.2c0,0,0,0,0,0s0,0,0,0
			l-0.1,0c-0.6-0.1-1-0.2-1.4-0.3s-0.7-0.3-0.9-0.7s-0.4-0.8-0.4-1.4v0c0-0.5,0.1-1,0.4-1.4s0.6-0.7,1-0.9s1-0.3,1.6-0.3
			c0.3,0,0.6,0,0.9,0.1s0.6,0.2,0.9,0.3s0.6,0.3,0.8,0.5l-0.7,0.9c-0.3-0.2-0.6-0.4-1-0.5s-0.6-0.2-1-0.2c-0.6,0-1,0.1-1.4,0.3
			s-0.5,0.6-0.5,1v0c0,0.3,0.1,0.5,0.2,0.7s0.4,0.3,0.6,0.4s0.6,0.2,1,0.2c0,0,0,0,0,0s0,0,0,0c0,0,0,0,0.1,0s0,0,0.1,0
			c0.5,0.1,0.9,0.2,1.3,0.4s0.6,0.4,0.9,0.7c0.2,0.3,0.3,0.8,0.3,1.3v0c0,0.5-0.1,1-0.4,1.3s-0.6,0.7-1.1,0.8s-1,0.3-1.7,0.3
			C28.7,19.6,28.3,19.6,28,19.5z"/>
		<path d="M33.8,11H35v1.2h-1.2V11z M33.8,13.4H35v6.1h-1.2V13.4z"/>
		<path d="M36.8,13.4H38v6.1h-1.2V13.4z M40.5,15.8c0-0.4-0.1-0.8-0.3-1s-0.5-0.4-0.9-0.4c-0.4,0-0.7,0.1-0.9,0.3S38,15.3,38,15.7
			l-0.1-1.2c0.2-0.4,0.4-0.7,0.7-0.8s0.6-0.3,1-0.3c0.7,0,1.2,0.2,1.5,0.6s0.5,1,0.5,1.8v3.7h-1.2V15.8z"/>
		<path d="M44.2,18.8c-0.3-0.9-0.5-2-0.5-3.1s0.2-2.2,0.5-3.1s0.9-1.8,1.6-2.5l0.8,0.7c-0.6,0.7-1,1.4-1.3,2.2s-0.4,1.7-0.4,2.7
			s0.1,1.9,0.4,2.7s0.7,1.5,1.3,2.2l-0.8,0.7C45,20.6,44.5,19.8,44.2,18.8z"/>
		<path class="st2" d="M47.7,11h1.2v8.5h-1.2V11z M48.4,18.4h2.3c0.6,0,1-0.1,1.3-0.3s0.4-0.6,0.4-1v0c0-0.3,0-0.5-0.1-0.7
			s-0.3-0.4-0.5-0.5s-0.5-0.2-0.8-0.2h-2.6v-1.1H51c0.4,0,0.8-0.1,1-0.3s0.3-0.5,0.3-0.9c0-0.4-0.1-0.7-0.4-1s-0.6-0.3-1.1-0.3h-2.4
			V11h2.7c0.6,0,1,0.1,1.4,0.3s0.6,0.5,0.8,0.8s0.3,0.8,0.3,1.2c0,0.3-0.1,0.6-0.2,0.8s-0.3,0.5-0.5,0.7s-0.5,0.3-0.9,0.4
			c0.3,0.1,0.6,0.2,0.9,0.4s0.4,0.4,0.6,0.7c0.1,0.3,0.2,0.6,0.2,0.9v0c0,0.5-0.1,0.9-0.3,1.2s-0.5,0.6-0.9,0.8s-0.8,0.3-1.3,0.3
			h-2.8V18.4z"/>
		<path d="M54.5,20.6c0.6-0.7,1-1.4,1.3-2.2s0.4-1.7,0.4-2.7s-0.1-1.9-0.4-2.7s-0.7-1.5-1.3-2.2l0.8-0.7c0.7,0.8,1.2,1.6,1.6,2.5
			s0.5,2,0.5,3.1s-0.2,2.2-0.5,3.1s-0.9,1.8-1.6,2.5L54.5,20.6z"/>
		<path d="M59.3,14.1h3.9v1.1h-3.9V14.1z M59.3,16h3.9v1.1h-3.9V16z"/>
	</g>
</g>
<g>
	<line class="st3" x1="67.6" y1="15.6" x2="85.8" y2="15.6"/>
	<g>
		<g>
			<path class="st4" d="M72.5,4.5h1l3.1,8.5h-1.3L73,6.1L70.6,13h-1.3L72.5,4.5z M70.8,10h4.5v1.1h-4.5V10z"/>
			<path class="st4" d="M79.2,12.7c-0.4-0.3-0.8-0.6-1-1.1s-0.4-1-0.4-1.7V7.6c0-0.6,0.1-1.2,0.4-1.7s0.6-0.9,1-1.1s1-0.4,1.6-0.4
				c0.5,0,0.9,0.1,1.3,0.3s0.8,0.5,1,0.9s0.5,0.8,0.6,1.3h-1.2c-0.1-0.3-0.2-0.5-0.4-0.7s-0.4-0.4-0.6-0.5S81,5.6,80.7,5.6
				c-0.3,0-0.7,0.1-0.9,0.3s-0.5,0.4-0.6,0.7S79,7.2,79,7.6v2.3c0,0.4,0.1,0.8,0.2,1.1s0.3,0.5,0.6,0.7s0.6,0.2,0.9,0.2
				c0.3,0,0.5-0.1,0.7-0.2s0.4-0.3,0.6-0.5s0.3-0.5,0.4-0.7h1.2c-0.1,0.5-0.3,0.9-0.6,1.3s-0.6,0.7-1,0.9s-0.9,0.3-1.3,0.3
				C80.1,13.1,79.6,13,79.2,12.7z"/>
		</g>
	</g>
	<g>
		<g>
			<path class="st5" d="M72.3,17.9h1l3.1,8.5h-1.3l-2.4-6.9l-2.4,6.9h-1.3L72.3,17.9z M70.6,23.4h4.5v1.1h-4.5V23.4z"/>
			<path class="st5" d="M77.8,17.9H79v8.5h-1.2V17.9z M78.5,25.3h2.3c0.6,0,1-0.1,1.3-0.3s0.4-0.6,0.4-1v0c0-0.3-0.1-0.5-0.2-0.7
				s-0.3-0.4-0.5-0.5s-0.5-0.2-0.8-0.2h-2.6v-1.1h2.6c0.4,0,0.8-0.1,1-0.3s0.3-0.5,0.3-0.9c0-0.4-0.1-0.7-0.4-1S81.4,19,80.9,19
				h-2.4v-1.1h2.7c0.6,0,1,0.1,1.4,0.3s0.6,0.5,0.8,0.8s0.3,0.8,0.3,1.2c0,0.3-0.1,0.6-0.2,0.8s-0.3,0.5-0.5,0.7s-0.5,0.3-0.9,0.4
				c0.3,0.1,0.6,0.2,0.9,0.4s0.4,0.4,0.6,0.7s0.2,0.6,0.2,0.9v0c0,0.5-0.1,0.9-0.3,1.2s-0.5,0.6-0.9,0.8s-0.8,0.3-1.3,0.3h-2.8V25.3
				z"/>
		</g>
	</g>
</g>
<polyline class="st6" points="46.5,9 50.1,6.5 53.8,9 "/>
<polyline class="st6" points="14.6,41.6 18.3,39.2 21.9,41.6 "/>
<g>
	<line class="st3" x1="89.4" y1="51.4" x2="107.6" y2="51.4"/>
	<g>
		<g>
			<path class="st4" d="M94.3,40.3h1l3.1,8.5h-1.3l-2.4-6.9l-2.4,6.9h-1.3L94.3,40.3z M92.6,45.8h4.5v1.1h-4.5V45.8z"/>
			<path class="st4" d="M101,48.5c-0.4-0.3-0.8-0.6-1-1.1s-0.4-1-0.4-1.7v-2.3c0-0.6,0.1-1.2,0.4-1.7s0.6-0.9,1-1.1
				c0.4-0.3,1-0.4,1.6-0.4c0.5,0,0.9,0.1,1.3,0.3c0.4,0.2,0.8,0.5,1,0.9s0.5,0.8,0.6,1.3h-1.2c-0.1-0.3-0.2-0.5-0.4-0.7
				s-0.4-0.4-0.6-0.5s-0.5-0.2-0.7-0.2c-0.3,0-0.7,0.1-0.9,0.3s-0.5,0.4-0.6,0.7s-0.2,0.7-0.2,1.1v2.3c0,0.4,0.1,0.8,0.2,1.1
				s0.3,0.5,0.6,0.7s0.6,0.2,0.9,0.2c0.3,0,0.5-0.1,0.7-0.2s0.4-0.3,0.6-0.5s0.3-0.5,0.4-0.7h1.2c-0.1,0.5-0.3,0.9-0.6,1.3
				s-0.6,0.7-1,0.9s-0.9,0.3-1.3,0.3C101.9,48.9,101.4,48.8,101,48.5z"/>
		</g>
	</g>
	<g>
		<g>
			<path class="st5" d="M94.1,53.7h1l3.1,8.5H97l-2.4-6.9l-2.4,6.9H91L94.1,53.7z M92.4,59.2h4.5v1.1h-4.5V59.2z"/>
			<path class="st5" d="M99.6,53.7h1.2v8.5h-1.2V53.7z M100.3,61.1h2.3c0.6,0,1-0.1,1.3-0.3s0.4-0.6,0.4-1v0c0-0.3,0-0.5-0.1-0.7
				s-0.3-0.4-0.5-0.5s-0.5-0.2-0.8-0.2h-2.6v-1.1h2.6c0.4,0,0.8-0.1,1-0.3s0.3-0.5,0.3-0.9c0-0.4-0.1-0.7-0.4-1s-0.6-0.3-1.1-0.3
				h-2.4v-1.1h2.7c0.6,0,1,0.1,1.4,0.3s0.6,0.5,0.8,0.8s0.3,0.8,0.3,1.2c0,0.3-0.1,0.6-0.2,0.8s-0.3,0.5-0.5,0.7s-0.5,0.3-0.9,0.4
				c0.3,0.1,0.6,0.2,0.9,0.4s0.4,0.4,0.6,0.7s0.2,0.6,0.2,0.9v0c0,0.5-0.1,0.9-0.3,1.2s-0.5,0.6-0.9,0.8s-0.8,0.3-1.3,0.3h-2.8V61.1
				z"/>
		</g>
	</g>
</g>
</svg>
