<?xml version="1.0" encoding="utf-8"?>
<!-- Generator: Adobe Illustrator 28.0.0, SVG Export Plug-In . SVG Version: 6.00 Build 0)  -->
<svg version="1.1" id="Calque_1" xmlns="http://www.w3.org/2000/svg" xmlns:xlink="http://www.w3.org/1999/xlink" x="0px" y="0px"
	 viewBox="0 0 115 65" style="enable-background:new 0 0 115 65;" xml:space="preserve">
<style type="text/css">
	.st0{fill:none;stroke:#000000;stroke-miterlimit:10;}
	.st1{fill:none;stroke:#000000;stroke-linecap:round;stroke-miterlimit:10;}
	.st2{fill:#0871B8;}
	.st3{fill:none;stroke:#010202;stroke-linecap:round;stroke-miterlimit:10;}
	.st4{fill:#009245;}
	.st5{fill:#E52528;}
	.st6{fill:none;stroke:#0871B8;stroke-linecap:round;stroke-miterlimit:10;}
	.st7{fill:#8E2F89;}
</style>
<g>
	<g>
		<path d="M33,31.4h6v1.1h-6V31.4z M35.4,32.1h1.2v7.8h-1.2V32.1z"/>
		<path d="M40.1,39.5c-0.4-0.3-0.6-0.8-0.6-1.4c0-0.6,0.2-1.1,0.5-1.4s0.9-0.5,1.5-0.5h1.7l0.1,1h-1.8c-0.3,0-0.5,0.1-0.7,0.2
			s-0.2,0.4-0.2,0.6c0,0.3,0.1,0.5,0.3,0.7s0.5,0.2,0.9,0.2c0.5,0,0.8,0,1-0.1s0.3-0.2,0.3-0.5l0.1,0.9c-0.1,0.2-0.2,0.3-0.4,0.4
			s-0.3,0.2-0.5,0.2S42,40,41.8,40C41,40,40.4,39.8,40.1,39.5z M43.2,36c0-0.4-0.1-0.7-0.3-0.9s-0.5-0.3-0.9-0.3
			c-0.2,0-0.5,0-0.7,0.1s-0.4,0.2-0.6,0.3l-0.9-0.6c0.2-0.3,0.5-0.5,0.9-0.6s0.8-0.2,1.3-0.2c0.5,0,0.9,0.1,1.3,0.3s0.6,0.4,0.8,0.8
			s0.3,0.7,0.3,1.2v3.9h-1.1V36z"/>
		<path d="M46.2,33.8h1.2v6.1h-1.2V33.8z M49.9,36.2c0-0.4-0.1-0.8-0.3-1s-0.5-0.4-0.9-0.4c-0.4,0-0.7,0.1-0.9,0.3s-0.3,0.5-0.3,0.9
			l-0.1-1.2c0.2-0.4,0.4-0.7,0.7-0.8s0.6-0.3,1-0.3c0.7,0,1.2,0.2,1.5,0.6s0.5,1,0.5,1.8v3.7h-1.2V36.2z"/>
		<path d="M53.7,39.7c-0.3-0.2-0.6-0.5-0.7-0.8s-0.2-0.8-0.2-1.3v-1.3c0-0.5,0.1-1,0.2-1.3s0.4-0.7,0.7-0.8s0.7-0.3,1.1-0.3
			c0.4,0,0.7,0.1,1,0.3s0.5,0.5,0.7,0.8L56.4,36c0-0.3,0-0.5-0.1-0.7S56,35,55.8,34.9s-0.4-0.1-0.6-0.1c-0.4,0-0.7,0.1-0.9,0.4
			s-0.3,0.6-0.3,1v1.3c0,0.4,0.1,0.8,0.3,1s0.5,0.4,0.9,0.4c0.3,0,0.5,0,0.6-0.1s0.3-0.2,0.4-0.4s0.1-0.4,0.1-0.7l0.1,1.3
			c-0.1,0.3-0.3,0.6-0.6,0.8s-0.6,0.3-1,0.3C54.4,40,54,39.9,53.7,39.7z M53.7,42.1c-0.4-0.2-0.6-0.4-0.8-0.7l0.8-0.7
			c0.2,0.2,0.3,0.4,0.6,0.5s0.4,0.2,0.7,0.2c0.5,0,0.8-0.1,1.1-0.4s0.4-0.6,0.4-1.1v-6.1h1.2v5.9c0,0.6-0.1,1-0.3,1.4
			s-0.5,0.7-0.9,0.9s-0.9,0.3-1.4,0.3C54.5,42.4,54.1,42.3,53.7,42.1z"/>
		<path d="M60.4,39.7c-0.4-0.2-0.7-0.5-0.9-0.9s-0.3-0.9-0.3-1.5v-0.7c0-0.6,0.1-1.1,0.3-1.5s0.5-0.8,0.9-1s0.8-0.3,1.4-0.3
			c0.5,0,0.9,0.1,1.3,0.4s0.6,0.6,0.8,1.1s0.3,1.1,0.3,1.7v0.4h-4.1v-1h3c0-0.5-0.2-0.9-0.4-1.2s-0.5-0.4-0.9-0.4
			c-0.5,0-0.8,0.1-1.1,0.4s-0.4,0.7-0.4,1.3v0.8c0,0.5,0.1,0.9,0.4,1.2s0.6,0.4,1.1,0.4c0.2,0,0.5,0,0.7-0.1s0.5-0.2,0.6-0.4
			l0.8,0.8c-0.3,0.3-0.6,0.5-1,0.7S62.2,40,61.9,40C61.3,40,60.8,39.9,60.4,39.7z"/>
		<path d="M65.8,33.8H67v6.1h-1.2V33.8z M69.5,36.2c0-0.4-0.1-0.8-0.3-1s-0.5-0.4-0.9-0.4c-0.4,0-0.7,0.1-0.9,0.3S67,35.7,67,36
			l-0.1-1.2c0.2-0.4,0.4-0.7,0.7-0.8s0.6-0.3,1-0.3c0.7,0,1.2,0.2,1.5,0.6s0.5,1,0.5,1.8v3.7h-1.2V36.2z"/>
		<path d="M72,33.8h2.7v1.1H72V33.8z M73,39.5c-0.2-0.3-0.3-0.7-0.3-1.2V32h1.2v6.3c0,0.1,0,0.3,0.1,0.3s0.1,0.1,0.3,0.1h0.6v1.1
			h-0.7C73.6,39.9,73.2,39.8,73,39.5z"/>
		<path d="M77.5,39.7c-0.4-0.2-0.7-0.5-0.9-0.9s-0.3-0.9-0.3-1.5v-0.7c0-0.6,0.1-1.1,0.3-1.5s0.5-0.8,0.9-1s0.8-0.3,1.4-0.3
			c0.5,0,0.9,0.1,1.3,0.4s0.6,0.6,0.8,1.1s0.3,1.1,0.3,1.7v0.4h-4.1v-1h3c0-0.5-0.2-0.9-0.4-1.2s-0.5-0.4-0.9-0.4
			c-0.5,0-0.8,0.1-1.1,0.4s-0.4,0.7-0.4,1.3v0.8c0,0.5,0.1,0.9,0.4,1.2s0.6,0.4,1.1,0.4c0.2,0,0.5,0,0.7-0.1s0.5-0.2,0.6-0.4
			l0.8,0.8c-0.3,0.3-0.6,0.5-1,0.7S79.3,40,78.9,40C78.3,40,77.9,39.9,77.5,39.7z"/>
	</g>
</g>
<rect x="29.2" y="28.1" class="st0" width="56.7" height="16.9"/>
<g>
	<g>
		<line class="st1" x1="7.4" y1="36.5" x2="25.6" y2="36.5"/>
		<g>
			<polygon points="29.2,36.5 24.2,38.6 25.4,36.5 24.2,34.5 			"/>
		</g>
	</g>
</g>
<g>
	<g>
		<line class="st1" x1="85.8" y1="36.5" x2="100.6" y2="36.5"/>
		<g>
			<polygon points="104.1,36.5 99.2,38.6 100.3,36.5 99.2,34.5 			"/>
		</g>
	</g>
</g>
<g>
	<g>
		<path class="st2" d="M15.4,42.3h1.2v8.5h-1.2V42.3z M16.1,49.7h2.3c0.6,0,1-0.1,1.3-0.3s0.4-0.6,0.4-1v0c0-0.3,0-0.5-0.1-0.7
			s-0.3-0.4-0.5-0.5S19.1,47,18.8,47h-2.6v-1.1h2.6c0.4,0,0.8-0.1,1-0.3s0.3-0.5,0.3-0.9c0-0.4-0.1-0.7-0.4-1s-0.6-0.3-1.1-0.3h-2.4
			v-1.1h2.7c0.6,0,1,0.1,1.4,0.3s0.6,0.5,0.8,0.8s0.3,0.8,0.3,1.2c0,0.3-0.1,0.6-0.2,0.8s-0.3,0.5-0.5,0.7s-0.5,0.3-0.9,0.4
			c0.3,0.1,0.6,0.2,0.9,0.4s0.4,0.4,0.6,0.7s0.2,0.6,0.2,0.9v0c0,0.5-0.1,0.9-0.3,1.2s-0.5,0.6-0.9,0.8s-0.8,0.3-1.3,0.3h-2.8V49.7z
			"/>
	</g>
</g>
<g>
	<g>
		<path d="M23.5,11h6v1.1h-6V11z M25.9,11.7h1.2v7.8h-1.2V11.7z"/>
		<path d="M30.6,19.2c-0.4-0.3-0.6-0.8-0.6-1.4c0-0.6,0.2-1.1,0.5-1.4s0.9-0.5,1.5-0.5h1.7l0.1,1h-1.8c-0.3,0-0.5,0.1-0.7,0.2
			s-0.2,0.4-0.2,0.6c0,0.3,0.1,0.5,0.3,0.7s0.5,0.2,0.9,0.2c0.5,0,0.8,0,1-0.1s0.3-0.2,0.3-0.5l0.1,0.9c-0.1,0.2-0.2,0.3-0.4,0.4
			s-0.3,0.2-0.5,0.2s-0.4,0.1-0.7,0.1C31.5,19.6,31,19.5,30.6,19.2z M33.8,15.7c0-0.4-0.1-0.7-0.3-0.9s-0.5-0.3-0.9-0.3
			c-0.2,0-0.5,0-0.7,0.1s-0.4,0.2-0.6,0.3l-0.9-0.6c0.2-0.3,0.5-0.5,0.9-0.6s0.8-0.2,1.3-0.2c0.5,0,0.9,0.1,1.3,0.3s0.6,0.4,0.8,0.8
			s0.3,0.7,0.3,1.2v3.9h-1.1V15.7z"/>
		<path d="M36.7,13.4h1.2v6.1h-1.2V13.4z M40.4,15.8c0-0.4-0.1-0.8-0.3-1s-0.5-0.4-0.9-0.4c-0.4,0-0.7,0.1-0.9,0.3s-0.3,0.5-0.3,0.9
			l-0.1-1.2c0.2-0.4,0.4-0.7,0.7-0.8s0.6-0.3,1-0.3c0.7,0,1.2,0.2,1.5,0.6s0.5,1,0.5,1.8v3.7h-1.2V15.8z"/>
		<path d="M44.1,18.8c-0.3-0.9-0.5-2-0.5-3.1s0.2-2.2,0.5-3.1s0.9-1.8,1.6-2.5l0.8,0.7c-0.6,0.7-1,1.4-1.3,2.2s-0.4,1.7-0.4,2.7
			s0.1,1.9,0.4,2.7s0.7,1.5,1.3,2.2l-0.8,0.7C44.9,20.6,44.4,19.8,44.1,18.8z"/>
		<path class="st2" d="M47.6,11h1.2v8.5h-1.2V11z M48.3,18.4h2.3c0.6,0,1-0.1,1.3-0.3s0.4-0.6,0.4-1v0c0-0.3,0-0.5-0.1-0.7
			S52,16,51.7,15.9s-0.5-0.2-0.8-0.2h-2.6v-1.1h2.6c0.4,0,0.8-0.1,1-0.3s0.3-0.5,0.3-0.9c0-0.4-0.1-0.7-0.4-1s-0.6-0.3-1.1-0.3h-2.4
			V11H51c0.6,0,1,0.1,1.4,0.3s0.6,0.5,0.8,0.8s0.3,0.8,0.3,1.2c0,0.3-0.1,0.6-0.2,0.8s-0.3,0.5-0.5,0.7s-0.5,0.3-0.9,0.4
			c0.3,0.1,0.6,0.2,0.9,0.4s0.4,0.4,0.6,0.7c0.1,0.3,0.2,0.6,0.2,0.9v0c0,0.5-0.1,0.9-0.3,1.2s-0.5,0.6-0.9,0.8s-0.8,0.3-1.3,0.3
			h-2.8V18.4z"/>
		<path d="M54.4,20.6c0.6-0.7,1-1.4,1.3-2.2s0.4-1.7,0.4-2.7S56,13.9,55.8,13s-0.7-1.5-1.3-2.2l0.8-0.7c0.7,0.8,1.2,1.6,1.6,2.5
			s0.5,2,0.5,3.1s-0.2,2.2-0.5,3.1s-0.9,1.8-1.6,2.5L54.4,20.6z"/>
		<path d="M59.2,14.1h3.9v1.1h-3.9V14.1z M59.2,16h3.9v1.1h-3.9V16z"/>
	</g>
</g>
<g>
	<line class="st3" x1="67.6" y1="15.6" x2="85.8" y2="15.6"/>
	<g>
		<g>
			<path class="st4" d="M72.5,4.5h1l3.1,8.5h-1.3L73,6.1L70.6,13h-1.3L72.5,4.5z M70.8,10h4.5v1.1h-4.5V10z"/>
			<path class="st4" d="M79.2,12.7c-0.4-0.3-0.8-0.6-1-1.1s-0.4-1-0.4-1.7V7.6c0-0.6,0.1-1.2,0.4-1.7s0.6-0.9,1-1.1s1-0.4,1.6-0.4
				c0.5,0,0.9,0.1,1.3,0.3s0.8,0.5,1,0.9s0.5,0.8,0.6,1.3h-1.2c-0.1-0.3-0.2-0.5-0.4-0.7s-0.4-0.4-0.6-0.5S81,5.6,80.7,5.6
				c-0.3,0-0.7,0.1-0.9,0.3s-0.5,0.4-0.6,0.7S79,7.2,79,7.6v2.3c0,0.4,0.1,0.8,0.2,1.1s0.3,0.5,0.6,0.7s0.6,0.2,0.9,0.2
				c0.3,0,0.5-0.1,0.7-0.2s0.4-0.3,0.6-0.5s0.3-0.5,0.4-0.7h1.2c-0.1,0.5-0.3,0.9-0.6,1.3s-0.6,0.7-1,0.9s-0.9,0.3-1.3,0.3
				C80.1,13.1,79.6,13,79.2,12.7z"/>
		</g>
	</g>
	<g>
		<g>
			<path class="st7" d="M70.2,17.9h1.2v8.5h-1.2V17.9z M70.9,25.3h2.3c0.6,0,1-0.1,1.3-0.3s0.4-0.6,0.4-1v0c0-0.3,0-0.5-0.1-0.7
				s-0.3-0.4-0.5-0.5s-0.5-0.2-0.8-0.2h-2.6v-1.1h2.6c0.4,0,0.8-0.1,1-0.3s0.3-0.5,0.3-0.9c0-0.4-0.1-0.7-0.4-1S73.8,19,73.3,19
				h-2.4v-1.1h2.7c0.6,0,1,0.1,1.4,0.3s0.6,0.5,0.8,0.8s0.3,0.8,0.3,1.2c0,0.3-0.1,0.6-0.2,0.8s-0.3,0.5-0.5,0.7s-0.5,0.3-0.9,0.4
				c0.3,0.1,0.6,0.2,0.9,0.4s0.4,0.4,0.6,0.7s0.2,0.6,0.2,0.9v0c0,0.5-0.1,0.9-0.3,1.2s-0.5,0.6-0.9,0.8s-0.8,0.3-1.3,0.3h-2.8V25.3
				z"/>
			<path class="st7" d="M79.1,26.1c-0.4-0.3-0.8-0.6-1-1.1s-0.4-1-0.4-1.7V21c0-0.6,0.1-1.2,0.4-1.7s0.6-0.9,1-1.1s1-0.4,1.6-0.4
				c0.5,0,0.9,0.1,1.3,0.3s0.8,0.5,1,0.9s0.5,0.8,0.6,1.3h-1.2c-0.1-0.3-0.2-0.5-0.4-0.7s-0.4-0.4-0.6-0.5S81,19,80.7,19
				c-0.3,0-0.7,0.1-0.9,0.3s-0.5,0.4-0.6,0.7S79,20.6,79,21v2.3c0,0.4,0.1,0.8,0.2,1.1s0.3,0.5,0.6,0.7s0.6,0.2,0.9,0.2
				c0.3,0,0.5-0.1,0.7-0.2s0.4-0.3,0.6-0.5s0.3-0.5,0.4-0.7h1.2c-0.1,0.5-0.3,0.9-0.6,1.3s-0.6,0.7-1,0.9s-0.9,0.3-1.3,0.3
				C80.1,26.5,79.6,26.4,79.1,26.1z"/>
		</g>
	</g>
</g>
<polyline class="st6" points="46.5,9 50.1,6.5 53.8,9 "/>
<polyline class="st6" points="14.6,41.6 18.3,39.2 21.9,41.6 "/>
<g>
	<line class="st3" x1="89.4" y1="51.4" x2="107.6" y2="51.4"/>
	<g>
		<g>
			<path class="st4" d="M94.3,40.3h1l3.1,8.5h-1.3l-2.4-6.9l-2.4,6.9h-1.3L94.3,40.3z M92.6,45.8h4.5v1.1h-4.5V45.8z"/>
			<path class="st4" d="M101,48.5c-0.4-0.3-0.8-0.6-1-1.1s-0.4-1-0.4-1.7v-2.3c0-0.6,0.1-1.2,0.4-1.7s0.6-0.9,1-1.1
				c0.4-0.3,1-0.4,1.6-0.4c0.5,0,0.9,0.1,1.3,0.3c0.4,0.2,0.8,0.5,1,0.9s0.5,0.8,0.6,1.3h-1.2c-0.1-0.3-0.2-0.5-0.4-0.7
				s-0.4-0.4-0.6-0.5s-0.5-0.2-0.7-0.2c-0.3,0-0.7,0.1-0.9,0.3s-0.5,0.4-0.6,0.7s-0.2,0.7-0.2,1.1v2.3c0,0.4,0.1,0.8,0.2,1.1
				s0.3,0.5,0.6,0.7s0.6,0.2,0.9,0.2c0.3,0,0.5-0.1,0.7-0.2s0.4-0.3,0.6-0.5s0.3-0.5,0.4-0.7h1.2c-0.1,0.5-0.3,0.9-0.6,1.3
				s-0.6,0.7-1,0.9s-0.9,0.3-1.3,0.3C101.9,48.9,101.4,48.8,101,48.5z"/>
		</g>
	</g>
	<g>
		<g>
			<path class="st7" d="M92,53.7h1.2v8.5H92V53.7z M92.7,61.1H95c0.6,0,1-0.1,1.3-0.3s0.4-0.6,0.4-1v0c0-0.3,0-0.5-0.1-0.7
				s-0.3-0.4-0.5-0.5s-0.5-0.2-0.8-0.2h-2.6v-1.1h2.6c0.4,0,0.8-0.1,1-0.3s0.3-0.5,0.3-0.9c0-0.4-0.1-0.7-0.4-1s-0.6-0.3-1.1-0.3
				h-2.4v-1.1h2.7c0.6,0,1,0.1,1.4,0.3s0.6,0.5,0.8,0.8s0.3,0.8,0.3,1.2c0,0.3-0.1,0.6-0.2,0.8s-0.3,0.5-0.5,0.7s-0.5,0.3-0.9,0.4
				c0.3,0.1,0.6,0.2,0.9,0.4s0.4,0.4,0.6,0.7s0.2,0.6,0.2,0.9v0c0,0.5-0.1,0.9-0.3,1.2s-0.5,0.6-0.9,0.8s-0.8,0.3-1.3,0.3h-2.8V61.1
				z"/>
			<path class="st7" d="M101,61.9c-0.4-0.3-0.8-0.6-1-1.1s-0.4-1-0.4-1.7v-2.3c0-0.6,0.1-1.2,0.4-1.7s0.6-0.9,1-1.1s1-0.4,1.6-0.4
				c0.5,0,0.9,0.1,1.3,0.3s0.8,0.5,1,0.9s0.5,0.8,0.6,1.3h-1.2c-0.1-0.3-0.2-0.5-0.4-0.7s-0.4-0.4-0.6-0.5s-0.5-0.2-0.7-0.2
				c-0.3,0-0.7,0.1-0.9,0.3s-0.5,0.4-0.6,0.7s-0.2,0.7-0.2,1.1v2.3c0,0.4,0.1,0.8,0.2,1.1s0.3,0.5,0.6,0.7s0.6,0.2,0.9,0.2
				c0.3,0,0.5-0.1,0.7-0.2s0.4-0.3,0.6-0.5s0.3-0.5,0.4-0.7h1.2c-0.1,0.5-0.3,0.9-0.6,1.3s-0.6,0.7-1,0.9s-0.9,0.3-1.3,0.3
				C101.9,62.3,101.4,62.2,101,61.9z"/>
		</g>
	</g>
</g>
</svg>
