<?xml version="1.0" encoding="utf-8"?>
<!-- Generator: Adobe Illustrator 28.0.0, SVG Export Plug-In . SVG Version: 6.00 Build 0)  -->
<svg version="1.1" id="Calque_1" xmlns="http://www.w3.org/2000/svg" xmlns:xlink="http://www.w3.org/1999/xlink" x="0px" y="0px"
	 viewBox="0 0 115 69.6" style="enable-background:new 0 0 115 69.6;" xml:space="preserve">
<style type="text/css">
	.st0{fill:#7FBC47;fill-opacity:0.5;stroke:#7FBC47;stroke-miterlimit:10;}
	.st1{fill:#E62E31;fill-opacity:0.5;stroke:#E62E31;stroke-miterlimit:10;}
	.st2{fill:none;stroke:#000000;stroke-miterlimit:10;}
	.st3{fill:#E30613;}
</style>
<g>
	
		<rect x="86.9" y="49.7" transform="matrix(0.9765 0.2157 -0.2157 0.9765 13.3934 -18.0818)" class="st0" width="5.3" height="5.3"/>
	<path class="st1" d="M98.5,24.2c-3.8-0.8-6.7-3.7-7.7-7.2l9.9-2.8L98.5,24.2z"/>
	<polygon class="st2" points="14.3,38.4 91.6,55.5 100.7,14.2 	"/>
</g>
<g>
	<g>
		<path d="M91.7,58.4h1l3.1,8.5h-1.3L92.2,60l-2.4,6.9h-1.3L91.7,58.4z M90,63.9h4.5V65H90V63.9z"/>
	</g>
</g>
<g>
	<g>
		<path d="M99.7,2.8h1.2v8.5h-1.2V2.8z M100.4,10.2h2.3c0.6,0,1-0.1,1.3-0.3s0.4-0.6,0.4-1v0c0-0.3,0-0.5-0.1-0.7s-0.3-0.4-0.5-0.5
			s-0.5-0.2-0.8-0.2h-2.6V6.4h2.6c0.4,0,0.8-0.1,1-0.3s0.3-0.5,0.3-0.9c0-0.4-0.1-0.7-0.4-1s-0.6-0.3-1.1-0.3h-2.4V2.8h2.7
			c0.6,0,1,0.1,1.4,0.3s0.6,0.5,0.8,0.8s0.3,0.8,0.3,1.2c0,0.3-0.1,0.6-0.2,0.8s-0.3,0.5-0.5,0.7s-0.5,0.3-0.9,0.4
			c0.3,0.1,0.6,0.2,0.9,0.4s0.4,0.4,0.6,0.7s0.2,0.6,0.2,0.9v0c0,0.5-0.1,0.9-0.3,1.2s-0.5,0.6-0.9,0.8s-0.8,0.3-1.3,0.3h-2.8V10.2z
			"/>
	</g>
</g>
<g>
	<g>
		<path d="M5.5,42.2c-0.4-0.3-0.8-0.6-1-1.1S4,40.1,4,39.4v-2.3c0-0.6,0.1-1.2,0.4-1.7s0.6-0.9,1-1.1s1-0.4,1.6-0.4
			c0.5,0,0.9,0.1,1.3,0.3s0.8,0.5,1,0.9s0.5,0.8,0.6,1.3H8.7c-0.1-0.3-0.2-0.5-0.4-0.7S8,35.4,7.7,35.3S7.3,35.1,7,35.1
			c-0.3,0-0.7,0.1-0.9,0.3S5.6,35.7,5.5,36s-0.2,0.7-0.2,1.1v2.3c0,0.4,0.1,0.8,0.2,1.1s0.3,0.5,0.6,0.7s0.6,0.2,0.9,0.2
			c0.3,0,0.5-0.1,0.7-0.2s0.4-0.3,0.6-0.5s0.3-0.5,0.4-0.7h1.2c-0.1,0.5-0.3,0.9-0.6,1.3s-0.6,0.7-1,0.9S7.5,42.6,7,42.6
			C6.4,42.6,5.9,42.5,5.5,42.2z"/>
	</g>
</g>
<g>
	<g>
		<path d="M46.3,49.4l-3.8,6.8L41.3,56l3.7-6.7l-2.1-0.5l-0.3,1.2l-1.2-0.3l0.5-2.3l4.5,1L46.3,49.4z"/>
		<path d="M50.5,57.8c-0.3-0.3-0.6-0.6-0.7-1.1c-0.1-0.4-0.1-0.9,0-1.5l0.2-1c0.1-0.5,0.3-1,0.6-1.3c0.3-0.3,0.6-0.6,1.1-0.7
			c0.4-0.1,0.9-0.1,1.5,0c0.3,0.1,0.6,0.2,0.8,0.3s0.5,0.3,0.7,0.5c0.2,0.2,0.3,0.4,0.4,0.6l-1,0.6c-0.1-0.2-0.3-0.4-0.5-0.6
			c-0.2-0.2-0.4-0.3-0.7-0.3c-0.4-0.1-0.8-0.1-1.1,0.1c-0.3,0.2-0.5,0.5-0.6,1l-0.2,1c-0.1,0.5-0.1,0.9,0.1,1.2
			c0.2,0.3,0.5,0.5,1,0.6c0.2,0.1,0.5,0.1,0.7,0c0.2-0.1,0.5-0.2,0.7-0.3l0.7,1c-0.2,0.2-0.4,0.3-0.7,0.4s-0.5,0.1-0.8,0.2
			c-0.3,0-0.6,0-0.9-0.1C51.3,58.3,50.9,58.1,50.5,57.8z"/>
		<path d="M56.6,53.1l1.2,0.3l-1.3,5.9l-1.2-0.3L56.6,53.1z M59.7,56.2c0.1-0.4,0.1-0.8-0.1-1s-0.4-0.5-0.8-0.5
			c-0.4-0.1-0.7,0-1,0.1c-0.3,0.2-0.4,0.4-0.5,0.8l0.1-1.2c0.3-0.3,0.6-0.5,0.9-0.7c0.3-0.1,0.7-0.2,1-0.1c0.4,0.1,0.8,0.3,1,0.5
			s0.4,0.6,0.5,1s0.1,0.9-0.1,1.4L60,60.1l-1.2-0.3L59.7,56.2z M63.2,57c0.1-0.4,0.1-0.8-0.1-1c-0.2-0.3-0.4-0.5-0.8-0.5
			c-0.4-0.1-0.7,0-0.9,0.1s-0.4,0.5-0.5,0.9l0-1.2c0.3-0.4,0.6-0.6,0.9-0.7s0.7-0.2,1.1-0.1c0.4,0.1,0.8,0.3,1,0.5s0.4,0.6,0.5,1
			c0.1,0.4,0.1,0.9-0.1,1.4l-0.8,3.6l-1.2-0.3L63.2,57z"/>
	</g>
</g>
<g>
	<g>
		<path d="M91.7,58.4h1l3.1,8.5h-1.3L92.2,60l-2.4,6.9h-1.3L91.7,58.4z M90,63.9h4.5V65H90V63.9z"/>
	</g>
</g>
<g>
	<g>
		<path d="M103.4,50.2c-0.2,0.3-0.5,0.5-0.9,0.6c-0.4,0.1-0.8,0.2-1.2,0.2l0,0l0.3-1.2l0,0c0.3,0,0.6,0,0.8-0.2
			c0.2-0.2,0.4-0.4,0.4-0.7c0.1-0.4,0-0.7-0.2-0.9c-0.2-0.3-0.5-0.4-1-0.5l-0.7-0.2c-0.5-0.1-0.8-0.1-1.1,0.1
			c-0.3,0.1-0.5,0.4-0.6,0.8c0,0.2,0,0.4,0,0.6c0.1,0.2,0.2,0.4,0.4,0.6l-0.2,1.1l-4.4-1l0.9-4.2l1.1,0.2l-0.7,3.1l1.9,0.4
			c-0.1-0.2-0.1-0.4-0.2-0.5c0-0.2,0-0.4,0-0.6c0.1-0.5,0.3-0.9,0.6-1.2c0.3-0.3,0.6-0.5,1-0.6c0.4-0.1,0.9-0.1,1.4,0l0.7,0.2
			c0.5,0.1,1,0.3,1.3,0.6s0.6,0.6,0.7,1c0.1,0.4,0.1,0.8,0,1.3C103.8,49.6,103.7,49.9,103.4,50.2z"/>
		<path d="M105.4,40.8c-0.3,0.3-0.6,0.6-1.1,0.7s-0.9,0.1-1.5,0l-1-0.2c-0.5-0.1-1-0.3-1.3-0.6c-0.3-0.3-0.6-0.6-0.7-1.1
			c-0.1-0.4-0.1-0.9,0-1.5c0.1-0.3,0.2-0.6,0.3-0.8c0.1-0.3,0.3-0.5,0.5-0.7c0.2-0.2,0.4-0.3,0.6-0.4l0.6,1
			c-0.2,0.1-0.4,0.3-0.6,0.5c-0.2,0.2-0.3,0.4-0.3,0.7c-0.1,0.5,0,0.8,0.1,1.1c0.2,0.3,0.5,0.5,1,0.6l1,0.2c0.5,0.1,0.9,0.1,1.2-0.1
			c0.3-0.2,0.5-0.5,0.6-1c0.1-0.2,0.1-0.5,0-0.7c-0.1-0.2-0.2-0.5-0.3-0.7l1-0.7c0.2,0.2,0.3,0.4,0.4,0.7c0.1,0.2,0.1,0.5,0.2,0.8
			c0,0.3,0,0.6-0.1,0.9C105.9,40.1,105.7,40.5,105.4,40.8z"/>
		<path d="M100.8,34.7l0.3-1.2l5.9,1.3l-0.3,1.2L100.8,34.7z M103.9,31.7c-0.4-0.1-0.8-0.1-1,0.1s-0.5,0.4-0.5,0.8
			c-0.1,0.4,0,0.7,0.1,1s0.4,0.4,0.8,0.5l-1.2-0.1c-0.3-0.3-0.5-0.6-0.7-0.9c-0.1-0.3-0.2-0.7-0.1-1c0.1-0.4,0.3-0.7,0.5-1
			s0.6-0.4,1-0.5c0.4-0.1,0.9-0.1,1.4,0.1l3.6,0.8l-0.3,1.2L103.9,31.7z M104.7,28.2c-0.4-0.1-0.8-0.1-1,0.1
			c-0.3,0.2-0.5,0.4-0.5,0.8c-0.1,0.4,0,0.7,0.1,0.9c0.2,0.2,0.5,0.4,0.9,0.5l-1.2,0c-0.4-0.3-0.6-0.6-0.7-0.9
			c-0.1-0.4-0.2-0.7-0.1-1.1c0.1-0.4,0.3-0.8,0.5-1s0.6-0.4,1-0.5s0.9-0.1,1.4,0.1l3.6,0.8l-0.3,1.2L104.7,28.2z"/>
	</g>
</g>
<g>
	<g>
		<path class="st3" d="M88.7,27.8c0.1-0.3,0.2-0.6,0.3-0.8s0.3-0.5,0.5-0.8c0.2-0.2,0.3-0.4,0.4-0.5s0.2-0.3,0.2-0.5
			s0.1-0.4,0.1-0.5v0c0-0.3-0.1-0.6-0.3-0.8s-0.4-0.3-0.7-0.3c-0.3,0-0.6,0.1-0.7,0.3s-0.3,0.6-0.3,1v0H87v0c0-0.5,0.1-1,0.3-1.3
			s0.4-0.6,0.8-0.8s0.7-0.3,1.2-0.3c0.5,0,0.9,0.1,1.2,0.3s0.6,0.4,0.8,0.7s0.3,0.7,0.3,1.2v0c0,0.3,0,0.5-0.1,0.8s-0.2,0.4-0.3,0.6
			s-0.2,0.4-0.4,0.6c-0.2,0.2-0.4,0.5-0.5,0.7S90,27.7,89.9,28s-0.1,0.6-0.1,0.9h-1.2C88.6,28.5,88.6,28.2,88.7,27.8z M88.5,29.9
			h1.3v1.3h-1.3V29.9z"/>
	</g>
</g>
</svg>
