<?xml version="1.0" encoding="utf-8"?>
<!-- Generator: Adobe Illustrator 28.0.0, SVG Export Plug-In . SVG Version: 6.00 Build 0)  -->
<svg version="1.0" id="Calque_1" xmlns="http://www.w3.org/2000/svg" xmlns:xlink="http://www.w3.org/1999/xlink" x="0px" y="0px"
	 viewBox="0 0 105.9 95.1" enable-background="new 0 0 105.9 95.1" xml:space="preserve">
<path fill="#F6A117" fill-opacity="0.5" stroke="#F6A117" stroke-miterlimit="10" d="M79.5,94.6c0-21.1-17.1-38.2-38.2-38.2
	c-7,0-13.6,1.9-19.3,5.2l19.3,32.9H79.5z"/>
<g>
	<g>
		<line fill="none" stroke="#E5064A" stroke-linecap="round" stroke-miterlimit="10" x1="41.3" y1="94.6" x2="41.3" y2="91.8"/>
		
			<line fill="none" stroke="#E5064A" stroke-linecap="round" stroke-miterlimit="10" stroke-dasharray="5.8685,5.8685" x1="41.3" y1="85.9" x2="41.3" y2="18.4"/>
		<line fill="none" stroke="#E5064A" stroke-linecap="round" stroke-miterlimit="10" x1="41.3" y1="15.5" x2="41.3" y2="12.6"/>
	</g>
</g>
<polyline fill="none" stroke="#010202" stroke-miterlimit="10" points="105.9,94.6 41.3,94.6 0.4,24.8 "/>
<g>
	<g>
		<path fill="#E5064A" d="M36.6,6l0,0.2c-0.1,0.2-0.2,0.3-0.4,0.4s-0.4,0.1-0.7,0.1c-0.4,0-0.8-0.1-1.1-0.3S33.8,6,33.7,5.6
			s-0.3-0.8-0.3-1.3v0c0-0.6,0.1-1,0.3-1.4s0.5-0.7,0.8-0.9s0.8-0.3,1.3-0.3s0.9,0.1,1.3,0.3s0.6,0.5,0.8,0.9s0.3,0.9,0.3,1.4v0
			c0,0.3,0,0.6-0.1,1s-0.2,0.7-0.3,1c0,0.1,0,0.1-0.1,0.2s0,0.1-0.1,0.2l-1.8,3.7h-1.3L36.6,6z M36.7,5.3C36.9,5,37,4.7,37,4.2v0
			c0-0.4-0.1-0.8-0.3-1s-0.5-0.4-0.9-0.4c-0.4,0-0.7,0.1-0.9,0.4s-0.3,0.6-0.3,1v0c0,0.5,0.1,0.8,0.3,1.1s0.5,0.4,0.9,0.4
			C36.2,5.7,36.5,5.5,36.7,5.3z"/>
		<path fill="#E5064A" d="M40.4,9.7c-0.4-0.4-0.6-1-0.6-1.8V4.1c0-0.8,0.2-1.4,0.6-1.8s1-0.6,1.8-0.6c0.8,0,1.4,0.2,1.8,0.6
			s0.6,1,0.6,1.8v3.9c0,0.8-0.2,1.4-0.6,1.8s-1,0.6-1.8,0.6C41.4,10.3,40.8,10.1,40.4,9.7z M43.1,8.9c0.2-0.2,0.3-0.5,0.3-1V4.1
			c0-0.4-0.1-0.7-0.3-1s-0.5-0.3-0.9-0.3s-0.7,0.1-0.9,0.3s-0.3,0.5-0.3,1v3.9c0,0.4,0.1,0.7,0.3,1s0.5,0.3,0.9,0.3
			S42.9,9.1,43.1,8.9z"/>
		<path fill="#E5064A" d="M46.4,4.7C46.1,4.4,46,3.9,46,3.4c0-0.6,0.1-1,0.4-1.3s0.7-0.5,1.3-0.5c0.6,0,1,0.2,1.3,0.5
			s0.4,0.7,0.4,1.3c0,0.6-0.2,1-0.5,1.3s-0.7,0.5-1.3,0.5C47.1,5.1,46.7,5,46.4,4.7z M48.2,4c0.1-0.1,0.2-0.3,0.2-0.6
			c0-0.3-0.1-0.5-0.2-0.6s-0.3-0.2-0.5-0.2c-0.2,0-0.4,0.1-0.5,0.2S47,3.1,47,3.4S47,3.9,47.1,4s0.3,0.2,0.5,0.2
			C47.9,4.2,48.1,4.1,48.2,4z"/>
	</g>
</g>
</svg>
