<?xml version="1.0" encoding="utf-8"?>
<!-- Generator: Adobe Illustrator 28.0.0, SVG Export Plug-In . SVG Version: 6.00 Build 0)  -->
<svg version="1.1" id="Calque_1" xmlns="http://www.w3.org/2000/svg" xmlns:xlink="http://www.w3.org/1999/xlink" x="0px" y="0px"
	 viewBox="0 0 128.6 110.3" style="enable-background:new 0 0 128.6 110.3;" xml:space="preserve">
<style type="text/css">
	.st0{fill:#F39200;}
	.st1{fill:#009FE3;}
	.st2{fill:none;stroke:#000000;stroke-miterlimit:10;}
	.st3{fill:none;stroke:#E30613;stroke-miterlimit:10;}
	.st4{fill:#E30613;}
</style>
<path class="st0" d="M24.9,93.5c0-6.2-3.4-11.7-8.5-14.5L8.2,93.5H24.9z"/>
<path class="st1" d="M102.3,93.5c0-5.5,2.5-10.5,6.4-13.8l11.8,13.8H102.3z"/>
<polygon class="st2" points="8.2,93.5 120.5,93.5 52.8,14.2 "/>
<g>
	<g>
		<path d="M3.4,94.1h1l3.1,8.5H6.2l-2.4-6.9l-2.4,6.9H0.2L3.4,94.1z M1.7,99.7h4.5v1.1H1.7V99.7z"/>
	</g>
</g>
<g>
	<g>
		<path d="M123.5,101c-0.4-0.3-0.8-0.6-1-1.1s-0.4-1-0.4-1.7v-2.3c0-0.6,0.1-1.2,0.4-1.7s0.6-0.9,1-1.1s1-0.4,1.6-0.4
			c0.5,0,0.9,0.1,1.3,0.3s0.8,0.5,1,0.9s0.5,0.8,0.6,1.3h-1.2c-0.1-0.3-0.2-0.5-0.4-0.7s-0.4-0.4-0.6-0.5s-0.5-0.2-0.7-0.2
			c-0.3,0-0.7,0.1-0.9,0.3s-0.5,0.4-0.6,0.7s-0.2,0.7-0.2,1.1v2.3c0,0.4,0.1,0.8,0.2,1.1s0.3,0.5,0.6,0.7s0.6,0.2,0.9,0.2
			c0.3,0,0.5-0.1,0.7-0.2s0.4-0.3,0.6-0.5s0.3-0.5,0.4-0.7h1.2c-0.1,0.5-0.3,0.9-0.6,1.3s-0.6,0.7-1,0.9s-0.9,0.3-1.3,0.3
			C124.5,101.4,124,101.3,123.5,101z"/>
	</g>
</g>
<g>
	<g>
		<path d="M50,1.7h1.2v8.5H50V1.7z M50.7,9.2H53c0.6,0,1-0.1,1.3-0.3s0.4-0.6,0.4-1v0c0-0.3,0-0.5-0.1-0.7s-0.3-0.4-0.5-0.5
			s-0.5-0.2-0.8-0.2h-2.6V5.3h2.6c0.4,0,0.8-0.1,1-0.3s0.3-0.5,0.3-0.9c0-0.4-0.1-0.7-0.4-1s-0.6-0.3-1.1-0.3h-2.4V1.7h2.7
			c0.6,0,1,0.1,1.4,0.3s0.6,0.5,0.8,0.8s0.3,0.8,0.3,1.2c0,0.3-0.1,0.6-0.2,0.8s-0.3,0.5-0.5,0.7s-0.5,0.3-0.9,0.4
			c0.3,0.1,0.6,0.2,0.9,0.4s0.4,0.4,0.6,0.7s0.2,0.6,0.2,0.9v0c0,0.5-0.1,0.9-0.3,1.2s-0.5,0.6-0.9,0.8s-0.8,0.3-1.3,0.3h-2.8V9.2z"
			/>
	</g>
</g>
<g>
	<g>
		<path d="M53.3,106.8c-0.4-0.2-0.6-0.5-0.8-0.9s-0.3-0.8-0.3-1.4v0c0-0.3,0-0.6,0.1-1s0.2-0.7,0.3-1c0-0.1,0-0.1,0.1-0.2
			s0.1-0.1,0.1-0.2l1.9-3.7H56l-2.2,4.2l0-0.2c0.1-0.2,0.2-0.3,0.4-0.4s0.4-0.2,0.7-0.2c0.4,0,0.8,0.1,1.1,0.3s0.6,0.5,0.7,0.9
			s0.2,0.8,0.2,1.4v0c0,0.5-0.1,1-0.3,1.4s-0.5,0.7-0.8,0.9s-0.8,0.3-1.3,0.3S53.7,107,53.3,106.8z M55.5,105.6
			c0.2-0.2,0.3-0.6,0.3-1v0c0-0.5-0.1-0.8-0.3-1.1s-0.5-0.4-0.9-0.4c-0.4,0-0.6,0.1-0.8,0.4s-0.3,0.6-0.3,1.1v0c0,0.4,0.1,0.8,0.3,1
			s0.5,0.3,0.9,0.3C55,105.9,55.3,105.8,55.5,105.6z"/>
		<path d="M62.9,106.8c-0.4-0.2-0.7-0.5-0.9-0.9s-0.3-0.9-0.3-1.4v-1c0-0.6,0.1-1,0.3-1.4s0.5-0.7,0.9-0.9s0.9-0.3,1.4-0.3
			c0.3,0,0.6,0,0.9,0.1s0.5,0.2,0.8,0.3s0.4,0.3,0.6,0.5l-0.9,0.8c-0.2-0.2-0.4-0.3-0.6-0.5s-0.5-0.2-0.7-0.2
			c-0.5,0-0.8,0.1-1.1,0.4s-0.4,0.6-0.4,1.1v1c0,0.5,0.1,0.9,0.4,1.1s0.6,0.4,1.1,0.4c0.3,0,0.5-0.1,0.7-0.2s0.4-0.3,0.6-0.5
			l0.9,0.8c-0.2,0.2-0.3,0.4-0.6,0.5s-0.5,0.3-0.8,0.3s-0.6,0.1-0.9,0.1C63.7,107.1,63.3,107,62.9,106.8z"/>
		<path d="M67.8,100.9H69v6.1h-1.2V100.9z M71.5,103.3c0-0.4-0.1-0.8-0.3-1s-0.5-0.4-0.9-0.4c-0.4,0-0.7,0.1-0.9,0.3
			s-0.3,0.5-0.3,0.9l-0.1-1.2c0.2-0.4,0.4-0.7,0.7-0.8s0.6-0.3,1-0.3c0.4,0,0.8,0.1,1.1,0.3s0.5,0.5,0.7,0.8s0.2,0.8,0.2,1.3v3.7
			h-1.2V103.3z M75.1,103.3c0-0.4-0.1-0.8-0.3-1s-0.5-0.4-0.9-0.4c-0.4,0-0.7,0.1-0.9,0.3s-0.3,0.5-0.3,1l-0.2-1.2
			c0.2-0.4,0.4-0.7,0.8-0.9s0.7-0.3,1-0.3c0.4,0,0.8,0.1,1.1,0.3s0.5,0.5,0.7,0.8s0.2,0.8,0.2,1.3v3.7h-1.2V103.3z"/>
	</g>
</g>
<g>
	<g>
		<line class="st3" x1="11" y1="96.2" x2="117.7" y2="96.2"/>
		<g>
			<polygon class="st4" points="8.2,96.2 12.2,97.8 11.2,96.2 12.2,94.6 			"/>
		</g>
		<g>
			<polygon class="st4" points="120.5,96.2 116.5,97.8 117.5,96.2 116.5,94.6 			"/>
		</g>
	</g>
</g>
<g>
	<g>
		<path d="M26.3,85.2c-0.4-0.2-0.6-0.5-0.8-0.9s-0.3-0.8-0.3-1.4v0c0-0.3,0-0.6,0.1-1s0.2-0.7,0.3-1c0-0.1,0-0.1,0.1-0.2
			s0.1-0.1,0.1-0.2l1.9-3.7h1.3l-2.2,4.2l0-0.2c0.1-0.2,0.2-0.3,0.4-0.4s0.4-0.2,0.7-0.2c0.4,0,0.8,0.1,1.1,0.3s0.6,0.5,0.7,0.9
			s0.2,0.8,0.2,1.4v0c0,0.5-0.1,1-0.3,1.4s-0.5,0.7-0.8,0.9s-0.8,0.3-1.3,0.3S26.6,85.4,26.3,85.2z M28.4,84c0.2-0.2,0.3-0.6,0.3-1
			v0c0-0.5-0.1-0.8-0.3-1.1s-0.5-0.4-0.9-0.4c-0.4,0-0.6,0.1-0.8,0.4s-0.3,0.6-0.3,1.1v0c0,0.4,0.1,0.8,0.3,1s0.5,0.3,0.9,0.3
			C27.9,84.4,28.2,84.3,28.4,84z"/>
		<path d="M33.6,85.4h-1.2v-7.2L31.2,79v-1.2l1.2-0.8h1.2V85.4z"/>
		<path d="M35.6,79.9c-0.3-0.3-0.4-0.7-0.4-1.3c0-0.6,0.1-1,0.4-1.3s0.7-0.5,1.3-0.5c0.6,0,1,0.2,1.3,0.5s0.4,0.7,0.4,1.3
			c0,0.6-0.2,1-0.5,1.3s-0.7,0.5-1.3,0.5C36.3,80.3,35.9,80.2,35.6,79.9z M37.4,79.2c0.1-0.1,0.2-0.3,0.2-0.6c0-0.3-0.1-0.5-0.2-0.6
			s-0.3-0.2-0.5-0.2s-0.4,0.1-0.5,0.2s-0.2,0.3-0.2,0.6s0.1,0.5,0.2,0.6s0.3,0.2,0.5,0.2C37.1,79.4,37.2,79.3,37.4,79.2z"/>
	</g>
</g>
<g>
	<g>
		<path d="M88.9,83.2l2.9-6.2H93l-2.8,6.1h4.2v1.1h-5.5V83.2z M92.6,80.5h1.2v5h-1.2V80.5z"/>
		<path d="M96.8,85.3c-0.4-0.2-0.7-0.4-0.9-0.8s-0.4-0.7-0.4-1.2h1.2c0,0.2,0.1,0.4,0.2,0.6s0.3,0.3,0.5,0.3s0.4,0.1,0.7,0.1
			c0.4,0,0.7-0.1,0.9-0.3s0.3-0.5,0.3-0.9V83c0-0.4-0.1-0.8-0.3-1s-0.5-0.3-0.9-0.3h-0.6v-1.1h0.6c0.3,0,0.6-0.1,0.8-0.3
			s0.3-0.5,0.3-0.8v-0.3c0-0.3-0.1-0.6-0.3-0.8s-0.5-0.3-0.8-0.3c-0.2,0-0.4,0-0.5,0.1s-0.3,0.2-0.4,0.4s-0.2,0.4-0.2,0.6h-1.2
			c0.1-0.5,0.2-0.9,0.4-1.2s0.5-0.6,0.8-0.8s0.7-0.3,1.1-0.3c0.7,0,1.3,0.2,1.7,0.6s0.6,0.9,0.6,1.6v0.1c0,0.4-0.1,0.8-0.3,1.1
			s-0.6,0.5-1,0.7c0.5,0.1,0.8,0.3,1.1,0.7s0.4,0.8,0.4,1.4v0.1c0,0.5-0.1,0.9-0.3,1.3s-0.5,0.6-0.8,0.8s-0.8,0.3-1.3,0.3
			C97.6,85.6,97.2,85.5,96.8,85.3z"/>
		<path d="M102.3,79.9c-0.3-0.3-0.4-0.7-0.4-1.3c0-0.6,0.1-1,0.4-1.3s0.7-0.5,1.3-0.5c0.6,0,1,0.2,1.3,0.5s0.4,0.7,0.4,1.3
			c0,0.6-0.2,1-0.5,1.3s-0.7,0.5-1.3,0.5C103,80.4,102.6,80.2,102.3,79.9z M104.1,79.3c0.1-0.1,0.2-0.3,0.2-0.6
			c0-0.3-0.1-0.5-0.2-0.6s-0.3-0.2-0.5-0.2s-0.4,0.1-0.5,0.2s-0.2,0.3-0.2,0.6s0.1,0.5,0.2,0.6s0.3,0.2,0.5,0.2
			C103.8,79.5,103.9,79.4,104.1,79.3z"/>
	</g>
</g>
</svg>
