<?xml version="1.0" encoding="UTF-8"?>
<svg id="Calque_1" data-name="Calque 1" xmlns="http://www.w3.org/2000/svg" viewBox="0 0 714.52 489.52">
  <defs>
    <style>
      .cls-1 {
        fill: #dd8a6d;
      }

      .cls-1, .cls-2, .cls-3, .cls-4, .cls-5, .cls-6, .cls-7, .cls-8, .cls-9, .cls-10, .cls-11, .cls-12, .cls-13, .cls-14, .cls-15, .cls-16, .cls-17, .cls-18, .cls-19, .cls-20, .cls-21, .cls-22, .cls-23, .cls-24, .cls-25, .cls-26, .cls-27, .cls-28, .cls-29, .cls-30, .cls-31, .cls-32, .cls-33 {
        stroke-width: 0px;
      }

      .cls-2 {
        fill: #f097a9;
      }

      .cls-3 {
        fill: #49271f;
      }

      .cls-4 {
        fill: #270f07;
      }

      .cls-5 {
        fill: #fad1b0;
      }

      .cls-6 {
        fill: #163f6e;
      }

      .cls-7 {
        fill: #e6e6e6;
      }

      .cls-8 {
        fill: #737273;
      }

      .cls-9 {
        fill: #f9f1a0;
      }

      .cls-10 {
        fill: #e30613;
      }

      .cls-11 {
        fill: #6e509c;
      }

      .cls-12 {
        fill: #202c52;
      }

      .cls-13 {
        fill: #dae1ec;
      }

      .cls-14 {
        fill: #cbcbcc;
      }

      .cls-15 {
        fill: #f18a92;
      }

      .cls-16 {
        fill: #ec668a;
      }

      .cls-17 {
        fill: #e94d75;
      }

      .cls-18 {
        fill: #a27054;
      }

      .cls-19 {
        fill: #fff;
      }

      .cls-20 {
        fill: #562812;
      }

      .cls-21 {
        fill: #a5a6a5;
      }

      .cls-22 {
        fill: #282728;
      }

      .cls-23 {
        fill: #070708;
      }

      .cls-24 {
        fill: #e63a3d;
      }

      .cls-25 {
        fill: #106fb5;
      }

      .cls-26 {
        fill: #0c652e;
      }

      .cls-27 {
        fill: #a06c58;
      }

      .cls-28 {
        fill: #e2111a;
      }

      .cls-29 {
        fill: #1d1d1b;
      }

      .cls-30 {
        fill: #150c0c;
      }

      .cls-31 {
        fill: #831811;
      }

      .cls-32 {
        fill: #f7cba4;
      }

      .cls-33 {
        fill: #703e22;
      }
    </style>
  </defs>
  <g>
    <path class="cls-22" d="m387.24,372.94c-107.36,0-214.72,0-322.08,0q-5.16,0-5.16-5.33c0-3.75.16-7.5-.04-11.23-.24-4.4.03-8.46,4.19-11.17.88-.58,1.17-1.54,1.11-2.62-.06-1-.01-2-.01-3,0-111.35,0-222.71,0-334.06Q65.25,0,70.68,0c211.1,0,422.19,0,633.29,0q5.23,0,5.23,5.36c0,111.23.01,222.46-.05,333.69,0,3.05.47,5.56,2.86,7.62,2.01,1.73,2.6,3.99,2.5,6.69-.2,5.36-.21,10.74,0,16.1.11,2.9-.98,3.56-3.69,3.54-14.23-.11-28.46-.05-42.69-.05h-280.88Zm322.68-24.63c-4-3.27-3.55-6.93-3.55-10.51.01-110.22.01-220.44,0-330.66q0-4.81-4.8-4.81c-209.58,0-419.16,0-628.74,0q-4.78,0-4.78,4.83c0,110.34,0,220.69,0,331.03,0,3.51.79,7.22-3.11,10.12h644.97Zm-322.78,2.98c-106.22,0-212.43,0-318.65,0-1,0-2,.06-2.99-.01-1.83-.14-2.76.43-2.71,2.49.1,4.62.1,9.24,0,13.85-.05,2.03.82,2.66,2.68,2.52.99-.08,2-.01,2.99-.01,212.56,0,425.11,0,637.67,0,.87,0,1.76-.09,2.62.02,2.4.29,2.98-.88,2.91-3.06-.13-3.61-.03-7.24-.04-10.86q0-4.94-5.09-4.94c-106.47,0-212.93,0-319.4,0Z"/>
    <path class="cls-8" d="m709.92,348.32H64.95c3.9-2.9,3.1-6.61,3.11-10.12,0-110.34,0-220.69,0-331.03q0-4.83,4.78-4.83c209.58,0,419.16,0,628.74,0q4.8,0,4.8,4.81c0,110.22,0,220.44,0,330.66,0,3.58-.46,7.24,3.55,10.51ZM387.6,13.57c-100.13,0-200.25,0-300.38,0q-5.56,0-5.56,5.51c0,103.87,0,207.74,0,311.61q0,5.73,5.7,5.73c118.23,0,236.46-.05,354.68.12,7.84.01,15.63-.93,23.7,1.67,7.72,2.48,16.34,2.7,24.72,2.63,15.6-.13,31.21-.09,46.82,0,3.17.02,6-.16,7.65-3.31.66-1.27,1.82-1.02,2.92-1.14,3.03-.33,5.56,1.33,8.28,1.94,6.5,1.45,13.25,2.25,19.92,2.36,17.85.3,35.7.06,53.56.16,2.37.01,4.28-.58,5.4-2.56,1.08-1.92,2.64-1.9,4.42-1.89,16.35.02,32.71.01,49.06.01q5.07,0,5.07-5.03c0-104.12,0-208.24,0-312.36q0-5.45-5.57-5.46c-100.13,0-200.25,0-300.38,0Z"/>
    <path class="cls-8" d="m387.15,351.29c106.47,0,212.93,0,319.4,0q5.08,0,5.09,4.94c0,3.62-.1,7.24.04,10.86.08,2.18-.51,3.35-2.91,3.06-.86-.11-1.75-.02-2.62-.02-212.56,0-425.11,0-637.67,0-1,0-2-.07-2.99.01-1.86.15-2.73-.49-2.68-2.52.1-4.62.1-9.24,0-13.85-.05-2.05.88-2.63,2.71-2.49.99.07,2,.01,2.99.01,106.22,0,212.43,0,318.65,0Z"/>
    <path class="cls-22" d="m387.6,13.57c100.13,0,200.25,0,300.38,0q5.57,0,5.57,5.46c0,104.12,0,208.24,0,312.36q0,5.03-5.07,5.03c-16.35,0-32.71,0-49.06-.01-1.78,0-3.34-.03-4.42,1.89-1.11,1.98-3.02,2.57-5.4,2.56-17.85-.1-35.71.15-53.56-.16-6.67-.11-13.42-.92-19.92-2.36-2.72-.6-5.24-2.27-8.28-1.94-1.1.12-2.25-.13-2.92,1.14-1.66,3.15-4.49,3.33-7.65,3.31-15.6-.1-31.21-.14-46.82,0-8.37.07-17-.15-24.72-2.63-8.08-2.6-15.86-1.66-23.7-1.67-118.23-.17-236.46-.12-354.68-.12q-5.69,0-5.7-5.73c0-103.87,0-207.74,0-311.61q0-5.51,5.56-5.51c100.13,0,200.25,0,300.38,0Zm.39,2.68c-99.74,0-199.47.02-299.21-.08-3.47,0-4.55.61-4.54,4.36.12,103.11.12,206.21,0,309.32,0,3.76,1.08,4.32,4.52,4.32,122.7-.1,245.41-.09,368.11-.01,3.71,0,5.8-.15,5.4-4.91-.39-4.53,1.3-5.75,5.82-6.25,4.93-.54,9.86-1.52,14.8-1.56,19.19-.18,38.38-.06,57.57-.11,1.44,0,2.3.64,3.18,1.57,2.03,2.14,2.73,4.74,2.4,7.57-.32,2.79.45,3.86,3.53,3.75,2.55-.1,3.32-.59,3.26-3.26-.14-6.54,1-7.52,7.57-8.11,4.45-.4,8.88-1.37,13.32-1.41,18.69-.16,37.38.02,56.07-.15,3.21-.03,4.81,1.39,6.06,3.89.74,1.49,1.13,3.11.83,4.71-.7,3.8,1.02,4.35,4.44,4.3,15.23-.2,30.46-.22,45.68.01,3.56.05,4.14-1.07,4.14-4.31-.08-103.11-.09-206.21.02-309.32,0-3.7-.99-4.4-4.51-4.39-99.49.1-198.97.08-298.46.08Zm125.45,307.42c-8.36,0-16.72.06-25.08-.04-1.93-.02-2.64.49-2.53,2.49.16,2.99.21,6-.01,8.98-.19,2.56.82,3.07,3.17,3.06,16.34-.09,32.69-.14,49.04.03,3.35.04,4.9-1.46,5.45-4.3.35-1.8.4-3.76.1-5.56-.53-3.11-2.04-4.89-5.81-4.75-8.1.31-16.22.1-24.33.1Zm91.02,14.43c7.99,0,15.98-.22,23.96.09,4.01.15,5.38-1.89,5.91-5.15,1.1-6.76-1.15-9.37-7.91-9.37-12.85,0-25.71-.05-38.56.03-3.71.02-8.78-1.65-10.74.68-1.87,2.22-.41,7.13-.65,10.84-.15,2.32.6,2.97,2.92,2.93,8.36-.14,16.72-.05,25.08-.05Zm-30.57-7.35c0-1.74,0-3.49,0-5.23,0-1.1-.06-1.81-1.65-1.55-4.4.69-8.82,1.35-13.26,1.6-4.46.25-3.88,3.46-3.86,6.12.01,2.79.92,5.01,4.62,4.77,2.43-.16,4.92.55,7.39.75,6.78.54,6.78.52,6.77-6.45Zm-90.62.21c0-1.62-.04-3.24.01-4.86.05-1.58-.02-2.46-2.21-2.05-4.25.79-8.59,1.31-12.91,1.55-4.32.24-3.56,3.43-3.67,5.91-.13,2.82.66,5.07,4.4,4.92,2.57-.1,5.16.58,7.75.81,6.63.59,6.63.56,6.63-6.28Z"/>
    <path class="cls-19" d="m387.99,16.25c99.49,0,198.97.02,298.46-.08,3.52,0,4.51.69,4.51,4.39-.12,103.11-.11,206.21-.02,309.32,0,3.24-.58,4.36-4.14,4.31-15.23-.23-30.46-.21-45.68-.01-3.42.04-5.14-.5-4.44-4.3.3-1.61-.09-3.23-.83-4.71-1.25-2.49-2.85-3.92-6.06-3.89-18.69.17-37.38,0-56.07.15-4.44.04-8.87,1.01-13.32,1.41-6.57.59-7.71,1.57-7.57,8.11.06,2.68-.71,3.17-3.26,3.26-3.08.12-3.85-.96-3.53-3.75.33-2.83-.38-5.43-2.4-7.57-.88-.93-1.74-1.57-3.18-1.57-19.19.05-38.38-.07-57.57.11-4.94.05-9.87,1.02-14.8,1.56-4.52.5-6.2,1.72-5.82,6.25.41,4.76-1.68,4.92-5.4,4.91-122.7-.08-245.41-.08-368.11.01-3.44,0-4.52-.55-4.52-4.32.12-103.11.12-206.21,0-309.32,0-3.75,1.08-4.37,4.54-4.36,99.74.1,199.47.08,299.21.08Z"/>
    <path class="cls-7" d="m513.44,323.66c8.11,0,16.23.22,24.33-.1,3.76-.15,5.28,1.64,5.81,4.75.31,1.8.25,3.76-.1,5.56-.55,2.83-2.1,4.33-5.45,4.3-16.34-.17-32.69-.12-49.04-.03-2.35.01-3.36-.5-3.17-3.06.22-2.98.17-5.99.01-8.98-.11-2,.6-2.51,2.53-2.49,8.36.1,16.72.04,25.08.04Z"/>
    <path class="cls-7" d="m604.46,338.1c-8.36,0-16.72-.08-25.08.05-2.31.04-3.07-.61-2.92-2.93.24-3.71-1.22-8.63.65-10.84,1.96-2.32,7.03-.65,10.74-.68,12.85-.09,25.71-.03,38.56-.03,6.76,0,9.02,2.61,7.91,9.37-.53,3.26-1.9,5.3-5.91,5.15-7.97-.31-15.97-.09-23.96-.09Z"/>
    <path class="cls-28" d="m573.9,330.74c0,6.97,0,6.99-6.78,6.45-2.47-.2-4.95-.9-7.39-.75-3.7.24-4.61-1.98-4.62-4.77-.01-2.66-.6-5.87,3.86-6.12,4.44-.25,8.86-.9,13.26-1.6,1.6-.25,1.65.45,1.65,1.55,0,1.74,0,3.49,0,5.23Z"/>
    <path class="cls-25" d="m483.27,330.95c0,6.84,0,6.86-6.63,6.28-2.59-.23-5.18-.91-7.75-.81-3.74.15-4.53-2.1-4.4-4.92.12-2.48-.64-5.67,3.67-5.91,4.32-.24,8.65-.76,12.91-1.55,2.19-.41,2.26.47,2.21,2.05-.05,1.62-.01,3.24-.01,4.86Z"/>
    <g>
      <path class="cls-20" d="m599.04,488.48c-1.36.1-2.72.27-4.07.27-126.76.01-253.53.01-380.29,0-1.36,0-2.72-.18-4.07-.27-.17-.71-.5-1.42-.5-2.14-.03-18.59.04-37.18-.08-55.77-.02-3.04,1.54-3.03,3.74-3.03,127.38.03,254.76.03,382.13-.04,3.04,0,3.75.94,3.74,3.83-.12,17.96-.06,35.93-.07,53.9,0,1.11.22,2.26-.53,3.25Z"/>
      <path class="cls-4" d="m599.04,488.48c.75-.99.53-2.15.53-3.25,0-17.97-.05-35.93.07-53.9.02-2.88-.7-3.83-3.74-3.83-127.38.08-254.76.07-382.13.04-2.2,0-3.76-.01-3.74,3.03.12,18.59.05,37.18.08,55.77,0,.71.33,1.42.5,2.14-3.23,2.52-2.79-.13-2.79-2.01-.01-18.44-.08-36.89.06-55.33.02-2.89-.65-3.87-3.62-3.64-3.59.28-7.22,0-10.84.1-1.59.05-2.16-.38-2.13-2.06.09-6.6.11-13.21,0-19.81-.04-2.62,1.97-3.46,3.49-4.81,1.77-1.57,3.59-2.56,1.2-5.71-2.38-3.15-2.08-7.51-.93-11.5.33-1.16,1.18-1.49,2.03-1.95,2.27-1.24,4.54-2.49,6.82-3.73.67.33.89.91.91,1.6-1.09,1.41-3.42,1.3-4.39,3.47,6.86.64,13.37,1.27,19.88,1.85,9.27.82,18.56,1.47,27.82,2.43,12.7,1.32,25.37,2.87,38.06,4.28,2.18.24,4.25-.07,5.5-2.24,1.27.14,2.7-.53,3.77.72-.85.5-1.65,1.18-2.56,1.48-4.03,1.3-4.6,4.44-4.2,7.96.37,3.35,1.3,3.77,4.24,2.18,8.26-4.47,16.51-8.94,24.75-13.43q5.55-3.01,4.93-9.57c-.04-.41.34-.86.52-1.29.34-.75.84-1.32,1.69-1.5-.51,2.38-.19,4.74.47,7.01.68,2.34-.1,3.63-2.21,4.71-5.76,2.96-11.44,6.08-17.13,9.17-3.7,2.01-7.36,4.08-11.8,6.55h317.71c-1.28-1.36-2.07-2.28-2.95-3.13-8.01-7.68-16.11-15.26-23.99-23.07-2.12-2.1-4.18-2.98-7.17-2.98-80.98.08-161.97.06-242.95.06-1.62,0-3.24-.11-4.85-.17.84-2.73,3.59-1.33,5.2-2.41.99-.05,1.99-.15,2.98-.15,80.43,0,160.86,0,241.29,0,.99,0,1.99.1,2.98.15.25.14.5.29.75.43,9.18,8.72,18.06,17.79,27.67,26.01,5.01,4.28,6.73,8.83,6.1,15.05-.41,4.07-.15,8.22-.04,12.33.04,1.64-.46,2.16-2.1,2.1-3.24-.12-6.49.15-9.71-.09-2.62-.2-3.29.58-3.27,3.23.13,18.57.08,37.14.05,55.7,0,1.77.51,4.61-2.79,2.04Zm-195.36-63.19h204.46c.87,0,1.76-.09,2.62.02,2.81.36,4.12-.51,3.85-3.65-.28-3.35-.06-6.74-.06-10.11q0-4.99-5.06-4.99c-136.93,0-273.86,0-410.78,0-.5,0-1.01.06-1.5,0-2.7-.39-3.86.55-3.66,3.47.24,3.48.05,6.99.06,10.48q0,4.79,4.87,4.79c68.4,0,136.8,0,205.2,0Zm-203.49-40.48c-1.14.13-2.7-.51-3.18.63-1,2.37-.56,4.86.26,7.28.59,1.76,1.74,2.5,3.6,2.67,12.97,1.19,25.92,2.51,38.89,3.68,14.95,1.35,29.91,2.58,44.87,3.87.72.06,1.85.44,2.08.14,1.66-2.23-.86-4.72.35-7.17.6-1.21.34-2.65-1.76-2.83-11-.95-21.99-2-32.98-3.03-8.4-.79-16.8-1.56-25.19-2.4-9-.91-18-1.89-26.93-2.83Zm63.74,18.67v-.33c-19.62-1.82-39.25-3.67-58.88-5.44-3.85-.35-6.67,1.8-8,5.78h66.89Z"/>
      <path class="cls-12" d="m203.46,372.8c-2.08-.22-4.17-.42-6.25-.66-.48-.05-1.02-.1-1.42-.34-3.67-2.26-3.8-13.16-.04-15.32,11.07-6.36,22.25-12.53,33.33-18.87,2.09-1.2,4.17-.59,6.18-.42,16.52,1.39,33.03,2.92,49.54,4.43,12.57,1.15,25.14,2.39,37.71,3.48,1.86.16,2.47.75,2.02,2.53-.49,1.91-.9,3.83-1.35,5.75.11,1.27-.45,2.62.4,3.82l.29,1.62c.43,2.23-1.17,2.91-2.73,3.8-9.25,5.27-18.99,9.66-28.04,15.31-2.51.87-4.54,2.89-7.65,2.36-4.38-.75-8.85-1.03-13.28-1.44-8.88-.81-17.77-1.54-26.66-2.36-13.07-1.2-26.14-2.43-39.21-3.66-.95-.01-1.89-.02-2.84-.03Zm115.85-21.8c-7.79,3.71-15.44,7.68-22.39,12.85-1.55.77-3.1,1.54-4.65,2.3-4.61,2.26-5.35,4.07-4.42,9.2.44,2.4,1.22,2.53,3.17,1.46,9.77-5.34,19.59-10.58,29.38-15.87.94-.51,2.14-.95,1.76-2.41-.53-2.03-.65-4.04-.45-6.15.14-1.56-1.13-1.72-2.4-1.39Zm-.74-3.12c-2.58-.85-4.71-1.11-6.93-1.24-6.56-.4-13.11-.98-19.66-1.57-10.49-.94-20.97-1.91-31.46-2.91-6.78-.65-13.54-1.6-20.34-1.95-4.18-.22-8.44-1.63-12.62,1.03-5.66,3.6-11.75,6.53-17.48,10.03-3.15,1.93-6.83,3.14-9.75,6.32,8.05.66,15.57,1.23,23.08,1.92,9.87.9,19.73,1.86,29.59,2.88,8.01.83,16.02,1.64,24,2.74,6.25.86,12.21,1.19,17.59-3.08,2.32-1.84,5.1-3.1,7.67-4.61,5.31-3.12,10.63-6.23,16.3-9.56Z"/>
      <path class="cls-22" d="m293.1,377.93c9.05-5.65,18.78-10.04,28.04-15.31,1.56-.89,3.16-1.57,2.73-3.8,1.29,2.02,2.44.4,3.56-.2.6-.32,1.42-.86.95-1.69-.68-1.18-1.96-.59-2.99-.68-.76-.07-1.45.17-1.8.95-.85-1.2-.29-2.54-.4-3.82,2.94,1.24,6.09.66,9.12,1.05,1.95.25,3.47.75,2.53,3.45-1.14,3.22-1.15,6.72-.1,9.88.48,1.43-1.1,2.83.4,3.93-1.61,1.07-4.36-.32-5.2,2.41-1.91.03-3.38,1.31-5.11,1.84-.85.18-1.35.75-1.69,1.5-5.77,1.83-10.58,5.56-16,8.07-3.79,1.76-6.96,5.16-11.67,4.6-1.07-1.24-2.49-.57-3.77-.72-12.09-1.08-24.18-2.12-36.26-3.25-15.4-1.43-30.8-2.99-46.21-4.33-1.93-.17-3.28-.75-4.39-2.19-.02-.7-.25-1.27-.91-1.6.54-1.8-.6-3.45-.45-5.22.94.01,1.89.02,2.84.03-.1,5.54.85,6.54,6.21,6.86,4.21.25,8.43.55,12.63.95,12.09,1.15,24.18,2.36,36.26,3.54,9.87.96,19.75,1.83,29.6,2.92,4.56.51,5.04.25,4.64-4.19-.06-.61-.14-1.32.09-1.85,1.25-2.89-.47-3.18-2.64-3.13Zm16.62-6.04c-.19.11-.33.27-.42.48-.25.06-.35.22-.3.47-.55.17-1.1.35-1.65.52-1.24.14-2.29.64-3.06,1.66-5.72,2.36-6.95,4.23-6.13,8.91.49,2.76,1.13,3.8,4.19,2.03,8.54-4.94,17.27-9.58,26.02-14.15,5.13-2.68,5.83-5.13,2.34-10.05-1.02.6-2.06-.38-3.19.18-6.03,2.97-12.23,5.62-17.62,9.74l-.19.21Z"/>
      <path class="cls-22" d="m583.12,372.12c-.25-.14-.5-.29-.75-.43.51-.3.6.11.75.43Z"/>
      <path class="cls-18" d="m324.82,375.93c1.74-.53,3.2-1.81,5.11-1.84,1.62.06,3.24.17,4.85.17,80.99,0,161.97.02,242.95-.06,2.99,0,5.06.88,7.17,2.98,7.88,7.8,15.98,15.39,23.99,23.07.88.84,1.68,1.77,2.95,3.13h-317.71c4.44-2.47,8.1-4.54,11.8-6.55,5.69-3.09,11.37-6.22,17.13-9.17,2.11-1.08,2.89-2.37,2.21-4.71-.66-2.27-.97-4.63-.47-7.01Z"/>
      <path class="cls-33" d="m403.68,425.29c-68.4,0-136.8,0-205.2,0q-4.87,0-4.87-4.79c0-3.49.18-7-.06-10.48-.2-2.92.96-3.86,3.66-3.47.49.07,1,0,1.5,0,136.93,0,273.86,0,410.78,0q5.05,0,5.06,4.99c0,3.37-.22,6.76.06,10.11.26,3.14-1.04,4.01-3.85,3.65-.86-.11-1.75-.02-2.62-.02h-204.46Z"/>
      <path class="cls-31" d="m200.19,384.82c8.94.94,17.93,1.93,26.93,2.83,8.39.84,16.79,1.62,25.19,2.4,10.99,1.03,21.98,2.08,32.98,3.03,2.1.18,2.36,1.62,1.76,2.83-1.21,2.46,1.31,4.94-.35,7.17-.22.3-1.36-.08-2.08-.14-14.96-1.29-29.92-2.52-44.87-3.87-12.97-1.17-25.92-2.49-38.89-3.68-1.86-.17-3.01-.91-3.6-2.67-.82-2.42-1.26-4.91-.26-7.28.48-1.14,2.03-.51,3.18-.63Z"/>
      <path class="cls-14" d="m295.46,390.1c4.71.57,7.88-2.84,11.67-4.6,5.42-2.51,10.23-6.25,16-8.07-.18.43-.56.88-.52,1.29q.6,6.55-4.93,9.57c-8.25,4.48-16.5,8.96-24.75,13.43-2.94,1.59-3.87,1.17-4.24-2.18-.39-3.52.17-6.66,4.2-7.96.92-.3,1.71-.97,2.56-1.48Zm3.04,3.79c.63.02,1.17-.14,1.54-.69,5.23-1.58,10.01-4.03,14.25-7.48.49-.25.98-.51,1.48-.76.61-.04,1.16-.21,1.5-.78.1-.15.2-.29.3-.44-.16.09-.32.17-.47.26-.5.26-.99.51-1.49.77-.49.25-.99.5-1.48.75-5.06,1.91-9.63,4.74-14.25,7.49-.48.27-.96.54-1.45.81-.11.13-.22.26-.33.39.13-.1.27-.21.4-.31Zm-3.76,1.64c-.09.05-.17.11-.26.16.05.08.1.16.15.24.13-.1.26-.19.39-.29-.09-.04-.19-.08-.28-.11Z"/>
      <path class="cls-18" d="m263.93,403.49c-22.3,0-44.59,0-66.89,0,1.34-3.97,4.15-6.12,8-5.77,19.64,1.78,39.26,3.62,58.9,5.44v.33Z"/>
      <path class="cls-31" d="m204.82,379.62c1.11,1.44,2.46,2.02,4.39,2.19,15.41,1.34,30.81,2.9,46.21,4.33,12.08,1.12,24.17,2.17,36.26,3.25-1.25,2.17-3.32,2.48-5.5,2.24-12.69-1.41-25.36-2.96-38.06-4.28-9.26-.96-18.55-1.61-27.82-2.43-6.51-.58-13.01-1.21-19.88-1.85.97-2.17,3.3-2.06,4.39-3.47Z"/>
      <path class="cls-6" d="m318.57,347.88c-5.67,3.33-10.99,6.44-16.3,9.56-2.57,1.51-5.36,2.77-7.67,4.61-5.38,4.28-11.34,3.95-17.59,3.08-7.97-1.1-15.99-1.91-24-2.74-9.86-1.02-19.72-1.97-29.59-2.88-7.51-.69-15.03-1.25-23.08-1.92,2.92-3.17,6.6-4.39,9.75-6.32,5.73-3.5,11.82-6.43,17.48-10.03,4.18-2.66,8.44-1.25,12.62-1.03,6.79.35,13.56,1.31,20.34,1.95,10.48,1,20.97,1.97,31.46,2.91,6.55.58,13.1,1.17,19.66,1.57,2.22.13,4.35.39,6.93,1.24Z"/>
      <path class="cls-26" d="m293.1,377.93c2.17-.04,3.89.24,2.64,3.13-.23.53-.15,1.24-.09,1.85.4,4.44-.08,4.7-4.64,4.19-9.85-1.09-19.73-1.96-29.6-2.92-12.09-1.18-24.17-2.39-36.26-3.54-4.2-.4-8.42-.69-12.63-.95-5.36-.32-6.3-1.32-6.21-6.86,13.07,1.22,26.14,2.46,39.21,3.65,8.88.81,17.77,1.55,26.66,2.36,4.44.41,8.9.69,13.28,1.44,3.11.53,5.13-1.49,7.65-2.36Z"/>
      <path class="cls-14" d="m319.31,351c1.27-.33,2.54-.17,2.4,1.39-.19,2.11-.07,4.12.45,6.15.38,1.47-.82,1.91-1.76,2.41-9.79,5.29-19.61,10.53-29.38,15.87-1.95,1.07-2.73.94-3.17-1.46-.94-5.13-.19-6.94,4.42-9.2,1.55-.76,3.1-1.53,4.65-2.3.92.31-.35,2.87,1.58,1.85,6.07-3.21,12.68-5.45,18.06-9.92.29-.14.83-.29.82-.42-.03-.63-.6-.35-.96-.46.35-1.76,3.4-1.52,2.89-3.91Zm-21.57,17.43c.63.02,1.17-.14,1.54-.69,5.23-1.57,10-4.05,14.25-7.48,1.23-.06,2.31-.41,2.97-1.54.1-.15.2-.29.3-.44-.16.09-.32.17-.47.26-1.24.02-2.29.4-2.97,1.52-5.03,1.97-9.72,4.57-14.25,7.49-.48.27-.96.54-1.45.81-.11.13-.22.26-.33.39.13-.1.27-.21.4-.31Z"/>
      <path class="cls-21" d="m316.56,355.78c-5.38,4.47-11.99,6.71-18.06,9.92-1.93,1.02-.66-1.54-1.58-1.85,6.95-5.18,14.6-9.14,22.39-12.85.51,2.39-2.54,2.15-2.89,3.91l.02-.02c-.37.08-.89-.16-.98.44,0,.03.57.15.88.23l.21.23Z"/>
      <path class="cls-26" d="m323.58,357.2c.35-.78,1.04-1.02,1.8-.95,1.03.09,2.31-.5,2.99.68.47.82-.35,1.37-.95,1.69-1.12.6-2.27,2.22-3.56.2-.1-.54-.19-1.08-.29-1.62Z"/>
      <path class="cls-14" d="m330.71,361.76c3.49,4.92,2.79,7.37-2.34,10.05-8.75,4.58-17.47,9.21-26.02,14.15-3.06,1.77-3.71.73-4.19-2.03-.83-4.68.41-6.56,6.13-8.91,1.28-.08,2.53-.21,3.06-1.66.55-.17,1.1-.35,1.65-.52.23.27.46.53.69.79-.05.22-.08.43-.09.66-.5.25-1,.5-1.5.75-.47.28-.94.56-1.42.83-.33.11-.66.22-1,.32.08.09.21.27.22.26.27-.18.52-.38.78-.58.63.03,1.19-.09,1.58-.65l1.5-.75c.61-.06,1.18-.18,1.42-.86h-.01c.65.06,1.23-.05,1.51-.75h-.01c6.57-1.58,11.79-5.78,17.47-9.08.43-.25.38-1.33.56-2.03Zm-17.65,13.31c.13.28.26.55.39.83,2.1-1.07,4.21-2.14,6.31-3.21-2.63-.08-4.65,1.19-6.7,2.38Zm12.69-5.95c-.13-.23-.28-.55-.31-.54-.33.13-.71.23-.93.47-.35.38-.1.69.33.62.32-.05.59-.35.91-.56Z"/>
      <path class="cls-21" d="m330.71,361.76c-.18.7-.13,1.78-.56,2.03-5.68,3.3-10.9,7.51-17.47,9.09,0-.25,0-.51,0-.76.1-.04.21-.06.28-.13.04-.04.04-.14.05-.21-.11.12-.21.24-.32.36-.93-.15-1.87-.31-2.8-.46,5.39-4.12,11.59-6.77,17.62-9.74,1.12-.55,2.16.42,3.19-.18Z"/>
      <path class="cls-14" d="m312.68,372.12v.76s.02,0,.02,0c-.63,0-1.22.08-1.51.76,0,0,.01,0,.01,0-.5,0-1,0-1.5.01-.23-.26-.46-.52-.69-.79-.06-.26.04-.42.3-.47.2.01.4.02.6.03-.06-.17-.12-.34-.18-.51,0,0,.19-.21.19-.21.93.15,1.86.31,2.8.46l-.02-.02Z"/>
      <path class="cls-21" d="m307.35,373.36c-.54,1.45-1.79,1.58-3.06,1.66.77-1.02,1.82-1.52,3.06-1.66Z"/>
      <path class="cls-21" d="m309.71,371.89c.06.17.12.34.18.51-.2,0-.4-.01-.6-.03.08-.21.22-.37.42-.48Z"/>
      <path class="cls-21" d="m314.29,385.73c-4.25,3.45-9.03,5.89-14.26,7.48l-.17-.19c4.62-2.75,9.19-5.58,14.25-7.49,0,0,.18.2.18.2Z"/>
      <path class="cls-21" d="m317.27,384.19c-.34.57-.88.74-1.5.78l-.17-.19c.5-.26.99-.51,1.49-.77l.18.18Z"/>
      <path class="cls-21" d="m315.77,384.97c-.49.25-.98.51-1.48.76,0,0-.17-.2-.17-.2.49-.25.99-.5,1.48-.75,0,0,.17.19.17.19Z"/>
      <path class="cls-21" d="m300.04,393.21c-.37.55-.92.71-1.54.69l-.07-.07c.48-.27.96-.54,1.44-.81,0,0,.17.19.17.19Z"/>
      <path class="cls-21" d="m294.74,395.54c.09.04.19.08.28.11-.13.1-.26.19-.39.29-.05-.08-.1-.16-.15-.24l.26-.16Z"/>
      <path class="cls-21" d="m317.09,384.01c.16-.09.32-.17.47-.26-.1.15-.2.29-.3.44,0,0-.18-.18-.18-.18Z"/>
      <path class="cls-21" d="m298.49,393.9c-.13.1-.27.21-.4.31.11-.13.22-.26.33-.39,0,0,.07.07.07.07Z"/>
      <path class="cls-21" d="m313.55,360.26c-4.26,3.43-9.02,5.9-14.26,7.48l-.17-.19c4.53-2.91,9.22-5.52,14.25-7.49l.18.21Z"/>
      <path class="cls-21" d="m313.37,360.06c.68-1.12,1.73-1.5,2.97-1.52l.18.18c-.67,1.13-1.75,1.48-2.97,1.54,0,0-.18-.2-.18-.2Z"/>
      <path class="cls-21" d="m299.29,367.74c-.37.55-.92.71-1.54.69l-.07-.07c.48-.27.96-.54,1.44-.81,0,0,.17.19.17.19Z"/>
      <path class="cls-21" d="m316.42,354.91c.35.1.93-.17.96.46,0,.13-.54.28-.82.42,0,0-.21-.22-.21-.22.03-.22.07-.45.1-.67l-.02.02Z"/>
      <path class="cls-21" d="m297.75,368.43c-.13.1-.27.21-.4.31.11-.13.22-.26.33-.39,0,0,.07.07.07.07Z"/>
      <path class="cls-21" d="m316.34,358.54c.16-.09.32-.17.47-.26-.1.15-.2.29-.3.44,0,0-.18-.18-.18-.18Z"/>
      <path class="cls-14" d="m316.45,354.89c-.03.22-.07.45-.1.67-.31-.08-.88-.2-.88-.23.1-.6.61-.37.98-.44Z"/>
      <path class="cls-21" d="m313.06,375.07c2.05-1.19,4.07-2.45,6.7-2.38-2.1,1.07-4.21,2.14-6.31,3.21-.13-.28-.26-.55-.39-.83Z"/>
      <path class="cls-21" d="m325.75,369.11c-.31.2-.59.51-.91.56-.43.07-.68-.25-.33-.62.22-.24.61-.35.93-.47.03,0,.18.31.31.54Z"/>
      <path class="cls-21" d="m311.18,373.63c.29-.68.88-.76,1.51-.76-.28.7-.86.81-1.51.76Z"/>
      <path class="cls-21" d="m309.7,373.63c.5,0,1,0,1.5-.01-.24.68-.81.8-1.42.86,0,0-.17-.19-.17-.19.01-.22.04-.44.09-.65Z"/>
      <path class="cls-21" d="m308.11,375.04c.5-.25,1-.5,1.5-.75,0,0,.17.19.17.19-.5.25-1,.5-1.5.75,0,0-.17-.19-.17-.19Z"/>
      <path class="cls-21" d="m306.69,375.87c.47-.28.94-.56,1.42-.83,0,0,.17.19.17.19-.39.56-.95.68-1.58.65h0Z"/>
      <path class="cls-21" d="m306.7,375.87c-.26.2-.51.4-.78.58,0,0-.14-.17-.22-.26.33-.11.66-.22,1-.32h0Z"/>
      <path class="cls-14" d="m312.7,372.14c.11-.12.21-.24.32-.36-.02.07,0,.17-.05.21-.08.06-.19.09-.28.13,0,0,.02.02.02.02Z"/>
    </g>
  </g>
  <g>
    <path class="cls-30" d="m92.33,486.62c-1.3,1.73-1.88,1.69-2.99-.22.01-.06.04-.12.03-.18-.61-6.5-1.24-13-1.85-19.5-.09-1.01-.7-.58-1.17-.44-8.14,2.37-16.38,4.26-24.86,4.91-.82.06-.89.44-.8,1.05.69,4.76,1.38,9.52,2.07,14.28-.3.78-.68,1.5-1.69,1.26-.82-.2-1.05-.83-1.16-1.65-.58-4.54-1.24-9.07-1.81-13.61-.12-.96-.47-1.34-1.45-1.44-1.69-.17-3.36-.5-4.97-1.11-4.42-1.66-6.83-5.09-8.32-9.36-2.26-6.46-3.57-13.15-4.66-19.87-1.41-8.7-2.43-17.45-2.27-26.29.13-6.87,1.27-13.48,5.59-19.14,3.87-5.07,9.07-8.27,14.89-10.56,10.38-4.09,21.08-7.25,31.67-10.72.66-.22,1.58-.06,1.92-1.1.8-2.43.51-2.93-2.05-2.86-6.49.19-12.91-.2-19.34-1.34-2.54-.45-5.31.47-7.98.73-4.25.41-8.42.03-12.38-1.64-.79-.33-1.08-.19-1.61.42-3.38,3.86-7.88,6.08-12.42,8.21-1.18.55-2.26-.21-1.97-1.43,2.11-8.99-.84-17.21-3.74-25.44-.28-.8-.68-1.56-.94-2.37-1.25-3.77-3.16-6.27-7.41-7.79-8.89-3.19-14.14-10.13-15.77-19.48-.63-3.59-.16-7.21,2.03-10.35.51-.73.51-1.31.13-2.15-5.19-11.34-7.54-23.31-7-35.72.92-21.06,8.38-39.46,23.66-54.26,12.4-12.01,27.27-19.39,44.23-22.56,3.06-.57,6.14-1.07,9.26-1.11.29,0,.63.05.74-.35h6.25c1.63.77,3.42.4,5.13.67,6.79,1.09,13.2,2.95,18.17,8.06.8.83,1.73.45,2.58.44,10.93-.15,20.38,3.56,28.5,10.79,6.96,6.2,11.49,14.01,14.71,22.62,2.93,7.84,4.65,15.97,5.6,24.29.49,4.32.88,8.64,1.04,12.99.03.69.27,1.04.8,1.46,4.2,3.31,6.1,7.85,6.55,13.02.56,6.43-1,12.35-4.92,17.56-.94,1.25-.23,2.51-.08,3.68,1.06,8.53,1.46,17.09.93,25.66-.28,4.43-.96,8.84-2.88,12.94-.36.77-.78,1.51-1.26,2.21-1.12,1.67-2.14,1.63-3.07-.13-1.78-3.39-3.52-6.79-5.38-10.38-4.61,9.03-12.53,13.29-21.57,16-.74.22-1.29.69-1.87,1.1-5.91,4.26-12.33,7.54-19.2,9.92-1.18.41-1.28.96-1.33,2.08-.16,3.24,1.47,4.47,4.41,5.35,9.64,2.89,19.22,5.97,28.62,9.58,5.86,2.25,11.16,5.42,15.21,10.41,3.88,4.78,5.68,10.32,6.15,16.32,1.16,14.81-.47,29.41-3.66,43.87-1.13,5.1-3.08,9.78-7.77,12.74-2.09,1.32-4.41,2.04-6.84,2.33-.73.09-1.08.25-1.17,1.04-.59,5.22-1.24,10.43-1.82,15.65-.1.9-.15,1.78-1.14,2.06-1.1.32-1.47-.56-1.83-1.35,1.09-5.38,1.29-10.87,2.19-16.28.14-.83-.39-.84-.98-.89-2.12-.19-4.25-.34-6.35-.76-6.7-1.33-13.16-3.46-19.59-5.71-1.14-.4-1.8-.75-1.87,1.05-.11,2.98-.59,5.95-.86,8.93-.41,4.56-.78,9.12-1.17,13.68-.19.74-.53,1.32-1.39,1.38-.8.05-1.17-.42-1.36-1.12.02-.11,0-.21-.05-.3.18-1.76.37-3.51.54-5.27.56-5.84,1.06-11.68,1.68-17.51.28-2.57-1.7-4.13-4.23-3.2-3.75,1.38-7.45,2.97-11.3,4.01-2.14.58-2.07,1.65-1.87,3.26.39,3.15.63,6.32,1.03,9.46.4,3.08.42,6.2,1.08,9.25-.05.08-.05.16.01.24Zm14.71-281.04c-.12-.38-.39-.48-.76-.38h.02c-.22-1.27-1.3-1.86-2.17-2.55-5.51-4.41-12.08-5.78-18.86-6.22-8.31-.54-16.48.58-24.48,2.88-15.75,4.54-29.35,12.64-39.98,25.18-13.09,15.45-18.74,33.54-17.94,53.71.36,9.14,2.31,17.93,5.85,26.37q.89,2.11,2.74.75c2.87-1.4,5.75-1.45,8.64-.08.31.15.68.49,1,.2.36-.32.15-.78.06-1.21-.43-1.97-.82-3.98-.53-5.99.55-3.85,1.07-7.72,2.17-11.47,3.56-12.11,10.32-22.05,20.1-29.99,6.26-5.08,13.14-9.08,20.53-12.3,10.7-4.66,21.84-7.67,33.41-9.09,1.04-.13,1.75-.43,2.2-1.56,1.27-3.18,2.68-6.3,4.11-9.41.37-.82.53-2.12,1.9-1.85,1.38.27,1.24,1.46,1.24,2.51,0,3.07.04,6.13-.02,9.2-.02,1.06.3,1.73,1.3,2.13,2.9,1.16,5.59,2.76,8.25,4.37.72.44.99.37,1.39-.32.71-1.21,1.46-2.41,2.3-3.53,2.68-3.56,5.28-7.24,9.4-9.35,3.3-1.69,5.77-.2,5.67,3.56-.17,6.42-2.76,12.09-5.82,17.56-.61,1.08-.72,1.68.22,2.63,7.19,7.24,12.61,15.61,15.83,25.47.27-.24.51-.41.71-.63,2.73-3.16,6.01-4.72,10.25-3.66,1.14.28,1.3-.46,1.29-1.4-.02-2.99-.44-5.95-.71-8.93-.75-8.3-2.47-16.4-5.26-24.24-2.92-8.2-6.96-15.74-13.53-21.68,0-.24-.14-.37-.37-.4h.01c-.55-1-1.54-1.55-2.41-2.2-8.22-6.22-17.37-9.33-27.77-8.1h.02Zm11.42,177.34c-.21.51-.36,1.01-.42,1.58-.67,7.13-1.36,14.27-2.1,21.84,4.79-7.18,9.98-13.55,14.98-20.07.66-.78,1.31-1.55,2.12-2.51-3.84-1.3-7.48-2.54-11.13-3.76-3.79-1.26-3.79-1.24-3.46,2.92Zm-39.25-.1c-.07-.93-.14-1.86-.22-2.88-3.99,1.31-7.77,2.54-11.55,3.79q-3.11,1.03-.85,3.62c5.03,6.55,10.22,12.97,14.97,19.75-.29-4.44-.7-8.82-1.14-13.19-.38-3.7-.8-7.4-1.21-11.1Zm-35.99,66.79c.19.65.04,1.39.52,1.97.43,3.15,1.47,6.14,2.54,9.11,1.56,4.3,4.62,6.81,9.1,7.5,2.05.31,4.12.44,6.22.29,8.19-.59,16.12-2.5,23.98-4.76,5.02-1.45,9.97-3.09,14.95-5.1-6.78-2.84-13.39-5.61-20.01-8.36-.93-.39-1.72-.87-2.1-1.86-.44-.9.5-2.75-1.66-2.45-4.36.6-8.77.61-13.15.98-.9.08-1.62-.25-2.4-.67-2.41-1.28-4.84-1.54-7.14.31-.2.13-.43.23-.6.39-.75.75-1.55,1.1-2.33.13-.75-.93-.03-1.58.61-2.16,1.15-1.03,2.45-1.83,4-2.06,1.34-.2,1.8-.61,1.43-2.2-2.15-9.18-4.11-18.4-6.19-27.6-.28-1.23.03-2.04,1.24-2.07,1.01-.03,1.26.94,1.45,1.82,1.35,5.99,2.73,11.97,4.1,17.96.36,1.79.71,3.59,1.11,5.6.97-1.12,1.76-2.02,2.55-2.92,2.99-2.44,6.16-4.58,9.86-5.84,2.43-.82,4.86-1.1,7.33-.18,1.69.63,3.4,1.24,5.21,1.91,0-.45.03-.82,0-1.17-.43-4.2-.9-8.39-1.28-12.59-.15-1.67-.56-3.21-1.47-4.63-5.12-8.06-11.01-15.53-17.06-22.89-.39-.54-.8-1.07-1.17-1.63-.44-.67-.98-.79-1.7-.5-3.32,1.34-6.65,2.65-9.73,4.54-7.87,4.84-11.63,11.97-12.12,21.09-.42,7.73.19,15.4,1.21,23.03.67,5.05,1.34,10.11,2.78,15.03h-.08Zm-2.61-79.53c2.15-1.36,4.46-2.53,5.27-5.27.33-1.12,1.18-1.32,2.16-.61,1.2.87,2.49,1.45,3.94,1.86,3.11.88,6.25.67,9.67.65-.36-.22-.48-.33-.63-.39-11.46-4.2-20.34-11.46-26.14-22.26-1.16-2.16-2.45-3.05-4.77-2.3-.45-.05-.9-.1-1.48-.17,4.3,9.98,8.26,19.9,7.39,31.19,1.8-.82,3.32-1.54,4.59-2.7Zm95.04,63.78c1.96-.31,3.9-.81,5.9-.27,1.67.55,3.37,1.06,5.02,1.67,1.4.52,2.64.45,3.85-.56-1.36-1.27-3.01-1.63-4.54-2.14-6.04-2.01-12.11-4.07-17.68,1.21-.61.58-1.39.57-1.92-.15-.53-.71-.29-1.4.34-1.94,2.56-2.19,5.37-3.75,8.87-3.9,3.62-.15,6.98.96,10.38,1.93.85.24,1.52.41,1.91-.59-12.38-6.89-21.6-3.21-30.52,8.56,4.69,1.43,9.38,2.7,13.94,4.32,2.16.77,3.66.34,5.01-1.24.79-.92,1.65-1.11,2.75-.78,1.94.58,3.95.83,5.97.84,1.48,0,3.05.21,4.33-.95-6.52-4.26-11.38-5.21-17.34-1.31-.84.55-1.58.72-2.19-.21-.6-.91.03-1.5.7-1.98,1.59-1.15,3.41-1.85,5.24-2.51Zm-48.89-56.31c-1.17.33-2.37.58-3.49,1.03-.62.25-1.87.03-1.59,1.28.3,1.33-.43,3.14,1.14,3.92,3.56,1.78,7.35,2.86,11.34,3.16,2.57.48,5.13.39,7.7,0,4.25-.34,8.17-1.76,11.94-3.65,1.7-.85,2.63-3.05,2.12-4.86-.09-.33-.27-.52-.59-.62-2.53-.79-5.06-1.59-7.48-2.35-.42.33-.22.57-.19.79.15.95,0,1.77-1.09,1.96-1.15.2-1.46-.62-1.59-1.54-.13-.9-.24-1.81-.36-2.71-.18-1.7-.43-3.4-.5-5.1-.04-1.1-.48-1.15-1.36-.94-1.77.43-3.56.8-5.35,1.16-3.61.73-3.58.72-4.25,4.42-.3,1.63.19,3.48-1.25,4.81-.35,0-.7-.01-1.04-.02-.75-2.5-2.34-1.43-3.8-.9-.11.04-.21.11-.31.16Zm-72.45-61.56c-.77-.16-1.43-.46-1.48-1.37-.06-.98.67-1.38,1.41-1.7,2.17-.96,4.19-.37,6.11.71,1.08.61,2.09,1.35,3.43,2.23-.61-2.2-.56-4.28-1.67-5.89-2.03-2.92-6.43-3.76-9.59-2.04-3.62,1.96-5.78,6.42-5.05,10.97,1.49,9.36,6.83,15.6,15.71,18.76,2.44.87,4.97,1.55,7.67.82.97-.26.85-.5.54-1.17-.86-1.88-1.67-3.79-2.49-5.69-.85-2.4-1.82-4.77-2.53-7.22-1.21-4.2-4.32-6.63-7.81-8.7-1.39-.83-2.9-.86-4.24.29Zm135.08-12.88c.14,2.78.28,5.55.42,8.35,10.56-3.71,17.01-15.34,14.45-26-.83-3.46-2.28-6.59-5.29-8.73-2.14-1.52-4.41-1.79-7.07-1.39-2.85.42-6.37,3.89-5.91,6.79.3,1.92.8,3.82,1.27,6.02,1.04-2.44,1.99-4.55,3.75-6.15,1.22-1.11,2.57-1.86,4.28-1.72,1.38.11,2.04.73,1.54,2.18-.33.15-.66.46-.97.43-2.25-.2-3.45,1.22-4.49,2.86-1.15,1.81-1.84,3.83-2.35,5.9-.25,1.04-.83,2.02-.68,3.15.36,2.77.71,5.55,1.06,8.32Zm-16.23,84.23c-5.89,7.19-11.62,14.5-16.64,22.34-.67,1.05-1.13,2.13-1.25,3.38-.63,6.76-1.29,13.52-1.93,20.27-.06.67-.1,1.33-.18,2-.05.46-.37.98.32,1.22.55.19,1.02.2,1.44-.36.91-1.21,1.89-2.37,2.84-3.56.36-.33.73-.64,1.06-.99,5.91-6.22,12.75-10.05,21.69-8.18,1.23.26,1.15-.58,1.32-1.19,1-3.63,1.95-7.28,2.92-10.93.24-.89.63-1.77,1.7-1.47,1.06.3,1.15,1.17.85,2.23-1.05,3.68-1.96,7.41-3,11.09-.26.92-.02,1.31.8,1.66,1.34.57,2.67,1.18,3.94,1.89,1.16.65,1.95,1.76,1.35,3.05-.57,1.24-.08,1.59.86,2.18,2.3,1.44,2.43,3.39.39,5.19-.45.4-.54.55-.24,1.13,1.05,2.03.62,3.27-1.44,4.31-2.03,1.02-4.22,1.15-6.43.85-1.57-.21-3.15-.41-4.68-.78-.72-.18-1.01.2-1.41.54-.27.22-.38.48-.06.75.68.58.79,1.26.2,1.91-.58.65-1.35.39-2.06.19-2.27-.66-4.54-1.34-6.8-2.01-11.89-3.66-23.77-7.37-35.69-10.94-1.78-.53-3.75-.43-5.49.61-4.82,1.61-7.48,7.39-6.81,12.32.15,1.09.6,1.65,1.64,2.1,12.35,5.32,24.82,10.37,37.64,14.46,6.92,2.21,13.87,4.36,21.29,3.85,3.93-.27,7.4-1.59,9.93-4.76,1.98-2.49,2.88-5.48,3.59-8.52,2.53-10.88,3.67-21.93,3.92-33.08.11-4.94.01-9.89-1.23-14.74-.42-2.69-1.51-5.12-2.91-7.42-3.75-6.13-9.54-9.63-15.99-12.17-4.01-1.57-2.81-1.87-5.45,1.56Zm-29.6-156.3c-.1-.03-.2-.06-.3-.09-.73,1.72-1.52,3.42-2.18,5.17-.42,1.11-1.11,1.68-2.29,1.75-2.75.17-5.46.68-8.16,1.19-13.41,2.54-26.2,6.79-37.86,14.01-14.01,8.68-24.02,20.45-27.94,36.82-.87,3.63-2,7.4-1.44,11.03,1.9,12.34,5.32,24.29,10.56,35.67,3.39,7.34,7.62,14.09,13.99,19.28,9.43,7.7,20.51,10.86,32.39,11.55,14.88.86,28.72-2.66,41.39-10.57,16.75-10.46,25.88-25.17,25.39-45.32-.24-10.01-1.85-19.81-3.96-29.58-2.45-11.33-8.14-20.7-16.28-28.73-.29-.29-.52-1.2-1.23-.6-2.56,2.2-4.93,1.17-7.39-.26-3.48-2.02-4.27-3.62-3.06-7.36.32-1,.11-1.41-.68-1.88-2.99-1.79-6.02-3.5-9.28-4.74-1.22-.47-1.78-1.09-1.72-2.41.08-1.64.02-3.29.02-4.93Zm-20.61,161.65c1.29,12.94,2.56,25.62,3.83,38.31,3.01-.93,5.79-.91,8.63.02,4.44,1.46,8.94,2.73,13.4,4.13,1.1.35,1.72.38,1.83-1.08.32-4.33.75-8.65,1.17-12.97.55-5.66,1.14-11.31,1.69-16.97.4-4.1.78-8.21,1.18-12.46-10.39,5.05-20.8,5.16-31.73,1.01Zm53.35-43.44c5.87-2.83,10.51-6.81,12.53-13.24.23-.75.18-1.6,1.32-1.66,1.04-.05,1.33.68,1.7,1.39,1.89,3.63,3.79,7.26,5.91,11.32,4.56-12.82,2.87-25.48,1.81-38.43-2.79,2.55-5.78,4.26-8.99,5.59-.64.27-.92.71-.89,1.43.09,2.63-.3,5.23-.72,7.82-1.31,7.95-4.6,15-9.5,21.36-1.1,1.43-2.64,2.53-3.15,4.43Zm-52.37,83.29c-2.19-1.17-4.27-2.12-6.5-2.72-1.33-.36-2.69-.43-3.99-.06-5.2,1.49-9.44,4.4-12.76,8.7-1.09,1.41-.92,2.83-.28,4.09.58,1.14,2.03,1.62,3.26,1.6,4.52-.1,9.03-.37,13.53-.87.59-.07.89-.27.96-.85.49-4.08,2.5-7.3,5.78-9.89Zm48.05-200.7c-.01-.92.06-1.84-.55-2.22-.56-.35-1.24.28-1.81.62-.42.25-.83.52-1.2.83-4.36,3.61-7.64,8.06-10.04,13.16-1.84,3.91-1.64,4.31,2.2,6.35,1.91,1.02,2.88.93,4.13-.77,3.99-5.41,6.27-11.53,7.27-17.97Zm-49.65,154.73c.29,1.64-.34,3.3,1.64,4.06,9.47,3.66,18.88,3.83,28.25-.32,3.06-1.35,3.06-1.37,2.82-4.7-10.66,5.45-21.49,5.57-32.71.95Z"/>
    <path class="cls-11" d="m221.03,230.97c-.33.16-.29.49-.38.78-1.58,5.19-4.68,8.76-10.21,9.9-2.99.62-5.93,1.44-8.89,2.18-2.65.67-4.78,1.96-6.19,4.46-1.43,2.53-3.4,3.38-5.6,2.81-3.23-.84-4.68-3.48-3.39-6.64,1.85-4.57,5.43-7.35,10.05-8.68,3.57-1.03,7.25-1.69,10.86-2.57,3.41-.82,5.07-3.86,3.96-7.17-1.62-4.83-9-8.17-13.7-6.21-1.61.67-2.73,1.82-3.39,3.42-.25.62-.47,1.26-.66,1.91-.87,2.87-2.19,3.89-4.65,3.58-2.67-.33-4.58-2.41-4.64-5.06-.13-5.4,4.69-11.27,10.77-12.92,6.15-1.67,11.71.22,17.03,3.14,4.41,2.42,7.55,5.92,9.05,10.8v6.26Z"/>
    <path class="cls-17" d="m108.18,486.42c.39-4.56.76-9.12,1.17-13.68.27-2.98.76-5.95.86-8.93.06-1.8.73-1.45,1.87-1.05,6.42,2.25,12.89,4.38,19.59,5.71,2.1.42,4.23.56,6.35.76.59.05,1.12.06.98.89-.9,5.4-1.1,10.9-2.19,16.28-9.54,0-19.08.01-28.62.02Z"/>
    <path class="cls-17" d="m62.77,486.52c-.69-4.76-1.39-9.52-2.07-14.28-.09-.61-.02-.98.8-1.05,8.48-.65,16.71-2.54,24.86-4.91.48-.14,1.08-.57,1.17.44.61,6.5,1.23,13,1.85,19.5,0,.06-.02.12-.03.18-8.25.01-16.5.02-24.74.04-.61,0-1.22.04-1.82.07Z"/>
    <path class="cls-11" d="m191.29,258.38c-.03,3.97-2.99,6.86-7,6.86-4.09,0-7.17-3.03-7.13-7,.04-3.93,3.24-7.07,7.17-7.02,4.03.05,6.99,3.1,6.96,7.17Z"/>
    <path class="cls-2" d="m105.38,486.38c.05.09.07.19.05.3-4.37-.02-8.73-.04-13.1-.06-.06-.08-.06-.16-.01-.24,4.36,0,8.71,0,13.07,0Z"/>
    <path class="cls-5" d="m103.56,231.05c0,1.64.06,3.29-.02,4.93-.06,1.32.49,1.94,1.72,2.41,3.25,1.24,6.29,2.95,9.28,4.74.79.47,1,.89.68,1.88-1.21,3.74-.42,5.34,3.06,7.36,2.46,1.43,4.83,2.46,7.39.26.7-.61.93.31,1.23.6,8.14,8.03,13.84,17.4,16.28,28.73,2.11,9.77,3.72,19.56,3.96,29.58.49,20.16-8.65,34.86-25.39,45.32-12.68,7.92-26.51,11.43-41.39,10.57-11.89-.68-22.96-3.85-32.39-11.55-6.37-5.2-10.61-11.94-13.99-19.28-5.24-11.37-8.66-23.33-10.56-35.67-.56-3.63.57-7.4,1.44-11.03,3.92-16.37,13.93-28.14,27.94-36.82,11.66-7.22,24.45-11.47,37.86-14.01,2.7-.51,5.41-1.02,8.16-1.19,1.17-.07,1.87-.63,2.29-1.75.66-1.75,1.45-3.45,2.18-5.17.1.03.2.06.3.09Zm22.62,65.39c1.91.71,2.64.21,2.54-1.8-.03-.55-.1-1.1-.24-1.63-.84-3.29-1.88-6.6,2.65-8.19.8-.28.81-1.22.35-1.9-.45-.66-1.17-.61-1.81-.25-.63.37-1.26.77-1.81,1.24-1,.87-1.62.92-2.1-.54-.58-1.74-1.57-3.31-2.7-4.75-3.71-4.72-8.37-7.2-14.54-6.07-5.76,1.06-10.93,6.4-11.76,12.15-.32,2.2.19,2.8,2.16,2.6,0,1.1-.04,2.2-.02,3.3.17,6.67,2.52,12.36,7.53,16.87,5.83,5.26,13.69,3.88,17.42-3.01,1.37-2.53,1.88-5.26,2.32-8.04Zm-78.29,18.44c1.64,1.95,3.02,4.09,5.06,5.73,5,4.05,11.67,3.61,15.5-1.25,2.34-2.97,3.41-6.46,3.63-10.2.34-5.7-1.36-10.84-4.39-15.6,1.72-1.2,1.78-1.59.5-3.16-4.35-5.35-12.44-6.92-18.41-3.47-5.47,3.15-7.17,8.35-7.44,14.25-.05,1.08.46,2.52-.06,3.16-.66.81-2.03-.18-3.12-.14-.3.01-.61-.03-.92-.05-.85-.05-1.47.22-1.5,1.17-.03.9.49,1.33,1.33,1.43,1.21.15,2.42.29,3.64.43.79.09,1.23.33,1.43,1.28.41,1.96,1.02,3.89,1.66,5.79.69,2.06,1.53,2.19,3.08.62Zm7.31,11.81c-.1-1.66-.95-2.56-2.29-2.95-6.21-1.82-11.8-.43-16.84,3.45-1.18.91-2.26,2.09-1.77,3.75.49,1.65,2,2.35,3.52,2.57,5.51.81,10.67-.2,15.23-3.54,1.12-.82,2.08-1.9,2.15-3.28Zm82.36-24.76c-4.62.15-8.94,1.17-12.38,4.51-2.4,2.33-1.67,4.97,1.57,5.81,3.34.87,6.65.39,9.92-.46,2.28-.6,4.32-1.7,6.14-3.17,2.73-2.2,2.29-4.84-.92-6.13-1.41-.56-2.86-.54-4.34-.57Zm-100.05-22.58c-.07.9.08,1.53.93,1.68.86.15,1.41-.23,1.64-1.08.45-1.7,1.38-3.11,2.57-4.37,3.73-3.94,8.46-5.12,13.66-4.82,1.65.1,3.17.85,4.53,1.84.81.59,1.59.72,2.2-.21.6-.91-.03-1.52-.7-1.98-.95-.66-1.96-1.21-3.06-1.61-6.01-2.18-14.17.06-18.73,5.16-1.44,1.62-2.59,3.39-3.03,5.39Zm64.63-15.22c2.4.13,5.16-.32,7.87-1.15,2.53-.77,4.88-1.91,6.84-3.73.71-.66,1.37-1.39.56-2.34-.87-1.02-1.6-.35-2.3.34-1.01,1-2.2,1.77-3.51,2.3-6.78,2.74-13.54,2.82-20.21-.38-.88-.42-1.72-.94-2.35.17-.72,1.25.3,1.74,1.18,2.2,3.59,1.9,7.44,2.66,11.92,2.59Zm.08,92.25c.1-1-.42-1.35-.92-1.7-2.14-1.5-5.62-1.13-7.57.8-.56.55-.98,1.13-.36,1.89.64.78,1.35.72,2.06.13,1.53-1.25,3.07-1.49,4.83-.36.97.62,1.72.11,1.94-.76Zm-11.03-36.53c-.26-.92-.58-2.22-.99-3.49-.25-.78-.92-.98-1.64-.73-.64.22-1,.76-.85,1.43.27,1.25.6,2.49.99,3.7.23.71.81,1.05,1.58.83.68-.19,1-.65.91-1.75Z"/>
    <path class="cls-3" d="m137.55,216.27c6.57,5.94,10.61,13.48,13.53,21.68,2.79,7.84,4.51,15.93,5.26,24.24.27,2.97.69,5.93.71,8.93,0,.94-.16,1.68-1.29,1.4-4.24-1.06-7.53.49-10.25,3.66-.19.22-.44.39-.71.63-3.22-9.85-8.63-18.22-15.83-25.47-.94-.95-.83-1.55-.22-2.63,3.06-5.47,5.65-11.15,5.82-17.56.1-3.76-2.37-5.25-5.67-3.56-4.12,2.11-6.71,5.78-9.4,9.35-.84,1.12-1.6,2.32-2.3,3.53-.4.7-.67.76-1.39.32-2.66-1.61-5.35-3.2-8.25-4.37-1-.4-1.32-1.07-1.3-2.13.06-3.06.02-6.13.02-9.2,0-1.05.14-2.24-1.24-2.51-1.37-.27-1.52,1.03-1.9,1.85-1.43,3.11-2.84,6.24-4.11,9.41-.45,1.12-1.17,1.43-2.2,1.56-11.57,1.42-22.71,4.43-33.41,9.09-7.38,3.22-14.27,7.22-20.53,12.3-9.78,7.93-16.54,17.88-20.1,29.99-1.1,3.75-1.62,7.62-2.17,11.47-.28,2.01.1,4.02.53,5.99.09.42.3.88-.06,1.21-.32.29-.69-.05-1-.2-2.9-1.37-5.77-1.32-8.64.08-.17-.52-.36-1.04-.51-1.57-3.03-10.66-4.03-21.46-2.59-32.5,1.19-9.13,3.77-17.8,7.83-26.05.61-1.24,1.25-1.94,2.76-1.71,1.63.24,3.29.28,4.94.31,6.49.12,12.97-.19,19.4-1.09,6.13-.86,12.14-2.27,17.84-4.76.91-.4,2.43-.72,2.21-1.84-.27-1.36-1.85-1.07-2.98-1.1-4.46-.12-8.9.39-13.38.13-5.7-.32-11.33-.91-16.85-2.35-1.5-.39-3.77-.43-4.16-1.73-.32-1.06,1.59-2.38,2.65-3.47,7.74-8.05,16.76-14.27,27-18.69,10.68-4.6,21.78-7.21,33.49-7.01,5.94.1,11.64,1.22,17.17,3.33,0,0-.02-.01-.02-.01.13.36.44.39.76.38,0,0-.02-.01-.02-.01,2.25,1.54,4.72,2.82,6.45,5.03.3.38.69.44,1.15.4,7.47-.69,14.42,1.11,21.05,4.44.48.24.92.64,1.54.44,0,0-.01-.01-.01-.01-.03.28.13.37.37.4Z"/>
    <path class="cls-16" d="m157.51,405.38c1.24,4.84,1.34,9.8,1.23,14.74-.25,11.14-1.38,22.2-3.92,33.08-.71,3.04-1.61,6.03-3.59,8.52-2.53,3.17-5.99,4.49-9.93,4.76-7.42.52-14.38-1.64-21.29-3.85-12.82-4.09-25.28-9.14-37.64-14.46-1.04-.45-1.49-1.01-1.64-2.1-.68-4.93,1.99-10.71,6.81-12.32.63.65,1.51.32,2.26.52,9.96,2.76,19.92,5.5,29.91,8.14,2.95.78,5.89,1.76,9.01,1.67,2.27.67,4.53,1.35,6.8,2.01.71.21,1.47.46,2.06-.19.59-.65.49-1.33-.2-1.91-.32-.27-.21-.53.06-.75.4-.33.69-.71,1.41-.54,1.53.37,3.11.57,4.68.78,2.22.3,4.4.18,6.43-.85,2.06-1.04,2.48-2.28,1.44-4.31-.3-.58-.22-.73.24-1.13,2.03-1.8,1.9-3.76-.39-5.19-.94-.58-1.43-.93-.86-2.18.59-1.29-.19-2.4-1.35-3.05-1.27-.71-2.6-1.32-3.94-1.89-.82-.35-1.06-.74-.8-1.66,1.04-3.69,1.95-7.41,3-11.09.3-1.06.21-1.93-.85-2.23-1.07-.31-1.47.58-1.7,1.47-.97,3.64-1.92,7.29-2.92,10.93-.17.6-.09,1.44-1.32,1.19-8.94-1.87-15.77,1.95-21.69,8.18-.33.35-.71.66-1.06.99-1.52-.09-2.92.58-4.41.7.65-6.76,1.3-13.51,1.93-20.27.12-1.25.58-2.33,1.25-3.38,5.02-7.84,10.75-15.15,16.64-22.34,1.26.02,2.32.68,3.45,1.11,5.73,2.18,11.18,4.8,15.4,9.47,2.08,2.31,3.58,5.02,5.5,7.44Z"/>
    <path class="cls-16" d="m78.43,448.4c.38.98,1.16,1.47,2.1,1.86,6.62,2.75,13.23,5.52,20.01,8.36-4.98,2.01-9.93,3.65-14.95,5.1-7.86,2.26-15.78,4.17-23.98,4.76-2.1.15-4.17.02-6.22-.29-4.48-.68-7.54-3.19-9.1-7.5-1.08-2.98-2.11-5.96-2.54-9.11-.16-.66.48-1.53-.52-1.97,0,0,.08,0,.08,0,.02-.73.15-1.48.03-2.19-1.14-6.98-1.32-14.05-1.72-21.09-.28-4.99.16-9.98.62-14.97.69-7.34,3.71-13.05,10.01-17.11,3.77-2.42,7.83-4.19,11.78-6.2,6.05,7.36,11.95,14.83,17.06,22.89.91,1.43,1.32,2.96,1.47,4.63.38,4.2.85,8.39,1.28,12.59.04.36,0,.72,0,1.17-1.81-.66-3.51-1.27-5.21-1.91-2.47-.92-4.9-.65-7.33.18-3.7,1.25-6.86,3.4-9.86,5.84-.58-1.77-2.41-1.82-3.66-2.67-1.37-5.99-2.74-11.97-4.1-17.96-.2-.88-.44-1.85-1.45-1.82-1.21.04-1.52.84-1.24,2.07,2.08,9.2,4.04,18.42,6.19,27.6.37,1.59-.09,2-1.43,2.2-1.56.24-2.85,1.03-4,2.06-.65.58-1.36,1.23-.61,2.16.78.97,1.58.62,2.33-.13.17-.16.4-.26.6-.39.14.1.33.31.42.27,3.31-1.31,5.78.08,7.95,2.44.46.5.97.62,1.64.54,4.77-.58,9.53-1.22,14.33-1.43Z"/>
    <path class="cls-27" d="m106.31,205.22c-5.53-2.12-11.24-3.23-17.17-3.33-11.71-.21-22.81,2.41-33.49,7.01-10.24,4.41-19.26,10.64-27,18.69-1.05,1.09-2.96,2.41-2.65,3.47.39,1.3,2.65,1.34,4.16,1.73,5.52,1.44,11.15,2.03,16.85,2.35,4.48.25,8.92-.25,13.38-.13,1.12.03,2.71-.26,2.98,1.1.22,1.12-1.31,1.44-2.21,1.84-5.7,2.49-11.71,3.9-17.84,4.76-6.43.9-12.91,1.22-19.4,1.09-1.65-.03-3.31-.07-4.94-.31-1.51-.22-2.15.48-2.76,1.71-4.07,8.25-6.65,16.92-7.83,26.05-1.43,11.03-.44,21.84,2.59,32.5.15.53.34,1.05.51,1.57q-1.86,1.36-2.74-.75c-3.54-8.44-5.49-17.22-5.85-26.37-.8-20.17,4.85-38.26,17.94-53.71,10.63-12.54,24.23-20.64,39.98-25.18,8-2.31,16.17-3.43,24.48-2.88,6.78.44,13.36,1.81,18.86,6.22.87.69,1.95,1.29,2.17,2.57Z"/>
    <path class="cls-9" d="m82.95,392.7c10.93,4.15,21.34,4.04,31.73-1.01-.4,4.25-.77,8.36-1.18,12.46-.55,5.66-1.14,11.31-1.69,16.97-.42,4.32-.85,8.64-1.17,12.97-.11,1.46-.73,1.42-1.83,1.08-4.46-1.4-8.96-2.68-13.4-4.13-2.84-.93-5.62-.95-8.63-.02-1.27-12.69-2.54-25.37-3.83-38.31Z"/>
    <path class="cls-3" d="m136.3,349.26c.52-1.89,2.06-3,3.15-4.43,4.9-6.36,8.2-13.41,9.5-21.36.43-2.59.81-5.18.72-7.82-.02-.72.25-1.16.89-1.43,3.21-1.34,6.2-3.04,8.99-5.59,1.06,12.95,2.76,25.61-1.81,38.43-2.12-4.06-4.02-7.69-5.91-11.32-.37-.71-.66-1.44-1.7-1.39-1.14.06-1.09.91-1.32,1.66-2.02,6.44-6.66,10.41-12.53,13.24Z"/>
    <path class="cls-9" d="m105.38,486.38c-4.36,0-8.71,0-13.07,0-.66-3.05-.69-6.17-1.08-9.25-.4-3.15-.64-6.31-1.03-9.46-.2-1.61-.27-2.68,1.87-3.26,3.85-1.04,7.55-2.63,11.3-4.01,2.53-.93,4.5.64,4.23,3.2-.62,5.83-1.12,11.67-1.68,17.51-.17,1.76-.36,3.52-.54,5.27Z"/>
    <path class="cls-5" d="m156.83,282.46c.5-1.45-.16-2.07-1.54-2.18-1.71-.13-3.06.62-4.28,1.72-1.76,1.61-2.71,3.72-3.75,6.15-.47-2.2-.97-4.09-1.27-6.02-.45-2.9,3.06-6.36,5.91-6.79,2.67-.4,4.93-.13,7.07,1.39,3.01,2.14,4.46,5.27,5.29,8.73,2.56,10.66-3.89,22.29-14.45,26-.14-2.8-.28-5.58-.42-8.35,1.14.02,2.2-.31,3.12-.93,3.96-2.66,7.87-9.69,6.65-15.98-.29-1.48-.82-2.96-2.34-3.75Z"/>
    <path class="cls-5" d="m28.89,331.63c.83,1.9,1.64,3.81,2.49,5.69.3.67.43.91-.54,1.17-2.7.73-5.23.05-7.67-.82-8.88-3.16-14.22-9.4-15.71-18.76-.72-4.56,1.43-9.01,5.05-10.97,3.16-1.71,7.57-.88,9.59,2.04,1.12,1.61,1.07,3.69,1.67,5.89-1.34-.88-2.35-1.62-3.43-2.23-1.92-1.08-3.94-1.67-6.11-.71-.74.33-1.47.72-1.41,1.7.05.91.71,1.21,1.48,1.37-.53.63-.72,1.35-.75,2.19-.11,2.78.83,5.22,2.6,7.24,3.34,3.83,7.23,6.74,12.74,6.2Z"/>
    <path class="cls-5" d="m104.63,373.96c.12.9.23,1.81.36,2.71.13.92.44,1.74,1.59,1.54,1.09-.19,1.24-1.01,1.09-1.96-.03-.22-.23-.46.19-.79,2.42.76,4.95,1.56,7.48,2.35.32.1.5.29.59.62.51,1.81-.42,4.01-2.12,4.86-3.77,1.89-7.69,3.31-11.94,3.65-2.57-.52-5.13-.53-7.7,0-3.99-.29-7.79-1.37-11.34-3.16-1.57-.79-.84-2.59-1.14-3.92-.28-1.25.97-1.04,1.59-1.28,1.12-.45,2.32-.7,3.49-1.03,1.19,1.28,2.63,1.16,4.12.74.35,0,.7.01,1.04.02.63.39,1.33.26,1.97.18,4.02-.45,7.8-1.5,10.74-4.54Z"/>
    <path class="cls-32" d="m135.65,433.87c-1.83.67-3.65,1.36-5.24,2.51-.67.48-1.3,1.07-.7,1.98.61.93,1.35.76,2.19.21,5.96-3.9,10.82-2.95,17.34,1.31-1.28,1.16-2.86.96-4.33.95-2.02,0-4.03-.26-5.97-.84-1.1-.33-1.97-.14-2.75.78-1.34,1.58-2.85,2.01-5.01,1.24-4.56-1.63-9.24-2.89-13.94-4.32,8.93-11.77,18.15-15.45,30.52-8.56-.4,1-1.06.84-1.91.59-3.39-.97-6.75-2.08-10.38-1.93-3.49.15-6.31,1.71-8.87,3.9-.63.54-.87,1.24-.34,1.94.54.72,1.31.72,1.92.15,5.57-5.29,11.64-3.22,17.68-1.21,1.54.51,3.18.88,4.54,2.14-1.22,1.01-2.45,1.08-3.85.56-1.65-.62-3.34-1.12-5.02-1.67-1.3-1.01-4.24-.87-5.9.27Z"/>
    <path class="cls-32" d="m83.92,432.55c-3.29,2.59-5.29,5.81-5.78,9.89-.07.58-.37.78-.96.85-4.5.5-9.01.77-13.53.87-1.23.03-2.69-.46-3.26-1.6-.64-1.26-.81-2.68.28-4.09,3.33-4.31,7.56-7.21,12.76-8.7,1.29-.37,2.66-.3,3.99.06,2.23.6,4.31,1.55,6.5,2.72Z"/>
    <path class="cls-3" d="m30.11,341.76c2.32-.74,3.61.15,4.77,2.3,5.79,10.8,14.68,18.06,26.14,22.26.15.05.27.16.63.39-3.41.01-6.55.23-9.67-.65-1.44-.41-2.74-.99-3.94-1.86-.98-.71-1.83-.51-2.16.61-.82,2.74-3.13,3.91-5.28,5.27-.95-5.74-2.8-11.21-4.91-16.62-1.58-4.05-3.73-7.8-5.59-11.7Z"/>
    <path class="cls-2" d="m64.03,388.06c-3.95,2.02-8.01,3.78-11.78,6.2-6.31,4.06-9.33,9.77-10.01,17.11-.47,4.99-.9,9.98-.62,14.97.4,7.04.58,14.11,1.72,21.09.12.71-.02,1.46-.03,2.19-1.44-4.91-2.11-9.98-2.78-15.03-1.01-7.63-1.62-15.3-1.21-23.03.49-9.12,4.24-16.25,12.12-21.09,3.08-1.89,6.41-3.2,9.73-4.54.73-.29,1.27-.17,1.7.5.36.56.78,1.09,1.17,1.63Z"/>
    <path class="cls-24" d="m131.97,231.85c-.99,6.45-3.28,12.56-7.27,17.97-1.25,1.69-2.22,1.78-4.13.77-3.84-2.04-4.04-2.44-2.2-6.35,2.39-5.1,5.68-9.55,10.04-13.16.37-.31.79-.58,1.2-.83.57-.34,1.25-.97,1.81-.62.6.38.54,1.3.55,2.22Z"/>
    <path class="cls-16" d="m79.21,382.82c.4,3.7.83,7.4,1.21,11.1.45,4.37.85,8.75,1.14,13.19-4.75-6.78-9.95-13.21-14.97-19.76,2.19-.9,4.45-1.61,6.7-2.36,1.99-.67,4.22-.72,5.92-2.17Z"/>
    <path class="cls-1" d="m156.83,282.46c1.52.79,2.05,2.27,2.34,3.75,1.22,6.28-2.69,13.32-6.65,15.98-.92.62-1.98.94-3.12.93-.35-2.77-.69-5.55-1.06-8.32-.15-1.14.43-2.11.68-3.15.5-2.06,1.2-4.08,2.35-5.9,1.04-1.64,2.24-3.06,4.49-2.86.31.03.65-.28.97-.43Z"/>
    <path class="cls-16" d="m130.93,386.27c-5,6.52-10.19,12.89-14.98,20.07.73-7.57,1.43-14.7,2.1-21.84.05-.57.21-1.07.42-1.58.99-.06,1.93.11,2.88.41,3.19,1,6.4,1.96,9.6,2.94Z"/>
    <path class="cls-1" d="m28.89,331.63c-5.51.54-9.39-2.38-12.74-6.2-1.76-2.02-2.71-4.46-2.6-7.24.03-.84.22-1.55.75-2.19,1.34-1.15,2.85-1.12,4.24-.29,3.49,2.08,6.6,4.51,7.81,8.7.71,2.45,1.67,4.82,2.53,7.22Z"/>
    <path class="cls-9" d="m82.33,386.58c11.23,4.62,22.06,4.5,32.71-.95.23,3.33.24,3.34-2.82,4.7-9.37,4.14-18.79,3.97-28.25.32-1.97-.76-1.35-2.42-1.64-4.06Z"/>
    <path class="cls-27" d="m137.2,215.88c-.61.2-1.06-.2-1.54-.44-6.63-3.33-13.58-5.13-21.05-4.44-.46.04-.85-.02-1.15-.4-1.73-2.21-4.19-3.49-6.45-5.03,10.4-1.23,19.55,1.88,27.77,8.1.86.65,1.85,1.2,2.41,2.21Z"/>
    <path class="cls-1" d="m104.63,373.96c-2.93,3.04-6.71,4.09-10.74,4.54-.65.07-1.35.21-1.97-.18,1.43-1.34.95-3.19,1.25-4.81.68-3.7.64-3.69,4.25-4.42,1.79-.36,3.58-.73,5.35-1.16.88-.21,1.32-.17,1.36.94.06,1.7.32,3.4.5,5.1Z"/>
    <path class="cls-27" d="m30.11,341.76c1.86,3.9,4.01,7.66,5.59,11.7,2.11,5.41,3.96,10.88,4.91,16.62-1.27,1.16-2.79,1.88-4.59,2.7.88-11.29-3.09-21.21-7.39-31.19.58.06,1.03.12,1.48.17Z"/>
    <path class="cls-2" d="m157.51,405.38c-1.91-2.42-3.41-5.13-5.5-7.44-4.22-4.68-9.67-7.29-15.4-9.47-1.13-.43-2.19-1.09-3.45-1.11,2.63-3.43,1.44-3.13,5.45-1.56,6.45,2.53,12.25,6.04,15.99,12.17,1.4,2.29,2.49,4.73,2.91,7.42Z"/>
    <path class="cls-2" d="m128.72,444.07c-3.12.09-6.06-.89-9.01-1.67-9.99-2.64-19.95-5.38-29.91-8.14-.75-.21-1.62.13-2.26-.52,1.74-1.04,3.71-1.15,5.49-.61,11.92,3.57,23.8,7.28,35.69,10.94Z"/>
    <path class="cls-2" d="m78.43,448.4c-4.8.21-9.57.85-14.33,1.43-.68.08-1.19-.05-1.64-.54-2.17-2.36-4.64-3.75-7.95-2.44-.09.04-.28-.17-.42-.27,2.3-1.86,4.73-1.6,7.14-.31.78.42,1.5.74,2.4.67,4.38-.37,8.79-.37,13.15-.98,2.16-.3,1.23,1.55,1.66,2.45Z"/>
    <path class="cls-2" d="m130.93,386.27c-3.2-.98-6.41-1.93-9.6-2.94-.95-.3-1.89-.46-2.88-.41-.33-4.16-.33-4.18,3.46-2.92,3.65,1.21,7.29,2.46,11.13,3.76-.8.95-1.46,1.73-2.12,2.51Z"/>
    <path class="cls-2" d="m79.21,382.82c-1.7,1.45-3.94,1.51-5.92,2.17-2.25.75-4.5,1.46-6.7,2.36q-2.26-2.58.85-3.62c3.78-1.25,7.56-2.48,11.55-3.79.08,1.02.15,1.95.22,2.88Z"/>
    <path class="cls-17" d="m57.79,430.77c1.25.85,3.08.9,3.66,2.67-.79.9-1.57,1.81-2.55,2.92-.4-2.01-.76-3.8-1.11-5.6Z"/>
    <path class="cls-17" d="m113.34,433.34c1.49-.11,2.89-.79,4.41-.7-.95,1.18-1.93,2.34-2.84,3.56-.42.56-.89.55-1.44.36-.69-.24-.37-.76-.32-1.22.08-.66.12-1.33.18-2Z"/>
    <path class="cls-1" d="m90.88,378.3c-1.49.42-2.93.54-4.12-.74.1-.05.2-.12.31-.16,1.46-.53,3.06-1.6,3.8.9Z"/>
    <path class="cls-32" d="m94.16,386.95c2.57-.53,5.13-.52,7.7,0-2.57.4-5.13.48-7.7,0Z"/>
    <path class="cls-5" d="m135.65,433.87c1.66-1.14,4.6-1.28,5.9-.27-1.99-.53-3.94-.03-5.9.27Z"/>
    <path class="cls-2" d="m43.22,449.61c1,.44.36,1.31.52,1.97-.48-.57-.33-1.32-.52-1.97Z"/>
    <path class="cls-27" d="m107.04,205.59c-.32,0-.62-.03-.76-.38.37-.09.63,0,.76.38Z"/>
    <path class="cls-27" d="m137.55,216.27c-.24-.02-.4-.12-.37-.4.24.03.37.15.37.4Z"/>
    <path class="cls-19" d="m67.68,293.56c3.04,4.76,4.73,9.9,4.39,15.6-.22,3.74-1.29,7.23-3.63,10.2-3.83,4.86-10.5,5.3-15.5,1.25-2.03-1.64-3.42-3.78-5.06-5.73-.05-1.79-.93-3.37-1.33-5.07-1.2-5.08-2.01-10.14.24-15.16.33.27.55.99,1.13.38.83-.88,1.93-1.32,2.96-1.78,1.82-.82,3.52-2.2,5.74-1.63-2.62,2.09-3.69,4.95-3.78,8.18-.14,5.52,1.23,10.54,5.66,14.21,3.34,2.77,7.26,2.12,9.54-1.54,2.82-4.53,2.11-9.23.42-14.21-.76,1.53-1.63,2.51-3.19,2.08-1.34-.37-2.04-1.47-1.95-2.77.14-1.93,1.63-2.4,3.52-2.27-2.16-2.81-4.49-4.7-7.94-4.68-.03-.05-.08-.1-.09-.16,0-.05.02-.15.05-.15,1.64-.37,3.22.62,4.87.23.7.15,1.07.76,1.57,1.18.76.65,1.19,1.74,2.37,1.85Z"/>
    <path class="cls-19" d="m126.18,296.44c-.44,2.78-.95,5.51-2.32,8.04-3.73,6.9-11.59,8.27-17.42,3.01-5.01-4.52-7.36-10.21-7.53-16.87-.03-1.1,0-2.2.02-3.3.48-.48.7-1.03.79-1.74.19-1.48.6-2.93,1.5-4.17,1.33.69,1.95-1.31,3.22-.86-1.85,1.47-2.83,3.41-3.37,5.69-.45,1.89-.44,3.79-.24,5.65.44,4.26,2.08,8.04,5.44,10.8,4.03,3.32,8.28,2.23,10.31-2.58,1.87-4.44,1.35-8.84-.66-13.57-.46,2.18-1.65,3-3.41,2.49-1.12-.32-1.86-1.34-1.72-2.53.25-2.04,1.83-2.4,3.88-2.17-2.33-2.9-4.59-5.1-8.33-4.56.12-.41.41-.54.81-.58,3.35-.34,6.66-1.31,10.06-.4.54.14,1.08-.04,1.57-.33,2.97,2.57,4.36,6.04,5.56,9.65.91,2.72.95,5.62,1.85,8.33Z"/>
    <path class="cls-30" d="m126.18,296.44c-.9-2.71-.94-5.61-1.85-8.33-1.2-3.61-2.59-7.08-5.56-9.65-4.74-5.22-14.54-3.36-17.56,2.94-.9,1.25-1.3,2.69-1.5,4.17-.09.71-.31,1.26-.79,1.74-1.97.2-2.48-.4-2.16-2.6.83-5.76,6-11.09,11.76-12.15,6.16-1.13,10.83,1.34,14.54,6.07,1.13,1.44,2.12,3.01,2.7,4.75.49,1.46,1.1,1.4,2.1.54.55-.48,1.18-.88,1.81-1.24.64-.37,1.36-.41,1.81.25.46.68.45,1.62-.35,1.9-4.53,1.6-3.49,4.9-2.65,8.19.14.53.21,1.08.24,1.63.1,2-.63,2.51-2.54,1.8Z"/>
    <path class="cls-30" d="m46.79,294.65c-2.25,5.02-1.45,10.08-.24,15.16.4,1.7,1.29,3.28,1.33,5.07-1.56,1.57-2.39,1.44-3.08-.62-.64-1.9-1.25-3.83-1.66-5.79-.2-.95-.64-1.19-1.43-1.28-1.21-.13-2.43-.28-3.64-.43-.84-.1-1.37-.54-1.33-1.43.03-.96.65-1.23,1.5-1.17.31.02.61.06.92.05,1.09-.04,2.46.95,3.12.14.52-.64.01-2.08.06-3.16.28-5.9,1.97-11.09,7.44-14.25,5.97-3.44,14.06-1.87,18.41,3.47,1.28,1.57,1.21,1.96-.5,3.16-1.18-.11-1.61-1.2-2.37-1.85-.5-.43-.86-1.03-1.57-1.18-5.7-4.56-13.92-2.56-16.95,4.12Z"/>
    <path class="cls-15" d="m55.19,326.69c-.07,1.38-1.03,2.46-2.15,3.28-4.56,3.34-9.72,4.34-15.23,3.54-1.53-.22-3.03-.92-3.52-2.57-.49-1.65.59-2.84,1.77-3.75,5.04-3.88,10.63-5.27,16.84-3.45,1.34.39,2.19,1.29,2.29,2.95Z"/>
    <path class="cls-15" d="m137.55,301.93c1.48.03,2.93,0,4.34.57,3.21,1.29,3.64,3.93.92,6.13-1.82,1.47-3.85,2.57-6.14,3.17-3.28.86-6.58,1.34-9.92.46-3.25-.85-3.97-3.48-1.57-5.81,3.44-3.35,7.76-4.36,12.38-4.51Z"/>
    <path class="cls-30" d="m37.5,279.35c.44-2,1.59-3.77,3.03-5.39,4.56-5.1,12.72-7.34,18.73-5.16,1.1.4,2.11.96,3.06,1.61.67.46,1.3,1.07.7,1.98-.61.93-1.39.8-2.2.21-1.35-.99-2.88-1.75-4.53-1.84-5.2-.3-9.93.88-13.66,4.82-1.19,1.26-2.12,2.67-2.57,4.37-.22.84-.77,1.23-1.64,1.08-.86-.15-1.01-.78-.93-1.68Z"/>
    <path class="cls-30" d="m102.13,264.12c-4.48.07-8.33-.7-11.92-2.59-.88-.46-1.9-.95-1.18-2.2.64-1.11,1.48-.59,2.35-.17,6.67,3.2,13.43,3.12,20.21.38,1.31-.53,2.5-1.3,3.51-2.3.7-.69,1.43-1.36,2.3-.34.81.95.15,1.68-.56,2.34-1.96,1.83-4.31,2.96-6.84,3.73-2.71.83-5.47,1.28-7.87,1.15Z"/>
    <path class="cls-30" d="m102.21,356.37c-.23.87-.97,1.38-1.94.76-1.77-1.13-3.3-.89-4.83.36-.72.59-1.43.65-2.06-.13-.63-.77-.2-1.34.36-1.89,1.95-1.93,5.42-2.3,7.57-.8.5.35,1.02.71.92,1.7Z"/>
    <path class="cls-30" d="m91.18,319.84c.09,1.09-.23,1.56-.91,1.75-.78.22-1.35-.12-1.58-.83-.39-1.21-.72-2.45-.99-3.7-.15-.67.21-1.22.85-1.43.72-.24,1.39-.05,1.64.73.41,1.27.74,2.57.99,3.49Z"/>
    <path class="cls-23" d="m58.91,290.62c3.45-.02,5.78,1.87,7.94,4.68-1.89-.14-3.38.34-3.52,2.27-.1,1.3.61,2.39,1.95,2.77,1.56.44,2.43-.54,3.19-2.08,1.69,4.98,2.39,9.67-.42,14.21-2.28,3.66-6.2,4.31-9.54,1.54-4.43-3.67-5.8-8.69-5.66-14.21.08-3.23,1.15-6.08,3.78-8.18.76-.33,1.53-.67,2.29-1Z"/>
    <path class="cls-13" d="m58.91,290.62c-.76.33-1.53.67-2.29,1-2.22-.57-3.92.81-5.74,1.63-1.03.47-2.14.91-2.96,1.78-.58.61-.8-.11-1.13-.38,3.03-6.68,11.25-8.68,16.95-4.12-1.65.39-3.23-.59-4.87-.23-.03,0-.06.1-.05.15,0,.06.06.11.09.16Z"/>
    <path class="cls-23" d="m106.32,279.77c3.74-.54,6,1.66,8.33,4.56-2.05-.22-3.63.13-3.88,2.17-.14,1.19.6,2.21,1.72,2.53,1.75.5,2.95-.31,3.41-2.49,2.01,4.74,2.53,9.13.66,13.57-2.03,4.81-6.28,5.9-10.31,2.58-3.36-2.77-5-6.55-5.44-10.8-.19-1.86-.21-3.76.24-5.65.54-2.28,1.53-4.22,3.37-5.69.63-.26,1.26-.52,1.89-.78Z"/>
    <path class="cls-13" d="m106.32,279.77c-.63.26-1.26.52-1.89.78-1.27-.46-1.89,1.54-3.22.86,3.01-6.31,12.82-8.17,17.56-2.94-.49.29-1.03.47-1.57.33-3.4-.91-6.72.05-10.06.4-.4.04-.69.18-.81.58Z"/>
  </g>
  <g>
    <path class="cls-29" d="m102.95,92.23c0-5.78,1.54-11.52,4.24-16.63.18-.35.39-.7.56-1.05.67-1.12,1.37-2,2.84-2,1.29,0,2.94.98,2.94,2.87,0,.63-.28,1.3-.59,1.86-.31.52-.67,1.05-.91,1.54-2,3.82-3.33,8.89-3.33,13.37,0,2.66.63,5.39,2.14,7.39.03.04.07.1.14.14l.07.07c.21.1.46.21.67.28.21.1.46.25.7.39.56.49.91,1.47.91,2.21,0,1.75-1.58,2.87-2.83,2.87-3.33,0-5.53-3.99-6.58-7-.7-2.03-.94-4.2-.94-6.3Z"/>
    <path class="cls-29" d="m115.76,89.53c0-1.89,1.54-2.94,2.91-2.94h3.36c-.07-1.3-.14-2.56-.14-3.82,0-.35,0-.7.03-1.05.21-1.54,1.79-2.38,2.84-2.38,1.33,0,2.87,1.05,2.87,2.91,0,.91.04,1.89.07,2.8.03.52.07,1.01.07,1.47.35-.03.67-.07,1.02-.1.21-.03.42-.07.6-.1.25-.07.46-.1.7-.1,1.4,0,2.87,1.05,2.87,2.98,0,2.56-2.94,3.12-4.94,3.12.04.1.04.17.04.28.1,1.4,0,2.8.17,4.24,0,.07,0,.11.04.14,0,.07.04.14.07.21.04.14.07.32.07.56,0,1.89-1.47,2.94-2.84,2.94s-2.8-.91-3.01-2.7c-.14-1.05-.14-2.14-.18-3.22l-.1-2.38h-3.61c-1.33,0-2.91-.98-2.91-2.83Z"/>
    <path class="cls-29" d="m141.06,95.59c.18-.52.46-1.12.7-1.68.28-.49.56-1.05.84-1.58,1.16-2.31,2.35-4.59,3.47-6.93.77-1.61,1.5-3.19,2.03-4.9-1.86.21-3.78.35-5.67.35-.91,0-1.82-.04-2.7-.1-.42-.04-.88-.17-1.29-.17-.14,0-.28.07-.42.07-1.4,0-2.87-1.19-2.87-3.05s1.44-2.94,2.8-2.94c.77,0,1.5.25,2.24.32.81.07,1.65.1,2.45.1,2.17,0,4.27-.32,6.44-.49.31-.04.63-.07.91-.07,2.17,0,4.3,1.15,4.3,4.2,0,3.92-4.62,12.6-6.58,16.14-.18.35-.95,1.79-.95,2.14-.04.1-.04.17-.04.25-.04.25-.14.46-.35.88-.63.94-1.68,1.51-2.66,1.51-1.33,0-2.87-1.09-2.87-2.91,0-.42.07-.77.21-1.12Z"/>
    <path class="cls-29" d="m160.24,101.01c1.26-2.1,2.03-4.45,2.03-7.04,0-2-.35-3.89-.88-5.74-.56-1.85-1.29-3.64-2-5.43-.32-.74-.56-1.54-.88-2.28-.28-.77-.6-1.47-.91-2.17-.04-.03-.07-.1-.11-.14-.38-.52-.67-1.01-.67-1.82,0-1.82,1.54-2.94,2.87-2.94,1.02,0,1.89.56,2.56,1.33.14.21.25.39.32.6.07.14.14.35.21.49.7,1.68,1.37,3.33,2.03,5.01,1.64,4.1,3.25,8.37,3.25,13.06,0,1.26-.14,2.56-.38,3.75-.42,1.93-1.89,6.3-3.47,7.35-.49.31-1.01.52-1.58.52-1.29,0-2.91-1.15-2.91-2.98,0-.6.17-1.08.49-1.58Z"/>
    <path class="cls-29" d="m179.39,89.92c0-1.96,1.58-2.84,2.98-2.84.67,0,1.37.07,2,.07,1.65,0,3.19-.21,4.8-.42.14-.03.28-.03.46-.03,1.33,0,2.87,1.05,2.87,2.94,0,1.65-1.26,2.66-2.45,2.83-1.93.35-3.89.53-5.85.53-.46,0-1.08,0-1.72-.07-1.71-.1-3.08-1.15-3.08-3.01Z"/>
    <path class="cls-29" d="m203.99,92.23c0-5.78,1.54-11.52,4.24-16.63.17-.35.38-.7.56-1.05.67-1.12,1.36-2,2.83-2,1.29,0,2.94.98,2.94,2.87,0,.63-.28,1.3-.6,1.86-.31.52-.67,1.05-.91,1.54-2,3.82-3.33,8.89-3.33,13.37,0,2.66.63,5.39,2.14,7.39.04.04.07.1.14.14l.07.07c.21.1.46.21.67.28.21.1.46.25.7.39.56.49.91,1.47.91,2.21,0,1.75-1.58,2.87-2.84,2.87-3.33,0-5.53-3.99-6.58-7-.7-2.03-.95-4.2-.95-6.3Z"/>
    <path class="cls-29" d="m216.7,89.92c0-1.96,1.58-2.84,2.98-2.84.67,0,1.37.07,2,.07,1.65,0,3.19-.21,4.8-.42.14-.03.28-.03.46-.03,1.33,0,2.87,1.05,2.87,2.94,0,1.65-1.26,2.66-2.45,2.83-1.93.35-3.89.53-5.85.53-.46,0-1.08,0-1.72-.07-1.71-.1-3.08-1.15-3.08-3.01Z"/>
    <path class="cls-29" d="m237.77,94.12c.63,0,1.26.21,1.79.63.07.04.1.07.1.1.04,0,.04.04.07.07.67-.03,2.07-.59,2.62-.98,1.08-.67,2.1-1.79,2.7-3.08-.63.1-1.29.14-1.92.14-3.89,0-11.97-1.19-11.97-7.81,0-3.68,3.15-6.86,5.71-8.19,1.47-.77,3.08-1.05,4.69-1.05,3.22,0,6.23,1.5,8.02,4.8,1.29,2.31,2.07,5.22,2.07,8.02,0,7.42-4.41,12.39-10.4,13.69-.63.14-1.26.25-1.89.25-1.54,0-4.48-.81-4.48-3.5,0-1.85,1.47-3.08,2.91-3.08Zm5.29-8.96c.88,0,1.79-.07,2.7-.25-.32-1.61-1.05-3.57-2.07-4.48-.59-.53-1.4-.7-2.21-.7-1.82,0-3.33,1.05-4.34,2.77-.17.25-.24.46-.24.7,0,1.58,5.08,1.96,6.16,1.96Z"/>
    <path class="cls-29" d="m256.63,101.01c1.26-2.1,2.03-4.45,2.03-7.04,0-2-.35-3.89-.88-5.74-.56-1.85-1.29-3.64-2-5.43-.32-.74-.56-1.54-.88-2.28-.28-.77-.6-1.47-.91-2.17-.04-.03-.07-.1-.11-.14-.38-.52-.67-1.01-.67-1.82,0-1.82,1.54-2.94,2.87-2.94,1.02,0,1.89.56,2.56,1.33.14.21.25.39.32.6.07.14.14.35.21.49.7,1.68,1.37,3.33,2.03,5.01,1.64,4.1,3.25,8.37,3.25,13.06,0,1.26-.14,2.56-.38,3.75-.42,1.93-1.89,6.3-3.47,7.35-.49.31-1.01.52-1.58.52-1.29,0-2.91-1.15-2.91-2.98,0-.6.17-1.08.49-1.58Z"/>
    <path class="cls-29" d="m276.2,85.26c0-1.93,1.47-2.91,3.22-2.91.49,0,.98.07,1.47.07,3.54,0,7.07-.35,10.64-.63l.21-.04c1.33,0,2.94,1.05,2.94,2.91,0,1.75-1.37,2.8-2.62,2.91-4.13.42-8.23.56-12.36.56-.25,0-.49.1-.74.1-1.33,0-2.77-1.23-2.77-2.98Zm.42,9.59c0-1.79,1.47-2.94,2.8-2.94.38,0,.67,0,1.01.18.11.03.18.07.21.07.67,0,1.33-.14,2-.21,1.61-.17,3.22-.42,4.83-.56,1.96-.21,3.89-.28,5.85-.28,1.29,0,2.94.95,2.94,2.87s-1.54,2.91-2.84,2.91c-1.89.04-3.75.07-5.63.25-2.31.25-4.59.63-6.9.8-.28.04-.52.07-.73.07-1.89,0-3.54-1.19-3.54-3.15Z"/>
    <path class="cls-29" d="m314.7,85.02c.67-.49,1.4-1.02,2.03-1.54.67-.56,1.19-1.05,1.5-1.68.11-.18.14-.32.14-.42s-.07-.28-.32-.42c-.63-.46-2.28-.73-3.01-.73-.77,0-1.79.52-2.42,1.15-.03.07-.07.14-.14.25-.04.04-.17.28-.21.35-.53.73-1.58,1.08-2.31,1.08-1.33,0-2.8-1.15-2.8-2.94,0-2.59,3.96-4.87,5.53-5.39.74-.25,1.54-.35,2.31-.35,3.33,0,9.1,1.72,9.1,6.97,0,2.77-1.79,4.94-3.4,6.41-.28.25-1.01.74-1.68,1.23-.63.49-1.19.91-1.29.98v.14c-.04.07-.04.14-.07.18-.42,1.26-1.68,2-2.7,2-1.5,0-2.98-1.23-2.98-3.15s1.37-3.05,2.7-4.1Zm-1.89,12.01c0-1.89,1.54-2.94,2.91-2.94,1.47,0,2.97,1.29,2.97,3.15,0,1.5-.98,2.56-2.38,2.91-.17.03-.32.07-.53.07-1.64,0-2.97-1.61-2.97-3.19Z"/>
    <path class="cls-29" d="m102.95,146.23c0-5.78,1.54-11.52,4.24-16.63.18-.35.39-.7.56-1.05.67-1.12,1.37-2,2.84-2,1.29,0,2.94.98,2.94,2.87,0,.63-.28,1.3-.59,1.86-.31.52-.67,1.05-.91,1.54-2,3.82-3.33,8.89-3.33,13.37,0,2.66.63,5.39,2.14,7.39.03.04.07.1.14.14l.07.07c.21.1.46.21.67.28.21.1.46.25.7.39.56.49.91,1.47.91,2.21,0,1.75-1.58,2.87-2.83,2.87-3.33,0-5.53-3.99-6.58-7-.7-2.03-.94-4.2-.94-6.3Z"/>
    <path class="cls-29" d="m115.76,143.53c0-1.89,1.54-2.94,2.91-2.94h3.36c-.07-1.3-.14-2.56-.14-3.82,0-.35,0-.7.03-1.05.21-1.54,1.79-2.38,2.84-2.38,1.33,0,2.87,1.05,2.87,2.91,0,.91.04,1.89.07,2.8.03.52.07,1.01.07,1.47.35-.03.67-.07,1.02-.1.21-.03.42-.07.6-.1.25-.07.46-.1.7-.1,1.4,0,2.87,1.05,2.87,2.98,0,2.56-2.94,3.12-4.94,3.12.04.1.04.17.04.28.1,1.4,0,2.8.17,4.24,0,.07,0,.11.04.14,0,.07.04.14.07.21.04.14.07.32.07.56,0,1.89-1.47,2.94-2.84,2.94s-2.8-.91-3.01-2.7c-.14-1.05-.14-2.14-.18-3.22l-.1-2.38h-3.61c-1.33,0-2.91-.98-2.91-2.83Z"/>
    <path class="cls-29" d="m141.06,149.59c.18-.52.46-1.12.7-1.68.28-.49.56-1.05.84-1.58,1.16-2.31,2.35-4.59,3.47-6.93.77-1.61,1.5-3.19,2.03-4.9-1.86.21-3.78.35-5.67.35-.91,0-1.82-.04-2.7-.1-.42-.04-.88-.17-1.29-.17-.14,0-.28.07-.42.07-1.4,0-2.87-1.19-2.87-3.05s1.44-2.94,2.8-2.94c.77,0,1.5.25,2.24.32.81.07,1.65.1,2.45.1,2.17,0,4.27-.32,6.44-.49.31-.04.63-.07.91-.07,2.17,0,4.3,1.15,4.3,4.2,0,3.92-4.62,12.6-6.58,16.14-.18.35-.95,1.79-.95,2.14-.04.1-.04.17-.04.25-.04.25-.14.46-.35.88-.63.94-1.68,1.51-2.66,1.51-1.33,0-2.87-1.09-2.87-2.91,0-.42.07-.77.21-1.12Z"/>
    <path class="cls-29" d="m160.24,155.01c1.26-2.1,2.03-4.45,2.03-7.04,0-2-.35-3.89-.88-5.74-.56-1.85-1.29-3.64-2-5.43-.32-.74-.56-1.54-.88-2.28-.28-.77-.6-1.47-.91-2.17-.04-.03-.07-.1-.11-.14-.38-.52-.67-1.01-.67-1.82,0-1.82,1.54-2.94,2.87-2.94,1.02,0,1.89.56,2.56,1.33.14.21.25.39.32.6.07.14.14.35.21.49.7,1.68,1.37,3.33,2.03,5.01,1.64,4.1,3.25,8.37,3.25,13.06,0,1.26-.14,2.56-.38,3.75-.42,1.93-1.89,6.3-3.47,7.35-.49.31-1.01.52-1.58.52-1.29,0-2.91-1.15-2.91-2.98,0-.6.17-1.08.49-1.58Z"/>
    <path class="cls-29" d="m179.39,143.92c0-1.96,1.58-2.84,2.98-2.84.67,0,1.37.07,2,.07,1.65,0,3.19-.21,4.8-.42.14-.03.28-.03.46-.03,1.33,0,2.87,1.05,2.87,2.94,0,1.65-1.26,2.66-2.45,2.83-1.93.35-3.89.53-5.85.53-.46,0-1.08,0-1.72-.07-1.71-.1-3.08-1.15-3.08-3.01Z"/>
    <path class="cls-29" d="m203.99,146.23c0-5.78,1.54-11.52,4.24-16.63.17-.35.38-.7.56-1.05.67-1.12,1.36-2,2.83-2,1.29,0,2.94.98,2.94,2.87,0,.63-.28,1.3-.6,1.86-.31.52-.67,1.05-.91,1.54-2,3.82-3.33,8.89-3.33,13.37,0,2.66.63,5.39,2.14,7.39.04.04.07.1.14.14l.07.07c.21.1.46.21.67.28.21.1.46.25.7.39.56.49.91,1.47.91,2.21,0,1.75-1.58,2.87-2.84,2.87-3.33,0-5.53-3.99-6.58-7-.7-2.03-.95-4.2-.95-6.3Z"/>
    <path class="cls-29" d="m216.7,143.92c0-1.96,1.58-2.84,2.98-2.84.67,0,1.37.07,2,.07,1.65,0,3.19-.21,4.8-.42.14-.03.28-.03.46-.03,1.33,0,2.87,1.05,2.87,2.94,0,1.65-1.26,2.66-2.45,2.83-1.93.35-3.89.53-5.85.53-.46,0-1.08,0-1.72-.07-1.71-.1-3.08-1.15-3.08-3.01Z"/>
    <path class="cls-29" d="m237.77,148.12c.63,0,1.26.21,1.79.63.07.04.1.07.1.1.04,0,.04.04.07.07.67-.03,2.07-.59,2.62-.98,1.08-.67,2.1-1.79,2.7-3.08-.63.1-1.29.14-1.92.14-3.89,0-11.97-1.19-11.97-7.81,0-3.68,3.15-6.86,5.71-8.19,1.47-.77,3.08-1.05,4.69-1.05,3.22,0,6.23,1.5,8.02,4.8,1.29,2.31,2.07,5.22,2.07,8.02,0,7.42-4.41,12.39-10.4,13.69-.63.14-1.26.25-1.89.25-1.54,0-4.48-.81-4.48-3.5,0-1.85,1.47-3.08,2.91-3.08Zm5.29-8.96c.88,0,1.79-.07,2.7-.25-.32-1.61-1.05-3.57-2.07-4.48-.59-.53-1.4-.7-2.21-.7-1.82,0-3.33,1.05-4.34,2.77-.17.25-.24.46-.24.7,0,1.58,5.08,1.96,6.16,1.96Z"/>
    <path class="cls-29" d="m256.63,155.01c1.26-2.1,2.03-4.45,2.03-7.04,0-2-.35-3.89-.88-5.74-.56-1.85-1.29-3.64-2-5.43-.32-.74-.56-1.54-.88-2.28-.28-.77-.6-1.47-.91-2.17-.04-.03-.07-.1-.11-.14-.38-.52-.67-1.01-.67-1.82,0-1.82,1.54-2.94,2.87-2.94,1.02,0,1.89.56,2.56,1.33.14.21.25.39.32.6.07.14.14.35.21.49.7,1.68,1.37,3.33,2.03,5.01,1.64,4.1,3.25,8.37,3.25,13.06,0,1.26-.14,2.56-.38,3.75-.42,1.93-1.89,6.3-3.47,7.35-.49.31-1.01.52-1.58.52-1.29,0-2.91-1.15-2.91-2.98,0-.6.17-1.08.49-1.58Z"/>
    <path class="cls-29" d="m276.2,139.26c0-1.93,1.47-2.91,3.22-2.91.49,0,.98.07,1.47.07,3.54,0,7.07-.35,10.64-.63l.21-.04c1.33,0,2.94,1.05,2.94,2.91,0,1.75-1.37,2.8-2.62,2.91-4.13.42-8.23.56-12.36.56-.25,0-.49.1-.74.1-1.33,0-2.77-1.23-2.77-2.98Zm.42,9.59c0-1.79,1.47-2.94,2.8-2.94.38,0,.67,0,1.01.18.11.03.18.07.21.07.67,0,1.33-.14,2-.21,1.61-.17,3.22-.42,4.83-.56,1.96-.21,3.89-.28,5.85-.28,1.29,0,2.94.95,2.94,2.87s-1.54,2.91-2.84,2.91c-1.89.04-3.75.07-5.63.25-2.31.25-4.59.63-6.9.8-.28.04-.52.07-.73.07-1.89,0-3.54-1.19-3.54-3.15Z"/>
    <path class="cls-29" d="m308.05,146.23c0-5.78,1.54-11.52,4.24-16.63.17-.35.38-.7.56-1.05.67-1.12,1.36-2,2.83-2,1.29,0,2.94.98,2.94,2.87,0,.63-.28,1.3-.6,1.86-.31.52-.67,1.05-.91,1.54-2,3.82-3.33,8.89-3.33,13.37,0,2.66.63,5.39,2.14,7.39.04.04.07.1.14.14l.07.07c.21.1.46.21.67.28.21.1.46.25.7.39.56.49.91,1.47.91,2.21,0,1.75-1.58,2.87-2.84,2.87-3.33,0-5.53-3.99-6.58-7-.7-2.03-.95-4.2-.95-6.3Z"/>
    <path class="cls-29" d="m320.86,143.53c0-1.89,1.54-2.94,2.91-2.94h3.36c-.07-1.3-.14-2.56-.14-3.82,0-.35,0-.7.04-1.05.21-1.54,1.79-2.38,2.84-2.38,1.33,0,2.87,1.05,2.87,2.91,0,.91.04,1.89.07,2.8.04.52.07,1.01.07,1.47.35-.03.67-.07,1.02-.1.21-.03.42-.07.59-.1.25-.07.46-.1.7-.1,1.4,0,2.87,1.05,2.87,2.98,0,2.56-2.94,3.12-4.94,3.12.04.1.04.17.04.28.1,1.4,0,2.8.17,4.24,0,.07,0,.11.04.14,0,.07.04.14.07.21.03.14.07.32.07.56,0,1.89-1.47,2.94-2.83,2.94s-2.8-.91-3.01-2.7c-.14-1.05-.14-2.14-.17-3.22l-.1-2.38h-3.61c-1.33,0-2.91-.98-2.91-2.83Z"/>
    <path class="cls-29" d="m346.16,149.59c.18-.52.46-1.12.7-1.68.28-.49.56-1.05.84-1.58,1.15-2.31,2.34-4.59,3.46-6.93.77-1.61,1.5-3.19,2.03-4.9-1.86.21-3.78.35-5.67.35-.91,0-1.82-.04-2.7-.1-.42-.04-.88-.17-1.29-.17-.14,0-.28.07-.42.07-1.4,0-2.87-1.19-2.87-3.05s1.43-2.94,2.8-2.94c.77,0,1.51.25,2.24.32.81.07,1.65.1,2.45.1,2.17,0,4.27-.32,6.44-.49.31-.04.63-.07.91-.07,2.17,0,4.3,1.15,4.3,4.2,0,3.92-4.62,12.6-6.58,16.14-.18.35-.95,1.79-.95,2.14-.04.1-.04.17-.04.25-.04.25-.14.46-.35.88-.63.94-1.68,1.51-2.66,1.51-1.33,0-2.87-1.09-2.87-2.91,0-.42.07-.77.21-1.12Z"/>
    <path class="cls-29" d="m365.34,155.01c1.26-2.1,2.03-4.45,2.03-7.04,0-2-.35-3.89-.88-5.74-.56-1.85-1.29-3.64-2-5.43-.32-.74-.56-1.54-.88-2.28-.28-.77-.6-1.47-.91-2.17-.04-.03-.07-.1-.11-.14-.38-.52-.67-1.01-.67-1.82,0-1.82,1.54-2.94,2.87-2.94,1.02,0,1.89.56,2.56,1.33.14.21.25.39.32.6.07.14.14.35.21.49.7,1.68,1.36,3.33,2.03,5.01,1.64,4.1,3.25,8.37,3.25,13.06,0,1.26-.14,2.56-.38,3.75-.42,1.93-1.89,6.3-3.47,7.35-.49.31-1.01.52-1.58.52-1.29,0-2.91-1.15-2.91-2.98,0-.6.17-1.08.49-1.58Z"/>
    <path class="cls-10" d="m384.59,143.53c0-1.89,1.54-2.94,2.91-2.94h3.36c-.07-1.3-.14-2.56-.14-3.82,0-.35,0-.7.04-1.05.21-1.54,1.79-2.38,2.84-2.38,1.33,0,2.87,1.05,2.87,2.91,0,.91.04,1.89.07,2.8.04.52.07,1.01.07,1.47.35-.03.67-.07,1.02-.1.21-.03.42-.07.59-.1.25-.07.46-.1.7-.1,1.4,0,2.87,1.05,2.87,2.98,0,2.56-2.94,3.12-4.94,3.12.04.1.04.17.04.28.1,1.4,0,2.8.17,4.24,0,.07,0,.11.04.14,0,.07.04.14.07.21.03.14.07.32.07.56,0,1.89-1.47,2.94-2.83,2.94s-2.8-.91-3.01-2.7c-.14-1.05-.14-2.14-.17-3.22l-.1-2.38h-3.61c-1.33,0-2.91-.98-2.91-2.83Z"/>
    <path class="cls-10" d="m413.46,146.23c0-5.78,1.54-11.52,4.24-16.63.17-.35.38-.7.56-1.05.67-1.12,1.36-2,2.83-2,1.29,0,2.94.98,2.94,2.87,0,.63-.28,1.3-.6,1.86-.31.52-.67,1.05-.91,1.54-2,3.82-3.33,8.89-3.33,13.37,0,2.66.63,5.39,2.14,7.39.04.04.07.1.14.14l.07.07c.21.1.46.21.67.28.21.1.46.25.7.39.56.49.91,1.47.91,2.21,0,1.75-1.58,2.87-2.84,2.87-3.33,0-5.53-3.99-6.58-7-.7-2.03-.95-4.2-.95-6.3Z"/>
    <path class="cls-10" d="m426.27,143.53c0-1.89,1.54-2.94,2.91-2.94h3.36c-.07-1.3-.14-2.56-.14-3.82,0-.35,0-.7.04-1.05.21-1.54,1.79-2.38,2.84-2.38,1.33,0,2.87,1.05,2.87,2.91,0,.91.04,1.89.07,2.8.04.52.07,1.01.07,1.47.35-.03.67-.07,1.02-.1.21-.03.42-.07.59-.1.25-.07.46-.1.7-.1,1.4,0,2.87,1.05,2.87,2.98,0,2.56-2.94,3.12-4.94,3.12.04.1.04.17.04.28.1,1.4,0,2.8.17,4.24,0,.07,0,.11.04.14,0,.07.04.14.07.21.03.14.07.32.07.56,0,1.89-1.47,2.94-2.83,2.94s-2.8-.91-3.01-2.7c-.14-1.05-.14-2.14-.17-3.22l-.1-2.38h-3.61c-1.33,0-2.91-.98-2.91-2.83Z"/>
    <path class="cls-10" d="m452.87,148.12c.63,0,1.26.21,1.79.63.07.04.1.07.1.1.04,0,.04.04.07.07.67-.03,2.07-.59,2.62-.98,1.08-.67,2.1-1.79,2.7-3.08-.63.1-1.29.14-1.92.14-3.89,0-11.97-1.19-11.97-7.81,0-3.68,3.15-6.86,5.71-8.19,1.47-.77,3.08-1.05,4.69-1.05,3.22,0,6.23,1.5,8.02,4.8,1.29,2.31,2.07,5.22,2.07,8.02,0,7.42-4.41,12.39-10.4,13.69-.63.14-1.26.25-1.89.25-1.54,0-4.48-.81-4.48-3.5,0-1.85,1.47-3.08,2.91-3.08Zm5.29-8.96c.88,0,1.79-.07,2.7-.25-.32-1.61-1.05-3.57-2.07-4.48-.59-.53-1.4-.7-2.21-.7-1.82,0-3.33,1.05-4.34,2.77-.17.25-.25.46-.25.7,0,1.58,5.08,1.96,6.16,1.96Z"/>
    <path class="cls-10" d="m471.74,155.01c1.26-2.1,2.03-4.45,2.03-7.04,0-2-.35-3.89-.88-5.74-.56-1.85-1.29-3.64-2-5.43-.32-.74-.56-1.54-.88-2.28-.28-.77-.6-1.47-.91-2.17-.04-.03-.07-.1-.11-.14-.38-.52-.67-1.01-.67-1.82,0-1.82,1.54-2.94,2.87-2.94,1.02,0,1.89.56,2.56,1.33.14.21.25.39.32.6.07.14.14.35.21.49.7,1.68,1.36,3.33,2.03,5.01,1.64,4.1,3.25,8.37,3.25,13.06,0,1.26-.14,2.56-.38,3.75-.42,1.93-1.89,6.3-3.47,7.35-.49.31-1.01.52-1.58.52-1.29,0-2.91-1.15-2.91-2.98,0-.6.17-1.08.49-1.58Z"/>
    <path class="cls-10" d="m490.99,143.53c0-1.89,1.54-2.94,2.91-2.94h3.36c-.07-1.3-.14-2.56-.14-3.82,0-.35,0-.7.04-1.05.21-1.54,1.79-2.38,2.84-2.38,1.33,0,2.87,1.05,2.87,2.91,0,.91.04,1.89.07,2.8.04.52.07,1.01.07,1.47.35-.03.67-.07,1.02-.1.21-.03.42-.07.59-.1.25-.07.46-.1.7-.1,1.4,0,2.87,1.05,2.87,2.98,0,2.56-2.94,3.12-4.94,3.12.04.1.04.17.04.28.1,1.4,0,2.8.17,4.24,0,.07,0,.11.04.14,0,.07.04.14.07.21.03.14.07.32.07.56,0,1.89-1.47,2.94-2.83,2.94s-2.8-.91-3.01-2.7c-.14-1.05-.14-2.14-.17-3.22l-.1-2.38h-3.61c-1.33,0-2.91-.98-2.91-2.83Z"/>
    <path class="cls-10" d="m519.86,146.23c0-5.78,1.54-11.52,4.24-16.63.17-.35.38-.7.56-1.05.67-1.12,1.36-2,2.83-2,1.29,0,2.94.98,2.94,2.87,0,.63-.28,1.3-.6,1.86-.31.52-.67,1.05-.91,1.54-2,3.82-3.33,8.89-3.33,13.37,0,2.66.63,5.39,2.14,7.39.04.04.07.1.14.14l.07.07c.21.1.46.21.67.28.21.1.46.25.7.39.56.49.91,1.47.91,2.21,0,1.75-1.58,2.87-2.84,2.87-3.33,0-5.53-3.99-6.58-7-.7-2.03-.95-4.2-.95-6.3Z"/>
    <path class="cls-10" d="m532.57,143.92c0-1.96,1.58-2.84,2.98-2.84.67,0,1.37.07,2,.07,1.65,0,3.19-.21,4.8-.42.14-.03.28-.03.46-.03,1.33,0,2.87,1.05,2.87,2.94,0,1.65-1.26,2.66-2.45,2.83-1.93.35-3.89.53-5.85.53-.46,0-1.08,0-1.72-.07-1.71-.1-3.08-1.15-3.08-3.01Z"/>
    <path class="cls-10" d="m553.64,148.12c.63,0,1.26.21,1.79.63.07.04.1.07.1.1.04,0,.04.04.07.07.67-.03,2.07-.59,2.62-.98,1.08-.67,2.1-1.79,2.7-3.08-.63.1-1.29.14-1.92.14-3.89,0-11.97-1.19-11.97-7.81,0-3.68,3.15-6.86,5.71-8.19,1.47-.77,3.08-1.05,4.69-1.05,3.22,0,6.23,1.5,8.02,4.8,1.29,2.31,2.07,5.22,2.07,8.02,0,7.42-4.41,12.39-10.4,13.69-.63.14-1.26.25-1.89.25-1.54,0-4.48-.81-4.48-3.5,0-1.85,1.47-3.08,2.91-3.08Zm5.29-8.96c.88,0,1.79-.07,2.7-.25-.32-1.61-1.05-3.57-2.07-4.48-.59-.53-1.4-.7-2.21-.7-1.82,0-3.33,1.05-4.34,2.77-.17.25-.25.46-.25.7,0,1.58,5.08,1.96,6.16,1.96Z"/>
    <path class="cls-10" d="m572.5,155.01c1.26-2.1,2.03-4.45,2.03-7.04,0-2-.35-3.89-.88-5.74-.56-1.85-1.29-3.64-2-5.43-.32-.74-.56-1.54-.88-2.28-.28-.77-.6-1.47-.91-2.17-.04-.03-.07-.1-.11-.14-.38-.52-.67-1.01-.67-1.82,0-1.82,1.54-2.94,2.87-2.94,1.02,0,1.89.56,2.56,1.33.14.21.25.39.32.6.07.14.14.35.21.49.7,1.68,1.36,3.33,2.03,5.01,1.64,4.1,3.25,8.37,3.25,13.06,0,1.26-.14,2.56-.38,3.75-.42,1.93-1.89,6.3-3.47,7.35-.49.31-1.01.52-1.58.52-1.29,0-2.91-1.15-2.91-2.98,0-.6.17-1.08.49-1.58Z"/>
    <path class="cls-29" d="m591.65,143.92c0-1.96,1.58-2.84,2.98-2.84.67,0,1.37.07,2,.07,1.65,0,3.19-.21,4.8-.42.14-.03.28-.03.46-.03,1.33,0,2.87,1.05,2.87,2.94,0,1.65-1.26,2.66-2.45,2.83-1.93.35-3.89.53-5.85.53-.46,0-1.08,0-1.72-.07-1.71-.1-3.08-1.15-3.08-3.01Z"/>
    <path class="cls-29" d="m616.25,146.23c0-5.78,1.54-11.52,4.24-16.63.17-.35.38-.7.56-1.05.67-1.12,1.36-2,2.83-2,1.29,0,2.94.98,2.94,2.87,0,.63-.28,1.3-.6,1.86-.31.52-.67,1.05-.91,1.54-2,3.82-3.33,8.89-3.33,13.37,0,2.66.63,5.39,2.14,7.39.04.04.07.1.14.14l.07.07c.21.1.46.21.67.28.21.1.46.25.7.39.56.49.91,1.47.91,2.21,0,1.75-1.58,2.87-2.84,2.87-3.33,0-5.53-3.99-6.58-7-.7-2.03-.95-4.2-.95-6.3Z"/>
    <path class="cls-29" d="m628.96,143.92c0-1.96,1.58-2.84,2.98-2.84.67,0,1.37.07,2,.07,1.65,0,3.19-.21,4.8-.42.14-.03.28-.03.46-.03,1.33,0,2.87,1.05,2.87,2.94,0,1.65-1.26,2.66-2.45,2.83-1.93.35-3.89.53-5.85.53-.46,0-1.08,0-1.72-.07-1.71-.1-3.08-1.15-3.08-3.01Z"/>
    <path class="cls-29" d="m650.03,148.12c.63,0,1.26.21,1.79.63.07.04.1.07.1.1.04,0,.04.04.07.07.67-.03,2.07-.59,2.62-.98,1.08-.67,2.1-1.79,2.7-3.08-.63.1-1.29.14-1.92.14-3.89,0-11.97-1.19-11.97-7.81,0-3.68,3.15-6.86,5.71-8.19,1.47-.77,3.08-1.05,4.69-1.05,3.22,0,6.23,1.5,8.02,4.8,1.29,2.31,2.07,5.22,2.07,8.02,0,7.42-4.41,12.39-10.4,13.69-.63.14-1.26.25-1.89.25-1.54,0-4.48-.81-4.48-3.5,0-1.85,1.47-3.08,2.91-3.08Zm5.29-8.96c.88,0,1.79-.07,2.7-.25-.32-1.61-1.05-3.57-2.07-4.48-.59-.53-1.4-.7-2.21-.7-1.82,0-3.33,1.05-4.34,2.77-.17.25-.25.46-.25.7,0,1.58,5.08,1.96,6.16,1.96Z"/>
    <path class="cls-29" d="m668.89,155.01c1.26-2.1,2.03-4.45,2.03-7.04,0-2-.35-3.89-.88-5.74-.56-1.85-1.29-3.64-2-5.43-.32-.74-.56-1.54-.88-2.28-.28-.77-.6-1.47-.91-2.17-.04-.03-.07-.1-.11-.14-.38-.52-.67-1.01-.67-1.82,0-1.82,1.54-2.94,2.87-2.94,1.02,0,1.89.56,2.56,1.33.14.21.25.39.32.6.07.14.14.35.21.49.7,1.68,1.37,3.33,2.03,5.01,1.64,4.1,3.25,8.37,3.25,13.06,0,1.26-.14,2.56-.38,3.75-.42,1.93-1.89,6.3-3.47,7.35-.49.31-1.01.52-1.58.52-1.29,0-2.91-1.15-2.91-2.98,0-.6.17-1.08.49-1.58Z"/>
    <path class="cls-29" d="m274.65,193.26c0-1.93,1.47-2.91,3.22-2.91.49,0,.98.07,1.47.07,3.54,0,7.07-.35,10.64-.63l.21-.04c1.33,0,2.94,1.05,2.94,2.91,0,1.75-1.37,2.8-2.62,2.91-4.13.42-8.23.56-12.36.56-.25,0-.49.1-.74.1-1.33,0-2.77-1.23-2.77-2.98Zm.42,9.59c0-1.79,1.47-2.94,2.8-2.94.38,0,.67,0,1.01.18.11.03.18.07.21.07.67,0,1.33-.14,2-.21,1.61-.17,3.22-.42,4.83-.56,1.96-.21,3.89-.28,5.85-.28,1.29,0,2.94.95,2.94,2.87s-1.54,2.91-2.84,2.91c-1.89.04-3.75.07-5.63.25-2.31.25-4.59.63-6.9.8-.28.04-.52.07-.73.07-1.89,0-3.54-1.19-3.54-3.15Z"/>
    <path class="cls-29" d="m306.5,200.23c0-5.78,1.54-11.52,4.24-16.63.17-.35.38-.7.56-1.05.67-1.12,1.36-2,2.83-2,1.29,0,2.94.98,2.94,2.87,0,.63-.28,1.3-.6,1.86-.31.52-.67,1.05-.91,1.54-2,3.82-3.33,8.89-3.33,13.37,0,2.66.63,5.39,2.14,7.39.04.04.07.1.14.14l.07.07c.21.1.46.21.67.28.21.1.46.25.7.39.56.49.91,1.47.91,2.21,0,1.75-1.58,2.87-2.84,2.87-3.33,0-5.53-3.99-6.58-7-.7-2.03-.95-4.2-.95-6.3Z"/>
    <path class="cls-29" d="m319.31,197.53c0-1.89,1.54-2.94,2.91-2.94h3.36c-.07-1.3-.14-2.56-.14-3.82,0-.35,0-.7.04-1.05.21-1.54,1.79-2.38,2.84-2.38,1.33,0,2.87,1.05,2.87,2.91,0,.91.04,1.89.07,2.8.04.52.07,1.01.07,1.47.35-.03.67-.07,1.02-.1.21-.03.42-.07.59-.1.25-.07.46-.1.7-.1,1.4,0,2.87,1.05,2.87,2.98,0,2.56-2.94,3.12-4.94,3.12.04.1.04.17.04.28.1,1.4,0,2.8.17,4.24,0,.07,0,.11.04.14,0,.07.04.14.07.21.03.14.07.32.07.56,0,1.89-1.47,2.94-2.83,2.94s-2.8-.91-3.01-2.7c-.14-1.05-.14-2.14-.17-3.22l-.1-2.38h-3.61c-1.33,0-2.91-.98-2.91-2.83Z"/>
    <path class="cls-29" d="m344.61,203.59c.18-.52.46-1.12.7-1.68.28-.49.56-1.05.84-1.58,1.15-2.31,2.34-4.59,3.46-6.93.77-1.61,1.5-3.19,2.03-4.9-1.86.21-3.78.35-5.67.35-.91,0-1.82-.04-2.7-.1-.42-.04-.88-.17-1.29-.17-.14,0-.28.07-.42.07-1.4,0-2.87-1.19-2.87-3.05s1.43-2.94,2.8-2.94c.77,0,1.51.25,2.24.32.81.07,1.65.1,2.45.1,2.17,0,4.27-.32,6.44-.49.31-.04.63-.07.91-.07,2.17,0,4.3,1.15,4.3,4.2,0,3.92-4.62,12.6-6.58,16.14-.18.35-.95,1.79-.95,2.14-.04.1-.04.17-.04.25-.04.25-.14.46-.35.88-.63.94-1.68,1.51-2.66,1.51-1.33,0-2.87-1.09-2.87-2.91,0-.42.07-.77.21-1.12Z"/>
    <path class="cls-29" d="m363.79,209.01c1.26-2.1,2.03-4.45,2.03-7.04,0-2-.35-3.89-.88-5.74-.56-1.85-1.29-3.64-2-5.43-.32-.74-.56-1.54-.88-2.28-.28-.77-.6-1.47-.91-2.17-.04-.03-.07-.1-.11-.14-.38-.52-.67-1.01-.67-1.82,0-1.82,1.54-2.94,2.87-2.94,1.02,0,1.89.56,2.56,1.33.14.21.25.39.32.6.07.14.14.35.21.49.7,1.68,1.36,3.33,2.03,5.01,1.64,4.1,3.25,8.37,3.25,13.06,0,1.26-.14,2.56-.38,3.75-.42,1.93-1.89,6.3-3.47,7.35-.49.31-1.01.52-1.58.52-1.29,0-2.91-1.15-2.91-2.98,0-.6.17-1.08.49-1.58Z"/>
    <path class="cls-29" d="m383.04,197.53c0-1.89,1.54-2.94,2.91-2.94h3.36c-.07-1.3-.14-2.56-.14-3.82,0-.35,0-.7.04-1.05.21-1.54,1.79-2.38,2.84-2.38,1.33,0,2.87,1.05,2.87,2.91,0,.91.04,1.89.07,2.8.04.52.07,1.01.07,1.47.35-.03.67-.07,1.02-.1.21-.03.42-.07.59-.1.25-.07.46-.1.7-.1,1.4,0,2.87,1.05,2.87,2.98,0,2.56-2.94,3.12-4.94,3.12.04.1.04.17.04.28.1,1.4,0,2.8.17,4.24,0,.07,0,.11.04.14,0,.07.04.14.07.21.03.14.07.32.07.56,0,1.89-1.47,2.94-2.83,2.94s-2.8-.91-3.01-2.7c-.14-1.05-.14-2.14-.17-3.22l-.1-2.38h-3.61c-1.33,0-2.91-.98-2.91-2.83Z"/>
    <path class="cls-29" d="m411.92,200.23c0-5.78,1.54-11.52,4.24-16.63.17-.35.38-.7.56-1.05.67-1.12,1.36-2,2.83-2,1.29,0,2.94.98,2.94,2.87,0,.63-.28,1.3-.6,1.86-.31.52-.67,1.05-.91,1.54-2,3.82-3.33,8.89-3.33,13.37,0,2.66.63,5.39,2.14,7.39.04.04.07.1.14.14l.07.07c.21.1.46.21.67.28.21.1.46.25.7.39.56.49.91,1.47.91,2.21,0,1.75-1.58,2.87-2.84,2.87-3.33,0-5.53-3.99-6.58-7-.7-2.03-.95-4.2-.95-6.3Z"/>
    <path class="cls-29" d="m424.73,197.53c0-1.89,1.54-2.94,2.91-2.94h3.36c-.07-1.3-.14-2.56-.14-3.82,0-.35,0-.7.04-1.05.21-1.54,1.79-2.38,2.84-2.38,1.33,0,2.87,1.05,2.87,2.91,0,.91.04,1.89.07,2.8.04.52.07,1.01.07,1.47.35-.03.67-.07,1.02-.1.21-.03.42-.07.59-.1.25-.07.46-.1.7-.1,1.4,0,2.87,1.05,2.87,2.98,0,2.56-2.94,3.12-4.94,3.12.04.1.04.17.04.28.1,1.4,0,2.8.17,4.24,0,.07,0,.11.04.14,0,.07.04.14.07.21.03.14.07.32.07.56,0,1.89-1.47,2.94-2.83,2.94s-2.8-.91-3.01-2.7c-.14-1.05-.14-2.14-.17-3.22l-.1-2.38h-3.61c-1.33,0-2.91-.98-2.91-2.83Z"/>
    <path class="cls-29" d="m451.33,202.12c.63,0,1.26.21,1.79.63.07.04.1.07.1.1.04,0,.04.04.07.07.67-.03,2.07-.59,2.62-.98,1.08-.67,2.1-1.79,2.7-3.08-.63.1-1.29.14-1.92.14-3.89,0-11.97-1.19-11.97-7.81,0-3.68,3.15-6.86,5.71-8.19,1.47-.77,3.08-1.05,4.69-1.05,3.22,0,6.23,1.5,8.02,4.8,1.29,2.31,2.07,5.22,2.07,8.02,0,7.42-4.41,12.39-10.4,13.69-.63.14-1.26.25-1.89.25-1.54,0-4.48-.81-4.48-3.5,0-1.85,1.47-3.08,2.91-3.08Zm5.29-8.96c.88,0,1.79-.07,2.7-.25-.32-1.61-1.05-3.57-2.07-4.48-.59-.53-1.4-.7-2.21-.7-1.82,0-3.33,1.05-4.34,2.77-.17.25-.25.46-.25.7,0,1.58,5.08,1.96,6.16,1.96Z"/>
    <path class="cls-29" d="m470.19,209.01c1.26-2.1,2.03-4.45,2.03-7.04,0-2-.35-3.89-.88-5.74-.56-1.85-1.29-3.64-2-5.43-.32-.74-.56-1.54-.88-2.28-.28-.77-.6-1.47-.91-2.17-.04-.03-.07-.1-.11-.14-.38-.52-.67-1.01-.67-1.82,0-1.82,1.54-2.94,2.87-2.94,1.02,0,1.89.56,2.56,1.33.14.21.25.39.32.6.07.14.14.35.21.49.7,1.68,1.36,3.33,2.03,5.01,1.64,4.1,3.25,8.37,3.25,13.06,0,1.26-.14,2.56-.38,3.75-.42,1.93-1.89,6.3-3.47,7.35-.49.31-1.01.52-1.58.52-1.29,0-2.91-1.15-2.91-2.98,0-.6.17-1.08.49-1.58Z"/>
    <path class="cls-29" d="m274.65,247.26c0-1.93,1.47-2.91,3.22-2.91.49,0,.98.07,1.47.07,3.54,0,7.07-.35,10.64-.63l.21-.04c1.33,0,2.94,1.05,2.94,2.91,0,1.75-1.37,2.8-2.62,2.91-4.13.42-8.23.56-12.36.56-.25,0-.49.1-.74.1-1.33,0-2.77-1.23-2.77-2.98Zm.42,9.59c0-1.79,1.47-2.94,2.8-2.94.38,0,.67,0,1.01.18.11.03.18.07.21.07.67,0,1.33-.14,2-.21,1.61-.17,3.22-.42,4.83-.56,1.96-.21,3.89-.28,5.85-.28,1.29,0,2.94.95,2.94,2.87s-1.54,2.91-2.84,2.91c-1.89.04-3.75.07-5.63.25-2.31.25-4.59.63-6.9.8-.28.04-.52.07-.73.07-1.89,0-3.54-1.19-3.54-3.15Z"/>
    <path class="cls-29" d="m306.5,254.23c0-5.78,1.54-11.52,4.24-16.63.17-.35.38-.7.56-1.05.67-1.12,1.36-2,2.83-2,1.29,0,2.94.98,2.94,2.87,0,.63-.28,1.3-.6,1.86-.31.52-.67,1.05-.91,1.54-2,3.82-3.33,8.89-3.33,13.37,0,2.66.63,5.39,2.14,7.39.04.04.07.1.14.14l.07.07c.21.1.46.21.67.28.21.1.46.25.7.39.56.49.91,1.47.91,2.21,0,1.75-1.58,2.87-2.84,2.87-3.33,0-5.53-3.99-6.58-7-.7-2.03-.95-4.2-.95-6.3Z"/>
    <path class="cls-29" d="m319.31,251.53c0-1.89,1.54-2.94,2.91-2.94h3.36c-.07-1.3-.14-2.56-.14-3.82,0-.35,0-.7.04-1.05.21-1.54,1.79-2.38,2.84-2.38,1.33,0,2.87,1.05,2.87,2.91,0,.91.04,1.89.07,2.8.04.52.07,1.01.07,1.47.35-.03.67-.07,1.02-.1.21-.03.42-.07.59-.1.25-.07.46-.1.7-.1,1.4,0,2.87,1.05,2.87,2.98,0,2.56-2.94,3.12-4.94,3.12.04.1.04.17.04.28.1,1.4,0,2.8.17,4.24,0,.07,0,.11.04.14,0,.07.04.14.07.21.03.14.07.32.07.56,0,1.89-1.47,2.94-2.83,2.94s-2.8-.91-3.01-2.7c-.14-1.05-.14-2.14-.17-3.22l-.1-2.38h-3.61c-1.33,0-2.91-.98-2.91-2.83Z"/>
    <path class="cls-29" d="m340.87,240.96c.11-.04.21-.07.32-.07.1-.03.17-.03.25-.07.21-.07.42-.21.63-.35.21-.17.46-.35.63-.49.91-.56,1.82-1.16,2.8-1.72.98-.49,2-1.08,3.22-1.08,3.68,0,4.06,4.17,4.06,7.21,0,1.3-.07,2.56-.11,3.85-.1,3.4-.24,6.76-.24,10.15,0,1.89-1.44,3.01-2.84,3.01-1.19,0-2.66-.8-2.87-2.42-.04-.31-.04-.67-.04-1.02,0-3.29.14-6.58.25-9.87,0-1.26.07-2.49.07-3.71v-.28c-.63.42-1.4.94-2.17,1.44-.98.6-1.96,1.08-2.8,1.08-1.4,0-3.12-.88-3.12-2.94,0-1.4.91-2.38,1.96-2.73Z"/>
    <path class="cls-29" d="m368.1,237.29c2.17,0,6.02.91,7.42,3.15.11.17.21.31.28.42.11.17.17.31.25.46.11.28.21.63.21,1.08,0,1.82-1.68,2.87-2.94,2.87-.98,0-1.96-.42-2.52-1.44,0,0,0-.03-.04-.07-.67-.42-1.86-.7-2.63-.7-3.25,0-5.5,2.77-5.57,6.55,2.35-2.17,5.25-3.33,8.26-3.33,3.4,0,7.25,1.47,7.25,6.41,0,3.57-2.13,6.41-4.76,7.81-1.61.8-3.46,1.19-5.25,1.19-.81,0-1.65-.07-2.49-.28-5.04-1.12-8.75-5.04-8.75-11.41,0-7.53,5.01-12.71,11.27-12.71Zm.1,18.55c.95,0,2.07-.21,2.87-.73.67-.49,1.26-1.54,1.26-2.49,0-.1-.04-.25-.04-.35-.42-.18-.98-.25-1.4-.25-1.92,0-4.55,1.26-5.53,3.22.91.39,1.89.6,2.83.6Z"/>
    <path class="cls-29" d="m382.87,263.01c1.26-2.1,2.03-4.45,2.03-7.04,0-2-.35-3.89-.88-5.74-.56-1.85-1.29-3.64-2-5.43-.32-.74-.56-1.54-.88-2.28-.28-.77-.6-1.47-.91-2.17-.04-.03-.07-.1-.11-.14-.38-.52-.67-1.01-.67-1.82,0-1.82,1.54-2.94,2.87-2.94,1.02,0,1.89.56,2.56,1.33.14.21.25.39.32.6.07.14.14.35.21.49.7,1.68,1.37,3.33,2.03,5.01,1.64,4.1,3.25,8.37,3.25,13.06,0,1.26-.14,2.56-.38,3.75-.42,1.93-1.89,6.3-3.47,7.35-.49.31-1.01.52-1.58.52-1.29,0-2.91-1.15-2.91-2.98,0-.6.17-1.08.49-1.58Z"/>
  </g>
</svg>