<?xml version="1.0" encoding="UTF-8"?>
<svg id="Calque_1" data-name="Calque 1" xmlns="http://www.w3.org/2000/svg" viewBox="0 0 377.67 162.54">
  <defs>
    <style>
      .cls-1 {
        fill: #e20613;
      }

      .cls-1, .cls-2, .cls-3, .cls-4, .cls-5 {
        stroke: #1d1d1b;
        stroke-miterlimit: 10;
      }

      .cls-1, .cls-2, .cls-4, .cls-5 {
        stroke-width: 3px;
      }

      .cls-2 {
        fill: #ffec00;
      }

      .cls-3 {
        stroke-width: .9px;
      }

      .cls-3, .cls-6 {
        fill: #1d1d1b;
      }

      .cls-4 {
        fill: #1d70b7;
      }

      .cls-5 {
        fill: none;
      }

      .cls-7 {
        fill: #fff;
        font-family: LucidaCalligraphy-Italic, 'Lucida Calligraphy';
        font-size: 35px;
        font-style: italic;
      }
    </style>
  </defs>
  <rect class="cls-4" x="84.83" y="35.04" width="185" height="126"/>
  <text class="cls-7" transform="translate(100.79 75.42)"><tspan x="0" y="0">fonction</tspan></text>
  <path class="cls-3" d="m175.84,119.15c-.24-1.44-.3-2.42-1.1-2.64-1.59-.43-5.7,1-6.43-.14l-1.98-3.2c-.7-1.16,2.42-4.21,2.74-5.82.16-.81-.69-1.3-1.87-2.16-1.19-.85-1.93-1.5-2.64-1.09-1.43.82-3.32,4.74-4.64,4.45l-3.59-.85c-1.31-.34-1.24-4.69-2.15-6.06-.45-.68-1.41-.44-2.85-.21-1.44.23-2.42.29-2.64,1.08-.44,1.58.98,5.7-.17,6.43l-3.2,1.96c-1.17.69-4.19-2.44-5.8-2.77-.81-.16-1.31.68-2.17,1.86-.86,1.18-1.51,1.92-1.1,2.64.81,1.43,4.72,3.34,4.43,4.67l-.87,3.6c-.34,1.31-4.7,1.22-6.07,2.12-.69.45-.45,1.4-.22,2.85.22,1.45.28,2.43,1.07,2.65,1.58.45,5.71-.95,6.43.2l1.95,3.21c.69,1.17-2.46,4.18-2.79,5.79-.17.8.68,1.31,1.85,2.17s1.91,1.52,2.63,1.12c1.43-.8,3.36-4.71,4.69-4.4l3.66.89c1.31.34,1.22,4.7,2.12,6.07.45.69,1.4.45,2.85.22,1.45-.22,2.43-.28,2.65-1.07.45-1.58-.95-5.71.2-6.43l3.32-2.04c1.16-.7,4.21,2.42,5.82,2.74.81.16,1.3-.69,2.16-1.87.85-1.19,1.5-1.93,1.09-2.64-.82-1.43-4.74-3.32-4.45-4.64l.86-3.65c.33-1.32,4.69-1.26,6.05-2.18.68-.46.44-1.41.2-2.85Zm-21.15,11.41c-4.4,0-7.97-3.57-7.97-7.97s3.57-7.97,7.97-7.97,7.97,3.57,7.97,7.97-3.57,7.97-7.97,7.97Z"/>
  <path class="cls-3" d="m184.78,107.51c-.08-.51-.11-.85-.39-.93-.56-.15-2.01.35-2.26-.05l-.7-1.13c-.25-.41.85-1.48.96-2.05.06-.28-.24-.46-.66-.76-.42-.3-.68-.53-.93-.38-.5.29-1.17,1.67-1.63,1.57l-1.26-.3c-.46-.12-.44-1.65-.76-2.13-.16-.24-.49-.16-1-.07-.51.08-.85.1-.93.38-.15.56.34,2.01-.06,2.26l-1.13.69c-.41.24-1.48-.86-2.04-.97-.28-.06-.46.24-.76.66-.3.42-.53.68-.39.93.28.5,1.66,1.18,1.56,1.64l-.31,1.27c-.12.46-1.65.43-2.14.75-.24.16-.16.49-.08,1,.08.51.1.85.38.93.56.16,2.01-.34,2.26.07l.69,1.13c.24.41-.87,1.47-.98,2.04-.06.28.24.46.65.77s.67.53.93.39c.5-.28,1.18-1.66,1.65-1.55l1.29.31c.46.12.43,1.65.75,2.14.16.24.49.16,1,.08.51-.08.85-.1.93-.38.16-.56-.34-2.01.07-2.26l1.17-.72c.41-.25,1.48.85,2.05.96.28.06.46-.24.76-.66.3-.42.53-.68.38-.93-.29-.5-1.67-1.17-1.57-1.63l.3-1.29c.12-.46,1.65-.44,2.13-.77.24-.16.15-.5.07-1Zm-7.45,4.02c-1.55,0-2.8-1.26-2.8-2.8s1.26-2.8,2.8-2.8,2.8,1.26,2.8,2.8-1.26,2.8-2.8,2.8Z"/>
  <path class="cls-3" d="m202.03,120.8c-.12-.75-.16-1.26-.57-1.38-.83-.23-2.97.52-3.35-.07l-1.03-1.67c-.36-.61,1.26-2.19,1.43-3.03.08-.42-.36-.68-.98-1.12-.62-.44-1-.78-1.38-.57-.74.43-1.73,2.47-2.42,2.32l-1.87-.44c-.69-.18-.65-2.45-1.12-3.16-.24-.36-.73-.23-1.49-.11-.75.12-1.26.15-1.38.57-.23.83.51,2.97-.09,3.35l-1.67,1.02c-.61.36-2.19-1.27-3.03-1.44-.42-.09-.68.35-1.13.97-.45.62-.79,1-.58,1.37.42.75,2.46,1.74,2.31,2.43l-.45,1.87c-.18.68-2.45.64-3.16,1.11-.36.24-.23.73-.12,1.48.12.75.15,1.26.56,1.38.82.23,2.97-.5,3.35.1l1.02,1.67c.36.61-1.28,2.18-1.46,3.02-.09.42.35.68.97,1.13s1,.79,1.37.58c.75-.42,1.75-2.45,2.44-2.3l1.91.47c.68.18.64,2.45,1.11,3.16.24.36.73.23,1.48.12.75-.12,1.26-.15,1.38-.56.23-.82-.5-2.97.1-3.35l1.73-1.06c.61-.36,2.19,1.26,3.03,1.43.42.08.68-.36,1.12-.98.44-.62.78-1,.57-1.38-.43-.74-2.47-1.73-2.32-2.42l.45-1.9c.17-.69,2.44-.66,3.15-1.13.36-.24.23-.73.1-1.49Zm-11.03,5.95c-2.29,0-4.15-1.86-4.15-4.15s1.86-4.15,4.15-4.15,4.15,1.86,4.15,4.15-1.86,4.15-4.15,4.15Z"/>
  <g>
    <path class="cls-5" d="m21,35.04c10.39-11.04,45.22-60.24,86.6-14.22"/>
    <polygon class="cls-6" points="93.48 21.21 105.13 18.05 110.95 7.47 118.5 35.04 93.48 21.21"/>
  </g>
  <g>
    <path class="cls-5" d="m252,35.04c10.39-11.04,44.06-60.23,85.24-14.23"/>
    <polygon class="cls-6" points="323.14 21.18 334.79 18.04 340.61 7.47 348.13 35.04 323.14 21.18"/>
  </g>
  <rect class="cls-1" x="1.5" y="35.04" width="46.67" height="44.33"/>
  <ellipse class="cls-2" cx="352.83" cy="57.21" rx="23.33" ry="23.83"/>
</svg>