<?xml version="1.0" encoding="utf-8"?>
<!-- Generator: Adobe Illustrator 28.0.0, SVG Export Plug-In . SVG Version: 6.00 Build 0)  -->
<svg version="1.1" id="Calque_1" xmlns="http://www.w3.org/2000/svg" xmlns:xlink="http://www.w3.org/1999/xlink" x="0px" y="0px"
	 viewBox="0 0 223 223" width="223" height="223">
<style type="text/css">
	.st0{opacity:0.5;fill:#44ACE2;}
	.st1{opacity:0.7;fill:#44ACE2;}
	.st2{fill:none;stroke:#3381AA;stroke-width:2;stroke-linecap:round;stroke-linejoin:round;stroke-dasharray:14,8;}
	.st3{fill:none;stroke:#3381AA;stroke-width:2;stroke-linecap:round;stroke-linejoin:round;}
</style>
<polygon class="st0" points="5,218 5,58 58,5 58,165 "/>
<rect x="58" y="5" class="st0" width="160" height="160"/>
<polygon class="st1" points="5,218 58,165 218,165 165,218 "/>
<path class="st2" d="M58,165V5"/>
<path class="st2" d="M58,165h160"/>
<path class="st2" d="M58,165L5,218"/>
<path class="st3" d="M5,58L58,5"/>
<path class="st3" d="M5,58h160"/>
<path class="st3" d="M5,58v160"/>
<path class="st3" d="M218,5H58"/>
<path class="st3" d="M218,5l-53,53"/>
<path class="st3" d="M218,5v160"/>
<path class="st3" d="M165,218H5"/>
<path class="st3" d="M165,218l53-53"/>
<path class="st3" d="M165,218V58"/>
</svg>
