<?xml version="1.0" encoding="utf-8"?>
<!-- Generator: Adobe Illustrator 28.0.0, SVG Export Plug-In . SVG Version: 6.00 Build 0)  -->
<svg version="1.1" id="Calque_1" xmlns="http://www.w3.org/2000/svg" xmlns:xlink="http://www.w3.org/1999/xlink" x="0px" y="0px"
	 viewBox="0 0 685 366.3" style="enable-background:new 0 0 685 366.3;" xml:space="preserve">
<style type="text/css">
	.st0{opacity:0.5;fill:#F0CDCC;enable-background:new    ;}
	.st1{opacity:0.5;fill:#B44090;enable-background:new    ;}
	.st2{opacity:0.7;fill:#F0CDCC;enable-background:new    ;}
	.st3{fill:none;stroke:#B44090;stroke-width:2;stroke-linecap:round;stroke-linejoin:round;}
	.st4{fill:none;stroke:#B44090;stroke-width:2;stroke-linecap:round;stroke-linejoin:round;stroke-dasharray:13.3721,7.6412;}
	.st5{fill:none;stroke:#B44090;stroke-width:2;stroke-linecap:round;stroke-linejoin:round;stroke-dasharray:14.6025,8.3443;}
	.st6{fill:#74BD83;fill-opacity:0.7;stroke:#74BD83;stroke-miterlimit:10;}
	.st7{fill:none;stroke:#B49A99;stroke-width:2;stroke-linecap:round;stroke-linejoin:round;stroke-dasharray:14,8;}
	.st8{fill:none;stroke:#44ACE2;stroke-width:2;stroke-linecap:round;stroke-linejoin:round;}
	.st9{fill:none;stroke:#B49A99;stroke-width:2;stroke-linecap:round;stroke-linejoin:round;}
	.st10{fill:#E5064A;fill-opacity:0.3;stroke:#E5064A;stroke-width:2;stroke-linecap:round;stroke-linejoin:round;}
	.st11{fill:none;stroke:#1D1D1B;stroke-linecap:round;stroke-linejoin:round;}
	.st12{fill:#1D1D1B;}
	.st13{fill:#E5064A;}
	.st14{fill:#B44090;}
	.st15{fill:#74BD83;}
	.st16{fill:#44ACE2;}
	.st17{fill:#3C3C3B;}
</style>
<polygon class="st0" points="236.1,293 236.1,133 289.1,80 289.1,240 "/>
<rect x="289.1" y="80" class="st1" width="253" height="160"/>
<polygon class="st2" points="236.1,293 289.1,240 542.1,240 489.1,293 "/>
<g>
	<g>
		<line class="st3" x1="542.1" y1="240" x2="535.1" y2="240"/>
		<line class="st4" x1="527.5" y1="240" x2="300.2" y2="240"/>
		<polyline class="st3" points="296.3,240 289.3,240 289.3,233 		"/>
		<line class="st5" x1="289.3" y1="224.6" x2="289.3" y2="91.1"/>
		<line class="st3" x1="289.3" y1="87" x2="289.3" y2="80"/>
	</g>
</g>
<path class="st6" d="M272.7,133c0-10.1-4.1-19.3-10.7-25.9L236.1,133H272.7z"/>
<path class="st7" d="M289.1,240l-53,53"/>
<path class="st8" d="M236.1,133l53-53"/>
<path class="st9" d="M236.1,133h253"/>
<path class="st9" d="M236.1,133v160"/>
<path class="st9" d="M542.1,80h-253"/>
<path class="st8" d="M542.1,80l-53,53"/>
<path class="st9" d="M542.1,80v160"/>
<path class="st9" d="M489.1,293h-253"/>
<path class="st8" d="M489.1,293l53-53"/>
<rect x="236.1" y="133" class="st10" width="253" height="160"/>
<path class="st9" d="M489.1,293V133"/>
<g>
	<g>
		<line class="st11" x1="413.4" y1="298.8" x2="420.9" y2="336.6"/>
		<g>
			<polygon class="st12" points="410.3,302.3 413.6,300.1 417.6,300.9 412.2,293 			"/>
		</g>
	</g>
</g>
<g>
	<g>
		<path class="st13" d="M359.7,339.8h2.7V359h-2.7V339.8z M361,339.8h10.7v2.6H361V339.8z M361,348.4h9.3v2.6H361V348.4z"/>
		<path class="st13" d="M375.1,358.1c-0.8-0.7-1.3-1.8-1.3-3.2c0-1.4,0.4-2.4,1.1-3c0.8-0.7,1.9-1,3.5-1h3.9l0.2,2.2h-4.1
			c-0.7,0-1.2,0.2-1.6,0.5c-0.3,0.3-0.5,0.8-0.5,1.4c0,0.7,0.2,1.2,0.7,1.5c0.5,0.3,1.2,0.5,2.1,0.5c1,0,1.8-0.1,2.3-0.3
			c0.5-0.2,0.8-0.6,0.8-1l0.3,1.9c-0.2,0.4-0.5,0.7-0.9,0.9c-0.3,0.2-0.8,0.4-1.2,0.5c-0.5,0.1-1,0.2-1.5,0.2
			C377.2,359.2,375.9,358.8,375.1,358.1z M382.2,350.3c0-0.9-0.2-1.6-0.7-2.1c-0.5-0.5-1.2-0.7-2-0.7c-0.5,0-1.1,0.1-1.6,0.3
			c-0.5,0.2-1,0.4-1.4,0.7l-2-1.3c0.5-0.6,1.2-1.1,2-1.5c0.8-0.3,1.8-0.5,2.8-0.5c1.1,0,2.1,0.2,2.9,0.6c0.8,0.4,1.4,1,1.8,1.7
			c0.4,0.8,0.6,1.7,0.6,2.7v8.8h-2.6V350.3z"/>
		<path class="st13" d="M391.2,358.5c-0.9-0.5-1.6-1.1-2-2s-0.7-2-0.7-3.2V351c0-1.2,0.2-2.3,0.7-3.2s1.1-1.5,2-2
			c0.9-0.5,1.9-0.7,3.2-0.7c0.7,0,1.4,0.1,2,0.3c0.6,0.2,1.2,0.4,1.7,0.7c0.5,0.3,0.9,0.7,1.3,1.2l-1.9,1.7c-0.4-0.4-0.8-0.8-1.4-1
			c-0.5-0.2-1.1-0.4-1.6-0.4c-1,0-1.8,0.3-2.4,0.9s-0.9,1.4-0.9,2.5v2.3c0,1.1,0.3,1.9,0.9,2.5c0.6,0.6,1.4,0.9,2.4,0.9
			c0.6,0,1.1-0.1,1.6-0.4s1-0.6,1.3-1.1l1.9,1.9c-0.3,0.5-0.8,0.8-1.3,1.2c-0.5,0.3-1.1,0.6-1.7,0.7c-0.6,0.2-1.3,0.2-2,0.2
			C393.2,359.2,392.1,358.9,391.2,358.5z"/>
		<path class="st13" d="M404.7,358.5c-0.9-0.5-1.6-1.2-2-2.1c-0.5-0.9-0.7-2-0.7-3.3v-1.5c0-1.4,0.2-2.5,0.7-3.5
			c0.5-1,1.1-1.7,2-2.2s1.9-0.8,3.1-0.8c1.1,0,2.1,0.3,2.9,0.9c0.8,0.6,1.4,1.4,1.9,2.5c0.4,1.1,0.6,2.4,0.6,3.9v0.9h-9.2v-2.2h6.7
			c-0.1-1.1-0.4-2-0.9-2.6c-0.5-0.6-1.2-0.9-2-0.9c-1,0-1.8,0.3-2.4,1c-0.6,0.7-0.8,1.6-0.8,2.8v1.7c0,1.1,0.3,2,0.9,2.6
			s1.4,0.9,2.5,0.9c0.5,0,1.1-0.1,1.6-0.3s1-0.5,1.4-0.9l1.8,1.8c-0.7,0.7-1.4,1.2-2.3,1.5c-0.8,0.4-1.7,0.5-2.5,0.5
			C406.7,359.2,405.6,358.9,404.7,358.5z"/>
		<path class="st13" d="M424.7,358.1c-0.8-0.7-1.3-1.8-1.3-3.2c0-1.4,0.4-2.4,1.1-3c0.8-0.7,1.9-1,3.5-1h3.9l0.2,2.2H428
			c-0.7,0-1.2,0.2-1.6,0.5c-0.3,0.3-0.5,0.8-0.5,1.4c0,0.7,0.2,1.2,0.7,1.5c0.5,0.3,1.2,0.5,2.1,0.5c1,0,1.8-0.1,2.3-0.3
			c0.5-0.2,0.8-0.6,0.8-1l0.3,1.9c-0.2,0.4-0.5,0.7-0.9,0.9c-0.3,0.2-0.8,0.4-1.2,0.5c-0.5,0.1-1,0.2-1.5,0.2
			C426.8,359.2,425.5,358.8,424.7,358.1z M431.8,350.3c0-0.9-0.2-1.6-0.7-2.1c-0.5-0.5-1.2-0.7-2-0.7c-0.5,0-1.1,0.1-1.6,0.3
			c-0.5,0.2-1,0.4-1.4,0.7l-2-1.3c0.5-0.6,1.2-1.1,2-1.5c0.8-0.3,1.8-0.5,2.8-0.5c1.1,0,2.1,0.2,2.9,0.6c0.8,0.4,1.4,1,1.8,1.7
			c0.4,0.8,0.6,1.7,0.6,2.7v8.8h-2.6V350.3z"/>
		<path class="st13" d="M446.5,345.3h2.8l-5.1,13.7h-2l-5.1-13.7h2.8l3.3,9.8L446.5,345.3z"/>
		<path class="st13" d="M452.5,358.1c-0.8-0.7-1.3-1.8-1.3-3.2c0-1.4,0.4-2.4,1.1-3c0.8-0.7,1.9-1,3.5-1h3.9l0.2,2.2h-4.1
			c-0.7,0-1.2,0.2-1.6,0.5c-0.3,0.3-0.5,0.8-0.5,1.4c0,0.7,0.2,1.2,0.7,1.5c0.5,0.3,1.2,0.5,2.1,0.5c1,0,1.8-0.1,2.3-0.3
			c0.5-0.2,0.8-0.6,0.8-1l0.3,1.9c-0.2,0.4-0.5,0.7-0.9,0.9c-0.3,0.2-0.8,0.4-1.2,0.5c-0.5,0.1-1,0.2-1.5,0.2
			C454.6,359.2,453.4,358.8,452.5,358.1z M459.7,350.3c0-0.9-0.2-1.6-0.7-2.1c-0.5-0.5-1.2-0.7-2-0.7c-0.5,0-1.1,0.1-1.6,0.3
			c-0.5,0.2-1,0.4-1.4,0.7l-2-1.3c0.5-0.6,1.2-1.1,2-1.5c0.8-0.3,1.8-0.5,2.8-0.5c1.1,0,2.1,0.2,2.9,0.6c0.8,0.4,1.4,1,1.8,1.7
			c0.4,0.8,0.6,1.7,0.6,2.7v8.8h-2.6V350.3z"/>
		<path class="st13" d="M466.3,345.3h2.7V359h-2.7V345.3z M474.6,350.7c0-1-0.3-1.7-0.8-2.2c-0.5-0.5-1.2-0.8-2.1-0.8
			c-0.9,0-1.6,0.2-2,0.7c-0.5,0.5-0.7,1.1-0.7,2l-0.3-2.6c0.4-0.8,1-1.5,1.7-1.9c0.7-0.4,1.4-0.7,2.3-0.7c1.5,0,2.6,0.5,3.4,1.5
			c0.8,1,1.2,2.3,1.2,4.1v8.3h-2.7V350.7z"/>
		<path class="st13" d="M480.3,345.3h6.2v2.4h-6.2V345.3z M482.5,358.1c-0.5-0.6-0.8-1.5-0.8-2.7v-14.1h2.7v14.1
			c0,0.3,0.1,0.6,0.2,0.8c0.1,0.2,0.3,0.3,0.6,0.3h1.3v2.6h-1.6C483.8,359,483,358.7,482.5,358.1z"/>
		<path class="st13" d="M502.9,339.8h2.3l7.1,19.2h-2.9l-5.3-15.5l-5.3,15.5h-2.9L502.9,339.8z M499.1,352.2h10.1v2.6h-10.1V352.2z"
			/>
		<path class="st13" d="M515.2,339.8h2.7V359h-2.7V339.8z M516.8,356.5h5.2c1.4,0,2.4-0.3,3-0.8s0.9-1.2,0.9-2.2v0
			c0-0.6-0.1-1.2-0.3-1.7c-0.2-0.5-0.6-0.8-1.1-1.1c-0.5-0.3-1.1-0.4-1.9-0.4h-5.9v-2.4h5.9c1,0,1.7-0.2,2.2-0.7
			c0.5-0.5,0.8-1.2,0.8-2.1c0-1-0.3-1.7-0.8-2.1s-1.4-0.7-2.5-0.7h-5.5v-2.5h6c1.2,0,2.3,0.2,3.1,0.6c0.8,0.4,1.5,1,1.9,1.8
			s0.6,1.7,0.6,2.8c0,0.7-0.1,1.3-0.4,1.9c-0.3,0.6-0.6,1.1-1.2,1.5c-0.5,0.4-1.2,0.7-1.9,0.8c0.8,0.1,1.4,0.4,2,0.8
			c0.6,0.4,1,1,1.3,1.6s0.4,1.4,0.4,2.1v0c0,1-0.2,2-0.7,2.7c-0.5,0.8-1.1,1.4-2,1.8c-0.9,0.4-1.8,0.6-3,0.6h-6.2V356.5z"/>
		<path class="st13" d="M532.6,339.8h2.7V359h-2.7V339.8z M533.9,339.8h10.7v2.6h-10.7V339.8z M533.9,348.4h9.3v2.6h-9.3V348.4z"/>
		<path class="st13" d="M547.7,339.8h2.7V359h-2.7V339.8z M549,339.8h11v2.6h-11V339.8z M549,348.2h9.6v2.6H549V348.2z M549,356.4
			h11v2.6h-11V356.4z"/>
	</g>
</g>
<g>
	<g>
		<path d="M222.2,304.7h2.7v19.2h-2.7V304.7z M223.5,304.7h11v2.6h-11V304.7z M223.5,313.1h9.6v2.6h-9.6V313.1z M223.5,321.3h11v2.6
			h-11V321.3z"/>
	</g>
</g>
<g>
	<g>
		<path d="M501.2,304.7h2.7v19.2h-2.7V304.7z M502.6,304.7h10.7v2.6h-10.7V304.7z M502.6,313.2h9.3v2.6h-9.3V313.2z"/>
	</g>
</g>
<g>
	<g>
		<path d="M481,107.1h2.7v19.2H481V107.1z M482.6,123.7h5.2c1.4,0,2.4-0.3,3-0.8s0.9-1.2,0.9-2.2v0c0-0.6-0.1-1.2-0.3-1.7
			c-0.2-0.5-0.6-0.8-1.1-1.1c-0.5-0.3-1.1-0.4-1.9-0.4h-5.9v-2.4h5.9c1,0,1.7-0.2,2.2-0.7c0.5-0.5,0.8-1.2,0.8-2.1
			c0-1-0.3-1.7-0.8-2.1s-1.4-0.7-2.5-0.7h-5.5v-2.5h6c1.2,0,2.3,0.2,3.1,0.6s1.5,1,1.9,1.8s0.6,1.7,0.6,2.8c0,0.7-0.1,1.3-0.4,1.9
			c-0.3,0.6-0.6,1.1-1.2,1.5c-0.5,0.4-1.2,0.7-1.9,0.8c0.8,0.1,1.4,0.4,2,0.8c0.6,0.4,1,1,1.3,1.6s0.4,1.4,0.4,2.1v0
			c0,1-0.2,2-0.7,2.7s-1.1,1.4-2,1.8c-0.9,0.4-1.8,0.6-3,0.6h-6.2V123.7z"/>
	</g>
</g>
<g>
	<g>
		<path d="M224.8,116.4h2.3l7.1,19.2h-2.9l-5.3-15.5l-5.3,15.5h-2.9L224.8,116.4z M221,128.8h10.1v2.6H221V128.8z"/>
	</g>
</g>
<g>
	<g>
		<path d="M287.2,244.9h2.7v19.2h-2.7V244.9z M288.9,253.4h10.6v2.6h-10.6V253.4z M298.1,244.9h2.7v19.2h-2.7V244.9z"/>
	</g>
</g>
<g>
	<g>
		<path d="M566.3,242.8v3.3c0,1.4-0.3,2.7-0.8,3.8c-0.6,1.1-1.3,1.9-2.4,2.5c-1,0.6-2.2,0.9-3.5,0.9c-1.4,0-2.5-0.3-3.6-0.8
			c-1-0.6-1.8-1.3-2.4-2.4s-0.8-2.2-0.8-3.5v-5.7c0-1.4,0.3-2.7,0.8-3.8c0.6-1.1,1.3-1.9,2.4-2.5c1-0.6,2.2-0.9,3.5-0.9
			c1.1,0,2.1,0.2,3,0.7c0.9,0.5,1.7,1.1,2.3,2s1,1.9,1.3,3h-2.9c-0.2-0.6-0.4-1.2-0.8-1.7c-0.4-0.5-0.8-0.8-1.3-1.1
			c-0.5-0.2-1-0.4-1.6-0.4c-0.8,0-1.5,0.2-2.1,0.6s-1.1,0.9-1.4,1.6c-0.3,0.7-0.5,1.5-0.5,2.4v5.7c0,0.8,0.2,1.5,0.5,2.2
			c0.3,0.6,0.8,1.1,1.4,1.4c0.6,0.3,1.3,0.5,2.1,0.5c0.8,0,1.5-0.2,2.1-0.5c0.6-0.4,1.1-0.9,1.4-1.5s0.5-1.5,0.5-2.4v-0.8h-3.9v-2.6
			H566.3z"/>
	</g>
</g>
<g>
	<g>
		<path d="M279.3,55.8h2.7V75h-2.7V55.8z M281.1,72.4h4.3c1.4,0,2.5-0.4,3.3-1.1c0.8-0.7,1.2-1.8,1.2-3.1v-5.6
			c0-1.3-0.4-2.4-1.2-3.1c-0.8-0.7-1.9-1.1-3.3-1.1h-4.3v-2.6h4.3c1.5,0,2.9,0.3,3.9,0.8c1.1,0.5,1.9,1.3,2.5,2.3
			c0.6,1,0.9,2.3,0.9,3.7v5.4c0,1.5-0.3,2.7-0.9,3.7c-0.6,1-1.4,1.8-2.5,2.3c-1.1,0.5-2.4,0.8-3.9,0.8h-4.2V72.4z"/>
	</g>
</g>
<g>
	<g>
		<path d="M555.3,76.5c-1-0.6-1.8-1.4-2.3-2.5s-0.8-2.3-0.8-3.8V65c0-1.4,0.3-2.7,0.8-3.8c0.6-1.1,1.3-1.9,2.3-2.5
			c1-0.6,2.2-0.9,3.5-0.9c1.1,0,2.1,0.2,3,0.7c0.9,0.5,1.7,1.1,2.3,2c0.6,0.9,1,1.9,1.3,3h-2.8c-0.2-0.6-0.4-1.1-0.8-1.6
			c-0.4-0.5-0.9-0.8-1.4-1.1c-0.5-0.3-1.1-0.4-1.6-0.4c-0.8,0-1.5,0.2-2.1,0.6s-1,0.9-1.4,1.6c-0.3,0.7-0.5,1.5-0.5,2.4v5.3
			c0,0.9,0.2,1.7,0.5,2.4s0.8,1.2,1.4,1.6c0.6,0.4,1.3,0.6,2.1,0.6c0.6,0,1.1-0.1,1.6-0.4c0.5-0.2,1-0.6,1.4-1.1
			c0.4-0.5,0.7-1,0.8-1.7h2.8c-0.2,1.1-0.6,2.1-1.3,3s-1.4,1.5-2.3,2c-0.9,0.5-1.9,0.7-3,0.7C557.5,77.4,556.3,77.1,555.3,76.5z"/>
	</g>
</g>
<polyline class="st3" points="289.3,80 542.1,80 542.1,240 "/>
<g>
	<g>
		<line class="st11" x1="424.2" y1="74.3" x2="437.2" y2="32.3"/>
		<g>
			<polygon class="st12" points="428.6,72.7 424.6,73.1 421.5,70.5 422.4,80 			"/>
		</g>
	</g>
</g>
<g>
	<g>
		<path class="st14" d="M347,3.9h2.7v19.2H347V3.9z M348.4,3.9h10.7v2.6h-10.7V3.9z M348.4,12.5h9.3V15h-9.3V12.5z"/>
		<path class="st14" d="M362.5,22.2c-0.8-0.7-1.3-1.8-1.3-3.2c0-1.4,0.4-2.4,1.1-3c0.8-0.7,1.9-1,3.5-1h3.9l0.2,2.2h-4.1
			c-0.7,0-1.2,0.2-1.6,0.5c-0.3,0.3-0.5,0.8-0.5,1.4c0,0.7,0.2,1.2,0.7,1.5c0.5,0.3,1.2,0.5,2.1,0.5c1,0,1.8-0.1,2.3-0.3
			c0.5-0.2,0.8-0.6,0.8-1l0.3,1.9c-0.2,0.4-0.5,0.7-0.9,0.9c-0.3,0.2-0.8,0.4-1.2,0.5c-0.5,0.1-1,0.2-1.5,0.2
			C364.6,23.3,363.3,22.9,362.5,22.2z M369.6,14.4c0-0.9-0.2-1.6-0.7-2.1c-0.5-0.5-1.2-0.7-2-0.7c-0.5,0-1.1,0.1-1.6,0.3
			c-0.5,0.2-1,0.4-1.4,0.7l-2-1.3c0.5-0.6,1.2-1.1,2-1.5c0.8-0.3,1.8-0.5,2.8-0.5c1.1,0,2.1,0.2,2.9,0.6c0.8,0.4,1.4,1,1.8,1.7
			c0.4,0.8,0.6,1.7,0.6,2.7v8.8h-2.6V14.4z"/>
		<path class="st14" d="M378.6,22.6c-0.9-0.5-1.6-1.1-2-2s-0.7-2-0.7-3.2v-2.3c0-1.2,0.2-2.3,0.7-3.2s1.1-1.5,2-2
			c0.9-0.5,1.9-0.7,3.2-0.7c0.7,0,1.4,0.1,2,0.3c0.6,0.2,1.2,0.4,1.7,0.7c0.5,0.3,0.9,0.7,1.3,1.2l-1.9,1.7c-0.4-0.4-0.8-0.8-1.4-1
			c-0.5-0.2-1.1-0.4-1.6-0.4c-1,0-1.8,0.3-2.4,0.9s-0.9,1.4-0.9,2.5v2.3c0,1.1,0.3,1.9,0.9,2.5c0.6,0.6,1.4,0.9,2.4,0.9
			c0.6,0,1.1-0.1,1.6-0.4s1-0.6,1.3-1.1l1.9,1.9c-0.3,0.5-0.8,0.8-1.3,1.2c-0.5,0.3-1.1,0.6-1.7,0.7c-0.6,0.2-1.3,0.2-2,0.2
			C380.5,23.3,379.4,23,378.6,22.6z"/>
		<path class="st14" d="M392,22.6c-0.9-0.5-1.6-1.2-2-2.1c-0.5-0.9-0.7-2-0.7-3.3v-1.5c0-1.4,0.2-2.5,0.7-3.5c0.5-1,1.1-1.7,2-2.2
			s1.9-0.8,3.1-0.8c1.1,0,2.1,0.3,2.9,0.9c0.8,0.6,1.4,1.4,1.9,2.5c0.4,1.1,0.6,2.4,0.6,3.9v0.9h-9.2v-2.2h6.7
			c-0.1-1.1-0.4-2-0.9-2.6c-0.5-0.6-1.2-0.9-2-0.9c-1,0-1.8,0.3-2.4,1c-0.6,0.7-0.8,1.6-0.8,2.8v1.7c0,1.1,0.3,2,0.9,2.6
			s1.4,0.9,2.5,0.9c0.5,0,1.1-0.1,1.6-0.3s1-0.5,1.4-0.9l1.8,1.8c-0.7,0.7-1.4,1.2-2.3,1.5c-0.8,0.4-1.7,0.5-2.5,0.5
			C394,23.3,392.9,23,392,22.6z"/>
		<path class="st14" d="M412,22.2c-0.8-0.7-1.3-1.8-1.3-3.2c0-1.4,0.4-2.4,1.1-3c0.8-0.7,1.9-1,3.5-1h3.9l0.2,2.2h-4.1
			c-0.7,0-1.2,0.2-1.6,0.5c-0.3,0.3-0.5,0.8-0.5,1.4c0,0.7,0.2,1.2,0.7,1.5c0.5,0.3,1.2,0.5,2.1,0.5c1,0,1.8-0.1,2.3-0.3
			c0.5-0.2,0.8-0.6,0.8-1l0.3,1.9c-0.2,0.4-0.5,0.7-0.9,0.9c-0.3,0.2-0.8,0.4-1.2,0.5c-0.5,0.1-1,0.2-1.5,0.2
			C414.1,23.3,412.8,22.9,412,22.2z M419.1,14.4c0-0.9-0.2-1.6-0.7-2.1c-0.5-0.5-1.2-0.7-2-0.7c-0.5,0-1.1,0.1-1.6,0.3
			c-0.5,0.2-1,0.4-1.4,0.7l-2-1.3c0.5-0.6,1.2-1.1,2-1.5c0.8-0.3,1.8-0.5,2.8-0.5c1.1,0,2.1,0.2,2.9,0.6c0.8,0.4,1.4,1,1.8,1.7
			c0.4,0.8,0.6,1.7,0.6,2.7v8.8h-2.6V14.4z"/>
		<path class="st14" d="M425.8,9.4h2.7v13.7h-2.7V9.4z M432.4,12c-0.4-0.1-0.8-0.2-1.3-0.2c-0.9,0-1.5,0.2-2,0.7
			c-0.5,0.5-0.7,1.1-0.7,2l-0.3-2.6c0.4-0.8,1-1.5,1.6-1.9c0.7-0.5,1.4-0.7,2.2-0.7c0.6,0,1.2,0.1,1.7,0.3c0.5,0.2,0.9,0.4,1.3,0.8
			l-1.8,2.4C433.1,12.4,432.8,12.1,432.4,12z"/>
		<path class="st14" d="M437.3,9.4h2.7v13.7h-2.7V9.4z M443.9,12c-0.4-0.1-0.8-0.2-1.3-0.2c-0.9,0-1.5,0.2-2,0.7
			c-0.5,0.5-0.7,1.1-0.7,2l-0.3-2.6c0.4-0.8,1-1.5,1.6-1.9c0.7-0.5,1.4-0.7,2.2-0.7c0.6,0,1.2,0.1,1.7,0.3c0.5,0.2,0.9,0.4,1.3,0.8
			l-1.8,2.4C444.6,12.4,444.3,12.1,443.9,12z"/>
		<path class="st14" d="M448.8,3.9h2.7v2.7h-2.7V3.9z M448.8,9.4h2.7v13.7h-2.7V9.4z"/>
		<path class="st14" d="M458,22.6c-0.9-0.5-1.6-1.2-2-2.1c-0.5-0.9-0.7-2-0.7-3.3v-1.5c0-1.4,0.2-2.5,0.7-3.5c0.5-1,1.1-1.7,2-2.2
			s1.9-0.8,3.1-0.8c1.1,0,2.1,0.3,2.9,0.9c0.8,0.6,1.4,1.4,1.9,2.5c0.4,1.1,0.6,2.4,0.6,3.9v0.9h-9.2v-2.2h6.7
			c-0.1-1.1-0.4-2-0.9-2.6c-0.5-0.6-1.2-0.9-2-0.9c-1,0-1.8,0.3-2.4,1c-0.6,0.7-0.8,1.6-0.8,2.8v1.7c0,1.1,0.3,2,0.9,2.6
			s1.4,0.9,2.5,0.9c0.5,0,1.1-0.1,1.6-0.3s1-0.5,1.4-0.9l1.8,1.8c-0.7,0.7-1.4,1.2-2.3,1.5c-0.8,0.4-1.7,0.5-2.5,0.5
			C459.9,23.3,458.9,23,458,22.6z M456.5,2.3l1.9-1.6l3.8,4.7l-1.7,1.4L456.5,2.3z"/>
		<path class="st14" d="M470.1,9.4h2.7v13.7h-2.7V9.4z M476.7,12c-0.4-0.1-0.8-0.2-1.3-0.2c-0.9,0-1.5,0.2-2,0.7
			c-0.5,0.5-0.7,1.1-0.7,2l-0.3-2.6c0.4-0.8,1-1.5,1.6-1.9c0.7-0.5,1.4-0.7,2.2-0.7c0.6,0,1.2,0.1,1.7,0.3c0.5,0.2,0.9,0.4,1.3,0.8
			l-1.8,2.4C477.4,12.4,477.1,12.1,476.7,12z"/>
		<path class="st14" d="M484,22.6c-0.9-0.5-1.6-1.2-2-2.1c-0.5-0.9-0.7-2-0.7-3.3v-1.5c0-1.4,0.2-2.5,0.7-3.5c0.5-1,1.1-1.7,2-2.2
			s1.9-0.8,3.1-0.8c1.1,0,2.1,0.3,2.9,0.9c0.8,0.6,1.4,1.4,1.9,2.5c0.4,1.1,0.6,2.4,0.6,3.9v0.9h-9.2v-2.2h6.7
			c-0.1-1.1-0.4-2-0.9-2.6c-0.5-0.6-1.2-0.9-2-0.9c-1,0-1.8,0.3-2.4,1c-0.6,0.7-0.8,1.6-0.8,2.8v1.7c0,1.1,0.3,2,0.9,2.6
			s1.4,0.9,2.5,0.9c0.5,0,1.1-0.1,1.6-0.3s1-0.5,1.4-0.9l1.8,1.8c-0.7,0.7-1.4,1.2-2.3,1.5c-0.8,0.4-1.7,0.5-2.5,0.5
			C485.9,23.3,484.9,23,484,22.6z"/>
		<path class="st14" d="M503.6,3.9h2.7v19.2h-2.7V3.9z M505.4,20.5h4.3c1.4,0,2.5-0.4,3.3-1.1c0.8-0.7,1.2-1.8,1.2-3.1v-5.6
			c0-1.3-0.4-2.4-1.2-3.1c-0.8-0.7-1.9-1.1-3.3-1.1h-4.3V3.9h4.3c1.5,0,2.9,0.3,3.9,0.8c1.1,0.5,1.9,1.3,2.5,2.3
			c0.6,1,0.9,2.3,0.9,3.7v5.4c0,1.5-0.3,2.7-0.9,3.7c-0.6,1-1.4,1.8-2.5,2.3c-1.1,0.5-2.4,0.8-3.9,0.8h-4.2V20.5z"/>
		<path class="st14" d="M524.1,22.4c-1-0.6-1.8-1.4-2.3-2.5c-0.6-1.1-0.8-2.3-0.8-3.8v-5.3c0-1.4,0.3-2.7,0.8-3.8
			c0.6-1.1,1.3-1.9,2.3-2.5c1-0.6,2.2-0.9,3.5-0.9c1.1,0,2.1,0.2,3,0.7c0.9,0.5,1.7,1.1,2.3,2c0.6,0.9,1,1.9,1.3,3h-2.8
			c-0.2-0.6-0.4-1.1-0.8-1.6c-0.4-0.5-0.9-0.8-1.4-1.1c-0.5-0.3-1.1-0.4-1.6-0.4c-0.8,0-1.5,0.2-2.1,0.6s-1,0.9-1.4,1.6
			c-0.3,0.7-0.5,1.5-0.5,2.4v5.3c0,0.9,0.2,1.7,0.5,2.4s0.8,1.2,1.4,1.6c0.6,0.4,1.3,0.6,2.1,0.6c0.6,0,1.1-0.1,1.6-0.4
			c0.5-0.2,1-0.6,1.4-1.1c0.4-0.5,0.7-1,0.8-1.7h2.8c-0.2,1.1-0.6,2.1-1.3,3c-0.6,0.9-1.4,1.5-2.3,2c-0.9,0.5-1.9,0.7-3,0.7
			C526.3,23.3,525.1,23,524.1,22.4z"/>
		<path class="st14" d="M551.1,12.8v3.3c0,1.4-0.3,2.7-0.8,3.8c-0.6,1.1-1.3,1.9-2.4,2.5c-1,0.6-2.2,0.9-3.5,0.9
			c-1.4,0-2.5-0.3-3.6-0.8c-1-0.6-1.8-1.3-2.4-2.4s-0.8-2.2-0.8-3.5v-5.7c0-1.4,0.3-2.7,0.8-3.8c0.6-1.1,1.3-1.9,2.4-2.5
			c1-0.6,2.2-0.9,3.5-0.9c1.1,0,2.1,0.2,3,0.7c0.9,0.5,1.7,1.1,2.3,2s1,1.9,1.3,3H548c-0.2-0.6-0.4-1.2-0.8-1.7
			c-0.4-0.5-0.8-0.8-1.3-1.1c-0.5-0.2-1-0.4-1.6-0.4c-0.8,0-1.5,0.2-2.1,0.6c-0.6,0.4-1.1,0.9-1.4,1.6c-0.3,0.7-0.5,1.5-0.5,2.4v5.7
			c0,0.8,0.2,1.5,0.5,2.2c0.3,0.6,0.8,1.1,1.4,1.4c0.6,0.3,1.3,0.5,2.1,0.5c0.8,0,1.5-0.2,2.1-0.5c0.6-0.4,1.1-0.9,1.4-1.5
			s0.5-1.5,0.5-2.4v-0.8h-3.9v-2.6H551.1z"/>
		<path class="st14" d="M555.5,3.9h2.7v19.2h-2.7V3.9z M557.1,12.4h10.6v2.6h-10.6V12.4z M566.4,3.9h2.7v19.2h-2.7V3.9z"/>
	</g>
</g>
<g>
	<g>
		<line class="st11" x1="255.3" y1="115.4" x2="229.2" y2="82.6"/>
		<g>
			<polygon class="st12" points="256.5,110.9 254.5,114.4 250.7,115.5 259,120 			"/>
		</g>
	</g>
</g>
<g>
	<g>
		<path class="st15" d="M114.2,43.2h2.3l7.1,19.2h-2.9l-5.3-15.5L110,62.3h-2.9L114.2,43.2z M110.4,55.6h10.1v2.6h-10.1V55.6z"/>
		<path class="st15" d="M126.2,48.6h2.7v13.7h-2.7V48.6z M134.5,54c0-1-0.3-1.7-0.8-2.2c-0.5-0.5-1.2-0.8-2.1-0.8
			c-0.9,0-1.6,0.2-2,0.7c-0.5,0.5-0.7,1.1-0.7,2l-0.3-2.6c0.4-0.8,1-1.5,1.7-1.9c0.7-0.4,1.4-0.7,2.3-0.7c1.5,0,2.6,0.5,3.4,1.5
			c0.8,1,1.2,2.3,1.2,4.1v8.3h-2.7V54z"/>
		<path class="st15" d="M143.1,61.9c-0.7-0.4-1.2-1.1-1.6-1.9s-0.6-1.8-0.6-3v-3c0-1.2,0.2-2.2,0.5-3s0.9-1.5,1.6-1.9
			c0.7-0.4,1.5-0.7,2.5-0.7c0.8,0,1.5,0.2,2.2,0.6c0.7,0.4,1.2,1,1.6,1.8l-0.3,2.8c0-0.6-0.1-1.1-0.3-1.5s-0.5-0.7-0.9-0.9
			c-0.4-0.2-0.9-0.3-1.5-0.3c-0.9,0-1.6,0.3-2.1,0.8c-0.5,0.6-0.7,1.3-0.7,2.3v3c0,1,0.2,1.8,0.7,2.3c0.5,0.5,1.2,0.8,2.1,0.8
			c0.6,0,1.1-0.1,1.5-0.3c0.4-0.2,0.7-0.5,0.9-1s0.3-0.9,0.3-1.5l0.2,2.9c-0.3,0.7-0.7,1.2-1.3,1.7c-0.6,0.5-1.4,0.7-2.3,0.7
			C144.6,62.6,143.8,62.3,143.1,61.9z M143.1,67.3c-0.8-0.4-1.4-0.9-1.9-1.6l1.8-1.6c0.4,0.5,0.8,0.9,1.3,1.1c0.5,0.3,1,0.4,1.5,0.4
			c1,0,1.8-0.3,2.4-0.9c0.6-0.6,0.8-1.4,0.8-2.4V48.6h2.7v13.3c0,1.3-0.2,2.3-0.7,3.2c-0.5,0.9-1.1,1.6-2,2
			c-0.9,0.5-1.9,0.7-3.2,0.7C144.8,67.9,143.9,67.7,143.1,67.3z"/>
		<path class="st15" d="M158.5,58.8c0,0.3,0.1,0.6,0.2,0.8c0.1,0.2,0.3,0.3,0.6,0.3h1.3v2.6H159c-1,0-1.8-0.3-2.4-0.9
			c-0.6-0.6-0.8-1.5-0.8-2.7V43.2h2.7V58.8z"/>
		<path class="st15" d="M166,61.8c-0.9-0.5-1.6-1.2-2-2.1c-0.5-0.9-0.7-2-0.7-3.3v-1.5c0-1.4,0.2-2.5,0.7-3.5c0.5-1,1.1-1.7,2-2.2
			s1.9-0.8,3.1-0.8c1.1,0,2.1,0.3,2.9,0.9c0.8,0.6,1.4,1.4,1.9,2.5c0.4,1.1,0.6,2.4,0.6,3.9v0.9h-9.2v-2.2h6.7
			c-0.1-1.1-0.4-2-0.9-2.6c-0.5-0.6-1.2-0.9-2-0.9c-1,0-1.8,0.3-2.4,1c-0.6,0.7-0.8,1.6-0.8,2.8v1.7c0,1.1,0.3,2,0.9,2.6
			s1.4,0.9,2.5,0.9c0.5,0,1.1-0.1,1.6-0.3s1-0.5,1.4-0.9l1.8,1.8c-0.7,0.7-1.4,1.2-2.3,1.5c-0.8,0.4-1.7,0.5-2.5,0.5
			C168,62.5,166.9,62.3,166,61.8z"/>
		<path class="st15" d="M187.2,61.9c-0.7-0.4-1.2-1.1-1.6-1.9s-0.6-1.8-0.6-3v-3c0-1.2,0.2-2.2,0.5-3s0.9-1.5,1.6-1.9
			c0.7-0.4,1.5-0.7,2.5-0.7c0.8,0,1.5,0.2,2.2,0.6c0.7,0.4,1.2,1,1.6,1.8l-0.3,2.8c0-0.6-0.1-1.1-0.3-1.5s-0.5-0.7-0.9-0.9
			c-0.4-0.2-0.9-0.3-1.5-0.3c-0.9,0-1.6,0.3-2.1,0.8c-0.5,0.6-0.7,1.3-0.7,2.3v3c0,1,0.2,1.8,0.7,2.3c0.5,0.5,1.2,0.8,2.1,0.8
			c0.6,0,1.1-0.1,1.5-0.3c0.4-0.2,0.7-0.5,0.9-1s0.3-0.9,0.3-1.5l0.2,2.9c-0.3,0.7-0.7,1.2-1.3,1.7c-0.6,0.5-1.4,0.7-2.3,0.7
			C188.7,62.6,187.9,62.3,187.2,61.9z M193.2,43.2h2.7v19.2h-2.7V43.2z"/>
		<path class="st15" d="M199.9,48.6h2.7v13.7h-2.7V48.6z M206.6,51.2c-0.4-0.1-0.8-0.2-1.3-0.2c-0.9,0-1.5,0.2-2,0.7
			c-0.5,0.5-0.7,1.1-0.7,2l-0.3-2.6c0.4-0.8,1-1.5,1.6-1.9c0.7-0.5,1.4-0.7,2.2-0.7c0.6,0,1.2,0.1,1.7,0.3c0.5,0.2,0.9,0.4,1.3,0.8
			l-1.8,2.4C207.2,51.6,206.9,51.4,206.6,51.2z"/>
		<path class="st15" d="M213.7,61.8c-0.8-0.5-1.5-1.1-1.9-2c-0.4-0.9-0.7-2-0.7-3.2v-2.2c0-1.2,0.2-2.3,0.7-3.2
			c0.4-0.9,1.1-1.6,1.9-2c0.8-0.5,1.9-0.7,3-0.7s2.2,0.2,3,0.7c0.8,0.5,1.5,1.1,1.9,2c0.4,0.9,0.7,1.9,0.7,3.2v2.3
			c0,1.2-0.2,2.3-0.7,3.2c-0.4,0.9-1.1,1.6-1.9,2s-1.9,0.7-3,0.7S214.5,62.3,213.7,61.8z M218.9,59.1c0.5-0.6,0.8-1.4,0.8-2.5v-2.3
			c0-1.1-0.3-1.9-0.8-2.5c-0.5-0.6-1.2-0.9-2.2-0.9s-1.7,0.3-2.2,0.9c-0.5,0.6-0.8,1.4-0.8,2.5v2.3c0,1.1,0.3,1.9,0.8,2.5
			c0.5,0.6,1.2,0.9,2.2,0.9S218.4,59.7,218.9,59.1z"/>
		<path class="st15" d="M226.2,43.2h2.7v2.7h-2.7V43.2z M226.2,48.6h2.7v13.7h-2.7V48.6z"/>
		<path class="st15" d="M231.9,48.6h6.2v2.4h-6.2V48.6z M234.1,61.5c-0.5-0.6-0.8-1.5-0.8-2.7V44.7h2.7v14.1c0,0.3,0.1,0.6,0.2,0.8
			c0.1,0.2,0.3,0.3,0.6,0.3h1.3v2.6h-1.6C235.4,62.4,234.6,62.1,234.1,61.5z"/>
		<path class="st15" d="M111.1,94.2c-0.9-0.5-1.6-1.2-2-2.1c-0.5-0.9-0.7-2-0.7-3.3v-1.5c0-1.4,0.2-2.5,0.7-3.5c0.5-1,1.1-1.7,2-2.2
			s1.9-0.8,3.1-0.8c1.1,0,2.1,0.3,2.9,0.9c0.8,0.6,1.4,1.4,1.9,2.5c0.4,1.1,0.6,2.4,0.6,3.9V89h-9.2v-2.2h6.7
			c-0.1-1.1-0.4-2-0.9-2.6c-0.5-0.6-1.2-0.9-2-0.9c-1,0-1.8,0.3-2.4,1c-0.6,0.7-0.8,1.6-0.8,2.8v1.7c0,1.1,0.3,2,0.9,2.6
			s1.4,0.9,2.5,0.9c0.5,0,1.1-0.1,1.6-0.3s1-0.5,1.4-0.9l1.8,1.8c-0.7,0.7-1.4,1.2-2.3,1.5c-0.8,0.4-1.7,0.5-2.5,0.5
			C113.1,94.9,112,94.7,111.1,94.2z"/>
		<path class="st15" d="M123.2,81h2.7v13.7h-2.7V81z M131.5,86.4c0-1-0.3-1.7-0.8-2.2c-0.5-0.5-1.2-0.8-2.1-0.8
			c-0.9,0-1.6,0.2-2,0.7c-0.5,0.5-0.7,1.1-0.7,2l-0.3-2.6c0.4-0.8,1-1.5,1.7-1.9c0.7-0.4,1.4-0.7,2.3-0.7c1.5,0,2.6,0.5,3.4,1.5
			c0.8,1,1.2,2.3,1.2,4.1v8.3h-2.7V86.4z"/>
		<path class="st15" d="M145.5,81h2.7v13.7h-2.7V81z M152.2,83.6c-0.4-0.1-0.8-0.2-1.3-0.2c-0.9,0-1.5,0.2-2,0.7
			c-0.5,0.5-0.7,1.1-0.7,2l-0.3-2.6c0.4-0.8,1-1.5,1.6-1.9c0.7-0.5,1.4-0.7,2.2-0.7c0.6,0,1.2,0.1,1.7,0.3c0.5,0.2,0.9,0.4,1.3,0.8
			l-1.8,2.4C152.8,84,152.5,83.8,152.2,83.6z"/>
		<path class="st15" d="M159.4,94.2c-0.9-0.5-1.6-1.2-2-2.1c-0.5-0.9-0.7-2-0.7-3.3v-1.5c0-1.4,0.2-2.5,0.7-3.5c0.5-1,1.1-1.7,2-2.2
			s1.9-0.8,3.1-0.8c1.1,0,2.1,0.3,2.9,0.9c0.8,0.6,1.4,1.4,1.9,2.5c0.4,1.1,0.6,2.4,0.6,3.9V89h-9.2v-2.2h6.7
			c-0.1-1.1-0.4-2-0.9-2.6c-0.5-0.6-1.2-0.9-2-0.9c-1,0-1.8,0.3-2.4,1c-0.6,0.7-0.8,1.6-0.8,2.8v1.7c0,1.1,0.3,2,0.9,2.6
			s1.4,0.9,2.5,0.9c0.5,0,1.1-0.1,1.6-0.3s1-0.5,1.4-0.9l1.8,1.8c-0.7,0.7-1.4,1.2-2.3,1.5c-0.8,0.4-1.7,0.5-2.5,0.5
			C161.4,94.9,160.3,94.7,159.4,94.2z M160.8,77l3.8-4.7l1.9,1.6l-4,4.4L160.8,77z"/>
		<path class="st15" d="M172.1,93.9c-0.8-0.7-1.3-1.8-1.3-3.2c0-1.4,0.4-2.4,1.1-3c0.8-0.7,1.9-1,3.5-1h3.9l0.2,2.2h-4.1
			c-0.7,0-1.2,0.2-1.6,0.5c-0.3,0.3-0.5,0.8-0.5,1.4c0,0.7,0.2,1.2,0.7,1.5c0.5,0.3,1.2,0.5,2.1,0.5c1,0,1.8-0.1,2.3-0.3
			c0.5-0.2,0.8-0.6,0.8-1l0.3,1.9c-0.2,0.4-0.5,0.7-0.9,0.9c-0.3,0.2-0.8,0.4-1.2,0.5c-0.5,0.1-1,0.2-1.5,0.2
			C174.2,94.9,173,94.6,172.1,93.9z M179.3,86.1c0-0.9-0.2-1.6-0.7-2.1c-0.5-0.5-1.2-0.7-2-0.7c-0.5,0-1.1,0.1-1.6,0.3
			c-0.5,0.2-1,0.4-1.4,0.7l-2-1.3c0.5-0.6,1.2-1.1,2-1.5c0.8-0.3,1.8-0.5,2.8-0.5c1.1,0,2.1,0.2,2.9,0.6c0.8,0.4,1.4,1,1.8,1.7
			c0.4,0.8,0.6,1.7,0.6,2.7v8.8h-2.6V86.1z"/>
		<path class="st15" d="M188.6,91.2c0,0.3,0.1,0.6,0.2,0.8c0.1,0.2,0.3,0.3,0.6,0.3h1.3v2.6h-1.6c-1,0-1.8-0.3-2.4-0.9
			c-0.6-0.6-0.8-1.5-0.8-2.7V75.6h2.7V91.2z"/>
		<path class="st15" d="M193.7,75.6h2.7v2.7h-2.7V75.6z M193.7,81h2.7v13.7h-2.7V81z"/>
		<path class="st15" d="M199.4,81h6.2v2.4h-6.2V81z M201.6,93.9c-0.5-0.6-0.8-1.5-0.8-2.7V77.1h2.7v14.1c0,0.3,0.1,0.6,0.2,0.8
			c0.1,0.2,0.3,0.3,0.6,0.3h1.3v2.6h-1.6C202.9,94.8,202.1,94.5,201.6,93.9z"/>
		<path class="st15" d="M211.7,94.2c-0.9-0.5-1.6-1.2-2-2.1c-0.5-0.9-0.7-2-0.7-3.3v-1.5c0-1.4,0.2-2.5,0.7-3.5c0.5-1,1.1-1.7,2-2.2
			s1.9-0.8,3.1-0.8c1.1,0,2.1,0.3,2.9,0.9c0.8,0.6,1.4,1.4,1.9,2.5c0.4,1.1,0.6,2.4,0.6,3.9V89h-9.2v-2.2h6.7
			c-0.1-1.1-0.4-2-0.9-2.6c-0.5-0.6-1.2-0.9-2-0.9c-1,0-1.8,0.3-2.4,1c-0.6,0.7-0.8,1.6-0.8,2.8v1.7c0,1.1,0.3,2,0.9,2.6
			s1.4,0.9,2.5,0.9c0.5,0,1.1-0.1,1.6-0.3s1-0.5,1.4-0.9l1.8,1.8c-0.7,0.7-1.4,1.2-2.3,1.5c-0.8,0.4-1.7,0.5-2.5,0.5
			C213.6,94.9,212.6,94.7,211.7,94.2z M213,77l3.8-4.7l1.9,1.6l-4,4.4L213,77z"/>
	</g>
</g>
<g>
	<g>
		<line class="st11" x1="285.3" y1="89.9" x2="579.5" y2="93.1"/>
		<g>
			<polygon class="st12" points="288,93.6 286.5,89.9 288.1,86.2 279.3,89.8 			"/>
		</g>
	</g>
</g>
<g>
	<g>
		<line class="st11" x1="517.8" y1="108.8" x2="579.5" y2="93.1"/>
		<g>
			<polygon class="st12" points="521.4,111.7 519,108.5 519.6,104.5 512,110.3 			"/>
		</g>
	</g>
</g>
<g>
	<g>
		<line class="st11" x1="530.8" y1="247.4" x2="579.5" y2="93.1"/>
		<g>
			<polygon class="st12" points="535.2,245.8 531.2,246.2 528.1,243.6 529,253.1 			"/>
		</g>
	</g>
</g>
<g>
	<g>
		<path class="st16" d="M601.2,68.3h2.3l7.1,19.2h-2.9L602.3,72L597,87.4h-2.9L601.2,68.3z M597.4,80.7h10.1v2.6h-10.1V80.7z"/>
		<path class="st16" d="M613.2,73.8h2.7v13.7h-2.7V73.8z M619.8,76.3c-0.4-0.1-0.8-0.2-1.3-0.2c-0.9,0-1.5,0.2-2,0.7
			c-0.5,0.5-0.7,1.1-0.7,2l-0.3-2.6c0.4-0.8,1-1.5,1.6-1.9s1.4-0.7,2.2-0.7c0.6,0,1.2,0.1,1.7,0.3c0.5,0.2,0.9,0.4,1.3,0.8l-1.8,2.4
			C620.5,76.7,620.2,76.5,619.8,76.3z"/>
		<path class="st16" d="M627.1,86.9c-0.9-0.5-1.6-1.2-2-2.1c-0.5-0.9-0.7-2-0.7-3.3V80c0-1.4,0.2-2.5,0.7-3.5c0.5-1,1.1-1.7,2-2.2
			s1.9-0.8,3.1-0.8c1.1,0,2.1,0.3,2.9,0.9c0.8,0.6,1.4,1.4,1.9,2.5c0.4,1.1,0.6,2.4,0.6,3.9v0.9h-9.2v-2.2h6.7
			c-0.1-1.1-0.4-2-0.9-2.6c-0.5-0.6-1.2-0.9-2-0.9c-1,0-1.8,0.3-2.4,1c-0.6,0.7-0.8,1.6-0.8,2.8v1.7c0,1.1,0.3,2,0.9,2.6
			s1.4,0.9,2.5,0.9c0.5,0,1.1-0.1,1.6-0.3s1-0.5,1.4-0.9l1.8,1.8c-0.7,0.7-1.4,1.2-2.3,1.5c-0.8,0.4-1.7,0.5-2.5,0.5
			C629,87.6,628,87.4,627.1,86.9z M634,69.7l-1.5,1.4l-2.6-2.5l-2.6,2.5l-1.5-1.4l4.1-4L634,69.7z"/>
		<path class="st16" d="M638.1,73.8h6.2v2.4h-6.2V73.8z M640.3,86.6c-0.5-0.6-0.8-1.5-0.8-2.7V69.8h2.7v14.1c0,0.3,0.1,0.6,0.2,0.8
			s0.3,0.3,0.6,0.3h1.3v2.6h-1.6C641.6,87.5,640.8,87.2,640.3,86.6z"/>
		<path class="st16" d="M650.3,86.9c-0.9-0.5-1.6-1.2-2-2.1c-0.5-0.9-0.7-2-0.7-3.3V80c0-1.4,0.2-2.5,0.7-3.5c0.5-1,1.1-1.7,2-2.2
			s1.9-0.8,3.1-0.8c1.1,0,2.1,0.3,2.9,0.9c0.8,0.6,1.4,1.4,1.9,2.5c0.4,1.1,0.6,2.4,0.6,3.9v0.9h-9.2v-2.2h6.7
			c-0.1-1.1-0.4-2-0.9-2.6c-0.5-0.6-1.2-0.9-2-0.9c-1,0-1.8,0.3-2.4,1c-0.6,0.7-0.8,1.6-0.8,2.8v1.7c0,1.1,0.3,2,0.9,2.6
			s1.4,0.9,2.5,0.9c0.5,0,1.1-0.1,1.6-0.3s1-0.5,1.4-0.9l1.8,1.8c-0.7,0.7-1.4,1.2-2.3,1.5c-0.8,0.4-1.7,0.5-2.5,0.5
			C652.3,87.6,651.2,87.4,650.3,86.9z"/>
		<path class="st16" d="M665,87.4c-0.7-0.2-1.4-0.4-2-0.7s-1.2-0.7-1.7-1.2l1.6-2c0.7,0.6,1.5,1,2.2,1.3s1.5,0.4,2.2,0.4
			c1.1,0,1.9-0.2,2.4-0.5c0.5-0.3,0.8-0.8,0.8-1.5c0-0.4-0.1-0.8-0.4-1s-0.7-0.4-1.1-0.4c-0.4-0.1-1-0.1-1.8-0.2c-0.1,0-0.1,0-0.2,0
			c-0.1,0-0.2,0-0.2,0c0,0-0.1,0-0.1,0c0,0-0.1,0-0.1,0c-0.9-0.1-1.6-0.2-2.3-0.4c-0.6-0.2-1.1-0.5-1.5-1.1
			c-0.4-0.5-0.6-1.3-0.6-2.2s0.2-1.8,0.6-2.4c0.4-0.6,1-1.1,1.8-1.4c0.8-0.3,1.8-0.5,2.9-0.5c0.7,0,1.4,0.1,2,0.2
			c0.6,0.1,1.3,0.3,1.9,0.6c0.6,0.3,1.2,0.6,1.7,1l-1.6,2c-0.7-0.4-1.4-0.8-2-1c-0.7-0.2-1.3-0.3-1.9-0.3c-0.9,0-1.6,0.2-2.1,0.5
			c-0.5,0.3-0.7,0.8-0.7,1.4c0,0.4,0.1,0.6,0.4,0.8c0.3,0.2,0.6,0.3,1,0.4s1,0.1,1.7,0.2c0.1,0,0.1,0,0.2,0c0.1,0,0.1,0,0.2,0
			c0,0,0.1,0,0.1,0s0.1,0,0.1,0c1,0.1,1.8,0.2,2.4,0.4c0.7,0.2,1.2,0.6,1.7,1.1s0.7,1.4,0.7,2.5c0,1-0.2,1.8-0.6,2.4
			c-0.4,0.6-1.1,1.1-1.9,1.5c-0.8,0.3-1.9,0.5-3.2,0.5C666.5,87.6,665.7,87.6,665,87.4z"/>
		<path class="st16" d="M587.3,119.3c-0.8-0.5-1.5-1.1-1.9-2c-0.4-0.9-0.7-2-0.7-3.2v-2.2c0-1.2,0.2-2.3,0.7-3.2
			c0.4-0.9,1.1-1.6,1.9-2c0.8-0.5,1.9-0.7,3-0.7s2.2,0.2,3,0.7c0.8,0.5,1.5,1.1,1.9,2c0.4,0.9,0.7,1.9,0.7,3.2v2.3
			c0,1.2-0.2,2.3-0.7,3.2c-0.4,0.9-1.1,1.6-1.9,2s-1.9,0.7-3,0.7S588.1,119.8,587.3,119.3z M592.5,116.6c0.5-0.6,0.8-1.4,0.8-2.5
			v-2.3c0-1.1-0.3-1.9-0.8-2.5c-0.5-0.6-1.2-0.9-2.2-0.9s-1.7,0.3-2.2,0.9c-0.5,0.6-0.8,1.4-0.8,2.5v2.3c0,1.1,0.3,1.9,0.8,2.5
			c0.5,0.6,1.2,0.9,2.2,0.9S592,117.2,592.5,116.6z"/>
		<path class="st16" d="M599.8,100.7h2.7v19.2h-2.7V100.7z M603.7,119.4c-0.6-0.4-1.1-1-1.4-1.7l0.2-2.9c0,0.6,0.1,1.1,0.3,1.5
			s0.5,0.7,0.9,0.9c0.4,0.2,0.9,0.3,1.5,0.3c0.9,0,1.6-0.3,2.1-0.8c0.5-0.5,0.7-1.3,0.7-2.3v-3c0-1-0.2-1.8-0.7-2.3
			c-0.5-0.6-1.2-0.8-2.1-0.8c-0.6,0-1.1,0.1-1.5,0.3c-0.4,0.2-0.7,0.5-0.9,0.9c-0.2,0.4-0.3,0.9-0.3,1.5l-0.3-2.6
			c0.4-0.8,1-1.4,1.6-1.9c0.7-0.4,1.4-0.7,2.2-0.7c1,0,1.8,0.2,2.5,0.7c0.7,0.4,1.2,1.1,1.6,1.9s0.5,1.8,0.5,3v3
			c0,1.2-0.2,2.2-0.6,3s-0.9,1.5-1.6,1.9c-0.7,0.4-1.6,0.7-2.6,0.7C605,120,604.3,119.8,603.7,119.4z"/>
		<path class="st16" d="M617.1,116.3c0,0.3,0.1,0.6,0.2,0.8c0.1,0.2,0.3,0.3,0.6,0.3h1.3v2.6h-1.6c-1,0-1.8-0.3-2.4-0.9
			c-0.6-0.6-0.8-1.5-0.8-2.7v-15.6h2.7V116.3z"/>
		<path class="st16" d="M622.3,100.7h2.7v2.7h-2.7V100.7z M622.3,106.1h2.7v13.7h-2.7V106.1z"/>
		<path class="st16" d="M630.8,119.4c-0.7-0.4-1.2-1.1-1.6-1.9s-0.6-1.8-0.6-3v-3c0-1.2,0.2-2.2,0.5-3s0.9-1.5,1.6-1.9
			c0.7-0.4,1.5-0.7,2.5-0.7c0.8,0,1.5,0.2,2.2,0.6c0.7,0.4,1.2,1,1.6,1.8l-0.3,2.8c0-0.6-0.1-1.1-0.3-1.5s-0.5-0.7-0.9-0.9
			c-0.4-0.2-0.9-0.3-1.5-0.3c-0.9,0-1.6,0.3-2.1,0.8c-0.5,0.6-0.7,1.3-0.7,2.3v3c0,1,0.2,1.8,0.7,2.3c0.5,0.5,1.2,0.8,2.1,0.8
			c0.6,0,1.1-0.1,1.5-0.3c0.4-0.2,0.7-0.5,0.9-1s0.3-0.9,0.3-1.5l0.2,2.9c-0.3,0.7-0.7,1.2-1.3,1.7c-0.6,0.5-1.4,0.7-2.3,0.7
			C632.4,120.1,631.5,119.9,630.8,119.4z M636.8,106.1h2.7v19.2h-2.7V106.1z"/>
		<path class="st16" d="M646.3,114.5c0,1,0.2,1.7,0.7,2.2c0.5,0.5,1.2,0.8,2.1,0.8c0.9,0,1.6-0.2,2-0.7s0.7-1.1,0.7-2l0.2,2.9
			c-0.3,0.7-0.7,1.2-1.4,1.7s-1.4,0.7-2.3,0.7c-1.5,0-2.7-0.5-3.5-1.5c-0.8-1-1.2-2.3-1.2-4.1v-8.3h2.7V114.5z M651.9,106.1h2.7
			v13.7h-2.7V106.1z"/>
		<path class="st16" d="M661,119.3c-0.9-0.5-1.6-1.2-2-2.1c-0.5-0.9-0.7-2-0.7-3.3v-1.5c0-1.4,0.2-2.5,0.7-3.5c0.5-1,1.1-1.7,2-2.2
			s1.9-0.8,3.1-0.8c1.1,0,2.1,0.3,2.9,0.9c0.8,0.6,1.4,1.4,1.9,2.5c0.4,1.1,0.6,2.4,0.6,3.9v0.9h-9.2v-2.2h6.7
			c-0.1-1.1-0.4-2-0.9-2.6c-0.5-0.6-1.2-0.9-2-0.9c-1,0-1.8,0.3-2.4,1c-0.6,0.7-0.8,1.6-0.8,2.8v1.7c0,1.1,0.3,2,0.9,2.6
			s1.4,0.9,2.5,0.9c0.5,0,1.1-0.1,1.6-0.3s1-0.5,1.4-0.9l1.8,1.8c-0.7,0.7-1.4,1.2-2.3,1.5c-0.8,0.4-1.7,0.5-2.5,0.5
			C663,120,661.9,119.8,661,119.3z"/>
		<path class="st16" d="M675.7,119.8c-0.7-0.2-1.4-0.4-2-0.7s-1.2-0.7-1.7-1.2l1.6-2c0.7,0.6,1.5,1,2.2,1.3s1.5,0.4,2.2,0.4
			c1.1,0,1.9-0.2,2.4-0.5c0.5-0.3,0.8-0.8,0.8-1.5c0-0.4-0.1-0.8-0.4-1s-0.7-0.4-1.1-0.4c-0.4-0.1-1-0.1-1.8-0.2c-0.1,0-0.1,0-0.2,0
			c-0.1,0-0.2,0-0.2,0c0,0-0.1,0-0.1,0c0,0-0.1,0-0.1,0c-0.9-0.1-1.6-0.2-2.3-0.4c-0.6-0.2-1.1-0.5-1.5-1.1
			c-0.4-0.5-0.6-1.3-0.6-2.2s0.2-1.8,0.6-2.4c0.4-0.6,1-1.1,1.8-1.4c0.8-0.3,1.8-0.5,2.9-0.5c0.7,0,1.4,0.1,2,0.2
			c0.6,0.1,1.3,0.3,1.9,0.6c0.6,0.3,1.2,0.6,1.7,1l-1.6,2c-0.7-0.4-1.4-0.8-2-1c-0.7-0.2-1.3-0.3-1.9-0.3c-0.9,0-1.6,0.2-2.1,0.5
			c-0.5,0.3-0.7,0.8-0.7,1.4c0,0.4,0.1,0.6,0.4,0.8c0.3,0.2,0.6,0.3,1,0.4s1,0.1,1.7,0.2c0.1,0,0.1,0,0.2,0c0.1,0,0.1,0,0.2,0
			c0,0,0.1,0,0.1,0s0.1,0,0.1,0c1,0.1,1.8,0.2,2.4,0.4c0.7,0.2,1.2,0.6,1.7,1.1s0.7,1.4,0.7,2.5c0,1-0.2,1.8-0.6,2.4
			c-0.4,0.6-1.1,1.1-1.9,1.5c-0.8,0.3-1.9,0.5-3.2,0.5C677.1,120,676.4,120,675.7,119.8z"/>
	</g>
</g>
<g>
	<g>
		<line class="st11" x1="259.6" y1="261.5" x2="192.3" y2="229"/>
		<g>
			<polygon class="st12" points="258.7,257 258.5,261 255.5,263.6 265,264.1 			"/>
		</g>
	</g>
</g>
<g>
	<g>
		<line class="st11" x1="322" y1="239.6" x2="192.3" y2="229"/>
		<g>
			<polygon class="st12" points="319.5,235.7 320.8,239.5 318.9,243.1 328,240.1 			"/>
		</g>
	</g>
</g>
<g>
	<g>
		<line class="st11" x1="283.3" y1="196.7" x2="192.3" y2="229"/>
		<g>
			<polygon class="st12" points="279.4,194.1 282.1,197.1 281.9,201.1 288.9,194.7 			"/>
		</g>
	</g>
</g>
<g>
	<g>
		<path class="st17" d="M50.9,215.4h2.7v19.2h-2.7V215.4z M52.2,232h11v2.6h-11V232z"/>
		<path class="st17" d="M68.4,234.1c-0.9-0.5-1.6-1.2-2.1-2.1c-0.5-0.9-0.7-2-0.7-3.3v-1.5c0-1.4,0.2-2.5,0.7-3.5s1.1-1.7,2-2.2
			s1.9-0.8,3.1-0.8c1.1,0,2.1,0.3,2.9,0.9s1.4,1.4,1.9,2.5s0.6,2.4,0.6,3.9v0.9h-9.2v-2.2h6.7c-0.1-1.1-0.4-2-0.9-2.6
			c-0.5-0.6-1.2-0.9-2-0.9c-1,0-1.8,0.3-2.4,1c-0.6,0.7-0.8,1.6-0.8,2.8v1.7c0,1.1,0.3,2,0.9,2.6s1.4,0.9,2.5,0.9
			c0.5,0,1.1-0.1,1.6-0.3s1-0.5,1.4-0.9l1.8,1.8c-0.7,0.7-1.4,1.2-2.3,1.5c-0.8,0.4-1.7,0.5-2.5,0.5
			C70.4,234.8,69.3,234.5,68.4,234.1z"/>
		<path class="st17" d="M83.1,234.5c-0.7-0.2-1.4-0.4-2-0.7s-1.2-0.7-1.7-1.2l1.6-2c0.7,0.6,1.5,1,2.2,1.3s1.5,0.4,2.2,0.4
			c1.1,0,1.9-0.2,2.4-0.5c0.5-0.3,0.8-0.8,0.8-1.5c0-0.4-0.1-0.8-0.4-1c-0.3-0.2-0.7-0.4-1.1-0.4c-0.4-0.1-1-0.1-1.8-0.2
			c-0.1,0-0.1,0-0.2,0c-0.1,0-0.2,0-0.2,0c0,0-0.1,0-0.1,0c0,0-0.1,0-0.1,0c-0.9-0.1-1.6-0.2-2.3-0.4c-0.6-0.2-1.1-0.5-1.5-1.1
			c-0.4-0.5-0.6-1.3-0.6-2.2s0.2-1.8,0.6-2.4s1-1.1,1.8-1.4c0.8-0.3,1.8-0.5,2.9-0.5c0.7,0,1.4,0.1,2,0.2c0.6,0.1,1.3,0.3,1.9,0.6
			c0.6,0.3,1.2,0.6,1.7,1l-1.6,2c-0.7-0.4-1.4-0.8-2-1c-0.7-0.2-1.3-0.3-1.9-0.3c-0.9,0-1.6,0.2-2.1,0.5c-0.5,0.3-0.7,0.8-0.7,1.4
			c0,0.4,0.1,0.6,0.4,0.8c0.3,0.2,0.6,0.3,1,0.4c0.4,0.1,1,0.1,1.7,0.2c0.1,0,0.1,0,0.2,0c0.1,0,0.1,0,0.2,0c0,0,0.1,0,0.1,0
			s0.1,0,0.1,0c1,0.1,1.8,0.2,2.4,0.4c0.7,0.2,1.2,0.6,1.7,1.1s0.7,1.4,0.7,2.5c0,1-0.2,1.8-0.6,2.4c-0.4,0.6-1.1,1.1-1.9,1.5
			s-1.9,0.5-3.2,0.5C84.6,234.8,83.8,234.7,83.1,234.5z"/>
		<path class="st17" d="M102.4,233.7c-0.8-0.7-1.3-1.8-1.3-3.2c0-1.4,0.4-2.4,1.1-3c0.8-0.7,1.9-1,3.5-1h3.9l0.2,2.2h-4.1
			c-0.7,0-1.2,0.2-1.6,0.5c-0.3,0.3-0.5,0.8-0.5,1.4c0,0.7,0.2,1.2,0.7,1.5c0.5,0.3,1.2,0.5,2.1,0.5c1,0,1.8-0.1,2.3-0.3
			c0.5-0.2,0.8-0.6,0.8-1l0.3,1.9c-0.2,0.4-0.5,0.7-0.9,0.9c-0.3,0.2-0.7,0.4-1.2,0.5c-0.5,0.1-1,0.2-1.5,0.2
			C104.5,234.8,103.2,234.4,102.4,233.7z M109.5,225.9c0-0.9-0.2-1.6-0.7-2.1c-0.5-0.5-1.2-0.7-2-0.7c-0.5,0-1.1,0.1-1.6,0.3
			s-1,0.4-1.4,0.7l-2-1.3c0.5-0.6,1.2-1.1,2.1-1.5c0.8-0.3,1.8-0.5,2.8-0.5c1.1,0,2.1,0.2,2.9,0.6c0.8,0.4,1.4,1,1.8,1.7
			c0.4,0.8,0.6,1.7,0.6,2.7v8.8h-2.6V225.9z"/>
		<path class="st17" d="M116.2,220.9h2.7v13.7h-2.7V220.9z M122.8,223.5c-0.4-0.1-0.8-0.2-1.3-0.2c-0.9,0-1.5,0.2-2,0.7
			c-0.5,0.5-0.7,1.1-0.7,2l-0.3-2.6c0.4-0.8,1-1.5,1.6-1.9c0.7-0.5,1.4-0.7,2.2-0.7c0.6,0,1.2,0.1,1.7,0.3c0.5,0.2,0.9,0.4,1.3,0.8
			l-1.8,2.4C123.5,223.9,123.2,223.6,122.8,223.5z"/>
		<path class="st17" d="M130.1,234.1c-0.9-0.5-1.6-1.2-2.1-2.1c-0.5-0.9-0.7-2-0.7-3.3v-1.5c0-1.4,0.2-2.5,0.7-3.5s1.1-1.7,2-2.2
			s1.9-0.8,3.1-0.8c1.1,0,2.1,0.3,2.9,0.9s1.4,1.4,1.9,2.5s0.6,2.4,0.6,3.9v0.9h-9.2v-2.2h6.7c-0.1-1.1-0.4-2-0.9-2.6
			c-0.5-0.6-1.2-0.9-2-0.9c-1,0-1.8,0.3-2.4,1c-0.6,0.7-0.8,1.6-0.8,2.8v1.7c0,1.1,0.3,2,0.9,2.6s1.4,0.9,2.5,0.9
			c0.5,0,1.1-0.1,1.6-0.3s1-0.5,1.4-0.9l1.8,1.8c-0.7,0.7-1.4,1.2-2.3,1.5c-0.8,0.4-1.7,0.5-2.5,0.5
			C132,234.8,131,234.5,130.1,234.1z M137,216.9l-1.5,1.4l-2.6-2.5l-2.6,2.5l-1.5-1.4l4.1-4L137,216.9z"/>
		<path class="st17" d="M141.1,220.9h6.2v2.4h-6.2V220.9z M143.3,233.7c-0.5-0.6-0.8-1.5-0.8-2.7v-14.1h2.7v14.1
			c0,0.3,0.1,0.6,0.2,0.8c0.1,0.2,0.3,0.3,0.6,0.3h1.3v2.6h-1.6C144.6,234.7,143.8,234.3,143.3,233.7z"/>
		<path class="st17" d="M153.3,234.1c-0.9-0.5-1.6-1.2-2.1-2.1c-0.5-0.9-0.7-2-0.7-3.3v-1.5c0-1.4,0.2-2.5,0.7-3.5s1.1-1.7,2-2.2
			s1.9-0.8,3.1-0.8c1.1,0,2.1,0.3,2.9,0.9s1.4,1.4,1.9,2.5s0.6,2.4,0.6,3.9v0.9h-9.2v-2.2h6.7c-0.1-1.1-0.4-2-0.9-2.6
			c-0.5-0.6-1.2-0.9-2-0.9c-1,0-1.8,0.3-2.4,1c-0.6,0.7-0.8,1.6-0.8,2.8v1.7c0,1.1,0.3,2,0.9,2.6s1.4,0.9,2.5,0.9
			c0.5,0,1.1-0.1,1.6-0.3s1-0.5,1.4-0.9l1.8,1.8c-0.7,0.7-1.4,1.2-2.3,1.5c-0.8,0.4-1.7,0.5-2.5,0.5
			C155.3,234.8,154.2,234.5,153.3,234.1z"/>
		<path class="st17" d="M168,234.5c-0.7-0.2-1.4-0.4-2-0.7s-1.2-0.7-1.7-1.2l1.6-2c0.7,0.6,1.5,1,2.2,1.3s1.5,0.4,2.2,0.4
			c1.1,0,1.9-0.2,2.4-0.5c0.5-0.3,0.8-0.8,0.8-1.5c0-0.4-0.1-0.8-0.4-1c-0.3-0.2-0.7-0.4-1.1-0.4c-0.4-0.1-1-0.1-1.8-0.2
			c-0.1,0-0.1,0-0.2,0c-0.1,0-0.2,0-0.2,0c0,0-0.1,0-0.1,0c0,0-0.1,0-0.1,0c-0.9-0.1-1.6-0.2-2.3-0.4c-0.6-0.2-1.1-0.5-1.5-1.1
			c-0.4-0.5-0.6-1.3-0.6-2.2s0.2-1.8,0.6-2.4s1-1.1,1.8-1.4c0.8-0.3,1.8-0.5,2.9-0.5c0.7,0,1.4,0.1,2,0.2c0.6,0.1,1.3,0.3,1.9,0.6
			c0.6,0.3,1.2,0.6,1.7,1l-1.6,2c-0.7-0.4-1.4-0.8-2-1c-0.7-0.2-1.3-0.3-1.9-0.3c-0.9,0-1.6,0.2-2.1,0.5c-0.5,0.3-0.7,0.8-0.7,1.4
			c0,0.4,0.1,0.6,0.4,0.8c0.3,0.2,0.6,0.3,1,0.4c0.4,0.1,1,0.1,1.7,0.2c0.1,0,0.1,0,0.2,0c0.1,0,0.1,0,0.2,0c0,0,0.1,0,0.1,0
			s0.1,0,0.1,0c1,0.1,1.8,0.2,2.4,0.4c0.7,0.2,1.2,0.6,1.7,1.1s0.7,1.4,0.7,2.5c0,1-0.2,1.8-0.6,2.4c-0.4,0.6-1.1,1.1-1.9,1.5
			s-1.9,0.5-3.2,0.5C169.5,234.8,168.7,234.7,168,234.5z"/>
		<path class="st17" d="M4.4,266.5c-0.9-0.5-1.6-1.1-2-2s-0.7-2-0.7-3.2V259c0-1.2,0.2-2.3,0.7-3.2s1.1-1.5,2-2
			c0.9-0.5,1.9-0.7,3.2-0.7c0.7,0,1.4,0.1,2,0.3c0.6,0.2,1.2,0.4,1.7,0.7c0.5,0.3,0.9,0.7,1.3,1.2l-1.9,1.7c-0.4-0.4-0.8-0.8-1.4-1
			s-1.1-0.4-1.6-0.4c-1,0-1.8,0.3-2.4,0.9s-0.9,1.4-0.9,2.5v2.3c0,1.1,0.3,1.9,0.9,2.5c0.6,0.6,1.4,0.9,2.4,0.9
			c0.6,0,1.1-0.1,1.6-0.4s1-0.6,1.3-1.1l1.9,1.9c-0.3,0.5-0.8,0.8-1.3,1.2c-0.5,0.3-1.1,0.6-1.7,0.7c-0.6,0.2-1.3,0.2-2,0.2
			C6.4,267.2,5.3,267,4.4,266.5z"/>
		<path class="st17" d="M16.1,266.1c-0.8-0.7-1.3-1.8-1.3-3.2c0-1.4,0.4-2.4,1.1-3c0.8-0.7,1.9-1,3.5-1h3.9l0.2,2.2h-4.1
			c-0.7,0-1.2,0.2-1.6,0.5c-0.3,0.3-0.5,0.8-0.5,1.4c0,0.7,0.2,1.2,0.7,1.5c0.5,0.3,1.2,0.5,2.1,0.5c1,0,1.8-0.1,2.3-0.3
			c0.5-0.2,0.8-0.6,0.8-1l0.3,1.9c-0.2,0.4-0.5,0.7-0.9,0.9c-0.3,0.2-0.7,0.4-1.2,0.5c-0.5,0.1-1,0.2-1.5,0.2
			C18.2,267.2,17,266.8,16.1,266.1z M23.3,258.3c0-0.9-0.2-1.6-0.7-2.1c-0.5-0.5-1.2-0.7-2-0.7c-0.5,0-1.1,0.1-1.6,0.3
			s-1,0.4-1.4,0.7l-2-1.3c0.5-0.6,1.2-1.1,2.1-1.5c0.8-0.3,1.8-0.5,2.8-0.5c1.1,0,2.1,0.2,2.9,0.6c0.8,0.4,1.4,1,1.8,1.7
			c0.4,0.8,0.6,1.7,0.6,2.7v8.8h-2.6V258.3z"/>
		<path class="st17" d="M32.3,266.5c-0.9-0.5-1.6-1.1-2-2s-0.7-2-0.7-3.2V259c0-1.2,0.2-2.3,0.7-3.2s1.1-1.5,2-2
			c0.9-0.5,1.9-0.7,3.2-0.7c0.7,0,1.4,0.1,2,0.3c0.6,0.2,1.2,0.4,1.7,0.7c0.5,0.3,0.9,0.7,1.3,1.2l-1.9,1.7c-0.4-0.4-0.8-0.8-1.4-1
			s-1.1-0.4-1.6-0.4c-1,0-1.8,0.3-2.4,0.9s-0.9,1.4-0.9,2.5v2.3c0,1.1,0.3,1.9,0.9,2.5c0.6,0.6,1.4,0.9,2.4,0.9
			c0.6,0,1.1-0.1,1.6-0.4s1-0.6,1.3-1.1l1.9,1.9c-0.3,0.5-0.8,0.8-1.3,1.2c-0.5,0.3-1.1,0.6-1.7,0.7c-0.6,0.2-1.3,0.2-2,0.2
			C34.2,267.2,33.1,267,32.3,266.5z"/>
		<path class="st17" d="M43.4,247.8h2.7V267h-2.7V247.8z M51.7,258.7c0-1-0.3-1.7-0.8-2.2s-1.2-0.8-2.1-0.8c-0.9,0-1.6,0.2-2,0.7
			c-0.5,0.5-0.7,1.1-0.7,1.9l-0.3-2.6c0.4-0.8,1-1.4,1.7-1.9c0.7-0.4,1.4-0.7,2.3-0.7c1.5,0,2.6,0.5,3.4,1.5c0.8,1,1.2,2.3,1.2,4.1
			v8.3h-2.7V258.7z"/>
		<path class="st17" d="M60.8,266.5c-0.9-0.5-1.6-1.2-2.1-2.1c-0.5-0.9-0.7-2-0.7-3.3v-1.5c0-1.4,0.2-2.5,0.7-3.5s1.1-1.7,2-2.2
			s1.9-0.8,3.1-0.8c1.1,0,2.1,0.3,2.9,0.9s1.4,1.4,1.9,2.5s0.6,2.4,0.6,3.9v0.9H60v-2.2h6.7c-0.1-1.1-0.4-2-0.9-2.6
			c-0.5-0.6-1.2-0.9-2-0.9c-1,0-1.8,0.3-2.4,1c-0.6,0.7-0.8,1.6-0.8,2.8v1.7c0,1.1,0.3,2,0.9,2.6s1.4,0.9,2.5,0.9
			c0.5,0,1.1-0.1,1.6-0.3s1-0.5,1.4-0.9l1.8,1.8c-0.7,0.7-1.4,1.2-2.3,1.5c-0.8,0.4-1.7,0.5-2.5,0.5
			C62.8,267.2,61.7,266.9,60.8,266.5z M62.2,249.3l3.8-4.7l1.9,1.6l-4,4.4L62.2,249.3z"/>
		<path class="st17" d="M82.5,266.5c-0.9-0.5-1.6-1.2-2.1-2.1c-0.5-0.9-0.7-2-0.7-3.3v-1.5c0-1.4,0.2-2.5,0.7-3.5s1.1-1.7,2-2.2
			s1.9-0.8,3.1-0.8c1.1,0,2.1,0.3,2.9,0.9s1.4,1.4,1.9,2.5s0.6,2.4,0.6,3.9v0.9h-9.2v-2.2h6.7c-0.1-1.1-0.4-2-0.9-2.6
			c-0.5-0.6-1.2-0.9-2-0.9c-1,0-1.8,0.3-2.4,1c-0.6,0.7-0.8,1.6-0.8,2.8v1.7c0,1.1,0.3,2,0.9,2.6s1.4,0.9,2.5,0.9
			c0.5,0,1.1-0.1,1.6-0.3s1-0.5,1.4-0.9l1.8,1.8c-0.7,0.7-1.4,1.2-2.3,1.5c-0.8,0.4-1.7,0.5-2.5,0.5
			C84.5,267.2,83.4,266.9,82.5,266.5z"/>
		<path class="st17" d="M94.7,253.3h2.7V267h-2.7V253.3z M103,258.7c0-1-0.3-1.7-0.8-2.2s-1.2-0.8-2.1-0.8c-0.9,0-1.6,0.2-2,0.7
			c-0.5,0.5-0.7,1.1-0.7,2l-0.3-2.6c0.4-0.8,1-1.5,1.7-1.9c0.7-0.4,1.4-0.7,2.3-0.7c1.5,0,2.6,0.5,3.4,1.5c0.8,1,1.2,2.3,1.2,4.1
			v8.3H103V258.7z"/>
		<path class="st17" d="M117,253.3h2.7v19.2H117V253.3z M120.9,266.6c-0.6-0.4-1.1-1-1.4-1.7l0.2-2.9c0,0.6,0.1,1.1,0.3,1.5
			s0.5,0.7,0.9,0.9s0.9,0.3,1.5,0.3c0.9,0,1.6-0.3,2.1-0.8c0.5-0.5,0.7-1.3,0.7-2.3v-3c0-1-0.2-1.8-0.7-2.3
			c-0.5-0.6-1.2-0.8-2.1-0.8c-0.6,0-1.1,0.1-1.5,0.3s-0.7,0.5-0.9,0.9c-0.2,0.4-0.3,0.9-0.3,1.5l-0.3-2.6c0.4-0.8,1-1.4,1.6-1.9
			c0.7-0.4,1.4-0.7,2.2-0.7c1,0,1.8,0.2,2.5,0.7c0.7,0.4,1.2,1.1,1.6,1.9s0.5,1.8,0.5,3v3c0,1.2-0.2,2.2-0.6,3s-0.9,1.5-1.6,1.9
			c-0.7,0.4-1.6,0.7-2.6,0.7C122.3,267.2,121.5,267,120.9,266.6z"/>
		<path class="st17" d="M133.9,266.5c-0.8-0.5-1.5-1.1-1.9-2c-0.4-0.9-0.7-2-0.7-3.2V259c0-1.2,0.2-2.3,0.7-3.2
			c0.4-0.9,1.1-1.6,1.9-2c0.8-0.5,1.9-0.7,3-0.7s2.2,0.2,3,0.7c0.8,0.5,1.5,1.1,1.9,2c0.4,0.9,0.7,1.9,0.7,3.2v2.3
			c0,1.2-0.2,2.3-0.7,3.2c-0.4,0.9-1.1,1.6-1.9,2s-1.9,0.7-3,0.7S134.7,267,133.9,266.5z M139.1,263.7c0.5-0.6,0.8-1.4,0.8-2.5V259
			c0-1.1-0.3-1.9-0.8-2.5c-0.5-0.6-1.2-0.9-2.2-0.9s-1.7,0.3-2.2,0.9c-0.5,0.6-0.8,1.4-0.8,2.5v2.3c0,1.1,0.3,1.9,0.8,2.5
			c0.5,0.6,1.2,0.9,2.2,0.9S138.6,264.3,139.1,263.7z"/>
		<path class="st17" d="M146.4,247.8h2.7v2.7h-2.7V247.8z M146.4,253.3h2.7V267h-2.7V253.3z"/>
		<path class="st17" d="M153.2,253.3h2.7V267h-2.7V253.3z M161.5,258.7c0-1-0.3-1.7-0.8-2.2s-1.2-0.8-2.1-0.8c-0.9,0-1.6,0.2-2,0.7
			c-0.5,0.5-0.7,1.1-0.7,2l-0.3-2.6c0.4-0.8,1-1.5,1.7-1.9c0.7-0.4,1.4-0.7,2.3-0.7c1.5,0,2.6,0.5,3.4,1.5c0.8,1,1.2,2.3,1.2,4.1
			v8.3h-2.7V258.7z"/>
		<path class="st17" d="M167.2,253.3h6.2v2.4h-6.2V253.3z M169.4,266.1c-0.5-0.6-0.8-1.5-0.8-2.7v-14.1h2.7v14.1
			c0,0.3,0.1,0.6,0.2,0.8c0.1,0.2,0.3,0.3,0.6,0.3h1.3v2.6h-1.6C170.7,267.1,169.9,266.7,169.4,266.1z"/>
		<path class="st17" d="M177.1,247.8h2.7v2.7h-2.7V247.8z M177.1,253.3h2.7V267h-2.7V253.3z"/>
		<path class="st17" d="M186.5,263.5c0,0.3,0.1,0.6,0.2,0.8c0.1,0.2,0.3,0.3,0.6,0.3h1.3v2.6H187c-1,0-1.8-0.3-2.4-0.9
			s-0.8-1.5-0.8-2.7v-15.6h2.7V263.5z"/>
		<path class="st17" d="M194.3,263.5c0,0.3,0.1,0.6,0.2,0.8c0.1,0.2,0.3,0.3,0.6,0.3h1.3v2.6h-1.6c-1,0-1.8-0.3-2.4-0.9
			s-0.8-1.5-0.8-2.7v-15.6h2.7V263.5z"/>
		<path class="st17" d="M201.8,266.5c-0.9-0.5-1.6-1.2-2.1-2.1c-0.5-0.9-0.7-2-0.7-3.3v-1.5c0-1.4,0.2-2.5,0.7-3.5s1.1-1.7,2-2.2
			s1.9-0.8,3.1-0.8c1.1,0,2.1,0.3,2.9,0.9s1.4,1.4,1.9,2.5s0.6,2.4,0.6,3.9v0.9H201v-2.2h6.7c-0.1-1.1-0.4-2-0.9-2.6
			c-0.5-0.6-1.2-0.9-2-0.9c-1,0-1.8,0.3-2.4,1c-0.6,0.7-0.8,1.6-0.8,2.8v1.7c0,1.1,0.3,2,0.9,2.6s1.4,0.9,2.5,0.9
			c0.5,0,1.1-0.1,1.6-0.3s1-0.5,1.4-0.9l1.8,1.8c-0.7,0.7-1.4,1.2-2.3,1.5c-0.8,0.4-1.7,0.5-2.5,0.5
			C203.8,267.2,202.7,266.9,201.8,266.5z M203.2,249.3l3.8-4.7l1.9,1.6l-4,4.4L203.2,249.3z"/>
		<path class="st17" d="M216.5,266.9c-0.7-0.2-1.4-0.4-2-0.7s-1.2-0.7-1.7-1.2l1.6-2c0.7,0.6,1.5,1,2.2,1.3s1.5,0.4,2.2,0.4
			c1.1,0,1.9-0.2,2.4-0.5c0.5-0.3,0.8-0.8,0.8-1.5c0-0.4-0.1-0.8-0.4-1c-0.3-0.2-0.7-0.4-1.1-0.4c-0.4-0.1-1-0.1-1.8-0.2
			c-0.1,0-0.1,0-0.2,0c-0.1,0-0.2,0-0.2,0c0,0-0.1,0-0.1,0c0,0-0.1,0-0.1,0c-0.9-0.1-1.6-0.2-2.3-0.4c-0.6-0.2-1.1-0.5-1.5-1.1
			c-0.4-0.5-0.6-1.3-0.6-2.2s0.2-1.8,0.6-2.4s1-1.1,1.8-1.4c0.8-0.3,1.8-0.5,2.9-0.5c0.7,0,1.4,0.1,2,0.2c0.6,0.1,1.3,0.3,1.9,0.6
			c0.6,0.3,1.2,0.6,1.7,1l-1.6,2c-0.7-0.4-1.4-0.8-2-1c-0.7-0.2-1.3-0.3-1.9-0.3c-0.9,0-1.6,0.2-2.1,0.5c-0.5,0.3-0.7,0.8-0.7,1.4
			c0,0.4,0.1,0.6,0.4,0.8c0.3,0.2,0.6,0.3,1,0.4c0.4,0.1,1,0.1,1.7,0.2c0.1,0,0.1,0,0.2,0c0.1,0,0.1,0,0.2,0c0,0,0.1,0,0.1,0
			s0.1,0,0.1,0c1,0.1,1.8,0.2,2.4,0.4c0.7,0.2,1.2,0.6,1.7,1.1s0.7,1.4,0.7,2.5c0,1-0.2,1.8-0.6,2.4c-0.4,0.6-1.1,1.1-1.9,1.5
			s-1.9,0.5-3.2,0.5C218,267.2,217.2,267.1,216.5,266.9z"/>
	</g>
</g>
</svg>
