<?xml version="1.0" encoding="utf-8"?>
<!-- Generator: Adobe Illustrator 28.0.0, SVG Export Plug-In . SVG Version: 6.00 Build 0)  -->
<svg version="1.0" id="Calque_1" xmlns="http://www.w3.org/2000/svg" xmlns:xlink="http://www.w3.org/1999/xlink" x="0px" y="0px"
	 viewBox="0 0 72.9 83.6" enable-background="new 0 0 72.9 83.6" xml:space="preserve">
<path fill="#32B29A" fill-opacity="0.5" stroke="#32B29A" stroke-miterlimit="10" d="M46.7,83.1c0-12.1-5.6-22.9-14.5-29.9L8.6,83.1
	H46.7z"/>
<g>
	<g>
		<line fill="none" stroke="#E5064A" stroke-linecap="round" stroke-miterlimit="10" x1="8.6" y1="83.1" x2="8.6" y2="80.3"/>
		
			<line fill="none" stroke="#E5064A" stroke-linecap="round" stroke-miterlimit="10" stroke-dasharray="5.8446,5.8446" x1="8.6" y1="74.4" x2="8.6" y2="18.9"/>
		<line fill="none" stroke="#E5064A" stroke-linecap="round" stroke-miterlimit="10" x1="8.6" y1="16" x2="8.6" y2="13.1"/>
	</g>
</g>
<polyline fill="none" stroke="#010202" stroke-miterlimit="10" points="72.9,83.1 8.6,83.1 59.4,19.1 "/>
<g>
	<g>
		<path fill="#E5064A" d="M3.9,6l0,0.2C3.8,6.4,3.6,6.6,3.4,6.6S3,6.8,2.7,6.8C2.3,6.8,2,6.7,1.7,6.5S1.1,6,1,5.6S0.7,4.8,0.7,4.3v0
			c0-0.6,0.1-1,0.3-1.4S1.4,2.2,1.8,2s0.8-0.3,1.3-0.3S4,1.8,4.4,2S5,2.5,5.2,2.9s0.3,0.9,0.3,1.4v0c0,0.3,0,0.6-0.1,1S5.1,6,5,6.3
			c0,0.1,0,0.1-0.1,0.2s0,0.1-0.1,0.2L3,10.3H1.8L3.9,6z M4,5.3C4.2,5,4.3,4.7,4.3,4.2v0c0-0.4-0.1-0.8-0.3-1S3.5,2.8,3.1,2.8
			c-0.4,0-0.7,0.1-0.9,0.4s-0.3,0.6-0.3,1v0C1.9,4.7,2,5,2.2,5.3s0.5,0.4,0.9,0.4C3.5,5.7,3.7,5.5,4,5.3z"/>
		<path fill="#E5064A" d="M7.7,9.7C7.2,9.3,7,8.7,7,7.9V4.1c0-0.8,0.2-1.4,0.6-1.8s1-0.6,1.8-0.6c0.8,0,1.4,0.2,1.8,0.6
			s0.6,1,0.6,1.8v3.9c0,0.8-0.2,1.4-0.6,1.8s-1,0.6-1.8,0.6C8.7,10.3,8.1,10.1,7.7,9.7z M10.4,8.9c0.2-0.2,0.3-0.5,0.3-1V4.1
			c0-0.4-0.1-0.7-0.3-1S9.9,2.8,9.5,2.8S8.7,2.9,8.5,3.1s-0.3,0.5-0.3,1v3.9c0,0.4,0.1,0.7,0.3,1S9,9.2,9.5,9.2S10.2,9.1,10.4,8.9z"
			/>
		<path fill="#E5064A" d="M13.7,4.7c-0.3-0.3-0.4-0.7-0.4-1.3c0-0.6,0.1-1,0.4-1.3s0.7-0.5,1.3-0.5c0.6,0,1,0.2,1.3,0.5
			s0.4,0.7,0.4,1.3c0,0.6-0.2,1-0.5,1.3S15.5,5.1,15,5.1C14.4,5.1,14,5,13.7,4.7z M15.5,4c0.1-0.1,0.2-0.3,0.2-0.6
			c0-0.3-0.1-0.5-0.2-0.6S15.2,2.6,15,2.6s-0.4,0.1-0.5,0.2s-0.2,0.3-0.2,0.6s0.1,0.5,0.2,0.6s0.3,0.2,0.5,0.2
			C15.2,4.2,15.4,4.1,15.5,4z"/>
	</g>
</g>
</svg>
