<?xml version="1.0" encoding="UTF-8"?>
<svg id="Calque_1" data-name="Calque 1" xmlns="http://www.w3.org/2000/svg" viewBox="0 0 152.19 123.38">
  <defs>
    <style>
      .cls-1 {
        stroke: #e30613;
      }

      .cls-1, .cls-2 {
        fill: none;
        stroke-linecap: round;
        stroke-miterlimit: 10;
        stroke-width: 2px;
      }

      .cls-3 {
        fill: #1d1d1b;
        font-family: Cambria-BoldItalic, Cambria;
        font-size: 12px;
        font-style: italic;
        font-weight: 700;
      }

      .cls-2 {
        stroke: #1d1d1b;
      }

      .cls-4 {
        fill: #44ace2;
      }

      .cls-4, .cls-5 {
        stroke-width: 0px;
      }

      .cls-5 {
        fill: #e7d900;
      }
    </style>
  </defs>
  <g>
    <path class="cls-5" d="m78.58,57.59c-4.58-2.07-7.77-6.69-7.77-12.04,0-.24,0-.47.02-.71l13.16.78-5.41,11.97Z"/>
    <path class="cls-5" d="m82.85,76.58c-.28-5.04-3.38-9.33-7.75-11.31l-5.45,12.04,13.19-.73Z"/>
  </g>
  <g>
    <path class="cls-4" d="m93.38,45.73c-.31,4.85-4.34,8.69-9.27,8.69-1.36,0-2.66-.29-3.83-.82l3.81-8.41,9.29.55Z"/>
    <path class="cls-4" d="m74.65,67.35c-1.39-.63-2.94-.98-4.56-.98-6.11,0-11.07,4.96-11.07,11.07,0,.21,0,.41.02.62l11.05-.62,4.56-10.09Z"/>
  </g>
  <line class="cls-2" x1="19.29" y1="41.34" x2="146.85" y2="48.85"/>
  <line class="cls-2" x1="13.68" y1="80" x2="151.19" y2="72.34"/>
  <line class="cls-1" x1="99.98" y1="10.36" x2="49.32" y2="122.38"/>
  <text class="cls-3" transform="translate(11.32 33.99)"><tspan x="0" y="0">(d</tspan></text>
  <text class="cls-3" transform="translate(22.92 37.99) scale(.58)"><tspan x="0" y="0">1</tspan></text>
  <text class="cls-3" transform="translate(26.93 33.99)"><tspan x="0" y="0">)</tspan></text>
  <text class="cls-3" transform="translate(0 71.45)"><tspan x="0" y="0">(d</tspan></text>
  <text class="cls-3" transform="translate(11.6 75.45) scale(.58)"><tspan x="0" y="0">2</tspan></text>
  <text class="cls-3" transform="translate(15.6 71.45)"><tspan x="0" y="0">)</tspan></text>
  <text class="cls-3" transform="translate(103.6 10)"><tspan x="0" y="0">(d)</tspan></text>
</svg>