<?xml version="1.0" encoding="UTF-8"?>
<svg id="Calque_1" data-name="Calque 1" xmlns="http://www.w3.org/2000/svg" viewBox="0 0 458.5 133.88">
  <defs>
    <style>
      .cls-1 {
        fill: none;
        stroke-linecap: round;
      }

      .cls-1, .cls-2, .cls-3, .cls-4, .cls-5 {
        stroke: #1d1d1b;
        stroke-miterlimit: 10;
        stroke-width: 2px;
      }

      .cls-2 {
        fill: #8fd0d7;
      }

      .cls-3 {
        fill: #f9b233;
      }

      .cls-4 {
        fill: #ffed00;
      }

      .cls-5 {
        fill: #769a9f;
      }
    </style>
  </defs>
  <g>
    <g>
      <path class="cls-1" d="m103,52.84c0-27.07-22.83-49.01-51-49.01S1,25.78,1,52.84"/>
      <path class="cls-2" d="m89.62,118.55l13.38-65.7c0-8.2-22.83-14.86-51-14.86S1,44.64,1,52.84l13.38,65.7"/>
      <ellipse class="cls-5" cx="52" cy="118.55" rx="37.62" ry="12.92"/>
      <path class="cls-3" d="m61.24,1.71h-.89c-.74,0-1.37.49-1.6,1.16-.08-.01-.16-.03-.25-.03h-13.01c-.08,0-.17.01-.25.03-.23-.67-.86-1.16-1.6-1.16h-.89c-.94,0-1.7.77-1.7,1.7v3.15c0,.94.77,1.7,1.7,1.7h.89c.74,0,1.37-.49,1.6-1.16.08.01.16.03.25.03h13.01c.08,0,.17-.01.25-.03.23.67.86,1.16,1.6,1.16h.89c.94,0,1.7-.77,1.7-1.7v-3.15c0-.94-.77-1.7-1.7-1.7Z"/>
    </g>
    <circle class="cls-4" cx="28.36" cy="110.89" r="11.84"/>
    <circle class="cls-4" cx="76.28" cy="110.89" r="11.84"/>
    <circle class="cls-4" cx="52" cy="105.63" r="11.84"/>
    <circle class="cls-4" cx="35.13" cy="88.15" r="11.84"/>
    <circle class="cls-4" cx="68.31" cy="88.15" r="11.84"/>
  </g>
  <g>
    <g>
      <path class="cls-1" d="m221.17,53.55c0-27.07-22.83-49.01-51-49.01s-51,21.94-51,49.01"/>
      <path class="cls-2" d="m207.79,119.26l13.38-65.7c0-8.2-22.83-14.86-51-14.86s-51,6.65-51,14.86l13.38,65.7"/>
      <ellipse class="cls-5" cx="170.17" cy="119.26" rx="37.62" ry="12.92"/>
      <path class="cls-3" d="m179.41,2.42h-.89c-.74,0-1.37.49-1.6,1.16-.08-.01-.16-.03-.25-.03h-13.01c-.08,0-.17.01-.25.03-.23-.67-.86-1.16-1.6-1.16h-.89c-.94,0-1.7.77-1.7,1.7v3.15c0,.94.77,1.7,1.7,1.7h.89c.74,0,1.37-.49,1.6-1.16.08.01.16.03.25.03h13.01c.08,0,.17-.01.25-.03.23.67.86,1.16,1.6,1.16h.89c.94,0,1.7-.77,1.7-1.7v-3.15c0-.94-.77-1.7-1.7-1.7Z"/>
    </g>
    <circle class="cls-4" cx="150.61" cy="111.44" r="11.84"/>
    <circle class="cls-4" cx="176.9" cy="111.44" r="11.84"/>
  </g>
  <g>
    <g>
      <path class="cls-1" d="m339.33,54.26c0-27.07-22.83-49.01-51-49.01s-51,21.94-51,49.01"/>
      <path class="cls-2" d="m325.96,119.96l13.38-65.7c0-8.2-22.83-14.86-51-14.86s-51,6.65-51,14.86l13.38,65.7"/>
      <ellipse class="cls-5" cx="288.33" cy="119.96" rx="37.62" ry="12.92"/>
      <path class="cls-3" d="m297.57,3.13h-.89c-.74,0-1.37.49-1.6,1.16-.08-.01-.16-.03-.25-.03h-13.01c-.08,0-.17.01-.25.03-.23-.67-.86-1.16-1.6-1.16h-.89c-.94,0-1.7.77-1.7,1.7v3.15c0,.94.77,1.7,1.7,1.7h.89c.74,0,1.37-.49,1.6-1.16.08.01.16.03.25.03h13.01c.08,0,.17-.01.25-.03.23.67.86,1.16,1.6,1.16h.89c.94,0,1.7-.77,1.7-1.7v-3.15c0-.94-.77-1.7-1.7-1.7Z"/>
    </g>
    <circle class="cls-4" cx="265.54" cy="111.47" r="11.84"/>
    <circle class="cls-4" cx="290.28" cy="113.2" r="11.84"/>
    <circle class="cls-4" cx="313.97" cy="110.18" r="11.84"/>
    <circle class="cls-4" cx="257.34" cy="87.78" r="11.84"/>
    <circle class="cls-4" cx="282.88" cy="89.56" r="11.84"/>
    <circle class="cls-4" cx="306.52" cy="86.49" r="11.84"/>
    <circle class="cls-4" cx="323.95" cy="69.34" r="11.84"/>
    <circle class="cls-4" cx="292.32" cy="66.11" r="11.84"/>
    <circle class="cls-4" cx="268.64" cy="66.11" r="11.84"/>
  </g>
  <g>
    <g>
      <path class="cls-1" d="m457.5,52.14c0-27.07-22.83-49.01-51-49.01s-51,21.94-51,49.01"/>
      <path class="cls-2" d="m444.12,117.84l13.38-65.7c0-8.2-22.83-14.86-51-14.86s-51,6.65-51,14.86l13.38,65.7"/>
      <ellipse class="cls-5" cx="406.5" cy="117.84" rx="37.62" ry="12.92"/>
      <path class="cls-3" d="m415.74,1h-.89c-.74,0-1.37.49-1.6,1.16-.08-.01-.16-.03-.25-.03h-13.01c-.08,0-.17.01-.25.03-.23-.67-.86-1.16-1.6-1.16h-.89c-.94,0-1.7.77-1.7,1.7v3.15c0,.94.77,1.7,1.7,1.7h.89c.74,0,1.37-.49,1.6-1.16.08.01.16.03.25.03h13.01c.08,0,.17-.01.25-.03.23.67.86,1.16,1.6,1.16h.89c.94,0,1.7-.77,1.7-1.7v-3.15c0-.94-.77-1.7-1.7-1.7Z"/>
    </g>
    <circle class="cls-4" cx="388.05" cy="108.98" r="11.84"/>
    <circle class="cls-4" cx="430.56" cy="108.98" r="11.84"/>
    <circle class="cls-4" cx="409.72" cy="96.21" r="11.84"/>
    <circle class="cls-4" cx="376.21" cy="87.53" r="11.84"/>
  </g>
</svg>