<?xml version="1.0" encoding="utf-8"?>
<!-- Generator: Adobe Illustrator 23.0.0, SVG Export Plug-In . SVG Version: 6.00 Build 0)  -->
<svg version="1.1" id="Calque_1" xmlns="http://www.w3.org/2000/svg" xmlns:xlink="http://www.w3.org/1999/xlink" x="0px" y="0px"
	 viewBox="0 0 681.2 48.9" style="enable-background:new 0 0 681.2 48.9;" xml:space="preserve">
<g>
	<g>
		<path d="M681.2,0c-1.8,0-3.2,0-4.8,0c-0.3,4-0.5,8-0.8,11.9c-0.2,2.2-0.7,4.4-1,6.6c-0.2,1.8-1.2,2.3-2.9,2.1
			c-0.7-0.1-1.5,0-2.2,0c-107.4,0-214.8,0-322.2,0c-2.6,0-5.1,0-6.5,3.2c-1.4-3.1-3.7-3.2-6.3-3.2c-107.8,0-215.6,0-323.4,0.1
			c-2.9,0-4.3-0.7-4.5-3.7C6.1,11.5,5.4,6,4.8,0.2c-1.3,0-2.8,0-4.8,0c0.2,4.3,0.4,8.6,0.8,12.9c0.3,2.7,0.8,5.4,1.5,8
			c1.1,4,2.1,4.7,6.3,4.7c107.8,0,215.6,0,323.4,0c4.1,0,4.3,0,4.9,4.1c0.7,5.2,1,10.4,1.4,15.6c0.1,1.7,0.2,3.3,2.4,3.4
			c2.3,0.1,2.7-1.6,2.8-3.4c0.4-5.3,0.8-10.6,1.1-15.9c0.2-2.8,1.3-3.8,4.4-3.8c107.9,0.1,215.8,0.1,323.6,0.1
			c4.6,0,5.4-0.5,6.6-4.8C681,14.2,681.3,7.3,681.2,0z"/>
	</g>
</g>
</svg>
