<svg xmlns="http://www.w3.org/2000/svg" width="4cm" height="4cm" viewBox="0 0 113.39 113.39">
  <title>Pyramide et cone</title>
  <polyline points="22.27 43.12 22.27 50.53 56.1 58.45" fill="none" stroke="#231f20" stroke-linecap="round" stroke-linejoin="round" stroke-width="0.96"/>
  <g>
    <polygon points="71.53 99.24 7.73 88.73 44.49 62.02 108.29 72.53 71.53 99.24" fill="none" stroke="#231f20" stroke-linejoin="round" stroke-width="1.91" stroke-dasharray="3.89 2.22"/>
    <line x1="58.01" y1="20.42" x2="58.01" y2="80.63" fill="none" stroke="#ed1c24" stroke-linejoin="round" stroke-width="0.96"/>
    <polygon points="71.53 99.24 7.73 88.73 58.01 20.42 108.29 72.53 71.53 99.24" fill="none" stroke="#231f20" stroke-miterlimit="10" stroke-width="1.91"/>
    <line x1="44.5" y1="62.02" x2="58.01" y2="20.42" fill="none" stroke="#231f20" stroke-miterlimit="10" stroke-width="1.91" stroke-dasharray="3.89 2.22"/>
    <line x1="71.53" y1="99.24" x2="58.01" y2="20.42" fill="none" stroke="#231f20" stroke-miterlimit="10" stroke-width="1.91"/>
    <polyline points="53.26 80.63 53.26 75.89 58.01 75.89 58.01 80.63" fill="none" stroke="#ed1c24" stroke-miterlimit="10" stroke-width="0.96"/>
  </g>
  <g>
    <polyline points="56.1 23.02 58.01 20.42 59.83 22.31" fill="none" stroke="#fff200" stroke-linecap="round" stroke-miterlimit="10" stroke-width="0.96"/>
    <line x1="58.01" y1="20.42" x2="58.46" y2="23.02" fill="none" stroke="#fff200" stroke-linecap="round" stroke-miterlimit="10" stroke-width="0.96"/>
  </g>
  <line x1="60.74" y1="20.42" x2="67.47" y2="20.42" fill="none" stroke="#231f20" stroke-linecap="round" stroke-miterlimit="10" stroke-width="0.96"/>
  <g>
    <path d="M72,24l-.52-.11a4,4,0,0,1-1-.33,4.31,4.31,0,0,1-.85-.56l.71-.88a3.27,3.27,0,0,0,1,.61,3.61,3.61,0,0,0,1.21.2,2.47,2.47,0,0,0,1.38-.33,1.06,1.06,0,0,0,.48-.93h0a1,1,0,0,0-.22-.68,1.41,1.41,0,0,0-.57-.37,6.78,6.78,0,0,0-.91-.22h-.07l-.08,0a9.16,9.16,0,0,1-1.33-.31,1.87,1.87,0,0,1-.88-.65A2.13,2.13,0,0,1,70,18.12h0a2.43,2.43,0,0,1,.34-1.29,2.16,2.16,0,0,1,1-.81,3.93,3.93,0,0,1,1.57-.28,4.19,4.19,0,0,1,.86.09,4.31,4.31,0,0,1,.83.29,4.15,4.15,0,0,1,.81.47l-.65.91a4,4,0,0,0-.93-.52,2.67,2.67,0,0,0-.92-.17,2.14,2.14,0,0,0-1.3.34,1.08,1.08,0,0,0-.46.94h0a.93.93,0,0,0,.23.66,1.38,1.38,0,0,0,.6.35,8,8,0,0,0,1,.24h.21a6.54,6.54,0,0,1,1.23.36,1.92,1.92,0,0,1,.83.67,2.14,2.14,0,0,1,.33,1.26v0a2.11,2.11,0,0,1-1.37,2.08,4.36,4.36,0,0,1-1.62.27Z" fill="#231f20"/>
    <path d="M78,23.75a2,2,0,0,1-.82-.87,3,3,0,0,1-.28-1.37v-1a3,3,0,0,1,.28-1.35,2,2,0,0,1,.82-.86,3,3,0,0,1,2.59,0,2,2,0,0,1,.83.86,3.13,3.13,0,0,1,.28,1.35v1a3.14,3.14,0,0,1-.28,1.36,2,2,0,0,1-.83.86,3,3,0,0,1-2.59,0Zm2.23-1.17a1.53,1.53,0,0,0,.32-1v-1a1.49,1.49,0,0,0-.32-1,1.35,1.35,0,0,0-1.86,0,1.49,1.49,0,0,0-.33,1v1a1.54,1.54,0,0,0,.33,1,1.33,1.33,0,0,0,1.86,0Z" fill="#231f20"/>
    <path d="M83.3,18.14h1.15V24H83.3Zm3.48,2.3a1.4,1.4,0,0,0-.3-1,1.12,1.12,0,0,0-.86-.33,1.23,1.23,0,0,0-.87.29,1.14,1.14,0,0,0-.3.84l-.12-1.12a2.17,2.17,0,0,1,.7-.82,1.71,1.71,0,0,1,1-.28,1.87,1.87,0,0,1,1.05.28,1.72,1.72,0,0,1,.65.81,3.08,3.08,0,0,1,.23,1.28V24H86.78Zm3.47,0a1.31,1.31,0,0,0-.32-1,1.18,1.18,0,0,0-.89-.33,1,1,0,0,0-.83.32,1.35,1.35,0,0,0-.29.92l-.23-1.12a2.25,2.25,0,0,1,.73-.89,1.63,1.63,0,0,1,1-.32,2,2,0,0,1,1.08.28,1.69,1.69,0,0,1,.67.81,3.08,3.08,0,0,1,.24,1.28V24H90.25Z" fill="#231f20"/>
    <path d="M93.13,18.14h1.15V24H93.13Zm3.48,2.3a1.4,1.4,0,0,0-.3-1,1.11,1.11,0,0,0-.86-.33,1.25,1.25,0,0,0-.87.29,1.14,1.14,0,0,0-.3.84l-.12-1.12a2.17,2.17,0,0,1,.7-.82,1.72,1.72,0,0,1,1-.28,1.86,1.86,0,0,1,1,.28,1.68,1.68,0,0,1,.66.81,3.26,3.26,0,0,1,.22,1.28V24H96.61Zm3.48,0a1.36,1.36,0,0,0-.32-1,1.22,1.22,0,0,0-.9-.33,1,1,0,0,0-.83.32,1.35,1.35,0,0,0-.29.92l-.23-1.12a2.25,2.25,0,0,1,.73-.89,1.63,1.63,0,0,1,1-.32,2,2,0,0,1,1.07.28,1.71,1.71,0,0,1,.68.81,3.25,3.25,0,0,1,.23,1.28V24h-1.14Z" fill="#231f20"/>
    <path d="M104.54,24l-.57-.3a2,2,0,0,1-.87-.89,3.06,3.06,0,0,1-.3-1.41v-.66a3.33,3.33,0,0,1,.29-1.47,2,2,0,0,1,.83-.93,2.64,2.64,0,0,1,1.33-.32,2.11,2.11,0,0,1,1.24.36,2.27,2.27,0,0,1,.79,1.06,4.53,4.53,0,0,1,.27,1.65v.38h-3.92v-.92h2.83a1.92,1.92,0,0,0-.36-1.1,1,1,0,0,0-.85-.4,1.23,1.23,0,0,0-1,.43,1.79,1.79,0,0,0-.35,1.2v.74a1.5,1.5,0,0,0,.38,1.11,1.43,1.43,0,0,0,1.08.39,1.89,1.89,0,0,0,.69-.14,2.27,2.27,0,0,0,.61-.39l.75.75a3.27,3.27,0,0,1-1,.64,2.78,2.78,0,0,1-1.08.22Z" fill="#231f20"/>
    <path d="M108.67,18.14h2.62v1h-2.62Zm.93,5.46a1.73,1.73,0,0,1-.33-1.15v-6h1.15v6a.54.54,0,0,0,.08.33.31.31,0,0,0,.25.11h.54V24h-.66A1.27,1.27,0,0,1,109.6,23.6Z" fill="#231f20"/>
  </g>
  <g>
    <path d="M2.43,32.28H3.57v8.15H2.43Zm.71,3.59H7.66V37H3.14Zm3.92-3.59H8.2v8.15H7.06Z" fill="#ed1c24"/>
    <path d="M10.36,40.07a1.66,1.66,0,0,1-.53-1.36,1.64,1.64,0,0,1,.48-1.29A2.18,2.18,0,0,1,11.79,37h1.65l.08.91H11.79a1,1,0,0,0-.67.2.82.82,0,0,0-.22.61.75.75,0,0,0,.3.66,1.52,1.52,0,0,0,.89.21,2.68,2.68,0,0,0,1-.14.46.46,0,0,0,.32-.44l.12.82a1.29,1.29,0,0,1-.38.39,1.71,1.71,0,0,1-.51.23,2.59,2.59,0,0,1-.65.07A2.5,2.5,0,0,1,10.36,40.07Zm3-3.33a1.21,1.21,0,0,0-.31-.89,1.14,1.14,0,0,0-.86-.32,2.25,2.25,0,0,0-.68.11,1.82,1.82,0,0,0-.59.3l-.84-.57a2.07,2.07,0,0,1,.87-.62,3.11,3.11,0,0,1,1.21-.23,2.72,2.72,0,0,1,1.23.26,1.77,1.77,0,0,1,.79.74,2.35,2.35,0,0,1,.27,1.17v3.74H13.39Z" fill="#ed1c24"/>
    <path d="M17.36,38.15a1.32,1.32,0,0,0,.31.94,1.15,1.15,0,0,0,.88.33,1.25,1.25,0,0,0,.87-.29,1.14,1.14,0,0,0,.3-.85l.08,1.22a1.74,1.74,0,0,1-.58.72,1.68,1.68,0,0,1-1,.29,1.85,1.85,0,0,1-1.49-.62,2.6,2.6,0,0,1-.52-1.74V34.61h1.14Zm2.36-3.54h1.14v5.82H19.72Z" fill="#ed1c24"/>
    <path d="M22.15,34.61h2.62v1H22.15Zm.93,5.46a1.76,1.76,0,0,1-.33-1.16v-6h1.14v6a.5.5,0,0,0,.09.33.28.28,0,0,0,.25.12h.54v1.08h-.66A1.27,1.27,0,0,1,23.08,40.07Z" fill="#ed1c24"/>
    <path d="M27.92,40.51l-.57-.3a2,2,0,0,1-.87-.89,3.07,3.07,0,0,1-.3-1.42v-.65a3.49,3.49,0,0,1,.28-1.48,2.23,2.23,0,0,1,.84-.93,2.64,2.64,0,0,1,1.33-.32,2.11,2.11,0,0,1,1.24.37,2.26,2.26,0,0,1,.79,1,4.55,4.55,0,0,1,.27,1.66V38H27v-.92h2.84A1.86,1.86,0,0,0,29.47,36a1,1,0,0,0-.84-.39,1.25,1.25,0,0,0-1,.42,1.84,1.84,0,0,0-.36,1.21v.74A1.54,1.54,0,0,0,27.64,39a1.5,1.5,0,0,0,1.09.38,1.7,1.7,0,0,0,.69-.14,2,2,0,0,0,.61-.39l.75.75a3.09,3.09,0,0,1-1,.64,2.63,2.63,0,0,1-1.08.23Z" fill="#ed1c24"/>
    <path d="M33.5,38.15a1.36,1.36,0,0,0,.31.94,1.15,1.15,0,0,0,.88.33,1.25,1.25,0,0,0,.87-.29,1.15,1.15,0,0,0,.31-.85L36,39.5a1.76,1.76,0,0,1-.59.72,1.68,1.68,0,0,1-1,.29,1.86,1.86,0,0,1-1.49-.62,2.6,2.6,0,0,1-.52-1.74V34.61H33.5Zm2.37-3.54H37v5.82H35.87Z" fill="#ed1c24"/>
    <path d="M38.74,34.61h1.15v5.82H38.74Zm2.82,1.1a1.25,1.25,0,0,0-.53-.1,1,1,0,0,0-1.14,1.13l-.12-1.12a2.29,2.29,0,0,1,.69-.81,1.68,1.68,0,0,1,.94-.29,2.11,2.11,0,0,1,.73.12,1.68,1.68,0,0,1,.56.34l-.75,1A.82.82,0,0,0,41.56,35.71Z" fill="#ed1c24"/>
  </g>
</svg>
