<svg xmlns="http://www.w3.org/2000/svg" width="4cm" height="4cm" viewBox="0 0 113.38 113.38">
  <title>Volumes</title>
  <g>
    <polyline points="6.46 45.28 84.1 45.28 84.1 90.92" fill="none" stroke="#231f20" stroke-miterlimit="10" stroke-width="2"/>
    <polygon points="106.92 68.1 106.92 22.46 29.28 22.46 6.46 45.28 6.46 90.92 84.1 90.92 106.92 68.1" fill="none" stroke="#231f20" stroke-miterlimit="10" stroke-width="2"/>
    <polyline points="106.92 68.1 29.28 68.1 29.28 22.46" fill="none" stroke="#231f20" stroke-miterlimit="10" stroke-width="2" stroke-dasharray="3.76 2.15"/>
    <line x1="6.46" y1="90.92" x2="29.28" y2="68.1" fill="none" stroke="#231f20" stroke-miterlimit="10" stroke-width="2" stroke-dasharray="3.76 2.15"/>
    <line x1="84.1" y1="45.28" x2="106.92" y2="22.46" fill="none" stroke="#231f20" stroke-miterlimit="10" stroke-width="2"/>
  </g>
  <g>
    <path d="M21.62,92.9h1.2v8.52h-1.2Zm.6,7.39H27.1v1.13H22.22Z" fill="#231f20"/>
    <path d="M29.36,101.2a2,2,0,0,1-.85-.91,3.12,3.12,0,0,1-.3-1.43v-1a3.06,3.06,0,0,1,.3-1.41,2,2,0,0,1,.85-.9,2.76,2.76,0,0,1,1.36-.31,2.72,2.72,0,0,1,1.35.31,2,2,0,0,1,.86.9,3.06,3.06,0,0,1,.3,1.41v1a3.1,3.1,0,0,1-.3,1.42,2.08,2.08,0,0,1-.86.9,2.72,2.72,0,0,1-1.35.31A2.76,2.76,0,0,1,29.36,101.2ZM31.69,100a1.61,1.61,0,0,0,.34-1.1v-1a1.57,1.57,0,0,0-.34-1.09,1.4,1.4,0,0,0-1.94,0,1.57,1.57,0,0,0-.35,1.09v1a1.61,1.61,0,0,0,.35,1.1,1.4,1.4,0,0,0,1.94,0Z" fill="#231f20"/>
    <path d="M34.92,95.34h1.2v6.08h-1.2Zm3.7,2.4a1.41,1.41,0,0,0-.34-1,1.24,1.24,0,0,0-.94-.35,1.22,1.22,0,0,0-.9.31,1.18,1.18,0,0,0-.32.87L36,96.4a2.11,2.11,0,0,1,.73-.85,1.79,1.79,0,0,1,1-.3,1.89,1.89,0,0,1,1.53.65,2.77,2.77,0,0,1,.54,1.83v3.69H38.62Z" fill="#231f20"/>
    <path d="M42.42,101.24a1.83,1.83,0,0,1-.72-.85,3.21,3.21,0,0,1-.25-1.34V97.71a3.38,3.38,0,0,1,.24-1.34,1.91,1.91,0,0,1,.7-.85,2.08,2.08,0,0,1,1.11-.29,1.79,1.79,0,0,1,1,.29,2.07,2.07,0,0,1,.73.79l-.13,1.24a1.34,1.34,0,0,0-.14-.66.91.91,0,0,0-.4-.42,1.33,1.33,0,0,0-.65-.15,1.18,1.18,0,0,0-.92.37,1.58,1.58,0,0,0-.32,1v1.32a1.51,1.51,0,0,0,.32,1,1.18,1.18,0,0,0,.92.36,1.33,1.33,0,0,0,.65-.15,1,1,0,0,0,.4-.43,1.42,1.42,0,0,0,.14-.68l.09,1.29a1.68,1.68,0,0,1-.6.75,1.6,1.6,0,0,1-1,.31A2.14,2.14,0,0,1,42.42,101.24Zm.56,2.65-.54-.25a2,2,0,0,1-.84-.72l.81-.73a1.67,1.67,0,0,0,.56.5,1.46,1.46,0,0,0,.68.17,1.43,1.43,0,0,0,1.06-.37,1.47,1.47,0,0,0,.37-1.07V95.34h1.2v5.9a3.06,3.06,0,0,1-.31,1.44,2,2,0,0,1-.89.9,2.94,2.94,0,0,1-1.41.31Z" fill="#231f20"/>
    <path d="M49.29,99a1.37,1.37,0,0,0,.33,1,1.15,1.15,0,0,0,.91.35,1.24,1.24,0,0,0,.91-.31,1.13,1.13,0,0,0,.32-.88l.09,1.27a1.86,1.86,0,0,1-.61.76,1.75,1.75,0,0,1-1,.3,2,2,0,0,1-1.56-.65A2.76,2.76,0,0,1,48.1,99v-3.7h1.19Zm2.47-3.7H53v6.08H51.76Z" fill="#231f20"/>
    <path d="M56.42,101.51l-.6-.32a2.1,2.1,0,0,1-.91-.93,3.16,3.16,0,0,1-.32-1.47V98.1a3.44,3.44,0,0,1,.31-1.54,2.11,2.11,0,0,1,.87-1,2.64,2.64,0,0,1,1.38-.34,2.25,2.25,0,0,1,1.31.38,2.46,2.46,0,0,1,.82,1.1,4.72,4.72,0,0,1,.28,1.73v.4h-4.1v-1h3A2.1,2.1,0,0,0,58,96.74a1.08,1.08,0,0,0-.89-.41,1.29,1.29,0,0,0-1,.45A1.88,1.88,0,0,0,55.73,98v.77a1.57,1.57,0,0,0,.4,1.16,1.5,1.5,0,0,0,1.13.4,2,2,0,0,0,.72-.14,2.26,2.26,0,0,0,.64-.41l.78.78a3.24,3.24,0,0,1-1,.67,2.83,2.83,0,0,1-1.13.24Z" fill="#231f20"/>
    <path d="M62.25,99a1.37,1.37,0,0,0,.33,1,1.15,1.15,0,0,0,.91.35,1.23,1.23,0,0,0,.91-.31,1.14,1.14,0,0,0,.33-.88l.08,1.27a1.86,1.86,0,0,1-.61.76,1.75,1.75,0,0,1-1,.3,2,2,0,0,1-1.56-.65A2.76,2.76,0,0,1,61.06,99v-3.7h1.19Zm2.48-3.7h1.18v6.08H64.73Z" fill="#231f20"/>
    <path d="M67.73,95.34h1.2v6.08h-1.2Zm3,1.15a1.4,1.4,0,0,0-.56-.1,1.08,1.08,0,0,0-1.19,1.18L68.8,96.4a2.26,2.26,0,0,1,.73-.85,1.72,1.72,0,0,1,1-.3,2.29,2.29,0,0,1,.76.12,1.71,1.71,0,0,1,.59.36l-.78,1A1,1,0,0,0,70.68,96.49Z" fill="#231f20"/>
  </g>
  <g>
    <path d="M78.84,99.73l.85-.84,6,6-.84.84Zm5.63,4.82,3.46-3.43.8.8-3.46,3.44Z" fill="#231f20"/>
    <path d="M89.36,95.86a1.31,1.31,0,0,0-.88-.44,1.2,1.2,0,0,0-.87.41,2,2,0,0,0-.43.58,2.08,2.08,0,0,0-.22.65l-1,.2a2.33,2.33,0,0,1,.19-1.11,3.38,3.38,0,0,1,.73-1.05,3,3,0,0,1,1.1-.72,1.82,1.82,0,0,1,1.13,0,2.46,2.46,0,0,1,1.06.67l2.76,2.77-.81.8Zm.2,4.7a2.06,2.06,0,0,1-2-1.93,2.3,2.3,0,0,1,.78-1.41L89.58,96l.74.63L89,97.9a1,1,0,0,0-.35.64.77.77,0,0,0,.28.61.79.79,0,0,0,.7.27,1.58,1.58,0,0,0,.82-.5,2.53,2.53,0,0,0,.62-.82.47.47,0,0,0-.08-.56l.69.52a1.51,1.51,0,0,1,0,.56,2.07,2.07,0,0,1-.21.55,2.9,2.9,0,0,1-.43.54A2.62,2.62,0,0,1,89.56,100.56Z" fill="#231f20"/>
    <path d="M89.89,92.2l.85-.84L95,95.67l-.84.84Zm2.9-1.26a1.46,1.46,0,0,0-.47.32,1.19,1.19,0,0,0-.4.84,1.18,1.18,0,0,0,.39.84l-.91-.75a2.13,2.13,0,0,1-.08-1.11,1.79,1.79,0,0,1,.48-.91,2.44,2.44,0,0,1,.62-.44,1.79,1.79,0,0,1,.67-.17l.19,1.3A1,1,0,0,0,92.79,90.94Z" fill="#231f20"/>
    <path d="M98.15,92.3a1.91,1.91,0,0,1-1.1-.09,3.36,3.36,0,0,1-1.12-.78l-.94-1a3.46,3.46,0,0,1-.78-1.12,1.83,1.83,0,0,1-.1-1.1,2,2,0,0,1,.58-1,1.92,1.92,0,0,1,.9-.5,2.18,2.18,0,0,1,1.07,0l.79,1a1.51,1.51,0,0,0-.57-.37,1,1,0,0,0-.58,0,1.4,1.4,0,0,0-.56.36,1.14,1.14,0,0,0-.39.9,1.5,1.5,0,0,0,.5,1l.93.94a1.44,1.44,0,0,0,1,.49,1.18,1.18,0,0,0,.91-.38,1.34,1.34,0,0,0,.35-.57,1,1,0,0,0,0-.59A1.53,1.53,0,0,0,98.6,89l1,.86a1.6,1.6,0,0,1,.11,1,1.65,1.65,0,0,1-.5.93A2.09,2.09,0,0,1,98.15,92.3Zm2.28,1.49-.57.2a2,2,0,0,1-1.1.08L98.82,93a1.58,1.58,0,0,0,.75,0,1.55,1.55,0,0,0,.61-.35,1.47,1.47,0,0,0,.48-1,1.41,1.41,0,0,0-.49-1l-4.28-4.31.85-.85,4.16,4.19a3.1,3.1,0,0,1,.79,1.24,2,2,0,0,1,0,1.27,2.84,2.84,0,0,1-.79,1.21Z" fill="#231f20"/>
    <path d="M103.55,87.33l-.65.2a2.14,2.14,0,0,1-1.3,0,3.2,3.2,0,0,1-1.27-.83l-.48-.48A3.74,3.74,0,0,1,99,84.89a2.18,2.18,0,0,1-.07-1.31,2.77,2.77,0,0,1,.75-1.21,2.24,2.24,0,0,1,1.19-.65,2.37,2.37,0,0,1,1.36.21,4.5,4.5,0,0,1,1.42,1l.28.28L101,86.13l-.68-.69,2.11-2.09a2.13,2.13,0,0,0-1.09-.55,1.08,1.08,0,0,0-.92.33,1.3,1.3,0,0,0-.43,1.06,1.91,1.91,0,0,0,.62,1.16l.55.55a1.58,1.58,0,0,0,1.1.54,1.54,1.54,0,0,0,1.08-.51,1.82,1.82,0,0,0,.41-.61,2.15,2.15,0,0,0,.17-.74H105a3.42,3.42,0,0,1-.25,1.19,2.83,2.83,0,0,1-.64,1Z" fill="#231f20"/>
    <path d="M105.94,81.46a1.41,1.41,0,0,0,.93.48,1.24,1.24,0,0,0,.9-.4,1.27,1.27,0,0,0,.42-.86,1.16,1.16,0,0,0-.39-.86l1,.85a1.64,1.64,0,0,1,.1,1,1.71,1.71,0,0,1-.52,1,1.93,1.93,0,0,1-1.56.63,2.71,2.71,0,0,1-1.67-.9l-2.61-2.63.85-.84Zm-.85-4.36.85-.84,4.28,4.32-.84.83Z" fill="#231f20"/>
    <path d="M107.23,75l.84-.84,4.29,4.31-.85.84Zm2.9-1.26a1.36,1.36,0,0,0-.47.32,1.09,1.09,0,0,0,0,1.68l-.92-.74a2.28,2.28,0,0,1-.08-1.12,1.67,1.67,0,0,1,.49-.9,2.12,2.12,0,0,1,.62-.45,1.73,1.73,0,0,1,.67-.16l.19,1.3A.92.92,0,0,0,110.13,73.72Z" fill="#231f20"/>
  </g>
  <g>
    <path d="M93.54,56.89v-1.2h8.52v1.2Zm0,4.84v-1.2h8.52v1.2ZM97.3,61V56.25h1.14V61Z" fill="none" stroke="#fff" stroke-miterlimit="10" stroke-width="3"/>
    <path d="M98.21,50.27a1.29,1.29,0,0,0-.93.31,1.22,1.22,0,0,0-.33.91,2.15,2.15,0,0,0,.11.71,2.12,2.12,0,0,0,.31.62l-.6.87a2.29,2.29,0,0,1-.65-.91,3.31,3.31,0,0,1-.23-1.25,2.87,2.87,0,0,1,.27-1.3,1.91,1.91,0,0,1,.77-.82,2.47,2.47,0,0,1,1.22-.28h3.91v1.14Zm3.47,3.17a1.73,1.73,0,0,1-1.41.55,1.71,1.71,0,0,1-1.35-.51,2.27,2.27,0,0,1-.45-1.54V50.21l1-.08v1.81a1.08,1.08,0,0,0,.2.7.83.83,0,0,0,.64.23.81.81,0,0,0,.69-.31,1.68,1.68,0,0,0,.22-.93,2.7,2.7,0,0,0-.15-1,.48.48,0,0,0-.46-.33l.86-.13a1.49,1.49,0,0,1,.4.39,1.65,1.65,0,0,1,.24.54,2.82,2.82,0,0,1,.08.68A2.56,2.56,0,0,1,101.68,53.44Z" fill="none" stroke="#fff" stroke-miterlimit="10" stroke-width="3"/>
    <path d="M96,43.64V42.46h6.08v1.18Zm3.7,2.48a1.41,1.41,0,0,0,1-.33,1.18,1.18,0,0,0,.34-.91,1.23,1.23,0,0,0-.31-.91,1.14,1.14,0,0,0-.88-.33l1.27-.08a1.86,1.86,0,0,1,.76.61,1.75,1.75,0,0,1,.3,1,1.92,1.92,0,0,1-.65,1.55,2.71,2.71,0,0,1-1.82.55H96V46.12Z" fill="none" stroke="#fff" stroke-miterlimit="10" stroke-width="3"/>
    <path d="M101.68,40.14a1.81,1.81,0,0,1-1.2.34H94.21V39.29h6.28a.58.58,0,0,0,.35-.09.31.31,0,0,0,.12-.26v-.57h1.13v.69A1.31,1.31,0,0,1,101.68,40.14Zm-5.7,1V38.37h1.08v2.74Z" fill="none" stroke="#fff" stroke-miterlimit="10" stroke-width="3"/>
    <path d="M102.15,35.08l-.32.6a2.18,2.18,0,0,1-.92.91,3.23,3.23,0,0,1-1.48.31h-.69a3.62,3.62,0,0,1-1.54-.3,2.08,2.08,0,0,1-1-.88,2.62,2.62,0,0,1-.34-1.38,2.22,2.22,0,0,1,.38-1.3,2.37,2.37,0,0,1,1.11-.82,4.65,4.65,0,0,1,1.72-.29h.4V36h-1v-3a2.05,2.05,0,0,0-1.16.38,1.1,1.1,0,0,0-.41.89,1.29,1.29,0,0,0,.45,1,1.88,1.88,0,0,0,1.26.37h.77a1.61,1.61,0,0,0,1.16-.39,1.54,1.54,0,0,0,.4-1.14,1.84,1.84,0,0,0-.14-.72,2.21,2.21,0,0,0-.41-.63l.78-.79a3.18,3.18,0,0,1,.67,1,2.91,2.91,0,0,1,.24,1.13Z" fill="none" stroke="#fff" stroke-miterlimit="10" stroke-width="3"/>
    <path d="M96,26.77V25.58h6.08v1.19Zm3.7,2.47a1.45,1.45,0,0,0,1-.32A1.21,1.21,0,0,0,101,28a1.26,1.26,0,0,0-.31-.91,1.17,1.17,0,0,0-.88-.32l1.27-.08a1.78,1.78,0,0,1,.76.61,1.72,1.72,0,0,1,.3,1,1.94,1.94,0,0,1-.65,1.56,2.77,2.77,0,0,1-1.82.55H96v-1.2Z" fill="none" stroke="#fff" stroke-miterlimit="10" stroke-width="3"/>
    <path d="M97.13,20.82a1.35,1.35,0,0,0-.1.55,1.09,1.09,0,0,0,1.18,1.2L97,22.69a2.34,2.34,0,0,1-.85-.73,1.69,1.69,0,0,1-.3-1,2.19,2.19,0,0,1,.12-.75,1.62,1.62,0,0,1,.36-.59l1,.78A1,1,0,0,0,97.13,20.82ZM96,23.76V22.57h6.08v1.19Z" fill="none" stroke="#fff" stroke-miterlimit="10" stroke-width="3"/>
  </g>
  <g>
    <path d="M93.54,56.89v-1.2h8.52v1.2Zm0,4.84v-1.2h8.52v1.2ZM97.3,61V56.25h1.14V61Z" fill="#231f20"/>
    <path d="M98.21,50.27a1.29,1.29,0,0,0-.93.31,1.22,1.22,0,0,0-.33.91,2.15,2.15,0,0,0,.11.71,2.12,2.12,0,0,0,.31.62l-.6.87a2.29,2.29,0,0,1-.65-.91,3.31,3.31,0,0,1-.23-1.25,2.87,2.87,0,0,1,.27-1.3,1.91,1.91,0,0,1,.77-.82,2.47,2.47,0,0,1,1.22-.28h3.91v1.14Zm3.47,3.17a1.73,1.73,0,0,1-1.41.55,1.71,1.71,0,0,1-1.35-.51,2.27,2.27,0,0,1-.45-1.54V50.21l1-.08v1.81a1.08,1.08,0,0,0,.2.7.83.83,0,0,0,.64.23.81.81,0,0,0,.69-.31,1.68,1.68,0,0,0,.22-.93,2.7,2.7,0,0,0-.15-1,.48.48,0,0,0-.46-.33l.86-.13a1.49,1.49,0,0,1,.4.39,1.65,1.65,0,0,1,.24.54,2.82,2.82,0,0,1,.08.68A2.56,2.56,0,0,1,101.68,53.44Z" fill="#231f20"/>
    <path d="M96,43.64V42.46h6.08v1.18Zm3.7,2.48a1.41,1.41,0,0,0,1-.33,1.18,1.18,0,0,0,.34-.91,1.23,1.23,0,0,0-.31-.91,1.14,1.14,0,0,0-.88-.33l1.27-.08a1.86,1.86,0,0,1,.76.61,1.75,1.75,0,0,1,.3,1,1.92,1.92,0,0,1-.65,1.55,2.71,2.71,0,0,1-1.82.55H96V46.12Z" fill="#231f20"/>
    <path d="M101.68,40.14a1.81,1.81,0,0,1-1.2.34H94.21V39.29h6.28a.58.58,0,0,0,.35-.09.31.31,0,0,0,.12-.26v-.57h1.13v.69A1.31,1.31,0,0,1,101.68,40.14Zm-5.7,1V38.37h1.08v2.74Z" fill="#231f20"/>
    <path d="M102.15,35.08l-.32.6a2.18,2.18,0,0,1-.92.91,3.23,3.23,0,0,1-1.48.31h-.69a3.62,3.62,0,0,1-1.54-.3,2.08,2.08,0,0,1-1-.88,2.62,2.62,0,0,1-.34-1.38,2.22,2.22,0,0,1,.38-1.3,2.37,2.37,0,0,1,1.11-.82,4.65,4.65,0,0,1,1.72-.29h.4V36h-1v-3a2.05,2.05,0,0,0-1.16.38,1.1,1.1,0,0,0-.41.89,1.29,1.29,0,0,0,.45,1,1.88,1.88,0,0,0,1.26.37h.77a1.61,1.61,0,0,0,1.16-.39,1.54,1.54,0,0,0,.4-1.14,1.84,1.84,0,0,0-.14-.72,2.21,2.21,0,0,0-.41-.63l.78-.79a3.18,3.18,0,0,1,.67,1,2.91,2.91,0,0,1,.24,1.13Z" fill="#231f20"/>
    <path d="M96,26.77V25.58h6.08v1.19Zm3.7,2.47a1.45,1.45,0,0,0,1-.32A1.21,1.21,0,0,0,101,28a1.26,1.26,0,0,0-.31-.91,1.17,1.17,0,0,0-.88-.32l1.27-.08a1.78,1.78,0,0,1,.76.61,1.72,1.72,0,0,1,.3,1,1.94,1.94,0,0,1-.65,1.56,2.77,2.77,0,0,1-1.82.55H96v-1.2Z" fill="#231f20"/>
    <path d="M97.13,20.82a1.35,1.35,0,0,0-.1.55,1.09,1.09,0,0,0,1.18,1.2L97,22.69a2.34,2.34,0,0,1-.85-.73,1.69,1.69,0,0,1-.3-1,2.19,2.19,0,0,1,.12-.75,1.62,1.62,0,0,1,.36-.59l1,.78A1,1,0,0,0,97.13,20.82ZM96,23.76V22.57h6.08v1.19Z" fill="#231f20"/>
  </g>
</svg>
