<svg xmlns="http://www.w3.org/2000/svg" width="4cm" height="4cm" viewBox="0 0 113.39 113.39">
  <title>Volumes</title>
  <polygon points="70.82 97.88 4.14 86.89 42.56 58.98 109.25 69.97 70.82 97.88" fill="#fbb040" stroke="#231f20" stroke-linejoin="round" stroke-width="2" stroke-dasharray="4.07 2.32"/>
  <line x1="42.57" y1="58.98" x2="56.69" y2="15.49" fill="none" stroke="#231f20" stroke-miterlimit="10" stroke-width="2" stroke-dasharray="4.07 2.32"/>
  <g>
    <line x1="56.69" y1="15.49" x2="56.69" y2="78.43" fill="none" stroke="#ed1c24" stroke-linejoin="round"/>
    <polyline points="51.95 78.7 51.95 73.95 56.69 73.95 56.69 78.7" fill="none" stroke="#ed1c24" stroke-miterlimit="10"/>
  </g>
  <polygon points="70.82 97.88 4.14 86.89 56.69 15.49 109.25 69.97 70.82 97.88" fill="none" stroke="#231f20" stroke-miterlimit="10" stroke-width="2"/>
  <line x1="70.82" y1="97.88" x2="56.69" y2="15.49" fill="none" stroke="#231f20" stroke-miterlimit="10" stroke-width="2"/>
  <g>
    <path d="M40.09,80.76h1.19v8.52H40.09Zm.7,7.41H43.1a2.07,2.07,0,0,0,1.32-.34,1.19,1.19,0,0,0,.42-1v0a1.73,1.73,0,0,0-.15-.75,1.07,1.07,0,0,0-.47-.47,1.7,1.7,0,0,0-.83-.17h-2.6V84.37h2.6a1.41,1.41,0,0,0,1-.31,1.21,1.21,0,0,0,.34-.92,1.16,1.16,0,0,0-.38-1,1.65,1.65,0,0,0-1.12-.32H40.79V80.76h2.65a3.18,3.18,0,0,1,1.39.28,2,2,0,0,1,.83.8,2.6,2.6,0,0,1,.27,1.23,1.88,1.88,0,0,1-.17.82,1.64,1.64,0,0,1-.51.66,2.15,2.15,0,0,1-.87.37,1.91,1.91,0,0,1,.89.36,2.07,2.07,0,0,1,.58.73,2.21,2.21,0,0,1,.19.93v0a2.42,2.42,0,0,1-.3,1.22,2,2,0,0,1-.87.81,2.8,2.8,0,0,1-1.33.29H40.79Z" fill="#231f20"/>
    <path d="M48,88.9a2.06,2.06,0,0,1,0-2.77,2.28,2.28,0,0,1,1.54-.45H51.2l.08,1h-1.8a1,1,0,0,0-.7.21.8.8,0,0,0-.23.64.78.78,0,0,0,.3.68,1.61,1.61,0,0,0,.94.23,2.6,2.6,0,0,0,1-.15.48.48,0,0,0,.34-.46l.12.86a1.24,1.24,0,0,1-.39.4,1.51,1.51,0,0,1-.53.24,3,3,0,0,1-.69.08A2.57,2.57,0,0,1,48,88.9Zm3.17-3.47a1.3,1.3,0,0,0-.32-.93,1.21,1.21,0,0,0-.91-.33,2.15,2.15,0,0,0-.71.11,2.12,2.12,0,0,0-.62.31l-.87-.6a2.29,2.29,0,0,1,.91-.65,3.4,3.4,0,0,1,1.26-.23,2.86,2.86,0,0,1,1.29.27,1.8,1.8,0,0,1,.82.77,2.47,2.47,0,0,1,.29,1.22v3.91H51.15Z" fill="#231f20"/>
    <path d="M55.71,89.37l-.47-.11a3.67,3.67,0,0,1-.88-.31,3.58,3.58,0,0,1-.76-.53l.71-.87a4.29,4.29,0,0,0,1,.56,2.82,2.82,0,0,0,1,.19,2.16,2.16,0,0,0,1.07-.22.74.74,0,0,0,.35-.66.51.51,0,0,0-.19-.44,1.16,1.16,0,0,0-.48-.2l-.81-.09h-.3a5,5,0,0,1-1-.17,1.34,1.34,0,0,1-.68-.47,1.58,1.58,0,0,1-.27-1A2,2,0,0,1,54.2,84a1.58,1.58,0,0,1,.79-.64,3.27,3.27,0,0,1,1.3-.22,4.46,4.46,0,0,1,.91.09,3.73,3.73,0,0,1,.82.26,4.16,4.16,0,0,1,.76.44l-.72.87a4.13,4.13,0,0,0-.9-.44,2.75,2.75,0,0,0-.87-.15,1.61,1.61,0,0,0-.91.21.73.73,0,0,0-.31.63.4.4,0,0,0,.18.36.93.93,0,0,0,.43.17c.18,0,.43,0,.75.07h.23a4.53,4.53,0,0,1,1.08.17,1.44,1.44,0,0,1,.76.51,1.74,1.74,0,0,1,.3,1.1,1.88,1.88,0,0,1-.28,1.08,1.67,1.67,0,0,1-.85.65,3.85,3.85,0,0,1-1.42.22Z" fill="#231f20"/>
    <path d="M62,89.37l-.6-.32a2.1,2.1,0,0,1-.91-.93,3.18,3.18,0,0,1-.31-1.48V86a3.58,3.58,0,0,1,.3-1.54,2.08,2.08,0,0,1,.88-1,2.62,2.62,0,0,1,1.38-.34,2.22,2.22,0,0,1,1.3.38,2.39,2.39,0,0,1,.82,1.1,4.71,4.71,0,0,1,.29,1.73v.4H61v-1h3a2,2,0,0,0-.38-1.16,1.1,1.1,0,0,0-.89-.41,1.32,1.32,0,0,0-1.05.44,1.91,1.91,0,0,0-.37,1.26v.78a1.61,1.61,0,0,0,.39,1.16,1.53,1.53,0,0,0,1.13.4,2.06,2.06,0,0,0,.73-.14,2.21,2.21,0,0,0,.63-.41l.79.78a3.36,3.36,0,0,1-1,.67,2.92,2.92,0,0,1-1.14.24Z" fill="#231f20"/>
  </g>
  <g>
    <path d="M61.27,34.59h1.2v8.52h-1.2ZM62,38.35h4.73v1.13H62Zm4.09-3.76h1.2v8.52h-1.2Z" fill="none" stroke="#fff" stroke-miterlimit="10" stroke-width="3"/>
    <path d="M69.56,42.73A1.73,1.73,0,0,1,69,41.32,1.71,1.71,0,0,1,69.52,40a2.27,2.27,0,0,1,1.54-.45h1.73l.08,1H71.06a1,1,0,0,0-.7.21.83.83,0,0,0-.23.64.79.79,0,0,0,.31.68,1.61,1.61,0,0,0,.94.22,2.7,2.7,0,0,0,1-.14.48.48,0,0,0,.33-.46l.13.86a1.49,1.49,0,0,1-.39.4,1.65,1.65,0,0,1-.54.24,2.82,2.82,0,0,1-.68.08A2.62,2.62,0,0,1,69.56,42.73Zm3.17-3.48a1.28,1.28,0,0,0-.31-.92,1.19,1.19,0,0,0-.91-.34,2.16,2.16,0,0,0-.71.12,1.9,1.9,0,0,0-.62.31l-.87-.6a2.29,2.29,0,0,1,.91-.65,3.31,3.31,0,0,1,1.25-.23,2.87,2.87,0,0,1,1.3.27,1.8,1.8,0,0,1,.82.77,2.45,2.45,0,0,1,.28,1.22v3.91H72.73Z" fill="none" stroke="#fff" stroke-miterlimit="10" stroke-width="3"/>
    <path d="M76.88,40.72a1.38,1.38,0,0,0,.33,1,1.19,1.19,0,0,0,.92.35,1.22,1.22,0,0,0,.9-.31,1.15,1.15,0,0,0,.33-.88l.08,1.27a1.77,1.77,0,0,1-.61.75,1.69,1.69,0,0,1-1,.31,1.92,1.92,0,0,1-1.55-.65,2.72,2.72,0,0,1-.55-1.83V37h1.19ZM79.36,37h1.18v6.08H79.36Z" fill="none" stroke="#fff" stroke-miterlimit="10" stroke-width="3"/>
    <path d="M81.89,37h2.74v1.08H81.89Zm1,5.7a1.81,1.81,0,0,1-.34-1.2V35.26h1.19v6.28a.55.55,0,0,0,.09.34.31.31,0,0,0,.26.12h.57v1.14h-.69A1.34,1.34,0,0,1,82.86,42.73Z" fill="none" stroke="#fff" stroke-miterlimit="10" stroke-width="3"/>
    <path d="M87.92,43.2l-.6-.32a2.15,2.15,0,0,1-.91-.93,3.2,3.2,0,0,1-.31-1.48v-.68a3.58,3.58,0,0,1,.3-1.54,2.15,2.15,0,0,1,.88-1,2.71,2.71,0,0,1,1.38-.33,2.22,2.22,0,0,1,1.3.38,2.34,2.34,0,0,1,.82,1.1,4.71,4.71,0,0,1,.29,1.73v.4H87v-1h3a2,2,0,0,0-.38-1.16,1.1,1.1,0,0,0-.89-.41,1.32,1.32,0,0,0-1,.44,1.91,1.91,0,0,0-.37,1.26v.78a1.61,1.61,0,0,0,.39,1.16,1.54,1.54,0,0,0,1.14.4,1.86,1.86,0,0,0,.72-.15,2,2,0,0,0,.64-.41l.78.79a3.36,3.36,0,0,1-1,.67,2.91,2.91,0,0,1-1.13.24Z" fill="none" stroke="#fff" stroke-miterlimit="10" stroke-width="3"/>
    <path d="M93.76,40.72a1.42,1.42,0,0,0,.32,1,1.22,1.22,0,0,0,.92.35,1.26,1.26,0,0,0,.91-.31,1.19,1.19,0,0,0,.32-.88l.08,1.27a1.7,1.7,0,0,1-.61.75,1.66,1.66,0,0,1-1,.31,1.94,1.94,0,0,1-1.56-.65,2.78,2.78,0,0,1-.55-1.83V37h1.2ZM96.23,37h1.19v6.08H96.23Z" fill="none" stroke="#fff" stroke-miterlimit="10" stroke-width="3"/>
    <path d="M99.24,37h1.19v6.08H99.24Zm2.94,1.15a1.35,1.35,0,0,0-.55-.1,1.09,1.09,0,0,0-1.2,1.18l-.12-1.17a2.19,2.19,0,0,1,.73-.85,1.69,1.69,0,0,1,1-.3,2.19,2.19,0,0,1,.75.12,1.74,1.74,0,0,1,.59.35l-.78,1.06A.9.9,0,0,0,102.18,38.18Z" fill="none" stroke="#fff" stroke-miterlimit="10" stroke-width="3"/>
  </g>
  <g>
    <path d="M61.27,34.59h1.2v8.52h-1.2ZM62,38.35h4.73v1.13H62Zm4.09-3.76h1.2v8.52h-1.2Z" fill="#231f20"/>
    <path d="M69.56,42.73A1.73,1.73,0,0,1,69,41.32,1.71,1.71,0,0,1,69.52,40a2.27,2.27,0,0,1,1.54-.45h1.73l.08,1H71.06a1,1,0,0,0-.7.21.83.83,0,0,0-.23.64.79.79,0,0,0,.31.68,1.61,1.61,0,0,0,.94.22,2.7,2.7,0,0,0,1-.14.48.48,0,0,0,.33-.46l.13.86a1.49,1.49,0,0,1-.39.4,1.65,1.65,0,0,1-.54.24,2.82,2.82,0,0,1-.68.08A2.62,2.62,0,0,1,69.56,42.73Zm3.17-3.48a1.28,1.28,0,0,0-.31-.92,1.19,1.19,0,0,0-.91-.34,2.16,2.16,0,0,0-.71.12,1.9,1.9,0,0,0-.62.31l-.87-.6a2.29,2.29,0,0,1,.91-.65,3.31,3.31,0,0,1,1.25-.23,2.87,2.87,0,0,1,1.3.27,1.8,1.8,0,0,1,.82.77,2.45,2.45,0,0,1,.28,1.22v3.91H72.73Z" fill="#231f20"/>
    <path d="M76.88,40.72a1.38,1.38,0,0,0,.33,1,1.19,1.19,0,0,0,.92.35,1.22,1.22,0,0,0,.9-.31,1.15,1.15,0,0,0,.33-.88l.08,1.27a1.77,1.77,0,0,1-.61.75,1.69,1.69,0,0,1-1,.31,1.92,1.92,0,0,1-1.55-.65,2.72,2.72,0,0,1-.55-1.83V37h1.19ZM79.36,37h1.18v6.08H79.36Z" fill="#231f20"/>
    <path d="M81.89,37h2.74v1.08H81.89Zm1,5.7a1.81,1.81,0,0,1-.34-1.2V35.26h1.19v6.28a.55.55,0,0,0,.09.34.31.31,0,0,0,.26.12h.57v1.14h-.69A1.34,1.34,0,0,1,82.86,42.73Z" fill="#231f20"/>
    <path d="M87.92,43.2l-.6-.32a2.15,2.15,0,0,1-.91-.93,3.2,3.2,0,0,1-.31-1.48v-.68a3.58,3.58,0,0,1,.3-1.54,2.15,2.15,0,0,1,.88-1,2.71,2.71,0,0,1,1.38-.33,2.22,2.22,0,0,1,1.3.38,2.34,2.34,0,0,1,.82,1.1,4.71,4.71,0,0,1,.29,1.73v.4H87v-1h3a2,2,0,0,0-.38-1.16,1.1,1.1,0,0,0-.89-.41,1.32,1.32,0,0,0-1,.44,1.91,1.91,0,0,0-.37,1.26v.78a1.61,1.61,0,0,0,.39,1.16,1.54,1.54,0,0,0,1.14.4,1.86,1.86,0,0,0,.72-.15,2,2,0,0,0,.64-.41l.78.79a3.36,3.36,0,0,1-1,.67,2.91,2.91,0,0,1-1.13.24Z" fill="#231f20"/>
    <path d="M93.76,40.72a1.42,1.42,0,0,0,.32,1,1.22,1.22,0,0,0,.92.35,1.26,1.26,0,0,0,.91-.31,1.19,1.19,0,0,0,.32-.88l.08,1.27a1.7,1.7,0,0,1-.61.75,1.66,1.66,0,0,1-1,.31,1.94,1.94,0,0,1-1.56-.65,2.78,2.78,0,0,1-.55-1.83V37h1.2ZM96.23,37h1.19v6.08H96.23Z" fill="#231f20"/>
    <path d="M99.24,37h1.19v6.08H99.24Zm2.94,1.15a1.35,1.35,0,0,0-.55-.1,1.09,1.09,0,0,0-1.2,1.18l-.12-1.17a2.19,2.19,0,0,1,.73-.85,1.69,1.69,0,0,1,1-.3,2.19,2.19,0,0,1,.75.12,1.74,1.74,0,0,1,.59.35l-.78,1.06A.9.9,0,0,0,102.18,38.18Z" fill="#231f20"/>
  </g>
</svg>
