<?xml version="1.0" encoding="utf-8"?>
<!-- Generator: Adobe Illustrator 28.0.0, SVG Export Plug-In . SVG Version: 6.00 Build 0)  -->
<svg version="1.1" id="Calque_1" xmlns="http://www.w3.org/2000/svg" xmlns:xlink="http://www.w3.org/1999/xlink" x="0px" y="0px"
	 viewBox="0 0 326.5 149.1" style="enable-background:new 0 0 326.5 149.1;" xml:space="preserve">
<style type="text/css">
	.st0{fill:#1B75BC;}
	
		.st1{clip-path:url(#SVGID_00000082355827489651185130000018360330333109951618_);fill:#FFFFFF;stroke:#000000;stroke-miterlimit:10;}
	.st2{fill:none;stroke:#000000;stroke-miterlimit:10;}
	.st3{fill:#FFFFFF;stroke:#000000;stroke-width:0.8856;stroke-miterlimit:10;}
	.st4{fill:#EF4136;}
	
		.st5{clip-path:url(#SVGID_00000048492378365317918660000004935226359767456393_);fill:#FFFFFF;stroke:#000000;stroke-miterlimit:10;}
	.st6{fill:#FFFFFF;}
	.st7{fill:#FFFFFF;stroke:#000000;stroke-width:0.7129;stroke-miterlimit:10;}
	.st8{fill:#BE1E2D;stroke:#000000;stroke-width:0.7129;stroke-miterlimit:10;}
	.st9{fill:#58595B;stroke:#000000;stroke-width:0.7129;stroke-miterlimit:10;}
	.st10{fill:#FFFFFF;stroke:#000000;stroke-width:0.7398;stroke-miterlimit:10;}
	.st11{fill:#FBB040;stroke:#000000;stroke-width:0.7398;stroke-miterlimit:10;}
	.st12{fill:#FFFFFF;stroke:#000000;stroke-width:0.8082;stroke-miterlimit:10;}
	.st13{fill:#BE1E2D;stroke:#000000;stroke-width:0.8082;stroke-miterlimit:10;}
	.st14{fill:#58595B;stroke:#000000;stroke-width:0.8082;stroke-miterlimit:10;}
	.st15{fill:#FBB040;stroke:#000000;stroke-width:0.8082;stroke-miterlimit:10;}
	.st16{fill:#FBB040;stroke:#000000;stroke-width:0.8082;stroke-miterlimit:10.0003;}
	.st17{fill:#FFFFFF;stroke:#000000;stroke-miterlimit:10;}
</style>
<g>
	<g>
		<path id="XMLID_1_" class="st0" d="M148,148.6c0-25.7-16.3-57.1-36.4-57.1s-36.4,31.4-36.4,57.1H148z"/>
	</g>
	<g>
		<defs>
			<path id="SVGID_1_" d="M148,148.6c0-25.7-16.3-57.1-36.4-57.1s-36.4,31.4-36.4,57.1H148z"/>
		</defs>
		<clipPath id="SVGID_00000122695941541306009500000017710847255487209394_">
			<use xlink:href="#SVGID_1_"  style="overflow:visible;"/>
		</clipPath>
		
			<circle style="clip-path:url(#SVGID_00000122695941541306009500000017710847255487209394_);fill:#FFFFFF;stroke:#000000;stroke-miterlimit:10;" cx="111.6" cy="78.9" r="28.7"/>
	</g>
	<g>
		<defs>
			<path id="SVGID_00000166676148343916597260000013152960461119337899_" d="M148,148.6c0-25.7-16.3-57.1-36.4-57.1
				s-36.4,31.4-36.4,57.1H148z"/>
		</defs>
		<clipPath id="SVGID_00000174585446305925606870000008771901315897265575_">
			<use xlink:href="#SVGID_00000166676148343916597260000013152960461119337899_"  style="overflow:visible;"/>
		</clipPath>
	</g>
	<g>
		<path id="XMLID_00000065053759050464900360000018246886939762440370_" class="st2" d="M148,148.6c0-25.7-16.3-57.1-36.4-57.1
			s-36.4,31.4-36.4,57.1H148z"/>
	</g>
</g>
<circle class="st3" cx="111.6" cy="75.8" r="20.7"/>
<g>
	<g>
		<path id="XMLID_2_" class="st4" d="M246.3,148.6c0-25.7-16.3-57.1-36.4-57.1s-36.4,31.4-36.4,57.1H246.3z"/>
	</g>
	<g>
		<defs>
			<path id="SVGID_00000171717969202814986550000001545513871389670588_" d="M246.3,148.6c0-25.7-16.3-57.1-36.4-57.1
				s-36.4,31.4-36.4,57.1H246.3z"/>
		</defs>
		<clipPath id="SVGID_00000156549627441831998480000013159645940383086014_">
			<use xlink:href="#SVGID_00000171717969202814986550000001545513871389670588_"  style="overflow:visible;"/>
		</clipPath>
		
			<circle style="clip-path:url(#SVGID_00000156549627441831998480000013159645940383086014_);fill:#FFFFFF;stroke:#000000;stroke-miterlimit:10;" cx="209.9" cy="78.9" r="28.7"/>
	</g>
	<g>
		<defs>
			<path id="SVGID_00000078016810392142105400000006222633091271387279_" d="M246.3,148.6c0-25.7-16.3-57.1-36.4-57.1
				s-36.4,31.4-36.4,57.1H246.3z"/>
		</defs>
		<clipPath id="SVGID_00000116953852430631489520000009731435209342756762_">
			<use xlink:href="#SVGID_00000078016810392142105400000006222633091271387279_"  style="overflow:visible;"/>
		</clipPath>
	</g>
	<g>
		<path id="XMLID_00000181082187087443878240000009438799638793874327_" class="st2" d="M246.3,148.6c0-25.7-16.3-57.1-36.4-57.1
			s-36.4,31.4-36.4,57.1H246.3z"/>
	</g>
</g>
<circle class="st3" cx="209.9" cy="75.8" r="20.7"/>
<g>
	<path class="st6" d="M87.4,30.4c7.2,4.4,5.8,8.5-3.2,10.5c4.1,5.6,0.6,9-8.8,8.6c0.7,6.2-4.5,8.5-13.1,5.8c-3,5.9-9.3,6.8-16,2.1
		c-6.7,4.7-13,3.8-16-2.1c-8.6,2.7-13.8,0.4-13.1-5.8c-9.4,0.5-13-3-8.8-8.6c-9-2-10.4-6.1-3.2-10.5C-2,26-0.6,21.9,8.4,19.9
		c-4.1-5.6-0.6-9,8.8-8.6c-0.7-6.2,4.5-8.5,13.1-5.8c3-5.9,9.3-6.8,16-2.1c6.7-4.7,13-3.8,16,2.1c8.6-2.7,13.8-0.4,13.1,5.8
		c9.4-0.5,13,3,8.8,8.6C93.2,21.9,94.5,26,87.4,30.4z"/>
	<path class="st2" d="M87.4,30.4c7.2,4.4,5.8,8.5-3.2,10.5c4.1,5.6,0.6,9-8.8,8.6c0.7,6.2-4.5,8.5-13.1,5.8c-3,5.9-9.3,6.8-16,2.1
		c-6.7,4.7-13,3.8-16-2.1c-8.6,2.7-13.8,0.4-13.1-5.8c-9.4,0.5-13-3-8.8-8.6c-9-2-10.4-6.1-3.2-10.5C-2,26-0.6,21.9,8.4,19.9
		c-4.1-5.6-0.6-9,8.8-8.6c-0.7-6.2,4.5-8.5,13.1-5.8c3-5.9,9.3-6.8,16-2.1c6.7-4.7,13-3.8,16,2.1c8.6-2.7,13.8-0.4,13.1,5.8
		c9.4-0.5,13,3,8.8,8.6C93.2,21.9,94.5,26,87.4,30.4z"/>
</g>
<g>
	<path class="st6" d="M244.8,61.9c2.4,2,1.5,3.9-1.5,3.5c0.3,3-1.5,3.8-3.5,1.5c-2,2.4-3.9,1.5-3.5-1.5c-3,0.3-3.8-1.5-1.5-3.5
		c-2.4-2-1.5-3.9,1.5-3.5c-0.3-3,1.5-3.8,3.5-1.5c2-2.4,3.9-1.5,3.5,1.5C246.4,58,247.2,59.8,244.8,61.9z"/>
	<path class="st2" d="M244.8,61.9c2.4,2,1.5,3.9-1.5,3.5c0.3,3-1.5,3.8-3.5,1.5c-2,2.4-3.9,1.5-3.5-1.5c-3,0.3-3.8-1.5-1.5-3.5
		c-2.4-2-1.5-3.9,1.5-3.5c-0.3-3,1.5-3.8,3.5-1.5c2-2.4,3.9-1.5,3.5,1.5C246.4,58,247.2,59.8,244.8,61.9z"/>
</g>
<g>
	<path class="st6" d="M87.8,59.7c2.4,2,1.5,3.9-1.5,3.5c0.3,3-1.5,3.8-3.5,1.5c-2,2.4-3.9,1.5-3.5-1.5c-3,0.3-3.8-1.5-1.5-3.5
		c-2.4-2-1.5-3.9,1.5-3.5c-0.3-3,1.5-3.8,3.5-1.5c2-2.4,3.9-1.5,3.5,1.5C89.4,55.8,90.2,57.6,87.8,59.7z"/>
	<path class="st2" d="M87.8,59.7c2.4,2,1.5,3.9-1.5,3.5c0.3,3-1.5,3.8-3.5,1.5c-2,2.4-3.9,1.5-3.5-1.5c-3,0.3-3.8-1.5-1.5-3.5
		c-2.4-2-1.5-3.9,1.5-3.5c-0.3-3,1.5-3.8,3.5-1.5c2-2.4,3.9-1.5,3.5,1.5C89.4,55.8,90.2,57.6,87.8,59.7z"/>
</g>
<g>
	<g>
		<path class="st7" d="M41.5,42.2H18.7c-1.8,0-3.3-1.5-3.3-3.3l2.9-18.2c0-1.8,1.5-3.3,3.3-3.3h17.1c1.8,0,3.3,1.5,3.3,3.3l2.9,18.2
			C44.8,40.7,43.3,42.2,41.5,42.2z"/>
		<path class="st7" d="M42.7,19.8H16.9c-0.2,0-0.4-0.2-0.4-0.4v-4.2c0-0.2,0.2-0.4,0.4-0.4h25.8c0.2,0,0.4,0.2,0.4,0.4v4.2
			C43.1,19.7,42.9,19.8,42.7,19.8z"/>
	</g>
	<g>
		<path class="st8" d="M29.4,37.8c0,0.8-2.4,1.5-5.3,1.5s-5.3-0.7-5.3-1.5V24.9h10.6V37.8z"/>
		<ellipse class="st9" cx="24.1" cy="24.9" rx="5.3" ry="1.5"/>
		<g>
			<g>
				<path class="st6" d="M19.9,30.7c0,0,0-0.1-0.1-0.4c-0.1-0.2,0-0.5,0.1-0.7s0.3-0.5,0.5-0.7l0.8-0.8c0.2-0.2,0.5-0.3,0.7-0.4
					c0.3-0.1,0.5-0.1,0.7,0s0.5,0.2,0.6,0.4c0.2,0.2,0.3,0.4,0.3,0.6c0.1,0.2,0.1,0.4,0,0.7c0,0.2-0.1,0.4-0.3,0.6L23,29.6
					c0.1-0.1,0.1-0.2,0.1-0.4c0-0.1,0-0.3,0-0.4s-0.1-0.2-0.2-0.3c-0.1-0.1-0.2-0.2-0.4-0.2c-0.1,0-0.3,0-0.5,0s-0.3,0.1-0.4,0.3
					l-0.8,0.8c-0.1,0.1-0.2,0.3-0.3,0.4c-0.1,0.2-0.1,0.3-0.1,0.4s0.1,0.3,0.2,0.4s0.2,0.2,0.3,0.2c0.1,0,0.2,0.1,0.4,0.1
					c0.1,0,0.3,0,0.4-0.1l0.4,0.4c-0.2,0.1-0.4,0.2-0.7,0.2c-0.2,0-0.4,0-0.7-0.1c-0.2-0.1-0.4-0.2-0.5-0.4
					C20,30.8,19.9,30.7,19.9,30.7z"/>
				<path class="st6" d="M22.1,32.9c0-0.2,0-0.4,0-0.6c0.1-0.2,0.2-0.4,0.4-0.6l0.4-0.3c0.2-0.2,0.4-0.3,0.6-0.4s0.4,0,0.6,0
					c0.2,0.1,0.4,0.2,0.5,0.4c0.2,0.2,0.3,0.4,0.3,0.6s0,0.4,0,0.6c-0.1,0.2-0.2,0.4-0.4,0.6l-0.4,0.3c-0.2,0.2-0.4,0.3-0.6,0.4
					c-0.2,0.1-0.4,0.1-0.6,0s-0.4-0.2-0.5-0.4C22.2,33.3,22.1,33.1,22.1,32.9z M23.3,33.3c0.2,0,0.3-0.1,0.5-0.2l0.4-0.3
					c0.2-0.2,0.3-0.3,0.3-0.5s0-0.3-0.2-0.5c-0.1-0.2-0.3-0.2-0.5-0.2s-0.3,0.1-0.5,0.2l-0.4,0.3c-0.2,0.2-0.3,0.3-0.3,0.5
					s0,0.3,0.2,0.5C23,33.2,23.1,33.3,23.3,33.3z"/>
				<path class="st6" d="M24.8,34.9c-0.1,0-0.1,0.1-0.1,0.1v0.1l0.2,0.2l-0.4,0.4l-0.2-0.3c-0.1-0.2-0.2-0.3-0.2-0.5
					s0.1-0.4,0.3-0.5l2.5-2.2l0.4,0.4L24.8,34.9z"/>
				<path class="st6" d="M25.2,36.1c0-0.2,0.1-0.5,0.3-0.7c0.2-0.2,0.4-0.3,0.6-0.3s0.4,0.2,0.7,0.4l0.6,0.6L27,36.6L26.4,36
					c-0.1-0.1-0.2-0.2-0.3-0.2c-0.1,0-0.2,0-0.3,0.1c-0.1,0.1-0.2,0.2-0.1,0.3c0,0.1,0.1,0.3,0.2,0.4c0.1,0.2,0.3,0.3,0.4,0.3
					s0.2,0,0.3,0l-0.3,0.3c-0.1,0-0.2,0-0.3,0c-0.1,0-0.2-0.1-0.3-0.1c-0.1-0.1-0.2-0.1-0.3-0.2C25.3,36.6,25.2,36.4,25.2,36.1z
					 M27.4,36.2c0.1-0.1,0.2-0.3,0.2-0.4c0-0.1,0-0.3-0.2-0.4c-0.1-0.1-0.2-0.2-0.3-0.2c0-0.2-0.1-0.2-0.2-0.2l-0.1-0.5
					c0.2,0,0.4,0,0.5,0.1c0.2,0.1,0.3,0.2,0.5,0.4s0.3,0.4,0.3,0.6c0.1,0.2,0,0.4,0,0.5c-0.1,0.2-0.2,0.3-0.3,0.5l-1.4,1.3L26,37.4
					L27.4,36.2z"/>
			</g>
		</g>
	</g>
	<g>
		<path class="st8" d="M41.5,37.8c0,0.8-2.4,1.5-5.3,1.5c-2.9,0-5.3-0.7-5.3-1.5V24.9h10.6V37.8z"/>
		<ellipse class="st9" cx="36.2" cy="24.9" rx="5.3" ry="1.5"/>
		<g>
			<g>
				<path class="st6" d="M32,30.7c0,0,0-0.1-0.1-0.4c-0.1-0.2,0-0.5,0.1-0.7c0.1-0.2,0.3-0.5,0.5-0.7l0.8-0.8
					c0.2-0.2,0.5-0.3,0.7-0.4c0.3-0.1,0.5-0.1,0.7,0s0.5,0.2,0.6,0.4c0.2,0.2,0.3,0.4,0.3,0.6c0.1,0.2,0.1,0.4,0,0.7
					c0,0.2-0.1,0.4-0.3,0.6l-0.4-0.4c0.1-0.1,0.1-0.2,0.1-0.4c0-0.1,0-0.3,0-0.4s-0.1-0.2-0.2-0.3c-0.1-0.1-0.2-0.2-0.4-0.2
					c-0.1,0-0.3,0-0.5,0s-0.3,0.1-0.4,0.3l-0.8,0.8c-0.1,0.1-0.2,0.3-0.3,0.4c-0.1,0.2-0.1,0.3-0.1,0.4s0.1,0.3,0.2,0.4
					c0.1,0.1,0.2,0.2,0.3,0.2s0.2,0.1,0.4,0.1c0.1,0,0.3,0,0.4-0.1l0.4,0.4c-0.2,0.1-0.4,0.2-0.7,0.2c-0.2,0-0.4,0-0.7-0.1
					c-0.2-0.1-0.4-0.2-0.5-0.4C32.1,30.8,32,30.7,32,30.7z"/>
				<path class="st6" d="M34.2,32.9c0-0.2,0-0.4,0-0.6c0.1-0.2,0.2-0.4,0.4-0.6l0.4-0.3c0.2-0.2,0.4-0.3,0.6-0.4
					c0.2-0.1,0.4-0.1,0.6,0c0.2,0.1,0.4,0.2,0.5,0.4c0.2,0.2,0.3,0.4,0.3,0.6s0,0.4,0,0.6c-0.1,0.2-0.2,0.4-0.4,0.6l-0.4,0.3
					c-0.2,0.2-0.4,0.3-0.6,0.4c-0.2,0.1-0.4,0.1-0.6,0c-0.2-0.1-0.4-0.2-0.5-0.4C34.3,33.3,34.2,33.1,34.2,32.9z M35.4,33.3
					c0.2,0,0.3-0.1,0.5-0.2l0.4-0.3c0.2-0.2,0.3-0.3,0.3-0.5s0-0.3-0.2-0.5c-0.1-0.2-0.3-0.2-0.5-0.2s-0.3,0.1-0.5,0.2L35,32.1
					c-0.2,0.2-0.3,0.3-0.3,0.5s0,0.3,0.2,0.5C35.1,33.2,35.2,33.3,35.4,33.3z"/>
				<path class="st6" d="M36.9,34.9C36.8,34.9,36.8,35,36.9,34.9l-0.1,0.2l0.2,0.2l-0.4,0.4l-0.2-0.3c-0.1-0.2-0.2-0.3-0.2-0.5
					s0.1-0.4,0.3-0.5l2.5-2.2l0.4,0.4L36.9,34.9z"/>
				<path class="st6" d="M37.3,36.1c0-0.2,0.1-0.5,0.3-0.7s0.4-0.3,0.6-0.3c0.2,0,0.4,0.2,0.7,0.4l0.6,0.6l-0.3,0.3L38.5,36
					c-0.1-0.1-0.2-0.2-0.3-0.2s-0.2,0-0.3,0.1s-0.2,0.2-0.1,0.3c0,0.1,0.1,0.3,0.2,0.4c0.1,0.2,0.3,0.3,0.4,0.3c0.1,0,0.2,0,0.3,0
					l-0.3,0.3c-0.1,0-0.2,0-0.3,0s-0.2-0.1-0.3-0.1c-0.1-0.1-0.2-0.1-0.3-0.2C37.4,36.6,37.3,36.4,37.3,36.1z M39.5,36.2
					c0.1-0.1,0.2-0.3,0.2-0.4c0-0.1,0-0.3-0.2-0.4c-0.1-0.1-0.2-0.2-0.3-0.2S39.1,35,39,35l-0.1-0.5c0.2,0,0.4,0,0.5,0.1
					c0.2,0.1,0.3,0.2,0.5,0.4s0.3,0.4,0.3,0.5c0.1,0.2,0,0.4,0,0.5c-0.1,0.2-0.2,0.3-0.3,0.5l-1.4,1.3l-0.4-0.4L39.5,36.2z"/>
			</g>
		</g>
	</g>
</g>
<g>
	<g>
		<path class="st10" d="M75.4,43.1H51.8c-1.9,0-3.4-1.5-3.4-3.4l3-18.9c0-1.9,1.5-3.4,3.4-3.4h17.7c1.9,0,3.4,1.5,3.4,3.4l3,18.9
			C78.8,41.6,77.3,43.1,75.4,43.1z"/>
		<path class="st10" d="M76.7,19.9H49.9c-0.2,0-0.4-0.2-0.4-0.4v-4.4c0-0.2,0.2-0.4,0.4-0.4h26.8c0.2,0,0.4,0.2,0.4,0.4v4.4
			C77.1,19.8,76.9,19.9,76.7,19.9z"/>
	</g>
	<g>
		<path class="st11" d="M67.9,27.2c0,1.9-3.4,3.4-7.6,3.4s-7.6-1.5-7.6-3.4v-1H68v1H67.9z"/>
		<ellipse class="st11" cx="60.2" cy="26.1" rx="7.6" ry="3.4"/>
		<ellipse class="st4" cx="60.2" cy="25.7" rx="4.8" ry="2.2"/>
	</g>
	<g>
		<path class="st11" d="M74.9,38.2c0,1.9-3.4,3.4-7.6,3.4s-7.6-1.5-7.6-3.4v-1H75v1H74.9z"/>
		<ellipse class="st11" cx="67.2" cy="37.2" rx="7.6" ry="3.4"/>
		<ellipse class="st4" cx="67.2" cy="36.8" rx="4.8" ry="2.2"/>
	</g>
</g>
<g>
	<g>
		<path class="st12" d="M275.8,44.5H250c-2,0-3.7-1.7-3.7-3.7l3.2-20.7c0-2,1.7-3.7,3.7-3.7h19.4c2,0,3.7,1.7,3.7,3.7l3.2,20.7
			C279.6,42.8,277.9,44.5,275.8,44.5z"/>
		<path class="st12" d="M277.2,19.2H248c-0.2,0-0.4-0.2-0.4-0.4V14c0-0.2,0.2-0.4,0.4-0.4h29.3c0.2,0,0.4,0.2,0.4,0.4v4.8
			C277.6,19,277.5,19.2,277.2,19.2z"/>
	</g>
	<g>
		<path class="st13" d="M262.6,40.7c0,1-2.7,1.7-6,1.7s-6-0.8-6-1.7V26.1h12V40.7z"/>
		<ellipse class="st14" cx="256.6" cy="26.1" rx="6" ry="1.7"/>
		<g>
			<g>
				<path class="st6" d="M251.8,32.7c0,0,0-0.1-0.1-0.4c-0.1-0.3,0-0.6,0.1-0.8c0.1-0.3,0.3-0.5,0.5-0.8l0.9-0.9
					c0.3-0.2,0.5-0.4,0.8-0.5s0.6-0.1,0.8,0c0.3,0.1,0.5,0.2,0.7,0.5c0.2,0.2,0.3,0.4,0.4,0.7c0.1,0.2,0.1,0.5,0,0.7
					c-0.1,0.3-0.2,0.5-0.3,0.7l-0.4-0.5c0.1-0.1,0.1-0.3,0.2-0.4c0-0.1,0-0.3,0-0.4s-0.1-0.3-0.2-0.4c-0.1-0.1-0.3-0.2-0.4-0.3
					s-0.3,0-0.5,0c-0.2,0.1-0.3,0.2-0.5,0.3l-0.9,0.9c-0.2,0.1-0.3,0.3-0.3,0.5c-0.1,0.2-0.1,0.3-0.1,0.5c0,0.2,0.1,0.3,0.2,0.5
					c0.1,0.1,0.2,0.2,0.3,0.2c0.1,0.1,0.3,0.1,0.4,0.1c0.1,0,0.3,0,0.4-0.1l0.4,0.5c-0.2,0.1-0.5,0.2-0.7,0.3c-0.3,0-0.5,0-0.7-0.1
					s-0.4-0.2-0.6-0.4C251.9,32.8,251.8,32.7,251.8,32.7z"/>
				<path class="st6" d="M254.3,35.1c-0.1-0.2,0-0.5,0.1-0.7s0.2-0.4,0.5-0.6l0.4-0.4c0.2-0.2,0.5-0.3,0.7-0.4
					c0.2-0.1,0.5-0.1,0.7,0s0.4,0.2,0.6,0.4s0.3,0.4,0.4,0.7c0.1,0.2,0,0.5,0,0.7c-0.1,0.2-0.2,0.4-0.5,0.6l-0.4,0.4
					c-0.2,0.2-0.5,0.3-0.7,0.4c-0.2,0.1-0.5,0.1-0.7,0s-0.4-0.2-0.6-0.4C254.5,35.6,254.4,35.4,254.3,35.1z M255.7,35.6
					c0.2,0,0.4-0.1,0.6-0.3l0.4-0.4c0.2-0.2,0.3-0.4,0.3-0.5c0-0.2,0-0.4-0.2-0.5c-0.2-0.2-0.3-0.3-0.5-0.3s-0.4,0.1-0.6,0.3
					l-0.4,0.4c-0.2,0.2-0.3,0.4-0.3,0.5c0,0.2,0,0.4,0.2,0.5C255.3,35.6,255.5,35.6,255.7,35.6z"/>
				<path class="st6" d="M257.3,37.4c-0.1,0.1-0.1,0.1-0.1,0.2s0,0.1,0.1,0.2l0.2,0.2l-0.5,0.4l-0.3-0.3c-0.2-0.2-0.2-0.4-0.2-0.6
					c0-0.2,0.1-0.4,0.3-0.6l2.8-2.5l0.4,0.5L257.3,37.4z"/>
				<path class="st6" d="M257.8,38.9c0-0.3,0.1-0.5,0.4-0.7c0.2-0.2,0.5-0.3,0.7-0.3s0.5,0.2,0.7,0.5l0.6,0.7l-0.4,0.4l-0.7-0.7
					c-0.1-0.1-0.2-0.2-0.3-0.2c-0.1,0-0.2,0-0.3,0.1c-0.1,0.1-0.2,0.2-0.2,0.4c0,0.1,0.1,0.3,0.3,0.5c0.2,0.2,0.3,0.3,0.4,0.4
					c0.1,0.1,0.2,0,0.3,0l-0.3,0.4c-0.1,0-0.2,0-0.3,0s-0.2-0.1-0.3-0.1c-0.1-0.1-0.2-0.1-0.3-0.2C257.9,39.4,257.8,39.1,257.8,38.9
					z M260.4,38.9c0.2-0.1,0.2-0.3,0.3-0.5c0-0.2-0.1-0.3-0.2-0.5c-0.1-0.1-0.2-0.2-0.3-0.2s-0.2-0.1-0.4-0.1l-0.1-0.6
					c0.2,0,0.4,0,0.6,0.1s0.4,0.2,0.6,0.4s0.3,0.4,0.4,0.6c0.1,0.2,0.1,0.4,0,0.6s-0.2,0.4-0.4,0.6l-1.6,1.4l-0.4-0.5L260.4,38.9z"
					/>
			</g>
		</g>
	</g>
	<g>
		<path class="st15" d="M274.2,41.6c-1.8,0.9-5-1.7-7-5.9s-2.2-8.2-0.4-9.1l1-0.5l7.4,15L274.2,41.6z"/>
		<ellipse transform="matrix(0.897 -0.4421 0.4421 0.897 13.1414 123.5271)" class="st16" cx="271.6" cy="33.6" rx="3.7" ry="8.4"/>
		<ellipse transform="matrix(0.897 -0.4421 0.4421 0.897 13.271 123.6825)" class="st4" cx="272" cy="33.4" rx="2.4" ry="5.3"/>
	</g>
</g>
<g>
	<g>
		<path class="st12" d="M312,44.9h-25.8c-2,0-3.7-1.7-3.7-3.7l3.2-20.7c0-2,1.7-3.7,3.7-3.7h19.4c2,0,3.7,1.7,3.7,3.7l3.2,20.7
			C315.7,43.2,314.1,44.9,312,44.9z"/>
		<path class="st12" d="M313.4,19.6h-29.3c-0.2,0-0.4-0.2-0.4-0.4v-4.8c0-0.2,0.2-0.4,0.4-0.4h29.3c0.2,0,0.4,0.2,0.4,0.4v4.8
			C313.8,19.4,313.7,19.6,313.4,19.6z"/>
	</g>
	<g>
		<path class="st13" d="M299.3,40.4c0,1-2.7,1.7-6,1.7s-6-0.8-6-1.7V25.8h12V40.4z"/>
		<ellipse class="st14" cx="293.3" cy="25.8" rx="6" ry="1.7"/>
		<g>
			<g>
				<path class="st6" d="M288.5,32.4c0,0,0-0.1-0.1-0.4c-0.1-0.3,0-0.6,0.1-0.8c0.1-0.3,0.3-0.5,0.5-0.8l1-0.9
					c0.3-0.2,0.5-0.4,0.8-0.5s0.6-0.1,0.8,0c0.3,0.1,0.5,0.2,0.7,0.5c0.2,0.2,0.3,0.4,0.4,0.7c0.1,0.2,0.1,0.5,0,0.7
					c-0.1,0.3-0.2,0.5-0.3,0.7l-0.5-0.5c0.1-0.1,0.1-0.3,0.2-0.4c0-0.1,0-0.3,0-0.4s-0.1-0.3-0.2-0.4s-0.3-0.2-0.4-0.3
					c-0.2,0-0.3,0-0.5,0c-0.2,0.1-0.3,0.2-0.5,0.3l-1,0.9c-0.2,0.1-0.3,0.3-0.3,0.5c-0.1,0.2-0.1,0.3-0.1,0.5c0,0.2,0.1,0.3,0.2,0.5
					c0.1,0.1,0.2,0.2,0.3,0.2c0.1,0.1,0.3,0.1,0.4,0.1s0.3,0,0.4-0.1l0.5,0.5c-0.2,0.1-0.5,0.2-0.7,0.3c-0.3,0-0.5,0-0.7-0.1
					s-0.4-0.2-0.6-0.4C288.6,32.5,288.5,32.4,288.5,32.4z"/>
				<path class="st6" d="M291,34.8c-0.1-0.2,0-0.5,0.1-0.7s0.2-0.4,0.5-0.6l0.4-0.4c0.2-0.2,0.5-0.3,0.7-0.4c0.2-0.1,0.5-0.1,0.7,0
					s0.4,0.2,0.6,0.4s0.3,0.4,0.4,0.7c0.1,0.2,0,0.5,0,0.7c-0.1,0.2-0.2,0.4-0.5,0.6l-0.4,0.4c-0.2,0.2-0.5,0.3-0.7,0.4
					c-0.2,0.1-0.5,0.1-0.7,0s-0.4-0.2-0.6-0.4C291.2,35.3,291,35.1,291,34.8z M292.3,35.3c0.2,0,0.4-0.1,0.6-0.3l0.4-0.4
					c0.2-0.2,0.3-0.4,0.3-0.5c0-0.2,0-0.4-0.2-0.5c-0.2-0.2-0.3-0.3-0.5-0.3s-0.4,0.1-0.6,0.3l-0.4,0.4c-0.2,0.2-0.3,0.4-0.3,0.5
					c0,0.2,0,0.4,0.2,0.5C292,35.2,292.1,35.3,292.3,35.3z"/>
				<path class="st6" d="M294,37.1c-0.1,0.1-0.1,0.1-0.1,0.2s0,0.1,0.1,0.2l0.2,0.2l-0.5,0.4l-0.3-0.3c-0.2-0.2-0.2-0.4-0.2-0.6
					c0-0.2,0.1-0.4,0.3-0.6l2.8-2.5l0.4,0.5L294,37.1z"/>
				<path class="st6" d="M294.4,38.5c0-0.3,0.1-0.5,0.4-0.7c0.2-0.2,0.5-0.3,0.7-0.3s0.5,0.2,0.7,0.5l0.6,0.7l-0.4,0.4l-0.7-0.7
					c-0.1-0.1-0.2-0.2-0.3-0.2c-0.1,0-0.2,0-0.3,0.1c-0.1,0.1-0.2,0.2-0.2,0.4c0,0.1,0.1,0.3,0.3,0.5c0.2,0.2,0.3,0.3,0.4,0.4
					c0.1,0.1,0.2,0,0.3,0l-0.3,0.4c-0.1,0-0.2,0-0.3,0c-0.1,0-0.2-0.1-0.3-0.1c-0.1-0.1-0.2-0.1-0.3-0.2
					C294.6,39.1,294.5,38.8,294.4,38.5z M297,38.6c0.2-0.1,0.2-0.3,0.3-0.5c0-0.2-0.1-0.3-0.2-0.5c-0.1-0.1-0.2-0.2-0.3-0.2
					c-0.1-0.1-0.2-0.1-0.4-0.1l-0.1-0.6c0.2,0,0.4,0,0.6,0.1s0.4,0.2,0.6,0.4s0.3,0.4,0.4,0.6s0.1,0.4,0,0.6
					c-0.1,0.2-0.2,0.4-0.4,0.6l-1.6,1.4l-0.4-0.5L297,38.6z"/>
			</g>
		</g>
	</g>
	<g>
		<path class="st15" d="M310.3,42.4c-1.8,0.9-5-1.7-7-5.9s-2.2-8.2-0.4-9.1l1-0.5l7.4,15L310.3,42.4z"/>
		<ellipse transform="matrix(0.897 -0.4421 0.4421 0.897 16.5119 139.5767)" class="st16" cx="307.7" cy="34.4" rx="3.7" ry="8.4"/>
		<ellipse transform="matrix(0.897 -0.4421 0.4421 0.897 16.6415 139.7321)" class="st4" cx="308.1" cy="34.2" rx="2.4" ry="5.3"/>
	</g>
</g>
<g>
	<g>
		<path class="st17" d="M113.7,130.7v8.5h-4.1v-8.5l-6.5-13.5h4.3l4.2,9.5l4.2-9.5h4.3L113.7,130.7z"/>
	</g>
</g>
<g>
	<g>
		<path class="st17" d="M206.6,139.1c-1-0.2-1.9-0.5-2.8-0.9c-0.9-0.4-1.7-0.9-2.4-1.5l1.9-3.4c0.8,0.7,1.8,1.2,2.9,1.6
			c1.1,0.4,2.2,0.6,3.4,0.6c1.4,0,2.4-0.2,3.1-0.7c0.7-0.5,1.1-1.1,1.1-1.9v0c0-0.6-0.2-1-0.5-1.4s-0.8-0.6-1.3-0.8
			s-1.2-0.3-2.1-0.4c0,0-0.1,0-0.1,0s-0.1,0-0.1,0l-0.3,0c-1.5-0.2-2.7-0.5-3.7-0.9c-1-0.3-1.8-1-2.5-1.8c-0.7-0.9-1-2.1-1-3.7v0
			c0-1.4,0.3-2.6,1-3.6s1.6-1.8,2.8-2.3c1.2-0.5,2.7-0.8,4.4-0.8c0.8,0,1.6,0.1,2.4,0.3s1.6,0.4,2.4,0.8c0.8,0.3,1.5,0.8,2.2,1.2
			l-1.8,3.5c-0.8-0.6-1.7-1-2.7-1.4c-0.9-0.3-1.8-0.5-2.7-0.5c-1.3,0-2.3,0.2-3,0.6s-1,1-1,1.8v0c0,0.6,0.2,1.1,0.5,1.5
			c0.4,0.4,0.8,0.6,1.3,0.8c0.5,0.2,1.3,0.4,2.3,0.5c0,0,0.1,0,0.1,0c0,0,0.1,0,0.1,0c0.1,0,0.1,0,0.2,0c0.1,0,0.1,0,0.2,0
			c1.4,0.3,2.6,0.6,3.5,1s1.7,1,2.3,1.9c0.6,0.9,0.9,2,0.9,3.5v0c0,1.4-0.3,2.6-1,3.6s-1.6,1.8-2.9,2.3c-1.3,0.5-2.8,0.8-4.5,0.8
			C208.6,139.4,207.6,139.3,206.6,139.1z"/>
	</g>
</g>
</svg>
