<?xml version="1.0" encoding="utf-8"?>
<!-- Generator: Adobe Illustrator 28.0.0, SVG Export Plug-In . SVG Version: 6.00 Build 0)  -->
<svg version="1.1" id="Calque_1" xmlns="http://www.w3.org/2000/svg" xmlns:xlink="http://www.w3.org/1999/xlink" x="0px" y="0px"
	 viewBox="0 0 231.2 159.2" style="enable-background:new 0 0 231.2 159.2;" xml:space="preserve">
<style type="text/css">
	.st0{fill:none;stroke:#000000;stroke-width:3;stroke-linecap:round;stroke-miterlimit:10;stroke-dasharray:5,7;}
	.st1{fill:none;stroke:#E30613;stroke-width:3;stroke-linecap:round;stroke-linejoin:round;stroke-miterlimit:10;}
	.st2{fill:#E30613;}
	.st3{fill:none;stroke:#000000;stroke-width:3;stroke-linecap:round;stroke-linejoin:round;stroke-miterlimit:10;}
	.st4{fill:none;stroke:#3AAA35;stroke-width:3;stroke-linecap:round;stroke-miterlimit:10;}
</style>
<line class="st0" x1="10.5" y1="142.2" x2="140.5" y2="25.6"/>
<line class="st0" x1="10.5" y1="142.2" x2="185.1" y2="145.1"/>
<polygon class="st1" points="10.5,142.2 19.4,133.2 10.5,142.2 19.4,151.1 10.5,142.2 1.5,151.1 10.5,142.2 1.5,133.2 "/>
<g>
	<g>
		<path class="st2" d="M5.9,121c-1.1-0.6-2-1.6-2.6-2.8s-0.9-2.6-0.9-4.1v-6c0-1.6,0.3-2.9,0.9-4.1s1.5-2.1,2.6-2.8s2.4-1,3.9-1
			s2.8,0.3,3.9,1s2,1.6,2.6,2.8s0.9,2.6,0.9,4.1v6c0,1.6-0.3,2.9-0.9,4.1s-1.5,2.1-2.6,2.8s-2.4,1-3.9,1S7.1,121.7,5.9,121z
			 M12.2,118.5c0.7-0.4,1.2-1,1.6-1.7s0.5-1.6,0.5-2.5V108c0-1-0.2-1.8-0.5-2.5s-0.9-1.3-1.6-1.7s-1.4-0.6-2.3-0.6s-1.7,0.2-2.3,0.6
			s-1.2,1-1.6,1.7s-0.5,1.6-0.5,2.5v6.2c0,1,0.2,1.8,0.5,2.5s0.9,1.3,1.6,1.7s1.4,0.6,2.3,0.6S11.5,118.9,12.2,118.5z"/>
	</g>
</g>
<polygon class="st3" points="140.5,25.6 142.3,13.1 140.5,25.6 153,27.5 140.5,25.6 138.6,38.2 140.5,25.6 127.9,23.8 "/>
<polygon class="st3" points="185.1,145.1 194,136.1 185.1,145.1 194,154 185.1,145.1 176.1,154 185.1,145.1 176.1,136.1 "/>
<g>
	<g>
		<path d="M175.4,4.4h2.8v21.3h-2.9v-16l0.1,0.9l-5.2,12.1h-2.1l-5.2-11.8l0.1-1.2v16h-2.9V4.4h2.8l6.3,14.1L175.4,4.4z"/>
	</g>
</g>
<g>
	<g>
		<path d="M212.8,129.8h2.7l10.4,16.5l-0.4,0.4v-16.8h3v21.3h-2.7l-10.4-16.2l0.4-0.4v16.6h-3V129.8z"/>
	</g>
</g>
<g>
	<line class="st4" x1="62.4" y1="76.5" x2="82" y2="95.9"/>
	<line class="st4" x1="69" y1="71.9" x2="88.5" y2="91.3"/>
</g>
<g>
	<line class="st4" x1="84.7" y1="136.2" x2="104.3" y2="155.6"/>
	<line class="st4" x1="91.3" y1="131.6" x2="110.8" y2="151"/>
</g>
</svg>
