<?xml version="1.0" encoding="UTF-8"?>
<svg id="Calque_1" data-name="Calque 1" xmlns="http://www.w3.org/2000/svg" viewBox="0 0 100.65 133.56">
  <defs>
    <style>
      .cls-1 {
        fill: #e30613;
        font-family: Bahnschrift, Bahnschrift;
        font-size: 14px;
        font-variation-settings: 'wght' 400, 'wdth' 100;
      }

      .cls-2 {
        stroke: #e30613;
        stroke-linecap: round;
      }

      .cls-2, .cls-3 {
        fill: none;
        stroke-miterlimit: 10;
        stroke-width: 2px;
      }

      .cls-3 {
        stroke: #000;
      }
    </style>
  </defs>
  <path class="cls-3" d="m45.39,102.16c-.67-10.58-1.33-21.06-2-31.54,0-.03-.03-.07-.06-.14-.79.14-1.57.38-2.36.56-.78.18-1.55.38-2.32.57-.79.2-1.58.39-2.38.59-.77.19-1.55.38-2.32.57-.79.19-1.59.38-2.38.58-.77.19-1.55.38-2.32.57-.79.2-1.58.39-2.38.59-.77.19-1.55.39-2.32.58-.79.19-1.59.38-2.38.57-.77.19-1.55.39-2.32.58-.79.2-1.59.39-2.38.58-.77.19-1.55.39-2.32.58-.79.2-1.59.38-2.38.58-.77.19-1.55.38-2.32.57-.79.19-1.59.39-2.38.58-.77.19-1.55.38-2.32.57-.79.2-1.58.39-2.38.59-.77.19-1.55.38-2.36.58,0-.12-.03-.21-.01-.3.41-1.87.82-3.73,1.22-5.6.05-.25.18-.42.39-.57,1.37-.92,2.73-1.86,4.1-2.79,2.62-1.79,5.24-3.58,7.86-5.37.87-.6,1.75-1.19,2.64-1.79.01-.14.03-.29.03-.43,0-1.84,0-3.67,0-5.51,0-.39.03-.78.08-1.16.1-.68.4-1.27.84-1.79,1.15-1.37,2.98-1.26,4.06.04.6.71.84,1.56.87,2.47.02.56,0,1.11.01,1.67,0,.18,0,.37,0,.59.11-.03.19-.03.24-.06,1.32-.89,2.64-1.79,3.96-2.69.05-.03.08-.07.16-.14,0-.17.01-.37.01-.57,0-2.77,0-5.53,0-8.3,0-.51.07-1,.22-1.48.16-.52.43-.99.8-1.39.94-1.01,2.53-1.28,3.72-.13.72.69,1.05,1.56,1.11,2.54.01.2.01.41.01.61,0,1.35,0,2.71,0,4.06,0,.18,0,.37.01.54.2.06.3-.07.42-.15,1.07-.73,2.14-1.47,3.22-2.2,1.53-1.04,3.07-2.09,4.6-3.13.11-.07.21-.15.32-.24.05-.24.01-.48,0-.72-.1-1.65-.21-3.3-.31-4.94-.05-.74-.1-1.48-.15-2.22-.03-.46-.06-.93-.06-1.39,0-1.02.03-2.04.03-3.06,0-.58-.02-1.15-.04-1.73-.03-1.6.1-3.19.3-4.77.21-1.57.55-3.1,1.03-4.61.53-1.65,1.21-3.23,2.18-4.67.57-.85,1.23-1.63,2.03-2.28.89-.74,1.9-1.23,3.06-1.36,1.4-.16,2.64.28,3.76,1.09.96.69,1.73,1.57,2.38,2.55,1.17,1.77,1.94,3.71,2.5,5.74.48,1.72.75,3.48.91,5.26.18,2,.13,4-.03,6-.08,1.02-.15,2.03-.22,3.05-.09,1.28-.17,2.55-.26,3.83-.08,1.24-.17,2.48-.25,3.72,0,.04,0,.07.01.11,0,.02.02.03.03.05,0,.02.02.03.03.05.24.17.48.35.72.52,2.88,1.97,5.76,3.94,8.63,5.91.03.02.07.03.1.04.02,0,.03,0,.09-.01.06-.12.04-.26.04-.4,0-1.63,0-3.27,0-4.9,0-.35,0-.71.11-1.05.38-1.26,1.14-2.15,2.45-2.49,1.25-.33,2.61.15,3.44,1.37.43.63.63,1.34.63,2.1,0,1.22,0,2.45,0,3.67,0,2,0,4.01,0,6.01,0,.11.01.22.02.32.41.38,4.45,3.14,4.87,3.32.13-.09.09-.23.09-.35,0-.93,0-1.86,0-2.78,0-.39,0-.79.08-1.16.26-1.25.95-2.18,2.15-2.64,1.28-.49,2.99-.12,3.92,1.49.34.59.5,1.23.49,1.92-.01,2.1,0,4.19,0,6.29,0,.63,0,1.26,0,1.91.19.14.37.27.55.39,2.26,1.55,4.53,3.11,6.79,4.66,1.29.88,2.57,1.77,3.86,2.64.25.17.39.36.45.65.26,1.23.53,2.47.8,3.7.13.62.26,1.23.4,1.85.01.07.02.14.03.2-.14.12-.26.05-.38.01-2.32-.58-4.64-1.15-6.97-1.73-3.56-.88-7.13-1.76-10.69-2.64-2.92-.72-5.83-1.44-8.75-2.16-3.17-.78-6.33-1.57-9.5-2.36-1.8-.45-3.6-.89-5.4-1.34-.18-.04-.35-.08-.55-.12-.1.28-.1.54-.12.79-.13,1.98-.25,3.96-.37,5.94-.15,2.31-.3,4.63-.45,6.94-.18,2.81-.37,5.63-.55,8.44-.11,1.67-.22,3.33-.33,5-.08,1.26-.16,2.52-.26,3.78-.02.29.05.49.26.68,1.45,1.39,2.89,2.78,4.33,4.17,2.97,2.88,5.95,5.76,8.93,8.63.26.25.4.51.44.86.12.86.26,1.72.39,2.58.01.07.01.14.02.2-.15.12-.27.02-.38-.01-2-.69-3.99-1.4-5.99-2.09-2.56-.89-5.11-1.78-7.67-2.67-.33-.12-.66-.23-1.02-.36-.18.27-.35.52-.46.82-.34.94-.69,1.88-1.04,2.82-.07.19-.15.38-.24.6-1.62-.07-3.23-.18-4.84-.29-.62-1.18-1.09-2.41-1.71-3.56-.22-.08-.38.03-.55.09-1.89.65-3.79,1.31-5.68,1.97-2.68.93-5.36,1.86-8.04,2.78-.17.06-.33.18-.56.1.02-.15.02-.29.05-.44.13-.84.28-1.68.4-2.53.04-.28.16-.47.36-.66,1.01-.96,2.02-1.92,3.02-2.88,2.46-2.37,4.92-4.73,7.38-7.1.78-.75,1.55-1.49,2.34-2.23.13-.13.28-.24.42-.35Z"/>
  <line class="cls-2" x1="50.29" y1="5.78" x2="50.29" y2="132.56"/>
  <text class="cls-1" transform="translate(53.85 11.97)"><tspan x="0" y="0">(d)</tspan></text>
</svg>