<?xml version="1.0" encoding="UTF-8"?>
<svg id="Calque_1" data-name="Calque 1" xmlns="http://www.w3.org/2000/svg" viewBox="0 0 161.35 155.56">
  <defs>
    <style>
      .cls-1 {
        stroke-dasharray: 0 5;
      }

      .cls-1, .cls-2, .cls-3, .cls-4, .cls-5, .cls-6, .cls-7 {
        fill: none;
        stroke-miterlimit: 10;
        stroke-width: 2px;
      }

      .cls-1, .cls-2, .cls-3, .cls-4, .cls-5, .cls-7 {
        stroke-linecap: round;
      }

      .cls-1, .cls-4, .cls-6, .cls-7 {
        stroke: #1d1d1b;
      }

      .cls-2 {
        stroke: #e30613;
      }

      .cls-8 {
        font-family: Bahnschrift, Bahnschrift;
        font-size: 20px;
        font-variation-settings: 'wght' 400, 'wdth' 100;
      }

      .cls-8, .cls-9 {
        fill: #1d1d1b;
      }

      .cls-3 {
        stroke: #f39200;
      }

      .cls-10 {
        fill: #95c11f;
      }

      .cls-10, .cls-9 {
        stroke-width: 0px;
      }

      .cls-5 {
        stroke: #3aaa35;
      }

      .cls-7 {
        stroke-dasharray: 0 0 4.9 4.9;
      }
    </style>
  </defs>
  <rect class="cls-10" x="77.11" y="92.86" width="11.74" height="11.74" transform="translate(40.86 -23.17) rotate(20.98)"/>
  <g>
    <line class="cls-6" x1="8.17" y1="76.33" x2="142.62" y2="127.9"/>
    <rect class="cls-9" x="1.67" y="75.33" width="13" height="2" transform="translate(-66.03 56.62) rotate(-69.02)"/>
    <rect class="cls-9" x="136.12" y="126.9" width="13" height="2" transform="translate(-27.87 215.26) rotate(-69.02)"/>
  </g>
  <line class="cls-2" x1="114.18" y1="1" x2="55.28" y2="154.56"/>
  <line class="cls-5" x1="37.14" y1="80.88" x2="44.2" y2="96.71"/>
  <line class="cls-5" x1="109.57" y1="108.66" x2="116.63" y2="124.49"/>
  <g>
    <line class="cls-4" x1="8.17" y1="76.33" x2="10.31" y2="75.03"/>
    <line class="cls-7" x1="14.49" y1="72.49" x2="104.46" y2="17.87"/>
    <line class="cls-4" x1="106.55" y1="16.6" x2="108.69" y2="15.3"/>
  </g>
  <line class="cls-1" x1="142.62" y1="127.9" x2="108.69" y2="15.3"/>
  <g>
    <line class="cls-4" x1="106.39" y1="10.14" x2="110.99" y2="20.47"/>
    <line class="cls-4" x1="113.86" y1="13" x2="103.52" y2="17.61"/>
  </g>
  <circle class="cls-3" cx="58.43" cy="45.82" r="5.62"/>
  <circle class="cls-3" cx="125.74" cy="71.89" r="5.62"/>
  <text class="cls-8" transform="translate(0 66.27)"><tspan x="0" y="0">A</tspan></text>
  <text class="cls-8" transform="translate(148.44 121.77)"><tspan x="0" y="0">B</tspan></text>
  <text class="cls-8" transform="translate(115.95 22.55)"><tspan x="0" y="0">M</tspan></text>
</svg>