<svg xmlns="http://www.w3.org/2000/svg" version="1.1" xmlns:xlink="http://www.w3.org/1999/xlink" xmlns:svgjs="http://svgjs.dev/svgjs" xml:space="preserve" width="420" height="300" viewBox="0 0 420 300" x="10" y="10"><defs><mask><rect width="100%" height="100%" fill="url(#SvgjsPattern1231)"/></mask><pattern x="0" y="0" width="20" height="20" patternUnits="userSpaceOnUse" id="SvgjsPattern1231"><rect width="10" height="10" fill="#ffffff"/><rect width="10" height="10" x="10" y="10" fill="#ffffff"/></pattern><mask><rect width="100%" height="100%" fill="url(#SvgjsPattern1232)"/></mask><pattern x="0" y="0" width="20" height="20" patternUnits="userSpaceOnUse" id="SvgjsPattern1232"><line x1="0" y1="0" x2="0" y2="20" stroke="#ffffff" stroke-width="3"/><line x1="10" y1="0" x2="10" y2="20" stroke="#ffffff" stroke-width="3"/><line x1="20" y1="0" x2="20" y2="20" stroke="#ffffff" stroke-width="3"/></pattern><mask><rect width="100%" height="100%" fill="url(#SvgjsPattern1233)"/></mask><pattern x="0" y="0" width="20" height="20" patternUnits="userSpaceOnUse" id="SvgjsPattern1233"><line x1="0" y1="0" x2="20" y2="0" stroke="#ffffff" stroke-width="3"/><line x1="0" y1="10" x2="20" y2="10" stroke="#ffffff" stroke-width="3"/><line x1="0" y1="20" x2="20" y2="20" stroke="#ffffff" stroke-width="3"/></pattern><mask><rect width="100%" height="100%" fill="url(#SvgjsPattern1234)"/></mask><pattern x="0" y="0" width="20" height="20" patternUnits="userSpaceOnUse" id="SvgjsPattern1234"><line x1="0" y1="0" x2="20" y2="20" stroke="#ffffff" stroke-width="3"/><line x1="10" y1="-10" x2="30" y2="10" stroke="#ffffff" stroke-width="3"/><line x1="-10" y1="10" x2="10" y2="30" stroke="#ffffff" stroke-width="3"/></pattern><mask><rect width="100%" height="100%" fill="url(#SvgjsPattern1235)"/></mask><pattern x="0" y="0" width="20" height="20" patternUnits="userSpaceOnUse" id="SvgjsPattern1235"><line x1="0" y1="20" x2="20" y2="0" stroke="#ffffff" stroke-width="3"/><line x1="-10" y1="10" x2="10" y2="-10" stroke="#ffffff" stroke-width="3"/><line x1="10" y1="30" x2="30" y2="10" stroke="#ffffff" stroke-width="3"/></pattern><mask><rect width="100%" height="100%" fill="url(#SvgjsPattern1236)"/></mask><pattern x="0" y="0" width="20" height="20" patternUnits="userSpaceOnUse" id="SvgjsPattern1236"><circle r="4" cx="14" cy="14" fill="#ffffff"/></pattern><mask><rect width="100%" height="100%" fill="url(#SvgjsPattern1237)"/></mask><pattern x="0" y="0" width="20" height="20" patternUnits="userSpaceOnUse" id="SvgjsPattern1237"><circle r="2" cx="2" cy="2" fill="#ffffff"/><circle r="2" cx="22" cy="2" fill="#ffffff"/><circle r="2" cx="2" cy="22" fill="#ffffff"/><circle r="2" cx="22" cy="22" fill="#ffffff"/><circle r="2" cx="12" cy="12" fill="#ffffff"/></pattern><mask><rect width="100%" height="100%" fill="url(#SvgjsPattern1238)"/></mask><pattern x="0" y="0" width="20" height="20" patternUnits="userSpaceOnUse" id="SvgjsPattern1238"><polygon points="0,0 2,5 0,10 5,8 10,10 8,5 10,0 5,2" transform="matrix(2,0,0,2,0,0)" fill="#ffffff"/></pattern><mask><rect width="100%" height="100%" fill="url(#SvgjsPattern1239)"/></mask><pattern x="0" y="0" width="20" height="20" patternUnits="userSpaceOnUse" id="SvgjsPattern1239"><circle r="1" cx="11" cy="11" fill="#ffffff"/></pattern><mask><rect width="100%" height="100%" fill="url(#SvgjsPattern1240)"/></mask><pattern x="0" y="0" width="20" height="20" patternUnits="userSpaceOnUse" id="SvgjsPattern1240"><path d="M 0,5 A 5,5,90,0,0,5,0 M 5,0 A 5,5,90,0,0,10,5 M 0,5 A 5,5,180,0,0,10,5 M 0,-5 A 5,5,180,0,0,10,-5" transform="matrix(2,0,0,2,0,0)" fill="none" stroke="#ffffff"/></pattern><mask><rect width="100%" height="100%" fill="url(#SvgjsPattern1241)"/></mask><pattern x="0" y="0" width="20" height="20" patternUnits="userSpaceOnUse" id="SvgjsPattern1241"><polygon points="0,0 2.5,0 0,2.5" transform="matrix(2,0,0,2,0,0)" fill="#ffffff"/><polygon points="10,10 7.5,10 10,7.5" transform="matrix(2,0,0,2,0,0)" fill="#ffffff"/><polygon points="10,0 10,5 5,10 5,7.5 7.5,5 5,5 5,2.5 2.5,5 0,5 5,0" transform="matrix(2,0,0,2,0,0)" fill="#ffffff"/></pattern></defs><g stroke="#75ffff" stroke-width="1" stroke-linecap="round" stroke-linejoin="round" stroke-dasharray=""><line x1="10" y1="20" x2="410" y2="20"/><line x1="10" y1="30" x2="410" y2="30"/><line x1="10" y1="40" x2="410" y2="40"/><line x1="10" y1="60" x2="410" y2="60"/><line x1="10" y1="70" x2="410" y2="70"/><line x1="10" y1="80" x2="410" y2="80"/><line x1="10" y1="100" x2="410" y2="100"/><line x1="10" y1="110" x2="410" y2="110"/><line x1="10" y1="120" x2="410" y2="120"/><line x1="10" y1="140" x2="410" y2="140"/><line x1="10" y1="150" x2="410" y2="150"/><line x1="10" y1="160" x2="410" y2="160"/><line x1="10" y1="180" x2="410" y2="180"/><line x1="10" y1="190" x2="410" y2="190"/><line x1="10" y1="200" x2="410" y2="200"/><line x1="10" y1="220" x2="410" y2="220"/><line x1="10" y1="230" x2="410" y2="230"/><line x1="10" y1="240" x2="410" y2="240"/><line x1="10" y1="260" x2="410" y2="260"/><line x1="10" y1="270" x2="410" y2="270"/><line x1="10" y1="280" x2="410" y2="280"/></g><g stroke="#ffbbff" stroke-width="2" stroke-linecap="round" stroke-linejoin="round" stroke-dasharray=""><line x1="10" y1="10" x2="10" y2="290"/><line x1="50" y1="10" x2="50" y2="290"/><line x1="90" y1="10" x2="90" y2="290"/><line x1="130" y1="10" x2="130" y2="290"/><line x1="170" y1="10" x2="170" y2="290"/><line x1="210" y1="10" x2="210" y2="290"/><line x1="250" y1="10" x2="250" y2="290"/><line x1="290" y1="10" x2="290" y2="290"/><line x1="330" y1="10" x2="330" y2="290"/><line x1="370" y1="10" x2="370" y2="290"/><line x1="410" y1="10" x2="410" y2="290"/><line x1="10" y1="10" x2="410" y2="10"/><line x1="10" y1="50" x2="410" y2="50"/><line x1="10" y1="90" x2="410" y2="90"/><line x1="10" y1="130" x2="410" y2="130"/><line x1="10" y1="170" x2="410" y2="170"/><line x1="10" y1="210" x2="410" y2="210"/><line x1="10" y1="250" x2="410" y2="250"/><line x1="10" y1="290" x2="410" y2="290"/></g><g><g><g fill="#e60049" stroke="none"/><g fill="none" stroke="#e60049" stroke-width="4" stroke-dasharray=""><line x1="210" y1="10" x2="210" y2="290"/></g></g><g><g fill="none" stroke="none"><polygon points="90,50.000000000000014 170,130 170,250.00000000000003 10,250.00000000000003 10,130"/></g><g fill="none" stroke="#50e991" stroke-width="4" stroke-dasharray="" stroke-linecap="round" stroke-linejoin="round"><polygon points="90,50.000000000000014 170,130 170,250.00000000000003 10,250.00000000000003 10,130"/></g></g><g><g fill="none" stroke="none"><polygon points="330,50.000000000000014 410,130 410,250.00000000000003 250,250.00000000000003 250,130"/></g><g fill="none" stroke="#0bdaff" stroke-width="4" stroke-dasharray="" stroke-linecap="round" stroke-linejoin="round"><polygon points="330,50.000000000000014 410,130 410,250.00000000000003 250,250.00000000000003 250,130"/></g></g><g><g fill="#000000" stroke="none"/><g fill="none" stroke="#000000" stroke-width="2" stroke-dasharray="5"><line x1="90" y1="50.000000000000014" x2="330" y2="50.000000000000014"/></g></g></g></svg>