<svg style="overflow: hidden; position: relative;" xmlns="http://www.w3.org/2000/svg" xmlns:xlink="http://www.w3.org/1999/xlink" width="500" version="1.1" height="500"><path transform="matrix(1,0,0,1,0,0)" fill="none" stroke="#505050" d="M18,18L18,487" stroke-width="2" stroke-linecap="round" stroke-linejoin="round"></path><path transform="matrix(1,0,0,1,0,0)" fill="none" stroke="#505050" d="M132.75,18L132.75,487" stroke-width="2" stroke-linecap="round" stroke-linejoin="round"></path><path transform="matrix(1,0,0,1,0,0)" fill="none" stroke="#505050" d="M247.5,18L247.5,487" stroke-width="2" stroke-linecap="round" stroke-linejoin="round"></path><path transform="matrix(1,0,0,1,0,0)" fill="none" stroke="#505050" d="M362.25,18L362.25,487" stroke-width="2" stroke-linecap="round" stroke-linejoin="round"></path><path transform="matrix(1,0,0,1,0,0)" fill="none" stroke="#505050" d="M477,18L477,487" stroke-width="2" stroke-linecap="round" stroke-linejoin="round"></path><path transform="matrix(1,0,0,1,0,0)" fill="none" stroke="#505050" d="M13,482L482,482" stroke-width="2" stroke-linecap="round" stroke-linejoin="round"></path><path transform="matrix(1,0,0,1,0,0)" fill="none" stroke="#505050" d="M13,367.25L482,367.25" stroke-width="2" stroke-linecap="round" stroke-linejoin="round"></path><path transform="matrix(1,0,0,1,0,0)" fill="none" stroke="#505050" d="M13,252.5L482,252.5" stroke-width="2" stroke-linecap="round" stroke-linejoin="round"></path><path transform="matrix(1,0,0,1,0,0)" fill="none" stroke="#505050" d="M13,137.75L482,137.75" stroke-width="2" stroke-linecap="round" stroke-linejoin="round"></path><path transform="matrix(1,0,0,1,0,0)" fill="none" stroke="#505050" d="M13,23L482,23" stroke-width="2" stroke-linecap="round" stroke-linejoin="round"></path><path transform="matrix(1,0,0,1,0,0)" fill="none" stroke="#505050" d="M40.95,18L40.95,487" stroke-width="1" stroke-linecap="round" stroke-linejoin="round"></path><path transform="matrix(1,0,0,1,0,0)" fill="none" stroke="#505050" d="M63.9,18L63.9,487" stroke-width="1" stroke-linecap="round" stroke-linejoin="round"></path><path transform="matrix(1,0,0,1,0,0)" fill="none" stroke="#505050" d="M86.85,18L86.85,487" stroke-width="1" stroke-linecap="round" stroke-linejoin="round"></path><path transform="matrix(1,0,0,1,0,0)" fill="none" stroke="#505050" d="M109.8,18L109.8,487" stroke-width="1" stroke-linecap="round" stroke-linejoin="round"></path><path transform="matrix(1,0,0,1,0,0)" fill="none" stroke="#505050" d="M155.7,18L155.7,487" stroke-width="1" stroke-linecap="round" stroke-linejoin="round"></path><path transform="matrix(1,0,0,1,0,0)" fill="none" stroke="#505050" d="M178.65,18L178.65,487" stroke-width="1" stroke-linecap="round" stroke-linejoin="round"></path><path transform="matrix(1,0,0,1,0,0)" fill="none" stroke="#505050" d="M201.6,18L201.6,487" stroke-width="1" stroke-linecap="round" stroke-linejoin="round"></path><path transform="matrix(1,0,0,1,0,0)" fill="none" stroke="#505050" d="M224.55,18L224.55,487" stroke-width="1" stroke-linecap="round" stroke-linejoin="round"></path><path transform="matrix(1,0,0,1,0,0)" fill="none" stroke="#505050" d="M270.45,18L270.45,487" stroke-width="1" stroke-linecap="round" stroke-linejoin="round"></path><path transform="matrix(1,0,0,1,0,0)" fill="none" stroke="#505050" d="M293.4,18L293.4,487" stroke-width="1" stroke-linecap="round" stroke-linejoin="round"></path><path transform="matrix(1,0,0,1,0,0)" fill="none" stroke="#505050" d="M316.35,18L316.35,487" stroke-width="1" stroke-linecap="round" stroke-linejoin="round"></path><path transform="matrix(1,0,0,1,0,0)" fill="none" stroke="#505050" d="M339.3,18L339.3,487" stroke-width="1" stroke-linecap="round" stroke-linejoin="round"></path><path transform="matrix(1,0,0,1,0,0)" fill="none" stroke="#505050" d="M385.2,18L385.2,487" stroke-width="1" stroke-linecap="round" stroke-linejoin="round"></path><path transform="matrix(1,0,0,1,0,0)" fill="none" stroke="#505050" d="M408.15,18L408.15,487" stroke-width="1" stroke-linecap="round" stroke-linejoin="round"></path><path transform="matrix(1,0,0,1,0,0)" fill="none" stroke="#505050" d="M431.1,18L431.1,487" stroke-width="1" stroke-linecap="round" stroke-linejoin="round"></path><path transform="matrix(1,0,0,1,0,0)" fill="none" stroke="#505050" d="M454.05,18L454.05,487" stroke-width="1" stroke-linecap="round" stroke-linejoin="round"></path><path transform="matrix(1,0,0,1,0,0)" fill="none" stroke="#505050" d="M13,459.05L482,459.05" stroke-width="1" stroke-linecap="round" stroke-linejoin="round"></path><path transform="matrix(1,0,0,1,0,0)" fill="none" stroke="#505050" d="M13,436.1L482,436.1" stroke-width="1" stroke-linecap="round" stroke-linejoin="round"></path><path transform="matrix(1,0,0,1,0,0)" fill="none" stroke="#505050" d="M13,413.15L482,413.15" stroke-width="1" stroke-linecap="round" stroke-linejoin="round"></path><path transform="matrix(1,0,0,1,0,0)" fill="none" stroke="#505050" d="M13,390.2L482,390.2" stroke-width="1" stroke-linecap="round" stroke-linejoin="round"></path><path transform="matrix(1,0,0,1,0,0)" fill="none" stroke="#505050" d="M13,344.3L482,344.3" stroke-width="1" stroke-linecap="round" stroke-linejoin="round"></path><path transform="matrix(1,0,0,1,0,0)" fill="none" stroke="#505050" d="M13,321.35L482,321.35" stroke-width="1" stroke-linecap="round" stroke-linejoin="round"></path><path transform="matrix(1,0,0,1,0,0)" fill="none" stroke="#505050" d="M13,298.4L482,298.4" stroke-width="1" stroke-linecap="round" stroke-linejoin="round"></path><path transform="matrix(1,0,0,1,0,0)" fill="none" stroke="#505050" d="M13,275.45L482,275.45" stroke-width="1" stroke-linecap="round" stroke-linejoin="round"></path><path transform="matrix(1,0,0,1,0,0)" fill="none" stroke="#505050" d="M13,229.55L482,229.55" stroke-width="1" stroke-linecap="round" stroke-linejoin="round"></path><path transform="matrix(1,0,0,1,0,0)" fill="none" stroke="#505050" d="M13,206.6L482,206.6" stroke-width="1" stroke-linecap="round" stroke-linejoin="round"></path><path transform="matrix(1,0,0,1,0,0)" fill="none" stroke="#505050" d="M13,183.65L482,183.65" stroke-width="1" stroke-linecap="round" stroke-linejoin="round"></path><path transform="matrix(1,0,0,1,0,0)" fill="none" stroke="#505050" d="M13,160.7L482,160.7" stroke-width="1" stroke-linecap="round" stroke-linejoin="round"></path><path transform="matrix(1,0,0,1,0,0)" fill="none" stroke="#505050" d="M13,114.8L482,114.8" stroke-width="1" stroke-linecap="round" stroke-linejoin="round"></path><path transform="matrix(1,0,0,1,0,0)" fill="none" stroke="#505050" d="M13,91.85L482,91.85" stroke-width="1" stroke-linecap="round" stroke-linejoin="round"></path><path transform="matrix(1,0,0,1,0,0)" fill="none" stroke="#505050" d="M13,68.9L482,68.9" stroke-width="1" stroke-linecap="round" stroke-linejoin="round"></path><path transform="matrix(1,0,0,1,0,0)" fill="none" stroke="#505050" d="M13,45.95L482,45.95" stroke-width="1" stroke-linecap="round" stroke-linejoin="round"></path><path transform="matrix(1,0,0,1,0,0)" fill="none" stroke="#000000" d="M40.95,479.5L40.95,484.5" stroke-width="2" stroke-linecap="round" stroke-linejoin="round"></path><path transform="matrix(1,0,0,1,0,0)" fill="none" stroke="#000000" d="M63.9,479.5L63.9,484.5" stroke-width="2" stroke-linecap="round" stroke-linejoin="round"></path><path transform="matrix(1,0,0,1,0,0)" fill="none" stroke="#000000" d="M86.85,479.5L86.85,484.5" stroke-width="2" stroke-linecap="round" stroke-linejoin="round"></path><path transform="matrix(1,0,0,1,0,0)" fill="none" stroke="#000000" d="M109.8,479.5L109.8,484.5" stroke-width="2" stroke-linecap="round" stroke-linejoin="round"></path><path transform="matrix(1,0,0,1,0,0)" fill="none" stroke="#000000" d="M132.75,477L132.75,487" stroke-width="3" stroke-linecap="round" stroke-linejoin="round"></path><path transform="matrix(1,0,0,1,0,0)" fill="none" stroke="#000000" d="M155.7,479.5L155.7,484.5" stroke-width="2" stroke-linecap="round" stroke-linejoin="round"></path><path transform="matrix(1,0,0,1,0,0)" fill="none" stroke="#000000" d="M178.65,479.5L178.65,484.5" stroke-width="2" stroke-linecap="round" stroke-linejoin="round"></path><path transform="matrix(1,0,0,1,0,0)" fill="none" stroke="#000000" d="M201.6,479.5L201.6,484.5" stroke-width="2" stroke-linecap="round" stroke-linejoin="round"></path><path transform="matrix(1,0,0,1,0,0)" fill="none" stroke="#000000" d="M224.55,479.5L224.55,484.5" stroke-width="2" stroke-linecap="round" stroke-linejoin="round"></path><path transform="matrix(1,0,0,1,0,0)" fill="none" stroke="#000000" d="M247.5,477L247.5,487" stroke-width="3" stroke-linecap="round" stroke-linejoin="round"></path><path transform="matrix(1,0,0,1,0,0)" fill="none" stroke="#000000" d="M270.45,479.5L270.45,484.5" stroke-width="2" stroke-linecap="round" stroke-linejoin="round"></path><path transform="matrix(1,0,0,1,0,0)" fill="none" stroke="#000000" d="M293.4,479.5L293.4,484.5" stroke-width="2" stroke-linecap="round" stroke-linejoin="round"></path><path transform="matrix(1,0,0,1,0,0)" fill="none" stroke="#000000" d="M316.35,479.5L316.35,484.5" stroke-width="2" stroke-linecap="round" stroke-linejoin="round"></path><path transform="matrix(1,0,0,1,0,0)" fill="none" stroke="#000000" d="M339.3,479.5L339.3,484.5" stroke-width="2" stroke-linecap="round" stroke-linejoin="round"></path><path transform="matrix(1,0,0,1,0,0)" fill="none" stroke="#000000" d="M362.25,477L362.25,487" stroke-width="3" stroke-linecap="round" stroke-linejoin="round"></path><path transform="matrix(1,0,0,1,0,0)" fill="none" stroke="#000000" d="M385.2,479.5L385.2,484.5" stroke-width="2" stroke-linecap="round" stroke-linejoin="round"></path><path transform="matrix(1,0,0,1,0,0)" fill="none" stroke="#000000" d="M408.15,479.5L408.15,484.5" stroke-width="2" stroke-linecap="round" stroke-linejoin="round"></path><path transform="matrix(1,0,0,1,0,0)" fill="none" stroke="#000000" d="M431.1,479.5L431.1,484.5" stroke-width="2" stroke-linecap="round" stroke-linejoin="round"></path><path transform="matrix(1,0,0,1,0,0)" fill="none" stroke="#000000" d="M454.05,479.5L454.05,484.5" stroke-width="2" stroke-linecap="round" stroke-linejoin="round"></path><path transform="matrix(1,0,0,1,0,0)" fill="none" stroke="#000000" d="M477,477L477,487" stroke-width="3" stroke-linecap="round" stroke-linejoin="round"></path><path transform="matrix(1,0,0,1,0,0)" fill="none" stroke="#000000" d="M15.5,459.05L20.5,459.05" stroke-width="2" stroke-linecap="round" stroke-linejoin="round"></path><path transform="matrix(1,0,0,1,0,0)" fill="none" stroke="#000000" d="M15.5,436.1L20.5,436.1" stroke-width="2" stroke-linecap="round" stroke-linejoin="round"></path><path transform="matrix(1,0,0,1,0,0)" fill="none" stroke="#000000" d="M15.5,413.15L20.5,413.15" stroke-width="2" stroke-linecap="round" stroke-linejoin="round"></path><path transform="matrix(1,0,0,1,0,0)" fill="none" stroke="#000000" d="M15.5,390.2L20.5,390.2" stroke-width="2" stroke-linecap="round" stroke-linejoin="round"></path><path transform="matrix(1,0,0,1,0,0)" fill="none" stroke="#000000" d="M13,367.25L23,367.25" stroke-width="3" stroke-linecap="round" stroke-linejoin="round"></path><path transform="matrix(1,0,0,1,0,0)" fill="none" stroke="#000000" d="M15.5,344.3L20.5,344.3" stroke-width="2" stroke-linecap="round" stroke-linejoin="round"></path><path transform="matrix(1,0,0,1,0,0)" fill="none" stroke="#000000" d="M15.5,321.35L20.5,321.35" stroke-width="2" stroke-linecap="round" stroke-linejoin="round"></path><path transform="matrix(1,0,0,1,0,0)" fill="none" stroke="#000000" d="M15.5,298.4L20.5,298.4" stroke-width="2" stroke-linecap="round" stroke-linejoin="round"></path><path transform="matrix(1,0,0,1,0,0)" fill="none" stroke="#000000" d="M15.5,275.45L20.5,275.45" stroke-width="2" stroke-linecap="round" stroke-linejoin="round"></path><path transform="matrix(1,0,0,1,0,0)" fill="none" stroke="#000000" d="M13,252.5L23,252.5" stroke-width="3" stroke-linecap="round" stroke-linejoin="round"></path><path transform="matrix(1,0,0,1,0,0)" fill="none" stroke="#000000" d="M15.5,229.55L20.5,229.55" stroke-width="2" stroke-linecap="round" stroke-linejoin="round"></path><path transform="matrix(1,0,0,1,0,0)" fill="none" stroke="#000000" d="M15.5,206.6L20.5,206.6" stroke-width="2" stroke-linecap="round" stroke-linejoin="round"></path><path transform="matrix(1,0,0,1,0,0)" fill="none" stroke="#000000" d="M15.5,183.65L20.5,183.65" stroke-width="2" stroke-linecap="round" stroke-linejoin="round"></path><path transform="matrix(1,0,0,1,0,0)" fill="none" stroke="#000000" d="M15.5,160.7L20.5,160.7" stroke-width="2" stroke-linecap="round" stroke-linejoin="round"></path><path transform="matrix(1,0,0,1,0,0)" fill="none" stroke="#000000" d="M13,137.75L23,137.75" stroke-width="3" stroke-linecap="round" stroke-linejoin="round"></path><path transform="matrix(1,0,0,1,0,0)" fill="none" stroke="#000000" d="M15.5,114.8L20.5,114.8" stroke-width="2" stroke-linecap="round" stroke-linejoin="round"></path><path transform="matrix(1,0,0,1,0,0)" fill="none" stroke="#000000" d="M15.5,91.85L20.5,91.85" stroke-width="2" stroke-linecap="round" stroke-linejoin="round"></path><path transform="matrix(1,0,0,1,0,0)" fill="none" stroke="#000000" d="M15.5,68.9L20.5,68.9" stroke-width="2" stroke-linecap="round" stroke-linejoin="round"></path><path transform="matrix(1,0,0,1,0,0)" fill="none" stroke="#000000" d="M15.5,45.95L20.5,45.95" stroke-width="2" stroke-linecap="round" stroke-linejoin="round"></path><path transform="matrix(1,0,0,1,0,0)" fill="none" stroke="#000000" d="M13,23L23,23" stroke-width="3" stroke-linecap="round" stroke-linejoin="round"></path><path transform="matrix(1,0,0,1,0,0)" fill="none" stroke="#000000" d="M13,482L482,482" stroke-width="3" stroke-linecap="round" stroke-linejoin="round"></path><path transform="matrix(1,0,0,1,0,0)" fill="none" stroke="#000000" d="M18,487L18,18" stroke-width="3" stroke-linecap="round" stroke-linejoin="round"></path><path transform="matrix(1,0,0,1,0,0)" fill="#000000" stroke="#000000" d="M482,482L483.25,482L483.25,484.5L487,482L483.25,479.5L483.25,482Z" stroke-width="3" stroke-linecap="round" stroke-linejoin="round"></path><path transform="matrix(1,0,0,1,0,0)" fill="#000000" stroke="#000000" d="M18,18L18,16.75L20.5,16.75L18,13L15.5,16.75L18,16.75Z" stroke-width="3" stroke-linecap="round" stroke-linejoin="round"></path><path transform="matrix(1,0,0,1,0,0)" fill="none" stroke="#ff0000" d="M18,321.35L19,320.75L20,320.15L21,319.55L22,318.95000000000005L23,318.35L24,317.75L25,317.15L26,316.55L27,315.95000000000005L28,315.35L29,314.75L30,314.15L31,313.55L32,312.95000000000005L33,312.35L34,311.75L35,311.15000000000003L36,310.55L37,309.95L38,309.35L39,308.75L40,308.15L41,307.55L42,306.95000000000005L43,306.35L44,305.75L45,305.15L46,304.55L47,303.95000000000005L48,303.35L49,302.75L50,302.15L51.00000000000001,301.55L52.00000000000001,300.95000000000005L53.00000000000001,300.35L54.00000000000001,299.75L55.00000000000001,299.15L56,298.55L57,297.95000000000005L58,297.35L59,296.75L60.00000000000001,296.15L61.00000000000001,295.55L62.00000000000001,294.95L63.00000000000001,294.35L64,293.75L65,293.15L66,292.55L67,291.95000000000005L68,291.35L69,290.75L70,290.15L71,289.55L72,288.95000000000005L73,288.35L74,287.75L75,287.15L76,286.55L77,285.95000000000005L78,285.35L79,284.75L80,284.15L81,283.55L82,282.95L83,282.35L84.00000000000001,281.75L85.00000000000001,281.15L86.00000000000001,280.55L87.00000000000001,279.95000000000005L88.00000000000001,279.35L89.00000000000001,278.75L90.00000000000001,278.15L91.00000000000001,277.55L92.00000000000001,276.95000000000005L93,276.35L94,275.75L95,275.15000000000003L96,274.55L97,273.95L98,273.35L99,272.75L100,272.15L101,271.55L102.00000000000001,270.95000000000005L103.00000000000001,270.35L104.00000000000001,269.75L105.00000000000001,269.15L106.00000000000001,268.54999999999995L107.00000000000001,267.95L108.00000000000001,267.35L109.00000000000001,266.75L110.00000000000001,266.15L111.00000000000001,265.55L112.00000000000001,264.95000000000005L113.00000000000001,264.35L114.00000000000001,263.75L115,263.15L116,262.55L117,261.95000000000005L118,261.35L119,260.75L120,260.15000000000003L121.00000000000001,259.55000000000007L122.00000000000001,258.95L123.00000000000001,258.35L124.00000000000001,257.75L125.00000000000001,257.15L126.00000000000001,256.55L127.00000000000001,255.95L128,255.35L129,254.75L130,254.15L131,253.54999999999998L132,252.95L133,252.35L134,251.75L135,251.15L136,250.55L137,249.95000000000002L138,249.35000000000002L139,248.75L140,248.15L141.00000000000003,247.55L142,246.95000000000002L143.00000000000003,246.35000000000002L144,245.75000000000003L145.00000000000003,245.15000000000003L146,244.55000000000004L147,243.95000000000002L148,243.35000000000002L149,242.75000000000003L150.00000000000003,242.14999999999998L151,241.55000000000004L152.00000000000003,240.95L153,240.35L154.00000000000003,239.75L155,239.15L156.00000000000003,238.55L157,237.95L158.00000000000003,237.35L159,236.75L160.00000000000003,236.15L161,235.55L162.00000000000003,234.95000000000002L163,234.35000000000002L164.00000000000003,233.75000000000003L165,233.15L166.00000000000003,232.54999999999998L167,231.95000000000002L168,231.35000000000002L169.00000000000003,230.74999999999997L170,230.15000000000003L171.00000000000003,229.54999999999998L172,228.95L173.00000000000003,228.35L174,227.75L175.00000000000003,227.14999999999998L176,226.54999999999998L177.00000000000003,225.95L178,225.35000000000002L179.00000000000003,224.75L180,224.14999999999998L181.00000000000003,223.55L182,222.95L183.00000000000003,222.35000000000002L184,221.75L185.00000000000003,221.15000000000003L186.00000000000003,220.55L187.00000000000003,219.95L188.00000000000003,219.35000000000002L189,218.75L190.00000000000003,218.15000000000003L191,217.55L192.00000000000003,216.95000000000005L193,216.35000000000002L194.00000000000003,215.75000000000006L195,215.15000000000003L196.00000000000003,214.55L197,213.95000000000005L198.00000000000003,213.34999999999997L199,212.75000000000006L200.00000000000003,212.14999999999998L201,211.55L202.00000000000003,210.95L203,210.35000000000002L204.00000000000003,209.75L205.00000000000003,209.14999999999998L206.00000000000003,208.55L207.00000000000003,207.95L208.00000000000003,207.35000000000002L209.00000000000003,206.75L210.00000000000003,206.14999999999998L211.00000000000003,205.55L212,204.95L213.00000000000003,204.34999999999997L214,203.75L215.00000000000003,203.14999999999998L216,202.54999999999995L217.00000000000003,201.95L218,201.34999999999997L219.00000000000003,200.75L220,200.14999999999998L221.00000000000003,199.55L222,198.95L223.00000000000003,198.34999999999997L224.00000000000003,197.75L225.00000000000003,197.14999999999998L226.00000000000003,196.55L227.00000000000003,195.95L228.00000000000003,195.35000000000002L229.00000000000003,194.75L230.00000000000003,194.14999999999998L231.00000000000003,193.55L232.00000000000003,192.95L233,192.35000000000002L234.00000000000003,191.75L235,191.15000000000003L236.00000000000003,190.55L237,189.95000000000005L238.00000000000003,189.35000000000002L239,188.75L240.00000000000003,188.15000000000003L241.00000000000003,187.55L242.00000000000003,186.95000000000005L243.00000000000003,186.35000000000002L244.00000000000003,185.75000000000006L245.00000000000003,185.15000000000003L246.00000000000003,184.55L247.00000000000003,183.95000000000005L248.00000000000003,183.34999999999997L249.00000000000006,182.75L250,182.15000000000003L251.00000000000003,181.55L252.00000000000003,180.95L253,180.35000000000008L254,179.75L255.00000000000003,179.15000000000003L256,178.54999999999995L257,177.95L258,177.35000000000002L259,176.74999999999994L260,176.14999999999998L261,175.55L262,174.95L263,174.34999999999997L264.00000000000006,173.75L265,173.14999999999998L266,172.54999999999995L267,171.95L268.00000000000006,171.34999999999997L269,170.75L270,170.14999999999998L271,169.55L272.00000000000006,168.95L273,168.34999999999997L274,167.75L275.00000000000006,167.14999999999998L276,166.55L277,165.95L278,165.35000000000002L279.00000000000006,164.75L280,164.15000000000003L281,163.55L282.00000000000006,162.95L283.00000000000006,162.35000000000002L284,161.75L285,161.15000000000003L286.00000000000006,160.55L287.00000000000006,159.95000000000005L288,159.35000000000002L289,158.75L290.00000000000006,158.15000000000003L291.00000000000006,157.54999999999995L292,156.95000000000005L293,156.35000000000002L294.00000000000006,155.75L295.00000000000006,155.14999999999998L296,154.55000000000007L297,153.95L298.00000000000006,153.35000000000002L299,152.75000000000006L300,152.14999999999998L301.00000000000006,151.55L302.00000000000006,150.94999999999993L303,150.35000000000002L304,149.75L305.00000000000006,149.14999999999998L306.00000000000006,148.54999999999995L307,147.95L308,147.34999999999997L309.00000000000006,146.74999999999994L310.00000000000006,146.14999999999998L311,145.54999999999995L312,144.95L313.00000000000006,144.34999999999997L314.00000000000006,143.75L315,143.14999999999998L316,142.54999999999995L317.00000000000006,141.95L318,141.34999999999997L319,140.75L320.00000000000006,140.14999999999998L321.00000000000006,139.55L322,138.95L323,138.35000000000002L324.00000000000006,137.75L325.00000000000006,137.14999999999998L326,136.55L327,135.95L328.00000000000006,135.35000000000002L329.00000000000006,134.75L330,134.15000000000003L331,133.55L332.00000000000006,132.95000000000005L333.00000000000006,132.35000000000002L334,131.75L335.00000000000006,131.15000000000003L336.00000000000006,130.55L337.00000000000006,129.95L338,129.35000000000002L339.00000000000006,128.75000000000006L340.00000000000006,128.14999999999998L341,127.55000000000001L342,126.95000000000005L343.00000000000006,126.34999999999997L344.00000000000006,125.75L345,125.15000000000003L346,124.55000000000001L347.00000000000006,123.94999999999999L348.00000000000006,123.34999999999997L349,122.75L350,122.14999999999998L351.00000000000006,121.54999999999995L352.00000000000006,120.94999999999993L353,120.35000000000002L354.00000000000006,119.74999999999994L355.00000000000006,119.14999999999998L356.00000000000006,118.54999999999995L357,117.94999999999999L358.00000000000006,117.34999999999997L359.00000000000006,116.75L360,116.14999999999998L361,115.54999999999995L362.00000000000006,114.94999999999999L363.00000000000006,114.34999999999997L364,113.75L365,113.14999999999998L366.00000000000006,112.55000000000001L367.00000000000006,111.94999999999999L368,111.34999999999997L369,110.75L370.00000000000006,110.14999999999998L371.00000000000006,109.55000000000001L372,108.94999999999999L373.00000000000006,108.35000000000002L374.00000000000006,107.75L375.00000000000006,107.15000000000003L376,106.55000000000001L377.00000000000006,105.94999999999999L378.00000000000006,105.35000000000002L379.00000000000006,104.75L380,104.15000000000003L381.00000000000006,103.55000000000001L382.00000000000006,102.95000000000005L383,102.35000000000002L384,101.75L385.00000000000006,101.15000000000003L386.00000000000006,100.54999999999995L387,99.95000000000005L388,99.35000000000002L389.00000000000006,98.75L390.00000000000006,98.14999999999998L391,97.55000000000007L392.00000000000006,96.94999999999999L393.00000000000006,96.34999999999997L394.00000000000006,95.75L395,95.14999999999998L396.00000000000006,94.55000000000001L397.00000000000006,93.94999999999999L398.00000000000006,93.34999999999997L399,92.75L400.00000000000006,92.15000000000003L401.00000000000006,91.55000000000001L402.00000000000006,90.94999999999999L403,90.35000000000002L404.00000000000006,89.75L405.00000000000006,89.14999999999998L406,88.55000000000001L407,87.95000000000005L408.00000000000006,87.34999999999997L409.00000000000006,86.75L410,86.15000000000003L411.00000000000006,85.54999999999995L412.00000000000006,84.94999999999999L413.00000000000006,84.34999999999997L414,83.75L415.00000000000006,83.14999999999998L416.00000000000006,82.55000000000001L417.00000000000006,81.94999999999999L418,81.35000000000002L419.00000000000006,80.75L420.00000000000006,80.14999999999998L421.00000000000006,79.55000000000001L422,78.94999999999999L423.00000000000006,78.35000000000002L424.00000000000006,77.75L425,77.15000000000003L426,76.55000000000001L427.00000000000006,75.94999999999999L428.00000000000006,75.34999999999997L429,74.75L430.00000000000006,74.15000000000003L431.00000000000006,73.54999999999995L432.00000000000006,72.94999999999999L433,72.35000000000002L434.00000000000006,71.75L435.00000000000006,71.14999999999998L436.00000000000006,70.55000000000001L437,69.94999999999999L438.00000000000006,69.34999999999997L439.00000000000006,68.75L440.00000000000006,68.14999999999998L441,67.55000000000001L442.00000000000006,66.94999999999999L443.00000000000006,66.35000000000002L444.00000000000006,65.75L445.00000000000006,65.14999999999998L446.00000000000006,64.55000000000001L447.00000000000006,63.94999999999999L448,63.35000000000002L449.00000000000006,62.75L450.00000000000006,62.150000000000034L451.00000000000006,61.549999999999955L452,60.950000000000045L453.00000000000006,60.35000000000002L454.00000000000006,59.74999999999994L455.00000000000006,59.14999999999998L456,58.55000000000001L457.00000000000006,57.94999999999999L458.00000000000006,57.349999999999966L459.00000000000006,56.75L460,56.14999999999998L461.00000000000006,55.55000000000001L462.00000000000006,54.94999999999999L463.00000000000006,54.349999999999966L464.00000000000006,53.75L465.00000000000006,53.14999999999998L466.00000000000006,52.55000000000001L467,51.94999999999999L468.00000000000006,51.35000000000002L469.00000000000006,50.75L470.00000000000006,50.14999999999998L471,49.55000000000001L472.00000000000006,48.94999999999999L473.00000000000006,48.35000000000002L474.00000000000006,47.74999999999994L475,47.150000000000034L476.00000000000006,46.55000000000001L477,45.950000000000045" stroke-width="2" stroke-linecap="round" stroke-linejoin="round" stroke-dasharray="6,8"></path><path transform="matrix(1,0,0,1,0,0)" fill="none" stroke="#ff0000" d="M132.75,242.5L132.75,262.5" stroke-width="3" stroke-linecap="round" stroke-linejoin="round" stroke-dasharray=""></path><path transform="matrix(1,0,0,1,0,0)" fill="none" stroke="#ff0000" d="M122.75,252.5L142.75,252.5" stroke-width="3" stroke-linecap="round" stroke-linejoin="round" stroke-dasharray=""></path><path transform="matrix(1,0,0,1,0,0)" fill="none" stroke="#ff0000" d="M247.5,173.64999999999998L247.5,193.64999999999998" stroke-width="3" stroke-linecap="round" stroke-linejoin="round" stroke-dasharray=""></path><path transform="matrix(1,0,0,1,0,0)" fill="none" stroke="#ff0000" d="M237.5,183.64999999999998L257.5,183.64999999999998" stroke-width="3" stroke-linecap="round" stroke-linejoin="round" stroke-dasharray=""></path><path transform="matrix(1,0,0,1,0,0)" fill="none" stroke="#ff0000" d="M362.25,104.79999999999995L362.25,124.79999999999995" stroke-width="3" stroke-linecap="round" stroke-linejoin="round" stroke-dasharray=""></path><path transform="matrix(1,0,0,1,0,0)" fill="none" stroke="#ff0000" d="M352.25,114.79999999999995L372.25,114.79999999999995" stroke-width="3" stroke-linecap="round" stroke-linejoin="round" stroke-dasharray=""></path><text transform="matrix(1,0,0,1,0,0)" style="text-anchor: middle; font: normal normal bold 12px/normal ;" x="132.75" y="496" text-anchor="middle" font-family="&quot;Arial&quot;" font-size="12px" stroke="white" fill="white" stroke-width="5" font-weight="bold"><tspan dy="4.361538461538462">1</tspan></text><text transform="matrix(1,0,0,1,0,0)" style="text-anchor: middle; font: normal normal normal 12px/normal ;" x="132.75" y="496" text-anchor="middle" font-family="&quot;Arial&quot;" font-size="12px" stroke="none" fill="#000000"><tspan dy="4.361538461538462">1</tspan></text><text transform="matrix(1,0,0,1,0,0)" style="text-anchor: middle; font: normal normal bold 12px/normal ;" x="247.5" y="496" text-anchor="middle" font-family="&quot;Arial&quot;" font-size="12px" stroke="white" fill="white" stroke-width="5" font-weight="bold"><tspan dy="4.361538461538462">2</tspan></text><text transform="matrix(1,0,0,1,0,0)" style="text-anchor: middle; font: normal normal normal 12px/normal ;" x="247.5" y="496" text-anchor="middle" font-family="&quot;Arial&quot;" font-size="12px" stroke="none" fill="#000000"><tspan dy="4.361538461538462">2</tspan></text><text transform="matrix(1,0,0,1,0,0)" style="text-anchor: middle; font: normal normal bold 12px/normal ;" x="362.25" y="496" text-anchor="middle" font-family="&quot;Arial&quot;" font-size="12px" stroke="white" fill="white" stroke-width="5" font-weight="bold"><tspan dy="4.361538461538462">3</tspan></text><text transform="matrix(1,0,0,1,0,0)" style="text-anchor: middle; font: normal normal normal 12px/normal ;" x="362.25" y="496" text-anchor="middle" font-family="&quot;Arial&quot;" font-size="12px" stroke="none" fill="#000000"><tspan dy="4.361538461538462">3</tspan></text><text transform="matrix(1,0,0,1,0,0)" style="text-anchor: middle; font: normal normal bold 12px/normal ;" x="477" y="496" text-anchor="middle" font-family="&quot;Arial&quot;" font-size="12px" stroke="white" fill="white" stroke-width="5" font-weight="bold"><tspan dy="4.361538461538462">4</tspan></text><text transform="matrix(1,0,0,1,0,0)" style="text-anchor: middle; font: normal normal normal 12px/normal ;" x="477" y="496" text-anchor="middle" font-family="&quot;Arial&quot;" font-size="12px" stroke="none" fill="#000000"><tspan dy="4.361538461538462">4</tspan></text><path transform="matrix(1,0,0,1,0,0)" fill="none" stroke="#000" d="M13,367.25L23,367.25"></path><text transform="matrix(1,0,0,1,0,0)" style="text-anchor: middle; font: normal normal bold 12px/normal ;" x="6" y="367.25" text-anchor="middle" font-family="&quot;Arial&quot;" font-size="12px" stroke="white" fill="white" stroke-width="5" font-weight="bold"><tspan dy="4.361538461538462">1</tspan></text><text transform="matrix(1,0,0,1,0,0)" style="text-anchor: middle; font: normal normal normal 12px/normal ;" x="6" y="367.25" text-anchor="middle" font-family="&quot;Arial&quot;" font-size="12px" stroke="none" fill="#000000"><tspan dy="4.361538461538462">1</tspan></text><path transform="matrix(1,0,0,1,0,0)" fill="none" stroke="#000" d="M13,252.5L23,252.5"></path><text transform="matrix(1,0,0,1,0,0)" style="text-anchor: middle; font: normal normal bold 12px/normal ;" x="6" y="252.5" text-anchor="middle" font-family="&quot;Arial&quot;" font-size="12px" stroke="white" fill="white" stroke-width="5" font-weight="bold"><tspan dy="4.361538461538462">2</tspan></text><text transform="matrix(1,0,0,1,0,0)" style="text-anchor: middle; font: normal normal normal 12px/normal ;" x="6" y="252.5" text-anchor="middle" font-family="&quot;Arial&quot;" font-size="12px" stroke="none" fill="#000000"><tspan dy="4.361538461538462">2</tspan></text><path transform="matrix(1,0,0,1,0,0)" fill="none" stroke="#000" d="M13,137.75L23,137.75"></path><text transform="matrix(1,0,0,1,0,0)" style="text-anchor: middle; font: normal normal bold 12px/normal ;" x="6" y="137.75" text-anchor="middle" font-family="&quot;Arial&quot;" font-size="12px" stroke="white" fill="white" stroke-width="5" font-weight="bold"><tspan dy="4.361538461538462">3</tspan></text><text transform="matrix(1,0,0,1,0,0)" style="text-anchor: middle; font: normal normal normal 12px/normal ;" x="6" y="137.75" text-anchor="middle" font-family="&quot;Arial&quot;" font-size="12px" stroke="none" fill="#000000"><tspan dy="4.361538461538462">3</tspan></text><path transform="matrix(1,0,0,1,0,0)" fill="none" stroke="#000" d="M13,23L23,23"></path><text transform="matrix(1,0,0,1,0,0)" style="text-anchor: middle; font: normal normal bold 12px/normal ;" x="6" y="23" text-anchor="middle" font-family="&quot;Arial&quot;" font-size="12px" stroke="white" fill="white" stroke-width="5" font-weight="bold"><tspan dy="4.361538461538462">4</tspan></text><text transform="matrix(1,0,0,1,0,0)" style="text-anchor: middle; font: normal normal normal 12px/normal ;" x="6" y="23" text-anchor="middle" font-family="&quot;Arial&quot;" font-size="12px" stroke="none" fill="#000000"><tspan dy="4.361538461538462">4</tspan></text></svg>