<svg style="overflow: hidden; position: relative;" xmlns="http://www.w3.org/2000/svg" xmlns:xlink="http://www.w3.org/1999/xlink" width="500" version="1.1" height="500"><path transform="matrix(1,0,0,1,0,0)" fill="none" stroke="#505050" d="M19,19L19,486" stroke-width="2" stroke-linecap="round" stroke-linejoin="round"></path><path transform="matrix(1,0,0,1,0,0)" fill="none" stroke="#505050" d="M133.25,19L133.25,486" stroke-width="2" stroke-linecap="round" stroke-linejoin="round"></path><path transform="matrix(1,0,0,1,0,0)" fill="none" stroke="#505050" d="M247.5,19L247.5,486" stroke-width="2" stroke-linecap="round" stroke-linejoin="round"></path><path transform="matrix(1,0,0,1,0,0)" fill="none" stroke="#505050" d="M361.75,19L361.75,486" stroke-width="2" stroke-linecap="round" stroke-linejoin="round"></path><path transform="matrix(1,0,0,1,0,0)" fill="none" stroke="#505050" d="M476,19L476,486" stroke-width="2" stroke-linecap="round" stroke-linejoin="round"></path><path transform="matrix(1,0,0,1,0,0)" fill="none" stroke="#505050" d="M14,481L481,481" stroke-width="2" stroke-linecap="round" stroke-linejoin="round"></path><path transform="matrix(1,0,0,1,0,0)" fill="none" stroke="#505050" d="M14,366.75L481,366.75" stroke-width="2" stroke-linecap="round" stroke-linejoin="round"></path><path transform="matrix(1,0,0,1,0,0)" fill="none" stroke="#505050" d="M14,252.5L481,252.5" stroke-width="2" stroke-linecap="round" stroke-linejoin="round"></path><path transform="matrix(1,0,0,1,0,0)" fill="none" stroke="#505050" d="M14,138.25L481,138.25" stroke-width="2" stroke-linecap="round" stroke-linejoin="round"></path><path transform="matrix(1,0,0,1,0,0)" fill="none" stroke="#505050" d="M14,24L481,24" stroke-width="2" stroke-linecap="round" stroke-linejoin="round"></path><path transform="matrix(1,0,0,1,0,0)" fill="none" stroke="#505050" d="M41.85,19L41.85,486" stroke-width="1" stroke-linecap="round" stroke-linejoin="round"></path><path transform="matrix(1,0,0,1,0,0)" fill="none" stroke="#505050" d="M64.7,19L64.7,486" stroke-width="1" stroke-linecap="round" stroke-linejoin="round"></path><path transform="matrix(1,0,0,1,0,0)" fill="none" stroke="#505050" d="M87.55000000000001,19L87.55000000000001,486" stroke-width="1" stroke-linecap="round" stroke-linejoin="round"></path><path transform="matrix(1,0,0,1,0,0)" fill="none" stroke="#505050" d="M110.4,19L110.4,486" stroke-width="1" stroke-linecap="round" stroke-linejoin="round"></path><path transform="matrix(1,0,0,1,0,0)" fill="none" stroke="#505050" d="M156.1,19L156.1,486" stroke-width="1" stroke-linecap="round" stroke-linejoin="round"></path><path transform="matrix(1,0,0,1,0,0)" fill="none" stroke="#505050" d="M178.95,19L178.95,486" stroke-width="1" stroke-linecap="round" stroke-linejoin="round"></path><path transform="matrix(1,0,0,1,0,0)" fill="none" stroke="#505050" d="M201.8,19L201.8,486" stroke-width="1" stroke-linecap="round" stroke-linejoin="round"></path><path transform="matrix(1,0,0,1,0,0)" fill="none" stroke="#505050" d="M224.65,19L224.65,486" stroke-width="1" stroke-linecap="round" stroke-linejoin="round"></path><path transform="matrix(1,0,0,1,0,0)" fill="none" stroke="#505050" d="M270.35,19L270.35,486" stroke-width="1" stroke-linecap="round" stroke-linejoin="round"></path><path transform="matrix(1,0,0,1,0,0)" fill="none" stroke="#505050" d="M293.2,19L293.2,486" stroke-width="1" stroke-linecap="round" stroke-linejoin="round"></path><path transform="matrix(1,0,0,1,0,0)" fill="none" stroke="#505050" d="M316.05,19L316.05,486" stroke-width="1" stroke-linecap="round" stroke-linejoin="round"></path><path transform="matrix(1,0,0,1,0,0)" fill="none" stroke="#505050" d="M338.9,19L338.9,486" stroke-width="1" stroke-linecap="round" stroke-linejoin="round"></path><path transform="matrix(1,0,0,1,0,0)" fill="none" stroke="#505050" d="M384.6,19L384.6,486" stroke-width="1" stroke-linecap="round" stroke-linejoin="round"></path><path transform="matrix(1,0,0,1,0,0)" fill="none" stroke="#505050" d="M407.45,19L407.45,486" stroke-width="1" stroke-linecap="round" stroke-linejoin="round"></path><path transform="matrix(1,0,0,1,0,0)" fill="none" stroke="#505050" d="M430.3,19L430.3,486" stroke-width="1" stroke-linecap="round" stroke-linejoin="round"></path><path transform="matrix(1,0,0,1,0,0)" fill="none" stroke="#505050" d="M453.15,19L453.15,486" stroke-width="1" stroke-linecap="round" stroke-linejoin="round"></path><path transform="matrix(1,0,0,1,0,0)" fill="none" stroke="#505050" d="M14,458.15L481,458.15" stroke-width="1" stroke-linecap="round" stroke-linejoin="round"></path><path transform="matrix(1,0,0,1,0,0)" fill="none" stroke="#505050" d="M14,435.3L481,435.3" stroke-width="1" stroke-linecap="round" stroke-linejoin="round"></path><path transform="matrix(1,0,0,1,0,0)" fill="none" stroke="#505050" d="M14,412.45L481,412.45" stroke-width="1" stroke-linecap="round" stroke-linejoin="round"></path><path transform="matrix(1,0,0,1,0,0)" fill="none" stroke="#505050" d="M14,389.6L481,389.6" stroke-width="1" stroke-linecap="round" stroke-linejoin="round"></path><path transform="matrix(1,0,0,1,0,0)" fill="none" stroke="#505050" d="M14,343.9L481,343.9" stroke-width="1" stroke-linecap="round" stroke-linejoin="round"></path><path transform="matrix(1,0,0,1,0,0)" fill="none" stroke="#505050" d="M14,321.05L481,321.05" stroke-width="1" stroke-linecap="round" stroke-linejoin="round"></path><path transform="matrix(1,0,0,1,0,0)" fill="none" stroke="#505050" d="M14,298.2L481,298.2" stroke-width="1" stroke-linecap="round" stroke-linejoin="round"></path><path transform="matrix(1,0,0,1,0,0)" fill="none" stroke="#505050" d="M14,275.35L481,275.35" stroke-width="1" stroke-linecap="round" stroke-linejoin="round"></path><path transform="matrix(1,0,0,1,0,0)" fill="none" stroke="#505050" d="M14,229.65L481,229.65" stroke-width="1" stroke-linecap="round" stroke-linejoin="round"></path><path transform="matrix(1,0,0,1,0,0)" fill="none" stroke="#505050" d="M14,206.8L481,206.8" stroke-width="1" stroke-linecap="round" stroke-linejoin="round"></path><path transform="matrix(1,0,0,1,0,0)" fill="none" stroke="#505050" d="M14,183.95L481,183.95" stroke-width="1" stroke-linecap="round" stroke-linejoin="round"></path><path transform="matrix(1,0,0,1,0,0)" fill="none" stroke="#505050" d="M14,161.1L481,161.1" stroke-width="1" stroke-linecap="round" stroke-linejoin="round"></path><path transform="matrix(1,0,0,1,0,0)" fill="none" stroke="#505050" d="M14,115.4L481,115.4" stroke-width="1" stroke-linecap="round" stroke-linejoin="round"></path><path transform="matrix(1,0,0,1,0,0)" fill="none" stroke="#505050" d="M14,92.55L481,92.55" stroke-width="1" stroke-linecap="round" stroke-linejoin="round"></path><path transform="matrix(1,0,0,1,0,0)" fill="none" stroke="#505050" d="M14,69.69999999999999L481,69.69999999999999" stroke-width="1" stroke-linecap="round" stroke-linejoin="round"></path><path transform="matrix(1,0,0,1,0,0)" fill="none" stroke="#505050" d="M14,46.849999999999994L481,46.849999999999994" stroke-width="1" stroke-linecap="round" stroke-linejoin="round"></path><path transform="matrix(1,0,0,1,0,0)" fill="none" stroke="#000000" d="M41.85,478.5L41.85,483.5" stroke-width="2" stroke-linecap="round" stroke-linejoin="round"></path><path transform="matrix(1,0,0,1,0,0)" fill="none" stroke="#000000" d="M64.7,478.5L64.7,483.5" stroke-width="2" stroke-linecap="round" stroke-linejoin="round"></path><path transform="matrix(1,0,0,1,0,0)" fill="none" stroke="#000000" d="M87.55000000000001,478.5L87.55000000000001,483.5" stroke-width="2" stroke-linecap="round" stroke-linejoin="round"></path><path transform="matrix(1,0,0,1,0,0)" fill="none" stroke="#000000" d="M110.4,478.5L110.4,483.5" stroke-width="2" stroke-linecap="round" stroke-linejoin="round"></path><path transform="matrix(1,0,0,1,0,0)" fill="none" stroke="#000000" d="M133.25,476L133.25,486" stroke-width="3" stroke-linecap="round" stroke-linejoin="round"></path><path transform="matrix(1,0,0,1,0,0)" fill="none" stroke="#000000" d="M156.1,478.5L156.1,483.5" stroke-width="2" stroke-linecap="round" stroke-linejoin="round"></path><path transform="matrix(1,0,0,1,0,0)" fill="none" stroke="#000000" d="M178.95,478.5L178.95,483.5" stroke-width="2" stroke-linecap="round" stroke-linejoin="round"></path><path transform="matrix(1,0,0,1,0,0)" fill="none" stroke="#000000" d="M201.8,478.5L201.8,483.5" stroke-width="2" stroke-linecap="round" stroke-linejoin="round"></path><path transform="matrix(1,0,0,1,0,0)" fill="none" stroke="#000000" d="M224.65,478.5L224.65,483.5" stroke-width="2" stroke-linecap="round" stroke-linejoin="round"></path><path transform="matrix(1,0,0,1,0,0)" fill="none" stroke="#000000" d="M247.5,476L247.5,486" stroke-width="3" stroke-linecap="round" stroke-linejoin="round"></path><path transform="matrix(1,0,0,1,0,0)" fill="none" stroke="#000000" d="M270.35,478.5L270.35,483.5" stroke-width="2" stroke-linecap="round" stroke-linejoin="round"></path><path transform="matrix(1,0,0,1,0,0)" fill="none" stroke="#000000" d="M293.2,478.5L293.2,483.5" stroke-width="2" stroke-linecap="round" stroke-linejoin="round"></path><path transform="matrix(1,0,0,1,0,0)" fill="none" stroke="#000000" d="M316.05,478.5L316.05,483.5" stroke-width="2" stroke-linecap="round" stroke-linejoin="round"></path><path transform="matrix(1,0,0,1,0,0)" fill="none" stroke="#000000" d="M338.9,478.5L338.9,483.5" stroke-width="2" stroke-linecap="round" stroke-linejoin="round"></path><path transform="matrix(1,0,0,1,0,0)" fill="none" stroke="#000000" d="M361.75,476L361.75,486" stroke-width="3" stroke-linecap="round" stroke-linejoin="round"></path><path transform="matrix(1,0,0,1,0,0)" fill="none" stroke="#000000" d="M384.6,478.5L384.6,483.5" stroke-width="2" stroke-linecap="round" stroke-linejoin="round"></path><path transform="matrix(1,0,0,1,0,0)" fill="none" stroke="#000000" d="M407.45,478.5L407.45,483.5" stroke-width="2" stroke-linecap="round" stroke-linejoin="round"></path><path transform="matrix(1,0,0,1,0,0)" fill="none" stroke="#000000" d="M430.3,478.5L430.3,483.5" stroke-width="2" stroke-linecap="round" stroke-linejoin="round"></path><path transform="matrix(1,0,0,1,0,0)" fill="none" stroke="#000000" d="M453.15,478.5L453.15,483.5" stroke-width="2" stroke-linecap="round" stroke-linejoin="round"></path><path transform="matrix(1,0,0,1,0,0)" fill="none" stroke="#000000" d="M476,476L476,486" stroke-width="3" stroke-linecap="round" stroke-linejoin="round"></path><path transform="matrix(1,0,0,1,0,0)" fill="none" stroke="#000000" d="M16.5,458.15L21.5,458.15" stroke-width="2" stroke-linecap="round" stroke-linejoin="round"></path><path transform="matrix(1,0,0,1,0,0)" fill="none" stroke="#000000" d="M16.5,435.3L21.5,435.3" stroke-width="2" stroke-linecap="round" stroke-linejoin="round"></path><path transform="matrix(1,0,0,1,0,0)" fill="none" stroke="#000000" d="M16.5,412.45L21.5,412.45" stroke-width="2" stroke-linecap="round" stroke-linejoin="round"></path><path transform="matrix(1,0,0,1,0,0)" fill="none" stroke="#000000" d="M16.5,389.6L21.5,389.6" stroke-width="2" stroke-linecap="round" stroke-linejoin="round"></path><path transform="matrix(1,0,0,1,0,0)" fill="none" stroke="#000000" d="M14,366.75L24,366.75" stroke-width="3" stroke-linecap="round" stroke-linejoin="round"></path><path transform="matrix(1,0,0,1,0,0)" fill="none" stroke="#000000" d="M16.5,343.9L21.5,343.9" stroke-width="2" stroke-linecap="round" stroke-linejoin="round"></path><path transform="matrix(1,0,0,1,0,0)" fill="none" stroke="#000000" d="M16.5,321.05L21.5,321.05" stroke-width="2" stroke-linecap="round" stroke-linejoin="round"></path><path transform="matrix(1,0,0,1,0,0)" fill="none" stroke="#000000" d="M16.5,298.2L21.5,298.2" stroke-width="2" stroke-linecap="round" stroke-linejoin="round"></path><path transform="matrix(1,0,0,1,0,0)" fill="none" stroke="#000000" d="M16.5,275.35L21.5,275.35" stroke-width="2" stroke-linecap="round" stroke-linejoin="round"></path><path transform="matrix(1,0,0,1,0,0)" fill="none" stroke="#000000" d="M14,252.5L24,252.5" stroke-width="3" stroke-linecap="round" stroke-linejoin="round"></path><path transform="matrix(1,0,0,1,0,0)" fill="none" stroke="#000000" d="M16.5,229.65L21.5,229.65" stroke-width="2" stroke-linecap="round" stroke-linejoin="round"></path><path transform="matrix(1,0,0,1,0,0)" fill="none" stroke="#000000" d="M16.5,206.8L21.5,206.8" stroke-width="2" stroke-linecap="round" stroke-linejoin="round"></path><path transform="matrix(1,0,0,1,0,0)" fill="none" stroke="#000000" d="M16.5,183.95L21.5,183.95" stroke-width="2" stroke-linecap="round" stroke-linejoin="round"></path><path transform="matrix(1,0,0,1,0,0)" fill="none" stroke="#000000" d="M16.5,161.1L21.5,161.1" stroke-width="2" stroke-linecap="round" stroke-linejoin="round"></path><path transform="matrix(1,0,0,1,0,0)" fill="none" stroke="#000000" d="M14,138.25L24,138.25" stroke-width="3" stroke-linecap="round" stroke-linejoin="round"></path><path transform="matrix(1,0,0,1,0,0)" fill="none" stroke="#000000" d="M16.5,115.4L21.5,115.4" stroke-width="2" stroke-linecap="round" stroke-linejoin="round"></path><path transform="matrix(1,0,0,1,0,0)" fill="none" stroke="#000000" d="M16.5,92.55L21.5,92.55" stroke-width="2" stroke-linecap="round" stroke-linejoin="round"></path><path transform="matrix(1,0,0,1,0,0)" fill="none" stroke="#000000" d="M16.5,69.69999999999999L21.5,69.69999999999999" stroke-width="2" stroke-linecap="round" stroke-linejoin="round"></path><path transform="matrix(1,0,0,1,0,0)" fill="none" stroke="#000000" d="M16.5,46.849999999999994L21.5,46.849999999999994" stroke-width="2" stroke-linecap="round" stroke-linejoin="round"></path><path transform="matrix(1,0,0,1,0,0)" fill="none" stroke="#000000" d="M14,24L24,24" stroke-width="3" stroke-linecap="round" stroke-linejoin="round"></path><path transform="matrix(1,0,0,1,0,0)" fill="none" stroke="#000000" d="M14,481L481,481" stroke-width="3" stroke-linecap="round" stroke-linejoin="round"></path><path transform="matrix(1,0,0,1,0,0)" fill="none" stroke="#000000" d="M19,486L19,19" stroke-width="3" stroke-linecap="round" stroke-linejoin="round"></path><path transform="matrix(1,0,0,1,0,0)" fill="#000000" stroke="#000000" d="M481,481L482.25,481L482.25,483.5L486,481L482.25,478.5L482.25,481Z" stroke-width="3" stroke-linecap="round" stroke-linejoin="round"></path><path transform="matrix(1,0,0,1,0,0)" fill="#000000" stroke="#000000" d="M19,19L19,17.75L21.5,17.75L19,14L16.5,17.75L19,17.75Z" stroke-width="3" stroke-linecap="round" stroke-linejoin="round"></path><path transform="matrix(1,0,0,1,0,0)" fill="none" stroke="#ff0000" d="M20,478.2441645606787L21,475.52156600962275L22,472.83180349171363L23,470.17448098636555L24,467.54920724921857L25,464.95559575453433L26,462.3932646382873L27,459.8618366419414L28,457.360939056906L29,454.8902036696602L30,452.44926670754074L31,450.03776878518215L32,447.65535485160376L33,445.3016741379348L34,442.9763801057694L35,440.6791303961453L36,438.4095867791372L37,436.1674151040583L38,433.9522852502628L39,431.76387107854066L40,429.6018503831001L41,427.46590484412803L42,425.35571998092297L43,423.27098510559335L44,421.21139327731413L45,419.1766412571352L46,417.1664294633345L47,415.18046192731026L48,413.2184462500042L49,411.28009355885143L50,409.36511846524866L51,407.47323902253595L51.99999999999999,405.6041766844847L53,403.7576562642868L54,401.9334058940383L55,400.1311569847111L56,398.35064418660835L57,396.5916053502964L58,394.85378148800737L59,393.13691673550824L59.99999999999999,391.4407583144291L61,389.7650564950458L62,388.109564559512L62.99999999999999,386.4740387655338L64,384.8582383104832L65,383.2619252959442L66,381.68486469268623L67,380.1268243060603L68,378.5875747418123L69,377.06688937230876L70,375.56454430316995L71,374.0803183403052L72,372.613992957346L73,371.1653522634719L74,369.73418297162414L75,368.320274367103L76,366.9234182765438L77,365.5434090372669L78,364.18004346699735L79,362.83312083395015L80,361.5024428272757L81,360.18781352786215L82,358.8890393794897L83,357.60592916033283L84,356.3382939548062L84.99999999999999,355.0859471257501L86,353.8487042869515L87,352.6263832759963L88,351.418804127449L89,350.2257890463562L90,349.04716238206925L91,347.8827506023825L92,346.73238226798435L93,345.595888007215L94,344.47310049113025L95,343.3638544088646L95.99999999999999,342.2679864432923L97,341.1853352469818L98,340.1157414184404L99,339.0590474786446L100,338.01509784785446L100.99999999999999,336.9837388227072L102,335.96481855358695L103,334.9581870222675L104,333.96369601982485L105,332.981199124816L105.99999999999999,332.01055168172087L106.99999999999999,331.0516107796444L108,330.1042352312754L109,329.1682855520992L110,328.24362393986075L111,327.33011425427617L111.99999999999999,326.42762199698774L113,325.53601429176217L114,324.6551598649262L115,323.7849290260393L116,322.92519364879877L116.99999999999999,322.0758271521755L118,321.236704481777L119,320.4077020914355L120,319.5886979250178L121,318.77957139845466L121.99999999999999,317.9802033819869L123,317.1904761826256L124,316.4102735268241L125,315.63948054335833L126,314.8779837464142L127,314.1256710188791L127.99999999999999,313.3824315958341L129,312.64815604824616L130,311.9227362668563L131,311.20606544626264L132,310.49803806919516L133,309.79854989097987L134,309.1074979241909L135,308.4247804234873L136,307.7502968706325L137,307.0839479596955L138,306.425635582429L139,305.7752628138252L140,305.13273389784484L141,304.4979542333195L142,303.8708303600224L143,303.2512699449086L144,302.6391817685202L145,302.0344757115563L146,301.43706274160394L147,300.8468549000302L148,300.2637652890314L149,299.6877080588391L150,299.1185983950803L150.99999999999997,298.5563525062897L152,298.00088761157326L153,297.4521219284199L154,296.9099746606605L155,296.374365986572L156,295.84521704712546L157,295.32244993437473L158,294.8059876799865L159,294.2957542439077L160,293.7916745031702L161,293.29367424082994L162,292.80168013504L163,292.31561974825513L164,291.83542151656684L165,291.3610147391664L166,290.8923295679359L167,290.42929699716376L167.99999999999997,289.9718488533856L169,289.5199177853459L170,289.0734372540829L171,288.6323415231306L172,288.19656564884133L172.99999999999997,287.7660454708232L174,287.34071760249407L175,286.9205194217486L176,286.5053890617386L177,286.09526540176375L177.99999999999997,285.6900880582732L179,285.2897973759748L180,284.8943344190519L181,284.5036409624863L182,284.1176594834853L182.99999999999997,283.73633315301277L184,283.35960582742183L185,282.987422040189L186,282.61972699374746L187,282.256466551419L187.99999999999997,281.8975872294436L189,281.5430361891047L190,281.19276122894973L191,280.84671077710414L192,280.50483388367854L192.99999999999997,280.1670802132674L194,279.83340003753756L194.99999999999997,279.50374422790696L196,279.1780642483112L197,278.85631214805744L198,278.5384405547645L199,278.2244026673883L199.99999999999997,277.9141522493307L201,277.60764362163263L202,277.30483165624815L203,277.00567176940046L204,276.71011991501763L204.99999999999997,276.4181325782473L206,276.1296667690503L207,275.84468001587084L208,275.56313035938354L209,275.2849763463154L209.99999999999997,275.01017702334264L211,274.7386919310611L212,274.47048109802927L213,274.20550503488323L214,273.94372472852217L214.99999999999997,273.685101636365L216,273.4295976806752L217,273.1771752429547L218,272.92779715840504L219,272.68142671045587L219.99999999999997,272.4380276253585L221,272.19756406684587L222,271.9600006308559L223,271.72530234031876L224,271.4934346400076L224.99999999999997,271.26436339145016L226,271.0380548679033L227,270.8144757493867L228,270.59359311777723L229,270.37537445196267L229.99999999999997,270.15978762305303L231,269.94680088965043L231.99999999999997,269.7363828931757L233,269.5285026532513L234,269.32312956314007L235,269.120233385239L236,268.91978424662705L236.99999999999997,268.72175263466704L238,268.5261093926604L239,268.33282571555435L240,268.14187314570086L241,267.9532235686668L241.99999999999997,267.7668492090944L243,267.58272262661217L244,267.40081671179433L245,267.2211046821699L246,267.0435600782789L246.99999999999997,266.8681567597773L248,266.6948689015877L248.99999999999997,266.5236709900975L250,266.35453781940214L251,266.1874444875941L251.99999999999997,266.0223663930968L252.99999999999997,265.8592792310417L254,265.6981589896907L255,265.53898194690044L255.99999999999997,265.38172466662934L257,265.22636399548765L258,265.0728770593281L259,264.9212412598781L260,264.7714342714127L261,264.62343403746763L262,264.47721876759135L263,264.33276693413734L264,264.1900572690944L265,264.0490687609549L266,263.9097806516219L267,263.7721724333522L268,263.63622384573745L269,263.5019148727208L270,263.3692257396502L271,263.23813691036656L272,263.10862908432773L273,262.9806831937667L274,262.854280400884L275,262.72940209507476L276,262.60602989018776L277,262.48414562181915L278,262.3637313446378L279,262.2447693297428L279.99999999999994,262.1272420620539L281,262.0111322377321L282,261.89642276163227L282.99999999999994,261.7830967447861L284,261.6711375019155L285,261.56052854897604L286,261.45125360072984L287,261.343296568348L288,261.2366415570418L289,261.13127286372213L289.99999999999994,261.027174974688L291,260.9243325633421L292,260.8227304879343L293,260.72235378933226L294,260.623187688819L295,260.52521758591695L296,260.4284290562385L297,260.33280784936176L298,260.23833988673306L299,260.14501125959356L299.99999999999994,260.0528082269319L301,259.96171721346064L302,259.87172480761797L303,259.7828177595928L304,259.69498297937395L305,259.6082075348231L306,259.5224786497705L307,259.4377837021341L308,259.3541102220611L309,259.27144589009185L309.99999999999994,259.18977853534625L311,259.1090961337318L312,259.02938680617285L313,258.9506388168621L314,258.8728405715327L315,258.7959806157508L316,258.7200476332293L316.99999999999994,258.6450304441618L318,258.5709180035766L319,258.4976993997102L319.99999999999994,258.4253638524011L321,258.35390071150255L322,258.28329945531425L323,258.21354968903347L324,258.1446411432245L325,258.0765636723065L326,258.00930725306023L326.99999999999994,257.9428619831517L328,257.87721807967466L329,257.81236587771L330,257.7482958289029L331,257.68499850005674L332,257.6224645717448L333,257.5606848369374L334,257.499650199647L335,257.43935167358836L336,257.379780380856L336.99999999999994,257.3209275506168L338,257.26278451781855L339,257.2053427219146L340,257.148593705603L341,257.09252911358146L342,257.0371406913175L343,256.98242028383254L343.99999999999994,256.92835983450163L345,256.8749513838671L346,256.82218706846675L346.99999999999994,256.77005911967615L348,256.7185598625646L349,256.6676817147652L350,256.6174171853588L351,256.5677588737707L352,256.51869946868123L353,256.47023174694914L353.99999999999994,256.42234857254846L355,256.37504289551737L356,256.32830775092066L356.99999999999994,256.2821362578238L358,256.2365216182805L359,256.19145711633104L360,256.1469361170141L361,256.10295206538956L362,256.0594984855735L363,256.01656897978467L363.99999999999994,255.97415722740254L365,255.93225698403688L366,255.89086208060814L366.99999999999994,255.84996642243928L368,255.80956398835832L369,255.76964882981207L370,255.73021506999004L370.99999999999994,255.6912569029594L372,255.65276859280993L373,255.61474447280972L373.99999999999994,255.5771789445708L375,255.54006647722468L376,255.50340160660835L377,255.46717893445955L378,255.43139312762196L379,255.39603891726009L380,255.36111109808357L380.99999999999994,255.32660452758057L382,255.29251412526088L383,255.25883487190768L383.99999999999994,255.22556180883882L385,255.19269003717642L386,255.16021471712583L387,255.12813106726298L388,255.0964343638304L389,255.06511994004174L390,255.03418318539457L390.99999999999994,255.00361954499175L392,254.97342451887067L393,254.94359366134074L393.99999999999994,254.91412258032884L395,254.88500693673262L396,254.85624244378172L397,254.82782486640664L398,254.79975002061508L399,254.77201377287594L400,254.74461203951088L400.99999999999994,254.71754078609285L402,254.69079602685238L403,254.66437382409035L403.99999999999994,254.6382702875986L405,254.61248157408693L406,254.58700388661742L407,254.56183347404524L407.99999999999994,254.53696663046645L409,254.51239969467235L410,254.4881290496104L410.99999999999994,254.4641511218517L412,254.44046238106492L413,254.4170593394964L414,254.3939385514567L415,254.37109661281337L416,254.3485301604896L417,254.32623587196912L417.99999999999994,254.30421046480706L419,254.2824506961466L420,254.26095336224165L420.99999999999994,254.23971529798493L422,254.2187333764422L423,254.19800450839168L424,254.17752564186935L425,254.15729376171953L426,254.13730588915098L427,254.11755908129834L427.99999999999994,254.09805043078873L429,254.07877706531394L430,254.05973614720725L430.99999999999994,254.0409248730258L432,254.02234047313775L433,254.00398021131463L434,253.9858413843283L435,253.96792132155306L436,253.95021738457245L437,253.9327269667907L437.99999999999994,253.91544749304913L439,253.89837641924674L440,253.8815112319659L440.99999999999994,253.86484944810215L442,253.84838861449856L443,253.8321263075847L444,253.81606013301976L444.99999999999994,253.80018772533987L446,253.78450674761007L447,253.76901489108002L447.99999999999994,253.75370987484428L449,253.73858944550634L450,253.72365137684682L451,253.7088934694959L452,253.69431355060925L453,253.6799094735483L454,253.66567911756405L454.99999999999994,253.65162038748502L456,253.63773121340853L457,253.62400955039612L457.99999999999994,253.61045337817245L459,253.59706070082765L460,253.58382954652382L461,253.57075796720437L462,253.5578440383074L463,253.54508585848225L464,253.53248154930967L464.99999999999994,253.52002925502507L466,253.50772714224544L467,253.49557339969942L467.99999999999994,253.4835662379605L469,253.47170388918374L470,253.4599846068453L471,253.44840666548535L471.99999999999994,253.43696836045413L473,253.42566800766085L474,253.41450394332583L474.99999999999994,253.40347452373538L476,253.392578125" stroke-width="2" stroke-linecap="round" stroke-linejoin="round" stroke-dasharray="6,8"></path><path transform="matrix(1,0,0,1,0,0)" fill="none" stroke="#ff0000" d="M133.25,299.625L133.25,319.625" stroke-width="3" stroke-linecap="round" stroke-linejoin="round" stroke-dasharray=""></path><path transform="matrix(1,0,0,1,0,0)" fill="none" stroke="#ff0000" d="M123.25,309.625L143.25,309.625" stroke-width="3" stroke-linecap="round" stroke-linejoin="round" stroke-dasharray=""></path><path transform="matrix(1,0,0,1,0,0)" fill="none" stroke="#ff0000" d="M247.5,257.35249999999996L247.5,277.35249999999996" stroke-width="3" stroke-linecap="round" stroke-linejoin="round" stroke-dasharray=""></path><path transform="matrix(1,0,0,1,0,0)" fill="none" stroke="#ff0000" d="M237.5,267.35249999999996L257.5,267.35249999999996" stroke-width="3" stroke-linecap="round" stroke-linejoin="round" stroke-dasharray=""></path><path transform="matrix(1,0,0,1,0,0)" fill="none" stroke="#ff0000" d="M361.75,245.9275L361.75,265.9275" stroke-width="3" stroke-linecap="round" stroke-linejoin="round" stroke-dasharray=""></path><path transform="matrix(1,0,0,1,0,0)" fill="none" stroke="#ff0000" d="M351.75,255.9275L371.75,255.9275" stroke-width="3" stroke-linecap="round" stroke-linejoin="round" stroke-dasharray=""></path><text transform="matrix(1,0,0,1,0,0)" style="text-anchor: middle; font: normal normal bold 12px/normal ;" x="133.25" y="495" text-anchor="middle" font-family="&quot;Arial&quot;" font-size="12px" stroke="white" fill="white" stroke-width="5" font-weight="bold"><tspan dy="4.361538461538462">1</tspan></text><text transform="matrix(1,0,0,1,0,0)" style="text-anchor: middle; font: normal normal normal 12px/normal ;" x="133.25" y="495" text-anchor="middle" font-family="&quot;Arial&quot;" font-size="12px" stroke="none" fill="#000000"><tspan dy="4.361538461538462">1</tspan></text><text transform="matrix(1,0,0,1,0,0)" style="text-anchor: middle; font: normal normal bold 12px/normal ;" x="247.5" y="495" text-anchor="middle" font-family="&quot;Arial&quot;" font-size="12px" stroke="white" fill="white" stroke-width="5" font-weight="bold"><tspan dy="4.361538461538462">2</tspan></text><text transform="matrix(1,0,0,1,0,0)" style="text-anchor: middle; font: normal normal normal 12px/normal ;" x="247.5" y="495" text-anchor="middle" font-family="&quot;Arial&quot;" font-size="12px" stroke="none" fill="#000000"><tspan dy="4.361538461538462">2</tspan></text><text transform="matrix(1,0,0,1,0,0)" style="text-anchor: middle; font: normal normal bold 12px/normal ;" x="361.75" y="495" text-anchor="middle" font-family="&quot;Arial&quot;" font-size="12px" stroke="white" fill="white" stroke-width="5" font-weight="bold"><tspan dy="4.361538461538462">3</tspan></text><text transform="matrix(1,0,0,1,0,0)" style="text-anchor: middle; font: normal normal normal 12px/normal ;" x="361.75" y="495" text-anchor="middle" font-family="&quot;Arial&quot;" font-size="12px" stroke="none" fill="#000000"><tspan dy="4.361538461538462">3</tspan></text><text transform="matrix(1,0,0,1,0,0)" style="text-anchor: middle; font: normal normal bold 12px/normal ;" x="476" y="495" text-anchor="middle" font-family="&quot;Arial&quot;" font-size="12px" stroke="white" fill="white" stroke-width="5" font-weight="bold"><tspan dy="4.361538461538462">4</tspan></text><text transform="matrix(1,0,0,1,0,0)" style="text-anchor: middle; font: normal normal normal 12px/normal ;" x="476" y="495" text-anchor="middle" font-family="&quot;Arial&quot;" font-size="12px" stroke="none" fill="#000000"><tspan dy="4.361538461538462">4</tspan></text><path transform="matrix(1,0,0,1,0,0)" fill="none" stroke="#000" d="M14,366.75L24,366.75"></path><text transform="matrix(1,0,0,1,0,0)" style="text-anchor: middle; font: normal normal bold 12px/normal ;" x="7" y="366.75" text-anchor="middle" font-family="&quot;Arial&quot;" font-size="12px" stroke="white" fill="white" stroke-width="5" font-weight="bold"><tspan dy="4.361538461538462">1</tspan></text><text transform="matrix(1,0,0,1,0,0)" style="text-anchor: middle; font: normal normal normal 12px/normal ;" x="7" y="366.75" text-anchor="middle" font-family="&quot;Arial&quot;" font-size="12px" stroke="none" fill="#000000"><tspan dy="4.361538461538462">1</tspan></text><path transform="matrix(1,0,0,1,0,0)" fill="none" stroke="#000" d="M14,252.5L24,252.5"></path><text transform="matrix(1,0,0,1,0,0)" style="text-anchor: middle; font: normal normal bold 12px/normal ;" x="7" y="252.5" text-anchor="middle" font-family="&quot;Arial&quot;" font-size="12px" stroke="white" fill="white" stroke-width="5" font-weight="bold"><tspan dy="4.361538461538462">2</tspan></text><text transform="matrix(1,0,0,1,0,0)" style="text-anchor: middle; font: normal normal normal 12px/normal ;" x="7" y="252.5" text-anchor="middle" font-family="&quot;Arial&quot;" font-size="12px" stroke="none" fill="#000000"><tspan dy="4.361538461538462">2</tspan></text><path transform="matrix(1,0,0,1,0,0)" fill="none" stroke="#000" d="M14,138.25L24,138.25"></path><text transform="matrix(1,0,0,1,0,0)" style="text-anchor: middle; font: normal normal bold 12px/normal ;" x="7" y="138.25" text-anchor="middle" font-family="&quot;Arial&quot;" font-size="12px" stroke="white" fill="white" stroke-width="5" font-weight="bold"><tspan dy="4.361538461538462">3</tspan></text><text transform="matrix(1,0,0,1,0,0)" style="text-anchor: middle; font: normal normal normal 12px/normal ;" x="7" y="138.25" text-anchor="middle" font-family="&quot;Arial&quot;" font-size="12px" stroke="none" fill="#000000"><tspan dy="4.361538461538462">3</tspan></text><path transform="matrix(1,0,0,1,0,0)" fill="none" stroke="#000" d="M14,24L24,24"></path><text transform="matrix(1,0,0,1,0,0)" style="text-anchor: middle; font: normal normal bold 12px/normal ;" x="7" y="24" text-anchor="middle" font-family="&quot;Arial&quot;" font-size="12px" stroke="white" fill="white" stroke-width="5" font-weight="bold"><tspan dy="4.361538461538462">4</tspan></text><text transform="matrix(1,0,0,1,0,0)" style="text-anchor: middle; font: normal normal normal 12px/normal ;" x="7" y="24" text-anchor="middle" font-family="&quot;Arial&quot;" font-size="12px" stroke="none" fill="#000000"><tspan dy="4.361538461538462">4</tspan></text></svg>