<svg xmlns="http://www.w3.org/2000/svg" width="25.76mm" height="13.73mm" viewBox="0 0 73.03 38.91">
  <title>Pourcentages</title>
  <rect x="1.16" y="9.59" width="56.69" height="28.35" fill="#e1e43c"/>
  <rect x="57.85" y="9.59" width="14.17" height="28.35" fill="#d34f1d"/>
  <g>
    <path d="M16.5,20.12h0L14.89,21,14.65,20l2-1.07h1.05v9.11H16.5Z" fill="#642d10"/>
    <path d="M27.05,23.43c0,3.09-1.14,4.8-3.16,4.8-1.78,0-3-1.66-3-4.68s1.31-4.73,3.16-4.73S27.05,20.53,27.05,23.43Zm-4.94.14c0,2.37.73,3.71,1.85,3.71s1.86-1.47,1.86-3.8-.57-3.71-1.85-3.71C22.89,19.77,22.11,21.09,22.11,23.57Z" fill="#642d10"/>
    <path d="M34.24,23.43c0,3.09-1.15,4.8-3.17,4.8-1.78,0-3-1.66-3-4.68s1.32-4.73,3.17-4.73S34.24,20.53,34.24,23.43Zm-5,.14c0,2.37.73,3.71,1.85,3.71S33,25.81,33,23.48s-.57-3.71-1.84-3.71C30.08,19.77,29.29,21.09,29.29,23.57Z" fill="#642d10"/>
    <path d="M39.47,21.54c0,1.92-1,2.87-2.18,2.87s-2.12-.91-2.13-2.75,1-2.84,2.2-2.84S39.47,19.8,39.47,21.54Zm-3.33.08c0,1.16.4,2.05,1.17,2.05s1.18-.87,1.18-2.08-.32-2-1.18-2S36.14,20.47,36.14,21.62Zm1.06,6.61,5.35-9.41h.79L38,28.23Zm8.2-2.93c0,1.92-1,2.88-2.17,2.88s-2.12-.91-2.13-2.74,1-2.85,2.2-2.85S45.4,23.57,45.4,25.3Zm-3.34.09c0,1.16.44,2,1.19,2s1.18-.86,1.18-2.07-.32-2-1.18-2S42.06,24.24,42.06,25.39Z" fill="#642d10"/>
  </g>
  <g>
    <path d="M66.31,14.12H63.73v2.49h-.66V14.12H60.46v-.7h2.61V10.93h.66v2.49h2.58Z" fill="#e1e43c"/>
    <path d="M60.46,17.54h.6l.73.76C63.53,20.13,64.45,21,65.53,21a1.28,1.28,0,0,0,1.4-1.42A2.41,2.41,0,0,0,66.32,18l.69-.3a3.17,3.17,0,0,1,.72,2,2,2,0,0,1-2.08,2.19c-1.32,0-2.38-1-3.84-2.46l-.52-.58h0v3.22h-.8Z" fill="#e1e43c"/>
    <path d="M66.8,27.45V24.72L65,24.45A4.14,4.14,0,0,1,65,25a3.06,3.06,0,0,1-.38,1.54,2,2,0,0,1-1.84,1,2.48,2.48,0,0,1-2.44-2.66,3.49,3.49,0,0,1,.44-1.78l.74.24a3.16,3.16,0,0,0-.4,1.53,1.59,1.59,0,0,0,1.55,1.7c.93,0,1.59-.63,1.59-2.06a7.74,7.74,0,0,0-.08-1l3.43.46v3.42Z" fill="#e1e43c"/>
    <path d="M60.34,30.27l7.39,4.2v.62l-7.39-4.21Zm2.3,6.43c-1.51,0-2.26-.79-2.26-1.7s.72-1.66,2.15-1.67,2.24.78,2.24,1.72S64,36.7,62.64,36.7Zm-.07-2.62c-.91,0-1.6.35-1.6.94s.68.92,1.63.92,1.59-.25,1.59-.92S63.48,34.08,62.57,34.08Zm3-2c-1.51,0-2.26-.79-2.26-1.72s.72-1.66,2.16-1.67,2.23.78,2.23,1.73S67,32.05,65.6,32.05Zm-.07-2.62c-.91,0-1.6.32-1.6.92s.68.93,1.62.93,1.6-.25,1.6-.93S66.43,29.43,65.53,29.43Z" fill="#e1e43c"/>
  </g>
  <g>
    <path d="M26.37,1.81h0l-1.25.67-.18-.73L26.48.91h.83V8.06h-.94Z" fill="#ee2b2f"/>
    <path d="M29.91,8.06V7.47l.76-.74C32.5,5,33.32,4.07,33.33,3a1.28,1.28,0,0,0-1.42-1.4,2.41,2.41,0,0,0-1.51.61l-.31-.68a3.12,3.12,0,0,1,2-.73A2,2,0,0,1,34.3,2.87c0,1.32-1,2.39-2.46,3.84l-.57.53v0h3.21v.8Z" fill="#ee2b2f"/>
    <path d="M39.82,1.73H37.09l-.27,1.83a4.14,4.14,0,0,1,.58,0,3.06,3.06,0,0,1,1.54.38,2.05,2.05,0,0,1,1,1.84A2.48,2.48,0,0,1,37.3,8.18a3.49,3.49,0,0,1-1.78-.44L35.76,7a3.29,3.29,0,0,0,1.53.39A1.58,1.58,0,0,0,39,5.85c0-.92-.63-1.58-2.06-1.58a8,8,0,0,0-1,.07L36.4.91h3.42Z" fill="#ee2b2f"/>
    <path d="M44.42,2.92c0,1.51-.79,2.26-1.71,2.26S41,4.46,41,3,41.81.79,42.76.79,44.42,1.56,44.42,2.92ZM41.8,3c0,.91.32,1.61.93,1.61s.92-.68.92-1.63-.25-1.6-.92-1.6S41.8,2.09,41.8,3Zm.84,5.19L46.84.79h.62L43.25,8.18Zm6.43-2.3c0,1.51-.79,2.26-1.7,2.26S45.71,7.42,45.7,6s.78-2.24,1.72-2.24S49.07,4.52,49.07,5.88ZM46.46,6c0,.91.34,1.61.93,1.61s.93-.69.93-1.63-.26-1.6-.93-1.6S46.46,5.05,46.46,6Z" fill="#ee2b2f"/>
  </g>
  <rect x="1.16" y="9.59" width="70.87" height="28.35" fill="none" stroke="#ee2b2f" stroke-miterlimit="10"/>
</svg>
