<svg xmlns="http://www.w3.org/2000/svg" width="50.3mm" height="23.32mm" viewBox="0 0 142.59 66.09">
  <title>Pourcentages</title>
  <g>
    <rect x="2.06" y="2.53" width="93" height="27.94" rx="2.83" fill="#bccd30" stroke="#8ca632" stroke-miterlimit="10" stroke-width="1.03"/>
    <g>
      <path d="M6.47,5.07h1l3.14,8.52H9.34L7,6.72,4.62,13.59H3.33ZM4.78,10.59H9.26v1.13H4.78Z" fill="#5a3b00"/>
      <path d="M13,11.21a1.41,1.41,0,0,0,.33,1,1.18,1.18,0,0,0,.91.34,1.24,1.24,0,0,0,.91-.31,1.13,1.13,0,0,0,.32-.88l.09,1.27a1.86,1.86,0,0,1-.61.76,1.75,1.75,0,0,1-1,.3A1.92,1.92,0,0,1,12.35,13a2.76,2.76,0,0,1-.54-1.82V7.51H13Zm2.47-3.7h1.19v6.08H15.47Z" fill="#5a3b00"/>
      <path d="M19.27,13.41a1.78,1.78,0,0,1-.72-.85,3.32,3.32,0,0,1-.25-1.33V9.88a3.38,3.38,0,0,1,.24-1.34,1.83,1.83,0,0,1,.7-.84,2,2,0,0,1,1.11-.29,1.81,1.81,0,0,1,1,.28,2.12,2.12,0,0,1,.72.79l-.12,1.24a1.46,1.46,0,0,0-.14-.66,1,1,0,0,0-.41-.42,1.3,1.3,0,0,0-.65-.14,1.16,1.16,0,0,0-.92.37,1.53,1.53,0,0,0-.32,1v1.33a1.5,1.5,0,0,0,.32,1,1.19,1.19,0,0,0,.92.36,1.3,1.3,0,0,0,.65-.15A1,1,0,0,0,21.8,12a1.54,1.54,0,0,0,.14-.67L22,12.64a1.68,1.68,0,0,1-.6.75,1.6,1.6,0,0,1-1,.31A2.14,2.14,0,0,1,19.27,13.41Zm.56,2.66-.54-.26a2,2,0,0,1-.84-.72l.81-.73a1.66,1.66,0,0,0,.56.5,1.38,1.38,0,0,0,.68.18,1.43,1.43,0,0,0,1.06-.38,1.46,1.46,0,0,0,.38-1.07V7.51h1.19v5.9a3.06,3.06,0,0,1-.31,1.44,2.06,2.06,0,0,1-.89.91,3.06,3.06,0,0,1-1.41.31Z" fill="#5a3b00"/>
      <path d="M25,7.51h1.19v6.08H25Zm3.63,2.4a1.42,1.42,0,0,0-.32-1,1.15,1.15,0,0,0-.89-.35,1.26,1.26,0,0,0-.91.31,1.18,1.18,0,0,0-.32.87L26,8.57a2.2,2.2,0,0,1,.74-.85,1.76,1.76,0,0,1,1-.3,2,2,0,0,1,1.09.29,1.89,1.89,0,0,1,.69.85,3.38,3.38,0,0,1,.24,1.34v3.69h-1.2Zm3.63,0a1.42,1.42,0,0,0-.33-1,1.25,1.25,0,0,0-.94-.35,1.08,1.08,0,0,0-.86.34,1.42,1.42,0,0,0-.3,1l-.24-1.17a2.45,2.45,0,0,1,.75-.94,1.81,1.81,0,0,1,1-.33,2.13,2.13,0,0,1,1.13.29,1.93,1.93,0,0,1,.71.85,3.38,3.38,0,0,1,.24,1.34v3.69h-1.2Z" fill="#5a3b00"/>
      <path d="M36.87,13.68l-.6-.31a2.26,2.26,0,0,1-.91-.93A3.2,3.2,0,0,1,35.05,11v-.69a3.62,3.62,0,0,1,.3-1.54,2.08,2.08,0,0,1,.88-1,2.71,2.71,0,0,1,1.38-.34,2.22,2.22,0,0,1,1.3.38,2.42,2.42,0,0,1,.82,1.11A4.65,4.65,0,0,1,40,10.63V11h-4.1v-1h3a2,2,0,0,0-.38-1.15,1.08,1.08,0,0,0-.89-.42,1.29,1.29,0,0,0-1,.45,1.88,1.88,0,0,0-.37,1.26V11a1.61,1.61,0,0,0,.39,1.16,1.54,1.54,0,0,0,1.14.4,1.84,1.84,0,0,0,.72-.14,2.41,2.41,0,0,0,.64-.41l.78.78a3.18,3.18,0,0,1-1,.67,2.91,2.91,0,0,1-1.13.24Z" fill="#5a3b00"/>
      <path d="M41.66,7.51h1.19v6.08H41.66Zm3.69,2.4a1.42,1.42,0,0,0-.33-1,1.46,1.46,0,0,0-1.85,0,1.18,1.18,0,0,0-.32.87l-.12-1.17a2.2,2.2,0,0,1,.74-.85,1.76,1.76,0,0,1,1-.3A1.89,1.89,0,0,1,46,8.07a2.72,2.72,0,0,1,.55,1.83v3.69h-1.2Z" fill="#5a3b00"/>
      <path d="M47.89,7.51h2.75V8.59H47.89Zm1,5.71A1.86,1.86,0,0,1,48.52,12V5.74h1.2V12a.67.67,0,0,0,.08.35.31.31,0,0,0,.26.12h.58v1.13h-.7A1.34,1.34,0,0,1,48.86,13.22Z" fill="#5a3b00"/>
      <path d="M52.54,13.22A1.76,1.76,0,0,1,52,11.8a1.71,1.71,0,0,1,.51-1.35A2.28,2.28,0,0,1,54,10h1.73l.08,1H54a1,1,0,0,0-.7.21.81.81,0,0,0-.23.63.79.79,0,0,0,.31.69,1.63,1.63,0,0,0,.93.22,2.6,2.6,0,0,0,1-.15.48.48,0,0,0,.34-.45l.12.85a1.27,1.27,0,0,1-.39.41,1.7,1.7,0,0,1-.53.23,2.47,2.47,0,0,1-.69.08A2.57,2.57,0,0,1,52.54,13.22Zm3.17-3.48a1.3,1.3,0,0,0-.32-.93,1.19,1.19,0,0,0-.9-.33,2.51,2.51,0,0,0-.72.11,2,2,0,0,0-.61.31l-.88-.6a2.34,2.34,0,0,1,.91-.64,3.22,3.22,0,0,1,1.26-.24,2.9,2.9,0,0,1,1.3.27,2,2,0,0,1,.82.77,2.6,2.6,0,0,1,.28,1.23v3.9H55.71Z" fill="#5a3b00"/>
      <path d="M58.19,7.51h2.75V8.59H58.19Zm1,5.71A1.92,1.92,0,0,1,58.82,12V5.74H60V12a.67.67,0,0,0,.08.35.31.31,0,0,0,.26.12h.58v1.13h-.69A1.35,1.35,0,0,1,59.16,13.22Z" fill="#5a3b00"/>
      <path d="M62.58,5.07h1.19v1.2H62.58Zm0,2.44h1.19v6.08H62.58Z" fill="#5a3b00"/>
      <path d="M66.57,13.37a2.08,2.08,0,0,1-.86-.9,3.19,3.19,0,0,1-.3-1.44V10a3.06,3.06,0,0,1,.3-1.41,2.08,2.08,0,0,1,.86-.9,3.09,3.09,0,0,1,2.7,0,2,2,0,0,1,.86.9,3.06,3.06,0,0,1,.3,1.41v1a3.07,3.07,0,0,1-.3,1.42,2,2,0,0,1-.86.9,3.09,3.09,0,0,1-2.7,0Zm2.32-1.22a1.61,1.61,0,0,0,.34-1.1V10A1.58,1.58,0,0,0,68.89,9,1.4,1.4,0,0,0,67,9,1.58,1.58,0,0,0,66.61,10v1a1.61,1.61,0,0,0,.34,1.1,1.4,1.4,0,0,0,1.94,0Z" fill="#5a3b00"/>
      <path d="M72.13,7.51h1.19v6.08H72.13Zm3.69,2.4a1.42,1.42,0,0,0-.33-1,1.46,1.46,0,0,0-1.85,0,1.18,1.18,0,0,0-.32.87L73.2,8.57a2.2,2.2,0,0,1,.74-.85,1.76,1.76,0,0,1,1-.3,1.89,1.89,0,0,1,1.53.65A2.77,2.77,0,0,1,77,9.9v3.69H75.82Z" fill="#5a3b00"/>
      <path d="M82.84,13.41a1.89,1.89,0,0,1-.72-.85,3.33,3.33,0,0,1-.24-1.33V9.88a3.38,3.38,0,0,1,.24-1.34,1.77,1.77,0,0,1,.7-.84,2,2,0,0,1,1.1-.29,1.81,1.81,0,0,1,1,.28,2,2,0,0,1,.72.79l-.12,1.24a1.46,1.46,0,0,0-.14-.66A1,1,0,0,0,85,8.64a1.26,1.26,0,0,0-.64-.14,1.15,1.15,0,0,0-.92.37,1.48,1.48,0,0,0-.33,1v1.33a1.46,1.46,0,0,0,.33,1,1.18,1.18,0,0,0,.92.36,1.26,1.26,0,0,0,.64-.15,1,1,0,0,0,.41-.43,1.54,1.54,0,0,0,.14-.67l.08,1.28a1.72,1.72,0,0,1-.59.75,1.65,1.65,0,0,1-1,.31A2.19,2.19,0,0,1,82.84,13.41Zm2.67-8.34h1.2v8.52h-1.2Z" fill="#5a3b00"/>
      <path d="M90.17,13.68l-.6-.31a2.21,2.21,0,0,1-.91-.93A3.2,3.2,0,0,1,88.35,11v-.69a3.62,3.62,0,0,1,.3-1.54,2.11,2.11,0,0,1,.87-1,2.78,2.78,0,0,1,1.39-.34,2.22,2.22,0,0,1,1.3.38A2.42,2.42,0,0,1,93,8.91a4.65,4.65,0,0,1,.29,1.72V11H89.21v-1h3a2,2,0,0,0-.39-1.15,1.06,1.06,0,0,0-.88-.42,1.27,1.27,0,0,0-1,.45,1.88,1.88,0,0,0-.38,1.26V11a1.62,1.62,0,0,0,.4,1.16,1.51,1.51,0,0,0,1.13.4,1.81,1.81,0,0,0,.72-.14,2.26,2.26,0,0,0,.64-.41l.79.78a3.11,3.11,0,0,1-1,.67,2.83,2.83,0,0,1-1.13.24Z" fill="#5a3b00"/>
      <path d="M40.36,28.08l-.54-.26a2.09,2.09,0,0,1-.88-.76,2.72,2.72,0,0,1-.42-1.19h1.22a1.35,1.35,0,0,0,.23.6,1.07,1.07,0,0,0,.46.35,1.61,1.61,0,0,0,.65.11,1.28,1.28,0,0,0,.92-.31,1.18,1.18,0,0,0,.33-.89v-.26a1.47,1.47,0,0,0-.31-1,1.13,1.13,0,0,0-.88-.35h-.61V23h.61a1,1,0,0,0,.77-.3,1.22,1.22,0,0,0,.28-.85v-.26a1,1,0,0,0-.29-.78,1.33,1.33,0,0,0-1.37-.16,1.06,1.06,0,0,0-.41.35,1.64,1.64,0,0,0-.24.6H38.67a2.91,2.91,0,0,1,.44-1.2,2.21,2.21,0,0,1,.82-.76,2.45,2.45,0,0,1,1.14-.25,2.35,2.35,0,0,1,1.71.58,2.15,2.15,0,0,1,.6,1.63v.14A1.81,1.81,0,0,1,43,22.85a2,2,0,0,1-1,.7,1.77,1.77,0,0,1,1.08.68,2.32,2.32,0,0,1,.38,1.36v.14A2.62,2.62,0,0,1,43.24,27a2,2,0,0,1-.84.81,3,3,0,0,1-1.32.27Z" fill="#5a3b00"/>
      <path d="M46.46,27.83a2.06,2.06,0,0,1-.82-.73,2.91,2.91,0,0,1-.42-1.16h1.2a1.06,1.06,0,0,0,.37.73,1.2,1.2,0,0,0,.81.26,1.08,1.08,0,0,0,.89-.38,1.67,1.67,0,0,0,.31-1.08v-.72a1.63,1.63,0,0,0-.31-1.07,1.08,1.08,0,0,0-.89-.39,1.11,1.11,0,0,0-.6.18,1.66,1.66,0,0,0-.5.49H45.41V19.47h4.34v1.14H46.6v1.92a1.65,1.65,0,0,1,.5-.28,1.59,1.59,0,0,1,.57-.1,2.5,2.5,0,0,1,1.26.3,1.91,1.91,0,0,1,.79.89A3.2,3.2,0,0,1,50,24.75v.72a3.34,3.34,0,0,1-.28,1.41,2,2,0,0,1-.82.89,2.55,2.55,0,0,1-1.3.31A2.45,2.45,0,0,1,46.46,27.83Z" fill="#5a3b00"/>
      <path d="M51.83,22.73a1.54,1.54,0,0,1-.37-1.11v-.73a1.53,1.53,0,0,1,.37-1.1,1.58,1.58,0,0,1,2.1,0,1.58,1.58,0,0,1,.37,1.11v.72a1.58,1.58,0,0,1-.37,1.11,1.61,1.61,0,0,1-2.1,0Zm4.92-3.26h1L53.17,28H52.12ZM53.2,22.06a.54.54,0,0,0,.12-.38v-.86a.51.51,0,0,0-.12-.36.39.39,0,0,0-.32-.13.42.42,0,0,0-.33.13.56.56,0,0,0-.11.37v.85a.57.57,0,0,0,.11.38.42.42,0,0,0,.33.13A.39.39,0,0,0,53.2,22.06Zm2.87,5.63a1.57,1.57,0,0,1-.37-1.11v-.73a1.57,1.57,0,0,1,.37-1.11,1.36,1.36,0,0,1,1-.39,1.39,1.39,0,0,1,1.05.39,1.62,1.62,0,0,1,.36,1.12v.72a1.54,1.54,0,0,1-.37,1.11,1.6,1.6,0,0,1-2.09,0ZM57.44,27a.56.56,0,0,0,.12-.38v-.86a.49.49,0,0,0-.12-.36.41.41,0,0,0-.32-.13.42.42,0,0,0-.33.13.49.49,0,0,0-.11.36v.86a.52.52,0,0,0,.11.38.42.42,0,0,0,.33.13A.41.41,0,0,0,57.44,27Z" fill="#5a3b00"/>
    </g>
  </g>
  <g>
    <rect x="2.06" y="35.53" width="93" height="27.94" rx="2.83" fill="#bccd30" stroke="#8ca632" stroke-miterlimit="10" stroke-width="1.03"/>
    <g>
      <path d="M6.47,38.07h1l3.14,8.52H9.34L7,39.72,4.62,46.59H3.33ZM4.78,43.59H9.26v1.13H4.78Z" fill="#5a3b00"/>
      <path d="M13,44.21a1.41,1.41,0,0,0,.33,1,1.18,1.18,0,0,0,.91.34,1.24,1.24,0,0,0,.91-.31,1.13,1.13,0,0,0,.32-.88l.09,1.27a1.86,1.86,0,0,1-.61.76,1.75,1.75,0,0,1-1,.3A1.92,1.92,0,0,1,12.35,46a2.76,2.76,0,0,1-.54-1.82v-3.7H13Zm2.47-3.7h1.19v6.08H15.47Z" fill="#5a3b00"/>
      <path d="M19.27,46.41a1.78,1.78,0,0,1-.72-.85,3.32,3.32,0,0,1-.25-1.33V42.88a3.38,3.38,0,0,1,.24-1.34,1.83,1.83,0,0,1,.7-.84,2,2,0,0,1,1.11-.29,1.81,1.81,0,0,1,1,.28,2.12,2.12,0,0,1,.72.79l-.12,1.24a1.46,1.46,0,0,0-.14-.66,1,1,0,0,0-.41-.42,1.3,1.3,0,0,0-.65-.14,1.16,1.16,0,0,0-.92.37,1.53,1.53,0,0,0-.32,1v1.33a1.5,1.5,0,0,0,.32,1,1.19,1.19,0,0,0,.92.36,1.3,1.3,0,0,0,.65-.15A1,1,0,0,0,21.8,45a1.54,1.54,0,0,0,.14-.67L22,45.64a1.68,1.68,0,0,1-.6.75,1.6,1.6,0,0,1-1,.31A2.14,2.14,0,0,1,19.27,46.41Zm.56,2.66-.54-.26a2,2,0,0,1-.84-.72l.81-.73a1.66,1.66,0,0,0,.56.5,1.38,1.38,0,0,0,.68.18,1.43,1.43,0,0,0,1.06-.38,1.46,1.46,0,0,0,.38-1.07V40.51h1.19v5.9a3.06,3.06,0,0,1-.31,1.44,2.06,2.06,0,0,1-.89.91,3.06,3.06,0,0,1-1.41.31Z" fill="#5a3b00"/>
      <path d="M25,40.51h1.19v6.08H25Zm3.63,2.4a1.42,1.42,0,0,0-.32-1,1.15,1.15,0,0,0-.89-.35,1.26,1.26,0,0,0-.91.31,1.18,1.18,0,0,0-.32.87L26,41.57a2.2,2.2,0,0,1,.74-.85,1.76,1.76,0,0,1,1-.3,2,2,0,0,1,1.09.29,1.89,1.89,0,0,1,.69.85,3.38,3.38,0,0,1,.24,1.34v3.69h-1.2Zm3.63,0a1.42,1.42,0,0,0-.33-1,1.25,1.25,0,0,0-.94-.35,1.08,1.08,0,0,0-.86.34,1.42,1.42,0,0,0-.3,1l-.24-1.17a2.45,2.45,0,0,1,.75-.94,1.81,1.81,0,0,1,1-.33,2.13,2.13,0,0,1,1.13.29,1.93,1.93,0,0,1,.71.85,3.38,3.38,0,0,1,.24,1.34v3.69h-1.2Z" fill="#5a3b00"/>
      <path d="M36.87,46.68l-.6-.31a2.26,2.26,0,0,1-.91-.93A3.2,3.2,0,0,1,35.05,44v-.69a3.62,3.62,0,0,1,.3-1.54,2.08,2.08,0,0,1,.88-1,2.71,2.71,0,0,1,1.38-.34,2.22,2.22,0,0,1,1.3.38,2.42,2.42,0,0,1,.82,1.11A4.65,4.65,0,0,1,40,43.63V44h-4.1v-1h3a2,2,0,0,0-.38-1.15,1.08,1.08,0,0,0-.89-.42,1.29,1.29,0,0,0-1,.45,1.88,1.88,0,0,0-.37,1.26V44a1.61,1.61,0,0,0,.39,1.16,1.54,1.54,0,0,0,1.14.4,1.84,1.84,0,0,0,.72-.14,2.41,2.41,0,0,0,.64-.41l.78.78a3.18,3.18,0,0,1-1,.67,2.91,2.91,0,0,1-1.13.24Z" fill="#5a3b00"/>
      <path d="M41.66,40.51h1.19v6.08H41.66Zm3.69,2.4a1.42,1.42,0,0,0-.33-1,1.46,1.46,0,0,0-1.85,0,1.18,1.18,0,0,0-.32.87l-.12-1.17a2.2,2.2,0,0,1,.74-.85,1.76,1.76,0,0,1,1-.3,1.89,1.89,0,0,1,1.53.65,2.72,2.72,0,0,1,.55,1.83v3.69h-1.2Z" fill="#5a3b00"/>
      <path d="M47.89,40.51h2.75v1.08H47.89Zm1,5.71A1.86,1.86,0,0,1,48.52,45V38.74h1.2V45a.67.67,0,0,0,.08.35.31.31,0,0,0,.26.12h.58v1.13h-.7A1.34,1.34,0,0,1,48.86,46.22Z" fill="#5a3b00"/>
      <path d="M52.54,46.22A1.76,1.76,0,0,1,52,44.8a1.71,1.71,0,0,1,.51-1.35A2.28,2.28,0,0,1,54,43h1.73l.08,1H54a1,1,0,0,0-.7.21.81.81,0,0,0-.23.63.79.79,0,0,0,.31.69,1.63,1.63,0,0,0,.93.22,2.6,2.6,0,0,0,1-.15.48.48,0,0,0,.34-.45l.12.85a1.27,1.27,0,0,1-.39.41,1.7,1.7,0,0,1-.53.23,2.47,2.47,0,0,1-.69.08A2.57,2.57,0,0,1,52.54,46.22Zm3.17-3.48a1.3,1.3,0,0,0-.32-.93,1.19,1.19,0,0,0-.9-.33,2.51,2.51,0,0,0-.72.11,2,2,0,0,0-.61.31l-.88-.6a2.34,2.34,0,0,1,.91-.64,3.22,3.22,0,0,1,1.26-.24,2.9,2.9,0,0,1,1.3.27,2,2,0,0,1,.82.77,2.6,2.6,0,0,1,.28,1.23v3.9H55.71Z" fill="#5a3b00"/>
      <path d="M58.19,40.51h2.75v1.08H58.19Zm1,5.71A1.92,1.92,0,0,1,58.82,45V38.74H60V45a.67.67,0,0,0,.08.35.31.31,0,0,0,.26.12h.58v1.13h-.69A1.35,1.35,0,0,1,59.16,46.22Z" fill="#5a3b00"/>
      <path d="M62.58,38.07h1.19v1.2H62.58Zm0,2.44h1.19v6.08H62.58Z" fill="#5a3b00"/>
      <path d="M66.57,46.37a2.08,2.08,0,0,1-.86-.9,3.19,3.19,0,0,1-.3-1.44V43a3.06,3.06,0,0,1,.3-1.41,2.08,2.08,0,0,1,.86-.9,3.09,3.09,0,0,1,2.7,0,2,2,0,0,1,.86.9,3.06,3.06,0,0,1,.3,1.41v1a3.07,3.07,0,0,1-.3,1.42,2,2,0,0,1-.86.9,3.09,3.09,0,0,1-2.7,0Zm2.32-1.22a1.61,1.61,0,0,0,.34-1.1V43A1.58,1.58,0,0,0,68.89,42,1.4,1.4,0,0,0,67,42,1.58,1.58,0,0,0,66.61,43v1a1.61,1.61,0,0,0,.34,1.1,1.4,1.4,0,0,0,1.94,0Z" fill="#5a3b00"/>
      <path d="M72.13,40.51h1.19v6.08H72.13Zm3.69,2.4a1.42,1.42,0,0,0-.33-1,1.46,1.46,0,0,0-1.85,0,1.18,1.18,0,0,0-.32.87l-.12-1.17a2.2,2.2,0,0,1,.74-.85,1.76,1.76,0,0,1,1-.3,1.89,1.89,0,0,1,1.53.65A2.77,2.77,0,0,1,77,42.9v3.69H75.82Z" fill="#5a3b00"/>
      <path d="M82.84,46.41a1.89,1.89,0,0,1-.72-.85,3.33,3.33,0,0,1-.24-1.33V42.88a3.38,3.38,0,0,1,.24-1.34,1.77,1.77,0,0,1,.7-.84,2,2,0,0,1,1.1-.29,1.81,1.81,0,0,1,1,.28,2,2,0,0,1,.72.79l-.12,1.24a1.46,1.46,0,0,0-.14-.66,1,1,0,0,0-.41-.42,1.26,1.26,0,0,0-.64-.14,1.15,1.15,0,0,0-.92.37,1.48,1.48,0,0,0-.33,1v1.33a1.46,1.46,0,0,0,.33,1,1.18,1.18,0,0,0,.92.36,1.26,1.26,0,0,0,.64-.15,1,1,0,0,0,.41-.43,1.54,1.54,0,0,0,.14-.67l.08,1.28a1.72,1.72,0,0,1-.59.75,1.65,1.65,0,0,1-1,.31A2.19,2.19,0,0,1,82.84,46.41Zm2.67-8.34h1.2v8.52h-1.2Z" fill="#5a3b00"/>
      <path d="M90.17,46.68l-.6-.31a2.21,2.21,0,0,1-.91-.93A3.2,3.2,0,0,1,88.35,44v-.69a3.62,3.62,0,0,1,.3-1.54,2.11,2.11,0,0,1,.87-1,2.78,2.78,0,0,1,1.39-.34,2.22,2.22,0,0,1,1.3.38A2.42,2.42,0,0,1,93,41.91a4.65,4.65,0,0,1,.29,1.72V44H89.21v-1h3a2,2,0,0,0-.39-1.15,1.06,1.06,0,0,0-.88-.42,1.27,1.27,0,0,0-1,.45,1.88,1.88,0,0,0-.38,1.26V44a1.62,1.62,0,0,0,.4,1.16,1.51,1.51,0,0,0,1.13.4,1.81,1.81,0,0,0,.72-.14,2.26,2.26,0,0,0,.64-.41l.79.78a3.11,3.11,0,0,1-1,.67,2.83,2.83,0,0,1-1.13.24Z" fill="#5a3b00"/>
      <path d="M42.11,61H40.92V53.77l-1.22.75V53.28l1.22-.81h1.19Z" fill="#5a3b00"/>
      <path d="M45.28,60.83a2.06,2.06,0,0,1-.82-.73A2.91,2.91,0,0,1,44,58.94h1.2a1.1,1.1,0,0,0,.37.73,1.2,1.2,0,0,0,.81.26,1.06,1.06,0,0,0,.89-.38,1.67,1.67,0,0,0,.31-1.08v-.72a1.63,1.63,0,0,0-.31-1.07,1.07,1.07,0,0,0-.89-.39,1.1,1.1,0,0,0-.59.18,1.69,1.69,0,0,0-.51.49H44.23V52.47h4.34v1.14H45.43v1.92a1.6,1.6,0,0,1,.49-.28,1.63,1.63,0,0,1,.57-.1,2.5,2.5,0,0,1,1.26.3,1.93,1.93,0,0,1,.8.89,3.35,3.35,0,0,1,.27,1.41v.72a3.2,3.2,0,0,1-.28,1.41,2,2,0,0,1-.82.89,2.53,2.53,0,0,1-1.3.31A2.45,2.45,0,0,1,45.28,60.83Z" fill="#5a3b00"/>
      <path d="M50.65,55.73a1.58,1.58,0,0,1-.37-1.11v-.73a1.57,1.57,0,0,1,.37-1.1,1.36,1.36,0,0,1,1.05-.4,1.34,1.34,0,0,1,1,.4,1.54,1.54,0,0,1,.37,1.11v.72a1.54,1.54,0,0,1-.37,1.11,1.61,1.61,0,0,1-2.1,0Zm4.93-3.26h1L52,61H51ZM52,55.06a.54.54,0,0,0,.12-.38v-.86a.51.51,0,0,0-.12-.36.46.46,0,0,0-.64,0,.51.51,0,0,0-.12.37v.85a.52.52,0,0,0,.12.38.46.46,0,0,0,.64,0Zm2.87,5.63a1.57,1.57,0,0,1-.37-1.11v-.73a1.57,1.57,0,0,1,.37-1.11,1.61,1.61,0,0,1,2.1,0,1.62,1.62,0,0,1,.37,1.12v.72A1.54,1.54,0,0,1,57,60.69a1.35,1.35,0,0,1-1,.39A1.39,1.39,0,0,1,54.89,60.69ZM56.26,60a.56.56,0,0,0,.12-.38v-.86a.49.49,0,0,0-.12-.36.39.39,0,0,0-.32-.13.42.42,0,0,0-.33.13.53.53,0,0,0-.11.36v.86a.57.57,0,0,0,.11.38.42.42,0,0,0,.33.13A.39.39,0,0,0,56.26,60Z" fill="#5a3b00"/>
    </g>
  </g>
  <g>
    <rect x="100.13" y="2.53" width="40.5" height="27.94" rx="2.83" fill="#d34f1d" stroke="#642d10" stroke-miterlimit="10" stroke-width="1.03"/>
    <g>
      <path d="M103.67,13.18l3,3.07,3-3.07.62.62-3,3.06,3,3.07-.62.62-3-3.07-3,3.07-.61-.62,3-3.07-3-3.06Z" fill="#e1e43c"/>
      <path d="M117.12,12.59h0l-1.59.85-.23-.93,2-1.07h1v9.11h-1.19Z" fill="#e1e43c"/>
      <path d="M121.22,22.27a21.86,21.86,0,0,0,.84-3.35l1.37-.14a17.21,17.21,0,0,1-1.33,3.41Z" fill="#e1e43c"/>
      <path d="M124.81,19.13a4.08,4.08,0,0,0,2,.58c1.58,0,2.07-1,2.06-1.77,0-1.27-1.16-1.82-2.35-1.82h-.69V15.2h.69c.89,0,2-.47,2-1.54,0-.73-.47-1.38-1.6-1.38a3.33,3.33,0,0,0-1.82.6l-.32-.89a4.31,4.31,0,0,1,2.38-.7c1.79,0,2.6,1.06,2.6,2.17a2.25,2.25,0,0,1-1.68,2.14v0a2.36,2.36,0,0,1,2,2.34c0,1.46-1.13,2.73-3.32,2.73a4.55,4.55,0,0,1-2.36-.62Z" fill="#e1e43c"/>
      <path d="M137.14,12.48h-3.48l-.35,2.34a4.58,4.58,0,0,1,.74-.06,3.94,3.94,0,0,1,2,.49,2.61,2.61,0,0,1,1.3,2.34,3.16,3.16,0,0,1-3.39,3.11,4.43,4.43,0,0,1-2.27-.56l.31-.94a4,4,0,0,0,1.94.51,2,2,0,0,0,2.16-2c0-1.18-.8-2-2.62-2a9.74,9.74,0,0,0-1.26.1l.59-4.37h4.36Z" fill="#e1e43c"/>
    </g>
  </g>
  <g>
    <rect x="100.13" y="35.53" width="40.5" height="27.94" rx="2.83" fill="#d34f1d" stroke="#642d10" stroke-miterlimit="10" stroke-width="1.03"/>
    <g>
      <path d="M103.67,46.18l3,3.07,3-3.07.62.62-3,3.06,3,3.07-.62.62-3-3.07-3,3.07-.61-.62,3-3.07-3-3.06Z" fill="#e1e43c"/>
      <path d="M117.12,45.59h0l-1.59.85-.23-.93,2-1.07h1v9.11h-1.19Z" fill="#e1e43c"/>
      <path d="M121.22,55.27a21.86,21.86,0,0,0,.84-3.35l1.37-.14a17.21,17.21,0,0,1-1.33,3.41Z" fill="#e1e43c"/>
      <path d="M127.19,45.59h0l-1.59.85-.23-.93,2-1.07h1.06v9.11h-1.2Z" fill="#e1e43c"/>
      <path d="M137.14,45.48h-3.48l-.35,2.34a4.58,4.58,0,0,1,.74-.06,3.94,3.94,0,0,1,2,.49,2.61,2.61,0,0,1,1.3,2.34,3.16,3.16,0,0,1-3.39,3.11,4.43,4.43,0,0,1-2.27-.56l.31-.94a4,4,0,0,0,1.94.51,2,2,0,0,0,2.16-2c0-1.18-.8-2-2.62-2a9.74,9.74,0,0,0-1.26.1l.59-4.37h4.36Z" fill="#e1e43c"/>
    </g>
  </g>
</svg>
