<svg xmlns="http://www.w3.org/2000/svg" width="61.61mm" height="23.32mm" viewBox="0 0 174.66 66.09">
  <title>Pourcentages</title>
  <g>
    <rect x="1.69" y="2.53" width="40.5" height="60.94" rx="2.83" fill="#d34f1d" stroke="#642d10" stroke-miterlimit="10"/>
    <g>
      <path d="M13,6.84h0l-1.59.85-.23-.93,2-1.07h1.05V14.8H13Z" fill="#e1e43c"/>
      <path d="M17.13,16.52A21.86,21.86,0,0,0,18,13.17L19.34,13A17.21,17.21,0,0,1,18,16.44Z" fill="#e1e43c"/>
      <path d="M20.72,13.38a4.08,4.08,0,0,0,2,.58c1.58,0,2.07-1,2.06-1.77,0-1.27-1.16-1.82-2.35-1.82h-.69V9.45h.69c.89,0,2-.47,2-1.54,0-.73-.46-1.38-1.6-1.38a3.33,3.33,0,0,0-1.82.6l-.32-.89a4.31,4.31,0,0,1,2.38-.7c1.79,0,2.6,1.06,2.6,2.17A2.25,2.25,0,0,1,24,9.85v0a2.36,2.36,0,0,1,2,2.34c0,1.46-1.13,2.73-3.32,2.73a4.55,4.55,0,0,1-2.36-.62Z" fill="#e1e43c"/>
      <path d="M33.05,6.73H29.57l-.35,2.34A4.58,4.58,0,0,1,30,9a3.92,3.92,0,0,1,2,.49,2.61,2.61,0,0,1,1.3,2.34A3.16,3.16,0,0,1,29.84,15a4.43,4.43,0,0,1-2.27-.56l.31-.94a4,4,0,0,0,1.94.51A2,2,0,0,0,32,12c0-1.18-.8-2-2.62-2a9.74,9.74,0,0,0-1.26.1l.59-4.37h4.36Z" fill="#e1e43c"/>
      <path d="M5.24,22.43l3,3.07,3-3.07.61.62-3,3.06,3,3.07-.61.62-3-3.07-3,3.07-.62-.62,3-3.07-3-3.06Z" fill="#e1e43c"/>
      <path d="M18.68,21.84h0l-1.58.85-.24-.93,2-1.07h1.05V29.8H18.68Z" fill="#e1e43c"/>
      <path d="M22.78,31.52a19.76,19.76,0,0,0,.84-3.35L25,28a17.17,17.17,0,0,1-1.34,3.41Z" fill="#e1e43c"/>
      <path d="M28.76,21.84h0l-1.58.85-.24-.93,2-1.07H30V29.8H28.76Z" fill="#e1e43c"/>
      <path d="M38.7,21.73H35.23l-.35,2.34a4.48,4.48,0,0,1,.74-.06,3.91,3.91,0,0,1,2,.49,2.59,2.59,0,0,1,1.3,2.34A3.16,3.16,0,0,1,35.49,30a4.42,4.42,0,0,1-2.26-.56l.3-.94a4,4,0,0,0,1.95.51,2,2,0,0,0,2.16-2c0-1.18-.8-2-2.62-2a9.59,9.59,0,0,0-1.26.1l.59-4.37H38.7Z" fill="#e1e43c"/>
      <path d="M18.33,40.08v-.84h7.23v.84Zm0,2.74V42h7.23v.84Z" fill="#e1e43c"/>
      <path d="M5.84,51.84h0l-1.59.85L4,51.76l2-1.07H7V59.8H5.84Z" fill="#e1e43c"/>
      <path d="M9.94,61.52a19.76,19.76,0,0,0,.84-3.35L12.16,58a17.85,17.85,0,0,1-1.33,3.41Z" fill="#e1e43c"/>
      <path d="M18.68,51.73H15.21l-.35,2.34A4.58,4.58,0,0,1,15.6,54a3.91,3.91,0,0,1,2,.49,2.59,2.59,0,0,1,1.31,2.34A3.16,3.16,0,0,1,15.48,60a4.43,4.43,0,0,1-2.27-.56l.3-.94a4,4,0,0,0,2,.51,2,2,0,0,0,2.16-2c0-1.18-.8-2-2.62-2a9.59,9.59,0,0,0-1.26.1l.59-4.37h4.35Z" fill="#e1e43c"/>
      <path d="M26.34,50.69v.81l-4,8.3H21.1l3.95-8.06v0H20.6v-1Z" fill="#e1e43c"/>
      <path d="M33.05,51.73H29.57l-.35,2.34A4.58,4.58,0,0,1,30,54a3.92,3.92,0,0,1,2,.49,2.61,2.61,0,0,1,1.3,2.34A3.16,3.16,0,0,1,29.84,60a4.43,4.43,0,0,1-2.27-.56l.31-.94a4,4,0,0,0,1.95.51A2,2,0,0,0,32,57c0-1.18-.8-2-2.62-2a9.74,9.74,0,0,0-1.26.1l.59-4.37h4.36Z" fill="#e1e43c"/>
      <path d="M40.23,51.73H36.75l-.35,2.34a4.62,4.62,0,0,1,.75-.06,3.91,3.91,0,0,1,2,.49,2.61,2.61,0,0,1,1.3,2.34A3.16,3.16,0,0,1,37,60a4.49,4.49,0,0,1-2.27-.56l.31-.94A4,4,0,0,0,37,59a2,2,0,0,0,2.15-2c0-1.18-.79-2-2.62-2a9.9,9.9,0,0,0-1.26.1l.59-4.37h4.36Z" fill="#e1e43c"/>
    </g>
  </g>
  <g>
    <rect x="78.94" y="2.53" width="93" height="60.94" rx="4.19" fill="#bccd30" stroke="#8ca632" stroke-miterlimit="10" stroke-width="1.53"/>
    <g>
      <path d="M83.36,20.11h1l3.14,8.52H86.23l-2.36-6.88-2.36,6.88H80.22Zm-1.69,5.51h4.48v1.14H81.67Z" fill="#5a3b00"/>
      <path d="M89.89,26.24a1.42,1.42,0,0,0,.32,1,1.21,1.21,0,0,0,.92.35,1.3,1.3,0,0,0,.91-.31,1.21,1.21,0,0,0,.32-.89l.08,1.27a1.7,1.7,0,0,1-1.64,1.06,1.92,1.92,0,0,1-1.56-.64,2.74,2.74,0,0,1-.55-1.83v-3.7h1.2Zm2.47-3.7h1.19v6.09H92.36Z" fill="#5a3b00"/>
      <path d="M96.15,28.44a1.82,1.82,0,0,1-.71-.85,3.16,3.16,0,0,1-.25-1.33V24.92a3.43,3.43,0,0,1,.24-1.35,1.77,1.77,0,0,1,.7-.84,2,2,0,0,1,1.11-.29,1.8,1.8,0,0,1,1,.28,2.15,2.15,0,0,1,.73.79l-.13,1.24a1.34,1.34,0,0,0-.14-.66,1,1,0,0,0-.4-.42,1.45,1.45,0,0,0-.65-.14,1.15,1.15,0,0,0-.92.37,1.48,1.48,0,0,0-.32,1v1.33a1.45,1.45,0,0,0,.32,1,1.18,1.18,0,0,0,.92.36,1.33,1.33,0,0,0,.65-.15,1,1,0,0,0,.4-.43,1.41,1.41,0,0,0,.14-.67l.09,1.28a1.83,1.83,0,0,1-.6.76,1.67,1.67,0,0,1-1,.3A2.19,2.19,0,0,1,96.15,28.44Zm.57,2.66-.54-.26a2,2,0,0,1-.84-.71l.81-.74a1.57,1.57,0,0,0,.56.5,1.36,1.36,0,0,0,.68.18,1.31,1.31,0,0,0,1.43-1.45V22.54H100v5.9a3.06,3.06,0,0,1-.31,1.44,2.06,2.06,0,0,1-.89.91,3.06,3.06,0,0,1-1.41.31Z" fill="#5a3b00"/>
      <path d="M101.83,22.54H103v6.09h-1.2Zm3.64,2.4a1.46,1.46,0,0,0-.32-1,1.16,1.16,0,0,0-.9-.35,1.26,1.26,0,0,0-.9.31,1.19,1.19,0,0,0-.32.88l-.12-1.18a2.18,2.18,0,0,1,.73-.85,1.8,1.8,0,0,1,1-.29,1.93,1.93,0,0,1,1.09.29,1.81,1.81,0,0,1,.69.84,3.57,3.57,0,0,1,.23,1.34v3.7h-1.19Zm3.63,0a1.42,1.42,0,0,0-.33-1,1.27,1.27,0,0,0-.94-.35,1.11,1.11,0,0,0-.86.34,1.37,1.37,0,0,0-.31,1l-.24-1.17a2.36,2.36,0,0,1,.76-.93,1.78,1.78,0,0,1,1-.33,2,2,0,0,1,1.12.29,1.79,1.79,0,0,1,.71.84,3.37,3.37,0,0,1,.25,1.34v3.7h-1.2Z" fill="#5a3b00"/>
      <path d="M113.76,28.71l-.6-.31a2.1,2.1,0,0,1-.91-.93,3.2,3.2,0,0,1-.31-1.48V25.3a3.62,3.62,0,0,1,.3-1.54,2.16,2.16,0,0,1,.87-1,2.78,2.78,0,0,1,1.39-.33,2.17,2.17,0,0,1,1.3.38,2.34,2.34,0,0,1,.82,1.1,4.67,4.67,0,0,1,.29,1.73v.39H112.8v-1h3a2,2,0,0,0-.39-1.15,1.06,1.06,0,0,0-.88-.42,1.27,1.27,0,0,0-1,.45,1.91,1.91,0,0,0-.38,1.26V26a1.6,1.6,0,0,0,.4,1.16,1.52,1.52,0,0,0,1.13.41,1.86,1.86,0,0,0,.72-.15A2.06,2.06,0,0,0,116,27l.79.78a3.31,3.31,0,0,1-1,.68,3,3,0,0,1-1.13.23Z" fill="#5a3b00"/>
      <path d="M118.55,22.54h1.19v6.09h-1.19Zm3.69,2.4a1.38,1.38,0,0,0-.34-1,1.23,1.23,0,0,0-.93-.35,1.28,1.28,0,0,0-.91.31,1.19,1.19,0,0,0-.32.88l-.12-1.18a2.26,2.26,0,0,1,.73-.85,1.8,1.8,0,0,1,1-.29,1.88,1.88,0,0,1,1.53.64,2.77,2.77,0,0,1,.54,1.83v3.7h-1.19Z" fill="#5a3b00"/>
      <path d="M124.78,22.54h2.74v1.08h-2.74Zm1,5.71a1.84,1.84,0,0,1-.34-1.21V20.77h1.19v6.28a.58.58,0,0,0,.09.35.3.3,0,0,0,.26.12h.57v1.13h-.69A1.34,1.34,0,0,1,125.75,28.25Z" fill="#5a3b00"/>
      <path d="M129.43,28.25a1.76,1.76,0,0,1-.56-1.42,1.71,1.71,0,0,1,.51-1.35,2.27,2.27,0,0,1,1.54-.45h1.73l.08,1h-1.8a1,1,0,0,0-.7.21.77.77,0,0,0-.23.63.81.81,0,0,0,.3.69,1.61,1.61,0,0,0,.94.22,2.64,2.64,0,0,0,1-.15.48.48,0,0,0,.34-.45l.12.85a1.53,1.53,0,0,1-.39.41,1.66,1.66,0,0,1-.54.23,2.4,2.4,0,0,1-.68.08A2.57,2.57,0,0,1,129.43,28.25Zm3.17-3.48a1.3,1.3,0,0,0-.32-.93,1.22,1.22,0,0,0-.91-.33,2.45,2.45,0,0,0-.71.11,2.4,2.4,0,0,0-.62.31l-.87-.6a2.27,2.27,0,0,1,.91-.64,3.21,3.21,0,0,1,1.26-.23,2.86,2.86,0,0,1,1.29.26,1.88,1.88,0,0,1,.82.78,2.42,2.42,0,0,1,.28,1.22v3.91H132.6Z" fill="#5a3b00"/>
      <path d="M135.08,22.54h2.74v1.08h-2.74Zm1,5.71a1.84,1.84,0,0,1-.34-1.21V20.77h1.19v6.28a.58.58,0,0,0,.09.35.31.31,0,0,0,.26.12h.57v1.13h-.69A1.34,1.34,0,0,1,136.05,28.25Z" fill="#5a3b00"/>
      <path d="M139.46,20.11h1.2V21.3h-1.2Zm0,2.43h1.2v6.09h-1.2Z" fill="#5a3b00"/>
      <path d="M143.45,28.4a2,2,0,0,1-.85-.9,3.19,3.19,0,0,1-.3-1.44v-1a3.06,3.06,0,0,1,.3-1.41,2.06,2.06,0,0,1,.85-.9,2.87,2.87,0,0,1,1.36-.3,2.83,2.83,0,0,1,1.35.3,2.08,2.08,0,0,1,.86.9,3.06,3.06,0,0,1,.3,1.41v1a3.07,3.07,0,0,1-.3,1.42,2,2,0,0,1-.86.9,2.72,2.72,0,0,1-1.35.31A2.76,2.76,0,0,1,143.45,28.4Zm2.33-1.22a1.61,1.61,0,0,0,.34-1.1v-1a1.58,1.58,0,0,0-.34-1.09,1.4,1.4,0,0,0-1.94,0,1.58,1.58,0,0,0-.34,1.09v1a1.61,1.61,0,0,0,.34,1.1,1.38,1.38,0,0,0,1.94,0Z" fill="#5a3b00"/>
      <path d="M149,22.54h1.2v6.09H149Zm3.7,2.4a1.42,1.42,0,0,0-.34-1,1.24,1.24,0,0,0-.94-.35,1.26,1.26,0,0,0-.9.31,1.19,1.19,0,0,0-.32.88l-.12-1.18a2.18,2.18,0,0,1,.73-.85,1.8,1.8,0,0,1,1-.29,1.88,1.88,0,0,1,1.53.64,2.77,2.77,0,0,1,.54,1.83v3.7h-1.19Z" fill="#5a3b00"/>
      <path d="M159.73,28.44a1.78,1.78,0,0,1-.72-.85,3.32,3.32,0,0,1-.25-1.33V24.92a3.43,3.43,0,0,1,.24-1.35,1.85,1.85,0,0,1,.71-.84,1.94,1.94,0,0,1,1.1-.29,1.81,1.81,0,0,1,1,.28,2,2,0,0,1,.72.79l-.12,1.24a1.46,1.46,0,0,0-.14-.66,1,1,0,0,0-.41-.42,1.42,1.42,0,0,0-.65-.14,1.13,1.13,0,0,0-.91.37,1.48,1.48,0,0,0-.33,1v1.33a1.46,1.46,0,0,0,.33,1,1.15,1.15,0,0,0,.91.36,1.3,1.3,0,0,0,.65-.15,1,1,0,0,0,.41-.43,1.54,1.54,0,0,0,.14-.67l.08,1.28a1.76,1.76,0,0,1-.6.76,1.66,1.66,0,0,1-1,.3A2.14,2.14,0,0,1,159.73,28.44Zm2.67-8.33h1.19v8.52H162.4Z" fill="#5a3b00"/>
      <path d="M167.06,28.71l-.6-.31a2.1,2.1,0,0,1-.91-.93,3.2,3.2,0,0,1-.32-1.48V25.3a3.47,3.47,0,0,1,.31-1.54,2.16,2.16,0,0,1,.87-1,2.71,2.71,0,0,1,1.38-.33,2.13,2.13,0,0,1,1.3.38,2.36,2.36,0,0,1,.83,1.1,4.68,4.68,0,0,1,.28,1.73v.39h-4.1v-1h3a2.07,2.07,0,0,0-.39-1.15,1.06,1.06,0,0,0-.89-.42,1.29,1.29,0,0,0-1,.45,1.91,1.91,0,0,0-.37,1.26V26a1.56,1.56,0,0,0,.4,1.16,1.5,1.5,0,0,0,1.13.41,1.86,1.86,0,0,0,.72-.15,2.06,2.06,0,0,0,.64-.41l.78.78a3.27,3.27,0,0,1-1,.68,3,3,0,0,1-1.13.23Z" fill="#5a3b00"/>
      <path d="M109.26,42.86a2.06,2.06,0,0,1-.82-.73A2.91,2.91,0,0,1,108,41h1.2a1.1,1.1,0,0,0,.37.73,1.2,1.2,0,0,0,.81.26,1.08,1.08,0,0,0,.89-.38,1.67,1.67,0,0,0,.31-1.08v-.72a1.64,1.64,0,0,0-.31-1.07,1.08,1.08,0,0,0-.89-.38,1.12,1.12,0,0,0-.6.17,1.66,1.66,0,0,0-.5.49h-1.09V34.51h4.34v1.13h-3.14v1.92a1.49,1.49,0,0,1,.49-.28,1.59,1.59,0,0,1,.57-.1,2.5,2.5,0,0,1,1.26.3,2,2,0,0,1,.8.89,3.35,3.35,0,0,1,.27,1.41v.72a3.34,3.34,0,0,1-.28,1.41,2,2,0,0,1-.82.9,2.63,2.63,0,0,1-1.3.3A2.45,2.45,0,0,1,109.26,42.86Z" fill="#5a3b00"/>
      <path d="M119,35.57,116.75,43h-1.27l2.2-7.38h-2.16v1.23h-1.2V34.51H119Z" fill="#5a3b00"/>
      <path d="M120.45,41.77h1.25v1.9L120.45,45Z" fill="#5a3b00"/>
      <path d="M124.55,42.86a2.06,2.06,0,0,1-.82-.73,3.07,3.07,0,0,1-.41-1.16h1.19a1.06,1.06,0,0,0,.38.73,1.15,1.15,0,0,0,.8.26,1.06,1.06,0,0,0,.89-.38,1.67,1.67,0,0,0,.32-1.08v-.72a1.65,1.65,0,0,0-.32-1.07,1.06,1.06,0,0,0-.89-.38,1.09,1.09,0,0,0-.59.17,1.82,1.82,0,0,0-.51.49H123.5V34.51h4.34v1.13H124.7v1.92a1.72,1.72,0,0,1,1.06-.38,2.5,2.5,0,0,1,1.26.3,2,2,0,0,1,.8.89,3.35,3.35,0,0,1,.27,1.41v.72a3.2,3.2,0,0,1-.28,1.41,2,2,0,0,1-.82.9,2.63,2.63,0,0,1-1.3.3A2.45,2.45,0,0,1,124.55,42.86Z" fill="#5a3b00"/>
      <path d="M131.08,42.86a2.1,2.1,0,0,1-.81-.73,2.91,2.91,0,0,1-.42-1.16H131a1.11,1.11,0,0,0,.38.73,1.2,1.2,0,0,0,.81.26,1.08,1.08,0,0,0,.89-.38,1.73,1.73,0,0,0,.31-1.08v-.72a1.7,1.7,0,0,0-.31-1.07,1.08,1.08,0,0,0-.89-.38,1.09,1.09,0,0,0-.6.17,1.66,1.66,0,0,0-.5.49H130V34.51h4.34v1.13h-3.15v1.92a1.65,1.65,0,0,1,.5-.28,1.54,1.54,0,0,1,.56-.1,2.47,2.47,0,0,1,1.26.3,2,2,0,0,1,.8.89,3.35,3.35,0,0,1,.27,1.41v.72a3.2,3.2,0,0,1-.28,1.41,2,2,0,0,1-.82.9,2.62,2.62,0,0,1-1.29.3A2.52,2.52,0,0,1,131.08,42.86Z" fill="#5a3b00"/>
      <path d="M136.46,37.76a1.53,1.53,0,0,1-.37-1.1v-.74a1.53,1.53,0,0,1,.37-1.1,1.36,1.36,0,0,1,1-.4,1.39,1.39,0,0,1,1.05.4,1.59,1.59,0,0,1,.36,1.12v.72a1.53,1.53,0,0,1-.37,1.1,1.57,1.57,0,0,1-2.09,0Zm4.92-3.25h1.05L137.8,43h-1.05Zm-3.55,2.58a.54.54,0,0,0,.12-.38v-.86a.52.52,0,0,0-.12-.36.41.41,0,0,0-.32-.13.42.42,0,0,0-.33.13.58.58,0,0,0-.11.37v.85a.62.62,0,0,0,.11.39.45.45,0,0,0,.33.12A.41.41,0,0,0,137.83,37.09Zm2.86,5.63a1.59,1.59,0,0,1-.36-1.11v-.73a1.57,1.57,0,0,1,.36-1.1,1.36,1.36,0,0,1,1.05-.4,1.33,1.33,0,0,1,1,.4,1.54,1.54,0,0,1,.37,1.11v.72a1.54,1.54,0,0,1-.37,1.11,1.61,1.61,0,0,1-2.1,0Zm1.38-.67a.59.59,0,0,0,.11-.38v-.86a.53.53,0,0,0-.11-.36.42.42,0,0,0-.33-.13.38.38,0,0,0-.32.13.51.51,0,0,0-.12.37v.85a.52.52,0,0,0,.12.38.38.38,0,0,0,.32.13A.42.42,0,0,0,142.07,42.05Z" fill="#5a3b00"/>
    </g>
  </g>
  <polygon points="75.57 33.08 64.09 22.88 64.09 27.61 46.08 27.61 46.08 38.48 64.09 38.48 64.09 43.22 75.57 33.08" fill="#ee2b2f"/>
</svg>
