<?xml version="1.0" encoding="utf-8"?>
<!-- Generator: Adobe Illustrator 28.0.0, SVG Export Plug-In . SVG Version: 6.00 Build 0)  -->
<svg version="1.1" id="Calque_1" xmlns="http://www.w3.org/2000/svg" xmlns:xlink="http://www.w3.org/1999/xlink" x="0px" y="0px"
	 viewBox="0 0 113.4 113.4" style="enable-background:new 0 0 113.4 113.4;" xml:space="preserve">
<style type="text/css">
	.st0{fill:none;stroke:#231F20;stroke-width:1.9999;stroke-miterlimit:9.9996;}
	.st1{fill:none;stroke:#231F20;stroke-width:1.9999;stroke-miterlimit:9.9996;stroke-dasharray:5.5398,3.1699;}
	.st2{fill:none;stroke:#2E3192;stroke-width:1;stroke-linecap:round;stroke-miterlimit:9.9996;}
	.st3{fill:none;stroke:#2E3192;stroke-width:1;stroke-linecap:round;stroke-miterlimit:9.9996;stroke-dasharray:1.9699,1.9699;}
	.st4{fill:none;stroke:#231F20;stroke-width:1;stroke-linecap:round;stroke-miterlimit:9.9996;}
	.st5{fill:#2E3192;}
	.st6{font-family:'MyriadPro-Regular';}
	.st7{font-size:12px;}
	.st8{fill:#231F20;}
</style>
<circle class="st0" cx="56.7" cy="56.7" r="49.9"/>
<path class="st1" d="M6.7,56.7c0-13.8,22.4-25,49.9-25s50,11.2,50,25"/>
<g>
	<line class="st2" x1="56.7" y1="56.7" x2="56" y2="57.4"/>
	<line class="st3" x1="54.6" y1="58.8" x2="35.8" y2="77.6"/>
	<line class="st2" x1="35.1" y1="78.3" x2="34.3" y2="79"/>
</g>
<path class="st0" d="M106.6,56.7c0,13.8-22.4,25-49.9,25S6.7,70.5,6.7,56.7"/>
<path class="st1" d="M56.7,6.7c13.8,0,25,22.4,25,49.9s-11.2,50-25,50"/>
<path class="st0" d="M56.7,106.6c-13.8,0-25-22.4-25-49.9s11.2-49.9,25-49.9"/>
<g>
	<line class="st4" x1="55.3" y1="55.3" x2="58" y2="58"/>
	<line class="st4" x1="58" y1="55.3" x2="55.3" y2="58"/>
</g>
<text transform="matrix(1 0 0 1 40.5955 66.0808)" class="st5 st6 st7">r</text>
<g>
	<g>
		<path class="st8" d="M55.1,53.8c-0.5-0.3-0.8-0.6-1.1-1.1s-0.4-1-0.4-1.6v-2.4c0-0.6,0.1-1.2,0.4-1.6s0.6-0.8,1.1-1.1
			s1-0.4,1.6-0.4s1.1,0.1,1.6,0.4s0.8,0.6,1.1,1.1s0.4,1,0.4,1.6V51c0,0.6-0.1,1.2-0.4,1.6s-0.6,0.8-1.1,1.1s-1,0.4-1.6,0.4
			S55.6,54,55.1,53.8z M57.6,52.7c0.3-0.2,0.5-0.4,0.6-0.7s0.2-0.6,0.2-1v-2.5c0-0.4-0.1-0.7-0.2-1s-0.4-0.5-0.6-0.7
			s-0.6-0.2-0.9-0.2s-0.7,0.1-0.9,0.2s-0.5,0.4-0.6,0.7s-0.2,0.6-0.2,1V51c0,0.4,0.1,0.7,0.2,1s0.4,0.5,0.6,0.7s0.6,0.2,0.9,0.2
			S57.4,52.9,57.6,52.7z"/>
	</g>
</g>
<g>
	<g>
		<path class="st8" d="M31.7,80.4h1.1V89h-1.2v-6.4l0.1,0.4l-2.1,4.8h-0.8l-2.1-4.7l0.1-0.5V89h-1.2v-8.5h1.1l2.5,5.6L31.7,80.4z"/>
	</g>
</g>
</svg>
