<?xml version="1.0" encoding="UTF-8"?>
<svg id="Calque_1" data-name="Calque 1" xmlns="http://www.w3.org/2000/svg" viewBox="0 0 114.62 82">
  <defs>
    <style>
      .cls-1 {
        stroke: #e5064a;
      }

      .cls-1, .cls-2, .cls-3, .cls-4 {
        stroke-linecap: round;
        stroke-miterlimit: 10;
      }

      .cls-1, .cls-5 {
        fill: #674695;
      }

      .cls-2 {
        stroke: #674695;
        stroke-width: .5px;
      }

      .cls-2, .cls-3, .cls-4 {
        fill: none;
      }

      .cls-3 {
        stroke: #44ace2;
      }

      .cls-4 {
        stroke: #f6a117;
      }

      .cls-5 {
        stroke-width: 0px;
      }
    </style>
  </defs>
  <line class="cls-3" x1="20.67" y1="22.44" x2="114.12" y2="22.44"/>
  <line class="cls-3" x1=".5" y1="61.67" x2="93.95" y2="61.67"/>
  <line class="cls-4" x1="53.18" y1="3.2" x2="7.14" y2="78.51"/>
  <line class="cls-4" x1="104.67" y1="6.19" x2="58.63" y2="81.5"/>
  <line class="cls-1" x1="109.21" y1="39.05" x2="105.78" y2="46.04"/>
  <line class="cls-1" x1="111.75" y1="39.05" x2="108.32" y2="46.04"/>
  <g>
    <path class="cls-2" d="m105.62,37.58c-1.71-2.98-2.61-8.75-2.37-12.31"/>
    <polygon class="cls-5" points="104.12 26.08 103.24 25.58 102.28 25.87 103.45 23.79 104.12 26.08"/>
  </g>
  <g>
    <path class="cls-2" d="m103.22,45.18c-2.3,1.09-9.95,8.66-11.72,13.17"/>
    <polygon class="cls-5" points="90.82 57.43 91.61 58.06 92.61 57.92 91.13 59.79 90.82 57.43"/>
  </g>
  <line class="cls-1" x1="75.75" y1=".5" x2="72.32" y2="7.49"/>
  <line class="cls-1" x1="78.29" y1=".5" x2="74.86" y2="7.49"/>
  <g>
    <path class="cls-2" d="m69.11,9.45c-3.42,3.42-13.24,5.71-18.93,5.95"/>
    <polygon class="cls-5" points="50.86 14.43 50.49 15.37 50.9 16.28 48.69 15.41 50.86 14.43"/>
  </g>
  <g>
    <path class="cls-2" d="m76.09,9.96c2.64,3.65,11.78,5.88,17.24,6.5"/>
    <polygon class="cls-5" points="92.54 17.3 93.02 16.42 92.72 15.46 94.81 16.6 92.54 17.3"/>
  </g>
</svg>