<?xml version="1.0" encoding="utf-8"?>
<!-- Generator: Adobe Illustrator 23.0.0, SVG Export Plug-In . SVG Version: 6.00 Build 0)  -->
<svg version="1.1" id="Calque_1" xmlns="http://www.w3.org/2000/svg" xmlns:xlink="http://www.w3.org/1999/xlink" x="0px" y="0px"
	 viewBox="0 0 144.3 39.3" style="enable-background:new 0 0 144.3 39.3;" xml:space="preserve">
<style type="text/css">
	.st0{fill:none;stroke:#ED1C24;stroke-miterlimit:10;}
	.st1{fill:#ED1C24;}
</style>
<g>
	<path class="st0" d="M24,15.5c6.4,0,11.6,5.2,11.6,11.6S30.4,38.8,24,38.8H12.1c-6.4,0-11.6-5.2-11.6-11.6s5.2-11.6,11.6-11.6H24
		V15.5z"/>
	<g>
		<g>
			<path class="st0" d="M24,15.5c8.3-14.2,23.3-12,28.4-3.8"/>
			<g>
				<polygon class="st1" points="55,18.3 47.3,10.7 52,11.3 54.8,7.5 				"/>
			</g>
		</g>
	</g>
	<g>
		<g>
			<path class="st0" d="M24,15.5c8.9-19.7,64.5-18.2,78.5-3.2"/>
			<g>
				<polygon class="st1" points="106.3,18.3 97.3,12.3 102,12 104.1,7.7 				"/>
			</g>
		</g>
	</g>
</g>
<g>
	<g>
		<path class="st0" d="M24,15.5c2.6-21.6,106.6-16.9,116.9-4.1"/>
		<g>
			<polygon class="st1" points="144.3,17.6 135.7,11.1 140.4,11 142.7,7 			"/>
		</g>
	</g>
</g>
</svg>
