<?xml version="1.0" encoding="utf-8"?>
<!-- Generator: Adobe Illustrator 28.0.0, SVG Export Plug-In . SVG Version: 6.00 Build 0)  -->
<svg version="1.1" id="Calque_1" xmlns="http://www.w3.org/2000/svg" xmlns:xlink="http://www.w3.org/1999/xlink" x="0px" y="0px"
	 viewBox="0 0 220.6 52.5" style="enable-background:new 0 0 220.6 52.5;" xml:space="preserve">
<style type="text/css">
	.st0{fill:none;stroke:#1D1D1B;stroke-width:3;stroke-linecap:round;stroke-miterlimit:10;}
	.st1{fill:#1D1D1B;}
</style>
<g>
	<g>
		<g>
			<line class="st0" x1="8.6" y1="35.2" x2="219.1" y2="51"/>
			<g>
				
					<rect x="-1.2" y="33.7" transform="matrix(7.497139e-02 -0.9972 0.9972 7.497139e-02 -27.1209 41.0873)" class="st1" width="19.5" height="3"/>
			</g>
		</g>
	</g>
	<line class="st0" x1="144.7" y1="39.1" x2="144" y2="51"/>
	<g>
		<g>
			<path class="st1" d="M14.3,11.8v3.1c0,1.3-0.3,2.5-0.8,3.5c-0.5,1-1.2,1.8-2.2,2.3c-0.9,0.5-2,0.8-3.3,0.8
				c-1.3,0-2.4-0.3-3.3-0.8c-0.9-0.5-1.7-1.2-2.2-2.2c-0.5-0.9-0.8-2-0.8-3.3v-5.2c0-1.3,0.3-2.5,0.8-3.5s1.2-1.8,2.2-2.3
				c0.9-0.5,2-0.8,3.3-0.8c1,0,2,0.2,2.8,0.7c0.9,0.4,1.6,1.1,2.2,1.8c0.6,0.8,1,1.7,1.2,2.8h-2.7c-0.1-0.6-0.4-1.1-0.7-1.5
				c-0.4-0.4-0.8-0.8-1.2-1C9,6,8.5,5.9,8,5.9C7.3,5.9,6.7,6,6.1,6.4c-0.6,0.4-1,0.8-1.3,1.5c-0.3,0.6-0.5,1.4-0.5,2.2v5.2
				c0,0.8,0.2,1.4,0.5,2c0.3,0.6,0.7,1,1.3,1.3c0.6,0.3,1.2,0.5,2,0.5c0.7,0,1.4-0.2,1.9-0.5c0.6-0.3,1-0.8,1.3-1.4
				c0.3-0.6,0.5-1.4,0.5-2.2v-0.8H8.2v-2.4H14.3z"/>
		</g>
	</g>
	<g>
		<g>
			<path class="st1" d="M138,17.4h2.5v17.7H138V17.4z M139.6,25.2h9.9v2.4h-9.9V25.2z M148.1,17.4h2.5v17.7h-2.5V17.4z"/>
		</g>
	</g>
</g>
</svg>
