<?xml version="1.0" encoding="UTF-8"?>
<svg id="Calque_1" data-name="Calque 1" xmlns="http://www.w3.org/2000/svg" viewBox="0 0 227.77 227.77">
  <defs>
    <style>
      .cls-1 {
        fill: #f39200;
      }

      .cls-1, .cls-2, .cls-3, .cls-4, .cls-5 {
        stroke: #1d1d1b;
        stroke-miterlimit: 10;
      }

      .cls-6 {
        fill: #1d1d1b;
        font-family: PTSerif-Regular, 'PT Serif';
        font-size: 34.91px;
      }

      .cls-2 {
        fill: #f9b233;
      }

      .cls-3 {
        fill: #878787;
      }

      .cls-4 {
        fill: none;
      }

      .cls-5 {
        fill: #b2b2b2;
      }
    </style>
  </defs>
  <g>
    <circle class="cls-1" cx="113.89" cy="113.89" r="113.39"/>
    <circle class="cls-2" cx="113.89" cy="113.89" r="107.63"/>
    <circle class="cls-5" cx="113.89" cy="113.89" r="80.68"/>
  </g>
  <polyline class="cls-4" points="147.46 181.75 127.2 163.73 164.35 140.93 164.35 81.44 113.89 50.28 63.42 81.44 63.42 140.93 100.58 163.73 80.31 181.75"/>
  <polygon class="cls-3" points="113.89 192.73 115 192.73 115.56 176.96 121 190.47 125.13 190.47 121 176.4 131.51 188.78 137.42 187.66 124.57 171.33 142.4 185.97 145.4 183.34 127.2 163.73 125.32 162.89 125.69 122.72 141.83 123.66 146.15 121.03 130.01 117.09 162.29 117.09 162.29 111.28 131.7 109.02 144.27 102.08 151.41 102.08 154.6 99.64 146.34 96.64 157.41 92.7 154.6 87.82 132.08 97.39 142.77 87.82 139.12 84.81 125.69 99.64 120.24 99.64 136.95 75.62 139.12 65.86 146.53 57.98 135.05 63.35 132.83 74.12 115.22 97.85 115.18 66.42 113.89 65.06 112.59 66.42 112.55 97.85 94.95 74.12 92.72 63.35 81.25 57.98 88.65 65.86 90.82 75.62 107.53 99.64 102.08 99.64 88.65 84.81 85 87.82 95.7 97.39 73.18 87.82 70.36 92.7 81.43 96.64 73.18 99.64 76.37 102.08 83.5 102.08 96.07 109.02 65.48 111.28 65.48 117.09 97.76 117.09 81.62 121.03 85.94 123.66 102.08 122.72 102.45 162.89 100.58 163.73 82.37 183.34 85.37 185.97 103.2 171.33 90.35 187.66 96.26 188.78 106.77 176.4 102.64 190.47 106.77 190.47 112.21 176.96 112.77 192.73 113.89 192.73"/>
  <polygon class="cls-3" points="151.97 71.54 156.75 71.54 145.35 83.22 142.4 80.12 151.97 71.54"/>
  <polygon class="cls-3" points="165.2 80.68 173.64 83.22 158.58 90.4 154.6 87.82 165.2 80.68"/>
  <polygon class="cls-3" points="157.74 99.69 169.98 99.69 159.85 108.69 151.55 106.58 157.74 99.69"/>
  <polygon class="cls-3" points="155.91 121.93 165.76 126.85 162.29 130.37 150.84 125.35 155.91 121.93"/>
  <polygon class="cls-3" points="156.33 134.73 166.75 142.76 162.95 144.87 151.55 137.41 156.33 134.73"/>
  <text class="cls-6" transform="translate(78.81 151.06) scale(1.06 1)"><tspan x="0" y="0">R</tspan></text>
  <text class="cls-6" transform="translate(129.86 151.06) scale(1.06 1)"><tspan x="0" y="0">F</tspan></text>
  <polygon class="cls-3" points="75.8 71.54 71.02 71.54 82.42 83.22 85.37 80.12 75.8 71.54"/>
  <polygon class="cls-3" points="62.57 80.68 54.13 83.22 69.19 90.4 73.18 87.82 62.57 80.68"/>
  <polygon class="cls-3" points="70.03 99.69 57.79 99.69 67.92 108.69 76.23 106.58 70.03 99.69"/>
  <polygon class="cls-3" points="71.86 121.93 62.01 126.85 65.48 130.37 76.93 125.35 71.86 121.93"/>
  <polygon class="cls-3" points="71.44 134.73 61.02 142.76 64.82 144.87 76.23 137.41 71.44 134.73"/>
  <polygon class="cls-1" points="113.89 10.14 116.13 17.07 123.41 17.07 117.52 21.34 119.77 28.26 113.89 23.99 108 28.26 110.25 21.34 104.36 17.07 111.64 17.07 113.89 10.14"/>
  <polygon class="cls-1" points="162.02 23.94 164.27 30.86 171.55 30.86 165.66 35.14 167.91 42.06 162.02 37.78 156.14 42.06 158.39 35.14 152.5 30.86 159.78 30.86 162.02 23.94"/>
  <polygon class="cls-1" points="195.8 57.72 198.05 64.64 205.33 64.64 199.44 68.92 201.69 75.84 195.8 71.56 189.92 75.84 192.17 68.92 186.28 64.64 193.56 64.64 195.8 57.72"/>
  <polygon class="cls-1" points="208.47 104.83 210.72 111.75 218 111.75 212.11 116.02 214.36 122.95 208.47 118.67 202.59 122.95 204.83 116.02 198.95 111.75 206.22 111.75 208.47 104.83"/>
  <polygon class="cls-1" points="195.8 150.34 198.05 157.26 205.33 157.26 199.44 161.53 201.69 168.45 195.8 164.18 189.92 168.45 192.17 161.53 186.28 157.26 193.56 157.26 195.8 150.34"/>
  <polygon class="cls-1" points="162.02 186.09 164.27 193.01 171.55 193.01 165.66 197.29 167.91 204.21 162.02 199.93 156.14 204.21 158.39 197.29 152.5 193.01 159.78 193.01 162.02 186.09"/>
  <polygon class="cls-1" points="65.75 186.09 68 193.01 75.27 193.01 69.39 197.29 71.63 204.21 65.75 199.93 59.86 204.21 62.11 197.29 56.22 193.01 63.5 193.01 65.75 186.09"/>
  <polygon class="cls-1" points="33.66 150.34 35.9 157.26 43.18 157.26 37.29 161.53 39.54 168.45 33.66 164.18 27.77 168.45 30.02 161.53 24.13 157.26 31.41 157.26 33.66 150.34"/>
  <polygon class="cls-1" points="33.66 57.72 35.9 64.64 43.18 64.64 37.29 68.92 39.54 75.84 33.66 71.56 27.77 75.84 30.02 68.92 24.13 64.64 31.41 64.64 33.66 57.72"/>
  <polygon class="cls-1" points="65.75 23.94 68 30.86 75.27 30.86 69.39 35.14 71.63 42.06 65.75 37.78 59.86 42.06 62.11 35.14 56.22 30.86 63.5 30.86 65.75 23.94"/>
  <polygon class="cls-1" points="20.99 104.83 23.24 111.75 30.51 111.75 24.63 116.02 26.87 122.95 20.99 118.67 15.1 122.95 17.35 116.02 11.46 111.75 18.74 111.75 20.99 104.83"/>
</svg>