<?xml version="1.0" encoding="UTF-8"?>
<svg id="Calque_1" data-name="Calque 1" xmlns="http://www.w3.org/2000/svg" xmlns:xlink="http://www.w3.org/1999/xlink" viewBox="0 0 30 30">
  <defs>
    <style>
      .cls-1, .cls-2 {
        fill: #fff;
      }

      .cls-3 {
        opacity: .1;
      }

      .cls-3, .cls-4, .cls-5, .cls-2, .cls-6, .cls-7 {
        stroke-width: 0px;
      }

      .cls-3, .cls-7 {
        fill: #1d1d1b;
      }

      .cls-8 {
        clip-path: url(#clippath-2);
      }

      .cls-9 {
        opacity: .8;
      }

      .cls-10 {
        clip-path: url(#clippath-1);
      }

      .cls-5 {
        fill: #a23416;
      }

      .cls-11 {
        clip-path: url(#clippath);
      }

      .cls-6 {
        fill: url(#Nouvelle_nuance_de_dégradé_1);
      }

      .cls-12 {
        clip-path: url(#clippath-3);
      }
    </style>
    <linearGradient id="Nouvelle_nuance_de_dégradé_1" data-name="Nouvelle nuance de dégradé 1" x1="4.39" y1="4.39" x2="25.61" y2="25.61" gradientUnits="userSpaceOnUse">
      <stop offset="0" stop-color="#e7580e"/>
      <stop offset="1" stop-color="#e94e1b"/>
    </linearGradient>
    <clipPath id="clippath">
      <rect class="cls-2" x="5" y="5" width="9" height="9" rx="1" ry="1"/>
    </clipPath>
    <clipPath id="clippath-1">
      <rect class="cls-2" x="16" y="5" width="9" height="9" rx="1" ry="1"/>
    </clipPath>
    <clipPath id="clippath-2">
      <rect class="cls-2" x="16" y="16" width="9" height="9" rx="1" ry="1"/>
    </clipPath>
    <clipPath id="clippath-3">
      <rect class="cls-2" x="5" y="16" width="9" height="9" rx="1" ry="1"/>
    </clipPath>
  </defs>
  <circle class="cls-6" cx="15" cy="15" r="15"/>
  <g class="cls-9">
    <rect class="cls-7" x="5.5" y="5.3" width="9" height="9" rx="1" ry="1"/>
    <rect class="cls-7" x="16.5" y="5.3" width="9" height="9" rx="1" ry="1"/>
    <rect class="cls-7" x="16.5" y="16.3" width="9" height="9" rx="1" ry="1"/>
    <rect class="cls-7" x="5.5" y="16.3" width="9" height="9" rx="1" ry="1"/>
  </g>
  <g>
    <g>
      <rect class="cls-1" x="5" y="5" width="9" height="9" rx="1" ry="1"/>
      <g class="cls-11">
        <polygon class="cls-3" points="15.82 12.34 10.12 6.65 9.59 8.13 9.5 8.05 9.2 9.06 7.79 9.5 8.02 9.76 6.65 10.1 12.93 16.38 15.59 13.12 15.36 12.93 15.82 12.34"/>
      </g>
    </g>
    <g>
      <rect class="cls-1" x="16" y="5" width="9" height="9" rx="1" ry="1"/>
      <g class="cls-10">
        <polygon class="cls-3" points="26.71 13.7 21.89 8.88 21.01 9.37 19.11 10.12 24.82 15.83 26.04 14.15 25.98 14.09 26.71 13.7"/>
      </g>
    </g>
    <g>
      <rect class="cls-1" x="16" y="16" width="9" height="9" rx="1" ry="1"/>
      <g class="cls-8">
        <g>
          <polygon class="cls-7" points="26.55 24.5 26.83 24.23 25.69 24.8 26.16 25.27 26.55 24.5"/>
          <polygon class="cls-3" points="23.33 19.9 23.27 19.91 21.11 17.75 20.5 18.37 19.88 18.99 21.08 20.19 18.66 20.5 17.67 21.1 23.49 26.92 25.58 24.86 25.69 24.8 26.83 24.23 27.38 23.94 23.33 19.9"/>
        </g>
      </g>
    </g>
    <g>
      <rect class="cls-1" x="5" y="16" width="9" height="9" rx="1" ry="1"/>
      <g class="cls-12">
        <path class="cls-3" d="m14.63,24.79l.71-2.87-3.2-3.2s-1.26.93-2.22,1.62l-.17-.16-.38.55c-.31.22-.51.36-.52.36l.18.14-1.31,1.9,4.16,4.16,2.17-1.96.37.31.21-.83.02-.02h-.01Z"/>
      </g>
    </g>
  </g>
  <g>
    <path class="cls-5" d="m10.12,10.1v2.25h-1.25v-2.25h-2.23v-1.2h2.23v-2.26h1.25v2.26h2.23v1.2h-2.23Z"/>
    <path class="cls-5" d="m21.89,10.12h-2.78v-1.23h2.78v1.23Z"/>
    <path class="cls-5" d="m10.36,20.5l1.78,1.78-.86.86-1.79-1.78-1.78,1.78-.86-.86,1.78-1.78-1.78-1.78.86-.87,1.79,1.79,1.78-1.79.86.87-1.78,1.78Z"/>
    <path class="cls-5" d="m17.67,21.1v-1.2h5.67v1.2h-5.67Zm2.83-1.85c-.16,0-.3-.04-.44-.12s-.24-.19-.32-.32-.12-.28-.12-.44.04-.3.11-.43.18-.25.32-.33.29-.12.44-.12.3.04.43.12.25.19.33.33.12.28.12.43-.04.3-.12.44-.19.25-.33.32-.28.11-.43.11Zm0,4.27c-.16,0-.3-.04-.44-.12s-.24-.19-.32-.32-.12-.28-.12-.44.04-.3.11-.43.18-.25.32-.33.29-.12.44-.12.3.04.43.12.25.19.33.33.12.28.12.43-.04.3-.12.44-.19.25-.33.32-.28.11-.43.11Z"/>
  </g>
</svg>