<?xml version="1.0" encoding="UTF-8"?>
<svg id="Calque_5" data-name="Calque 5" xmlns="http://www.w3.org/2000/svg" xmlns:xlink="http://www.w3.org/1999/xlink" viewBox="0 0 30 30">
  <defs>
    <style>
      .cls-1 {
        fill: #008d36;
      }

      .cls-1, .cls-2, .cls-3, .cls-4 {
        stroke-width: 0px;
      }

      .cls-2 {
        fill: #1d1d1b;
        opacity: .8;
      }

      .cls-3 {
        fill: url(#Dégradé_sans_nom_21);
      }

      .cls-4 {
        fill: #fff;
      }

      .cls-5 {
        opacity: .84;
      }
    </style>
    <linearGradient id="Dégradé_sans_nom_21" data-name="Dégradé sans nom 21" x1="4.39" y1="4.39" x2="25.61" y2="25.61" gradientUnits="userSpaceOnUse">
      <stop offset="0" stop-color="#c6cc00"/>
      <stop offset=".29" stop-color="#b3c50a"/>
      <stop offset=".88" stop-color="#84b424"/>
      <stop offset="1" stop-color="#7bb12a"/>
    </linearGradient>
  </defs>
  <path class="cls-3" d="m0,15C0,6.72,6.72,0,15,0s15,6.72,15,15-6.72,15-15,15S0,23.28,0,15"/>
  <path class="cls-2" d="m16.91,12.57c0,3.13-2.54,5.67-5.67,5.67s-5.67-2.54-5.67-5.67,2.54-5.67,5.67-5.67v5.67h5.67Z"/>
  <path class="cls-2" d="m11.62,6.51c3.13,0,5.67,2.54,5.67,5.67h-5.67"/>
  <path class="cls-2" d="m26.27,14.34c-.64,0-1.16.52-1.16,1.16,0,.12.03.23.07.34l-3.18,3.18c-.12-.04-.25-.08-.39-.08-.15,0-.29.03-.42.08l-1.07-1.07c.03-.11.07-.22.07-.34,0-.64-.52-1.16-1.16-1.16s-1.16.52-1.16,1.16c0,.14.03.28.08.41l-3.77,4.2c-.09-.02-.17-.05-.27-.05-.64,0-1.16.52-1.16,1.16s.52,1.16,1.16,1.16,1.16-.52,1.16-1.16c0-.15-.03-.29-.08-.42l3.76-4.19c.09.02.18.06.28.06.12,0,.23-.03.34-.07l1.13,1.13c-.02.09-.05.17-.05.26,0,.64.52,1.16,1.16,1.16s1.16-.52,1.16-1.16c0-.11-.03-.2-.06-.3l3.22-3.22c.11.03.22.07.34.07.64,0,1.16-.52,1.16-1.16s-.52-1.16-1.16-1.16Z"/>
  <path class="cls-4" d="m16.45,12.17c0,3.13-2.54,5.67-5.67,5.67s-5.67-2.54-5.67-5.67,2.54-5.67,5.67-5.67v5.67h5.67Z"/>
  <path class="cls-4" d="m11.15,6.1c3.13,0,5.67,2.54,5.67,5.67h-5.67"/>
  <g class="cls-5">
    <polygon class="cls-1" points="14.11 9.06 13.45 8.4 17.45 4.39 22.5 4.39 22.5 5.32 17.84 5.32 14.11 9.06"/>
    <rect class="cls-1" x="18.14" y="6.33" width="1.03" height=".93"/>
    <rect class="cls-1" x="19.8" y="6.33" width="2.46" height=".93"/>
  </g>
  <path class="cls-4" d="m25.8,13.94c-.64,0-1.16.52-1.16,1.16,0,.12.03.23.07.34l-3.18,3.18c-.12-.04-.25-.08-.39-.08-.15,0-.29.03-.42.08l-1.07-1.07c.03-.11.07-.22.07-.34,0-.64-.52-1.16-1.16-1.16s-1.16.52-1.16,1.16c0,.14.03.28.08.41l-3.77,4.2c-.09-.02-.17-.05-.27-.05-.64,0-1.16.52-1.16,1.16s.52,1.16,1.16,1.16,1.16-.52,1.16-1.16c0-.15-.03-.29-.08-.42l3.76-4.19c.09.02.18.06.28.06.12,0,.23-.03.34-.07l1.13,1.13c-.02.09-.05.17-.05.26,0,.64.52,1.16,1.16,1.16s1.16-.52,1.16-1.16c0-.11-.03-.2-.06-.3l3.22-3.22c.11.03.22.07.34.07.64,0,1.16-.52,1.16-1.16s-.52-1.16-1.16-1.16Z"/>
</svg>