<?xml version="1.0" encoding="UTF-8"?>
<svg id="Calque_6" data-name="Calque 6" xmlns="http://www.w3.org/2000/svg" xmlns:xlink="http://www.w3.org/1999/xlink" viewBox="0 0 30 30">
  <defs>
    <style>
      .cls-1 {
        fill: #9d9d9c;
      }

      .cls-1, .cls-2, .cls-3, .cls-4, .cls-5, .cls-6, .cls-7 {
        stroke-miterlimit: 10;
      }

      .cls-1, .cls-2, .cls-4, .cls-6, .cls-7 {
        stroke: #fff;
      }

      .cls-8 {
        fill: url(#Dégradé_sans_nom_3);
      }

      .cls-8, .cls-9, .cls-10 {
        stroke-width: 0px;
      }

      .cls-2 {
        fill: #878787;
      }

      .cls-2, .cls-3, .cls-6 {
        stroke-width: .68px;
      }

      .cls-3, .cls-5 {
        stroke: #1d1d1b;
      }

      .cls-3, .cls-5, .cls-10 {
        fill: #1d1d1b;
      }

      .cls-11, .cls-5 {
        opacity: .8;
      }

      .cls-4 {
        fill: #b2b2b2;
      }

      .cls-9 {
        fill: #fff;
      }

      .cls-6, .cls-7 {
        fill: none;
      }

      .cls-7 {
        stroke-linecap: round;
        stroke-width: .75px;
      }
    </style>
    <linearGradient id="Dégradé_sans_nom_3" data-name="Dégradé sans nom 3" x1="4.39" y1="4.7" x2="25.61" y2="25.91" gradientUnits="userSpaceOnUse">
      <stop offset="0" stop-color="#a48a7b"/>
      <stop offset=".5" stop-color="#917b6b"/>
      <stop offset="1" stop-color="#7b6a58"/>
    </linearGradient>
  </defs>
  <path class="cls-8" d="m0,15.3C0,7.02,6.72.3,15,.3s15,6.72,15,15-6.72,15-15,15S0,23.59,0,15.3"/>
  <g>
    <circle class="cls-5" cx="10.6" cy="10.13" r="4.21"/>
    <g>
      <circle class="cls-4" cx="10.27" cy="9.8" r="4.21"/>
      <line class="cls-7" x1="10.27" y1="9.8" x2="12.39" y2="9.02"/>
      <line class="cls-7" x1="8.43" y1="7.48" x2="10.27" y2="9.8"/>
    </g>
  </g>
  <g>
    <g class="cls-11">
      <path class="cls-10" d="m24.39,12.82c0,.44-1.28.79-2.86.79s-2.86-.36-2.86-.79v-5.09c0-.44,1.28-.79,2.86-.79s2.86.36,2.86.79v5.09Z"/>
      <path class="cls-10" d="m22.84,5.46c0,.26-.62.29-1.38.29s-1.38-.03-1.38-.29.62-.46,1.38-.46,1.38.21,1.38.46Z"/>
      <path class="cls-10" d="m23.49,7.89c-.94-.64-3.12-.64-4.06,0,.94-.64,1.64-2.14,1.3-2.78.34.64,1.12.64,1.46,0-.34.64.36,2.14,1.3,2.78Z"/>
    </g>
    <g>
      <path class="cls-9" d="m24.12,12.59c0,.44-1.28.79-2.86.79s-2.86-.36-2.86-.79v-5.09c0-.44,1.28-.79,2.86-.79s2.86.36,2.86.79v5.09Z"/>
      <path class="cls-9" d="m22.63,5.23c0,.26-.62.29-1.38.29s-1.38-.03-1.38-.29.62-.46,1.38-.46,1.38.21,1.38.46Z"/>
      <path class="cls-9" d="m23.29,7.66c-.94-.64-3.12-.64-4.06,0,.94-.64,1.64-2.14,1.3-2.78.34.64,1.12.64,1.46,0-.34.64.36,2.14,1.3,2.78Z"/>
    </g>
  </g>
  <g>
    <rect class="cls-5" x="6.16" y="17.87" width="6.57" height="4.18"/>
    <rect class="cls-1" x="5.69" y="17.36" width="6.57" height="4.18"/>
  </g>
  <g>
    <g class="cls-11">
      <path class="cls-3" d="m22.1,25.33c-.05.05-.12.08-.2.08h-5.09c-.08,0-.15-.03-.2-.08s-.08-.12-.08-.2v-5.09c0-.08.03-.15.08-.2l2.83-2.83c.05-.05.12-.08.2-.08h5.09c.08,0,.15.03.2.08s.08.12.08.2v5.09c0,.08-.03.15-.08.2l-2.83,2.83Z"/>
    </g>
    <g>
      <path class="cls-2" d="m21.72,24.98c-.05.05-.12.08-.2.08h-5.09c-.08,0-.15-.03-.2-.08s-.08-.12-.08-.2v-5.09c0-.08.03-.15.08-.2l2.83-2.83c.05-.05.12-.08.2-.08h5.09c.08,0,.15.03.2.08s.08.12.08.2v5.09c0,.08-.03.15-.08.2l-2.83,2.83Z"/>
      <line class="cls-6" x1="21.8" y1="19.4" x2="21.8" y2="24.89"/>
      <line class="cls-6" x1="16.33" y1="19.4" x2="21.8" y2="19.4"/>
      <line class="cls-6" x1="21.74" y1="19.49" x2="24.56" y2="16.67"/>
    </g>
  </g>
</svg>