<?xml version="1.0" encoding="UTF-8"?>
<svg id="Calque_1" data-name="Calque 1" xmlns="http://www.w3.org/2000/svg" viewBox="0 0 96.35 102.79">
  <defs>
    <style>
      .cls-1 {
        stroke-dasharray: 0 0 5.86 5.86;
      }

      .cls-1, .cls-2, .cls-3, .cls-4, .cls-5, .cls-6, .cls-7, .cls-8, .cls-9, .cls-10, .cls-11, .cls-12, .cls-13, .cls-14, .cls-15, .cls-16, .cls-17, .cls-18 {
        fill: none;
        stroke: #1d1d1b;
        stroke-linejoin: round;
      }

      .cls-1, .cls-2, .cls-3, .cls-4, .cls-5, .cls-6, .cls-7, .cls-8, .cls-9, .cls-10, .cls-11, .cls-12, .cls-13, .cls-14, .cls-16, .cls-17, .cls-18 {
        stroke-linecap: round;
      }

      .cls-2 {
        stroke-dasharray: 0 0 5.66 5.66;
      }

      .cls-3 {
        stroke-dasharray: 0 0 6 6;
      }

      .cls-4 {
        stroke-dasharray: 0 0 6.85 6.85;
      }

      .cls-5 {
        stroke-dasharray: 0 0 5.03 5.03;
      }

      .cls-6 {
        stroke-dasharray: 0 0 5.49 5.49;
      }

      .cls-7 {
        stroke-dasharray: 0 0 6.03 6.03;
      }

      .cls-8 {
        stroke-dasharray: 0 0 5.53 5.53;
      }

      .cls-9 {
        stroke-dasharray: 0 0 5.69 5.69;
      }

      .cls-10 {
        stroke-dasharray: 0 0 5.79 5.79;
      }

      .cls-11 {
        stroke-dasharray: 0 0 4.7 4.7;
      }

      .cls-13 {
        stroke-dasharray: 0 0 5.91 5.91;
      }

      .cls-14 {
        stroke-dasharray: 0 0 7.25 7.25;
      }

      .cls-16 {
        stroke-dasharray: 0 0 5.96 5.96;
      }

      .cls-17 {
        stroke-dasharray: 0 0 5.73 5.73;
      }

      .cls-18 {
        stroke-dasharray: 0 0 5.75 5.75;
      }
    </style>
  </defs>
  <polygon class="cls-15" points=".5 35.14 4.06 69.65 30.14 71.53 42.52 37.95 24.13 15.07 .5 35.14"/>
  <polygon class="cls-15" points="48.02 .5 24.13 15.07 42.52 37.95 77.59 37.01 80.59 13.57 48.02 .5"/>
  <polygon class="cls-15" points="30.14 71.53 57.33 91.53 86.72 70.28 77.59 37.01 42.52 37.95 30.14 71.53"/>
  <polygon class="cls-15" points="95.85 67.65 92.47 32.89 80.59 13.57 77.59 37.01 86.72 70.28 95.85 67.65"/>
  <polygon class="cls-15" points="48.33 102.29 71.84 87.53 95.85 67.65 86.72 70.28 57.33 91.53 48.33 102.29"/>
  <polygon class="cls-15" points="4.06 69.65 15.44 88.78 48.33 102.29 57.33 91.53 30.14 71.53 4.06 69.65"/>
  <g>
    <polyline class="cls-12" points="41.37 13.4 38.95 11.63 40.85 9.3"/>
    <polyline class="cls-12" points="46.12 2.83 48.02 .5 50.8 1.62"/>
    <polyline class="cls-18" points="56.14 3.76 80.59 13.57 89.39 27.88"/>
    <polyline class="cls-12" points="90.9 30.33 92.47 32.89 89.48 32.72"/>
    <polyline class="cls-3" points="83.48 32.38 65.96 31.39 43.8 15.17"/>
  </g>
  <g>
    <polyline class="cls-12" points="54.99 67.09 53.08 64.77 54.16 61.97"/>
    <line class="cls-16" x1="56.31" y1="56.42" x2="63.81" y2="36.96"/>
    <polyline class="cls-12" points="64.88 34.19 65.96 31.39 68.96 31.56"/>
    <line class="cls-4" x1="75.8" y1="31.94" x2="86.06" y2="32.52"/>
    <polyline class="cls-12" points="89.48 32.72 92.47 32.89 92.76 35.87"/>
    <line class="cls-10" x1="93.32" y1="41.63" x2="95.28" y2="61.78"/>
    <polyline class="cls-12" points="95.56 64.66 95.85 67.65 93.54 69.56"/>
    <line class="cls-5" x1="89.66" y1="72.77" x2="76.09" y2="84.01"/>
    <polyline class="cls-12" points="74.15 85.62 71.84 87.53 69.93 85.22"/>
    <line class="cls-11" x1="66.94" y1="81.59" x2="56.48" y2="68.9"/>
  </g>
  <g>
    <polyline class="cls-12" points="21.44 65.34 18.44 65.4 18.06 68.37"/>
    <line class="cls-1" x1="17.32" y1="74.19" x2="16.2" y2="82.9"/>
    <polyline class="cls-12" points="15.82 85.81 15.44 88.78 18.22 89.92"/>
    <line class="cls-13" x1="23.69" y1="92.17" x2="42.82" y2="100.03"/>
    <polyline class="cls-12" points="45.55 101.15 48.33 102.29 50.87 100.69"/>
    <line class="cls-14" x1="57.01" y1="96.84" x2="66.23" y2="91.05"/>
    <polyline class="cls-12" points="69.3 89.13 71.84 87.53 69.93 85.22"/>
    <line class="cls-11" x1="66.94" y1="81.59" x2="56.48" y2="68.9"/>
    <polyline class="cls-12" points="54.99 67.09 53.08 64.77 50.08 64.83"/>
    <line class="cls-17" x1="44.35" y1="64.93" x2="24.31" y2="65.29"/>
  </g>
  <g>
    <polyline class="cls-12" points="6.78 33.6 9.69 32.89 10.47 35.78"/>
    <polyline class="cls-9" points="11.95 41.28 18.44 65.4 16.19 82.98"/>
    <polyline class="cls-12" points="15.82 85.81 15.44 88.78 13.91 86.2"/>
    <polyline class="cls-2" points="11.02 81.34 4.06 69.65 1.1 40.94"/>
    <polyline class="cls-12" points=".81 38.12 .5 35.14 3.41 34.42"/>
  </g>
  <g>
    <polyline class="cls-12" points="36.52 13.39 38.95 11.63 41.37 13.4"/>
    <line class="cls-6" x1="45.81" y1="16.64" x2="61.32" y2="27.99"/>
    <polyline class="cls-12" points="63.54 29.62 65.96 31.39 64.88 34.19"/>
    <line class="cls-16" x1="62.74" y1="39.74" x2="55.23" y2="59.2"/>
    <polyline class="cls-12" points="54.16 61.97 53.08 64.77 50.08 64.83"/>
    <line class="cls-17" x1="44.35" y1="64.93" x2="24.31" y2="65.29"/>
    <polyline class="cls-12" points="21.44 65.34 18.44 65.4 17.66 62.5"/>
    <line class="cls-8" x1="16.23" y1="57.16" x2="11.19" y2="38.46"/>
    <polyline class="cls-12" points="10.47 35.78 9.69 32.89 12.12 31.12"/>
    <line class="cls-7" x1="17" y1="27.58" x2="34.08" y2="15.17"/>
  </g>
</svg>