<?xml version="1.0" encoding="UTF-8"?>
<svg id="Calque_1" data-name="Calque 1" xmlns="http://www.w3.org/2000/svg" viewBox="0 0 93.55 104.66">
  <defs>
    <style>
      .cls-1 {
        stroke-dasharray: 6;
      }

      .cls-1, .cls-2 {
        fill: none;
        stroke: #1d1d1b;
        stroke-linecap: round;
        stroke-linejoin: round;
        stroke-width: 1;
      }
    </style>
  </defs>
  <polygon class="cls-2" points="13.39 66.76 45.69 22.2 4.07 21.69 13.39 66.76"/>
  <polygon class="cls-2" points="53.61 .5 4.07 21.69 45.69 22.2 53.61 .5"/>
  <polygon class="cls-2" points="93.05 32.16 45.69 22.2 53.61 .5 93.05 32.16"/>
  <polygon class="cls-2" points="68.54 73.14 93.05 32.16 45.69 22.2 68.54 73.14"/>
  <polygon class="cls-2" points="89.48 83.35 68.54 73.14 40.46 104.16 89.48 83.35"/>
  <polygon class="cls-2" points="93.05 32.16 89.48 83.35 68.54 73.14 93.05 32.16"/>
  <polygon class="cls-2" points="13.39 66.76 68.54 73.14 45.69 22.2 13.39 66.76"/>
  <polygon class="cls-2" points=".5 72.5 4.07 21.69 13.39 66.76 .5 72.5"/>
  <polygon class="cls-2" points="40.46 104.16 13.39 66.76 68.54 73.14 40.46 104.16"/>
  <polygon class="cls-2" points=".5 72.5 40.46 104.16 13.39 66.76 .5 72.5"/>
  <polygon class="cls-1" points=".5 72.5 25.52 32.16 4.07 21.69 .5 72.5"/>
  <polygon class="cls-1" points="79.9 37.65 25.52 32.16 53.61 .5 79.9 37.65"/>
  <polygon class="cls-1" points="89.48 83.35 47.48 82.33 79.9 37.65 89.48 83.35"/>
  <line class="cls-1" x1="93.05" y1="32.16" x2="79.9" y2="37.65"/>
  <polyline class="cls-1" points="40.46 104.16 47.48 82.33 25.52 32.16"/>
  <line class="cls-1" x1=".5" y1="72.5" x2="47.48" y2="82.33"/>
</svg>