<svg xmlns="http://www.w3.org/2000/svg" width="4cm" height="4cm" viewBox="0 0 113.39 113.39">
  <title>Volumes</title>
  <g>
    <g>
      <path d="M5.29,91.26A5.49,5.49,0,0,1,5.79,89" fill="none" stroke="#231f20" stroke-miterlimit="10" stroke-width="2"/>
      <path d="M7.34,86.74c6.23-6.7,26-11.59,49.35-11.59,24.61,0,45.17,5.42,50.22,12.65" fill="none" stroke="#231f20" stroke-miterlimit="10" stroke-width="2" stroke-dasharray="4.82 2.75"/>
      <path d="M107.59,89a5.49,5.49,0,0,1,.5,2.26" fill="none" stroke="#231f20" stroke-miterlimit="10" stroke-width="2"/>
    </g>
    <path d="M108.09,22.86V90.53c0,8.9-23,16.11-51.4,16.11S5.29,99.43,5.29,90.53V22.86" fill="none" stroke="#231f20" stroke-miterlimit="10" stroke-width="2"/>
    <ellipse cx="56.69" cy="22.86" rx="51.4" ry="16.11" fill="none" stroke="#231f20" stroke-miterlimit="10" stroke-width="2"/>
  </g>
  <g>
    <line x1="56.69" y1="91.26" x2="57.61" y2="91.67" fill="none" stroke="#231f20" stroke-linecap="round" stroke-miterlimit="10"/>
    <line x1="59.39" y1="92.46" x2="83.49" y2="103.12" fill="none" stroke="#231f20" stroke-linecap="round" stroke-miterlimit="10" stroke-dasharray="1.95 1.95"/>
    <line x1="84.38" y1="103.51" x2="85.3" y2="103.92" fill="none" stroke="#231f20" stroke-linecap="round" stroke-miterlimit="10"/>
  </g>
  <line x1="55.33" y1="89.9" x2="58.05" y2="92.62" fill="none" stroke="#231f20" stroke-linecap="round" stroke-miterlimit="10"/>
  <line x1="58.05" y1="89.9" x2="55.33" y2="92.62" fill="none" stroke="#231f20" stroke-linecap="round" stroke-miterlimit="10"/>
  <g>
    <path d="M34.05,93.79h1.2v8.52h-1.2Zm.53,3.78h2.9a1.13,1.13,0,0,0,.61-.16,1,1,0,0,0,.4-.47,1.66,1.66,0,0,0,0-1.38,1,1,0,0,0-.4-.47,1.11,1.11,0,0,0-.61-.16h-2.9V93.79h2.86a2.67,2.67,0,0,1,1.29.3,2.14,2.14,0,0,1,.87.87,2.57,2.57,0,0,1,.31,1.29,2.67,2.67,0,0,1-.31,1.29,2.21,2.21,0,0,1-.87.87,2.73,2.73,0,0,1-1.29.3H34.58Zm2.32.88,1.19-.27,2.18,4.13H38.85Z" fill="#231f20"/>
    <path d="M41.85,101.94a1.76,1.76,0,0,1-.56-1.42,1.71,1.71,0,0,1,.51-1.35,2.27,2.27,0,0,1,1.54-.45h1.73l.08,1h-1.8a1,1,0,0,0-.7.21.77.77,0,0,0-.23.63.81.81,0,0,0,.3.69,1.61,1.61,0,0,0,.94.22,2.6,2.6,0,0,0,1-.15.47.47,0,0,0,.34-.45l.12.85a1.27,1.27,0,0,1-.39.41,1.66,1.66,0,0,1-.54.23,2.4,2.4,0,0,1-.68.08A2.57,2.57,0,0,1,41.85,101.94ZM45,98.46a1.3,1.3,0,0,0-.32-.93,1.21,1.21,0,0,0-.91-.33,2.45,2.45,0,0,0-.71.11,2.12,2.12,0,0,0-.62.31l-.87-.6a2.27,2.27,0,0,1,.91-.64,3.22,3.22,0,0,1,1.26-.24,2.86,2.86,0,0,1,1.29.27,1.86,1.86,0,0,1,.82.77,2.49,2.49,0,0,1,.28,1.23v3.9H45Z" fill="#231f20"/>
    <path d="M47.15,96.23h1.22l1.87,5.29-.66,1.29Zm5.39,0L50,103.74a1.87,1.87,0,0,1-.37.66,1.34,1.34,0,0,1-.57.35,2.74,2.74,0,0,1-.82.1H48V103.7h.24a.9.9,0,0,0,.53-.13,1.16,1.16,0,0,0,.35-.46l2.25-6.88Z" fill="#231f20"/>
    <path d="M54.45,102.09a2.14,2.14,0,0,1-.86-.9,3.33,3.33,0,0,1-.29-1.44v-1a3.19,3.19,0,0,1,.29-1.41,2.14,2.14,0,0,1,.86-.9,3.12,3.12,0,0,1,2.71,0,2.14,2.14,0,0,1,.86.9,3.19,3.19,0,0,1,.29,1.41v1a3.21,3.21,0,0,1-.29,1.42,2.08,2.08,0,0,1-.86.9,3.12,3.12,0,0,1-2.71,0Zm2.32-1.22a1.61,1.61,0,0,0,.35-1.1v-1a1.59,1.59,0,0,0-.35-1.09,1.21,1.21,0,0,0-1-.39,1.24,1.24,0,0,0-1,.39,1.63,1.63,0,0,0-.34,1.09v1a1.66,1.66,0,0,0,.34,1.1,1.24,1.24,0,0,0,1,.4A1.21,1.21,0,0,0,56.77,100.87Z" fill="#231f20"/>
    <path d="M60,96.23h1.2v6.08H60Zm3.69,2.4a1.42,1.42,0,0,0-.33-1,1.25,1.25,0,0,0-.94-.35,1.22,1.22,0,0,0-.9.31,1.14,1.14,0,0,0-.32.87l-.13-1.17a2.28,2.28,0,0,1,.74-.85,1.78,1.78,0,0,1,1-.3,1.91,1.91,0,0,1,1.54.65,2.77,2.77,0,0,1,.54,1.83v3.69H63.7Z" fill="#231f20"/>
  </g>
  <g>
    <path d="M94.49,73.49v-1.2H103v1.2Zm0,4.84v-1.2H103v1.2Zm3.76-.75V72.85h1.14v4.73Z" fill="none" stroke="#fff" stroke-miterlimit="10" stroke-width="3"/>
    <path d="M99.16,66.87a1.29,1.29,0,0,0-.93.31,1.22,1.22,0,0,0-.33.91,2.15,2.15,0,0,0,.11.71,2.12,2.12,0,0,0,.31.62l-.6.87a2.29,2.29,0,0,1-.65-.91,3.31,3.31,0,0,1-.23-1.25,2.87,2.87,0,0,1,.27-1.3,1.85,1.85,0,0,1,.77-.82,2.47,2.47,0,0,1,1.22-.28H103v1.14ZM102.63,70a1.73,1.73,0,0,1-1.41.55,1.71,1.71,0,0,1-1.35-.51,2.27,2.27,0,0,1-.45-1.54V66.81l1-.08v1.81a1.08,1.08,0,0,0,.2.7.83.83,0,0,0,.64.23.81.81,0,0,0,.69-.31,1.69,1.69,0,0,0,.22-.94,2.67,2.67,0,0,0-.15-1,.48.48,0,0,0-.46-.33l.86-.13a1.49,1.49,0,0,1,.4.39,1.56,1.56,0,0,1,.24.54,2.82,2.82,0,0,1,.08.68A2.56,2.56,0,0,1,102.63,70Z" fill="none" stroke="#fff" stroke-miterlimit="10" stroke-width="3"/>
    <path d="M96.93,60.24V59.05H103v1.19Zm3.7,2.48a1.41,1.41,0,0,0,1-.33,1.2,1.2,0,0,0,.34-.92,1.22,1.22,0,0,0-.31-.9,1.14,1.14,0,0,0-.88-.33l1.27-.08a1.86,1.86,0,0,1,.76.61,1.75,1.75,0,0,1,.3,1,1.92,1.92,0,0,1-.65,1.55,2.71,2.71,0,0,1-1.82.55h-3.7V62.72Z" fill="none" stroke="#fff" stroke-miterlimit="10" stroke-width="3"/>
    <path d="M102.63,56.74a1.81,1.81,0,0,1-1.2.34H95.16v-1.2h6.28a.59.59,0,0,0,.35-.08.31.31,0,0,0,.12-.26V55H103v.7A1.31,1.31,0,0,1,102.63,56.74Zm-5.7,1V55H98v2.75Z" fill="none" stroke="#fff" stroke-miterlimit="10" stroke-width="3"/>
    <path d="M103.1,51.68l-.32.6a2.18,2.18,0,0,1-.92.91,3.23,3.23,0,0,1-1.48.31h-.69a3.62,3.62,0,0,1-1.54-.3,2.08,2.08,0,0,1-1-.88,2.62,2.62,0,0,1-.34-1.38,2.22,2.22,0,0,1,.38-1.3,2.37,2.37,0,0,1,1.11-.82,4.65,4.65,0,0,1,1.72-.29h.4v4.1h-1v-3a2.05,2.05,0,0,0-1.16.38,1.1,1.1,0,0,0-.41.89A1.29,1.29,0,0,0,98.37,52a1.88,1.88,0,0,0,1.26.37h.77a1.57,1.57,0,0,0,1.16-.4,1.5,1.5,0,0,0,.4-1.13,1.84,1.84,0,0,0-.14-.72,2.41,2.41,0,0,0-.41-.64l.78-.78a3.18,3.18,0,0,1,.67,1,2.91,2.91,0,0,1,.24,1.13Z" fill="none" stroke="#fff" stroke-miterlimit="10" stroke-width="3"/>
    <path d="M96.93,43.37V42.18H103v1.19Zm3.7,2.47a1.45,1.45,0,0,0,1-.32,1.21,1.21,0,0,0,.34-.92,1.26,1.26,0,0,0-.31-.91,1.17,1.17,0,0,0-.88-.32l1.27-.08a1.78,1.78,0,0,1,.76.61,1.72,1.72,0,0,1,.3,1,1.94,1.94,0,0,1-.65,1.56,2.77,2.77,0,0,1-1.82.55h-3.7v-1.2Z" fill="none" stroke="#fff" stroke-miterlimit="10" stroke-width="3"/>
    <path d="M98.08,37.42A1.35,1.35,0,0,0,98,38a1.09,1.09,0,0,0,1.18,1.2L98,39.29a2.34,2.34,0,0,1-.85-.73,1.69,1.69,0,0,1-.3-1,2.19,2.19,0,0,1,.12-.75,1.62,1.62,0,0,1,.36-.59l1.05.78A1,1,0,0,0,98.08,37.42Zm-1.15,2.94V39.17H103v1.19Z" fill="none" stroke="#fff" stroke-miterlimit="10" stroke-width="3"/>
  </g>
  <g>
    <path d="M94.49,73.49v-1.2H103v1.2Zm0,4.84v-1.2H103v1.2Zm3.76-.75V72.85h1.14v4.73Z" fill="#231f20"/>
    <path d="M99.16,66.87a1.29,1.29,0,0,0-.93.31,1.22,1.22,0,0,0-.33.91,2.15,2.15,0,0,0,.11.71,2.12,2.12,0,0,0,.31.62l-.6.87a2.29,2.29,0,0,1-.65-.91,3.31,3.31,0,0,1-.23-1.25,2.87,2.87,0,0,1,.27-1.3,1.85,1.85,0,0,1,.77-.82,2.47,2.47,0,0,1,1.22-.28H103v1.14ZM102.63,70a1.73,1.73,0,0,1-1.41.55,1.71,1.71,0,0,1-1.35-.51,2.27,2.27,0,0,1-.45-1.54V66.81l1-.08v1.81a1.08,1.08,0,0,0,.2.7.83.83,0,0,0,.64.23.81.81,0,0,0,.69-.31,1.69,1.69,0,0,0,.22-.94,2.67,2.67,0,0,0-.15-1,.48.48,0,0,0-.46-.33l.86-.13a1.49,1.49,0,0,1,.4.39,1.56,1.56,0,0,1,.24.54,2.82,2.82,0,0,1,.08.68A2.56,2.56,0,0,1,102.63,70Z" fill="#231f20"/>
    <path d="M96.93,60.24V59.05H103v1.19Zm3.7,2.48a1.41,1.41,0,0,0,1-.33,1.2,1.2,0,0,0,.34-.92,1.22,1.22,0,0,0-.31-.9,1.14,1.14,0,0,0-.88-.33l1.27-.08a1.86,1.86,0,0,1,.76.61,1.75,1.75,0,0,1,.3,1,1.92,1.92,0,0,1-.65,1.55,2.71,2.71,0,0,1-1.82.55h-3.7V62.72Z" fill="#231f20"/>
    <path d="M102.63,56.74a1.81,1.81,0,0,1-1.2.34H95.16v-1.2h6.28a.59.59,0,0,0,.35-.08.31.31,0,0,0,.12-.26V55H103v.7A1.31,1.31,0,0,1,102.63,56.74Zm-5.7,1V55H98v2.75Z" fill="#231f20"/>
    <path d="M103.1,51.68l-.32.6a2.18,2.18,0,0,1-.92.91,3.23,3.23,0,0,1-1.48.31h-.69a3.62,3.62,0,0,1-1.54-.3,2.08,2.08,0,0,1-1-.88,2.62,2.62,0,0,1-.34-1.38,2.22,2.22,0,0,1,.38-1.3,2.37,2.37,0,0,1,1.11-.82,4.65,4.65,0,0,1,1.72-.29h.4v4.1h-1v-3a2.05,2.05,0,0,0-1.16.38,1.1,1.1,0,0,0-.41.89A1.29,1.29,0,0,0,98.37,52a1.88,1.88,0,0,0,1.26.37h.77a1.57,1.57,0,0,0,1.16-.4,1.5,1.5,0,0,0,.4-1.13,1.84,1.84,0,0,0-.14-.72,2.41,2.41,0,0,0-.41-.64l.78-.78a3.18,3.18,0,0,1,.67,1,2.91,2.91,0,0,1,.24,1.13Z" fill="#231f20"/>
    <path d="M96.93,43.37V42.18H103v1.19Zm3.7,2.47a1.45,1.45,0,0,0,1-.32,1.21,1.21,0,0,0,.34-.92,1.26,1.26,0,0,0-.31-.91,1.17,1.17,0,0,0-.88-.32l1.27-.08a1.78,1.78,0,0,1,.76.61,1.72,1.72,0,0,1,.3,1,1.94,1.94,0,0,1-.65,1.56,2.77,2.77,0,0,1-1.82.55h-3.7v-1.2Z" fill="#231f20"/>
    <path d="M98.08,37.42A1.35,1.35,0,0,0,98,38a1.09,1.09,0,0,0,1.18,1.2L98,39.29a2.34,2.34,0,0,1-.85-.73,1.69,1.69,0,0,1-.3-1,2.19,2.19,0,0,1,.12-.75,1.62,1.62,0,0,1,.36-.59l1.05.78A1,1,0,0,0,98.08,37.42Zm-1.15,2.94V39.17H103v1.19Z" fill="#231f20"/>
  </g>
</svg>
