<?xml version="1.0" encoding="utf-8"?>
<!-- Generator: Adobe Illustrator 28.0.0, SVG Export Plug-In . SVG Version: 6.00 Build 0)  -->
<svg version="1.1" id="Calque_1" xmlns="http://www.w3.org/2000/svg" xmlns:xlink="http://www.w3.org/1999/xlink" x="0px" y="0px"
	 viewBox="0 0 300.6 258.3" style="enable-background:new 0 0 300.6 258.3;" xml:space="preserve">
<style type="text/css">
	.st0{fill:none;stroke:#878787;stroke-miterlimit:10;}
	.st1{fill:none;stroke:#878787;stroke-linecap:round;stroke-linejoin:round;stroke-miterlimit:10;}
	.st2{fill:none;stroke:#706F6F;stroke-width:3;stroke-linecap:round;stroke-linejoin:round;}
	.st3{fill:none;stroke:#706F6F;stroke-width:3;stroke-linecap:round;stroke-linejoin:round;stroke-dasharray:5.76,5.76;}
	.st4{fill:none;stroke:#706F6F;stroke-width:3;stroke-linecap:round;stroke-linejoin:round;stroke-dasharray:5.8788,5.8788;}
	.st5{fill:none;stroke:#706F6F;stroke-width:3;stroke-linecap:round;stroke-linejoin:round;stroke-dasharray:5.8862,5.8862;}
	.st6{fill:none;stroke:#000000;stroke-width:3;stroke-linecap:round;stroke-linejoin:round;stroke-miterlimit:10;}
	.st7{fill:none;stroke:#000000;stroke-linecap:round;stroke-linejoin:round;stroke-miterlimit:10;}
	.st8{fill:none;stroke:#000000;stroke-miterlimit:10;}
	.st9{fill:none;stroke:#E30613;stroke-width:2;stroke-linecap:round;stroke-linejoin:round;}
	.st10{fill:none;stroke:#E30613;stroke-width:2;stroke-linecap:round;stroke-linejoin:round;stroke-dasharray:4.0276,4.0276;}
	.st11{fill:none;stroke:#E30613;stroke-width:2;stroke-linecap:round;stroke-linejoin:round;stroke-dasharray:3.9442,3.9442;}
	.st12{fill:#E30613;}
</style>
<line class="st0" x1="87.8" y1="115.3" x2="287.8" y2="115.3"/>
<line class="st0" x1="87.8" y1="65.3" x2="287.8" y2="65.3"/>
<line class="st1" x1="62.8" y1="240.3" x2="137.8" y2="165.3"/>
<g>
	<g>
		<line class="st2" x1="87.8" y1="165.3" x2="87.8" y2="162.3"/>
		<line class="st3" x1="87.8" y1="156.6" x2="87.8" y2="21.2"/>
		<line class="st2" x1="87.8" y1="18.3" x2="87.8" y2="15.3"/>
	</g>
</g>
<g>
	<g>
		<line class="st2" x1="287.8" y1="165.3" x2="284.8" y2="165.3"/>
		<polyline class="st4" points="278.9,165.3 237.8,165.3 187.8,165.3 137.8,165.3 93.7,165.3 		"/>
		<line class="st2" x1="90.8" y1="165.3" x2="87.8" y2="165.3"/>
	</g>
</g>
<line class="st1" x1="112.8" y1="240.3" x2="187.8" y2="165.3"/>
<line class="st1" x1="162.8" y1="240.3" x2="237.8" y2="165.3"/>
<line class="st1" x1="137.8" y1="165.3" x2="137.8" y2="15.3"/>
<line class="st1" x1="187.8" y1="165.3" x2="187.8" y2="15.3"/>
<line class="st1" x1="237.8" y1="165.3" x2="237.8" y2="15.3"/>
<line class="st1" x1="12.8" y1="140.3" x2="87.8" y2="65.3"/>
<line class="st1" x1="12.8" y1="190.3" x2="87.8" y2="115.3"/>
<g>
	<g>
		<line class="st2" x1="87.8" y1="165.3" x2="85.7" y2="167.4"/>
		<line class="st5" x1="81.5" y1="171.6" x2="17" y2="236.1"/>
		<line class="st2" x1="14.9" y1="238.2" x2="12.8" y2="240.3"/>
	</g>
</g>
<line class="st0" x1="37.8" y1="215.3" x2="37.8" y2="65.3"/>
<line class="st0" x1="62.8" y1="190.3" x2="62.8" y2="40.3"/>
<line class="st6" x1="287.8" y1="15.3" x2="287.8" y2="165.3"/>
<polyline class="st6" points="87.8,15.3 137.8,15.3 187.8,15.3 237.8,15.3 287.8,15.3 "/>
<line class="st0" x1="37.8" y1="215.3" x2="237.8" y2="215.3"/>
<line class="st0" x1="62.8" y1="190.3" x2="262.8" y2="190.3"/>
<line class="st6" x1="12.8" y1="240.3" x2="12.8" y2="90.3"/>
<polyline class="st6" points="212.8,240.3 162.8,240.3 112.8,240.3 62.8,240.3 12.8,240.3 "/>
<line class="st6" x1="212.8" y1="90.3" x2="212.8" y2="240.3"/>
<polyline class="st6" points="12.8,90.3 62.8,90.3 112.8,90.3 162.8,90.3 212.8,90.3 "/>
<line class="st6" x1="87.8" y1="15.3" x2="12.8" y2="90.3"/>
<line class="st6" x1="287.8" y1="15.3" x2="212.8" y2="90.3"/>
<line class="st6" x1="287.8" y1="165.3" x2="212.8" y2="240.3"/>
<line class="st7" x1="62.8" y1="90.3" x2="62.8" y2="240.3"/>
<line class="st7" x1="112.8" y1="90.3" x2="112.8" y2="240.3"/>
<line class="st7" x1="162.8" y1="90.3" x2="162.8" y2="240.3"/>
<line class="st7" x1="62.8" y1="90.3" x2="137.8" y2="15.3"/>
<line class="st7" x1="112.8" y1="90.3" x2="187.8" y2="15.3"/>
<line class="st7" x1="162.8" y1="90.3" x2="237.8" y2="15.3"/>
<line class="st7" x1="12.8" y1="140.3" x2="212.8" y2="140.3"/>
<line class="st7" x1="12.8" y1="190.3" x2="212.8" y2="190.3"/>
<line class="st8" x1="212.8" y1="190.3" x2="287.8" y2="115.3"/>
<line class="st8" x1="212.8" y1="140.3" x2="287.8" y2="65.3"/>
<line class="st8" x1="237.8" y1="215.3" x2="237.8" y2="65.3"/>
<line class="st8" x1="262.8" y1="190.3" x2="262.8" y2="40.3"/>
<line class="st8" x1="37.8" y1="65.3" x2="237.8" y2="65.3"/>
<line class="st8" x1="62.8" y1="40.3" x2="262.8" y2="40.3"/>
<g>
	<g>
		<line class="st9" x1="12.8" y1="240.3" x2="14.8" y2="240.3"/>
		<polyline class="st10" points="18.8,240.3 62.8,240.3 110,193.1 		"/>
		<polyline class="st9" points="111.4,191.7 112.9,190.3 112.9,188.3 		"/>
		<line class="st11" x1="112.9" y1="184.3" x2="112.8" y2="44.3"/>
		<line class="st9" x1="112.8" y1="42.3" x2="112.8" y2="40.3"/>
	</g>
</g>
<g>
	<g>
		<path class="st12" d="M109.2,36.9c-0.5-0.1-0.9-0.3-1.4-0.5c-0.4-0.2-0.8-0.5-1.2-0.8l1-1.2c0.4,0.4,0.9,0.7,1.4,0.8
			c0.5,0.2,1.1,0.3,1.7,0.3c0.8,0,1.5-0.2,1.9-0.5s0.7-0.7,0.7-1.3v0c0-0.4-0.1-0.7-0.3-0.9c-0.2-0.2-0.5-0.4-0.8-0.5
			c-0.3-0.1-0.7-0.2-1.3-0.3c0,0,0,0-0.1,0c0,0,0,0-0.1,0l-0.1,0c-0.8-0.1-1.4-0.3-1.9-0.4s-0.9-0.5-1.2-0.9
			c-0.3-0.4-0.5-1.1-0.5-1.9v0c0-0.7,0.2-1.3,0.5-1.8c0.3-0.5,0.8-0.9,1.4-1.1c0.6-0.3,1.3-0.4,2.2-0.4c0.4,0,0.8,0,1.2,0.1
			c0.4,0.1,0.8,0.2,1.2,0.4c0.4,0.2,0.8,0.4,1.1,0.7l-0.9,1.3c-0.4-0.3-0.9-0.6-1.3-0.7c-0.4-0.2-0.9-0.2-1.3-0.2
			c-0.8,0-1.4,0.2-1.8,0.5c-0.4,0.3-0.6,0.7-0.6,1.3v0c0,0.4,0.1,0.7,0.3,0.9c0.2,0.2,0.5,0.4,0.8,0.5c0.3,0.1,0.8,0.2,1.4,0.3
			c0,0,0,0,0.1,0c0,0,0,0,0.1,0c0,0,0.1,0,0.1,0c0,0,0.1,0,0.1,0c0.7,0.1,1.3,0.3,1.7,0.5c0.5,0.2,0.8,0.5,1.2,0.9
			c0.3,0.4,0.5,1,0.5,1.8v0c0,0.7-0.2,1.3-0.5,1.8s-0.8,0.9-1.4,1.1c-0.6,0.3-1.4,0.4-2.3,0.4C110.2,37.1,109.7,37,109.2,36.9z"/>
	</g>
</g>
<g>
	<g>
		<path d="M3.1,252.5c-0.6-0.3-1.1-0.8-1.4-1.5c-0.3-0.6-0.5-1.4-0.5-2.2v-3.2c0-0.8,0.2-1.6,0.5-2.2c0.3-0.6,0.8-1.1,1.4-1.5
			c0.6-0.3,1.3-0.5,2.1-0.5c0.8,0,1.5,0.2,2.1,0.5c0.6,0.3,1.1,0.8,1.4,1.5c0.3,0.6,0.5,1.4,0.5,2.2v3.2c0,0.8-0.2,1.6-0.5,2.2
			c-0.3,0.6-0.8,1.1-1.4,1.5C6.7,252.9,6,253,5.2,253C4.4,253,3.7,252.9,3.1,252.5z M6.4,251.2c0.4-0.2,0.6-0.5,0.8-0.9
			c0.2-0.4,0.3-0.8,0.3-1.3v-3.3c0-0.5-0.1-1-0.3-1.3c-0.2-0.4-0.5-0.7-0.8-0.9C6,243.1,5.6,243,5.2,243s-0.9,0.1-1.2,0.3
			c-0.4,0.2-0.6,0.5-0.8,0.9c-0.2,0.4-0.3,0.8-0.3,1.3v3.3c0,0.5,0.1,1,0.3,1.3c0.2,0.4,0.5,0.7,0.8,0.9c0.4,0.2,0.8,0.3,1.2,0.3
			S6,251.4,6.4,251.2z"/>
	</g>
</g>
<g>
	<g>
		<path d="M63.6,253.9H62v-11.4h1.6V253.9z"/>
	</g>
</g>
<g>
	<g>
		<path d="M215.8,241.6h1.4l4.2,11.4h-1.7l-3.1-9.2l-3.1,9.2h-1.7L215.8,241.6z M213.6,248.9h6v1.5h-6V248.9z"/>
	</g>
</g>
<g>
	<g>
		<path d="M291.7,158.9h1.6v11.4h-1.6V158.9z M292.6,168.8h3.1c0.8,0,1.4-0.2,1.8-0.5c0.4-0.3,0.6-0.7,0.6-1.3v0
			c0-0.4-0.1-0.7-0.2-1c-0.1-0.3-0.3-0.5-0.6-0.6c-0.3-0.1-0.7-0.2-1.1-0.2h-3.5v-1.4h3.5c0.6,0,1-0.1,1.3-0.4
			c0.3-0.3,0.4-0.7,0.4-1.2c0-0.6-0.2-1-0.5-1.3c-0.3-0.3-0.8-0.4-1.5-0.4h-3.2v-1.5h3.5c0.7,0,1.3,0.1,1.8,0.4
			c0.5,0.2,0.9,0.6,1.1,1.1c0.2,0.5,0.4,1,0.4,1.6c0,0.4-0.1,0.8-0.2,1.1c-0.2,0.3-0.4,0.6-0.7,0.9c-0.3,0.2-0.7,0.4-1.2,0.5
			c0.5,0.1,0.9,0.2,1.2,0.5c0.3,0.3,0.6,0.6,0.8,1c0.2,0.4,0.3,0.8,0.3,1.2v0c0,0.6-0.1,1.2-0.4,1.6c-0.3,0.5-0.7,0.8-1.2,1.1
			c-0.5,0.3-1.1,0.4-1.8,0.4h-3.7V168.8z"/>
	</g>
</g>
<g>
	<g>
		<path d="M77.1,165.9c-0.6-0.3-1.1-0.8-1.4-1.5s-0.5-1.4-0.5-2.2v-3.1c0-0.8,0.2-1.6,0.5-2.2s0.8-1.1,1.4-1.5
			c0.6-0.4,1.3-0.5,2.1-0.5c0.7,0,1.2,0.1,1.8,0.4c0.5,0.3,1,0.7,1.4,1.2c0.4,0.5,0.6,1.1,0.7,1.8h-1.6c-0.1-0.4-0.3-0.7-0.5-0.9
			c-0.2-0.3-0.5-0.5-0.8-0.6c-0.3-0.2-0.6-0.2-1-0.2c-0.5,0-0.9,0.1-1.2,0.3c-0.3,0.2-0.6,0.5-0.8,0.9c-0.2,0.4-0.3,0.9-0.3,1.4v3.1
			c0,0.5,0.1,1,0.3,1.4c0.2,0.4,0.5,0.7,0.8,0.9c0.3,0.2,0.8,0.3,1.2,0.3c0.3,0,0.7-0.1,1-0.2c0.3-0.1,0.6-0.3,0.8-0.6
			c0.2-0.3,0.4-0.6,0.5-1h1.6c-0.1,0.7-0.4,1.3-0.8,1.8c-0.4,0.5-0.8,0.9-1.4,1.2c-0.5,0.3-1.1,0.4-1.8,0.4
			C78.4,166.4,77.7,166.3,77.1,165.9z"/>
	</g>
</g>
<g>
	<g>
		<path d="M28.9,215.1c-0.5-0.2-0.9-0.6-1.2-1l1.3-0.9c0.1,0.3,0.4,0.5,0.6,0.6c0.3,0.1,0.6,0.2,1,0.2c0.6,0,1.1-0.2,1.4-0.6
			c0.3-0.4,0.5-0.9,0.5-1.6V204h1.6v7.8c0,0.8-0.1,1.5-0.4,2c-0.3,0.6-0.7,1-1.2,1.3c-0.5,0.3-1.2,0.4-1.9,0.4
			C29.9,215.4,29.4,215.3,28.9,215.1z"/>
	</g>
</g>
<g>
	<g>
		<path d="M1.5,182.8h1.6v11.4H1.5V182.8z M2.8,189.2l5-6.4h2l-7.2,8.8L2.8,189.2z M4.7,188.1l1.3-1.2l4.3,7.2h-2L4.7,188.1z"/>
	</g>
</g>
<g>
	<g>
		<path d="M2,82.3h1.6v11.4H2V82.3z M3,92.2h2.6c0.8,0,1.5-0.2,1.9-0.7c0.5-0.4,0.7-1,0.7-1.8v-3.3c0-0.8-0.2-1.4-0.7-1.8
			c-0.5-0.4-1.1-0.7-1.9-0.7H3v-1.5h2.5c0.9,0,1.7,0.2,2.3,0.5c0.6,0.3,1.1,0.8,1.5,1.4c0.3,0.6,0.5,1.3,0.5,2.2v3.2
			c0,0.9-0.2,1.6-0.5,2.2c-0.3,0.6-0.8,1.1-1.5,1.4c-0.6,0.3-1.4,0.5-2.3,0.5H3V92.2z"/>
	</g>
</g>
<g>
	<g>
		<path d="M86.4,7.6v2c0,0.8-0.2,1.6-0.5,2.2c-0.3,0.6-0.8,1.1-1.4,1.5s-1.3,0.5-2.1,0.5c-0.8,0-1.5-0.2-2.1-0.5
			c-0.6-0.3-1.1-0.8-1.4-1.4c-0.3-0.6-0.5-1.3-0.5-2.1V6.4c0-0.8,0.2-1.6,0.5-2.2s0.8-1.1,1.4-1.5s1.3-0.5,2.1-0.5
			c0.7,0,1.3,0.1,1.8,0.4c0.5,0.3,1,0.7,1.4,1.2c0.4,0.5,0.6,1.1,0.8,1.8h-1.7c-0.1-0.4-0.3-0.7-0.5-1c-0.2-0.3-0.5-0.5-0.8-0.6
			c-0.3-0.1-0.6-0.2-0.9-0.2c-0.5,0-0.9,0.1-1.2,0.3c-0.4,0.2-0.6,0.5-0.8,0.9C80.1,5.4,80,5.9,80,6.4v3.4c0,0.5,0.1,0.9,0.3,1.3
			c0.2,0.4,0.5,0.7,0.8,0.9c0.4,0.2,0.8,0.3,1.3,0.3c0.5,0,0.9-0.1,1.2-0.3c0.4-0.2,0.6-0.5,0.8-0.9c0.2-0.4,0.3-0.9,0.3-1.4V9.1
			h-2.3V7.6H86.4z"/>
	</g>
</g>
<g>
	<g>
		<path d="M217.4,90.3h1.6v11.4h-1.6V90.3z M218.2,90.3h6.5v1.5h-6.5V90.3z M218.2,95.2h5.7v1.5h-5.7V95.2z M218.2,100.1h6.5v1.5
			h-6.5V100.1z"/>
	</g>
</g>
<g>
	<g>
		<path d="M291.5,5.7h1.6V17h-1.6V5.7z M292.3,5.7h6.4v1.5h-6.4V5.7z M292.3,10.7h5.5v1.5h-5.5V10.7z"/>
	</g>
</g>
</svg>
