<svg xmlns="http://www.w3.org/2000/svg" version="1.1" xmlns:xlink="http://www.w3.org/1999/xlink" xmlns:svgjs="http://svgjs.dev/svgjs" width="360" height="360"><line x1="30" y1="330" x2="330" y2="30" stroke-linecap="round" stroke-width="3" stroke="#ff0066"></line><svg id="lobster2" data-name="Calque 1" xmlns="http://www.w3.org/2000/svg" viewBox="0 0 150 150" width="150" height="150" transform="matrix(-6.123233995736766e-17,-1,-1,6.123233995736766e-17,330.00037384033203,330.00037384033203)">
  <g id="g3940">
    <g id="g3942">
      <g id="g3944">
        <g id="g3950">
          <path id="path3952" d="m76.49,134.67l.77,4.69-17.67,2.47c-13.19,1.84-25.58-6.55-27.58-18.69l-.77-4.69,17.67-2.47c13.19-1.84,25.58,6.55,27.58,18.69" style="fill: #2fc0ff; fill-rule: evenodd;"></path>
        </g>
        <g id="g3954">
          <path id="path3956" d="m.28,145.31l.77,4.69,17.67-2.47c13.19-1.84,22.31-13.24,20.31-25.38l-.77-4.69-17.67,2.47c-13.19,1.84-22.31,13.24-20.31,25.38" style="fill: #29abe2; fill-rule: evenodd;"></path>
        </g>
        <g id="g3958">
          <path id="path3960" d="m118.25,26.11c-1.31.61-2.9.13-3.56-1.07-.66-1.2-.14-2.67,1.16-3.28l15.9-7.42c1.17-.55,1.99-1.48,2.37-2.56.38-1.07.32-2.27-.28-3.35l-.22-.4c-.59-1.08-1.61-1.83-2.78-2.18-1.16-.35-2.47-.29-3.64.25L44.07,44.91c-1.31.61-2.9.13-3.57-1.07-.66-1.2-.14-2.67,1.17-3.28L124.81,1.74c2.48-1.16,5.24-1.28,7.69-.54,2.45.74,4.6,2.33,5.86,4.61l.22.4c1.26,2.28,1.39,4.82.59,7.08-.8,2.26-2.54,4.24-5.01,5.39l-15.9,7.42Z" style="fill: #00e1ff; fill-rule: evenodd;"></path>
        </g>
        <g id="g3962">
          <path id="path3964" d="m92.15,28.5c7.63-3.73,11.12-11.52,7.8-17.54l-14.22,6.64,6.1,11.05.32-.15Z" style="fill: #29abe2; fill-rule: evenodd;"></path>
        </g>
        <g id="g3966">
          <path id="path3968" d="m72.6,48.2l-5.45-9.88c-.95-1.73-1.05-3.66-.44-5.38.61-1.72,1.93-3.23,3.81-4.11l5.11-2.39-5.6-10.15-5.11,2.39c-4.92,2.3-8.37,6.24-9.97,10.73-1.59,4.49-1.34,9.54,1.16,14.07l5.44,9.87c3.94,7.15,14.98,2,11.04-5.15" style="fill: #2e3192; fill-rule: evenodd;"></path>
        </g>
        <g id="g3970">
          <path id="path3972" d="m102.31,7.61c-4.09-7.42-15.14-9.82-24.68-5.37-9.54,4.45-13.95,14.08-9.86,21.5,4.09,7.42,15.14,9.82,24.68,5.37h0s-6.93-12.57-6.93-12.57l-.48-.86,17.27-8.06Z" style="fill: #0071bc; fill-rule: evenodd;"></path>
        </g>
        <g id="g3974">
          <path id="path3976" d="m21.1,104.26l3.61,18.66c.3,1.55,1.21,2.79,2.67,3.61,1.46.83,3.06,1.03,4.71.58l6.92-1.89c6.35-1.73,10.07-7.77,8.43-13.67l-1.05-3.77-25.29-3.52Z" style="fill: #2e3192; fill-rule: evenodd;"></path>
        </g>
        <g id="g3978">
          <path id="path3980" d="m32.09,127.11l6.92-1.89c6.35-1.73,10.07-7.77,8.43-13.67l-1.05-3.77-25.29-3.52,4.94,5.3c2.48,2.66,9.82,5.17,13.64,5.16,3.83-.01,4.3,3.7.31,6.62l-7.9,5.76Z" style="fill: #1b1464; fill-rule: evenodd;"></path>
        </g>
        <g id="g3982">
          <path id="path3984" d="m28.69,75.47l-8.38,24.13c-.7,2.01-.46,3.99.71,5.81,1.16,1.82,2.93,2.97,5.17,3.38l9.46,1.74c8.68,1.6,17.17-3.4,19.24-11.32l1.32-5.05-27.51-18.68Z" style="fill: #0071bc; fill-rule: evenodd;"></path>
        </g>
        <g id="g3986">
          <path id="path3988" d="m26.18,108.78l9.46,1.74c8.68,1.6,17.17-3.4,19.24-11.32l1.32-5.05-27.51-18.68,2.25,9.11c1.13,4.56,8.1,11.75,12.62,13.93,4.54,2.19,2.57,6.85-4.13,8l-13.24,2.28Z" style="fill: #2e3192; fill-rule: evenodd;"></path>
        </g>
        <g id="g3990">
          <path id="path3992" d="m52.38,51.23l-22.34,21c-1.86,1.75-2.73,3.91-2.55,6.36.18,2.44,1.35,4.48,3.45,5.99l8.83,6.34c8.09,5.81,19.73,4.7,26.35-2.52l4.22-4.61-17.95-32.55Z" style="fill: #29abe2; fill-rule: evenodd;"></path>
        </g>
        <g id="g3994">
          <path id="path3996" d="m30.93,84.57l8.83,6.34c8.09,5.81,19.7,4.67,26.35-2.52l8.05-8.71-21.77-28.45,9.15,23.57c1.3,3.35.82,6.76-1.37,9.7-2.19,2.93-5.48,4.57-9.35,4.65-1.6.03-3.24-.16-4.86-.59l-15.02-3.98Z" style="fill: #0071bc; fill-rule: evenodd;"></path>
        </g>
        <g id="g3998">
          <path id="path4000" d="m118.71,18.19l.13.23c11.59,21.01,2.41,46.85-20.43,57.51l-12.53,5.85c-7.3,3.41-16.26.71-19.97-6l-14.45-26.2,67.24-31.39Z" style="fill: #2fc0ff; fill-rule: evenodd;"></path>
        </g>
        <g id="g4002">
          <path id="path4004" d="m118.71,18.19l.13.23c11.59,21.01,2.41,46.85-20.43,57.51l-12.53,5.85c-7.3,3.41-16.26.71-19.97-6l-14.45-26.2,12.73,17.44c4.76,6.52,13.93,8.72,21.54,5.17l13.44-6.28c16.47-7.69,25.71-23.26,19.53-47.73" style="fill: #29abe2; fill-rule: evenodd;"></path>
        </g>
        <g id="g4006">
          <path id="path4008" d="m95.67,37.65h0c1.3,2.36.27,5.27-2.29,6.46l-24.65,11.51c-2.56,1.2-5.72.25-7.02-2.11h0c-1.3-2.36-.27-5.27,2.29-6.46l24.65-11.51c2.56-1.2,5.72-.25,7.02,2.11" style="fill: #00e1ff; fill-rule: evenodd;"></path>
        </g>
        <g id="g4010">
          <path id="path4012" d="m110.85,30.74c1.79,3.24.38,7.21-3.14,8.85-3.53,1.65-7.83.35-9.62-2.89-1.79-3.24-.38-7.21,3.14-8.85,3.52-1.65,7.83-.35,9.62,2.89" style="fill: #29abe2; fill-rule: evenodd;"></path>
        </g>
        <g id="g4014">
          <path id="path4016" d="m107.97,32.09c.98,1.78.21,3.96-1.73,4.86-1.93.9-4.3.19-5.28-1.59-.98-1.78-.21-3.96,1.73-4.86,1.94-.9,4.3-.19,5.28,1.59" style="fill: #262626; fill-rule: evenodd;"></path>
        </g>
        <g id="g4018">
          <path id="path4020" d="m107.1,33.36c.42.76.09,1.7-.74,2.08-.83.39-1.84.08-2.26-.68-.42-.76-.09-1.7.74-2.08.83-.39,1.84-.08,2.26.68" style="fill: #ebebeb; fill-rule: evenodd;"></path>
        </g>
        <g id="g4022">
          <path id="path4024" d="m51.3,59.55h0c1.35,1.21,1.38,3.22.06,4.46l-12.67,11.94c-1.32,1.24-3.5,1.27-4.85.05-1.35-1.21-1.37-3.22-.06-4.46l12.67-11.94c1.32-1.24,3.5-1.27,4.85-.05" style="fill: #2fc0ff; fill-rule: evenodd;"></path>
        </g>
        <g id="g4026">
          <path id="path4028" d="m29.49,86.78h0c1.33.38,2.09,1.7,1.67,2.93l-3.99,11.81c-.42,1.23-1.85,1.92-3.18,1.54h0c-1.33-.38-2.09-1.7-1.67-2.93l3.99-11.81c.42-1.23,1.84-1.92,3.18-1.54" style="fill: #29abe2; fill-rule: evenodd;"></path>
        </g>
        <g id="g4030">
          <path id="path4032" d="m26.3,112.45h0c.95-.15,1.85.44,2.02,1.31l1.57,8.37c.16.87-.48,1.7-1.42,1.85h0c-.95.15-1.85-.44-2.02-1.31l-1.57-8.37c-.16-.87.48-1.7,1.42-1.85" style="fill: #0071bc; fill-rule: evenodd;"></path>
        </g>
        <g id="g4034">
          <path id="path4036" d="m88.24,71.17c2.19,3.97.47,8.83-3.85,10.85-4.32,2.02-9.6.43-11.79-3.54-2.19-3.97-.47-8.83,3.85-10.85,4.32-2.02,9.6-.43,11.79,3.54" style="fill: #29abe2; fill-rule: evenodd;"></path>
        </g>
        <g id="g4038">
          <path id="path4040" d="m114.95,69.85c7.78-3.46,16.67-1.46,19.99,4.57l-14.21,6.64-6.1-11.05.32-.15Z" style="fill: #2fc0ff; fill-rule: evenodd;"></path>
        </g>
        <g id="g4042">
          <path id="path4044" d="m86.13,72.73l5.45,9.88c.95,1.73,2.59,2.94,4.47,3.5,1.87.56,3.98.48,5.85-.4l5.11-2.39,5.6,10.16-5.11,2.39c-4.92,2.3-10.41,2.54-15.29,1.07-4.88-1.47-9.16-4.64-11.66-9.17l-5.44-9.88c-3.94-7.15,7.09-12.3,11.04-5.15" style="fill: #0071bc; fill-rule: evenodd;"></path>
        </g>
        <g id="g4046">
          <path id="path4048" d="m139.27,74.64c4.09,7.42-.32,17.04-9.86,21.5-9.54,4.45-20.59,2.05-24.68-5.37-4.09-7.42.32-17.04,9.86-21.5h0s6.93,12.57,6.93,12.57l.48.86,17.27-8.06Z" style="fill: #29abe2; fill-rule: evenodd;"></path>
        </g>
        <g id="g4050">
          <path id="path4052" d="m119.24,27.9c-1.31.61-1.83,2.08-1.17,3.28.66,1.2,2.26,1.68,3.56,1.07l15.9-7.42c1.17-.55,2.48-.6,3.64-.25,1.16.35,2.18,1.11,2.78,2.18l.22.4c.59,1.08.66,2.28.28,3.35-.38,1.07-1.2,2.01-2.37,2.56l-83.14,38.82c-1.31.61-1.83,2.08-1.17,3.28.66,1.2,2.26,1.68,3.57,1.07l83.14-38.82c2.48-1.16,4.21-3.13,5.01-5.39.8-2.26.67-4.8-.59-7.08l-.22-.4c-1.26-2.28-3.41-3.88-5.86-4.61-2.45-.74-5.21-.62-7.69.54l-15.9,7.42Z" style="fill: #00e1ff; fill-rule: evenodd;"></path>
        </g>
      </g>
    </g>
  </g>
</svg><svg id="lobster" data-name="Calque 1" xmlns="http://www.w3.org/2000/svg" viewBox="0 0 150 150" width="150" height="150" transform="matrix(1,0,0,1,30,30)">
  <g id="g3940">
    <g id="g3942">
      <g id="g3944">
        <g id="g3950">
          <path id="path3952" d="m76.49,134.67l.77,4.69-17.67,2.47c-13.19,1.84-25.58-6.55-27.58-18.69l-.77-4.69,17.67-2.47c13.19-1.84,25.58,6.55,27.58,18.69" style="fill: #c30; fill-rule: evenodd;"></path>
        </g>
        <g id="g3954">
          <path id="path3956" d="m.28,145.31l.77,4.69,17.67-2.47c13.19-1.84,22.31-13.24,20.31-25.38l-.77-4.69-17.67,2.47c-13.19,1.84-22.31,13.24-20.31,25.38" style="fill: #ad2b00; fill-rule: evenodd;"></path>
        </g>
        <g id="g3958">
          <path id="path3960" d="m118.25,26.11c-1.31.61-2.9.13-3.56-1.07-.66-1.2-.14-2.67,1.16-3.28l15.9-7.42c1.17-.55,1.99-1.48,2.37-2.56.38-1.07.32-2.27-.28-3.35l-.22-.4c-.59-1.08-1.61-1.83-2.78-2.18-1.16-.35-2.47-.29-3.64.25L44.07,44.91c-1.31.61-2.9.13-3.57-1.07-.66-1.2-.14-2.67,1.17-3.28L124.81,1.74c2.48-1.16,5.24-1.28,7.69-.54,2.45.74,4.6,2.33,5.86,4.61l.22.4c1.26,2.28,1.39,4.82.59,7.08-.8,2.26-2.54,4.24-5.01,5.39l-15.9,7.42Z" style="fill: #f03c00; fill-rule: evenodd;"></path>
        </g>
        <g id="g3962">
          <path id="path3964" d="m92.15,28.5c7.63-3.73,11.12-11.52,7.8-17.54l-14.22,6.64,6.1,11.05.32-.15Z" style="fill: #ad2b00; fill-rule: evenodd;"></path>
        </g>
        <g id="g3966">
          <path id="path3968" d="m72.6,48.2l-5.45-9.88c-.95-1.73-1.05-3.66-.44-5.38.61-1.72,1.93-3.23,3.81-4.11l5.11-2.39-5.6-10.15-5.11,2.39c-4.92,2.3-8.37,6.24-9.97,10.73-1.59,4.49-1.34,9.54,1.16,14.07l5.44,9.87c3.94,7.15,14.98,2,11.04-5.15" style="fill: #701c00; fill-rule: evenodd;"></path>
        </g>
        <g id="g3970">
          <path id="path3972" d="m102.31,7.61c-4.09-7.42-15.14-9.82-24.68-5.37-9.54,4.45-13.95,14.08-9.86,21.5,4.09,7.42,15.14,9.82,24.68,5.37h0s-6.93-12.57-6.93-12.57l-.48-.86,17.27-8.06Z" style="fill: #8c2300; fill-rule: evenodd;"></path>
        </g>
        <g id="g3974">
          <path id="path3976" d="m21.1,104.26l3.61,18.66c.3,1.55,1.21,2.79,2.67,3.61,1.46.83,3.06,1.03,4.71.58l6.92-1.89c6.35-1.73,10.07-7.77,8.43-13.67l-1.05-3.77-25.29-3.52Z" style="fill: #701c00; fill-rule: evenodd;"></path>
        </g>
        <g id="g3978">
          <path id="path3980" d="m32.09,127.11l6.92-1.89c6.35-1.73,10.07-7.77,8.43-13.67l-1.05-3.77-25.29-3.52,4.94,5.3c2.48,2.66,9.82,5.17,13.64,5.16,3.83-.01,4.3,3.7.31,6.62l-7.9,5.76Z" style="fill: #4f1400; fill-rule: evenodd;"></path>
        </g>
        <g id="g3982">
          <path id="path3984" d="m28.69,75.47l-8.38,24.13c-.7,2.01-.46,3.99.71,5.81,1.16,1.82,2.93,2.97,5.17,3.38l9.46,1.74c8.68,1.6,17.17-3.4,19.24-11.32l1.32-5.05-27.51-18.68Z" style="fill: #8c2300; fill-rule: evenodd;"></path>
        </g>
        <g id="g3986">
          <path id="path3988" d="m26.18,108.78l9.46,1.74c8.68,1.6,17.17-3.4,19.24-11.32l1.32-5.05-27.51-18.68,2.25,9.11c1.13,4.56,8.1,11.75,12.62,13.93,4.54,2.19,2.57,6.85-4.13,8l-13.24,2.28Z" style="fill: #701c00; fill-rule: evenodd;"></path>
        </g>
        <g id="g3990">
          <path id="path3992" d="m52.38,51.23l-22.34,21c-1.86,1.75-2.73,3.91-2.55,6.36.18,2.44,1.35,4.48,3.45,5.99l8.83,6.34c8.09,5.81,19.73,4.7,26.35-2.52l4.22-4.61-17.95-32.55Z" style="fill: #ad2b00; fill-rule: evenodd;"></path>
        </g>
        <g id="g3994">
          <path id="path3996" d="m30.93,84.57l8.83,6.34c8.09,5.81,19.7,4.67,26.35-2.52l8.05-8.71-21.77-28.45,9.15,23.57c1.3,3.35.82,6.76-1.37,9.7-2.19,2.93-5.48,4.57-9.35,4.65-1.6.03-3.24-.16-4.86-.59l-15.02-3.98Z" style="fill: #8c2300; fill-rule: evenodd;"></path>
        </g>
        <g id="g3998">
          <path id="path4000" d="m118.71,18.19l.13.23c11.59,21.01,2.41,46.85-20.43,57.51l-12.53,5.85c-7.3,3.41-16.26.71-19.97-6l-14.45-26.2,67.24-31.39Z" style="fill: #c30; fill-rule: evenodd;"></path>
        </g>
        <g id="g4002">
          <path id="path4004" d="m118.71,18.19l.13.23c11.59,21.01,2.41,46.85-20.43,57.51l-12.53,5.85c-7.3,3.41-16.26.71-19.97-6l-14.45-26.2,12.73,17.44c4.76,6.52,13.93,8.72,21.54,5.17l13.44-6.28c16.47-7.69,25.71-23.26,19.53-47.73" style="fill: #ad2b00; fill-rule: evenodd;"></path>
        </g>
        <g id="g4006">
          <path id="path4008" d="m95.67,37.65h0c1.3,2.36.27,5.27-2.29,6.46l-24.65,11.51c-2.56,1.2-5.72.25-7.02-2.11h0c-1.3-2.36-.27-5.27,2.29-6.46l24.65-11.51c2.56-1.2,5.72-.25,7.02,2.11" style="fill: #f03c00; fill-rule: evenodd;"></path>
        </g>
        <g id="g4010">
          <path id="path4012" d="m110.85,30.74c1.79,3.24.38,7.21-3.14,8.85-3.53,1.65-7.83.35-9.62-2.89-1.79-3.24-.38-7.21,3.14-8.85,3.52-1.65,7.83-.35,9.62,2.89" style="fill: #ad2b00; fill-rule: evenodd;"></path>
        </g>
        <g id="g4014">
          <path id="path4016" d="m107.97,32.09c.98,1.78.21,3.96-1.73,4.86-1.93.9-4.3.19-5.28-1.59-.98-1.78-.21-3.96,1.73-4.86,1.94-.9,4.3-.19,5.28,1.59" style="fill: #262626; fill-rule: evenodd;"></path>
        </g>
        <g id="g4018">
          <path id="path4020" d="m107.1,33.36c.42.76.09,1.7-.74,2.08-.83.39-1.84.08-2.26-.68-.42-.76-.09-1.7.74-2.08.83-.39,1.84-.08,2.26.68" style="fill: #ebebeb; fill-rule: evenodd;"></path>
        </g>
        <g id="g4022">
          <path id="path4024" d="m51.3,59.55h0c1.35,1.21,1.38,3.22.06,4.46l-12.67,11.94c-1.32,1.24-3.5,1.27-4.85.05-1.35-1.21-1.37-3.22-.06-4.46l12.67-11.94c1.32-1.24,3.5-1.27,4.85-.05" style="fill: #c30; fill-rule: evenodd;"></path>
        </g>
        <g id="g4026">
          <path id="path4028" d="m29.49,86.78h0c1.33.38,2.09,1.7,1.67,2.93l-3.99,11.81c-.42,1.23-1.85,1.92-3.18,1.54h0c-1.33-.38-2.09-1.7-1.67-2.93l3.99-11.81c.42-1.23,1.84-1.92,3.18-1.54" style="fill: #ad2b00; fill-rule: evenodd;"></path>
        </g>
        <g id="g4030">
          <path id="path4032" d="m26.3,112.45h0c.95-.15,1.85.44,2.02,1.31l1.57,8.37c.16.87-.48,1.7-1.42,1.85h0c-.95.15-1.85-.44-2.02-1.31l-1.57-8.37c-.16-.87.48-1.7,1.42-1.85" style="fill: #8c2300; fill-rule: evenodd;"></path>
        </g>
        <g id="g4034">
          <path id="path4036" d="m88.24,71.17c2.19,3.97.47,8.83-3.85,10.85-4.32,2.02-9.6.43-11.79-3.54-2.19-3.97-.47-8.83,3.85-10.85,4.32-2.02,9.6-.43,11.79,3.54" style="fill: #ad2b00; fill-rule: evenodd;"></path>
        </g>
        <g id="g4038">
          <path id="path4040" d="m114.95,69.85c7.78-3.46,16.67-1.46,19.99,4.57l-14.21,6.64-6.1-11.05.32-.15Z" style="fill: #c30; fill-rule: evenodd;"></path>
        </g>
        <g id="g4042">
          <path id="path4044" d="m86.13,72.73l5.45,9.88c.95,1.73,2.59,2.94,4.47,3.5,1.87.56,3.98.48,5.85-.4l5.11-2.39,5.6,10.16-5.11,2.39c-4.92,2.3-10.41,2.54-15.29,1.07-4.88-1.47-9.16-4.64-11.66-9.17l-5.44-9.88c-3.94-7.15,7.09-12.3,11.04-5.15" style="fill: #8c2300; fill-rule: evenodd;"></path>
        </g>
        <g id="g4046">
          <path id="path4048" d="m139.27,74.64c4.09,7.42-.32,17.04-9.86,21.5-9.54,4.45-20.59,2.05-24.68-5.37-4.09-7.42.32-17.04,9.86-21.5h0s6.93,12.57,6.93,12.57l.48.86,17.27-8.06Z" style="fill: #ad2b00; fill-rule: evenodd;"></path>
        </g>
        <g id="g4050">
          <path id="path4052" d="m119.24,27.9c-1.31.61-1.83,2.08-1.17,3.28.66,1.2,2.26,1.68,3.56,1.07l15.9-7.42c1.17-.55,2.48-.6,3.64-.25,1.16.35,2.18,1.11,2.78,2.18l.22.4c.59,1.08.66,2.28.28,3.35-.38,1.07-1.2,2.01-2.37,2.56l-83.14,38.82c-1.31.61-1.83,2.08-1.17,3.28.66,1.2,2.26,1.68,3.57,1.07l83.14-38.82c2.48-1.16,4.21-3.13,5.01-5.39.8-2.26.67-4.8-.59-7.08l-.22-.4c-1.26-2.28-3.41-3.88-5.86-4.61-2.45-.74-5.21-.62-7.69.54l-15.9,7.42Z" style="fill: #f03c00; fill-rule: evenodd;"></path>
        </g>
      </g>
    </g>
  </g>
</svg><text fill="#ff0066" font-family="Bahnschrift" font-size="30" font-style="italic" x="263" y="54"><tspan dy="0" x="263">(d)</tspan></text></svg>