<svg xmlns="http://www.w3.org/2000/svg" width="300" height="48" fill="none"><path fill="#21BFEF" d="m33.105 27.818-1.097 6.433a2.16 2.16 0 0 0 .367 1.625 2.17 2.17 0 0 0 1.409.888l.713.121a2.2 2.2 0 0 0 1.626-.367 2.17 2.17 0 0 0 .888-1.41l1.103-6.433a2.18 2.18 0 0 0-1.781-2.512l-.714-.123a2.18 2.18 0 0 0-2.514 1.778m5.474 8.872 3.393-19.818a19.32 19.32 0 0 1-3.393 19.818m-3.164-22.355a1.09 1.09 0 0 0 .892 1.255l2.86.488a1.086 1.086 0 1 0 .365-2.143l-2.859-.49a1.093 1.093 0 0 0-1.258.89"/><path fill="#21BFEF" d="M9.169 16.753c-.11.264-.166.547-.166.833v18.612A19.25 19.25 0 0 1 4.666 24V6.517a1.85 1.85 0 0 1 1.852-1.851H24a19.3 19.3 0 0 1 14.99 7.125l-2.69-.46a2.176 2.176 0 0 0-2.514 1.776L28.712 42.75q-.597.148-1.207.258V11.777a2.18 2.18 0 0 0-.636-1.54A2.17 2.17 0 0 0 25.33 9.6h-4.352a2.177 2.177 0 0 0-2.177 2.178V42.62a20 20 0 0 1-1.093-.34V17.586a2.18 2.18 0 0 0-2.178-2.175h-4.35a2.17 2.17 0 0 0-2.011 1.342"/><path fill="#21BFEF" d="M14.805 19.607a1.089 1.089 0 1 0 0-2.175h-2.9a1.087 1.087 0 1 0 0 2.175zm.451 13.313c.408.409.637.961.637 1.538v6.528q0 .27-.068.532c-1.837-.858-3.527-2-5.009-3.383v-3.677a2.175 2.175 0 0 1 2.175-2.174h.727c.577 0 1.13.23 1.538.637zm5.359-.002a2.175 2.175 0 0 0 2.175 2.175h.726a2.17 2.17 0 0 0 1.539-.637 2.17 2.17 0 0 0 .636-1.538V26.39a2.17 2.17 0 0 0-1.342-2.01 2.2 2.2 0 0 0-.833-.166h-.726a2.177 2.177 0 0 0-2.175 2.175zm4.758-19.439c-.204.204-.48.318-.769.319h-2.902a1.088 1.088 0 0 1 0-2.176h2.902a1.088 1.088 0 0 1 .769 1.857"/><path fill="#21BFEF" fill-rule="evenodd" d="M24.003 48C37.236 48 48 37.232 48 24.002 48 10.768 37.232 0 24.003 0H6.518A6.525 6.525 0 0 0 0 6.518V24c0 13.232 10.768 24 24.003 24M1.75 6.517a4.776 4.776 0 0 1 4.77-4.768h17.483c12.267 0 22.246 9.983 22.246 22.25a22.25 22.25 0 0 1-44.5 0z" clip-rule="evenodd"/><path fill="#005E95" d="M60 30.898V12.06h3.02V30.4q0 1.343.787 2.115a2.82 2.82 0 0 0 2.058.772v2.653Q60 35.94 60 30.9zm16.372-9.802a4.83 4.83 0 0 0-3.303 1.206 4.66 4.66 0 0 0-1.56 3.102h9.425a4.17 4.17 0 0 0-1.144-2.997q-1.257-1.31-3.418-1.311m7.327 6.462H71.43q0 2.935 1.637 4.51 1.446 1.375 3.72 1.374 2.589 0 4.323-1.483l1.272 2.139q-.7.687-2.146 1.186a11.8 11.8 0 0 1-4.038.656q-3.21 0-5.452-2.139-2.495-2.355-2.495-6.337 0-4.136 2.559-6.633 2.288-2.232 5.42-2.232 3.64 0 5.706 2.013 2.004 1.936 2.003 5.136a6.5 6.5 0 0 1-.239 1.81zm3.657 3.34V12.06h3.02V30.4q0 1.343.786 2.115a2.82 2.82 0 0 0 2.058.772v2.653q-5.864 0-5.864-5.04zM99.833 12.59a1.8 1.8 0 0 1 1.327.538c.309.302.501.7.545 1.124.043.425-.066.852-.307 1.208s-.6.618-1.017.743a1.9 1.9 0 0 1-1.266-.06 1.87 1.87 0 0 1-.94-.835 1.82 1.82 0 0 1 .465-2.299c.336-.27.758-.42 1.193-.42zM98.18 35.627V21.41h-2.336v-2.5h5.356v16.716zm13.956.313h-.795l-7.296-17.076h3.306l4.499 11.706 4.593-11.706h3.163zm19.058-14.173a3.5 3.5 0 0 0-1.987-.671q-1.606 0-2.805 1.452a5.3 5.3 0 0 0-1.2 3.496v9.583h-3.02V18.911h3.02v2.67q1.652-2.982 4.911-2.982a14 14 0 0 1 2.337.28zm10.411-.671a4.83 4.83 0 0 0-3.303 1.206 4.66 4.66 0 0 0-1.561 3.102h9.426a4.18 4.18 0 0 0-1.145-2.997q-1.254-1.31-3.417-1.311m7.328 6.462h-12.271q0 2.935 1.637 4.51 1.446 1.375 3.72 1.374 2.589 0 4.323-1.483l1.271 2.139q-.699.687-2.146 1.186a11.8 11.8 0 0 1-4.037.656q-3.21 0-5.451-2.139-2.497-2.355-2.497-6.337 0-4.136 2.56-6.633 2.288-2.232 5.42-2.232 3.639 0 5.706 2.013 2.003 1.936 2.003 5.136a6.5 6.5 0 0 1-.238 1.81m2.305 7.071 1.064-2.81q2.528 1.625 4.07 1.623 2.797 0 2.797-2.31 0-1.655-2.702-2.84-2.083-.938-2.806-1.42a6.2 6.2 0 0 1-1.255-1.101 4.4 4.4 0 0 1-.795-1.311 4.2 4.2 0 0 1-.263-1.49q0-2.061 1.527-3.216 1.524-1.155 3.989-1.155 1.86 0 4.689 1.155l-.858 2.747q-1.797-1.405-3.608-1.405a3.2 3.2 0 0 0-1.82.5q-.74.5-.739 1.264 0 1.608 1.86 2.435l2.162.967q1.986.89 2.892 2.03.906 1.138.906 2.856 0 2.247-1.605 3.52-1.607 1.272-4.451 1.272a10.3 10.3 0 0 1-5.054-1.311m27.132-14.36-1.494 2.091q-.461-.451-1.629-.858a7 7 0 0 0-2.297-.406q-2.464 0-3.91 1.694t-1.446 4.643q0 2.935 1.478 4.472t4.1 1.537q2.035 0 4.102-1.545l1.192 2.497q-2.433 1.545-6.025 1.546-3.48 0-5.754-2.295t-2.272-6.212q0-3.996 2.36-6.415t6.461-2.419a8.6 8.6 0 0 1 2.862.546q1.54.547 2.272 1.124m5.341 6.961q0 6.29 4.53 6.29a3.9 3.9 0 0 0 1.881-.419 3.8 3.8 0 0 0 1.433-1.267q1.2-1.685 1.201-4.604 0-6.211-4.515-6.212a3.94 3.94 0 0 0-1.863.416 3.86 3.86 0 0 0-1.436 1.239q-1.231 1.654-1.231 4.557m-3.179 0q0-3.87 2.122-6.25t5.587-2.381q3.655 0 5.674 2.287t2.019 6.344q0 4.042-2.066 6.376t-5.627 2.334q-3.64 0-5.674-2.358-2.035-2.355-2.035-6.352m18.819 3.668V12.06h3.021V30.4q0 1.343.787 2.115.786.772 2.058.772v2.653q-5.866 0-5.866-5.04zm18.693-3.481a11 11 0 0 0-2.003-.312q-2.289 0-3.735 1.156t-1.446 2.731q0 2.606 3.13 2.606 2.29 0 4.054-2.138zm.286 6.29q-1.812 2.234-5.547 2.233a4.9 4.9 0 0 1-1.886-.364 4.8 4.8 0 0 1-1.587-1.065 4.8 4.8 0 0 1-1.113-1.624 4.7 4.7 0 0 1-.358-1.926q0-2.544 2.266-4.3 2.264-1.756 5.777-1.756a6.9 6.9 0 0 1 2.162.406q0-4.059-3.687-4.059-2.83 0-4.356 1.498l-1.271-2.481q.858-.686 2.376-1.179a9.4 9.4 0 0 1 2.901-.491q3.702 0 5.38 1.654 1.677 1.655 1.678 5.26v5.993q0 2.201 1.334 2.936v1.482q-1.843 0-2.757-.515-.915-.514-1.312-1.701zm10.602-21.117a1.83 1.83 0 0 1 1.327.538 1.82 1.82 0 0 1 .237 2.331c-.24.356-.6.618-1.016.743a1.9 1.9 0 0 1-1.266-.06 1.87 1.87 0 0 1-.939-.835 1.82 1.82 0 0 1 .464-2.298c.336-.27.758-.42 1.193-.42zm-1.653 23.037V21.41h-2.337v-2.5h5.356v16.716zm17.072-13.86a3.5 3.5 0 0 0-1.987-.671q-1.605 0-2.807 1.452a5.32 5.32 0 0 0-1.199 3.496v9.583h-3.02V18.911h3.02v2.67q1.654-2.982 4.912-2.982 1.18.042 2.335.28zm10.411-.671a4.83 4.83 0 0 0-3.304 1.206 4.67 4.67 0 0 0-1.561 3.102h9.426a4.17 4.17 0 0 0-1.143-2.997q-1.257-1.31-3.418-1.311m7.328 6.462h-12.272q0 2.935 1.638 4.51 1.447 1.375 3.72 1.374 2.59 0 4.321-1.483l1.274 2.139q-.7.687-2.147 1.186a11.8 11.8 0 0 1-4.036.656q-3.212 0-5.453-2.139-2.496-2.355-2.496-6.337 0-4.136 2.558-6.633 2.291-2.232 5.421-2.232 3.641 0 5.706 2.013 2.003 1.936 2.003 5.136a6.5 6.5 0 0 1-.237 1.81m6.899 3.684a2.4 2.4 0 0 1 1.684.686 2.335 2.335 0 0 1 .523 2.556 2.3 2.3 0 0 1-.523.761 2.4 2.4 0 0 1-1.684.695 2.37 2.37 0 0 1-1.685-.695 2.26 2.26 0 0 1-.702-1.662 2.33 2.33 0 0 1 .702-1.654 2.4 2.4 0 0 1 1.685-.687m17.674-16.529a5.4 5.4 0 0 0-1.717-.313 2.9 2.9 0 0 0-1.261.258 2.9 2.9 0 0 0-1.02.773q-.897 1.03-.897 2.606.001.44.079.874h3.466v2.498h-3.466v14.218h-3.021V21.41h-2.479v-2.5h2.479q.001-3.2 1.606-5.026t4.245-1.826a9.6 9.6 0 0 1 2.827.469zm12.08 7.054a3.5 3.5 0 0 0-1.987-.671q-1.606 0-2.804 1.452a5.3 5.3 0 0 0-1.201 3.496v9.583h-3.021V18.911h3.021v2.67q1.652-2.982 4.912-2.982 1.179.042 2.337.28z"/></svg>