<?xml version="1.0" encoding="utf-8"?>
<!-- Generator: Adobe Illustrator 28.0.0, SVG Export Plug-In . SVG Version: 6.00 Build 0)  -->
<svg version="1.1" id="Calque_1" xmlns="http://www.w3.org/2000/svg" xmlns:xlink="http://www.w3.org/1999/xlink" x="0px" y="0px"
	 viewBox="0 0 186 209.1" style="enable-background:new 0 0 186 209.1;" xml:space="preserve">
<style type="text/css">
	.st0{fill:#3AAA35;}
	.st1{font-family:'Cambria'; font-style: italic;}
	.st2{font-size:20px;}
	.st3{fill:#E30613;}
	.st4{fill:#662483;}
	.st5{fill:none;stroke:#662483;stroke-width:2;stroke-linecap:round;stroke-miterlimit:10;}
	.st6{fill:none;stroke:#E30613;stroke-width:2;stroke-linecap:round;stroke-miterlimit:10;}
	.st7{fill:none;stroke:#3AAA35;stroke-width:2;stroke-linecap:round;stroke-miterlimit:10;}
</style>
<text transform="matrix(1 0 0 1 153.1297 75.2155)" class="st0 st1 st2">(d</text>
<text transform="matrix(0.583 0 0 0.583 171.8602 81.8756)" class="st0 st1 st2">1</text>
<text transform="matrix(1 0 0 1 178.3163 75.2155)" class="st0 st1 st2">)</text>
<text transform="matrix(1 0 0 1 -6.103516e-05 82.1251)" class="st3 st1 st2">(d</text>
<text transform="matrix(0.583 0 0 0.583 18.7304 88.7852)" class="st3 st1 st2">2</text>
<text transform="matrix(1 0 0 1 25.1865 82.1251)" class="st3 st1 st2">)</text>
<rect x="101.2" y="32.9" transform="matrix(0.619 -0.7854 0.7854 0.619 10.0335 99.8132)" width="13.3" height="13.3"/>
<text transform="matrix(1 0 0 1 23.7942 153.1675)" class="st4 st1 st2">(d</text>
<text transform="matrix(0.583 0 0 0.583 42.5246 159.8277)" class="st4 st1 st2">3</text>
<text transform="matrix(1 0 0 1 48.9807 153.1675)" class="st4 st1 st2">)</text>
<line class="st5" x1="21.1" y1="138.1" x2="110.6" y2="26.2"/>
<line class="st6" x1="17.3" y1="92.3" x2="129.2" y2="181.8"/>
<line class="st7" x1="49" y1="1" x2="160.9" y2="90.5"/>
</svg>
