<?xml version="1.0" encoding="utf-8"?>
<!-- Generator: Adobe Illustrator 23.0.0, SVG Export Plug-In . SVG Version: 6.00 Build 0)  -->
<svg version="1.1" id="Calque_1" xmlns="http://www.w3.org/2000/svg" xmlns:xlink="http://www.w3.org/1999/xlink" x="0px" y="0px"
	 viewBox="0 0 146.6 106.6" style="enable-background:new 0 0 146.6 106.6;" xml:space="preserve">
<style type="text/css">
	.st0{font-family:'MyriadPro-Regular';}
	.st1{font-size:30px;}
	.st2{fill:none;stroke:#21409A;stroke-width:2;stroke-miterlimit:10;}
	.st3{fill:none;stroke:#ED1C24;stroke-width:2;stroke-miterlimit:10;}
	.st4{fill:none;stroke:#00A14B;stroke-width:2;stroke-miterlimit:10;}
	.st5{fill:none;stroke:#7F3F98;stroke-width:2;stroke-miterlimit:10;}
	.st6{fill:none;stroke:#000000;stroke-width:2;stroke-miterlimit:10;}
	.st7{fill:none;stroke:#000000;stroke-width:2;stroke-linecap:round;stroke-miterlimit:10;}
	.st8{fill:none;stroke:#ED1C24;stroke-width:2;stroke-linecap:round;stroke-miterlimit:10;}
	.st9{fill:#ED1C24;}
	.st10{fill:none;stroke:#7F3F98;stroke-width:2;stroke-linecap:round;stroke-miterlimit:10;}
	.st11{fill:#7F3F98;}
	.st12{fill:none;stroke:#21409A;stroke-width:2;stroke-linecap:round;stroke-miterlimit:10;}
	.st13{fill:#21409A;}
	.st14{fill:none;stroke:#00A14B;stroke-width:2;stroke-linecap:round;stroke-miterlimit:10;}
	.st15{fill:#00A14B;}
</style>
<text transform="matrix(1 0 0 1 32.8888 54.0485)" class="st0 st1">1</text>
<text transform="matrix(1 0 0 1 33.3273 87.8802)" class="st0 st1">2</text>
<text transform="matrix(1 0 0 1 64.497 54.0483)" class="st0 st1">3</text>
<text transform="matrix(1 0 0 1 64.4973 88.9406)" class="st0 st1">4</text>
<text transform="matrix(1 0 0 1 93.687 54.0485)" class="st0 st1">5</text>
<text transform="matrix(1 0 0 1 93.6869 88.9404)" class="st0 st1">6</text>
<path class="st2" d="M50.4,94.7H31.7c-1.5,0-2.7-1.2-2.7-2.7V30.6c0-1.5,1.2-2.7,2.7-2.7h18.7c1.5,0,2.7,1.2,2.7,2.7V92
	C53.1,93.4,51.9,94.7,50.4,94.7z"/>
<path class="st3" d="M112.5,96.8H60.2c-1.7,0-3-1.4-3-3V28.9c0-1.7,1.4-3,3-3h52.3c1.7,0,3,1.4,3,3v64.9
	C115.5,95.5,114.1,96.8,112.5,96.8z"/>
<path class="st4" d="M47.6,55.7H34.4c-1.6,0-2.8-1.3-2.8-2.8V34.3c0-1.6,1.3-2.8,2.8-2.8h13.2c1.6,0,2.8,1.3,2.8,2.8v18.6
	C50.5,54.5,49.2,55.7,47.6,55.7z"/>
<path class="st5" d="M88.8,30.7v31.7c0,1.6-1.3,2.8-2.8,2.8H65.7c-1.6,0-2.8,1.3-2.8,2.8v23.7c0,1.6,1.3,2.8,2.8,2.8h23.1h20.6
	c1.6,0,2.8-1.3,2.8-2.8V61.3V30.7c0-1.6-1.3-2.8-2.8-2.8H91.6C90.1,27.9,88.8,29.2,88.8,30.7z"/>
<path class="st6" d="M115.4,101.9H4.9c-1.6,0-2.8-1.3-2.8-2.8V5.3c0-1.6,1.3-2.8,2.8-2.8h110.5c1.6,0,2.8,1.3,2.8,2.8v93.8
	C118.2,100.7,116.9,101.9,115.4,101.9z"/>
<line class="st7" x1="129.2" y1="47.8" x2="118.2" y2="53.6"/>
<g>
	<g>
		<path d="M134.3,32.7h2v14.2h-2V32.7z M135.3,32.7h8.2v1.9h-8.2V32.7z M135.3,38.9h7.1v1.9h-7.1V38.9z M135.3,45h8.2v1.9h-8.2V45z"
			/>
	</g>
</g>
<line class="st8" x1="70.3" y1="16.3" x2="65.4" y2="25.3"/>
<g>
	<g>
		<path class="st9" d="M77.1,18.7c0,0-0.4-0.2-1.1-0.7s-1.3-1.1-1.7-1.9s-0.6-1.7-0.6-2.8V9.6c0-1.1,0.2-2,0.6-2.8s1-1.4,1.7-1.9
			s1.6-0.7,2.6-0.7c0.8,0,1.6,0.2,2.2,0.5s1.3,0.8,1.7,1.5s0.8,1.4,0.9,2.2h-2c-0.1-0.4-0.3-0.8-0.6-1.2s-0.6-0.6-1-0.8
			S79,6.2,78.6,6.2c-0.6,0-1.1,0.1-1.5,0.4s-0.8,0.7-1,1.2s-0.4,1.1-0.4,1.8v3.9c0,0.7,0.1,1.3,0.4,1.8s0.6,0.9,1,1.2
			s0.9,0.4,1.5,0.4c0.4,0,0.8-0.1,1.2-0.3s0.7-0.4,1-0.8s0.5-0.8,0.6-1.2h2c-0.2,0.8-0.5,1.6-0.9,2.2s-1,1.1-1.7,1.5
			s-1.4,0.5-2.2,0.5C77.6,18.7,77.1,18.7,77.1,18.7z"/>
	</g>
</g>
<line class="st10" x1="95.9" y1="27.9" x2="101.4" y2="19.2"/>
<g>
	<g>
		<path class="st11" d="M106,5h2v14.2h-2V5z M107,5h8v1.9h-8V5z M107,11.3h6.9v1.9H107V11.3z"/>
	</g>
</g>
<line class="st12" x1="38.1" y1="20.2" x2="35.1" y2="27.9"/>
<g>
	<g>
		<path class="st13" d="M38.4,4.4h2v14.2h-2V4.4z M39.5,16.8h3.8c1,0,1.7-0.2,2.2-0.6s0.7-0.9,0.7-1.6v0c0-0.5-0.1-0.9-0.2-1.2
			s-0.4-0.6-0.8-0.8s-0.8-0.3-1.4-0.3h-4.3v-1.8h4.3c0.7,0,1.3-0.2,1.7-0.5s0.6-0.9,0.6-1.5c0-0.7-0.2-1.2-0.6-1.6s-1-0.5-1.9-0.5
			h-4.1V4.4H44c0.9,0,1.7,0.2,2.3,0.5s1.1,0.8,1.4,1.3s0.5,1.3,0.5,2.1c0,0.5-0.1,0.9-0.3,1.4s-0.5,0.8-0.9,1.1s-0.9,0.5-1.4,0.6
			c0.6,0.1,1.1,0.3,1.5,0.6s0.7,0.7,1,1.2s0.3,1,0.3,1.6v0c0,0.8-0.2,1.4-0.5,2s-0.8,1-1.5,1.4s-1.4,0.5-2.2,0.5h-4.6V16.8z"/>
	</g>
</g>
<line class="st14" x1="18.1" y1="35.3" x2="31.6" y2="36.1"/>
<g>
	<g>
		<path class="st15" d="M11.2,26.1h1.7l5.2,14.2H16l-3.9-11.5L8.1,40.3H6L11.2,26.1z M8.4,35.2h7.5v1.9H8.4V35.2z"/>
	</g>
</g>
</svg>
