<?xml version="1.0" encoding="UTF-8"?>
<svg id="a" data-name="Calque 1" xmlns="http://www.w3.org/2000/svg" viewBox="0 0 128.4 106.81">
  <g>
    <path d="m69.1,61.06h22v9h-22v-9Zm0-11h22v9h-22v-9Zm0-11h22v10h-22v-10Z" style="fill: #3b89c4; stroke-width: 0px;"/>
    <path d="m92.1,39.24c0,.45-.37.82-.82.82h-22.36c-.45,0-.82-.37-.82-.82v-.36c0-.45.37-.82.82-.82h22.36c.45,0,.82.37.82.82v.36Zm0,11c0,.45-.37.82-.82.82h-22.36c-.45,0-.82-.37-.82-.82v-.35c0-.45.37-.82.82-.82h22.36c.45,0,.82.37.82.82,0,0,0,.36,0,.36Zm0,10c0,.45-.37.82-.82.82h-22.36c-.45,0-.82-.37-.82-.82v-.35c0-.45.37-.82.82-.82h22.36c.45,0,.82.37.82.82,0,0,0,.36,0,.36Zm0,11c0,.45-.37.82-.82.82h-22.36c-.45,0-.82-.37-.82-.82v-.35c0-.46.37-.82.82-.82h22.36c.45,0,.82.37.82.82v.36Z" style="fill: #25679a; stroke-width: 0px;"/>
    <path d="m88.1,37.19c0,.48-.39.87-.87.87h-2.26c-.48,0-.87-.39-.87-.87v-.26c0-.48.39-.87.87-.87h2.26c.48,0,.87.39.87.87v.26Z" style="fill: #99aab5; stroke-width: 0px;"/>
  </g>
  <g>
    <path d="m99.9,47.16v12.38c0,2.04,1.09,2.48,1.09,2.48l11.57,9.1c1.82,1.43,1.33-1.58,1.33-1.58v-11.38l-14-11Z" style="fill: #662113; stroke-width: 0px;"/>
    <path d="m127.9,47.16v12.38c0,2.04-1.06,2.48-1.06,2.48,0,0-9.77,7.67-11.59,9.1-1.82,1.43-1.35-1.58-1.35-1.58v-11.38l14-11Z" style="fill: #c1694f; stroke-width: 0px;"/>
    <path d="m115.19,36.66c-.75-.61-1.99-.61-2.74,0l-11.98,9.53c-.75.61-.75,1.61,0,2.22l12.02,9.65c.75.61,1.99.61,2.74,0l12.1-9.73c.75-.61.75-1.61,0-2.22l-12.15-9.45Z" style="fill: #d99e82; stroke-width: 0px;"/>
    <path d="m113.9,71.91c-.55,0-1-.48-1-1.08v-12.93c0-.6.45-1.08,1-1.08s1,.48,1,1.08v12.93c0,.6-.45,1.08-1,1.08Z" style="fill: #d99e82; stroke-width: 0px;"/>
    <path d="m123.9,55c0,1.1.1,1.65-1,2.44l-2.47,1.88c-1.1.8-1.53.11-1.53-.99v-2.96c0-.19-.03-.4-.28-.61-2.58-2.12-12.59-10.08-14.41-11.54l4.62-3.68c1.27.93,10.75,8.25,14.72,11.38.2.16.34.33.34.52,0,0,0,3.57,0,3.57Z" style="fill: #99aab5; stroke-width: 0px;"/>
    <path d="m123.56,50.91c-3.97-3.12-13.45-10.45-14.72-11.38l-1.72,1.37-2.9,2.31c1.82,1.47,11.83,9.42,14.41,11.54.15.12.22.25.25.37l4.93-3.97c-.06-.09-.15-.17-.25-.25Z" style="fill: #ccd6dd; stroke-width: 0px;"/>
    <path d="m123.9,55v-3.57c0-.19-.15-.36-.34-.52-3.97-3.12-13.45-10.45-14.72-11.38l-2.07,1.65c3.39,2.67,12.48,9.68,14.86,11.57.26.2.28.42.28.61v4.84l1-.76c1.1-.8,1-1.34,1-2.44Z" style="fill: #ccd6dd; stroke-width: 0px;"/>
    <path d="m123.56,50.91c-3.97-3.12-13.45-10.45-14.72-11.38l-2.07,1.65c3.39,2.67,12.48,9.68,14.86,11.57.04.03.06.06.09.09l2.09-1.68c-.06-.09-.15-.17-.25-.25Z" style="fill: #e2e9ee; stroke-width: 0px;"/>
  </g>
  <g>
    <path d="m35.3,61.06h22v9h-22v-9Zm0-11h22v9h-22v-9Zm0-11h22v10h-22v-10Z" style="fill: #3b89c4; stroke-width: 0px;"/>
    <path d="m58.3,39.24c0,.45-.37.82-.82.82h-22.36c-.45,0-.82-.37-.82-.82v-.36c0-.45.37-.82.82-.82h22.36c.45,0,.82.37.82.82v.36Zm0,11c0,.45-.37.82-.82.82h-22.36c-.45,0-.82-.37-.82-.82v-.35c0-.45.37-.82.82-.82h22.36c.45,0,.82.37.82.82,0,0,0,.36,0,.36Zm0,10c0,.45-.37.82-.82.82h-22.36c-.45,0-.82-.37-.82-.82v-.35c0-.45.37-.82.82-.82h22.36c.45,0,.82.37.82.82,0,0,0,.36,0,.36Zm0,11c0,.45-.37.82-.82.82h-22.36c-.45,0-.82-.37-.82-.82v-.35c0-.46.37-.82.82-.82h22.36c.45,0,.82.37.82.82v.36Z" style="fill: #25679a; stroke-width: 0px;"/>
    <path d="m54.3,37.19c0,.48-.39.87-.87.87h-2.26c-.48,0-.87-.39-.87-.87v-.26c0-.48.39-.87.87-.87h2.26c.48,0,.87.39.87.87v.26Z" style="fill: #99aab5; stroke-width: 0px;"/>
  </g>
  <g>
    <path d="m1.5,61.06h22v9H1.5v-9Zm0-11h22v9H1.5v-9Zm0-11h22v10H1.5v-10Z" style="fill: #3b89c4; stroke-width: 0px;"/>
    <path d="m24.5,39.24c0,.45-.37.82-.82.82H1.32c-.45,0-.82-.37-.82-.82v-.36c0-.45.37-.82.82-.82h22.36c.45,0,.82.37.82.82v.36Zm0,11c0,.45-.37.82-.82.82H1.32c-.45,0-.82-.37-.82-.82v-.35c0-.45.37-.82.82-.82h22.36c.45,0,.82.37.82.82,0,0,0,.36,0,.36Zm0,10c0,.45-.37.82-.82.82H1.32c-.45,0-.82-.37-.82-.82v-.35c0-.45.37-.82.82-.82h22.36c.45,0,.82.37.82.82,0,0,0,.36,0,.36Zm0,11c0,.45-.37.82-.82.82H1.32c-.45,0-.82-.37-.82-.82v-.35c0-.46.37-.82.82-.82h22.36c.45,0,.82.37.82.82v.36Z" style="fill: #25679a; stroke-width: 0px;"/>
    <path d="m20.5,37.19c0,.48-.39.87-.87.87h-2.26c-.48,0-.87-.39-.87-.87v-.26c0-.48.39-.87.87-.87h2.26c.48,0,.87.39.87.87v.26Z" style="fill: #99aab5; stroke-width: 0px;"/>
  </g>
  <path d="m127.9,29.34c0-2.29-1.88-4.17-4.17-4.17h-55.36c-2.29,0-4.17-1.88-4.17-4.17,0,2.29-1.88,4.17-4.17,4.17H4.67c-2.29,0-4.17,1.88-4.17,4.17" style="fill: none; stroke: #1d1d1b; stroke-linecap: round; stroke-linejoin: round;"/>
  <path d="m68.1,77.09c0,2.29.88,4.17,1.96,4.17h25.99c1.08,0,1.96,1.88,1.96,4.17,0-2.29.88-4.17,1.96-4.17h25.99c1.08,0,1.96-1.88,1.96-4.17" style="fill: none; stroke: #1d1d1b; stroke-linecap: round; stroke-linejoin: round;"/>
  <text transform="translate(36.76 17.1)" style="fill: #1d1d1b; font-family: Bahnschrift, Bahnschrift; font-size: 20px; font-variation-settings: &apos;wght&apos; 400, &apos;wdth&apos; 100;"><tspan x="0" y="0">198 kg</tspan></text>
  <text transform="translate(73.99 101.4)" style="fill: #1d1d1b; font-family: Bahnschrift, Bahnschrift; font-size: 20px; font-variation-settings: &apos;wght&apos; 400, &apos;wdth&apos; 100;"><tspan x="0" y="0">90 kg</tspan></text>
</svg>