<?xml version="1.0" encoding="UTF-8"?>
<svg id="Calque_3" data-name="Calque 3" xmlns="http://www.w3.org/2000/svg" xmlns:xlink="http://www.w3.org/1999/xlink" viewBox="0 0 349.03 248.93">
  <defs>
    <mask id="mask" x="-143.78" y="0" width="492.8" height="248.98" maskUnits="userSpaceOnUse">
      <rect x="10.61" y=".55" width="305.62" height="248.43" rx="27.57" ry="27.57" style="fill: #fff;"/>
    </mask>
    <pattern id="Nouveau_motif" data-name="Nouveau motif" x="0" y="0" width="50" height="50" patternTransform="translate(-61.29 -65.23)" patternUnits="userSpaceOnUse" viewBox="0 0 50 50">
      <g>
        <rect width="50" height="50" style="fill: none;"/>
        <polygon points="31.22 125 91.22 125 191.22 25 131.22 25 31.22 125" style="fill: #99c667;"/>
        <g>
          <polygon points="8.78 125 68.78 125 168.78 25 108.78 25 8.78 125" style="fill: #22a84f;"/>
          <polygon points="-18.78 125 41.22 125 141.22 25 81.22 25 -18.78 125" style="fill: #99c667;"/>
        </g>
        <g>
          <polygon points="-41.22 125 18.78 125 118.78 25 58.78 25 -41.22 125" style="fill: #22a84f;"/>
          <polygon points="-68.78 125 -8.78 125 91.22 25 31.22 25 -68.78 125" style="fill: #99c667;"/>
        </g>
        <g>
          <polygon points="-91.22 125 -31.22 125 68.78 25 8.78 25 -91.22 125" style="fill: #22a84f;"/>
          <polygon points="-118.78 125 -58.78 125 41.22 25 -18.78 25 -118.78 125" style="fill: #99c667;"/>
        </g>
        <polygon points="-141.22 125 -81.22 125 18.78 25 -41.22 25 -141.22 125" style="fill: #22a84f;"/>
        <g>
          <polygon points="33.78 100 93.78 100 193.78 0 133.78 0 33.78 100" style="fill: #22a84f;"/>
          <polygon points="6.22 100 66.22 100 166.22 0 106.22 0 6.22 100" style="fill: #99c667;"/>
        </g>
        <g>
          <polygon points="-16.22 100 43.78 100 143.78 0 83.78 0 -16.22 100" style="fill: #22a84f;"/>
          <polygon points="-43.78 100 16.22 100 116.22 0 56.22 0 -43.78 100" style="fill: #99c667;"/>
        </g>
        <g>
          <polygon points="-66.22 100 -6.22 100 93.78 0 33.78 0 -66.22 100" style="fill: #22a84f;"/>
          <polygon points="-93.78 100 -33.78 100 66.22 0 6.22 0 -93.78 100" style="fill: #99c667;"/>
        </g>
        <g>
          <polygon points="-116.22 100 -56.22 100 43.78 0 -16.22 0 -116.22 100" style="fill: #22a84f;"/>
          <polygon points="-143.78 100 -83.78 100 16.22 0 -43.78 0 -143.78 100" style="fill: #99c667;"/>
        </g>
        <polygon points="31.22 75 91.22 75 191.22 -25 131.22 -25 31.22 75" style="fill: #99c667;"/>
        <g>
          <polygon points="8.78 75 68.78 75 168.78 -25 108.78 -25 8.78 75" style="fill: #22a84f;"/>
          <polygon points="-18.78 75 41.22 75 141.22 -25 81.22 -25 -18.78 75" style="fill: #99c667;"/>
        </g>
        <g>
          <polygon points="-41.22 75 18.78 75 118.78 -25 58.78 -25 -41.22 75" style="fill: #22a84f;"/>
          <polygon points="-68.78 75 -8.78 75 91.22 -25 31.22 -25 -68.78 75" style="fill: #99c667;"/>
        </g>
        <g>
          <polygon points="-91.22 75 -31.22 75 68.78 -25 8.78 -25 -91.22 75" style="fill: #22a84f;"/>
          <polygon points="-118.78 75 -58.78 75 41.22 -25 -18.78 -25 -118.78 75" style="fill: #99c667;"/>
        </g>
        <polygon points="-141.22 75 -81.22 75 18.78 -25 -41.22 -25 -141.22 75" style="fill: #22a84f;"/>
        <g>
          <polygon points="33.78 50 93.78 50 193.78 -50 133.78 -50 33.78 50" style="fill: #22a84f;"/>
          <polygon points="6.22 50 66.22 50 166.22 -50 106.22 -50 6.22 50" style="fill: #99c667;"/>
        </g>
        <g>
          <polygon points="-16.22 50 43.78 50 143.78 -50 83.78 -50 -16.22 50" style="fill: #22a84f;"/>
          <polygon points="-43.78 50 16.22 50 116.22 -50 56.22 -50 -43.78 50" style="fill: #99c667;"/>
        </g>
        <g>
          <polygon points="-66.22 50 -6.22 50 93.78 -50 33.78 -50 -66.22 50" style="fill: #22a84f;"/>
          <polygon points="-93.78 50 -33.78 50 66.22 -50 6.22 -50 -93.78 50" style="fill: #99c667;"/>
        </g>
        <g>
          <polygon points="-116.22 50 -56.22 50 43.78 -50 -16.22 -50 -116.22 50" style="fill: #22a84f;"/>
          <polygon points="-143.78 50 -83.78 50 16.22 -50 -43.78 -50 -143.78 50" style="fill: #99c667;"/>
        </g>
        <polygon points="31.22 25 91.22 25 191.22 -75 131.22 -75 31.22 25" style="fill: #99c667;"/>
        <g>
          <polygon points="8.78 25 68.78 25 168.78 -75 108.78 -75 8.78 25" style="fill: #22a84f;"/>
          <polygon points="-18.78 25 41.22 25 141.22 -75 81.22 -75 -18.78 25" style="fill: #99c667;"/>
        </g>
        <g>
          <polygon points="-41.22 25 18.78 25 118.78 -75 58.78 -75 -41.22 25" style="fill: #22a84f;"/>
          <polygon points="-68.78 25 -8.78 25 91.22 -75 31.22 -75 -68.78 25" style="fill: #99c667;"/>
        </g>
        <g>
          <polygon points="-91.22 25 -31.22 25 68.78 -75 8.78 -75 -91.22 25" style="fill: #22a84f;"/>
          <polygon points="-118.78 25 -58.78 25 41.22 -75 -18.78 -75 -118.78 25" style="fill: #99c667;"/>
        </g>
        <polygon points="-141.22 25 -81.22 25 18.78 -75 -41.22 -75 -141.22 25" style="fill: #22a84f;"/>
      </g>
    </pattern>
    <clipPath id="clippath">
      <rect x="10.14" width="305.62" height="205.02" style="fill: #9ec9ed;"/>
    </clipPath>
    <clipPath id="clippath-1">
      <path d="m70.1,19.04h-11.06c-2.06,0-5.74,11.69-5.74,13.74v29.6c0,2.06,1.69,3.74,3.74,3.74h15.06c2.06,0,3.74-1.69,3.74-3.74v-29.6c0-2.06-3.69-13.74-5.74-13.74Z" style="fill: #ffcc03;"/>
    </clipPath>
  </defs>
  <g style="mask: url(#mask);">
    <g>
      <rect x="10.14" y="205.02" width="305.62" height="43.4" style="fill: url(#Nouveau_motif); stroke: url(#Nouveau_motif); stroke-miterlimit: 10;"/>
      <g>
        <rect x="10.14" width="305.62" height="205.02" style="fill: #9ec9ed;"/>
        <g style="clip-path: url(#clippath);">
          <path d="m346.63,147.35c-13.01-.96-26.81-2.05-37.98-9.5-5.31-3.54-9.86-8.17-15.51-11.21-4.89-2.63-10.37-3.63-15.56-5.48-2.21-.79-4.47-1.8-6.22-3.39-2.2-2.01-3.1-4.62-3.71-7.47-.66-3.09-1.15-6.14-2.53-9.02-1.23-2.58-3.09-4.94-5.26-6.79-9.72-8.29-24.43-6.51-32.42,3.32-2.13,2.63-3.86,5.54-5.83,8.28-1.71,2.38-3.74,4.54-5.96,6.45-4.53,3.91-10.03,6.7-15.84,8.12-6.68,1.64-13.51.88-20.31,1-3.51.06-7.09.36-10.48,1.33-3.24.93-6.27,2.48-9.1,4.28-5.64,3.58-10.8,7.7-16.98,10.37-5.98,2.58-12.48,4.1-18.98,4.49-6.78.4-13.43-.47-19.93-2.39-6.81-2.01-13.31-4.92-19.86-7.62-13.38-5.5-27.36-9.6-41.66-11.84-11.46-1.79-24.04-2.26-34.65,3.19-2.58,1.33-4.95,3.05-7.07,5.03-1.54,1.45-.55,3.45.98,4.05.03.14.06.29.1.44,2.1,7.45,4.48,14.92,6.35,22.49-1.22,1.39-1.63,3.38-.29,5.42,1.23,1.87,1.64,4.34,1.73,6.92-.1,2.52-.17,5.04-.23,7.57-.01.33-.02.66-.02.98-.1,5.15-.09,10.31,0,15.47-.64,3.24-1.35,6.47-2.12,9.68-.83,3.45,1.52,5.73,4.16,6.1.77,1.16,2.1,1.91,3.98,1.75,24.83-2.09,49.81-1.55,74.71-1.56,25.12-.01,50.24-.02,75.36-.03,24.69-.01,49.47-.59,74.15.46,12.33.52,24.57,1.86,36.82,3.26,11.94,1.36,24.39,3.35,36.43,2.83,11.21-.48,15.01-14.27,18.35-23.09,4.43-11.7,7.71-23.81,14.15-34.65.93-1.56.91-3.08.33-4.33.3.02.6.05.9.07,3.21.24,3.19-4.76,0-5Z" style="fill: #6599cc;"/>
          <text transform="translate(95.5 97.2) rotate(38.64)" style="fill: #fff; font-family: Bahnschrift-Bold, Bahnschrift; font-size: 15px; font-variation-settings: &apos;wght&apos; 700, &apos;wdth&apos; 100; font-weight: 700; stroke: #fff; stroke-miterlimit: 10;"><tspan x="0" y="0">50cm</tspan></text>
          <text transform="translate(181.67 165.33) rotate(38.64)" style="fill: #fff; font-family: Bahnschrift-Bold, Bahnschrift; font-size: 15px; font-variation-settings: &apos;wght&apos; 700, &apos;wdth&apos; 100; font-weight: 700; stroke: #fff; stroke-miterlimit: 10;"><tspan x="0" y="0">30cm</tspan></text>
          <text transform="translate(113.46 195.75) rotate(-44.05)" style="fill: #fff; font-family: Bahnschrift-Bold, Bahnschrift; font-size: 15px; font-variation-settings: &apos;wght&apos; 700, &apos;wdth&apos; 100; font-weight: 700; stroke: #fff; stroke-miterlimit: 10;"><tspan x="0" y="0" style="letter-spacing: -.03em;">2</tspan><tspan x="7.31" y="0">4cm</tspan></text>
          <text transform="translate(182.95 128.2) rotate(-44.05)" style="fill: #fff; font-family: Bahnschrift-Bold, Bahnschrift; font-size: 15px; font-variation-settings: &apos;wght&apos; 700, &apos;wdth&apos; 100; font-weight: 700; stroke: #fff; stroke-miterlimit: 10;"><tspan x="0" y="0">40 cm</tspan></text>
        </g>
      </g>
      <g>
        <path d="m70.1,19.04h-11.06c-2.06,0-5.74,11.69-5.74,13.74v29.6c0,2.06,1.69,3.74,3.74,3.74h15.06c2.06,0,3.74-1.69,3.74-3.74v-29.6c0-2.06-3.69-13.74-5.74-13.74Z" style="fill: #ffcc03;"/>
        <g style="clip-path: url(#clippath-1);">
          <rect x="50.86" y="36.19" width="16.98" height="18.96" rx="2.84" ry="2.84" style="fill: #fff; stroke: #3299cc; stroke-miterlimit: 10;"/>
        </g>
      </g>
      <rect x="58.22" y="13.64" width="12.43" height="5.62" rx="1.51" ry="1.51" style="fill: #e30613;"/>
      <g>
        <polygon points="82.24 51.59 96.78 51.59 94.01 66.13 85.39 66.13 82.24 51.59" style="fill: #ffcc03;"/>
        <polygon points="79.65 40.64 85.39 67.13 94.01 67.13 99.05 40.64 79.65 40.64" style="fill: rgba(255, 255, 255, .4); stroke: #fff; stroke-linejoin: round;"/>
        <line x1="83.74" y1="44.36" x2="85.91" y2="54.13" style="fill: none; stroke: rgba(255, 255, 255, .33); stroke-linecap: round; stroke-miterlimit: 10; stroke-width: 2px;"/>
      </g>
      <g>
        <line x1="170.36" y1="12.06" x2="159.64" y2="40.66" style="fill: none; stroke: #7d4e24; stroke-linecap: round; stroke-miterlimit: 10; stroke-width: 4px;"/>
        <line x1="180.27" y1="13.62" x2="165" y2="40.07" style="fill: none; stroke: #7d4e24; stroke-linecap: round; stroke-miterlimit: 10; stroke-width: 4px;"/>
        <path d="m182.15,46.15c1.46-8.2-4.36-9.22-9.39-4.78-2.51-1.81-4.69-5.48-8.36-4.05-4.4,4.72-6.12-1.53-10.07-3.03-4.56-2.02-11.51,3.95-6.3,7.71,8.12,3.41-3.71,1.4-6.81.22-1.65-6.35-7.66-9.41-11.75-2.91-1.6,10.24,2.31,4.51-6.94,4.99-14.19-8.69-12.39,6.87-3.19,13.99,18.53,12.19,55.44,12.33,62.81-12.14Z" style="fill: #009640;"/>
        <path d="m182.62,45.83c0,11.76-15.87,21.3-35.44,21.3s-35.44-9.54-35.44-21.3v-16.98h70.89v16.98Z" style="fill: rgba(255, 255, 255, .3); stroke: #fff; stroke-linejoin: round; stroke-width: 2px;"/>
        <path d="m122,32.13c-1.08.05-2,.88-2,2v6.89c0,1.05.92,2.05,2,2,1.08-.05,2-.88,2-2v-6.89c0-1.05-.92-2.05-2-2Z" style="fill: rgba(255, 255, 255, .4);"/>
        <path d="m176.38,37.82c-.1-.68-.25-1.36-.4-2.03-.04-.18-.08-.35-.11-.53,0-.05-.02-.1-.03-.15-.04-.23-.03-.2,0,.08-.12-.26-.02-.8,0-1.06.06-.47-.26-1.09-.59-1.41-.35-.35-.92-.61-1.41-.59-.52.02-1.05.19-1.41.59-.38.42-.52.86-.59,1.41-.18,1.49.37,2.99.61,4.44.02.14.05.29.07.44,0,.08.02.16.03.24.04.35.07.7.09,1.05.04.73.05,1.46.02,2.19-.04,1.05.95,2.05,2,2,1.12-.05,1.96-.88,2-2,.06-1.56-.06-3.11-.3-4.65Z" style="fill: rgba(255, 255, 255, .4);"/>
        <path d="m162.65,55.98c-.16-.48-.46-.95-.92-1.2-.45-.24-1.04-.39-1.54-.2-1.24.47-2.54.79-3.85.98-.02,0-.03,0-.05,0-.28-.01-.53.05-.77.17-.25.08-.46.22-.64.41-.35.35-.61.92-.59,1.41.02.52.19,1.05.59,1.41.37.34.9.64,1.41.59,1.7-.19,3.36-.53,4.96-1.13.5-.19.92-.45,1.2-.92.25-.43.36-1.06.2-1.54Z" style="fill: rgba(255, 255, 255, .4);"/>
        <path d="m135.69,52.57c-.09-.06-.17-.13-.26-.19-.14-.12-.29-.24-.43-.36-.3-.26-.58-.54-.86-.83-.15-.16-.3-.33-.44-.5-.06-.07-.11-.14-.17-.2-.09-.11-.11-.12-.11-.11-.08-.12-.16-.27-.21-.34-.12-.18-.24-.37-.36-.56-.21-.34-.4-.69-.57-1.05-.09-.18-.16-.37-.25-.54.26.51-.04-.12-.09-.26-.28-.79-.48-1.61-.6-2.44-.07-.46-.54-.97-.92-1.2-.43-.25-1.06-.36-1.54-.2-.48.16-.95.46-1.2.92-.27.51-.28.98-.2,1.54.57,3.96,2.94,7.49,6.18,9.78.86.6,2.26.18,2.74-.72.54-1.03.2-2.09-.72-2.74Z" style="fill: rgba(255, 255, 255, .4);"/>
      </g>
      <g>
        <path d="m217.11,49.3c-.86-.36-1.88-.44-2.79-.58-2.26-.35-4.53-.58-6.81-.66,0,0,0,0,0,0-.24-.4-.61-.71-1.1-.78-.76-.11-1.42-.06-2.05.42-.56.43-.85,1.03-.95,1.71-.19,1.44.88,2.45,2.12,2.91,1.8.66,3.8.96,5.7,1.16.89.09,1.79.14,2.68.13.45,0,.9-.01,1.34-.04.54-.03,1.16-.02,1.68-.17.85-.26,1.43-.96,1.54-1.83.13-.99-.48-1.89-1.38-2.27Z" style="fill: #cc1236;"/>
        <path d="m228.83,54.01c-2.43-.15-4.87-.28-7.3-.33-1.22-.03-2.44-.03-3.65-.02-1.32.02-2.71-.02-3.68,1.03-1.27,1.38-.72,3.58,1.05,4.19,1.1.38,2.47.19,3.62.18,2.46,0,4.93-.02,7.39-.03.71,0,1.44-.44,1.78-1.08.26.02.53.03.79.04,1.05.07,2.05-.97,2-2-.05-1.14-.88-1.93-2-2Z" style="fill: #cc1236;"/>
        <path d="m242.3,54.1c-1.74-1.32-4.25.03-6.26.04,1.87-.81,1.13-3.83-.9-3.75-2.83.83-17.43-2.43-18.24,1.44.79,3.6,15.07,2.11,17.78,2.56-2.25.94-1.04,4.41,1.31,3.77,2.33-.54,8.88-.04,6.31-4.07Z" style="fill: #349937;"/>
        <path d="m251.11,56.09c-.97-2.73-7.71-4.12-6.13.3,1.52,1.74,6.62,3.79,6.13-.3Z" style="fill: #349937;"/>
        <path d="m206.99,53.53c-1.77.44-8.86-1.38-8.7,2-.12,3.38,6.92,1.57,8.7,2,2.58.02,2.59-4.01,0-4Z" style="fill: #349937;"/>
        <path d="m205.35,47.81c-2.12-2.09-9.31,3.66-4.83,5.3,2.18.09,6.97-2.81,4.83-5.3Z" style="fill: #349937;"/>
        <path d="m265.44,61.34c-1.81-1.63-4.19-.42-6.2.02-8.97,1.56-18.15.13-27.15,1.71-8.45-1.37-16.52-1.53-25.06-.65-3.38-1.05-11.3-1.33-8.53,4.29-1.23,4.55,26.82,1.19,31.2,2.16,5.85-.93,41.81,3.55,35.75-7.53Z" style="fill: #ffcc03;"/>
        <path d="m249.5,63.57c2.26.02,1.46-2.31-.7-2.94-2.51-1.05-5.01-2.19-6.73-4.38-.94-1.16-3.11-.24-4.92-.24,9.19,0-16.77.23-25.88-.19-3.73.79-12.05-2.44-13.19,2.36.88,5.14,7.49,4.45,11.42,4.32,0,0,40,1.07,40,1.07Z" style="fill: #f49739;"/>
        <path d="m246.21,40.14c-12.1-.02-25.07-1.42-36.9.51-24,9.72,9.55,10.14,18.15,10.22,4.44-.24,10.04,1.01,14.3-.26,1.48-.83,0-2.67,1.09-3.87,1.32-1.9,7.67-4.58,3.37-6.59Z" style="fill: #f49739;"/>
        <path d="m260.39,45.04c-3.04-8.81-16.1-5.77-19.6,1.26-.98,1.59-2.31,4.01-.34,5.43,4.89,1.67,21.59,1.24,19.94-6.69Z" style="fill: #cc9;"/>
        <path d="m260.15,56.56c-2.68-2-4.98,2.98-8.35,1.43-3.24.13-6.81-5.11-9.5-2.24-.74,1.27-.31,2.08.41,3.22.61.96,2.54,2.55,3.51,3.13,5.16,3.08,16.26.48,13.93-5.54Z" style="fill: #cc9;"/>
        <path d="m265.68,49.16c-3.78-2.99-8.94.61-12.46,2.55-5.27,1.44-10.51-2.19-15.75-.38-5.64,2.72-11.39-.82-17.23-.3-10.95,3.47-16.27-2.91-23.2.72-2.14,1.42-.13,4.88,2.02,3.46,4.2-2.31,8.68,1.65,13.13,1.04,7.38-2.15,14.46-.26,21.85.16,4.73-1.67,9.36-1.99,14.19-.52.45,2.51,4.06,2.5,6.07,2.27,2.9-.44,4-4.2,7.13-3.84,3.18.98,6.85-2.16,4.26-5.15Z" style="fill: #063;"/>
      </g>
      <line x1="31.42" y1="69.79" x2="284.69" y2="69.79" style="fill: none; stroke: #fff; stroke-linecap: square; stroke-miterlimit: 10; stroke-width: 6px;"/>
      <line x1="55.33" y1="69.79" x2="228.95" y2="208.6" style="fill: none; stroke: #fff; stroke-linecap: square; stroke-miterlimit: 10; stroke-width: 4px;"/>
      <line x1="250.14" y1="69.79" x2="106.39" y2="208.85" style="fill: none; stroke: #fff; stroke-linecap: square; stroke-miterlimit: 10; stroke-width: 4px;"/>
      <g>
        <line x1="28.35" y1="141.45" x2="78.22" y2="207.83" style="fill: none; stroke: #fff; stroke-linecap: square; stroke-miterlimit: 10; stroke-width: 4px;"/>
        <line x1="72.61" y1="141.62" x2="22.91" y2="207.66" style="fill: none; stroke: #fff; stroke-linecap: square; stroke-miterlimit: 10; stroke-width: 4px;"/>
        <line x1="23.76" y1="141.11" x2="75.67" y2="141.11" style="fill: none; stroke: #fff; stroke-linecap: square; stroke-miterlimit: 10; stroke-width: 9px;"/>
      </g>
      <g>
        <line x1="259.28" y1="141.62" x2="309.16" y2="208" style="fill: none; stroke: #fff; stroke-linecap: square; stroke-miterlimit: 10; stroke-width: 4px;"/>
        <line x1="303.54" y1="141.79" x2="253.84" y2="207.83" style="fill: none; stroke: #fff; stroke-linecap: square; stroke-miterlimit: 10; stroke-width: 4px;"/>
        <line x1="254.69" y1="141.28" x2="306.6" y2="141.28" style="fill: none; stroke: #fff; stroke-linecap: square; stroke-miterlimit: 10; stroke-width: 9px;"/>
      </g>
      <text transform="translate(39.53 91.4)" style="fill: #ffed00; font-family: Bahnschrift-Bold, Bahnschrift; font-size: 15px; font-variation-settings: &apos;wght&apos; 700, &apos;wdth&apos; 100; font-weight: 700;"><tspan x="0" y="0">E</tspan></text>
      <text transform="translate(258.96 91.4)" style="fill: #ffed00; font-family: Bahnschrift-Bold, Bahnschrift; font-size: 15px; font-variation-settings: &apos;wght&apos; 700, &apos;wdth&apos; 100; font-weight: 700;"><tspan x="0" y="0">F</tspan></text>
      <text transform="translate(157.44 177.87)" style="fill: #ffed00; font-family: Bahnschrift-Bold, Bahnschrift; font-size: 15px; font-variation-settings: &apos;wght&apos; 700, &apos;wdth&apos; 100; font-weight: 700;"><tspan x="0" y="0">A</tspan></text>
      <text transform="translate(101.23 224.85)" style="fill: #ffed00; font-family: Bahnschrift-Bold, Bahnschrift; font-size: 15px; font-variation-settings: &apos;wght&apos; 700, &apos;wdth&apos; 100; font-weight: 700;"><tspan x="0" y="0">C</tspan></text>
      <text transform="translate(224.54 224.85)" style="fill: #ffed00; font-family: Bahnschrift-Bold, Bahnschrift; font-size: 15px; font-variation-settings: &apos;wght&apos; 700, &apos;wdth&apos; 100; font-weight: 700;"><tspan x="0" y="0">D</tspan></text>
      <text transform="translate(95.5 97.2) rotate(38.64)" style="fill: #1d1d1b; font-family: Bahnschrift-Bold, Bahnschrift; font-size: 15px; font-variation-settings: &apos;wght&apos; 700, &apos;wdth&apos; 100; font-weight: 700;"><tspan x="0" y="0">50cm</tspan></text>
      <text transform="translate(181.67 165.33) rotate(38.64)" style="fill: #1d1d1b; font-family: Bahnschrift-Bold, Bahnschrift; font-size: 15px; font-variation-settings: &apos;wght&apos; 700, &apos;wdth&apos; 100; font-weight: 700;"><tspan x="0" y="0">30cm</tspan></text>
      <text transform="translate(113.46 195.75) rotate(-44.05)" style="fill: #1d1d1b; font-family: Bahnschrift-Bold, Bahnschrift; font-size: 15px; font-variation-settings: &apos;wght&apos; 700, &apos;wdth&apos; 100; font-weight: 700;"><tspan x="0" y="0" style="letter-spacing: -.03em;">2</tspan><tspan x="7.31" y="0">4cm</tspan></text>
      <text transform="translate(182.95 128.2) rotate(-44.05)" style="fill: #1d1d1b; font-family: Bahnschrift-Bold, Bahnschrift; font-size: 15px; font-variation-settings: &apos;wght&apos; 700, &apos;wdth&apos; 100; font-weight: 700;"><tspan x="0" y="0">40 cm</tspan></text>
    </g>
  </g>
</svg>