<?xml version="1.0" encoding="UTF-8"?>
<svg id="Calque_1" data-name="Calque 1" xmlns="http://www.w3.org/2000/svg" viewBox="0 0 141.15 105.08">
  <defs>
    <style>
      .cls-1 {
        font-family: Bahnschrift, Bahnschrift;
        font-size: 12px;
        font-variation-settings: 'wght' 400, 'wdth' 100;
      }

      .cls-1, .cls-2 {
        fill: #1d1d1b;
      }

      .cls-3 {
        fill: #32b29a;
      }

      .cls-3, .cls-4 {
        stroke: #1d1d1b;
        stroke-miterlimit: 10;
      }

      .cls-4 {
        fill: none;
        stroke-width: .7px;
      }

      .cls-2 {
        stroke-width: 0px;
      }
    </style>
  </defs>
  <polygon class="cls-3" points="105.58 40.31 95.58 40.31 90.58 48.97 95.58 57.63 105.58 57.63 110.58 48.97 105.58 40.31"/>
  <polygon class="cls-3" points="90.58 48.96 80.58 48.96 75.58 57.62 80.58 66.28 90.58 66.28 95.58 57.62 90.58 48.96"/>
  <polygon class="cls-3" points="75.58 40.31 65.58 40.31 60.58 48.97 65.58 57.63 75.58 57.63 80.58 48.97 75.58 40.31"/>
  <polygon class="cls-3" points="105.58 23.01 95.58 23.01 90.58 31.67 95.58 40.33 105.58 40.33 110.58 31.67 105.58 23.01"/>
  <polygon class="cls-3" points="90.58 31.66 80.58 31.66 75.58 40.32 80.58 48.98 90.58 48.98 95.58 40.32 90.58 31.66"/>
  <polygon class="cls-3" points="75.58 23.01 65.58 23.01 60.58 31.67 65.58 40.33 75.58 40.33 80.58 31.67 75.58 23.01"/>
  <polygon class="cls-3" points="90.58 14.36 80.58 14.36 75.58 23.02 80.58 31.68 90.58 31.68 95.58 23.02 90.58 14.36"/>
  <polygon class="cls-3" points="135.58 40.32 125.58 40.32 120.58 48.98 125.58 57.64 135.58 57.64 140.58 48.98 135.58 40.32"/>
  <polygon class="cls-3" points="75.58 74.91 65.58 74.91 60.58 83.57 65.58 92.23 75.58 92.23 80.58 83.57 75.58 74.91"/>
  <polygon class="cls-3" points="105.58 57.61 95.58 57.61 90.58 66.27 95.58 74.93 105.58 74.93 110.58 66.27 105.58 57.61"/>
  <polygon class="cls-3" points="90.58 66.26 80.58 66.26 75.58 74.92 80.58 83.58 90.58 83.58 95.58 74.92 90.58 66.26"/>
  <polygon class="cls-3" points="75.58 57.61 65.58 57.61 60.58 66.27 65.58 74.93 75.58 74.93 80.58 66.27 75.58 57.61"/>
  <polygon class="cls-3" points="90.58 48.96 80.58 48.96 75.58 57.62 80.58 66.28 90.58 66.28 95.58 57.62 90.58 48.96"/>
  <polygon class="cls-3" points="75.58 40.31 65.58 40.31 60.58 48.97 65.58 57.63 75.58 57.63 80.58 48.97 75.58 40.31"/>
  <polygon class="cls-3" points="60.58 48.96 50.58 48.96 45.58 57.62 50.58 66.28 60.58 66.28 65.58 57.62 60.58 48.96"/>
  <polygon class="cls-3" points="45.58 40.31 35.58 40.31 30.58 48.97 35.58 57.63 45.58 57.63 50.58 48.97 45.58 40.31"/>
  <polygon class="cls-3" points="75.58 23.01 65.58 23.01 60.58 31.67 65.58 40.33 75.58 40.33 80.58 31.67 75.58 23.01"/>
  <polygon class="cls-3" points="60.58 31.66 50.58 31.66 45.58 40.32 50.58 48.98 60.58 48.98 65.58 40.32 60.58 31.66"/>
  <polygon class="cls-3" points="75.58 74.91 65.58 74.91 60.58 83.57 65.58 92.23 75.58 92.23 80.58 83.57 75.58 74.91"/>
  <polygon class="cls-3" points="60.58 83.56 50.58 83.56 45.58 92.22 50.58 100.88 60.58 100.88 65.58 92.22 60.58 83.56"/>
  <polygon class="cls-3" points="45.58 74.91 35.58 74.91 30.58 83.57 35.58 92.23 45.58 92.23 50.58 83.57 45.58 74.91"/>
  <polygon class="cls-3" points="75.58 57.61 65.58 57.61 60.58 66.27 65.58 74.93 75.58 74.93 80.58 66.27 75.58 57.61"/>
  <polygon class="cls-3" points="60.58 66.26 50.58 66.26 45.58 74.92 50.58 83.58 60.58 83.58 65.58 74.92 60.58 66.26"/>
  <polygon class="cls-3" points="45.58 57.61 35.58 57.61 30.58 66.27 35.58 74.93 45.58 74.93 50.58 66.27 45.58 57.61"/>
  <polygon class="cls-3" points="45.58 40.31 35.58 40.31 30.58 48.97 35.58 57.63 45.58 57.63 50.58 48.97 45.58 40.31"/>
  <polygon class="cls-3" points="30.58 48.96 20.58 48.96 15.58 57.62 20.58 66.28 30.58 66.28 35.58 57.62 30.58 48.96"/>
  <polygon class="cls-3" points="120.58 48.97 110.58 48.97 105.58 57.63 110.58 66.29 120.58 66.29 125.58 57.63 120.58 48.97"/>
  <polygon class="cls-3" points="120.58 31.65 110.58 31.65 105.58 40.31 110.58 48.97 120.58 48.97 125.58 40.31 120.58 31.65"/>
  <polygon class="cls-3" points="45.58 74.91 35.58 74.91 30.58 83.57 35.58 92.23 45.58 92.23 50.58 83.57 45.58 74.91"/>
  <polygon class="cls-3" points="45.58 57.61 35.58 57.61 30.58 66.27 35.58 74.93 45.58 74.93 50.58 66.27 45.58 57.61"/>
  <polygon class="cls-3" points="30.58 66.26 20.58 66.26 15.58 74.92 20.58 83.58 30.58 83.58 35.58 74.92 30.58 66.26"/>
  <polygon class="cls-3" points="15.58 57.61 5.58 57.61 .58 66.27 5.58 74.93 15.58 74.93 20.58 66.27 15.58 57.61"/>
  <polygon class="cls-3" points="30.58 48.96 20.58 48.96 15.58 57.62 20.58 66.28 30.58 66.28 35.58 57.62 30.58 48.96"/>
  <polygon class="cls-3" points="24.76 12.94 14.76 12.94 9.76 21.6 14.76 30.26 24.76 30.26 29.76 21.6 24.76 12.94"/>
  <text class="cls-1" transform="translate(4.87 10.26)"><tspan x="0" y="0">Unité</tspan></text>
  <g>
    <line class="cls-4" x1="6.85" y1="82.33" x2="44.1" y2="102.33"/>
    <polygon class="cls-2" points="2.49 79.99 7.28 85.79 7.17 82.5 9.97 80.78 2.49 79.99"/>
    <polygon class="cls-2" points="48.45 104.67 40.97 103.88 43.77 102.15 43.66 98.87 48.45 104.67"/>
  </g>
  <g>
    <line class="cls-4" x1="67.69" y1="101.83" x2="133.21" y2="63.42"/>
    <polygon class="cls-2" points="63.43 104.33 70.88 103.26 68.01 101.64 68 98.35 63.43 104.33"/>
    <polygon class="cls-2" points="137.47 60.92 132.9 66.9 132.89 63.61 130.02 61.99 137.47 60.92"/>
  </g>
  <text class="cls-1" transform="translate(17.16 101.84)"><tspan x="0" y="0">4</tspan></text>
  <text class="cls-1" transform="translate(104.24 89.84)"><tspan x="0" y="0">6</tspan></text>
</svg>