<?xml version="1.0" encoding="UTF-8"?>
<svg id="Calque_1" data-name="Calque 1" xmlns="http://www.w3.org/2000/svg" viewBox="0 0 150.5 80.5">
  <defs>
    <style>
      .cls-1 {
        fill: #b5d1ef;
        stroke-width: 0px;
      }

      .cls-2 {
        fill: #f6a117;
        stroke: #1d1d1b;
      }

      .cls-2, .cls-3 {
        stroke-miterlimit: 10;
        stroke-width: .5px;
      }

      .cls-4 {
        fill: #1d1d1b;
        font-family: Bahnschrift, Bahnschrift;
        font-size: 8.5px;
        font-variation-settings: 'wght' 400, 'wdth' 100;
      }

      .cls-3 {
        fill: none;
        stroke: #9d9d9c;
      }
    </style>
  </defs>
  <path class="cls-1" d="m21.84,37.16c4.4-2.44,3.04-10.38,8.41-13.11s11.25-8.17,17.46-7.49c4.19.46,3.12-4.77,12.54-4.09s14.18.85,21.16,3.74,10.72.17,11.57,1.36-1.02,7.32,2.21,8.17,12.77,1.53,17.53.85,4.26-8.85,4.94-9.87,5.28-2.04,10.21-2.04,6.98,2.09,8,5.55-1.36,11.13-1.36,14.7,7.91,1.6,9.53,2.21c2.18.83,2.73,6.77,2.72,10.04,0,4.05-2.89,9.4-3.57,13.04s-3.23,5.68-8.51,7.04-20.09.34-23.66,0-10.72.17-12.94-1.53-2.75-7.13-3.77-8.83.18-3.93-4.07-4.44-4.67-1.85-4.5,5.3-.09,7.47-3.15,8.49-11.4.68-14.81.68-8.34,3.4-10.21-.34-2.89-8.51-3.91-9.87-2.38-3.23-7.15-2.72c-4.77.51-6.54.85-11.4,2.38s-9.53,1.19-13.28.68c-3.74-.51-8-3.79-7.49-6.83s0-12.06,1.7-12.4,4.26.17,5.79-.68Z"/>
  <g>
    <rect class="cls-3" x=".25" y=".25" width="150" height="80"/>
    <line class="cls-3" x1=".25" y1="70.25" x2="150.25" y2="70.25"/>
    <line class="cls-3" x1=".25" y1="60.25" x2="150.25" y2="60.25"/>
    <line class="cls-3" x1=".25" y1="50.25" x2="150.25" y2="50.25"/>
    <line class="cls-3" x1=".25" y1="40.25" x2="150.25" y2="40.25"/>
    <line class="cls-3" x1=".25" y1="30.25" x2="150.25" y2="30.25"/>
    <line class="cls-3" x1=".25" y1="20.25" x2="150.25" y2="20.25"/>
    <line class="cls-3" x1=".25" y1="10.25" x2="150.25" y2="10.25"/>
    <line class="cls-3" x1="140.25" y1=".25" x2="140.25" y2="80.25"/>
    <line class="cls-3" x1="130.25" y1=".25" x2="130.25" y2="80.25"/>
    <line class="cls-3" x1="120.25" y1=".25" x2="120.25" y2="80.25"/>
    <line class="cls-3" x1="110.25" y1=".25" x2="110.25" y2="80.25"/>
    <line class="cls-3" x1="100.25" y1=".25" x2="100.25" y2="80.25"/>
    <line class="cls-3" x1="90.25" y1=".25" x2="90.25" y2="80.25"/>
    <line class="cls-3" x1="80.25" y1=".25" x2="80.25" y2="80.25"/>
    <line class="cls-3" x1="70.25" y1=".25" x2="70.25" y2="80.25"/>
    <line class="cls-3" x1="60.25" y1=".25" x2="60.25" y2="80.25"/>
    <line class="cls-3" x1="50.25" y1=".25" x2="50.25" y2="80.25"/>
    <line class="cls-3" x1="40.25" y1=".25" x2="40.25" y2="80.25"/>
    <line class="cls-3" x1="30.25" y1=".25" x2="30.25" y2="80.25"/>
    <line class="cls-3" x1="20.25" y1=".25" x2="20.25" y2="80.25"/>
    <line class="cls-3" x1="10.25" y1=".25" x2="10.25" y2="80.25"/>
  </g>
  <rect class="cls-2" x=".25" y="10.25" width="10" height="10"/>
  <text class="cls-4" transform="translate(.25 8.3)"><tspan x="0" y="0">Unité</tspan></text>
</svg>