<svg xmlns="http://www.w3.org/2000/svg" xmlns:xlink="http://www.w3.org/1999/xlink" width="598.48" height="224.52" viewBox="0 0 598.48 224.52">
  <defs>
    <linearGradient id="a" x1="185.3" y1="47.78" x2="223.67" y2="47.78" gradientUnits="userSpaceOnUse">
      <stop offset="0" stop-color="#414042"/>
      <stop offset="0.15" stop-color="#58595b"/>
      <stop offset="0.21" stop-color="#606163"/>
      <stop offset="0.3" stop-color="#757779"/>
      <stop offset="0.42" stop-color="#989a9d"/>
      <stop offset="0.46" stop-color="#a7a9ac"/>
      <stop offset="0.48" stop-color="#9fa1a4"/>
      <stop offset="0.58" stop-color="#808284"/>
      <stop offset="0.68" stop-color="#6a6b6e"/>
      <stop offset="0.77" stop-color="#5d5e60"/>
      <stop offset="0.85" stop-color="#58595b"/>
      <stop offset="1" stop-color="#414042"/>
    </linearGradient>
    <linearGradient id="b" x1="128.05" y1="50.13" x2="161.4" y2="50.13" xlink:href="#a"/>
    <linearGradient id="c" x1="434.46" y1="46.45" x2="472.83" y2="46.45" xlink:href="#a"/>
    <linearGradient id="d" x1="483.22" y1="40.32" x2="532.2" y2="40.32" xlink:href="#a"/>
    <linearGradient id="e" x1="548.61" y1="48.8" x2="581.96" y2="48.8" xlink:href="#a"/>
    <clipPath id="g">
      <path d="M221,32.12h1.34a1.3,1.3,0,0,0,1.3-1.3V26.91a1.3,1.3,0,0,0-1.3-1.3H186.6a1.3,1.3,0,0,0-1.3,1.3v3.91a1.3,1.3,0,0,0,1.3,1.3h1.34a2.64,2.64,0,1,1,0,5.28H186.6a1.3,1.3,0,0,0-1.3,1.3v30a1.3,1.3,0,0,0,1.3,1.3h35.77a1.3,1.3,0,0,0,1.3-1.3v-30a1.3,1.3,0,0,0-1.3-1.3H221a2.64,2.64,0,0,1,0-5.28Z" fill="url(#a)"/>
    </clipPath>
    <linearGradient id="h" x1="205.44" y1="69.94" x2="205.44" y2="66.73" gradientUnits="userSpaceOnUse">
      <stop offset="0" stop-color="#231f20"/>
      <stop offset="0.15" stop-color="#58595b"/>
      <stop offset="0.21" stop-color="#5f6062" stop-opacity="0.91"/>
      <stop offset="0.29" stop-color="#727376" stop-opacity="0.67"/>
      <stop offset="0.4" stop-color="#919396" stop-opacity="0.28"/>
      <stop offset="0.46" stop-color="#a7a9ac" stop-opacity="0"/>
    </linearGradient>
    <linearGradient id="i" x1="74.94" y1="-507.54" x2="74.94" y2="-510.76" gradientTransform="translate(280.23 -470.06) rotate(180)" xlink:href="#h"/>
    <linearGradient id="j" x1="75.74" y1="-495.67" x2="75.74" y2="-498.89" gradientTransform="translate(280.23 -470.06) rotate(180)" xlink:href="#h"/>
    <linearGradient id="k" x1="205.29" y1="32.12" x2="205.29" y2="28.9" xlink:href="#h"/>
    <linearGradient id="l" x1="204.49" y1="37.46" x2="204.49" y2="32.09" gradientUnits="userSpaceOnUse">
      <stop offset="0" stop-color="#231f20"/>
      <stop offset="0.15" stop-color="#58595b"/>
      <stop offset="0.21" stop-color="#606163" stop-opacity="0.9"/>
      <stop offset="0.32" stop-color="#757679" stop-opacity="0.63"/>
      <stop offset="0.45" stop-color="#97999c" stop-opacity="0.2"/>
      <stop offset="0.5" stop-color="#a7a9ac" stop-opacity="0"/>
      <stop offset="0.64" stop-color="#747577" stop-opacity="0.5"/>
      <stop offset="0.77" stop-color="#4f4e50" stop-opacity="0.86"/>
      <stop offset="0.85" stop-color="#414042"/>
      <stop offset="0.99" stop-color="#231f20"/>
    </linearGradient>
    <clipPath id="n">
      <path d="M159.1,36.12h1.16A1.15,1.15,0,0,0,161.4,35V31.47a1.15,1.15,0,0,0-1.14-1.17H129.18a1.15,1.15,0,0,0-1.13,1.17V35a1.15,1.15,0,0,0,1.13,1.16h1.17a2.37,2.37,0,0,1,0,4.73h-1.17A1.15,1.15,0,0,0,128.05,42V68.79A1.15,1.15,0,0,0,129.18,70h31.08a1.15,1.15,0,0,0,1.14-1.17V42a1.15,1.15,0,0,0-1.14-1.16H159.1a2.37,2.37,0,0,1,0-4.73Z" fill="url(#b)"/>
    </clipPath>
    <linearGradient id="o" x1="145.55" y1="69.94" x2="145.55" y2="67.07" xlink:href="#h"/>
    <linearGradient id="p" x1="134.81" y1="-510.98" x2="134.81" y2="-513.85" gradientTransform="translate(280.23 -470.06) rotate(180)" xlink:href="#h"/>
    <linearGradient id="q" x1="135.51" y1="-500.36" x2="135.51" y2="-503.24" gradientTransform="translate(280.23 -470.06) rotate(180)" xlink:href="#h"/>
    <linearGradient id="r" x1="145.42" y1="36.12" x2="145.42" y2="33.25" xlink:href="#h"/>
    <linearGradient id="s" x1="144.72" y1="40.9" x2="144.72" y2="36.1" xlink:href="#l"/>
    <clipPath id="u">
      <path d="M470.19,30.79h1.34a1.3,1.3,0,0,0,1.3-1.3V25.58a1.3,1.3,0,0,0-1.3-1.3H435.77a1.31,1.31,0,0,0-1.31,1.3v3.91a1.31,1.31,0,0,0,1.31,1.3h1.33a2.64,2.64,0,0,1,0,5.28h-1.33a1.31,1.31,0,0,0-1.31,1.3V67.32a1.31,1.31,0,0,0,1.31,1.3h35.76a1.3,1.3,0,0,0,1.3-1.3V37.37a1.3,1.3,0,0,0-1.3-1.3h-1.34a2.64,2.64,0,1,1,0-5.28Z" fill="url(#c)"/>
    </clipPath>
    <linearGradient id="v" x1="454.6" y1="68.61" x2="454.6" y2="65.39" xlink:href="#h"/>
    <linearGradient id="w" x1="-174.22" y1="-506.21" x2="-174.22" y2="-509.42" gradientTransform="translate(280.23 -470.06) rotate(180)" xlink:href="#h"/>
    <linearGradient id="x" x1="-173.42" y1="-494.34" x2="-173.42" y2="-497.56" gradientTransform="translate(280.23 -470.06) rotate(180)" xlink:href="#h"/>
    <linearGradient id="y" x1="454.45" y1="30.79" x2="454.45" y2="27.57" xlink:href="#h"/>
    <linearGradient id="z" x1="453.65" y1="36.13" x2="453.65" y2="30.76" xlink:href="#l"/>
    <clipPath id="ab">
      <path d="M528.83,20.33h1.7a1.66,1.66,0,0,0,1.67-1.66v-5A1.66,1.66,0,0,0,530.53,12H484.88a1.66,1.66,0,0,0-1.66,1.66v5a1.66,1.66,0,0,0,1.66,1.66h1.71a3.37,3.37,0,1,1,0,6.74h-1.71a1.67,1.67,0,0,0-1.66,1.66V67a1.66,1.66,0,0,0,1.66,1.66h45.65A1.66,1.66,0,0,0,532.2,67V28.73a1.67,1.67,0,0,0-1.67-1.66h-1.7a3.37,3.37,0,0,1,0-6.74Z" fill="url(#d)"/>
    </clipPath>
    <linearGradient id="ac" x1="508.92" y1="68.61" x2="508.92" y2="64.5" xlink:href="#h"/>
    <linearGradient id="ad" x1="-228.5" y1="-497.23" x2="-228.5" y2="-501.34" gradientTransform="translate(280.23 -470.06) rotate(180)" xlink:href="#h"/>
    <linearGradient id="ae" x1="-227.48" y1="-482.08" x2="-227.48" y2="-486.19" gradientTransform="translate(280.23 -470.06) rotate(180)" xlink:href="#h"/>
    <linearGradient id="af" x1="508.73" y1="20.33" x2="508.73" y2="16.22" xlink:href="#h"/>
    <linearGradient id="ag" x1="507.71" y1="27.14" x2="507.71" y2="20.29" xlink:href="#l"/>
    <clipPath id="ai">
      <path d="M579.66,34.79h1.17A1.15,1.15,0,0,0,582,33.63v-3.5A1.15,1.15,0,0,0,580.83,29H549.75a1.15,1.15,0,0,0-1.14,1.16v3.5a1.15,1.15,0,0,0,1.14,1.16h1.16a2.36,2.36,0,0,1,0,4.72h-1.16a1.15,1.15,0,0,0-1.14,1.17V67.46a1.15,1.15,0,0,0,1.14,1.16h31.08A1.15,1.15,0,0,0,582,67.46V40.68a1.15,1.15,0,0,0-1.13-1.17h-1.17a2.36,2.36,0,0,1,0-4.72Z" fill="url(#e)"/>
    </clipPath>
    <linearGradient id="aj" x1="566.11" y1="68.61" x2="566.11" y2="65.74" xlink:href="#h"/>
    <linearGradient id="ak" x1="-285.75" y1="-509.64" x2="-285.75" y2="-512.52" gradientTransform="translate(280.23 -470.06) rotate(180)" xlink:href="#h"/>
    <linearGradient id="al" x1="-285.06" y1="-499.03" x2="-285.06" y2="-501.91" gradientTransform="translate(280.23 -470.06) rotate(180)" xlink:href="#h"/>
    <linearGradient id="am" x1="565.98" y1="34.79" x2="565.98" y2="31.91" xlink:href="#h"/>
    <linearGradient id="an" x1="565.29" y1="39.56" x2="565.29" y2="34.76" xlink:href="#l"/>
  </defs>
  <title>Balance</title>
  <g>
    <line x1="56.25" y1="224.52" x2="299.42" y2="224.52" fill="none"/>
    <g>
      <path d="M496.74,166.85H330.12V153.19a5.66,5.66,0,0,0-5.66-5.67H314.8L305.31,111H293.56l-9.49,36.5h-9.65a5.67,5.67,0,0,0-5.67,5.67v13.66H102.14a5.67,5.67,0,0,0-5.67,5.67v22.83a5.67,5.67,0,0,0,5.67,5.67h394.6a5.67,5.67,0,0,0,5.67-5.67V172.52A5.67,5.67,0,0,0,496.74,166.85Z" fill="#65554e"/>
      <path d="M86.56,204" fill="none"/>
      <path d="M512.31,204" fill="none"/>
      <g>
        <path d="M512.31,197.44a5.67,5.67,0,0,0-5.67-5.67H92.23a5.67,5.67,0,0,0-5.67,5.67V204H512.31Z" fill="#413632"/>
        <polygon points="78.1 215.48 91.65 215.48 114.65 204.02 86.56 204.02 78.1 215.48" fill="#413632"/>
        <polygon points="512.27 204.02 484.19 204.02 507.19 215.48 520.73 215.48 512.27 204.02" fill="#413632"/>
      </g>
    </g>
  </g>
  <g>
    <path d="M299,0l2.54,80.71h6.92L330,110.62H492.1s.5,17.37-.87,17.87-172.94,8.75-191.81,8.75S109,129,107.6,128.5s-.87-17.87-.87-17.87H268.79l21.58-29.92h6.92Z" fill="#413632"/>
    <circle cx="299.42" cy="122" r="4.06" fill="#65554e" stroke="#9c8b80" stroke-miterlimit="10" stroke-width="2"/>
  </g>
  <g>
    <circle cx="23.94" cy="51.78" r="22.17" fill="#e9e31e" stroke="#c49a6c" stroke-miterlimit="10" stroke-width="0.51"/>
    <g>
      <path d="M23.94,74s5.17-5.47,5.17-10.14c0-6.54-2.5-10.67-5.17-12.9-2.37-2-4.9-2.71-4.9-11.38,0-4.72,4.9-9.93,4.9-9.93" fill="#e9e31e"/>
      <path d="M23.94,74a15.25,15.25,0,0,0,2.77-2.3A12.6,12.6,0,0,0,29,68.33c.11-.26.27-.58.45-1.08a7.18,7.18,0,0,0,.29-.89A7.86,7.86,0,0,0,30,65.12a17.22,17.22,0,0,0-.08-4.39,19.11,19.11,0,0,0-1.28-4.91,15.42,15.42,0,0,0-2.14-3.69,12.09,12.09,0,0,0-1.21-1.34,13.72,13.72,0,0,0-1.15-1,12.92,12.92,0,0,1-2.38-2.15A8.44,8.44,0,0,1,20.37,44a24.3,24.3,0,0,1-.32-3.92,10.38,10.38,0,0,1,.05-1.44,7.39,7.39,0,0,1,.24-1.11,9.47,9.47,0,0,1,.5-1.46c.56-1.31,1.09-2.34,1.56-3.34s.93-2,1.54-3.15a15.15,15.15,0,0,0-2.75,2.33A12.6,12.6,0,0,0,18.41,37a11.35,11.35,0,0,0-.29,1.38,10.88,10.88,0,0,0-.07,1.73,25.87,25.87,0,0,0,.35,4.24,10.35,10.35,0,0,0,1.75,4.47,14,14,0,0,0,2.75,2.51,12.42,12.42,0,0,1,1,.86,10.27,10.27,0,0,1,1,1.15,13.29,13.29,0,0,1,1.86,3.22A16.65,16.65,0,0,1,27.92,61,15.18,15.18,0,0,1,28,64.8a10.51,10.51,0,0,1-.86,2.7c-.59,1.3-1.14,2.32-1.63,3.32S24.57,72.8,23.94,74Z" fill="#fff"/>
    </g>
  </g>
  <g>
    <circle cx="46.12" cy="51.78" r="22.17" fill="#e9e31e" stroke="#c49a6c" stroke-miterlimit="10" stroke-width="0.51"/>
    <g>
      <path d="M46.12,74s5.16-5.47,5.16-10.14c0-6.54-2.5-10.67-5.16-12.9-2.38-2-4.91-2.71-4.91-11.38,0-4.72,4.91-9.93,4.91-9.93" fill="#e9e31e"/>
      <path d="M46.12,74a16,16,0,0,0,2.77-2.3,12.84,12.84,0,0,0,2.24-3.33,9.66,9.66,0,0,0,.45-1.08,7.07,7.07,0,0,0,.3-.89,9.27,9.27,0,0,0,.28-1.24,16.77,16.77,0,0,0-.08-4.39,18.7,18.7,0,0,0-1.27-4.91,15.09,15.09,0,0,0-2.15-3.69,12.09,12.09,0,0,0-1.21-1.34,14.44,14.44,0,0,0-1.14-1,12.65,12.65,0,0,1-2.39-2.15A8.31,8.31,0,0,1,42.55,44a25.58,25.58,0,0,1-.33-3.92,10.19,10.19,0,0,1,.06-1.44,9,9,0,0,1,.23-1.11A10.45,10.45,0,0,1,43,36.1c.55-1.31,1.08-2.34,1.55-3.34s.93-2,1.55-3.15a14.82,14.82,0,0,0-2.75,2.33,11.81,11.81,0,0,0-2.18,3.39,10,10,0,0,0-.6,1.7,8.5,8.5,0,0,0-.29,1.38,12.17,12.17,0,0,0-.08,1.73,25.87,25.87,0,0,0,.35,4.24,10.48,10.48,0,0,0,1.75,4.47,13.69,13.69,0,0,0,2.76,2.51,11,11,0,0,1,1,.86,10.27,10.27,0,0,1,1,1.15A13,13,0,0,1,49,56.59,17.06,17.06,0,0,1,50.1,61a15.67,15.67,0,0,1,.09,3.81,10.94,10.94,0,0,1-.86,2.7c-.6,1.3-1.15,2.32-1.64,3.32S46.74,72.8,46.12,74Z" fill="#fff"/>
    </g>
  </g>
  <g>
    <circle cx="68.29" cy="51.78" r="22.17" fill="#e9e31e" stroke="#c49a6c" stroke-miterlimit="10" stroke-width="0.51"/>
    <g>
      <path d="M68.29,74s5.16-5.47,5.16-10.14c0-6.54-2.5-10.67-5.16-12.9-2.37-2-4.9-2.71-4.9-11.38,0-4.72,4.9-9.93,4.9-9.93" fill="#e9e31e"/>
      <path d="M68.29,74a15.6,15.6,0,0,0,2.77-2.3,12.6,12.6,0,0,0,2.25-3.33c.11-.26.27-.58.45-1.08a7.18,7.18,0,0,0,.29-.89,9.16,9.16,0,0,0,.29-1.24,17.69,17.69,0,0,0-.08-4.39A19.11,19.11,0,0,0,73,55.82a15.42,15.42,0,0,0-2.14-3.69,12.09,12.09,0,0,0-1.21-1.34,13.72,13.72,0,0,0-1.15-1,12.61,12.61,0,0,1-2.38-2.15A8.44,8.44,0,0,1,64.72,44a24.3,24.3,0,0,1-.32-3.92,9,9,0,0,1,0-1.44,7.39,7.39,0,0,1,.24-1.11,9.47,9.47,0,0,1,.5-1.46c.56-1.31,1.08-2.34,1.56-3.34s.92-2,1.54-3.15a15.15,15.15,0,0,0-2.75,2.33,11.81,11.81,0,0,0-2.18,3.39,11,11,0,0,0-.6,1.7,9.72,9.72,0,0,0-.29,1.38,10.88,10.88,0,0,0-.07,1.73,25.87,25.87,0,0,0,.35,4.24,10.23,10.23,0,0,0,1.75,4.47,14,14,0,0,0,2.75,2.51,11,11,0,0,1,1,.86,10.27,10.27,0,0,1,1,1.15,13,13,0,0,1,1.87,3.22A17,17,0,0,1,72.27,61a15.18,15.18,0,0,1,.09,3.81,10.51,10.51,0,0,1-.86,2.7c-.59,1.3-1.14,2.32-1.63,3.32S68.91,72.8,68.29,74Z" fill="#fff"/>
    </g>
  </g>
  <g>
    <circle cx="90.47" cy="51.78" r="22.17" fill="#e9e31e" stroke="#c49a6c" stroke-miterlimit="10" stroke-width="0.51"/>
    <g>
      <path d="M90.47,74s5.16-5.47,5.16-10.14c0-6.54-2.5-10.67-5.16-12.9-2.38-2-4.91-2.71-4.91-11.38,0-4.72,4.91-9.93,4.91-9.93" fill="#e9e31e"/>
      <path d="M90.47,74a15.52,15.52,0,0,0,2.76-2.3,12.6,12.6,0,0,0,2.25-3.33c.12-.26.27-.58.45-1.08a9.16,9.16,0,0,0,.3-.89,9.27,9.27,0,0,0,.28-1.24,16.77,16.77,0,0,0-.08-4.39,19.09,19.09,0,0,0-1.27-4.91A15.42,15.42,0,0,0,93,52.13a12.09,12.09,0,0,0-1.21-1.34,13.72,13.72,0,0,0-1.15-1,12.92,12.92,0,0,1-2.38-2.15A8.44,8.44,0,0,1,86.89,44a24.3,24.3,0,0,1-.32-3.92,8.88,8.88,0,0,1,.06-1.44,9,9,0,0,1,.23-1.11,12.3,12.3,0,0,1,.5-1.46c.56-1.31,1.09-2.34,1.56-3.34s.93-2,1.55-3.15a14.5,14.5,0,0,0-2.75,2.33A12.5,12.5,0,0,0,84.93,37a11.35,11.35,0,0,0-.29,1.38,12.2,12.2,0,0,0-.07,1.73,25.87,25.87,0,0,0,.35,4.24,10.48,10.48,0,0,0,1.75,4.47,14,14,0,0,0,2.75,2.51,12.42,12.42,0,0,1,1,.86,10.27,10.27,0,0,1,1,1.15,13.29,13.29,0,0,1,1.86,3.22A16.65,16.65,0,0,1,94.44,61a15.18,15.18,0,0,1,.09,3.81,10.51,10.51,0,0,1-.86,2.7c-.59,1.3-1.14,2.32-1.63,3.32S91.09,72.8,90.47,74Z" fill="#fff"/>
    </g>
  </g>
  <g>
    <rect x="109.25" y="72.63" width="24.67" height="60.67" fill="#65554e"/>
    <path d="M0,70v4.33A11.34,11.34,0,0,0,11.34,85.63H231.83a11.34,11.34,0,0,0,11.34-11.34V70" fill="#d7822b"/>
    <circle cx="121.58" cy="121.21" r="4.06" fill="#9c8b80" stroke="#c2b59b" stroke-miterlimit="10" stroke-width="2"/>
  </g>
  <g>
    <circle cx="382.85" cy="51.45" r="22.17" fill="#e9e31e" stroke="#c49a6c" stroke-miterlimit="10" stroke-width="0.51"/>
    <g>
      <path d="M382.85,73.63S388,68.16,388,63.48c0-6.54-2.5-10.66-5.17-12.89-2.37-2-4.9-2.72-4.9-11.38,0-4.73,4.9-9.93,4.9-9.93" fill="#e9e31e"/>
      <path d="M382.85,73.63a15.29,15.29,0,0,0,2.77-2.31A12.44,12.44,0,0,0,387.87,68c.11-.25.27-.57.45-1.08a7.62,7.62,0,0,0,.3-.89,8.6,8.6,0,0,0,.28-1.24,16.7,16.7,0,0,0-.08-4.38,19,19,0,0,0-1.27-4.91,15.55,15.55,0,0,0-2.15-3.69,12.09,12.09,0,0,0-1.21-1.34,12.57,12.57,0,0,0-1.15-1,12.5,12.5,0,0,1-2.38-2.14,8.49,8.49,0,0,1-1.38-3.62,24.3,24.3,0,0,1-.32-3.92,10.38,10.38,0,0,1,.05-1.44,7.53,7.53,0,0,1,.24-1.12,9.67,9.67,0,0,1,.5-1.45c.56-1.31,1.09-2.34,1.56-3.35s.93-2,1.54-3.14a14.7,14.7,0,0,0-2.74,2.32A12.11,12.11,0,0,0,377.92,35a12.9,12.9,0,0,0-.6,1.71,11.58,11.58,0,0,0-.29,1.37,11,11,0,0,0-.07,1.74,26,26,0,0,0,.35,4.24,10.44,10.44,0,0,0,1.75,4.46A14.08,14.08,0,0,0,381.81,51a10.31,10.31,0,0,1,1,.86,9.22,9.22,0,0,1,1,1.15,13.4,13.4,0,0,1,1.86,3.21,16.85,16.85,0,0,1,1.13,4.4,15.26,15.26,0,0,1,.09,3.82,10.53,10.53,0,0,1-.86,2.69c-.59,1.31-1.14,2.33-1.63,3.33S383.48,72.47,382.85,73.63Z" fill="#fff"/>
    </g>
  </g>
  <g>
    <circle cx="405.03" cy="51.45" r="22.17" fill="#e9e31e" stroke="#c49a6c" stroke-miterlimit="10" stroke-width="0.51"/>
    <g>
      <path d="M405,73.63s5.16-5.47,5.16-10.15c0-6.54-2.5-10.66-5.16-12.89-2.38-2-4.91-2.72-4.91-11.38,0-4.73,4.91-9.93,4.91-9.93" fill="#e9e31e"/>
      <path d="M405,73.63a16,16,0,0,0,2.77-2.31A12.2,12.2,0,0,0,410,68a8.25,8.25,0,0,0,.45-1.08,6.11,6.11,0,0,0,.3-.89,8.6,8.6,0,0,0,.28-1.24A16.7,16.7,0,0,0,411,60.4a18.6,18.6,0,0,0-1.27-4.91,14.9,14.9,0,0,0-2.15-3.69,12.09,12.09,0,0,0-1.21-1.34,11.48,11.48,0,0,0-1.14-1,12.24,12.24,0,0,1-2.39-2.14,8.35,8.35,0,0,1-1.37-3.62,25.58,25.58,0,0,1-.33-3.92,10.19,10.19,0,0,1,.06-1.44,9.16,9.16,0,0,1,.23-1.12,10.71,10.71,0,0,1,.51-1.45c.56-1.31,1.08-2.34,1.56-3.35s.92-2,1.54-3.14a15.11,15.11,0,0,0-2.75,2.32A12.1,12.1,0,0,0,400.1,35a10.51,10.51,0,0,0-.6,1.71,8.6,8.6,0,0,0-.29,1.37,12.31,12.31,0,0,0-.08,1.74,27.12,27.12,0,0,0,.35,4.24,10.44,10.44,0,0,0,1.75,4.46A14.08,14.08,0,0,0,404,51a11.42,11.42,0,0,1,2,2,12.76,12.76,0,0,1,1.86,3.21,17.27,17.27,0,0,1,1.14,4.4,15.75,15.75,0,0,1,.09,3.82,11,11,0,0,1-.86,2.69c-.6,1.31-1.15,2.33-1.64,3.33S405.65,72.47,405,73.63Z" fill="#fff"/>
    </g>
  </g>
  <g>
    <rect x="464.56" y="71.29" width="24.67" height="60.67" fill="#65554e"/>
    <path d="M355.31,68.62V73a11.34,11.34,0,0,0,11.34,11.34H587.14A11.34,11.34,0,0,0,598.48,73V68.62" fill="#d7822b"/>
    <circle cx="476.9" cy="119.88" r="4.06" fill="#9c8b80" stroke="#c2b59b" stroke-miterlimit="10" stroke-width="2"/>
  </g>
  <g>
    <path d="M221,32.12h1.34a1.3,1.3,0,0,0,1.3-1.3V26.91a1.3,1.3,0,0,0-1.3-1.3H186.6a1.3,1.3,0,0,0-1.3,1.3v3.91a1.3,1.3,0,0,0,1.3,1.3h1.34a2.64,2.64,0,1,1,0,5.28H186.6a1.3,1.3,0,0,0-1.3,1.3v30a1.3,1.3,0,0,0,1.3,1.3h35.77a1.3,1.3,0,0,0,1.3-1.3v-30a1.3,1.3,0,0,0-1.3-1.3H221a2.64,2.64,0,0,1,0-5.28Z" fill="url(#a)"/>
    <g clip-path="url(#g)">
      <path d="M224.93,66.73H186a1.61,1.61,0,0,0,0,3.21h39A1.61,1.61,0,0,0,224.93,66.73Z" opacity="0.7" fill="url(#h)"/>
      <path d="M185.8,40.69h39a1.61,1.61,0,0,0,0-3.21h-39A1.61,1.61,0,0,0,185.8,40.69Z" opacity="0.7" fill="url(#i)"/>
      <path d="M185,28.83h39a1.61,1.61,0,0,0,0-3.22H185A1.61,1.61,0,0,0,185,28.83Z" opacity="0.7" fill="url(#j)"/>
      <path d="M224.77,28.9h-39a1.61,1.61,0,0,0,0,3.22h39A1.61,1.61,0,0,0,224.77,28.9Z" opacity="0.7" fill="url(#k)"/>
      <path d="M224,32.09H185c-2.07,0-2.07,5.37,0,5.37h39C226.05,37.46,226.05,32.09,224,32.09Z" opacity="0.7" fill="url(#l)"/>
    </g>
  </g>
  <g>
    <path d="M190.24,48.69h0l-2.48,1.18-.5-2.28,3.46-1.6h2.5V59h-2.94Z" fill="#231f20"/>
    <path d="M202.14,59.21c-3.36,0-4.84-3-4.86-6.7s1.58-6.74,4.94-6.74,4.84,3.1,4.84,6.66c0,4-1.62,6.78-4.9,6.78Zm.06-2.3c1.18,0,1.82-1.48,1.82-4.44s-.62-4.4-1.84-4.4-1.86,1.46-1.86,4.4.7,4.44,1.86,4.44Z" fill="#231f20"/>
    <path d="M222.24,57.57c0,1.88-.38,3.42-1.5,4.4a6,6,0,0,1-4,1.2,7.83,7.83,0,0,1-3.52-.74l.6-2.32a6,6,0,0,0,2.84.74,2.32,2.32,0,0,0,2.54-2.58v-.62h0a3.16,3.16,0,0,1-2.64,1.26c-2.42,0-4.14-2-4.14-4.76,0-3.16,2-5.16,4.44-5.16a2.92,2.92,0,0,1,2.68,1.4h0l.1-1.18h2.64c0,.64-.08,1.46-.08,2.92Zm-3-4.38a2.67,2.67,0,0,0-.06-.56,1.67,1.67,0,0,0-1.64-1.34c-1.12,0-2,1-2,2.78,0,1.46.72,2.6,2,2.6a1.66,1.66,0,0,0,1.62-1.22,2.79,2.79,0,0,0,.1-.82Z" fill="#231f20"/>
  </g>
  <g>
    <path d="M159.1,36.12h1.16A1.15,1.15,0,0,0,161.4,35V31.47a1.15,1.15,0,0,0-1.14-1.17H129.18a1.15,1.15,0,0,0-1.13,1.17V35a1.15,1.15,0,0,0,1.13,1.16h1.17a2.37,2.37,0,0,1,0,4.73h-1.17A1.15,1.15,0,0,0,128.05,42V68.79A1.15,1.15,0,0,0,129.18,70h31.08a1.15,1.15,0,0,0,1.14-1.17V42a1.15,1.15,0,0,0-1.14-1.16H159.1a2.37,2.37,0,0,1,0-4.73Z" fill="url(#b)"/>
    <g clip-path="url(#n)">
      <path d="M162.49,67.07H128.62a1.44,1.44,0,0,0,0,2.87h33.87A1.44,1.44,0,0,0,162.49,67.07Z" opacity="0.7" fill="url(#o)"/>
      <path d="M128.48,43.79h33.87a1.44,1.44,0,0,0,0-2.88H128.48A1.44,1.44,0,0,0,128.48,43.79Z" opacity="0.7" fill="url(#p)"/>
      <path d="M127.79,33.18h33.87a1.44,1.44,0,0,0,0-2.88H127.79A1.44,1.44,0,0,0,127.79,33.18Z" opacity="0.7" fill="url(#q)"/>
      <path d="M162.35,33.25H128.48a1.44,1.44,0,0,0,0,2.87h33.87A1.44,1.44,0,0,0,162.35,33.25Z" opacity="0.7" fill="url(#r)"/>
      <path d="M161.66,36.1H127.79c-1.8,0-1.8,4.8,0,4.8h33.87C163.46,40.9,163.46,36.1,161.66,36.1Z" opacity="0.7" fill="url(#s)"/>
    </g>
  </g>
  <g>
    <path d="M140.83,50.32h-5.05l-.28,2c.28,0,.53,0,.85,0a5.9,5.9,0,0,1,3.42.94,3.7,3.7,0,0,1,1.58,3.26c0,2.42-2.08,4.56-5.59,4.56a8.26,8.26,0,0,1-3.62-.74L132.7,58a7.27,7.27,0,0,0,2.92.64c1.27,0,2.61-.6,2.61-2s-1.06-2.16-3.67-2.16a10.78,10.78,0,0,0-1.74.12l.84-6.83h7.17Z" fill="#231f20"/>
    <path d="M156.93,59.4c0,1.88-.38,3.42-1.5,4.4a6,6,0,0,1-4,1.2,7.83,7.83,0,0,1-3.52-.74l.6-2.32a6,6,0,0,0,2.84.74,2.33,2.33,0,0,0,2.55-2.58v-.62h0a3.17,3.17,0,0,1-2.65,1.26c-2.42,0-4.14-2-4.14-4.76,0-3.16,2-5.16,4.44-5.16a2.93,2.93,0,0,1,2.69,1.4h0l.1-1.18H157c0,.64-.08,1.46-.08,2.92Zm-3-4.38a2.67,2.67,0,0,0-.06-.56,1.67,1.67,0,0,0-1.65-1.34c-1.12,0-2,1-2,2.78,0,1.46.72,2.6,2,2.6a1.67,1.67,0,0,0,1.63-1.22,2.79,2.79,0,0,0,.1-.82Z" fill="#231f20"/>
  </g>
  <g>
    <path d="M470.19,30.79h1.34a1.3,1.3,0,0,0,1.3-1.3V25.58a1.3,1.3,0,0,0-1.3-1.3H435.77a1.31,1.31,0,0,0-1.31,1.3v3.91a1.31,1.31,0,0,0,1.31,1.3h1.33a2.64,2.64,0,0,1,0,5.28h-1.33a1.31,1.31,0,0,0-1.31,1.3V67.32a1.31,1.31,0,0,0,1.31,1.3h35.76a1.3,1.3,0,0,0,1.3-1.3V37.37a1.3,1.3,0,0,0-1.3-1.3h-1.34a2.64,2.64,0,1,1,0-5.28Z" fill="url(#c)"/>
    <g clip-path="url(#u)">
      <path d="M474.09,65.39h-39a1.61,1.61,0,0,0,0,3.22h39A1.61,1.61,0,0,0,474.09,65.39Z" opacity="0.7" fill="url(#v)"/>
      <path d="M435,39.36h39a1.61,1.61,0,0,0,0-3.22H435A1.61,1.61,0,0,0,435,39.36Z" opacity="0.7" fill="url(#w)"/>
      <path d="M434.16,27.49h39a1.61,1.61,0,0,0,0-3.21h-39A1.61,1.61,0,0,0,434.16,27.49Z" opacity="0.7" fill="url(#x)"/>
      <path d="M473.93,27.57H435a1.61,1.61,0,0,0,0,3.22h39A1.61,1.61,0,0,0,473.93,27.57Z" opacity="0.7" fill="url(#y)"/>
      <path d="M473.14,30.76h-39c-2.07,0-2.07,5.37,0,5.37h39C475.21,36.13,475.21,30.76,473.14,30.76Z" opacity="0.7" fill="url(#z)"/>
    </g>
  </g>
  <g>
    <path d="M436.06,54.68a6.88,6.88,0,0,0,3,.8c1.58,0,2.38-.76,2.38-1.72,0-1.31-1.28-1.89-2.6-1.89h-1.24V49.69h1.18c1,0,2.3-.4,2.3-1.5,0-.78-.62-1.36-1.92-1.36a5.77,5.77,0,0,0-2.7.78l-.62-2.2a8.09,8.09,0,0,1,4-1c2.76,0,4.3,1.46,4.3,3.24a3.1,3.1,0,0,1-2.38,3v0a3.24,3.24,0,0,1,2.82,3.19c0,2.28-2,4-5.32,4a7.92,7.92,0,0,1-3.86-.9Z" fill="#231f20"/>
    <path d="M451.3,57.88c-3.36,0-4.84-3-4.86-6.71s1.58-6.74,4.94-6.74,4.84,3.1,4.84,6.66c0,4-1.62,6.79-4.9,6.79Zm.06-2.3c1.18,0,1.82-1.48,1.82-4.45s-.62-4.4-1.84-4.4-1.86,1.46-1.86,4.4.7,4.45,1.86,4.45Z" fill="#231f20"/>
    <path d="M471.4,56.24c0,1.88-.38,3.42-1.5,4.4a6,6,0,0,1-4,1.2,7.83,7.83,0,0,1-3.52-.74l.6-2.32a6,6,0,0,0,2.84.74,2.32,2.32,0,0,0,2.54-2.58v-.62h0a3.16,3.16,0,0,1-2.64,1.26c-2.42,0-4.14-2-4.14-4.76,0-3.17,2-5.17,4.44-5.17a2.92,2.92,0,0,1,2.68,1.4h0l.1-1.18h2.64c0,.64-.08,1.46-.08,2.92Zm-3-4.39a2.67,2.67,0,0,0-.06-.56A1.67,1.67,0,0,0,466.66,50c-1.12,0-2,1-2,2.79,0,1.46.72,2.6,2,2.6a1.66,1.66,0,0,0,1.62-1.22,2.84,2.84,0,0,0,.1-.82Z" fill="#231f20"/>
  </g>
  <g>
    <path d="M528.83,20.33h1.7a1.66,1.66,0,0,0,1.67-1.66v-5A1.66,1.66,0,0,0,530.53,12H484.88a1.66,1.66,0,0,0-1.66,1.66v5a1.66,1.66,0,0,0,1.66,1.66h1.71a3.37,3.37,0,1,1,0,6.74h-1.71a1.67,1.67,0,0,0-1.66,1.66V67a1.66,1.66,0,0,0,1.66,1.66h45.65A1.66,1.66,0,0,0,532.2,67V28.73a1.67,1.67,0,0,0-1.67-1.66h-1.7a3.37,3.37,0,0,1,0-6.74Z" fill="url(#d)"/>
    <g clip-path="url(#ab)">
      <path d="M533.8,64.5H484.05c-2.64,0-2.64,4.11,0,4.11H533.8C536.44,68.61,536.44,64.5,533.8,64.5Z" opacity="0.7" fill="url(#ac)"/>
      <path d="M483.86,31.27H533.6c2.65,0,2.65-4.1,0-4.1H483.86C481.21,27.17,481.21,31.27,483.86,31.27Z" opacity="0.7" fill="url(#ad)"/>
      <path d="M482.84,16.13h49.74c2.65,0,2.65-4.11,0-4.11H482.84C480.19,12,480.19,16.13,482.84,16.13Z" opacity="0.7" fill="url(#ae)"/>
      <path d="M533.6,16.22H483.86c-2.65,0-2.65,4.11,0,4.11H533.6C536.25,20.33,536.25,16.22,533.6,16.22Z" opacity="0.7" fill="url(#af)"/>
      <path d="M532.58,20.29H482.84c-2.65,0-2.65,6.85,0,6.85h49.74C535.23,27.14,535.23,20.29,532.58,20.29Z" opacity="0.7" fill="url(#ag)"/>
    </g>
  </g>
  <g>
    <path d="M487.91,43.42h0l-2.48,1.18-.5-2.28,3.46-1.6h2.5v13h-2.94Z" fill="#231f20"/>
    <path d="M499.81,53.94c-3.36,0-4.84-3-4.86-6.7s1.58-6.74,4.94-6.74,4.84,3.1,4.84,6.66c0,4-1.62,6.78-4.9,6.78Zm.06-2.3c1.18,0,1.82-1.48,1.82-4.44s-.62-4.4-1.84-4.4S498,44.26,498,47.2s.7,4.44,1.86,4.44Z" fill="#231f20"/>
    <path d="M510.91,53.94c-3.36,0-4.84-3-4.86-6.7s1.58-6.74,4.94-6.74,4.84,3.1,4.84,6.66c0,4-1.62,6.78-4.9,6.78Zm.06-2.3c1.18,0,1.82-1.48,1.82-4.44s-.62-4.4-1.84-4.4-1.86,1.46-1.86,4.4.7,4.44,1.86,4.44Z" fill="#231f20"/>
    <path d="M531,52.3c0,1.88-.38,3.42-1.5,4.4a6,6,0,0,1-4,1.2,7.83,7.83,0,0,1-3.52-.74l.6-2.32a6,6,0,0,0,2.84.74A2.32,2.32,0,0,0,528,53v-.62h0a3.16,3.16,0,0,1-2.64,1.26c-2.42,0-4.14-2-4.14-4.76,0-3.16,2-5.16,4.44-5.16a2.92,2.92,0,0,1,2.68,1.4h0l.1-1.18h2.64c0,.64-.08,1.46-.08,2.92Zm-3-4.38a2.67,2.67,0,0,0-.06-.56A1.67,1.67,0,0,0,526.27,46c-1.12,0-2,1-2,2.78,0,1.46.72,2.6,2,2.6a1.66,1.66,0,0,0,1.62-1.22,2.79,2.79,0,0,0,.1-.82Z" fill="#231f20"/>
  </g>
  <g>
    <path d="M579.66,34.79h1.17A1.15,1.15,0,0,0,582,33.63v-3.5A1.15,1.15,0,0,0,580.83,29H549.75a1.15,1.15,0,0,0-1.14,1.16v3.5a1.15,1.15,0,0,0,1.14,1.16h1.16a2.36,2.36,0,0,1,0,4.72h-1.16a1.15,1.15,0,0,0-1.14,1.17V67.46a1.15,1.15,0,0,0,1.14,1.16h31.08A1.15,1.15,0,0,0,582,67.46V40.68a1.15,1.15,0,0,0-1.13-1.17h-1.17a2.36,2.36,0,0,1,0-4.72Z" fill="url(#e)"/>
    <g clip-path="url(#ai)">
      <path d="M583.05,65.74H549.18a1.44,1.44,0,0,0,0,2.87h33.87A1.44,1.44,0,0,0,583.05,65.74Z" opacity="0.7" fill="url(#aj)"/>
      <path d="M549.05,42.46h33.87a1.44,1.44,0,0,0,0-2.88H549.05A1.44,1.44,0,0,0,549.05,42.46Z" opacity="0.7" fill="url(#ak)"/>
      <path d="M548.35,31.84h33.87a1.44,1.44,0,0,0,0-2.87H548.35A1.44,1.44,0,0,0,548.35,31.84Z" opacity="0.7" fill="url(#al)"/>
      <path d="M582.92,31.91H549.05a1.44,1.44,0,0,0,0,2.88h33.87A1.44,1.44,0,0,0,582.92,31.91Z" opacity="0.7" fill="url(#am)"/>
      <path d="M582.22,34.76H548.35c-1.8,0-1.8,4.8,0,4.8h33.87C584,39.56,584,34.76,582.22,34.76Z" opacity="0.7" fill="url(#an)"/>
    </g>
  </g>
  <g>
    <path d="M556.59,49.18h0l-2.48,1.18-.5-2.28,3.46-1.6h2.5v13h-2.94Z" fill="#231f20"/>
    <path d="M577.49,58.06c0,1.88-.38,3.42-1.5,4.4a6,6,0,0,1-4,1.2,7.83,7.83,0,0,1-3.52-.74l.6-2.32a6,6,0,0,0,2.84.74,2.32,2.32,0,0,0,2.54-2.58v-.62h0a3.16,3.16,0,0,1-2.64,1.26c-2.42,0-4.14-2-4.14-4.76,0-3.16,2-5.16,4.44-5.16a2.92,2.92,0,0,1,2.68,1.4h0l.1-1.18h2.64c0,.64-.08,1.46-.08,2.92Zm-3-4.38a2.67,2.67,0,0,0-.06-.56,1.67,1.67,0,0,0-1.64-1.34c-1.12,0-2,1-2,2.78,0,1.46.72,2.6,2,2.6a1.66,1.66,0,0,0,1.62-1.22,2.79,2.79,0,0,0,.1-.82Z" fill="#231f20"/>
  </g>
</svg>
