<?xml version="1.0" encoding="utf-8"?>
<!-- Generator: Adobe Illustrator 28.0.0, SVG Export Plug-In . SVG Version: 6.00 Build 0)  -->
<svg version="1.0" id="Calque_1" xmlns="http://www.w3.org/2000/svg" xmlns:xlink="http://www.w3.org/1999/xlink" x="0px" y="0px"
	 viewBox="0 0 500 75.9" enable-background="new 0 0 500 75.9" xml:space="preserve">
<path fill="none" stroke="#000000" stroke-width="2" stroke-linecap="round" stroke-linejoin="round" d="M10,27.5v10"/>
<path fill="none" stroke="#000000" stroke-width="2" stroke-linecap="round" stroke-linejoin="round" d="M77.1,27.5v10"/>
<path fill="none" stroke="#000000" stroke-width="2" stroke-linecap="round" stroke-linejoin="round" d="M144.3,27.5v10"/>
<path fill="none" stroke="#E5064A" stroke-width="2" stroke-linecap="round" stroke-linejoin="round" d="M211.4,27.5v10"/>
<path fill="none" stroke="#000000" stroke-width="2" stroke-linecap="round" stroke-linejoin="round" d="M278.6,27.5v10"/>
<path fill="none" stroke="#000000" stroke-width="2" stroke-linecap="round" stroke-linejoin="round" d="M345.7,27.5v10"/>
<path fill="none" stroke="#000000" stroke-width="2" stroke-linecap="round" stroke-linejoin="round" d="M412.9,27.5v10"/>
<path fill="none" stroke="#000000" stroke-width="2" stroke-linecap="round" stroke-linejoin="round" d="M480,27.5v10"/>
<path fill="none" stroke="#000000" stroke-width="2" stroke-linecap="round" stroke-linejoin="round" d="M5,32.5h480"/>
<path stroke="#000000" stroke-width="2" stroke-linecap="round" stroke-linejoin="round" d="M485,32.5h2.5v5l7.5-5l-7.5-5v5H485z"/>
<text transform="matrix(1 0 0 1 208.0917 55.9)" fill="#FFFFFF" font-family="Arial" font-weight="bold" font-size="12px">0</text>
<text transform="matrix(1 0 0 1 208.0917 55.9)" fill="none" stroke="#FFFFFF" stroke-width="5" font-family="Arial" font-weight="bold" font-size="12px">0</text>
<text transform="matrix(1 0 0 1 208.0917 55.9)" fill="#E5064A" font-family="Arial" font-size="12px">0</text>
<text transform="matrix(1 0 0 1 275.2345 55.9)" fill="#FFFFFF" font-family="Arial" font-weight="bold" font-size="12px">1</text>
<text transform="matrix(1 0 0 1 275.2345 55.9)" fill="none" stroke="#FFFFFF" stroke-width="5" font-family="Arial" font-weight="bold" font-size="12px">1</text>
<text transform="matrix(1 0 0 1 275.2345 55.9)" font-family="Arial" font-size="12px">1</text>
<g>
	<g>
		<line fill="none" stroke="#44ACE2" stroke-miterlimit="10" x1="218.5" y1="42.1" x2="272.6" y2="42.1"/>
		<g>
			<polygon fill="#44ACE2" points="211.4,42.1 221.4,46.1 219,42.1 221.4,38 			"/>
		</g>
		<g>
			<polygon fill="#44ACE2" points="279.7,42.1 269.7,46.1 272.1,42.1 269.7,38 			"/>
		</g>
	</g>
</g>
<g>
	<g>
		<path fill="#44ACE2" d="M225.8,55.6c-0.4-0.2-0.8-0.6-1-1.1s-0.4-1-0.4-1.7v-5.4h1.2v5.5c0,0.6,0.2,1.1,0.5,1.4s0.8,0.5,1.3,0.5
			c0.6,0,1-0.2,1.3-0.5s0.5-0.8,0.5-1.4v-5.5h1.2v5.4c0,0.7-0.1,1.2-0.4,1.7s-0.6,0.8-1,1.1s-1,0.4-1.6,0.4
			C226.8,56,226.3,55.9,225.8,55.6z"/>
		<path fill="#44ACE2" d="M232.3,49.8h1.2v6.1h-1.2V49.8z M236,52.2c0-0.4-0.1-0.8-0.3-1s-0.5-0.4-0.9-0.4c-0.4,0-0.7,0.1-0.9,0.3
			s-0.3,0.5-0.3,0.9l-0.1-1.2c0.2-0.4,0.4-0.7,0.7-0.8s0.6-0.3,1-0.3c0.7,0,1.2,0.2,1.5,0.6s0.5,1,0.5,1.8v3.7H236V52.2z"/>
		<path fill="#44ACE2" d="M239,47.4h1.2v1.2H239V47.4z M239,49.8h1.2v6.1H239V49.8z"/>
		<path fill="#44ACE2" d="M241.6,49.8h2.7v1.1h-2.7V49.8z M242.6,55.5c-0.2-0.3-0.3-0.7-0.3-1.2V48h1.2v6.3c0,0.1,0,0.3,0.1,0.3
			s0.1,0.1,0.3,0.1h0.6v1.1h-0.7C243.1,55.9,242.8,55.8,242.6,55.5z"/>
		<path fill="#44ACE2" d="M247,55.7c-0.4-0.2-0.7-0.5-0.9-0.9s-0.3-0.9-0.3-1.5v-0.7c0-0.6,0.1-1.1,0.3-1.5s0.5-0.8,0.9-1
			s0.8-0.3,1.4-0.3c0.5,0,0.9,0.1,1.3,0.4s0.6,0.6,0.8,1.1s0.3,1.1,0.3,1.7v0.4h-4.1v-1h3c0-0.5-0.2-0.9-0.4-1.2s-0.5-0.4-0.9-0.4
			c-0.5,0-0.8,0.1-1.1,0.4s-0.4,0.7-0.4,1.3v0.8c0,0.5,0.1,0.9,0.4,1.2s0.6,0.4,1.1,0.4c0.2,0,0.5,0,0.7-0.1s0.5-0.2,0.6-0.4
			l0.8,0.8c-0.3,0.3-0.6,0.5-1,0.7s-0.8,0.2-1.1,0.2C247.9,56,247.4,55.9,247,55.7z M247.6,48l1.7-2.1l0.9,0.7l-1.8,2L247.6,48z"/>
		<path fill="#44ACE2" d="M256.4,55.7c-0.3-0.2-0.6-0.5-0.7-0.8s-0.2-0.8-0.2-1.3v-1.3c0-0.5,0.1-1,0.2-1.3s0.4-0.7,0.7-0.8
			s0.7-0.3,1.1-0.3c0.4,0,0.7,0.1,1,0.3s0.5,0.5,0.7,0.8l-0.1,1.2c0-0.3,0-0.5-0.1-0.7s-0.2-0.3-0.4-0.4s-0.4-0.1-0.6-0.1
			c-0.4,0-0.7,0.1-0.9,0.4s-0.3,0.6-0.3,1v1.3c0,0.4,0.1,0.8,0.3,1s0.5,0.4,0.9,0.4c0.3,0,0.5,0,0.6-0.1s0.3-0.2,0.4-0.4
			s0.1-0.4,0.1-0.7l0.1,1.3c-0.1,0.3-0.3,0.6-0.6,0.8s-0.6,0.3-1,0.3C257.1,56,256.7,55.9,256.4,55.7z M259.1,47.4h1.2v8.5h-1.2
			V47.4z"/>
		<path fill="#44ACE2" d="M263.1,55.7c-0.4-0.2-0.7-0.5-0.9-0.9s-0.3-0.9-0.3-1.5v-0.7c0-0.6,0.1-1.1,0.3-1.5s0.5-0.8,0.9-1
			s0.8-0.3,1.4-0.3c0.5,0,0.9,0.1,1.3,0.4s0.6,0.6,0.8,1.1s0.3,1.1,0.3,1.7v0.4h-4.1v-1h3c0-0.5-0.2-0.9-0.4-1.2s-0.5-0.4-0.9-0.4
			c-0.5,0-0.8,0.1-1.1,0.4s-0.4,0.7-0.4,1.3v0.8c0,0.5,0.1,0.9,0.4,1.2s0.6,0.4,1.1,0.4c0.2,0,0.5,0,0.7-0.1s0.5-0.2,0.6-0.4
			l0.8,0.8c-0.3,0.3-0.6,0.5-1,0.7S265,56,264.6,56C264,56,263.5,55.9,263.1,55.7z"/>
		<path fill="#44ACE2" d="M223.7,68.7c0,0.1,0,0.3,0.1,0.3s0.2,0.1,0.3,0.1h0.6v1.1H224c-0.5,0-0.8-0.1-1.1-0.4s-0.4-0.7-0.4-1.2
			v-6.9h1.2V68.7z"/>
		<path fill="#44ACE2" d="M227,70.1c-0.4-0.2-0.7-0.5-0.9-0.9s-0.3-0.9-0.3-1.4v-1c0-0.6,0.1-1,0.3-1.4s0.5-0.7,0.9-0.9
			s0.8-0.3,1.4-0.3s1,0.1,1.4,0.3s0.7,0.5,0.9,0.9s0.3,0.9,0.3,1.4v1c0,0.6-0.1,1-0.3,1.4s-0.5,0.7-0.9,0.9s-0.8,0.3-1.4,0.3
			S227.4,70.3,227,70.1z M229.3,68.9c0.2-0.3,0.3-0.6,0.3-1.1v-1c0-0.5-0.1-0.8-0.3-1.1s-0.6-0.4-1-0.4s-0.7,0.1-1,0.4
			s-0.3,0.6-0.3,1.1v1c0,0.5,0.1,0.8,0.3,1.1s0.6,0.4,1,0.4S229.1,69.1,229.3,68.9z"/>
		<path fill="#44ACE2" d="M232.5,64.2h1.2v6.1h-1.2V64.2z M236.2,66.6c0-0.4-0.1-0.8-0.3-1s-0.5-0.4-0.9-0.4c-0.4,0-0.7,0.1-0.9,0.3
			s-0.3,0.5-0.3,0.9l-0.1-1.2c0.2-0.4,0.4-0.7,0.7-0.8s0.6-0.3,1-0.3c0.7,0,1.2,0.2,1.5,0.6s0.5,1,0.5,1.8v3.7h-1.2V66.6z"/>
		<path fill="#44ACE2" d="M240,70.1c-0.3-0.2-0.6-0.5-0.7-0.8s-0.2-0.8-0.2-1.3v-1.3c0-0.5,0.1-1,0.2-1.3s0.4-0.7,0.7-0.8
			s0.7-0.3,1.1-0.3c0.4,0,0.7,0.1,1,0.3s0.5,0.5,0.7,0.8l-0.1,1.2c0-0.3,0-0.5-0.1-0.7s-0.2-0.3-0.4-0.4s-0.4-0.1-0.6-0.1
			c-0.4,0-0.7,0.1-0.9,0.4s-0.3,0.6-0.3,1v1.3c0,0.4,0.1,0.8,0.3,1s0.5,0.4,0.9,0.4c0.3,0,0.5,0,0.6-0.1s0.3-0.2,0.4-0.4
			s0.1-0.4,0.1-0.7l0.1,1.3c-0.1,0.3-0.3,0.6-0.6,0.8s-0.6,0.3-1,0.3C240.7,70.4,240.3,70.3,240,70.1z M240.1,72.5
			c-0.4-0.2-0.6-0.4-0.8-0.7l0.8-0.7c0.2,0.2,0.3,0.4,0.6,0.5s0.4,0.2,0.7,0.2c0.5,0,0.8-0.1,1.1-0.4s0.4-0.6,0.4-1.1v-6.1h1.2v5.9
			c0,0.6-0.1,1-0.3,1.4s-0.5,0.7-0.9,0.9s-0.9,0.3-1.4,0.3C240.8,72.8,240.4,72.7,240.1,72.5z"/>
		<path fill="#44ACE2" d="M246.9,67.9c0,0.4,0.1,0.8,0.3,1s0.5,0.3,0.9,0.3c0.4,0,0.7-0.1,0.9-0.3s0.3-0.5,0.3-0.9l0.1,1.3
			c-0.1,0.3-0.3,0.6-0.6,0.8s-0.6,0.3-1,0.3c-0.7,0-1.2-0.2-1.6-0.6s-0.5-1-0.5-1.8v-3.7h1.2V67.9z M249.4,64.2h1.2v6.1h-1.2V64.2z"
			/>
		<path fill="#44ACE2" d="M253.4,70.1c-0.4-0.2-0.7-0.5-0.9-0.9s-0.3-0.9-0.3-1.5V67c0-0.6,0.1-1.1,0.3-1.5s0.5-0.8,0.9-1
			s0.8-0.3,1.4-0.3c0.5,0,0.9,0.1,1.3,0.4s0.6,0.6,0.8,1.1s0.3,1.1,0.3,1.7v0.4h-4.1v-1h3c0-0.5-0.2-0.9-0.4-1.2s-0.5-0.4-0.9-0.4
			c-0.5,0-0.8,0.1-1.1,0.4s-0.4,0.7-0.4,1.3v0.8c0,0.5,0.1,0.9,0.4,1.2s0.6,0.4,1.1,0.4c0.2,0,0.5,0,0.7-0.1s0.5-0.2,0.6-0.4
			l0.8,0.8c-0.3,0.3-0.6,0.5-1,0.7s-0.8,0.2-1.1,0.2C254.3,70.4,253.8,70.3,253.4,70.1z"/>
		<path fill="#44ACE2" d="M259.9,67.9c0,0.4,0.1,0.8,0.3,1s0.5,0.3,0.9,0.3c0.4,0,0.7-0.1,0.9-0.3s0.3-0.5,0.3-0.9l0.1,1.3
			c-0.1,0.3-0.3,0.6-0.6,0.8s-0.6,0.3-1,0.3c-0.7,0-1.2-0.2-1.6-0.6s-0.5-1-0.5-1.8v-3.7h1.2V67.9z M262.3,64.2h1.2v6.1h-1.2V64.2z"
			/>
		<path fill="#44ACE2" d="M265.4,64.2h1.2v6.1h-1.2V64.2z M268.3,65.4c-0.2-0.1-0.3-0.1-0.6-0.1c-0.4,0-0.7,0.1-0.9,0.3
			s-0.3,0.5-0.3,0.9l-0.1-1.2c0.2-0.4,0.4-0.6,0.7-0.8s0.6-0.3,1-0.3c0.3,0,0.5,0,0.8,0.1s0.4,0.2,0.6,0.4l-0.8,1.1
			C268.6,65.5,268.5,65.4,268.3,65.4z"/>
	</g>
</g>
<g>
	<g>
		<line fill="none" stroke="#E5064A" stroke-linecap="round" stroke-linejoin="round" x1="202.2" y1="22.7" x2="190.4" y2="17.2"/>
		<g>
			<polygon fill="#E5064A" points="208.6,25.7 201.3,17.8 201.7,22.5 197.9,25.2 			"/>
		</g>
	</g>
</g>
<g>
	<g>
		<path fill="#E5064A" d="M148.9,19.1c-0.5-0.3-0.8-0.6-1.1-1.1s-0.4-1-0.4-1.6v-2.4c0-0.6,0.1-1.2,0.4-1.6s0.6-0.8,1.1-1.1
			s1-0.4,1.6-0.4s1.1,0.1,1.6,0.4s0.8,0.6,1.1,1.1s0.4,1,0.4,1.6v2.4c0,0.6-0.1,1.2-0.4,1.6s-0.6,0.8-1.1,1.1s-1,0.4-1.6,0.4
			S149.3,19.4,148.9,19.1z M151.3,18.1c0.3-0.2,0.5-0.4,0.6-0.7s0.2-0.6,0.2-1v-2.5c0-0.4-0.1-0.7-0.2-1s-0.4-0.5-0.6-0.7
			s-0.6-0.2-0.9-0.2s-0.7,0.1-0.9,0.2s-0.5,0.4-0.6,0.7s-0.2,0.6-0.2,1v2.5c0,0.4,0.1,0.7,0.2,1s0.4,0.5,0.6,0.7s0.6,0.2,0.9,0.2
			S151.1,18.2,151.3,18.1z"/>
		<path fill="#E5064A" d="M155.2,13.3h1.2v6.1h-1.2V13.3z M158.2,14.5c-0.2-0.1-0.3-0.1-0.6-0.1c-0.4,0-0.7,0.1-0.9,0.3
			s-0.3,0.5-0.3,0.9l-0.1-1.2c0.2-0.4,0.4-0.6,0.7-0.8s0.6-0.3,1-0.3c0.3,0,0.5,0,0.8,0.1s0.4,0.2,0.6,0.4l-0.8,1.1
			C158.5,14.6,158.3,14.5,158.2,14.5z"/>
		<path fill="#E5064A" d="M160.4,10.9h1.2v1.2h-1.2V10.9z M160.4,13.3h1.2v6.1h-1.2V13.3z"/>
		<path fill="#E5064A" d="M164.2,19.2c-0.3-0.2-0.6-0.5-0.7-0.8s-0.2-0.8-0.2-1.3v-1.3c0-0.5,0.1-1,0.2-1.3s0.4-0.7,0.7-0.8
			s0.7-0.3,1.1-0.3c0.4,0,0.7,0.1,1,0.3s0.5,0.5,0.7,0.8l-0.1,1.2c0-0.3,0-0.5-0.1-0.7s-0.2-0.3-0.4-0.4s-0.4-0.1-0.6-0.1
			c-0.4,0-0.7,0.1-0.9,0.4s-0.3,0.6-0.3,1V17c0,0.4,0.1,0.8,0.3,1s0.5,0.4,0.9,0.4c0.3,0,0.5,0,0.6-0.1s0.3-0.2,0.4-0.4
			s0.1-0.4,0.1-0.7l0.1,1.3c-0.1,0.3-0.3,0.6-0.6,0.8s-0.6,0.3-1,0.3C164.8,19.5,164.5,19.4,164.2,19.2z M164.2,21.6
			c-0.4-0.2-0.6-0.4-0.8-0.7l0.8-0.7c0.2,0.2,0.3,0.4,0.6,0.5s0.4,0.2,0.7,0.2c0.5,0,0.8-0.1,1.1-0.4s0.4-0.6,0.4-1.1v-6.1h1.2v5.9
			c0,0.6-0.1,1-0.3,1.4s-0.5,0.7-0.9,0.9s-0.9,0.3-1.4,0.3C164.9,21.9,164.5,21.8,164.2,21.6z"/>
		<path fill="#E5064A" d="M169.8,10.9h1.2v1.2h-1.2V10.9z M169.8,13.3h1.2v6.1h-1.2V13.3z"/>
		<path fill="#E5064A" d="M172.8,13.3h1.2v6.1h-1.2V13.3z M176.5,15.7c0-0.4-0.1-0.8-0.3-1s-0.5-0.4-0.9-0.4c-0.4,0-0.7,0.1-0.9,0.3
			s-0.3,0.5-0.3,0.9l-0.1-1.2c0.2-0.4,0.4-0.7,0.7-0.8s0.6-0.3,1-0.3c0.7,0,1.2,0.2,1.5,0.6s0.5,1,0.5,1.8v3.7h-1.2V15.7z"/>
		<path fill="#E5064A" d="M180.6,19.2c-0.4-0.2-0.7-0.5-0.9-0.9s-0.3-0.9-0.3-1.5v-0.7c0-0.6,0.1-1.1,0.3-1.5s0.5-0.8,0.9-1
			s0.8-0.3,1.4-0.3c0.5,0,0.9,0.1,1.3,0.4s0.6,0.6,0.8,1.1s0.3,1.1,0.3,1.7v0.4h-4.1v-1h3c0-0.5-0.2-0.9-0.4-1.2s-0.5-0.4-0.9-0.4
			c-0.5,0-0.8,0.1-1.1,0.4s-0.4,0.7-0.4,1.3v0.8c0,0.5,0.1,0.9,0.4,1.2s0.6,0.4,1.1,0.4c0.2,0,0.5,0,0.7-0.1s0.5-0.2,0.6-0.4
			l0.8,0.8c-0.3,0.3-0.6,0.5-1,0.7s-0.8,0.2-1.1,0.2C181.5,19.5,181,19.4,180.6,19.2z"/>
	</g>
</g>
<g>
	<g>
		<line fill="none" stroke="#74BD83" stroke-miterlimit="10" x1="466.5" y1="15.8" x2="478.6" y2="21.7"/>
		<g>
			<polygon fill="#74BD83" points="485,24.7 474.3,24.1 478.2,21.4 477.8,16.7 			"/>
		</g>
	</g>
</g>
<g>
	<g>
		<path fill="#74BD83" d="M439.2,16.6c-0.4-0.1-0.7-0.2-1-0.4s-0.6-0.4-0.9-0.6l0.7-0.9c0.3,0.3,0.7,0.5,1.1,0.6s0.8,0.2,1.3,0.2
			c0.6,0,1.1-0.1,1.4-0.3s0.5-0.6,0.5-1v0c0-0.3-0.1-0.5-0.2-0.7s-0.4-0.3-0.6-0.4s-0.6-0.2-0.9-0.2c0,0,0,0,0,0s0,0,0,0l-0.1,0
			c-0.6-0.1-1-0.2-1.4-0.3s-0.7-0.3-0.9-0.7s-0.4-0.8-0.4-1.4v0c0-0.5,0.1-1,0.4-1.4s0.6-0.7,1-0.9s1-0.3,1.6-0.3
			c0.3,0,0.6,0,0.9,0.1s0.6,0.2,0.9,0.3s0.6,0.3,0.8,0.5l-0.7,0.9c-0.3-0.2-0.6-0.4-1-0.5s-0.6-0.2-1-0.2c-0.6,0-1,0.1-1.4,0.3
			s-0.5,0.6-0.5,1v0c0,0.3,0.1,0.5,0.2,0.7s0.4,0.3,0.6,0.4s0.6,0.2,1,0.2c0,0,0,0,0,0s0,0,0,0c0,0,0,0,0.1,0s0,0,0.1,0
			c0.5,0.1,0.9,0.2,1.3,0.4s0.6,0.4,0.9,0.7s0.3,0.8,0.3,1.3v0c0,0.5-0.1,1-0.4,1.3s-0.6,0.7-1.1,0.8s-1,0.3-1.7,0.3
			C439.9,16.7,439.5,16.7,439.2,16.6z"/>
		<path fill="#74BD83" d="M446.1,16.4c-0.4-0.2-0.7-0.5-0.9-0.9s-0.3-0.9-0.3-1.5v-0.7c0-0.6,0.1-1.1,0.3-1.5s0.5-0.8,0.9-1
			s0.8-0.3,1.4-0.3c0.5,0,0.9,0.1,1.3,0.4s0.6,0.6,0.8,1.1s0.3,1.1,0.3,1.7v0.4h-4.1v-1h3c0-0.5-0.2-0.9-0.4-1.2s-0.5-0.4-0.9-0.4
			c-0.5,0-0.8,0.1-1.1,0.4s-0.4,0.7-0.4,1.3V14c0,0.5,0.1,0.9,0.4,1.2s0.6,0.4,1.1,0.4c0.2,0,0.5,0,0.7-0.1s0.5-0.2,0.6-0.4l0.8,0.8
			c-0.3,0.3-0.6,0.5-1,0.7s-0.8,0.2-1.1,0.2C447,16.7,446.5,16.6,446.1,16.4z"/>
		<path fill="#74BD83" d="M451.5,10.5h1.2v6.1h-1.2V10.5z M455.2,12.9c0-0.4-0.1-0.8-0.3-1s-0.5-0.4-0.9-0.4c-0.4,0-0.7,0.1-0.9,0.3
			s-0.3,0.5-0.3,0.9l-0.1-1.2c0.2-0.4,0.4-0.7,0.7-0.8s0.6-0.3,1-0.3c0.7,0,1.2,0.2,1.5,0.6s0.5,1,0.5,1.8v3.7h-1.2V12.9z"/>
		<path fill="#74BD83" d="M459.3,16.6c-0.3-0.1-0.6-0.2-0.9-0.3s-0.5-0.3-0.8-0.5l0.7-0.9c0.3,0.2,0.7,0.4,1,0.6s0.6,0.2,1,0.2
			c0.5,0,0.8-0.1,1.1-0.2s0.4-0.4,0.4-0.7c0-0.2-0.1-0.3-0.2-0.4s-0.3-0.2-0.5-0.2s-0.5-0.1-0.8-0.1c0,0-0.1,0-0.1,0s-0.1,0-0.1,0
			c0,0,0,0,0,0s0,0,0,0c-0.4,0-0.7-0.1-1-0.2s-0.5-0.2-0.7-0.5s-0.3-0.6-0.3-1s0.1-0.8,0.3-1.1s0.4-0.5,0.8-0.6s0.8-0.2,1.3-0.2
			c0.3,0,0.6,0,0.9,0.1s0.6,0.1,0.8,0.3s0.5,0.3,0.8,0.4l-0.7,0.9c-0.3-0.2-0.6-0.3-0.9-0.4s-0.6-0.1-0.9-0.1
			c-0.4,0-0.7,0.1-0.9,0.2s-0.3,0.3-0.3,0.6c0,0.2,0.1,0.3,0.2,0.4s0.3,0.1,0.4,0.2s0.4,0.1,0.8,0.1c0,0,0,0,0.1,0s0.1,0,0.1,0
			c0,0,0,0,0,0s0,0,0,0c0.4,0,0.8,0.1,1.1,0.2s0.5,0.3,0.8,0.5s0.3,0.6,0.3,1.1c0,0.4-0.1,0.8-0.3,1.1c-0.2,0.3-0.5,0.5-0.8,0.6
			s-0.9,0.2-1.4,0.2C460,16.7,459.6,16.7,459.3,16.6z"/>
	</g>
</g>
</svg>
