<?xml version="1.0" encoding="utf-8"?>
<!-- Generator: Adobe Illustrator 28.0.0, SVG Export Plug-In . SVG Version: 6.00 Build 0)  -->
<svg version="1.0" id="Calque_1" xmlns="http://www.w3.org/2000/svg" xmlns:xlink="http://www.w3.org/1999/xlink" x="0px" y="0px"
	 viewBox="0 0 500 500" enable-background="new 0 0 500 500" xml:space="preserve">
<path fill="none" stroke="#505050" stroke-linecap="round" stroke-linejoin="round" d="M17,17v471"/>
<path fill="none" stroke="#505050" stroke-linecap="round" stroke-linejoin="round" d="M93.8,17v471"/>
<path fill="none" stroke="#505050" stroke-linecap="round" stroke-linejoin="round" d="M170.7,17v471"/>
<path fill="none" stroke="#505050" stroke-linecap="round" stroke-linejoin="round" d="M247.5,17v471"/>
<path fill="none" stroke="#505050" stroke-linecap="round" stroke-linejoin="round" d="M324.3,17v471"/>
<path fill="none" stroke="#505050" stroke-linecap="round" stroke-linejoin="round" d="M401.2,17v471"/>
<path fill="none" stroke="#505050" stroke-linecap="round" stroke-linejoin="round" d="M478,17v471"/>
<path fill="none" stroke="#505050" stroke-linecap="round" stroke-linejoin="round" d="M12,483h471"/>
<path fill="none" stroke="#505050" stroke-linecap="round" stroke-linejoin="round" d="M12,406.2h471"/>
<path fill="none" stroke="#505050" stroke-linecap="round" stroke-linejoin="round" d="M12,329.3h471"/>
<path fill="none" stroke="#505050" stroke-linecap="round" stroke-linejoin="round" d="M12,252.5h471"/>
<path fill="none" stroke="#505050" stroke-linecap="round" stroke-linejoin="round" d="M12,175.7h471"/>
<path fill="none" stroke="#505050" stroke-linecap="round" stroke-linejoin="round" d="M12,98.8h471"/>
<path fill="none" stroke="#505050" stroke-linecap="round" stroke-linejoin="round" d="M12,22h471"/>
<path fill="none" stroke="#505050" stroke-width="0.5" stroke-linecap="round" stroke-linejoin="round" d="M32.4,17v471"/>
<path fill="none" stroke="#505050" stroke-width="0.5" stroke-linecap="round" stroke-linejoin="round" d="M47.7,17v471"/>
<path fill="none" stroke="#505050" stroke-width="0.5" stroke-linecap="round" stroke-linejoin="round" d="M63.1,17v471"/>
<path fill="none" stroke="#505050" stroke-width="0.5" stroke-linecap="round" stroke-linejoin="round" d="M78.5,17v471"/>
<path fill="none" stroke="#505050" stroke-width="0.5" stroke-linecap="round" stroke-linejoin="round" d="M109.2,17v471"/>
<path fill="none" stroke="#505050" stroke-width="0.5" stroke-linecap="round" stroke-linejoin="round" d="M124.6,17v471"/>
<path fill="none" stroke="#505050" stroke-width="0.5" stroke-linecap="round" stroke-linejoin="round" d="M139.9,17v471"/>
<path fill="none" stroke="#505050" stroke-width="0.5" stroke-linecap="round" stroke-linejoin="round" d="M155.3,17v471"/>
<path fill="none" stroke="#505050" stroke-width="0.5" stroke-linecap="round" stroke-linejoin="round" d="M186,17v471"/>
<path fill="none" stroke="#505050" stroke-width="0.5" stroke-linecap="round" stroke-linejoin="round" d="M201.4,17v471"/>
<path fill="none" stroke="#505050" stroke-width="0.5" stroke-linecap="round" stroke-linejoin="round" d="M216.8,17v471"/>
<path fill="none" stroke="#505050" stroke-width="0.5" stroke-linecap="round" stroke-linejoin="round" d="M232.1,17v471"/>
<path fill="none" stroke="#505050" stroke-width="0.5" stroke-linecap="round" stroke-linejoin="round" d="M262.9,17v471"/>
<path fill="none" stroke="#505050" stroke-width="0.5" stroke-linecap="round" stroke-linejoin="round" d="M278.2,17v471"/>
<path fill="none" stroke="#505050" stroke-width="0.5" stroke-linecap="round" stroke-linejoin="round" d="M293.6,17v471"/>
<path fill="none" stroke="#505050" stroke-width="0.5" stroke-linecap="round" stroke-linejoin="round" d="M309,17v471"/>
<path fill="none" stroke="#505050" stroke-width="0.5" stroke-linecap="round" stroke-linejoin="round" d="M339.7,17v471"/>
<path fill="none" stroke="#505050" stroke-width="0.5" stroke-linecap="round" stroke-linejoin="round" d="M355.1,17v471"/>
<path fill="none" stroke="#505050" stroke-width="0.5" stroke-linecap="round" stroke-linejoin="round" d="M370.4,17v471"/>
<path fill="none" stroke="#505050" stroke-width="0.5" stroke-linecap="round" stroke-linejoin="round" d="M385.8,17v471"/>
<path fill="none" stroke="#505050" stroke-width="0.5" stroke-linecap="round" stroke-linejoin="round" d="M416.5,17v471"/>
<path fill="none" stroke="#505050" stroke-width="0.5" stroke-linecap="round" stroke-linejoin="round" d="M431.9,17v471"/>
<path fill="none" stroke="#505050" stroke-width="0.5" stroke-linecap="round" stroke-linejoin="round" d="M447.3,17v471"/>
<path fill="none" stroke="#505050" stroke-width="0.5" stroke-linecap="round" stroke-linejoin="round" d="M462.6,17v471"/>
<path fill="none" stroke="#505050" stroke-width="0.5" stroke-linecap="round" stroke-linejoin="round" d="M12,467.6h471"/>
<path fill="none" stroke="#505050" stroke-width="0.5" stroke-linecap="round" stroke-linejoin="round" d="M12,452.3h471"/>
<path fill="none" stroke="#505050" stroke-width="0.5" stroke-linecap="round" stroke-linejoin="round" d="M12,436.9h471"/>
<path fill="none" stroke="#505050" stroke-width="0.5" stroke-linecap="round" stroke-linejoin="round" d="M12,421.5h471"/>
<path fill="none" stroke="#505050" stroke-width="0.5" stroke-linecap="round" stroke-linejoin="round" d="M12,390.8h471"/>
<path fill="none" stroke="#505050" stroke-width="0.5" stroke-linecap="round" stroke-linejoin="round" d="M12,375.4h471"/>
<path fill="none" stroke="#505050" stroke-width="0.5" stroke-linecap="round" stroke-linejoin="round" d="M12,360.1h471"/>
<path fill="none" stroke="#505050" stroke-width="0.5" stroke-linecap="round" stroke-linejoin="round" d="M12,344.7h471"/>
<path fill="none" stroke="#505050" stroke-width="0.5" stroke-linecap="round" stroke-linejoin="round" d="M12,314h471"/>
<path fill="none" stroke="#505050" stroke-width="0.5" stroke-linecap="round" stroke-linejoin="round" d="M12,298.6h471"/>
<path fill="none" stroke="#505050" stroke-width="0.5" stroke-linecap="round" stroke-linejoin="round" d="M12,283.2h471"/>
<path fill="none" stroke="#505050" stroke-width="0.5" stroke-linecap="round" stroke-linejoin="round" d="M12,267.9h471"/>
<path fill="none" stroke="#505050" stroke-width="0.5" stroke-linecap="round" stroke-linejoin="round" d="M12,237.1h471"/>
<path fill="none" stroke="#505050" stroke-width="0.5" stroke-linecap="round" stroke-linejoin="round" d="M12,221.8h471"/>
<path fill="none" stroke="#505050" stroke-width="0.5" stroke-linecap="round" stroke-linejoin="round" d="M12,206.4h471"/>
<path fill="none" stroke="#505050" stroke-width="0.5" stroke-linecap="round" stroke-linejoin="round" d="M12,191h471"/>
<path fill="none" stroke="#505050" stroke-width="0.5" stroke-linecap="round" stroke-linejoin="round" d="M12,160.3h471"/>
<path fill="none" stroke="#505050" stroke-width="0.5" stroke-linecap="round" stroke-linejoin="round" d="M12,144.9h471"/>
<path fill="none" stroke="#505050" stroke-width="0.5" stroke-linecap="round" stroke-linejoin="round" d="M12,129.6h471"/>
<path fill="none" stroke="#505050" stroke-width="0.5" stroke-linecap="round" stroke-linejoin="round" d="M12,114.2h471"/>
<path fill="none" stroke="#505050" stroke-width="0.5" stroke-linecap="round" stroke-linejoin="round" d="M12,83.5h471"/>
<path fill="none" stroke="#505050" stroke-width="0.5" stroke-linecap="round" stroke-linejoin="round" d="M12,68.1h471"/>
<path fill="none" stroke="#505050" stroke-width="0.5" stroke-linecap="round" stroke-linejoin="round" d="M12,52.7h471"/>
<path fill="none" stroke="#505050" stroke-width="0.5" stroke-linecap="round" stroke-linejoin="round" d="M12,37.4h471"/>
<path fill="none" stroke="#44ACE2" stroke-width="2" stroke-linecap="round" stroke-linejoin="round" d="M17,247.5v10"/>
<path fill="none" stroke="#44ACE2" stroke-width="3" stroke-linecap="round" stroke-linejoin="round" d="M32.4,250v5"/>
<path fill="none" stroke="#44ACE2" stroke-width="3" stroke-linecap="round" stroke-linejoin="round" d="M47.7,250v5"/>
<path fill="none" stroke="#44ACE2" stroke-width="3" stroke-linecap="round" stroke-linejoin="round" d="M63.1,250v5"/>
<path fill="none" stroke="#44ACE2" stroke-width="3" stroke-linecap="round" stroke-linejoin="round" d="M78.5,250v5"/>
<path fill="none" stroke="#44ACE2" stroke-width="2" stroke-linecap="round" stroke-linejoin="round" d="M93.8,247.5v10"/>
<path fill="none" stroke="#44ACE2" stroke-width="3" stroke-linecap="round" stroke-linejoin="round" d="M109.2,250v5"/>
<path fill="none" stroke="#44ACE2" stroke-width="3" stroke-linecap="round" stroke-linejoin="round" d="M124.6,250v5"/>
<path fill="none" stroke="#44ACE2" stroke-width="3" stroke-linecap="round" stroke-linejoin="round" d="M139.9,250v5"/>
<path fill="none" stroke="#44ACE2" stroke-width="3" stroke-linecap="round" stroke-linejoin="round" d="M155.3,250v5"/>
<path fill="none" stroke="#44ACE2" stroke-width="2" stroke-linecap="round" stroke-linejoin="round" d="M170.7,247.5v10"/>
<path fill="none" stroke="#44ACE2" stroke-width="3" stroke-linecap="round" stroke-linejoin="round" d="M186,250v5"/>
<path fill="none" stroke="#44ACE2" stroke-width="3" stroke-linecap="round" stroke-linejoin="round" d="M201.4,250v5"/>
<path fill="none" stroke="#44ACE2" stroke-width="3" stroke-linecap="round" stroke-linejoin="round" d="M216.8,250v5"/>
<path fill="none" stroke="#44ACE2" stroke-width="3" stroke-linecap="round" stroke-linejoin="round" d="M232.1,250v5"/>
<path fill="none" stroke="#44ACE2" stroke-width="3" stroke-linecap="round" stroke-linejoin="round" d="M262.9,250v5"/>
<path fill="none" stroke="#44ACE2" stroke-width="3" stroke-linecap="round" stroke-linejoin="round" d="M278.2,250v5"/>
<path fill="none" stroke="#44ACE2" stroke-width="3" stroke-linecap="round" stroke-linejoin="round" d="M293.6,250v5"/>
<path fill="none" stroke="#44ACE2" stroke-width="3" stroke-linecap="round" stroke-linejoin="round" d="M309,250v5"/>
<path fill="none" stroke="#44ACE2" stroke-width="2" stroke-linecap="round" stroke-linejoin="round" d="M324.3,247.5v10"/>
<path fill="none" stroke="#44ACE2" stroke-width="3" stroke-linecap="round" stroke-linejoin="round" d="M339.7,250v5"/>
<path fill="none" stroke="#44ACE2" stroke-width="3" stroke-linecap="round" stroke-linejoin="round" d="M355.1,250v5"/>
<path fill="none" stroke="#44ACE2" stroke-width="3" stroke-linecap="round" stroke-linejoin="round" d="M370.4,250v5"/>
<path fill="none" stroke="#44ACE2" stroke-width="3" stroke-linecap="round" stroke-linejoin="round" d="M385.8,250v5"/>
<path fill="none" stroke="#44ACE2" stroke-width="2" stroke-linecap="round" stroke-linejoin="round" d="M401.2,247.5v10"/>
<path fill="none" stroke="#44ACE2" stroke-width="3" stroke-linecap="round" stroke-linejoin="round" d="M416.5,250v5"/>
<path fill="none" stroke="#44ACE2" stroke-width="3" stroke-linecap="round" stroke-linejoin="round" d="M431.9,250v5"/>
<path fill="none" stroke="#44ACE2" stroke-width="3" stroke-linecap="round" stroke-linejoin="round" d="M447.3,250v5"/>
<path fill="none" stroke="#44ACE2" stroke-width="3" stroke-linecap="round" stroke-linejoin="round" d="M462.6,250v5"/>
<path fill="none" stroke="#44ACE2" stroke-width="2" stroke-linecap="round" stroke-linejoin="round" d="M478,247.5v10"/>
<path fill="none" stroke="#74BD83" stroke-width="2" stroke-linecap="round" stroke-linejoin="round" d="M242.5,483h10"/>
<path fill="none" stroke="#74BD83" stroke-width="3" stroke-linecap="round" stroke-linejoin="round" d="M245,467.6h5"/>
<path fill="none" stroke="#74BD83" stroke-width="3" stroke-linecap="round" stroke-linejoin="round" d="M245,452.3h5"/>
<path fill="none" stroke="#74BD83" stroke-width="3" stroke-linecap="round" stroke-linejoin="round" d="M245,436.9h5"/>
<path fill="none" stroke="#74BD83" stroke-width="3" stroke-linecap="round" stroke-linejoin="round" d="M245,421.5h5"/>
<path fill="none" stroke="#74BD83" stroke-width="2" stroke-linecap="round" stroke-linejoin="round" d="M242.5,406.2h10"/>
<path fill="none" stroke="#74BD83" stroke-width="3" stroke-linecap="round" stroke-linejoin="round" d="M245,390.8h5"/>
<path fill="none" stroke="#74BD83" stroke-width="3" stroke-linecap="round" stroke-linejoin="round" d="M245,375.4h5"/>
<path fill="none" stroke="#74BD83" stroke-width="3" stroke-linecap="round" stroke-linejoin="round" d="M245,360.1h5"/>
<path fill="none" stroke="#74BD83" stroke-width="3" stroke-linecap="round" stroke-linejoin="round" d="M245,344.7h5"/>
<path fill="none" stroke="#74BD83" stroke-width="2" stroke-linecap="round" stroke-linejoin="round" d="M242.5,329.3h10"/>
<path fill="none" stroke="#74BD83" stroke-width="3" stroke-linecap="round" stroke-linejoin="round" d="M245,314h5"/>
<path fill="none" stroke="#74BD83" stroke-width="3" stroke-linecap="round" stroke-linejoin="round" d="M245,298.6h5"/>
<path fill="none" stroke="#74BD83" stroke-width="3" stroke-linecap="round" stroke-linejoin="round" d="M245,283.2h5"/>
<path fill="none" stroke="#74BD83" stroke-width="3" stroke-linecap="round" stroke-linejoin="round" d="M245,267.9h5"/>
<path fill="none" stroke="#74BD83" stroke-width="3" stroke-linecap="round" stroke-linejoin="round" d="M245,237.1h5"/>
<path fill="none" stroke="#74BD83" stroke-width="3" stroke-linecap="round" stroke-linejoin="round" d="M245,221.8h5"/>
<path fill="none" stroke="#74BD83" stroke-width="3" stroke-linecap="round" stroke-linejoin="round" d="M245,206.4h5"/>
<path fill="none" stroke="#74BD83" stroke-width="3" stroke-linecap="round" stroke-linejoin="round" d="M245,191h5"/>
<path fill="none" stroke="#74BD83" stroke-width="2" stroke-linecap="round" stroke-linejoin="round" d="M242.5,175.7h10"/>
<path fill="none" stroke="#74BD83" stroke-width="3" stroke-linecap="round" stroke-linejoin="round" d="M245,160.3h5"/>
<path fill="none" stroke="#74BD83" stroke-width="3" stroke-linecap="round" stroke-linejoin="round" d="M245,144.9h5"/>
<path fill="none" stroke="#74BD83" stroke-width="3" stroke-linecap="round" stroke-linejoin="round" d="M245,129.6h5"/>
<path fill="none" stroke="#74BD83" stroke-width="3" stroke-linecap="round" stroke-linejoin="round" d="M245,114.2h5"/>
<path fill="none" stroke="#74BD83" stroke-width="2" stroke-linecap="round" stroke-linejoin="round" d="M242.5,98.8h10"/>
<path fill="none" stroke="#74BD83" stroke-width="3" stroke-linecap="round" stroke-linejoin="round" d="M245,83.5h5"/>
<path fill="none" stroke="#74BD83" stroke-width="3" stroke-linecap="round" stroke-linejoin="round" d="M245,68.1h5"/>
<path fill="none" stroke="#74BD83" stroke-width="3" stroke-linecap="round" stroke-linejoin="round" d="M245,52.7h5"/>
<path fill="none" stroke="#74BD83" stroke-width="3" stroke-linecap="round" stroke-linejoin="round" d="M245,37.4h5"/>
<path fill="none" stroke="#74BD83" stroke-width="2" stroke-linecap="round" stroke-linejoin="round" d="M242.5,22h10"/>
<path fill="none" stroke="#44ACE2" stroke-width="2" stroke-linecap="round" stroke-linejoin="round" d="M12,252.5h471"/>
<path fill="none" stroke="#74BD83" stroke-width="2" stroke-linecap="round" stroke-linejoin="round" d="M247.5,488V17"/>
<path fill="#44ACE2" stroke="#44ACE2" stroke-width="2" stroke-linecap="round" stroke-linejoin="round" d="M483,252.5h1.2v2.5
	l3.8-2.5l-3.8-2.5v2.5H483z"/>
<path fill="#74BD83" stroke="#74BD83" stroke-width="2" stroke-linecap="round" stroke-linejoin="round" d="M247.5,17v-1.2h2.5
	l-2.5-3.8l-2.5,3.8h2.5V17z"/>
<text transform="matrix(1 0 0 1 11.665 275.9)" fill="#FFFFFF" font-family="Arial" font-weight="bold" font-size="12px">-3</text>
<text transform="matrix(1 0 0 1 11.665 275.9)" fill="none" stroke="#FFFFFF" stroke-width="5" font-family="Arial" font-weight="bold" font-size="12px">-3</text>
<text transform="matrix(1 0 0 1 11.665 275.9)" font-family="Arial"  font-weight="bold" font-size="12px">-3</text>
<text transform="matrix(1 0 0 1 88.4984 275.9)" fill="#FFFFFF" font-family="Arial" font-weight="bold" font-size="12px">-2</text>
<text transform="matrix(1 0 0 1 88.4984 275.9)" fill="none" stroke="#FFFFFF" stroke-width="5" font-family="Arial" font-weight="bold" font-size="12px">-2</text>
<text transform="matrix(1 0 0 1 88.4984 275.9)" font-family="Arial"  font-weight="bold" font-size="12px">-2</text>
<text transform="matrix(1 0 0 1 165.3317 275.9)" fill="#FFFFFF" font-family="Arial" font-weight="bold" font-size="12px">-1</text>
<text transform="matrix(1 0 0 1 165.3317 275.9)" fill="none" stroke="#FFFFFF" stroke-width="5" font-family="Arial" font-weight="bold" font-size="12px">-1</text>
<text transform="matrix(1 0 0 1 165.3317 275.9)" font-family="Arial"  font-weight="bold" font-size="12px">-1</text>
<text transform="matrix(1 0 0 1 320.9964 275.9)" fill="#FFFFFF" font-family="Arial" font-weight="bold" font-size="12px">1</text>
<text transform="matrix(1 0 0 1 320.9964 275.9)" fill="none" stroke="#FFFFFF" stroke-width="5" font-family="Arial" font-weight="bold" font-size="12px">1</text>
<text transform="matrix(1 0 0 1 320.9964 275.9)" font-family="Arial"  font-weight="bold" font-size="12px">1</text>
<text transform="matrix(1 0 0 1 397.8297 275.9)" fill="#FFFFFF" font-family="Arial" font-weight="bold" font-size="12px">2</text>
<text transform="matrix(1 0 0 1 397.8297 275.9)" fill="none" stroke="#FFFFFF" stroke-width="5" font-family="Arial" font-weight="bold" font-size="12px">2</text>
<text transform="matrix(1 0 0 1 397.8297 275.9)" font-family="Arial"  font-weight="bold" font-size="12px">2</text>
<text transform="matrix(1 0 0 1 474.6631 275.9)" fill="#FFFFFF" font-family="Arial" font-weight="bold" font-size="12px">3</text>
<text transform="matrix(1 0 0 1 474.6631 275.9)" fill="none" stroke="#FFFFFF" stroke-width="5" font-family="Arial" font-weight="bold" font-size="12px">3</text>
<text transform="matrix(1 0 0 1 474.6631 275.9)" font-family="Arial"  font-weight="bold" font-size="12px">3</text>
<path fill="none" stroke="#74BD83" d="M242.5,483h10"/>
<text transform="matrix(1 0 0 1 225.165 487.4)" fill="#FFFFFF" font-family="Arial" font-weight="bold" font-size="12px">-3</text>
<text transform="matrix(1 0 0 1 225.165 487.4)" fill="none" stroke="#FFFFFF" stroke-width="5" font-family="Arial" font-weight="bold" font-size="12px">-3</text>
<text transform="matrix(1 0 0 1 225.165 487.4)" font-family="Arial"  font-weight="bold" font-size="12px">-3</text>
<path fill="none" stroke="#74BD83" d="M242.5,406.2h10"/>
<text transform="matrix(1 0 0 1 225.165 410.5667)" fill="#FFFFFF" font-family="Arial" font-weight="bold" font-size="12px">-2</text>
<text transform="matrix(1 0 0 1 225.165 410.5667)" fill="none" stroke="#FFFFFF" stroke-width="5" font-family="Arial" font-weight="bold" font-size="12px">-2</text>
<text transform="matrix(1 0 0 1 225.165 410.5667)" font-family="Arial"  font-weight="bold" font-size="12px">-2</text>
<path fill="none" stroke="#74BD83" d="M242.5,329.3h10"/>
<text transform="matrix(1 0 0 1 225.165 333.7333)" fill="#FFFFFF" font-family="Arial" font-weight="bold" font-size="12px">-1</text>
<text transform="matrix(1 0 0 1 225.165 333.7333)" fill="none" stroke="#FFFFFF" stroke-width="5" font-family="Arial" font-weight="bold" font-size="12px">-1</text>
<text transform="matrix(1 0 0 1 225.165 333.7333)" font-family="Arial"  font-weight="bold" font-size="12px">-1</text>
<path fill="none" stroke="#74BD83" d="M242.5,175.7h10"/>
<text transform="matrix(1 0 0 1 227.1631 180.0666)" fill="#FFFFFF" font-family="Arial" font-weight="bold" font-size="12px">1</text>
<text transform="matrix(1 0 0 1 227.1631 180.0666)" fill="none" stroke="#FFFFFF" stroke-width="5" font-family="Arial" font-weight="bold" font-size="12px">1</text>
<text transform="matrix(1 0 0 1 227.1631 180.0666)" font-family="Arial"  font-weight="bold" font-size="12px">1</text>
<path fill="none" stroke="#74BD83" d="M242.5,98.8h10"/>
<text transform="matrix(1 0 0 1 227.1631 103.2333)" fill="#FFFFFF" font-family="Arial" font-weight="bold" font-size="12px">2</text>
<text transform="matrix(1 0 0 1 227.1631 103.2333)" fill="none" stroke="#FFFFFF" stroke-width="5" font-family="Arial" font-weight="bold" font-size="12px">2</text>
<text transform="matrix(1 0 0 1 227.1631 103.2333)" font-family="Arial"  font-weight="bold" font-size="12px">2</text>
<path fill="none" stroke="#74BD83" d="M242.5,22h10"/>
<text transform="matrix(1 0 0 1 227.1631 26.4)" fill="#FFFFFF" font-family="Arial" font-weight="bold" font-size="12px">3</text>
<text transform="matrix(1 0 0 1 227.1631 26.4)" fill="none" stroke="#FFFFFF" stroke-width="5" font-family="Arial" font-weight="bold" font-size="12px">3</text>
<text transform="matrix(1 0 0 1 227.1631 26.4)" font-family="Arial"  font-weight="bold" font-size="12px">3</text>
<g>
	<g>
		<path fill="#FFFFFF" stroke="#FFFFFF" stroke-width="2" d="M261.5,186v-1.5l12.8-4.7v1.9l-10.3,3.5l10.3,3.5v1.9L261.5,186z
			 M269.8,188.5v-6.7h1.7v6.7H269.8z"/>
		<path fill="#FFFFFF" stroke="#FFFFFF" stroke-width="2" d="M270.2,175.4l-5,3.4v-2l4.1-2.6l5-3.5v2L270.2,175.4z M268.4,174.8
			l-3.2-2v-2l4.9,3.2L268.4,174.8z M269.3,175.4l1.7-0.9l3.4,2.3v2L269.3,175.4z"/>
		<path fill="#FFFFFF" stroke="#FFFFFF" stroke-width="2" d="M274,167.4c-0.3,0.6-0.8,1.1-1.4,1.4c-0.6,0.3-1.4,0.5-2.2,0.5h-1
			c-0.9,0-1.7-0.2-2.3-0.5c-0.6-0.3-1.1-0.7-1.5-1.3s-0.5-1.3-0.5-2.1c0-0.8,0.2-1.4,0.6-2s0.9-1,1.7-1.2c0.7-0.3,1.6-0.4,2.6-0.4
			h0.6v6.2H269v-4.4c-0.7,0.1-1.3,0.2-1.7,0.6s-0.6,0.8-0.6,1.3c0,0.7,0.2,1.2,0.7,1.6c0.4,0.4,1.1,0.6,1.9,0.6h1.2
			c0.8,0,1.3-0.2,1.7-0.6s0.6-1,0.6-1.7c0-0.4-0.1-0.7-0.2-1.1s-0.4-0.7-0.6-1l1.2-1.2c0.4,0.5,0.8,1,1,1.5s0.4,1.1,0.4,1.7
			C274.4,166,274.3,166.8,274,167.4z"/>
		<path fill="#FFFFFF" stroke="#FFFFFF" stroke-width="2" d="M261.5,149.3v-1.8h12.8v1.8H261.5z M274,153.3
			c-0.3,0.5-0.7,0.8-1.3,1.1s-1.2,0.4-2,0.4h-2c-0.8,0-1.5-0.1-2-0.4s-1-0.6-1.3-1s-0.4-1-0.4-1.7c0-0.5,0.1-1,0.4-1.5
			c0.3-0.4,0.7-0.8,1.2-1.1l1.9,0.2c-0.4,0-0.7,0.1-1,0.2s-0.5,0.3-0.6,0.6s-0.2,0.6-0.2,1c0,0.6,0.2,1.1,0.6,1.4
			c0.4,0.3,0.9,0.5,1.6,0.5h2c0.7,0,1.2-0.2,1.5-0.5c0.4-0.3,0.5-0.8,0.5-1.4c0-0.4-0.1-0.7-0.2-1s-0.4-0.5-0.6-0.6s-0.6-0.2-1-0.2
			l1.9-0.1c0.5,0.2,0.8,0.5,1.1,0.9c0.3,0.4,0.5,0.9,0.5,1.5C274.5,152.2,274.3,152.8,274,153.3z"/>
		<path fill="#FFFFFF" stroke="#FFFFFF" stroke-width="2" d="M274,143.2c-0.3,0.6-0.8,1.1-1.4,1.4c-0.6,0.3-1.4,0.5-2.2,0.5h-1
			c-0.9,0-1.7-0.2-2.3-0.5c-0.6-0.3-1.1-0.7-1.5-1.3s-0.5-1.3-0.5-2.1c0-0.8,0.2-1.4,0.6-2s0.9-1,1.7-1.2c0.7-0.3,1.6-0.4,2.6-0.4
			h0.6v6.2H269v-4.4c-0.7,0.1-1.3,0.2-1.7,0.6s-0.6,0.8-0.6,1.3c0,0.7,0.2,1.2,0.7,1.6c0.4,0.4,1.1,0.6,1.9,0.6h1.2
			c0.8,0,1.3-0.2,1.7-0.6s0.6-1,0.6-1.7c0-0.4-0.1-0.7-0.2-1.1s-0.4-0.7-0.6-1l1.2-1.2c0.4,0.5,0.8,1,1,1.5s0.4,1.1,0.4,1.7
			C274.4,141.8,274.3,142.6,274,143.2z"/>
		<path fill="#FFFFFF" stroke="#FFFFFF" stroke-width="2" d="M274.3,133.4c-0.1,0.5-0.3,0.9-0.5,1.3s-0.5,0.8-0.8,1.1l-1.3-1.1
			c0.4-0.5,0.7-1,0.8-1.5s0.3-1,0.3-1.4c0-0.7-0.1-1.2-0.3-1.6s-0.5-0.5-1-0.5c-0.3,0-0.5,0.1-0.7,0.3s-0.2,0.4-0.3,0.7
			s-0.1,0.7-0.1,1.2c0,0,0,0.1,0,0.1s0,0.1,0,0.1c0,0,0,0,0,0.1s0,0,0,0.1c0,0.6-0.1,1.1-0.3,1.5s-0.4,0.8-0.7,1
			c-0.3,0.3-0.8,0.4-1.5,0.4s-1.2-0.1-1.6-0.4s-0.7-0.7-1-1.2s-0.3-1.2-0.3-2c0-0.5,0-0.9,0.1-1.4c0.1-0.4,0.2-0.8,0.4-1.2
			s0.4-0.8,0.7-1.1l1.3,1.1c-0.3,0.5-0.5,0.9-0.7,1.3c-0.1,0.4-0.2,0.9-0.2,1.3c0,0.6,0.1,1.1,0.3,1.4s0.5,0.5,0.9,0.5
			c0.2,0,0.4-0.1,0.6-0.3c0.1-0.2,0.2-0.4,0.2-0.7s0.1-0.6,0.1-1.1c0,0,0-0.1,0-0.1s0-0.1,0-0.1c0,0,0,0,0-0.1s0,0,0-0.1
			c0-0.6,0.1-1.2,0.3-1.6c0.1-0.4,0.4-0.8,0.8-1.1s0.9-0.5,1.7-0.5c0.7,0,1.2,0.1,1.6,0.4s0.8,0.7,1,1.3c0.2,0.6,0.3,1.3,0.3,2.1
			C274.4,132.4,274.4,132.9,274.3,133.4z"/>
		<path fill="#FFFFFF" stroke="#FFFFFF" stroke-width="2" d="M274,119.5c-0.3,0.6-0.8,1-1.4,1.3s-1.3,0.4-2.1,0.4H269
			c-0.8,0-1.5-0.1-2.1-0.4s-1-0.7-1.3-1.3s-0.5-1.2-0.5-2s0.2-1.5,0.5-2s0.8-1,1.3-1.3c0.6-0.3,1.3-0.4,2.1-0.4h1.5
			c0.8,0,1.5,0.1,2.1,0.4c0.6,0.3,1,0.7,1.3,1.3s0.5,1.2,0.5,2S274.3,118.9,274,119.5z M272.1,116c-0.4-0.3-0.9-0.5-1.7-0.5H269
			c-0.7,0-1.3,0.2-1.6,0.5c-0.4,0.3-0.6,0.8-0.6,1.5s0.2,1.1,0.6,1.5c0.4,0.3,0.9,0.5,1.6,0.5h1.5c0.7,0,1.3-0.2,1.7-0.5
			c0.4-0.3,0.6-0.8,0.6-1.5S272.5,116.3,272.1,116z"/>
		<path fill="#FFFFFF" stroke="#FFFFFF" stroke-width="2" d="M266.9,106.7c-0.1,0.2-0.1,0.5-0.1,0.8c0,0.6,0.2,1,0.5,1.3
			c0.3,0.3,0.7,0.5,1.3,0.5l-1.8,0.2c-0.5-0.3-1-0.6-1.3-1.1s-0.5-0.9-0.5-1.5c0-0.4,0.1-0.8,0.2-1.1c0.1-0.3,0.3-0.6,0.5-0.9
			l1.6,1.2C267.2,106.3,267,106.5,266.9,106.7z M265.2,111.1v-1.8h9.1v1.8H265.2z"/>
		<path fill="#FFFFFF" stroke="#FFFFFF" stroke-width="2" d="M261.5,98.4v-1.8h12.8v1.8H261.5z M274,102.4c-0.3,0.5-0.7,0.8-1.3,1.1
			s-1.2,0.4-2,0.4h-2c-0.8,0-1.5-0.1-2-0.4s-1-0.6-1.3-1s-0.4-1-0.4-1.7c0-0.5,0.1-1,0.4-1.5c0.3-0.4,0.7-0.8,1.2-1.1l1.9,0.2
			c-0.4,0-0.7,0.1-1,0.2s-0.5,0.3-0.6,0.6s-0.2,0.6-0.2,1c0,0.6,0.2,1.1,0.6,1.4c0.4,0.3,0.9,0.5,1.6,0.5h2c0.7,0,1.2-0.2,1.5-0.5
			c0.4-0.3,0.5-0.8,0.5-1.4c0-0.4-0.1-0.7-0.2-1s-0.4-0.5-0.6-0.6s-0.6-0.2-1-0.2l1.9-0.1c0.5,0.2,0.8,0.5,1.1,0.9
			c0.3,0.4,0.5,0.9,0.5,1.5C274.5,101.4,274.3,102,274,102.4z"/>
		<path fill="#FFFFFF" stroke="#FFFFFF" stroke-width="2" d="M274,92.4c-0.3,0.6-0.8,1-1.4,1.3s-1.3,0.4-2.1,0.4H269
			c-0.8,0-1.5-0.1-2.1-0.4s-1-0.7-1.3-1.3s-0.5-1.2-0.5-2s0.2-1.5,0.5-2s0.8-1,1.3-1.3c0.6-0.3,1.3-0.4,2.1-0.4h1.5
			c0.8,0,1.5,0.1,2.1,0.4c0.6,0.3,1,0.7,1.3,1.3s0.5,1.2,0.5,2S274.3,91.9,274,92.4z M272.1,89c-0.4-0.3-0.9-0.5-1.7-0.5H269
			c-0.7,0-1.3,0.2-1.6,0.5c-0.4,0.3-0.6,0.8-0.6,1.5s0.2,1.1,0.6,1.5c0.4,0.3,0.9,0.5,1.6,0.5h1.5c0.7,0,1.3-0.2,1.7-0.5
			c0.4-0.3,0.6-0.8,0.6-1.5S272.5,89.3,272.1,89z"/>
		<path fill="#FFFFFF" stroke="#FFFFFF" stroke-width="2" d="M268.8,78.6c-0.6,0-1.1,0.2-1.5,0.5s-0.5,0.8-0.5,1.4
			c0,0.6,0.2,1,0.5,1.4s0.7,0.5,1.3,0.5l-1.8,0.2c-0.6-0.3-1-0.6-1.3-1.1s-0.4-1-0.4-1.5c0-1,0.3-1.8,1-2.3c0.6-0.5,1.6-0.8,2.7-0.8
			h5.5v1.8H268.8z M265.2,84.1v-1.8h9.1v1.8H265.2z"/>
		<path fill="#FFFFFF" stroke="#FFFFFF" stroke-width="2" d="M268.8,68.5c-0.6,0-1.1,0.2-1.5,0.5s-0.5,0.8-0.5,1.4
			c0,0.6,0.2,1,0.5,1.4s0.7,0.5,1.3,0.5l-1.8,0.2c-0.6-0.3-1-0.6-1.3-1.1s-0.4-1-0.4-1.5c0-1,0.3-1.8,1-2.3c0.6-0.5,1.6-0.8,2.7-0.8
			h5.5v1.8H268.8z M265.2,74v-1.8h9.1V74H265.2z"/>
		<path fill="#FFFFFF" stroke="#FFFFFF" stroke-width="2" d="M262.5,61.5l-3.1-2.5l1.1-1.3l3,2.7L262.5,61.5z M274,62.4
			c-0.3,0.6-0.8,1.1-1.4,1.4c-0.6,0.3-1.4,0.5-2.2,0.5h-1c-0.9,0-1.7-0.2-2.3-0.5c-0.6-0.3-1.1-0.7-1.5-1.3s-0.5-1.3-0.5-2.1
			c0-0.8,0.2-1.4,0.6-2s0.9-1,1.7-1.2c0.7-0.3,1.6-0.4,2.6-0.4h0.6v6.2H269v-4.4c-0.7,0.1-1.3,0.2-1.7,0.6s-0.6,0.8-0.6,1.3
			c0,0.7,0.2,1.2,0.7,1.6c0.4,0.4,1.1,0.6,1.9,0.6h1.2c0.8,0,1.3-0.2,1.7-0.6s0.6-1,0.6-1.7c0-0.4-0.1-0.7-0.2-1.1s-0.4-0.7-0.6-1
			l1.2-1.2c0.4,0.5,0.8,1,1,1.5s0.4,1.1,0.4,1.7C274.4,61.1,274.3,61.8,274,62.4z"/>
		<path fill="#FFFFFF" stroke="#FFFFFF" stroke-width="2" d="M274,52.8c-0.3,0.6-0.8,1.1-1.4,1.4c-0.6,0.3-1.4,0.5-2.2,0.5h-1
			c-0.9,0-1.7-0.2-2.3-0.5c-0.6-0.3-1.1-0.7-1.5-1.3s-0.5-1.3-0.5-2.1c0-0.8,0.2-1.4,0.6-2s0.9-1,1.7-1.2c0.7-0.3,1.6-0.4,2.6-0.4
			h0.6v6.2H269v-4.4c-0.7,0.1-1.3,0.2-1.7,0.6s-0.6,0.8-0.6,1.3c0,0.7,0.2,1.2,0.7,1.6c0.4,0.4,1.1,0.6,1.9,0.6h1.2
			c0.8,0,1.3-0.2,1.7-0.6s0.6-1,0.6-1.7c0-0.4-0.1-0.7-0.2-1.1s-0.4-0.7-0.6-1l1.2-1.2c0.4,0.5,0.8,1,1,1.5s0.4,1.1,0.4,1.7
			C274.4,51.4,274.3,52.2,274,52.8z"/>
		<path fill="#FFFFFF" stroke="#FFFFFF" stroke-width="2" d="M274.3,43c-0.1,0.5-0.3,0.9-0.5,1.3s-0.5,0.8-0.8,1.1l-1.3-1.1
			c0.4-0.5,0.7-1,0.8-1.5s0.3-1,0.3-1.4c0-0.7-0.1-1.2-0.3-1.6s-0.5-0.5-1-0.5c-0.3,0-0.5,0.1-0.7,0.3s-0.2,0.4-0.3,0.7
			s-0.1,0.7-0.1,1.2c0,0,0,0.1,0,0.1s0,0.1,0,0.1c0,0,0,0,0,0.1s0,0,0,0.1c0,0.6-0.1,1.1-0.3,1.5s-0.4,0.8-0.7,1
			c-0.3,0.3-0.8,0.4-1.5,0.4s-1.2-0.1-1.6-0.4s-0.7-0.7-1-1.2s-0.3-1.2-0.3-2c0-0.5,0-0.9,0.1-1.4c0.1-0.4,0.2-0.8,0.4-1.2
			s0.4-0.8,0.7-1.1l1.3,1.1c-0.3,0.5-0.5,0.9-0.7,1.3c-0.1,0.4-0.2,0.9-0.2,1.3c0,0.6,0.1,1.1,0.3,1.4s0.5,0.5,0.9,0.5
			c0.2,0,0.4-0.1,0.6-0.3c0.1-0.2,0.2-0.4,0.2-0.7s0.1-0.6,0.1-1.1c0,0,0-0.1,0-0.1s0-0.1,0-0.1c0,0,0,0,0-0.1s0,0,0-0.1
			c0-0.6,0.1-1.2,0.3-1.6c0.1-0.4,0.4-0.8,0.8-1.1s0.9-0.5,1.7-0.5c0.7,0,1.2,0.1,1.6,0.4s0.8,0.7,1,1.3c0.2,0.6,0.3,1.3,0.3,2.1
			C274.4,42,274.4,42.5,274.3,43z"/>
	</g>
</g>
<g>
	<g>
		<path fill="#74BD83" d="M261.5,186v-1.5l12.8-4.7v1.9l-10.3,3.5l10.3,3.5v1.9L261.5,186z M269.8,188.5v-6.7h1.7v6.7H269.8z"/>
		<path fill="#74BD83" d="M270.2,175.4l-5,3.4v-2l4.1-2.6l5-3.5v2L270.2,175.4z M268.4,174.8l-3.2-2v-2l4.9,3.2L268.4,174.8z
			 M269.3,175.4l1.7-0.9l3.4,2.3v2L269.3,175.4z"/>
		<path fill="#74BD83" d="M274,167.4c-0.3,0.6-0.8,1.1-1.4,1.4c-0.6,0.3-1.4,0.5-2.2,0.5h-1c-0.9,0-1.7-0.2-2.3-0.5
			c-0.6-0.3-1.1-0.7-1.5-1.3s-0.5-1.3-0.5-2.1c0-0.8,0.2-1.4,0.6-2s0.9-1,1.7-1.2c0.7-0.3,1.6-0.4,2.6-0.4h0.6v6.2H269v-4.4
			c-0.7,0.1-1.3,0.2-1.7,0.6s-0.6,0.8-0.6,1.3c0,0.7,0.2,1.2,0.7,1.6c0.4,0.4,1.1,0.6,1.9,0.6h1.2c0.8,0,1.3-0.2,1.7-0.6
			s0.6-1,0.6-1.7c0-0.4-0.1-0.7-0.2-1.1s-0.4-0.7-0.6-1l1.2-1.2c0.4,0.5,0.8,1,1,1.5s0.4,1.1,0.4,1.7
			C274.4,166,274.3,166.8,274,167.4z"/>
		<path fill="#74BD83" d="M261.5,149.3v-1.8h12.8v1.8H261.5z M274,153.3c-0.3,0.5-0.7,0.8-1.3,1.1s-1.2,0.4-2,0.4h-2
			c-0.8,0-1.5-0.1-2-0.4s-1-0.6-1.3-1s-0.4-1-0.4-1.7c0-0.5,0.1-1,0.4-1.5c0.3-0.4,0.7-0.8,1.2-1.1l1.9,0.2c-0.4,0-0.7,0.1-1,0.2
			s-0.5,0.3-0.6,0.6s-0.2,0.6-0.2,1c0,0.6,0.2,1.1,0.6,1.4c0.4,0.3,0.9,0.5,1.6,0.5h2c0.7,0,1.2-0.2,1.5-0.5
			c0.4-0.3,0.5-0.8,0.5-1.4c0-0.4-0.1-0.7-0.2-1s-0.4-0.5-0.6-0.6s-0.6-0.2-1-0.2l1.9-0.1c0.5,0.2,0.8,0.5,1.1,0.9
			c0.3,0.4,0.5,0.9,0.5,1.5C274.5,152.2,274.3,152.8,274,153.3z"/>
		<path fill="#74BD83" d="M274,143.2c-0.3,0.6-0.8,1.1-1.4,1.4c-0.6,0.3-1.4,0.5-2.2,0.5h-1c-0.9,0-1.7-0.2-2.3-0.5
			c-0.6-0.3-1.1-0.7-1.5-1.3s-0.5-1.3-0.5-2.1c0-0.8,0.2-1.4,0.6-2s0.9-1,1.7-1.2c0.7-0.3,1.6-0.4,2.6-0.4h0.6v6.2H269v-4.4
			c-0.7,0.1-1.3,0.2-1.7,0.6s-0.6,0.8-0.6,1.3c0,0.7,0.2,1.2,0.7,1.6c0.4,0.4,1.1,0.6,1.9,0.6h1.2c0.8,0,1.3-0.2,1.7-0.6
			s0.6-1,0.6-1.7c0-0.4-0.1-0.7-0.2-1.1s-0.4-0.7-0.6-1l1.2-1.2c0.4,0.5,0.8,1,1,1.5s0.4,1.1,0.4,1.7
			C274.4,141.8,274.3,142.6,274,143.2z"/>
		<path fill="#74BD83" d="M274.3,133.4c-0.1,0.5-0.3,0.9-0.5,1.3s-0.5,0.8-0.8,1.1l-1.3-1.1c0.4-0.5,0.7-1,0.8-1.5s0.3-1,0.3-1.4
			c0-0.7-0.1-1.2-0.3-1.6s-0.5-0.5-1-0.5c-0.3,0-0.5,0.1-0.7,0.3s-0.2,0.4-0.3,0.7s-0.1,0.7-0.1,1.2c0,0,0,0.1,0,0.1s0,0.1,0,0.1
			c0,0,0,0,0,0.1s0,0,0,0.1c0,0.6-0.1,1.1-0.3,1.5s-0.4,0.8-0.7,1c-0.3,0.3-0.8,0.4-1.5,0.4s-1.2-0.1-1.6-0.4s-0.7-0.7-1-1.2
			s-0.3-1.2-0.3-2c0-0.5,0-0.9,0.1-1.4c0.1-0.4,0.2-0.8,0.4-1.2s0.4-0.8,0.7-1.1l1.3,1.1c-0.3,0.5-0.5,0.9-0.7,1.3
			c-0.1,0.4-0.2,0.9-0.2,1.3c0,0.6,0.1,1.1,0.3,1.4s0.5,0.5,0.9,0.5c0.2,0,0.4-0.1,0.6-0.3c0.1-0.2,0.2-0.4,0.2-0.7s0.1-0.6,0.1-1.1
			c0,0,0-0.1,0-0.1s0-0.1,0-0.1c0,0,0,0,0-0.1s0,0,0-0.1c0-0.6,0.1-1.2,0.3-1.6c0.1-0.4,0.4-0.8,0.8-1.1s0.9-0.5,1.7-0.5
			c0.7,0,1.2,0.1,1.6,0.4s0.8,0.7,1,1.3c0.2,0.6,0.3,1.3,0.3,2.1C274.4,132.4,274.4,132.9,274.3,133.4z"/>
		<path fill="#74BD83" d="M274,119.5c-0.3,0.6-0.8,1-1.4,1.3s-1.3,0.4-2.1,0.4H269c-0.8,0-1.5-0.1-2.1-0.4s-1-0.7-1.3-1.3
			s-0.5-1.2-0.5-2s0.2-1.5,0.5-2s0.8-1,1.3-1.3c0.6-0.3,1.3-0.4,2.1-0.4h1.5c0.8,0,1.5,0.1,2.1,0.4c0.6,0.3,1,0.7,1.3,1.3
			s0.5,1.2,0.5,2S274.3,118.9,274,119.5z M272.1,116c-0.4-0.3-0.9-0.5-1.7-0.5H269c-0.7,0-1.3,0.2-1.6,0.5c-0.4,0.3-0.6,0.8-0.6,1.5
			s0.2,1.1,0.6,1.5c0.4,0.3,0.9,0.5,1.6,0.5h1.5c0.7,0,1.3-0.2,1.7-0.5c0.4-0.3,0.6-0.8,0.6-1.5S272.5,116.3,272.1,116z"/>
		<path fill="#74BD83" d="M266.9,106.7c-0.1,0.2-0.1,0.5-0.1,0.8c0,0.6,0.2,1,0.5,1.3c0.3,0.3,0.7,0.5,1.3,0.5l-1.8,0.2
			c-0.5-0.3-1-0.6-1.3-1.1s-0.5-0.9-0.5-1.5c0-0.4,0.1-0.8,0.2-1.1c0.1-0.3,0.3-0.6,0.5-0.9l1.6,1.2
			C267.2,106.3,267,106.5,266.9,106.7z M265.2,111.1v-1.8h9.1v1.8H265.2z"/>
		<path fill="#74BD83" d="M261.5,98.4v-1.8h12.8v1.8H261.5z M274,102.4c-0.3,0.5-0.7,0.8-1.3,1.1s-1.2,0.4-2,0.4h-2
			c-0.8,0-1.5-0.1-2-0.4s-1-0.6-1.3-1s-0.4-1-0.4-1.7c0-0.5,0.1-1,0.4-1.5c0.3-0.4,0.7-0.8,1.2-1.1l1.9,0.2c-0.4,0-0.7,0.1-1,0.2
			s-0.5,0.3-0.6,0.6s-0.2,0.6-0.2,1c0,0.6,0.2,1.1,0.6,1.4c0.4,0.3,0.9,0.5,1.6,0.5h2c0.7,0,1.2-0.2,1.5-0.5
			c0.4-0.3,0.5-0.8,0.5-1.4c0-0.4-0.1-0.7-0.2-1s-0.4-0.5-0.6-0.6s-0.6-0.2-1-0.2l1.9-0.1c0.5,0.2,0.8,0.5,1.1,0.9
			c0.3,0.4,0.5,0.9,0.5,1.5C274.5,101.4,274.3,102,274,102.4z"/>
		<path fill="#74BD83" d="M274,92.4c-0.3,0.6-0.8,1-1.4,1.3s-1.3,0.4-2.1,0.4H269c-0.8,0-1.5-0.1-2.1-0.4s-1-0.7-1.3-1.3
			s-0.5-1.2-0.5-2s0.2-1.5,0.5-2s0.8-1,1.3-1.3c0.6-0.3,1.3-0.4,2.1-0.4h1.5c0.8,0,1.5,0.1,2.1,0.4c0.6,0.3,1,0.7,1.3,1.3
			s0.5,1.2,0.5,2S274.3,91.9,274,92.4z M272.1,89c-0.4-0.3-0.9-0.5-1.7-0.5H269c-0.7,0-1.3,0.2-1.6,0.5c-0.4,0.3-0.6,0.8-0.6,1.5
			s0.2,1.1,0.6,1.5c0.4,0.3,0.9,0.5,1.6,0.5h1.5c0.7,0,1.3-0.2,1.7-0.5c0.4-0.3,0.6-0.8,0.6-1.5S272.5,89.3,272.1,89z"/>
		<path fill="#74BD83" d="M268.8,78.6c-0.6,0-1.1,0.2-1.5,0.5s-0.5,0.8-0.5,1.4c0,0.6,0.2,1,0.5,1.4s0.7,0.5,1.3,0.5l-1.8,0.2
			c-0.6-0.3-1-0.6-1.3-1.1s-0.4-1-0.4-1.5c0-1,0.3-1.8,1-2.3c0.6-0.5,1.6-0.8,2.7-0.8h5.5v1.8H268.8z M265.2,84.1v-1.8h9.1v1.8
			H265.2z"/>
		<path fill="#74BD83" d="M268.8,68.5c-0.6,0-1.1,0.2-1.5,0.5s-0.5,0.8-0.5,1.4c0,0.6,0.2,1,0.5,1.4s0.7,0.5,1.3,0.5l-1.8,0.2
			c-0.6-0.3-1-0.6-1.3-1.1s-0.4-1-0.4-1.5c0-1,0.3-1.8,1-2.3c0.6-0.5,1.6-0.8,2.7-0.8h5.5v1.8H268.8z M265.2,74v-1.8h9.1V74H265.2z"
			/>
		<path fill="#74BD83" d="M262.5,61.5l-3.1-2.5l1.1-1.3l3,2.7L262.5,61.5z M274,62.4c-0.3,0.6-0.8,1.1-1.4,1.4
			c-0.6,0.3-1.4,0.5-2.2,0.5h-1c-0.9,0-1.7-0.2-2.3-0.5c-0.6-0.3-1.1-0.7-1.5-1.3s-0.5-1.3-0.5-2.1c0-0.8,0.2-1.4,0.6-2
			s0.9-1,1.7-1.2c0.7-0.3,1.6-0.4,2.6-0.4h0.6v6.2H269v-4.4c-0.7,0.1-1.3,0.2-1.7,0.6s-0.6,0.8-0.6,1.3c0,0.7,0.2,1.2,0.7,1.6
			c0.4,0.4,1.1,0.6,1.9,0.6h1.2c0.8,0,1.3-0.2,1.7-0.6s0.6-1,0.6-1.7c0-0.4-0.1-0.7-0.2-1.1s-0.4-0.7-0.6-1l1.2-1.2
			c0.4,0.5,0.8,1,1,1.5s0.4,1.1,0.4,1.7C274.4,61.1,274.3,61.8,274,62.4z"/>
		<path fill="#74BD83" d="M274,52.8c-0.3,0.6-0.8,1.1-1.4,1.4c-0.6,0.3-1.4,0.5-2.2,0.5h-1c-0.9,0-1.7-0.2-2.3-0.5
			c-0.6-0.3-1.1-0.7-1.5-1.3s-0.5-1.3-0.5-2.1c0-0.8,0.2-1.4,0.6-2s0.9-1,1.7-1.2c0.7-0.3,1.6-0.4,2.6-0.4h0.6v6.2H269v-4.4
			c-0.7,0.1-1.3,0.2-1.7,0.6s-0.6,0.8-0.6,1.3c0,0.7,0.2,1.2,0.7,1.6c0.4,0.4,1.1,0.6,1.9,0.6h1.2c0.8,0,1.3-0.2,1.7-0.6
			s0.6-1,0.6-1.7c0-0.4-0.1-0.7-0.2-1.1s-0.4-0.7-0.6-1l1.2-1.2c0.4,0.5,0.8,1,1,1.5s0.4,1.1,0.4,1.7
			C274.4,51.4,274.3,52.2,274,52.8z"/>
		<path fill="#74BD83" d="M274.3,43c-0.1,0.5-0.3,0.9-0.5,1.3s-0.5,0.8-0.8,1.1l-1.3-1.1c0.4-0.5,0.7-1,0.8-1.5s0.3-1,0.3-1.4
			c0-0.7-0.1-1.2-0.3-1.6s-0.5-0.5-1-0.5c-0.3,0-0.5,0.1-0.7,0.3s-0.2,0.4-0.3,0.7s-0.1,0.7-0.1,1.2c0,0,0,0.1,0,0.1s0,0.1,0,0.1
			c0,0,0,0,0,0.1s0,0,0,0.1c0,0.6-0.1,1.1-0.3,1.5s-0.4,0.8-0.7,1c-0.3,0.3-0.8,0.4-1.5,0.4s-1.2-0.1-1.6-0.4s-0.7-0.7-1-1.2
			s-0.3-1.2-0.3-2c0-0.5,0-0.9,0.1-1.4c0.1-0.4,0.2-0.8,0.4-1.2s0.4-0.8,0.7-1.1l1.3,1.1c-0.3,0.5-0.5,0.9-0.7,1.3
			c-0.1,0.4-0.2,0.9-0.2,1.3c0,0.6,0.1,1.1,0.3,1.4s0.5,0.5,0.9,0.5c0.2,0,0.4-0.1,0.6-0.3c0.1-0.2,0.2-0.4,0.2-0.7s0.1-0.6,0.1-1.1
			c0,0,0-0.1,0-0.1s0-0.1,0-0.1c0,0,0,0,0-0.1s0,0,0-0.1c0-0.6,0.1-1.2,0.3-1.6c0.1-0.4,0.4-0.8,0.8-1.1s0.9-0.5,1.7-0.5
			c0.7,0,1.2,0.1,1.6,0.4s0.8,0.7,1,1.3c0.2,0.6,0.3,1.3,0.3,2.1C274.4,42,274.4,42.5,274.3,43z"/>
	</g>
</g>
<g>
	<g>
		<path fill="#FFFFFF" stroke="#FFFFFF" stroke-width="2" d="M321,224.4h1.5l4.7,12.8h-1.9l-3.5-10.3l-3.5,10.3h-1.9L321,224.4z
			 M318.5,232.6h6.7v1.7h-6.7V232.6z"/>
		<path fill="#FFFFFF" stroke="#FFFFFF" stroke-width="2" d="M331.6,232.1l0.9,1.7l-2.3,3.4h-2L331.6,232.1z M331.6,233l-3.4-5h2
			l2.6,4.1l3.5,5h-2L331.6,233z M332.2,231.2l2-3.2h2l-3.2,4.9L332.2,231.2z"/>
		<path fill="#FFFFFF" stroke="#FFFFFF" stroke-width="2" d="M339.6,236.8c-0.6-0.3-1.1-0.8-1.4-1.4c-0.3-0.6-0.5-1.4-0.5-2.2v-1
			c0-0.9,0.2-1.7,0.5-2.3c0.3-0.6,0.7-1.1,1.3-1.5s1.3-0.5,2.1-0.5c0.8,0,1.4,0.2,2,0.6s1,0.9,1.2,1.7c0.3,0.7,0.4,1.6,0.4,2.6v0.6
			h-6.2v-1.4h4.4c-0.1-0.7-0.2-1.3-0.6-1.7s-0.8-0.6-1.3-0.6c-0.7,0-1.2,0.2-1.6,0.7c-0.4,0.4-0.6,1.1-0.6,1.9v1.2
			c0,0.8,0.2,1.3,0.6,1.7s1,0.6,1.7,0.6c0.4,0,0.7-0.1,1.1-0.2s0.7-0.4,1-0.6l1.2,1.2c-0.5,0.4-1,0.8-1.5,1s-1.1,0.4-1.7,0.4
			C341,237.3,340.2,237.1,339.6,236.8z"/>
		<path fill="#FFFFFF" stroke="#FFFFFF" stroke-width="2" d="M353.7,236.9c-0.5-0.3-0.8-0.7-1.1-1.3s-0.4-1.2-0.4-2v-2
			c0-0.8,0.1-1.5,0.4-2s0.6-1,1-1.3s1-0.4,1.7-0.4c0.5,0,1,0.1,1.5,0.4c0.4,0.3,0.8,0.7,1.1,1.2l-0.2,1.9c0-0.4-0.1-0.7-0.2-1
			s-0.3-0.5-0.6-0.6s-0.6-0.2-1-0.2c-0.6,0-1.1,0.2-1.4,0.6c-0.3,0.4-0.5,0.9-0.5,1.6v2c0,0.7,0.2,1.2,0.5,1.5
			c0.3,0.4,0.8,0.5,1.4,0.5c0.4,0,0.7-0.1,1-0.2s0.5-0.4,0.6-0.6s0.2-0.6,0.2-1l0.1,1.9c-0.2,0.5-0.5,0.8-0.9,1.1
			c-0.4,0.3-0.9,0.5-1.5,0.5C354.8,237.3,354.2,237.1,353.7,236.9z M357.7,224.4h1.8v12.8h-1.8V224.4z"/>
		<path fill="#FFFFFF" stroke="#FFFFFF" stroke-width="2" d="M363.8,236.8c-0.6-0.3-1.1-0.8-1.4-1.4c-0.3-0.6-0.5-1.4-0.5-2.2v-1
			c0-0.9,0.2-1.7,0.5-2.3c0.3-0.6,0.7-1.1,1.3-1.5s1.3-0.5,2.1-0.5c0.8,0,1.4,0.2,2,0.6s1,0.9,1.2,1.7c0.3,0.7,0.4,1.6,0.4,2.6v0.6
			h-6.2v-1.4h4.4c-0.1-0.7-0.2-1.3-0.6-1.7s-0.8-0.6-1.3-0.6c-0.7,0-1.2,0.2-1.6,0.7c-0.4,0.4-0.6,1.1-0.6,1.9v1.2
			c0,0.8,0.2,1.3,0.6,1.7s1,0.6,1.7,0.6c0.4,0,0.7-0.1,1.1-0.2s0.7-0.4,1-0.6l1.2,1.2c-0.5,0.4-1,0.8-1.5,1s-1.1,0.4-1.7,0.4
			C365.1,237.3,364.4,237.1,363.8,236.8z"/>
		<path fill="#FFFFFF" stroke="#FFFFFF" stroke-width="2" d="M373.6,237.1c-0.5-0.1-0.9-0.3-1.3-0.5s-0.8-0.5-1.1-0.8l1.1-1.3
			c0.5,0.4,1,0.7,1.5,0.8s1,0.3,1.4,0.3c0.7,0,1.2-0.1,1.6-0.3s0.5-0.5,0.5-1c0-0.3-0.1-0.5-0.3-0.7s-0.4-0.2-0.7-0.3
			s-0.7-0.1-1.2-0.1c0,0-0.1,0-0.1,0s-0.1,0-0.1,0c0,0,0,0-0.1,0s0,0-0.1,0c-0.6,0-1.1-0.1-1.5-0.3s-0.8-0.4-1-0.7
			c-0.3-0.3-0.4-0.8-0.4-1.5s0.1-1.2,0.4-1.6s0.7-0.7,1.2-1s1.2-0.3,2-0.3c0.5,0,0.9,0,1.4,0.1c0.4,0.1,0.8,0.2,1.2,0.4
			s0.8,0.4,1.1,0.7l-1.1,1.3c-0.5-0.3-0.9-0.5-1.3-0.7c-0.4-0.1-0.9-0.2-1.3-0.2c-0.6,0-1.1,0.1-1.4,0.3s-0.5,0.5-0.5,0.9
			c0,0.2,0.1,0.4,0.3,0.6c0.2,0.1,0.4,0.2,0.7,0.2s0.6,0.1,1.1,0.1c0,0,0.1,0,0.1,0s0.1,0,0.1,0c0,0,0,0,0.1,0s0,0,0.1,0
			c0.6,0,1.2,0.1,1.6,0.3c0.4,0.1,0.8,0.4,1.1,0.8s0.5,0.9,0.5,1.7c0,0.7-0.1,1.2-0.4,1.6s-0.7,0.8-1.3,1c-0.6,0.2-1.3,0.3-2.1,0.3
			C374.6,237.3,374.1,237.2,373.6,237.1z"/>
		<path fill="#FFFFFF" stroke="#FFFFFF" stroke-width="2" d="M386.5,236.6c-0.6-0.5-0.8-1.2-0.8-2.1c0-0.9,0.3-1.6,0.8-2
			s1.3-0.7,2.3-0.7h2.6l0.1,1.4h-2.7c-0.5,0-0.8,0.1-1,0.3c-0.2,0.2-0.3,0.5-0.3,1c0,0.5,0.2,0.8,0.5,1c0.3,0.2,0.8,0.3,1.4,0.3
			c0.7,0,1.2-0.1,1.5-0.2s0.5-0.4,0.5-0.7l0.2,1.3c-0.2,0.2-0.4,0.4-0.6,0.6s-0.5,0.3-0.8,0.4s-0.6,0.1-1,0.1
			C387.9,237.3,387,237,386.5,236.6z M391.2,231.3c0-0.6-0.2-1.1-0.5-1.4c-0.3-0.3-0.8-0.5-1.4-0.5c-0.4,0-0.7,0.1-1.1,0.2
			c-0.3,0.1-0.7,0.3-0.9,0.5l-1.3-0.9c0.3-0.4,0.8-0.7,1.4-1s1.2-0.3,1.9-0.3c0.8,0,1.4,0.1,1.9,0.4s0.9,0.7,1.2,1.2
			s0.4,1.1,0.4,1.8v5.9h-1.7V231.3z"/>
		<path fill="#FFFFFF" stroke="#FFFFFF" stroke-width="2" d="M395.7,224.4h1.8v12.8h-1.8V224.4z M398.3,236.9
			c-0.4-0.3-0.7-0.7-0.9-1.2l0.1-1.9c0,0.4,0.1,0.7,0.2,1s0.3,0.5,0.6,0.6c0.3,0.1,0.6,0.2,1,0.2c0.6,0,1.1-0.2,1.4-0.5
			c0.3-0.4,0.5-0.9,0.5-1.5v-2c0-0.7-0.2-1.2-0.5-1.6c-0.3-0.4-0.8-0.6-1.4-0.6c-0.4,0-0.7,0.1-1,0.2c-0.3,0.1-0.5,0.3-0.6,0.6
			s-0.2,0.6-0.2,1l-0.2-1.8c0.3-0.5,0.6-0.9,1.1-1.2s0.9-0.4,1.5-0.4c0.6,0,1.2,0.1,1.7,0.4c0.5,0.3,0.8,0.7,1,1.3s0.4,1.2,0.4,2v2
			c0,0.8-0.1,1.4-0.4,2s-0.6,1-1.1,1.3s-1,0.4-1.7,0.4C399.2,237.3,398.7,237.1,398.3,236.9z"/>
		<path fill="#FFFFFF" stroke="#FFFFFF" stroke-width="2" d="M407.2,237.1c-0.5-0.1-0.9-0.3-1.3-0.5s-0.8-0.5-1.1-0.8l1.1-1.3
			c0.5,0.4,1,0.7,1.5,0.8s1,0.3,1.4,0.3c0.7,0,1.2-0.1,1.6-0.3s0.5-0.5,0.5-1c0-0.3-0.1-0.5-0.3-0.7s-0.4-0.2-0.7-0.3
			s-0.7-0.1-1.2-0.1c0,0-0.1,0-0.1,0s-0.1,0-0.1,0c0,0,0,0-0.1,0s0,0-0.1,0c-0.6,0-1.1-0.1-1.5-0.3s-0.8-0.4-1-0.7
			c-0.3-0.3-0.4-0.8-0.4-1.5s0.1-1.2,0.4-1.6s0.7-0.7,1.2-1s1.2-0.3,2-0.3c0.5,0,0.9,0,1.4,0.1c0.4,0.1,0.8,0.2,1.2,0.4
			s0.8,0.4,1.1,0.7l-1.1,1.3c-0.5-0.3-0.9-0.5-1.3-0.7c-0.4-0.1-0.9-0.2-1.3-0.2c-0.6,0-1.1,0.1-1.4,0.3s-0.5,0.5-0.5,0.9
			c0,0.2,0.1,0.4,0.3,0.6c0.2,0.1,0.4,0.2,0.7,0.2s0.6,0.1,1.1,0.1c0,0,0.1,0,0.1,0s0.1,0,0.1,0c0,0,0,0,0.1,0s0,0,0.1,0
			c0.6,0,1.2,0.1,1.6,0.3c0.4,0.1,0.8,0.4,1.1,0.8s0.5,0.9,0.5,1.7c0,0.7-0.1,1.2-0.4,1.6s-0.7,0.8-1.3,1c-0.6,0.2-1.3,0.3-2.1,0.3
			C408.1,237.3,407.6,237.2,407.2,237.1z"/>
		<path fill="#FFFFFF" stroke="#FFFFFF" stroke-width="2" d="M416.3,236.8c-0.6-0.3-1-0.8-1.3-1.4s-0.5-1.3-0.5-2.1v-1.5
			c0-0.8,0.2-1.5,0.5-2.1s0.8-1,1.3-1.3c0.6-0.3,1.3-0.5,2.1-0.5c0.5,0,0.9,0.1,1.3,0.2c0.4,0.1,0.8,0.3,1.1,0.5s0.6,0.5,0.8,0.8
			l-1.3,1.2c-0.3-0.3-0.6-0.5-0.9-0.7s-0.7-0.2-1.1-0.2c-0.7,0-1.2,0.2-1.6,0.6s-0.6,0.9-0.6,1.6v1.5c0,0.7,0.2,1.3,0.6,1.7
			c0.4,0.4,0.9,0.6,1.6,0.6c0.4,0,0.7-0.1,1.1-0.3s0.6-0.4,0.9-0.7l1.3,1.2c-0.2,0.3-0.5,0.6-0.8,0.8s-0.7,0.4-1.1,0.5
			s-0.9,0.2-1.3,0.2C417.6,237.3,416.9,237.1,416.3,236.8z"/>
		<path fill="#FFFFFF" stroke="#FFFFFF" stroke-width="2" d="M423.7,224.4h1.8v1.8h-1.8V224.4z M423.7,228h1.8v9.1h-1.8V228z"/>
		<path fill="#FFFFFF" stroke="#FFFFFF" stroke-width="2" d="M430,237.1c-0.5-0.1-0.9-0.3-1.3-0.5s-0.8-0.5-1.1-0.8l1.1-1.3
			c0.5,0.4,1,0.7,1.5,0.8s1,0.3,1.4,0.3c0.7,0,1.2-0.1,1.6-0.3s0.5-0.5,0.5-1c0-0.3-0.1-0.5-0.3-0.7s-0.4-0.2-0.7-0.3
			s-0.7-0.1-1.2-0.1c0,0-0.1,0-0.1,0s-0.1,0-0.1,0c0,0,0,0-0.1,0s0,0-0.1,0c-0.6,0-1.1-0.1-1.5-0.3s-0.8-0.4-1-0.7
			c-0.3-0.3-0.4-0.8-0.4-1.5s0.1-1.2,0.4-1.6s0.7-0.7,1.2-1s1.2-0.3,2-0.3c0.5,0,0.9,0,1.4,0.1c0.4,0.1,0.8,0.2,1.2,0.4
			s0.8,0.4,1.1,0.7l-1.1,1.3c-0.5-0.3-0.9-0.5-1.3-0.7c-0.4-0.1-0.9-0.2-1.3-0.2c-0.6,0-1.1,0.1-1.4,0.3s-0.5,0.5-0.5,0.9
			c0,0.2,0.1,0.4,0.3,0.6c0.2,0.1,0.4,0.2,0.7,0.2s0.6,0.1,1.1,0.1c0,0,0.1,0,0.1,0s0.1,0,0.1,0c0,0,0,0,0.1,0s0,0,0.1,0
			c0.6,0,1.2,0.1,1.6,0.3c0.4,0.1,0.8,0.4,1.1,0.8s0.5,0.9,0.5,1.7c0,0.7-0.1,1.2-0.4,1.6s-0.7,0.8-1.3,1c-0.6,0.2-1.3,0.3-2.1,0.3
			C430.9,237.3,430.4,237.2,430,237.1z"/>
		<path fill="#FFFFFF" stroke="#FFFFFF" stroke-width="2" d="M439.3,237.1c-0.5-0.1-0.9-0.3-1.3-0.5s-0.8-0.5-1.1-0.8l1.1-1.3
			c0.5,0.4,1,0.7,1.5,0.8s1,0.3,1.4,0.3c0.7,0,1.2-0.1,1.6-0.3s0.5-0.5,0.5-1c0-0.3-0.1-0.5-0.3-0.7s-0.4-0.2-0.7-0.3
			s-0.7-0.1-1.2-0.1c0,0-0.1,0-0.1,0s-0.1,0-0.1,0c0,0,0,0-0.1,0s0,0-0.1,0c-0.6,0-1.1-0.1-1.5-0.3s-0.8-0.4-1-0.7
			c-0.3-0.3-0.4-0.8-0.4-1.5s0.1-1.2,0.4-1.6s0.7-0.7,1.2-1s1.2-0.3,2-0.3c0.5,0,0.9,0,1.4,0.1c0.4,0.1,0.8,0.2,1.2,0.4
			s0.8,0.4,1.1,0.7l-1.1,1.3c-0.5-0.3-0.9-0.5-1.3-0.7c-0.4-0.1-0.9-0.2-1.3-0.2c-0.6,0-1.1,0.1-1.4,0.3s-0.5,0.5-0.5,0.9
			c0,0.2,0.1,0.4,0.3,0.6c0.2,0.1,0.4,0.2,0.7,0.2s0.6,0.1,1.1,0.1c0,0,0.1,0,0.1,0s0.1,0,0.1,0c0,0,0,0,0.1,0s0,0,0.1,0
			c0.6,0,1.2,0.1,1.6,0.3c0.4,0.1,0.8,0.4,1.1,0.8s0.5,0.9,0.5,1.7c0,0.7-0.1,1.2-0.4,1.6s-0.7,0.8-1.3,1c-0.6,0.2-1.3,0.3-2.1,0.3
			C440.3,237.3,439.8,237.2,439.3,237.1z"/>
		<path fill="#FFFFFF" stroke="#FFFFFF" stroke-width="2" d="M448.5,236.8c-0.6-0.3-1.1-0.8-1.4-1.4c-0.3-0.6-0.5-1.4-0.5-2.2v-1
			c0-0.9,0.2-1.7,0.5-2.3c0.3-0.6,0.7-1.1,1.3-1.5s1.3-0.5,2.1-0.5c0.8,0,1.4,0.2,2,0.6s1,0.9,1.2,1.7c0.3,0.7,0.4,1.6,0.4,2.6v0.6
			H448v-1.4h4.4c-0.1-0.7-0.2-1.3-0.6-1.7s-0.8-0.6-1.3-0.6c-0.7,0-1.2,0.2-1.6,0.7c-0.4,0.4-0.6,1.1-0.6,1.9v1.2
			c0,0.8,0.2,1.3,0.6,1.7s1,0.6,1.7,0.6c0.4,0,0.7-0.1,1.1-0.2s0.7-0.4,1-0.6l1.2,1.2c-0.5,0.4-1,0.8-1.5,1s-1.1,0.4-1.7,0.4
			C449.8,237.3,449.1,237.1,448.5,236.8z"/>
		<path fill="#FFFFFF" stroke="#FFFFFF" stroke-width="2" d="M458.3,237.1c-0.5-0.1-0.9-0.3-1.3-0.5s-0.8-0.5-1.1-0.8l1.1-1.3
			c0.5,0.4,1,0.7,1.5,0.8s1,0.3,1.4,0.3c0.7,0,1.2-0.1,1.6-0.3s0.5-0.5,0.5-1c0-0.3-0.1-0.5-0.3-0.7s-0.4-0.2-0.7-0.3
			s-0.7-0.1-1.2-0.1c0,0-0.1,0-0.1,0s-0.1,0-0.1,0c0,0,0,0-0.1,0s0,0-0.1,0c-0.6,0-1.1-0.1-1.5-0.3s-0.8-0.4-1-0.7
			c-0.3-0.3-0.4-0.8-0.4-1.5s0.1-1.2,0.4-1.6s0.7-0.7,1.2-1s1.2-0.3,2-0.3c0.5,0,0.9,0,1.4,0.1c0.4,0.1,0.8,0.2,1.2,0.4
			s0.8,0.4,1.1,0.7l-1.1,1.3c-0.5-0.3-0.9-0.5-1.3-0.7c-0.4-0.1-0.9-0.2-1.3-0.2c-0.6,0-1.1,0.1-1.4,0.3s-0.5,0.5-0.5,0.9
			c0,0.2,0.1,0.4,0.3,0.6c0.2,0.1,0.4,0.2,0.7,0.2s0.6,0.1,1.1,0.1c0,0,0.1,0,0.1,0s0.1,0,0.1,0c0,0,0,0,0.1,0s0,0,0.1,0
			c0.6,0,1.2,0.1,1.6,0.3c0.4,0.1,0.8,0.4,1.1,0.8s0.5,0.9,0.5,1.7c0,0.7-0.1,1.2-0.4,1.6s-0.7,0.8-1.3,1c-0.6,0.2-1.3,0.3-2.1,0.3
			C459.3,237.3,458.8,237.2,458.3,237.1z"/>
	</g>
</g>
<g>
	<g>
		<path fill="#44ACE2" d="M321,224.4h1.5l4.7,12.8h-1.9l-3.5-10.3l-3.5,10.3h-1.9L321,224.4z M318.5,232.6h6.7v1.7h-6.7V232.6z"/>
		<path fill="#44ACE2" d="M331.6,232.1l0.9,1.7l-2.3,3.4h-2L331.6,232.1z M331.6,233l-3.4-5h2l2.6,4.1l3.5,5h-2L331.6,233z
			 M332.2,231.2l2-3.2h2l-3.2,4.9L332.2,231.2z"/>
		<path fill="#44ACE2" d="M339.6,236.8c-0.6-0.3-1.1-0.8-1.4-1.4c-0.3-0.6-0.5-1.4-0.5-2.2v-1c0-0.9,0.2-1.7,0.5-2.3
			c0.3-0.6,0.7-1.1,1.3-1.5s1.3-0.5,2.1-0.5c0.8,0,1.4,0.2,2,0.6s1,0.9,1.2,1.7c0.3,0.7,0.4,1.6,0.4,2.6v0.6h-6.2v-1.4h4.4
			c-0.1-0.7-0.2-1.3-0.6-1.7s-0.8-0.6-1.3-0.6c-0.7,0-1.2,0.2-1.6,0.7c-0.4,0.4-0.6,1.1-0.6,1.9v1.2c0,0.8,0.2,1.3,0.6,1.7
			s1,0.6,1.7,0.6c0.4,0,0.7-0.1,1.1-0.2s0.7-0.4,1-0.6l1.2,1.2c-0.5,0.4-1,0.8-1.5,1s-1.1,0.4-1.7,0.4
			C341,237.3,340.2,237.1,339.6,236.8z"/>
		<path fill="#44ACE2" d="M353.7,236.9c-0.5-0.3-0.8-0.7-1.1-1.3s-0.4-1.2-0.4-2v-2c0-0.8,0.1-1.5,0.4-2s0.6-1,1-1.3s1-0.4,1.7-0.4
			c0.5,0,1,0.1,1.5,0.4c0.4,0.3,0.8,0.7,1.1,1.2l-0.2,1.9c0-0.4-0.1-0.7-0.2-1s-0.3-0.5-0.6-0.6s-0.6-0.2-1-0.2
			c-0.6,0-1.1,0.2-1.4,0.6c-0.3,0.4-0.5,0.9-0.5,1.6v2c0,0.7,0.2,1.2,0.5,1.5c0.3,0.4,0.8,0.5,1.4,0.5c0.4,0,0.7-0.1,1-0.2
			s0.5-0.4,0.6-0.6s0.2-0.6,0.2-1l0.1,1.9c-0.2,0.5-0.5,0.8-0.9,1.1c-0.4,0.3-0.9,0.5-1.5,0.5C354.8,237.3,354.2,237.1,353.7,236.9z
			 M357.7,224.4h1.8v12.8h-1.8V224.4z"/>
		<path fill="#44ACE2" d="M363.8,236.8c-0.6-0.3-1.1-0.8-1.4-1.4c-0.3-0.6-0.5-1.4-0.5-2.2v-1c0-0.9,0.2-1.7,0.5-2.3
			c0.3-0.6,0.7-1.1,1.3-1.5s1.3-0.5,2.1-0.5c0.8,0,1.4,0.2,2,0.6s1,0.9,1.2,1.7c0.3,0.7,0.4,1.6,0.4,2.6v0.6h-6.2v-1.4h4.4
			c-0.1-0.7-0.2-1.3-0.6-1.7s-0.8-0.6-1.3-0.6c-0.7,0-1.2,0.2-1.6,0.7c-0.4,0.4-0.6,1.1-0.6,1.9v1.2c0,0.8,0.2,1.3,0.6,1.7
			s1,0.6,1.7,0.6c0.4,0,0.7-0.1,1.1-0.2s0.7-0.4,1-0.6l1.2,1.2c-0.5,0.4-1,0.8-1.5,1s-1.1,0.4-1.7,0.4
			C365.1,237.3,364.4,237.1,363.8,236.8z"/>
		<path fill="#44ACE2" d="M373.6,237.1c-0.5-0.1-0.9-0.3-1.3-0.5s-0.8-0.5-1.1-0.8l1.1-1.3c0.5,0.4,1,0.7,1.5,0.8s1,0.3,1.4,0.3
			c0.7,0,1.2-0.1,1.6-0.3s0.5-0.5,0.5-1c0-0.3-0.1-0.5-0.3-0.7s-0.4-0.2-0.7-0.3s-0.7-0.1-1.2-0.1c0,0-0.1,0-0.1,0s-0.1,0-0.1,0
			c0,0,0,0-0.1,0s0,0-0.1,0c-0.6,0-1.1-0.1-1.5-0.3s-0.8-0.4-1-0.7c-0.3-0.3-0.4-0.8-0.4-1.5s0.1-1.2,0.4-1.6s0.7-0.7,1.2-1
			s1.2-0.3,2-0.3c0.5,0,0.9,0,1.4,0.1c0.4,0.1,0.8,0.2,1.2,0.4s0.8,0.4,1.1,0.7l-1.1,1.3c-0.5-0.3-0.9-0.5-1.3-0.7
			c-0.4-0.1-0.9-0.2-1.3-0.2c-0.6,0-1.1,0.1-1.4,0.3s-0.5,0.5-0.5,0.9c0,0.2,0.1,0.4,0.3,0.6c0.2,0.1,0.4,0.2,0.7,0.2
			s0.6,0.1,1.1,0.1c0,0,0.1,0,0.1,0s0.1,0,0.1,0c0,0,0,0,0.1,0s0,0,0.1,0c0.6,0,1.2,0.1,1.6,0.3c0.4,0.1,0.8,0.4,1.1,0.8
			s0.5,0.9,0.5,1.7c0,0.7-0.1,1.2-0.4,1.6s-0.7,0.8-1.3,1c-0.6,0.2-1.3,0.3-2.1,0.3C374.6,237.3,374.1,237.2,373.6,237.1z"/>
		<path fill="#44ACE2" d="M386.5,236.6c-0.6-0.5-0.8-1.2-0.8-2.1c0-0.9,0.3-1.6,0.8-2s1.3-0.7,2.3-0.7h2.6l0.1,1.4h-2.7
			c-0.5,0-0.8,0.1-1,0.3c-0.2,0.2-0.3,0.5-0.3,1c0,0.5,0.2,0.8,0.5,1c0.3,0.2,0.8,0.3,1.4,0.3c0.7,0,1.2-0.1,1.5-0.2
			s0.5-0.4,0.5-0.7l0.2,1.3c-0.2,0.2-0.4,0.4-0.6,0.6s-0.5,0.3-0.8,0.4s-0.6,0.1-1,0.1C387.9,237.3,387,237,386.5,236.6z
			 M391.2,231.3c0-0.6-0.2-1.1-0.5-1.4c-0.3-0.3-0.8-0.5-1.4-0.5c-0.4,0-0.7,0.1-1.1,0.2c-0.3,0.1-0.7,0.3-0.9,0.5l-1.3-0.9
			c0.3-0.4,0.8-0.7,1.4-1s1.2-0.3,1.9-0.3c0.8,0,1.4,0.1,1.9,0.4s0.9,0.7,1.2,1.2s0.4,1.1,0.4,1.8v5.9h-1.7V231.3z"/>
		<path fill="#44ACE2" d="M395.7,224.4h1.8v12.8h-1.8V224.4z M398.3,236.9c-0.4-0.3-0.7-0.7-0.9-1.2l0.1-1.9c0,0.4,0.1,0.7,0.2,1
			s0.3,0.5,0.6,0.6c0.3,0.1,0.6,0.2,1,0.2c0.6,0,1.1-0.2,1.4-0.5c0.3-0.4,0.5-0.9,0.5-1.5v-2c0-0.7-0.2-1.2-0.5-1.6
			c-0.3-0.4-0.8-0.6-1.4-0.6c-0.4,0-0.7,0.1-1,0.2c-0.3,0.1-0.5,0.3-0.6,0.6s-0.2,0.6-0.2,1l-0.2-1.8c0.3-0.5,0.6-0.9,1.1-1.2
			s0.9-0.4,1.5-0.4c0.6,0,1.2,0.1,1.7,0.4c0.5,0.3,0.8,0.7,1,1.3s0.4,1.2,0.4,2v2c0,0.8-0.1,1.4-0.4,2s-0.6,1-1.1,1.3
			s-1,0.4-1.7,0.4C399.2,237.3,398.7,237.1,398.3,236.9z"/>
		<path fill="#44ACE2" d="M407.2,237.1c-0.5-0.1-0.9-0.3-1.3-0.5s-0.8-0.5-1.1-0.8l1.1-1.3c0.5,0.4,1,0.7,1.5,0.8s1,0.3,1.4,0.3
			c0.7,0,1.2-0.1,1.6-0.3s0.5-0.5,0.5-1c0-0.3-0.1-0.5-0.3-0.7s-0.4-0.2-0.7-0.3s-0.7-0.1-1.2-0.1c0,0-0.1,0-0.1,0s-0.1,0-0.1,0
			c0,0,0,0-0.1,0s0,0-0.1,0c-0.6,0-1.1-0.1-1.5-0.3s-0.8-0.4-1-0.7c-0.3-0.3-0.4-0.8-0.4-1.5s0.1-1.2,0.4-1.6s0.7-0.7,1.2-1
			s1.2-0.3,2-0.3c0.5,0,0.9,0,1.4,0.1c0.4,0.1,0.8,0.2,1.2,0.4s0.8,0.4,1.1,0.7l-1.1,1.3c-0.5-0.3-0.9-0.5-1.3-0.7
			c-0.4-0.1-0.9-0.2-1.3-0.2c-0.6,0-1.1,0.1-1.4,0.3s-0.5,0.5-0.5,0.9c0,0.2,0.1,0.4,0.3,0.6c0.2,0.1,0.4,0.2,0.7,0.2
			s0.6,0.1,1.1,0.1c0,0,0.1,0,0.1,0s0.1,0,0.1,0c0,0,0,0,0.1,0s0,0,0.1,0c0.6,0,1.2,0.1,1.6,0.3c0.4,0.1,0.8,0.4,1.1,0.8
			s0.5,0.9,0.5,1.7c0,0.7-0.1,1.2-0.4,1.6s-0.7,0.8-1.3,1c-0.6,0.2-1.3,0.3-2.1,0.3C408.1,237.3,407.6,237.2,407.2,237.1z"/>
		<path fill="#44ACE2" d="M416.3,236.8c-0.6-0.3-1-0.8-1.3-1.4s-0.5-1.3-0.5-2.1v-1.5c0-0.8,0.2-1.5,0.5-2.1s0.8-1,1.3-1.3
			c0.6-0.3,1.3-0.5,2.1-0.5c0.5,0,0.9,0.1,1.3,0.2c0.4,0.1,0.8,0.3,1.1,0.5s0.6,0.5,0.8,0.8l-1.3,1.2c-0.3-0.3-0.6-0.5-0.9-0.7
			s-0.7-0.2-1.1-0.2c-0.7,0-1.2,0.2-1.6,0.6s-0.6,0.9-0.6,1.6v1.5c0,0.7,0.2,1.3,0.6,1.7c0.4,0.4,0.9,0.6,1.6,0.6
			c0.4,0,0.7-0.1,1.1-0.3s0.6-0.4,0.9-0.7l1.3,1.2c-0.2,0.3-0.5,0.6-0.8,0.8s-0.7,0.4-1.1,0.5s-0.9,0.2-1.3,0.2
			C417.6,237.3,416.9,237.1,416.3,236.8z"/>
		<path fill="#44ACE2" d="M423.7,224.4h1.8v1.8h-1.8V224.4z M423.7,228h1.8v9.1h-1.8V228z"/>
		<path fill="#44ACE2" d="M430,237.1c-0.5-0.1-0.9-0.3-1.3-0.5s-0.8-0.5-1.1-0.8l1.1-1.3c0.5,0.4,1,0.7,1.5,0.8s1,0.3,1.4,0.3
			c0.7,0,1.2-0.1,1.6-0.3s0.5-0.5,0.5-1c0-0.3-0.1-0.5-0.3-0.7s-0.4-0.2-0.7-0.3s-0.7-0.1-1.2-0.1c0,0-0.1,0-0.1,0s-0.1,0-0.1,0
			c0,0,0,0-0.1,0s0,0-0.1,0c-0.6,0-1.1-0.1-1.5-0.3s-0.8-0.4-1-0.7c-0.3-0.3-0.4-0.8-0.4-1.5s0.1-1.2,0.4-1.6s0.7-0.7,1.2-1
			s1.2-0.3,2-0.3c0.5,0,0.9,0,1.4,0.1c0.4,0.1,0.8,0.2,1.2,0.4s0.8,0.4,1.1,0.7l-1.1,1.3c-0.5-0.3-0.9-0.5-1.3-0.7
			c-0.4-0.1-0.9-0.2-1.3-0.2c-0.6,0-1.1,0.1-1.4,0.3s-0.5,0.5-0.5,0.9c0,0.2,0.1,0.4,0.3,0.6c0.2,0.1,0.4,0.2,0.7,0.2
			s0.6,0.1,1.1,0.1c0,0,0.1,0,0.1,0s0.1,0,0.1,0c0,0,0,0,0.1,0s0,0,0.1,0c0.6,0,1.2,0.1,1.6,0.3c0.4,0.1,0.8,0.4,1.1,0.8
			s0.5,0.9,0.5,1.7c0,0.7-0.1,1.2-0.4,1.6s-0.7,0.8-1.3,1c-0.6,0.2-1.3,0.3-2.1,0.3C430.9,237.3,430.4,237.2,430,237.1z"/>
		<path fill="#44ACE2" d="M439.3,237.1c-0.5-0.1-0.9-0.3-1.3-0.5s-0.8-0.5-1.1-0.8l1.1-1.3c0.5,0.4,1,0.7,1.5,0.8s1,0.3,1.4,0.3
			c0.7,0,1.2-0.1,1.6-0.3s0.5-0.5,0.5-1c0-0.3-0.1-0.5-0.3-0.7s-0.4-0.2-0.7-0.3s-0.7-0.1-1.2-0.1c0,0-0.1,0-0.1,0s-0.1,0-0.1,0
			c0,0,0,0-0.1,0s0,0-0.1,0c-0.6,0-1.1-0.1-1.5-0.3s-0.8-0.4-1-0.7c-0.3-0.3-0.4-0.8-0.4-1.5s0.1-1.2,0.4-1.6s0.7-0.7,1.2-1
			s1.2-0.3,2-0.3c0.5,0,0.9,0,1.4,0.1c0.4,0.1,0.8,0.2,1.2,0.4s0.8,0.4,1.1,0.7l-1.1,1.3c-0.5-0.3-0.9-0.5-1.3-0.7
			c-0.4-0.1-0.9-0.2-1.3-0.2c-0.6,0-1.1,0.1-1.4,0.3s-0.5,0.5-0.5,0.9c0,0.2,0.1,0.4,0.3,0.6c0.2,0.1,0.4,0.2,0.7,0.2
			s0.6,0.1,1.1,0.1c0,0,0.1,0,0.1,0s0.1,0,0.1,0c0,0,0,0,0.1,0s0,0,0.1,0c0.6,0,1.2,0.1,1.6,0.3c0.4,0.1,0.8,0.4,1.1,0.8
			s0.5,0.9,0.5,1.7c0,0.7-0.1,1.2-0.4,1.6s-0.7,0.8-1.3,1c-0.6,0.2-1.3,0.3-2.1,0.3C440.3,237.3,439.8,237.2,439.3,237.1z"/>
		<path fill="#44ACE2" d="M448.5,236.8c-0.6-0.3-1.1-0.8-1.4-1.4c-0.3-0.6-0.5-1.4-0.5-2.2v-1c0-0.9,0.2-1.7,0.5-2.3
			c0.3-0.6,0.7-1.1,1.3-1.5s1.3-0.5,2.1-0.5c0.8,0,1.4,0.2,2,0.6s1,0.9,1.2,1.7c0.3,0.7,0.4,1.6,0.4,2.6v0.6H448v-1.4h4.4
			c-0.1-0.7-0.2-1.3-0.6-1.7s-0.8-0.6-1.3-0.6c-0.7,0-1.2,0.2-1.6,0.7c-0.4,0.4-0.6,1.1-0.6,1.9v1.2c0,0.8,0.2,1.3,0.6,1.7
			s1,0.6,1.7,0.6c0.4,0,0.7-0.1,1.1-0.2s0.7-0.4,1-0.6l1.2,1.2c-0.5,0.4-1,0.8-1.5,1s-1.1,0.4-1.7,0.4
			C449.8,237.3,449.1,237.1,448.5,236.8z"/>
		<path fill="#44ACE2" d="M458.3,237.1c-0.5-0.1-0.9-0.3-1.3-0.5s-0.8-0.5-1.1-0.8l1.1-1.3c0.5,0.4,1,0.7,1.5,0.8s1,0.3,1.4,0.3
			c0.7,0,1.2-0.1,1.6-0.3s0.5-0.5,0.5-1c0-0.3-0.1-0.5-0.3-0.7s-0.4-0.2-0.7-0.3s-0.7-0.1-1.2-0.1c0,0-0.1,0-0.1,0s-0.1,0-0.1,0
			c0,0,0,0-0.1,0s0,0-0.1,0c-0.6,0-1.1-0.1-1.5-0.3s-0.8-0.4-1-0.7c-0.3-0.3-0.4-0.8-0.4-1.5s0.1-1.2,0.4-1.6s0.7-0.7,1.2-1
			s1.2-0.3,2-0.3c0.5,0,0.9,0,1.4,0.1c0.4,0.1,0.8,0.2,1.2,0.4s0.8,0.4,1.1,0.7l-1.1,1.3c-0.5-0.3-0.9-0.5-1.3-0.7
			c-0.4-0.1-0.9-0.2-1.3-0.2c-0.6,0-1.1,0.1-1.4,0.3s-0.5,0.5-0.5,0.9c0,0.2,0.1,0.4,0.3,0.6c0.2,0.1,0.4,0.2,0.7,0.2
			s0.6,0.1,1.1,0.1c0,0,0.1,0,0.1,0s0.1,0,0.1,0c0,0,0,0,0.1,0s0,0,0.1,0c0.6,0,1.2,0.1,1.6,0.3c0.4,0.1,0.8,0.4,1.1,0.8
			s0.5,0.9,0.5,1.7c0,0.7-0.1,1.2-0.4,1.6s-0.7,0.8-1.3,1c-0.6,0.2-1.3,0.3-2.1,0.3C459.3,237.3,458.8,237.2,458.3,237.1z"/>
	</g>
</g>
<path fill="none" stroke="#FF0000" stroke-width="3" stroke-linecap="round" stroke-linejoin="round" d="M247.5,247.5v10"/>
<path fill="none" stroke="#FF0000" stroke-width="3" stroke-linecap="round" stroke-linejoin="round" d="M242.5,252.5h10"/>
<text transform="matrix(1 0 0 1 252.833 246.9)" fill="#FFFFFF" font-family="Arial" font-weight="bold" font-size="12px">O</text>
<text transform="matrix(1 0 0 1 252.833 246.9)" fill="none" stroke="#FFFFFF" stroke-width="5" font-family="Arial" font-weight="bold" font-size="12px">O</text>
<text transform="matrix(1 0 0 1 252.833 246.9)" fill="#FF0000" font-family="Arial"  font-weight="bold" font-size="12px">O</text>
</svg>
