<?xml version="1.0" encoding="utf-8"?>
<svg version="1.1" id="Calque_1" xmlns="http://www.w3.org/2000/svg" xmlns:xlink="http://www.w3.org/1999/xlink" x="0px" y="0px"
	 viewBox="0 0 566.9 566.9" style="enable-background:new 0 0 566.9 566.9;" xml:space="preserve">
<style type="text/css">
	.st0{fill:none;stroke:#505050;stroke-width:2;stroke-linecap:round;stroke-linejoin:round;}
	.st1{fill:none;stroke:#505050;stroke-linecap:round;stroke-linejoin:round;}
	.st2{fill:none;stroke:#44ACE2;stroke-width:4;stroke-linecap:round;stroke-linejoin:round;}
	.st3{fill:none;stroke:#44ACE2;stroke-width:2;stroke-linecap:round;stroke-linejoin:round;}
	.st4{fill:none;stroke:#74BD83;stroke-width:4;stroke-linecap:round;stroke-linejoin:round;}
	.st5{fill:none;stroke:#74BD83;stroke-width:2;stroke-linecap:round;stroke-linejoin:round;}
	.st6{fill:#44ACE2;stroke:#44ACE2;stroke-width:4;stroke-linecap:round;stroke-linejoin:round;}
	.st7{fill:#74BD83;stroke:#74BD83;stroke-width:4;stroke-linecap:round;stroke-linejoin:round;}
	.st8{fill:none;stroke:#FF0000;stroke-width:6;stroke-linecap:round;stroke-linejoin:round;}
	.st9{fill:#FFFFFF;}
	.st10{font-family:'Arial-BoldMT';}
	.st11{font-size:24px;}
	.st12{fill:none;stroke:#FFFFFF;stroke-width:10;}
	.st13{fill:#FF0000;}
	.st14{font-family:'ArialMT';}
	.st15{fill:none;stroke:#000000;stroke-width:6;stroke-linecap:round;stroke-linejoin:round;}
	.st16{fill:none;stroke:#74BD83;stroke-width:2;}
	.st17{fill:none;stroke:#000000;stroke-width:6;stroke-linecap:round;stroke-linejoin:round;stroke-dasharray:13.1352,21.8918;}
	.st18{fill:none;stroke:#000000;stroke-width:6;stroke-linecap:round;stroke-linejoin:round;stroke-dasharray:10.7142,17.8572;}
	.st19{fill:none;stroke:#000000;stroke-width:6;stroke-linecap:round;stroke-linejoin:round;stroke-dasharray:10.6646,17.7744;}
	.st20{fill:none;stroke:#000000;stroke-width:6;stroke-linecap:round;stroke-linejoin:round;stroke-dasharray:10.7084,17.8472;}
	.st21{fill:none;stroke:#000000;stroke-width:6;stroke-linecap:round;stroke-linejoin:round;stroke-dasharray:13.1506,21.9178;}
	.st22{fill:none;stroke:#000000;stroke-width:6;stroke-linecap:round;stroke-linejoin:round;stroke-dasharray:13.1352,21.892;}
</style>
<path class="st0" d="M17.6,17.5v542"/>
<path class="st0" d="M104.6,17.5v542"/>
<path class="st0" d="M191.6,17.5v542"/>
<path class="st0" d="M278.6,17.5v542"/>
<path class="st0" d="M365.6,17.5v542"/>
<path class="st0" d="M452.6,17.5v542"/>
<path class="st0" d="M539.6,17.5v542"/>
<path class="st0" d="M7.6,549.5h542"/>
<path class="st0" d="M7.6,462.5h542"/>
<path class="st0" d="M7.6,375.5h542"/>
<path class="st0" d="M7.6,288.5h542"/>
<path class="st0" d="M7.6,201.5h542"/>
<path class="st0" d="M7.6,114.5h542"/>
<path class="st0" d="M7.6,27.5h542"/>
<path class="st1" d="M35,17.5v542"/>
<path class="st1" d="M52.4,17.5v542"/>
<path class="st1" d="M69.8,17.5v542"/>
<path class="st1" d="M87.2,17.5v542"/>
<path class="st1" d="M122,17.5v542"/>
<path class="st1" d="M139.4,17.5v542"/>
<path class="st1" d="M156.8,17.5v542"/>
<path class="st1" d="M174.2,17.5v542"/>
<path class="st1" d="M209,17.5v542"/>
<path class="st1" d="M226.4,17.5v542"/>
<path class="st1" d="M243.8,17.5v542"/>
<path class="st1" d="M261.2,17.5v542"/>
<path class="st1" d="M296,17.5v542"/>
<path class="st1" d="M313.4,17.5v542"/>
<path class="st1" d="M330.8,17.5v542"/>
<path class="st1" d="M348.2,17.5v542"/>
<path class="st1" d="M383,17.5v542"/>
<path class="st1" d="M400.4,17.5v542"/>
<path class="st1" d="M417.8,17.5v542"/>
<path class="st1" d="M435.2,17.5v542"/>
<path class="st1" d="M470,17.5v542"/>
<path class="st1" d="M487.4,17.5v542"/>
<path class="st1" d="M504.8,17.5v542"/>
<path class="st1" d="M522.2,17.5v542"/>
<path class="st1" d="M7.6,532.1h542"/>
<path class="st1" d="M7.6,514.7h542"/>
<path class="st1" d="M7.6,497.3h542"/>
<path class="st1" d="M7.6,479.9h542"/>
<path class="st1" d="M7.6,445.1h542"/>
<path class="st1" d="M7.6,427.7h542"/>
<path class="st1" d="M7.6,410.3h542"/>
<path class="st1" d="M7.6,392.9h542"/>
<path class="st1" d="M7.6,358.1h542"/>
<path class="st1" d="M7.6,340.7h542"/>
<path class="st1" d="M7.6,323.3h542"/>
<path class="st1" d="M7.6,305.9h542"/>
<path class="st1" d="M7.6,271.1h542"/>
<path class="st1" d="M7.6,253.7h542"/>
<path class="st1" d="M7.6,236.3h542"/>
<path class="st1" d="M7.6,218.9h542"/>
<path class="st1" d="M7.6,184.1h542"/>
<path class="st1" d="M7.6,166.7h542"/>
<path class="st1" d="M7.6,149.3h542"/>
<path class="st1" d="M7.6,131.9h542"/>
<path class="st1" d="M7.6,97.1h542"/>
<path class="st1" d="M7.6,79.7h542"/>
<path class="st1" d="M7.6,62.3h542"/>
<path class="st1" d="M7.6,44.9h542"/>
<path class="st2" d="M17.6,278.5v20"/>
<path class="st3" d="M35,283.5v10"/>
<path class="st3" d="M52.4,283.5v10"/>
<path class="st3" d="M69.8,283.5v10"/>
<path class="st3" d="M87.2,283.5v10"/>
<path class="st2" d="M104.6,278.5v20"/>
<path class="st3" d="M122,283.5v10"/>
<path class="st3" d="M139.4,283.5v10"/>
<path class="st3" d="M156.8,283.5v10"/>
<path class="st3" d="M174.2,283.5v10"/>
<path class="st2" d="M191.6,278.5v20"/>
<path class="st3" d="M209,283.5v10"/>
<path class="st3" d="M226.4,283.5v10"/>
<path class="st3" d="M243.8,283.5v10"/>
<path class="st3" d="M261.2,283.5v10"/>
<path class="st3" d="M296,283.5v10"/>
<path class="st3" d="M313.4,283.5v10"/>
<path class="st3" d="M330.8,283.5v10"/>
<path class="st3" d="M348.2,283.5v10"/>
<path class="st2" d="M365.6,278.5v20"/>
<path class="st3" d="M383,283.5v10"/>
<path class="st3" d="M400.4,283.5v10"/>
<path class="st3" d="M417.8,283.5v10"/>
<path class="st3" d="M435.2,283.5v10"/>
<path class="st2" d="M452.6,278.5v20"/>
<path class="st3" d="M470,283.5v10"/>
<path class="st3" d="M487.4,283.5v10"/>
<path class="st3" d="M504.8,283.5v10"/>
<path class="st3" d="M522.2,283.5v10"/>
<path class="st2" d="M539.6,278.5v20"/>
<path class="st4" d="M268.6,549.5h20"/>
<path class="st5" d="M273.6,532.1h10"/>
<path class="st5" d="M273.6,514.7h10"/>
<path class="st5" d="M273.6,497.3h10"/>
<path class="st5" d="M273.6,479.9h10"/>
<path class="st4" d="M268.6,462.5h20"/>
<path class="st5" d="M273.6,445.1h10"/>
<path class="st5" d="M273.6,427.7h10"/>
<path class="st5" d="M273.6,410.3h10"/>
<path class="st5" d="M273.6,392.9h10"/>
<path class="st4" d="M268.6,375.5h20"/>
<path class="st5" d="M273.6,358.1h10"/>
<path class="st5" d="M273.6,340.7h10"/>
<path class="st5" d="M273.6,323.3h10"/>
<path class="st5" d="M273.6,305.9h10"/>
<path class="st5" d="M273.6,271.1h10"/>
<path class="st5" d="M273.6,253.7h10"/>
<path class="st5" d="M273.6,236.3h10"/>
<path class="st5" d="M273.6,218.9h10"/>
<path class="st4" d="M268.6,201.5h20"/>
<path class="st5" d="M273.6,184.1h10"/>
<path class="st5" d="M273.6,166.7h10"/>
<path class="st5" d="M273.6,149.3h10"/>
<path class="st5" d="M273.6,131.9h10"/>
<path class="st4" d="M268.6,114.5h20"/>
<path class="st5" d="M273.6,97.1h10"/>
<path class="st5" d="M273.6,79.7h10"/>
<path class="st5" d="M273.6,62.3h10"/>
<path class="st5" d="M273.6,44.9h10"/>
<path class="st4" d="M268.6,27.5h20"/>
<path class="st2" d="M7.6,288.5h542"/>
<path class="st4" d="M278.6,559.5v-542"/>
<path class="st6" d="M549.6,288.5h2.4v5l7.6-5l-7.6-5v5H549.6z"/>
<path class="st7" d="M278.6,17.5v-2.4h5l-5-7.6l-5,7.6h5V17.5z"/>
<path class="st8" d="M278.6,278.5v20"/>
<path class="st8" d="M268.6,288.5h20"/>
<text transform="matrix(1 0 0 1 289.2986 277.2647)" class="st9 st10 st11">O</text>
<text transform="matrix(1 0 0 1 289.2986 277.2647)" class="st12 st10 st11">O</text>
<text transform="matrix(1 0 0 1 289.2986 277.2647)" class="st13 st14 st11">O</text>
<path class="st15" d="M452.6,191.5v20"/>
<path class="st15" d="M442.6,201.5h20"/>
<text transform="matrix(1 0 0 1 464.6286 190.2647)" class="st9 st10 st11">E</text>
<text transform="matrix(1 0 0 1 464.6286 190.2647)" class="st12 st10 st11">E</text>
<text transform="matrix(1 0 0 1 464.6286 190.2647)" class="st14 st11">E</text>
<path class="st15" d="M104.6,104.5v20"/>
<path class="st15" d="M94.6,114.5h20"/>
<text transform="matrix(1 0 0 1 77.302 103.2647)" class="st9 st10 st11">F</text>
<text transform="matrix(1 0 0 1 77.302 103.2647)" class="st12 st10 st11">F</text>
<text transform="matrix(1 0 0 1 77.302 103.2647)" class="st14 st11">F</text>
<path class="st15" d="M191.6,365.5v20"/>
<path class="st15" d="M181.6,375.5h20"/>
<text transform="matrix(1 0 0 1 162.2981 404.2647)" class="st9 st10 st11">G</text>
<text transform="matrix(1 0 0 1 162.2981 404.2647)" class="st12 st10 st11">G</text>
<text transform="matrix(1 0 0 1 162.2981 404.2647)" class="st14 st11">G</text>
<path class="st15" d="M278.6,452.5v20"/>
<path class="st15" d="M268.6,462.5h20"/>
<text transform="matrix(1 0 0 1 299.9665 471.2647)" class="st9 st10 st11">H</text>
<text transform="matrix(1 0 0 1 299.9665 471.2647)" class="st12 st10 st11">H</text>
<text transform="matrix(1 0 0 1 299.9665 471.2647)" class="st14 st11">H</text>
<text transform="matrix(1 0 0 1 6.9621 335.2647)" class="st9 st10 st11">-3</text>
<text transform="matrix(1 0 0 1 6.9621 335.2647)" class="st12 st10 st11">-3</text>
<text transform="matrix(1 0 0 1 6.9621 335.2647)" class="st14 st11">-3</text>
<text transform="matrix(1 0 0 1 93.9621 335.2647)" class="st9 st10 st11">-2</text>
<text transform="matrix(1 0 0 1 93.9621 335.2647)" class="st12 st10 st11">-2</text>
<text transform="matrix(1 0 0 1 93.9621 335.2647)" class="st14 st11">-2</text>
<text transform="matrix(1 0 0 1 358.9587 335.2647)" class="st9 st10 st11">1</text>
<text transform="matrix(1 0 0 1 358.9587 335.2647)" class="st12 st10 st11">1</text>
<text transform="matrix(1 0 0 1 358.9587 335.2647)" class="st14 st11">1</text>
<text transform="matrix(1 0 0 1 445.9587 335.2647)" class="st9 st10 st11">2</text>
<text transform="matrix(1 0 0 1 445.9587 335.2647)" class="st12 st10 st11">2</text>
<text transform="matrix(1 0 0 1 445.9587 335.2647)" class="st14 st11">2</text>
<text transform="matrix(1 0 0 1 532.9587 335.2647)" class="st9 st10 st11">3</text>
<text transform="matrix(1 0 0 1 532.9587 335.2647)" class="st12 st10 st11">3</text>
<text transform="matrix(1 0 0 1 532.9587 335.2647)" class="st14 st11">3</text>
<path class="st16" d="M268.6,549.5h20"/>
<text transform="matrix(1 0 0 1 233.9621 558.2647)" class="st9 st10 st11">-3</text>
<text transform="matrix(1 0 0 1 233.9621 558.2647)" class="st12 st10 st11">-3</text>
<text transform="matrix(1 0 0 1 233.9621 558.2647)" class="st14 st11">-3</text>
<text transform="matrix(1 0 0 1 233.9621 471.2647)" class="st9 st10 st11">-2</text>
<text transform="matrix(1 0 0 1 233.9621 471.2647)" class="st12 st10 st11">-2</text>
<text transform="matrix(1 0 0 1 233.9621 471.2647)" class="st14 st11">-2</text>
<path class="st16" d="M268.6,375.5h20"/>
<path class="st16" d="M268.6,201.5h20"/>
<text transform="matrix(1 0 0 1 237.9582 210.2647)" class="st9 st10 st11">1</text>
<text transform="matrix(1 0 0 1 237.9582 210.2647)" class="st12 st10 st11">1</text>
<text transform="matrix(1 0 0 1 237.9582 210.2647)" class="st14 st11">1</text>
<path class="st16" d="M268.6,114.5h20"/>
<text transform="matrix(1 0 0 1 237.9582 123.2647)" class="st9 st10 st11">2</text>
<text transform="matrix(1 0 0 1 237.9582 123.2647)" class="st12 st10 st11">2</text>
<text transform="matrix(1 0 0 1 237.9582 123.2647)" class="st14 st11">2</text>
<path class="st16" d="M268.6,27.5h20"/>
<text transform="matrix(1 0 0 1 237.9582 36.2647)" class="st9 st10 st11">3</text>
<text transform="matrix(1 0 0 1 237.9582 36.2647)" class="st12 st10 st11">3</text>
<text transform="matrix(1 0 0 1 237.9582 36.2647)" class="st14 st11">3</text>
<g>
	<g>
		<line class="st15" x1="278.6" y1="201.5" x2="284.6" y2="201.5"/>
		<line class="st17" x1="306.4" y1="201.5" x2="435.6" y2="201.5"/>
		<line class="st15" x1="446.6" y1="201.5" x2="452.6" y2="201.5"/>
	</g>
</g>
<g>
	<g>
		<line class="st15" x1="452.6" y1="201.5" x2="452.6" y2="207.5"/>
		<line class="st18" x1="452.6" y1="225.3" x2="452.6" y2="273.5"/>
		<line class="st15" x1="452.6" y1="282.5" x2="452.6" y2="288.5"/>
	</g>
</g>
<g>
	<g>
		<line class="st15" x1="191.6" y1="288.5" x2="191.6" y2="294.5"/>
		<line class="st19" x1="191.6" y1="312.3" x2="191.6" y2="360.3"/>
		<line class="st15" x1="191.6" y1="369.1" x2="191.6" y2="375.1"/>
	</g>
</g>
<g>
	<g>
		<line class="st15" x1="191.6" y1="375.1" x2="197.6" y2="375.1"/>
		<line class="st20" x1="215.4" y1="375.3" x2="263.6" y2="375.5"/>
		<line class="st15" x1="272.6" y1="375.5" x2="278.6" y2="375.5"/>
	</g>
</g>
<g>
	<g>
		<line class="st15" x1="278.8" y1="114.5" x2="272.8" y2="114.5"/>
		<line class="st21" x1="250.8" y1="114.5" x2="121.6" y2="114.5"/>
		<line class="st15" x1="110.6" y1="114.5" x2="104.6" y2="114.5"/>
	</g>
</g>
<g>
	<g>
		<line class="st15" x1="104.6" y1="114.5" x2="104.6" y2="120.5"/>
		<line class="st22" x1="104.6" y1="142.3" x2="104.8" y2="271.5"/>
		<line class="st15" x1="104.8" y1="282.5" x2="104.8" y2="288.5"/>
	</g>
</g>
</svg>
