<svg xmlns="http://www.w3.org/2000/svg" xmlns:xlink="http://www.w3.org/1999/xlink"viewBox="0 0 27 33" xml:space="preserve">
<path fill="#B3B3B3" d="M3.5,0C1.6,0,0.1,1.5,0.1,3.4v26.2c0,1.9,1.5,3.4,3.4,3.4h20c1.9,0,3.4-1.5,3.4-3.4V8.1c0-0.4-0.1-0.9-0.2-1.2c-0.2-0.4-0.4-0.7-0.7-1l0,0L21,1l0,0c-0.3-0.3-0.7-0.5-1.1-0.7S19,0,18.5,0H3.5L3.5,0z"/>
<path fill="#F5F5F5" d="M3.5,1.1h15c0.4,0,0.7,0.1,1,0.2s0.5,0.3,0.7,0.5l0,0l5,4.9c0.2,0.2,0.3,0.4,0.4,0.6s0.1,0.5,0.1,0.7l0,0v21.6c0,1.3-1,2.3-2.3,2.3l0,0h-20c-1.3,0-2.3-1-2.3-2.3l0,0V3.4C1.2,2.2,2.2,1.1,3.5,1.1L3.5,1.1z"/>
<path fill="#B3B3B3" d="M18.7,13.8V16H8.3v-2.2h-2V18h14.4v-4.2H18.7z M13.5,15l4-6.9h-2V4.9h-4v3.2h-2L13.5,15z"/>
<polygon fill="#2C2C2C" points="15.9,25.4 15.4,24.3 13.5,25.1 13.6,23 12.4,23 12.5,25.1 10.6,24.3 10.2,25.4 12.2,26 10.7,27.6 11.7,28.4 13,26.5 14.3,28.4 15.3,27.6 13.8,26 "/>
</svg>