<svg version="1.1" id="Calque_1" xmlns="http://www.w3.org/2000/svg" xmlns:xlink="http://www.w3.org/1999/xlink" viewBox="0 0 27 33">
<path style="fill:#74BD83;" d="M3.5,0C1.6,0,0.1,1.5,0.1,3.4v26.2c0,1.9,1.5,3.4,3.4,3.4h20c1.9,0,3.4-1.5,3.4-3.4V8.1c0-0.4-0.1-0.9-0.2-1.2 c-0.2-0.4-0.4-0.7-0.7-1l0,0L21,1l0,0c-0.3-0.3-0.7-0.5-1.1-0.7C19.5,0.1,19,0,18.5,0H3.5L3.5,0z"/>
<path style="fill:#F5F5F5;" d="M3.5,1.1h15c0.4,0,0.7,0.1,1,0.2s0.5,0.3,0.7,0.5l0,0l5,4.9c0.2,0.2,0.3,0.4,0.4,0.6s0.1,0.5,0.1,0.7l0,0v21.6 c0,1.3-1,2.3-2.3,2.3l0,0h-20c-1.3,0-2.3-1-2.3-2.3l0,0V3.4C1.2,2.2,2.2,1.1,3.5,1.1L3.5,1.1z"/>
<path style="fill:#74BD83;" d="M18.7,13.8V16H8.3v-2.2h-2V18h14.4v-4.2H18.7z M13.5,15l4-6.9h-2V4.9h-4v3.2h-2L13.5,15z"/>
<path style="fill:#2C2C2C;" d="M11.8,23h1.3c1.3,0,1.8,0.9,1.8,2.5c0,1.8-0.5,2.7-1.9,2.7h-1.2V23z M12.7,27.6h0.4c0.8,0,1.1-0.6,1.1-2 c0-1.3-0.3-1.8-1.1-1.8h-0.4V27.6z"/>
<path style="fill:#2C2C2C;" d="M11.2,25.6c0,1.9-0.5,2.7-1.7,2.7c-1.1,0-1.6-0.9-1.6-2.7c0-1.8,0.6-2.6,1.7-2.6S11.2,23.8,11.2,25.6z M8.8,25.6c0,1.3,0.2,2.1,0.8,2.1s0.8-0.7,0.8-2.1c0-1.3-0.2-1.9-0.8-1.9S8.8,24.3,8.8,25.6z"/>
<path style="fill:#2C2C2C;" d="M15.4,23.7V23h3.5v0.7H15.4z M16.8,28.3V23h0.7v5.3H16.8z"/>
</svg>
