<svg xmlns="http://www.w3.org/2000/svg" xmlns:xlink="http://www.w3.org/1999/xlink" viewBox="0 0 26.8 33" width="27" height="33">
<path fill="#4C9D71" d="M3.4,0C1.5,0,0,1.5,0,3.4v26.2C0,31.5,1.5,33,3.4,33h20c1.9,0,3.4-1.5,3.4-3.4V8.1c0-0.4-0.1-0.9-0.2-1.2c-0.2-0.4-0.4-0.7-0.7-1l0,0l-5-4.9l0,0c-0.3-0.3-0.7-0.5-1.1-0.7S18.9,0,18.4,0C18.4,0,3.4,0,3.4,0z"/>
<path fill="#F5F5F5" d="M3.4,1.1h15c0.4,0,0.7,0.1,1,0.2s0.5,0.3,0.7,0.5l0,0l5,4.9c0.2,0.2,0.3,0.4,0.4,0.6s0.1,0.5,0.1,0.7l0,0v21.6c0,1.3-1,2.3-2.3,2.3h-20c-1.3,0-2.3-1-2.3-2.3l0,0V3.4C1.1,2.2,2.1,1.1,3.4,1.1C3.4,1.1,3.4,1.1,3.4,1.1z"/>
<path fill="#4C9D71" d="M18.6,13.8V16H8.2v-2.2h-2V18h14.4v-4.2H18.6z M13.4,15l4-6.9h-2V4.9h-4v3.2h-2C9.4,8.1,13.4,15,13.4,15z"/>
<polygon fill="#2D2D2D" points="9,23 8,23 7.1,24.9 6.1,23 5.1,23 6.6,25.7 5.1,28.4 6.1,28.4 7.1,26.6 8,28.4 9,28.4 7.5,25.7 	"/>
<polygon fill="#2D2D2D" points="10.3,23 9.4,23 9.4,28.4 12.7,28.4 12.7,27.5 10.3,27.5 	"/>
<path fill="#2D2D2D" d="M14.9,23.8c0.2,0,0.3,0,0.5,0.1c0.2,0.1,0.3,0.2,0.5,0.4l0.1,0.1l0.6-0.7l-0.1-0.1c-0.2-0.2-0.5-0.4-0.7-0.5c-0.3-0.1-0.5-0.2-0.9-0.2c-0.5,0-0.8,0.1-1.1,0.4c-0.3,0.3-0.4,0.6-0.4,1.1c0,0.4,0.1,0.7,0.3,0.9c0.2,0.2,0.4,0.4,0.8,0.6l0.8,0.4c0.2,0.1,0.4,0.3,0.4,0.6c0,0.2-0.1,0.4-0.2,0.5c-0.1,0.1-0.3,0.2-0.6,0.2c-0.2,0-0.4,0-0.6-0.1c-0.2-0.1-0.4-0.1-0.7-0.3l-0.1-0.1l-0.1,0.9l0.1,0c0.2,0.1,0.4,0.2,0.7,0.2c0.2,0,0.5,0.1,0.8,0.1c0.6,0,1-0.1,1.3-0.4c0.3-0.3,0.4-0.6,0.4-1.1c0-0.4-0.1-0.7-0.3-0.9c-0.2-0.2-0.5-0.5-0.8-0.6L14.7,25c-0.1-0.1-0.3-0.2-0.3-0.3c-0.1-0.1-0.1-0.2-0.1-0.4c0-0.2,0.1-0.4,0.2-0.5C14.6,23.9,14.7,23.8,14.9,23.8z"/>
<polygon fill="#2D2D2D" points="19.3,25.7 20.8,23 19.8,23 18.8,24.9 17.9,23 16.9,23 18.4,25.7 16.9,28.4 17.9,28.4 18.8,26.6 19.7,28.3 19.8,28.4 20.8,28.4 	"/>
</svg>
