<?xml version="1.0" encoding="UTF-8"?>
<svg id="Calque_1" data-name="Calque 1" xmlns="http://www.w3.org/2000/svg" viewBox="0 0 219.23 279.1">
  <defs>
    <style>
      .cls-1 {
        fill: #1d1d1b;
        font-family: Bahnschrift, Bahnschrift;
        font-size: 30px;
        font-variation-settings: 'wght' 400, 'wdth' 100;
      }

      .cls-2 {
        stroke: #1d1d1b;
      }

      .cls-2, .cls-3, .cls-4 {
        fill: none;
        stroke-miterlimit: 10;
      }

      .cls-2, .cls-4 {
        stroke-width: 3px;
      }

      .cls-3 {
        stroke: #312783;
        stroke-width: 2px;
      }

      .cls-3, .cls-4 {
        stroke-linecap: round;
      }

      .cls-4 {
        stroke: #3aaa35;
      }

      .cls-5 {
        fill: #36a9e1;
        stroke-width: 0px;
      }
    </style>
  </defs>
  <path class="cls-5" d="m59.71,244.14c0-14.12-8.79-26.18-21.19-31.02l-12.1,31.02h33.29Z"/>
  <path class="cls-5" d="m159.35,244.14c0-14.12,8.79-26.18,21.19-31.02l12.1,31.02h-33.29Z"/>
  <polygon class="cls-2" points="26.42 244.14 109.58 30.8 192.75 244.14 26.42 244.14"/>
  <text class="cls-1" transform="translate(99.67 25.65)"><tspan x="0" y="0">A</tspan></text>
  <text class="cls-1" transform="translate(0 270.98)"><tspan x="0" y="0">B</tspan></text>
  <text class="cls-1" transform="translate(200.67 270.98)"><tspan x="0" y="0">C</tspan></text>
  <line class="cls-4" x1="59.71" y1="124.61" x2="75.71" y2="150.33"/>
  <line class="cls-4" x1="158.52" y1="124.61" x2="142.52" y2="150.33"/>
  <line class="cls-3" x1="168.46" y1="230.83" x2="158.64" y2="223.87"/>
  <line class="cls-3" x1="162.13" y1="218.95" x2="171.95" y2="225.91"/>
  <line class="cls-3" x1="60.94" y1="225.63" x2="50.43" y2="231.49"/>
  <line class="cls-3" x1="47.49" y1="226.23" x2="58" y2="220.36"/>
</svg>