<?xml version="1.0" encoding="utf-8"?>
<!-- Generator: Adobe Illustrator 28.0.0, SVG Export Plug-In . SVG Version: 6.00 Build 0)  -->
<svg version="1.1" id="Calque_1" xmlns="http://www.w3.org/2000/svg" xmlns:xlink="http://www.w3.org/1999/xlink" x="0px" y="0px"
	 viewBox="0 0 228.6 147.6" style="enable-background:new 0 0 228.6 147.6;" xml:space="preserve">
<style type="text/css">
	.st0{fill:none;stroke:#000000;stroke-width:3;stroke-linecap:round;stroke-miterlimit:10;}
	.st1{fill:none;stroke:#1D1E1B;stroke-width:3;stroke-linecap:round;stroke-miterlimit:10;}
</style>
<g>
	<path class="st0" d="M228.6,61.5"/>
	<path class="st0" d="M21.3,147.6"/>
	<g>
		<line class="st1" x1="1.5" y1="70.4" x2="226.2" y2="1.5"/>
		<line class="st1" x1="19.6" y1="57.9" x2="24.5" y2="70.7"/>
		<line class="st1" x1="95.6" y1="34.5" x2="100.7" y2="46.8"/>
		<g>
			<g>
				<path d="M27.2,73.9h2.1l6.5,17.7h-2.7l-4.9-14.3l-4.9,14.3h-2.7L27.2,73.9z M23.7,85.4h9.3v2.4h-9.3V85.4z"/>
			</g>
		</g>
		<g>
			<g>
				<path d="M101.7,51h2.5v17.7h-2.5V51z M103.1,66.4h4.8c1.3,0,2.2-0.2,2.8-0.7s0.9-1.2,0.9-2v0c0-0.6-0.1-1.1-0.3-1.5
					c-0.2-0.4-0.5-0.8-1-1c-0.4-0.2-1-0.3-1.7-0.3h-5.4v-2.2h5.4c0.9,0,1.6-0.2,2.1-0.6c0.5-0.4,0.7-1.1,0.7-1.9
					c0-0.9-0.3-1.6-0.8-2s-1.3-0.7-2.3-0.7h-5.1V51h5.5c1.1,0,2.1,0.2,2.9,0.6c0.8,0.4,1.4,0.9,1.7,1.7c0.4,0.7,0.6,1.6,0.6,2.6
					c0,0.6-0.1,1.2-0.4,1.7c-0.2,0.5-0.6,1-1.1,1.4c-0.5,0.4-1.1,0.6-1.8,0.8c0.7,0.1,1.3,0.4,1.9,0.8c0.5,0.4,0.9,0.9,1.2,1.5
					c0.3,0.6,0.4,1.3,0.4,2v0c0,1-0.2,1.8-0.6,2.5c-0.4,0.7-1,1.3-1.8,1.7c-0.8,0.4-1.7,0.6-2.8,0.6h-5.7V66.4z"/>
			</g>
		</g>
	</g>
	<line class="st1" x1="177.2" y1="8.6" x2="182.3" y2="20.9"/>
	<g>
		<g>
			<path d="M186.2,42.2c-0.9-0.5-1.7-1.3-2.2-2.3c-0.5-1-0.8-2.2-0.8-3.5v-4.9c0-1.3,0.3-2.5,0.8-3.5c0.5-1,1.2-1.8,2.2-2.3
				c0.9-0.5,2-0.8,3.2-0.8c1,0,2,0.2,2.8,0.7c0.9,0.4,1.6,1.1,2.1,1.8c0.6,0.8,1,1.7,1.2,2.8H193c-0.2-0.6-0.4-1-0.8-1.5
				s-0.8-0.8-1.3-1s-1-0.4-1.5-0.4c-0.7,0-1.4,0.2-1.9,0.5s-1,0.8-1.3,1.5s-0.5,1.4-0.5,2.2v4.9c0,0.8,0.2,1.6,0.5,2.2
				s0.7,1.1,1.3,1.5s1.2,0.5,1.9,0.5c0.5,0,1-0.1,1.5-0.3s0.9-0.5,1.3-1s0.6-0.9,0.8-1.5h2.6c-0.2,1-0.6,2-1.2,2.8
				c-0.6,0.8-1.3,1.4-2.1,1.8c-0.9,0.4-1.8,0.7-2.8,0.7C188.2,43,187.1,42.8,186.2,42.2z"/>
		</g>
	</g>
	<line class="st0" x1="129.6" y1="102.7" x2="140" y2="113.1"/>
	<line class="st0" x1="140" y1="102.7" x2="129.6" y2="113.1"/>
	<g>
		<g>
			<path d="M110.2,114.9h2.5v17.7h-2.5V114.9z M111.9,130.3h4c1.3,0,2.3-0.3,3-1c0.7-0.7,1.1-1.6,1.1-2.9v-5.2
				c0-1.2-0.4-2.2-1.1-2.9c-0.7-0.7-1.7-1-3-1h-4v-2.4h3.9c1.4,0,2.6,0.2,3.6,0.7c1,0.5,1.8,1.2,2.3,2.2c0.5,1,0.8,2.1,0.8,3.4v5
				c0,1.3-0.3,2.5-0.8,3.4c-0.5,1-1.3,1.7-2.3,2.2c-1,0.5-2.2,0.7-3.7,0.7h-3.9V130.3z"/>
		</g>
	</g>
</g>
</svg>
