<svg xmlns="http://www.w3.org/2000/svg" version="1.1" xmlns:xlink="http://www.w3.org/1999/xlink" xmlns:svgjs="http://svgjs.com/svgjs" width="381" height="381" viewBox="0 0 381 381"><polygon points="190.5,227.60000305175782 222.62954248040268,209.0500030517578 222.62954248040268,246.1500030517578 190.5,264.7000030517578" stroke="none" fill="red"></polygon><polygon points="158.37046813964844,209.0500030517578 190.5000106200511,227.60000305175782 190.5000106200511,264.7000030517578 158.37046813964844,246.1500030517578" stroke="none" fill="blue"></polygon><polygon points="158.37046813964844,209.05 190.5000106200511,227.6 222.6295531004538,209.05 190.5000106200511,190.5" stroke="none" fill="yellow"></polygon><polygon points="222.62954711914062,246.15000610351564 254.7590895995433,227.60000610351562 254.7590895995433,264.70000610351565 222.62954711914062,283.2500061035156" stroke="none" fill="red"></polygon><polygon points="190.5,227.60000610351562 222.62954248040268,246.15000610351564 222.62954248040268,283.2500061035156 190.5,264.70000610351565" stroke="none" fill="blue"></polygon><polygon points="190.5,227.60000305175782 222.62954248040268,246.1500030517578 254.75908496080535,227.60000305175782 222.62954248040268,209.0500030517578" stroke="none" fill="yellow"></polygon><polygon points="254.75909423828125,264.6999938964844 286.888636718684,246.14999389648438 286.888636718684,283.2499938964844 254.75909423828125,301.79999389648435" stroke="none" fill="red"></polygon><polygon points="222.62954711914062,246.14999389648438 254.7590895995433,264.6999938964844 254.7590895995433,301.79999389648435 222.62954711914062,283.2499938964844" stroke="none" fill="blue"></polygon><polygon points="222.62954711914062,246.15000610351564 254.7590895995433,264.70000610351565 286.888632079946,246.15000610351564 254.7590895995433,227.60000610351562" stroke="none" fill="yellow"></polygon><polygon points="286.8886413574219,283.25001220703126 319.01818383782455,264.70001220703125 319.01818383782455,301.8000122070313 286.8886413574219,320.3500122070313" stroke="none" fill="red"></polygon><polygon points="254.75909423828125,264.70001220703125 286.88863671868387,283.25001220703126 286.88863671868387,320.3500122070313 254.75909423828125,301.8000122070313" stroke="none" fill="blue"></polygon><polygon points="254.75909423828125,264.69999389648433 286.88863671868387,283.2499938964844 319.0181791990866,264.69999389648433 286.88863671868387,246.14999389648438" stroke="none" fill="yellow"></polygon><line x1="319.0181884765625" y1="301.8000122070313" x2="319.0181884765625" y2="264.70001220703125" stroke="black" stroke-width="3" stroke-linecap="round" stroke-linejoin="round"></line><line x1="319.01818383782455" y1="301.79998779296875" x2="286.8886413574219" y2="320.34998779296876" stroke="black" stroke-width="3" stroke-linecap="round" stroke-linejoin="round"></line><polygon points="190.5,190.4999969482422 222.62954248040268,171.9499969482422 222.62954248040268,209.04999694824218 190.5,227.5999969482422" stroke="none" fill="red"></polygon><polygon points="158.37046813964844,171.9499969482422 190.5000106200511,190.4999969482422 190.5000106200511,227.5999969482422 158.37046813964844,209.04999694824218" stroke="none" fill="blue"></polygon><polygon points="158.37046813964844,171.9499938964844 190.5000106200511,190.49999389648437 222.6295531004538,171.9499938964844 190.5000106200511,153.39999389648438" stroke="none" fill="yellow"></polygon><polygon points="222.62954711914062,209.05 254.7590895995433,190.5 254.7590895995433,227.6 222.62954711914062,246.15" stroke="none" fill="red"></polygon><polygon points="190.5,190.5 222.62954248040268,209.05 222.62954248040268,246.15 190.5,227.6" stroke="none" fill="blue"></polygon><polygon points="190.5,190.4999969482422 222.62954248040268,209.04999694824218 254.75908496080535,190.4999969482422 222.62954248040268,171.9499969482422" stroke="none" fill="yellow"></polygon><polygon points="254.75909423828125,227.60000305175782 286.888636718684,209.0500030517578 286.888636718684,246.1500030517578 254.75909423828125,264.70000305175785" stroke="none" fill="red"></polygon><polygon points="222.62954711914062,209.0500030517578 254.7590895995433,227.60000305175782 254.7590895995433,264.70000305175785 222.62954711914062,246.1500030517578" stroke="none" fill="blue"></polygon><polygon points="222.62954711914062,209.05 254.7590895995433,227.6 286.888632079946,209.05 254.7590895995433,190.5" stroke="none" fill="yellow"></polygon><line x1="286.8886413574219" y1="246.1500030517578" x2="286.8886413574219" y2="209.0500030517578" stroke="black" stroke-width="3" stroke-linecap="round" stroke-linejoin="round"></line><line x1="286.8886413574219" y1="246.14999389648438" x2="319.01818383782455" y2="264.69999389648433" stroke="black" stroke-width="3" stroke-linecap="round" stroke-linejoin="round"></line><line x1="286.88863671868387" y1="246.14999389648438" x2="254.75909423828125" y2="264.69999389648433" stroke="black" stroke-width="3" stroke-linecap="round" stroke-linejoin="round"></line><line x1="319.01818383782455" y1="264.70001220703125" x2="286.8886413574219" y2="283.25001220703126" stroke="black" stroke-width="3" stroke-linecap="round" stroke-linejoin="round"></line><polygon points="190.5,153.40000610351564 222.62954248040268,134.85000610351562 222.62954248040268,171.95000610351562 190.5,190.50000610351563" stroke="none" fill="red"></polygon><polygon points="158.37046813964844,134.85000610351562 190.5000106200511,153.40000610351564 190.5000106200511,190.50000610351563 158.37046813964844,171.95000610351562" stroke="none" fill="blue"></polygon><polygon points="158.37046813964844,134.85000305175782 190.5000106200511,153.4000030517578 222.6295531004538,134.85000305175782 190.5000106200511,116.30000305175781" stroke="none" fill="yellow"></polygon><line x1="222.62954711914062" y1="171.95000610351562" x2="222.62954711914062" y2="134.85000610351562" stroke="black" stroke-width="3" stroke-linecap="round" stroke-linejoin="round"></line><line x1="222.62954711914062" y1="171.9499969482422" x2="254.7590895995433" y2="190.4999969482422" stroke="black" stroke-width="3" stroke-linecap="round" stroke-linejoin="round"></line><line x1="222.62954248040268" y1="171.9499969482422" x2="190.5" y2="190.4999969482422" stroke="black" stroke-width="3" stroke-linecap="round" stroke-linejoin="round"></line><polygon points="254.75909423828125,190.4999969482422 286.888636718684,171.9499969482422 286.888636718684,209.04999694824218 254.75909423828125,227.5999969482422" stroke="none" fill="red"></polygon><polygon points="222.62954711914062,171.9499969482422 254.7590895995433,190.4999969482422 254.7590895995433,227.5999969482422 222.62954711914062,209.04999694824218" stroke="none" fill="blue"></polygon><polygon points="222.62954711914062,171.9499938964844 254.7590895995433,190.49999389648437 286.888632079946,171.9499938964844 254.7590895995433,153.39999389648438" stroke="none" fill="yellow"></polygon><line x1="286.8886413574219" y1="209.04999694824218" x2="286.8886413574219" y2="171.9499969482422" stroke="black" stroke-width="3" stroke-linecap="round" stroke-linejoin="round"></line><polygon points="190.5,116.3 222.62954248040268,97.75 222.62954248040268,134.85000000000002 190.5,153.39999999999998" stroke="none" fill="red"></polygon><polygon points="158.37046813964844,97.75 190.5000106200511,116.3 190.5000106200511,153.39999999999998 158.37046813964844,134.85000000000002" stroke="none" fill="blue"></polygon><polygon points="158.37046813964844,97.74999694824218 190.5000106200511,116.29999694824218 222.6295531004538,97.74999694824218 190.5000106200511,79.19999694824219" stroke="none" fill="yellow"></polygon><line x1="222.62954711914062" y1="134.85" x2="222.62954711914062" y2="97.75" stroke="black" stroke-width="3" stroke-linecap="round" stroke-linejoin="round"></line><polygon points="254.75909423828125,153.40000610351564 286.888636718684,134.85000610351562 286.888636718684,171.95000610351562 254.75909423828125,190.50000610351563" stroke="none" fill="red"></polygon><polygon points="222.62954711914062,134.85000610351562 254.7590895995433,153.40000610351564 254.7590895995433,190.50000610351563 222.62954711914062,171.95000610351562" stroke="none" fill="blue"></polygon><polygon points="222.62954711914062,134.85000305175782 254.7590895995433,153.4000030517578 286.888632079946,134.85000305175782 254.7590895995433,116.30000305175781" stroke="none" fill="yellow"></polygon><line x1="286.8886413574219" y1="171.95000610351562" x2="286.8886413574219" y2="134.85000610351562" stroke="black" stroke-width="3" stroke-linecap="round" stroke-linejoin="round"></line><polygon points="190.5,79.2000015258789 222.62954248040268,60.650001525878906 222.62954248040268,97.75000152587891 190.5,116.30000152587891" stroke="none" fill="red"></polygon><polygon points="158.37046813964844,60.650001525878906 190.5000106200511,79.2000015258789 190.5000106200511,116.30000152587891 158.37046813964844,97.75000152587891" stroke="none" fill="blue"></polygon><polygon points="158.37046813964844,60.6499984741211 190.5000106200511,79.19999847412109 222.6295531004538,60.6499984741211 190.5000106200511,42.099998474121094" stroke="none" fill="yellow"></polygon><line x1="222.62954711914062" y1="97.7500015258789" x2="222.62954711914062" y2="60.650001525878906" stroke="black" stroke-width="3" stroke-linecap="round" stroke-linejoin="round"></line><line x1="254.75909423828125" y1="116.30000305175781" x2="286.888636718684" y2="134.85000305175782" stroke="black" stroke-width="3" stroke-linecap="round" stroke-linejoin="round"></line><line x1="254.7590895995433" y1="116.30000305175781" x2="222.62954711914062" y2="134.85000305175782" stroke="black" stroke-width="3" stroke-linecap="round" stroke-linejoin="round"></line><line x1="286.88863671868387" y1="134.85000610351562" x2="254.75909423828125" y2="153.40000610351564" stroke="black" stroke-width="3" stroke-linecap="round" stroke-linejoin="round"></line><line x1="190.5" y1="42.099998474121094" x2="222.62954248040268" y2="60.6499984741211" stroke="black" stroke-width="3" stroke-linecap="round" stroke-linejoin="round"></line><line x1="190.5000106200511" y1="42.099998474121094" x2="158.37046813964844" y2="60.6499984741211" stroke="black" stroke-width="3" stroke-linecap="round" stroke-linejoin="round"></line><line x1="222.62954248040268" y1="60.650001525878906" x2="190.5" y2="79.20000152587892" stroke="black" stroke-width="3" stroke-linecap="round" stroke-linejoin="round"></line><polygon points="158.37046813964844,246.15000610351564 190.5000106200511,227.60000610351562 190.5000106200511,264.70000610351565 158.37046813964844,283.2500061035156" stroke="none" fill="red"></polygon><polygon points="126.24091339111328,227.60000610351562 158.37045587151596,246.15000610351564 158.37045587151596,283.2500061035156 126.24091339111328,264.70000610351565" stroke="none" fill="blue"></polygon><polygon points="126.24091339111328,227.60000305175782 158.37045587151596,246.1500030517578 190.49999835191863,227.60000305175782 158.37045587151596,209.0500030517578" stroke="none" fill="yellow"></polygon><line x1="190.5" y1="264.70000610351565" x2="190.5" y2="227.60000610351562" stroke="black" stroke-width="3" stroke-linecap="round" stroke-linejoin="round"></line><line x1="190.5" y1="264.70001220703125" x2="222.62954248040268" y2="283.25001220703126" stroke="black" stroke-width="3" stroke-linecap="round" stroke-linejoin="round"></line><line x1="190.5000106200511" y1="264.70001220703125" x2="158.37046813964844" y2="283.25001220703126" stroke="black" stroke-width="3" stroke-linecap="round" stroke-linejoin="round"></line><line x1="222.62954711914062" y1="283.25" x2="254.7590895995433" y2="301.8" stroke="black" stroke-width="3" stroke-linecap="round" stroke-linejoin="round"></line><line x1="254.75909423828125" y1="301.79998779296875" x2="286.888636718684" y2="320.34998779296876" stroke="black" stroke-width="3" stroke-linecap="round" stroke-linejoin="round"></line><line x1="286.8886413574219" y1="320.35" x2="286.8886413574219" y2="283.25" stroke="black" stroke-width="3" stroke-linecap="round" stroke-linejoin="round"></line><line x1="158.37046813964844" y1="209.04999694824218" x2="158.37046813964844" y2="171.9499969482422" stroke="black" stroke-width="3" stroke-linecap="round" stroke-linejoin="round"></line><line x1="158.37046813964844" y1="209.0500030517578" x2="190.5000106200511" y2="227.60000305175782" stroke="black" stroke-width="3" stroke-linecap="round" stroke-linejoin="round"></line><line x1="158.37045587151596" y1="209.0500030517578" x2="126.24091339111328" y2="227.60000305175782" stroke="black" stroke-width="3" stroke-linecap="round" stroke-linejoin="round"></line><line x1="190.5000106200511" y1="227.60000610351562" x2="158.37046813964844" y2="246.15000610351564" stroke="black" stroke-width="3" stroke-linecap="round" stroke-linejoin="round"></line><line x1="254.75909423828125" y1="264.70000610351565" x2="254.75909423828125" y2="227.60000610351562" stroke="black" stroke-width="3" stroke-linecap="round" stroke-linejoin="round"></line><line x1="254.75909423828125" y1="264.70001220703125" x2="286.888636718684" y2="283.25001220703126" stroke="black" stroke-width="3" stroke-linecap="round" stroke-linejoin="round"></line><line x1="158.37046813964844" y1="171.95000610351562" x2="158.37046813964844" y2="134.85000610351562" stroke="black" stroke-width="3" stroke-linecap="round" stroke-linejoin="round"></line><line x1="190.5" y1="190.49999389648437" x2="190.5" y2="153.39999389648438" stroke="black" stroke-width="3" stroke-linecap="round" stroke-linejoin="round"></line><line x1="190.5" y1="190.5" x2="222.62954248040268" y2="209.05" stroke="black" stroke-width="3" stroke-linecap="round" stroke-linejoin="round"></line><line x1="222.62954711914062" y1="209.04999694824218" x2="222.62954711914062" y2="171.9499969482422" stroke="black" stroke-width="3" stroke-linecap="round" stroke-linejoin="round"></line><line x1="254.75909423828125" y1="227.6" x2="254.75909423828125" y2="190.5" stroke="black" stroke-width="3" stroke-linecap="round" stroke-linejoin="round"></line><line x1="158.37046813964844" y1="134.85" x2="158.37046813964844" y2="97.75" stroke="black" stroke-width="3" stroke-linecap="round" stroke-linejoin="round"></line><line x1="190.5" y1="153.4000030517578" x2="190.5" y2="116.30000305175781" stroke="black" stroke-width="3" stroke-linecap="round" stroke-linejoin="round"></line><line x1="222.62954711914062" y1="171.95000610351562" x2="222.62954711914062" y2="134.85000610351562" stroke="black" stroke-width="3" stroke-linecap="round" stroke-linejoin="round"></line><line x1="254.75909423828125" y1="190.49999389648437" x2="254.75909423828125" y2="153.39999389648438" stroke="black" stroke-width="3" stroke-linecap="round" stroke-linejoin="round"></line><line x1="158.37046813964844" y1="97.7500015258789" x2="158.37046813964844" y2="60.650001525878906" stroke="black" stroke-width="3" stroke-linecap="round" stroke-linejoin="round"></line><line x1="190.5" y1="116.2999969482422" x2="190.5" y2="79.19999694824219" stroke="black" stroke-width="3" stroke-linecap="round" stroke-linejoin="round"></line><line x1="222.62954711914062" y1="134.85000610351562" x2="254.7590895995433" y2="153.40000610351564" stroke="black" stroke-width="3" stroke-linecap="round" stroke-linejoin="round"></line><line x1="158.37046813964844" y1="60.650001525878906" x2="190.5000106200511" y2="79.20000152587892" stroke="black" stroke-width="3" stroke-linecap="round" stroke-linejoin="round"></line><polygon points="126.24091339111328,264.6999938964844 158.37045587151596,246.14999389648438 158.37045587151596,283.2499938964844 126.24091339111328,301.79999389648435" stroke="none" fill="red"></polygon><polygon points="94.11137390136719,246.14999389648438 126.24091638176986,264.6999938964844 126.24091638176986,301.79999389648435 94.11137390136719,283.2499938964844" stroke="none" fill="blue"></polygon><polygon points="94.11137390136719,246.15000610351564 126.24091638176986,264.70000610351565 158.37045886217254,246.15000610351564 126.24091638176986,227.60000610351562" stroke="none" fill="yellow"></polygon><line x1="158.37045587151596" y1="283.25" x2="126.24091339111328" y2="301.8" stroke="black" stroke-width="3" stroke-linecap="round" stroke-linejoin="round"></line><polygon points="126.24091339111328,227.60000305175782 158.37045587151596,209.0500030517578 158.37045587151596,246.1500030517578 126.24091339111328,264.70000305175785" stroke="none" fill="red"></polygon><polygon points="94.11137390136719,209.0500030517578 126.24091638176986,227.60000305175782 126.24091638176986,264.70000305175785 94.11137390136719,246.1500030517578" stroke="none" fill="blue"></polygon><polygon points="94.11137390136719,209.05 126.24091638176986,227.6 158.37045886217254,209.05 126.24091638176986,190.5" stroke="none" fill="yellow"></polygon><line x1="158.37046813964844" y1="246.1500030517578" x2="158.37046813964844" y2="209.0500030517578" stroke="black" stroke-width="3" stroke-linecap="round" stroke-linejoin="round"></line><polygon points="126.24091339111328,190.4999969482422 158.37045587151596,171.9499969482422 158.37045587151596,209.04999694824218 126.24091339111328,227.5999969482422" stroke="none" fill="red"></polygon><polygon points="94.11137390136719,171.9499969482422 126.24091638176986,190.4999969482422 126.24091638176986,227.5999969482422 94.11137390136719,209.04999694824218" stroke="none" fill="blue"></polygon><polygon points="94.11137390136719,171.9499938964844 126.24091638176986,190.49999389648437 158.37045886217254,171.9499938964844 126.24091638176986,153.39999389648438" stroke="none" fill="yellow"></polygon><line x1="158.37046813964844" y1="209.04999694824218" x2="158.37046813964844" y2="171.9499969482422" stroke="black" stroke-width="3" stroke-linecap="round" stroke-linejoin="round"></line><line x1="126.24091339111328" y1="153.39999389648438" x2="158.37045587151596" y2="171.9499938964844" stroke="black" stroke-width="3" stroke-linecap="round" stroke-linejoin="round"></line><line x1="126.24091638176986" y1="153.39999389648438" x2="94.11137390136719" y2="171.9499938964844" stroke="black" stroke-width="3" stroke-linecap="round" stroke-linejoin="round"></line><line x1="158.37045587151596" y1="171.9499969482422" x2="126.24091339111328" y2="190.4999969482422" stroke="black" stroke-width="3" stroke-linecap="round" stroke-linejoin="round"></line><line x1="94.11137390136719" y1="283.2499938964844" x2="94.11137390136719" y2="246.14999389648438" stroke="black" stroke-width="3" stroke-linecap="round" stroke-linejoin="round"></line><line x1="94.11137390136719" y1="283.25" x2="126.24091638176986" y2="301.8" stroke="black" stroke-width="3" stroke-linecap="round" stroke-linejoin="round"></line><line x1="126.24091339111328" y1="301.8000122070313" x2="126.24091339111328" y2="264.70001220703125" stroke="black" stroke-width="3" stroke-linecap="round" stroke-linejoin="round"></line><line x1="94.11137390136719" y1="246.1500030517578" x2="94.11137390136719" y2="209.0500030517578" stroke="black" stroke-width="3" stroke-linecap="round" stroke-linejoin="round"></line><line x1="126.24091339111328" y1="264.70000610351565" x2="126.24091339111328" y2="227.60000610351562" stroke="black" stroke-width="3" stroke-linecap="round" stroke-linejoin="round"></line><line x1="94.11137390136719" y1="209.04999694824218" x2="94.11137390136719" y2="171.9499969482422" stroke="black" stroke-width="3" stroke-linecap="round" stroke-linejoin="round"></line><line x1="126.24091339111328" y1="227.6" x2="126.24091339111328" y2="190.5" stroke="black" stroke-width="3" stroke-linecap="round" stroke-linejoin="round"></line><line x1="94.11137390136719" y1="171.9499969482422" x2="126.24091638176986" y2="190.4999969482422" stroke="black" stroke-width="3" stroke-linecap="round" stroke-linejoin="round"></line><line x1="29.85228729248047" y1="5" x2="29.85228729248047" y2="376" stroke="black" stroke-width="1" stroke-opacity="0.5" stroke-linecap="round" stroke-linejoin="round"></line><line x1="61.98183059692383" y1="5" x2="61.98183059692383" y2="376" stroke="black" stroke-width="1" stroke-opacity="0.5" stroke-linecap="round" stroke-linejoin="round"></line><line x1="94.11137390136719" y1="5" x2="94.11137390136719" y2="376" stroke="black" stroke-width="1" stroke-opacity="0.5" stroke-linecap="round" stroke-linejoin="round"></line><line x1="126.24091339111328" y1="5" x2="126.24091339111328" y2="376" stroke="black" stroke-width="1" stroke-opacity="0.5" stroke-linecap="round" stroke-linejoin="round"></line><line x1="158.37046813964844" y1="5" x2="158.37046813964844" y2="376" stroke="black" stroke-width="1" stroke-opacity="0.5" stroke-linecap="round" stroke-linejoin="round"></line><line x1="190.5" y1="5" x2="190.5" y2="376" stroke="black" stroke-width="1" stroke-opacity="0.5" stroke-linecap="round" stroke-linejoin="round"></line><line x1="222.62954711914062" y1="5" x2="222.62954711914062" y2="376" stroke="black" stroke-width="1" stroke-opacity="0.5" stroke-linecap="round" stroke-linejoin="round"></line><line x1="254.75909423828125" y1="5" x2="254.75909423828125" y2="376" stroke="black" stroke-width="1" stroke-opacity="0.5" stroke-linecap="round" stroke-linejoin="round"></line><line x1="286.8886413574219" y1="5" x2="286.8886413574219" y2="376" stroke="black" stroke-width="1" stroke-opacity="0.5" stroke-linecap="round" stroke-linejoin="round"></line><line x1="319.0181884765625" y1="5" x2="319.0181884765625" y2="376" stroke="black" stroke-width="1" stroke-opacity="0.5" stroke-linecap="round" stroke-linejoin="round"></line><line x1="351.147705078125" y1="5" x2="351.147705078125" y2="376" stroke="black" stroke-width="1" stroke-opacity="0.5" stroke-linecap="round" stroke-linejoin="round"></line><line x1="319.0181884765625" y1="5" x2="351.1477309569651" y2="23.549999999999983" stroke="black" stroke-width="1" stroke-opacity="0.5" stroke-linecap="round" stroke-linejoin="round"></line><line x1="61.98182977288309" y1="5" x2="29.85228729248047" y2="23.54999999999998" stroke="black" stroke-width="1" stroke-opacity="0.5" stroke-linecap="round" stroke-linejoin="round"></line><line x1="254.75909423828125" y1="5" x2="351.1477216794892" y2="60.64999999999998" stroke="black" stroke-width="1" stroke-opacity="0.5" stroke-linecap="round" stroke-linejoin="round"></line><line x1="126.24091473368844" y1="5" x2="29.85228729248047" y2="60.64999999999998" stroke="black" stroke-width="1" stroke-opacity="0.5" stroke-linecap="round" stroke-linejoin="round"></line><line x1="190.5" y1="5" x2="351.1477124020133" y2="97.74999999999997" stroke="black" stroke-width="1" stroke-opacity="0.5" stroke-linecap="round" stroke-linejoin="round"></line><line x1="190.49999969449377" y1="5" x2="29.85228729248047" y2="97.74999999999997" stroke="black" stroke-width="1" stroke-opacity="0.5" stroke-linecap="round" stroke-linejoin="round"></line><line x1="126.24091339111328" y1="5" x2="351.14771075393196" y2="134.84999999999997" stroke="black" stroke-width="1" stroke-opacity="0.5" stroke-linecap="round" stroke-linejoin="round"></line><line x1="254.75908465529912" y1="5" x2="29.85228729248047" y2="134.84999999999997" stroke="black" stroke-width="1" stroke-opacity="0.5" stroke-linecap="round" stroke-linejoin="round"></line><line x1="61.98183059692383" y1="5" x2="351.14771292054786" y2="171.95" stroke="black" stroke-width="1" stroke-opacity="0.5" stroke-linecap="round" stroke-linejoin="round"></line><line x1="319.0181696161044" y1="5" x2="29.85228729248047" y2="171.95" stroke="black" stroke-width="1" stroke-opacity="0.5" stroke-linecap="round" stroke-linejoin="round"></line><line x1="29.85228729248047" y1="23.549999237060547" x2="351.1477120965071" y2="209.04999923706055" stroke="black" stroke-width="1" stroke-opacity="0.5" stroke-linecap="round" stroke-linejoin="round"></line><line x1="351.1477120965071" y1="23.549999237060547" x2="29.85228729248047" y2="209.04999923706055" stroke="black" stroke-width="1" stroke-opacity="0.5" stroke-linecap="round" stroke-linejoin="round"></line><line x1="29.85228729248047" y1="60.650001525878906" x2="351.1477120965071" y2="246.1500015258789" stroke="black" stroke-width="1" stroke-opacity="0.5" stroke-linecap="round" stroke-linejoin="round"></line><line x1="351.1477120965071" y1="60.650001525878906" x2="29.85228729248047" y2="246.1500015258789" stroke="black" stroke-width="1" stroke-opacity="0.5" stroke-linecap="round" stroke-linejoin="round"></line><line x1="29.85228729248047" y1="97.75" x2="351.1477120965071" y2="283.25" stroke="black" stroke-width="1" stroke-opacity="0.5" stroke-linecap="round" stroke-linejoin="round"></line><line x1="351.1477120965071" y1="97.75" x2="29.85228729248047" y2="283.25" stroke="black" stroke-width="1" stroke-opacity="0.5" stroke-linecap="round" stroke-linejoin="round"></line><line x1="29.85228729248047" y1="134.85000610351562" x2="351.1477120965071" y2="320.3500061035156" stroke="black" stroke-width="1" stroke-opacity="0.5" stroke-linecap="round" stroke-linejoin="round"></line><line x1="351.1477120965071" y1="134.85000610351562" x2="29.85228729248047" y2="320.3500061035156" stroke="black" stroke-width="1" stroke-opacity="0.5" stroke-linecap="round" stroke-linejoin="round"></line><line x1="29.85228729248047" y1="171.9499969482422" x2="351.1477120965071" y2="357.4499969482422" stroke="black" stroke-width="1" stroke-opacity="0.5" stroke-linecap="round" stroke-linejoin="round"></line><line x1="351.1477120965071" y1="171.9499969482422" x2="29.85228729248047" y2="357.4499969482422" stroke="black" stroke-width="1" stroke-opacity="0.5" stroke-linecap="round" stroke-linejoin="round"></line><line x1="29.85228729248047" y1="209.0500030517578" x2="319.0181696161046" y2="376.00000305175786" stroke="black" stroke-width="1" stroke-opacity="0.5" stroke-linecap="round" stroke-linejoin="round"></line><line x1="351.147712920548" y1="209.0500030517578" x2="61.98183059692383" y2="376.00000305175786" stroke="black" stroke-width="1" stroke-opacity="0.5" stroke-linecap="round" stroke-linejoin="round"></line><line x1="29.85228729248047" y1="246.14999389648438" x2="254.75908465529926" y2="375.9999938964844" stroke="black" stroke-width="1" stroke-opacity="0.5" stroke-linecap="round" stroke-linejoin="round"></line><line x1="351.1477107539321" y1="246.14999389648438" x2="126.24091339111328" y2="375.99999389648445" stroke="black" stroke-width="1" stroke-opacity="0.5" stroke-linecap="round" stroke-linejoin="round"></line><line x1="29.85228729248047" y1="283.25" x2="190.49999969449394" y2="376.00000000000006" stroke="black" stroke-width="1" stroke-opacity="0.5" stroke-linecap="round" stroke-linejoin="round"></line><line x1="351.14771240201344" y1="283.25" x2="190.5" y2="376.00000000000006" stroke="black" stroke-width="1" stroke-opacity="0.5" stroke-linecap="round" stroke-linejoin="round"></line><line x1="29.85228729248047" y1="320.3500061035156" x2="126.24091473368854" y2="376.00000610351566" stroke="black" stroke-width="1" stroke-opacity="0.5" stroke-linecap="round" stroke-linejoin="round"></line><line x1="351.14772167948934" y1="320.3500061035156" x2="254.75909423828125" y2="376.00000610351566" stroke="black" stroke-width="1" stroke-opacity="0.5" stroke-linecap="round" stroke-linejoin="round"></line><line x1="29.85228729248047" y1="357.45001220703125" x2="61.98182977288316" y2="376.00001220703126" stroke="black" stroke-width="1" stroke-opacity="0.5" stroke-linecap="round" stroke-linejoin="round"></line><line x1="351.1477309569652" y1="357.45001220703125" x2="319.0181884765625" y2="376.00001220703126" stroke="black" stroke-width="1" stroke-opacity="0.5" stroke-linecap="round" stroke-linejoin="round"></line><defs></defs><text x="5" y="2.200000762939453" stroke="white" stroke-width="5" font-family="arial" font-weight="bold" font-size="12"><tspan dy="15.600000000000001" x="5">Perspective isométrique</tspan></text><text x="5" y="2.200000762939453" fill="black" font-family="arial" font-weight="bold" font-size="12"><tspan dy="15.600000000000001" x="5">Perspective isométrique</tspan></text></svg>