<?xml version="1.0" encoding="UTF-8"?>
<svg xmlns="http://www.w3.org/2000/svg" xmlns:xlink="http://www.w3.org/1999/xlink" viewBox="0 0 162 95.64">
  <defs>
    <style>
      .cls-1 {
        fill-rule: evenodd;
      }

      .cls-1, .cls-2 {
        stroke-width: 0px;
      }

      .cls-3 {
        stroke: #75ffff;
      }

      .cls-3, .cls-4 {
        stroke-linejoin: round;
      }

      .cls-3, .cls-4, .cls-5 {
        fill: none;
        stroke-linecap: round;
      }

      .cls-4 {
        stroke: #ffaeff;
        stroke-width: 2px;
      }

      .cls-5 {
        stroke: #000;
        stroke-miterlimit: 10;
        stroke-width: 3px;
      }
    </style>
    <symbol id="Saleté_groupe_vectoriel_11" data-name="Saleté groupe vectoriel 11" viewBox="0 0 160.56 177.34">
      <path class="cls-1" d="m68.92,1.88c.56-2.69-4.08-2.32-2.6,0,1.44-.16,1.62.45,2.6,0Zm-1.3,18.52c1.38.39,2.77.46,1.95,2.27,1.66-.38,3.27.71,4.55,1.62,2.36-.57,3.78-.11,5.52.65.73-2.74,3.43-3.5,5.52-4.87-.55-1.57-.17-2.89,1.3-3.25.44-3.17-1.94-4.44-.65-7.47-3.27-.73-4.27-3.75-6.83-5.2-.26.72-.65,1.3-1.62,1.3-.88-.2-.81-1.36-1.95-1.3-.44,1.53-2.15,1.95-3.9,1.3-1,2.25-2.72,3.78-4.87,4.87,1.69,1.53-.14,3.85-.98,4.87.66,2.14,2.23,2.61,1.95,5.2Zm55.24-9.42c3.03.92,5.69-1.21,5.85-4.23-2.61-.53-5.6,1.02-6.17,3.57.25.07.38.27.32.65Zm29.25,12.67c.07-1.19.45-1.25,0-2.27-1.8,0-2.73-1.74-4.55-2.27-1.75-.52-3.98.3-5.2-1.3-.58,1.25-1.97,1.57-3.57.98-.44,2.7-3.76,2.52-3.58,5.85-.57-.02-1.01.07-1.3.32-.24,1,.89.62.65,1.62-.29.91-1.61.77-1.62,1.95,1.93.67,2.02,3.18,2.6,5.2,1.96.75,2.49,2.92,4.55,3.58-2.6.97-4.79,2.36-4.88,5.85,7.05,3.49,7.47-8.37,14.95-6.5,1.49-3.41,5.06-6.41,2.92-10.72.41-.79,1.64-.75,1.62-1.95-.78-.2-2.36.41-2.6-.32ZM31.55,59.07c-1.85-.42-3.37-1.17-5.2-1.63.08,1.98,3.91,1.93,5.2,1.63Zm125.43,26.64c.89,1.16,3.57.66,3.58-.98-.74-1.69-3.62-.88-3.58.98Zm-111.46,54.91c-1.39-.2-1.33,1.06-2.6.97-1.53-.53-1.65-2.46-2.27-3.9-1.33-.24-1.12,1.05-2.6.65-.97-.44-1.35-1.47-1.95-2.28-2.98.59-3.64-1.12-5.2-1.95-.57.51-.67,1.49-1.62,1.62-3.11-1.3-3.47,2.79-6.82,1.3-1.07,3.71-3.94,5.8-8.12,5.52-.12,1.96,2.2,1.49,2.6,2.93.56,2.84-1.03,3.52-1.3,5.52,1.08,1.82,1.88,4.49,2.28,7.8,1.68-.05,1.98,1.27,2.6,2.28,1.73-.22,2.84.19,3.25,1.3.36,1.76-.66,2.16-.65,3.57,1.54-.74,2.74-1.81,4.88-1.95,1.43,1.05,2.38,2.6,5.52,1.95.18-1.01.77-1.61,1.62-1.95.99.42.87,1.95,2.27,1.95,1.08-.65-.53-3.69,1.62-3.9,1.36-.06,1.01,1.59,2.6,1.3.36-1.49.36-2.09,0-3.57,2.14-1.32,2.61,1.6,3.9.97,0-1.4-1.62-1.2-1.62-2.6,1.48-2-.48-5.83,1.62-7.47,1.44-.72,6.13.99,8.12-.65-6.53,1.79-11.7-3.98-8.12-9.42Zm73.77-.65c1.62,2.36,4.19.73,7.8,1.3-.92-2.1-5.29-1.8-7.8-1.3Zm-65.64,13c2.29.42,4.69.73,7.15.98-.98-1.52-5.23-1.47-7.15-.98Zm-49.07,9.1c-1.25-2.44-4.28-.53-4.55,1.3-.34,2.29,2.23,2.89,2.27,4.87,4.29,1.4,3.95-3.86,5.85-5.85-.17-.48-.48-.82-.65-1.3-1.54-.24-2.14.46-2.92.98Zm112.44,4.87c.08,1.85,3.29,2.02,4.22,1.95-.57-1.49-2.54-1.58-4.22-1.95Zm-11.05,10.4c-.66-2.81-1.66-5.27-3.25-7.15.63,2.84,1.74,5.19,3.25,7.15Zm32.5-129.32v-1.3c-1.81-.59-1.53-.35-3.25.65-1.22-.92-2.09-.22-3.25-.98-.55,1.4-1.47,2.43-3.9,1.95-1.13,2.69-4.24,4.67-4.23,8.12,0,1.82,1.9,3.62.65,5.2-5.38-5.65-18.11.31-24.7-1.62.83-2.52,2.08-4.64,2.92-7.15,1.21-.32,2.65-1.73,1.62-3.25-4.36,1.48-4.25,7.45-8.77,8.77-1.76-1.97-3.73-2.52-5.85-4.55-.24-4.77-2.51-7.11-4.22-10.07-.71-1.22-.44-2.95-2.27-2.92-.18.47-.51.79-.97.97-.26,1.88.9,2.35.65,4.23-3.34,1.82-8.99-.5-12.67-2.28-.39,2.02.74,2.51.65,4.22-3.39,1.72-5.53-.77-8.77.65-1.79-1.13-2.47-3.38-4.87-3.9-2.17-1.84-2.47-5.54-5.2-6.82-.08,2.22,1,2.47,1.95,3.9,1.08,1.63,2.12,4.45,3.25,5.85,1.48,1.82,3.37,2.43,3.25,4.22-.17,2.46-3.03,2.58-5.2,3.9-2.03,9-12.3,6.23-19.5,3.9,4.2,2.19,9.7,3.08,13.32,5.85-2.41,1.92-4.67,4-6.17,6.82-1.91-.15-2.39-1.72-4.88-1.3-.29,1.8,1.75,1.28,2.27,2.27-5.04,1.16-7.11-3.24-12.67-2.27-.08-.46-.54-.55-.65-.98-.21-1.19.7-1.25.65-2.27-1.44-1.08-2.56-2.62-2.27-4.55-2.3-1.06-4.26-2.46-4.55-5.52-1.59-.29-.88,1.72-2.6,1.3-.88-2.7-2.48-.89-4.87-1.95-.38.49-.4,1.33-.97,1.63-3.51-.8-3.53,1.89-5.52,2.6-2.21-.82-3.25-2.61-5.85-1.62.09,1.75,3.06.62,3.57,1.95-1.19,3.04-2.04,6.41-3.57,9.1,1.35.85,2.13,2.77,1.3,4.87,2.02,1.85,4.06,4.02,4.88,6.17,1.19.21,1.25-.7,2.27-.65,1.02.71,2.02,1.45,2.28,2.92,3.16-1.7,6.69-1.54,10.07-2.28.54-.43.11-1.84.65-2.27,1-.08,1.84-.33,2.6-.65.83-.41-.3-1.59.33-1.62,4.45.6,11.46-.05,14.95,2.92,1.02,3.5,1.76,6.96,0,10.4-.56.4-2.16-.25-3.57,0-.83-.25-.55-1.62-1.62-1.62-5.68,1.03-9.59,3.84-11.37,8.77.34,1.72.64,3.48.65,5.52,1.55,3.21,5.02,4.51,7.15,7.15.66-1.32,3.11-1.11,4.22-.33,3.65-1.87,7.24-3.81,8.45-8.12,4.87,0,5.03,4.72,8.12,6.5-.88,4.85-2.37,9.11-3.57,13.65,2.39-1.92,3.29-5.9,3.9-10.4,1.35-.38,2.28-1.19,3.57-1.62.82.8,2.2,1.05,2.28,2.6.03,1.22-1.19,1.19-1.3,2.28,3.78-.42,9.85-.77,9.42,5.2,1.86.56,1.23-1.38,2.6-1.3,3.09,2.25,3.77,11.49,1.95,14.62-1.95-2.42-1.69-6.26-5.53-5.85-3.81.4-4.52,5.88-1.95,9.1,3.32,1.1,6.29,3.22,8.12-.65,3.44,3.03,1.27,10.38-1.95,12.35-1.33.29-2.63.62-2.92,1.95.25.07.38.27.32.65,1.17.68,3.51.17,5.2.33.89,1.61,2.16,2.82,2.28,5.2-.91,1.05-3.66,1.96-2.92,3.57.85-1.66,4.39-2.14,6.17-.97.13,1.17.42,2.18.65,3.25,2.34.87,4.2,2.97,7.15,2.27.84,1,.44,3.24,1.62,3.9,1.88.15,1.31-2.16,3.25-1.95.76.97-.33,3.8,1.63,3.57,1.31-.42.72-2.74,1.62-3.57,2.72-.71,4.3.06,6.82,0,.38.49.4,1.33.98,1.62.19-.58-.95-1.35,0-1.62,1.36.05,1.45,1.37,3.25.98-.03-1.39-.65-2.38,0-3.57,6.24-.37,6.84-6.37,10.07-9.75,3.98-.72,6.63,1.6,9.1,1.3-1.15-.69-3-.68-3.58-1.95.68-.87,2.38-1.22,1.62-2.6-2.07-.12-2.71,1.19-3.9,1.95-1.03-.7-3.11-.36-3.57-1.62-.37-2.43,1.09-3.02,1.95-4.23-.25-1.59-1.35-2.33-1.3-4.22.22-1.29,2.38-.66,2.28-2.28-.09-1.32-2.12-.69-2.92-1.3-.41-2.37.17-2.62.32-4.87-2.2-.62-4.15-1.49-3.9-4.55-2.55-.37-4.79-1.06-4.55-4.22-.59-.82-2.13-.68-2.6-1.62.37-.11,1.12-1.42.32-1.62-.72,1.97-4.47.51-5.52-.32-1.27.25-1.26,1.77-2.93,1.62-.14-.62-.7-.82-.65-1.62,2.26-1.54,6.71-.88,9.1-2.28-.02-3.48-1.66-6.93.33-10.4.33,0,.38-.26.65-.33.53.56,1.36.81,2.6.65,2.84,4.04,7.83,4.13,11.7,6.82-2.08-3.78-10.95-3.56-9.75-11.7-2.12-.5-1.68,2.93-3.25,1.95.73-2.63,3.58-3.14,4.87-5.2,7.85-2.27,12.95,4.88,20.47,2.27,2.19-8.97-14.02-7.12-14.62-13.65-.37-4.04,3.27-2.8,5.85-3.9-.79-2.58-4.64-.58-5.85-2.27-.14-2.85,2.63-2.79,4.22-3.9-.53-3.17,2.01-3.4,3.25-5.52-.79-1.7-3.8-1.19-4.23-3.25,1.77-2.57,4.31-8.07,8.45-5.2,1.86-1.5,3.14.05,4.55,1.3,1.16-1.45,2.44-.69,4.23-.32,2.16-2.81,7.39-4.95,5.52-9.75.11-1.3,1.34-1.47,1.3-2.92-2.38-1.85-2.65-5.79-6.17-6.5Zm-51.34,74.41c.99-.31,3.04-.11,2.92,1.62-1.19.79-2.74-.38-2.92-1.62Zm21.45-15.6c1.52.54,1.5,2.62,2.27,3.9-1.6-.4-3.96-2.21-2.27-3.9Zm-42.9,17.22c-2.47,1.54-5.85,3.9-6.82,5.85,2.39-1.84,5.21-3.24,6.82-5.85Zm-11.37,26.32c.67-.59,4.81.7,5.52-.98-1.97-.01-5.81-.19-5.52.98Z"/>
    </symbol>
  </defs>
  <g id="Calque_1" data-name="Calque 1">
    <path class="cls-3" d="m1,11h160"/>
    <path class="cls-3" d="m1,21h160"/>
    <path class="cls-3" d="m1,31h160"/>
    <path class="cls-3" d="m1,51h160"/>
    <path class="cls-3" d="m1,61h160"/>
    <path class="cls-3" d="m1,71h160"/>
    <path class="cls-4" d="m1,1v80"/>
    <path class="cls-4" d="m41,1v80"/>
    <path class="cls-4" d="m81,1v80"/>
    <path class="cls-4" d="m121,1v80"/>
    <path class="cls-4" d="m161,1v80"/>
    <path class="cls-4" d="m1,1h160"/>
    <path class="cls-4" d="m1,41h160"/>
    <path class="cls-4" d="m1,81h160"/>
  </g>
  <g id="Calque_2" data-name="Calque 2">
    <g>
      <path class="cls-2" d="m22.35,40.76c-.16.16-.35.24-.57.24h-1.23c-.22,0-.41-.08-.57-.24-.16-.16-.24-.35-.24-.57v-16.53l-4.86,3.69c-.14.12-.31.18-.51.18-.26,0-.47-.1-.63-.3l-.72-.93c-.12-.16-.18-.33-.18-.51,0-.26.11-.47.33-.63l6.42-4.92c.22-.16.54-.24.96-.24h1.23c.22,0,.41.08.57.24s.24.35.24.57v19.38c0,.22-.08.41-.24.57Z"/>
      <path class="cls-2" d="m27.23,37.72c.21-.23.5-.34.88-.34h1.74c.18,0,.33.06.46.19.13.13.2.29.2.46,0,.08-.01.15-.03.21l-1.56,4.05c-.24.64-.67.96-1.29.96h-.75c-.18,0-.33-.07-.46-.2-.13-.13-.19-.29-.19-.46v-.06l.6-3.99c.06-.32.2-.59.41-.83Z"/>
      <path class="cls-2" d="m44.61,37.48c.9-.75,1.35-1.82,1.35-3.23s-.45-2.48-1.35-3.23c-.9-.75-2.04-1.12-3.42-1.12-.82,0-1.46.1-1.92.29-.46.19-.92.45-1.38.77-.24.18-.45.31-.62.4s-.37.14-.58.14h-1.53c-.18,0-.34-.06-.47-.2-.13-.13-.19-.29-.19-.46l.9-10.02c0-.22.08-.41.24-.57.16-.16.35-.24.57-.24h10.59c.22,0,.41.08.57.24.16.16.24.35.24.57v1.08c0,.22-.08.41-.24.57s-.35.24-.57.24h-8.73l-.48,5.19c1.02-.46,2.22-.69,3.6-.69s2.7.28,3.85.85c1.15.57,2.06,1.39,2.75,2.46.68,1.07,1.02,2.31,1.02,3.73s-.34,2.67-1.02,3.73c-.68,1.07-1.6,1.89-2.75,2.46-1.15.57-2.44.85-3.85.85-1.32,0-2.56-.25-3.72-.73-1.16-.49-2.09-1.17-2.79-2.06-.7-.88-1.06-1.87-1.08-2.97,0-.18.06-.33.19-.46.13-.13.29-.2.47-.2h1.38c.18,0,.34.06.48.18.14.12.24.28.3.48.26.92.83,1.66,1.71,2.22.88.56,1.9.84,3.06.84,1.38,0,2.52-.38,3.42-1.12Z"/>
      <path class="cls-2" d="m59.79,29.3c-.16-.16-.24-.35-.24-.57v-.96c0-.22.08-.41.24-.57s.35-.24.57-.24h11.25c.22,0,.41.08.57.24.16.16.24.35.24.57v.96c0,.22-.08.41-.24.57-.16.16-.35.24-.57.24h-11.25c-.22,0-.41-.08-.57-.24Zm0,7.5c-.16-.16-.24-.35-.24-.57v-.96c0-.22.08-.41.24-.57s.35-.24.57-.24h11.25c.22,0,.41.08.57.24.16.16.24.35.24.57v.96c0,.22-.08.41-.24.57-.16.16-.35.24-.57.24h-11.25c-.22,0-.41-.08-.57-.24Z"/>
    </g>
    <line class="cls-5" x1="85.23" y1="41" x2="137.32" y2="41"/>
    <path class="cls-2" d="m114.16,30.44c.87-.65,1.31-1.59,1.31-2.83s-.42-2.1-1.25-2.66c-.83-.55-1.96-.82-3.38-.82h-2.49c-.22,0-.41-.08-.57-.24-.16-.16-.24-.35-.24-.57v-1.08c0-.16.04-.3.12-.44.08-.13.2-.28.36-.46l5.4-5.82h-8.64c-.22,0-.41-.08-.57-.24-.16-.16-.24-.35-.24-.57v-1.08c0-.22.08-.41.24-.57.16-.16.35-.24.57-.24h11.82c.22,0,.41.08.57.24.16.16.24.35.24.57v1.08c0,.28-.18.62-.54,1.02l-5.31,5.73c2.02.04,3.65.61,4.89,1.71,1.24,1.1,1.86,2.58,1.86,4.44,0,1.32-.33,2.48-1,3.46-.67.99-1.57,1.75-2.7,2.27s-2.38.78-3.76.78c-1.7,0-3.13-.25-4.29-.76-1.16-.51-2.02-1.17-2.58-1.98-.56-.81-.86-1.67-.9-2.6,0-.18.07-.33.2-.46.13-.13.29-.2.46-.2h1.38c.2,0,.37.07.5.2.13.13.23.27.29.44.26.82.74,1.47,1.42,1.95.69.48,1.87.72,3.53.72,1.34,0,2.44-.32,3.31-.98Z"/>
    <use width="160.56" height="177.34" transform="translate(85.73 102.9) rotate(-106.94) scale(.4)" xlink:href="#Saleté_groupe_vectoriel_11"/>
  </g>
</svg>