<svg xmlns="http://www.w3.org/2000/svg" version="1.1" xmlns:xlink="http://www.w3.org/1999/xlink" xmlns:svgjs="http://svgjs.com/svgjs" width="324" height="324" viewBox="0 0 324 324"><line x1="162" y1="161.9999984741211" x2="162" y2="130.5999984741211" stroke="black" stroke-width="1" stroke-linecap="round" stroke-linejoin="round"></line><line x1="162" y1="162" x2="189.19319767883138" y2="177.7" stroke="black" stroke-width="1" stroke-linecap="round" stroke-linejoin="round"></line><line x1="161.999990891722" y1="162" x2="134.80679321289062" y2="177.7" stroke="black" stroke-width="1" stroke-linecap="round" stroke-linejoin="round"></line><polygon points="162,162.0000030517578 190.0592230826158,145.8000030517578 190.0592230826158,178.20000305175782 162,193.9000030517578" stroke="none" fill="red"></polygon><polygon points="133.94078063964844,145.8000030517578 162.00000372226424,162.0000030517578 162.00000372226424,193.9000030517578 133.94078063964844,178.20000305175782" stroke="none" fill="blue"></polygon><polygon points="133.94078063964844,145.79999847412108 162.00000372226424,161.9999984741211 190.05922680488004,145.79999847412108 162.00000372226424,130.0999984741211" stroke="none" fill="yellow"></polygon><line x1="189.1931915283203" y1="177.70000305175782" x2="189.1931915283203" y2="146.3000030517578" stroke="black" stroke-width="1" stroke-linecap="round" stroke-linejoin="round"></line><line x1="189.1931915283203" y1="177.6999969482422" x2="216.3863892071517" y2="193.39999694824218" stroke="black" stroke-width="1" stroke-linecap="round" stroke-linejoin="round"></line><line x1="189.19319767883138" y1="177.6999969482422" x2="162" y2="193.39999694824218" stroke="black" stroke-width="1" stroke-linecap="round" stroke-linejoin="round"></line><polygon points="189.1931915283203,177.7 217.2524146109361,161.5 217.2524146109361,193.9 189.1931915283203,209.6" stroke="none" fill="red"></polygon><polygon points="161.13397216796875,161.5 189.19319525058458,177.7 189.19319525058458,209.6 161.13397216796875,193.9" stroke="none" fill="blue"></polygon><polygon points="161.13397216796875,161.5000030517578 189.19319525058458,177.70000305175782 217.25241833320038,161.5000030517578 189.19319525058458,145.8000030517578" stroke="none" fill="yellow"></polygon><line x1="216.3863983154297" y1="193.4" x2="216.3863983154297" y2="162" stroke="black" stroke-width="1" stroke-linecap="round" stroke-linejoin="round"></line><line x1="216.3863983154297" y1="193.39999389648438" x2="243.57959599426107" y2="209.09999389648436" stroke="black" stroke-width="1" stroke-linecap="round" stroke-linejoin="round"></line><line x1="216.3863892071517" y1="193.39999389648438" x2="189.1931915283203" y2="209.09999389648436" stroke="black" stroke-width="1" stroke-linecap="round" stroke-linejoin="round"></line><polygon points="216.3863983154297,193.39999694824218 244.4456213980455,177.1999969482422 244.4456213980455,209.5999969482422 216.3863983154297,225.29999694824218" stroke="none" fill="red"></polygon><polygon points="188.32717895507812,177.1999969482422 216.38640203769395,193.39999694824218 216.38640203769395,225.29999694824218 188.32717895507812,209.5999969482422" stroke="none" fill="blue"></polygon><polygon points="188.32717895507812,177.2 216.38640203769395,193.4 244.44562512030976,177.2 216.38640203769395,161.5" stroke="none" fill="yellow"></polygon><line x1="243.57958984375" y1="209.0999969482422" x2="243.57958984375" y2="177.6999969482422" stroke="black" stroke-width="1" stroke-linecap="round" stroke-linejoin="round"></line><line x1="243.57958984375" y1="209.10000610351562" x2="270.7727875225814" y2="224.8000061035156" stroke="black" stroke-width="1" stroke-linecap="round" stroke-linejoin="round"></line><line x1="243.57959599426107" y1="209.10000610351562" x2="216.3863983154297" y2="224.8000061035156" stroke="black" stroke-width="1" stroke-linecap="round" stroke-linejoin="round"></line><polygon points="243.57958984375,209.09999389648436 271.6388129263658,192.89999389648438 271.6388129263658,225.29999389648438 243.57958984375,240.99999389648437" stroke="none" fill="red"></polygon><polygon points="215.52037048339844,192.89999389648438 243.57959356601427,209.09999389648436 243.57959356601427,240.99999389648437 215.52037048339844,225.29999389648438" stroke="none" fill="blue"></polygon><polygon points="215.52037048339844,192.89999694824218 243.57959356601427,209.0999969482422 271.63881664863004,192.89999694824218 243.57959356601427,177.1999969482422" stroke="none" fill="yellow"></polygon><line x1="270.7727966308594" y1="224.79999389648438" x2="270.7727966308594" y2="193.39999389648438" stroke="black" stroke-width="1" stroke-linecap="round" stroke-linejoin="round"></line><line x1="270.7727966308594" y1="224.8000030517578" x2="297.96599430969076" y2="240.5000030517578" stroke="black" stroke-width="1" stroke-linecap="round" stroke-linejoin="round"></line><line x1="270.7727875225814" y1="224.8000030517578" x2="243.57958984375" y2="240.5000030517578" stroke="black" stroke-width="1" stroke-linecap="round" stroke-linejoin="round"></line><polygon points="270.7727966308594,224.8000061035156 298.8320197134752,208.60000610351562 298.8320197134752,241.00000610351563 270.7727966308594,256.70000610351565" stroke="none" fill="red"></polygon><polygon points="242.71356201171875,208.60000610351562 270.7727850943346,224.8000061035156 270.7727850943346,256.70000610351565 242.71356201171875,241.00000610351563" stroke="none" fill="blue"></polygon><polygon points="242.71356201171875,208.59999389648436 270.7727850943346,224.79999389648438 298.83200817695035,208.59999389648436 270.7727850943346,192.89999389648438" stroke="none" fill="yellow"></polygon><line x1="297.9659729003906" y1="240.50000610351563" x2="297.9659729003906" y2="209.10000610351562" stroke="black" stroke-width="3" stroke-linecap="round" stroke-linejoin="round"></line><line x1="297.96599430969076" y1="240.5" x2="270.7727966308594" y2="256.2" stroke="black" stroke-width="3" stroke-linecap="round" stroke-linejoin="round"></line><line x1="162" y1="130.5999969482422" x2="162" y2="99.19999694824219" stroke="black" stroke-width="1" stroke-linecap="round" stroke-linejoin="round"></line><line x1="162" y1="130.5999984741211" x2="189.19319767883138" y2="146.29999847412108" stroke="black" stroke-width="1" stroke-linecap="round" stroke-linejoin="round"></line><line x1="161.999990891722" y1="130.5999984741211" x2="134.80679321289062" y2="146.29999847412108" stroke="black" stroke-width="1" stroke-linecap="round" stroke-linejoin="round"></line><polygon points="162,130.6000015258789 190.0592230826158,114.4000015258789 190.0592230826158,146.80000152587888 162,162.50000152587893" stroke="none" fill="red"></polygon><polygon points="133.94078063964844,114.4000015258789 162.00000372226424,130.6000015258789 162.00000372226424,162.50000152587893 133.94078063964844,146.80000152587888" stroke="none" fill="blue"></polygon><polygon points="133.94078063964844,114.39999694824219 162.00000372226424,130.5999969482422 190.05922680488004,114.39999694824219 162.00000372226424,98.69999694824219" stroke="none" fill="yellow"></polygon><line x1="189.1931915283203" y1="146.3000015258789" x2="189.1931915283203" y2="114.9000015258789" stroke="black" stroke-width="1" stroke-linecap="round" stroke-linejoin="round"></line><line x1="189.1931915283203" y1="146.3000030517578" x2="216.3863892071517" y2="162.0000030517578" stroke="black" stroke-width="1" stroke-linecap="round" stroke-linejoin="round"></line><line x1="189.19319767883138" y1="146.3000030517578" x2="162" y2="162.0000030517578" stroke="black" stroke-width="1" stroke-linecap="round" stroke-linejoin="round"></line><polygon points="189.1931915283203,146.29999847412108 217.2524146109361,130.0999984741211 217.2524146109361,162.49999847412107 189.1931915283203,178.19999847412106" stroke="none" fill="red"></polygon><polygon points="161.13397216796875,130.0999984741211 189.19319525058458,146.29999847412108 189.19319525058458,178.19999847412106 161.13397216796875,162.49999847412107" stroke="none" fill="blue"></polygon><polygon points="161.13397216796875,130.1000015258789 189.19319525058458,146.3000015258789 217.25241833320038,130.1000015258789 189.19319525058458,114.4000015258789" stroke="none" fill="yellow"></polygon><line x1="216.3863983154297" y1="161.9999984741211" x2="216.3863983154297" y2="130.5999984741211" stroke="black" stroke-width="1" stroke-linecap="round" stroke-linejoin="round"></line><line x1="216.3863983154297" y1="162" x2="243.57959599426107" y2="177.7" stroke="black" stroke-width="1" stroke-linecap="round" stroke-linejoin="round"></line><line x1="216.3863892071517" y1="162" x2="189.1931915283203" y2="177.7" stroke="black" stroke-width="1" stroke-linecap="round" stroke-linejoin="round"></line><polygon points="216.3863983154297,162.0000030517578 244.4456213980455,145.8000030517578 244.4456213980455,178.20000305175782 216.3863983154297,193.9000030517578" stroke="none" fill="red"></polygon><polygon points="188.32717895507812,145.8000030517578 216.38640203769395,162.0000030517578 216.38640203769395,193.9000030517578 188.32717895507812,178.20000305175782" stroke="none" fill="blue"></polygon><polygon points="188.32717895507812,145.79999847412108 216.38640203769395,161.9999984741211 244.44562512030976,145.79999847412108 216.38640203769395,130.0999984741211" stroke="none" fill="yellow"></polygon><line x1="243.57958984375" y1="177.70000305175782" x2="243.57958984375" y2="146.3000030517578" stroke="black" stroke-width="1" stroke-linecap="round" stroke-linejoin="round"></line><line x1="243.57958984375" y1="177.6999969482422" x2="270.7727875225814" y2="193.39999694824218" stroke="black" stroke-width="1" stroke-linecap="round" stroke-linejoin="round"></line><line x1="243.57959599426107" y1="177.6999969482422" x2="216.3863983154297" y2="193.39999694824218" stroke="black" stroke-width="1" stroke-linecap="round" stroke-linejoin="round"></line><polygon points="243.57958984375,177.7 271.6388129263658,161.5 271.6388129263658,193.9 243.57958984375,209.6" stroke="none" fill="red"></polygon><polygon points="215.52037048339844,161.5 243.57959356601427,177.7 243.57959356601427,209.6 215.52037048339844,193.9" stroke="none" fill="blue"></polygon><polygon points="215.52037048339844,161.5000030517578 243.57959356601427,177.70000305175782 271.63881664863004,161.5000030517578 243.57959356601427,145.8000030517578" stroke="none" fill="yellow"></polygon><line x1="270.7727966308594" y1="193.4" x2="270.7727966308594" y2="162" stroke="black" stroke-width="3" stroke-linecap="round" stroke-linejoin="round"></line><line x1="270.7727966308594" y1="193.39999389648438" x2="297.96599430969076" y2="209.09999389648436" stroke="black" stroke-width="3" stroke-linecap="round" stroke-linejoin="round"></line><line x1="270.7727875225814" y1="193.39999389648438" x2="243.57958984375" y2="209.09999389648436" stroke="black" stroke-width="3" stroke-linecap="round" stroke-linejoin="round"></line><line x1="297.96599430969076" y1="209.10000610351562" x2="270.7727966308594" y2="224.8000061035156" stroke="black" stroke-width="3" stroke-linecap="round" stroke-linejoin="round"></line><line x1="162" y1="99.19999923706055" x2="162" y2="67.79999923706055" stroke="black" stroke-width="1" stroke-linecap="round" stroke-linejoin="round"></line><line x1="162" y1="99.19999694824219" x2="189.19319767883138" y2="114.89999694824219" stroke="black" stroke-width="1" stroke-linecap="round" stroke-linejoin="round"></line><line x1="161.999990891722" y1="99.19999694824219" x2="134.80679321289062" y2="114.89999694824219" stroke="black" stroke-width="1" stroke-linecap="round" stroke-linejoin="round"></line><polygon points="162,99.2 190.0592230826158,83 190.0592230826158,115.4 162,131.1" stroke="none" fill="red"></polygon><polygon points="133.94078063964844,83 162.00000372226424,99.2 162.00000372226424,131.1 133.94078063964844,115.4" stroke="none" fill="blue"></polygon><polygon points="133.94078063964844,82.99999923706054 162.00000372226424,99.19999923706055 190.05922680488004,82.99999923706054 162.00000372226424,67.29999923706055" stroke="none" fill="yellow"></polygon><line x1="189.1931915283203" y1="114.9" x2="189.1931915283203" y2="83.5" stroke="black" stroke-width="1" stroke-linecap="round" stroke-linejoin="round"></line><line x1="189.1931915283203" y1="114.9000015258789" x2="216.3863892071517" y2="130.6000015258789" stroke="black" stroke-width="1" stroke-linecap="round" stroke-linejoin="round"></line><line x1="189.19319767883138" y1="114.9000015258789" x2="162" y2="130.6000015258789" stroke="black" stroke-width="1" stroke-linecap="round" stroke-linejoin="round"></line><polygon points="189.1931915283203,114.89999694824219 217.2524146109361,98.69999694824219 217.2524146109361,131.09999694824216 189.1931915283203,146.7999969482422" stroke="none" fill="red"></polygon><polygon points="161.13397216796875,98.69999694824219 189.19319525058458,114.89999694824219 189.19319525058458,146.7999969482422 161.13397216796875,131.09999694824216" stroke="none" fill="blue"></polygon><polygon points="161.13397216796875,98.7 189.19319525058458,114.9 217.25241833320038,98.7 189.19319525058458,83" stroke="none" fill="yellow"></polygon><line x1="216.3863983154297" y1="130.59999694824216" x2="216.3863983154297" y2="99.19999694824219" stroke="black" stroke-width="1" stroke-linecap="round" stroke-linejoin="round"></line><line x1="216.3863983154297" y1="130.5999984741211" x2="243.57959599426107" y2="146.29999847412108" stroke="black" stroke-width="1" stroke-linecap="round" stroke-linejoin="round"></line><line x1="216.3863892071517" y1="130.5999984741211" x2="189.1931915283203" y2="146.29999847412108" stroke="black" stroke-width="1" stroke-linecap="round" stroke-linejoin="round"></line><polygon points="216.3863983154297,130.6000015258789 244.4456213980455,114.4000015258789 244.4456213980455,146.8000015258789 216.3863983154297,162.5000015258789" stroke="none" fill="red"></polygon><polygon points="188.32717895507812,114.4000015258789 216.38640203769395,130.6000015258789 216.38640203769395,162.5000015258789 188.32717895507812,146.8000015258789" stroke="none" fill="blue"></polygon><polygon points="188.32717895507812,114.39999694824219 216.38640203769395,130.5999969482422 244.44562512030976,114.39999694824219 216.38640203769395,98.69999694824219" stroke="none" fill="yellow"></polygon><line x1="243.57958984375" y1="146.3000015258789" x2="243.57958984375" y2="114.9000015258789" stroke="black" stroke-width="3" stroke-linecap="round" stroke-linejoin="round"></line><line x1="243.57958984375" y1="146.3000030517578" x2="270.7727875225814" y2="162.0000030517578" stroke="black" stroke-width="3" stroke-linecap="round" stroke-linejoin="round"></line><line x1="243.57959599426107" y1="146.3000030517578" x2="216.3863983154297" y2="162.0000030517578" stroke="black" stroke-width="3" stroke-linecap="round" stroke-linejoin="round"></line><line x1="270.7727875225814" y1="162" x2="243.57958984375" y2="177.7" stroke="black" stroke-width="3" stroke-linecap="round" stroke-linejoin="round"></line><line x1="162" y1="67.79999961853028" x2="162" y2="36.39999961853027" stroke="black" stroke-width="1" stroke-linecap="round" stroke-linejoin="round"></line><line x1="162" y1="67.79999923706055" x2="189.19319767883138" y2="83.49999923706054" stroke="black" stroke-width="1" stroke-linecap="round" stroke-linejoin="round"></line><line x1="161.999990891722" y1="67.79999923706055" x2="134.80679321289062" y2="83.49999923706054" stroke="black" stroke-width="1" stroke-linecap="round" stroke-linejoin="round"></line><polygon points="162,67.7999984741211 190.0592230826158,51.599998474121094 190.0592230826158,83.99999847412109 162,99.69999847412109" stroke="none" fill="red"></polygon><polygon points="133.94078063964844,51.599998474121094 162.00000372226424,67.7999984741211 162.00000372226424,99.69999847412109 133.94078063964844,83.99999847412109" stroke="none" fill="blue"></polygon><polygon points="133.94078063964844,51.599999618530276 162.00000372226424,67.79999961853028 190.05922680488004,51.599999618530276 162.00000372226424,35.89999961853027" stroke="none" fill="yellow"></polygon><line x1="189.1931915283203" y1="83.4999984741211" x2="189.1931915283203" y2="52.099998474121094" stroke="black" stroke-width="1" stroke-linecap="round" stroke-linejoin="round"></line><line x1="189.1931915283203" y1="83.5" x2="216.3863892071517" y2="99.2" stroke="black" stroke-width="1" stroke-linecap="round" stroke-linejoin="round"></line><line x1="189.19319767883138" y1="83.5" x2="162" y2="99.2" stroke="black" stroke-width="1" stroke-linecap="round" stroke-linejoin="round"></line><polygon points="189.1931915283203,83.49999923706055 217.2524146109361,67.29999923706055 217.2524146109361,99.69999923706054 189.1931915283203,115.39999923706054" stroke="none" fill="red"></polygon><polygon points="161.13397216796875,67.29999923706055 189.19319525058458,83.49999923706055 189.19319525058458,115.39999923706054 161.13397216796875,99.69999923706054" stroke="none" fill="blue"></polygon><polygon points="161.13397216796875,67.29999847412108 189.19319525058458,83.4999984741211 217.25241833320038,67.29999847412108 189.19319525058458,51.599998474121094" stroke="none" fill="yellow"></polygon><line x1="216.3863983154297" y1="99.19999923706055" x2="216.3863983154297" y2="67.79999923706055" stroke="black" stroke-width="3" stroke-linecap="round" stroke-linejoin="round"></line><line x1="216.3863983154297" y1="99.19999694824219" x2="243.57959599426107" y2="114.89999694824219" stroke="black" stroke-width="3" stroke-linecap="round" stroke-linejoin="round"></line><line x1="216.3863892071517" y1="99.19999694824219" x2="189.1931915283203" y2="114.89999694824219" stroke="black" stroke-width="3" stroke-linecap="round" stroke-linejoin="round"></line><line x1="243.57959599426107" y1="114.9000015258789" x2="216.3863983154297" y2="130.6000015258789" stroke="black" stroke-width="3" stroke-linecap="round" stroke-linejoin="round"></line><line x1="162" y1="36.400000000000006" x2="162" y2="5.000000000000007" stroke="black" stroke-width="1" stroke-linecap="round" stroke-linejoin="round"></line><line x1="162" y1="36.39999961853027" x2="189.19319767883138" y2="52.099999618530276" stroke="black" stroke-width="1" stroke-linecap="round" stroke-linejoin="round"></line><line x1="161.999990891722" y1="36.39999961853027" x2="134.80679321289062" y2="52.099999618530276" stroke="black" stroke-width="1" stroke-linecap="round" stroke-linejoin="round"></line><polygon points="162,36.39999980926514 190.0592230826158,20.199999809265137 190.0592230826158,52.59999980926514 162,68.29999980926513" stroke="none" fill="red"></polygon><polygon points="133.94078063964844,20.199999809265137 162.00000372226424,36.39999980926514 162.00000372226424,68.29999980926513 133.94078063964844,52.59999980926514" stroke="none" fill="blue"></polygon><polygon points="133.94078063964844,20.2 162.00000372226424,36.4 190.05922680488004,20.2 162.00000372226424,4.5" stroke="none" fill="yellow"></polygon><line x1="189.1931915283203" y1="52.099999809265135" x2="189.1931915283203" y2="20.699999809265137" stroke="black" stroke-width="3" stroke-linecap="round" stroke-linejoin="round"></line><line x1="189.1931915283203" y1="52.099998474121094" x2="216.3863892071517" y2="67.7999984741211" stroke="black" stroke-width="3" stroke-linecap="round" stroke-linejoin="round"></line><line x1="189.19319767883138" y1="52.099998474121094" x2="162" y2="67.7999984741211" stroke="black" stroke-width="3" stroke-linecap="round" stroke-linejoin="round"></line><line x1="216.3863892071517" y1="67.79999923706055" x2="189.1931915283203" y2="83.49999923706055" stroke="black" stroke-width="3" stroke-linecap="round" stroke-linejoin="round"></line><line x1="162" y1="5.000000000000007" x2="189.19319767883138" y2="20.700000000000006" stroke="black" stroke-width="3" stroke-linecap="round" stroke-linejoin="round"></line><line x1="161.999990891722" y1="5.000000000000007" x2="134.80679321289062" y2="20.700000000000006" stroke="black" stroke-width="3" stroke-linecap="round" stroke-linejoin="round"></line><line x1="189.19319767883138" y1="20.699999809265137" x2="162" y2="36.39999980926514" stroke="black" stroke-width="3" stroke-linecap="round" stroke-linejoin="round"></line><line x1="134.80679321289062" y1="177.70000305175782" x2="134.80679321289062" y2="146.3000030517578" stroke="black" stroke-width="1" stroke-linecap="round" stroke-linejoin="round"></line><line x1="134.80679321289062" y1="177.6999969482422" x2="161.999990891722" y2="193.39999694824218" stroke="black" stroke-width="1" stroke-linecap="round" stroke-linejoin="round"></line><line x1="134.8067993634017" y1="177.6999969482422" x2="107.61360168457031" y2="193.39999694824218" stroke="black" stroke-width="1" stroke-linecap="round" stroke-linejoin="round"></line><polygon points="134.80679321289062,177.7 162.86601629550643,161.5 162.86601629550643,193.9 134.80679321289062,209.6" stroke="none" fill="red"></polygon><polygon points="106.7475814819336,161.5 134.8068045645494,177.7 134.8068045645494,209.6 106.7475814819336,193.9" stroke="none" fill="blue"></polygon><polygon points="106.7475814819336,161.5000030517578 134.8068045645494,177.70000305175782 162.8660276471652,161.5000030517578 134.8068045645494,145.8000030517578" stroke="none" fill="yellow"></polygon><line x1="162" y1="193.4" x2="162" y2="162" stroke="black" stroke-width="1" stroke-linecap="round" stroke-linejoin="round"></line><line x1="162" y1="193.39999389648438" x2="189.19319767883138" y2="209.09999389648436" stroke="black" stroke-width="1" stroke-linecap="round" stroke-linejoin="round"></line><line x1="161.999990891722" y1="193.39999389648438" x2="134.80679321289062" y2="209.09999389648436" stroke="black" stroke-width="1" stroke-linecap="round" stroke-linejoin="round"></line><polygon points="162,193.39999694824218 190.0592230826158,177.1999969482422 190.0592230826158,209.5999969482422 162,225.29999694824218" stroke="none" fill="red"></polygon><polygon points="133.94078063964844,177.1999969482422 162.00000372226424,193.39999694824218 162.00000372226424,225.29999694824218 133.94078063964844,209.5999969482422" stroke="none" fill="blue"></polygon><polygon points="133.94078063964844,177.2 162.00000372226424,193.4 190.05922680488004,177.2 162.00000372226424,161.5" stroke="none" fill="yellow"></polygon><line x1="189.1931915283203" y1="209.0999969482422" x2="189.1931915283203" y2="177.6999969482422" stroke="black" stroke-width="1" stroke-linecap="round" stroke-linejoin="round"></line><line x1="189.1931915283203" y1="209.10000610351562" x2="216.3863892071517" y2="224.8000061035156" stroke="black" stroke-width="1" stroke-linecap="round" stroke-linejoin="round"></line><line x1="189.19319767883138" y1="209.10000610351562" x2="162" y2="224.8000061035156" stroke="black" stroke-width="1" stroke-linecap="round" stroke-linejoin="round"></line><polygon points="189.1931915283203,209.09999389648436 217.2524146109361,192.89999389648438 217.2524146109361,225.29999389648438 189.1931915283203,240.99999389648437" stroke="none" fill="red"></polygon><polygon points="161.13397216796875,192.89999389648438 189.19319525058458,209.09999389648436 189.19319525058458,240.99999389648437 161.13397216796875,225.29999389648438" stroke="none" fill="blue"></polygon><polygon points="161.13397216796875,192.89999694824218 189.19319525058458,209.0999969482422 217.25241833320038,192.89999694824218 189.19319525058458,177.1999969482422" stroke="none" fill="yellow"></polygon><line x1="216.3863983154297" y1="224.79999389648438" x2="216.3863983154297" y2="193.39999389648438" stroke="black" stroke-width="1" stroke-linecap="round" stroke-linejoin="round"></line><line x1="216.3863983154297" y1="224.8000030517578" x2="243.57959599426107" y2="240.5000030517578" stroke="black" stroke-width="1" stroke-linecap="round" stroke-linejoin="round"></line><line x1="216.3863892071517" y1="224.8000030517578" x2="189.1931915283203" y2="240.5000030517578" stroke="black" stroke-width="1" stroke-linecap="round" stroke-linejoin="round"></line><polygon points="216.3863983154297,224.8000061035156 244.4456213980455,208.60000610351562 244.4456213980455,241.00000610351563 216.3863983154297,256.70000610351565" stroke="none" fill="red"></polygon><polygon points="188.32717895507812,208.60000610351562 216.38640203769395,224.8000061035156 216.38640203769395,256.70000610351565 188.32717895507812,241.00000610351563" stroke="none" fill="blue"></polygon><polygon points="188.32717895507812,208.59999389648436 216.38640203769395,224.79999389648438 244.44562512030976,208.59999389648436 216.38640203769395,192.89999389648438" stroke="none" fill="yellow"></polygon><line x1="243.57958984375" y1="240.50000610351563" x2="243.57958984375" y2="209.10000610351562" stroke="black" stroke-width="1" stroke-linecap="round" stroke-linejoin="round"></line><line x1="243.57958984375" y1="240.5" x2="270.7727875225814" y2="256.2" stroke="black" stroke-width="1" stroke-linecap="round" stroke-linejoin="round"></line><line x1="243.57959599426107" y1="240.5" x2="216.3863983154297" y2="256.2" stroke="black" stroke-width="1" stroke-linecap="round" stroke-linejoin="round"></line><polygon points="243.57958984375,240.5000030517578 271.6388129263658,224.3000030517578 271.6388129263658,256.7000030517578 243.57958984375,272.4000030517578" stroke="none" fill="red"></polygon><polygon points="215.52037048339844,224.3000030517578 243.57959356601427,240.5000030517578 243.57959356601427,272.4000030517578 215.52037048339844,256.7000030517578" stroke="none" fill="blue"></polygon><polygon points="215.52037048339844,224.3000061035156 243.57959356601427,240.50000610351563 271.63881664863004,224.3000061035156 243.57959356601427,208.60000610351562" stroke="none" fill="yellow"></polygon><line x1="270.7727966308594" y1="256.2000030517578" x2="270.7727966308594" y2="224.8000030517578" stroke="black" stroke-width="1" stroke-linecap="round" stroke-linejoin="round"></line><line x1="270.7727875225814" y1="256.1999969482422" x2="243.57958984375" y2="271.8999969482422" stroke="black" stroke-width="3" stroke-linecap="round" stroke-linejoin="round"></line><line x1="134.80679321289062" y1="146.3000015258789" x2="134.80679321289062" y2="114.9000015258789" stroke="black" stroke-width="1" stroke-linecap="round" stroke-linejoin="round"></line><line x1="134.80679321289062" y1="146.3000030517578" x2="161.999990891722" y2="162.0000030517578" stroke="black" stroke-width="1" stroke-linecap="round" stroke-linejoin="round"></line><line x1="134.8067993634017" y1="146.3000030517578" x2="107.61360168457031" y2="162.0000030517578" stroke="black" stroke-width="1" stroke-linecap="round" stroke-linejoin="round"></line><polygon points="134.80679321289062,146.29999847412108 162.86601629550643,130.0999984741211 162.86601629550643,162.49999847412107 134.80679321289062,178.19999847412106" stroke="none" fill="red"></polygon><polygon points="106.7475814819336,130.0999984741211 134.8068045645494,146.29999847412108 134.8068045645494,178.19999847412106 106.7475814819336,162.49999847412107" stroke="none" fill="blue"></polygon><polygon points="106.7475814819336,130.1000015258789 134.8068045645494,146.3000015258789 162.8660276471652,130.1000015258789 134.8068045645494,114.4000015258789" stroke="none" fill="yellow"></polygon><line x1="162" y1="161.9999984741211" x2="162" y2="130.5999984741211" stroke="black" stroke-width="1" stroke-linecap="round" stroke-linejoin="round"></line><line x1="162" y1="162" x2="189.19319767883138" y2="177.7" stroke="black" stroke-width="1" stroke-linecap="round" stroke-linejoin="round"></line><line x1="161.999990891722" y1="162" x2="134.80679321289062" y2="177.7" stroke="black" stroke-width="1" stroke-linecap="round" stroke-linejoin="round"></line><polygon points="162,162.0000030517578 190.0592230826158,145.8000030517578 190.0592230826158,178.20000305175782 162,193.9000030517578" stroke="none" fill="red"></polygon><polygon points="133.94078063964844,145.8000030517578 162.00000372226424,162.0000030517578 162.00000372226424,193.9000030517578 133.94078063964844,178.20000305175782" stroke="none" fill="blue"></polygon><polygon points="133.94078063964844,145.79999847412108 162.00000372226424,161.9999984741211 190.05922680488004,145.79999847412108 162.00000372226424,130.0999984741211" stroke="none" fill="yellow"></polygon><line x1="189.1931915283203" y1="177.70000305175782" x2="189.1931915283203" y2="146.3000030517578" stroke="black" stroke-width="1" stroke-linecap="round" stroke-linejoin="round"></line><line x1="189.1931915283203" y1="177.6999969482422" x2="216.3863892071517" y2="193.39999694824218" stroke="black" stroke-width="1" stroke-linecap="round" stroke-linejoin="round"></line><line x1="189.19319767883138" y1="177.6999969482422" x2="162" y2="193.39999694824218" stroke="black" stroke-width="1" stroke-linecap="round" stroke-linejoin="round"></line><polygon points="189.1931915283203,177.7 217.2524146109361,161.5 217.2524146109361,193.9 189.1931915283203,209.6" stroke="none" fill="red"></polygon><polygon points="161.13397216796875,161.5 189.19319525058458,177.7 189.19319525058458,209.6 161.13397216796875,193.9" stroke="none" fill="blue"></polygon><polygon points="161.13397216796875,161.5000030517578 189.19319525058458,177.70000305175782 217.25241833320038,161.5000030517578 189.19319525058458,145.8000030517578" stroke="none" fill="yellow"></polygon><line x1="216.3863983154297" y1="193.4" x2="216.3863983154297" y2="162" stroke="black" stroke-width="1" stroke-linecap="round" stroke-linejoin="round"></line><line x1="216.3863983154297" y1="193.39999389648438" x2="243.57959599426107" y2="209.09999389648436" stroke="black" stroke-width="1" stroke-linecap="round" stroke-linejoin="round"></line><line x1="216.3863892071517" y1="193.39999389648438" x2="189.1931915283203" y2="209.09999389648436" stroke="black" stroke-width="1" stroke-linecap="round" stroke-linejoin="round"></line><polygon points="216.3863983154297,193.39999694824218 244.4456213980455,177.1999969482422 244.4456213980455,209.5999969482422 216.3863983154297,225.29999694824218" stroke="none" fill="red"></polygon><polygon points="188.32717895507812,177.1999969482422 216.38640203769395,193.39999694824218 216.38640203769395,225.29999694824218 188.32717895507812,209.5999969482422" stroke="none" fill="blue"></polygon><polygon points="188.32717895507812,177.2 216.38640203769395,193.4 244.44562512030976,177.2 216.38640203769395,161.5" stroke="none" fill="yellow"></polygon><line x1="243.57958984375" y1="209.0999969482422" x2="243.57958984375" y2="177.6999969482422" stroke="black" stroke-width="1" stroke-linecap="round" stroke-linejoin="round"></line><line x1="243.57958984375" y1="209.10000610351562" x2="270.7727875225814" y2="224.8000061035156" stroke="black" stroke-width="1" stroke-linecap="round" stroke-linejoin="round"></line><line x1="243.57959599426107" y1="209.10000610351562" x2="216.3863983154297" y2="224.8000061035156" stroke="black" stroke-width="3" stroke-linecap="round" stroke-linejoin="round"></line><line x1="270.7727875225814" y1="224.8000030517578" x2="243.57958984375" y2="240.5000030517578" stroke="black" stroke-width="3" stroke-linecap="round" stroke-linejoin="round"></line><line x1="134.80679321289062" y1="114.9" x2="134.80679321289062" y2="83.5" stroke="black" stroke-width="1" stroke-linecap="round" stroke-linejoin="round"></line><line x1="134.80679321289062" y1="114.9000015258789" x2="161.999990891722" y2="130.6000015258789" stroke="black" stroke-width="1" stroke-linecap="round" stroke-linejoin="round"></line><line x1="134.8067993634017" y1="114.9000015258789" x2="107.61360168457031" y2="130.6000015258789" stroke="black" stroke-width="1" stroke-linecap="round" stroke-linejoin="round"></line><polygon points="134.80679321289062,114.89999694824219 162.86601629550643,98.69999694824219 162.86601629550643,131.09999694824216 134.80679321289062,146.7999969482422" stroke="none" fill="red"></polygon><polygon points="106.7475814819336,98.69999694824219 134.8068045645494,114.89999694824219 134.8068045645494,146.7999969482422 106.7475814819336,131.09999694824216" stroke="none" fill="blue"></polygon><polygon points="106.7475814819336,98.7 134.8068045645494,114.9 162.8660276471652,98.7 134.8068045645494,83" stroke="none" fill="yellow"></polygon><line x1="162" y1="130.59999694824216" x2="162" y2="99.19999694824219" stroke="black" stroke-width="1" stroke-linecap="round" stroke-linejoin="round"></line><line x1="162" y1="130.5999984741211" x2="189.19319767883138" y2="146.29999847412108" stroke="black" stroke-width="1" stroke-linecap="round" stroke-linejoin="round"></line><line x1="161.999990891722" y1="130.5999984741211" x2="134.80679321289062" y2="146.29999847412108" stroke="black" stroke-width="1" stroke-linecap="round" stroke-linejoin="round"></line><polygon points="162,130.6000015258789 190.0592230826158,114.4000015258789 190.0592230826158,146.8000015258789 162,162.5000015258789" stroke="none" fill="red"></polygon><polygon points="133.94078063964844,114.4000015258789 162.00000372226424,130.6000015258789 162.00000372226424,162.5000015258789 133.94078063964844,146.8000015258789" stroke="none" fill="blue"></polygon><polygon points="133.94078063964844,114.39999694824219 162.00000372226424,130.5999969482422 190.05922680488004,114.39999694824219 162.00000372226424,98.69999694824219" stroke="none" fill="yellow"></polygon><line x1="189.1931915283203" y1="146.3000015258789" x2="189.1931915283203" y2="114.9000015258789" stroke="black" stroke-width="1" stroke-linecap="round" stroke-linejoin="round"></line><line x1="189.1931915283203" y1="146.3000030517578" x2="216.3863892071517" y2="162.0000030517578" stroke="black" stroke-width="1" stroke-linecap="round" stroke-linejoin="round"></line><line x1="189.19319767883138" y1="146.3000030517578" x2="162" y2="162.0000030517578" stroke="black" stroke-width="1" stroke-linecap="round" stroke-linejoin="round"></line><polygon points="189.1931915283203,146.29999847412108 217.2524146109361,130.0999984741211 217.2524146109361,162.49999847412107 189.1931915283203,178.19999847412106" stroke="none" fill="red"></polygon><polygon points="161.13397216796875,130.0999984741211 189.19319525058458,146.29999847412108 189.19319525058458,178.19999847412106 161.13397216796875,162.49999847412107" stroke="none" fill="blue"></polygon><polygon points="161.13397216796875,130.1000015258789 189.19319525058458,146.3000015258789 217.25241833320038,130.1000015258789 189.19319525058458,114.4000015258789" stroke="none" fill="yellow"></polygon><line x1="216.3863983154297" y1="161.9999984741211" x2="216.3863983154297" y2="130.5999984741211" stroke="black" stroke-width="1" stroke-linecap="round" stroke-linejoin="round"></line><line x1="216.3863983154297" y1="162" x2="243.57959599426107" y2="177.7" stroke="black" stroke-width="1" stroke-linecap="round" stroke-linejoin="round"></line><line x1="216.3863892071517" y1="162" x2="189.1931915283203" y2="177.7" stroke="black" stroke-width="3" stroke-linecap="round" stroke-linejoin="round"></line><line x1="243.57959599426107" y1="177.6999969482422" x2="216.3863983154297" y2="193.39999694824218" stroke="black" stroke-width="3" stroke-linecap="round" stroke-linejoin="round"></line><line x1="134.80679321289062" y1="83.4999984741211" x2="134.80679321289062" y2="52.099998474121094" stroke="black" stroke-width="1" stroke-linecap="round" stroke-linejoin="round"></line><line x1="134.80679321289062" y1="83.5" x2="161.999990891722" y2="99.2" stroke="black" stroke-width="1" stroke-linecap="round" stroke-linejoin="round"></line><line x1="134.8067993634017" y1="83.5" x2="107.61360168457031" y2="99.2" stroke="black" stroke-width="1" stroke-linecap="round" stroke-linejoin="round"></line><polygon points="134.80679321289062,83.49999923706055 162.86601629550643,67.29999923706055 162.86601629550643,99.69999923706054 134.80679321289062,115.39999923706054" stroke="none" fill="red"></polygon><polygon points="106.7475814819336,67.29999923706055 134.8068045645494,83.49999923706055 134.8068045645494,115.39999923706054 106.7475814819336,99.69999923706054" stroke="none" fill="blue"></polygon><polygon points="106.7475814819336,67.29999847412108 134.8068045645494,83.4999984741211 162.8660276471652,67.29999847412108 134.8068045645494,51.599998474121094" stroke="none" fill="yellow"></polygon><line x1="162" y1="99.19999923706055" x2="162" y2="67.79999923706055" stroke="black" stroke-width="1" stroke-linecap="round" stroke-linejoin="round"></line><line x1="162" y1="99.19999694824219" x2="189.19319767883138" y2="114.89999694824219" stroke="black" stroke-width="1" stroke-linecap="round" stroke-linejoin="round"></line><line x1="161.999990891722" y1="99.19999694824219" x2="134.80679321289062" y2="114.89999694824219" stroke="black" stroke-width="1" stroke-linecap="round" stroke-linejoin="round"></line><polygon points="162,99.2 190.0592230826158,83 190.0592230826158,115.39999999999999 162,131.1" stroke="none" fill="red"></polygon><polygon points="133.94078063964844,83 162.00000372226424,99.2 162.00000372226424,131.1 133.94078063964844,115.39999999999999" stroke="none" fill="blue"></polygon><polygon points="133.94078063964844,82.99999923706054 162.00000372226424,99.19999923706055 190.05922680488004,82.99999923706054 162.00000372226424,67.29999923706055" stroke="none" fill="yellow"></polygon><line x1="189.1931915283203" y1="114.9" x2="189.1931915283203" y2="83.5" stroke="black" stroke-width="1" stroke-linecap="round" stroke-linejoin="round"></line><line x1="189.1931915283203" y1="114.9000015258789" x2="216.3863892071517" y2="130.6000015258789" stroke="black" stroke-width="1" stroke-linecap="round" stroke-linejoin="round"></line><line x1="189.19319767883138" y1="114.9000015258789" x2="162" y2="130.6000015258789" stroke="black" stroke-width="3" stroke-linecap="round" stroke-linejoin="round"></line><line x1="216.3863892071517" y1="130.5999984741211" x2="189.1931915283203" y2="146.29999847412108" stroke="black" stroke-width="3" stroke-linecap="round" stroke-linejoin="round"></line><line x1="134.80679321289062" y1="52.099999809265135" x2="134.80679321289062" y2="20.699999809265137" stroke="black" stroke-width="3" stroke-linecap="round" stroke-linejoin="round"></line><line x1="134.80679321289062" y1="52.099998474121094" x2="161.999990891722" y2="67.7999984741211" stroke="black" stroke-width="3" stroke-linecap="round" stroke-linejoin="round"></line><line x1="134.8067993634017" y1="52.099998474121094" x2="107.61360168457031" y2="67.7999984741211" stroke="black" stroke-width="3" stroke-linecap="round" stroke-linejoin="round"></line><line x1="162" y1="67.79999961853028" x2="162" y2="36.39999961853027" stroke="black" stroke-width="3" stroke-linecap="round" stroke-linejoin="round"></line><line x1="162" y1="67.79999923706055" x2="189.19319767883138" y2="83.49999923706055" stroke="black" stroke-width="1" stroke-linecap="round" stroke-linejoin="round"></line><line x1="161.999990891722" y1="67.79999923706055" x2="134.80679321289062" y2="83.49999923706055" stroke="black" stroke-width="1" stroke-linecap="round" stroke-linejoin="round"></line><line x1="189.19319767883138" y1="83.5" x2="162" y2="99.2" stroke="black" stroke-width="3" stroke-linecap="round" stroke-linejoin="round"></line><line x1="134.80679321289062" y1="20.699999809265137" x2="161.999990891722" y2="36.39999980926514" stroke="black" stroke-width="3" stroke-linecap="round" stroke-linejoin="round"></line><line x1="107.61360168457031" y1="193.4" x2="107.61360168457031" y2="162" stroke="black" stroke-width="1" stroke-linecap="round" stroke-linejoin="round"></line><line x1="107.61360168457031" y1="193.39999389648438" x2="134.8067993634017" y2="209.09999389648436" stroke="black" stroke-width="1" stroke-linecap="round" stroke-linejoin="round"></line><line x1="107.61360020568684" y1="193.39999389648438" x2="80.42040252685547" y2="209.09999389648436" stroke="black" stroke-width="1" stroke-linecap="round" stroke-linejoin="round"></line><polygon points="107.61360168457031,193.39999694824218 135.6728247671861,177.1999969482422 135.6728247671861,209.5999969482422 107.61360168457031,225.29999694824218" stroke="none" fill="red"></polygon><polygon points="79.55438232421875,177.1999969482422 107.61360540683455,193.39999694824218 107.61360540683455,225.29999694824218 79.55438232421875,209.5999969482422" stroke="none" fill="blue"></polygon><polygon points="79.55438232421875,177.2 107.61360540683455,193.4 135.67282848945038,177.2 107.61360540683455,161.5" stroke="none" fill="yellow"></polygon><line x1="134.80679321289062" y1="209.0999969482422" x2="134.80679321289062" y2="177.6999969482422" stroke="black" stroke-width="1" stroke-linecap="round" stroke-linejoin="round"></line><line x1="134.80679321289062" y1="209.10000610351562" x2="161.999990891722" y2="224.8000061035156" stroke="black" stroke-width="1" stroke-linecap="round" stroke-linejoin="round"></line><line x1="134.8067993634017" y1="209.10000610351562" x2="107.61360168457031" y2="224.8000061035156" stroke="black" stroke-width="1" stroke-linecap="round" stroke-linejoin="round"></line><polygon points="134.80679321289062,209.09999389648436 162.86601629550643,192.89999389648438 162.86601629550643,225.29999389648438 134.80679321289062,240.99999389648437" stroke="none" fill="red"></polygon><polygon points="106.7475814819336,192.89999389648438 134.8068045645494,209.09999389648436 134.8068045645494,240.99999389648437 106.7475814819336,225.29999389648438" stroke="none" fill="blue"></polygon><polygon points="106.7475814819336,192.89999694824218 134.8068045645494,209.0999969482422 162.8660276471652,192.89999694824218 134.8068045645494,177.1999969482422" stroke="none" fill="yellow"></polygon><line x1="162" y1="224.79999389648438" x2="162" y2="193.39999389648438" stroke="black" stroke-width="1" stroke-linecap="round" stroke-linejoin="round"></line><line x1="162" y1="224.8000030517578" x2="189.19319767883138" y2="240.5000030517578" stroke="black" stroke-width="1" stroke-linecap="round" stroke-linejoin="round"></line><line x1="161.999990891722" y1="224.8000030517578" x2="134.80679321289062" y2="240.5000030517578" stroke="black" stroke-width="1" stroke-linecap="round" stroke-linejoin="round"></line><polygon points="162,224.8000061035156 190.0592230826158,208.60000610351562 190.0592230826158,241.00000610351563 162,256.70000610351565" stroke="none" fill="red"></polygon><polygon points="133.94078063964844,208.60000610351562 162.00000372226424,224.8000061035156 162.00000372226424,256.70000610351565 133.94078063964844,241.00000610351563" stroke="none" fill="blue"></polygon><polygon points="133.94078063964844,208.59999389648436 162.00000372226424,224.79999389648438 190.05922680488004,208.59999389648436 162.00000372226424,192.89999389648438" stroke="none" fill="yellow"></polygon><line x1="189.1931915283203" y1="240.50000610351563" x2="189.1931915283203" y2="209.10000610351562" stroke="black" stroke-width="1" stroke-linecap="round" stroke-linejoin="round"></line><line x1="189.1931915283203" y1="240.5" x2="216.3863892071517" y2="256.2" stroke="black" stroke-width="1" stroke-linecap="round" stroke-linejoin="round"></line><line x1="189.19319767883138" y1="240.5" x2="162" y2="256.2" stroke="black" stroke-width="1" stroke-linecap="round" stroke-linejoin="round"></line><polygon points="189.1931915283203,240.5000030517578 217.2524146109361,224.3000030517578 217.2524146109361,256.7000030517578 189.1931915283203,272.4000030517578" stroke="none" fill="red"></polygon><polygon points="161.13397216796875,224.3000030517578 189.19319525058458,240.5000030517578 189.19319525058458,272.4000030517578 161.13397216796875,256.7000030517578" stroke="none" fill="blue"></polygon><polygon points="161.13397216796875,224.3000061035156 189.19319525058458,240.50000610351563 217.25241833320038,224.3000061035156 189.19319525058458,208.60000610351562" stroke="none" fill="yellow"></polygon><line x1="216.3863983154297" y1="256.2000030517578" x2="216.3863983154297" y2="224.8000030517578" stroke="black" stroke-width="1" stroke-linecap="round" stroke-linejoin="round"></line><line x1="216.3863983154297" y1="256.1999969482422" x2="243.57959599426107" y2="271.8999969482422" stroke="black" stroke-width="1" stroke-linecap="round" stroke-linejoin="round"></line><line x1="216.3863892071517" y1="256.1999969482422" x2="189.1931915283203" y2="271.8999969482422" stroke="black" stroke-width="1" stroke-linecap="round" stroke-linejoin="round"></line><polygon points="216.3863983154297,256.2 244.4456213980455,240 244.4456213980455,272.4 216.3863983154297,288.1" stroke="none" fill="red"></polygon><polygon points="188.32717895507812,240 216.38640203769395,256.2 216.38640203769395,288.1 188.32717895507812,272.4" stroke="none" fill="blue"></polygon><polygon points="188.32717895507812,240.0000030517578 216.38640203769395,256.2000030517578 244.44562512030976,240.0000030517578 216.38640203769395,224.3000030517578" stroke="none" fill="yellow"></polygon><line x1="243.57958984375" y1="271.9" x2="243.57958984375" y2="240.5" stroke="black" stroke-width="1" stroke-linecap="round" stroke-linejoin="round"></line><line x1="243.57959599426107" y1="271.8999938964844" x2="216.3863983154297" y2="287.59999389648436" stroke="black" stroke-width="3" stroke-linecap="round" stroke-linejoin="round"></line><line x1="107.61360168457031" y1="161.9999984741211" x2="107.61360168457031" y2="130.5999984741211" stroke="black" stroke-width="1" stroke-linecap="round" stroke-linejoin="round"></line><line x1="107.61360168457031" y1="162" x2="134.8067993634017" y2="177.7" stroke="black" stroke-width="1" stroke-linecap="round" stroke-linejoin="round"></line><line x1="107.61360020568684" y1="162" x2="80.42040252685547" y2="177.7" stroke="black" stroke-width="1" stroke-linecap="round" stroke-linejoin="round"></line><polygon points="107.61360168457031,162.0000030517578 135.6728247671861,145.8000030517578 135.6728247671861,178.20000305175782 107.61360168457031,193.9000030517578" stroke="none" fill="red"></polygon><polygon points="79.55438232421875,145.8000030517578 107.61360540683455,162.0000030517578 107.61360540683455,193.9000030517578 79.55438232421875,178.20000305175782" stroke="none" fill="blue"></polygon><polygon points="79.55438232421875,145.79999847412108 107.61360540683455,161.9999984741211 135.67282848945038,145.79999847412108 107.61360540683455,130.0999984741211" stroke="none" fill="yellow"></polygon><line x1="134.80679321289062" y1="177.70000305175782" x2="134.80679321289062" y2="146.3000030517578" stroke="black" stroke-width="1" stroke-linecap="round" stroke-linejoin="round"></line><line x1="134.80679321289062" y1="177.6999969482422" x2="161.999990891722" y2="193.39999694824218" stroke="black" stroke-width="1" stroke-linecap="round" stroke-linejoin="round"></line><line x1="134.8067993634017" y1="177.6999969482422" x2="107.61360168457031" y2="193.39999694824218" stroke="black" stroke-width="1" stroke-linecap="round" stroke-linejoin="round"></line><polygon points="134.80679321289062,177.7 162.86601629550643,161.5 162.86601629550643,193.9 134.80679321289062,209.6" stroke="none" fill="red"></polygon><polygon points="106.7475814819336,161.5 134.8068045645494,177.7 134.8068045645494,209.6 106.7475814819336,193.9" stroke="none" fill="blue"></polygon><polygon points="106.7475814819336,161.5000030517578 134.8068045645494,177.70000305175782 162.8660276471652,161.5000030517578 134.8068045645494,145.8000030517578" stroke="none" fill="yellow"></polygon><line x1="162" y1="193.4" x2="162" y2="162" stroke="black" stroke-width="1" stroke-linecap="round" stroke-linejoin="round"></line><line x1="162" y1="193.39999389648438" x2="189.19319767883138" y2="209.09999389648436" stroke="black" stroke-width="1" stroke-linecap="round" stroke-linejoin="round"></line><line x1="161.999990891722" y1="193.39999389648438" x2="134.80679321289062" y2="209.09999389648436" stroke="black" stroke-width="1" stroke-linecap="round" stroke-linejoin="round"></line><polygon points="162,193.39999694824218 190.0592230826158,177.1999969482422 190.0592230826158,209.5999969482422 162,225.29999694824218" stroke="none" fill="red"></polygon><polygon points="133.94078063964844,177.1999969482422 162.00000372226424,193.39999694824218 162.00000372226424,225.29999694824218 133.94078063964844,209.5999969482422" stroke="none" fill="blue"></polygon><polygon points="133.94078063964844,177.2 162.00000372226424,193.4 190.05922680488004,177.2 162.00000372226424,161.5" stroke="none" fill="yellow"></polygon><line x1="189.1931915283203" y1="209.0999969482422" x2="189.1931915283203" y2="177.6999969482422" stroke="black" stroke-width="1" stroke-linecap="round" stroke-linejoin="round"></line><line x1="189.1931915283203" y1="209.10000610351562" x2="216.3863892071517" y2="224.8000061035156" stroke="black" stroke-width="1" stroke-linecap="round" stroke-linejoin="round"></line><line x1="189.19319767883138" y1="209.10000610351562" x2="162" y2="224.8000061035156" stroke="black" stroke-width="1" stroke-linecap="round" stroke-linejoin="round"></line><polygon points="189.1931915283203,209.09999389648436 217.2524146109361,192.89999389648438 217.2524146109361,225.29999389648438 189.1931915283203,240.99999389648437" stroke="none" fill="red"></polygon><polygon points="161.13397216796875,192.89999389648438 189.19319525058458,209.09999389648436 189.19319525058458,240.99999389648437 161.13397216796875,225.29999389648438" stroke="none" fill="blue"></polygon><polygon points="161.13397216796875,192.89999694824218 189.19319525058458,209.0999969482422 217.25241833320038,192.89999694824218 189.19319525058458,177.1999969482422" stroke="none" fill="yellow"></polygon><line x1="216.3863983154297" y1="224.79999389648438" x2="216.3863983154297" y2="193.39999389648438" stroke="black" stroke-width="1" stroke-linecap="round" stroke-linejoin="round"></line><line x1="216.3863983154297" y1="224.8000030517578" x2="243.57959599426107" y2="240.5000030517578" stroke="black" stroke-width="1" stroke-linecap="round" stroke-linejoin="round"></line><line x1="216.3863892071517" y1="224.8000030517578" x2="189.1931915283203" y2="240.5000030517578" stroke="black" stroke-width="3" stroke-linecap="round" stroke-linejoin="round"></line><line x1="243.57959599426107" y1="240.5" x2="216.3863983154297" y2="256.2" stroke="black" stroke-width="3" stroke-linecap="round" stroke-linejoin="round"></line><line x1="107.61360168457031" y1="130.59999694824216" x2="107.61360168457031" y2="99.19999694824219" stroke="black" stroke-width="1" stroke-linecap="round" stroke-linejoin="round"></line><line x1="107.61360168457031" y1="130.5999984741211" x2="134.8067993634017" y2="146.29999847412108" stroke="black" stroke-width="1" stroke-linecap="round" stroke-linejoin="round"></line><line x1="107.61360020568684" y1="130.5999984741211" x2="80.42040252685547" y2="146.29999847412108" stroke="black" stroke-width="1" stroke-linecap="round" stroke-linejoin="round"></line><polygon points="107.61360168457031,130.6000015258789 135.6728247671861,114.4000015258789 135.6728247671861,146.8000015258789 107.61360168457031,162.5000015258789" stroke="none" fill="red"></polygon><polygon points="79.55438232421875,114.4000015258789 107.61360540683455,130.6000015258789 107.61360540683455,162.5000015258789 79.55438232421875,146.8000015258789" stroke="none" fill="blue"></polygon><polygon points="79.55438232421875,114.39999694824219 107.61360540683455,130.5999969482422 135.67282848945038,114.39999694824219 107.61360540683455,98.69999694824219" stroke="none" fill="yellow"></polygon><line x1="134.80679321289062" y1="146.3000015258789" x2="134.80679321289062" y2="114.9000015258789" stroke="black" stroke-width="1" stroke-linecap="round" stroke-linejoin="round"></line><line x1="134.80679321289062" y1="146.3000030517578" x2="161.999990891722" y2="162.0000030517578" stroke="black" stroke-width="1" stroke-linecap="round" stroke-linejoin="round"></line><line x1="134.8067993634017" y1="146.3000030517578" x2="107.61360168457031" y2="162.0000030517578" stroke="black" stroke-width="1" stroke-linecap="round" stroke-linejoin="round"></line><polygon points="134.80679321289062,146.29999847412108 162.86601629550643,130.0999984741211 162.86601629550643,162.49999847412107 134.80679321289062,178.19999847412106" stroke="none" fill="red"></polygon><polygon points="106.7475814819336,130.0999984741211 134.8068045645494,146.29999847412108 134.8068045645494,178.19999847412106 106.7475814819336,162.49999847412107" stroke="none" fill="blue"></polygon><polygon points="106.7475814819336,130.1000015258789 134.8068045645494,146.3000015258789 162.8660276471652,130.1000015258789 134.8068045645494,114.4000015258789" stroke="none" fill="yellow"></polygon><line x1="162" y1="161.9999984741211" x2="162" y2="130.5999984741211" stroke="black" stroke-width="1" stroke-linecap="round" stroke-linejoin="round"></line><line x1="162" y1="162" x2="189.19319767883138" y2="177.7" stroke="black" stroke-width="1" stroke-linecap="round" stroke-linejoin="round"></line><line x1="161.999990891722" y1="162" x2="134.80679321289062" y2="177.7" stroke="black" stroke-width="1" stroke-linecap="round" stroke-linejoin="round"></line><polygon points="162,162.0000030517578 190.0592230826158,145.8000030517578 190.0592230826158,178.20000305175782 162,193.9000030517578" stroke="none" fill="red"></polygon><polygon points="133.94078063964844,145.8000030517578 162.00000372226424,162.0000030517578 162.00000372226424,193.9000030517578 133.94078063964844,178.20000305175782" stroke="none" fill="blue"></polygon><polygon points="133.94078063964844,145.79999847412108 162.00000372226424,161.9999984741211 190.05922680488004,145.79999847412108 162.00000372226424,130.0999984741211" stroke="none" fill="yellow"></polygon><line x1="189.1931915283203" y1="177.70000305175782" x2="189.1931915283203" y2="146.3000030517578" stroke="black" stroke-width="1" stroke-linecap="round" stroke-linejoin="round"></line><line x1="189.1931915283203" y1="177.6999969482422" x2="216.3863892071517" y2="193.39999694824218" stroke="black" stroke-width="1" stroke-linecap="round" stroke-linejoin="round"></line><line x1="189.19319767883138" y1="177.6999969482422" x2="162" y2="193.39999694824218" stroke="black" stroke-width="3" stroke-linecap="round" stroke-linejoin="round"></line><line x1="216.3863892071517" y1="193.39999389648438" x2="189.1931915283203" y2="209.09999389648436" stroke="black" stroke-width="3" stroke-linecap="round" stroke-linejoin="round"></line><line x1="107.61360168457031" y1="99.19999923706055" x2="107.61360168457031" y2="67.79999923706055" stroke="black" stroke-width="3" stroke-linecap="round" stroke-linejoin="round"></line><line x1="107.61360168457031" y1="99.19999694824219" x2="134.8067993634017" y2="114.89999694824219" stroke="black" stroke-width="3" stroke-linecap="round" stroke-linejoin="round"></line><line x1="107.61360020568684" y1="99.19999694824219" x2="80.42040252685547" y2="114.89999694824219" stroke="black" stroke-width="3" stroke-linecap="round" stroke-linejoin="round"></line><line x1="134.80679321289062" y1="114.9" x2="134.80679321289062" y2="83.5" stroke="black" stroke-width="1" stroke-linecap="round" stroke-linejoin="round"></line><line x1="134.80679321289062" y1="114.9000015258789" x2="161.999990891722" y2="130.6000015258789" stroke="black" stroke-width="3" stroke-linecap="round" stroke-linejoin="round"></line><line x1="134.8067993634017" y1="114.9000015258789" x2="107.61360168457031" y2="130.6000015258789" stroke="black" stroke-width="1" stroke-linecap="round" stroke-linejoin="round"></line><line x1="162" y1="130.5999969482422" x2="162" y2="99.19999694824219" stroke="black" stroke-width="3" stroke-linecap="round" stroke-linejoin="round"></line><line x1="162" y1="130.5999984741211" x2="189.19319767883138" y2="146.29999847412108" stroke="black" stroke-width="1" stroke-linecap="round" stroke-linejoin="round"></line><line x1="161.999990891722" y1="130.5999984741211" x2="134.80679321289062" y2="146.29999847412108" stroke="black" stroke-width="1" stroke-linecap="round" stroke-linejoin="round"></line><line x1="189.19319767883138" y1="146.3000030517578" x2="162" y2="162.0000030517578" stroke="black" stroke-width="3" stroke-linecap="round" stroke-linejoin="round"></line><line x1="107.61360168457031" y1="67.79999923706055" x2="134.8067993634017" y2="83.49999923706055" stroke="black" stroke-width="3" stroke-linecap="round" stroke-linejoin="round"></line><line x1="134.80679321289062" y1="83.5" x2="161.999990891722" y2="99.2" stroke="black" stroke-width="3" stroke-linecap="round" stroke-linejoin="round"></line><line x1="80.42040252685547" y1="209.0999969482422" x2="80.42040252685547" y2="177.6999969482422" stroke="black" stroke-width="1" stroke-linecap="round" stroke-linejoin="round"></line><line x1="80.42040252685547" y1="209.10000610351562" x2="107.61360020568684" y2="224.8000061035156" stroke="black" stroke-width="1" stroke-linecap="round" stroke-linejoin="round"></line><line x1="80.42040486266926" y1="209.10000610351562" x2="53.22720718383789" y2="224.8000061035156" stroke="black" stroke-width="1" stroke-linecap="round" stroke-linejoin="round"></line><polygon points="80.42040252685547,209.09999389648436 108.47962560947128,192.89999389648438 108.47962560947128,225.29999389648438 80.42040252685547,240.99999389648437" stroke="none" fill="red"></polygon><polygon points="52.361183166503906,192.89999389648438 80.42040624911971,209.09999389648436 80.42040624911971,240.99999389648437 52.361183166503906,225.29999389648438" stroke="none" fill="blue"></polygon><polygon points="52.361183166503906,192.89999694824218 80.42040624911971,209.0999969482422 108.47962933173554,192.89999694824218 80.42040624911971,177.1999969482422" stroke="none" fill="yellow"></polygon><line x1="107.61360168457031" y1="224.79999389648438" x2="107.61360168457031" y2="193.39999389648438" stroke="black" stroke-width="1" stroke-linecap="round" stroke-linejoin="round"></line><line x1="107.61360168457031" y1="224.8000030517578" x2="134.8067993634017" y2="240.5000030517578" stroke="black" stroke-width="1" stroke-linecap="round" stroke-linejoin="round"></line><line x1="107.61360020568684" y1="224.8000030517578" x2="80.42040252685547" y2="240.5000030517578" stroke="black" stroke-width="1" stroke-linecap="round" stroke-linejoin="round"></line><polygon points="107.61360168457031,224.8000061035156 135.6728247671861,208.60000610351562 135.6728247671861,241.00000610351563 107.61360168457031,256.70000610351565" stroke="none" fill="red"></polygon><polygon points="79.55438232421875,208.60000610351562 107.61360540683455,224.8000061035156 107.61360540683455,256.70000610351565 79.55438232421875,241.00000610351563" stroke="none" fill="blue"></polygon><polygon points="79.55438232421875,208.59999389648436 107.61360540683455,224.79999389648438 135.67282848945038,208.59999389648436 107.61360540683455,192.89999389648438" stroke="none" fill="yellow"></polygon><line x1="134.80679321289062" y1="240.50000610351563" x2="134.80679321289062" y2="209.10000610351562" stroke="black" stroke-width="1" stroke-linecap="round" stroke-linejoin="round"></line><line x1="134.80679321289062" y1="240.5" x2="161.999990891722" y2="256.2" stroke="black" stroke-width="1" stroke-linecap="round" stroke-linejoin="round"></line><line x1="134.8067993634017" y1="240.5" x2="107.61360168457031" y2="256.2" stroke="black" stroke-width="1" stroke-linecap="round" stroke-linejoin="round"></line><polygon points="134.80679321289062,240.5000030517578 162.86601629550643,224.3000030517578 162.86601629550643,256.7000030517578 134.80679321289062,272.4000030517578" stroke="none" fill="red"></polygon><polygon points="106.7475814819336,224.3000030517578 134.8068045645494,240.5000030517578 134.8068045645494,272.4000030517578 106.7475814819336,256.7000030517578" stroke="none" fill="blue"></polygon><polygon points="106.7475814819336,224.3000061035156 134.8068045645494,240.50000610351563 162.8660276471652,224.3000061035156 134.8068045645494,208.60000610351562" stroke="none" fill="yellow"></polygon><line x1="162" y1="256.2000030517578" x2="162" y2="224.8000030517578" stroke="black" stroke-width="1" stroke-linecap="round" stroke-linejoin="round"></line><line x1="162" y1="256.1999969482422" x2="189.19319767883138" y2="271.8999969482422" stroke="black" stroke-width="1" stroke-linecap="round" stroke-linejoin="round"></line><line x1="161.999990891722" y1="256.1999969482422" x2="134.80679321289062" y2="271.8999969482422" stroke="black" stroke-width="1" stroke-linecap="round" stroke-linejoin="round"></line><polygon points="162,256.2 190.0592230826158,240 190.0592230826158,272.4 162,288.1" stroke="none" fill="red"></polygon><polygon points="133.94078063964844,240 162.00000372226424,256.2 162.00000372226424,288.1 133.94078063964844,272.4" stroke="none" fill="blue"></polygon><polygon points="133.94078063964844,240.0000030517578 162.00000372226424,256.2000030517578 190.05922680488004,240.0000030517578 162.00000372226424,224.3000030517578" stroke="none" fill="yellow"></polygon><line x1="189.1931915283203" y1="271.9" x2="189.1931915283203" y2="240.5" stroke="black" stroke-width="1" stroke-linecap="round" stroke-linejoin="round"></line><line x1="189.1931915283203" y1="271.8999938964844" x2="216.3863892071517" y2="287.59999389648436" stroke="black" stroke-width="1" stroke-linecap="round" stroke-linejoin="round"></line><line x1="189.19319767883138" y1="271.8999938964844" x2="162" y2="287.59999389648436" stroke="black" stroke-width="1" stroke-linecap="round" stroke-linejoin="round"></line><polygon points="189.1931915283203,271.8999969482422 217.2524146109361,255.6999969482422 217.2524146109361,288.09999694824216 189.1931915283203,303.79999694824215" stroke="none" fill="red"></polygon><polygon points="161.13397216796875,255.6999969482422 189.19319525058458,271.8999969482422 189.19319525058458,303.79999694824215 161.13397216796875,288.09999694824216" stroke="none" fill="blue"></polygon><polygon points="161.13397216796875,255.7 189.19319525058458,271.9 217.25241833320038,255.7 189.19319525058458,240" stroke="none" fill="yellow"></polygon><line x1="216.3863983154297" y1="287.59999694824216" x2="216.3863983154297" y2="256.1999969482422" stroke="black" stroke-width="1" stroke-linecap="round" stroke-linejoin="round"></line><line x1="216.3863892071517" y1="287.6000061035156" x2="189.1931915283203" y2="303.3000061035156" stroke="black" stroke-width="3" stroke-linecap="round" stroke-linejoin="round"></line><line x1="80.42040252685547" y1="177.70000305175782" x2="80.42040252685547" y2="146.3000030517578" stroke="black" stroke-width="1" stroke-linecap="round" stroke-linejoin="round"></line><line x1="80.42040252685547" y1="177.6999969482422" x2="107.61360020568684" y2="193.39999694824218" stroke="black" stroke-width="1" stroke-linecap="round" stroke-linejoin="round"></line><line x1="80.42040486266926" y1="177.6999969482422" x2="53.22720718383789" y2="193.39999694824218" stroke="black" stroke-width="1" stroke-linecap="round" stroke-linejoin="round"></line><polygon points="80.42040252685547,177.7 108.47962560947128,161.5 108.47962560947128,193.9 80.42040252685547,209.6" stroke="none" fill="red"></polygon><polygon points="52.361183166503906,161.5 80.42040624911971,177.7 80.42040624911971,209.6 52.361183166503906,193.9" stroke="none" fill="blue"></polygon><polygon points="52.361183166503906,161.5000030517578 80.42040624911971,177.70000305175782 108.47962933173554,161.5000030517578 80.42040624911971,145.8000030517578" stroke="none" fill="yellow"></polygon><line x1="107.61360168457031" y1="193.4" x2="107.61360168457031" y2="162" stroke="black" stroke-width="1" stroke-linecap="round" stroke-linejoin="round"></line><line x1="107.61360168457031" y1="193.39999389648438" x2="134.8067993634017" y2="209.09999389648436" stroke="black" stroke-width="1" stroke-linecap="round" stroke-linejoin="round"></line><line x1="107.61360020568684" y1="193.39999389648438" x2="80.42040252685547" y2="209.09999389648436" stroke="black" stroke-width="1" stroke-linecap="round" stroke-linejoin="round"></line><polygon points="107.61360168457031,193.39999694824218 135.6728247671861,177.1999969482422 135.6728247671861,209.5999969482422 107.61360168457031,225.29999694824218" stroke="none" fill="red"></polygon><polygon points="79.55438232421875,177.1999969482422 107.61360540683455,193.39999694824218 107.61360540683455,225.29999694824218 79.55438232421875,209.5999969482422" stroke="none" fill="blue"></polygon><polygon points="79.55438232421875,177.2 107.61360540683455,193.4 135.67282848945038,177.2 107.61360540683455,161.5" stroke="none" fill="yellow"></polygon><line x1="134.80679321289062" y1="209.0999969482422" x2="134.80679321289062" y2="177.6999969482422" stroke="black" stroke-width="1" stroke-linecap="round" stroke-linejoin="round"></line><line x1="134.80679321289062" y1="209.10000610351562" x2="161.999990891722" y2="224.8000061035156" stroke="black" stroke-width="1" stroke-linecap="round" stroke-linejoin="round"></line><line x1="134.8067993634017" y1="209.10000610351562" x2="107.61360168457031" y2="224.8000061035156" stroke="black" stroke-width="1" stroke-linecap="round" stroke-linejoin="round"></line><polygon points="134.80679321289062,209.09999389648436 162.86601629550643,192.89999389648438 162.86601629550643,225.29999389648438 134.80679321289062,240.99999389648437" stroke="none" fill="red"></polygon><polygon points="106.7475814819336,192.89999389648438 134.8068045645494,209.09999389648436 134.8068045645494,240.99999389648437 106.7475814819336,225.29999389648438" stroke="none" fill="blue"></polygon><polygon points="106.7475814819336,192.89999694824218 134.8068045645494,209.0999969482422 162.8660276471652,192.89999694824218 134.8068045645494,177.1999969482422" stroke="none" fill="yellow"></polygon><line x1="162" y1="224.79999389648438" x2="162" y2="193.39999389648438" stroke="black" stroke-width="1" stroke-linecap="round" stroke-linejoin="round"></line><line x1="162" y1="224.8000030517578" x2="189.19319767883138" y2="240.5000030517578" stroke="black" stroke-width="1" stroke-linecap="round" stroke-linejoin="round"></line><line x1="161.999990891722" y1="224.8000030517578" x2="134.80679321289062" y2="240.5000030517578" stroke="black" stroke-width="1" stroke-linecap="round" stroke-linejoin="round"></line><polygon points="162,224.8000061035156 190.0592230826158,208.60000610351562 190.0592230826158,241.00000610351563 162,256.70000610351565" stroke="none" fill="red"></polygon><polygon points="133.94078063964844,208.60000610351562 162.00000372226424,224.8000061035156 162.00000372226424,256.70000610351565 133.94078063964844,241.00000610351563" stroke="none" fill="blue"></polygon><polygon points="133.94078063964844,208.59999389648436 162.00000372226424,224.79999389648438 190.05922680488004,208.59999389648436 162.00000372226424,192.89999389648438" stroke="none" fill="yellow"></polygon><line x1="189.1931915283203" y1="240.50000610351563" x2="189.1931915283203" y2="209.10000610351562" stroke="black" stroke-width="1" stroke-linecap="round" stroke-linejoin="round"></line><line x1="189.1931915283203" y1="240.5" x2="216.3863892071517" y2="256.2" stroke="black" stroke-width="1" stroke-linecap="round" stroke-linejoin="round"></line><line x1="189.19319767883138" y1="240.5" x2="162" y2="256.2" stroke="black" stroke-width="3" stroke-linecap="round" stroke-linejoin="round"></line><line x1="216.3863892071517" y1="256.1999969482422" x2="189.1931915283203" y2="271.8999969482422" stroke="black" stroke-width="3" stroke-linecap="round" stroke-linejoin="round"></line><line x1="80.42040252685547" y1="146.3000015258789" x2="80.42040252685547" y2="114.9000015258789" stroke="black" stroke-width="3" stroke-linecap="round" stroke-linejoin="round"></line><line x1="80.42040252685547" y1="146.3000030517578" x2="107.61360020568684" y2="162.0000030517578" stroke="black" stroke-width="3" stroke-linecap="round" stroke-linejoin="round"></line><line x1="80.42040486266926" y1="146.3000030517578" x2="53.22720718383789" y2="162.0000030517578" stroke="black" stroke-width="3" stroke-linecap="round" stroke-linejoin="round"></line><line x1="107.61360168457031" y1="161.9999984741211" x2="107.61360168457031" y2="130.5999984741211" stroke="black" stroke-width="1" stroke-linecap="round" stroke-linejoin="round"></line><line x1="107.61360168457031" y1="162" x2="134.8067993634017" y2="177.7" stroke="black" stroke-width="3" stroke-linecap="round" stroke-linejoin="round"></line><line x1="107.61360020568684" y1="162" x2="80.42040252685547" y2="177.7" stroke="black" stroke-width="1" stroke-linecap="round" stroke-linejoin="round"></line><line x1="134.80679321289062" y1="177.70000305175782" x2="134.80679321289062" y2="146.3000030517578" stroke="black" stroke-width="1" stroke-linecap="round" stroke-linejoin="round"></line><line x1="134.80679321289062" y1="177.6999969482422" x2="161.999990891722" y2="193.39999694824218" stroke="black" stroke-width="3" stroke-linecap="round" stroke-linejoin="round"></line><line x1="134.8067993634017" y1="177.6999969482422" x2="107.61360168457031" y2="193.39999694824218" stroke="black" stroke-width="1" stroke-linecap="round" stroke-linejoin="round"></line><line x1="162" y1="193.4" x2="162" y2="162" stroke="black" stroke-width="3" stroke-linecap="round" stroke-linejoin="round"></line><line x1="162" y1="193.39999389648438" x2="189.19319767883138" y2="209.09999389648436" stroke="black" stroke-width="1" stroke-linecap="round" stroke-linejoin="round"></line><line x1="161.999990891722" y1="193.39999389648438" x2="134.80679321289062" y2="209.09999389648436" stroke="black" stroke-width="1" stroke-linecap="round" stroke-linejoin="round"></line><line x1="189.19319767883138" y1="209.10000610351562" x2="162" y2="224.8000061035156" stroke="black" stroke-width="3" stroke-linecap="round" stroke-linejoin="round"></line><line x1="80.42040252685547" y1="114.9000015258789" x2="107.61360020568684" y2="130.6000015258789" stroke="black" stroke-width="3" stroke-linecap="round" stroke-linejoin="round"></line><line x1="107.61360168457031" y1="130.5999984741211" x2="134.8067993634017" y2="146.29999847412108" stroke="black" stroke-width="3" stroke-linecap="round" stroke-linejoin="round"></line><line x1="134.80679321289062" y1="146.3000030517578" x2="161.999990891722" y2="162.0000030517578" stroke="black" stroke-width="3" stroke-linecap="round" stroke-linejoin="round"></line><line x1="53.22720718383789" y1="224.79999389648438" x2="53.22720718383789" y2="193.39999389648438" stroke="black" stroke-width="1" stroke-linecap="round" stroke-linejoin="round"></line><line x1="53.22720718383789" y1="224.8000030517578" x2="80.42040486266926" y2="240.5000030517578" stroke="black" stroke-width="1" stroke-linecap="round" stroke-linejoin="round"></line><line x1="53.22720951965168" y1="224.8000030517578" x2="26.034011840820312" y2="240.5000030517578" stroke="black" stroke-width="1" stroke-linecap="round" stroke-linejoin="round"></line><polygon points="53.22720718383789,224.8000061035156 81.28643026645369,208.60000610351562 81.28643026645369,241.00000610351563 53.22720718383789,256.70000610351565" stroke="none" fill="red"></polygon><polygon points="25.167985916137695,208.60000610351562 53.227208998753504,224.8000061035156 53.227208998753504,256.70000610351565 25.167985916137695,241.00000610351563" stroke="none" fill="blue"></polygon><polygon points="25.167985916137695,208.59999389648436 53.227208998753504,224.79999389648438 81.28643208136933,208.59999389648436 53.227208998753504,192.89999389648438" stroke="none" fill="yellow"></polygon><line x1="80.42040252685547" y1="240.50000610351563" x2="80.42040252685547" y2="209.10000610351562" stroke="black" stroke-width="1" stroke-linecap="round" stroke-linejoin="round"></line><line x1="80.42040252685547" y1="240.5" x2="107.61360020568684" y2="256.2" stroke="black" stroke-width="1" stroke-linecap="round" stroke-linejoin="round"></line><line x1="80.42040486266926" y1="240.5" x2="53.22720718383789" y2="256.2" stroke="black" stroke-width="1" stroke-linecap="round" stroke-linejoin="round"></line><polygon points="80.42040252685547,240.5000030517578 108.47962560947128,224.3000030517578 108.47962560947128,256.7000030517578 80.42040252685547,272.4000030517578" stroke="none" fill="red"></polygon><polygon points="52.361183166503906,224.3000030517578 80.42040624911971,240.5000030517578 80.42040624911971,272.4000030517578 52.361183166503906,256.7000030517578" stroke="none" fill="blue"></polygon><polygon points="52.361183166503906,224.3000061035156 80.42040624911971,240.50000610351563 108.47962933173554,224.3000061035156 80.42040624911971,208.60000610351562" stroke="none" fill="yellow"></polygon><line x1="107.61360168457031" y1="256.2000030517578" x2="107.61360168457031" y2="224.8000030517578" stroke="black" stroke-width="1" stroke-linecap="round" stroke-linejoin="round"></line><line x1="107.61360168457031" y1="256.1999969482422" x2="134.8067993634017" y2="271.8999969482422" stroke="black" stroke-width="1" stroke-linecap="round" stroke-linejoin="round"></line><line x1="107.61360020568684" y1="256.1999969482422" x2="80.42040252685547" y2="271.8999969482422" stroke="black" stroke-width="1" stroke-linecap="round" stroke-linejoin="round"></line><polygon points="107.61360168457031,256.2 135.6728247671861,240 135.6728247671861,272.4 107.61360168457031,288.1" stroke="none" fill="red"></polygon><polygon points="79.55438232421875,240 107.61360540683455,256.2 107.61360540683455,288.1 79.55438232421875,272.4" stroke="none" fill="blue"></polygon><polygon points="79.55438232421875,240.0000030517578 107.61360540683455,256.2000030517578 135.67282848945038,240.0000030517578 107.61360540683455,224.3000030517578" stroke="none" fill="yellow"></polygon><line x1="134.80679321289062" y1="271.9" x2="134.80679321289062" y2="240.5" stroke="black" stroke-width="1" stroke-linecap="round" stroke-linejoin="round"></line><line x1="134.80679321289062" y1="271.8999938964844" x2="161.999990891722" y2="287.59999389648436" stroke="black" stroke-width="1" stroke-linecap="round" stroke-linejoin="round"></line><line x1="134.8067993634017" y1="271.8999938964844" x2="107.61360168457031" y2="287.59999389648436" stroke="black" stroke-width="1" stroke-linecap="round" stroke-linejoin="round"></line><polygon points="134.80679321289062,271.8999969482422 162.86601629550643,255.6999969482422 162.86601629550643,288.09999694824216 134.80679321289062,303.79999694824215" stroke="none" fill="red"></polygon><polygon points="106.7475814819336,255.6999969482422 134.8068045645494,271.8999969482422 134.8068045645494,303.79999694824215 106.7475814819336,288.09999694824216" stroke="none" fill="blue"></polygon><polygon points="106.7475814819336,255.7 134.8068045645494,271.9 162.8660276471652,255.7 134.8068045645494,240" stroke="none" fill="yellow"></polygon><line x1="162" y1="287.59999694824216" x2="162" y2="256.1999969482422" stroke="black" stroke-width="1" stroke-linecap="round" stroke-linejoin="round"></line><line x1="162" y1="287.6000061035156" x2="189.19319767883138" y2="303.3000061035156" stroke="black" stroke-width="1" stroke-linecap="round" stroke-linejoin="round"></line><line x1="161.999990891722" y1="287.6000061035156" x2="134.80679321289062" y2="303.3000061035156" stroke="black" stroke-width="1" stroke-linecap="round" stroke-linejoin="round"></line><polygon points="162,287.59999389648436 190.0592230826158,271.3999938964844 190.0592230826158,303.79999389648435 162,319.49999389648434" stroke="none" fill="red"></polygon><polygon points="133.94078063964844,271.3999938964844 162.00000372226424,287.59999389648436 162.00000372226424,319.49999389648434 133.94078063964844,303.79999389648435" stroke="none" fill="blue"></polygon><polygon points="133.94078063964844,271.39999694824223 162.00000372226424,287.59999694824216 190.05922680488004,271.39999694824223 162.00000372226424,255.6999969482422" stroke="none" fill="yellow"></polygon><line x1="189.1931915283203" y1="303.29999389648435" x2="189.1931915283203" y2="271.8999938964844" stroke="black" stroke-width="1" stroke-linecap="round" stroke-linejoin="round"></line><line x1="189.19319767883138" y1="303.29998779296875" x2="162" y2="318.99998779296874" stroke="black" stroke-width="3" stroke-linecap="round" stroke-linejoin="round"></line><line x1="53.22720718383789" y1="193.4" x2="53.22720718383789" y2="162" stroke="black" stroke-width="3" stroke-linecap="round" stroke-linejoin="round"></line><line x1="53.22720718383789" y1="193.39999389648438" x2="80.42040486266926" y2="209.09999389648436" stroke="black" stroke-width="3" stroke-linecap="round" stroke-linejoin="round"></line><line x1="53.22720951965168" y1="193.39999389648438" x2="26.034011840820312" y2="209.09999389648436" stroke="black" stroke-width="3" stroke-linecap="round" stroke-linejoin="round"></line><line x1="80.42040252685547" y1="209.0999969482422" x2="80.42040252685547" y2="177.6999969482422" stroke="black" stroke-width="1" stroke-linecap="round" stroke-linejoin="round"></line><line x1="80.42040252685547" y1="209.10000610351562" x2="107.61360020568684" y2="224.8000061035156" stroke="black" stroke-width="3" stroke-linecap="round" stroke-linejoin="round"></line><line x1="80.42040486266926" y1="209.10000610351562" x2="53.22720718383789" y2="224.8000061035156" stroke="black" stroke-width="1" stroke-linecap="round" stroke-linejoin="round"></line><line x1="107.61360168457031" y1="224.79999389648438" x2="107.61360168457031" y2="193.39999389648438" stroke="black" stroke-width="1" stroke-linecap="round" stroke-linejoin="round"></line><line x1="107.61360168457031" y1="224.8000030517578" x2="134.8067993634017" y2="240.5000030517578" stroke="black" stroke-width="3" stroke-linecap="round" stroke-linejoin="round"></line><line x1="107.61360020568684" y1="224.8000030517578" x2="80.42040252685547" y2="240.5000030517578" stroke="black" stroke-width="1" stroke-linecap="round" stroke-linejoin="round"></line><line x1="134.80679321289062" y1="240.50000610351563" x2="134.80679321289062" y2="209.10000610351562" stroke="black" stroke-width="1" stroke-linecap="round" stroke-linejoin="round"></line><line x1="134.80679321289062" y1="240.5" x2="161.999990891722" y2="256.2" stroke="black" stroke-width="3" stroke-linecap="round" stroke-linejoin="round"></line><line x1="134.8067993634017" y1="240.5" x2="107.61360168457031" y2="256.2" stroke="black" stroke-width="1" stroke-linecap="round" stroke-linejoin="round"></line><line x1="162" y1="256.2000030517578" x2="162" y2="224.8000030517578" stroke="black" stroke-width="3" stroke-linecap="round" stroke-linejoin="round"></line><line x1="162" y1="256.1999969482422" x2="189.19319767883138" y2="271.8999969482422" stroke="black" stroke-width="1" stroke-linecap="round" stroke-linejoin="round"></line><line x1="161.999990891722" y1="256.1999969482422" x2="134.80679321289062" y2="271.8999969482422" stroke="black" stroke-width="1" stroke-linecap="round" stroke-linejoin="round"></line><line x1="189.19319767883138" y1="271.8999938964844" x2="162" y2="287.59999389648436" stroke="black" stroke-width="3" stroke-linecap="round" stroke-linejoin="round"></line><line x1="53.22720718383789" y1="162" x2="80.42040486266926" y2="177.7" stroke="black" stroke-width="3" stroke-linecap="round" stroke-linejoin="round"></line><line x1="80.42040252685547" y1="177.6999969482422" x2="107.61360020568684" y2="193.39999694824218" stroke="black" stroke-width="3" stroke-linecap="round" stroke-linejoin="round"></line><line x1="107.61360168457031" y1="193.39999389648438" x2="134.8067993634017" y2="209.09999389648436" stroke="black" stroke-width="3" stroke-linecap="round" stroke-linejoin="round"></line><line x1="134.80679321289062" y1="209.10000610351562" x2="161.999990891722" y2="224.8000061035156" stroke="black" stroke-width="3" stroke-linecap="round" stroke-linejoin="round"></line><line x1="26.034011840820312" y1="240.50000610351563" x2="26.034011840820312" y2="209.10000610351562" stroke="black" stroke-width="3" stroke-linecap="round" stroke-linejoin="round"></line><line x1="26.034011840820312" y1="240.5" x2="53.22720951965168" y2="256.2" stroke="black" stroke-width="3" stroke-linecap="round" stroke-linejoin="round"></line><line x1="53.22720718383789" y1="256.2000030517578" x2="53.22720718383789" y2="224.8000030517578" stroke="black" stroke-width="1" stroke-linecap="round" stroke-linejoin="round"></line><line x1="53.22720718383789" y1="256.1999969482422" x2="80.42040486266926" y2="271.8999969482422" stroke="black" stroke-width="3" stroke-linecap="round" stroke-linejoin="round"></line><line x1="80.42040252685547" y1="271.9" x2="80.42040252685547" y2="240.5" stroke="black" stroke-width="1" stroke-linecap="round" stroke-linejoin="round"></line><line x1="80.42040252685547" y1="271.8999938964844" x2="107.61360020568684" y2="287.59999389648436" stroke="black" stroke-width="3" stroke-linecap="round" stroke-linejoin="round"></line><line x1="107.61360168457031" y1="287.59999694824216" x2="107.61360168457031" y2="256.1999969482422" stroke="black" stroke-width="1" stroke-linecap="round" stroke-linejoin="round"></line><line x1="107.61360168457031" y1="287.6000061035156" x2="134.8067993634017" y2="303.3000061035156" stroke="black" stroke-width="3" stroke-linecap="round" stroke-linejoin="round"></line><line x1="134.80679321289062" y1="303.29999389648435" x2="134.80679321289062" y2="271.8999938964844" stroke="black" stroke-width="1" stroke-linecap="round" stroke-linejoin="round"></line><line x1="134.80679321289062" y1="303.29998779296875" x2="161.999990891722" y2="318.99998779296874" stroke="black" stroke-width="3" stroke-linecap="round" stroke-linejoin="round"></line><line x1="162" y1="319.0000061035156" x2="162" y2="287.6000061035156" stroke="black" stroke-width="3" stroke-linecap="round" stroke-linejoin="round"></line><line x1="26.034011840820312" y1="209.10000610351562" x2="53.22720951965168" y2="224.8000061035156" stroke="black" stroke-width="3" stroke-linecap="round" stroke-linejoin="round"></line><line x1="53.22720718383789" y1="224.8000030517578" x2="80.42040486266926" y2="240.5000030517578" stroke="black" stroke-width="3" stroke-linecap="round" stroke-linejoin="round"></line><line x1="80.42040252685547" y1="240.5" x2="107.61360020568684" y2="256.2" stroke="black" stroke-width="3" stroke-linecap="round" stroke-linejoin="round"></line><line x1="107.61360168457031" y1="256.1999969482422" x2="134.8067993634017" y2="271.8999969482422" stroke="black" stroke-width="3" stroke-linecap="round" stroke-linejoin="round"></line><line x1="134.80679321289062" y1="271.8999938964844" x2="161.999990891722" y2="287.59999389648436" stroke="black" stroke-width="3" stroke-linecap="round" stroke-linejoin="round"></line></svg>