<?xml version="1.0" encoding="utf-8"?>
<!-- Generator: Adobe Illustrator 28.0.0, SVG Export Plug-In . SVG Version: 6.00 Build 0)  -->
<svg version="1.1" id="Calque_1" xmlns="http://www.w3.org/2000/svg" xmlns:xlink="http://www.w3.org/1999/xlink" x="0px" y="0px"
	 viewBox="0 0 300 300" style="enable-background:new 0 0 300 300;" xml:space="preserve">
<style type="text/css">
	.st0{fill:none;stroke:#0000A0;stroke-linecap:round;stroke-linejoin:round;}
	.st1{fill:none;stroke:#0080C0;stroke-width:0.75;stroke-linecap:round;stroke-linejoin:round;}
	.st2{fill:none;stroke:#000000;stroke-width:3;stroke-linecap:round;stroke-linejoin:round;}
	.st3{fill:none;stroke:#000000;stroke-width:2;stroke-linecap:round;stroke-linejoin:round;}
	.st4{stroke:#000000;stroke-width:3;stroke-linecap:round;stroke-linejoin:round;}
	.st5{fill:none;stroke:#FF0000;stroke-width:2;stroke-linecap:round;stroke-linejoin:round;}
	.st6{fill:#FFFFFF;}
	.st7{font-family:'Arial-BoldMT';}
	.st8{font-size:16px;}
	.st9{fill:none;stroke:#FFFFFF;stroke-width:5;}
	.st10{fill:#FF0000;}
	.st11{font-family:'ArialMT';}
	.st12{font-size:12px;}
	.st13{fill:none;stroke:#000000;}
	.st14{fill:none;stroke:#000000;stroke-width:2;stroke-miterlimit:10;}
	.st15{fill:none;stroke:#000000;stroke-width:2;stroke-miterlimit:10;stroke-dasharray:2.9333,2.9333;}
	.st16{fill:none;stroke:#000000;stroke-width:2;stroke-miterlimit:10;stroke-dasharray:3;}
	.st17{font-family:'MyriadPro-Regular';}
</style>
<path class="st0" d="M30,30v245"/>
<path class="st0" d="M77,30v245"/>
<path class="st0" d="M124,30v245"/>
<path class="st0" d="M171,30v245"/>
<path class="st0" d="M218,30v245"/>
<path class="st0" d="M265,30v245"/>
<path class="st0" d="M25,270h245"/>
<path class="st0" d="M25,223h245"/>
<path class="st0" d="M25,176h245"/>
<path class="st0" d="M25,129h245"/>
<path class="st0" d="M25,82h245"/>
<path class="st0" d="M25,35h245"/>
<path class="st1" d="M25,258.2h245"/>
<path class="st1" d="M25,246.5h245"/>
<path class="st1" d="M25,234.7h245"/>
<path class="st1" d="M25,211.2h245"/>
<path class="st1" d="M25,199.5h245"/>
<path class="st1" d="M25,187.7h245"/>
<path class="st1" d="M25,164.2h245"/>
<path class="st1" d="M25,152.5h245"/>
<path class="st1" d="M25,140.7h245"/>
<path class="st1" d="M25,117.2h245"/>
<path class="st1" d="M25,105.5h245"/>
<path class="st1" d="M25,93.7h245"/>
<path class="st1" d="M25,70.2h245"/>
<path class="st1" d="M25,58.5h245"/>
<path class="st1" d="M25,46.7h245"/>
<path class="st2" d="M77,265v10"/>
<path class="st2" d="M124,265v10"/>
<path class="st2" d="M171,265v10"/>
<path class="st2" d="M218,265v10"/>
<path class="st2" d="M265,265v10"/>
<path class="st3" d="M27.5,258.2h5"/>
<path class="st3" d="M27.5,246.5h5"/>
<path class="st3" d="M27.5,234.7h5"/>
<path class="st2" d="M25,223h10"/>
<path class="st3" d="M27.5,211.2h5"/>
<path class="st3" d="M27.5,199.5h5"/>
<path class="st3" d="M27.5,187.7h5"/>
<path class="st2" d="M25,176h10"/>
<path class="st3" d="M27.5,164.2h5"/>
<path class="st3" d="M27.5,152.5h5"/>
<path class="st3" d="M27.5,140.7h5"/>
<path class="st2" d="M25,129h10"/>
<path class="st3" d="M27.5,117.2h5"/>
<path class="st3" d="M27.5,105.5h5"/>
<path class="st3" d="M27.5,93.7h5"/>
<path class="st2" d="M25,82h10"/>
<path class="st3" d="M27.5,70.2h5"/>
<path class="st3" d="M27.5,58.5h5"/>
<path class="st3" d="M27.5,46.7h5"/>
<path class="st2" d="M25,35h10"/>
<path class="st2" d="M25,270h245"/>
<path class="st2" d="M30,275V30"/>
<path class="st4" d="M270,270h1.2v2.5l3.8-2.5l-3.8-2.5v2.5H270z"/>
<path class="st4" d="M30,30v-1.2h2.5L30,25l-2.5,3.8H30V30z"/>
<path class="st5" d="M72,229.7l10,10"/>
<path class="st5" d="M72,239.7l10-10"/>
<text transform="matrix(1 0 0 1 56.2227 225.35)" class="st6 st7 st8">A</text>
<text transform="matrix(1 0 0 1 56.2227 225.35)" class="st9 st7 st8">A</text>
<text transform="matrix(1 0 0 1 56.6641 225.35)" class="st10 st11 st8">A</text>
<path class="st5" d="M31,269.2l1-0.8l1-0.8l1-0.8l1-0.8l1-0.8l1-0.8l1-0.8l1-0.8l1-0.8l1-0.8l1-0.8l1-0.8l1-0.8l1-0.8l1-0.8l1-0.8
	l1-0.8l1-0.8l1-0.8l1-0.8l1-0.8l1-0.8l1-0.8l1-0.8l1-0.8l1-0.8l1-0.8l1-0.8l1-0.8l1-0.8l1-0.8l1-0.8l1-0.8l1-0.8l1-0.8l1-0.8l1-0.8
	l1-0.8l1-0.8l1-0.8l1-0.8l1-0.8l1-0.8l1-0.8l1-0.8l1-0.8l1-0.8l1-0.8l1-0.8l1-0.8l1-0.8l1-0.8l1-0.8l1-0.8l1-0.8l1-0.8l1-0.8l1-0.8
	l1-0.8l1-0.8l1-0.8l1-0.8l1-0.8l1-0.8l1-0.8l1-0.8l1-0.8l1-0.8l1-0.8l1-0.8l1-0.8l1-0.8l1-0.8l1-0.8l1-0.8l1-0.8l1-0.8l1-0.8l1-0.8
	l1-0.8l1-0.8l1-0.8l1-0.8l1-0.8l1-0.8l1-0.8l1-0.8l1-0.8l1-0.8l1-0.8l1-0.8l1-0.8l1-0.8l1-0.8l1-0.8l1-0.8l1-0.8l1-0.8l1-0.8l1-0.8
	l1-0.8l1-0.8l1-0.8l1-0.8l1-0.8l1-0.8l1-0.8l1-0.8l1-0.8l1-0.8l1-0.8l1-0.8l1-0.8l1-0.8l1-0.8l1-0.8l1-0.8l1-0.8l1-0.8l1-0.8l1-0.8
	l1-0.8l1-0.8l1-0.8l1-0.8l1-0.8l1-0.8l1-0.8l1-0.8l1-0.8l1-0.8l1-0.8l1-0.8l1-0.8l1-0.8l1-0.8l1-0.8l1-0.8l1-0.8l1-0.8l1-0.8l1-0.8
	l1-0.8l1-0.8l1-0.8l1-0.8l1-0.8l1-0.8l1-0.8l1-0.8l1-0.8l1-0.8l1-0.8l1-0.8l1-0.8l1-0.8l1-0.8l1-0.8l1-0.8l1-0.8l1-0.8l1-0.8l1-0.8
	l1-0.8l1-0.8l1-0.8l1-0.8l1-0.8l1-0.8l1-0.8l1-0.8l1-0.8l1-0.8l1-0.8l1-0.8l1-0.8l1-0.8l1-0.8l1-0.8l1-0.8l1-0.8l1-0.8l1-0.8l1-0.8
	l1-0.8l1-0.8l1-0.8l1-0.8l1-0.8l1-0.8l1-0.8l1-0.8l1-0.8l1-0.8l1-0.8l1-0.8l1-0.8l1-0.8l1-0.8l1-0.8l1-0.8l1-0.8l1-0.8l1-0.8l1-0.8
	l1-0.8l1-0.8l1-0.8l1-0.8l1-0.8l1-0.8l1-0.8l1-0.8l1-0.8l1-0.8l1-0.8l1-0.8l1-0.8l1-0.8l1-0.8l1-0.8l1-0.8l1-0.8l1-0.8l1-0.8l1-0.8
	l1-0.8l1-0.8l1-0.8l1-0.8l1-0.8l1-0.8l1-0.8l1-0.8"/>
<text transform="matrix(1 0 0 1 73.6631 293.4)" class="st6 st7 st12">1</text>
<text transform="matrix(1 0 0 1 73.6631 293.4)" class="st9 st7 st12">1</text>
<text transform="matrix(1 0 0 1 73.6631 293.4)" class="st11 st12">1</text>
<text transform="matrix(1 0 0 1 120.6631 293.4)" class="st6 st7 st12">2</text>
<text transform="matrix(1 0 0 1 120.6631 293.4)" class="st9 st7 st12">2</text>
<text transform="matrix(1 0 0 1 120.6631 293.4)" class="st11 st12">2</text>
<text transform="matrix(1 0 0 1 167.6631 293.4)" class="st6 st7 st12">3</text>
<text transform="matrix(1 0 0 1 167.6631 293.4)" class="st9 st7 st12">3</text>
<text transform="matrix(1 0 0 1 167.6631 293.4)" class="st11 st12">3</text>
<text transform="matrix(1 0 0 1 214.6631 293.4)" class="st6 st7 st12">4</text>
<text transform="matrix(1 0 0 1 214.6631 293.4)" class="st9 st7 st12">4</text>
<text transform="matrix(1 0 0 1 214.6631 293.4)" class="st11 st12">4</text>
<text transform="matrix(1 0 0 1 261.6631 293.4)" class="st6 st7 st12">5</text>
<text transform="matrix(1 0 0 1 261.6631 293.4)" class="st9 st7 st12">5</text>
<text transform="matrix(1 0 0 1 261.6631 293.4)" class="st11 st12">5</text>
<path class="st13" d="M25,223h10"/>
<text transform="matrix(1 0 0 1 9.6631 227.4)" class="st6 st7 st12">1</text>
<text transform="matrix(1 0 0 1 9.6631 227.4)" class="st9 st7 st12">1</text>
<text transform="matrix(1 0 0 1 9.6631 227.4)" class="st11 st12">1</text>
<path class="st13" d="M25,176h10"/>
<text transform="matrix(1 0 0 1 9.6631 180.4)" class="st6 st7 st12">2</text>
<text transform="matrix(1 0 0 1 9.6631 180.4)" class="st9 st7 st12">2</text>
<text transform="matrix(1 0 0 1 9.6631 180.4)" class="st11 st12">2</text>
<path class="st13" d="M25,129h10"/>
<text transform="matrix(1 0 0 1 9.6631 133.4)" class="st6 st7 st12">3</text>
<text transform="matrix(1 0 0 1 9.6631 133.4)" class="st9 st7 st12">3</text>
<text transform="matrix(1 0 0 1 9.6631 133.4)" class="st11 st12">3</text>
<path class="st13" d="M25,82h10"/>
<text transform="matrix(1 0 0 1 9.6631 86.4)" class="st6 st7 st12">4</text>
<text transform="matrix(1 0 0 1 9.6631 86.4)" class="st9 st7 st12">4</text>
<text transform="matrix(1 0 0 1 9.6631 86.4)" class="st11 st12">4</text>
<path class="st13" d="M25,35h10"/>
<text transform="matrix(1 0 0 1 9.6631 39.4)" class="st6 st7 st12">5</text>
<text transform="matrix(1 0 0 1 9.6631 39.4)" class="st9 st7 st12">5</text>
<text transform="matrix(1 0 0 1 9.6631 39.4)" class="st11 st12">5</text>
<g>
	<g>
		<line class="st14" x1="77" y1="234.7" x2="78.5" y2="234.7"/>
		<line class="st15" x1="81.4" y1="234.7" x2="121" y2="234.7"/>
		<line class="st14" x1="122.5" y1="234.7" x2="124" y2="234.7"/>
	</g>
</g>
<line class="st16" x1="124" y1="199.5" x2="124" y2="234.7"/>
<line class="st16" x1="171" y1="199.5" x2="124" y2="199.5"/>
<line class="st16" x1="171" y1="164.2" x2="171" y2="199.5"/>
<line class="st16" x1="218" y1="164.2" x2="171" y2="164.2"/>
<line class="st16" x1="218" y1="129" x2="218" y2="164.2"/>
<line class="st16" x1="265" y1="129" x2="218" y2="129"/>
<line class="st16" x1="265" y1="93.7" x2="265" y2="129"/>
<text transform="matrix(1 0 0 1 97.4221 245.2734)" class="st17 st12">1</text>
<text transform="matrix(1 0 0 1 144.9219 209.7946)" class="st17 st12">1</text>
<text transform="matrix(1 0 0 1 191.4223 174.5605)" class="st17 st12">1</text>
<text transform="matrix(1 0 0 1 238.4217 139.4541)" class="st17 st12">1</text>
<text transform="matrix(1 0 0 1 126.4984 220.3776)" class="st17 st12">a</text>
<text transform="matrix(1 0 0 1 173.1364 183.4824)" class="st17 st12">a</text>
<text transform="matrix(1 0 0 1 219.7467 149.5871)" class="st17 st12">a</text>
<text transform="matrix(1 0 0 1 267.1076 113.8166)" class="st17 st12">a</text>
</svg>
