<?xml version="1.0" encoding="utf-8"?>
<!-- Generator: Adobe Illustrator 28.0.0, SVG Export Plug-In . SVG Version: 6.00 Build 0)  -->
<svg version="1.1" id="Calque_1" xmlns="http://www.w3.org/2000/svg" xmlns:xlink="http://www.w3.org/1999/xlink" x="0px" y="0px"
	 viewBox="0 0 890.3 243.3" style="enable-background:new 0 0 890.3 243.3;" xml:space="preserve">
<style type="text/css">
	.st0{fill:none;stroke:#000000;stroke-width:3;stroke-linecap:round;stroke-linejoin:round;}
	.st1{stroke:#000000;stroke-width:3;stroke-linecap:round;stroke-linejoin:round;}
	.st2{fill:#FFFFFF;}
	.st3{font-family:'Arial-BoldMT';}
	.st4{font-size:16px;}
	.st5{fill:none;stroke:#FFFFFF;stroke-width:5;}
	.st6{font-family:'ArialMT';}
	.st7{fill:#F6A117;stroke:#000000;stroke-width:3;stroke-miterlimit:10;}
	.st8{fill:none;stroke:#000000;stroke-width:3;stroke-linecap:round;stroke-miterlimit:10;}
	.st9{fill:none;stroke:#E5064A;stroke-width:5;stroke-linecap:round;stroke-miterlimit:10;}
	.st10{fill:#E5064A;}
</style>
<path class="st0" d="M103.8,201.2v10"/>
<path class="st0" d="M155.5,201.2v10"/>
<path class="st0" d="M207.2,201.2v10"/>
<path class="st0" d="M258.8,201.2v10"/>
<path class="st0" d="M310.5,201.2v10"/>
<path class="st0" d="M362.2,201.2v10"/>
<path class="st0" d="M413.8,201.2v10"/>
<path class="st0" d="M465.5,201.2v10"/>
<path class="st0" d="M517.2,201.2v10"/>
<path class="st0" d="M568.8,201.2v10"/>
<path class="st0" d="M620.5,201.2v10"/>
<path class="st0" d="M672.2,201.2v10"/>
<path class="st0" d="M723.8,201.2v10"/>
<path class="st0" d="M775.5,201.2v10"/>
<path class="st0" d="M827.2,201.2v10"/>
<path class="st0" d="M878.8,201.2v10"/>
<path class="st0" d="M98.8,206.2h785"/>
<path class="st1" d="M883.8,206.2h1.2v2.5l3.8-2.5l-3.8-2.5v2.5H883.8z"/>
<text transform="matrix(1 0 0 1 99.3823 234.763)" class="st2 st3 st4">0</text>
<text transform="matrix(1 0 0 1 99.3823 234.763)" class="st5 st3 st4">0</text>
<text transform="matrix(1 0 0 1 99.3823 234.763)" class="st6 st4">0</text>
<circle class="st7" cx="103.8" cy="103.8" r="102.3"/>
<line class="st8" x1="103.8" y1="206.2" x2="103.8" y2="188.8"/>
<g>
	<g>
		<path d="M108.2,168.8h2v14.9h-2v-11.2l0.1,0.7l-3.7,8.4h-1.5l-3.7-8.2l0.1-0.9v11.2h-2v-14.9h2l4.4,9.8L108.2,168.8z"/>
	</g>
</g>
<g>
	<g>
		<path class="st9" d="M27,103.8C27,61.4,61.4,27,103.8,27c36.3,0,66.7,25.1,74.7,58.9"/>
		<g>
			<polygon class="st10" points="180.6,103.8 167,80 178.1,84.6 187.6,77.3 			"/>
		</g>
	</g>
</g>
</svg>
