<?xml version="1.0" encoding="UTF-8"?>
<svg id="Calque_1" data-name="Calque 1" xmlns="http://www.w3.org/2000/svg" viewBox="0 0 103.69 98.02">
  <defs>
    <style>
      .cls-1 {
        font-family: Bahnschrift, Bahnschrift;
        font-size: 12px;
        font-variation-settings: 'wght' 400, 'wdth' 100;
      }

      .cls-1, .cls-2 {
        fill: #1d1d1b;
      }

      .cls-3 {
        fill: #f6a117;
      }

      .cls-3, .cls-4 {
        stroke: #1d1d1b;
        stroke-miterlimit: 10;
      }

      .cls-4 {
        fill: none;
        stroke-width: .7px;
      }

      .cls-2 {
        stroke-width: 0px;
      }
    </style>
  </defs>
  <g>
    <rect class="cls-3" x="38.11" y=".5" width="50" height="80"/>
    <line class="cls-3" x1="38.11" y1="70.5" x2="88.11" y2="70.5"/>
    <line class="cls-3" x1="38.11" y1="60.5" x2="88.11" y2="60.5"/>
    <line class="cls-3" x1="38.11" y1="50.5" x2="88.11" y2="50.5"/>
    <line class="cls-3" x1="38.11" y1="40.5" x2="88.11" y2="40.5"/>
    <line class="cls-3" x1="38.11" y1="30.5" x2="88.11" y2="30.5"/>
    <line class="cls-3" x1="38.11" y1="20.5" x2="88.11" y2="20.5"/>
    <line class="cls-3" x1="38.11" y1="10.5" x2="88.11" y2="10.5"/>
    <line class="cls-3" x1="78.11" y1=".5" x2="78.11" y2="80.5"/>
    <line class="cls-3" x1="68.11" y1=".5" x2="68.11" y2="80.5"/>
    <line class="cls-3" x1="58.11" y1=".5" x2="58.11" y2="80.5"/>
    <line class="cls-3" x1="48.11" y1=".5" x2="48.11" y2="80.5"/>
  </g>
  <rect class="cls-3" x="8.96" y="22.67" width="10" height="10"/>
  <text class="cls-1" transform="translate(0 42.69)"><tspan x="0" y="0">Unité</tspan></text>
  <g>
    <line class="cls-4" x1="92.92" y1="5.44" x2="92.92" y2="75.56"/>
    <polygon class="cls-2" points="92.92 .5 90.07 7.46 92.92 5.81 95.77 7.46 92.92 .5"/>
    <polygon class="cls-2" points="92.92 80.5 90.07 73.54 92.92 75.19 95.77 73.54 92.92 80.5"/>
  </g>
  <g>
    <line class="cls-4" x1="43.05" y1="84.67" x2="83.17" y2="84.67"/>
    <polygon class="cls-2" points="38.11 84.67 45.08 87.52 43.42 84.67 45.08 81.83 38.11 84.67"/>
    <polygon class="cls-2" points="88.11 84.67 81.15 87.52 82.8 84.67 81.15 81.83 88.11 84.67"/>
  </g>
  <text class="cls-1" transform="translate(96.94 45.11)"><tspan x="0" y="0">8</tspan></text>
  <text class="cls-1" transform="translate(59.84 94.78)"><tspan x="0" y="0">5</tspan></text>
</svg>