<?xml version="1.0" encoding="UTF-8"?>
<svg id="a" data-name="Calque 1" xmlns="http://www.w3.org/2000/svg" viewBox="0 0 51.31 30.36">
  <path d="m0,0c4.82.07,9.28,1.22,13.18,4.18.25.19.8.2,1.12.06,9.39-3.94,18.81-3.97,28.22-.13,2.43.99,4.59,2.44,6.32,4.46,3.51,4.1,3.26,9.1-.62,12.87-3.27,3.18-7.33,4.82-11.71,5.71-7.36,1.5-14.58,1.11-21.57-1.81-.6-.25-1.18-.55-1.79-.84-2.56,1.97-5.48,3.13-8.75,3.75v2.11c-1.58-1.34-2.99-2.53-4.39-3.72,0-.14,0-.29,0-.43,1.43-1.38,2.87-2.75,4.35-4.17v1.97c1.87-.6,3.57-1.14,5.42-1.74-4.87-4.61-5.59-10.18.37-15.57-.31-.16-.58-.31-.87-.44C6.33,4.92,3.19,4.5,0,4.33V0Zm27.8,26.02c4.09-.02,7.31-.4,10.44-1.34,3.54-1.06,6.84-2.56,9.29-5.46,2.36-2.79,2.5-6.23.08-8.96-1.27-1.43-2.82-2.78-4.52-3.62-8.7-4.3-17.65-4.39-26.69-1.12-2.65.96-5.02,2.42-6.82,4.64-2.34,2.91-2.33,6.26.11,9.07.86,1,1.89,1.91,3,2.63,4.83,3.14,10.27,4.06,15.1,4.16Z" style="stroke-width: 0px;"/>
  <g>
    <path d="m12.99,16.61l-1.05-1.05,3.64-3.61,1.05,1.05-3.64,3.61Zm2.61-.02l-3.65-3.62,1.01-1.01,3.64,3.62-1.01,1.01Z" style="fill: #1d1d1b; stroke-width: 0px;"/>
    <path d="m23.55,9.69v8.52h-1.61v-6.63l-1.04.39v-1.71l1.27-.57h1.37Z" style="fill: #1d1d1b; stroke-width: 0px;"/>
    <path d="m32.86,8.68l-3.81,11.14h-1.52l3.81-11.14h1.52Z" style="fill: #1d1d1b; stroke-width: 0px;"/>
    <path d="m36.12,16.9v-1.48l2.62-5.73h1.82l-2.55,5.66h3.83v1.55h-5.71Zm3.44,1.31v-5.02h1.61v5.02h-1.61Z" style="fill: #1d1d1b; stroke-width: 0px;"/>
    <path d="m45.06,9.69v8.52h-1.61v-6.63l-1.04.39v-1.71l1.27-.57h1.37Z" style="fill: #1d1d1b; stroke-width: 0px;"/>
  </g>
</svg>