<?xml version="1.0" encoding="UTF-8"?>
<svg id="Calque_1" data-name="Calque 1" xmlns="http://www.w3.org/2000/svg" viewBox="0 0 271.81 68.93">
  <defs>
    <style>
      .cls-1 {
        fill: rgba(149, 27, 129, .5);
        stroke: #662483;
      }

      .cls-1, .cls-2, .cls-3, .cls-4, .cls-5, .cls-6 {
        stroke-miterlimit: 10;
      }

      .cls-2 {
        fill: rgba(230, 51, 42, .5);
        stroke: #be1622;
      }

      .cls-3 {
        stroke-linecap: round;
      }

      .cls-3, .cls-4 {
        fill: none;
        stroke: #1d1d1b;
      }

      .cls-7 {
        fill: #fff;
      }

      .cls-7, .cls-8 {
        stroke-width: 0px;
      }

      .cls-5 {
        fill: rgba(0, 141, 54, .5);
        stroke: #063;
      }

      .cls-6 {
        fill: rgba(29, 113, 184, .5);
        stroke: #312783;
      }

      .cls-8 {
        fill: #1d1d1b;
      }
    </style>
  </defs>
  <g>
    <path class="cls-8" d="m7.44,8.94v-1.11h2.23v1.11h-2.23Zm.12-6.43v-1.18l1.99-.7v1.21l-1.99.68Zm1.99,6.43V.62h1.17v8.32h-1.17Zm1.05,0v-1.11h2v1.11h-2Z"/>
    <path class="cls-8" d="m14.37,8.94v-1.31c1.29-.71,2.25-1.45,2.88-2.23s.95-1.57.95-2.39c0-.48-.12-.83-.35-1.07s-.59-.36-1.07-.36c-.32,0-.65.09-.99.28s-.64.43-.88.73l-.81-.8c.27-.39.65-.7,1.15-.93s1.02-.35,1.56-.35c.88,0,1.54.21,1.97.62s.65,1.04.65,1.88-.27,1.65-.8,2.43-1.34,1.52-2.43,2.24v1.27h-1.83Zm.35,0v-1.09h5.06v1.09h-5.06Z"/>
    <path class="cls-8" d="m24.02,9.05c-.9,0-1.6-.21-2.09-.63s-.74-1.01-.74-1.77c0-.7.25-1.24.74-1.62s1.19-.57,2.09-.57,1.6.19,2.09.57.74.92.74,1.62c0,.76-.25,1.35-.74,1.77s-1.19.63-2.09.63Zm0-4.49c-.82,0-1.46-.17-1.92-.51s-.68-.82-.68-1.44c0-.67.23-1.19.68-1.56s1.09-.55,1.92-.55,1.47.18,1.92.55.68.89.68,1.56c0,.62-.23,1.1-.68,1.44s-1.09.51-1.92.51Zm0,3.41c.51,0,.91-.12,1.19-.36s.42-.58.42-1.02c0-.47-.14-.83-.42-1.1s-.67-.39-1.19-.39-.91.13-1.19.39-.42.63-.42,1.1c0,.44.14.78.42,1.02s.67.36,1.19.36Zm0-4c.44,0,.78-.1,1.01-.3s.36-.48.36-.83c0-.41-.12-.72-.36-.94s-.58-.33-1.01-.33-.78.11-1.01.33-.36.53-.36.94c0,.36.12.63.36.83s.58.3,1.01.3Zm-.97.82v-.6h1.96v.6h-1.96Z"/>
    <path class="cls-8" d="m38.17,9.05c-.9,0-1.59-.21-2.09-.64s-.74-1.03-.74-1.81h1.25c0,.43.14.77.41,1.01s.66.36,1.17.36.89-.15,1.16-.45.41-.72.41-1.27-.15-.95-.45-1.25-.72-.44-1.27-.44-1.06.13-1.54.39l.11-1c.31-.18.62-.29.92-.35s.61-.09.92-.09c.8,0,1.43.24,1.87.71s.66,1.15.66,2.03c0,.59-.11,1.1-.33,1.52s-.54.74-.96.96-.93.33-1.52.33Zm-2.32-4.1l.12-4.34h1.21l-.12,3.61-.55.73h-.66Zm.68-3.25l-.11-1.09h4.03v1.09h-3.93Z"/>
    <path class="cls-8" d="m0,19.73v-1.09h5.86v1.09H0Z"/>
    <path class="cls-8" d="m7.44,23.34v-1.11h2.23v1.11h-2.23Zm.12-6.43v-1.18l1.99-.7v1.21l-1.99.68Zm1.99,6.43v-8.32h1.17v8.32h-1.17Zm1.05,0v-1.11h2v1.11h-2Z"/>
    <path class="cls-8" d="m16.99,23.45c-1.89,0-2.84-1.41-2.84-4.22s.95-4.34,2.84-4.34,2.84,1.45,2.84,4.34-.95,4.22-2.84,4.22Zm0-1.08c1.05,0,1.58-1.05,1.58-3.14s-.53-3.26-1.58-3.26-1.58,1.09-1.58,3.26.53,3.14,1.58,3.14Zm0-2.26c-.26,0-.47-.08-.64-.24s-.24-.37-.24-.64.08-.48.24-.64.37-.24.64-.24.48.08.64.24.24.37.24.64-.08.47-.24.64-.37.24-.64.24Z"/>
    <path class="cls-8" d="m35.46,23.34v-1.31c1.29-.71,2.25-1.45,2.88-2.23s.95-1.57.95-2.39c0-.48-.12-.83-.35-1.07s-.59-.36-1.07-.36c-.32,0-.65.09-.99.28s-.64.43-.88.73l-.81-.8c.27-.39.65-.7,1.15-.93s1.02-.35,1.56-.35c.88,0,1.54.21,1.97.62s.65,1.04.65,1.88-.27,1.65-.8,2.43-1.34,1.52-2.43,2.24v1.27h-1.83Zm.35,0v-1.09h5.06v1.09h-5.06Z"/>
    <path class="cls-8" d="m45.2,23.45c-.9,0-1.59-.21-2.09-.64s-.74-1.03-.74-1.81h1.25c0,.43.14.77.41,1.01s.66.36,1.17.36.89-.15,1.16-.45.41-.72.41-1.27-.15-.95-.45-1.25-.72-.44-1.27-.44-1.06.13-1.54.39l.11-1c.31-.18.62-.29.92-.35s.61-.09.92-.09c.8,0,1.43.24,1.87.71s.66,1.15.66,2.03c0,.59-.11,1.1-.33,1.52s-.54.74-.96.96-.93.33-1.52.33Zm-2.32-4.1l.12-4.34h1.21l-.12,3.61-.55.73h-.66Zm.68-3.25l-.11-1.09h4.03v1.09h-3.93Z"/>
    <path class="cls-8" d="m14.37,37.74v-1.31c1.29-.71,2.25-1.45,2.88-2.23s.95-1.57.95-2.39c0-.48-.12-.83-.35-1.07s-.59-.36-1.07-.36c-.32,0-.65.09-.99.28s-.64.43-.88.73l-.81-.8c.27-.39.65-.7,1.15-.93s1.02-.35,1.56-.35c.88,0,1.54.21,1.97.62s.65,1.04.65,1.88-.27,1.65-.8,2.43-1.34,1.52-2.43,2.24v1.27h-1.83Zm.35,0v-1.09h5.06v1.09h-5.06Z"/>
    <path class="cls-8" d="m24.02,37.85c-.9,0-1.6-.21-2.09-.63s-.74-1.01-.74-1.77c0-.7.25-1.24.74-1.62s1.19-.57,2.09-.57,1.6.19,2.09.57.74.92.74,1.62c0,.76-.25,1.35-.74,1.77s-1.19.63-2.09.63Zm0-4.49c-.82,0-1.46-.17-1.92-.51s-.68-.82-.68-1.44c0-.67.23-1.19.68-1.56s1.09-.55,1.92-.55,1.47.18,1.92.55.68.89.68,1.56c0,.62-.23,1.1-.68,1.44s-1.09.51-1.92.51Zm0,3.41c.51,0,.91-.12,1.19-.36s.42-.58.42-1.02c0-.47-.14-.83-.42-1.1s-.67-.39-1.19-.39-.91.13-1.19.39-.42.63-.42,1.1c0,.44.14.78.42,1.02s.67.36,1.19.36Zm0-4c.44,0,.78-.1,1.01-.3s.36-.48.36-.83c0-.41-.12-.72-.36-.94s-.58-.33-1.01-.33-.78.11-1.01.33-.36.53-.36.94c0,.36.12.63.36.83s.58.3,1.01.3Zm-.97.82v-.6h1.96v.6h-1.96Z"/>
    <path class="cls-8" d="m7.03,48.53v-1.09h5.86v1.09h-5.86Z"/>
    <path class="cls-8" d="m14.37,52.14v-1.31c1.29-.71,2.25-1.45,2.88-2.23s.95-1.57.95-2.39c0-.48-.12-.83-.35-1.07s-.59-.36-1.07-.36c-.32,0-.65.09-.99.28s-.64.43-.88.73l-.81-.8c.27-.39.65-.7,1.15-.93s1.02-.35,1.56-.35c.88,0,1.54.21,1.97.62s.65,1.04.65,1.88-.27,1.65-.8,2.43-1.34,1.52-2.43,2.24v1.27h-1.83Zm.35,0v-1.09h5.06v1.09h-5.06Z"/>
    <path class="cls-8" d="m24.11,52.25c-.9,0-1.59-.21-2.09-.64s-.74-1.03-.74-1.81h1.25c0,.43.14.77.41,1.01s.66.36,1.17.36.89-.15,1.16-.45.41-.72.41-1.27-.15-.95-.45-1.25-.72-.44-1.27-.44-1.06.13-1.54.39l.11-1c.31-.18.62-.29.92-.35s.61-.09.92-.09c.8,0,1.43.24,1.87.71s.66,1.15.66,2.03c0,.59-.11,1.1-.33,1.52s-.54.74-.96.96-.93.33-1.52.33Zm-2.32-4.1l.12-4.34h1.21l-.12,3.61-.55.73h-.66Zm.68-3.25l-.11-1.09h4.03v1.09h-3.93Z"/>
    <path class="cls-8" d="m22.73,62.73l-.14-.76c.62-.08,1.12-.2,1.5-.36s.67-.35.85-.58.27-.48.27-.76c0-.34-.11-.6-.33-.79s-.54-.28-.95-.28c-.3,0-.61.07-.95.22s-.65.37-.95.67l-.81-.8c.36-.41.78-.7,1.25-.89s1-.28,1.58-.28c.76,0,1.34.16,1.76.48s.62.78.62,1.38c0,.5-.16.93-.48,1.3s-.74.62-1.25.76v.7h-1.98Zm.79,3.93c-.43,0-.82-.03-1.18-.08s-.67-.12-.95-.21l.15-1.12c.24.07.51.14.81.21s.68.11,1.13.11c.61,0,1.08-.12,1.42-.36s.5-.58.5-1.02c0-.31-.1-.58-.29-.8s-.47-.38-.84-.5-.81-.17-1.34-.17h-.19l-.14-.76,1.79.14c.66.05,1.2.27,1.62.65s.62.9.62,1.56c0,.74-.27,1.32-.81,1.73s-1.31.62-2.29.62Z"/>
  </g>
  <line class="cls-3" x1="32.04" y1=".5" x2="32.04" y2="68.43"/>
  <line class="cls-3" x1="32.04" y1="11.49" x2="53.23" y2="11.49"/>
  <line class="cls-3" x1="7" y1="26.17" x2="19.76" y2="26.17"/>
  <line class="cls-3" x1="14.07" y1="54.89" x2="26.83" y2="54.89"/>
  <g>
    <line class="cls-3" x1="24.72" y1="12.13" x2="24.72" y2="22.64"/>
    <polygon class="cls-8" points="24.72 26.17 22.69 21.2 24.72 22.38 26.75 21.2 24.72 26.17"/>
  </g>
  <g>
    <path class="cls-8" d="m105.04,22.86v-1.11h2.23v1.11h-2.23Zm.12-6.43v-1.18l1.99-.7v1.21l-1.99.68Zm1.99,6.43v-8.32h1.17v8.32h-1.17Zm1.05,0v-1.11h2v1.11h-2Z"/>
    <path class="cls-8" d="m111.97,22.86v-1.31c1.29-.71,2.25-1.45,2.88-2.23s.95-1.57.95-2.39c0-.48-.12-.83-.35-1.07s-.59-.36-1.07-.36c-.32,0-.65.09-.99.28s-.64.43-.88.73l-.81-.8c.27-.39.65-.7,1.15-.93s1.02-.35,1.56-.35c.88,0,1.54.21,1.97.62s.65,1.04.65,1.88-.27,1.65-.8,2.43-1.34,1.52-2.43,2.24v1.27h-1.83Zm.35,0v-1.09h5.06v1.09h-5.06Z"/>
    <path class="cls-8" d="m121.62,22.98c-.9,0-1.6-.21-2.09-.63s-.74-1.01-.74-1.77c0-.7.25-1.24.74-1.62s1.19-.57,2.09-.57,1.6.19,2.09.57.74.92.74,1.62c0,.76-.25,1.35-.74,1.77s-1.19.63-2.09.63Zm0-4.49c-.82,0-1.46-.17-1.92-.51s-.68-.82-.68-1.44c0-.67.23-1.19.68-1.56s1.09-.55,1.92-.55,1.47.18,1.92.55.68.89.68,1.56c0,.62-.23,1.1-.68,1.44s-1.09.51-1.92.51Zm0,3.41c.51,0,.91-.12,1.19-.36s.42-.58.42-1.02c0-.47-.14-.83-.42-1.1s-.67-.39-1.19-.39-.91.13-1.19.39-.42.63-.42,1.1c0,.44.14.78.42,1.02s.67.36,1.19.36Zm0-4c.44,0,.78-.1,1.01-.3s.36-.48.36-.83c0-.41-.12-.72-.36-.94s-.58-.33-1.01-.33-.78.11-1.01.33-.36.53-.36.94c0,.36.12.63.36.83s.58.3,1.01.3Zm-.97.82v-.6h1.96v.6h-1.96Z"/>
    <path class="cls-8" d="m132.75,17.79v-1.09h5.86v1.09h-5.86Zm0,2.93v-1.09h5.86v1.09h-5.86Z"/>
    <path class="cls-8" d="m149.83,22.98c-.9,0-1.59-.21-2.09-.64s-.74-1.03-.74-1.81h1.25c0,.43.14.77.41,1.01s.66.36,1.17.36.89-.15,1.16-.45.41-.72.41-1.27-.15-.95-.45-1.25-.72-.44-1.27-.44-1.06.13-1.54.39l.11-1c.31-.18.62-.29.92-.35s.61-.09.92-.09c.8,0,1.43.24,1.87.71s.66,1.15.66,2.03c0,.59-.11,1.1-.33,1.52s-.54.74-.96.96-.93.33-1.52.33Zm-2.32-4.1l.12-4.34h1.21l-.12,3.61-.55.73h-.66Zm.68-3.25l-.11-1.09h4.03v1.09h-3.93Z"/>
    <path class="cls-8" d="m161,21.05l4.86-5.15.75.72-4.86,5.14-.75-.71Zm0-4.43l.75-.72,4.86,5.15-.75.71-4.86-5.14Z"/>
    <path class="cls-8" d="m175.25,22.86v-1.31c1.29-.71,2.25-1.45,2.88-2.23s.95-1.57.95-2.39c0-.48-.12-.83-.35-1.07s-.59-.36-1.07-.36c-.32,0-.65.09-.99.28s-.64.43-.88.73l-.81-.8c.27-.39.65-.7,1.15-.93s1.02-.35,1.56-.35c.88,0,1.54.21,1.97.62s.65,1.04.65,1.88-.27,1.65-.8,2.43-1.34,1.52-2.43,2.24v1.27h-1.83Zm.35,0v-1.09h5.06v1.09h-5.06Z"/>
    <path class="cls-8" d="m184.99,22.98c-.9,0-1.59-.21-2.09-.64s-.74-1.03-.74-1.81h1.25c0,.43.14.77.41,1.01s.66.36,1.17.36.89-.15,1.16-.45.41-.72.41-1.27-.15-.95-.45-1.25-.72-.44-1.27-.44-1.06.13-1.54.39l.11-1c.31-.18.62-.29.92-.35s.61-.09.92-.09c.8,0,1.43.24,1.87.71s.66,1.15.66,2.03c0,.59-.11,1.1-.33,1.52s-.54.74-.96.96-.93.33-1.52.33Zm-2.32-4.1l.12-4.34h1.21l-.12,3.61-.55.73h-.66Zm.68-3.25l-.11-1.09h4.03v1.09h-3.93Z"/>
    <path class="cls-8" d="m196.04,19.25v-1.09h5.86v1.09h-5.86Zm2.37,2.5v-6.08h1.12v6.08h-1.12Z"/>
    <path class="cls-8" d="m211.74,19.05l-.14-.76c.62-.08,1.12-.2,1.5-.36s.67-.35.85-.58.27-.48.27-.76c0-.34-.11-.6-.33-.79s-.54-.28-.95-.28c-.3,0-.61.07-.95.22s-.65.37-.95.67l-.81-.8c.36-.41.78-.7,1.25-.89s1-.28,1.58-.28c.76,0,1.34.16,1.76.48s.62.78.62,1.38c0,.5-.16.93-.48,1.3s-.74.62-1.25.76v.7h-1.98Zm.79,3.93c-.43,0-.82-.03-1.18-.08s-.67-.12-.95-.21l.15-1.12c.24.07.51.14.81.21s.68.11,1.13.11c.61,0,1.08-.12,1.42-.36s.5-.58.5-1.02c0-.31-.1-.58-.29-.8s-.47-.38-.84-.5-.81-.17-1.34-.17h-.19l-.14-.76,1.79.14c.66.05,1.2.27,1.62.65s.62.9.62,1.56c0,.74-.27,1.32-.81,1.73s-1.31.62-2.29.62Z"/>
  </g>
  <rect class="cls-6" x="53.23" y="37.32" width="59.11" height="17.53" rx="2" ry="2"/>
  <rect class="cls-2" x="117.44" y="37.32" width="53.45" height="17.53" rx="2" ry="2"/>
  <rect class="cls-5" x="176.55" y="37.32" width="51.87" height="17.53" rx="2" ry="2"/>
  <rect class="cls-1" x="234.89" y="37.32" width="36.43" height="17.53" rx="2" ry="2"/>
  <g>
    <path class="cls-7" d="m57.32,49.92v-6.93h.98v6.93h-.98Zm.91,0v-.93h.77c.71,0,1.25-.2,1.61-.61s.54-1.02.54-1.83c0-.88-.18-1.54-.54-1.98s-.9-.66-1.61-.66h-.75l-.12-.93h.87c2.12,0,3.17,1.19,3.17,3.56,0,2.25-1.06,3.37-3.17,3.37h-.77Z"/>
    <path class="cls-7" d="m63.27,49.92v-.85h2.07v.85h-2.07Zm.29-4.33v-.85h2.71v.85h-2.71Zm2.16-1.67c-.2,0-.37-.07-.51-.21s-.21-.31-.21-.51.07-.37.21-.51.31-.21.51-.21.37.07.51.21.21.31.21.51-.07.37-.21.51-.31.21-.51.21Zm-.48,6v-4.88h1.04v4.88h-1.04Zm.94,0v-.85h1.69v.85h-1.69Z"/>
    <path class="cls-7" d="m70.59,49.92l-1.85-5.18h1.1l1.39,4.3h.09l1.39-4.3h1.1l-1.85,5.18h-1.38Z"/>
    <path class="cls-7" d="m74.99,49.92v-.85h2.07v.85h-2.07Zm.29-4.33v-.85h2.71v.85h-2.71Zm2.16-1.67c-.2,0-.37-.07-.51-.21-.14-.14-.21-.31-.21-.51s.07-.37.21-.51c.14-.14.31-.21.51-.21s.37.07.51.21.21.31.21.51-.07.37-.21.51-.31.21-.51.21Zm-.48,6v-4.88h1.04v4.88h-1.04Zm.94,0v-.85h1.69v.85h-1.69Z"/>
    <path class="cls-7" d="m82.6,50.02c-.68,0-1.19-.22-1.54-.67-.35-.45-.53-1.1-.53-1.97s.17-1.58.53-2.04c.35-.46.86-.69,1.54-.69.39,0,.7.09.94.27.24.18.39.44.43.76h.4l-.3,1.47c0-.53-.11-.94-.31-1.22-.21-.28-.52-.42-.93-.42s-.73.16-.95.47-.32.77-.32,1.39c0,.58.11,1.02.32,1.31s.53.44.95.44.71-.14.93-.42c.21-.28.31-.68.31-1.22l.35,1.47h-.45c-.03.33-.17.58-.41.76-.24.18-.56.27-.96.27Zm1.58-.05l-.11-1.02v-6.36h1.04v7.32l-.93.05Z"/>
    <path class="cls-7" d="m89.36,50.02c-.88,0-1.56-.23-2.04-.7-.48-.46-.72-1.13-.72-2s.2-1.5.61-1.97.98-.7,1.72-.7c.7,0,1.24.21,1.62.63.38.42.57,1.04.57,1.85,0,.24,0,.46-.03.66h-3.63v-.79h2.72c0-.47-.11-.82-.33-1.07s-.53-.37-.92-.37c-.44,0-.78.15-1.02.45-.24.3-.36.72-.36,1.27,0,.6.17,1.05.5,1.37.33.31.81.47,1.42.47.21,0,.43-.01.63-.04s.42-.06.63-.1l.13.91c-.31.06-.59.1-.84.11s-.48.02-.67.02Z"/>
    <path class="cls-7" d="m92.61,49.92v-5.18h.94l.1,1.09v4.08h-1.04Zm3.18,0v-3.37c0-.31-.08-.55-.24-.72s-.39-.25-.68-.25c-.81,0-1.22.48-1.22,1.44l-.3-1.33h.4c.03-.35.16-.61.38-.78s.55-.26.99-.26c.55,0,.97.17,1.27.5s.45.8.45,1.41v3.37h-1.04Z"/>
    <path class="cls-7" d="m100.18,50.02c-.68,0-1.19-.22-1.54-.67-.35-.45-.53-1.1-.53-1.97s.17-1.58.53-2.04c.35-.46.86-.69,1.54-.69.39,0,.7.09.94.27.24.18.39.44.43.76h.4l-.3,1.47c0-.53-.11-.94-.31-1.22-.21-.28-.52-.42-.93-.42s-.73.16-.95.47-.32.77-.32,1.39c0,.58.11,1.02.32,1.31s.53.44.95.44.71-.14.93-.42c.21-.28.31-.68.31-1.22l.35,1.47h-.45c-.03.33-.17.58-.41.76-.24.18-.56.27-.96.27Zm1.58-.05l-.11-1.02v-6.36h1.04v7.32l-.93.05Z"/>
    <path class="cls-7" d="m106.94,50.02c-.88,0-1.56-.23-2.04-.7-.48-.46-.72-1.13-.72-2s.2-1.5.61-1.97.98-.7,1.72-.7c.7,0,1.24.21,1.62.63.38.42.57,1.04.57,1.85,0,.24,0,.46-.03.66h-3.63v-.79h2.72c0-.47-.11-.82-.33-1.07s-.53-.37-.92-.37c-.44,0-.78.15-1.02.45-.24.3-.36.72-.36,1.27,0,.6.17,1.05.5,1.37.33.31.81.47,1.42.47.21,0,.43-.01.63-.04s.42-.06.63-.1l.13.91c-.31.06-.59.1-.84.11s-.48.02-.67.02Z"/>
    <path class="cls-7" d="m121.77,49.92v-6.93h.98v6.93h-.98Zm.91,0v-.93h.77c.71,0,1.25-.2,1.61-.61.36-.41.54-1.02.54-1.83,0-.88-.18-1.54-.54-1.98-.36-.44-.9-.66-1.61-.66h-.75l-.12-.93h.87c2.12,0,3.17,1.19,3.17,3.56,0,2.25-1.06,3.37-3.17,3.37h-.77Z"/>
    <path class="cls-7" d="m127.73,49.92v-.85h2.07v.85h-2.07Zm.29-4.33v-.85h2.71v.85h-2.71Zm2.16-1.67c-.2,0-.37-.07-.51-.21-.14-.14-.21-.31-.21-.51s.07-.37.21-.51c.14-.14.31-.21.51-.21s.37.07.51.21.21.31.21.51-.07.37-.21.51-.31.21-.51.21Zm-.48,6v-4.88h1.04v4.88h-1.04Zm.94,0v-.85h1.69v.85h-1.69Z"/>
    <path class="cls-7" d="m135.05,49.92l-1.85-5.18h1.1l1.39,4.3h.09l1.39-4.3h1.1l-1.85,5.18h-1.38Z"/>
    <path class="cls-7" d="m139.45,49.92v-.85h2.07v.85h-2.07Zm.29-4.33v-.85h2.71v.85h-2.71Zm2.16-1.67c-.2,0-.37-.07-.51-.21-.14-.14-.21-.31-.21-.51s.07-.37.21-.51c.14-.14.31-.21.51-.21s.37.07.51.21.21.31.21.51-.07.37-.21.51-.31.21-.51.21Zm-.48,6v-4.88h1.04v4.88h-1.04Zm.94,0v-.85h1.69v.85h-1.69Z"/>
    <path class="cls-7" d="m147.05,50.02c-.39,0-.72-.01-1-.03-.28-.02-.53-.06-.76-.11l.12-.94c.34.05.64.09.91.12.26.03.51.04.74.04.52,0,.9-.05,1.14-.15.24-.1.35-.27.35-.49,0-.16-.04-.27-.12-.35-.08-.08-.21-.14-.38-.18l-1.19-.3c-.51-.13-.89-.29-1.12-.48-.24-.19-.36-.48-.36-.87,0-.57.22-.98.65-1.23.43-.25,1.13-.38,2.1-.38.25,0,.48,0,.7.02.22.01.44.04.67.08l-.11.9c-.26-.03-.5-.04-.7-.05s-.4-.01-.59-.01c-.58,0-1,.05-1.26.15s-.39.26-.39.49c0,.15.05.26.16.32s.27.13.49.18l.96.23c.54.13.94.3,1.19.52.25.22.38.54.38.95,0,.56-.2.96-.61,1.21s-1.06.38-1.96.38Z"/>
    <path class="cls-7" d="m153.81,50.02c-.88,0-1.56-.23-2.04-.7-.48-.46-.72-1.13-.72-2s.2-1.5.61-1.97.98-.7,1.72-.7c.7,0,1.24.21,1.62.63.38.42.57,1.04.57,1.85,0,.24,0,.46-.03.66h-3.63v-.79h2.72c0-.47-.11-.82-.33-1.07s-.53-.37-.92-.37c-.44,0-.78.15-1.02.45-.24.3-.36.72-.36,1.27,0,.6.17,1.05.5,1.37.33.31.81.47,1.42.47.21,0,.43-.01.63-.04s.42-.06.63-.1l.13.91c-.31.06-.59.1-.84.11s-.48.02-.67.02Z"/>
    <path class="cls-7" d="m158.66,50.02c-.54,0-.96-.16-1.26-.49-.3-.32-.45-.78-.45-1.37v-3.42h1.04v3.42c0,.3.08.52.25.69s.41.24.71.24c.38,0,.66-.12.85-.36s.29-.64.29-1.2l.26,1.4h-.34c-.08.35-.24.62-.48.81s-.53.28-.88.28Zm1.44-1.56v-3.71h1.04v3.42l-1.04.29Zm.09,1.51l-.09-1.24v-.91h1.04v1.16l.71.11v.83l-1.66.05Z"/>
    <path class="cls-7" d="m162.49,49.92v-.85h3.46v.85h-3.46Zm.2-4.33v-.85h1.73l.1.85h-1.83Zm.96,4.33v-5.18h.84l.2,1.48v3.69h-1.04Zm1.04-2.23l-.3-1.62h.4c.06-.95.53-1.43,1.43-1.43.53,0,.92.15,1.16.46s.36.8.36,1.48h-1.03c0-.38-.06-.65-.17-.82-.11-.17-.29-.25-.54-.25-.44,0-.77.19-.98.56-.22.38-.32.91-.32,1.6Z"/>
    <path class="cls-7" d="m182.61,50.02c-1.71,0-2.56-1.17-2.56-3.52s.85-3.61,2.56-3.61,2.56,1.2,2.56,3.61-.85,3.52-2.56,3.52Zm0-.9c1.02,0,1.53-.87,1.53-2.62s-.51-2.71-1.53-2.71-1.53.9-1.53,2.71.51,2.62,1.53,2.62Zm1.61,3.05c-.7,0-1.23-.18-1.59-.54s-.53-.9-.53-1.61v-.4h.97v.41c0,.42.1.73.29.94s.48.31.86.31h.5l-.1.88h-.4Z"/>
    <path class="cls-7" d="m187.96,50.02c-.54,0-.96-.16-1.26-.49-.3-.32-.45-.78-.45-1.37v-3.42h1.04v3.42c0,.3.08.52.25.69s.41.24.71.24c.38,0,.66-.12.85-.36s.29-.64.29-1.2l.26,1.4h-.34c-.08.35-.24.62-.48.81s-.53.28-.88.28Zm1.44-1.56v-3.71h1.04v3.42l-1.04.29Zm.09,1.51l-.09-1.24v-.91h1.04v1.16l.71.11v.83l-1.66.05Z"/>
    <path class="cls-7" d="m194.33,50.02c-.72,0-1.27-.23-1.67-.7s-.6-1.13-.6-1.98.2-1.52.6-1.98.95-.7,1.67-.7,1.28.23,1.67.7c.4.47.59,1.13.59,1.98s-.2,1.51-.59,1.98c-.39.47-.95.7-1.67.7Zm0-.93c.38,0,.67-.15.88-.46.21-.31.31-.74.31-1.3s-.1-1-.31-1.3c-.21-.3-.5-.46-.88-.46s-.67.15-.88.46c-.21.3-.31.74-.31,1.3s.1.99.31,1.3c.21.31.5.46.88.46Z"/>
    <path class="cls-7" d="m197.6,45.59v-.85h4.69v.85h-4.69Zm1.3,1.88v-4.3h1.04v4.3h-1.04Zm2.23,2.54c-.78,0-1.35-.16-1.7-.49-.35-.33-.53-.85-.53-1.56v-.88h1.04v.83c0,.41.1.71.3.89.2.19.53.28.99.28.16,0,.33,0,.52-.03s.39-.04.62-.07l.12.91c-.23.04-.45.07-.67.09-.22.02-.45.03-.69.03Z"/>
    <path class="cls-7" d="m203.9,49.92v-.85h2.07v.85h-2.07Zm.29-4.33v-.85h2.71v.85h-2.71Zm2.16-1.67c-.2,0-.37-.07-.51-.21-.14-.14-.21-.31-.21-.51s.07-.37.21-.51c.14-.14.31-.21.51-.21s.37.07.51.21.21.31.21.51-.07.37-.21.51-.31.21-.51.21Zm-.48,6v-4.88h1.04v4.88h-1.04Zm.94,0v-.85h1.69v.85h-1.69Z"/>
    <path class="cls-7" d="m212.4,50.02c-.88,0-1.56-.23-2.04-.7-.48-.46-.72-1.13-.72-2s.2-1.5.61-1.97.98-.7,1.72-.7c.7,0,1.24.21,1.62.63.38.42.57,1.04.57,1.85,0,.24,0,.46-.03.66h-3.63v-.79h2.72c0-.47-.11-.82-.33-1.07s-.53-.37-.92-.37c-.44,0-.78.15-1.02.45-.24.3-.36.72-.36,1.27,0,.6.17,1.05.5,1.37.33.31.81.47,1.42.47.21,0,.43-.01.63-.04s.42-.06.63-.1l.13.91c-.31.06-.59.1-.84.11s-.48.02-.67.02Z"/>
    <path class="cls-7" d="m215.66,49.92v-5.18h.94l.1,1.09v4.08h-1.04Zm3.18,0v-3.37c0-.31-.08-.55-.24-.72s-.39-.25-.68-.25c-.81,0-1.22.48-1.22,1.44l-.3-1.33h.4c.03-.35.16-.61.38-.78s.55-.26.99-.26c.55,0,.97.17,1.27.5s.45.8.45,1.41v3.37h-1.04Z"/>
    <path class="cls-7" d="m221.04,45.59v-.85h4.69v.85h-4.69Zm1.3,1.88v-4.3h1.04v4.3h-1.04Zm2.23,2.54c-.78,0-1.35-.16-1.7-.49-.35-.33-.53-.85-.53-1.56v-.88h1.04v.83c0,.41.1.71.3.89.2.19.53.28.99.28.16,0,.33,0,.52-.03s.39-.04.62-.07l.12.91c-.23.04-.45.07-.67.09-.22.02-.45.03-.69.03Z"/>
    <path class="cls-7" d="m238.96,49.92v-6.93h.98v6.93h-.98Zm.91-2.64v-.93h1.47c.39,0,.69-.1.91-.31.22-.21.32-.49.32-.86,0-.41-.11-.72-.32-.94-.22-.22-.52-.33-.91-.33h-1.46l-.12-.93h1.57c.72,0,1.28.18,1.67.55.39.36.59.88.59,1.55s-.2,1.24-.59,1.62c-.39.38-.95.58-1.67.58h-1.47Zm2.81,2.64l-1.55-3.26h1.07l1.65,3.26h-1.17Z"/>
    <path class="cls-7" d="m247.56,50.02c-.88,0-1.56-.23-2.04-.7-.48-.46-.72-1.13-.72-2s.2-1.5.61-1.97.98-.7,1.72-.7c.7,0,1.24.21,1.62.63.38.42.57,1.04.57,1.85,0,.24,0,.46-.03.66h-3.63v-.79h2.72c0-.47-.11-.82-.33-1.07s-.53-.37-.92-.37c-.44,0-.78.15-1.02.45-.24.3-.36.72-.36,1.27,0,.6.17,1.05.5,1.37.33.31.81.47,1.42.47.21,0,.43-.01.63-.04s.42-.06.63-.1l.13.91c-.31.06-.59.1-.84.11s-.48.02-.67.02Z"/>
    <path class="cls-7" d="m252.52,50.02c-.39,0-.72-.01-1-.03-.28-.02-.53-.06-.76-.11l.12-.94c.34.05.64.09.91.12.26.03.51.04.74.04.52,0,.9-.05,1.14-.15.24-.1.35-.27.35-.49,0-.16-.04-.27-.12-.35-.08-.08-.21-.14-.38-.18l-1.19-.3c-.51-.13-.89-.29-1.12-.48-.24-.19-.36-.48-.36-.87,0-.57.22-.98.65-1.23.43-.25,1.13-.38,2.1-.38.25,0,.48,0,.7.02.22.01.44.04.67.08l-.11.9c-.26-.03-.5-.04-.7-.05s-.4-.01-.59-.01c-.58,0-1,.05-1.26.15s-.39.26-.39.49c0,.15.05.26.16.32s.27.13.49.18l.96.23c.54.13.94.3,1.19.52.25.22.38.54.38.95,0,.56-.2.96-.61,1.21s-1.06.38-1.96.38Z"/>
    <path class="cls-7" d="m256.19,45.59v-.85h4.69v.85h-4.69Zm1.3,1.88v-4.3h1.04v4.3h-1.04Zm2.23,2.54c-.78,0-1.35-.16-1.7-.49-.35-.33-.53-.85-.53-1.56v-.88h1.04v.83c0,.41.1.71.3.89.2.19.53.28.99.28.16,0,.33,0,.52-.03s.39-.04.62-.07l.12.91c-.23.04-.45.07-.67.09-.22.02-.45.03-.69.03Z"/>
    <path class="cls-7" d="m265.14,50.02c-.88,0-1.56-.23-2.04-.7-.48-.46-.72-1.13-.72-2s.2-1.5.61-1.97.98-.7,1.72-.7c.7,0,1.24.21,1.62.63.38.42.57,1.04.57,1.85,0,.24,0,.46-.03.66h-3.63v-.79h2.72c0-.47-.11-.82-.33-1.07s-.53-.37-.92-.37c-.44,0-.78.15-1.02.45-.24.3-.36.72-.36,1.27,0,.6.17,1.05.5,1.37.33.31.81.47,1.42.47.21,0,.43-.01.63-.04s.42-.06.63-.1l.13.91c-.31.06-.59.1-.84.11s-.48.02-.67.02Z"/>
  </g>
  <g>
    <line class="cls-4" x1="92.59" y1="33.4" x2="103.58" y2="27.78"/>
    <polygon class="cls-8" points="106.72 26.17 103.22 30.25 103.34 27.9 101.36 26.63 106.72 26.17"/>
  </g>
  <g>
    <line class="cls-4" x1="149.44" y1="32.89" x2="149.52" y2="30.12"/>
    <polygon class="cls-8" points="149.61 26.6 151.51 31.62 149.51 30.39 147.45 31.51 149.61 26.6"/>
  </g>
  <g>
    <line class="cls-4" x1="191.31" y1="33.06" x2="187.27" y2="29.33"/>
    <polygon class="cls-8" points="184.68 26.94 189.71 28.82 187.46 29.51 186.95 31.8 184.68 26.94"/>
  </g>
  <g>
    <line class="cls-4" x1="246.63" y1="32.89" x2="220.09" y2="25.96"/>
    <polygon class="cls-8" points="216.68 25.06 222 24.35 220.35 26.02 220.97 28.29 216.68 25.06"/>
  </g>
</svg>