<?xml version="1.0" encoding="utf-8"?>
<!-- Generator: Adobe Illustrator 23.0.0, SVG Export Plug-In . SVG Version: 6.00 Build 0)  -->
<svg version="1.1" id="Calque_2" xmlns="http://www.w3.org/2000/svg" xmlns:xlink="http://www.w3.org/1999/xlink" x="0px" y="0px"
	 viewBox="0 0 841.9 595.3" style="enable-background:new 0 0 841.9 595.3;" xml:space="preserve">
<style type="text/css">
	.st0{filter:url(#Adobe_OpacityMaskFilter);}
	.st1{fill:#FFFFFF;stroke:#000000;stroke-width:0.9974;stroke-linejoin:round;stroke-miterlimit:10;}
	.st2{mask:url(#SVGID_1_);}
	.st3{fill:#FBB040;stroke:#000000;stroke-linejoin:round;stroke-miterlimit:10;}
	.st4{fill:#8A76B6;stroke:#000000;stroke-linejoin:round;stroke-miterlimit:10;}
	.st5{fill:#8DC63F;stroke:#000000;stroke-linejoin:round;stroke-miterlimit:10;}
</style>
<defs>
	<filter id="Adobe_OpacityMaskFilter" filterUnits="userSpaceOnUse" x="-90.3" y="-80.4" width="1077.8" height="823.4">
		<feColorMatrix  type="matrix" values="1 0 0 0 0  0 1 0 0 0  0 0 1 0 0  0 0 0 1 0"/>
	</filter>
</defs>
<mask maskUnits="userSpaceOnUse" x="-90.3" y="-80.4" width="1077.8" height="823.4" id="SVGID_1_">
	<g class="st0">
		<rect x="0" y="0" class="st1" width="841.9" height="595.3"/>
	</g>
</mask>
<g class="st2">
	<rect x="-46.9" y="-79.9" class="st3" width="1033.9" height="822.4"/>
	<rect x="45.9" y="-40.5" class="st4" width="68.1" height="85.5"/>
	<rect x="304.4" y="-40.5" class="st4" width="68.1" height="85.5"/>
	<rect x="554.2" y="-42.8" class="st4" width="68.1" height="85.5"/>
	<rect x="818.1" y="-38.3" class="st4" width="68.1" height="85.5"/>
	<polygon class="st4" points="0.9,348.3 -47.7,375.8 -84.2,348.3 -42.1,330.5 -41.6,274.6 7,247.1 43.5,274.6 1.4,292.3 	"/>
	<polygon class="st4" points="0.9,495.7 -47.7,523.3 -84.2,495.8 -42.1,478 -41.6,422.1 7,394.5 43.5,422.1 1.4,439.8 	"/>
	<polygon class="st5" points="0.9,348.3 49.1,376.7 43.5,422 7,394.4 -41.6,422 -89.8,393.6 -84.2,348.3 -47.8,375.9 	"/>
	<polygon class="st3" points="1,348.3 1.4,292.4 43.5,274.6 37.8,320 86,348.3 85.6,404.2 43.5,422 49.2,376.6 	"/>
	<polygon class="st4" points="128.6,422 80,449.6 43.5,422 85.6,404.3 86.1,348.3 134.7,320.8 171.2,348.3 129,366.1 	"/>
	<polygon class="st5" points="0.9,495.7 49.1,524.1 43.5,569.4 7,541.8 -41.6,569.4 -89.8,541 -84.2,495.7 -47.7,523.3 	"/>
	<polygon class="st3" points="1,495.7 1.4,439.8 43.5,422 37.8,467.4 86,495.7 85.6,551.6 43.5,569.4 49.2,524.1 	"/>
	<polygon class="st5" points="128.6,422 176.8,450.3 171.1,495.7 134.7,468.1 86.1,495.7 37.9,467.3 43.5,422 79.9,449.6 	"/>
	<polygon class="st3" points="128.7,422 129.1,366.1 171.2,348.3 165.5,393.6 213.7,422 213.3,477.9 171.2,495.7 176.9,450.3 	"/>
	<polygon class="st4" points="0.9,643 -47.7,670.6 -84.2,643.1 -42,625.3 -41.6,569.4 7,541.8 43.5,569.4 1.4,587.1 	"/>
	<polygon class="st5" points="128.6,569.4 176.8,597.7 171.2,643 134.7,615.4 86.1,643 37.9,614.7 43.5,569.3 80,596.9 	"/>
	<polygon class="st4" points="128.6,569.3 80,596.9 43.5,569.4 85.6,551.6 86.1,495.7 134.7,468.1 171.2,495.7 129.1,513.4 	"/>
	<polygon class="st3" points="128.6,569.3 129.1,513.4 171.1,495.6 165.5,541 213.7,569.3 213.2,625.2 171.1,643 176.8,597.7 	"/>
	<polygon class="st4" points="256.2,643 207.6,670.6 171.2,643.1 213.3,625.3 213.7,569.4 262.4,541.8 298.8,569.4 256.7,587.1 	"/>
	<polygon class="st5" points="256.3,495.6 304.5,524 298.8,569.3 262.4,541.7 213.8,569.3 165.6,540.9 171.2,495.6 207.6,523.2 	"/>
	<polygon class="st4" points="256.3,495.6 207.6,523.1 171.2,495.6 213.3,477.9 213.8,421.9 262.4,394.4 298.9,421.9 256.7,439.7 	
		"/>
	<polygon class="st3" points="256.3,495.6 256.7,439.7 298.8,421.9 293.1,467.3 341.3,495.6 340.9,551.5 298.8,569.3 304.5,523.9 	
		"/>
	<polygon class="st5" points="383.9,569.3 432.1,597.7 426.5,643 390,615.4 341.4,643 293.2,614.6 298.8,569.3 335.3,596.9 	"/>
	<polygon class="st4" points="383.9,569.3 335.3,596.8 298.8,569.3 340.9,551.6 341.4,495.6 390,468.1 426.5,495.6 384.4,513.4 	"/>
	<polygon class="st3" points="384,569.3 384.4,513.4 426.5,495.6 420.8,541 469,569.3 468.6,625.2 426.5,643 432.2,597.6 	"/>
	<polygon class="st4" points="511.6,643 463,670.6 426.5,643 468.6,625.3 469.1,569.3 517.7,541.8 554.2,569.3 512.1,587.1 	"/>
	<polygon class="st5" points="0.9,200.9 49.1,229.2 43.4,274.6 7,247 -41.6,274.5 -89.8,246.2 -84.2,200.9 -47.8,228.4 	"/>
	<polygon class="st4" points="0.9,200.9 -47.7,228.4 -84.2,200.9 -42.1,183.1 -41.6,127.2 7,99.7 43.5,127.2 1.3,144.9 	"/>
	<polygon class="st3" points="1,200.9 1.4,145 43.5,127.2 37.8,172.5 86,200.9 85.5,256.8 43.5,274.6 49.2,229.2 	"/>
	<polygon class="st4" points="128.6,274.6 79.9,302.1 43.5,274.6 85.6,256.8 86.1,200.9 134.7,173.4 171.1,200.9 129,218.6 	"/>
	<polygon class="st5" points="0.9,53.5 49.1,81.8 43.5,127.2 7.1,99.6 -41.6,127.1 -89.8,98.8 -84.2,53.5 -47.7,81 	"/>
	<polygon class="st4" points="0.9,53.5 -47.7,81 -84.1,53.5 -42,35.7 -41.6,-20.2 7.1,-47.7 43.5,-20.2 1.4,-2.5 	"/>
	<polygon class="st3" points="1,53.5 1.4,-2.4 43.5,-20.2 37.8,25.1 86,53.5 85.5,109.4 43.5,127.2 49.1,81.8 	"/>
	<polygon class="st5" points="128.6,127.2 176.7,155.5 171.1,200.9 134.7,173.3 86,200.8 37.9,172.5 43.5,127.2 79.9,154.7 	"/>
	<polygon class="st4" points="128.6,127.2 79.9,154.7 43.5,127.2 85.6,109.4 86.1,53.5 134.7,26 171.1,53.5 129,71.2 	"/>
	<polygon class="st3" points="128.6,127.2 129.1,71.3 171.2,53.5 165.5,98.8 213.7,127.2 213.2,183.1 171.2,200.9 176.8,155.5 	"/>
	<polygon class="st4" points="256.3,200.9 207.6,228.4 171.2,200.9 213.3,183.1 213.7,127.2 262.4,99.7 298.8,127.2 256.7,145 	"/>
	<polygon class="st5" points="128.6,-20.2 176.8,8.1 171.2,53.4 134.7,25.8 86.1,53.4 37.9,25.1 43.5,-20.3 80,7.3 	"/>
	<polygon class="st5" points="256.2,53.5 304.4,81.8 298.8,127.1 262.4,99.5 213.7,127.1 165.5,98.8 171.2,53.4 207.6,81 	"/>
	<polygon class="st4" points="256.2,53.4 207.6,81 171.2,53.4 213.3,35.7 213.7,-20.2 262.4,-47.8 298.8,-20.3 256.7,-2.5 	"/>
	<polygon class="st3" points="256.3,53.4 256.8,-2.5 298.8,-20.3 293.2,25.1 341.4,53.4 340.9,109.3 298.8,127.1 304.5,81.8 	"/>
	<polygon class="st4" points="383.9,127.1 335.3,154.7 298.9,127.1 341,109.4 341.4,53.5 390.1,25.9 426.5,53.4 384.4,71.2 	"/>
	<polygon class="st5" points="128.6,274.6 176.7,303 171.1,348.3 134.7,320.7 86,348.3 37.9,319.9 43.5,274.6 79.9,302.2 	"/>
	<polygon class="st3" points="128.6,274.6 129.1,218.7 171.2,200.9 165.5,246.3 213.7,274.6 213.2,330.5 171.2,348.3 176.8,302.9 	
		"/>
	<polygon class="st4" points="256.3,348.3 207.6,375.9 171.2,348.3 213.3,330.6 213.7,274.7 262.4,247.1 298.8,274.6 256.7,292.4 	
		"/>
	<polygon class="st5" points="256.2,200.9 304.4,229.3 298.8,274.6 262.4,247 213.7,274.6 165.5,246.2 171.2,200.9 207.6,228.5 	"/>
	<polygon class="st3" points="256.3,200.9 256.8,145 298.8,127.2 293.2,172.6 341.4,200.9 340.9,256.8 298.8,274.6 304.5,229.3 	"/>
	<polygon class="st4" points="384,274.6 335.3,302.2 298.9,274.6 341,256.9 341.4,201 390.1,173.4 426.5,200.9 384.4,218.7 	"/>
	<polygon class="st5" points="383.9,127.2 432.1,155.5 426.5,200.9 390,173.3 341.4,200.8 293.2,172.5 298.8,127.2 335.3,154.8 	"/>
	<polygon class="st3" points="384,127.2 384.5,71.3 426.5,53.5 420.9,98.8 469,127.2 468.6,183.1 426.5,200.9 432.2,155.5 	"/>
	<polygon class="st4" points="511.6,200.9 463,228.4 426.5,200.9 468.7,183.1 469.1,127.2 517.7,99.7 554.2,127.2 512.1,145 	"/>
	<polygon class="st5" points="256.3,348.3 304.4,376.7 298.8,422 262.4,394.4 213.7,422 165.6,393.6 171.2,348.3 207.6,375.9 	"/>
	<polygon class="st3" points="256.3,348.3 256.8,292.4 298.9,274.6 293.2,319.9 341.4,348.3 340.9,404.2 298.9,422 304.5,376.6 	"/>
	<polygon class="st5" points="383.9,274.6 432.1,303 426.5,348.3 390.1,320.7 341.4,348.3 293.2,319.9 298.9,274.6 335.3,302.2 	"/>
	<polygon class="st3" points="384,274.6 384.5,218.7 426.5,200.9 420.9,246.2 469.1,274.6 468.6,330.5 426.5,348.3 432.2,302.9 	"/>
	<polygon class="st5" points="511.6,200.9 559.8,229.2 554.2,274.5 517.7,247 469.1,274.5 420.9,246.2 426.5,200.8 463,228.4 	"/>
	<polygon class="st3" points="511.7,200.8 512.2,144.9 554.2,127.1 548.5,172.5 596.7,200.8 596.3,256.7 554.2,274.5 559.9,229.2 	
		"/>
	<polygon class="st5" points="384,421.9 432.1,450.3 426.5,495.6 390.1,468 341.4,495.6 293.2,467.2 298.9,421.9 335.3,449.5 	"/>
	<polygon class="st4" points="384,421.9 335.3,449.4 298.9,421.9 341,404.2 341.4,348.2 390.1,320.7 426.5,348.2 384.4,366 	"/>
	<polygon class="st3" points="384,421.9 384.4,366 426.5,348.2 420.8,393.6 469,421.9 468.6,477.8 426.5,495.6 432.2,450.2 	"/>
	<polygon class="st5" points="511.6,495.6 559.8,524 554.1,569.3 517.7,541.7 469.1,569.3 420.9,540.9 426.5,495.6 462.9,523.2 	"/>
	<polygon class="st4" points="511.6,495.6 463,523.2 426.5,495.6 468.6,477.9 469.1,421.9 517.7,394.4 554.2,421.9 512,439.7 	"/>
	<polygon class="st3" points="511.7,495.6 512.1,439.7 554.2,421.9 548.5,467.3 596.7,495.6 596.2,551.5 554.2,569.3 559.9,523.9 	
		"/>
	<polygon class="st4" points="639.3,569.3 590.6,596.9 554.2,569.3 596.3,551.6 596.8,495.6 645.4,468.1 681.9,495.6 639.7,513.4 	
		"/>
	<polygon class="st5" points="511.6,348.2 559.8,376.6 554.2,421.9 517.8,394.3 469.1,421.9 420.9,393.5 426.5,348.2 463,375.8 	"/>
	<polygon class="st4" points="511.6,348.2 463,375.8 426.6,348.2 468.7,330.5 469.1,274.5 517.8,247 554.2,274.5 512.1,292.3 	"/>
	<polygon class="st3" points="511.7,348.2 512.1,292.3 554.2,274.5 548.5,319.9 596.7,348.2 596.2,404.1 554.2,421.9 559.8,376.5 	
		"/>
	<polygon class="st5" points="639.3,421.9 687.4,450.3 681.8,495.6 645.4,468 596.7,495.6 548.6,467.2 554.2,421.9 590.6,449.5 	"/>
	<polygon class="st4" points="639.3,421.9 590.6,449.5 554.2,421.9 596.3,404.2 596.8,348.2 645.4,320.7 681.8,348.2 639.7,366 	"/>
	<polygon class="st3" points="639.3,421.9 639.8,366 681.9,348.2 676.2,393.6 724.4,421.9 723.9,477.8 681.9,495.6 687.5,450.2 	"/>
	<polygon class="st4" points="767,495.6 718.3,523.2 681.9,495.6 724,477.9 724.4,421.9 773.1,394.4 809.5,421.9 767.4,439.7 	"/>
	<polygon class="st5" points="639.3,274.5 687.5,302.8 681.9,348.2 645.4,320.6 596.8,348.1 548.6,319.8 554.2,274.5 590.7,302.1 	
		"/>
	<polygon class="st4" points="639.3,274.5 590.7,302 554.2,274.5 596.3,256.7 596.8,200.8 645.4,173.3 681.9,200.8 639.8,218.6 	"/>
	<polygon class="st3" points="639.3,274.5 639.8,218.6 681.8,200.8 676.2,246.1 724.4,274.5 723.9,330.4 681.8,348.2 687.5,302.8 	
		"/>
	<polygon class="st5" points="766.9,348.2 815.1,376.5 809.5,421.9 773.1,394.3 724.4,421.8 676.2,393.5 681.9,348.2 718.3,375.8 	
		"/>
	<polygon class="st4" points="766.9,348.2 718.3,375.7 681.9,348.2 724,330.4 724.4,274.5 773.1,247 809.5,274.5 767.4,292.3 	"/>
	<polygon class="st3" points="767,348.2 767.5,292.3 809.5,274.5 803.9,319.8 852.1,348.2 851.6,404.1 809.5,421.9 815.2,376.5 	"/>
	<polygon class="st4" points="894.6,421.9 846,449.4 809.6,421.9 851.7,404.1 852.1,348.2 900.8,320.7 937.2,348.2 895.1,366 	"/>
	<polygon class="st5" points="639.3,569.4 687.4,597.7 681.8,643 645.4,615.5 596.7,643 548.6,614.7 554.2,569.3 590.6,596.9 	"/>
	<polygon class="st3" points="639.3,569.3 639.8,513.4 681.9,495.6 676.2,541 724.4,569.3 723.9,625.2 681.9,643 687.5,597.7 	"/>
	<polygon class="st4" points="767,643 718.3,670.6 681.9,643.1 724,625.3 724.4,569.4 773.1,541.8 809.5,569.4 767.4,587.1 	"/>
	<polygon class="st5" points="766.9,495.7 815.1,524 809.5,569.3 773.1,541.8 724.4,569.3 676.2,541 681.9,495.6 718.3,523.2 	"/>
	<polygon class="st3" points="767,495.6 767.5,439.7 809.5,421.9 803.9,467.3 852.1,495.6 851.6,551.5 809.5,569.3 815.2,524 	"/>
	<polygon class="st4" points="894.7,569.3 846,596.9 809.6,569.4 851.7,551.6 852.1,495.7 900.8,468.1 937.2,495.7 895.1,513.4 	"/>
	<polygon class="st5" points="894.6,421.9 942.8,450.3 937.2,495.6 900.7,468 852.1,495.6 803.9,467.2 809.5,421.9 846,449.5 	"/>
	<polygon class="st3" points="894.7,421.9 895.2,366 937.2,348.2 931.6,393.6 979.7,421.9 979.3,477.8 937.2,495.6 942.9,450.3 	"/>
	<polygon class="st5" points="894.6,569.3 942.8,597.7 937.2,643 900.8,615.4 852.1,643 803.9,614.7 809.6,569.3 846,596.9 	"/>
	<polygon class="st3" points="894.7,569.3 895.2,513.4 937.2,495.6 931.6,541 979.8,569.3 979.3,625.2 937.2,643 942.9,597.7 	"/>
	<polygon class="st5" points="383.9,-20.2 432.1,8.1 426.5,53.5 390.1,25.9 341.4,53.4 293.2,25.1 298.8,-20.2 335.3,7.4 	"/>
	<polygon class="st4" points="511.6,53.5 463,81 426.6,53.5 468.7,35.7 469.1,-20.2 517.8,-47.7 554.2,-20.2 512.1,-2.4 	"/>
	<polygon class="st5" points="511.6,53.5 559.8,81.9 554.2,127.2 517.7,99.6 469.1,127.2 420.9,98.8 426.5,53.5 463,81.1 	"/>
	<polygon class="st3" points="511.7,53.5 512.2,-2.4 554.2,-20.2 548.6,25.2 596.7,53.5 596.3,109.4 554.2,127.2 559.9,81.9 	"/>
	<polygon class="st4" points="639.3,127.2 590.7,154.8 554.2,127.2 596.3,109.5 596.8,53.6 645.4,26 681.9,53.5 639.8,71.3 	"/>
	<polygon class="st5" points="639.3,-20.2 687.5,8.2 681.9,53.5 645.4,25.9 596.8,53.5 548.6,25.1 554.2,-20.2 590.7,7.4 	"/>
	<polygon class="st4" points="767,53.5 718.4,81.1 681.9,53.5 724,35.8 724.5,-20.1 773.1,-47.7 809.6,-20.2 767.5,-2.4 	"/>
	<polygon class="st5" points="639.3,127.2 687.5,155.6 681.9,200.9 645.4,173.3 596.8,200.9 548.6,172.5 554.2,127.2 590.7,154.8 	
		"/>
	<polygon class="st3" points="639.4,127.2 639.8,71.3 681.9,53.5 676.2,98.8 724.4,127.2 724,183.1 681.9,200.9 687.6,155.5 	"/>
	<polygon class="st5" points="767,53.5 815.2,81.9 809.6,127.2 773.1,99.6 724.5,127.2 676.3,98.8 681.9,53.5 718.4,81.1 	"/>
	<polygon class="st3" points="767.1,53.5 767.5,-2.4 809.6,-20.2 803.9,25.1 852.1,53.5 851.7,109.4 809.6,127.2 815.3,81.8 	"/>
	<polygon class="st5" points="894.7,-20.2 942.9,8.1 937.2,53.5 900.8,25.9 852.2,53.4 804,25.1 809.6,-20.2 846,7.3 	"/>
	<polygon class="st5" points="767,200.8 815.2,229.2 809.6,274.5 773.1,246.9 724.5,274.5 676.3,246.1 681.9,200.8 718.4,228.4 	"/>
	<polygon class="st4" points="767,200.8 718.4,228.4 681.9,200.8 724,183.1 724.5,127.2 773.1,99.6 809.6,127.1 767.5,144.9 	"/>
	<polygon class="st3" points="767,200.8 767.5,144.9 809.5,127.1 803.9,172.5 852.1,200.8 851.6,256.7 809.5,274.5 815.2,229.2 	"/>
	<polygon class="st5" points="894.6,274.5 942.8,302.9 937.2,348.2 900.8,320.6 852.1,348.2 803.9,319.8 809.5,274.5 846,302.1 	"/>
	<polygon class="st4" points="894.6,274.5 846,302.1 809.6,274.5 851.7,256.8 852.1,200.9 900.8,173.3 937.2,200.8 895.1,218.6 	"/>
	<polygon class="st3" points="894.7,274.5 895.2,218.6 937.2,200.8 931.6,246.2 979.8,274.5 979.3,330.4 937.2,348.2 942.9,302.9 	
		"/>
	<polygon class="st5" points="894.7,127.1 942.9,155.5 937.3,200.8 900.8,173.2 852.2,200.8 804,172.4 809.6,127.1 846,154.7 	"/>
	<polygon class="st4" points="894.7,127.1 846.1,154.7 809.6,127.1 851.7,109.4 852.2,53.5 900.8,25.9 937.3,53.4 895.2,71.2 	"/>
	<polygon class="st3" points="894.7,127.1 895.2,71.2 937.2,53.4 931.6,98.8 979.7,127.1 979.3,183 937.2,200.8 942.9,155.5 	"/>
</g>
</svg>
