<?xml version="1.0" encoding="utf-8"?>
<!-- Generator: Adobe Illustrator 23.0.0, SVG Export Plug-In . SVG Version: 6.00 Build 0)  -->
<svg version="1.1" id="Calque_1" xmlns="http://www.w3.org/2000/svg" xmlns:xlink="http://www.w3.org/1999/xlink" x="0px" y="0px"
	 viewBox="0 0 218.7 113.4" style="enable-background:new 0 0 218.7 113.4;" xml:space="preserve">
<style type="text/css">
	.st0{fill:none;stroke:#1B75BC;stroke-linecap:round;stroke-linejoin:round;stroke-miterlimit:10;}
	.st1{fill:none;stroke:#ED1C24;stroke-linecap:round;stroke-miterlimit:10;}
	.st2{fill:#00A651;stroke:#1B75BC;stroke-linecap:round;stroke-linejoin:round;stroke-miterlimit:10;}
	.st3{fill:none;stroke:#1B75BC;stroke-linecap:round;stroke-miterlimit:10;}
	.st4{fill:none;stroke:#39B54A;stroke-linecap:round;stroke-linejoin:round;stroke-miterlimit:10;}
	.st5{fill:#ED1C24;}
	.st6{fill:#1B75BC;}
</style>
<polyline class="st0" points="2.4,19.3 59,111.3 216.3,14.5 "/>
<line class="st1" x1="2.4" y1="19.3" x2="216.3" y2="14.5"/>
<rect x="52.8" y="89.3" transform="matrix(0.8516 -0.5241 0.5241 0.8516 -42.4436 47.1357)" class="st2" width="18.5" height="18.5"/>
<circle cx="2.4" cy="19.3" r="2.4"/>
<circle cx="216.3" cy="14.5" r="2.4"/>
<circle cx="59.1" cy="111" r="2.4"/>
<polyline class="st0" points="0,189.3 56.6,281.2 213.8,184.4 "/>
<line class="st3" x1="0" y1="189.3" x2="213.8" y2="184.4"/>
<circle cx="0" cy="189.3" r="2.4"/>
<circle cx="213.8" cy="184.4" r="2.4"/>
<circle cx="56.6" cy="280.9" r="2.4"/>
<polyline class="st0" points="259.9,15.9 288.1,121.4 473.7,11.1 "/>
<line class="st3" x1="259.9" y1="15.9" x2="473.7" y2="11.1"/>
<circle cx="259.9" cy="15.9" r="2.4"/>
<circle cx="473.7" cy="11.1" r="2.4"/>
<circle cx="288.2" cy="121.1" r="2.4"/>
<polyline class="st0" points="530.6,316.9 471.6,220.1 314.4,316.9 "/>
<line class="st1" x1="530.6" y1="316.9" x2="314.4" y2="316.9"/>
<circle cx="530.6" cy="316.9" r="2.4"/>
<circle cx="314.4" cy="316.9" r="2.4"/>
<circle cx="471.5" cy="220.4" r="2.4"/>
<line class="st4" x1="471.5" y1="220.4" x2="471.5" y2="316.9"/>
<circle cx="471.5" cy="316.9" r="1.4"/>
<g>
	<g>
		<path class="st5" d="M92.7,9.9c-0.4-0.3-0.6-0.8-0.6-1.4c0-0.6,0.2-1.1,0.5-1.4s0.9-0.5,1.5-0.5h1.7l0.1,1h-1.8
			c-0.3,0-0.5,0.1-0.7,0.2s-0.2,0.4-0.2,0.6c0,0.3,0.1,0.5,0.3,0.7s0.5,0.2,0.9,0.2c0.5,0,0.8,0,1-0.1s0.3-0.3,0.3-0.5L96,9.6
			c-0.1,0.2-0.2,0.3-0.4,0.4s-0.3,0.2-0.5,0.2s-0.4,0.1-0.7,0.1C93.6,10.3,93,10.2,92.7,9.9z M95.8,6.4c0-0.4-0.1-0.7-0.3-0.9
			S95,5.1,94.6,5.1c-0.2,0-0.5,0-0.7,0.1s-0.4,0.2-0.6,0.3L92.4,5c0.2-0.3,0.5-0.5,0.9-0.6s0.8-0.2,1.3-0.2c0.5,0,0.9,0.1,1.3,0.3
			s0.6,0.4,0.8,0.8S97,5.9,97,6.4v3.9h-1.1V6.4z"/>
	</g>
</g>
<g>
	<g>
		<path class="st6" d="M19.3,65.2h1.2v8.5h-1.2V65.2z M21.1,73.5c-0.3-0.2-0.5-0.4-0.6-0.8l0.1-1.3c0,0.3,0,0.5,0.1,0.7
			s0.2,0.3,0.4,0.4s0.4,0.1,0.6,0.1c0.4,0,0.7-0.1,0.9-0.4s0.3-0.6,0.3-1V70c0-0.4-0.1-0.8-0.3-1s-0.5-0.4-0.9-0.4
			c-0.3,0-0.5,0-0.6,0.1s-0.3,0.2-0.4,0.4s-0.1,0.4-0.1,0.7l-0.1-1.2c0.2-0.4,0.4-0.6,0.7-0.8s0.6-0.3,1-0.3c0.4,0,0.8,0.1,1.1,0.3
			s0.5,0.5,0.7,0.8s0.2,0.8,0.2,1.3v1.3c0,0.5-0.1,1-0.2,1.3s-0.4,0.6-0.7,0.8s-0.7,0.3-1.1,0.3C21.7,73.8,21.4,73.7,21.1,73.5z"/>
	</g>
</g>
<g>
	<g>
		<path class="st6" d="M145.8,79.7c0,0-0.2-0.1-0.6-0.3s-0.7-0.5-0.9-0.9S144,77.6,144,77v-1c0-0.6,0.1-1,0.3-1.4s0.5-0.7,0.9-0.9
			s0.9-0.3,1.4-0.3c0.3,0,0.6,0,0.9,0.1s0.5,0.2,0.8,0.3s0.4,0.3,0.6,0.5l-0.9,0.8c-0.2-0.2-0.4-0.3-0.6-0.5s-0.5-0.2-0.7-0.2
			c-0.5,0-0.8,0.1-1.1,0.4s-0.4,0.6-0.4,1.1v1c0,0.5,0.1,0.9,0.4,1.1s0.6,0.4,1.1,0.4c0.3,0,0.5-0.1,0.7-0.2s0.4-0.3,0.6-0.5
			l0.9,0.8c-0.2,0.2-0.3,0.4-0.6,0.5s-0.5,0.3-0.8,0.3s-0.6,0.1-0.9,0.1C146.1,79.7,145.8,79.7,145.8,79.7z"/>
	</g>
</g>
</svg>
