<?xml version="1.0" encoding="utf-8"?>
<!-- Generator: Adobe Illustrator 23.0.0, SVG Export Plug-In . SVG Version: 6.00 Build 0)  -->
<svg version="1.1" id="Calque_1" xmlns="http://www.w3.org/2000/svg" xmlns:xlink="http://www.w3.org/1999/xlink" x="0px" y="0px"
	 viewBox="0 0 218.7 115.1" style="enable-background:new 0 0 218.7 115.1;" xml:space="preserve">
<style type="text/css">
	.st0{fill:none;stroke:#1B75BC;stroke-linecap:round;stroke-linejoin:round;stroke-miterlimit:10;}
	.st1{fill:none;stroke:#1B75BC;stroke-linecap:round;stroke-miterlimit:10;}
	.st2{fill:#1B75BC;}
</style>
<polyline class="st0" points="2.4,21 59,112.9 216.3,16.1 "/>
<line class="st1" x1="2.4" y1="21" x2="216.3" y2="16.1"/>
<circle cx="2.4" cy="21" r="2.4"/>
<circle cx="216.3" cy="16.1" r="2.4"/>
<circle cx="59.1" cy="112.6" r="2.4"/>
<g>
	<g>
		<path class="st2" d="M21.8,77H23v8.5h-1.2V77z M23.5,85.3c-0.3-0.2-0.5-0.4-0.6-0.8l0.1-1.3c0,0.3,0,0.5,0.1,0.7s0.2,0.3,0.4,0.4
			s0.4,0.1,0.6,0.1c0.4,0,0.7-0.1,0.9-0.4s0.3-0.6,0.3-1v-1.3c0-0.4-0.1-0.8-0.3-1s-0.5-0.4-0.9-0.4c-0.3,0-0.5,0-0.6,0.1
			s-0.3,0.2-0.4,0.4S23,81.4,23,81.6l-0.1-1.2c0.2-0.4,0.4-0.6,0.7-0.8s0.6-0.3,1-0.3c0.4,0,0.8,0.1,1.1,0.3s0.5,0.5,0.7,0.8
			s0.2,0.8,0.2,1.3v1.3c0,0.5-0.1,1-0.2,1.3s-0.4,0.6-0.7,0.8s-0.7,0.3-1.1,0.3C24.1,85.6,23.8,85.5,23.5,85.3z"/>
	</g>
</g>
<g>
	<g>
		<path class="st2" d="M146.1,85.6c0,0-0.2-0.1-0.6-0.3s-0.7-0.5-0.9-0.9s-0.3-0.9-0.3-1.4v-1c0-0.6,0.1-1,0.3-1.4s0.5-0.7,0.9-0.9
			s0.9-0.3,1.4-0.3c0.3,0,0.6,0,0.9,0.1s0.5,0.2,0.8,0.3s0.4,0.3,0.6,0.5l-0.9,0.8c-0.2-0.2-0.4-0.3-0.6-0.5s-0.5-0.2-0.7-0.2
			c-0.5,0-0.8,0.1-1.1,0.4s-0.4,0.6-0.4,1.1v1c0,0.5,0.1,0.9,0.4,1.1s0.6,0.4,1.1,0.4c0.3,0,0.5-0.1,0.7-0.2s0.4-0.3,0.6-0.5
			l0.9,0.8c-0.2,0.2-0.3,0.4-0.6,0.5s-0.5,0.3-0.8,0.3s-0.6,0.1-0.9,0.1C146.4,85.6,146.1,85.6,146.1,85.6z"/>
	</g>
</g>
<g>
	<g>
		<path class="st2" d="M95.1,9.9c-0.4-0.3-0.6-0.8-0.6-1.4c0-0.6,0.2-1.1,0.5-1.4s0.9-0.5,1.5-0.5h1.7l0.1,1h-1.8
			c-0.3,0-0.5,0.1-0.7,0.2s-0.2,0.4-0.2,0.6c0,0.3,0.1,0.5,0.3,0.7s0.5,0.2,0.9,0.2c0.5,0,0.8,0,1-0.1s0.3-0.3,0.3-0.5l0.1,0.9
			C98.3,9.8,98.2,9.9,98,10s-0.3,0.2-0.5,0.2s-0.4,0.1-0.7,0.1C96,10.3,95.5,10.2,95.1,9.9z M98.3,6.4c0-0.4-0.1-0.7-0.3-0.9
			s-0.5-0.3-0.9-0.3c-0.2,0-0.5,0-0.7,0.1s-0.4,0.2-0.6,0.3L94.9,5c0.2-0.3,0.5-0.5,0.9-0.6s0.8-0.2,1.3-0.2c0.5,0,0.9,0.1,1.3,0.3
			s0.6,0.4,0.8,0.8s0.3,0.7,0.3,1.2v3.9h-1.1V6.4z"/>
	</g>
</g>
</svg>
