<?xml version="1.0" encoding="UTF-8"?>
<svg id="c" data-name="Calque 3" xmlns="http://www.w3.org/2000/svg" viewBox="0 0 252.33 186.67">
  <g>
    <polygon points="73.17 15 50.87 47.5 73.73 54.01 73.17 15" style="fill: #706f6f; stroke: #1d1d1b; stroke-miterlimit: 10;"/>
    <polygon points="10.17 106.83 54.19 90.46 37.24 67.38 10.17 106.83" style="fill: #706f6f; stroke: #1d1d1b; stroke-miterlimit: 10;"/>
    <polygon points="15.17 37.33 37.24 67.38 50.87 47.5 15.17 37.33" style="fill: #706f6f; stroke: #1d1d1b; stroke-miterlimit: 10;"/>
    <polygon points="118.17 66.67 73.73 54.01 74.15 83.04 118.17 66.67" style="fill: #706f6f; stroke: #1d1d1b; stroke-miterlimit: 10;"/>
    <polygon points="74.15 83.04 54.19 90.46 74.67 118.33 74.15 83.04" style="fill: #706f6f; stroke: #1d1d1b; stroke-miterlimit: 10;"/>
  </g>
  <text transform="translate(70.92 12.08)" style="fill: #1d1d1b; font-family: MyriadPro-Regular, &apos;Myriad Pro&apos;; font-size: 12px;"><tspan x="0" y="0">A</tspan></text>
  <g>
    <polygon points="197.17 73.93 174.87 106.43 197.73 112.94 197.17 73.93" style="fill: #706f6f; stroke: #1d1d1b; stroke-miterlimit: 10;"/>
    <polygon points="134.17 165.76 178.19 149.39 161.24 126.31 134.17 165.76" style="fill: #706f6f; stroke: #1d1d1b; stroke-miterlimit: 10;"/>
    <polygon points="139.17 96.26 161.24 126.31 174.87 106.43 139.17 96.26" style="fill: #706f6f; stroke: #1d1d1b; stroke-miterlimit: 10;"/>
    <polygon points="242.17 125.6 197.73 112.94 198.15 141.96 242.17 125.6" style="fill: #706f6f; stroke: #1d1d1b; stroke-miterlimit: 10;"/>
    <polygon points="198.15 141.96 178.19 149.39 198.67 177.26 198.15 141.96" style="fill: #706f6f; stroke: #1d1d1b; stroke-miterlimit: 10;"/>
  </g>
  <g>
    <line x1="15.17" y1="37.33" x2="16.52" y2="37.98" style="fill: none; stroke: #1d1d1b; stroke-miterlimit: 10;"/>
    <line x1="19.22" y1="39.26" x2="131.01" y2="92.39" style="fill: none; stroke: #1d1d1b; stroke-dasharray: 0 0 2.98 2.98; stroke-miterlimit: 10;"/>
    <line x1="132.36" y1="93.03" x2="133.72" y2="93.67" style="fill: none; stroke: #1d1d1b; stroke-miterlimit: 10;"/>
    <path d="m139.17,96.26c-3.02-.27-6.97-.16-9.76.63l3.6-3.56.49-5.03c1.16,2.66,3.57,5.79,5.68,7.96Z" style="fill: #1d1d1b; stroke-width: 0px;"/>
  </g>
  <text transform="translate(116.25 64.8)" style="fill: #1d1d1b; font-family: MyriadPro-Regular, &apos;Myriad Pro&apos;; font-size: 12px;"><tspan x="0" y="0">B</tspan></text>
  <text transform="translate(76.17 124.45)" style="fill: #1d1d1b; font-family: MyriadPro-Regular, &apos;Myriad Pro&apos;; font-size: 12px;"><tspan x="0" y="0">C</tspan></text>
  <text transform="translate(6.58 117.33)" style="fill: #1d1d1b; font-family: MyriadPro-Regular, &apos;Myriad Pro&apos;; font-size: 12px;"><tspan x="0" y="0">D</tspan></text>
  <text transform="translate(10.25 34.67)" style="fill: #1d1d1b; font-family: MyriadPro-Regular, &apos;Myriad Pro&apos;; font-size: 12px;"><tspan x="0" y="0">E</tspan></text>
  <text transform="translate(194.25 70.71)" style="fill: #1d1d1b; font-family: MyriadPro-Regular, &apos;Myriad Pro&apos;; font-size: 12px;"><tspan x="0" y="0">F</tspan></text>
  <text transform="translate(240.58 122.33)" style="fill: #1d1d1b; font-family: MyriadPro-Regular, &apos;Myriad Pro&apos;; font-size: 12px;"><tspan x="0" y="0">G</tspan></text>
  <text transform="translate(139.25 94.43)" style="fill: #1d1d1b; font-family: MyriadPro-Regular, &apos;Myriad Pro&apos;; font-size: 12px;"><tspan x="0" y="0">K</tspan></text>
  <text transform="translate(201.08 182.5)" style="fill: #1d1d1b; font-family: MyriadPro-Regular, &apos;Myriad Pro&apos;; font-size: 12px;"><tspan x="0" y="0">I</tspan></text>
  <text transform="translate(127.58 171.1)" style="fill: #1d1d1b; font-family: MyriadPro-Regular, &apos;Myriad Pro&apos;; font-size: 12px;"><tspan x="0" y="0">J</tspan></text>
  <text transform="translate(50.87 78.05)" style="fill: #1d1d1b; font-family: MyriadPro-Regular, &apos;Myriad Pro&apos;; font-size: 20px;"><tspan x="0" y="0">1</tspan></text>
  <text transform="translate(178.19 137.62)" style="fill: #1d1d1b; font-family: MyriadPro-Regular, &apos;Myriad Pro&apos;; font-size: 20px;"><tspan x="0" y="0">2</tspan></text>
</svg>