<?xml version="1.0" encoding="UTF-8"?>
<svg xmlns="http://www.w3.org/2000/svg" viewBox="0 0 510.24 354.33">
  <g id="a" data-name="Calque 1">
    <line y2="439.37" style="fill: none; stroke: #1d1d1b; stroke-miterlimit: 10;"/>
    <line x1="14.17" x2="14.17" y2="439.37" style="fill: none; stroke: #1d1d1b; stroke-miterlimit: 10;"/>
    <line x1="28.35" x2="28.35" y2="439.37" style="fill: none; stroke: #1d1d1b; stroke-miterlimit: 10;"/>
    <line x1="42.52" x2="42.52" y2="439.37" style="fill: none; stroke: #1d1d1b; stroke-miterlimit: 10;"/>
    <line x1="56.69" x2="56.69" y2="439.37" style="fill: none; stroke: #1d1d1b; stroke-miterlimit: 10;"/>
    <line x1="70.87" x2="70.87" y2="439.37" style="fill: none; stroke: #1d1d1b; stroke-miterlimit: 10;"/>
    <line x1="85.04" x2="85.04" y2="439.37" style="fill: none; stroke: #1d1d1b; stroke-miterlimit: 10;"/>
    <line x1="99.21" x2="99.21" y2="439.37" style="fill: none; stroke: #1d1d1b; stroke-miterlimit: 10;"/>
    <line x1="113.39" x2="113.39" y2="439.37" style="fill: none; stroke: #1d1d1b; stroke-miterlimit: 10;"/>
    <line x1="127.56" x2="127.56" y2="439.37" style="fill: none; stroke: #1d1d1b; stroke-miterlimit: 10;"/>
    <line x1="141.73" x2="141.73" y2="439.37" style="fill: none; stroke: #1d1d1b; stroke-miterlimit: 10;"/>
    <line x1="155.91" x2="155.91" y2="439.37" style="fill: none; stroke: #1d1d1b; stroke-miterlimit: 10;"/>
    <line x1="170.08" x2="170.08" y2="439.37" style="fill: none; stroke: #1d1d1b; stroke-miterlimit: 10;"/>
    <line x1="184.25" x2="184.25" y2="439.37" style="fill: none; stroke: #1d1d1b; stroke-miterlimit: 10;"/>
    <line x1="198.43" x2="198.43" y2="439.37" style="fill: none; stroke: #1d1d1b; stroke-miterlimit: 10;"/>
    <line x1="212.6" x2="212.6" y2="439.37" style="fill: none; stroke: #1d1d1b; stroke-miterlimit: 10;"/>
    <line x1="226.77" x2="226.77" y2="439.37" style="fill: none; stroke: #1d1d1b; stroke-miterlimit: 10;"/>
    <line x1="240.94" x2="240.94" y2="439.37" style="fill: none; stroke: #1d1d1b; stroke-miterlimit: 10;"/>
    <line x1="255.12" x2="255.12" y2="439.37" style="fill: none; stroke: #1d1d1b; stroke-miterlimit: 10;"/>
    <line x1="269.29" x2="269.29" y2="439.37" style="fill: none; stroke: #1d1d1b; stroke-miterlimit: 10;"/>
    <line x1="283.46" x2="283.46" y2="439.37" style="fill: none; stroke: #1d1d1b; stroke-miterlimit: 10;"/>
    <line x1="297.64" x2="297.64" y2="439.37" style="fill: none; stroke: #1d1d1b; stroke-miterlimit: 10;"/>
    <line x1="311.81" x2="311.81" y2="439.37" style="fill: none; stroke: #1d1d1b; stroke-miterlimit: 10;"/>
    <line x1="325.98" x2="325.98" y2="439.37" style="fill: none; stroke: #1d1d1b; stroke-miterlimit: 10;"/>
    <line x1="340.16" x2="340.16" y2="439.37" style="fill: none; stroke: #1d1d1b; stroke-miterlimit: 10;"/>
    <line x1="354.33" x2="354.33" y2="439.37" style="fill: none; stroke: #1d1d1b; stroke-miterlimit: 10;"/>
    <line x1="368.5" x2="368.5" y2="439.37" style="fill: none; stroke: #1d1d1b; stroke-miterlimit: 10;"/>
    <line x1="382.68" x2="382.68" y2="439.37" style="fill: none; stroke: #1d1d1b; stroke-miterlimit: 10;"/>
    <line x1="396.85" x2="396.85" y2="439.37" style="fill: none; stroke: #1d1d1b; stroke-miterlimit: 10;"/>
    <line x1="411.02" x2="411.02" y2="439.37" style="fill: none; stroke: #1d1d1b; stroke-miterlimit: 10;"/>
    <line x1="425.2" x2="425.2" y2="439.37" style="fill: none; stroke: #1d1d1b; stroke-miterlimit: 10;"/>
    <line x1="439.37" x2="439.37" y2="439.37" style="fill: none; stroke: #1d1d1b; stroke-miterlimit: 10;"/>
    <line x1="453.54" x2="453.54" y2="439.37" style="fill: none; stroke: #1d1d1b; stroke-miterlimit: 10;"/>
    <line x1="467.72" x2="467.72" y2="439.37" style="fill: none; stroke: #1d1d1b; stroke-miterlimit: 10;"/>
    <line x1="481.89" x2="481.89" y2="439.37" style="fill: none; stroke: #1d1d1b; stroke-miterlimit: 10;"/>
    <line x1="496.06" x2="496.06" y2="439.37" style="fill: none; stroke: #1d1d1b; stroke-miterlimit: 10;"/>
    <line x1="510.24" x2="510.24" y2="439.37" style="fill: none; stroke: #1d1d1b; stroke-miterlimit: 10;"/>
  </g>
  <g id="b" data-name="Calque 2">
    <line x1="510.24" y2="0" style="fill: none; stroke: #1d1d1b; stroke-miterlimit: 10;"/>
    <line x1="510.24" y1="14.17" y2="14.17" style="fill: none; stroke: #1d1d1b; stroke-miterlimit: 10;"/>
    <line x1="510.24" y1="28.35" y2="28.35" style="fill: none; stroke: #1d1d1b; stroke-miterlimit: 10;"/>
    <line x1="510.24" y1="42.52" y2="42.52" style="fill: none; stroke: #1d1d1b; stroke-miterlimit: 10;"/>
    <line x1="510.24" y1="56.69" y2="56.69" style="fill: none; stroke: #1d1d1b; stroke-miterlimit: 10;"/>
    <line x1="510.24" y1="70.87" y2="70.87" style="fill: none; stroke: #1d1d1b; stroke-miterlimit: 10;"/>
    <line x1="510.24" y1="85.04" y2="85.04" style="fill: none; stroke: #1d1d1b; stroke-miterlimit: 10;"/>
    <line x1="510.24" y1="99.21" y2="99.21" style="fill: none; stroke: #1d1d1b; stroke-miterlimit: 10;"/>
    <line x1="510.24" y1="113.39" x2="0" y2="113.39" style="fill: none; stroke: #1d1d1b; stroke-miterlimit: 10;"/>
    <line x1="510.24" y1="127.56" x2="0" y2="127.56" style="fill: none; stroke: #1d1d1b; stroke-miterlimit: 10;"/>
    <line x1="510.24" y1="141.73" x2="0" y2="141.73" style="fill: none; stroke: #1d1d1b; stroke-miterlimit: 10;"/>
    <line x1="510.24" y1="155.91" x2="0" y2="155.91" style="fill: none; stroke: #1d1d1b; stroke-miterlimit: 10;"/>
    <line x1="510.24" y1="170.08" x2="0" y2="170.08" style="fill: none; stroke: #1d1d1b; stroke-miterlimit: 10;"/>
    <line x1="510.24" y1="184.25" x2="0" y2="184.25" style="fill: none; stroke: #1d1d1b; stroke-miterlimit: 10;"/>
    <line x1="510.24" y1="198.43" x2="0" y2="198.43" style="fill: none; stroke: #1d1d1b; stroke-miterlimit: 10;"/>
    <line x1="510.24" y1="212.6" x2="0" y2="212.6" style="fill: none; stroke: #1d1d1b; stroke-miterlimit: 10;"/>
    <line x1="510.24" y1="226.77" y2="226.77" style="fill: none; stroke: #1d1d1b; stroke-miterlimit: 10;"/>
    <line x1="510.24" y1="240.94" y2="240.94" style="fill: none; stroke: #1d1d1b; stroke-miterlimit: 10;"/>
    <line x1="510.24" y1="255.12" y2="255.12" style="fill: none; stroke: #1d1d1b; stroke-miterlimit: 10;"/>
    <line x1="510.24" y1="269.29" y2="269.29" style="fill: none; stroke: #1d1d1b; stroke-miterlimit: 10;"/>
    <line x1="510.24" y1="283.46" y2="283.46" style="fill: none; stroke: #1d1d1b; stroke-miterlimit: 10;"/>
    <line x1="510.24" y1="297.64" y2="297.64" style="fill: none; stroke: #1d1d1b; stroke-miterlimit: 10;"/>
    <line x1="510.24" y1="311.81" y2="311.81" style="fill: none; stroke: #1d1d1b; stroke-miterlimit: 10;"/>
    <line x1="510.24" y1="325.98" y2="325.98" style="fill: none; stroke: #1d1d1b; stroke-miterlimit: 10;"/>
    <line x1="510.24" y1="340.16" x2="0" y2="340.16" style="fill: none; stroke: #1d1d1b; stroke-miterlimit: 10;"/>
    <line x1="510.24" y1="354.33" x2="0" y2="354.33" style="fill: none; stroke: #1d1d1b; stroke-miterlimit: 10;"/>
  </g>
  <g id="c" data-name="Calque 3">
    <g>
      <text transform="translate(102.09 223.26)" style="fill: #fff; font-family: MyriadPro-Regular, &apos;Myriad Pro&apos;; font-size: 18px; stroke: #fff; stroke-miterlimit: 10; stroke-width: 4px;"><tspan x="0" y="0">F</tspan></text>
      <text transform="translate(50.95 247.56)" style="fill: #fff; font-family: MyriadPro-Regular, &apos;Myriad Pro&apos;; font-size: 18px; stroke: #fff; stroke-miterlimit: 10; stroke-width: 4px;"><tspan x="0" y="0">N</tspan></text>
      <text transform="translate(133.95 317.87)" style="fill: #fff; font-family: MyriadPro-Regular, &apos;Myriad Pro&apos;; font-size: 18px; stroke: #fff; stroke-miterlimit: 10; stroke-width: 4px;"><tspan x="0" y="0">M</tspan></text>
      <text transform="translate(291.93 265.33)" style="fill: #fff; font-family: MyriadPro-Regular, &apos;Myriad Pro&apos;; font-size: 18px; stroke: #fff; stroke-miterlimit: 10; stroke-width: 4px;"><tspan x="0" y="0">G</tspan></text>
      <text transform="translate(442.25 265.33)" style="fill: #fff; font-family: MyriadPro-Regular, &apos;Myriad Pro&apos;; font-size: 18px; stroke: #fff; stroke-miterlimit: 10; stroke-width: 4px;"><tspan x="0" y="0">J</tspan></text>
      <text transform="translate(345.3 209.72)" style="fill: #fff; font-family: MyriadPro-Regular, &apos;Myriad Pro&apos;; font-size: 18px; stroke: #fff; stroke-miterlimit: 10; stroke-width: 4px;"><tspan x="0" y="0">K</tspan></text>
    </g>
    <g>
      <polygon points="113.39 70.87 141.73 99.21 198.43 99.21 212.6 70.87 113.39 70.87" style="fill: #706f6f; stroke: #1d1d1b; stroke-miterlimit: 10; stroke-width: 2px;"/>
      <polyline points="170.08 70.87 170.08 14.17 141.73 56.69 184.25 56.69 170.08 14.17" style="fill: #706f6f; stroke: #1d1d1b; stroke-miterlimit: 10; stroke-width: 2px;"/>
    </g>
    <g>
      <polygon points="70.87 183.1 99.21 154.76 99.21 98.07 70.87 83.89 70.87 183.1" style="fill: #706f6f; stroke: #1d1d1b; stroke-miterlimit: 10; stroke-width: 2px;"/>
      <polyline points="70.87 126.41 14.17 126.41 56.69 154.76 56.69 112.24 14.17 126.41" style="fill: #706f6f; stroke: #1d1d1b; stroke-miterlimit: 10; stroke-width: 2px;"/>
    </g>
    <g>
      <polygon points="283.46 141.73 255.12 113.39 198.43 113.39 184.25 141.73 283.46 141.73" style="fill: #706f6f; stroke: #1d1d1b; stroke-miterlimit: 10; stroke-width: 2px;"/>
      <polyline points="226.77 141.73 226.77 198.43 255.12 155.91 212.6 155.91 226.77 198.43" style="fill: #706f6f; stroke: #1d1d1b; stroke-miterlimit: 10; stroke-width: 2px;"/>
    </g>
    <g>
      <polygon points="269.29 85.04 297.64 113.39 354.33 113.39 368.5 85.04 269.29 85.04" style="fill: #706f6f; stroke: #1d1d1b; stroke-miterlimit: 10; stroke-width: 2px;"/>
      <polyline points="325.98 85.04 325.98 28.35 297.64 70.87 340.16 70.87 325.98 28.35" style="fill: #706f6f; stroke: #1d1d1b; stroke-miterlimit: 10; stroke-width: 2px;"/>
    </g>
    <text transform="translate(162.99 89.33)" style="fill: #1d1d1b; font-family: MyriadPro-Regular, &apos;Myriad Pro&apos;; font-size: 18px;"><tspan x="0" y="0">A</tspan></text>
    <text transform="translate(223.99 131.67)" style="fill: #1d1d1b; font-family: MyriadPro-Regular, &apos;Myriad Pro&apos;; font-size: 18px;"><tspan x="0" y="0">B</tspan></text>
    <polygon points="99.21 226.77 70.87 255.12 70.87 311.81 127.56 311.81 127.56 255.12 99.21 226.77" style="fill: #706f6f; stroke: #1d1d1b; stroke-miterlimit: 10; stroke-width: 3px;"/>
    <text transform="translate(79.99 133.5)" style="fill: #1d1d1b; font-family: MyriadPro-Regular, &apos;Myriad Pro&apos;; font-size: 18px;"><tspan x="0" y="0">D</tspan></text>
    <text transform="translate(318.9 104.83)" style="fill: #1d1d1b; font-family: MyriadPro-Regular, &apos;Myriad Pro&apos;; font-size: 18px;"><tspan x="0" y="0">C</tspan></text>
    <g>
      <circle cx="99.21" cy="226.77" r="2.88" style="fill: #1d1d1b; stroke-width: 0px;"/>
      <circle cx="70.87" cy="255.12" r="2.88" style="fill: #1d1d1b; stroke-width: 0px;"/>
      <circle cx="127.56" cy="311.81" r="2.88" style="fill: #1d1d1b; stroke-width: 0px;"/>
      <text transform="translate(102.09 223.26)" style="fill: #1d1d1b; font-family: MyriadPro-Regular, &apos;Myriad Pro&apos;; font-size: 18px;"><tspan x="0" y="0">F</tspan></text>
      <text transform="translate(50.95 247.56)" style="fill: #1d1d1b; font-family: MyriadPro-Regular, &apos;Myriad Pro&apos;; font-size: 18px;"><tspan x="0" y="0">N</tspan></text>
      <text transform="translate(133.95 317.87)" style="fill: #1d1d1b; font-family: MyriadPro-Regular, &apos;Myriad Pro&apos;; font-size: 18px;"><tspan x="0" y="0">M</tspan></text>
    </g>
    <circle cx="283.46" cy="255.12" r="2.88" style="fill: #1d1d1b; stroke-width: 0px;"/>
    <circle cx="340.16" cy="212.6" r="2.88" style="fill: #1d1d1b; stroke-width: 0px;"/>
    <text transform="translate(291.93 265.33)" style="fill: #1d1d1b; font-family: MyriadPro-Regular, &apos;Myriad Pro&apos;; font-size: 18px;"><tspan x="0" y="0">G</tspan></text>
    <text transform="translate(345.3 209.72)" style="fill: #1d1d1b; font-family: MyriadPro-Regular, &apos;Myriad Pro&apos;; font-size: 18px;"><tspan x="0" y="0">K</tspan></text>
    <circle cx="439.37" cy="269.29" r="2.88" style="fill: #1d1d1b; stroke-width: 0px;"/>
    <text transform="translate(442.25 265.33)" style="fill: #1d1d1b; font-family: MyriadPro-Regular, &apos;Myriad Pro&apos;; font-size: 18px;"><tspan x="0" y="0">J</tspan></text>
    <line x1="70.87" y1="255.12" x2="127.56" y2="255.12" style="fill: none; stroke: #1d1d1b; stroke-miterlimit: 10; stroke-width: 3px;"/>
  </g>
</svg>