<svg xmlns="http://www.w3.org/2000/svg" width="4cm" height="4cm" viewBox="0 0 113.38 113.39">
  <title>Volumes</title>
  <g>
    <polyline points="102.73 106.64 61.29 79.38 10.64 104.48" fill="#fbb040" stroke="#231f20" stroke-miterlimit="10" stroke-width="2" stroke-dasharray="5.73 3.27"/>
    <polygon points="102.73 34.01 61.29 6.74 10.64 31.84 10.64 104.48 102.73 106.64 102.73 34.01" fill="none" stroke="#231f20" stroke-miterlimit="10" stroke-width="2"/>
    <line x1="10.65" y1="31.85" x2="102.73" y2="34" fill="none" stroke="#231f20" stroke-miterlimit="10" stroke-width="2"/>
    <line x1="61.29" y1="79.38" x2="61.29" y2="6.74" fill="none" stroke="#231f20" stroke-miterlimit="10" stroke-width="2" stroke-dasharray="5.73 3.27"/>
  </g>
  <g>
    <path d="M90.19,80.88V79.69h8.52v1.19Zm0,4.84V84.53h8.52v1.19ZM93.94,85V80.25h1.14V85Z" fill="none" stroke="#fff" stroke-miterlimit="10" stroke-width="3"/>
    <path d="M94.85,74.26a1.3,1.3,0,0,0-.93.32,1.19,1.19,0,0,0-.33.9,2.51,2.51,0,0,0,.11.72,2.33,2.33,0,0,0,.31.61l-.6.88a2.34,2.34,0,0,1-.64-.91,3.21,3.21,0,0,1-.23-1.26,2.9,2.9,0,0,1,.26-1.3,1.93,1.93,0,0,1,.78-.82,2.53,2.53,0,0,1,1.22-.28h3.91v1.14Zm3.48,3.17a1.75,1.75,0,0,1-1.42.56,1.71,1.71,0,0,1-1.35-.51,2.28,2.28,0,0,1-.45-1.54V74.21l1-.08v1.8a1,1,0,0,0,.21.7.82.82,0,0,0,.63.23.79.79,0,0,0,.69-.31,1.56,1.56,0,0,0,.22-.93,2.6,2.6,0,0,0-.15-1,.47.47,0,0,0-.45-.34l.85-.12a1.27,1.27,0,0,1,.41.39,1.7,1.7,0,0,1,.23.53,2.47,2.47,0,0,1,.08.69A2.57,2.57,0,0,1,98.33,77.43Z" fill="none" stroke="#fff" stroke-miterlimit="10" stroke-width="3"/>
    <path d="M92.62,67.64V66.45h6.09v1.19Zm3.7,2.47a1.42,1.42,0,0,0,1-.32,1.22,1.22,0,0,0,.35-.92,1.3,1.3,0,0,0-.31-.91,1.21,1.21,0,0,0-.89-.32l1.27-.08a1.66,1.66,0,0,1,.76.61,1.72,1.72,0,0,1,.3,1,1.93,1.93,0,0,1-.64,1.56,2.79,2.79,0,0,1-1.83.55h-3.7v-1.2Z" fill="none" stroke="#fff" stroke-miterlimit="10" stroke-width="3"/>
    <path d="M98.33,64.13a1.84,1.84,0,0,1-1.21.34H90.85V63.28h6.28a.58.58,0,0,0,.35-.09.3.3,0,0,0,.12-.26v-.57h1.13v.69A1.34,1.34,0,0,1,98.33,64.13Zm-5.71,1V62.36H93.7V65.1Z" fill="none" stroke="#fff" stroke-miterlimit="10" stroke-width="3"/>
    <path d="M98.79,59.07l-.31.6a2.1,2.1,0,0,1-.93.91,3.2,3.2,0,0,1-1.48.31h-.69a3.62,3.62,0,0,1-1.54-.3,2.16,2.16,0,0,1-1-.87,2.78,2.78,0,0,1-.33-1.39,2.17,2.17,0,0,1,.38-1.3,2.34,2.34,0,0,1,1.1-.82,4.68,4.68,0,0,1,1.73-.28h.39V60h-1v-3a2.07,2.07,0,0,0-1.15.39,1.06,1.06,0,0,0-.42.88,1.3,1.3,0,0,0,.45,1.06,2,2,0,0,0,1.26.37h.77a1.56,1.56,0,0,0,1.16-.4,1.52,1.52,0,0,0,.41-1.13,1.86,1.86,0,0,0-.15-.72,2.06,2.06,0,0,0-.41-.64l.78-.79a3.31,3.31,0,0,1,.68,1,3,3,0,0,1,.23,1.13Z" fill="none" stroke="#fff" stroke-miterlimit="10" stroke-width="3"/>
    <path d="M92.62,50.76V49.57h6.09v1.19Zm3.7,2.48a1.38,1.38,0,0,0,1-.33,1.21,1.21,0,0,0,.35-.92,1.26,1.26,0,0,0-.31-.9,1.18,1.18,0,0,0-.89-.33l1.27-.08a1.8,1.8,0,0,1,.76.61,1.75,1.75,0,0,1,.3,1,1.91,1.91,0,0,1-.64,1.55,2.74,2.74,0,0,1-1.83.55h-3.7V53.24Z" fill="none" stroke="#fff" stroke-miterlimit="10" stroke-width="3"/>
    <path d="M93.77,44.81a1.6,1.6,0,0,0-.1.56,1.19,1.19,0,0,0,.32.88,1.14,1.14,0,0,0,.87.31l-1.18.13a2.23,2.23,0,0,1-.84-.73,1.75,1.75,0,0,1-.3-1,2.27,2.27,0,0,1,.12-.75,1.68,1.68,0,0,1,.35-.59l1,.78A1.18,1.18,0,0,0,93.77,44.81Zm-1.15,2.95v-1.2h6.09v1.2Z" fill="none" stroke="#fff" stroke-miterlimit="10" stroke-width="3"/>
  </g>
  <g>
    <path d="M90.19,80.88V79.69h8.52v1.19Zm0,4.84V84.53h8.52v1.19ZM93.94,85V80.25h1.14V85Z" fill="#231f20"/>
    <path d="M94.85,74.26a1.3,1.3,0,0,0-.93.32,1.19,1.19,0,0,0-.33.9,2.51,2.51,0,0,0,.11.72,2.33,2.33,0,0,0,.31.61l-.6.88a2.34,2.34,0,0,1-.64-.91,3.21,3.21,0,0,1-.23-1.26,2.9,2.9,0,0,1,.26-1.3,1.93,1.93,0,0,1,.78-.82,2.53,2.53,0,0,1,1.22-.28h3.91v1.14Zm3.48,3.17a1.75,1.75,0,0,1-1.42.56,1.71,1.71,0,0,1-1.35-.51,2.28,2.28,0,0,1-.45-1.54V74.21l1-.08v1.8a1,1,0,0,0,.21.7.82.82,0,0,0,.63.23.79.79,0,0,0,.69-.31,1.56,1.56,0,0,0,.22-.93,2.6,2.6,0,0,0-.15-1,.47.47,0,0,0-.45-.34l.85-.12a1.27,1.27,0,0,1,.41.39,1.7,1.7,0,0,1,.23.53,2.47,2.47,0,0,1,.08.69A2.57,2.57,0,0,1,98.33,77.43Z" fill="#231f20"/>
    <path d="M92.62,67.64V66.45h6.09v1.19Zm3.7,2.47a1.42,1.42,0,0,0,1-.32,1.22,1.22,0,0,0,.35-.92,1.3,1.3,0,0,0-.31-.91,1.21,1.21,0,0,0-.89-.32l1.27-.08a1.66,1.66,0,0,1,.76.61,1.72,1.72,0,0,1,.3,1,1.93,1.93,0,0,1-.64,1.56,2.79,2.79,0,0,1-1.83.55h-3.7v-1.2Z" fill="#231f20"/>
    <path d="M98.33,64.13a1.84,1.84,0,0,1-1.21.34H90.85V63.28h6.28a.58.58,0,0,0,.35-.09.3.3,0,0,0,.12-.26v-.57h1.13v.69A1.34,1.34,0,0,1,98.33,64.13Zm-5.71,1V62.36H93.7V65.1Z" fill="#231f20"/>
    <path d="M98.79,59.07l-.31.6a2.1,2.1,0,0,1-.93.91,3.2,3.2,0,0,1-1.48.31h-.69a3.62,3.62,0,0,1-1.54-.3,2.16,2.16,0,0,1-1-.87,2.78,2.78,0,0,1-.33-1.39,2.17,2.17,0,0,1,.38-1.3,2.34,2.34,0,0,1,1.1-.82,4.68,4.68,0,0,1,1.73-.28h.39V60h-1v-3a2.07,2.07,0,0,0-1.15.39,1.06,1.06,0,0,0-.42.88,1.3,1.3,0,0,0,.45,1.06,2,2,0,0,0,1.26.37h.77a1.56,1.56,0,0,0,1.16-.4,1.52,1.52,0,0,0,.41-1.13,1.86,1.86,0,0,0-.15-.72,2.06,2.06,0,0,0-.41-.64l.78-.79a3.31,3.31,0,0,1,.68,1,3,3,0,0,1,.23,1.13Z" fill="#231f20"/>
    <path d="M92.62,50.76V49.57h6.09v1.19Zm3.7,2.48a1.38,1.38,0,0,0,1-.33,1.21,1.21,0,0,0,.35-.92,1.26,1.26,0,0,0-.31-.9,1.18,1.18,0,0,0-.89-.33l1.27-.08a1.8,1.8,0,0,1,.76.61,1.75,1.75,0,0,1,.3,1,1.91,1.91,0,0,1-.64,1.55,2.74,2.74,0,0,1-1.83.55h-3.7V53.24Z" fill="#231f20"/>
    <path d="M93.77,44.81a1.6,1.6,0,0,0-.1.56,1.19,1.19,0,0,0,.32.88,1.14,1.14,0,0,0,.87.31l-1.18.13a2.23,2.23,0,0,1-.84-.73,1.75,1.75,0,0,1-.3-1,2.27,2.27,0,0,1,.12-.75,1.68,1.68,0,0,1,.35-.59l1,.78A1.18,1.18,0,0,0,93.77,44.81Zm-1.15,2.95v-1.2h6.09v1.2Z" fill="#231f20"/>
  </g>
  <g>
    <path d="M47.08,91.72h1.18v8.52H47.08Zm.7,7.41h2.31a2.06,2.06,0,0,0,1.32-.35,1.18,1.18,0,0,0,.42-1v0a1.68,1.68,0,0,0-.15-.74,1,1,0,0,0-.47-.48,1.83,1.83,0,0,0-.83-.17h-2.6V95.33h2.6a1.48,1.48,0,0,0,1-.31,1.22,1.22,0,0,0,.34-.92,1.19,1.19,0,0,0-.38-1,1.7,1.7,0,0,0-1.12-.32H47.78v-1.1h2.65a3.08,3.08,0,0,1,1.39.28,1.89,1.89,0,0,1,.83.8A2.6,2.6,0,0,1,52.92,94a1.91,1.91,0,0,1-.17.82,1.71,1.71,0,0,1-.52.66,1.92,1.92,0,0,1-.86.36,1.82,1.82,0,0,1,.89.37,2,2,0,0,1,.58.72,2.26,2.26,0,0,1,.19.94v0a2.39,2.39,0,0,1-.3,1.21,2,2,0,0,1-.87.82,2.93,2.93,0,0,1-1.33.29H47.78Z" fill="#231f20"/>
    <path d="M55,99.86a1.75,1.75,0,0,1-.56-1.42,1.71,1.71,0,0,1,.51-1.35,2.27,2.27,0,0,1,1.54-.45h1.73l.08,1h-1.8a1,1,0,0,0-.7.21.79.79,0,0,0-.23.63.81.81,0,0,0,.3.69,1.61,1.61,0,0,0,.94.22,2.85,2.85,0,0,0,1-.14.48.48,0,0,0,.34-.46l.12.85a1.27,1.27,0,0,1-.39.41,2,2,0,0,1-.53.24,3,3,0,0,1-.69.07A2.57,2.57,0,0,1,55,99.86Zm3.17-3.48a1.3,1.3,0,0,0-.32-.93,1.21,1.21,0,0,0-.91-.33,2.45,2.45,0,0,0-.71.11,2.4,2.4,0,0,0-.62.31L54.71,95a2.19,2.19,0,0,1,.91-.65,3.21,3.21,0,0,1,1.26-.23,3,3,0,0,1,1.29.26,1.82,1.82,0,0,1,.82.78,2.42,2.42,0,0,1,.28,1.22v3.91H58.14Z" fill="#231f20"/>
    <path d="M62.7,100.32l-.47-.1a3.69,3.69,0,0,1-.88-.32,3.53,3.53,0,0,1-.76-.52l.71-.88a4,4,0,0,0,1,.56,2.53,2.53,0,0,0,1,.19A2,2,0,0,0,64.3,99a.71.71,0,0,0,.36-.66.55.55,0,0,0-.19-.44,1.15,1.15,0,0,0-.48-.19,6.17,6.17,0,0,0-.81-.09h-.3a5,5,0,0,1-1-.17A1.42,1.42,0,0,1,61.2,97a1.58,1.58,0,0,1-.27-1,2,2,0,0,1,.26-1.07,1.64,1.64,0,0,1,.79-.64,3.47,3.47,0,0,1,1.3-.21,5.31,5.31,0,0,1,.91.08,3.94,3.94,0,0,1,.82.27,4.46,4.46,0,0,1,.76.43l-.72.87a4.07,4.07,0,0,0-.9-.43,2.75,2.75,0,0,0-.87-.15,1.61,1.61,0,0,0-.91.21.71.71,0,0,0-.31.62.42.42,0,0,0,.18.37.92.92,0,0,0,.43.16c.18,0,.43,0,.75.07h.23a5.83,5.83,0,0,1,1.08.17,1.56,1.56,0,0,1,.76.51,1.76,1.76,0,0,1,.3,1.1,1.94,1.94,0,0,1-.28,1.09,1.72,1.72,0,0,1-.85.65,4.09,4.09,0,0,1-1.42.21Z" fill="#231f20"/>
    <path d="M69,100.32l-.6-.31a2.1,2.1,0,0,1-.91-.93,3.2,3.2,0,0,1-.31-1.48v-.69a3.62,3.62,0,0,1,.3-1.54,2.13,2.13,0,0,1,.88-1,2.71,2.71,0,0,1,1.38-.33,2.15,2.15,0,0,1,1.3.38,2.34,2.34,0,0,1,.82,1.1,4.71,4.71,0,0,1,.29,1.73v.4H68v-1h3a2.07,2.07,0,0,0-.38-1.15,1.08,1.08,0,0,0-.89-.42,1.28,1.28,0,0,0-1,.45,1.91,1.91,0,0,0-.38,1.26v.77a1.6,1.6,0,0,0,.4,1.16,1.54,1.54,0,0,0,1.13.41,1.79,1.79,0,0,0,.72-.15,2,2,0,0,0,.64-.41l.79.79a3.28,3.28,0,0,1-1,.67,2.82,2.82,0,0,1-1.13.23Z" fill="#231f20"/>
  </g>
</svg>
