<svg xmlns="http://www.w3.org/2000/svg" width="4cm" height="4cm" viewBox="0 0 113.39 113.39">
  <title>Volumes</title>
  <g>
    <polyline points="5.35 39.57 73.81 39.57 73.81 108.03" fill="none" stroke="#231f20" stroke-miterlimit="10" stroke-width="2"/>
    <polygon points="108.04 73.8 108.04 5.34 39.58 5.34 5.35 39.57 5.35 108.03 73.81 108.03 108.04 73.8" fill="none" stroke="#231f20" stroke-miterlimit="10" stroke-width="2"/>
    <polyline points="108.04 73.8 39.58 73.8 39.58 5.34" fill="none" stroke="#231f20" stroke-miterlimit="10" stroke-width="2" stroke-dasharray="5.64 3.22"/>
    <line x1="5.35" y1="108.03" x2="39.58" y2="73.8" fill="none" stroke="#231f20" stroke-miterlimit="10" stroke-width="2" stroke-dasharray="5.64 3.22"/>
    <line x1="73.81" y1="39.57" x2="108.04" y2="5.34" fill="none" stroke="#231f20" stroke-miterlimit="10" stroke-width="2"/>
  </g>
  <g>
    <path d="M32.89,103.79l-.68-.39a2.72,2.72,0,0,1-1-1.11,3.73,3.73,0,0,1-.37-1.67V98.28a3.67,3.67,0,0,1,.37-1.67,2.75,2.75,0,0,1,1-1.12,3.06,3.06,0,0,1,1.56-.39,2.91,2.91,0,0,1,1.35.31,2.83,2.83,0,0,1,1,.89,3.39,3.39,0,0,1,.56,1.33H35.48a1.79,1.79,0,0,0-.37-.71,1.89,1.89,0,0,0-.61-.49,1.73,1.73,0,0,0-.73-.17,1.7,1.7,0,0,0-.91.25,1.63,1.63,0,0,0-.61.71A2.36,2.36,0,0,0,32,98.28v2.34a2.35,2.35,0,0,0,.22,1,1.63,1.63,0,0,0,.61.71,1.7,1.7,0,0,0,.91.25,1.84,1.84,0,0,0,.73-.16,1.82,1.82,0,0,0,.61-.47,1.91,1.91,0,0,0,.37-.74h1.23a3.32,3.32,0,0,1-.57,1.33,2.85,2.85,0,0,1-1,.89,2.9,2.9,0,0,1-1.34.31Z" fill="#231f20"/>
    <path d="M39.27,103.48a2,2,0,0,1-.86-.9,3.19,3.19,0,0,1-.3-1.44v-1a3.06,3.06,0,0,1,.3-1.41,2,2,0,0,1,.86-.9,3.09,3.09,0,0,1,2.7,0,2,2,0,0,1,.86.9,3.06,3.06,0,0,1,.3,1.41v1a3.1,3.1,0,0,1-.3,1.42,2.08,2.08,0,0,1-.86.9,3.09,3.09,0,0,1-2.7,0Zm3.2-7.65-.67.62-1.17-1.11-1.18,1.11-.66-.62,1.84-1.78Zm-.88,6.43a1.61,1.61,0,0,0,.34-1.1v-1a1.57,1.57,0,0,0-.34-1.09,1.4,1.4,0,0,0-1.94,0,1.57,1.57,0,0,0-.34,1.09v1a1.61,1.61,0,0,0,.34,1.1,1.4,1.4,0,0,0,1.94,0Z" fill="#231f20"/>
    <path d="M44.36,97.62H47.1V98.7H44.36Zm1,5.71a1.86,1.86,0,0,1-.35-1.21V95.85h1.2v6.28a.58.58,0,0,0,.09.35.3.3,0,0,0,.26.12h.57v1.13h-.69A1.34,1.34,0,0,1,45.33,103.33Z" fill="#231f20"/>
    <path d="M50.39,103.79l-.6-.32a2.13,2.13,0,0,1-.91-.92,3.23,3.23,0,0,1-.32-1.48v-.69a3.61,3.61,0,0,1,.31-1.54,2.11,2.11,0,0,1,.87-1,2.68,2.68,0,0,1,1.39-.34,2.24,2.24,0,0,1,1.3.38A2.42,2.42,0,0,1,53.25,99a4.66,4.66,0,0,1,.28,1.72v.4h-4.1v-1h3A2.13,2.13,0,0,0,52,99a1.08,1.08,0,0,0-.88-.41,1.3,1.3,0,0,0-1.06.45,1.93,1.93,0,0,0-.37,1.26v.77a1.57,1.57,0,0,0,.4,1.16,1.51,1.51,0,0,0,1.13.4,1.84,1.84,0,0,0,.72-.14,2.26,2.26,0,0,0,.64-.41l.79.78a3.22,3.22,0,0,1-1,.67,2.83,2.83,0,0,1-1.13.24Zm0-7.94,1.68-2.08.86.71-1.79,2Z" fill="#231f20"/>
  </g>
  <g>
    <path d="M104.85,53.73l-.39.67a2.66,2.66,0,0,1-1.11,1,3.57,3.57,0,0,1-1.67.37H99.34a3.57,3.57,0,0,1-1.67-.37,2.74,2.74,0,0,1-1.12-1,3.06,3.06,0,0,1-.39-1.56,2.9,2.9,0,0,1,.31-1.34,2.75,2.75,0,0,1,.89-1,3.25,3.25,0,0,1,1.33-.56v1.22a1.93,1.93,0,0,0-.71.37,2,2,0,0,0-.49.62,1.65,1.65,0,0,0-.17.72,1.73,1.73,0,0,0,.25.92,1.77,1.77,0,0,0,.71.61,2.51,2.51,0,0,0,1.06.21h2.34a2.49,2.49,0,0,0,1-.21,1.7,1.7,0,0,0,.71-.61,1.73,1.73,0,0,0,.25-.92,1.88,1.88,0,0,0-.16-.73,1.82,1.82,0,0,0-.47-.61,2,2,0,0,0-.74-.37V49.91a3.31,3.31,0,0,1,1.33.56,2.85,2.85,0,0,1,1.2,2.37Z" fill="#231f20"/>
    <path d="M96.89,44.15l.62.67L96.4,46l1.11,1.17-.62.67L95.11,46Zm7.65,3.2a2.14,2.14,0,0,1-.9.86,3.33,3.33,0,0,1-1.44.29h-1a3.19,3.19,0,0,1-1.41-.29,2.14,2.14,0,0,1-.9-.86,3.12,3.12,0,0,1,0-2.71,2.14,2.14,0,0,1,.9-.86,3.06,3.06,0,0,1,1.41-.29h1a3.08,3.08,0,0,1,1.42.29,2.14,2.14,0,0,1,.9.86,3.12,3.12,0,0,1,0,2.71ZM103.32,45a1.66,1.66,0,0,0-1.1-.34h-1a1.63,1.63,0,0,0-1.09.34,1.24,1.24,0,0,0-.39,1,1.21,1.21,0,0,0,.39,1,1.59,1.59,0,0,0,1.09.35h1a1.61,1.61,0,0,0,1.1-.35,1.21,1.21,0,0,0,.4-1A1.24,1.24,0,0,0,103.32,45Z" fill="#231f20"/>
    <path d="M104.39,41.29a1.92,1.92,0,0,1-1.21.34H96.91v-1.2h6.28a.67.67,0,0,0,.35-.08.31.31,0,0,0,.12-.26v-.58h1.13v.7A1.34,1.34,0,0,1,104.39,41.29Zm-5.71,1V39.51h1.08v2.75Z" fill="#231f20"/>
    <path d="M96.91,36.21l-2.08-1.68.71-.86,2,1.79Zm7.94,0-.31.59a2.23,2.23,0,0,1-.93.92,3.34,3.34,0,0,1-1.48.31h-.69a3.62,3.62,0,0,1-1.54-.3,2.13,2.13,0,0,1-1-.88,2.71,2.71,0,0,1-.34-1.38,2.22,2.22,0,0,1,.38-1.3,2.44,2.44,0,0,1,1.11-.83,4.66,4.66,0,0,1,1.72-.28h.4v4.1h-1v-3a2,2,0,0,0-1.15.38,1.08,1.08,0,0,0-.42.89,1.29,1.29,0,0,0,.45,1,1.88,1.88,0,0,0,1.26.37h.77a1.57,1.57,0,0,0,1.16-.4,1.5,1.5,0,0,0,.41-1.13,1.86,1.86,0,0,0-.15-.72,2.26,2.26,0,0,0-.41-.64l.78-.78a3.18,3.18,0,0,1,.67,1,2.87,2.87,0,0,1,.24,1.13Z" fill="#231f20"/>
  </g>
  <g>
    <path d="M95,104.49l-.75.2a2.72,2.72,0,0,1-1.52,0,3.79,3.79,0,0,1-1.44-.92l-1.65-1.66a3.5,3.5,0,0,1-.92-1.44,2.63,2.63,0,0,1-.06-1.52,2.91,2.91,0,0,1,.82-1.38A2.88,2.88,0,0,1,90.65,97a2.68,2.68,0,0,1,1.35-.1,3.22,3.22,0,0,1,1.34.54l-.87.87a1.74,1.74,0,0,0-.76-.24,1.7,1.7,0,0,0-.78.09,1.56,1.56,0,0,0-.63.39,1.59,1.59,0,0,0-.47.83,1.66,1.66,0,0,0,.07.93,2.54,2.54,0,0,0,.59.9l1.65,1.65a2.46,2.46,0,0,0,.9.59,1.58,1.58,0,0,0,.93.07,1.66,1.66,0,0,0,.83-.47,1.88,1.88,0,0,0,.4-.63,1.77,1.77,0,0,0-.16-1.54l.87-.87a3.36,3.36,0,0,1,.54,1.34,3,3,0,0,1-.1,1.36,3,3,0,0,1-.73,1.17Z" fill="#231f20"/>
    <path d="M96.14,92.09l0,.91-1.62,0,0,1.62-.91,0,0-2.56Zm3.15,7.67a2.06,2.06,0,0,1-1.25,0,3.1,3.1,0,0,1-1.22-.81l-.7-.7A3.12,3.12,0,0,1,95.33,97a2,2,0,0,1,0-1.24A2.78,2.78,0,0,1,96,94.6a2.69,2.69,0,0,1,1.17-.74,2.13,2.13,0,0,1,1.25,0,3.12,3.12,0,0,1,1.2.8l.72.71a3.07,3.07,0,0,1,.79,1.21,2.05,2.05,0,0,1,0,1.25,2.69,2.69,0,0,1-.74,1.17A2.78,2.78,0,0,1,99.29,99.76Zm.78-2.5a1.61,1.61,0,0,0-.54-1l-.71-.71a1.62,1.62,0,0,0-1-.53,1.4,1.4,0,0,0-1.37,1.37,1.64,1.64,0,0,0,.53,1l.72.71a1.66,1.66,0,0,0,1,.54,1.25,1.25,0,0,0,1-.41A1.23,1.23,0,0,0,100.07,97.26Z" fill="#231f20"/>
    <path d="M103.46,95.36a1.82,1.82,0,0,1-1.09-.61l-4.43-4.43.84-.84,4.44,4.44a.67.67,0,0,0,.31.18.32.32,0,0,0,.27-.1l.4-.41.81.81-.49.49A1.33,1.33,0,0,1,103.46,95.36ZM98.74,92l1.94-1.94.77.76-1.94,1.94Z" fill="#231f20"/>
    <path d="M101.76,86.48l-.28-2.65,1.11-.11.13,2.66Zm5.61,5.64-.65.19a2.07,2.07,0,0,1-1.3,0,3.14,3.14,0,0,1-1.26-.82l-.49-.49a3.49,3.49,0,0,1-.87-1.3,2.11,2.11,0,0,1-.07-1.31,2.66,2.66,0,0,1,.74-1.21,2.14,2.14,0,0,1,1.19-.65,2.36,2.36,0,0,1,1.36.19,4.71,4.71,0,0,1,1.42,1l.28.28-2.9,2.9-.68-.68,2.1-2.1a2,2,0,0,0-1.09-.54,1.08,1.08,0,0,0-.92.33A1.31,1.31,0,0,0,103.8,89a1.93,1.93,0,0,0,.63,1.15l.55.55a1.54,1.54,0,0,0,1.1.54,1.49,1.49,0,0,0,1.08-.52,1.87,1.87,0,0,0,.41-.61,2.09,2.09,0,0,0,.16-.74h1.11a3.41,3.41,0,0,1-.24,1.19,3,3,0,0,1-.63,1Z" fill="#231f20"/>
  </g>
</svg>
