<svg xmlns="http://www.w3.org/2000/svg" width="4cm" height="4cm" viewBox="0 0 113.39 113.39">
  <title>Pyramide et cone</title>
  <ellipse cx="54.95" cy="84.66" rx="44.9" ry="22.45" fill="none" stroke="#231f20" stroke-miterlimit="10" stroke-width="1.84" stroke-dasharray="4.46 2.55"/>
  <line x1="54.95" y1="12.5" x2="54.95" y2="84.66" fill="none" stroke="#ed1c24" stroke-miterlimit="10" stroke-width="0.92"/>
  <path d="M97.67,77.74a12.66,12.66,0,0,1,2.17,6.92c0,12.4-20.1,22.45-44.89,22.45s-44.9-10-44.9-22.45a12.75,12.75,0,0,1,2.36-7.2h0L55,12.5,97.67,77.74Z" fill="none" stroke="#231f20" stroke-miterlimit="10" stroke-width="1.84"/>
  <polyline points="53.56 14.61 54.95 12.5 56.21 14.44" fill="none" stroke="#fff200" stroke-linecap="round" stroke-miterlimit="10" stroke-width="0.92"/>
  <polyline points="50.41 84.66 50.41 80.12 54.95 80.12 54.95 84.66" fill="none" stroke="#ed1c24" stroke-miterlimit="10" stroke-width="0.92"/>
  <g>
    <path d="M67.76,15.81l-.5-.11a4.08,4.08,0,0,1-1-.32,4.55,4.55,0,0,1-.83-.54l.69-.84a3.11,3.11,0,0,0,1,.58,3.42,3.42,0,0,0,1.17.19,2.34,2.34,0,0,0,1.32-.31,1,1,0,0,0,.47-.9h0a1,1,0,0,0-.21-.65,1.32,1.32,0,0,0-.55-.36,7,7,0,0,0-.87-.21h-.07l-.09,0a9.08,9.08,0,0,1-1.28-.3,1.82,1.82,0,0,1-.84-.62,2,2,0,0,1-.35-1.29h0a2.28,2.28,0,0,1,.32-1.25,2.08,2.08,0,0,1,1-.78,3.76,3.76,0,0,1,1.5-.27,3.84,3.84,0,0,1,.83.09,4,4,0,0,1,.8.27,4.43,4.43,0,0,1,.78.46l-.62.87A3.77,3.77,0,0,0,69.54,9a2.59,2.59,0,0,0-.9-.16,2.09,2.09,0,0,0-1.25.32,1.05,1.05,0,0,0-.44.91h0a.85.85,0,0,0,.23.64,1.36,1.36,0,0,0,.57.34,7.84,7.84,0,0,0,1,.23h.2a7,7,0,0,1,1.19.34,1.87,1.87,0,0,1,.8.65,2.08,2.08,0,0,1,.32,1.22h0a2.14,2.14,0,0,1-.34,1.23,2.06,2.06,0,0,1-1,.77,4,4,0,0,1-1.56.27Z" fill="#231f20"/>
    <path d="M73.57,15.52a1.87,1.87,0,0,1-.79-.83,2.93,2.93,0,0,1-.27-1.32v-.91a2.94,2.94,0,0,1,.27-1.31,1.9,1.9,0,0,1,.79-.82A2.57,2.57,0,0,1,74.82,10a2.53,2.53,0,0,1,1.24.29,1.92,1.92,0,0,1,.8.82,2.94,2.94,0,0,1,.27,1.31v.93a2.94,2.94,0,0,1-.27,1.31,1.92,1.92,0,0,1-.8.82,2.42,2.42,0,0,1-1.24.29A2.46,2.46,0,0,1,73.57,15.52Zm2.14-1.12a1.49,1.49,0,0,0,.32-1v-.93a1.47,1.47,0,0,0-.32-1,1.29,1.29,0,0,0-1.79,0,1.47,1.47,0,0,0-.31,1v.93a1.49,1.49,0,0,0,.31,1,1.29,1.29,0,0,0,1.79,0Z" fill="#231f20"/>
    <path d="M78.69,10.13H79.8v5.6H78.69ZM82,12.33a1.32,1.32,0,0,0-.29-.91,1.06,1.06,0,0,0-.83-.33,1.15,1.15,0,0,0-.83.29,1.05,1.05,0,0,0-.29.8l-.12-1.08a2,2,0,0,1,.68-.78,1.69,1.69,0,0,1,.93-.28,1.8,1.8,0,0,1,1,.27,1.64,1.64,0,0,1,.63.78,3.09,3.09,0,0,1,.22,1.24v3.4H82Zm3.35,0a1.24,1.24,0,0,0-.31-.91,1.11,1.11,0,0,0-.86-.33,1,1,0,0,0-.8.32,1.29,1.29,0,0,0-.28.88l-.22-1.08a2.16,2.16,0,0,1,.7-.86,1.66,1.66,0,0,1,1-.31,1.88,1.88,0,0,1,1,.27,1.62,1.62,0,0,1,.65.78,3.08,3.08,0,0,1,.23,1.24v3.4h-1.1Z" fill="#231f20"/>
    <path d="M88.16,10.13h1.1v5.6h-1.1Zm3.35,2.2a1.32,1.32,0,0,0-.29-.91,1.06,1.06,0,0,0-.83-.33,1.13,1.13,0,0,0-.83.29,1.06,1.06,0,0,0-.3.8l-.11-1.08a2,2,0,0,1,.68-.78,1.66,1.66,0,0,1,.92-.28,1.84,1.84,0,0,1,1,.27,1.7,1.7,0,0,1,.63.78,3.09,3.09,0,0,1,.22,1.24v3.4h-1.1Zm3.35,0a1.28,1.28,0,0,0-.31-.91,1.15,1.15,0,0,0-.87-.33,1,1,0,0,0-.79.32,1.24,1.24,0,0,0-.28.88l-.22-1.08a2.08,2.08,0,0,1,.7-.86,1.66,1.66,0,0,1,1-.31,1.91,1.91,0,0,1,1,.27,1.67,1.67,0,0,1,.65.78A3.08,3.08,0,0,1,96,12.33v3.4h-1.1Z" fill="#231f20"/>
    <path d="M99.15,15.81l-.55-.29a1.94,1.94,0,0,1-.84-.86,2.85,2.85,0,0,1-.29-1.36v-.63a3.21,3.21,0,0,1,.28-1.42,2,2,0,0,1,.8-.9A2.58,2.58,0,0,1,99.83,10a2,2,0,0,1,1.2.36,2.12,2.12,0,0,1,.75,1,4.2,4.2,0,0,1,.27,1.59v.37H98.27v-.88H101a1.89,1.89,0,0,0-.35-1.07,1,1,0,0,0-.82-.38,1.2,1.2,0,0,0-1,.41,1.75,1.75,0,0,0-.34,1.16v.71a1.47,1.47,0,0,0,.36,1.07,1.39,1.39,0,0,0,1,.37,1.74,1.74,0,0,0,.67-.13,2.05,2.05,0,0,0,.59-.38l.72.72a3,3,0,0,1-.93.62,2.64,2.64,0,0,1-1,.22Z" fill="#231f20"/>
    <path d="M103.13,10.13h2.52v1h-2.52Zm.89,5.25a1.69,1.69,0,0,1-.32-1.11V8.5h1.1v5.78a.58.58,0,0,0,.08.32.3.3,0,0,0,.24.11h.53v1H105A1.22,1.22,0,0,1,104,15.38Z" fill="#231f20"/>
  </g>
  <g>
    <path d="M8.06,14h1.1v7.85H8.06Zm.68,3.46H13.1v1.05H8.74ZM12.52,14h1.1v7.85h-1.1Z" fill="#ed1c24"/>
    <path d="M15.7,21.5a1.6,1.6,0,0,1-.52-1.3A1.61,1.61,0,0,1,15.65,19a2.15,2.15,0,0,1,1.42-.41h1.6l.07.88H17.08a1,1,0,0,0-.65.19.77.77,0,0,0-.21.59.74.74,0,0,0,.29.63,1.41,1.41,0,0,0,.86.21,2.47,2.47,0,0,0,.94-.14.45.45,0,0,0,.31-.42l.11.79a1.41,1.41,0,0,1-.36.37,1.47,1.47,0,0,1-.49.22,2.48,2.48,0,0,1-.63.07A2.35,2.35,0,0,1,15.7,21.5Zm2.92-3.2a1.18,1.18,0,0,0-.3-.86,1.1,1.1,0,0,0-.83-.3,2.16,2.16,0,0,0-.66.1,2.19,2.19,0,0,0-.57.29l-.8-.55a2,2,0,0,1,.84-.6,3.07,3.07,0,0,1,1.16-.21,2.72,2.72,0,0,1,1.19.24,1.76,1.76,0,0,1,.76.72,2.29,2.29,0,0,1,.26,1.12v3.6H18.62Z" fill="#ed1c24"/>
    <path d="M22.44,19.65a1.26,1.26,0,0,0,.3.91,1.08,1.08,0,0,0,.84.33,1.17,1.17,0,0,0,.84-.29,1.07,1.07,0,0,0,.3-.82L24.79,21a1.55,1.55,0,0,1-.56.69,1.57,1.57,0,0,1-.95.28,1.81,1.81,0,0,1-1.44-.59,2.58,2.58,0,0,1-.5-1.69v-3.4h1.1Zm2.28-3.4h1.09v5.6H24.72Z" fill="#ed1c24"/>
    <path d="M27.05,16.25h2.53v1H27.05ZM28,21.5a1.69,1.69,0,0,1-.32-1.11V14.62h1.1v5.79a.54.54,0,0,0,.08.31.3.3,0,0,0,.24.11h.53v1.05h-.64A1.22,1.22,0,0,1,28,21.5Z" fill="#ed1c24"/>
    <path d="M32.61,21.93l-.55-.29a1.92,1.92,0,0,1-.84-.85,3,3,0,0,1-.29-1.37v-.63a3.24,3.24,0,0,1,.28-1.42,1.9,1.9,0,0,1,.81-.89,2.42,2.42,0,0,1,1.27-.31,2,2,0,0,1,1.2.35,2.21,2.21,0,0,1,.76,1,4.51,4.51,0,0,1,.26,1.6v.36H31.73v-.88h2.73a1.91,1.91,0,0,0-.35-1.07,1,1,0,0,0-.82-.38,1.2,1.2,0,0,0-1,.41A1.75,1.75,0,0,0,32,18.73v.71a1.42,1.42,0,0,0,.37,1.07,1.38,1.38,0,0,0,1,.38,1.74,1.74,0,0,0,.66-.14,1.93,1.93,0,0,0,.59-.38l.72.73a3,3,0,0,1-.93.61,2.59,2.59,0,0,1-1,.22Z" fill="#ed1c24"/>
    <path d="M38,19.65a1.26,1.26,0,0,0,.3.91,1.08,1.08,0,0,0,.84.33A1.17,1.17,0,0,0,40,20.6a1.07,1.07,0,0,0,.29-.82L40.34,21a1.62,1.62,0,0,1-.56.69,1.58,1.58,0,0,1-1,.28,1.79,1.79,0,0,1-1.43-.59,2.53,2.53,0,0,1-.51-1.69v-3.4H38Zm2.27-3.4h1.1v5.6h-1.1Z" fill="#ed1c24"/>
    <path d="M43,16.25h1.1v5.6H43Zm2.72,1.06a1.36,1.36,0,0,0-.51-.1,1.14,1.14,0,0,0-.82.29,1.11,1.11,0,0,0-.29.81L44,17.23a2,2,0,0,1,.67-.78,1.55,1.55,0,0,1,.91-.28,1.89,1.89,0,0,1,.69.11,1.46,1.46,0,0,1,.54.32l-.71,1A.91.91,0,0,0,45.75,17.31Z" fill="#ed1c24"/>
  </g>
  <polyline points="20.59 25.26 20.59 32.4 53.17 40.03" fill="none" stroke="#231f20" stroke-linecap="round" stroke-linejoin="round" stroke-width="0.92"/>
  <line x1="57.83" y1="12.5" x2="64.31" y2="12.5" fill="none" stroke="#231f20" stroke-linecap="round" stroke-miterlimit="10" stroke-width="0.92"/>
</svg>
