<svg xmlns="http://www.w3.org/2000/svg" xmlns:xlink="http://www.w3.org/1999/xlink" width="4cm" height="4cm" viewBox="0 0 113.39 113.39">
  <defs>
    <clipPath id="a">
      <polygon points="34.25 66.14 60.7 22.03 91.58 70.53 34.25 66.14" fill="none" stroke="#231f20" stroke-linejoin="round" stroke-width="2"/>
    </clipPath>
  </defs>
  <title>Patrons</title>
  <polygon points="60.7 22.03 34.25 66.14 3.37 17.64 60.7 22.03" fill="none" stroke="#231f20" stroke-linejoin="round" stroke-width="2"/>
  <polygon points="60.7 22.03 110.01 51.6 91.58 70.53 60.7 22.03" fill="none" stroke="#231f20" stroke-linejoin="round" stroke-width="2"/>
  <polygon points="34.23 66.18 83.54 95.75 91.56 70.58 34.23 66.18" fill="none" stroke="#231f20" stroke-linejoin="round" stroke-width="2"/>
  <g>
    <g clip-path="url(#a)">
      <line x1="72.46" y1="19.84" x2="14.17" y2="76.54" fill="none" stroke="#231f20" stroke-linejoin="round"/>
      <line x1="78.13" y1="19.84" x2="19.84" y2="76.54" fill="none" stroke="#231f20" stroke-linejoin="round"/>
      <line x1="83.8" y1="19.84" x2="25.51" y2="76.54" fill="none" stroke="#231f20" stroke-linejoin="round"/>
      <line x1="89.47" y1="19.84" x2="31.18" y2="76.54" fill="none" stroke="#231f20" stroke-linejoin="round"/>
      <line x1="95.14" y1="19.84" x2="36.85" y2="76.54" fill="none" stroke="#231f20" stroke-linejoin="round"/>
      <line x1="100.81" y1="19.84" x2="42.52" y2="76.54" fill="none" stroke="#231f20" stroke-linejoin="round"/>
      <line x1="106.48" y1="19.84" x2="48.19" y2="76.54" fill="none" stroke="#231f20" stroke-linejoin="round"/>
      <line x1="112.15" y1="19.84" x2="53.86" y2="76.54" fill="none" stroke="#231f20" stroke-linejoin="round"/>
      <line x1="117.81" y1="19.84" x2="59.53" y2="76.54" fill="none" stroke="#231f20" stroke-linejoin="round"/>
      <line x1="123.48" y1="19.84" x2="65.2" y2="76.54" fill="none" stroke="#231f20" stroke-linejoin="round"/>
      <line x1="129.15" y1="19.84" x2="70.87" y2="76.54" fill="none" stroke="#231f20" stroke-linejoin="round"/>
      <line x1="134.82" y1="19.84" x2="76.54" y2="76.54" fill="none" stroke="#231f20" stroke-linejoin="round"/>
      <line x1="140.49" y1="19.84" x2="82.2" y2="76.54" fill="none" stroke="#231f20" stroke-linejoin="round"/>
      <line x1="66.79" y1="19.84" x2="8.5" y2="76.54" fill="none" stroke="#231f20" stroke-linejoin="round"/>
    </g>
    <polygon points="34.25 66.14 60.7 22.03 91.58 70.53 34.25 66.14" fill="none" stroke="#231f20" stroke-linejoin="round" stroke-width="2"/>
  </g>
  <g>
    <path d="M50.86,46.76a9.84,9.84,0,0,1,1.91-.17,3.33,3.33,0,0,1,2.22.59,1.69,1.69,0,0,1,.67,1.43,1.9,1.9,0,0,1-1.37,1.77v0a2.09,2.09,0,0,1,1.67,2,2.17,2.17,0,0,1-.68,1.62,4.06,4.06,0,0,1-2.8.76,11.75,11.75,0,0,1-1.62-.1Zm1,3.31h1c1.1,0,1.75-.58,1.75-1.36,0-.94-.72-1.32-1.78-1.32a4,4,0,0,0-.92.08Zm0,3.87a5,5,0,0,0,.87.05c1.08,0,2.08-.39,2.08-1.57s-1-1.56-2.09-1.56h-.86Z" fill="none" stroke="#fff" stroke-miterlimit="10" stroke-width="3"/>
    <path d="M60.55,54.73,60.46,54h0a2.17,2.17,0,0,1-1.78.87,1.65,1.65,0,0,1-1.77-1.67c0-1.4,1.24-2.17,3.49-2.16v-.12a1.19,1.19,0,0,0-1.32-1.34,2.9,2.9,0,0,0-1.51.43l-.24-.7a3.6,3.6,0,0,1,1.9-.51c1.78,0,2.21,1.21,2.21,2.37v2.17a7.31,7.31,0,0,0,.1,1.39Zm-.16-3c-1.15,0-2.46.18-2.46,1.31a.94.94,0,0,0,1,1,1.45,1.45,0,0,0,1.4-1,1,1,0,0,0,.06-.34Z" fill="none" stroke="#fff" stroke-miterlimit="10" stroke-width="3"/>
    <path d="M63,53.65a2.72,2.72,0,0,0,1.39.42c.77,0,1.13-.38,1.13-.86s-.3-.78-1.08-1.07c-1-.37-1.53-.94-1.53-1.64a1.79,1.79,0,0,1,2-1.7,2.94,2.94,0,0,1,1.43.36l-.27.76a2.25,2.25,0,0,0-1.18-.33c-.63,0-1,.36-1,.79s.35.7,1.11,1c1,.39,1.52.89,1.52,1.76s-.79,1.73-2.17,1.73a3.3,3.3,0,0,1-1.63-.39Z" fill="none" stroke="#fff" stroke-miterlimit="10" stroke-width="3"/>
    <path d="M68.46,52a1.86,1.86,0,0,0,2,2,3.75,3.75,0,0,0,1.6-.3l.18.75a4.63,4.63,0,0,1-1.93.36,2.69,2.69,0,0,1-2.85-2.92c0-1.75,1-3.13,2.72-3.13a2.45,2.45,0,0,1,2.4,2.73,2.63,2.63,0,0,1,0,.49Zm3.09-.75a1.51,1.51,0,0,0-1.46-1.72,1.75,1.75,0,0,0-1.62,1.72Z" fill="none" stroke="#fff" stroke-miterlimit="10" stroke-width="3"/>
  </g>
  <g>
    <path d="M50.86,46.76a9.84,9.84,0,0,1,1.91-.17,3.33,3.33,0,0,1,2.22.59,1.69,1.69,0,0,1,.67,1.43,1.9,1.9,0,0,1-1.37,1.77v0a2.09,2.09,0,0,1,1.67,2,2.17,2.17,0,0,1-.68,1.62,4.06,4.06,0,0,1-2.8.76,11.75,11.75,0,0,1-1.62-.1Zm1,3.31h1c1.1,0,1.75-.58,1.75-1.36,0-.94-.72-1.32-1.78-1.32a4,4,0,0,0-.92.08Zm0,3.87a5,5,0,0,0,.87.05c1.08,0,2.08-.39,2.08-1.57s-1-1.56-2.09-1.56h-.86Z" fill="#231f20"/>
    <path d="M60.55,54.73,60.46,54h0a2.17,2.17,0,0,1-1.78.87,1.65,1.65,0,0,1-1.77-1.67c0-1.4,1.24-2.17,3.49-2.16v-.12a1.19,1.19,0,0,0-1.32-1.34,2.9,2.9,0,0,0-1.51.43l-.24-.7a3.6,3.6,0,0,1,1.9-.51c1.78,0,2.21,1.21,2.21,2.37v2.17a7.31,7.31,0,0,0,.1,1.39Zm-.16-3c-1.15,0-2.46.18-2.46,1.31a.94.94,0,0,0,1,1,1.45,1.45,0,0,0,1.4-1,1,1,0,0,0,.06-.34Z" fill="#231f20"/>
    <path d="M63,53.65a2.72,2.72,0,0,0,1.39.42c.77,0,1.13-.38,1.13-.86s-.3-.78-1.08-1.07c-1-.37-1.53-.94-1.53-1.64a1.79,1.79,0,0,1,2-1.7,2.94,2.94,0,0,1,1.43.36l-.27.76a2.25,2.25,0,0,0-1.18-.33c-.63,0-1,.36-1,.79s.35.7,1.11,1c1,.39,1.52.89,1.52,1.76s-.79,1.73-2.17,1.73a3.3,3.3,0,0,1-1.63-.39Z" fill="#231f20"/>
    <path d="M68.46,52a1.86,1.86,0,0,0,2,2,3.75,3.75,0,0,0,1.6-.3l.18.75a4.63,4.63,0,0,1-1.93.36,2.69,2.69,0,0,1-2.85-2.92c0-1.75,1-3.13,2.72-3.13a2.45,2.45,0,0,1,2.4,2.73,2.63,2.63,0,0,1,0,.49Zm3.09-.75a1.51,1.51,0,0,0-1.46-1.72,1.75,1.75,0,0,0-1.62,1.72Z" fill="#231f20"/>
  </g>
</svg>
