<?xml version="1.0" encoding="utf-8"?>
<svg version="1.1" id="Calque_1" xmlns="http://www.w3.org/2000/svg" xmlns:xlink="http://www.w3.org/1999/xlink" x="0px" y="0px"
	 viewBox="0 0 190.7 108" style="enable-background:new 0 0 190.7 108;" xml:space="preserve">
<style type="text/css">
	.st0{fill:none;stroke:#000000;stroke-miterlimit:10;}
	.st1{fill:#00AEEF;stroke:#2E3192;stroke-linejoin:round;stroke-miterlimit:10;}
	.st3{fill:none;stroke:#ED1C24;stroke-width:2;stroke-linecap:round;stroke-miterlimit:10; stroke-linecap: round;}
	.st4{fill:none;stroke:#009444;stroke-width:2;stroke-linejoin:round;stroke-miterlimit:10; stroke-linecap: round;}
	.st5{fill:none;stroke:#039be5;stroke-width:2;stroke-linejoin:round;stroke-miterlimit:10; stroke-linecap: round;}
</style>
<rect x="163" y="74.9" class="st0" width="12.6" height="12.6"/>
<path class="st1" d="M65.3,87.5c0-7.2-1.6-14-4.5-20.1L18.5,87.5H65.3z"/>
<line class="st3" x1="175.6" y1="87.5" x2="18.5" y2="87.5"/>
<line class="st4" x1="18.5" y1="87.5" x2="175.6" y2="13"/>
<line class="st5" x1="175.6" y1="87.5" x2="175.6" y2="13"/>
<g>
	<g>
		<path d="M7.6,84h1l3.1,8.5h-1.3l-2.4-6.9l-2.4,6.9H4.5L7.6,84z M5.9,89.5h4.5v1.1H5.9V89.5z"/>
	</g>
</g>
<g>
	<g>
		<path d="M180.3,86.7h1.2v8.5h-1.2V86.7z M181,94.1h2.3c0.6,0,1-0.1,1.3-0.3s0.4-0.6,0.4-1v0c0-0.3,0-0.5-0.1-0.7s-0.3-0.4-0.5-0.5
			s-0.5-0.2-0.8-0.2H181v-1.1h2.6c0.4,0,0.8-0.1,1-0.3s0.3-0.5,0.3-0.9c0-0.4-0.1-0.7-0.4-1s-0.6-0.3-1.1-0.3H181v-1.1h2.7
			c0.6,0,1,0.1,1.4,0.3s0.6,0.5,0.8,0.8s0.3,0.8,0.3,1.2c0,0.3-0.1,0.6-0.2,0.8s-0.3,0.5-0.5,0.7s-0.5,0.3-0.9,0.4
			c0.3,0.1,0.6,0.2,0.9,0.4s0.4,0.4,0.6,0.7s0.2,0.6,0.2,0.9v0c0,0.5-0.1,0.9-0.3,1.2s-0.5,0.6-0.9,0.8s-0.8,0.3-1.3,0.3H181V94.1z"
			/>
	</g>
</g>
<g>
	<g>
		<path d="M182.2,13.1c0,0-0.2-0.1-0.7-0.4s-0.8-0.6-1-1.1s-0.4-1-0.4-1.7V7.6c0-0.6,0.1-1.2,0.4-1.7s0.6-0.9,1-1.1s1-0.4,1.6-0.4
			c0.5,0,0.9,0.1,1.3,0.3s0.8,0.5,1,0.9s0.5,0.8,0.6,1.3h-1.2c-0.1-0.3-0.2-0.5-0.4-0.7s-0.4-0.4-0.6-0.5s-0.5-0.2-0.7-0.2
			c-0.3,0-0.7,0.1-0.9,0.3s-0.5,0.4-0.6,0.7s-0.2,0.7-0.2,1.1v2.3c0,0.4,0.1,0.8,0.2,1.1s0.3,0.5,0.6,0.7s0.6,0.2,0.9,0.2
			c0.3,0,0.5-0.1,0.7-0.2s0.4-0.3,0.6-0.5s0.3-0.5,0.4-0.7h1.2c-0.1,0.5-0.3,0.9-0.6,1.3s-0.6,0.7-1,0.9s-0.9,0.3-1.3,0.3
			C182.5,13.1,182.2,13.1,182.2,13.1z"/>
	</g>
</g>
<g>
</g>
</svg>
