<?xml version="1.0" encoding="UTF-8"?>
<svg id="Calque_1" data-name="Calque 1" xmlns="http://www.w3.org/2000/svg" viewBox="0 0 426.47 234.56">
  <defs>
    <style>
      .cls-1 {
        fill: #fff;
        stroke: #1d1d1b;
        stroke-miterlimit: 10;
      }
    </style>
  </defs>
  <rect class="cls-1" x="22.33" y="10.1" width="73.02" height="30.81"/>
  <polygon class="cls-1" points="120.02 15.15 120.02 35.86 134.66 50.51 155.38 50.51 170.03 35.86 170.03 15.15 155.38 .5 134.66 .5 120.02 15.15"/>
  <polygon class="cls-1" points="201.13 57.76 237.64 57.76 219.39 4.06 201.13 57.76"/>
  <path class="cls-1" d="m311.77,33.16c0-16.92-13.72-30.64-30.64-30.64s-30.64,13.72-30.64,30.64h16.47c0-7.83,6.34-14.17,14.17-14.17s14.17,6.34,14.17,14.17h16.47Z"/>
  <polygon class="cls-1" points="265.3 62.83 265.3 103.3 311.77 103.3 311.77 52.49 265.3 62.83"/>
  <circle class="cls-1" cx="87.18" cy="156.82" r="21.62"/>
  <path class="cls-1" d="m279.88,145.25c0-13.06,8.34-24.16,19.99-28.28-.57-.03-1.15-.06-1.73-.06-15.65,0-28.34,12.69-28.34,28.34s12.69,28.34,28.34,28.34c.58,0,1.16-.02,1.73-.06-11.64-4.12-19.99-15.23-19.99-28.28Z"/>
  <polygon class="cls-1" points="217.9 75.94 189.13 96.84 200.12 130.65 235.68 130.65 246.66 96.84 217.9 75.94"/>
  <polygon class="cls-1" points="68.03 63.29 38.92 63.29 38.92 75.55 26.67 75.55 26.67 104.65 38.92 104.65 38.92 116.91 68.03 116.91 68.03 104.65 80.28 104.65 80.28 75.55 68.03 75.55 68.03 63.29"/>
  <path class="cls-1" d="m155.99,100.73v-8.84h-6.53c-8.96,0-16.23,7.27-16.23,16.23v24.11h-15.13v-24.11c0-17.32,14.04-31.36,31.36-31.36h6.53v-8.12l15.94,15.94-15.94,16.13Z"/>
  <path class="cls-1" d="m355.52,15.88c3.57-3.57,8.51-5.78,13.96-5.78s10.39,2.21,13.96,5.78,5.78,8.51,5.78,13.96-2.21,10.39-5.78,13.96l-27.92,27.92-27.92-27.92c-3.57-3.57-5.78-8.51-5.78-13.96s2.21-10.39,5.78-13.96,8.51-5.78,13.96-5.78,10.39,2.21,13.96,5.78Z"/>
  <polygon class="cls-1" points="358.11 107.43 377.38 109.72 363.84 123.63 367.61 142.66 350.21 134.08 333.27 143.55 336.05 124.35 321.81 111.17 340.94 107.88 349.07 90.26 358.11 107.43"/>
  <polygon class="cls-1" points="390.54 68.65 420.15 68.65 390.54 127.38 420.15 127.38 390.54 68.65"/>
  <polygon class="cls-1" points="272.62 176.74 240.78 176.74 224.86 204.32 240.78 231.89 272.62 231.89 288.54 204.32 272.62 176.74"/>
  <polygon class="cls-1" points="47.7 186.86 80.28 193.08 47.7 199.3 41.47 231.89 35.25 199.3 2.67 193.08 35.25 186.86 41.47 154.27 47.7 186.86"/>
  <path class="cls-1" d="m189.13,156.42c-3.21-1.93-6.43-3.86-12.85-3.86-12.85,0-12.85,7.71-25.7,7.71-6.42,0-9.64-1.93-12.85-3.86v44.04c3.21,1.93,6.42,3.86,12.85,3.86,12.85,0,12.85-7.71,25.7-7.71,6.43,0,9.64,1.93,12.85,3.86v-44.04Z"/>
  <polygon class="cls-1" points="417.12 205.19 381.95 205.16 381.95 213.33 364.49 195.87 381.95 179.24 381.95 187.41 399.31 187.39 399.35 170.02 391.18 170.02 407.8 152.56 425.26 170.02 417.09 170.02 417.12 205.19"/>
</svg>