<?xml version="1.0" encoding="utf-8"?>
<!-- Generator: Adobe Illustrator 28.0.0, SVG Export Plug-In . SVG Version: 6.00 Build 0)  -->
<svg version="1.0" id="Calque_1" xmlns="http://www.w3.org/2000/svg" xmlns:xlink="http://www.w3.org/1999/xlink" x="0px" y="0px"
	 viewBox="0 0 500 65" enable-background="new 0 0 500 65" xml:space="preserve">
<path fill="none" stroke="#000000" stroke-width="2" stroke-linecap="round" stroke-linejoin="round" d="M10,27.5v10"/>
<path fill="none" stroke="#000000" stroke-width="2" stroke-linecap="round" stroke-linejoin="round" d="M36.4,27.5v10"/>
<path fill="none" stroke="#000000" stroke-width="2" stroke-linecap="round" stroke-linejoin="round" d="M62.8,27.5v10"/>
<path fill="none" stroke="#000000" stroke-width="2" stroke-linecap="round" stroke-linejoin="round" d="M89.2,27.5v10"/>
<path fill="none" stroke="#000000" stroke-width="2" stroke-linecap="round" stroke-linejoin="round" d="M115.6,27.5v10"/>
<path fill="none" stroke="#000000" stroke-width="2" stroke-linecap="round" stroke-linejoin="round" d="M141.9,27.5v10"/>
<path fill="none" stroke="#000000" stroke-width="2" stroke-linecap="round" stroke-linejoin="round" d="M168.3,27.5v10"/>
<path fill="none" stroke="#000000" stroke-width="2" stroke-linecap="round" stroke-linejoin="round" d="M194.7,27.5v10"/>
<path fill="none" stroke="#000000" stroke-width="2" stroke-linecap="round" stroke-linejoin="round" d="M221.1,27.5v10"/>
<path fill="none" stroke="#000000" stroke-width="2" stroke-linecap="round" stroke-linejoin="round" d="M247.5,27.5v10"/>
<path fill="none" stroke="#000000" stroke-width="2" stroke-linecap="round" stroke-linejoin="round" d="M273.9,27.5v10"/>
<path fill="none" stroke="#000000" stroke-width="2" stroke-linecap="round" stroke-linejoin="round" d="M300.3,27.5v10"/>
<path fill="none" stroke="#000000" stroke-width="2" stroke-linecap="round" stroke-linejoin="round" d="M326.7,27.5v10"/>
<path fill="none" stroke="#000000" stroke-width="2" stroke-linecap="round" stroke-linejoin="round" d="M353.1,27.5v10"/>
<path fill="none" stroke="#000000" stroke-width="2" stroke-linecap="round" stroke-linejoin="round" d="M379.4,27.5v10"/>
<path fill="none" stroke="#000000" stroke-width="2" stroke-linecap="round" stroke-linejoin="round" d="M405.8,27.5v10"/>
<path fill="none" stroke="#000000" stroke-width="2" stroke-linecap="round" stroke-linejoin="round" d="M432.2,27.5v10"/>
<path fill="none" stroke="#000000" stroke-width="2" stroke-linecap="round" stroke-linejoin="round" d="M458.6,27.5v10"/>
<path fill="none" stroke="#000000" stroke-width="2" stroke-linecap="round" stroke-linejoin="round" d="M485,27.5v10"/>
<path fill="none" stroke="#000000" stroke-width="2" stroke-linecap="round" stroke-linejoin="round" d="M5,32.5h485"/>
<path stroke="#000000" stroke-width="2" stroke-linecap="round" stroke-linejoin="round" d="M490,32.5h1.2V35l3.8-2.5l-3.8-2.5v2.5
	H490z"/>
<text transform="matrix(1 0 0 1 347.7206 55.9)" fill="#FFFFFF" font-family="Arial" font-weight="bold" font-size="12px">-1</text>
<text transform="matrix(1 0 0 1 347.7206 55.9)" fill="none" stroke="#FFFFFF" stroke-width="5" font-family="Arial" font-size="12px">-1</text>
<text transform="matrix(1 0 0 1 347.7206 55.9)" fill="#E5064A" font-family="Arial" font-weight="bold" font-size="12px">-1</text>
<text transform="matrix(1 0 0 1 376.1075 55.9)" fill="#FFFFFF" font-family="Arial" font-weight="bold" font-size="12px">0</text>
<text transform="matrix(1 0 0 1 376.1075 55.9)" fill="none" stroke="#FFFFFF" stroke-width="5" font-family="Arial" font-size="12px">0</text>
<text transform="matrix(1 0 0 1 376.1075 55.9)" font-family="Arial" font-weight="bold" font-size="12px">0</text>
<text transform="matrix(1 0 0 1 402.4964 55.9)" fill="#FFFFFF" font-family="Arial" font-weight="bold" font-size="12px">1</text>
<text transform="matrix(1 0 0 1 402.4964 55.9)" fill="none" stroke="#FFFFFF" stroke-width="5" font-family="Arial" font-size="12px">1</text>
<text transform="matrix(1 0 0 1 402.4964 55.9)" fill="#44ACE2" font-family="Arial" font-weight="bold" font-size="12px">1</text>
</svg>
