<?xml version="1.0" encoding="UTF-8"?>
<svg id="Calque_1" data-name="Calque 1" xmlns="http://www.w3.org/2000/svg" viewBox="0 0 296 284.4">
  <defs>
    <style>
      .cls-1, .cls-2 {
        stroke-width: 0px;
      }

      .cls-3 {
        fill: #fff;
        stroke: #fff;
        stroke-miterlimit: 10;
        stroke-width: 2px;
      }

      .cls-2 {
        fill: #89c059;
      }
    </style>
  </defs>
  <g id="Calque_1-2" data-name="Calque 1">
    <path class="cls-2" d="m289.9,283.2h-.2v.2h.1l.1.1h.1l.1-.1h-.2v-.2Zm-.2.8h0l-.2.1.2.2v-.3h0Zm6.2-25.6l-.1-.5-.4-1.1-.1-.6v-.9l.1-.4.1-.4-.2-.6v-2.4l-.1-.5-.2-.5-.6-.9.4.7.1.2v.4l-.5-.2-.2-.1-.1-.2-.1-.2v-.2s-.1-.1-.1-.1l.1-.2v-.1l-.1-.2v-.2h-.1l-.1-.1-.1-.1v-.1l.1-.1.1-.1v-.9l.1-.4-.1-.3.6-2.6v-.8l-.4-2.5.1-.5-.2-.3-.1-.3v-.3l.2-.2v-.2l-.4-.2-.2-.2-.3-.4-.4.2h-.8l-.3.2-.1.4.1.5.1.4.2.2-.1.2v.2l.1.1-.5.5-.1.2-.1.3v.2l.2.3v.2l-.5.8.3.4.3.4.1.5-.1.5.2.6-.3.8-.7,1.2h-.1l-.2-.5-.1-.2-.1-.2-.1-.1-.4-.2-1-.3h-.2l-.2-.1h-.5l-.5.1-.2.2-1.1,1.2-.1.5-.6.3-2.2.5-1.3.7h-.7l.2.2-.2.4-.1.4-.2.3-.3.1-.2-.1-.2-.2-.2-.1-.4.2v-.2h-.1l-.1-.1v.2l.1.3-.1.6.1.3-.4.1-.3.2-.3.3-.1.7-.1.1.1.1h.2l.1.1-.1.2-.2.3v.6l-.2.2h-1.1s-.1.1-.1.1l-.1.1-.1.1-.1.2v.2l-.1.1-.2-.1-.1.2-.2.1h-.2l-.2-.1-.1.3v.3l.1.3.1.2-.2.2.8-.3h.4l.4.4-.6.4-.1.1.1.2v.1h.2l.2-.2.1.1v.2l.1.1.8.4h0l.3.2-.1.2h-.1l-.1.1-.2.1-.3.1-.8.2-.2.1-.2.1-.2.1h-.5l-.3.1v.3l.1.1.3.1.1.2-.1.3.2.1.1.3-.1.3-.2.1v.2h.5v.2l-.3.2-.2.1h-.2.4l.2.1.1.1v.1l-.1.3h.4l.4.1.4.2.2.3.1.1.6-.2.2.1.2.2.3.8.3.2.1.2v.3h-.1l-.5.3-.1.1-.4.1-.4.3-.2.3.2.2-.2.5-.4.2-1,.1.6.7.1.4-.2.5.2.4.3-.2.4-.1h.8l.4-.1.7-.4h.6l.2.1.1.2.1.2.3.2h0v.2l-.2.2v.1h0l-.3.4h.1l.1.2.1.2v.1l-.1.1-.7.2h.3l.2.1.1.2.1.3-.6.4-.4.1h-.4v.2l.2.1v.3l-.1.3-.1.2-.3.1-.6.1-.2.1.2.1.2.1.3.1h.2l-.1.2v.1h.5l.8-.3h.5l-.2.5.3.3.5.1h.4l1.3.4h.5l-.2.3-.3.2-.2.2-.1.4-.2.2-1.1.5-.3-.2-.2.4-.1.5-.2.4.3.1.1.2-.1.5.1.1.3.1.3.1h.2l.1.1.3.1v.2l-.3.2.2.1h.4l.2.1.1.1.1.1v.1l.4.1.2.2.2.2.2.2.3-.1.5.1.5.2.2.2.1.2.2-.1h0l.2-.1v.1h-.1l-.1.1.1.2.6-.5.3-.1v.2l-.3.4.3.2.5.2.3.3-.2.1-.1.1-.3.7.5.2.6.1.3.1.5.5.3.1.3-.2.1-.2.2-.4.2-.5.1-.4-.3.1-.3.3-.2.1v-.2l.2-.2.1-.2-.1-.2-.2-.1v-.2h.4l.5-.4.3-.1-.1-.2.2-.2.1-.2-.1-.2-.2-.1v-.2l.1-.2-.1-.2v-.2l.4-.1.2-.3.2-.3.2-.1.3-.1.3-.2.2-.3.1-.4-.2-.2-.4.1-.6.3-.3-.2.2-.2.2-.3v-.2h.6l.3.1.2.1v-.6h.4l.2-.1.1-.3v-.5h-.7l.1-.3.2-.2.2-.2.2-.1v-.1l.1-2-.2-1.8.2-1.9v-1l.1-.3.3-.3,1.4-2,.4-.7.2-.4.5-.5.2-.2v-.2l.1-.5v-.2l-.1-.6v-4.2ZM66.6,69.3h0v-.1h0l-.1-.1h0v.3h.1v-.1Zm167.5,168.3l-.3.1-.2.2-.1.3-.4.2-.1.2.1.3h.1l.2-.2.4-.1.3-.5.1-.2h.4v-.1l-.1-.1-.4-.1ZM57.1,133.6l-.8-.3-.4-.1-.3.1-.2.3.3.5h1.6l.4.2-.2-.4-.4-.3Zm3.1-6.9l-.2-.2-.7-.4-.2-.2v-.4l.1-.4-.1-.3-.4-.3-.3-.1-1.2.1.3.5.4,1.1.3.5.5-.3.5.4.4.7.3.7.4.2.1-.4v-.6l-.2-.6ZM1.8,81.4l-.1-.1-.4-.3-.5.1-.8.5v.2l.5-.1.2.1.1.3h-.2v.2l.4-.1,1-.5v-.2l-.2-.1h0Zm71.9,66.3l.2-.2v-.2l-.1-.1-.1-.1-.4-.1-1.1.3v.2l.2.2.8.9.3.1,1.1-.2,2,1.3.9.2h.1l.1.1.2-.1h.3l-.3-.5-.4-.5-.4-.3-2.1-.3-.3-.2v-.2h.3v-.2l-.5.1-.6.3h-.5l-.4-.6h.3l.4.1Zm155.2,90.8l-.2.2h-.3v.1l-.2.1h-.5l-.2.1v.2l.5.3.3.1.3-.1.3-.1.2-.3v-.4l-.2-.2h0ZM40.9,115.7l-.2-.1-.7-.7v-.1l-.5-.4-.9-.5h-.2l-.2-.2h-.2l-.1.2-.2.2.2.4.1.5.2.5v.5l.3.2,1.1.3,1.6.1.5-.2v-.5l-.2-.2h-.6Zm37.6,39.1l-.2-.3h-.3l-.2.1-.3-.1-.5-.5-.6-.5-.7-.4-.6-.1.4,1,.3.7v.3l-.1.3.3.5.4.5.4.3,1.2,1.4.3.4.1.4.3,1,.3.2.3-.5.3-.8.1-1.2v-.2l-.2-.3-.6-.4-.2-.2.1-.3v-.1l-.2-.2-.1-.3.1-.3-.1-.4Zm187.8-88.8l-3.2-1.7h-.4l-1.1.1-1.6-.5-.3.1-.5.3-.3.1h-.1l-.4-.2h-.5l-.3.1-.2.1-.3-.1-.1-.3-.2-.4-.2-.2-.4-.2-.9-.1-.4-.3-.3-.3-.4-.8-.3-.3v-.1l.1-.1.1-.1-.1-.5-.4-.1-.9-.1-.1-.3h-.4l-.4.1-.3.2-.1.2-.1.4-.1.2-.1.1h-.4l-.1.1-.2.2-.4.4-.1.1h-.1l-.5-.3h-1.8l-.3-.1-.3-.2-.9-.5h-.1l-.2.2v.2l.1.2-.1.1-.6.4-.4-.3-.3-.8v-1.1h-.4l-1.2-.7h-.3l-.5-.2-.8-.2h-.2l-.1.4.1.5.1.5-.3.5-.3.1-.8-.3h-.9l-.3-.1-.2-.4.1-.4.1-.4-.1-.5h-.1l-.3.3h-.1l-.1-.1-.1-.2v-.1l-.1-.1-.2-.6-.1-.1-.3-.1-.1-.1v-.5l-1.3-1.3-.3-.4-.2-.4.1-.3h.4l.1-.2-.1-.2-1-1-.2-.2h.1v-.2l-.1-.3-.1-.3-.4-.3-1.9-.9h-.2l-.2.1-.4.3h-.8l-.5-.3-1-.7-.5-.2-.6-.1-1.1.1.1.3-.5.1h-.1l-.1.2v.2l-.1.2-.2.1-.2.3-.3.1-1.7.1-.4.1-.3-.9-.4-.4-1.3-.3-.5-.2-.4-.3-.6-.8-.2-.1-.4-.3h-.3l-.2.1-.3.3-.2.1h0l-.4-.1-.4-.2-.5-.1-.5.3-.2.3v.2h0v.1h-.5l-.6-.3-.2.1h-.1l-.2.2-.3.2-.4.2-.1.1-.4-.1-.1-.2v-.4l.1-.3v-.3l-.1-.3-.9-1.8-.4-.3-.6-.2-.1-.1-.1-.1h-.1l-.1.1-.1.2-.1.2h-.2l-.3-.1-.1-.1v-.8h0l.1-.1h0l.1-.1-.2-.5-.4-.5-.4-.4h-.5l-.3.1-.6.2-.4-.1-.4-.3-.1-.1-.2-.2-.5-.7-.3-.5-.3-.2h-.2l-.5-.2-.4-.2-.7-.7-.3-.2h-.4l-.4.1-.4.2-.3.1h-.7l-.2-.2v-1.4h0l-.2-.3v-.4l.2-.2h0v-.2l.1-.3v-.9l-.3-.6h0l-.5-.2-.4-.2-.3-.4.1-.5.5-1.4.2-.5v-.9l.1-.2.3-.6h.1l.2.2h.1v-.5l.1-.7v-.9l-.2-.2-.6.1-.2-.1-.1-.4h0l-.5.3-2.2,2.2-.1.2v.8l.1.1-.1.3-.1.7-.2.5v.1l-.1.3-.1.1h-.1l-.8.1-.7.3-2.1,1-.6.1-2.6-.7-.5-.1-.6.1-1,.1-.2-.1h-.1l-1.1-.6h.2v-.7l-.1-.2h-.1l.1-.4.1-.2h0l.1-.2.2-.2.1-.1.4-.2.1-.1.3-.1.2-.1v-.2l-.1-.2-.1-.2v-.1l-.3-1.4-.2-.1h-.3l-.4.2-.2-.1-.1-.1v-.6l.2-.8.2-.5v-.6s.1-.2.1-.2h0l.2-.3.4-.4h0l.1-.2.1-.2v-.2l-.1-.2-.3-.2-.2-.1-.1-.1-.2-.1h0l-.2.1v.4h-.1l-.1.1-.3-.1-.1-.1-.4-.9-.1-.3-.4-.4-.3-.2-.2-.1-.6-.7h0l-.3-.2h-.4l-.8.4-.4.2h-.5l-.3-.1-.2-.1-.1-.1-.4-.2-.8-.1-.9.1h-.1l-.2.1-.1.2-.4.6v.3h0l-.1.1h-.1v.2l-.7-.7-.2-1.3v-1.5l-.1-1.2-.3-.6-.4-.4-.4-.2-.4-.1h-1.3l-.2-.2.2-.3h0v-.3l-.2-.2h-.1l-.2-.1h-.3l-.2.1h0v.1l-.2.1h-.1l-.2.2-.7.3-.2.1h-.5l-.4-.1-.9-.5-.2-.2-.3-.4h0l-.1-.4v-1l-.5-1.8-.2-.9.2-.3.1-.3-.1-.3-.2-.5-.1-.3h0l-.2-.1h-.3l-.1-.2-.3-.6-.2-.4-.1-.2-.3-.5-.3-.3-.9.2h-.1l-1,.3-.6.2-.2.1-.9.3-.2.2-.2.1-.2.2-.2.2-.2.4-.4.6-.3.2h-.4l-1.4-.6-.2-.1-.1-.1-.3-.2v-.1l-.1-.1-.3-.6-.1-.2v-.1l-.7-.6-.1-.2h0l-.1-.2-.1-.2-.3-.1h-.6l-.3-.1h-.1l-.3-.5v-.2l-.1-.2-.1-.1h0l-.2-.1v-.3l.1-.4v-.2l-.2-.7-.2-.7.1-.3.2-.2.3-.3.1-.1v-.7l-.3-.5-.7-.8-.2-.6v-.2l-.2-1.2v-.1l-.4-.6-.3.2-.9.4-1.6.4-1.2-.2h-.2l-.2.2-3.4,1.1-3.2.4-.8.5-.3-.1-3.9,1.7-.6.6-.6.8-.3.3-.4.1h-.4l-.2.1-.5.5v.2l.1.4.3,1.2.1.7-.1.6-.3.5-.4,1.3-.1.6v.7l.2,1.3.1,1.5.1.4.5.8-.6.5-.1,1.3v1.5l-.4,1.1v.2l1.1.9v.2l-.8-.2-.4.8-.2,1.2v1l.2.3.8.4.2.4.1.4.3.2.4.1h.4v.2h-.4l.1.2.1.1h.4v.2l-.2.2h-.2l-2-1-.7.1-.7.9-.4,1.7-.2.3-.2.2-1.1,1.3-2.6,2.1-.6,1-.5.2-.5.4-8.3,2.7h-1.7l-1.6.6-.8.5-.7.2-2.5,1.5-.2.3-2.6,1.2-.2.2h-.2l-1,.8-.3.4-.8,2.7-1,1.9-.1.2v.6l.3.2.1.2.2.3.4.2.5.1h.8l1.5.5,1.7.2,1.7-.2,1.4-.9-.3.5-.4.3-.9.5-5,1.1-1.3,1-.5.8-.2.1-.4.1-.6.5-.9.4-3.2.8-.9.6-1.9-1.1-1-.2-.6-.4-.3-.2h-1.4l-.9-.4-.5-.1-.7.4h-.5l-.9-.3-3.4-.2-2.4-.9-2.6-.1-.3.2-.3.4-.3.3.2.3v.2l-.4.1-.2-.1-.2-.2-.2-.2h-.3l-.2.1h-.2l-.1-.3.1-.1.1-.2.1-.2v-.3l-.1-.7-.2-.5-1.4-1.8-.3-.9-.4-.5-.3-.6.1-.7.2-.2.2-.1h.4v-.4l.1-.3.5-.4-.1-.5-.4-.9v-.6s-.1-.2-.1-.2l-.1-.1-2.5-.5h-.3l-.9.3-.3.2-.5.7-.3.3-.3.2h-.3l-.4-.1h-.2l-.3.1-.2.3h-.3l-.1-.1v-.4h-.3l-1.6-.4-1.3-.2-.5-.2h-.5v-.1l-.1-.4-.1-.1-.2-.1-.6.1-.2-.1-.3-.3-.2-.1-.6.1-.1.2v.5l-.2.7.9.4.7.1.1.2.2.3.1.3.2.4v.5l-.1,1v.4l-.6.5-.2.5.2.2.5.6.2.3.1.2v.4l.3.5v.8l-.1,1v.4l.2.2h.3l.3-.1.3-.1v.4l.4.2.5.5.3.2.2-.5h.1l.2.6v.2h-.4l.1.5.2.3.6.5h-.2l-.1.1.3.4.3,1.1.3.4.2-.6h.4l.5.3.4.1v.2l-.7-.2h-.4l-.2.3v.6l.1.6.1.6.2.5.1-.1h.1l.3.2-.4.3-.1.2-.1.4v.5s0,.3,0,.3l.1.2h.3l-.1.3-.1.3v.7l.1.3.1.3.2.2v-.1l.2-.5.4-.2h.5l.3.2v.2l-.5-.2-.2.1-.2.5-.2,1.8.1.2.3.1.1.2v.3l-.1.4-.3-.4-.2.3-.1,1.5-.1.4-.2.3-.3.1v.2l.5.1.2.5.1.7v.8l.2.7.7.7.2.7.2.2.2.2.7.2.1.1v.2l.1.2v.1h.1l.1-.1v-.1l.8.1.4.2.3.5-.7-.3-2.2.5-1.6-.2-.3.1-1,.5-1.6.3h-1.5l-.9-.2-.5-.5v-.7l.5-.8-.1-.2-.1-.2v-.1l.1-.1-2.1.4.1.2h-.8l-.2.1v.5h-.1s-.2.2-.2.2l-.2.3-.1.2.2.4.4.9.2.2h.2l.3.1.1.2.2.4-.2-.2v-.1l-.1-.1h-.1l.1.5.3.5-.1.2.6.4-.9.4-.2.2.1-.7-.2-.4-.4-.8v-.1l.1-.3-.3-.1-.2-.2-.1-.3-.1-.3-.4-.8v-.1l-.9.1-.9.3.2.4.1.2.2.2-.3-.3h-.3l-.2.2-.2.3.2.2h0v.2l-.3.2-.2-.2-.1-.4v-.4.4l-.1.3-.2.2-.2.1v-.6l-.2-.3-.2-.1v-.2l-.1-.7-.2-.2-.5.2-.4.4-.4.3-.4-.3.6-.6.1-.2.1-.2.1-.2.1-.1v-.2h-.3l-.2-.1-.1-.2v-.4l-.3.6-.5.5-.7.5-.5.2-.2-.4-.4-.1-.9.3.4.2h.2v.2l-.3.3-1.4.9-.4.1-.2.2-.2.2-.4.7-.4.4-.3.1h-.8l-.1.2v.8l-.3-.2-.2-.2-.2-.2-.2-.1h-.2l.1-.1.1-.2.1-.2v-.3l-1.1-.6-.5-.4-.3-.1-.1-.1v-.4l.1-.1-.1-.2v-.2l-.3-.9-1.3-1.1v-.3l-.3-.4-.4-.3-.3-.2v-.2h.1l.2-.2v-.7l-.4-.1h-1l-.5-.3v-.2h-.3v-.2l.3-.3.1-.1.2-.1v-.2h0l.1-.2-.2-.2-.2-.1h-.2l-.2.4-.3-.1-.4.6-.6,1.4h-.2v-.2l.4-.6.1-.2.3-.8.2-.3-.3-.2v-.2l.2-.3v-.3l-.2-.3-.3-.2-.3.1-.3.5-.3-.2-.1.2-.5.4-.6.7-.2.3v.4l-.2-.2v-.2l.3-.3.2-.5v-.6l-.2-.4-.3-.1-.7.8h-.3l-.2.2-1.7.6-.1.1-.2.3h-.9v-.3l.1-.1.1-.1h-.3l-.7-.4h-.6l-.2-.2h-.1l-.1.3-.5.8-.6.3-.2.3.1.5.7.9.3.2-1.1.2v.7l.2.7h-.2s-.6,0-.6,0l-.5-.2v-.5l-.7.2h-.2l-.2-.1-.5-.4-.2-.1-1,.1-.4-.1-.3-.4v.5l-.1.1-.2-.2-.1.3-.2.7.1.5-.2-.2v-.1l-.1-.1h-.1l.1.6.1.3.1.1-.1.2.1.2-.1.2-.3-.3-.6-.4-.2-.3v-.2h.1l.2-.2-.4-.1-.3.2-.6.6.1-.4v-.3l-.2-.2-.2-.1v-.2h.2v-.2l-.2-.1-.1-.1.1-.2v-.3l-.1-.1-.7.2-.5.1-.2.1h-.3l.1.3v.2l-.1.2-.2.2h-.1l-.1-.2-.1-.1h-.1l-.1.1-.3-.2h-.4l-.5.1-.4.2-.4.1-.3.4-.1.3.4.1v.2h-.3l-.4-.2h-.3l-.2.1-.6.4-.4.1.2-.7-.4-.4h-.5l-.5.2-.5.3-.6.1v.1h.1l.2.2h-.4l-.7.3-.4.1h-1.6v.2l.1.1.1.1-.1.1v.1l.5.2h-.3l-.9-.2-.3.2.1.4.5.6-.4.2-.7-.4-.4-.1-.6.1-.3.1-.4.2.2.2-.2-.1-.2-.1-.5.5-.5,1-.2.9.5.4v.2l-.3.1-.3.4-.1.5v.6l.4.8v.4h-.4l.2.7.2.3.3.1h1l.2-.1v-.5l.4.1.7.3.4.1h.4l.6-.3,1-.2,1.3-.8.6-.3,1.4-.2.4-.2.6-.4.3-.1-1.9,1.1-.3.1-1.1,1.4v.2h.3l.3-.1.2-.1.1-.2.2.2v.1h0l-.1.1.5-.1.6-.4.3.1v-.1l.2-.2v-.1h.1v.2h-.1v.2l.3-.1.5-.3h.4l-.5.4-.2.1-.1.1v.1l-.2.1-.1.1-.1.3.9-.1h.1l.1.3.3.1.3-.1.2-.2.1.4.2.1h.6v.2l-1.7.3-.4-.2h.3l.2-.1.1-.1-1.4.1-.9.3h-.6l-.2-.1-.1-.1-.2-.1-1.8.1-.5-.3.2-1.1-.3-.2-.3.2-.3.9.1.1v.4l-.3.2h-.2l-.2-.1h-.2l-.2.1.1.3-.1.3h1.2l.2.1.1.3v.1l-.2.1-.1.4v.2l.1.3.3.3-.1.2-.2.6.5-.2.3-.6.3-.7.3-.5.5-.2,1.1.7.5-.2v.4l.1.1.2.1.9.2.3.3.1.7.1.2.2.4.1.3-.2.9.2.3-.3.1-1.1-.3-6.5,1.4h-.1l-.2-.2h-.1l-.1.1v.2l-.1.3v.2l-.1.2-.2.1,1.5.4h.7l.3.1.6.6.3-.1.3-.3.2-.2.2.1,1.8,1.4.9,1.2.4.5.2.8.3.8v.7h-.4l-.1.1-.1.2.1.4v.2l2.9.1.5-.1.3-.2.7-.6v-.2h-.5v-.4l-.3-.2v-.4l.3-.1.4.7.2-.2.2-.1.2-.1h.2v-.2l-.2-.2-.3-.4v-.5s.2-.4.2-.4l.1.5.2.5.3.3.2.1h.3l.3.1.6.5.1-.3.1-.1h.2l.3-.1-.1.3-.1.1h-.3l.4.1.4-.5.2-.5-.4-.3.5.1.5.4.4.4v.3l.3.2.1.1h.2l-.1.3v.2l.2.1.1.2.4.7v.1h.3l.4-.1h.4l.3.3,1.1-.6.1.1.2.4.4.1h.7l.1.1.3.3.2.1h.6l.7.2h.3l.3-.2v.2l.1.1.3.3.3.6.6.8.1.2.3.1,1.6-.4v-.2l-.1-.2-.1-.1-.1-.1.4-.1.6-.4.5-.5.4-.5v.2l-.3.2-.2.4-.3.7h-.4v.6l-.1.1h-.2v.2l.8.1.3.1.4.2v.2l-.8-.3h-.4l-.3.1h.5l.9.2.5.1.6.7.1.1.2-.1v-.3l.1-.3.3-.1-.2-.3v-.1l.3-.1.2-.2.1-.1.2.2v-.2h.2l-.1-.4-.2-.3-.1-.2-.3-.1.3-.1.3.1.2.1.1-.3h.2v.8l.1-.1.2-.1.1-.1v.9l-1.5.7-.3.8-.1.4.1.2.2.1.2.1.2.1.3.3.2.4.1.5v1.1l-.2.5v.6l.3.9h.1l.1-.1.4.1h.3l-.4-.5-.3-.7-.1-.9.2-1-.1-.1-.1-.1h-.1l.2-.3h.2l.2.2.2.2-.2.1-.1.1.3.2h.3l.6-.3.2.1h.4l-.2-.4.1-.3h.1l.1.5.1.4.2.1.1-.2-.1-.4.3.2.2.3.1.2.2-.1.2.3v.1l.1-.1v-.3l-.2-.2-.2-.3-.2-.3v-1.2l-.1-.4v-.2h.2v.4l.2.3.2.2h.3l-.2.1v.5l.1.4h.2l.1-.1h.4v.2h-.2v.2l.7-.2.4-.2.2-.4.2-.2,1-.1.4-.2-.3-.2.6.1.2.2.3.3-.5-.1-.4-.1,1,.6.1.2h.3l.1-.1.1-.1-.3-.2.2-.1.2-.1v-.2l-.2-.2v-.2l.4.6-.1.6-.8,1.1.1.2-.4.3h-.6l-.5-.2-.3-.4-.2.4v.2l-.2-.2h-.1l-.1.1-.1.2h.5l-.3-.6h-.6l-.3.2.3.1v.1h-.1.3l.2.1.1.2h0l.3.6v.1l.3.3.3.1h.7l1-.4h.4l.7.2.3-.2v-.7l.2.1.3.1h.5v-.2l-.1-.1-.1-.1h-.2l.3-.1h.6l.3-.3-.1.4-.3.3-.3.2-.3.1.2.2h.2l.1-.1.1-.3h.7l.6-.2h.6l1.6.6h.3l.5-.1.4.1h-.4l-.7.2-1.3.1-.2.2.3.4-.1.6.2.2h.4l.4.2-.2.4.3.1h.5l.4.1-.1.2-.7.4-.2.2-.1-.2.1-.1v-.2l-.4-.1-.2-.1h-.2l-1.6,1,.8.5.2.5v.9h.1l.2-.3v-.1l-.1-.2.1-.1h0l.1-.1.3.4.4.4.2.4-.4.4-.4.1-.9-.4-.4-.1v.2l1.9,1h.6v-.3l.1-.2.1-.1h.7l.3.2.5.6.3.3.3.1h.4l.4-.2.5-.5.6-.2.2-.2.1-.2.1-.2.2-.2.6-.4,2.8-.2.7.2.3.3.2.1h.4l.4.1.7.4.7.6.6.7.3.3.8.2.4.3h-1.1l-.4-.2-.5-.5-.2-.1-.8-.2-.8-.6v-.2h.4l-.2-.2-.2-.1-.2-.1h-.2l.1.2h-.3l-1-.3-.2-.1-.1-.2h-.2l-.2.1-.1.1-1.9.2-.5.2-.1.3-.1.4v1.1l.2.5v.8l-.1.2-.1.1-.7.1-.2.2-.3.2-.2.2.7.4,2.4.4,1.2.7.3.3.2.3.3.5v.5l-.4.3-.2.5-.4,1.1-.2.4-.8.5-.3.3.1.4-.5.4-.1.3-.1.6v.5l.1.6.1.5.2.2.5.2.6.4,1.1,1.2.6,1.2.2.2h.4l.3.1.2.2.2.7.2.3.3.3.3.3.1.4.1.4.2.3.3.1-.1.5.8,2.4.2.3.2.1.1-.1v-.3l-.1-.5v-.4l.2.3.2.6.1.2.3.2.6.2.7.6,1.1.2.3.3-.1.4.5.2,1.4.1.5.1.4.3.3.5.1.7.3.6h.5l1.1-.3.3.1.4.4.6.4h.2l.3.1.4.6.4.5.5.2v-.9l.8-.4.9.1.4.6v.4l.1.3v.2l-.2.4-1.4.9-.3.4.1.6-.2.1-.2.2-.1.3v.2l.2.2h.4l.3.1h.4l.1.1-.1.1v.1l.1.1h.1l.4.4-.2.2v.1l.2.1.1.1h.1l.3.1h.1v.4l.1.4v.3l.1.2.4.1.1.1.1.1v.3l-.2.5-.3.2h-.3l-.4-.3.3.9.2.4.3.2-.1.1-.2.2-.1.1.1.2.2.3.1.3.1.3-.1.3-.1.1h-.3l-.4.2-.2.2-.1.1-.1.2-.2.2-.2.1.2.3.1.4.1.4v.3l.1.3.5.6,1.8,1.5.4.5-1.4-.7-.3-.2-.2-.1-1.3-1.5h-.4l-1.3.4v.4l-.3,2,.3.2.7-.2.4.3.2.3.3.3.3.2.4.1.6.2,1.1,1.1.7.2.1.1.1.5v.1l2.9,2.1.9,1.1.4.7.4.8.7,1.8.3,1.1.8,5.5.3.9.4.7.7.6.9.3.8.4.5.9-.4-.4-.5-.2-.5-.1h-.6l.4.3.5.5.2.6-.2.8.2.4v.8l.1.4-.3-.2-.2-.5-.1-.6v-1.3l-.1-.4-.2-.2-.6-.4-.8-.8-.7-.9-.7-1.7-.1-.3-.4-2.6-.2-1.1-.1-.6-.1-.8-.6-.8-2.4-2.7-.3-.1-.8-.5-1.4-1-.2-.2-.2-.3-.1-.2v-.2l.1-.1v-.7l-.2-.1-.3.1-.2.4-.7,1.4-.1.4-.3,6-.9,4.5-1.2,14,.1-.3.2-.7.2-1.2.9-1.4.2-.3h0v-.2l.1-.1h.1l.1.1.1.1.1.1.2.1,1.5,1.4.2.4h-.3l.5.5v.4l-.4.3-.7.1-1.2-.3h-.5l-.4.5-.4,1.3v.5l-.5.8v.2l.2.8v.4l-.2,1.8-.5,3.9-1.3,7.9-.7,3.6-.5,1.6-.8,4.6-.5,1.6-.1.9-.3,1-.2.3-1,.8-.2.2-.1.3-.4.9-.1.2-.4.3-.4.2-.5.2-1.8.3-.4.2-.1.2-.3-.2-.1.8v.9l.6.3.2.3.1.5.1.2h.2l.3-.1.4-.1.4-.2h.2l.4.2.2.1v.5l.1.5.1.1.3.1h.5l.2-.1.2-.2.1-.5.3-.2h.4l.6.2.8.4h.2l.2-.1h.2l.6.6.1,1-.3,1.1-.3.9-.3.3-.8.9-.2.2.3.6.3.4.4.3.5.1h.6l.3-.1.1-.4v-.7l.2-.5.3-.4.3-.1.5.1-.4.4-.2.4v.4l.4.4.4.2,1.2.2.7.4.7.5.7-.1.2.1.3.2.2.1.7.1.4.1.2.3.7.5.8.3,1.6.1,1.6-.3.5.2.4,1v.2l-.1.1v.1l.1.3.2.2h.6l.7.4.3.3.8,1.1v.3l.1.1h.4l.1.2v.3l.2.1h.1l.3-.2.1-.1.1-.7h.5l1.1.5.6-.1.5-.3,1-.8.2.2.2-.1.1-.2.1-.3.3.3,1.2.7.3.5.5.1.6-.2.3-.2v.5l.1.5.2.4.3.3.1.2v.4l.2.1.2.1.2.1.1.1.1.1.8.3.7-.1,1.6-.6,1.2-.2.4-.3h.3l1,.3.4.2.4.8.3.4h.3l.6-.8.4-.4.4-.1.5.5v.3l.1.1.4.1h.4l.8-.2.4.1,2.5-.1.7.1.3-.1.2-.3v-.4l-.1-.4-.3-.3-.2-.1.1-.3.1-.1.2-.1-.2-.3.3-.8v-.6l.1-.4.5-.2h.8l.7.3.3.1h.4l.4.1.8.5.6.2.2.1.4.3.2.1.2-.1.2-.2.2-.1.2.1.3.3.2.1,1.7.1.4.1.4.3.2.4.2.4.2.4.3.3h.2l.7-.2h2.5l.5.1-.1.4.1.1h.2l.1.1.4.6.4.5.3.9.3.4.4-.2.3-1.1h.6l.6-.2h.3l1.1.8.2.1,2.3.2-.2.6.3.2.5.1.2.4-.5.1-.3.4-.3.6v.7h0v.3l.3.2,1.3.2.4.2,1.2.8.4.1h.4l.3.1.3.5.2,1,.2.4.4.4.3.2h.3l.5-.1.3-.1.2-.2.3-.4.5-.4.1-.2.1-.4.1-.1.3-.2.9.1,1.2-.4.6-.1.6.3.3.2,1.2.6.6.1h.3l.1.4.4.4.4.3.3.1.4.2.3.1h.2l.2-.1.2-.4.1-.1h.4l.9.3.4.1h.5s-.3-.3-.3-.3l-.1-.5.1-.2.8-.7.4-.2h.4l.8.1.4-.1.3-.2.6-.6.3-.2h1l.6-.5.7.3.3-.2h1l.1.3.1.3.2.2.3.2.4.1.5.1h.5l1.4-.2v-.8l-.6-.9-1.4-1.4-.2-.5-.2-2.1v-.5l-.1-.1h-.4l-.1-.2-.1-.2v-.2l.2-.3.3.4.1.1v-.2l.3-1.4v-1l-.1-.5-.1-.2-.3-.1-.5-.2h-.4l-.2-.1-.1-.2-.2-.4-.1-.2.8-.8.2-.1.1-.1v-.6l.1-.1h.2l.2.1h.1l.3-.3-.1-.3-.5-.5-.2-.4v-.4l.1-.3.4-.1-.3.5-.1.2.1.2.3.1.1-.2.1-.3.2-.1.1-.2v-.4l.1-.7v-.3l.4-.4.1-.3-.1-.3-.3-.2-.4-.4-.1-.8.1-.2.3-.1h.5l.1.1-.2.2-.3.3v.2l.2.2.2.2.1.1h.2l.5-.9.1-.3.3-.3.5-.4.1-.3.2-.5.2-.3.3-.4,2.8-2.1.7-.4.5-.1.8.4.4-.2,1.7-2,.7-.6,2.2-1.2,4-3.3v-.2l-.7.2-.6.5-1.1,1.2-1,.9-.6.4-.7.1v-.2l1.7-.7.3-.3v-.4l.1-.3,1.3-1.1.5-.3,1.2-.4.9-.7.6-.2,1.1-.2-.2.4-.2.3-.4.2-.4.1-1,.1-.4.1-.2.3.7-.3,1.2-.1,1.1.1.5.4.1.1.4,1.5.1.2.1.2.4.2.5.1,6.2.2.9.2.5.4v.5l-.2.6-.2.5-.1.2.5.3.8.2,2.9.1.7-.3-.5-.5-.6-.4-.5-.6-.3-.9v-2l-.1-.3-.6-1v-.2l.3.2.3.4.2.5.1.4v2.1l.3.7.7.6.8.5.8.2-.2-.5-.2-.2-.1-.1.1-.4.2-.2.5-.1.2-.2.5-.2,1.1.6.4-.1.5.1.4-.3.3-.6-.3-.7-.3-.3-.2-.1-.2-.2-.1-.5v-.2l.1-.4.1-.4.1-.2.2.1.3.4v.1h.7l.4.1.1.1v.2l.2.4.4.5.5.1.6-.2.6-.4v.7l-.2.6.7.6-.4.3-.6.2h-1.8l-.6.4-.3.6.1.6.5.6.5.1h1.3l.3-.1.9.1,2.7-.6.5.4v1.4l.1.2.2.2.1.1h.1v.4l-.2.5-.1.3v.3l.1.3.2.1h.6l.3.1.3-.1h.5l.5.1.3.2.1.1.3-.1.3-.1.3-.3.2.1.5.7.1.2.3.1.1.1.1.1h.1l.1-.1v-.2l.1-.1h1l.4.2-.1.5.8.4.4.1h.5l.2.1v.4l.2.1h.4l.1.1.1.1-.6.3-.2.3.1.4.2.1,1,.4h.5l.2-.1v-.4l.1-.2h.3l.6.1v-.2l-.4-.1-.4-.5-.3-.1.6-.3.3-.1h.3l-.1.1v.5l.5-.2h.6l.6.1.4.3.1.1,1.5.1.2.1v.3l-.1.5-.1.1h-.7v.2l.4.1h1.3l.3-.1v-.2h-.4l-.2-.1.2-.6v-.5l.2-.4.4-.3h1.9l.3.1h.3l.2.1.1.3.1.3.1.1h.7l.2-.1-.3-.4.1-.2v-.4l.2-.3.2-.1h.6l.4-.2.4-.2h.2l.5.1h.3l.3-.2.3-.3.4-.2.5.1.2.2.1.2.1.2.1.1h.2l.4-.2h.2l-.1-.4.8-.7.1-.2-.1-.1-.1-.1-.1-.1v-.5l.1-.1.1-.1.1-.1.2-.5-.1-.1-1.9.1h-.2l.1-.2.3-.3.5-.3.4-.1.2-.2.1-.3.2-.4.3-.3.4-.1.2-.2.2-.8.1-.5.2-.5.3-.3.4.3.5.1,1-.1v-.1l.1-.2.1-.1.1.2.1.1h.4l.1-.1.1-.4v-.1h.3l.7-1.3v-.1h.1v-.4h-.1l.3-.4.3-.3.3-.2.3-.3.5.2.5-.1.5-.3.5-.1.1.1v.2l.1.1h.2l.1-.1v-1.8l.1-.2.2-.1.2-.3.2-.3.4-.1h.3l.2-.1.2-.1.2-.2.4-.6.3-.2.3.1h.2l1-.1-.1.3-.1.1h.4v-.3l.1-.3.2-.3.4-.1.1-.4.3-.3.4-.2.4.3.2-.2.2-.1h.5l.2-.1v-.6h.3l.3-.2-.4-1.3-.1-.7.3-.6.9-1,.4-.6,1.1-.9.4-.5.2-.3.2-.6.1-.3.3-.2.3-.2.2-.3.1-.5-.3-.7-.5-.4-.2-.5.3-.9-.6-.1-.8.5-.5.1-3.5,1h-1l-.1-.2-.2-.2-.1-.2-.3-.1-.5-.1-.3-.2-2.2-1.3-.8-.3-1.2-.6-.3-.1h-.3l-.2.1h-.2l-.3-.1-.2-.2-.1-.3v-.3l-.2-.3-.1-.2-.4-.3-.2-.2-.1-.2-.2-.6-.2-.3-.4-.5-.1-.1-.1-.3v-.3l.2-.9.1-.2.6-.4-.5-.4-.6-.6-.4-.8-.1-.9.2-.4,1-.8.7-1.2.3-.2-.3-.6.2-.6.4-.5.4-.3h.4l.7.2h.4l-.1-.4-.6-1.2-.1-.2-.1-.7-.2-.6h0l.1-.4h0v-.5l-.1-.1-.4-.4-1-.4h-.4l-1,.2-.4-.1-1.4-.8-.7-.6-.3-.6.1-1.6-.2-.8-.5-.4-.7-.1-.2-.2-.3-.4-.1-.3v-.4l-.3-.3-.3-.5.2-.3.4-.3.7-.4h.7l.1-.1.4-.3.1-.1.7.1.7.4.7.3.6-.3.1-.2-.1-.1-.1-.2.1-.2.1-.1h.7l.3-.3.3-.6.2-.2.7-.3.7-.2.2.1.3.3h.1l.1-.1.4-.7.5-.5v-.4l-.2-.6-.1-.8.1-.2.7-.8.4-.8.2-.4v-.4l-.1-.1-.8-.4-.3-.2-.2-.3-.2-.4-.2-.3-.9-.7-.9-.5-.1-.4-.1-1.2-.1-.2-.2-.3-.1-.2.1-.2.2-.5.1-.2-.2-.4-.2-.2-.6-.2-.3-.2-.4-.5-.3-.1-.5-.1-.5-.4-.4-.6-.2-1.2v-1l.1-.5.3-.4.3-.2.6-.1v-.1l.1-.1.1-.1.1-.1h.1l.2.1h.7l.4-.1.4-.2.4-.3.2-.5.2-.4.2-.3.2-.3.3-.1-.2-.2-.1-.3-.1-.5-.2-.6-.1-.3-.1-.1-1.4-1.5-.4-.2-1.3-.8-.1.1-.2.1h-.1l-.2-.1v-.4h0v-.6h-.1l.1-.2.1-.2.1-.2v-.2l-.3-.3-1.6-.4-.2-.5.2-1,.3-1,.7-1.4-.4-.8-.7-.8-.4-.7.2-.3.5-.6.1-.5v-.6l-.2-.3-.3-.2-3-.8h-1.3l-1.3.3-1.7,1.2-.6.2h-.7l-.6.2-.7.6-.5.8-.4.6-.1.4.1.3.2.5v.1l.2.5.1.1.2.1.3-.2.1.1.1.7-.5.6-1.4.8-1,1.2-.6.3-.7-.3h-.9l-.9.2-.5.3.2-.6.2-.3.1-.2-.4-.4-.2-.4.1-.3.5-.3,1.2-.6h.5l.5-.1v-.8l.2-.8.1-.2.7-1.5-.1-.3-.3-.4-.3-.3-1.1-.7.2-.2v-.7l-.1-.1v-.2l.1-.2.2-.3.7-1.2.7-.9-.5-.5-.1-.4.3-.4,2.7-2.5,1.5-.8.2-.2.5-.6.6-.3.2-.2.2-.3.1-.2v-.5l-.2-.2-.2-.1v-.3l.3-1,.1-.3.2-.3v-.4l-.1-.3-.3-.5v-.3l.3-1,1-.6,2.2-.7,1.4-1,.4-.7-.2-.5.3-.5.1-.2.5-.2v-.2h.1l.3-.2-.1-.5.6-.2,1.3-1.2.3-.6.6-.6,1.4-1-.1-.7.1-.6.4-.4h.3l.3-.4.2-.1.2-.1.2-.1.2-.3.1-.5-.3-.3-.3-.2-.4.2-2.4.2.1-.4.3-.5.3-.4.5-.3.1-.6.5-.1.3-.2.3-.3.2-.2-.1-.4-.2-.4-.1-.3.4-.1.2-.1h.3l.2.1.5.1,1-.2.5.1.2.1h.9l-.4.8.2.5.4.3.6.2.1.1.1.1.1.1.2.1h.2l.8-.3.5-.1,1.4.1.6-.2.4-.5v-.5l-.1-.1-.1-.1-.1-.2v-.2l.3-.1.3.1.2.2h.3l.3-.3h.1v-.2l-.2-.2v-.2l.1-.1h.4v-.5h0l-.4-.3h-.1l.9-.7.5-.3.7-.3h-.1.1l.1-.3.1-.1-.1-.3-.1-.2-.2-.1-.1-.2-.4-.9-.3-.4-.3-.1-.1-.1v-.3l-.1-.6.1-.2.3-.4.2-.2v-.5l-.2-1v-.4l.3-1,.1-.1.3-.2v-.3l-.1-.6v-.4l.1-.1.1-.1.1-.1.1-.3v-.6l.1-.4.5-.6.2-.4v-.9l-.9-1.5-.1-1.2.1-.6.1-.5.2-.3.1-.2.1-.2.1-.4.2-.4,1.3-1.8.2-.4.2-.5.1-.6.1-.6.4-.3.4-.2.3-.4v-.4l-.1-.4-.1-.4-.1-.4v-.4l.2-.8.1-.3.1-.3.2-.2.1-.3.1-.6.1-.3.3-.2.5-.4v-.2l-.3-.6v-1.1l.2-1,.8-1.3.3-.2.3-.1.3-.3.5-.7.2-.1.3-.3.2-.3.1-.2v-.7l.2-.3.2-.1h.7l.1-.1v-.5l.1-.2.1-.1v-.1h.2l.8-.4.1-.1.2-.4.9-2.5.6-1.2.4-.5-.2-.2-2.3-.3Zm-122.7,188.3h-.3l-.4-.1-.2-.2-.1-.3.2-.5.3-.1.2.3.2.5.1.4h0Z"/>
  </g>
  <g id="Calque_2" data-name="Calque 2">
    <circle class="cls-1" cx="153.2" cy="75.5" r="4.1"/>
    <circle class="cls-1" cx="25.4" cy="82.3" r="4.1"/>
    <circle class="cls-1" cx="186.5" cy="62.8" r="4.1"/>
    <circle class="cls-1" cx="164.8" cy="15.3" r="4.1"/>
    <circle class="cls-1" cx="257" cy="78.2" r="4.1"/>
    <circle class="cls-1" cx="202.4" cy="120.7" r="4.1"/>
    <circle class="cls-1" cx="218.6" cy="175" r="4.1"/>
    <circle class="cls-1" cx="214.5" cy="230" r="4.1"/>
    <circle class="cls-1" cx="253.7" cy="214" r="4.1" transform="translate(1.83 430.15) rotate(-80.78)"/>
    <circle class="cls-1" cx="133.7" cy="221.8" r="4.1"/>
    <g>
      <path class="cls-3" d="m10.7,54.3h1.3v9.2h-1.3v-9.2Zm.7,8.1h2.5c.7,0,1.1-.1,1.4-.4s.5-.6.5-1.1h0c0-.3-.1-.6-.2-.8-.1-.2-.3-.4-.5-.5s-.5-.2-.9-.2h-2.8v-1.2h2.8c.5,0,.8-.1,1.1-.3.2-.2.4-.6.4-1,0-.5-.1-.8-.4-1s-.7-.3-1.2-.3h-2.6v-1.2h2.9c.6,0,1.1.1,1.5.3s.7.5.9.9.3.8.3,1.3c0,.3-.1.6-.2.9-.1.3-.3.5-.6.7-.3.2-.6.3-.9.4.4.1.7.2,1,.4s.5.5.6.8.2.7.2,1h0c0,.5-.1.9-.3,1.3s-.5.7-.9.9-.9.3-1.4.3h-3v-1.2h-.2Z"/>
      <path class="cls-3" d="m18.9,57h1.3v6.6h-1.3v-6.6Zm3.2,1.2c-.2-.1-.4-.1-.6-.1-.4,0-.7.1-1,.3-.2.2-.3.5-.3.9l-.1-1.3c.2-.4.5-.7.8-.9s.7-.3,1.1-.3c.3,0,.6,0,.8.1.2.1.5.2.6.4l-.8,1.1c-.1,0-.3-.1-.5-.2Z"/>
      <path class="cls-3" d="m25.5,63.3c-.4-.2-.8-.6-1-1s-.3-1-.3-1.6v-.7c0-.7.1-1.2.3-1.7.2-.5.5-.8.9-1.1s.9-.4,1.5-.4,1,.1,1.4.4.7.7.9,1.2c.2.5.3,1.1.3,1.9v.4h-4.4v-1h3.2c0-.5-.2-1-.4-1.3-.2-.3-.6-.4-1-.4-.5,0-.9.2-1.1.5-.3.3-.4.8-.4,1.4v.8c0,.5.1,1,.4,1.3s.7.4,1.2.4c.3,0,.5-.1.8-.2s.5-.3.7-.4l.9.9c-.3.3-.7.6-1.1.7-.4.2-.8.3-1.2.3-.6-.1-1.2-.2-1.6-.4Z"/>
      <path class="cls-3" d="m32.6,63.5c-.3-.1-.7-.2-1-.3s-.6-.3-.8-.6l.8-.9c.4.3.7.5,1.1.6s.7.2,1,.2c.5,0,.9-.1,1.2-.2.3-.2.4-.4.4-.7,0-.2-.1-.4-.2-.5s-.3-.2-.5-.2-.5-.1-.9-.1h-.4c-.4,0-.8-.1-1.1-.2-.3-.1-.5-.3-.7-.5s-.3-.6-.3-1.1.1-.9.3-1.2.5-.5.9-.7.8-.2,1.4-.2c.3,0,.7,0,1,.1s.6.2.9.3c.3.1.6.3.8.5l-.8.9c-.3-.2-.7-.4-1-.5-.4-.1-.7-.2-1-.2-.4,0-.8.1-1,.2-.2.1-.3.4-.3.7,0,.2.1.3.2.4s.3.1.5.2.5.1.8.1h.2c.5,0,.9.1,1.2.2.3.1.6.3.8.6s.3.7.3,1.2-.1.9-.3,1.2-.5.5-.9.7-.9.2-1.5.2c-.4-.1-.8-.1-1.1-.2Z"/>
      <path class="cls-3" d="m37.6,57h3v1.2h-3v-1.2Zm1,6.1c-.2-.3-.4-.7-.4-1.3v-6.8h1.3v6.8c0,.2,0,.3.1.4.1.1.2.1.3.1h.6v1.2h-.7c-.5.1-.9-.1-1.2-.4Z"/>
      <path class="cls-3" d="m22.9,74.4l3.2-4.3c.2-.2.3-.5.4-.8s.2-.5.2-.7h0c0-.4-.1-.7-.3-.9s-.5-.3-.9-.3-.7.1-.9.3c-.2.2-.4.5-.4.9h-1.3c.1-.5.2-1,.5-1.4.2-.4.5-.7.9-.9.4-.2.8-.3,1.3-.3.6,0,1,.1,1.4.3.4.2.7.5.9.8s.3.8.3,1.3h0c0,.3-.1.7-.2,1s-.3.7-.6,1l-2.7,3.6h3.5v1.2h-5.2v-.8h-.1Z"/>
    </g>
    <g>
      <path class="cls-3" d="m175.1,10.1h1.3v9.2h-1.3v-9.2Zm.6,8h5.3v1.2h-5.3v-1.2Z"/>
      <path class="cls-3" d="m182.4,10.1h1.3v1.3h-1.3v-1.3Zm0,2.7h1.3v6.6h-1.3v-6.6Z"/>
      <path class="cls-3" d="m186.9,17.7c0,.2,0,.3.1.4s.2.1.3.1h.6v1.2h-.8c-.5,0-.9-.2-1.1-.5-.3-.3-.4-.7-.4-1.3v-7.5h1.3v7.6h0Z"/>
      <path class="cls-3" d="m190.7,17.7c0,.2,0,.3.1.4s.2.1.3.1h.6v1.2h-.7c-.5,0-.9-.2-1.1-.5s-.4-.7-.4-1.3v-7.5h1.3v7.6h-.1Z"/>
      <path class="cls-3" d="m194.3,19.1c-.4-.2-.8-.6-1-1s-.3-1-.3-1.6v-.7c0-.7.1-1.2.3-1.7s.5-.8.9-1.1c.4-.2.9-.4,1.5-.4s1,.1,1.4.4c.4.3.7.7.9,1.2s.3,1.1.3,1.9v.4h-4.4v-1h3.2c0-.5-.2-1-.4-1.3s-.6-.4-1-.4c-.5,0-.9.2-1.1.5-.3.3-.4.8-.4,1.4v.8c0,.5.1,1,.4,1.3.3.3.7.4,1.2.4.3,0,.5-.1.8-.2s.5-.3.7-.4l.9.9c-.3.3-.7.6-1.1.7-.4.2-.8.3-1.2.3-.6,0-1.2-.1-1.6-.4Z"/>
      <path class="cls-3" d="m185.6,27.4v1.2h-4.3v-1.2h4.3Z"/>
      <path class="cls-3" d="m191.9,23.3l-2.4,8.1h-1.4l2.4-8h-2.3v1.3h-1.3v-2.6h5v1.2Z"/>
    </g>
    <g>
      <path class="cls-3" d="m139.2,45.5h1.3v9.2h-1.3v-9.2Zm.7,4.4h3c.3,0,.5-.1.7-.2s.4-.3.5-.6c.1-.2.2-.5.2-.8s-.1-.6-.2-.8c-.1-.2-.3-.4-.5-.6-.2-.1-.5-.2-.7-.2h-3v-1.2h2.9c.6,0,1,.1,1.5.4.4.2.7.6,1,1,.2.4.3.9.3,1.5s-.1,1.1-.3,1.5-.6.8-1,1-.9.3-1.5.3h-2.9v-1.3Z"/>
      <path class="cls-3" d="m147.2,54.3c-.4-.3-.6-.8-.6-1.5s.2-1.1.6-1.5.9-.5,1.7-.5h1.9l.1,1h-2c-.3,0-.6.1-.8.2-.2.1-.3.4-.3.7s.1.6.3.7c.2.2.6.2,1,.2.5,0,.9-.1,1.1-.2s.4-.3.4-.5l.1.9c-.1.2-.3.3-.4.4s-.4.2-.6.3c-.2.1-.5.1-.7.1-.8.2-1.4,0-1.8-.3Zm3.4-3.8c0-.4-.1-.8-.3-1s-.6-.4-1-.4c-.3,0-.5,0-.8.1s-.5.2-.7.3l-.9-.6c.2-.3.6-.5,1-.7s.9-.3,1.4-.3,1,.1,1.4.3.7.5.9.8c.2.4.3.8.3,1.3v4.2h-1.2v-4h-.1Z"/>
      <path class="cls-3" d="m153.8,48.1h1.3v6.6h-1.3v-6.6Zm3.2,1.2c-.2-.1-.4-.1-.6-.1-.4,0-.7.1-1,.3-.2.2-.3.5-.3.9l-.1-1.3c.2-.4.5-.7.8-.9s.7-.3,1.1-.3c.3,0,.6,0,.8.1s.5.2.6.4l-.8,1.1c-.2,0-.3-.1-.5-.2Z"/>
      <path class="cls-3" d="m159.3,45.5h1.3v1.3h-1.3v-1.3Zm0,2.6h1.3v6.6h-1.3v-6.6Z"/>
      <path class="cls-3" d="m163.8,54.7c-.3-.1-.7-.2-1-.3-.3-.2-.6-.3-.8-.6l.8-.9c.4.3.7.5,1.1.6.4.1.7.2,1,.2.5,0,.9-.1,1.2-.2.3-.2.4-.4.4-.7,0-.2-.1-.4-.2-.5s-.3-.2-.5-.2-.5-.1-.9-.1h-.4c-.4,0-.8-.1-1.1-.2-.3-.1-.5-.3-.7-.5s-.3-.6-.3-1.1.1-.9.3-1.2.5-.5.9-.7.8-.2,1.4-.2c.3,0,.7,0,1,.1s.6.2.9.3c.3.1.6.3.8.5l-.8.9c-.3-.2-.7-.4-1-.5s-.6-.2-.9-.2c-.4,0-.8.1-1,.2-.2.1-.3.4-.3.7,0,.2.1.3.2.4.1.1.3.1.5.2s.5.1.8.1h.2c.5,0,.9.1,1.2.2.3.1.6.3.8.6s.3.7.3,1.2-.1.9-.3,1.2-.5.5-.9.7-.9.2-1.5.2c-.5-.1-.8-.2-1.2-.2Z"/>
      <path class="cls-3" d="m151.7,62.8v1.2h-4.3v-1.2h4.3Z"/>
      <path class="cls-3" d="m153.5,64.2l3.1-6.7h1.3l-3,6.6h4.5v1.2h-5.9v-1.1h0Zm3.9-2.9h1.3v5.4h-1.3v-5.4Z"/>
    </g>
    <g>
      <path class="cls-3" d="m169.5,68.9h1.3v9.2h-1.3v-9.2Zm.6,4.1h3.1c.2,0,.5-.1.7-.2s.3-.3.4-.5c.1-.2.2-.5.2-.8s-.1-.5-.2-.8c-.1-.2-.2-.4-.4-.5s-.4-.2-.7-.2h-3.1v-1.2h3.1c.5,0,1,.1,1.4.3s.7.5.9.9.3.9.3,1.4-.1,1-.3,1.4-.5.7-.9.9c-.4.2-.9.3-1.4.3h-3.1v-1Zm2.5,1l1.3-.3,2.4,4.5h-1.5l-2.2-4.2Z"/>
      <path class="cls-3" d="m178.7,77.9c-.4-.2-.8-.6-1-1s-.3-1-.3-1.6v-.7c0-.7.1-1.2.3-1.7s.5-.8.9-1.1c.4-.2.9-.4,1.5-.4.5,0,1,.1,1.4.4s.7.7.9,1.2.3,1.1.3,1.9v.4h-4.4v-1h3.2c0-.5-.2-1-.4-1.3s-.6-.4-1-.4c-.5,0-.9.2-1.1.5s-.4.8-.4,1.4v.8c0,.5.1,1,.4,1.3.3.3.7.4,1.2.4.3,0,.5-.1.8-.2s.5-.3.7-.4l.9.9c-.3.3-.7.6-1.1.7-.4.2-.8.3-1.2.3-.6,0-1.1-.1-1.6-.4Z"/>
      <path class="cls-3" d="m184.6,68.9h1.3v1.3h-1.3v-1.3Zm0,2.7h1.3v6.6h-1.3v-6.6Z"/>
      <path class="cls-3" d="m187.8,71.6h1.3v6.6h-1.3v-6.6Zm4,2.6c0-.5-.1-.8-.3-1.1s-.6-.4-1-.4-.8.1-1,.3c-.2.2-.3.5-.3.9l-.1-1.3c.2-.4.5-.7.8-.9.3-.2.7-.3,1.1-.3.5,0,.9.1,1.2.3.3.2.6.5.7.9.2.4.3.9.3,1.5v4h-1.3v-3.9h-.1Zm3.9,0c0-.5-.1-.8-.4-1.1s-.6-.4-1-.4-.7.1-.9.4c-.2.2-.3.6-.3,1l-.3-1.3c.2-.4.5-.8.8-1s.7-.4,1.1-.4c.5,0,.9.1,1.2.3.3.2.6.5.8.9s.3.9.3,1.5v4h-1.3v-3.9h0Z"/>
      <path class="cls-3" d="m200.2,78.2c-.3-.1-.7-.2-1-.3-.3-.2-.6-.3-.8-.6l.8-.9c.4.3.7.5,1.1.6.4.1.7.2,1,.2.5,0,.9-.1,1.2-.2.3-.2.4-.4.4-.7,0-.2-.1-.4-.2-.5s-.3-.2-.5-.2-.5-.1-.9-.1h-.4c-.4,0-.8-.1-1.1-.2s-.5-.3-.7-.5-.3-.6-.3-1.1.1-.9.3-1.2.5-.5.9-.7.8-.2,1.4-.2c.3,0,.7,0,1,.1s.6.2.9.3c.3.1.6.3.8.5l-.8.9c-.3-.2-.7-.4-1-.5s-.6-.2-.9-.2c-.4,0-.8.1-1,.2s-.3.4-.3.7c0,.2.1.3.2.4s.3.1.5.2.5.1.8.1h.2c.5,0,.9.1,1.2.2s.6.3.8.6c.2.3.3.7.3,1.2s-.1.9-.3,1.2c-.2.3-.5.5-.9.7s-.9.2-1.5.2c-.5-.1-.9-.2-1.2-.2Z"/>
      <path class="cls-3" d="m185.3,86.2v1.2h-4.3v-1.2h4.3Z"/>
      <path class="cls-3" d="m188.2,90c-.4-.2-.7-.5-.9-.8-.2-.4-.4-.8-.5-1.3h1.3c0,.3.1.5.2.6s.3.3.5.4.4.1.7.1c.4,0,.8-.1,1-.3.2-.2.4-.6.4-1v-.3c0-.5-.1-.8-.3-1.1-.2-.3-.5-.4-1-.4h-.6v-1.2h.7c.4,0,.6-.1.8-.3.2-.2.3-.5.3-.9v-.3c0-.4-.1-.6-.3-.8-.2-.2-.5-.3-.9-.3-.2,0-.4,0-.6.1-.2.1-.3.2-.4.4-.1.2-.2.4-.3.6h-1.3c.1-.5.2-.9.5-1.3.2-.4.5-.6.9-.8.4-.2.8-.3,1.2-.3.8,0,1.4.2,1.8.6.4.4.7,1,.7,1.8v.2c0,.5-.1.9-.4,1.2-.2.3-.6.6-1.1.7.5.1.9.4,1.2.7.3.4.4.9.4,1.5v.2c0,.5-.1,1-.3,1.4s-.5.7-.9.9c-.4.2-.9.3-1.4.3-.6,0-1-.1-1.4-.3Z"/>
    </g>
    <g>
      <path class="cls-3" d="m223.2,59.5c-.4-.1-.8-.2-1.1-.4s-.7-.4-1-.6l.8-1c.4.3.7.5,1.2.7.4.2.9.2,1.4.2.7,0,1.2-.1,1.6-.4.4-.2.6-.6.6-1.1h0c0-.3-.1-.6-.3-.8s-.4-.3-.6-.4c-.3-.1-.6-.2-1-.3h-.1c-.6-.1-1.1-.2-1.5-.4-.4-.1-.7-.4-1-.7-.3-.4-.4-.9-.4-1.5h0c0-.6.1-1.1.4-1.5.3-.4.6-.7,1.1-.9s1.1-.3,1.8-.3c.3,0,.7,0,1,.1s.6.2.9.3c.3.1.6.3.9.5l-.7,1c-.4-.3-.7-.5-1.1-.6-.3-.1-.7-.2-1-.2-.6,0-1.1.1-1.5.4-.3.3-.5.6-.5,1.1h0c0,.3.1.6.3.7s.4.3.7.4c.3.1.6.2,1.1.3h.2c.6.1,1,.2,1.4.4s.7.4.9.8c.3.3.4.8.4,1.4h0c0,.6-.1,1-.4,1.4-.3.4-.7.7-1.2.9s-1.1.3-1.8.3c-.6.3-1.1.3-1.5.2Z"/>
      <path class="cls-3" d="m229.1,52.9h3v1.2h-3v-1.2Zm1.1,6.2c-.2-.3-.4-.7-.4-1.3v-6.8h1.3v6.8c0,.2,0,.3.1.4.1.1.2.1.3.1h.6v1.2h-.7c-.6.1-1-.1-1.2-.4Z"/>
      <path class="cls-3" d="m233.8,52.9h1.3v6.6h-1.3v-6.6Zm3.2,1.3c-.2-.1-.4-.1-.6-.1-.4,0-.7.1-1,.3-.2.2-.3.5-.3.9l-.1-1.3c.2-.4.5-.7.8-.9s.7-.3,1.1-.3c.3,0,.6,0,.8.1s.5.2.6.4l-.8,1.1c-.1,0-.3-.1-.5-.2Z"/>
      <path class="cls-3" d="m239.7,59.1c-.4-.3-.6-.8-.6-1.5s.2-1.1.6-1.5.9-.5,1.7-.5h1.9l.1,1h-2c-.3,0-.6.1-.8.2-.2.1-.3.4-.3.7s.1.6.3.7c.2.2.6.2,1,.2.5,0,.9-.1,1.1-.2s.4-.3.4-.5l.1.9c-.1.2-.3.3-.4.4s-.4.2-.6.3c-.2.1-.5.1-.7.1-.8.2-1.4.1-1.8-.3Zm3.4-3.7c0-.4-.1-.8-.3-1s-.6-.4-1-.4c-.3,0-.5,0-.8.1s-.5.2-.7.3l-.9-.6c.2-.3.6-.5,1-.7s.9-.3,1.4-.3,1,.1,1.4.3.7.5.9.8c.2.4.3.8.3,1.3v4.2h-1.2v-4h-.1Z"/>
      <path class="cls-3" d="m247.6,59.5c-.3-.1-.7-.2-1-.3-.3-.2-.6-.3-.8-.6l.8-.9c.4.3.7.5,1.1.6.4.1.7.2,1,.2.5,0,.9-.1,1.2-.2.3-.2.4-.4.4-.7,0-.2-.1-.4-.2-.5s-.3-.2-.5-.2-.5-.1-.9-.1h-.4c-.4,0-.8-.1-1.1-.2-.3-.1-.5-.3-.7-.5s-.3-.6-.3-1.1.1-.9.3-1.2.5-.5.9-.7.8-.2,1.4-.2c.3,0,.7,0,1,.1s.6.2.9.3c.3.1.6.3.8.5l-.8.9c-.3-.2-.7-.4-1-.5s-.6-.2-.9-.2c-.4,0-.8.1-1,.2-.2.1-.3.4-.3.7,0,.2.1.3.2.4.1.1.3.1.5.2s.5.1.8.1h.2c.5,0,.9.1,1.2.2.3.1.6.3.8.6s.3.7.3,1.2-.1.9-.3,1.2-.5.5-.9.7-.9.2-1.5.2c-.5-.1-.9-.1-1.2-.2Z"/>
      <path class="cls-3" d="m253.1,50.3h1.3v9.2h-1.3v-9.2Zm1.8,9c-.3-.2-.5-.5-.7-.8l.1-1.4c0,.3.1.5.2.7s.2.4.4.5.4.2.7.2c.4,0,.8-.1,1-.4.2-.3.4-.6.4-1.1v-1.4c0-.5-.1-.9-.4-1.1-.2-.3-.6-.4-1-.4-.3,0-.5.1-.7.2-.2.1-.3.3-.4.4-.1.2-.2.4-.2.7l-.1-1.3c.2-.4.5-.7.8-.9s.7-.3,1.1-.3c.5,0,.9.1,1.2.3.3.2.6.5.8.9.2.4.3.9.3,1.5v1.4c0,.6-.1,1-.3,1.4s-.4.7-.8.9c-.3.2-.8.3-1.2.3-.5,0-.9-.1-1.2-.3Z"/>
      <path class="cls-3" d="m261.2,59.3c-.4-.2-.7-.6-.9-1-.2-.4-.3-.9-.3-1.6v-1.1c0-.6.1-1.1.3-1.5.2-.4.5-.7.9-1,.4-.2.9-.3,1.5-.3s1.1.1,1.5.3.7.5.9,1c.2.4.3.9.3,1.5v1.1c0,.6-.1,1.1-.3,1.5-.2.4-.5.8-.9,1s-.9.3-1.5.3-1.1,0-1.5-.2Zm2.5-1.3c.2-.3.4-.7.4-1.2v-1.1c0-.5-.1-.9-.4-1.2-.2-.3-.6-.4-1.1-.4s-.8.1-1.1.4c-.2.3-.4.7-.4,1.2v1.1c0,.5.1.9.4,1.2.2.3.6.4,1.1.4s.9-.1,1.1-.4Z"/>
      <path class="cls-3" d="m268.3,56.9c0,.5.1.8.4,1.1.2.3.6.4,1,.4s.8-.1,1-.3.3-.5.3-1l.1,1.4c-.1.3-.4.6-.7.8s-.7.3-1.1.3c-.7,0-1.3-.2-1.7-.7-.4-.5-.6-1.1-.6-2v-4h1.3v4h0Zm2.7-4h1.3v6.6h-1.3v-6.6Z"/>
      <path class="cls-3" d="m274.3,52.9h1.3v6.6h-1.3v-6.6Zm3.2,1.3c-.2-.1-.4-.1-.6-.1-.4,0-.7.1-1,.3-.2.2-.3.5-.3.9l-.1-1.3c.2-.4.5-.7.8-.9s.7-.3,1.1-.3c.3,0,.6,0,.8.1.2.1.5.2.6.4l-.8,1.1c-.2,0-.3-.1-.5-.2Z"/>
      <path class="cls-3" d="m280.6,59.3c-.3-.2-.6-.5-.8-.9s-.3-.9-.3-1.4v-1.5c0-.6.1-1.1.3-1.5.2-.4.4-.7.8-.9.3-.2.7-.3,1.2-.3.4,0,.7.1,1.1.3.3.2.6.5.8.9l-.1,1.3c0-.3-.1-.5-.2-.7s-.2-.4-.4-.5c-.2-.1-.4-.2-.7-.2-.4,0-.8.1-1,.4-.2.3-.4.6-.4,1.1v1.6c0,.5.1.8.4,1.1.2.3.6.4,1,.4.3,0,.5-.1.7-.2.2-.1.3-.3.4-.5s.2-.4.2-.7l.1,1.4c-.1.3-.3.6-.6.8-.3.2-.7.3-1.1.3-.7,0-1.1-.1-1.4-.3Zm0,2.6c-.4-.2-.7-.4-.9-.8l.9-.8c.2.2.4.4.6.5s.5.2.7.2c.5,0,.9-.1,1.1-.4.3-.3.4-.7.4-1.2v-6.6h1.3v6.4c0,.6-.1,1.1-.3,1.6-.2.4-.5.8-1,1-.4.2-.9.3-1.5.3-.5.1-.9,0-1.3-.2Z"/>
      <path class="cls-3" d="m249.9,67.6v1.2h-4.3v-1.2h4.3Z"/>
      <path class="cls-3" d="m253.8,71.5h-1.3v-7.8l-1.3.8v-1.3l1.3-.9h1.3v9.2Z"/>
      <path class="cls-3" d="m255.8,70.4l3.2-4.3c.2-.2.3-.5.4-.8s.2-.5.2-.7h0c0-.4-.1-.7-.3-.9s-.5-.3-.9-.3-.7.1-.9.3c-.2.2-.4.5-.4.9h-1.3c.1-.5.2-1,.5-1.4.2-.4.5-.7.9-.9s.8-.3,1.3-.3,1,.1,1.4.3.7.5.9.8.3.8.3,1.3h0c0,.3-.1.7-.2,1-.1.4-.3.7-.6,1l-2.7,3.6h3.5v1.2h-5.2v-.8h-.1Z"/>
    </g>
    <g>
      <path class="cls-3" d="m211,108.5h1.3v9.2h-1.3v-9.2Zm.9,8h2.1c.7,0,1.2-.2,1.6-.5.4-.4.6-.9.6-1.5v-2.7c0-.6-.2-1.1-.6-1.5-.4-.4-.9-.5-1.6-.5h-2.1v-1.2h2.1c.7,0,1.4.1,1.9.4s.9.6,1.2,1.1.4,1.1.4,1.8v2.6c0,.7-.1,1.3-.4,1.8-.3.5-.7.9-1.2,1.1-.5.3-1.2.4-1.9.4h-2v-1.3h-.1Z"/>
      <path class="cls-3" d="m219.4,108.5h1.3v1.3h-1.3v-1.3Zm0,2.6h1.3v6.6h-1.3v-6.6Z"/>
      <path class="cls-3" d="m221.8,119.1h.7c.1,0,.2,0,.3-.1s.1-.2.1-.4v-7.5h1.3v7.5c0,.6-.1,1-.4,1.3s-.6.5-1.1.5h-.9v-1.3h0Zm1.1-10.6h1.3v1.3h-1.3v-1.3Z"/>
      <path class="cls-3" d="m227.2,117.5c-.4-.2-.7-.6-.9-1s-.3-.9-.3-1.6v-1.1c0-.6.1-1.1.3-1.5s.5-.7.9-1c.4-.2.9-.3,1.5-.3s1.1.1,1.5.3c.4.2.7.5.9,1,.2.4.3.9.3,1.5v1.1c0,.6-.1,1.1-.3,1.5s-.5.8-.9,1-.9.3-1.5.3-1.1,0-1.5-.2Zm2.5-1.4c.2-.3.4-.7.4-1.2v-1.1c0-.5-.1-.9-.4-1.2-.2-.3-.6-.4-1.1-.4s-.8.1-1.1.4c-.2.3-.4.7-.4,1.2v1.1c0,.5.1.9.4,1.2.2.3.6.4,1.1.4.5.1.9-.1,1.1-.4Z"/>
      <path class="cls-3" d="m233.2,111.1h1.3v6.6h-1.3v-6.6Zm4,2.6c0-.5-.1-.8-.4-1.1s-.6-.4-1-.4-.8.1-1,.3-.3.5-.3.9l-.1-1.3c.2-.4.5-.7.8-.9s.7-.3,1.1-.3c.7,0,1.3.2,1.7.7s.6,1.1.6,2v4h-1.3v-3.9h-.1Z"/>
      <path class="cls-3" d="m223.5,125.8v1.2h-4.3v-1.2h4.3Z"/>
      <path class="cls-3" d="m228.7,125.1v.2c-.1.2-.3.3-.5.4s-.5.1-.8.1c-.4,0-.8-.1-1.2-.3-.3-.2-.6-.5-.8-.9s-.3-.9-.3-1.4h0c0-.6.1-1.1.3-1.5s.5-.7.9-1c.4-.2.9-.3,1.4-.3s1,.1,1.4.3c.4.2.7.6.9,1s.3.9.3,1.5h0c0,.3,0,.7-.1,1.1s-.2.7-.4,1.1c0,.1-.1.1-.1.2s-.1.1-.1.2l-2,4h-1.4l2.5-4.7Zm0-.8c.2-.3.3-.7.3-1.2h0c0-.5-.1-.9-.3-1.1-.2-.3-.5-.4-.9-.4s-.7.1-.9.4-.3.6-.3,1.1h0c0,.5.1.9.3,1.2.2.3.5.4.9.4.4,0,.7-.1.9-.4Z"/>
    </g>
    <g>
      <path class="cls-3" d="m199.6,150.4v1.6c0,.7-.1,1.3-.4,1.8-.3.5-.6.9-1.1,1.2s-1.1.4-1.7.4c-.7,0-1.2-.1-1.7-.4s-.9-.6-1.1-1.1c-.3-.5-.4-1.1-.4-1.7v-2.7c0-.7.1-1.3.4-1.8s.6-.9,1.1-1.2,1.1-.4,1.7-.4c.5,0,1,.1,1.5.3.4.2.8.5,1.1,1,.3.4.5.9.6,1.4h-1.4c-.1-.3-.2-.6-.4-.8s-.4-.4-.6-.5c-.2-.1-.5-.2-.8-.2-.4,0-.7.1-1,.3s-.5.4-.7.8c-.2.3-.2.7-.2,1.1v2.7c0,.4.1.7.2,1,.2.3.4.5.7.7s.6.2,1,.2.7-.1,1-.3.5-.4.7-.7.2-.7.2-1.2v-.4h-1.9v-1.2h3.2v.1Z"/>
      <path class="cls-3" d="m201.5,148.7h1.3v6.6h-1.3v-6.6Zm3.2,1.3c-.2-.1-.4-.1-.6-.1-.4,0-.7.1-1,.3-.2.2-.3.5-.3.9l-.1-1.3c.2-.4.5-.7.8-.9s.7-.3,1.1-.3c.3,0,.6,0,.8.1s.5.2.6.4l-.8,1.1c-.2,0-.3-.2-.5-.2Z"/>
      <path class="cls-3" d="m208.1,155.1c-.4-.2-.8-.6-1-1s-.3-1-.3-1.6v-.7c0-.7.1-1.2.3-1.7s.5-.8.9-1.1c.4-.2.9-.4,1.5-.4s1,.1,1.4.4c.4.3.7.7.9,1.2s.3,1.1.3,1.9v.4h-4.4v-1h3.2c0-.5-.2-1-.4-1.3s-.6-.4-1-.4c-.5,0-.9.2-1.1.5-.3.3-.4.8-.4,1.4v.8c0,.5.1,1,.4,1.3.3.3.7.4,1.2.4.3,0,.5-.1.8-.2.3-.1.5-.3.7-.4l.9.9c-.3.3-.7.6-1.1.7-.4.2-.8.3-1.2.3-.7-.1-1.2-.2-1.6-.4Z"/>
      <path class="cls-3" d="m213.9,148.7h1.3v6.6h-1.3v-6.6Zm4,2.6c0-.5-.1-.8-.4-1.1s-.6-.4-1-.4-.8.1-1,.3-.3.5-.3.9l-.1-1.3c.2-.4.5-.7.8-.9s.7-.3,1.1-.3c.7,0,1.3.2,1.7.7s.6,1.1.6,2v4h-1.3v-3.9h-.1Z"/>
      <path class="cls-3" d="m222.2,155.1c-.4-.2-.7-.6-.9-1s-.3-.9-.3-1.6v-1.1c0-.6.1-1.1.3-1.5s.5-.7.9-1c.4-.2.9-.3,1.5-.3s1.1.1,1.5.3.7.5.9,1c.2.4.3.9.3,1.5v1.1c0,.6-.1,1.1-.3,1.5s-.5.8-.9,1-.9.3-1.5.3-1.1,0-1.5-.2Zm2.6-1.3c.2-.3.4-.7.4-1.2v-1.1c0-.5-.1-.9-.4-1.2-.2-.3-.6-.4-1.1-.4s-.8.1-1.1.4c-.2.3-.4.7-.4,1.2v1.1c0,.5.1.9.4,1.2.2.3.6.4,1.1.4s.8-.2,1.1-.4Z"/>
      <path class="cls-3" d="m228.3,146.1h1.3v9.2h-1.3v-9.2Zm1.8,9c-.3-.2-.5-.5-.7-.8l.1-1.4c0,.3.1.5.2.7.1.2.2.4.4.5s.4.2.7.2c.4,0,.8-.1,1-.4.2-.3.4-.6.4-1.1v-1.4c0-.5-.1-.9-.4-1.1-.2-.3-.6-.4-1-.4-.3,0-.5.1-.7.2-.2.1-.3.2-.4.4-.1.2-.2.4-.2.7l-.1-1.3c.2-.4.5-.7.8-.9s.7-.3,1.1-.3c.5,0,.9.1,1.2.3s.6.5.8.9.3.9.3,1.5v1.4c0,.6-.1,1-.3,1.4s-.4.7-.8.9c-.3.2-.8.3-1.2.3-.5,0-.9-.1-1.2-.3Z"/>
      <path class="cls-3" d="m236.6,153.6c0,.2,0,.3.1.4.1.1.2.1.3.1h.6v1.2h-.8c-.5,0-.9-.2-1.1-.5-.3-.3-.4-.7-.4-1.3v-7.5h1.3v7.6h0Z"/>
      <path class="cls-3" d="m240.2,155.1c-.4-.2-.8-.6-1-1s-.3-1-.3-1.6v-.7c0-.7.1-1.2.3-1.7s.5-.8.9-1.1c.4-.2.9-.4,1.5-.4.5,0,1,.1,1.4.4.4.3.7.7.9,1.2s.3,1.1.3,1.9v.4h-4.4v-1h3.2c0-.5-.2-1-.4-1.3s-.6-.4-1-.4c-.5,0-.9.2-1.1.5-.3.3-.4.8-.4,1.4v.8c0,.5.1,1,.4,1.3.3.3.7.4,1.2.4.3,0,.5-.1.8-.2.3-.1.5-.3.7-.4l.9.9c-.3.3-.7.6-1.1.7-.4.2-.8.3-1.2.3-.6-.1-1.1-.2-1.6-.4Z"/>
      <path class="cls-3" d="m217.4,163.4v1.2h-4.3v-1.2h4.3Z"/>
      <path class="cls-3" d="m219.2,166.2l3.2-4.3c.2-.2.3-.5.4-.8.1-.3.2-.5.2-.7h0c0-.4-.1-.7-.3-.9s-.5-.3-.9-.3-.7.1-.9.3-.4.5-.4.9h-1.5c.1-.5.2-1,.5-1.4.2-.4.5-.7.9-.9s.8-.3,1.3-.3c.6,0,1,.1,1.4.3s.7.5.9.8c.2.4.3.8.3,1.3h0c0,.3-.1.7-.2,1-.1.4-.3.7-.6,1l-2.7,3.6h3.5v1.2h-5.2v-.8h.1Z"/>
    </g>
    <g>
      <path class="cls-3" d="m107.9,194.6h6.5v1.2h-6.5v-1.2Zm2.6.8h1.3v8.5h-1.3v-8.5Z"/>
      <path class="cls-3" d="m115.6,203.6c-.4-.2-.7-.6-.9-1-.2-.4-.3-.9-.3-1.6v-1c0-.6.1-1.1.3-1.5.2-.4.5-.7.9-1,.4-.2.9-.3,1.5-.3s1.1.1,1.5.3.7.5.9,1c.2.4.3.9.3,1.5v1.1c0,.6-.1,1.1-.3,1.5-.2.4-.5.8-.9,1s-.9.3-1.5.3-1,0-1.5-.3Zm2.6-1.3c.2-.3.4-.7.4-1.2v-1.1c0-.5-.1-.9-.4-1.2-.2-.3-.6-.4-1.1-.4s-.8.1-1.1.4c-.2.3-.4.7-.4,1.2v1.1c0,.5.1.9.4,1.2.2.3.6.4,1.1.4s.8-.1,1.1-.4Z"/>
      <path class="cls-3" d="m122.8,201.3c0,.5.1.8.4,1.1.2.3.6.4,1,.4s.8-.1,1-.3.3-.5.3-1l.1,1.4c-.1.3-.4.6-.7.8-.3.2-.7.3-1.1.3-.7,0-1.3-.2-1.7-.7-.4-.5-.6-1.1-.6-2v-4h1.3v4h0Zm2.7-4h1.3v6.6h-1.3v-6.6Z"/>
      <path class="cls-3" d="m130,202.2c0,.2,0,.3.1.4.1.1.2.1.3.1h.6v1.2h-.8c-.5,0-.9-.2-1.1-.5-.3-.3-.4-.7-.4-1.3v-7.5h1.3v7.6h0Z"/>
      <path class="cls-3" d="m133.6,203.6c-.4-.2-.7-.6-.9-1s-.3-.9-.3-1.6v-1c0-.6.1-1.1.3-1.5s.5-.7.9-1c.4-.2.9-.3,1.5-.3s1.1.1,1.5.3.7.5.9,1c.2.4.3.9.3,1.5v1.1c0,.6-.1,1.1-.3,1.5s-.5.8-.9,1-.9.3-1.5.3-1.1,0-1.5-.3Zm2.5-1.3c.2-.3.4-.7.4-1.2v-1.1c0-.5-.1-.9-.4-1.2-.2-.3-.6-.4-1.1-.4s-.8.1-1.1.4c-.2.3-.4.7-.4,1.2v1.1c0,.5.1.9.4,1.2.2.3.6.4,1.1.4s.8-.1,1.1-.4Z"/>
      <path class="cls-3" d="m140.7,201.3c0,.5.1.8.4,1.1.2.3.6.4,1,.4s.8-.1,1-.3.3-.5.3-1l.1,1.4c-.1.3-.4.6-.7.8s-.7.3-1.1.3c-.7,0-1.3-.2-1.7-.7s-.6-1.1-.6-2v-4h1.3v4Zm2.7-4h1.3v6.6h-1.3v-6.6Z"/>
      <path class="cls-3" d="m147.9,203.9c-.3-.1-.7-.2-1-.3s-.6-.3-.8-.6l.8-.9c.4.3.7.5,1.1.6.4.1.7.2,1,.2.5,0,.9-.1,1.2-.2.3-.2.4-.4.4-.7,0-.2-.1-.4-.2-.5-.1-.1-.3-.2-.5-.2s-.5-.1-.9-.1h-.4c-.4,0-.8-.1-1.1-.2s-.5-.3-.7-.5-.3-.6-.3-1.1.1-.9.3-1.2.5-.5.9-.7.8-.2,1.4-.2c.3,0,.7,0,1,.1s.6.2.9.3c.3.1.6.3.8.5l-.8.9c-.3-.2-.7-.4-1-.5s-.6-.2-.9-.2c-.4,0-.8.1-1,.2-.2.2-.3.4-.3.7,0,.2.1.3.2.4s.3.1.5.2c.2,0,.5.1.8.1h.2c.5,0,.9.1,1.2.2.3.1.6.3.8.6s.3.7.3,1.2-.1.9-.3,1.2-.5.5-.9.7-.9.2-1.5.2c-.5-.1-.9-.2-1.2-.2Z"/>
      <path class="cls-3" d="m154.5,203.6c-.4-.2-.8-.6-1-1s-.3-1-.3-1.6v-.7c0-.7.1-1.2.3-1.7s.5-.8.9-1.1c.4-.2.9-.4,1.5-.4.5,0,1,.1,1.4.4.4.3.7.7.9,1.2s.3,1.1.3,1.9v.4h-4.4v-1h3.2c0-.5-.2-1-.4-1.3s-.6-.4-1-.4c-.5,0-.9.2-1.1.5-.3.3-.4.8-.4,1.4v.8c0,.5.1,1,.4,1.3.3.3.7.4,1.2.4.3,0,.5-.1.8-.2.3-.1.5-.3.7-.4l.9.9c-.3.3-.7.6-1.1.7-.4.2-.8.3-1.2.3-.6,0-1.1-.1-1.6-.4Z"/>
      <path class="cls-3" d="m133.8,211.9v1.2h-4.3v-1.2h4.3Z"/>
      <path class="cls-3" d="m137.7,215.9h-1.3v-7.8l-1.3.8v-1.3l1.3-.9h1.3v9.2Z"/>
    </g>
    <g>
      <path class="cls-3" d="m195.2,202.6h1.2v9.2h-1.3v-6.8l.1.4-2.3,5.2h-.9l-2.3-5.1.1-.5v6.9h-1.3v-9.2h1.2l2.7,6.1,2.8-6.2Z"/>
      <path class="cls-3" d="m198.9,211.5c-.4-.3-.6-.8-.6-1.5s.2-1.1.6-1.5c.4-.3.9-.5,1.7-.5h1.9l.1,1h-2c-.3,0-.6.1-.8.2s-.3.4-.3.7.1.6.3.7c.2.2.6.2,1,.2.5,0,.9-.1,1.1-.2.2-.1.4-.3.4-.5l.1.9c-.1.2-.3.3-.4.4-.2.1-.4.2-.6.3-.2.1-.5.1-.7.1-.8.2-1.4,0-1.8-.3Zm3.4-3.8c0-.4-.1-.8-.3-1s-.6-.4-1-.4c-.3,0-.5,0-.8.1s-.5.2-.7.3l-.9-.6c.2-.3.6-.5,1-.7s.9-.2,1.4-.2,1,.1,1.4.3.7.5.9.8c.2.4.3.8.3,1.3v4.2h-1.2v-4.1h-.1Z"/>
      <path class="cls-3" d="m205.5,205.3h1.3v6.6h-1.3v-6.6Zm3.2,1.2c-.2-.1-.4-.1-.6-.1-.4,0-.7.1-1,.3-.2.2-.3.5-.3.9l-.1-1.3c.2-.4.5-.7.8-.9s.7-.3,1.1-.3c.3,0,.6,0,.8.1s.5.2.6.4l-.8,1.1c-.2,0-.3-.1-.5-.2Z"/>
      <path class="cls-3" d="m212.3,211.9c-.3-.1-.7-.2-1-.3-.3-.2-.6-.3-.8-.6l.8-.9c.4.3.7.5,1.1.6.4.1.7.2,1,.2.5,0,.9-.1,1.2-.2.3-.2.4-.4.4-.7,0-.2-.1-.4-.2-.5-.1-.1-.3-.2-.5-.2s-.5-.1-.9-.1h-.4c-.4,0-.8-.1-1.1-.2-.3-.1-.5-.3-.7-.5s-.3-.6-.3-1.1.1-.9.3-1.2.5-.5.9-.7.8-.2,1.4-.2c.3,0,.7,0,1,.1s.6.2.9.3c.3.1.6.3.8.5l-.8.9c-.3-.2-.7-.4-1-.5s-.6-.2-.9-.2c-.4,0-.8.1-1,.2-.2.2-.3.4-.3.7,0,.2.1.3.2.4s.3.1.5.2c.2,0,.5.1.8.1h.2c.5,0,.9.1,1.2.2.3.1.6.3.8.6s.3.7.3,1.2-.1.9-.3,1.2-.5.5-.9.7-.9.2-1.5.2c-.5-.1-.9-.2-1.2-.2Z"/>
      <path class="cls-3" d="m219,211.6c-.4-.2-.8-.6-1-1s-.3-1-.3-1.6v-.7c0-.7.1-1.2.3-1.7s.5-.8.9-1.1c.4-.2.9-.4,1.5-.4.5,0,1,.1,1.4.4.4.3.7.7.9,1.2s.3,1.1.3,1.9v.4h-4.4v-1h3.2c0-.5-.2-1-.4-1.3s-.6-.4-1-.4c-.5,0-.9.2-1.1.5-.3.3-.4.8-.4,1.4v.8c0,.5.1,1,.4,1.3.3.3.7.4,1.2.4.3,0,.5-.1.8-.2.3-.1.5-.3.7-.4l.9.9c-.3.3-.7.6-1.1.7-.4.2-.8.3-1.2.3-.7,0-1.2-.1-1.6-.4Z"/>
      <path class="cls-3" d="m224.8,202.6h1.3v1.3h-1.3v-1.3Zm0,2.7h1.3v6.6h-1.3v-6.6Z"/>
      <path class="cls-3" d="m229.3,210.2c0,.2,0,.3.1.4.1.1.2.1.3.1h.6v1.2h-.8c-.5,0-.9-.2-1.1-.5s-.4-.7-.4-1.3v-7.5h1.3v7.6h0Z"/>
      <path class="cls-3" d="m233.1,210.2c0,.2,0,.3.1.4.1.1.2.1.3.1h.6v1.2h-.8c-.5,0-.9-.2-1.1-.5-.3-.3-.4-.7-.4-1.3v-7.5h1.3v7.6h0Z"/>
      <path class="cls-3" d="m236.7,211.6c-.4-.2-.8-.6-1-1s-.3-1-.3-1.6v-.7c0-.7.1-1.2.3-1.7s.5-.8.9-1.1c.4-.2.9-.4,1.5-.4.5,0,1,.1,1.4.4.4.3.7.7.9,1.2s.3,1.1.3,1.9v.4h-4.4v-1h3.2c0-.5-.2-1-.4-1.3s-.6-.4-1-.4c-.5,0-.9.2-1.1.5-.3.3-.4.8-.4,1.4v.8c0,.5.1,1,.4,1.3.3.3.7.4,1.2.4.3,0,.5-.1.8-.2.3-.1.5-.3.7-.4l.9.9c-.3.3-.7.6-1.1.7-.4.2-.8.3-1.2.3-.6,0-1.2-.1-1.6-.4Z"/>
      <path class="cls-3" d="m212.5,223.3c-.4-.5-.7-1.1-.7-1.9v-4.2c0-.8.2-1.5.7-1.9.4-.5,1.1-.7,2-.7s1.5.2,2,.7c.4.5.7,1.1.7,1.9v4.2c0,.8-.2,1.5-.7,1.9-.4.5-1.1.7-2,.7s-1.5-.3-2-.7Zm3-.9c.2-.2.3-.6.3-1v-4.2c0-.4-.1-.8-.3-1s-.6-.4-1-.4c-.5,0-.8.1-1,.4-.2.2-.3.6-.3,1v4.2c0,.4.1.8.3,1s.6.4,1,.4.8-.2,1-.4Z"/>
    </g>
    <g>
      <path class="cls-3" d="m242,220.8h1.2l4.5,7.1-.2.2v-7.3h1.3v9.2h-1.2l-4.5-7,.2-.2v7.2h-1.3v-9.2Z"/>
      <path class="cls-3" d="m251,220.8h1.3v1.3h-1.3v-1.3Zm0,2.6h1.3v6.6h-1.3v-6.6Z"/>
      <path class="cls-3" d="m255.3,229.7c-.4-.2-.8-.6-1-1s-.3-.9-.3-1.5v-1.1c0-.6.1-1.1.3-1.5s.5-.7,1-1c.4-.2.9-.3,1.5-.3.3,0,.7,0,1,.1s.6.2.8.4c.2.2.4.3.6.6l-.9.8c-.2-.2-.4-.4-.7-.5-.2-.1-.5-.2-.8-.2-.5,0-.9.1-1.2.4-.3.3-.4.7-.4,1.2v1.1c0,.5.1.9.4,1.2.3.3.7.4,1.2.4.3,0,.5-.1.8-.2.2-.1.5-.3.6-.5l.9.9c-.2.2-.4.4-.6.6s-.5.3-.8.4c-.3.1-.6.1-1,.1-.4,0-.9-.1-1.4-.4Z"/>
      <path class="cls-3" d="m261.8,229.7c-.4-.2-.8-.6-1-1s-.3-1-.3-1.6v-.7c0-.7.1-1.2.3-1.7.2-.5.5-.8.9-1.1.4-.2.9-.4,1.5-.4.5,0,1,.1,1.4.4.4.3.7.7.9,1.2s.3,1.1.3,1.9v.4h-4.4v-1h3.2c0-.5-.2-1-.4-1.3-.2-.3-.6-.4-1-.4-.5,0-.9.2-1.1.5-.3.3-.4.8-.4,1.4v.8c0,.5.1,1,.4,1.3s.7.4,1.2.4c.3,0,.5-.1.8-.2.3-.1.5-.3.7-.4l.9.9c-.3.3-.7.6-1.1.7-.4.2-.8.3-1.2.3-.6,0-1.1-.1-1.6-.4Z"/>
      <path class="cls-3" d="m250.9,239.4l3.1-6.7h1.3l-3,6.6h4.5v1.2h-5.9v-1.1Zm4-2.8h1.3v5.4h-1.3v-5.4h0Z"/>
    </g>
    <g>
      <path class="cls-1" d="m10.7,54.3h1.3v9.2h-1.3v-9.2Zm.7,8.1h2.5c.7,0,1.1-.1,1.4-.4s.5-.6.5-1.1h0c0-.3-.1-.6-.2-.8-.1-.2-.3-.4-.5-.5s-.5-.2-.9-.2h-2.8v-1.2h2.8c.5,0,.8-.1,1.1-.3.2-.2.4-.6.4-1,0-.5-.1-.8-.4-1s-.7-.3-1.2-.3h-2.6v-1.2h2.9c.6,0,1.1.1,1.5.3s.7.5.9.9.3.8.3,1.3c0,.3-.1.6-.2.9-.1.3-.3.5-.6.7-.3.2-.6.3-.9.4.4.1.7.2,1,.4s.5.5.6.8.2.7.2,1h0c0,.5-.1.9-.3,1.3s-.5.7-.9.9-.9.3-1.4.3h-3v-1.2h-.2Z"/>
      <path class="cls-1" d="m18.9,57h1.3v6.6h-1.3v-6.6Zm3.2,1.2c-.2-.1-.4-.1-.6-.1-.4,0-.7.1-1,.3-.2.2-.3.5-.3.9l-.1-1.3c.2-.4.5-.7.8-.9s.7-.3,1.1-.3c.3,0,.6,0,.8.1.2.1.5.2.6.4l-.8,1.1c-.1,0-.3-.1-.5-.2Z"/>
      <path class="cls-1" d="m25.5,63.3c-.4-.2-.8-.6-1-1s-.3-1-.3-1.6v-.7c0-.7.1-1.2.3-1.7.2-.5.5-.8.9-1.1s.9-.4,1.5-.4,1,.1,1.4.4.7.7.9,1.2c.2.5.3,1.1.3,1.9v.4h-4.4v-1h3.2c0-.5-.2-1-.4-1.3-.2-.3-.6-.4-1-.4-.5,0-.9.2-1.1.5-.3.3-.4.8-.4,1.4v.8c0,.5.1,1,.4,1.3s.7.4,1.2.4c.3,0,.5-.1.8-.2s.5-.3.7-.4l.9.9c-.3.3-.7.6-1.1.7-.4.2-.8.3-1.2.3-.6-.1-1.2-.2-1.6-.4Z"/>
      <path class="cls-1" d="m32.6,63.5c-.3-.1-.7-.2-1-.3s-.6-.3-.8-.6l.8-.9c.4.3.7.5,1.1.6s.7.2,1,.2c.5,0,.9-.1,1.2-.2.3-.2.4-.4.4-.7,0-.2-.1-.4-.2-.5s-.3-.2-.5-.2-.5-.1-.9-.1h-.4c-.4,0-.8-.1-1.1-.2-.3-.1-.5-.3-.7-.5s-.3-.6-.3-1.1.1-.9.3-1.2.5-.5.9-.7.8-.2,1.4-.2c.3,0,.7,0,1,.1s.6.2.9.3c.3.1.6.3.8.5l-.8.9c-.3-.2-.7-.4-1-.5-.4-.1-.7-.2-1-.2-.4,0-.8.1-1,.2-.2.1-.3.4-.3.7,0,.2.1.3.2.4s.3.1.5.2.5.1.8.1h.2c.5,0,.9.1,1.2.2.3.1.6.3.8.6s.3.7.3,1.2-.1.9-.3,1.2-.5.5-.9.7-.9.2-1.5.2c-.4-.1-.8-.1-1.1-.2Z"/>
      <path class="cls-1" d="m37.6,57h3v1.2h-3v-1.2Zm1,6.1c-.2-.3-.4-.7-.4-1.3v-6.8h1.3v6.8c0,.2,0,.3.1.4.1.1.2.1.3.1h.6v1.2h-.7c-.5.1-.9-.1-1.2-.4Z"/>
      <path class="cls-1" d="m22.9,74.4l3.2-4.3c.2-.2.3-.5.4-.8s.2-.5.2-.7h0c0-.4-.1-.7-.3-.9s-.5-.3-.9-.3-.7.1-.9.3c-.2.2-.4.5-.4.9h-1.3c.1-.5.2-1,.5-1.4.2-.4.5-.7.9-.9.4-.2.8-.3,1.3-.3.6,0,1,.1,1.4.3.4.2.7.5.9.8s.3.8.3,1.3h0c0,.3-.1.7-.2,1s-.3.7-.6,1l-2.7,3.6h3.5v1.2h-5.2v-.8h-.1Z"/>
    </g>
    <g>
      <path class="cls-1" d="m175.1,10.1h1.3v9.2h-1.3v-9.2Zm.6,8h5.3v1.2h-5.3v-1.2Z"/>
      <path class="cls-1" d="m182.4,10.1h1.3v1.3h-1.3v-1.3Zm0,2.7h1.3v6.6h-1.3v-6.6Z"/>
      <path class="cls-1" d="m186.9,17.7c0,.2,0,.3.1.4s.2.1.3.1h.6v1.2h-.8c-.5,0-.9-.2-1.1-.5-.3-.3-.4-.7-.4-1.3v-7.5h1.3v7.6h0Z"/>
      <path class="cls-1" d="m190.7,17.7c0,.2,0,.3.1.4s.2.1.3.1h.6v1.2h-.7c-.5,0-.9-.2-1.1-.5s-.4-.7-.4-1.3v-7.5h1.3v7.6h-.1Z"/>
      <path class="cls-1" d="m194.3,19.1c-.4-.2-.8-.6-1-1s-.3-1-.3-1.6v-.7c0-.7.1-1.2.3-1.7s.5-.8.9-1.1c.4-.2.9-.4,1.5-.4s1,.1,1.4.4c.4.3.7.7.9,1.2s.3,1.1.3,1.9v.4h-4.4v-1h3.2c0-.5-.2-1-.4-1.3s-.6-.4-1-.4c-.5,0-.9.2-1.1.5-.3.3-.4.8-.4,1.4v.8c0,.5.1,1,.4,1.3.3.3.7.4,1.2.4.3,0,.5-.1.8-.2s.5-.3.7-.4l.9.9c-.3.3-.7.6-1.1.7-.4.2-.8.3-1.2.3-.6,0-1.2-.1-1.6-.4Z"/>
      <path class="cls-1" d="m185.6,27.4v1.2h-4.3v-1.2h4.3Z"/>
      <path class="cls-1" d="m191.9,23.3l-2.4,8.1h-1.4l2.4-8h-2.3v1.3h-1.3v-2.6h5v1.2Z"/>
    </g>
    <g>
      <path class="cls-1" d="m139.2,45.5h1.3v9.2h-1.3v-9.2Zm.7,4.4h3c.3,0,.5-.1.7-.2s.4-.3.5-.6c.1-.2.2-.5.2-.8s-.1-.6-.2-.8c-.1-.2-.3-.4-.5-.6-.2-.1-.5-.2-.7-.2h-3v-1.2h2.9c.6,0,1,.1,1.5.4.4.2.7.6,1,1,.2.4.3.9.3,1.5s-.1,1.1-.3,1.5-.6.8-1,1-.9.3-1.5.3h-2.9v-1.3Z"/>
      <path class="cls-1" d="m147.2,54.3c-.4-.3-.6-.8-.6-1.5s.2-1.1.6-1.5.9-.5,1.7-.5h1.9l.1,1h-2c-.3,0-.6.1-.8.2-.2.1-.3.4-.3.7s.1.6.3.7c.2.2.6.2,1,.2.5,0,.9-.1,1.1-.2s.4-.3.4-.5l.1.9c-.1.2-.3.3-.4.4s-.4.2-.6.3c-.2.1-.5.1-.7.1-.8.2-1.4,0-1.8-.3Zm3.4-3.8c0-.4-.1-.8-.3-1s-.6-.4-1-.4c-.3,0-.5,0-.8.1s-.5.2-.7.3l-.9-.6c.2-.3.6-.5,1-.7s.9-.3,1.4-.3,1,.1,1.4.3.7.5.9.8c.2.4.3.8.3,1.3v4.2h-1.2v-4h-.1Z"/>
      <path class="cls-1" d="m153.8,48.1h1.3v6.6h-1.3v-6.6Zm3.2,1.2c-.2-.1-.4-.1-.6-.1-.4,0-.7.1-1,.3-.2.2-.3.5-.3.9l-.1-1.3c.2-.4.5-.7.8-.9s.7-.3,1.1-.3c.3,0,.6,0,.8.1s.5.2.6.4l-.8,1.1c-.2,0-.3-.1-.5-.2Z"/>
      <path class="cls-1" d="m159.3,45.5h1.3v1.3h-1.3v-1.3Zm0,2.6h1.3v6.6h-1.3v-6.6Z"/>
      <path class="cls-1" d="m163.8,54.7c-.3-.1-.7-.2-1-.3-.3-.2-.6-.3-.8-.6l.8-.9c.4.3.7.5,1.1.6.4.1.7.2,1,.2.5,0,.9-.1,1.2-.2.3-.2.4-.4.4-.7,0-.2-.1-.4-.2-.5s-.3-.2-.5-.2-.5-.1-.9-.1h-.4c-.4,0-.8-.1-1.1-.2-.3-.1-.5-.3-.7-.5s-.3-.6-.3-1.1.1-.9.3-1.2.5-.5.9-.7.8-.2,1.4-.2c.3,0,.7,0,1,.1s.6.2.9.3c.3.1.6.3.8.5l-.8.9c-.3-.2-.7-.4-1-.5s-.6-.2-.9-.2c-.4,0-.8.1-1,.2-.2.1-.3.4-.3.7,0,.2.1.3.2.4.1.1.3.1.5.2s.5.1.8.1h.2c.5,0,.9.1,1.2.2.3.1.6.3.8.6s.3.7.3,1.2-.1.9-.3,1.2-.5.5-.9.7-.9.2-1.5.2c-.5-.1-.8-.2-1.2-.2Z"/>
      <path class="cls-1" d="m151.7,62.8v1.2h-4.3v-1.2h4.3Z"/>
      <path class="cls-1" d="m153.5,64.2l3.1-6.7h1.3l-3,6.6h4.5v1.2h-5.9v-1.1h0Zm3.9-2.9h1.3v5.4h-1.3v-5.4Z"/>
    </g>
    <g>
      <path class="cls-1" d="m169.5,68.9h1.3v9.2h-1.3v-9.2Zm.6,4.1h3.1c.2,0,.5-.1.7-.2s.3-.3.4-.5c.1-.2.2-.5.2-.8s-.1-.5-.2-.8c-.1-.2-.2-.4-.4-.5s-.4-.2-.7-.2h-3.1v-1.2h3.1c.5,0,1,.1,1.4.3s.7.5.9.9.3.9.3,1.4-.1,1-.3,1.4-.5.7-.9.9c-.4.2-.9.3-1.4.3h-3.1v-1Zm2.5,1l1.3-.3,2.4,4.5h-1.5l-2.2-4.2Z"/>
      <path class="cls-1" d="m178.7,77.9c-.4-.2-.8-.6-1-1s-.3-1-.3-1.6v-.7c0-.7.1-1.2.3-1.7s.5-.8.9-1.1c.4-.2.9-.4,1.5-.4.5,0,1,.1,1.4.4s.7.7.9,1.2.3,1.1.3,1.9v.4h-4.4v-1h3.2c0-.5-.2-1-.4-1.3s-.6-.4-1-.4c-.5,0-.9.2-1.1.5s-.4.8-.4,1.4v.8c0,.5.1,1,.4,1.3.3.3.7.4,1.2.4.3,0,.5-.1.8-.2s.5-.3.7-.4l.9.9c-.3.3-.7.6-1.1.7-.4.2-.8.3-1.2.3-.6,0-1.1-.1-1.6-.4Z"/>
      <path class="cls-1" d="m184.6,68.9h1.3v1.3h-1.3v-1.3Zm0,2.7h1.3v6.6h-1.3v-6.6Z"/>
      <path class="cls-1" d="m187.8,71.6h1.3v6.6h-1.3v-6.6Zm4,2.6c0-.5-.1-.8-.3-1.1s-.6-.4-1-.4-.8.1-1,.3c-.2.2-.3.5-.3.9l-.1-1.3c.2-.4.5-.7.8-.9.3-.2.7-.3,1.1-.3.5,0,.9.1,1.2.3.3.2.6.5.7.9.2.4.3.9.3,1.5v4h-1.3v-3.9h-.1Zm3.9,0c0-.5-.1-.8-.4-1.1s-.6-.4-1-.4-.7.1-.9.4c-.2.2-.3.6-.3,1l-.3-1.3c.2-.4.5-.8.8-1s.7-.4,1.1-.4c.5,0,.9.1,1.2.3.3.2.6.5.8.9s.3.9.3,1.5v4h-1.3v-3.9h0Z"/>
      <path class="cls-1" d="m200.2,78.2c-.3-.1-.7-.2-1-.3-.3-.2-.6-.3-.8-.6l.8-.9c.4.3.7.5,1.1.6.4.1.7.2,1,.2.5,0,.9-.1,1.2-.2.3-.2.4-.4.4-.7,0-.2-.1-.4-.2-.5s-.3-.2-.5-.2-.5-.1-.9-.1h-.4c-.4,0-.8-.1-1.1-.2s-.5-.3-.7-.5-.3-.6-.3-1.1.1-.9.3-1.2.5-.5.9-.7.8-.2,1.4-.2c.3,0,.7,0,1,.1s.6.2.9.3c.3.1.6.3.8.5l-.8.9c-.3-.2-.7-.4-1-.5s-.6-.2-.9-.2c-.4,0-.8.1-1,.2s-.3.4-.3.7c0,.2.1.3.2.4s.3.1.5.2.5.1.8.1h.2c.5,0,.9.1,1.2.2s.6.3.8.6c.2.3.3.7.3,1.2s-.1.9-.3,1.2c-.2.3-.5.5-.9.7s-.9.2-1.5.2c-.5-.1-.9-.2-1.2-.2Z"/>
      <path class="cls-1" d="m185.3,86.2v1.2h-4.3v-1.2h4.3Z"/>
      <path class="cls-1" d="m188.2,90c-.4-.2-.7-.5-.9-.8-.2-.4-.4-.8-.5-1.3h1.3c0,.3.1.5.2.6s.3.3.5.4.4.1.7.1c.4,0,.8-.1,1-.3.2-.2.4-.6.4-1v-.3c0-.5-.1-.8-.3-1.1-.2-.3-.5-.4-1-.4h-.6v-1.2h.7c.4,0,.6-.1.8-.3.2-.2.3-.5.3-.9v-.3c0-.4-.1-.6-.3-.8-.2-.2-.5-.3-.9-.3-.2,0-.4,0-.6.1-.2.1-.3.2-.4.4-.1.2-.2.4-.3.6h-1.3c.1-.5.2-.9.5-1.3.2-.4.5-.6.9-.8.4-.2.8-.3,1.2-.3.8,0,1.4.2,1.8.6.4.4.7,1,.7,1.8v.2c0,.5-.1.9-.4,1.2-.2.3-.6.6-1.1.7.5.1.9.4,1.2.7.3.4.4.9.4,1.5v.2c0,.5-.1,1-.3,1.4s-.5.7-.9.9c-.4.2-.9.3-1.4.3-.6,0-1-.1-1.4-.3Z"/>
    </g>
    <g>
      <path class="cls-1" d="m223.2,59.5c-.4-.1-.8-.2-1.1-.4s-.7-.4-1-.6l.8-1c.4.3.7.5,1.2.7.4.2.9.2,1.4.2.7,0,1.2-.1,1.6-.4.4-.2.6-.6.6-1.1h0c0-.3-.1-.6-.3-.8s-.4-.3-.6-.4c-.3-.1-.6-.2-1-.3h-.1c-.6-.1-1.1-.2-1.5-.4-.4-.1-.7-.4-1-.7-.3-.4-.4-.9-.4-1.5h0c0-.6.1-1.1.4-1.5.3-.4.6-.7,1.1-.9s1.1-.3,1.8-.3c.3,0,.7,0,1,.1s.6.2.9.3c.3.1.6.3.9.5l-.7,1c-.4-.3-.7-.5-1.1-.6-.3-.1-.7-.2-1-.2-.6,0-1.1.1-1.5.4-.3.3-.5.6-.5,1.1h0c0,.3.1.6.3.7s.4.3.7.4c.3.1.6.2,1.1.3h.2c.6.1,1,.2,1.4.4s.7.4.9.8c.3.3.4.8.4,1.4h0c0,.6-.1,1-.4,1.4-.3.4-.7.7-1.2.9s-1.1.3-1.8.3c-.6.3-1.1.3-1.5.2Z"/>
      <path class="cls-1" d="m229.1,52.9h3v1.2h-3v-1.2Zm1.1,6.2c-.2-.3-.4-.7-.4-1.3v-6.8h1.3v6.8c0,.2,0,.3.1.4.1.1.2.1.3.1h.6v1.2h-.7c-.6.1-1-.1-1.2-.4Z"/>
      <path class="cls-1" d="m233.8,52.9h1.3v6.6h-1.3v-6.6Zm3.2,1.3c-.2-.1-.4-.1-.6-.1-.4,0-.7.1-1,.3-.2.2-.3.5-.3.9l-.1-1.3c.2-.4.5-.7.8-.9s.7-.3,1.1-.3c.3,0,.6,0,.8.1s.5.2.6.4l-.8,1.1c-.1,0-.3-.1-.5-.2Z"/>
      <path class="cls-1" d="m239.7,59.1c-.4-.3-.6-.8-.6-1.5s.2-1.1.6-1.5.9-.5,1.7-.5h1.9l.1,1h-2c-.3,0-.6.1-.8.2-.2.1-.3.4-.3.7s.1.6.3.7c.2.2.6.2,1,.2.5,0,.9-.1,1.1-.2s.4-.3.4-.5l.1.9c-.1.2-.3.3-.4.4s-.4.2-.6.3c-.2.1-.5.1-.7.1-.8.2-1.4.1-1.8-.3Zm3.4-3.7c0-.4-.1-.8-.3-1s-.6-.4-1-.4c-.3,0-.5,0-.8.1s-.5.2-.7.3l-.9-.6c.2-.3.6-.5,1-.7s.9-.3,1.4-.3,1,.1,1.4.3.7.5.9.8c.2.4.3.8.3,1.3v4.2h-1.2v-4h-.1Z"/>
      <path class="cls-1" d="m247.6,59.5c-.3-.1-.7-.2-1-.3-.3-.2-.6-.3-.8-.6l.8-.9c.4.3.7.5,1.1.6.4.1.7.2,1,.2.5,0,.9-.1,1.2-.2.3-.2.4-.4.4-.7,0-.2-.1-.4-.2-.5s-.3-.2-.5-.2-.5-.1-.9-.1h-.4c-.4,0-.8-.1-1.1-.2-.3-.1-.5-.3-.7-.5s-.3-.6-.3-1.1.1-.9.3-1.2.5-.5.9-.7.8-.2,1.4-.2c.3,0,.7,0,1,.1s.6.2.9.3c.3.1.6.3.8.5l-.8.9c-.3-.2-.7-.4-1-.5s-.6-.2-.9-.2c-.4,0-.8.1-1,.2-.2.1-.3.4-.3.7,0,.2.1.3.2.4.1.1.3.1.5.2s.5.1.8.1h.2c.5,0,.9.1,1.2.2.3.1.6.3.8.6s.3.7.3,1.2-.1.9-.3,1.2-.5.5-.9.7-.9.2-1.5.2c-.5-.1-.9-.1-1.2-.2Z"/>
      <path class="cls-1" d="m253.1,50.3h1.3v9.2h-1.3v-9.2Zm1.8,9c-.3-.2-.5-.5-.7-.8l.1-1.4c0,.3.1.5.2.7s.2.4.4.5.4.2.7.2c.4,0,.8-.1,1-.4.2-.3.4-.6.4-1.1v-1.4c0-.5-.1-.9-.4-1.1-.2-.3-.6-.4-1-.4-.3,0-.5.1-.7.2-.2.1-.3.3-.4.4-.1.2-.2.4-.2.7l-.1-1.3c.2-.4.5-.7.8-.9s.7-.3,1.1-.3c.5,0,.9.1,1.2.3.3.2.6.5.8.9.2.4.3.9.3,1.5v1.4c0,.6-.1,1-.3,1.4s-.4.7-.8.9c-.3.2-.8.3-1.2.3-.5,0-.9-.1-1.2-.3Z"/>
      <path class="cls-1" d="m261.2,59.3c-.4-.2-.7-.6-.9-1-.2-.4-.3-.9-.3-1.6v-1.1c0-.6.1-1.1.3-1.5.2-.4.5-.7.9-1,.4-.2.9-.3,1.5-.3s1.1.1,1.5.3.7.5.9,1c.2.4.3.9.3,1.5v1.1c0,.6-.1,1.1-.3,1.5-.2.4-.5.8-.9,1s-.9.3-1.5.3-1.1,0-1.5-.2Zm2.5-1.3c.2-.3.4-.7.4-1.2v-1.1c0-.5-.1-.9-.4-1.2-.2-.3-.6-.4-1.1-.4s-.8.1-1.1.4c-.2.3-.4.7-.4,1.2v1.1c0,.5.1.9.4,1.2.2.3.6.4,1.1.4s.9-.1,1.1-.4Z"/>
      <path class="cls-1" d="m268.3,56.9c0,.5.1.8.4,1.1.2.3.6.4,1,.4s.8-.1,1-.3.3-.5.3-1l.1,1.4c-.1.3-.4.6-.7.8s-.7.3-1.1.3c-.7,0-1.3-.2-1.7-.7-.4-.5-.6-1.1-.6-2v-4h1.3v4h0Zm2.7-4h1.3v6.6h-1.3v-6.6Z"/>
      <path class="cls-1" d="m274.3,52.9h1.3v6.6h-1.3v-6.6Zm3.2,1.3c-.2-.1-.4-.1-.6-.1-.4,0-.7.1-1,.3-.2.2-.3.5-.3.9l-.1-1.3c.2-.4.5-.7.8-.9s.7-.3,1.1-.3c.3,0,.6,0,.8.1.2.1.5.2.6.4l-.8,1.1c-.2,0-.3-.1-.5-.2Z"/>
      <path class="cls-1" d="m280.6,59.3c-.3-.2-.6-.5-.8-.9s-.3-.9-.3-1.4v-1.5c0-.6.1-1.1.3-1.5.2-.4.4-.7.8-.9.3-.2.7-.3,1.2-.3.4,0,.7.1,1.1.3.3.2.6.5.8.9l-.1,1.3c0-.3-.1-.5-.2-.7s-.2-.4-.4-.5c-.2-.1-.4-.2-.7-.2-.4,0-.8.1-1,.4-.2.3-.4.6-.4,1.1v1.6c0,.5.1.8.4,1.1.2.3.6.4,1,.4.3,0,.5-.1.7-.2.2-.1.3-.3.4-.5s.2-.4.2-.7l.1,1.4c-.1.3-.3.6-.6.8-.3.2-.7.3-1.1.3-.7,0-1.1-.1-1.4-.3Zm0,2.6c-.4-.2-.7-.4-.9-.8l.9-.8c.2.2.4.4.6.5s.5.2.7.2c.5,0,.9-.1,1.1-.4.3-.3.4-.7.4-1.2v-6.6h1.3v6.4c0,.6-.1,1.1-.3,1.6-.2.4-.5.8-1,1-.4.2-.9.3-1.5.3-.5.1-.9,0-1.3-.2Z"/>
      <path class="cls-1" d="m249.9,67.6v1.2h-4.3v-1.2h4.3Z"/>
      <path class="cls-1" d="m253.8,71.5h-1.3v-7.8l-1.3.8v-1.3l1.3-.9h1.3v9.2Z"/>
      <path class="cls-1" d="m255.8,70.4l3.2-4.3c.2-.2.3-.5.4-.8s.2-.5.2-.7h0c0-.4-.1-.7-.3-.9s-.5-.3-.9-.3-.7.1-.9.3c-.2.2-.4.5-.4.9h-1.3c.1-.5.2-1,.5-1.4.2-.4.5-.7.9-.9s.8-.3,1.3-.3,1,.1,1.4.3.7.5.9.8.3.8.3,1.3h0c0,.3-.1.7-.2,1-.1.4-.3.7-.6,1l-2.7,3.6h3.5v1.2h-5.2v-.8h-.1Z"/>
    </g>
    <g>
      <path class="cls-1" d="m211,108.5h1.3v9.2h-1.3v-9.2Zm.9,8h2.1c.7,0,1.2-.2,1.6-.5.4-.4.6-.9.6-1.5v-2.7c0-.6-.2-1.1-.6-1.5-.4-.4-.9-.5-1.6-.5h-2.1v-1.2h2.1c.7,0,1.4.1,1.9.4s.9.6,1.2,1.1.4,1.1.4,1.8v2.6c0,.7-.1,1.3-.4,1.8-.3.5-.7.9-1.2,1.1-.5.3-1.2.4-1.9.4h-2v-1.3h-.1Z"/>
      <path class="cls-1" d="m219.4,108.5h1.3v1.3h-1.3v-1.3Zm0,2.6h1.3v6.6h-1.3v-6.6Z"/>
      <path class="cls-1" d="m221.8,119.1h.7c.1,0,.2,0,.3-.1s.1-.2.1-.4v-7.5h1.3v7.5c0,.6-.1,1-.4,1.3s-.6.5-1.1.5h-.9v-1.3h0Zm1.1-10.6h1.3v1.3h-1.3v-1.3Z"/>
      <path class="cls-1" d="m227.2,117.5c-.4-.2-.7-.6-.9-1s-.3-.9-.3-1.6v-1.1c0-.6.1-1.1.3-1.5s.5-.7.9-1c.4-.2.9-.3,1.5-.3s1.1.1,1.5.3c.4.2.7.5.9,1,.2.4.3.9.3,1.5v1.1c0,.6-.1,1.1-.3,1.5s-.5.8-.9,1-.9.3-1.5.3-1.1,0-1.5-.2Zm2.5-1.4c.2-.3.4-.7.4-1.2v-1.1c0-.5-.1-.9-.4-1.2-.2-.3-.6-.4-1.1-.4s-.8.1-1.1.4c-.2.3-.4.7-.4,1.2v1.1c0,.5.1.9.4,1.2.2.3.6.4,1.1.4.5.1.9-.1,1.1-.4Z"/>
      <path class="cls-1" d="m233.2,111.1h1.3v6.6h-1.3v-6.6Zm4,2.6c0-.5-.1-.8-.4-1.1s-.6-.4-1-.4-.8.1-1,.3-.3.5-.3.9l-.1-1.3c.2-.4.5-.7.8-.9s.7-.3,1.1-.3c.7,0,1.3.2,1.7.7s.6,1.1.6,2v4h-1.3v-3.9h-.1Z"/>
      <path class="cls-1" d="m223.5,125.8v1.2h-4.3v-1.2h4.3Z"/>
      <path class="cls-1" d="m228.7,125.1v.2c-.1.2-.3.3-.5.4s-.5.1-.8.1c-.4,0-.8-.1-1.2-.3-.3-.2-.6-.5-.8-.9s-.3-.9-.3-1.4h0c0-.6.1-1.1.3-1.5s.5-.7.9-1c.4-.2.9-.3,1.4-.3s1,.1,1.4.3c.4.2.7.6.9,1s.3.9.3,1.5h0c0,.3,0,.7-.1,1.1s-.2.7-.4,1.1c0,.1-.1.1-.1.2s-.1.1-.1.2l-2,4h-1.4l2.5-4.7Zm0-.8c.2-.3.3-.7.3-1.2h0c0-.5-.1-.9-.3-1.1-.2-.3-.5-.4-.9-.4s-.7.1-.9.4-.3.6-.3,1.1h0c0,.5.1.9.3,1.2.2.3.5.4.9.4.4,0,.7-.1.9-.4Z"/>
    </g>
    <g>
      <path class="cls-1" d="m199.6,150.4v1.6c0,.7-.1,1.3-.4,1.8-.3.5-.6.9-1.1,1.2s-1.1.4-1.7.4c-.7,0-1.2-.1-1.7-.4s-.9-.6-1.1-1.1c-.3-.5-.4-1.1-.4-1.7v-2.7c0-.7.1-1.3.4-1.8s.6-.9,1.1-1.2,1.1-.4,1.7-.4c.5,0,1,.1,1.5.3.4.2.8.5,1.1,1,.3.4.5.9.6,1.4h-1.4c-.1-.3-.2-.6-.4-.8s-.4-.4-.6-.5c-.2-.1-.5-.2-.8-.2-.4,0-.7.1-1,.3s-.5.4-.7.8c-.2.3-.2.7-.2,1.1v2.7c0,.4.1.7.2,1,.2.3.4.5.7.7s.6.2,1,.2.7-.1,1-.3.5-.4.7-.7.2-.7.2-1.2v-.4h-1.9v-1.2h3.2v.1Z"/>
      <path class="cls-1" d="m201.5,148.7h1.3v6.6h-1.3v-6.6Zm3.2,1.3c-.2-.1-.4-.1-.6-.1-.4,0-.7.1-1,.3-.2.2-.3.5-.3.9l-.1-1.3c.2-.4.5-.7.8-.9s.7-.3,1.1-.3c.3,0,.6,0,.8.1s.5.2.6.4l-.8,1.1c-.2,0-.3-.2-.5-.2Z"/>
      <path class="cls-1" d="m208.1,155.1c-.4-.2-.8-.6-1-1s-.3-1-.3-1.6v-.7c0-.7.1-1.2.3-1.7s.5-.8.9-1.1c.4-.2.9-.4,1.5-.4s1,.1,1.4.4c.4.3.7.7.9,1.2s.3,1.1.3,1.9v.4h-4.4v-1h3.2c0-.5-.2-1-.4-1.3s-.6-.4-1-.4c-.5,0-.9.2-1.1.5-.3.3-.4.8-.4,1.4v.8c0,.5.1,1,.4,1.3.3.3.7.4,1.2.4.3,0,.5-.1.8-.2.3-.1.5-.3.7-.4l.9.9c-.3.3-.7.6-1.1.7-.4.2-.8.3-1.2.3-.7-.1-1.2-.2-1.6-.4Z"/>
      <path class="cls-1" d="m213.9,148.7h1.3v6.6h-1.3v-6.6Zm4,2.6c0-.5-.1-.8-.4-1.1s-.6-.4-1-.4-.8.1-1,.3-.3.5-.3.9l-.1-1.3c.2-.4.5-.7.8-.9s.7-.3,1.1-.3c.7,0,1.3.2,1.7.7s.6,1.1.6,2v4h-1.3v-3.9h-.1Z"/>
      <path class="cls-1" d="m222.2,155.1c-.4-.2-.7-.6-.9-1s-.3-.9-.3-1.6v-1.1c0-.6.1-1.1.3-1.5s.5-.7.9-1c.4-.2.9-.3,1.5-.3s1.1.1,1.5.3.7.5.9,1c.2.4.3.9.3,1.5v1.1c0,.6-.1,1.1-.3,1.5s-.5.8-.9,1-.9.3-1.5.3-1.1,0-1.5-.2Zm2.6-1.3c.2-.3.4-.7.4-1.2v-1.1c0-.5-.1-.9-.4-1.2-.2-.3-.6-.4-1.1-.4s-.8.1-1.1.4c-.2.3-.4.7-.4,1.2v1.1c0,.5.1.9.4,1.2.2.3.6.4,1.1.4s.8-.2,1.1-.4Z"/>
      <path class="cls-1" d="m228.3,146.1h1.3v9.2h-1.3v-9.2Zm1.8,9c-.3-.2-.5-.5-.7-.8l.1-1.4c0,.3.1.5.2.7.1.2.2.4.4.5s.4.2.7.2c.4,0,.8-.1,1-.4.2-.3.4-.6.4-1.1v-1.4c0-.5-.1-.9-.4-1.1-.2-.3-.6-.4-1-.4-.3,0-.5.1-.7.2-.2.1-.3.2-.4.4-.1.2-.2.4-.2.7l-.1-1.3c.2-.4.5-.7.8-.9s.7-.3,1.1-.3c.5,0,.9.1,1.2.3s.6.5.8.9.3.9.3,1.5v1.4c0,.6-.1,1-.3,1.4s-.4.7-.8.9c-.3.2-.8.3-1.2.3-.5,0-.9-.1-1.2-.3Z"/>
      <path class="cls-1" d="m236.6,153.6c0,.2,0,.3.1.4.1.1.2.1.3.1h.6v1.2h-.8c-.5,0-.9-.2-1.1-.5-.3-.3-.4-.7-.4-1.3v-7.5h1.3v7.6h0Z"/>
      <path class="cls-1" d="m240.2,155.1c-.4-.2-.8-.6-1-1s-.3-1-.3-1.6v-.7c0-.7.1-1.2.3-1.7s.5-.8.9-1.1c.4-.2.9-.4,1.5-.4.5,0,1,.1,1.4.4.4.3.7.7.9,1.2s.3,1.1.3,1.9v.4h-4.4v-1h3.2c0-.5-.2-1-.4-1.3s-.6-.4-1-.4c-.5,0-.9.2-1.1.5-.3.3-.4.8-.4,1.4v.8c0,.5.1,1,.4,1.3.3.3.7.4,1.2.4.3,0,.5-.1.8-.2.3-.1.5-.3.7-.4l.9.9c-.3.3-.7.6-1.1.7-.4.2-.8.3-1.2.3-.6-.1-1.1-.2-1.6-.4Z"/>
      <path class="cls-1" d="m217.4,163.4v1.2h-4.3v-1.2h4.3Z"/>
      <path class="cls-1" d="m219.2,166.2l3.2-4.3c.2-.2.3-.5.4-.8.1-.3.2-.5.2-.7h0c0-.4-.1-.7-.3-.9s-.5-.3-.9-.3-.7.1-.9.3-.4.5-.4.9h-1.5c.1-.5.2-1,.5-1.4.2-.4.5-.7.9-.9s.8-.3,1.3-.3c.6,0,1,.1,1.4.3s.7.5.9.8c.2.4.3.8.3,1.3h0c0,.3-.1.7-.2,1-.1.4-.3.7-.6,1l-2.7,3.6h3.5v1.2h-5.2v-.8h.1Z"/>
    </g>
    <g>
      <path class="cls-1" d="m107.9,194.6h6.5v1.2h-6.5v-1.2Zm2.6.8h1.3v8.5h-1.3v-8.5Z"/>
      <path class="cls-1" d="m115.6,203.6c-.4-.2-.7-.6-.9-1-.2-.4-.3-.9-.3-1.6v-1c0-.6.1-1.1.3-1.5.2-.4.5-.7.9-1,.4-.2.9-.3,1.5-.3s1.1.1,1.5.3.7.5.9,1c.2.4.3.9.3,1.5v1.1c0,.6-.1,1.1-.3,1.5-.2.4-.5.8-.9,1s-.9.3-1.5.3-1,0-1.5-.3Zm2.6-1.3c.2-.3.4-.7.4-1.2v-1.1c0-.5-.1-.9-.4-1.2-.2-.3-.6-.4-1.1-.4s-.8.1-1.1.4c-.2.3-.4.7-.4,1.2v1.1c0,.5.1.9.4,1.2.2.3.6.4,1.1.4s.8-.1,1.1-.4Z"/>
      <path class="cls-1" d="m122.8,201.3c0,.5.1.8.4,1.1.2.3.6.4,1,.4s.8-.1,1-.3.3-.5.3-1l.1,1.4c-.1.3-.4.6-.7.8-.3.2-.7.3-1.1.3-.7,0-1.3-.2-1.7-.7-.4-.5-.6-1.1-.6-2v-4h1.3v4h0Zm2.7-4h1.3v6.6h-1.3v-6.6Z"/>
      <path class="cls-1" d="m130,202.2c0,.2,0,.3.1.4.1.1.2.1.3.1h.6v1.2h-.8c-.5,0-.9-.2-1.1-.5-.3-.3-.4-.7-.4-1.3v-7.5h1.3v7.6h0Z"/>
      <path class="cls-1" d="m133.6,203.6c-.4-.2-.7-.6-.9-1s-.3-.9-.3-1.6v-1c0-.6.1-1.1.3-1.5s.5-.7.9-1c.4-.2.9-.3,1.5-.3s1.1.1,1.5.3.7.5.9,1c.2.4.3.9.3,1.5v1.1c0,.6-.1,1.1-.3,1.5s-.5.8-.9,1-.9.3-1.5.3-1.1,0-1.5-.3Zm2.5-1.3c.2-.3.4-.7.4-1.2v-1.1c0-.5-.1-.9-.4-1.2-.2-.3-.6-.4-1.1-.4s-.8.1-1.1.4c-.2.3-.4.7-.4,1.2v1.1c0,.5.1.9.4,1.2.2.3.6.4,1.1.4s.8-.1,1.1-.4Z"/>
      <path class="cls-1" d="m140.7,201.3c0,.5.1.8.4,1.1.2.3.6.4,1,.4s.8-.1,1-.3.3-.5.3-1l.1,1.4c-.1.3-.4.6-.7.8s-.7.3-1.1.3c-.7,0-1.3-.2-1.7-.7s-.6-1.1-.6-2v-4h1.3v4Zm2.7-4h1.3v6.6h-1.3v-6.6Z"/>
      <path class="cls-1" d="m147.9,203.9c-.3-.1-.7-.2-1-.3s-.6-.3-.8-.6l.8-.9c.4.3.7.5,1.1.6.4.1.7.2,1,.2.5,0,.9-.1,1.2-.2.3-.2.4-.4.4-.7,0-.2-.1-.4-.2-.5-.1-.1-.3-.2-.5-.2s-.5-.1-.9-.1h-.4c-.4,0-.8-.1-1.1-.2s-.5-.3-.7-.5-.3-.6-.3-1.1.1-.9.3-1.2.5-.5.9-.7.8-.2,1.4-.2c.3,0,.7,0,1,.1s.6.2.9.3c.3.1.6.3.8.5l-.8.9c-.3-.2-.7-.4-1-.5s-.6-.2-.9-.2c-.4,0-.8.1-1,.2-.2.2-.3.4-.3.7,0,.2.1.3.2.4s.3.1.5.2c.2,0,.5.1.8.1h.2c.5,0,.9.1,1.2.2.3.1.6.3.8.6s.3.7.3,1.2-.1.9-.3,1.2-.5.5-.9.7-.9.2-1.5.2c-.5-.1-.9-.2-1.2-.2Z"/>
      <path class="cls-1" d="m154.5,203.6c-.4-.2-.8-.6-1-1s-.3-1-.3-1.6v-.7c0-.7.1-1.2.3-1.7s.5-.8.9-1.1c.4-.2.9-.4,1.5-.4.5,0,1,.1,1.4.4.4.3.7.7.9,1.2s.3,1.1.3,1.9v.4h-4.4v-1h3.2c0-.5-.2-1-.4-1.3s-.6-.4-1-.4c-.5,0-.9.2-1.1.5-.3.3-.4.8-.4,1.4v.8c0,.5.1,1,.4,1.3.3.3.7.4,1.2.4.3,0,.5-.1.8-.2.3-.1.5-.3.7-.4l.9.9c-.3.3-.7.6-1.1.7-.4.2-.8.3-1.2.3-.6,0-1.1-.1-1.6-.4Z"/>
      <path class="cls-1" d="m133.8,211.9v1.2h-4.3v-1.2h4.3Z"/>
      <path class="cls-1" d="m137.7,215.9h-1.3v-7.8l-1.3.8v-1.3l1.3-.9h1.3v9.2Z"/>
    </g>
    <g>
      <path class="cls-1" d="m195.2,202.6h1.2v9.2h-1.3v-6.8l.1.4-2.3,5.2h-.9l-2.3-5.1.1-.5v6.9h-1.3v-9.2h1.2l2.7,6.1,2.8-6.2Z"/>
      <path class="cls-1" d="m198.9,211.5c-.4-.3-.6-.8-.6-1.5s.2-1.1.6-1.5c.4-.3.9-.5,1.7-.5h1.9l.1,1h-2c-.3,0-.6.1-.8.2s-.3.4-.3.7.1.6.3.7c.2.2.6.2,1,.2.5,0,.9-.1,1.1-.2.2-.1.4-.3.4-.5l.1.9c-.1.2-.3.3-.4.4-.2.1-.4.2-.6.3-.2.1-.5.1-.7.1-.8.2-1.4,0-1.8-.3Zm3.4-3.8c0-.4-.1-.8-.3-1s-.6-.4-1-.4c-.3,0-.5,0-.8.1s-.5.2-.7.3l-.9-.6c.2-.3.6-.5,1-.7s.9-.2,1.4-.2,1,.1,1.4.3.7.5.9.8c.2.4.3.8.3,1.3v4.2h-1.2v-4.1h-.1Z"/>
      <path class="cls-1" d="m205.5,205.3h1.3v6.6h-1.3v-6.6Zm3.2,1.2c-.2-.1-.4-.1-.6-.1-.4,0-.7.1-1,.3-.2.2-.3.5-.3.9l-.1-1.3c.2-.4.5-.7.8-.9s.7-.3,1.1-.3c.3,0,.6,0,.8.1s.5.2.6.4l-.8,1.1c-.2,0-.3-.1-.5-.2Z"/>
      <path class="cls-1" d="m212.3,211.9c-.3-.1-.7-.2-1-.3-.3-.2-.6-.3-.8-.6l.8-.9c.4.3.7.5,1.1.6.4.1.7.2,1,.2.5,0,.9-.1,1.2-.2.3-.2.4-.4.4-.7,0-.2-.1-.4-.2-.5-.1-.1-.3-.2-.5-.2s-.5-.1-.9-.1h-.4c-.4,0-.8-.1-1.1-.2-.3-.1-.5-.3-.7-.5s-.3-.6-.3-1.1.1-.9.3-1.2.5-.5.9-.7.8-.2,1.4-.2c.3,0,.7,0,1,.1s.6.2.9.3c.3.1.6.3.8.5l-.8.9c-.3-.2-.7-.4-1-.5s-.6-.2-.9-.2c-.4,0-.8.1-1,.2-.2.2-.3.4-.3.7,0,.2.1.3.2.4s.3.1.5.2c.2,0,.5.1.8.1h.2c.5,0,.9.1,1.2.2.3.1.6.3.8.6s.3.7.3,1.2-.1.9-.3,1.2-.5.5-.9.7-.9.2-1.5.2c-.5-.1-.9-.2-1.2-.2Z"/>
      <path class="cls-1" d="m219,211.6c-.4-.2-.8-.6-1-1s-.3-1-.3-1.6v-.7c0-.7.1-1.2.3-1.7s.5-.8.9-1.1c.4-.2.9-.4,1.5-.4.5,0,1,.1,1.4.4.4.3.7.7.9,1.2s.3,1.1.3,1.9v.4h-4.4v-1h3.2c0-.5-.2-1-.4-1.3s-.6-.4-1-.4c-.5,0-.9.2-1.1.5-.3.3-.4.8-.4,1.4v.8c0,.5.1,1,.4,1.3.3.3.7.4,1.2.4.3,0,.5-.1.8-.2.3-.1.5-.3.7-.4l.9.9c-.3.3-.7.6-1.1.7-.4.2-.8.3-1.2.3-.7,0-1.2-.1-1.6-.4Z"/>
      <path class="cls-1" d="m224.8,202.6h1.3v1.3h-1.3v-1.3Zm0,2.7h1.3v6.6h-1.3v-6.6Z"/>
      <path class="cls-1" d="m229.3,210.2c0,.2,0,.3.1.4.1.1.2.1.3.1h.6v1.2h-.8c-.5,0-.9-.2-1.1-.5s-.4-.7-.4-1.3v-7.5h1.3v7.6h0Z"/>
      <path class="cls-1" d="m233.1,210.2c0,.2,0,.3.1.4.1.1.2.1.3.1h.6v1.2h-.8c-.5,0-.9-.2-1.1-.5-.3-.3-.4-.7-.4-1.3v-7.5h1.3v7.6h0Z"/>
      <path class="cls-1" d="m236.7,211.6c-.4-.2-.8-.6-1-1s-.3-1-.3-1.6v-.7c0-.7.1-1.2.3-1.7s.5-.8.9-1.1c.4-.2.9-.4,1.5-.4.5,0,1,.1,1.4.4.4.3.7.7.9,1.2s.3,1.1.3,1.9v.4h-4.4v-1h3.2c0-.5-.2-1-.4-1.3s-.6-.4-1-.4c-.5,0-.9.2-1.1.5-.3.3-.4.8-.4,1.4v.8c0,.5.1,1,.4,1.3.3.3.7.4,1.2.4.3,0,.5-.1.8-.2.3-.1.5-.3.7-.4l.9.9c-.3.3-.7.6-1.1.7-.4.2-.8.3-1.2.3-.6,0-1.2-.1-1.6-.4Z"/>
      <path class="cls-1" d="m212.5,223.3c-.4-.5-.7-1.1-.7-1.9v-4.2c0-.8.2-1.5.7-1.9.4-.5,1.1-.7,2-.7s1.5.2,2,.7c.4.5.7,1.1.7,1.9v4.2c0,.8-.2,1.5-.7,1.9-.4.5-1.1.7-2,.7s-1.5-.3-2-.7Zm3-.9c.2-.2.3-.6.3-1v-4.2c0-.4-.1-.8-.3-1s-.6-.4-1-.4c-.5,0-.8.1-1,.4-.2.2-.3.6-.3,1v4.2c0,.4.1.8.3,1s.6.4,1,.4.8-.2,1-.4Z"/>
    </g>
    <g>
      <path class="cls-1" d="m242,220.8h1.2l4.5,7.1-.2.2v-7.3h1.3v9.2h-1.2l-4.5-7,.2-.2v7.2h-1.3v-9.2Z"/>
      <path class="cls-1" d="m251,220.8h1.3v1.3h-1.3v-1.3Zm0,2.6h1.3v6.6h-1.3v-6.6Z"/>
      <path class="cls-1" d="m255.3,229.7c-.4-.2-.8-.6-1-1s-.3-.9-.3-1.5v-1.1c0-.6.1-1.1.3-1.5s.5-.7,1-1c.4-.2.9-.3,1.5-.3.3,0,.7,0,1,.1s.6.2.8.4c.2.2.4.3.6.6l-.9.8c-.2-.2-.4-.4-.7-.5-.2-.1-.5-.2-.8-.2-.5,0-.9.1-1.2.4-.3.3-.4.7-.4,1.2v1.1c0,.5.1.9.4,1.2.3.3.7.4,1.2.4.3,0,.5-.1.8-.2.2-.1.5-.3.6-.5l.9.9c-.2.2-.4.4-.6.6s-.5.3-.8.4c-.3.1-.6.1-1,.1-.4,0-.9-.1-1.4-.4Z"/>
      <path class="cls-1" d="m261.8,229.7c-.4-.2-.8-.6-1-1s-.3-1-.3-1.6v-.7c0-.7.1-1.2.3-1.7.2-.5.5-.8.9-1.1.4-.2.9-.4,1.5-.4.5,0,1,.1,1.4.4.4.3.7.7.9,1.2s.3,1.1.3,1.9v.4h-4.4v-1h3.2c0-.5-.2-1-.4-1.3-.2-.3-.6-.4-1-.4-.5,0-.9.2-1.1.5-.3.3-.4.8-.4,1.4v.8c0,.5.1,1,.4,1.3s.7.4,1.2.4c.3,0,.5-.1.8-.2.3-.1.5-.3.7-.4l.9.9c-.3.3-.7.6-1.1.7-.4.2-.8.3-1.2.3-.6,0-1.1-.1-1.6-.4Z"/>
      <path class="cls-1" d="m250.9,239.4l3.1-6.7h1.3l-3,6.6h4.5v1.2h-5.9v-1.1Zm4-2.8h1.3v5.4h-1.3v-5.4h0Z"/>
    </g>
  </g>
</svg>