<?xml version="1.0" encoding="utf-8"?>
<!-- Generator: Adobe Illustrator 23.0.0, SVG Export Plug-In . SVG Version: 6.00 Build 0)  -->
<svg version="1.1" xmlns="http://www.w3.org/2000/svg" xmlns:xlink="http://www.w3.org/1999/xlink" x="0px" y="0px"
	 viewBox="0 0 413.6 308.7" style="enable-background:new 0 0 413.6 308.7;" xml:space="preserve">
<style type="text/css">
	.st0{display:none;}
	.st1{fill:none;stroke:#27AAE1;stroke-miterlimit:10;}
	.st2{fill:#ED1C24;fill-opacity:0.4;}
	.st3{fill:#27AAE1;fill-opacity:0.4;}
	.st4{fill:none;stroke:#000000;stroke-miterlimit:10;stroke-dasharray:3;}
	.st5{fill:none;stroke:#000000;stroke-linecap:round;stroke-miterlimit:10;}
	.st6{fill:none;stroke:#ED1C24;stroke-linecap:round;stroke-miterlimit:10;}
	.st7{fill:#1B75BC;}
	.st8{fill:#BE1E2D;}
	.st9{fill:none;stroke:#27AAE1;stroke-linecap:round;stroke-miterlimit:10;}
	.st10{fill:none;stroke:url(#SVGID_1_);stroke-miterlimit:10;}
	.st11{fill:none;stroke:#BE1E2D;stroke-miterlimit:10;}
	.st12{fill:none;stroke:url(#SVGID_2_);stroke-miterlimit:10;}
	.st13{fill:none;stroke:url(#SVGID_3_);stroke-miterlimit:10;}
	.st14{fill:none;stroke:#1B75BC;stroke-width:2;stroke-miterlimit:10;}
	.st15{fill:none;stroke:#000000;stroke-linejoin:round;}
</style>
<g id="Calque_1" class="st0">
</g>
<g id="Calque_2">
	<ellipse class="st1" cx="215.7" cy="156.4" rx="105.4" ry="113.3"/>
	<ellipse class="st2" cx="215.7" cy="156.4" rx="113.3" ry="36"/>
	<path class="st3" d="M204.9,176.5c-20.5-2.2-36.4-10.6-36.4-20h47.3L204.9,176.5z"/>
	<line class="st4" x1="215.7" y1="156.4" x2="102.5" y2="156.4"/>
	<path class="st3" d="M215.7,269.7c-11.2,0-20.3-50.7-20.3-113.3s9.1-113.3,20.3-113.3"/>
	<path class="st2" d="M251.2,167.1c-1.5,15.7-7,30.2-13.9,39.7l-21.6-50.4L251.2,167.1z"/>
	<path class="st5" d="M249,166.2c-7.5,4.1-19.6,6.8-33.3,6.8c-3,0-5.9-0.1-8.8-0.4"/>
	<path class="st6" d="M245.2,165.1c0.3-2.7,0.6-5.8,0.6-8.6c0-4.3-0.4-8.4-1.1-12.4"/>
	<path class="st6" d="M251.2,167.1c-1.5,15.7-7,30.2-13.9,39.7"/>
	<path class="st2" d="M245.2,165.3c0.3-2.7,0.6-5.8,0.6-8.6c0-4.3-0.4-8.4-1.1-12.4l-28.9,12.4L245.2,165.3z"/>
	<line class="st4" x1="215.7" y1="156.4" x2="298.1" y2="181.1"/>
	<ellipse class="st1" cx="215.7" cy="156.4" rx="20.3" ry="113.3"/>
	<g>
		<g>
			<path class="st7" d="M181.5,204.1c-0.6-0.6-0.9-1.4-0.9-2.5v-5.5c0-1.1,0.3-1.9,0.9-2.5c0.6-0.6,1.4-0.9,2.6-0.9
				c1.1,0,2,0.3,2.6,0.9c0.6,0.6,0.9,1.4,0.9,2.5v5.5c0,1.1-0.3,1.9-0.9,2.5c-0.6,0.6-1.4,0.9-2.6,0.9
				C182.9,205,182,204.7,181.5,204.1z M185.3,203c0.3-0.3,0.4-0.8,0.4-1.3v-5.5c0-0.6-0.1-1-0.4-1.3c-0.3-0.3-0.7-0.5-1.3-0.5
				s-1,0.2-1.3,0.5c-0.3,0.3-0.4,0.8-0.4,1.3v5.5c0,0.6,0.1,1,0.4,1.3c0.3,0.3,0.7,0.5,1.3,0.5S185.1,203.3,185.3,203z"/>
			<path class="st7" d="M190,197c-0.4-0.4-0.6-1-0.6-1.8c0-0.8,0.2-1.4,0.6-1.8c0.4-0.4,1-0.6,1.8-0.6c0.8,0,1.4,0.2,1.8,0.6
				s0.6,1,0.6,1.8c0,0.8-0.2,1.4-0.6,1.8s-1,0.6-1.8,0.6C191,197.7,190.4,197.5,190,197z M192.6,196c0.2-0.2,0.3-0.5,0.3-0.9
				c0-0.4-0.1-0.6-0.3-0.8c-0.2-0.2-0.4-0.3-0.8-0.3s-0.6,0.1-0.8,0.3c-0.2,0.2-0.3,0.5-0.3,0.9s0.1,0.7,0.3,0.9s0.4,0.3,0.8,0.3
				C192.1,196.4,192.4,196.3,192.6,196z"/>
		</g>
	</g>
	<g>
		<g>
			<path class="st7" d="M170.2,180l0,0.3c-0.1,0.3-0.3,0.4-0.6,0.6c-0.3,0.1-0.6,0.2-1,0.2c-0.6,0-1.1-0.1-1.5-0.4s-0.8-0.7-1-1.2
				c-0.2-0.5-0.4-1.2-0.4-1.9v0c0-0.8,0.1-1.4,0.4-2c0.3-0.6,0.6-1,1.2-1.3c0.5-0.3,1.1-0.4,1.8-0.4s1.3,0.1,1.8,0.4
				s0.9,0.7,1.1,1.3c0.3,0.6,0.4,1.2,0.4,2v0c0,0.4-0.1,0.9-0.2,1.4c-0.1,0.5-0.3,1-0.5,1.5c0,0.1-0.1,0.1-0.1,0.2
				c0,0.1-0.1,0.1-0.1,0.2l-2.6,5.2h-1.8L170.2,180z M170.3,178.9c0.3-0.4,0.4-0.9,0.4-1.5v0c0-0.6-0.1-1.1-0.4-1.5
				c-0.3-0.3-0.7-0.5-1.2-0.5c-0.5,0-1,0.2-1.2,0.5c-0.3,0.3-0.4,0.8-0.4,1.5v0c0,0.7,0.1,1.2,0.4,1.5c0.3,0.4,0.7,0.5,1.2,0.5
				C169.6,179.4,170,179.3,170.3,178.9z"/>
			<path class="st7" d="M175.6,185.2c-0.6-0.6-0.9-1.4-0.9-2.5v-5.5c0-1.1,0.3-1.9,0.9-2.5c0.6-0.6,1.4-0.9,2.6-0.9
				c1.1,0,2,0.3,2.6,0.9c0.6,0.6,0.9,1.4,0.9,2.5v5.5c0,1.1-0.3,1.9-0.9,2.5c-0.6,0.6-1.4,0.9-2.6,0.9
				C177,186.1,176.1,185.8,175.6,185.2z M179.5,184c0.3-0.3,0.4-0.8,0.4-1.3v-5.5c0-0.6-0.1-1-0.4-1.3c-0.3-0.3-0.7-0.5-1.3-0.5
				s-1,0.2-1.3,0.5c-0.3,0.3-0.4,0.8-0.4,1.3v5.5c0,0.6,0.1,1,0.4,1.3c0.3,0.3,0.7,0.5,1.3,0.5S179.2,184.3,179.5,184z"/>
			<path class="st7" d="M184.1,178.1c-0.4-0.4-0.6-1-0.6-1.8c0-0.8,0.2-1.4,0.6-1.8c0.4-0.4,1-0.6,1.8-0.6c0.8,0,1.4,0.2,1.8,0.6
				s0.6,1,0.6,1.8c0,0.8-0.2,1.4-0.6,1.8s-1,0.6-1.8,0.6C185.1,178.7,184.5,178.5,184.1,178.1z M186.7,177.1
				c0.2-0.2,0.3-0.5,0.3-0.9c0-0.4-0.1-0.6-0.3-0.8c-0.2-0.2-0.4-0.3-0.8-0.3s-0.6,0.1-0.8,0.3c-0.2,0.2-0.3,0.5-0.3,0.9
				s0.1,0.7,0.3,0.9s0.4,0.3,0.8,0.3C186.2,177.4,186.5,177.3,186.7,177.1z"/>
		</g>
	</g>
	<g>
		<g>
			<path class="st8" d="M334.9,169.1c-0.6-0.6-0.9-1.4-0.9-2.5v-5.5c0-1.1,0.3-1.9,0.9-2.5c0.6-0.6,1.4-0.9,2.6-0.9
				c1.1,0,2,0.3,2.6,0.9c0.6,0.6,0.9,1.4,0.9,2.5v5.5c0,1.1-0.3,1.9-0.9,2.5c-0.6,0.6-1.4,0.9-2.6,0.9
				C336.4,170,335.5,169.7,334.9,169.1z M338.8,168c0.3-0.3,0.4-0.8,0.4-1.3v-5.5c0-0.6-0.1-1-0.4-1.3c-0.3-0.3-0.7-0.5-1.3-0.5
				s-1,0.2-1.3,0.5c-0.3,0.3-0.4,0.8-0.4,1.3v5.5c0,0.6,0.1,1,0.4,1.3c0.3,0.3,0.7,0.5,1.3,0.5S338.5,168.3,338.8,168z"/>
			<path class="st8" d="M343.5,162c-0.4-0.4-0.6-1-0.6-1.8c0-0.8,0.2-1.4,0.6-1.8c0.4-0.4,1-0.6,1.8-0.6c0.8,0,1.4,0.2,1.8,0.6
				s0.6,1,0.6,1.8c0,0.8-0.2,1.4-0.6,1.8s-1,0.6-1.8,0.6C344.5,162.7,343.9,162.5,343.5,162z M346,161c0.2-0.2,0.3-0.5,0.3-0.9
				c0-0.4-0.1-0.6-0.3-0.8c-0.2-0.2-0.4-0.3-0.8-0.3s-0.6,0.1-0.8,0.3c-0.2,0.2-0.3,0.5-0.3,0.9s0.1,0.7,0.3,0.9s0.4,0.3,0.8,0.3
				C345.6,161.4,345.9,161.3,346,161z"/>
		</g>
	</g>
	<g>
		<g>
			<path class="st8" d="M346.1,83.6h1.7v12.1h-1.7V83.6z M347,89.4h3.9c0.4,0,0.7-0.1,1-0.3s0.5-0.4,0.6-0.7
				c0.2-0.3,0.2-0.7,0.2-1.1c0-0.4-0.1-0.8-0.2-1.1c-0.2-0.3-0.4-0.6-0.6-0.7c-0.3-0.2-0.6-0.3-1-0.3H347v-1.6h3.8
				c0.7,0,1.4,0.2,1.9,0.5c0.5,0.3,1,0.7,1.3,1.3c0.3,0.6,0.5,1.2,0.5,1.9s-0.2,1.4-0.5,1.9c-0.3,0.6-0.7,1-1.3,1.3
				s-1.2,0.5-1.9,0.5H347V89.4z"/>
			<path class="st8" d="M356.9,95.2c-0.5-0.4-0.8-1.1-0.8-2c0-0.9,0.2-1.5,0.7-1.9s1.2-0.6,2.2-0.6h2.4l0.1,1.4H359
				c-0.4,0-0.8,0.1-1,0.3c-0.2,0.2-0.3,0.5-0.3,0.9c0,0.4,0.1,0.8,0.4,1c0.3,0.2,0.7,0.3,1.3,0.3c0.6,0,1.1-0.1,1.4-0.2
				c0.3-0.1,0.5-0.4,0.5-0.6l0.2,1.2c-0.1,0.2-0.3,0.4-0.6,0.6c-0.2,0.1-0.5,0.3-0.8,0.3c-0.3,0.1-0.6,0.1-1,0.1
				C358.2,95.8,357.4,95.6,356.9,95.2z M361.4,90.2c0-0.6-0.2-1-0.5-1.3c-0.3-0.3-0.7-0.5-1.3-0.5c-0.3,0-0.7,0.1-1,0.2
				c-0.3,0.1-0.6,0.3-0.9,0.4l-1.2-0.8c0.3-0.4,0.8-0.7,1.3-0.9c0.5-0.2,1.1-0.3,1.8-0.3c0.7,0,1.3,0.1,1.8,0.4
				c0.5,0.3,0.9,0.6,1.2,1.1c0.3,0.5,0.4,1.1,0.4,1.7v5.5h-1.6V90.2z"/>
			<path class="st8" d="M365.6,87.1h1.7v8.6h-1.7V87.1z M369.8,88.7c-0.2-0.1-0.5-0.1-0.8-0.1c-0.5,0-1,0.1-1.2,0.4
				c-0.3,0.3-0.4,0.7-0.4,1.2l-0.2-1.7c0.3-0.5,0.6-0.9,1-1.2c0.4-0.3,0.9-0.4,1.4-0.4c0.4,0,0.7,0.1,1.1,0.2
				c0.3,0.1,0.6,0.3,0.8,0.5l-1.1,1.5C370.2,88.9,370,88.8,369.8,88.7z"/>
			<path class="st8" d="M373.2,95.2c-0.5-0.4-0.8-1.1-0.8-2c0-0.9,0.2-1.5,0.7-1.9s1.2-0.6,2.2-0.6h2.4l0.1,1.4h-2.6
				c-0.4,0-0.8,0.1-1,0.3c-0.2,0.2-0.3,0.5-0.3,0.9c0,0.4,0.1,0.8,0.4,1c0.3,0.2,0.7,0.3,1.3,0.3c0.6,0,1.1-0.1,1.4-0.2
				c0.3-0.1,0.5-0.4,0.5-0.6l0.2,1.2c-0.1,0.2-0.3,0.4-0.6,0.6c-0.2,0.1-0.5,0.3-0.8,0.3c-0.3,0.1-0.6,0.1-1,0.1
				C374.5,95.8,373.7,95.6,373.2,95.2z M377.7,90.2c0-0.6-0.2-1-0.5-1.3c-0.3-0.3-0.7-0.5-1.3-0.5c-0.3,0-0.7,0.1-1,0.2
				c-0.3,0.1-0.6,0.3-0.9,0.4l-1.2-0.8c0.3-0.4,0.8-0.7,1.3-0.9c0.5-0.2,1.1-0.3,1.8-0.3c0.7,0,1.3,0.1,1.8,0.4
				c0.5,0.3,0.9,0.6,1.2,1.1c0.3,0.5,0.4,1.1,0.4,1.7v5.5h-1.6V90.2z"/>
			<path class="st8" d="M383.6,93.5c0,0.2,0,0.4,0.1,0.5c0.1,0.1,0.2,0.2,0.4,0.2h0.8v1.6h-1c-0.6,0-1.1-0.2-1.5-0.6s-0.5-1-0.5-1.7
				v-9.8h1.7V93.5z"/>
			<path class="st8" d="M388.5,93.5c0,0.2,0,0.4,0.1,0.5c0.1,0.1,0.2,0.2,0.4,0.2h0.8v1.6h-1c-0.6,0-1.1-0.2-1.5-0.6s-0.5-1-0.5-1.7
				v-9.8h1.7V93.5z"/>
			<path class="st8" d="M394.1,95.8c0,0-0.3-0.1-0.8-0.4s-1-0.7-1.3-1.3c-0.3-0.6-0.4-1.3-0.4-2.1v-1c0-0.9,0.1-1.6,0.4-2.2
				s0.7-1.1,1.2-1.4c0.5-0.3,1.2-0.5,2-0.5c0.7,0,1.3,0.2,1.8,0.5c0.5,0.4,0.9,0.9,1.2,1.6s0.4,1.5,0.4,2.4v0.6h-5.8v-1.4h4.2
				c0-0.7-0.2-1.2-0.5-1.6c-0.3-0.4-0.7-0.6-1.3-0.6c-0.6,0-1.1,0.2-1.5,0.6s-0.5,1-0.5,1.8V92c0,0.7,0.2,1.3,0.6,1.6
				s0.9,0.6,1.6,0.6c0.3,0,0.7-0.1,1-0.2s0.6-0.3,0.9-0.6l1.1,1.1c-0.4,0.4-0.9,0.7-1.4,1c-0.5,0.2-1.1,0.3-1.6,0.3
				C394.5,95.8,394.1,95.8,394.1,95.8z M392.3,82.6l1.2-1l2.4,2.9l-1.1,0.9L392.3,82.6z"/>
			<path class="st8" d="M402.5,93.5c0,0.2,0,0.4,0.1,0.5c0.1,0.1,0.2,0.2,0.4,0.2h0.8v1.6h-1c-0.6,0-1.1-0.2-1.5-0.6s-0.5-1-0.5-1.7
				v-9.8h1.7V93.5z"/>
			<path class="st8" d="M408.1,95.8c0,0-0.3-0.1-0.8-0.4s-1-0.7-1.3-1.3c-0.3-0.6-0.4-1.3-0.4-2.1v-1c0-0.9,0.1-1.6,0.4-2.2
				s0.7-1.1,1.2-1.4c0.5-0.3,1.2-0.5,2-0.5c0.7,0,1.3,0.2,1.8,0.5c0.5,0.4,0.9,0.9,1.2,1.6s0.4,1.5,0.4,2.4v0.6h-5.8v-1.4h4.2
				c0-0.7-0.2-1.2-0.5-1.6c-0.3-0.4-0.7-0.6-1.3-0.6c-0.6,0-1.1,0.2-1.5,0.6s-0.5,1-0.5,1.8V92c0,0.7,0.2,1.3,0.6,1.6
				s0.9,0.6,1.6,0.6c0.3,0,0.7-0.1,1-0.2s0.6-0.3,0.9-0.6l1.1,1.1c-0.4,0.4-0.9,0.7-1.4,1c-0.5,0.2-1.1,0.3-1.6,0.3
				C408.5,95.8,408.1,95.8,408.1,95.8z"/>
			<path class="st8" d="M346.8,115.1c-0.5-1.3-0.7-2.8-0.7-4.4s0.2-3.1,0.7-4.4c0.5-1.3,1.2-2.5,2.2-3.6l1.2,1.1
				c-0.8,0.9-1.5,2-1.9,3.1s-0.6,2.4-0.6,3.8s0.2,2.7,0.6,3.8s1,2.2,1.9,3.1l-1.2,1C348.1,117.6,347.3,116.4,346.8,115.1z"/>
			<path class="st8" d="M353.4,113.9c0,0.2,0,0.4,0.1,0.5c0.1,0.1,0.2,0.2,0.4,0.2h0.8v1.6h-1c-0.6,0-1.1-0.2-1.5-0.6
				c-0.4-0.4-0.5-1-0.5-1.7V104h1.7V113.9z"/>
			<path class="st8" d="M357,115.6c-0.5-0.4-0.8-1.1-0.8-2c0-0.9,0.2-1.5,0.7-1.9s1.2-0.6,2.2-0.6h2.4l0.1,1.4h-2.6
				c-0.4,0-0.8,0.1-1,0.3c-0.2,0.2-0.3,0.5-0.3,0.9c0,0.4,0.1,0.8,0.4,1c0.3,0.2,0.7,0.3,1.3,0.3c0.6,0,1.1-0.1,1.4-0.2
				c0.3-0.1,0.5-0.4,0.5-0.6l0.2,1.2c-0.1,0.2-0.3,0.4-0.6,0.6c-0.2,0.1-0.5,0.3-0.8,0.3c-0.3,0.1-0.6,0.1-1,0.1
				C358.3,116.2,357.5,116,357,115.6z M361.5,110.6c0-0.6-0.2-1-0.5-1.3c-0.3-0.3-0.7-0.5-1.3-0.5c-0.3,0-0.7,0.1-1,0.2
				c-0.3,0.1-0.6,0.3-0.9,0.4l-1.2-0.8c0.3-0.4,0.8-0.7,1.3-0.9c0.5-0.2,1.1-0.3,1.8-0.3c0.7,0,1.3,0.1,1.8,0.4
				c0.5,0.3,0.9,0.6,1.2,1.1c0.3,0.5,0.4,1.1,0.4,1.7v5.5h-1.6V110.6z"/>
			<path class="st8" d="M365,107.5h3.9v1.5H365V107.5z M366.4,115.6c-0.3-0.4-0.5-1-0.5-1.7V105h1.7v8.9c0,0.2,0,0.4,0.1,0.5
				c0.1,0.1,0.2,0.2,0.4,0.2h0.8v1.6h-1C367.2,116.1,366.7,115.9,366.4,115.6z"/>
			<path class="st8" d="M371.2,104h1.7v1.7h-1.7V104z M371.2,107.5h1.7v8.6h-1.7V107.5z"/>
			<path class="st8" d="M374.8,107.5h3.9v1.5h-3.9V107.5z M376.2,115.6c-0.3-0.4-0.5-1-0.5-1.7V105h1.7v8.9c0,0.2,0,0.4,0.1,0.5
				c0.1,0.1,0.2,0.2,0.4,0.2h0.8v1.6h-1C377,116.1,376.5,115.9,376.2,115.6z"/>
			<path class="st8" d="M382.7,112.7c0,0.6,0.2,1.1,0.5,1.4c0.3,0.3,0.7,0.5,1.3,0.5c0.6,0,1-0.1,1.3-0.4c0.3-0.3,0.5-0.7,0.5-1.3
				l0.1,1.8c-0.2,0.4-0.5,0.8-0.9,1.1s-0.9,0.4-1.5,0.4c-1,0-1.7-0.3-2.2-0.9c-0.5-0.6-0.8-1.5-0.8-2.6v-5.2h1.7V112.7z
				 M386.2,107.5h1.7v8.6h-1.7V107.5z"/>
			<path class="st8" d="M391.6,115.8c-0.4-0.3-0.8-0.7-1-1.2s-0.3-1.2-0.3-1.9v-1.9c0-0.7,0.1-1.4,0.3-1.9c0.2-0.5,0.6-0.9,1-1.2
				c0.4-0.3,1-0.4,1.6-0.4c0.5,0,1,0.1,1.4,0.4c0.4,0.3,0.8,0.6,1,1.1l-0.2,1.8c0-0.4-0.1-0.7-0.2-0.9s-0.3-0.5-0.6-0.6
				c-0.3-0.1-0.6-0.2-0.9-0.2c-0.6,0-1,0.2-1.3,0.5c-0.3,0.3-0.5,0.8-0.5,1.5v1.9c0,0.6,0.2,1.1,0.5,1.4c0.3,0.3,0.7,0.5,1.3,0.5
				c0.4,0,0.7-0.1,0.9-0.2c0.3-0.1,0.4-0.3,0.6-0.6s0.2-0.6,0.2-1l0.1,1.8c-0.2,0.4-0.5,0.8-0.8,1.1c-0.4,0.3-0.9,0.4-1.4,0.4
				C392.6,116.2,392.1,116.1,391.6,115.8z M395.4,104h1.7v12.1h-1.7V104z"/>
			<path class="st8" d="M402,116.2c0,0-0.3-0.1-0.8-0.4s-1-0.7-1.3-1.3c-0.3-0.6-0.4-1.3-0.4-2.1v-1c0-0.9,0.1-1.6,0.4-2.2
				s0.7-1.1,1.2-1.4c0.5-0.3,1.2-0.5,2-0.5c0.7,0,1.3,0.2,1.8,0.5c0.5,0.4,0.9,0.9,1.2,1.6s0.4,1.5,0.4,2.4v0.6h-5.8v-1.4h4.2
				c0-0.7-0.2-1.2-0.5-1.6c-0.3-0.4-0.7-0.6-1.3-0.6c-0.6,0-1.1,0.2-1.5,0.6s-0.5,1-0.5,1.8v1.1c0,0.7,0.2,1.3,0.6,1.6
				s0.9,0.6,1.6,0.6c0.3,0,0.7-0.1,1-0.2s0.6-0.3,0.9-0.6l1.1,1.1c-0.4,0.4-0.9,0.7-1.4,1c-0.5,0.2-1.1,0.3-1.6,0.3
				C402.4,116.2,402,116.2,402,116.2z"/>
			<path class="st8" d="M407.6,117.7c0.8-0.9,1.5-2,1.9-3.1s0.6-2.4,0.6-3.8s-0.2-2.7-0.6-3.8s-1-2.2-1.9-3.1l1.2-1.1
				c1,1.1,1.7,2.3,2.2,3.6c0.5,1.3,0.7,2.8,0.7,4.4s-0.2,3.1-0.7,4.4c-0.5,1.3-1.2,2.5-2.2,3.6L407.6,117.7z"/>
		</g>
	</g>
	<g>
		<g>
			<path class="st8" d="M346.1,193.8h1.7v12.1h-1.7V193.8z M346.9,193.8h6.9v1.6h-6.9V193.8z M346.9,199h6v1.6h-6V199z M346.9,204.2
				h6.9v1.6h-6.9V204.2z M349.4,192l2.3-2l1.1,1.1l-2.4,1.9L349.4,192z"/>
			<path class="st8" d="M357.2,205.6c-0.4-0.3-0.8-0.7-1-1.2s-0.3-1.2-0.3-1.9v-1.9c0-0.7,0.1-1.4,0.3-1.9s0.6-0.9,1-1.2
				c0.4-0.3,1-0.4,1.6-0.4c0.5,0,1,0.1,1.4,0.4c0.4,0.3,0.8,0.6,1,1.1l-0.2,1.8c0-0.4-0.1-0.7-0.2-0.9s-0.3-0.5-0.6-0.6
				c-0.3-0.1-0.6-0.2-0.9-0.2c-0.6,0-1,0.2-1.3,0.5c-0.3,0.3-0.5,0.8-0.5,1.5v1.9c0,0.6,0.2,1.1,0.5,1.4c0.3,0.3,0.7,0.5,1.3,0.5
				c0.4,0,0.7-0.1,0.9-0.2c0.3-0.1,0.4-0.3,0.6-0.6s0.2-0.6,0.2-1l0.1,1.8c-0.2,0.4-0.5,0.8-0.8,1.1c-0.4,0.3-0.9,0.4-1.4,0.4
				C358.2,206,357.7,205.9,357.2,205.6z M361,197.2h1.7v12.1H361V197.2z"/>
			<path class="st8" d="M367,202.5c0,0.6,0.2,1.1,0.5,1.4c0.3,0.3,0.7,0.5,1.3,0.5c0.6,0,1-0.1,1.3-0.4s0.5-0.7,0.5-1.3l0.1,1.8
				c-0.2,0.4-0.5,0.8-0.9,1.1s-0.9,0.4-1.5,0.4c-1,0-1.7-0.3-2.2-0.9c-0.5-0.6-0.8-1.5-0.8-2.6v-5.2h1.7V202.5z M370.5,197.2h1.7
				v8.6h-1.7V197.2z"/>
			<path class="st8" d="M375.1,205.3c-0.5-0.4-0.8-1.1-0.8-2c0-0.9,0.2-1.5,0.7-1.9s1.2-0.6,2.2-0.6h2.4l0.1,1.4h-2.6
				c-0.4,0-0.8,0.1-1,0.3c-0.2,0.2-0.3,0.5-0.3,0.9c0,0.4,0.1,0.8,0.4,1c0.3,0.2,0.7,0.3,1.3,0.3c0.6,0,1.1-0.1,1.4-0.2
				c0.3-0.1,0.5-0.4,0.5-0.6l0.2,1.2c-0.1,0.2-0.3,0.4-0.6,0.6c-0.2,0.1-0.5,0.3-0.8,0.3c-0.3,0.1-0.6,0.1-1,0.1
				C376.4,206,375.6,205.7,375.1,205.3z M379.6,200.4c0-0.6-0.2-1-0.5-1.3c-0.3-0.3-0.7-0.5-1.3-0.5c-0.3,0-0.7,0.1-1,0.2
				c-0.3,0.1-0.6,0.3-0.9,0.4l-1.2-0.8c0.3-0.4,0.8-0.7,1.3-0.9c0.5-0.2,1.1-0.3,1.8-0.3c0.7,0,1.3,0.1,1.8,0.4
				c0.5,0.3,0.9,0.6,1.2,1.1c0.3,0.5,0.4,1.1,0.4,1.7v5.5h-1.6V200.4z"/>
			<path class="st8" d="M383.1,197.2h3.9v1.5h-3.9V197.2z M384.5,205.3c-0.3-0.4-0.5-1-0.5-1.7v-8.9h1.7v8.9c0,0.2,0,0.4,0.1,0.5
				c0.1,0.1,0.2,0.2,0.4,0.2h0.8v1.6h-1C385.3,205.9,384.8,205.7,384.5,205.3z"/>
			<path class="st8" d="M391.6,206c0,0-0.3-0.1-0.8-0.4s-1-0.7-1.3-1.3c-0.3-0.6-0.4-1.3-0.4-2.1v-1c0-0.9,0.1-1.6,0.4-2.2
				s0.7-1.1,1.2-1.4c0.5-0.3,1.2-0.5,2-0.5c0.7,0,1.3,0.2,1.8,0.5c0.5,0.4,0.9,0.9,1.2,1.6s0.4,1.5,0.4,2.4v0.6h-5.8v-1.4h4.2
				c0-0.7-0.2-1.2-0.5-1.6c-0.3-0.4-0.7-0.6-1.3-0.6c-0.6,0-1.1,0.2-1.5,0.6s-0.5,1-0.5,1.8v1.1c0,0.7,0.2,1.3,0.6,1.6
				s0.9,0.6,1.6,0.6c0.3,0,0.7-0.1,1-0.2s0.6-0.3,0.9-0.6l1.1,1.1c-0.4,0.4-0.9,0.7-1.4,1c-0.5,0.2-1.1,0.3-1.6,0.3
				C392,206,391.6,206,391.6,206z"/>
			<path class="st8" d="M400.1,202.5c0,0.6,0.2,1.1,0.5,1.4c0.3,0.3,0.7,0.5,1.3,0.5c0.6,0,1-0.1,1.3-0.4c0.3-0.3,0.5-0.7,0.5-1.3
				l0.1,1.8c-0.2,0.4-0.5,0.8-0.9,1.1s-0.9,0.4-1.5,0.4c-1,0-1.7-0.3-2.2-0.9c-0.5-0.6-0.8-1.5-0.8-2.6v-5.2h1.7V202.5z
				 M403.6,197.2h1.7v8.6h-1.7V197.2z"/>
			<path class="st8" d="M407.9,197.2h1.7v8.6h-1.7V197.2z M412.1,198.9c-0.2-0.1-0.5-0.1-0.8-0.1c-0.5,0-1,0.1-1.2,0.4
				c-0.3,0.3-0.4,0.7-0.4,1.2l-0.2-1.7c0.3-0.5,0.6-0.9,1-1.2c0.4-0.3,0.9-0.4,1.4-0.4c0.4,0,0.7,0.1,1.1,0.2
				c0.3,0.1,0.6,0.3,0.8,0.5l-1.1,1.5C412.5,199.1,412.3,198.9,412.1,198.9z"/>
		</g>
	</g>
	<g>
		<g>
			<path class="st7" d="M26.2,83.6h1.6v12.1h-1.7v-9l0.1,0.5l-3,6.8H22l-3-6.7l0.1-0.7v9h-1.7V83.6h1.6l3.5,8L26.2,83.6z"/>
			<path class="st7" d="M32.9,95.8c0,0-0.3-0.1-0.8-0.4s-1-0.7-1.3-1.3c-0.3-0.6-0.4-1.3-0.4-2.1v-1c0-0.9,0.1-1.6,0.4-2.2
				c0.3-0.6,0.7-1.1,1.2-1.4s1.2-0.5,2-0.5c0.7,0,1.3,0.2,1.8,0.5s0.9,0.9,1.2,1.6c0.3,0.7,0.4,1.5,0.4,2.4v0.6h-5.8v-1.4h4.2
				c0-0.7-0.2-1.2-0.5-1.6c-0.3-0.4-0.7-0.6-1.3-0.6c-0.6,0-1.1,0.2-1.5,0.6c-0.4,0.4-0.5,1-0.5,1.8V92c0,0.7,0.2,1.3,0.6,1.6
				s0.9,0.6,1.6,0.6c0.3,0,0.7-0.1,1-0.2s0.6-0.3,0.9-0.6l1.1,1.1c-0.4,0.4-0.9,0.7-1.4,1c-0.5,0.2-1.1,0.3-1.6,0.3
				C33.3,95.8,32.9,95.8,32.9,95.8z M32.9,84.6l2.4-2.9l1.2,1L34,85.4L32.9,84.6z"/>
			<path class="st7" d="M39.7,87.1h1.7v8.6h-1.7V87.1z M43.9,88.7c-0.2-0.1-0.5-0.1-0.8-0.1c-0.5,0-1,0.1-1.2,0.4
				c-0.3,0.3-0.4,0.7-0.4,1.2l-0.2-1.7c0.3-0.5,0.6-0.9,1-1.2c0.4-0.3,0.9-0.4,1.4-0.4c0.4,0,0.7,0.1,1.1,0.2
				c0.3,0.1,0.6,0.3,0.8,0.5l-1.1,1.5C44.3,88.9,44.1,88.8,43.9,88.7z"/>
			<path class="st7" d="M46.9,83.6h1.7v1.7h-1.7V83.6z M46.9,87.1h1.7v8.6h-1.7V87.1z"/>
			<path class="st7" d="M52.3,95.4c-0.4-0.3-0.8-0.7-1-1.2S51,93.1,51,92.3v-1.9c0-0.7,0.1-1.4,0.3-1.9s0.6-0.9,1-1.2
				c0.4-0.3,1-0.4,1.6-0.4c0.5,0,1,0.1,1.4,0.4c0.4,0.3,0.8,0.6,1,1.1l-0.2,1.8c0-0.4-0.1-0.7-0.2-0.9s-0.3-0.5-0.6-0.6
				c-0.3-0.1-0.6-0.2-0.9-0.2c-0.6,0-1,0.2-1.3,0.5c-0.3,0.3-0.5,0.8-0.5,1.5v1.9c0,0.6,0.2,1.1,0.5,1.4c0.3,0.3,0.7,0.5,1.3,0.5
				c0.4,0,0.7-0.1,0.9-0.2c0.3-0.1,0.4-0.3,0.6-0.6s0.2-0.6,0.2-1l0.1,1.8c-0.2,0.4-0.5,0.8-0.8,1.1c-0.4,0.3-0.9,0.4-1.4,0.4
				C53.3,95.8,52.8,95.7,52.3,95.4z M56.1,83.6h1.7v12.1h-1.7V83.6z"/>
			<path class="st7" d="M60.4,83.6h1.7v1.7h-1.7V83.6z M60.4,87.1h1.7v8.6h-1.7V87.1z"/>
			<path class="st7" d="M67,95.8c0,0-0.3-0.1-0.8-0.4s-1-0.7-1.3-1.3c-0.3-0.6-0.4-1.3-0.4-2.1v-1c0-0.9,0.1-1.6,0.4-2.2
				c0.3-0.6,0.7-1.1,1.2-1.4s1.2-0.5,2-0.5c0.7,0,1.3,0.2,1.8,0.5s0.9,0.9,1.2,1.6c0.3,0.7,0.4,1.5,0.4,2.4v0.6h-5.8v-1.4h4.2
				c0-0.7-0.2-1.2-0.5-1.6c-0.3-0.4-0.7-0.6-1.3-0.6c-0.6,0-1.1,0.2-1.5,0.6c-0.4,0.4-0.5,1-0.5,1.8V92c0,0.7,0.2,1.3,0.6,1.6
				s0.9,0.6,1.6,0.6c0.3,0,0.7-0.1,1-0.2s0.6-0.3,0.9-0.6l1.1,1.1c-0.4,0.4-0.9,0.7-1.4,1c-0.5,0.2-1.1,0.3-1.6,0.3
				C67.4,95.8,67,95.8,67,95.8z"/>
			<path class="st7" d="M73.8,87.1h1.7v8.6h-1.7V87.1z M79,90.5c0-0.6-0.2-1.1-0.5-1.4s-0.8-0.5-1.3-0.5c-0.6,0-1,0.1-1.3,0.4
				c-0.3,0.3-0.5,0.7-0.5,1.2l-0.2-1.7c0.3-0.5,0.6-0.9,1-1.2c0.4-0.3,0.9-0.4,1.4-0.4c0.9,0,1.7,0.3,2.2,0.9
				c0.5,0.6,0.8,1.5,0.8,2.6v5.2H79V90.5z"/>
			<path class="st7" d="M2.2,115.1c-0.5-1.3-0.7-2.8-0.7-4.4s0.2-3.1,0.7-4.4c0.5-1.3,1.2-2.5,2.2-3.6l1.2,1.1
				c-0.8,0.9-1.5,2-1.9,3.1s-0.6,2.4-0.6,3.8s0.2,2.7,0.6,3.8s1,2.2,1.9,3.1l-1.2,1C3.5,117.6,2.7,116.4,2.2,115.1z"/>
			<path class="st7" d="M8.8,113.9c0,0.2,0,0.4,0.1,0.5c0.1,0.1,0.2,0.2,0.4,0.2h0.8v1.6h-1c-0.6,0-1.1-0.2-1.5-0.6
				c-0.4-0.4-0.5-1-0.5-1.7V104h1.7V113.9z"/>
			<path class="st7" d="M13.4,115.8c-0.5-0.3-0.9-0.7-1.2-1.3c-0.3-0.6-0.4-1.2-0.4-2v-1.4c0-0.8,0.1-1.4,0.4-2
				c0.3-0.6,0.7-1,1.2-1.3c0.5-0.3,1.2-0.4,1.9-0.4s1.4,0.1,1.9,0.4c0.5,0.3,0.9,0.7,1.2,1.3c0.3,0.6,0.4,1.2,0.4,2v1.4
				c0,0.8-0.1,1.5-0.4,2c-0.3,0.6-0.7,1-1.2,1.3s-1.2,0.4-1.9,0.4S13.9,116.1,13.4,115.8z M16.7,114.1c0.3-0.4,0.5-0.9,0.5-1.6v-1.4
				c0-0.7-0.2-1.2-0.5-1.6c-0.3-0.4-0.8-0.5-1.4-0.5s-1,0.2-1.4,0.5c-0.3,0.4-0.5,0.9-0.5,1.6v1.4c0,0.7,0.2,1.2,0.5,1.6
				c0.3,0.4,0.8,0.6,1.4,0.6S16.4,114.4,16.7,114.1z"/>
			<path class="st7" d="M21.3,107.5H23v8.6h-1.7V107.5z M26.5,110.9c0-0.6-0.2-1.1-0.5-1.4s-0.8-0.5-1.3-0.5c-0.6,0-1,0.1-1.3,0.4
				c-0.3,0.3-0.5,0.7-0.5,1.2l-0.2-1.7c0.3-0.5,0.6-0.9,1-1.2c0.4-0.3,0.9-0.4,1.4-0.4c0.9,0,1.7,0.3,2.2,0.9
				c0.5,0.6,0.8,1.5,0.8,2.6v5.2h-1.7V110.9z"/>
			<path class="st7" d="M31.9,115.8c-0.4-0.3-0.8-0.7-1-1.2s-0.3-1.2-0.3-1.9v-1.9c0-0.7,0.1-1.4,0.3-1.9s0.6-0.9,1-1.2
				c0.4-0.3,1-0.4,1.6-0.4c0.5,0,1,0.1,1.4,0.4c0.4,0.3,0.8,0.6,1,1.1l-0.2,1.8c0-0.4-0.1-0.7-0.2-0.9s-0.3-0.5-0.6-0.6
				c-0.3-0.1-0.6-0.2-0.9-0.2c-0.6,0-1,0.2-1.3,0.5c-0.3,0.3-0.5,0.8-0.5,1.5v1.9c0,0.6,0.2,1.1,0.5,1.4c0.3,0.3,0.7,0.5,1.3,0.5
				c0.4,0,0.7-0.1,0.9-0.2c0.3-0.1,0.4-0.3,0.6-0.6s0.2-0.6,0.2-1l0.1,1.8c-0.2,0.4-0.5,0.8-0.8,1.1c-0.4,0.3-0.9,0.4-1.4,0.4
				C32.9,116.2,32.3,116.1,31.9,115.8z M32.7,119.6c0,0-0.3-0.1-0.8-0.4c-0.5-0.2-0.9-0.6-1.2-1l1.1-1c0.2,0.3,0.5,0.5,0.8,0.7
				c0.3,0.2,0.6,0.2,1,0.2c0.6,0,1.1-0.2,1.5-0.5c0.4-0.4,0.5-0.9,0.5-1.5v-8.6h1.7v8.4c0,0.8-0.1,1.5-0.4,2c-0.3,0.6-0.7,1-1.3,1.3
				s-1.2,0.4-2,0.4C33,119.6,32.7,119.6,32.7,119.6z"/>
			<path class="st7" d="M39.9,104h1.7v1.7h-1.7V104z M39.9,107.5h1.7v8.6h-1.7V107.5z"/>
			<path class="st7" d="M43.5,107.5h3.9v1.5h-3.9V107.5z M44.9,115.6c-0.3-0.4-0.5-1-0.5-1.7V105h1.7v8.9c0,0.2,0,0.4,0.1,0.5
				c0.1,0.1,0.2,0.2,0.4,0.2h0.8v1.6h-1C45.8,116.1,45.2,115.9,44.9,115.6z"/>
			<path class="st7" d="M51.4,112.7c0,0.6,0.2,1.1,0.5,1.4c0.3,0.3,0.7,0.5,1.3,0.5c0.6,0,1-0.1,1.3-0.4s0.5-0.7,0.5-1.3l0.1,1.8
				c-0.2,0.4-0.5,0.8-0.9,1.1s-0.9,0.4-1.5,0.4c-1,0-1.7-0.3-2.2-0.9c-0.5-0.6-0.8-1.5-0.8-2.6v-5.2h1.7V112.7z M55,107.5h1.7v8.6
				H55V107.5z"/>
			<path class="st7" d="M60.3,115.8c-0.4-0.3-0.8-0.7-1-1.2s-0.3-1.2-0.3-1.9v-1.9c0-0.7,0.1-1.4,0.3-1.9s0.6-0.9,1-1.2
				c0.4-0.3,1-0.4,1.6-0.4c0.5,0,1,0.1,1.4,0.4c0.4,0.3,0.8,0.6,1,1.1l-0.2,1.8c0-0.4-0.1-0.7-0.2-0.9s-0.3-0.5-0.6-0.6
				c-0.3-0.1-0.6-0.2-0.9-0.2c-0.6,0-1,0.2-1.3,0.5c-0.3,0.3-0.5,0.8-0.5,1.5v1.9c0,0.6,0.2,1.1,0.5,1.4c0.3,0.3,0.7,0.5,1.3,0.5
				c0.4,0,0.7-0.1,0.9-0.2c0.3-0.1,0.4-0.3,0.6-0.6s0.2-0.6,0.2-1l0.1,1.8c-0.2,0.4-0.5,0.8-0.8,1.1c-0.4,0.3-0.9,0.4-1.4,0.4
				C61.3,116.2,60.8,116.1,60.3,115.8z M64.1,104h1.7v12.1h-1.7V104z"/>
			<path class="st7" d="M70.7,116.2c0,0-0.3-0.1-0.8-0.4s-1-0.7-1.3-1.3c-0.3-0.6-0.4-1.3-0.4-2.1v-1c0-0.9,0.1-1.6,0.4-2.2
				c0.3-0.6,0.7-1.1,1.2-1.4s1.2-0.5,2-0.5c0.7,0,1.3,0.2,1.8,0.5s0.9,0.9,1.2,1.6c0.3,0.7,0.4,1.5,0.4,2.4v0.6h-5.8v-1.4h4.2
				c0-0.7-0.2-1.2-0.5-1.6c-0.3-0.4-0.7-0.6-1.3-0.6c-0.6,0-1.1,0.2-1.5,0.6c-0.4,0.4-0.5,1-0.5,1.8v1.1c0,0.7,0.2,1.3,0.6,1.6
				s0.9,0.6,1.6,0.6c0.3,0,0.7-0.1,1-0.2s0.6-0.3,0.9-0.6l1.1,1.1c-0.4,0.4-0.9,0.7-1.4,1c-0.5,0.2-1.1,0.3-1.6,0.3
				C71.1,116.2,70.7,116.2,70.7,116.2z"/>
			<path class="st7" d="M76.3,117.7c0.8-0.9,1.5-2,1.9-3.1s0.6-2.4,0.6-3.8s-0.2-2.7-0.6-3.8s-1-2.2-1.9-3.1l1.2-1.1
				c1,1.1,1.7,2.3,2.2,3.6c0.5,1.3,0.7,2.8,0.7,4.4s-0.2,3.1-0.7,4.4c-0.5,1.3-1.2,2.5-2.2,3.6L76.3,117.7z"/>
		</g>
	</g>
	<g>
		<g>
			<path class="st7" d="M17,33.1h1.6v12.1h-1.7v-9l0.1,0.5l-3,6.8h-1.2l-3-6.7l0.1-0.7v9H8.3V33.1h1.6l3.5,8L17,33.1z"/>
			<path class="st7" d="M23.8,45.3c0,0-0.3-0.1-0.8-0.4s-1-0.7-1.3-1.3c-0.3-0.6-0.4-1.3-0.4-2.1v-1c0-0.9,0.1-1.6,0.4-2.2
				c0.3-0.6,0.7-1.1,1.2-1.4s1.2-0.5,2-0.5c0.7,0,1.3,0.2,1.8,0.5s0.9,0.9,1.2,1.6c0.3,0.7,0.4,1.5,0.4,2.4v0.6h-5.8v-1.4h4.2
				c0-0.7-0.2-1.2-0.5-1.6c-0.3-0.4-0.7-0.6-1.3-0.6c-0.6,0-1.1,0.2-1.5,0.6c-0.4,0.4-0.5,1-0.5,1.8v1.1c0,0.7,0.2,1.3,0.6,1.6
				s0.9,0.6,1.6,0.6c0.3,0,0.7-0.1,1-0.2s0.6-0.3,0.9-0.6L28,44c-0.4,0.4-0.9,0.7-1.4,1c-0.5,0.2-1.1,0.3-1.6,0.3
				C24.2,45.3,23.8,45.3,23.8,45.3z M23.8,34l2.4-2.9l1.2,1l-2.5,2.8L23.8,34z"/>
			<path class="st7" d="M30.5,36.5h1.7v8.6h-1.7V36.5z M34.7,38.2c-0.2-0.1-0.5-0.1-0.8-0.1c-0.5,0-1,0.1-1.2,0.4
				c-0.3,0.3-0.4,0.7-0.4,1.2L32.1,38c0.3-0.5,0.6-0.9,1-1.2c0.4-0.3,0.9-0.4,1.4-0.4c0.4,0,0.7,0.1,1.1,0.2
				c0.3,0.1,0.6,0.3,0.8,0.5l-1.1,1.5C35.1,38.4,34.9,38.3,34.7,38.2z"/>
			<path class="st7" d="M37.8,33.1h1.7v1.7h-1.7V33.1z M37.8,36.5h1.7v8.6h-1.7V36.5z"/>
			<path class="st7" d="M43.2,44.9c-0.4-0.3-0.8-0.7-1-1.2s-0.3-1.2-0.3-1.9v-1.9c0-0.7,0.1-1.4,0.3-1.9s0.6-0.9,1-1.2
				c0.4-0.3,1-0.4,1.6-0.4c0.5,0,1,0.1,1.4,0.4c0.4,0.3,0.8,0.6,1,1.1L47,39.7c0-0.4-0.1-0.7-0.2-0.9s-0.3-0.5-0.6-0.6
				c-0.3-0.1-0.6-0.2-0.9-0.2c-0.6,0-1,0.2-1.3,0.5c-0.3,0.3-0.5,0.8-0.5,1.5v1.9c0,0.6,0.2,1.1,0.5,1.4c0.3,0.3,0.7,0.5,1.3,0.5
				c0.4,0,0.7-0.1,0.9-0.2c0.3-0.1,0.4-0.3,0.6-0.6s0.2-0.6,0.2-1l0.1,1.8c-0.2,0.4-0.5,0.8-0.8,1.1c-0.4,0.3-0.9,0.4-1.4,0.4
				C44.2,45.3,43.6,45.2,43.2,44.9z M47,33.1h1.7v12.1H47V33.1z"/>
			<path class="st7" d="M51.2,33.1h1.7v1.7h-1.7V33.1z M51.2,36.5h1.7v8.6h-1.7V36.5z"/>
			<path class="st7" d="M57.8,45.3c0,0-0.3-0.1-0.8-0.4s-1-0.7-1.3-1.3c-0.3-0.6-0.4-1.3-0.4-2.1v-1c0-0.9,0.1-1.6,0.4-2.2
				c0.3-0.6,0.7-1.1,1.2-1.4s1.2-0.5,2-0.5c0.7,0,1.3,0.2,1.8,0.5s0.9,0.9,1.2,1.6c0.3,0.7,0.4,1.5,0.4,2.4v0.6h-5.8v-1.4h4.2
				c0-0.7-0.2-1.2-0.5-1.6c-0.3-0.4-0.7-0.6-1.3-0.6c-0.6,0-1.1,0.2-1.5,0.6c-0.4,0.4-0.5,1-0.5,1.8v1.1c0,0.7,0.2,1.3,0.6,1.6
				s0.9,0.6,1.6,0.6c0.3,0,0.7-0.1,1-0.2s0.6-0.3,0.9-0.6l1.1,1.1c-0.4,0.4-0.9,0.7-1.4,1c-0.5,0.2-1.1,0.3-1.6,0.3
				C58.2,45.3,57.8,45.3,57.8,45.3z"/>
			<path class="st7" d="M64.6,36.5h1.7v8.6h-1.7V36.5z M69.8,39.9c0-0.6-0.2-1.1-0.5-1.4S68.6,38,68,38c-0.6,0-1,0.1-1.3,0.4
				c-0.3,0.3-0.5,0.7-0.5,1.2L66.1,38c0.3-0.5,0.6-0.9,1-1.2c0.4-0.3,0.9-0.4,1.4-0.4c0.9,0,1.7,0.3,2.2,0.9
				c0.5,0.6,0.8,1.5,0.8,2.6v5.2h-1.7V39.9z"/>
			<path class="st7" d="M79.8,44.9c-0.4-0.3-0.8-0.7-1-1.2s-0.3-1.2-0.3-1.9v-1.9c0-0.7,0.1-1.4,0.3-1.9s0.6-0.9,1-1.2
				c0.4-0.3,1-0.4,1.6-0.4c0.5,0,1,0.1,1.4,0.4c0.4,0.3,0.8,0.6,1,1.1l-0.2,1.8c0-0.4-0.1-0.7-0.2-0.9s-0.3-0.5-0.6-0.6
				c-0.3-0.1-0.6-0.2-0.9-0.2c-0.6,0-1,0.2-1.3,0.5c-0.3,0.3-0.5,0.8-0.5,1.5v1.9c0,0.6,0.2,1.1,0.5,1.4c0.3,0.3,0.7,0.5,1.3,0.5
				c0.4,0,0.7-0.1,0.9-0.2c0.3-0.1,0.4-0.3,0.6-0.6s0.2-0.6,0.2-1l0.1,1.8c-0.2,0.4-0.5,0.8-0.8,1.1c-0.4,0.3-0.9,0.4-1.4,0.4
				C80.8,45.3,80.2,45.2,79.8,44.9z M83.6,33.1h1.7v12.1h-1.7V33.1z"/>
			<path class="st7" d="M90.2,45.3c0,0-0.3-0.1-0.8-0.4s-1-0.7-1.3-1.3c-0.3-0.6-0.4-1.3-0.4-2.1v-1c0-0.9,0.1-1.6,0.4-2.2
				c0.3-0.6,0.7-1.1,1.2-1.4s1.2-0.5,2-0.5c0.7,0,1.3,0.2,1.8,0.5s0.9,0.9,1.2,1.6c0.3,0.7,0.4,1.5,0.4,2.4v0.6h-5.8v-1.4H93
				c0-0.7-0.2-1.2-0.5-1.6c-0.3-0.4-0.7-0.6-1.3-0.6c-0.6,0-1.1,0.2-1.5,0.6c-0.4,0.4-0.5,1-0.5,1.8v1.1c0,0.7,0.2,1.3,0.6,1.6
				s0.9,0.6,1.6,0.6c0.3,0,0.7-0.1,1-0.2s0.6-0.3,0.9-0.6l1.1,1.1c-0.4,0.4-0.9,0.7-1.4,1c-0.5,0.2-1.1,0.3-1.6,0.3
				C90.6,45.3,90.2,45.3,90.2,45.3z"/>
			<path class="st7" d="M24,59.1v2.1c0,0.9-0.2,1.7-0.5,2.4c-0.3,0.7-0.8,1.2-1.5,1.6c-0.6,0.4-1.4,0.6-2.2,0.6
				c-0.9,0-1.6-0.2-2.2-0.5c-0.6-0.4-1.1-0.8-1.5-1.5c-0.4-0.6-0.5-1.4-0.5-2.2v-3.6c0-0.9,0.2-1.7,0.5-2.4s0.8-1.2,1.5-1.6
				c0.6-0.4,1.4-0.6,2.2-0.6c0.7,0,1.3,0.1,1.9,0.4c0.6,0.3,1.1,0.7,1.5,1.3s0.7,1.2,0.8,1.9h-1.8c-0.1-0.4-0.3-0.8-0.5-1
				c-0.2-0.3-0.5-0.5-0.8-0.7c-0.3-0.2-0.7-0.2-1-0.2c-0.5,0-0.9,0.1-1.3,0.4s-0.7,0.6-0.9,1c-0.2,0.4-0.3,0.9-0.3,1.5v3.6
				c0,0.5,0.1,1,0.3,1.4c0.2,0.4,0.5,0.7,0.9,0.9c0.4,0.2,0.8,0.3,1.3,0.3c0.5,0,0.9-0.1,1.3-0.3c0.4-0.2,0.7-0.5,0.9-1
				s0.3-0.9,0.3-1.5v-0.5h-2.4v-1.6H24z"/>
			<path class="st7" d="M26.6,56.9h1.7v8.6h-1.7V56.9z M30.8,58.6c-0.2-0.1-0.5-0.1-0.8-0.1c-0.5,0-1,0.1-1.2,0.4
				c-0.3,0.3-0.4,0.7-0.4,1.2l-0.2-1.7c0.3-0.5,0.6-0.9,1-1.2c0.4-0.3,0.9-0.4,1.4-0.4c0.4,0,0.7,0.1,1.1,0.2
				c0.3,0.1,0.6,0.3,0.8,0.5L31.3,59C31.2,58.8,31,58.7,30.8,58.6z"/>
			<path class="st7" d="M36.2,65.7c0,0-0.3-0.1-0.8-0.4s-1-0.7-1.3-1.3c-0.3-0.6-0.4-1.3-0.4-2.1v-1c0-0.9,0.1-1.6,0.4-2.2
				c0.3-0.6,0.7-1.1,1.2-1.4s1.2-0.5,2-0.5c0.7,0,1.3,0.2,1.8,0.5s0.9,0.9,1.2,1.6c0.3,0.7,0.4,1.5,0.4,2.4v0.6h-5.8v-1.4H39
				c0-0.7-0.2-1.2-0.5-1.6c-0.3-0.4-0.7-0.6-1.3-0.6c-0.6,0-1.1,0.2-1.5,0.6c-0.4,0.4-0.5,1-0.5,1.8v1.1c0,0.7,0.2,1.3,0.6,1.6
				s0.9,0.6,1.6,0.6c0.3,0,0.7-0.1,1-0.2s0.6-0.3,0.9-0.6l1.1,1.1c-0.4,0.4-0.9,0.7-1.4,1c-0.5,0.2-1.1,0.3-1.6,0.3
				C36.6,65.7,36.2,65.7,36.2,65.7z"/>
			<path class="st7" d="M45.3,65.7c0,0-0.3-0.1-0.8-0.4s-1-0.7-1.3-1.3c-0.3-0.6-0.4-1.3-0.4-2.1v-1c0-0.9,0.1-1.6,0.4-2.2
				c0.3-0.6,0.7-1.1,1.2-1.4s1.2-0.5,2-0.5c0.7,0,1.3,0.2,1.8,0.5s0.9,0.9,1.2,1.6c0.3,0.7,0.4,1.5,0.4,2.4v0.6h-5.8v-1.4h4.2
				c0-0.7-0.2-1.2-0.5-1.6c-0.3-0.4-0.7-0.6-1.3-0.6c-0.6,0-1.1,0.2-1.5,0.6c-0.4,0.4-0.5,1-0.5,1.8v1.1c0,0.7,0.2,1.3,0.6,1.6
				s0.9,0.6,1.6,0.6c0.3,0,0.7-0.1,1-0.2s0.6-0.3,0.9-0.6l1.1,1.1c-0.4,0.4-0.9,0.7-1.4,1c-0.5,0.2-1.1,0.3-1.6,0.3
				C45.7,65.7,45.3,65.7,45.3,65.7z"/>
			<path class="st7" d="M52.1,56.9h1.7v8.6h-1.7V56.9z M57.3,60.3c0-0.6-0.2-1.1-0.5-1.4s-0.8-0.5-1.3-0.5c-0.6,0-1,0.1-1.3,0.4
				c-0.3,0.3-0.5,0.7-0.5,1.2l-0.2-1.7c0.3-0.5,0.6-0.9,1-1.2c0.4-0.3,0.9-0.4,1.4-0.4c0.9,0,1.7,0.3,2.2,0.9
				c0.5,0.6,0.8,1.5,0.8,2.6v5.2h-1.7V60.3z"/>
			<path class="st7" d="M60.8,56.9h1.8l1.5,6.2l2.1-6.2h1.2l2.1,6.2l1.5-6.2h1.8l-2.7,8.6H69l-2.1-6l-2.1,6h-1.3L60.8,56.9z"/>
			<path class="st7" d="M74.7,53.5h1.7v1.7h-1.7V53.5z M74.7,56.9h1.7v8.6h-1.7V56.9z"/>
			<path class="st7" d="M81.3,65.7c0,0-0.3-0.1-0.8-0.4c-0.6-0.3-1-0.7-1.3-1.3c-0.3-0.6-0.4-1.2-0.4-2v-1.4c0-0.8,0.1-1.4,0.4-2
				s0.7-1,1.3-1.3c0.6-0.3,1.2-0.4,2-0.4c0.4,0,0.9,0.1,1.3,0.2c0.4,0.1,0.8,0.3,1.1,0.5s0.6,0.5,0.8,0.7l-1.2,1.1
				c-0.2-0.3-0.5-0.5-0.9-0.6s-0.7-0.2-1-0.2c-0.7,0-1.2,0.2-1.5,0.5s-0.5,0.9-0.5,1.5v1.4c0,0.7,0.2,1.2,0.5,1.6
				c0.4,0.4,0.9,0.6,1.5,0.6c0.4,0,0.7-0.1,1-0.2s0.6-0.4,0.8-0.7l1.2,1.2c-0.2,0.3-0.5,0.5-0.8,0.7c-0.3,0.2-0.7,0.4-1.1,0.5
				c-0.4,0.1-0.8,0.2-1.3,0.2C81.7,65.7,81.3,65.7,81.3,65.7z"/>
			<path class="st7" d="M87.4,53.5h1.7v12.1h-1.7V53.5z M92.7,60.3c0-0.6-0.2-1.1-0.5-1.4s-0.8-0.5-1.3-0.5c-0.6,0-1,0.1-1.3,0.4
				c-0.3,0.3-0.5,0.7-0.5,1.2L89,58.4c0.3-0.5,0.6-0.9,1-1.2c0.4-0.3,0.9-0.4,1.4-0.4c0.9,0,1.7,0.3,2.2,0.9
				c0.5,0.6,0.8,1.5,0.8,2.6v5.2h-1.7V60.3z"/>
		</g>
	</g>
	<g>
		<g>
			<path d="M214.8,285.8c0,0-0.2,0-0.7-0.1s-0.9-0.2-1.3-0.4c-0.4-0.2-0.8-0.4-1.1-0.7l0.9-1.1c0.4,0.4,0.9,0.6,1.3,0.8
				s1,0.3,1.6,0.3c0.8,0,1.4-0.1,1.8-0.4c0.4-0.3,0.6-0.7,0.6-1.2v0c0-0.4-0.1-0.7-0.3-0.9c-0.2-0.2-0.4-0.4-0.7-0.5
				c-0.3-0.1-0.7-0.2-1.2-0.3c0,0,0,0,0,0s0,0,0,0l-0.1,0c-0.7-0.1-1.3-0.3-1.7-0.4c-0.4-0.2-0.8-0.4-1.1-0.8
				c-0.3-0.4-0.5-1-0.5-1.7v0c0-0.7,0.1-1.2,0.4-1.7s0.7-0.8,1.3-1.1s1.2-0.4,2-0.4c0.4,0,0.8,0,1.1,0.1c0.4,0.1,0.7,0.2,1.1,0.4
				c0.4,0.2,0.7,0.4,1.1,0.6l-0.8,1.2c-0.4-0.3-0.8-0.5-1.2-0.7c-0.4-0.1-0.8-0.2-1.2-0.2c-0.7,0-1.3,0.1-1.7,0.4
				c-0.4,0.3-0.6,0.7-0.6,1.2v0c0,0.4,0.1,0.7,0.3,0.9s0.5,0.4,0.8,0.5c0.3,0.1,0.7,0.2,1.3,0.3c0,0,0,0,0.1,0c0,0,0,0,0.1,0
				c0,0,0.1,0,0.1,0c0,0,0.1,0,0.1,0c0.6,0.1,1.2,0.3,1.6,0.5c0.4,0.2,0.8,0.5,1.1,0.9c0.3,0.4,0.4,1,0.4,1.7v0
				c0,0.6-0.2,1.2-0.5,1.7c-0.3,0.5-0.8,0.8-1.3,1.1c-0.6,0.2-1.3,0.4-2.1,0.4C215.1,285.8,214.8,285.8,214.8,285.8z"/>
			<path d="M187.2,293h1.5v10.6h-1.5V293z M188,298.1h3.4c0.3,0,0.6-0.1,0.8-0.2c0.2-0.2,0.4-0.4,0.6-0.6c0.1-0.3,0.2-0.6,0.2-1
				c0-0.4-0.1-0.7-0.2-1s-0.3-0.5-0.6-0.6c-0.2-0.2-0.5-0.2-0.8-0.2H188V293h3.4c0.6,0,1.2,0.1,1.7,0.4c0.5,0.3,0.9,0.7,1.1,1.1
				s0.4,1.1,0.4,1.7s-0.1,1.2-0.4,1.7c-0.3,0.5-0.6,0.9-1.1,1.1c-0.5,0.3-1,0.4-1.7,0.4H188V298.1z"/>
			<path d="M197.6,303.4c-0.5-0.3-0.8-0.6-1.1-1.1c-0.2-0.5-0.4-1.1-0.4-1.8v-1.2c0-0.7,0.1-1.3,0.4-1.8c0.2-0.5,0.6-0.9,1.1-1.1
				c0.5-0.3,1-0.4,1.7-0.4s1.2,0.1,1.7,0.4c0.5,0.3,0.8,0.6,1.1,1.1c0.2,0.5,0.4,1.1,0.4,1.8v1.3c0,0.7-0.1,1.3-0.4,1.8
				c-0.2,0.5-0.6,0.9-1.1,1.1s-1,0.4-1.7,0.4S198.1,303.7,197.6,303.4z M201.6,293.9l-0.8,0.8l-1.5-1.4l-1.5,1.4l-0.8-0.8l2.3-2.2
				L201.6,293.9z M200.6,301.9c0.3-0.3,0.4-0.8,0.4-1.4v-1.3c0-0.6-0.1-1-0.4-1.4c-0.3-0.3-0.7-0.5-1.2-0.5s-0.9,0.2-1.2,0.5
				c-0.3,0.3-0.4,0.8-0.4,1.4v1.3c0,0.6,0.1,1,0.4,1.4c0.3,0.3,0.7,0.5,1.2,0.5S200.3,302.2,200.6,301.9z"/>
			<path d="M206.1,301.7c0,0.2,0,0.3,0.1,0.4c0.1,0.1,0.2,0.1,0.3,0.1h0.7v1.4h-0.9c-0.6,0-1-0.2-1.3-0.5s-0.5-0.8-0.5-1.5V293h1.5
				V301.7z"/>
			<path d="M211,303.8c0,0-0.2-0.1-0.7-0.4s-0.9-0.7-1.1-1.2s-0.4-1.1-0.4-1.8v-0.9c0-0.8,0.1-1.4,0.4-1.9s0.6-0.9,1.1-1.2
				s1.1-0.4,1.7-0.4c0.6,0,1.2,0.2,1.6,0.5s0.8,0.8,1,1.4s0.4,1.3,0.4,2.2v0.5h-5.1v-1.2h3.7c0-0.6-0.2-1.1-0.5-1.4
				c-0.3-0.3-0.6-0.5-1.1-0.5c-0.6,0-1,0.2-1.3,0.6s-0.5,0.9-0.5,1.6v1c0,0.6,0.2,1.1,0.5,1.5s0.8,0.5,1.4,0.5
				c0.3,0,0.6-0.1,0.9-0.2s0.6-0.3,0.8-0.5l1,1c-0.4,0.4-0.8,0.6-1.3,0.8c-0.5,0.2-0.9,0.3-1.4,0.3C211.4,303.8,211,303.8,211,303.8
				z"/>
			<path d="M223.6,303.8c0,0-0.2,0-0.7-0.1s-0.9-0.2-1.3-0.4c-0.4-0.2-0.8-0.4-1.1-0.7l0.9-1.1c0.4,0.4,0.9,0.6,1.3,0.8
				s1,0.3,1.6,0.3c0.8,0,1.4-0.1,1.8-0.4c0.4-0.3,0.6-0.7,0.6-1.2v0c0-0.4-0.1-0.7-0.3-0.9c-0.2-0.2-0.4-0.4-0.7-0.5
				c-0.3-0.1-0.7-0.2-1.2-0.3c0,0,0,0,0,0s0,0,0,0l-0.1,0c-0.7-0.1-1.3-0.3-1.7-0.4c-0.4-0.2-0.8-0.4-1.1-0.8
				c-0.3-0.4-0.5-1-0.5-1.7v0c0-0.7,0.1-1.2,0.4-1.7s0.7-0.8,1.3-1.1s1.2-0.4,2-0.4c0.4,0,0.8,0,1.1,0.1c0.4,0.1,0.7,0.2,1.1,0.4
				c0.4,0.2,0.7,0.4,1.1,0.6l-0.8,1.2c-0.4-0.3-0.8-0.5-1.2-0.7c-0.4-0.1-0.8-0.2-1.2-0.2c-0.7,0-1.3,0.1-1.7,0.4
				c-0.4,0.3-0.6,0.7-0.6,1.2v0c0,0.4,0.1,0.7,0.3,0.9s0.5,0.4,0.8,0.5c0.3,0.1,0.7,0.2,1.3,0.3c0,0,0,0,0.1,0c0,0,0,0,0.1,0
				c0,0,0.1,0,0.1,0c0,0,0.1,0,0.1,0c0.6,0.1,1.2,0.3,1.6,0.5c0.4,0.2,0.8,0.5,1.1,0.9c0.3,0.4,0.4,1,0.4,1.7v0
				c0,0.6-0.2,1.2-0.5,1.7c-0.3,0.5-0.8,0.8-1.3,1.1c-0.6,0.2-1.3,0.4-2.1,0.4C223.8,303.8,223.6,303.8,223.6,303.8z"/>
			<path d="M231.7,300.7c0,0.5,0.1,0.9,0.4,1.2c0.3,0.3,0.7,0.4,1.1,0.4c0.5,0,0.9-0.1,1.1-0.4s0.4-0.6,0.4-1.1l0.1,1.6
				c-0.2,0.4-0.4,0.7-0.8,0.9s-0.8,0.4-1.3,0.4c-0.8,0-1.5-0.3-1.9-0.8s-0.7-1.3-0.7-2.3v-4.6h1.5V300.7z M234.8,296.1h1.5v7.6h-1.5
				V296.1z"/>
			<path d="M239.6,303.5c-0.4-0.2-0.7-0.6-0.9-1.1s-0.3-1-0.3-1.7v-1.7c0-0.7,0.1-1.2,0.3-1.7s0.5-0.8,0.9-1.1
				c0.4-0.2,0.8-0.4,1.4-0.4c0.4,0,0.9,0.1,1.2,0.4c0.4,0.2,0.7,0.6,0.9,1l-0.2,1.6c0-0.3-0.1-0.6-0.2-0.8s-0.3-0.4-0.5-0.5
				c-0.2-0.1-0.5-0.2-0.8-0.2c-0.5,0-0.9,0.2-1.1,0.5c-0.3,0.3-0.4,0.7-0.4,1.3v1.7c0,0.6,0.1,1,0.4,1.3c0.3,0.3,0.7,0.5,1.1,0.5
				c0.3,0,0.6-0.1,0.8-0.2c0.2-0.1,0.4-0.3,0.5-0.5s0.2-0.5,0.2-0.8l0.1,1.6c-0.2,0.4-0.4,0.7-0.7,0.9c-0.3,0.3-0.8,0.4-1.3,0.4
				C240.4,303.8,240,303.7,239.6,303.5z M242.9,293h1.5v10.6h-1.5V293z"/>
		</g>
	</g>
	<g>
		<g>
			<path d="M183.5,10.3h1.5v10.6h-1.5V10.3z M184.3,15.4h3.4c0.3,0,0.6-0.1,0.8-0.2s0.4-0.4,0.6-0.6s0.2-0.6,0.2-1
				c0-0.4-0.1-0.7-0.2-1s-0.3-0.5-0.6-0.6c-0.2-0.2-0.5-0.2-0.8-0.2h-3.4v-1.4h3.4c0.6,0,1.2,0.1,1.7,0.4c0.5,0.3,0.9,0.7,1.1,1.1
				s0.4,1.1,0.4,1.7s-0.1,1.2-0.4,1.7c-0.3,0.5-0.6,0.9-1.1,1.1s-1,0.4-1.7,0.4h-3.4V15.4z"/>
			<path d="M193.9,20.7c-0.5-0.3-0.8-0.6-1.1-1.1c-0.2-0.5-0.4-1.1-0.4-1.8v-1.2c0-0.7,0.1-1.3,0.4-1.8c0.2-0.5,0.6-0.9,1.1-1.1
				c0.5-0.3,1-0.4,1.7-0.4s1.2,0.1,1.7,0.4c0.5,0.3,0.8,0.6,1.1,1.1c0.2,0.5,0.4,1.1,0.4,1.8v1.3c0,0.7-0.1,1.3-0.4,1.8
				c-0.2,0.5-0.6,0.9-1.1,1.1s-1,0.4-1.7,0.4S194.4,20.9,193.9,20.7z M197.9,11.1l-0.8,0.8l-1.5-1.4l-1.5,1.4l-0.8-0.8l2.3-2.2
				L197.9,11.1z M196.8,19.1c0.3-0.3,0.4-0.8,0.4-1.4v-1.3c0-0.6-0.1-1-0.4-1.4c-0.3-0.3-0.7-0.5-1.2-0.5s-0.9,0.2-1.2,0.5
				c-0.3,0.3-0.4,0.8-0.4,1.4v1.3c0,0.6,0.1,1,0.4,1.4c0.3,0.3,0.7,0.5,1.2,0.5S196.5,19.5,196.8,19.1z"/>
			<path d="M202.3,19c0,0.2,0,0.3,0.1,0.4c0.1,0.1,0.2,0.1,0.3,0.1h0.7V21h-0.9c-0.6,0-1-0.2-1.3-0.5s-0.5-0.8-0.5-1.5v-8.7h1.5V19z
				"/>
			<path d="M207.3,21.1c0,0-0.2-0.1-0.7-0.4s-0.9-0.7-1.1-1.2s-0.4-1.1-0.4-1.8v-0.9c0-0.8,0.1-1.4,0.4-1.9s0.6-0.9,1.1-1.2
				s1.1-0.4,1.7-0.4c0.6,0,1.2,0.2,1.6,0.5s0.8,0.8,1,1.4s0.4,1.3,0.4,2.2v0.5h-5.1v-1.2h3.7c0-0.6-0.2-1.1-0.5-1.4
				c-0.3-0.3-0.6-0.5-1.1-0.5c-0.6,0-1,0.2-1.3,0.6s-0.5,0.9-0.5,1.6v1c0,0.6,0.2,1.1,0.5,1.5s0.8,0.5,1.4,0.5
				c0.3,0,0.6-0.1,0.9-0.2s0.6-0.3,0.8-0.5l1,1c-0.4,0.4-0.8,0.6-1.3,0.8c-0.5,0.2-0.9,0.3-1.4,0.3
				C207.6,21.1,207.3,21.1,207.3,21.1z"/>
			<path d="M217.4,10.3h1.4l5.2,8.2l-0.2,0.2v-8.4h1.5v10.6h-1.4l-5.2-8.1l0.2-0.2v8.3h-1.5V10.3z"/>
			<path d="M229,20.7c-0.5-0.3-0.8-0.6-1.1-1.1c-0.2-0.5-0.4-1.1-0.4-1.8v-1.2c0-0.7,0.1-1.3,0.4-1.8c0.2-0.5,0.6-0.9,1.1-1.1
				c0.5-0.3,1-0.4,1.7-0.4s1.2,0.1,1.7,0.4c0.5,0.3,0.8,0.6,1.1,1.1c0.2,0.5,0.4,1.1,0.4,1.8v1.3c0,0.7-0.1,1.3-0.4,1.8
				c-0.2,0.5-0.6,0.9-1.1,1.1s-1,0.4-1.7,0.4S229.5,20.9,229,20.7z M231.9,19.1c0.3-0.3,0.4-0.8,0.4-1.4v-1.3c0-0.6-0.1-1-0.4-1.4
				c-0.3-0.3-0.7-0.5-1.2-0.5s-0.9,0.2-1.2,0.5c-0.3,0.3-0.4,0.8-0.4,1.4v1.3c0,0.6,0.1,1,0.4,1.4c0.3,0.3,0.7,0.5,1.2,0.5
				S231.6,19.5,231.9,19.1z"/>
			<path d="M235.9,13.3h1.5v7.6h-1.5V13.3z M239.6,14.8c-0.2-0.1-0.4-0.1-0.7-0.1c-0.5,0-0.8,0.1-1.1,0.4s-0.4,0.6-0.4,1.1l-0.2-1.5
				c0.2-0.5,0.5-0.8,0.9-1.1s0.8-0.4,1.2-0.4c0.3,0,0.7,0.1,0.9,0.1c0.3,0.1,0.5,0.2,0.7,0.4l-1,1.3C240,15,239.8,14.9,239.6,14.8z"
				/>
			<path d="M243.3,20.7c-0.4-0.2-0.7-0.6-0.9-1.1s-0.3-1-0.3-1.7v-1.7c0-0.7,0.1-1.2,0.3-1.7s0.5-0.8,0.9-1.1
				c0.4-0.2,0.8-0.4,1.4-0.4c0.4,0,0.9,0.1,1.2,0.4c0.4,0.2,0.7,0.6,0.9,1l-0.2,1.6c0-0.3-0.1-0.6-0.2-0.8s-0.3-0.4-0.5-0.5
				c-0.2-0.1-0.5-0.2-0.8-0.2c-0.5,0-0.9,0.2-1.1,0.5c-0.3,0.3-0.4,0.7-0.4,1.3V18c0,0.6,0.1,1,0.4,1.3c0.3,0.3,0.7,0.5,1.1,0.5
				c0.3,0,0.6-0.1,0.8-0.2c0.2-0.1,0.4-0.3,0.5-0.5s0.2-0.5,0.2-0.8l0.1,1.6c-0.2,0.4-0.4,0.7-0.7,0.9c-0.3,0.3-0.8,0.4-1.3,0.4
				C244.2,21.1,243.7,21,243.3,20.7z M246.7,10.3h1.5v10.6h-1.5V10.3z"/>
			<path d="M211.8,28.3h1.4l5.2,8.2l-0.2,0.2v-8.4h1.5v10.6h-1.4l-5.2-8.1l0.2-0.2v8.3h-1.5V28.3z"/>
		</g>
	</g>
	<g>
		<g>
			<path d="M96.1,145.6v1.9c0,0.8-0.2,1.5-0.5,2.1s-0.7,1.1-1.3,1.4c-0.6,0.3-1.2,0.5-2,0.5c-0.8,0-1.4-0.2-2-0.5
				c-0.6-0.3-1-0.7-1.3-1.3s-0.5-1.2-0.5-2v-3.1c0-0.8,0.2-1.5,0.5-2.1s0.7-1.1,1.3-1.4c0.6-0.3,1.2-0.5,2-0.5
				c0.6,0,1.2,0.1,1.7,0.4s0.9,0.6,1.3,1.1s0.6,1,0.7,1.7h-1.6c-0.1-0.4-0.2-0.7-0.4-0.9c-0.2-0.3-0.5-0.5-0.7-0.6
				c-0.3-0.1-0.6-0.2-0.9-0.2c-0.4,0-0.8,0.1-1.2,0.3s-0.6,0.5-0.8,0.9c-0.2,0.4-0.3,0.8-0.3,1.3v3.1c0,0.5,0.1,0.9,0.3,1.2
				c0.2,0.3,0.4,0.6,0.8,0.8c0.3,0.2,0.7,0.3,1.2,0.3c0.4,0,0.8-0.1,1.2-0.3c0.3-0.2,0.6-0.5,0.8-0.9s0.3-0.8,0.3-1.3V147h-2.2v-1.4
				H96.1z"/>
			<path d="M61.4,168.9c-0.6-0.3-1-0.8-1.3-1.4c-0.3-0.6-0.5-1.3-0.5-2.1v-3c0-0.8,0.2-1.5,0.5-2.1c0.3-0.6,0.7-1.1,1.3-1.4
				c0.6-0.3,1.2-0.5,2-0.5s1.4,0.2,2,0.5c0.6,0.3,1,0.8,1.3,1.4c0.3,0.6,0.5,1.3,0.5,2.1v3c0,0.8-0.2,1.5-0.5,2.1
				c-0.3,0.6-0.7,1.1-1.3,1.4s-1.2,0.5-2,0.5S61.9,169.3,61.4,168.9z M64.5,167.7c0.3-0.2,0.6-0.5,0.8-0.8c0.2-0.4,0.3-0.8,0.3-1.3
				v-3.1c0-0.5-0.1-0.9-0.3-1.3c-0.2-0.4-0.4-0.6-0.8-0.8c-0.3-0.2-0.7-0.3-1.2-0.3s-0.8,0.1-1.2,0.3c-0.3,0.2-0.6,0.5-0.8,0.8
				c-0.2,0.4-0.3,0.8-0.3,1.3v3.1c0,0.5,0.1,0.9,0.3,1.3c0.2,0.4,0.4,0.6,0.8,0.8c0.3,0.2,0.7,0.3,1.2,0.3S64.1,167.9,64.5,167.7z"
				/>
			<path d="M70.8,166.3c0,0.5,0.1,0.9,0.4,1.2c0.3,0.3,0.7,0.4,1.1,0.4c0.5,0,0.9-0.1,1.1-0.4s0.4-0.6,0.4-1.1l0.1,1.6
				c-0.2,0.4-0.4,0.7-0.8,0.9s-0.8,0.4-1.3,0.4c-0.8,0-1.5-0.3-1.9-0.8s-0.7-1.3-0.7-2.3v-4.6h1.5V166.3z M73.9,161.7h1.5v7.6h-1.5
				V161.7z"/>
			<path d="M79.7,169.4c0,0-0.2-0.1-0.7-0.4s-0.9-0.7-1.1-1.2s-0.4-1.1-0.4-1.8v-0.9c0-0.8,0.1-1.4,0.4-1.9s0.6-0.9,1.1-1.2
				s1.1-0.4,1.7-0.4c0.6,0,1.2,0.2,1.6,0.5s0.8,0.8,1,1.4s0.4,1.3,0.4,2.2v0.5h-5.1v-1.2h3.7c0-0.6-0.2-1.1-0.5-1.4
				c-0.3-0.3-0.6-0.5-1.1-0.5c-0.6,0-1,0.2-1.3,0.6s-0.5,0.9-0.5,1.6v1c0,0.6,0.2,1.1,0.5,1.5s0.8,0.5,1.4,0.5
				c0.3,0,0.6-0.1,0.9-0.2s0.6-0.3,0.8-0.5l1,1c-0.4,0.4-0.8,0.6-1.3,0.8c-0.5,0.2-0.9,0.3-1.4,0.3
				C80.1,169.4,79.7,169.4,79.7,169.4z"/>
			<path d="M87.7,169.4c0,0-0.2,0-0.6-0.1c-0.4-0.1-0.8-0.2-1.1-0.4s-0.7-0.4-0.9-0.7l0.9-1.1c0.4,0.3,0.8,0.5,1.2,0.7
				s0.8,0.2,1.2,0.2c0.6,0,1-0.1,1.3-0.3c0.3-0.2,0.4-0.5,0.4-0.8c0-0.2-0.1-0.4-0.2-0.5s-0.4-0.2-0.6-0.2c-0.2,0-0.6-0.1-1-0.1
				c0,0-0.1,0-0.1,0c0,0-0.1,0-0.1,0c0,0,0,0-0.1,0c0,0,0,0-0.1,0c-0.5,0-0.9-0.1-1.3-0.2c-0.3-0.1-0.6-0.3-0.9-0.6
				c-0.2-0.3-0.3-0.7-0.3-1.2s0.1-1,0.3-1.3s0.5-0.6,1-0.8c0.4-0.2,1-0.3,1.6-0.3c0.4,0,0.8,0,1.1,0.1c0.4,0.1,0.7,0.2,1,0.3
				s0.6,0.3,0.9,0.5l-0.9,1.1c-0.4-0.2-0.8-0.4-1.1-0.5s-0.7-0.2-1.1-0.2c-0.5,0-0.9,0.1-1.1,0.3c-0.3,0.2-0.4,0.4-0.4,0.8
				c0,0.2,0.1,0.4,0.2,0.5s0.3,0.2,0.5,0.2s0.5,0.1,0.9,0.1c0,0,0.1,0,0.1,0c0,0,0.1,0,0.1,0c0,0,0,0,0,0s0,0,0,0
				c0.5,0,1,0.1,1.4,0.2c0.4,0.1,0.7,0.3,0.9,0.6s0.4,0.8,0.4,1.4c0,0.5-0.1,1-0.4,1.4c-0.2,0.4-0.6,0.6-1.1,0.8s-1.1,0.3-1.8,0.3
				C87.9,169.4,87.7,169.4,87.7,169.4z"/>
			<path d="M92.9,161.7h3.4v1.3h-3.4V161.7z M94.1,168.9c-0.3-0.3-0.4-0.8-0.4-1.5v-7.8h1.5v7.9c0,0.2,0,0.3,0.1,0.4
				s0.2,0.1,0.3,0.1h0.7v1.4h-0.9C94.9,169.4,94.4,169.2,94.1,168.9z"/>
		</g>
	</g>
	<g>
		<g>
			<path d="M335,143.7h1.5v10.6H335V143.7z M335.7,143.7h6.1v1.4h-6.1V143.7z M335.7,148.4h5.3v1.4h-5.3V148.4z M335.7,152.9h6.1
				v1.4h-6.1V152.9z"/>
			<path d="M345.8,154.5c0,0-0.2,0-0.6-0.1c-0.4-0.1-0.8-0.2-1.1-0.4s-0.7-0.4-0.9-0.7l0.9-1.1c0.4,0.3,0.8,0.5,1.2,0.7
				s0.8,0.2,1.2,0.2c0.6,0,1-0.1,1.3-0.3c0.3-0.2,0.4-0.5,0.4-0.8c0-0.2-0.1-0.4-0.2-0.5s-0.4-0.2-0.6-0.2c-0.2,0-0.6-0.1-1-0.1
				c0,0-0.1,0-0.1,0c0,0-0.1,0-0.1,0c0,0,0,0-0.1,0c0,0,0,0-0.1,0c-0.5,0-0.9-0.1-1.3-0.2c-0.3-0.1-0.6-0.3-0.9-0.6
				c-0.2-0.3-0.3-0.7-0.3-1.2s0.1-1,0.3-1.3s0.5-0.6,1-0.8c0.4-0.2,1-0.3,1.6-0.3c0.4,0,0.8,0,1.1,0.1c0.4,0.1,0.7,0.2,1,0.3
				s0.6,0.3,0.9,0.5l-0.9,1.1c-0.4-0.2-0.8-0.4-1.1-0.5s-0.7-0.2-1.1-0.2c-0.5,0-0.9,0.1-1.1,0.3c-0.3,0.2-0.4,0.4-0.4,0.8
				c0,0.2,0.1,0.4,0.2,0.5s0.3,0.2,0.5,0.2s0.5,0.1,0.9,0.1c0,0,0.1,0,0.1,0c0,0,0.1,0,0.1,0c0,0,0,0,0,0s0,0,0,0
				c0.5,0,1,0.1,1.4,0.2c0.4,0.1,0.7,0.3,0.9,0.6s0.4,0.8,0.4,1.4c0,0.5-0.1,1-0.4,1.4c-0.2,0.4-0.6,0.6-1.1,0.8s-1.1,0.3-1.8,0.3
				C346.1,154.5,345.8,154.5,345.8,154.5z"/>
			<path d="M351,146.7h3.4v1.3H351V146.7z M352.2,153.9c-0.3-0.3-0.4-0.8-0.4-1.5v-7.8h1.5v7.9c0,0.2,0,0.3,0.1,0.4s0.2,0.1,0.3,0.1
				h0.7v1.4h-0.9C353,154.4,352.5,154.2,352.2,153.9z"/>
		</g>
	</g>
	<g>
		<g>
			<path d="M210.7,179.5l-3.1,10.6h-1.8l3.1-10.5h-3.1v1.7h-1.7v-3.3h6.6V179.5z"/>
			<path d="M213.9,189.2c-0.6-0.6-0.9-1.4-0.9-2.5v-5.5c0-1.1,0.3-1.9,0.9-2.5c0.6-0.6,1.4-0.9,2.6-0.9c1.1,0,2,0.3,2.6,0.9
				c0.6,0.6,0.9,1.4,0.9,2.5v5.5c0,1.1-0.3,1.9-0.9,2.5c-0.6,0.6-1.4,0.9-2.6,0.9C215.3,190.1,214.5,189.8,213.9,189.2z
				 M217.8,188.1c0.3-0.3,0.4-0.8,0.4-1.3v-5.5c0-0.6-0.1-1-0.4-1.3c-0.3-0.3-0.7-0.5-1.3-0.5s-1,0.2-1.3,0.5
				c-0.3,0.3-0.4,0.8-0.4,1.3v5.5c0,0.6,0.1,1,0.4,1.3c0.3,0.3,0.7,0.5,1.3,0.5S217.5,188.4,217.8,188.1z"/>
			<path d="M222.4,182.1c-0.4-0.4-0.6-1-0.6-1.8c0-0.8,0.2-1.4,0.6-1.8c0.4-0.4,1-0.6,1.8-0.6c0.8,0,1.4,0.2,1.8,0.6s0.6,1,0.6,1.8
				c0,0.8-0.2,1.4-0.6,1.8s-1,0.6-1.8,0.6C223.5,182.8,222.9,182.5,222.4,182.1z M225,181.1c0.2-0.2,0.3-0.5,0.3-0.9
				c0-0.4-0.1-0.6-0.3-0.8c-0.2-0.2-0.4-0.3-0.8-0.3s-0.6,0.1-0.8,0.3c-0.2,0.2-0.3,0.5-0.3,0.9s0.1,0.7,0.3,0.9s0.4,0.3,0.8,0.3
				C224.6,181.4,224.8,181.3,225,181.1z"/>
		</g>
	</g>
	<path class="st9" d="M204.9,176.5c-20.5-2.2-36.4-10.6-36.4-20.1"/>
	<line class="st4" x1="215.7" y1="156.4" x2="295" y2="122"/>
	<line class="st4" x1="215.7" y1="156.4" x2="196.5" y2="191.9"/>
	<line class="st4" x1="215.7" y1="269.7" x2="215.7" y2="43.2"/>
	<line class="st4" x1="257.7" y1="254.2" x2="215.7" y2="156.4"/>
	<linearGradient id="SVGID_1_" gradientUnits="userSpaceOnUse" x1="215.71" y1="135.5738" x2="215.71" y2="102.4488">
		<stop  offset="0.4018" style="stop-color:#ED1C24"/>
		<stop  offset="0.9682" style="stop-color:#FFF1EA"/>
		<stop  offset="1" style="stop-color:#FFFFFF"/>
	</linearGradient>
	<path class="st10" d="M314.7,102.4c0,18-44.3,32.6-99,32.6s-99-14.6-99-32.6"/>
	<ellipse class="st1" cx="215.7" cy="156.4" rx="57.8" ry="113.3"/>
	<ellipse class="st1" cx="215.7" cy="156.4" rx="83.3" ry="113.3"/>
	<circle cx="195.7" cy="134.5" r="2.1"/>
	<path class="st11" d="M285.5,244.9c0,6.4-31.2,11.6-69.8,11.6s-69.8-5.2-69.8-11.6"/>
	<circle cx="295.1" cy="121.9" r="2.1"/>
	<circle cx="257.7" cy="254.2" r="2.1"/>
	<linearGradient id="SVGID_2_" gradientUnits="userSpaceOnUse" x1="215.71" y1="96.1988" x2="215.71" y2="69.0738">
		<stop  offset="0.4018" style="stop-color:#ED1C24"/>
		<stop  offset="0.427" style="stop-color:#EE352A"/>
		<stop  offset="0.5517" style="stop-color:#F4795B"/>
		<stop  offset="0.6692" style="stop-color:#F8A58A"/>
		<stop  offset="0.7761" style="stop-color:#FBCAB6"/>
		<stop  offset="0.8702" style="stop-color:#FEE5DA"/>
		<stop  offset="0.9481" style="stop-color:#FFF6F2"/>
		<stop  offset="1" style="stop-color:#FFFFFF"/>
	</linearGradient>
	<path class="st12" d="M289.2,69.1c0,14.7-32.9,26.6-73.5,26.6s-73.5-11.9-73.5-26.6"/>
	<linearGradient id="SVGID_3_" gradientUnits="userSpaceOnUse" x1="215.71" y1="192.9488" x2="215.71" y2="156.4488">
		<stop  offset="0.8684" style="stop-color:#ED1C24"/>
		<stop  offset="0.872" style="stop-color:#EF3D2E"/>
		<stop  offset="0.881" style="stop-color:#F26B4E"/>
		<stop  offset="0.8907" style="stop-color:#F68D6F"/>
		<stop  offset="0.901" style="stop-color:#F9A98E"/>
		<stop  offset="0.9119" style="stop-color:#FBC3AD"/>
		<stop  offset="0.9236" style="stop-color:#FDD7C7"/>
		<stop  offset="0.9365" style="stop-color:#FEE8DD"/>
		<stop  offset="0.9512" style="stop-color:#FFF3EE"/>
		<stop  offset="0.9692" style="stop-color:#FFFBF9"/>
		<stop  offset="1" style="stop-color:#FFFFFF"/>
	</linearGradient>
	<path class="st13" d="M329,156.4c0,19.9-50.7,36-113.3,36s-113.3-16.1-113.3-36"/>
	<circle class="st14" cx="215.7" cy="156.4" r="113.3"/>
	<g>
		<g>
			<polyline class="st15" points="340.6,97.6 296.7,97.6 291.4,87.6 			"/>
			<g>
				<path d="M292.2,89.2l-2.1,3.6l-0.1-0.1l-0.7-6.3c-0.6-2-1.1-4-1.7-6c1.4,1.6,2.7,3.2,4.1,4.8l4.8,4.1l0,0.1L292.2,89.2z"/>
			</g>
		</g>
	</g>
	<g>
		<g>
			<polyline class="st15" points="340.2,204.9 296.3,204.9 291,195 			"/>
			<g>
				<path d="M291.8,196.5l-2.1,3.6l-0.1-0.1l-0.7-6.3c-0.6-2-1.1-4-1.7-6c1.4,1.6,2.7,3.2,4.1,4.8l4.8,4.1l0,0.1L291.8,196.5z"/>
			</g>
		</g>
	</g>
	<g>
		<g>
			<line class="st15" x1="100.2" y1="48.8" x2="192.2" y2="77.2"/>
			<g>
				<path d="M190.5,76.7l-1-4.1l0.1,0l4.9,4c1.8,1,3.6,2.1,5.5,3.1c-2.1-0.2-4.2-0.3-6.3-0.5l-6.3,0.5l-0.1-0.1L190.5,76.7z"/>
			</g>
		</g>
	</g>
	<g>
		<g>
			<line class="st15" x1="85" y1="96.5" x2="133.7" y2="96.6"/>
			<g>
				<path d="M131.9,96.6l-2.2-3.6l0.1-0.1l5.9,2.4c2,0.5,4.1,0.9,6.1,1.4c-2,0.4-4.1,0.9-6.1,1.3l-5.9,2.3l-0.1-0.1L131.9,96.6z"/>
			</g>
		</g>
	</g>
	<g>
		<g>
			<path class="st8" d="M254.3,160.4c0,0-0.3-0.1-0.8-0.4c-0.5-0.2-0.9-0.6-1.2-1.1c-0.3-0.5-0.5-1-0.6-1.7h1.7
				c0,0.3,0.2,0.6,0.3,0.8s0.4,0.4,0.6,0.5c0.3,0.1,0.6,0.2,0.9,0.2c0.6,0,1-0.1,1.3-0.4s0.5-0.7,0.5-1.3v-0.4
				c0-0.6-0.1-1.1-0.4-1.4c-0.3-0.3-0.7-0.5-1.2-0.5h-0.9v-1.6h0.9c0.5,0,0.8-0.1,1.1-0.4s0.4-0.7,0.4-1.2v-0.4
				c0-0.5-0.1-0.8-0.4-1.1c-0.3-0.3-0.7-0.4-1.2-0.4c-0.3,0-0.5,0.1-0.8,0.2c-0.2,0.1-0.4,0.3-0.6,0.5c-0.2,0.2-0.3,0.5-0.3,0.8
				h-1.7c0.1-0.7,0.3-1.2,0.6-1.7c0.3-0.5,0.7-0.8,1.2-1.1s1-0.4,1.6-0.4c1,0,1.8,0.3,2.4,0.8s0.9,1.3,0.9,2.3v0.2
				c0,0.6-0.2,1.1-0.5,1.6s-0.8,0.8-1.4,1c0.7,0.1,1.2,0.5,1.5,1c0.4,0.5,0.5,1.1,0.5,1.9v0.2c0,0.7-0.1,1.3-0.4,1.8
				s-0.7,0.9-1.2,1.1c-0.5,0.3-1.1,0.4-1.9,0.4C254.7,160.4,254.3,160.4,254.3,160.4z"/>
			<path class="st8" d="M263,160.1c-0.5-0.2-0.9-0.6-1.2-1c-0.3-0.5-0.5-1-0.6-1.6v0h1.7v0c0.1,0.4,0.2,0.8,0.5,1
				c0.3,0.2,0.7,0.4,1.1,0.4c0.5,0,1-0.2,1.3-0.5c0.3-0.4,0.4-0.9,0.4-1.5v-1c0-0.7-0.1-1.2-0.4-1.5c-0.3-0.4-0.7-0.5-1.3-0.5
				c-0.3,0-0.6,0.1-0.8,0.2s-0.5,0.4-0.7,0.7h-1.5v-6.4h6.2v1.6h-4.5v2.7c0.2-0.2,0.4-0.3,0.7-0.4s0.5-0.1,0.8-0.1
				c0.7,0,1.3,0.1,1.8,0.4c0.5,0.3,0.9,0.7,1.1,1.3c0.3,0.6,0.4,1.2,0.4,2v1c0,0.8-0.1,1.4-0.4,2s-0.7,1-1.2,1.3
				c-0.5,0.3-1.1,0.4-1.8,0.4C264,160.4,263.4,160.3,263,160.1z"/>
			<path class="st8" d="M270.5,152.4c-0.4-0.4-0.6-1-0.6-1.8c0-0.8,0.2-1.4,0.6-1.8c0.4-0.4,1-0.6,1.8-0.6c0.8,0,1.4,0.2,1.8,0.6
				s0.6,1,0.6,1.8c0,0.8-0.2,1.4-0.6,1.8s-1,0.6-1.8,0.6C271.6,153,271,152.8,270.5,152.4z M273.1,151.4c0.2-0.2,0.3-0.5,0.3-0.9
				c0-0.4-0.1-0.6-0.3-0.8c-0.2-0.2-0.4-0.3-0.8-0.3s-0.6,0.1-0.8,0.3c-0.2,0.2-0.3,0.5-0.3,0.9s0.1,0.7,0.3,0.9s0.4,0.3,0.8,0.3
				C272.7,151.7,272.9,151.6,273.1,151.4z"/>
		</g>
	</g>
	<g>
		<g>
			<path class="st8" d="M248.1,207.9c-0.5-0.2-0.9-0.6-1.2-1c-0.3-0.5-0.5-1-0.6-1.6v0h1.7v0c0.1,0.4,0.2,0.8,0.5,1
				c0.3,0.2,0.7,0.4,1.1,0.4c0.5,0,1-0.2,1.3-0.5c0.3-0.4,0.4-0.9,0.4-1.5v-1c0-0.7-0.1-1.2-0.4-1.5c-0.3-0.4-0.7-0.5-1.3-0.5
				c-0.3,0-0.6,0.1-0.8,0.2s-0.5,0.4-0.7,0.7h-1.5V196h6.2v1.6h-4.5v2.7c0.2-0.2,0.4-0.3,0.7-0.4s0.5-0.1,0.8-0.1
				c0.7,0,1.3,0.1,1.8,0.4c0.5,0.3,0.9,0.7,1.1,1.3c0.3,0.6,0.4,1.2,0.4,2v1c0,0.8-0.1,1.4-0.4,2s-0.7,1-1.2,1.3
				c-0.5,0.3-1.1,0.4-1.8,0.4C249.1,208.2,248.6,208.1,248.1,207.9z"/>
			<path class="st8" d="M256.5,207.3c-0.6-0.6-0.9-1.4-0.9-2.5v-5.5c0-1.1,0.3-1.9,0.9-2.5c0.6-0.6,1.4-0.9,2.6-0.9
				c1.1,0,2,0.3,2.6,0.9c0.6,0.6,0.9,1.4,0.9,2.5v5.5c0,1.1-0.3,1.9-0.9,2.5c-0.6,0.6-1.4,0.9-2.6,0.9
				C257.9,208.2,257.1,207.9,256.5,207.3z M260.4,206.1c0.3-0.3,0.4-0.8,0.4-1.3v-5.5c0-0.6-0.1-1-0.4-1.3c-0.3-0.3-0.7-0.5-1.3-0.5
				s-1,0.2-1.3,0.5c-0.3,0.3-0.4,0.8-0.4,1.3v5.5c0,0.6,0.1,1,0.4,1.3c0.3,0.3,0.7,0.5,1.3,0.5S260.1,206.5,260.4,206.1z"/>
			<path class="st8" d="M265,200.2c-0.4-0.4-0.6-1-0.6-1.8c0-0.8,0.2-1.4,0.6-1.8c0.4-0.4,1-0.6,1.8-0.6c0.8,0,1.4,0.2,1.8,0.6
				s0.6,1,0.6,1.8c0,0.8-0.2,1.4-0.6,1.8s-1,0.6-1.8,0.6C266.1,200.9,265.5,200.6,265,200.2z M267.6,199.2c0.2-0.2,0.3-0.5,0.3-0.9
				c0-0.4-0.1-0.6-0.3-0.8c-0.2-0.2-0.4-0.3-0.8-0.3s-0.6,0.1-0.8,0.3c-0.2,0.2-0.3,0.5-0.3,0.9s0.1,0.7,0.3,0.9s0.4,0.3,0.8,0.3
				C267.2,199.5,267.4,199.4,267.6,199.2z"/>
		</g>
	</g>
	<g>
		<g>
			<path d="M185.2,128.9c-0.6-0.3-1-0.8-1.3-1.4c-0.3-0.6-0.5-1.3-0.5-2.1v-3c0-0.8,0.2-1.5,0.5-2.1c0.3-0.6,0.7-1.1,1.3-1.4
				c0.6-0.3,1.2-0.5,2-0.5s1.4,0.2,2,0.5c0.6,0.3,1,0.8,1.3,1.4c0.3,0.6,0.5,1.3,0.5,2.1v3c0,0.8-0.2,1.5-0.5,2.1
				c-0.3,0.6-0.7,1.1-1.3,1.4s-1.2,0.5-2,0.5S185.7,129.2,185.2,128.9z M188.3,127.6c0.3-0.2,0.6-0.5,0.8-0.8
				c0.2-0.4,0.3-0.8,0.3-1.3v-3.1c0-0.5-0.1-0.9-0.3-1.3c-0.2-0.4-0.4-0.6-0.8-0.8c-0.3-0.2-0.7-0.3-1.2-0.3s-0.8,0.1-1.2,0.3
				c-0.3,0.2-0.6,0.5-0.8,0.8c-0.2,0.4-0.3,0.8-0.3,1.3v3.1c0,0.5,0.1,0.9,0.3,1.3c0.2,0.4,0.4,0.6,0.8,0.8c0.3,0.2,0.7,0.3,1.2,0.3
				S187.9,127.8,188.3,127.6z"/>
		</g>
	</g>
	<g>
		<g>
			<path d="M308.7,122.8h1.4v10.6h-1.5v-8l0.1,0.5l-2.6,6h-1l-2.6-5.9l0.1-0.6v8h-1.5v-10.6h1.4l3.1,7L308.7,122.8z"/>
		</g>
	</g>
	<g>
		<g>
			<path d="M262.9,237.5h1.5v10.6h-1.5V237.5z M264.1,243.5l4.7-6h1.8l-6.8,8.2L264.1,243.5z M265.9,242.5l1.2-1.1l4,6.8h-1.8
				L265.9,242.5z"/>
		</g>
	</g>
</g>
</svg>
