<svg xmlns="http://www.w3.org/2000/svg" xmlns:html="http://www.w3.org/1999/xhtml" xmlns:xlink="http://www.w3.org/1999/xlink" version="1.1" viewBox="-2.5 -2.5 165 173"><style xmlns="http://www.w3.org/1999/xhtml">
    .blocklyText {
        fill: #FFFFFF;
        font-family: "Helvetica Neue", Helvetica, sans-serif;
        font-size: 12pt;
        font-weight: 500;
    }
    .blocklyNonEditableText&gt;text, .blocklyEditableText&gt;text {
        fill: #575E75;
    }
    .blocklyDropdownText {
        fill: #FFFFFF !important;
    }
    </style><g data-id="[Xu+roH0KvPk1am*;9sJ" class="blocklyDraggable blocklySelected" data-shapes="c-block c-2" data-category="control" transform="translate(0,0) scale(1)"><path class="blocklyPath blocklyBlockBackground" stroke="#CF8B17" fill="#FFAB19" fill-opacity="1" d="m 0,4 A 4,4 0 0,1 4,0 H 12 c 2,0 3,1 4,2 l 4,4 c 1,1 2,2 4,2 h 12 c 2,0 3,-1 4,-2 l 4,-4 c 1,-1 2,-2 4,-2 H 156 a 4,4 0 0,1 4,4 v 40  a 4,4 0 0,1 -4,4 H 64 c -2,0 -3,1 -4,2 l -4,4 c -1,1 -2,2 -4,2 h -12 c -2,0 -3,-1 -4,-2 l -4,-4 c -1,-1 -2,-2 -4,-2 h -8  a 4,4 0 0,0 -4,4 v 16 a 4,4 0 0,0 4,4 h  8 c 2,0 3,1 4,2 l 4,4 c 1,1 2,2 4,2 h 12 c 2,0 3,-1 4,-2 l 4,-4 c 1,-1 2,-2 4,-2 H 156 H 156 a 4,4 0 0,1 4,4 v 24  a 4,4 0 0,1 -4,4 H 64 c -2,0 -3,1 -4,2 l -4,4 c -1,1 -2,2 -4,2 h -12 c -2,0 -3,-1 -4,-2 l -4,-4 c -1,-1 -2,-2 -4,-2 h -8  a 4,4 0 0,0 -4,4 v 16 a 4,4 0 0,0 4,4 h  8 c 2,0 3,1 4,2 l 4,4 c 1,1 2,2 4,2 h 12 c 2,0 3,-1 4,-2 l 4,-4 c 1,-1 2,-2 4,-2 H 156 a 4,4 0 0,1 4,4 v 24  a 4,4 0 0,1 -4,4 H 48   c -2,0 -3,1 -4,2 l -4,4 c -1,1 -2,2 -4,2 h -12 c -2,0 -3,-1 -4,-2 l -4,-4 c -1,-1 -2,-2 -4,-2 H 4 a 4,4 0 0,1 -4,-4 z"/><text class="blocklyText" y="2" text-anchor="middle" dominant-baseline="middle" dy="0" x="5.775000095367432" transform="translate(8, 24) ">si</text><path class="blocklyPath" style="visibility: visible" d="M 16,0  h 16 l 16,16 l -16,16 h -16 l -16,-16 l 16,-16 z" fill="#CF8B17" transform="translate(48,8)" data-argument-type="boolean"/><text class="blocklyText" y="2" text-anchor="middle" dominant-baseline="middle" dy="0" x="17.34166717529297" transform="translate(104, 24) ">alors</text><text class="blocklyText" y="2" text-anchor="middle" dominant-baseline="middle" dy="0" x="19.125" transform="translate(8, 88) ">sinon</text></g></svg>