<?xml version="1.0" encoding="UTF-8"?>
<svg id="Calque_1" data-name="Calque 1" xmlns="http://www.w3.org/2000/svg" viewBox="0 0 65.15 86.52">
  <defs>
    <style>
      .cls-1 {
        fill: #1d1d1b;
        font-family: Bahnschrift, Bahnschrift;
        font-size: 12px;
        font-variation-settings: 'wght' 400, 'wdth' 100;
      }

      .cls-2 {
        stroke: #e30613;
      }

      .cls-2, .cls-3, .cls-4 {
        fill: none;
        stroke-miterlimit: 10;
      }

      .cls-3 {
        stroke: #1d1d1b;
      }

      .cls-4 {
        stroke: #009640;
      }
    </style>
  </defs>
  <g>
    <path class="cls-4" d="m36.32,53.24c-2.33,1.62-5.17,2.57-8.22,2.57s-5.7-.89-7.99-2.41"/>
    <path class="cls-4" d="m19.88,29.54c2.33-1.62,5.17-2.57,8.22-2.57s5.7.89,7.99,2.41"/>
  </g>
  <g>
    <path class="cls-2" d="m17.69,57.03c-5.05-3.37-8.38-9.11-8.38-15.64s3.2-12.04,8.08-15.43"/>
    <path class="cls-2" d="m38.5,25.75c5.05,3.37,8.38,9.11,8.38,15.64s-3.2,12.04-8.08,15.43"/>
  </g>
  <line class="cls-3" x1=".41" y1="1.47" x2="57.43" y2="83.69"/>
  <line class="cls-3" x1="1.77" y1="80.96" x2="55.22" y2=".62"/>
  <line class="cls-3" x1="6.03" y1="15.77" x2="11.13" y2="11.86"/>
  <line class="cls-3" x1="45.01" y1="11.69" x2="48.75" y2="14.92"/>
  <line class="cls-3" x1="5.52" y1="71.6" x2="8.58" y2="74.15"/>
  <line class="cls-3" x1="54.2" y1="72.88" x2="49.43" y2="77.22"/>
  <text class="cls-1" transform="translate(33.19 45.91)"><tspan x="0" y="0">O</tspan></text>
  <text class="cls-1" transform="translate(10.79 10.26)"><tspan x="0" y="0">A</tspan></text>
  <text class="cls-1" transform="translate(9.6 83.28)"><tspan x="0" y="0">B</tspan></text>
  <text class="cls-1" transform="translate(56.75 72.88)"><tspan x="0" y="0">N</tspan></text>
  <text class="cls-1" transform="translate(49.94 23.19)"><tspan x="0" y="0">M</tspan></text>
</svg>