<?xml version="1.0" encoding="utf-8"?>
<!-- Generator: Adobe Illustrator 23.0.0, SVG Export Plug-In . SVG Version: 6.00 Build 0)  -->
<svg version="1.1" id="Calque_1" xmlns="http://www.w3.org/2000/svg" xmlns:xlink="http://www.w3.org/1999/xlink" x="0px" y="0px"
	 viewBox="0 0 482.6 181.4" style="enable-background:new 0 0 482.6 181.4;" xml:space="preserve">
<style type="text/css">
	.st0{fill:#1B75BC;stroke:#000000;stroke-width:3;stroke-miterlimit:10;}
	.st1{fill:#FFFFFF;}
	.st2{font-family:'LucidaCalligraphy-Italic';}
	.st3{font-size:35px;}
	.st4{stroke:#000000;stroke-width:0.9048;stroke-miterlimit:10;}
	.st5{fill:none;stroke:#000000;stroke-width:3;stroke-miterlimit:10;}
	.st6{fill:#ED1C24;}
	.st7{fill:#006838;}
	.st8{fill:none;stroke:#000000;stroke-width:3;stroke-linecap:round;stroke-miterlimit:10;}
</style>
<rect x="106.3" y="43.4" class="st0" width="185" height="126"/>
<text transform="matrix(1 0 0 1 122.2569 83.8199)" class="st1 st2 st3">fonction</text>
<path class="st4" d="M197.3,127.5c-0.2-1.4-0.3-2.4-1.1-2.6c-1.6-0.4-5.7,1-6.4-0.1l-2-3.2c-0.7-1.2,2.4-4.2,2.7-5.8
	c0.2-0.8-0.7-1.3-1.9-2.2c-1.2-0.9-1.9-1.5-2.6-1.1c-1.4,0.8-3.3,4.7-4.6,4.4l-3.6-0.9c-1.3-0.3-1.2-4.7-2.2-6.1
	c-0.5-0.7-1.4-0.4-2.8-0.2c-1.4,0.2-2.4,0.3-2.6,1.1c-0.4,1.6,1,5.7-0.2,6.4l-3.2,2c-1.2,0.7-4.2-2.4-5.8-2.8
	c-0.8-0.2-1.3,0.7-2.2,1.9c-0.9,1.2-1.5,1.9-1.1,2.6c0.8,1.4,4.7,3.3,4.4,4.7l-0.9,3.6c-0.3,1.3-4.7,1.2-6.1,2.1
	c-0.7,0.5-0.4,1.4-0.2,2.8c0.2,1.4,0.3,2.4,1.1,2.6c1.6,0.4,5.7-1,6.4,0.2l1.9,3.2c0.7,1.2-2.5,4.2-2.8,5.8
	c-0.2,0.8,0.7,1.3,1.9,2.2s1.9,1.5,2.6,1.1c1.4-0.8,3.4-4.7,4.7-4.4l3.7,0.9c1.3,0.3,1.2,4.7,2.1,6.1c0.5,0.7,1.4,0.4,2.8,0.2
	c1.4-0.2,2.4-0.3,2.6-1.1c0.4-1.6-1-5.7,0.2-6.4l3.3-2c1.2-0.7,4.2,2.4,5.8,2.7c0.8,0.2,1.3-0.7,2.2-1.9c0.9-1.2,1.5-1.9,1.1-2.6
	c-0.8-1.4-4.7-3.3-4.4-4.6l0.9-3.7c0.3-1.3,4.7-1.3,6.1-2.2C197.8,129.9,197.5,129,197.3,127.5z M176.2,139c-4.4,0-8-3.6-8-8
	c0-4.4,3.6-8,8-8s8,3.6,8,8C184.1,135.4,180.6,139,176.2,139z"/>
<path class="st4" d="M206.3,115.9c-0.1-0.5-0.1-0.9-0.4-0.9c-0.6-0.2-2,0.4-2.3,0l-0.7-1.1c-0.2-0.4,0.9-1.5,1-2
	c0.1-0.3-0.2-0.5-0.7-0.8s-0.7-0.5-0.9-0.4c-0.5,0.3-1.2,1.7-1.6,1.6l-1.3-0.3c-0.5-0.1-0.4-1.7-0.8-2.1c-0.2-0.2-0.5-0.2-1-0.1
	c-0.5,0.1-0.9,0.1-0.9,0.4c-0.2,0.6,0.3,2-0.1,2.3l-1.1,0.7c-0.4,0.2-1.5-0.9-2-1c-0.3-0.1-0.5,0.2-0.8,0.7
	c-0.3,0.4-0.5,0.7-0.4,0.9c0.3,0.5,1.7,1.2,1.6,1.6l-0.3,1.3c-0.1,0.5-1.7,0.4-2.1,0.7c-0.2,0.2-0.2,0.5-0.1,1
	c0.1,0.5,0.1,0.9,0.4,0.9c0.6,0.2,2-0.3,2.3,0.1l0.7,1.1c0.2,0.4-0.9,1.5-1,2c-0.1,0.3,0.2,0.5,0.7,0.8c0.4,0.3,0.7,0.5,0.9,0.4
	c0.5-0.3,1.2-1.7,1.6-1.6l1.3,0.3c0.5,0.1,0.4,1.7,0.7,2.1c0.2,0.2,0.5,0.2,1,0.1c0.5-0.1,0.9-0.1,0.9-0.4c0.2-0.6-0.3-2,0.1-2.3
	l1.2-0.7c0.4-0.2,1.5,0.9,2,1c0.3,0.1,0.5-0.2,0.8-0.7c0.3-0.4,0.5-0.7,0.4-0.9c-0.3-0.5-1.7-1.2-1.6-1.6l0.3-1.3
	c0.1-0.5,1.6-0.4,2.1-0.8C206.4,116.8,206.3,116.4,206.3,115.9z M198.8,119.9c-1.5,0-2.8-1.3-2.8-2.8c0-1.5,1.3-2.8,2.8-2.8
	s2.8,1.3,2.8,2.8C201.6,118.7,200.4,119.9,198.8,119.9z"/>
<path class="st4" d="M223.5,129.2c-0.1-0.8-0.2-1.3-0.6-1.4c-0.8-0.2-3,0.5-3.4-0.1l-1-1.7c-0.4-0.6,1.3-2.2,1.4-3
	c0.1-0.4-0.4-0.7-1-1.1c-0.6-0.4-1-0.8-1.4-0.6c-0.7,0.4-1.7,2.5-2.4,2.3l-1.9-0.4c-0.7-0.2-0.6-2.4-1.1-3.2
	c-0.2-0.4-0.7-0.2-1.5-0.1c-0.8,0.1-1.3,0.2-1.4,0.6c-0.2,0.8,0.5,3-0.1,3.4l-1.7,1c-0.6,0.4-2.2-1.3-3-1.4c-0.4-0.1-0.7,0.4-1.1,1
	c-0.4,0.6-0.8,1-0.6,1.4c0.4,0.7,2.5,1.7,2.3,2.4l-0.5,1.9c-0.2,0.7-2.4,0.6-3.2,1.1c-0.4,0.2-0.2,0.7-0.1,1.5
	c0.1,0.8,0.1,1.3,0.6,1.4c0.8,0.2,3-0.5,3.4,0.1l1,1.7c0.4,0.6-1.3,2.2-1.5,3c-0.1,0.4,0.4,0.7,1,1.1c0.6,0.5,1,0.8,1.4,0.6
	c0.7-0.4,1.8-2.5,2.4-2.3l1.9,0.5c0.7,0.2,0.6,2.4,1.1,3.2c0.2,0.4,0.7,0.2,1.5,0.1c0.8-0.1,1.3-0.1,1.4-0.6c0.2-0.8-0.5-3,0.1-3.4
	l1.7-1.1c0.6-0.4,2.2,1.3,3,1.4c0.4,0.1,0.7-0.4,1.1-1c0.4-0.6,0.8-1,0.6-1.4c-0.4-0.7-2.5-1.7-2.3-2.4l0.4-1.9
	c0.2-0.7,2.4-0.7,3.2-1.1C223.7,130.4,223.6,130,223.5,129.2z M212.5,135.2c-2.3,0-4.2-1.9-4.2-4.2c0-2.3,1.9-4.2,4.2-4.2
	s4.2,1.9,4.2,4.2C216.6,133.3,214.8,135.2,212.5,135.2z"/>
<g>
	<g>
		<path class="st5" d="M42.5,43.4c0-24.1,59.6-49,88.4-15.4"/>
		<g>
			<polygon points="116.5,27.1 128.4,25.2 135.3,15.2 140,43.4 			"/>
		</g>
	</g>
</g>
<g>
	<g>
		<path class="st5" d="M273.5,43.4c0-17.1,46.5-48,74.5-15.2"/>
		<g>
			<polygon points="333.7,27.5 345.6,25.4 352.3,15.3 357.5,43.4 			"/>
		</g>
	</g>
</g>
<g>
	<g>
		<path d="M12.6,50.1h2.6l8.1,22H20l-6.1-17.8L7.8,72.1H4.4L12.6,50.1z M8.2,64.3h11.6v2.9H8.2V64.3z"/>
		<path d="M26.3,56.4h3.1v15.7h-3.1V56.4z M35.9,62.6c0-1.1-0.3-2-0.9-2.6s-1.4-0.9-2.4-0.9c-1,0-1.8,0.3-2.3,0.8
			c-0.6,0.5-0.8,1.3-0.8,2.3l-0.3-3c0.5-0.9,1.1-1.7,1.9-2.2c0.8-0.5,1.6-0.8,2.6-0.8c1.7,0,3,0.6,4,1.7c0.9,1.1,1.4,2.7,1.4,4.7
			v9.5h-3.1V62.6z"/>
		<path d="M45.7,71.6c-0.8-0.5-1.4-1.2-1.9-2.2s-0.6-2.1-0.6-3.5v-3.5c0-1.4,0.2-2.5,0.6-3.5c0.4-1,1-1.7,1.8-2.2
			c0.8-0.5,1.7-0.7,2.9-0.7c0.9,0,1.8,0.2,2.6,0.7c0.8,0.5,1.4,1.2,1.9,2l-0.3,3.2c0-0.7-0.1-1.2-0.4-1.7s-0.6-0.8-1.1-1.1
			c-0.5-0.2-1-0.4-1.7-0.4c-1,0-1.8,0.3-2.4,1c-0.6,0.6-0.8,1.5-0.8,2.7V66c0,1.1,0.3,2,0.8,2.6c0.6,0.6,1.3,0.9,2.4,0.9
			c0.7,0,1.2-0.1,1.7-0.4c0.5-0.3,0.8-0.6,1.1-1.1s0.4-1.1,0.4-1.7l0.2,3.3c-0.3,0.8-0.8,1.4-1.5,2c-0.7,0.5-1.6,0.8-2.6,0.8
			C47.5,72.3,46.5,72.1,45.7,71.6z M47.1,78.5c0,0-0.5-0.2-1.4-0.7c-0.9-0.4-1.7-1.1-2.2-1.9l2.1-1.9c0.4,0.6,0.9,1,1.4,1.3
			c0.6,0.3,1.1,0.5,1.8,0.5c1.2,0,2.1-0.3,2.7-1c0.6-0.7,1-1.6,1-2.8V56.4h3.1v15.2c0,1.4-0.3,2.7-0.8,3.7c-0.5,1-1.3,1.8-2.3,2.3
			c-1,0.5-2.2,0.8-3.6,0.8C47.7,78.5,47.1,78.5,47.1,78.5z"/>
		<path d="M63.5,68c0,0.4,0.1,0.7,0.3,0.9c0.2,0.2,0.4,0.3,0.7,0.3h1.5v2.9H64c-1.2,0-2.1-0.4-2.7-1.1c-0.6-0.7-1-1.8-1-3.1V50.1
			h3.1V68z"/>
		<path d="M73.6,72.3c0,0-0.5-0.3-1.5-0.8s-1.8-1.3-2.4-2.4c-0.5-1.1-0.8-2.3-0.8-3.8v-1.8c0-1.6,0.3-2.9,0.8-4
			c0.5-1.1,1.3-1.9,2.3-2.5c1-0.6,2.2-0.9,3.6-0.9c1.3,0,2.4,0.3,3.4,1c0.9,0.7,1.6,1.6,2.1,2.8c0.5,1.2,0.7,2.7,0.7,4.5v1H71.1V63
			h7.7c-0.1-1.3-0.4-2.3-1-3c-0.6-0.7-1.3-1.1-2.3-1.1c-1.2,0-2.1,0.4-2.7,1.2c-0.6,0.8-1,1.9-1,3.3v2c0,1.3,0.3,2.3,1,3
			c0.7,0.7,1.7,1,2.9,1c0.6,0,1.2-0.1,1.9-0.4c0.6-0.3,1.2-0.6,1.6-1.1l2,2c-0.8,0.7-1.6,1.3-2.6,1.7c-1,0.4-1.9,0.6-2.9,0.6
			C74.3,72.3,73.6,72.3,73.6,72.3z"/>
	</g>
</g>
<g>
	<g>
		<path d="M307.4,50.1h3.1v22h-3.1V50.1z M308.7,59.8h7.5c0.6,0,1.1-0.1,1.6-0.4c0.5-0.3,0.8-0.7,1.1-1.2c0.2-0.5,0.4-1.1,0.4-1.8
			c0-0.7-0.1-1.3-0.4-1.8c-0.2-0.5-0.6-0.9-1-1.2c-0.4-0.3-1-0.4-1.6-0.4h-7.5v-2.9h7.4c1.3,0,2.4,0.3,3.4,0.8
			c1,0.5,1.7,1.3,2.2,2.2c0.5,1,0.8,2.1,0.8,3.3c0,1.3-0.3,2.4-0.8,3.3c-0.5,1-1.3,1.7-2.2,2.2c-1,0.5-2.1,0.8-3.3,0.8h-7.4V59.8z
			 M314.7,62.1l3.1-0.7l5.6,10.7h-3.7L314.7,62.1z"/>
		<path d="M328,71.1c-1-0.8-1.4-2-1.4-3.7c0-1.6,0.4-2.7,1.3-3.5c0.9-0.8,2.2-1.2,4-1.2h4.5l0.2,2.5h-4.7c-0.8,0-1.4,0.2-1.8,0.5
			c-0.4,0.4-0.6,0.9-0.6,1.6c0,0.8,0.3,1.4,0.8,1.8c0.5,0.4,1.3,0.6,2.4,0.6c1.2,0,2.1-0.1,2.6-0.4s0.9-0.6,0.9-1.2l0.3,2.2
			c-0.3,0.4-0.6,0.8-1,1c-0.4,0.3-0.9,0.5-1.4,0.6c-0.5,0.1-1.1,0.2-1.8,0.2C330.4,72.3,328.9,71.9,328,71.1z M336.2,62.1
			c0-1-0.3-1.8-0.8-2.4c-0.5-0.6-1.3-0.9-2.3-0.9c-0.6,0-1.2,0.1-1.8,0.3c-0.6,0.2-1.1,0.5-1.6,0.8l-2.3-1.5
			c0.6-0.7,1.4-1.3,2.4-1.7c1-0.4,2.1-0.6,3.2-0.6c1.3,0,2.4,0.2,3.3,0.7c0.9,0.5,1.6,1.1,2.1,2s0.7,1.9,0.7,3.2v10.1h-2.9V62.1z"/>
		<path d="M343.8,56.4h3.1v22.1h-3.1V56.4z M348.3,71.6c-0.7-0.5-1.3-1.1-1.6-2l0.2-3.3c0,0.7,0.1,1.3,0.4,1.7s0.6,0.8,1.1,1.1
			c0.5,0.3,1,0.4,1.7,0.4c1,0,1.8-0.3,2.4-0.9c0.6-0.6,0.8-1.5,0.8-2.6v-3.4c0-1.2-0.3-2-0.8-2.7c-0.6-0.6-1.3-1-2.4-1
			c-0.7,0-1.2,0.1-1.7,0.4c-0.5,0.2-0.8,0.6-1.1,1.1c-0.2,0.5-0.4,1-0.4,1.7l-0.3-3c0.5-0.9,1.1-1.6,1.9-2.1
			c0.8-0.5,1.6-0.7,2.6-0.7c1.1,0,2.1,0.2,2.9,0.7c0.8,0.5,1.4,1.2,1.8,2.2c0.4,1,0.6,2.1,0.6,3.5V66c0,1.3-0.2,2.5-0.6,3.4
			s-1,1.7-1.9,2.2c-0.8,0.5-1.8,0.7-2.9,0.7C349.8,72.3,349,72.1,348.3,71.6z"/>
		<path d="M360.7,56.4h3.1v22.1h-3.1V56.4z M365.1,71.6c-0.7-0.5-1.3-1.1-1.6-2l0.2-3.3c0,0.7,0.1,1.3,0.4,1.7s0.6,0.8,1.1,1.1
			c0.5,0.3,1,0.4,1.7,0.4c1,0,1.8-0.3,2.4-0.9c0.6-0.6,0.8-1.5,0.8-2.6v-3.4c0-1.2-0.3-2-0.8-2.7c-0.6-0.6-1.3-1-2.4-1
			c-0.7,0-1.2,0.1-1.7,0.4c-0.5,0.2-0.8,0.6-1.1,1.1c-0.2,0.5-0.4,1-0.4,1.7l-0.3-3c0.5-0.9,1.1-1.6,1.9-2.1
			c0.8-0.5,1.6-0.7,2.6-0.7c1.1,0,2.1,0.2,2.9,0.7c0.8,0.5,1.4,1.2,1.8,2.2c0.4,1,0.6,2.1,0.6,3.5V66c0,1.3-0.2,2.5-0.6,3.4
			s-1,1.7-1.9,2.2c-0.8,0.5-1.8,0.7-2.9,0.7C366.7,72.3,365.9,72.1,365.1,71.6z"/>
		<path d="M380,71.5c-1-0.5-1.7-1.3-2.2-2.3c-0.5-1-0.8-2.3-0.8-3.7v-2.6c0-1.4,0.3-2.6,0.8-3.7c0.5-1,1.2-1.8,2.2-2.3
			c1-0.5,2.1-0.8,3.5-0.8s2.5,0.3,3.5,0.8c1,0.5,1.7,1.3,2.2,2.3c0.5,1,0.8,2.2,0.8,3.7v2.6c0,1.4-0.3,2.7-0.8,3.7
			c-0.5,1-1.2,1.8-2.2,2.3s-2.1,0.8-3.5,0.8S381,72,380,71.5z M386,68.4c0.6-0.7,0.9-1.6,0.9-2.8v-2.6c0-1.2-0.3-2.2-0.9-2.8
			c-0.6-0.7-1.4-1-2.5-1s-1.9,0.3-2.5,1c-0.6,0.7-0.9,1.6-0.9,2.8v2.6c0,1.2,0.3,2.2,0.9,2.8c0.6,0.7,1.4,1,2.5,1S385.5,69,386,68.4
			z"/>
		<path d="M394.4,56.4h3.1v15.7h-3.1V56.4z M402,59.3c-0.4-0.2-0.9-0.3-1.4-0.3c-1,0-1.7,0.3-2.3,0.8c-0.5,0.5-0.8,1.3-0.8,2.2
			l-0.3-3c0.5-0.9,1.1-1.7,1.9-2.2c0.8-0.5,1.6-0.8,2.5-0.8c0.7,0,1.4,0.1,1.9,0.3c0.6,0.2,1.1,0.5,1.5,0.9l-2,2.7
			C402.8,59.8,402.4,59.5,402,59.3z"/>
		<path d="M406.4,56.4h7.1v2.8h-7.1V56.4z M408.9,71.1c-0.6-0.7-0.9-1.7-0.9-3.1V51.8h3.1V68c0,0.4,0.1,0.7,0.2,0.9s0.4,0.3,0.7,0.3
			h1.5v2.9h-1.8C410.5,72.2,409.5,71.8,408.9,71.1z"/>
	</g>
</g>
<g>
	<g>
		<path class="st6" d="M336.1,108.6c-1-0.8-1.4-2-1.4-3.7c0-1.6,0.4-2.7,1.3-3.5c0.9-0.8,2.2-1.2,4-1.2h4.5l0.2,2.5H340
			c-0.8,0-1.4,0.2-1.8,0.5c-0.4,0.4-0.6,0.9-0.6,1.6c0,0.8,0.3,1.4,0.8,1.8c0.5,0.4,1.3,0.6,2.4,0.6c1.2,0,2.1-0.1,2.6-0.4
			c0.6-0.3,0.9-0.6,0.9-1.2l0.3,2.2c-0.3,0.4-0.6,0.8-1,1c-0.4,0.3-0.9,0.5-1.4,0.6c-0.5,0.1-1.1,0.2-1.8,0.2
			C338.5,109.8,337.1,109.4,336.1,108.6z M344.3,99.6c0-1-0.3-1.8-0.8-2.4c-0.5-0.6-1.3-0.9-2.3-0.9c-0.6,0-1.2,0.1-1.8,0.3
			s-1.1,0.5-1.6,0.8l-2.3-1.5c0.6-0.7,1.4-1.3,2.4-1.7c1-0.4,2.1-0.6,3.2-0.6c1.3,0,2.4,0.2,3.3,0.7s1.6,1.1,2.1,2s0.7,1.9,0.7,3.2
			v10.1h-2.9V99.6z"/>
		<path class="st6" d="M354,109.1c-0.8-0.5-1.4-1.2-1.9-2.2s-0.6-2.1-0.6-3.5V100c0-1.4,0.2-2.5,0.6-3.5c0.4-1,1-1.7,1.8-2.2
			c0.8-0.5,1.7-0.7,2.9-0.7c0.9,0,1.8,0.2,2.6,0.7c0.8,0.5,1.4,1.2,1.9,2l-0.3,3.2c0-0.7-0.1-1.2-0.4-1.7s-0.6-0.8-1.1-1.1
			c-0.5-0.2-1-0.4-1.7-0.4c-1,0-1.8,0.3-2.4,1c-0.6,0.6-0.8,1.5-0.8,2.7v3.4c0,1.1,0.3,2,0.8,2.6c0.6,0.6,1.3,0.9,2.4,0.9
			c0.7,0,1.2-0.1,1.7-0.4c0.5-0.3,0.8-0.6,1.1-1.1s0.4-1.1,0.4-1.7l0.2,3.3c-0.3,0.8-0.8,1.4-1.5,2c-0.7,0.5-1.6,0.8-2.6,0.8
			C355.8,109.9,354.8,109.6,354,109.1z M360.9,87.6h3.1v22h-3.1V87.6z"/>
		<path class="st6" d="M366.5,113h1.7c0.3,0,0.5-0.1,0.7-0.3s0.2-0.5,0.2-0.9v-18h3.1v17.9c0,1.3-0.3,2.3-1,3.1s-1.5,1.1-2.7,1.1h-2
			V113z M369.1,87.6h3.1v3.1h-3.1V87.6z"/>
		<path class="st6" d="M377.7,108.6c-1-0.8-1.4-2-1.4-3.7c0-1.6,0.4-2.7,1.3-3.5c0.9-0.8,2.2-1.2,4-1.2h4.5l0.2,2.5h-4.7
			c-0.8,0-1.4,0.2-1.8,0.5c-0.4,0.4-0.6,0.9-0.6,1.6c0,0.8,0.3,1.4,0.8,1.8c0.5,0.4,1.3,0.6,2.4,0.6c1.2,0,2.1-0.1,2.6-0.4
			c0.6-0.3,0.9-0.6,0.9-1.2l0.3,2.2c-0.3,0.4-0.6,0.8-1,1c-0.4,0.3-0.9,0.5-1.4,0.6c-0.5,0.1-1.1,0.2-1.8,0.2
			C380.1,109.8,378.6,109.4,377.7,108.6z M385.8,99.6c0-1-0.3-1.8-0.8-2.4c-0.5-0.6-1.3-0.9-2.3-0.9c-0.6,0-1.2,0.1-1.8,0.3
			s-1.1,0.5-1.6,0.8l-2.3-1.5c0.6-0.7,1.4-1.3,2.4-1.7c1-0.4,2.1-0.6,3.2-0.6c1.3,0,2.4,0.2,3.3,0.7s1.6,1.1,2.1,2s0.7,1.9,0.7,3.2
			v10.1h-2.9V99.6z"/>
		<path class="st6" d="M397.7,109.8c0,0-0.5-0.3-1.5-0.8c-1-0.5-1.8-1.3-2.3-2.3c-0.5-1-0.8-2.3-0.8-3.7v-2.6c0-1.4,0.3-2.6,0.8-3.6
			c0.5-1,1.3-1.8,2.3-2.3c1-0.5,2.2-0.8,3.7-0.8c0.8,0,1.6,0.1,2.3,0.3c0.7,0.2,1.4,0.5,1.9,0.9c0.6,0.4,1.1,0.8,1.4,1.4l-2.2,2
			c-0.4-0.5-1-0.9-1.6-1.2c-0.6-0.3-1.2-0.4-1.9-0.4c-1.2,0-2.1,0.3-2.8,1c-0.7,0.7-1,1.6-1,2.8v2.6c0,1.2,0.3,2.2,1,2.9
			c0.7,0.7,1.6,1,2.8,1c0.7,0,1.3-0.1,1.9-0.4s1.1-0.7,1.5-1.2l2.2,2.1c-0.4,0.5-0.9,1-1.5,1.3c-0.6,0.4-1.2,0.6-1.9,0.8
			c-0.7,0.2-1.5,0.3-2.3,0.3C398.4,109.8,397.7,109.8,397.7,109.8z"/>
		<path class="st6" d="M413.2,109.8c0,0-0.5-0.3-1.5-0.8s-1.8-1.3-2.4-2.4s-0.8-2.3-0.8-3.8V101c0-1.6,0.3-2.9,0.8-4
			s1.3-1.9,2.3-2.5c1-0.6,2.2-0.9,3.6-0.9c1.3,0,2.4,0.3,3.4,1c0.9,0.7,1.6,1.6,2.1,2.8s0.7,2.7,0.7,4.5v1h-10.6v-2.5h7.7
			c-0.1-1.3-0.4-2.3-1-3c-0.6-0.7-1.3-1.1-2.3-1.1c-1.2,0-2.1,0.4-2.7,1.2c-0.6,0.8-1,1.9-1,3.3v2c0,1.3,0.3,2.3,1,3s1.7,1,2.9,1
			c0.6,0,1.2-0.1,1.9-0.4s1.2-0.6,1.7-1.1l2,2c-0.8,0.7-1.6,1.3-2.6,1.7c-1,0.4-1.9,0.6-2.9,0.6
			C413.9,109.8,413.2,109.8,413.2,109.8z"/>
		<path class="st6" d="M425.5,93.9h3.1v15.7h-3.1V93.9z M435.1,100.1c0-1.1-0.3-2-0.9-2.6c-0.6-0.6-1.4-0.9-2.4-0.9
			c-1,0-1.8,0.3-2.3,0.8c-0.6,0.5-0.8,1.3-0.8,2.3l-0.3-3c0.5-0.9,1.1-1.7,1.9-2.2c0.8-0.5,1.6-0.8,2.6-0.8c1.7,0,3,0.6,4,1.7
			c0.9,1.1,1.4,2.7,1.4,4.7v9.5h-3.1V100.1z"/>
		<path class="st6" d="M441.6,93.9h7.1v2.8h-7.1V93.9z M444.1,108.6c-0.6-0.7-0.9-1.7-0.9-3.1V89.3h3.1v16.2c0,0.4,0.1,0.7,0.2,0.9
			s0.4,0.3,0.7,0.3h1.5v2.9h-1.8C445.7,109.7,444.7,109.3,444.1,108.6z"/>
		<path class="st7" d="M314.2,124.8h3.1v22h-3.1V124.8z M323.7,137.3c0-1.1-0.3-2-0.9-2.6c-0.6-0.6-1.4-0.9-2.4-0.9
			c-1,0-1.8,0.3-2.3,0.8c-0.6,0.5-0.8,1.3-0.8,2.2l-0.3-3c0.5-0.9,1.1-1.6,1.9-2.2c0.8-0.5,1.6-0.8,2.6-0.8c1.7,0,3,0.6,4,1.7
			c0.9,1.1,1.4,2.7,1.4,4.7v9.5h-3.1V137.3z"/>
		<path class="st7" d="M329.8,131.1h3.1l4.8,13.7l-1.7,3.3L329.8,131.1z M343.8,131.1l-6.7,19.4c-0.2,0.7-0.6,1.3-1,1.7
			s-0.9,0.7-1.5,0.9s-1.3,0.3-2.1,0.3h-0.6v-3h0.6c0.6,0,1-0.1,1.4-0.3c0.3-0.2,0.6-0.6,0.9-1.2l5.8-17.8H343.8z"/>
		<path class="st7" d="M346.5,131.1h3.1v22.1h-3.1V131.1z M351,146.3c-0.7-0.5-1.3-1.1-1.6-2l0.2-3.3c0,0.7,0.1,1.3,0.4,1.7
			s0.6,0.8,1.1,1.1s1,0.4,1.7,0.4c1,0,1.8-0.3,2.4-0.9c0.6-0.6,0.8-1.5,0.8-2.6v-3.4c0-1.2-0.3-2-0.8-2.7c-0.6-0.6-1.3-1-2.4-1
			c-0.7,0-1.2,0.1-1.7,0.4s-0.8,0.6-1.1,1.1c-0.2,0.5-0.4,1-0.4,1.7l-0.3-3c0.5-0.9,1.1-1.6,1.9-2.1c0.8-0.5,1.6-0.8,2.6-0.8
			c1.1,0,2.1,0.3,2.9,0.8c0.8,0.5,1.4,1.2,1.8,2.2c0.4,1,0.6,2.1,0.6,3.5v3.4c0,1.3-0.2,2.5-0.6,3.4s-1,1.7-1.9,2.2
			c-0.8,0.5-1.8,0.7-2.9,0.7C352.5,147,351.7,146.8,351,146.3z"/>
		<path class="st7" d="M365.9,146.2c-1-0.5-1.7-1.3-2.2-2.3c-0.5-1-0.8-2.3-0.8-3.7v-2.6c0-1.4,0.3-2.6,0.8-3.7
			c0.5-1,1.2-1.8,2.2-2.3c1-0.5,2.1-0.8,3.5-0.8s2.5,0.3,3.5,0.8c1,0.5,1.7,1.3,2.2,2.3c0.5,1,0.8,2.2,0.8,3.7v2.6
			c0,1.4-0.3,2.7-0.8,3.7c-0.5,1-1.2,1.8-2.2,2.3s-2.1,0.8-3.5,0.8S366.8,146.8,365.9,146.2z M371.9,143.1c0.6-0.7,0.9-1.6,0.9-2.8
			v-2.6c0-1.2-0.3-2.2-0.9-2.8c-0.6-0.7-1.4-1-2.5-1s-1.9,0.3-2.5,1c-0.6,0.7-0.9,1.6-0.9,2.8v2.6c0,1.2,0.3,2.2,0.9,2.8
			c0.6,0.7,1.4,1,2.5,1S371.3,143.7,371.9,143.1z"/>
		<path class="st7" d="M379,131.1h7.1v2.8H379V131.1z M381.5,145.8c-0.6-0.7-0.9-1.7-0.9-3.1v-16.2h3.1v16.2c0,0.4,0.1,0.7,0.2,0.9
			s0.4,0.3,0.7,0.3h1.5v2.9h-1.8C383,146.9,382.1,146.5,381.5,145.8z"/>
		<path class="st7" d="M394.6,147c0,0-0.5-0.3-1.5-0.8s-1.8-1.3-2.4-2.4s-0.8-2.3-0.8-3.8v-1.8c0-1.6,0.3-2.9,0.8-4s1.3-1.9,2.3-2.5
			c1-0.6,2.2-0.9,3.6-0.9c1.3,0,2.4,0.3,3.4,1c0.9,0.7,1.6,1.6,2.1,2.8s0.7,2.7,0.7,4.5v1h-10.6v-2.5h7.7c-0.1-1.3-0.4-2.3-1-3
			c-0.6-0.7-1.3-1.1-2.3-1.1c-1.2,0-2.1,0.4-2.7,1.2c-0.6,0.8-1,1.9-1,3.3v2c0,1.3,0.3,2.3,1,3s1.7,1,2.9,1c0.6,0,1.2-0.1,1.9-0.4
			s1.2-0.6,1.7-1.1l2,2c-0.8,0.7-1.6,1.3-2.6,1.7c-1,0.4-1.9,0.6-2.9,0.6C395.3,147,394.6,147,394.6,147z M394.6,126.5l4.3-5.4
			l2.2,1.8l-4.6,5.1L394.6,126.5z"/>
		<path class="st7" d="M407,131.1h3.1v15.7H407V131.1z M416.5,137.3c0-1.1-0.3-2-0.9-2.6c-0.6-0.6-1.4-0.9-2.4-0.9
			c-1,0-1.8,0.3-2.3,0.8c-0.6,0.5-0.8,1.3-0.8,2.3l-0.3-3c0.5-0.9,1.1-1.7,1.9-2.2c0.8-0.5,1.6-0.8,2.6-0.8c1.7,0,3,0.6,4,1.7
			c0.9,1.1,1.4,2.7,1.4,4.7v9.5h-3.1V137.3z"/>
		<path class="st7" d="M427.4,140.6c0,1.1,0.3,2,0.8,2.5c0.6,0.6,1.3,0.9,2.4,0.9c1,0,1.8-0.3,2.3-0.8c0.6-0.5,0.8-1.3,0.8-2.3
			l0.2,3.3c-0.3,0.8-0.8,1.4-1.6,2c-0.7,0.5-1.6,0.8-2.7,0.8c-1.7,0-3.1-0.6-4-1.7s-1.4-2.7-1.4-4.7v-9.6h3.1V140.6z M433.8,131.1
			h3.1v15.7h-3.1V131.1z"/>
		<path class="st7" d="M445.7,147c0,0-0.4-0.1-1.2-0.3c-0.8-0.2-1.6-0.5-2.3-0.8s-1.4-0.8-2-1.4l1.8-2.3c0.8,0.6,1.7,1.1,2.5,1.5
			c0.8,0.3,1.7,0.5,2.5,0.5c1.2,0,2.1-0.2,2.7-0.6c0.6-0.4,0.9-0.9,0.9-1.7c0-0.5-0.2-0.9-0.5-1.1c-0.3-0.3-0.7-0.4-1.2-0.5
			c-0.5-0.1-1.2-0.2-2.1-0.2c-0.1,0-0.2,0-0.3,0c-0.1,0-0.2,0-0.3,0c0,0-0.1,0-0.1,0c0,0-0.1,0-0.1,0c-1-0.1-1.9-0.2-2.6-0.4
			c-0.7-0.2-1.3-0.6-1.8-1.2c-0.5-0.6-0.7-1.4-0.7-2.6s0.2-2,0.7-2.8c0.5-0.7,1.1-1.3,2-1.7c0.9-0.4,2-0.6,3.4-0.6
			c0.8,0,1.6,0.1,2.3,0.2c0.7,0.2,1.5,0.4,2.1,0.7c0.7,0.3,1.3,0.7,2,1.1l-1.9,2.3c-0.8-0.5-1.6-0.9-2.3-1.1
			c-0.8-0.3-1.5-0.4-2.2-0.4c-1,0-1.8,0.2-2.4,0.5c-0.5,0.4-0.8,0.9-0.8,1.6c0,0.4,0.1,0.7,0.4,1c0.3,0.2,0.7,0.4,1.1,0.4
			c0.5,0.1,1.1,0.1,1.9,0.2c0.1,0,0.1,0,0.2,0c0.1,0,0.1,0,0.2,0c0,0,0.1,0,0.1,0s0.1,0,0.1,0c1.1,0.1,2,0.2,2.8,0.4
			c0.8,0.2,1.4,0.7,1.9,1.3s0.8,1.6,0.8,2.8c0,1.1-0.2,2.1-0.7,2.8c-0.5,0.7-1.2,1.3-2.2,1.7s-2.2,0.6-3.7,0.6
			C446.1,147,445.7,147,445.7,147z"/>
		<path class="st7" d="M461.8,147c0,0-0.5-0.3-1.5-0.8s-1.8-1.3-2.4-2.4s-0.8-2.3-0.8-3.8v-1.8c0-1.6,0.3-2.9,0.8-4s1.3-1.9,2.3-2.5
			c1-0.6,2.2-0.9,3.6-0.9c1.3,0,2.4,0.3,3.4,1c0.9,0.7,1.6,1.6,2.1,2.8s0.7,2.7,0.7,4.5v1h-10.6v-2.5h7.7c-0.1-1.3-0.4-2.3-1-3
			c-0.6-0.7-1.3-1.1-2.3-1.1c-1.2,0-2.1,0.4-2.7,1.2c-0.6,0.8-1,1.9-1,3.3v2c0,1.3,0.3,2.3,1,3s1.7,1,2.9,1c0.6,0,1.2-0.1,1.9-0.4
			s1.2-0.6,1.7-1.1l2,2c-0.8,0.7-1.6,1.3-2.6,1.7c-1,0.4-1.9,0.6-2.9,0.6C462.6,147,461.8,147,461.8,147z"/>
	</g>
</g>
<line class="st8" x1="309.6" y1="117.9" x2="474" y2="117.9"/>
</svg>
