<?xml version="1.0" encoding="utf-8"?>
<!-- Generator: Adobe Illustrator 23.0.0, SVG Export Plug-In . SVG Version: 6.00 Build 0)  -->
<svg version="1.1" id="Calque_1" xmlns="http://www.w3.org/2000/svg" xmlns:xlink="http://www.w3.org/1999/xlink" x="0px" y="0px"
	 viewBox="0 0 184.8 108.5" style="enable-background:new 0 0 184.8 108.5;" xml:space="preserve">
<style type="text/css">
	.st0{fill:none;stroke:#010101;stroke-miterlimit:10;}
	.st1{fill:#2BACE2;stroke:#2E368F;stroke-linejoin:round;stroke-miterlimit:10;}
	.st2{fill:none;stroke:#010101;stroke-linejoin:round;stroke-miterlimit:10;}
	.st3{fill:none;stroke:#EC2227;stroke-width:2;stroke-linecap:round;stroke-miterlimit:10;}
	.st4{fill:none;stroke:#019547;stroke-width:2;stroke-linejoin:round;stroke-miterlimit:10;}
	.st5{fill:#010101;}
	.st6{fill:#009444;}
	.st7{fill:#ED1C24;}
</style>
<rect x="158.3" y="76.3" class="st0" width="12.6" height="12.6"/>
<path class="st1" d="M60.6,88.9c0-7.2-1.6-14-4.5-20.1L13.8,88.9H60.6z"/>
<polygon class="st2" points="13.8,88.9 170.9,88.9 170.9,14.4 "/>
<line class="st3" x1="170.9" y1="88.9" x2="13.8" y2="88.9"/>
<line class="st4" x1="13.8" y1="88.9" x2="170.9" y2="14.4"/>
<g>
	<g>
		<path class="st5" d="M175.9,89.6h1l3.1,8.5h-1.3l-2.4-6.9l-2.4,6.9h-1.1L175.9,89.6z M174.2,95.1h4.5v1.1h-4.5V95.1z"/>
	</g>
</g>
<g>
	<g>
		<path class="st5" d="M5.4,89.6h1.2v8.5H5.4V89.6z M6.1,97h2.3c0.6,0,1-0.1,1.3-0.3s0.4-0.6,0.4-1l0,0c0-0.3,0-0.5-0.1-0.7
			s-0.3-0.4-0.5-0.5S9,94.3,8.7,94.3H6.1v-1.1h2.6c0.4,0,0.8-0.1,1-0.3C9.9,92.7,10,92.4,10,92s-0.1-0.7-0.4-1S9,90.7,8.5,90.7H6.1
			v-1.1h2.7c0.6,0,1,0.1,1.4,0.3c0.4,0.2,0.6,0.5,0.8,0.8c0.2,0.3,0.3,0.8,0.3,1.2c0,0.3-0.1,0.6-0.2,0.8c-0.1,0.2-0.3,0.5-0.5,0.7
			s-0.5,0.3-0.9,0.4c0.3,0.1,0.6,0.2,0.9,0.4c0.3,0.2,0.4,0.4,0.6,0.7c0.2,0.3,0.2,0.6,0.2,0.9l0,0c0,0.5-0.1,0.9-0.3,1.2
			c-0.2,0.3-0.5,0.6-0.9,0.8s-0.8,0.3-1.3,0.3H6.1V97z"/>
	</g>
</g>
<g>
	<g>
		<path class="st5" d="M177.5,14.5c0,0-0.2-0.1-0.7-0.4s-0.8-0.6-1-1.1s-0.4-1-0.4-1.7V9c0-0.6,0.1-1.2,0.4-1.7s0.6-0.9,1-1.1
			s1-0.4,1.6-0.4c0.5,0,0.9,0.1,1.3,0.3s0.8,0.5,1,0.9s0.5,0.8,0.6,1.3h-1.2c-0.1-0.3-0.2-0.5-0.4-0.7s-0.4-0.4-0.6-0.5
			s-0.5-0.2-0.7-0.2c-0.3,0-0.7,0.1-0.9,0.3c-0.2,0.2-0.5,0.4-0.6,0.7s-0.2,0.7-0.2,1.1v2.3c0,0.4,0.1,0.8,0.2,1.1s0.3,0.5,0.6,0.7
			c0.3,0.2,0.6,0.2,0.9,0.2s0.5-0.1,0.7-0.2c0.2-0.1,0.4-0.3,0.6-0.5s0.3-0.5,0.4-0.7h1.2c-0.1,0.5-0.3,0.9-0.6,1.3
			c-0.3,0.4-0.6,0.7-1,0.9s-0.9,0.3-1.3,0.3C177.8,14.5,177.5,14.5,177.5,14.5z"/>
	</g>
</g>
<g>
	<g>
		<path d="M63.3,79.8l3-4c0.2-0.2,0.3-0.5,0.4-0.7s0.1-0.5,0.1-0.7l0,0c0-0.3-0.1-0.6-0.3-0.8s-0.5-0.3-0.8-0.3s-0.6,0.1-0.8,0.3
			s-0.3,0.5-0.4,0.9l0,0h-1.2l0,0c0.1-0.5,0.2-0.9,0.4-1.3s0.5-0.6,0.8-0.8s0.7-0.3,1.2-0.3s0.9,0.1,1.3,0.3s0.6,0.4,0.8,0.8
			s0.3,0.7,0.3,1.2l0,0c0,0.3-0.1,0.6-0.2,0.9s-0.3,0.6-0.5,0.9l-2.5,3.4h3.2v1.1h-4.8V79.8z"/>
		<path d="M72.7,76.6v0.2c-0.1,0.2-0.2,0.3-0.4,0.4s-0.4,0.1-0.7,0.1c-0.4,0-0.8-0.1-1.1-0.3s-0.5-0.5-0.7-0.9s-0.3-0.8-0.3-1.3l0,0
			c0-0.6,0.1-1,0.3-1.4s0.5-0.7,0.8-0.9s0.8-0.3,1.3-0.3s0.9,0.1,1.3,0.3s0.6,0.5,0.8,0.9s0.3,0.9,0.3,1.4l0,0c0,0.3,0,0.6-0.1,1
			s-0.2,0.7-0.3,1c0,0.1,0,0.1-0.1,0.2s0,0.1-0.1,0.2l-1.8,3.7h-1.3L72.7,76.6z M72.7,75.9c0.2-0.3,0.3-0.6,0.3-1.1l0,0
			c0-0.4-0.1-0.8-0.3-1s-0.5-0.4-0.9-0.4s-0.7,0.1-0.9,0.4s-0.3,0.6-0.3,1l0,0c0,0.5,0.1,0.8,0.3,1.1s0.5,0.4,0.9,0.4
			C72.2,76.2,72.5,76.1,72.7,75.9z"/>
		<path d="M75.9,75.3c-0.3-0.3-0.4-0.7-0.4-1.3c0-0.6,0.1-1,0.4-1.3s0.7-0.5,1.3-0.5c0.6,0,1,0.2,1.3,0.5s0.4,0.7,0.4,1.3
			c0,0.6-0.2,1-0.5,1.3s-0.7,0.5-1.3,0.5C76.6,75.7,76.2,75.6,75.9,75.3z M77.7,74.6c0.1-0.1,0.2-0.3,0.2-0.6c0-0.3-0.1-0.5-0.2-0.6
			s-0.3-0.2-0.5-0.2s-0.4,0.1-0.5,0.2s-0.2,0.3-0.2,0.6s0.1,0.5,0.2,0.6s0.3,0.2,0.5,0.2C77.4,74.8,77.5,74.7,77.7,74.6z"/>
	</g>
</g>
<g>
	<g>
		<path class="st6" d="M41.3,45.6l1.1-0.5l3.5,7.8l-1.1,0.5L41.3,45.6z M43.5,48.7l4.3-2l0.5,1l-4.3,2L43.5,48.7z M45.7,43.6
			l1.1-0.5l3.5,7.8l-1.1,0.5L45.7,43.6z"/>
		<path class="st6" d="M49,44.8l1.1-0.5l3.9,4l-0.1,1.5L49,44.8z M53.9,42.5l0.8,7.9c0,0.3,0,0.5-0.1,0.8c-0.1,0.2-0.2,0.4-0.4,0.6
			c-0.2,0.2-0.4,0.3-0.7,0.4l-0.2,0.1l-0.5-1l0.2-0.1c0.2-0.1,0.3-0.2,0.4-0.3c0.1-0.1,0.1-0.3,0.1-0.6l-0.8-7.2L53.9,42.5z"/>
		<path class="st6" d="M54.9,42.1l1.1-0.5l3.5,7.8l-1.1,0.5L54.9,42.1z M58.9,46.7c-0.3,0-0.6-0.2-0.9-0.4l-0.5-1.2
			c0.1,0.2,0.2,0.4,0.4,0.5c0.2,0.1,0.3,0.2,0.5,0.2s0.4,0,0.7-0.1c0.4-0.2,0.6-0.4,0.7-0.7c0.1-0.3,0.1-0.7-0.1-1.1l-0.5-1.2
			c-0.2-0.4-0.4-0.7-0.7-0.8c-0.3-0.1-0.6-0.1-1,0c-0.2,0.1-0.4,0.2-0.5,0.4s-0.2,0.3-0.2,0.5s0,0.4,0.1,0.7l-0.6-1
			c0-0.4,0.1-0.7,0.3-1c0.2-0.3,0.5-0.5,0.8-0.7c0.4-0.2,0.8-0.2,1.1-0.2c0.4,0,0.7,0.2,1,0.5s0.6,0.6,0.8,1.1l0.5,1.2
			c0.2,0.5,0.3,0.9,0.3,1.3s-0.1,0.8-0.3,1.1c-0.2,0.3-0.5,0.6-0.9,0.7C59.6,46.7,59.2,46.8,58.9,46.7z"/>
		<path class="st6" d="M64.2,44.3c-0.4,0-0.8-0.2-1.2-0.5s-0.6-0.7-0.9-1.2l-0.4-0.9c-0.2-0.5-0.3-1-0.3-1.4s0.2-0.8,0.4-1.2
			c0.3-0.3,0.6-0.6,1.1-0.8c0.5-0.2,0.9-0.3,1.4-0.3c0.4,0,0.8,0.2,1.2,0.5s0.6,0.7,0.9,1.2l0.4,0.9c0.2,0.5,0.3,1,0.3,1.4
			s-0.2,0.8-0.4,1.2c-0.3,0.3-0.6,0.6-1.1,0.8C65,44.3,64.6,44.4,64.2,44.3z M65.8,42.2c0.1-0.3,0.1-0.7-0.1-1.1l-0.4-0.9
			c-0.2-0.4-0.5-0.7-0.8-0.9c-0.3-0.1-0.7-0.1-1,0c-0.4,0.2-0.6,0.4-0.7,0.8c-0.1,0.3-0.1,0.7,0.1,1.1l0.4,0.9
			c0.2,0.4,0.5,0.7,0.8,0.9c0.3,0.1,0.7,0.1,1,0C65.4,42.8,65.7,42.6,65.8,42.2z"/>
		<path class="st6" d="M69.6,41.7c-0.3-0.2-0.6-0.5-0.8-1L66.2,35l1.1-0.5l2.6,5.7c0.1,0.1,0.1,0.2,0.2,0.3c0.1,0,0.2,0,0.3,0
			l0.5-0.2l0.5,1l-0.6,0.3C70.3,41.8,69.9,41.8,69.6,41.7z M66.4,36.9l2.5-1.1l0.4,1l-2.5,1.1L66.4,36.9z"/>
		<path class="st6" d="M74.4,40c0,0-0.2,0-0.7,0s-0.9-0.2-1.2-0.5c-0.4-0.3-0.7-0.7-0.9-1.2l-0.3-0.6c-0.2-0.5-0.4-1.1-0.4-1.5
			c0-0.5,0.1-0.9,0.4-1.2c0.3-0.4,0.6-0.7,1.1-0.9c0.5-0.2,0.9-0.3,1.3-0.2c0.4,0.1,0.8,0.3,1.2,0.7c0.4,0.4,0.7,0.8,1,1.5l0.2,0.4
			l-3.7,1.7L72,37.3l2.7-1.2c-0.2-0.4-0.5-0.7-0.8-0.9c-0.3-0.2-0.6-0.2-1,0s-0.7,0.5-0.8,0.8c-0.1,0.4,0,0.8,0.2,1.3l0.3,0.7
			c0.2,0.5,0.5,0.8,0.8,0.9c0.4,0.1,0.8,0.1,1.2-0.1c0.2-0.1,0.4-0.2,0.6-0.4c0.2-0.2,0.3-0.4,0.4-0.6l1,0.4c-0.2,0.4-0.4,0.7-0.6,1
			c-0.3,0.3-0.6,0.5-0.9,0.7C74.7,39.9,74.4,40,74.4,40z M71.1,32.8l0.7-2.6l1.1,0.3L72.1,33L71.1,32.8z"/>
		<path class="st6" d="M76.2,32.4l1.1-0.5l2.5,5.5l-1.1,0.5L76.2,32.4z M80.6,33.1c-0.2-0.4-0.4-0.6-0.7-0.8s-0.6-0.1-1,0.1
			s-0.6,0.4-0.7,0.7c-0.1,0.3-0.1,0.6,0.1,0.9l-0.6-1c0-0.4,0.1-0.8,0.3-1.1c0.2-0.3,0.5-0.5,0.8-0.7c0.6-0.3,1.2-0.3,1.7,0
			c0.5,0.2,0.9,0.7,1.3,1.4l1.5,3.4l-1.1,0.5L80.6,33.1z"/>
		<path class="st6" d="M84.9,32.5c0.2,0.4,0.4,0.6,0.7,0.8c0.3,0.1,0.6,0.1,1-0.1s0.6-0.4,0.7-0.7c0.1-0.3,0.1-0.6-0.1-0.9l0.6,1.1
			c0,0.3-0.1,0.6-0.2,0.9c-0.2,0.3-0.4,0.5-0.8,0.7c-0.6,0.3-1.2,0.3-1.7,0.1c-0.5-0.2-0.9-0.7-1.3-1.4l-1.5-3.4l1.1-0.5L84.9,32.5z
			 M85.7,28.1l1.1-0.5l2.5,5.5l-1.1,0.5L85.7,28.1z"/>
		<path class="st6" d="M92.4,31.8c0,0-0.2,0-0.5,0.1S91.3,32,91,32s-0.6-0.1-0.9-0.2l0.3-1.1c0.4,0.1,0.8,0.1,1.1,0.1s0.7-0.1,1-0.2
			c0.4-0.2,0.7-0.4,0.9-0.6c0.2-0.2,0.2-0.5,0-0.7C93.3,29.1,93.2,29,93,29c-0.2,0-0.3,0-0.5,0s-0.4,0.1-0.8,0.3h-0.1h-0.1l0,0l0,0
			c-0.4,0.1-0.7,0.2-1,0.3c-0.3,0-0.6,0-0.8-0.1c-0.3-0.1-0.5-0.4-0.7-0.8s-0.2-0.8-0.2-1.1c0-0.3,0.2-0.6,0.4-0.9
			c0.3-0.3,0.6-0.5,1.1-0.7c0.3-0.1,0.6-0.2,0.9-0.3c0.3-0.1,0.6-0.1,0.9-0.1s0.6,0,0.9,0.1l-0.3,1.1c-0.4-0.1-0.7-0.1-1,0
			s-0.6,0.1-0.8,0.2c-0.4,0.2-0.6,0.4-0.7,0.6s-0.1,0.4,0,0.7c0.1,0.1,0.2,0.2,0.3,0.3c0.1,0,0.3,0,0.5,0s0.4-0.1,0.7-0.2
			c0,0,0,0,0.1,0c0,0,0,0,0.1,0l0,0l0,0c0.4-0.2,0.8-0.3,1.1-0.3c0.3,0,0.6,0,0.9,0.2c0.3,0.1,0.5,0.4,0.7,0.9
			c0.2,0.4,0.2,0.8,0.2,1.1s-0.2,0.7-0.5,0.9c-0.3,0.3-0.7,0.5-1.2,0.8C92.6,31.7,92.4,31.8,92.4,31.8z"/>
		<path class="st6" d="M98.1,29.2c0,0-0.2,0-0.7,0s-0.9-0.2-1.2-0.5s-0.7-0.7-0.9-1.2L95,26.9c-0.2-0.5-0.4-1.1-0.4-1.5
			c0-0.5,0.1-0.9,0.4-1.2s0.6-0.7,1.1-0.9c0.5-0.2,0.9-0.3,1.3-0.2c0.4,0.1,0.8,0.3,1.2,0.7c0.4,0.4,0.7,0.8,1,1.5l0.2,0.4l-3.7,1.7
			l-0.4-0.9l2.7-1.2c-0.2-0.4-0.5-0.7-0.8-0.9c-0.3-0.2-0.6-0.2-1,0s-0.7,0.5-0.8,0.8c-0.1,0.4,0,0.8,0.2,1.3l0.3,0.7
			c0.2,0.5,0.5,0.8,0.8,0.9c0.4,0.1,0.8,0.1,1.2-0.1c0.2-0.1,0.4-0.2,0.6-0.4c0.2-0.2,0.3-0.4,0.4-0.6l1,0.4c-0.2,0.4-0.4,0.7-0.6,1
			c-0.3,0.3-0.6,0.5-0.9,0.7C98.4,29.1,98.1,29.2,98.1,29.2z"/>
		<path class="st6" d="M70,57.5c-0.4,0-0.8-0.2-1.1-0.5s-0.6-0.7-0.8-1.2l0,0c-0.1-0.3-0.2-0.6-0.3-1c-0.1-0.3-0.1-0.7-0.1-1.1
			c0-0.1,0-0.1,0-0.2s0-0.1,0-0.2l0.2-4.1l1.2-0.5l-0.2,4.8l-0.1-0.2c0-0.2,0.1-0.4,0.2-0.6s0.3-0.3,0.5-0.4
			c0.4-0.2,0.8-0.2,1.2-0.2c0.4,0,0.7,0.2,1,0.5s0.6,0.7,0.8,1.1l0,0c0.2,0.5,0.3,1,0.3,1.4s-0.1,0.8-0.4,1.1
			c-0.2,0.3-0.6,0.6-1,0.8C70.9,57.4,70.4,57.5,70,57.5z M71.5,55.5c0.1-0.3,0-0.6-0.1-1l0,0c-0.2-0.4-0.4-0.7-0.8-0.9
			c-0.3-0.1-0.6-0.1-1,0c-0.3,0.1-0.5,0.4-0.6,0.7c-0.1,0.3,0,0.7,0.2,1.1l0,0c0.2,0.4,0.4,0.7,0.7,0.8c0.3,0.1,0.6,0.1,0.9,0
			C71.2,56,71.4,55.8,71.5,55.5z"/>
		<path class="st6" d="M76.5,54.9c0,0-0.2,0-0.7,0c-0.4,0-0.8-0.2-1.2-0.4c-0.4-0.3-0.6-0.7-0.9-1.2l-0.4-0.9
			c-0.2-0.5-0.3-1-0.3-1.4s0.2-0.8,0.4-1.2s0.7-0.6,1.2-0.9c0.3-0.1,0.6-0.2,0.9-0.3c0.3,0,0.6,0,0.8,0c0.3,0,0.5,0.1,0.7,0.2
			l-0.5,1.1c-0.2-0.1-0.5-0.2-0.7-0.2c-0.3,0-0.5,0.1-0.7,0.2c-0.4,0.2-0.7,0.5-0.8,0.8s-0.1,0.7,0.1,1.1l0.4,0.9
			c0.2,0.4,0.5,0.7,0.8,0.9c0.3,0.1,0.7,0.1,1.1-0.1c0.2-0.1,0.4-0.3,0.6-0.5s0.3-0.4,0.3-0.7l1.1,0.4c-0.1,0.2-0.2,0.5-0.3,0.7
			c-0.1,0.2-0.3,0.4-0.6,0.6c-0.2,0.2-0.5,0.3-0.8,0.5C76.7,54.8,76.5,54.9,76.5,54.9z"/>
		<path class="st6" d="M77.9,47.5L79,47l2.5,5.5L80.4,53L77.9,47.5z M82.2,48.1c-0.2-0.4-0.4-0.6-0.7-0.8s-0.6-0.1-1,0.1
			s-0.6,0.4-0.7,0.7c-0.1,0.3-0.1,0.6,0.1,0.9l-0.6-1c0-0.4,0.1-0.8,0.3-1.1c0.2-0.3,0.5-0.5,0.8-0.7c0.4-0.2,0.8-0.2,1.1-0.2
			s0.7,0.2,1,0.5s0.6,0.6,0.8,1.1l1.5,3.4l-1.1,0.5L82.2,48.1z M85.5,46.6c-0.2-0.4-0.4-0.6-0.7-0.8c-0.3-0.1-0.6-0.1-1,0.1
			c-0.3,0.2-0.6,0.4-0.6,0.7s-0.1,0.6,0.1,1l-0.7-1c0-0.4,0.1-0.8,0.3-1.2c0.2-0.3,0.5-0.6,0.8-0.7c0.4-0.2,0.8-0.2,1.1-0.2
			c0.4,0,0.7,0.2,1,0.5s0.6,0.6,0.8,1.1l1.5,3.4L87,50L85.5,46.6z"/>
	</g>
</g>
<polygon class="st7" points="142.2,95.4 138.8,92.5 135.4,95.5 138.8,94.2 "/>
<g>
	<g>
		<path class="st7" d="M41.2,96.2h1l3.1,8.5h-1.3l-2.4-6.9l-2.4,6.9h-1.3L41.2,96.2z M39.5,101.7H44v1.1h-4.5V101.7z"/>
		<path class="st7" d="M47.3,104.5c-0.3-0.2-0.6-0.5-0.7-0.8s-0.2-0.8-0.2-1.3V101c0-0.5,0.1-1,0.2-1.3s0.4-0.7,0.7-0.8
			s0.7-0.3,1.1-0.3c0.4,0,0.7,0.1,1,0.3s0.5,0.5,0.7,0.8l-0.1,1.2c0-0.3,0-0.5-0.1-0.7s-0.2-0.3-0.4-0.4s-0.4-0.1-0.6-0.1
			c-0.4,0-0.7,0.1-0.9,0.4s-0.3,0.6-0.3,1v1.3c0,0.4,0.1,0.8,0.3,1s0.5,0.4,0.9,0.4c0.3,0,0.5,0,0.6-0.1s0.3-0.2,0.4-0.4
			s0.1-0.4,0.1-0.7l0.1,1.3c-0.1,0.3-0.3,0.6-0.6,0.8s-0.6,0.3-1,0.3C48,104.8,47.6,104.7,47.3,104.5z M50,96.2h1.2v8.5H50V96.2z"/>
		<path class="st7" d="M52.2,106.1h0.7c0.1,0,0.2,0,0.3-0.1s0.1-0.2,0.1-0.3v-7h1.2v6.9c0,0.5-0.1,0.9-0.4,1.2s-0.6,0.4-1.1,0.4
			h-0.8V106.1z M53.2,96.2h1.2v1.2h-1.2V96.2z"/>
		<path class="st7" d="M56.5,104.4c-0.4-0.3-0.6-0.8-0.6-1.4c0-0.6,0.2-1.1,0.5-1.4s0.9-0.5,1.5-0.5h1.7l0.1,1H58
			c-0.3,0-0.5,0.1-0.7,0.2s-0.2,0.4-0.2,0.6c0,0.3,0.1,0.5,0.3,0.7s0.5,0.2,0.9,0.2c0.5,0,0.8,0,1-0.1s0.3-0.3,0.3-0.5l0.1,0.9
			c-0.1,0.2-0.2,0.3-0.4,0.4s-0.3,0.2-0.5,0.2s-0.4,0.1-0.7,0.1C57.4,104.8,56.9,104.7,56.5,104.4z M59.7,100.9
			c0-0.4-0.1-0.7-0.3-0.9s-0.5-0.3-0.9-0.3c-0.2,0-0.5,0-0.7,0.1s-0.4,0.2-0.6,0.3l-0.9-0.6c0.2-0.3,0.5-0.5,0.9-0.6
			s0.8-0.2,1.3-0.2c0.5,0,0.9,0.1,1.3,0.3s0.6,0.4,0.8,0.8s0.3,0.7,0.3,1.2v3.9h-1.1V100.9z"/>
		<path class="st7" d="M64.2,104.8c0,0-0.2-0.1-0.6-0.3s-0.7-0.5-0.9-0.9s-0.3-0.9-0.3-1.4v-1c0-0.6,0.1-1,0.3-1.4s0.5-0.7,0.9-0.9
			s0.9-0.3,1.4-0.3c0.3,0,0.6,0,0.9,0.1s0.5,0.2,0.8,0.3s0.4,0.3,0.6,0.5l-0.9,0.8c-0.2-0.2-0.4-0.3-0.6-0.5s-0.5-0.2-0.7-0.2
			c-0.5,0-0.8,0.1-1.1,0.4s-0.4,0.6-0.4,1.1v1c0,0.5,0.1,0.9,0.4,1.1s0.6,0.4,1.1,0.4c0.3,0,0.5-0.1,0.7-0.2s0.4-0.3,0.6-0.5
			l0.9,0.8c-0.2,0.2-0.3,0.4-0.6,0.5s-0.5,0.3-0.8,0.3s-0.6,0.1-0.9,0.1C64.5,104.8,64.2,104.8,64.2,104.8z"/>
		<path class="st7" d="M70.2,104.8c0,0-0.2-0.1-0.6-0.3s-0.7-0.5-0.9-0.9s-0.3-0.9-0.3-1.5v-0.7c0-0.6,0.1-1.1,0.3-1.5
			s0.5-0.8,0.9-1s0.8-0.3,1.4-0.3c0.5,0,0.9,0.1,1.3,0.4s0.6,0.6,0.8,1.1s0.3,1.1,0.3,1.7v0.4h-4.1v-1h3c0-0.5-0.2-0.9-0.4-1.2
			s-0.5-0.4-0.9-0.4c-0.5,0-0.8,0.1-1.1,0.4s-0.4,0.7-0.4,1.3v0.8c0,0.5,0.1,0.9,0.4,1.2s0.6,0.4,1.1,0.4c0.2,0,0.5,0,0.7-0.1
			s0.5-0.2,0.6-0.4l0.8,0.8c-0.3,0.3-0.6,0.5-1,0.7s-0.8,0.2-1.1,0.2C70.5,104.8,70.2,104.8,70.2,104.8z"/>
		<path class="st7" d="M75,98.7h1.2v6.1H75V98.7z M78.7,101c0-0.4-0.1-0.8-0.3-1s-0.5-0.4-0.9-0.4c-0.4,0-0.7,0.1-0.9,0.3
			s-0.3,0.5-0.3,0.9l-0.1-1.2c0.2-0.4,0.4-0.7,0.7-0.8s0.6-0.3,1-0.3c0.7,0,1.2,0.2,1.5,0.6s0.5,1,0.5,1.8v3.7h-1.2V101z"/>
		<path class="st7" d="M81.3,98.7H84v1.1h-2.7V98.7z M82.2,104.4c-0.2-0.3-0.3-0.7-0.3-1.2v-6.3h1.2v6.3c0,0.1,0,0.3,0.1,0.3
			s0.1,0.1,0.3,0.1H84v1.1h-0.7C82.8,104.8,82.5,104.6,82.2,104.4z"/>
		<path class="st7" d="M89.1,104.4c-0.4-0.3-0.6-0.8-0.6-1.4c0-0.6,0.2-1.1,0.5-1.4s0.9-0.5,1.5-0.5h1.7l0.1,1h-1.8
			c-0.3,0-0.5,0.1-0.7,0.2s-0.2,0.4-0.2,0.6c0,0.3,0.1,0.5,0.3,0.7s0.5,0.2,0.9,0.2c0.5,0,0.8,0,1-0.1s0.3-0.3,0.3-0.5l0.1,0.9
			c-0.1,0.2-0.2,0.3-0.4,0.4s-0.3,0.2-0.5,0.2s-0.4,0.1-0.7,0.1C90.1,104.8,89.5,104.7,89.1,104.4z M92.3,100.9
			c0-0.4-0.1-0.7-0.3-0.9s-0.5-0.3-0.9-0.3c-0.2,0-0.5,0-0.7,0.1c-0.2,0.1-0.4,0.2-0.6,0.3l-0.9-0.6c0.2-0.3,0.5-0.5,0.9-0.6
			s0.8-0.2,1.3-0.2c0.5,0,0.9,0.1,1.3,0.3s0.6,0.4,0.8,0.8s0.3,0.7,0.3,1.2v3.9h-1.1V100.9z M89.2,95.5l0.9-0.7l1.7,2.1l-0.8,0.6
			L89.2,95.5z"/>
		<path class="st7" d="M99.7,103.2c0,0.1,0,0.3,0.1,0.3s0.2,0.1,0.3,0.1h0.6v1.1h-0.7c-0.5,0-0.8-0.1-1.1-0.4s-0.4-0.7-0.4-1.2v-6.9
			h1.2V103.2z"/>
		<path class="st7" d="M101.4,96.2h1.3v1.9l-1.3,1.3V96.2z"/>
		<path class="st7" d="M104.3,104.4c-0.4-0.3-0.6-0.8-0.6-1.4c0-0.6,0.2-1.1,0.5-1.4s0.9-0.5,1.5-0.5h1.7l0.1,1h-1.8
			c-0.3,0-0.5,0.1-0.7,0.2s-0.2,0.4-0.2,0.6c0,0.3,0.1,0.5,0.3,0.7s0.5,0.2,0.9,0.2c0.5,0,0.8,0,1-0.1s0.3-0.3,0.3-0.5l0.1,0.9
			c-0.1,0.2-0.2,0.3-0.4,0.4s-0.3,0.2-0.5,0.2s-0.4,0.1-0.7,0.1C105.3,104.8,104.7,104.7,104.3,104.4z M107.5,100.9
			c0-0.4-0.1-0.7-0.3-0.9s-0.5-0.3-0.9-0.3c-0.2,0-0.5,0-0.7,0.1s-0.4,0.2-0.6,0.3l-0.9-0.6c0.2-0.3,0.5-0.5,0.9-0.6
			s0.8-0.2,1.3-0.2c0.5,0,0.9,0.1,1.3,0.3s0.6,0.4,0.8,0.8s0.3,0.7,0.3,1.2v3.9h-1.1V100.9z"/>
		<path class="st7" d="M110.5,98.7h1.2v6.1h-1.2V98.7z M114.2,101c0-0.4-0.1-0.8-0.3-1s-0.5-0.4-0.9-0.4c-0.4,0-0.7,0.1-0.9,0.3
			s-0.3,0.5-0.3,0.9l-0.1-1.2c0.2-0.4,0.4-0.7,0.7-0.8s0.6-0.3,1-0.3c0.7,0,1.2,0.2,1.5,0.6s0.5,1,0.5,1.8v3.7h-1.2V101z"/>
		<path class="st7" d="M118,104.5c-0.3-0.2-0.6-0.5-0.7-0.8s-0.2-0.8-0.2-1.3V101c0-0.5,0.1-1,0.2-1.3s0.4-0.7,0.7-0.8
			s0.7-0.3,1.1-0.3c0.4,0,0.7,0.1,1,0.3s0.5,0.5,0.7,0.8l-0.1,1.2c0-0.3,0-0.5-0.1-0.7s-0.2-0.3-0.4-0.4s-0.4-0.1-0.6-0.1
			c-0.4,0-0.7,0.1-0.9,0.4s-0.3,0.6-0.3,1v1.3c0,0.4,0.1,0.8,0.3,1s0.5,0.4,0.9,0.4c0.3,0,0.5,0,0.6-0.1s0.3-0.2,0.4-0.4
			s0.1-0.4,0.1-0.7l0.1,1.3c-0.1,0.3-0.3,0.6-0.6,0.8s-0.6,0.3-1,0.3C118.7,104.8,118.3,104.7,118,104.5z M118.5,107.2
			c0,0-0.2-0.1-0.5-0.3s-0.6-0.4-0.8-0.7l0.8-0.7c0.2,0.2,0.3,0.4,0.6,0.5s0.4,0.2,0.7,0.2c0.5,0,0.8-0.1,1.1-0.4s0.4-0.6,0.4-1.1
			v-6.1h1.2v5.9c0,0.6-0.1,1-0.3,1.4s-0.5,0.7-0.9,0.9s-0.9,0.3-1.4,0.3C118.8,107.2,118.5,107.2,118.5,107.2z"/>
		<path class="st7" d="M124.8,103.2c0,0.1,0,0.3,0.1,0.3s0.2,0.1,0.3,0.1h0.6v1.1h-0.7c-0.5,0-0.8-0.1-1.1-0.4s-0.4-0.7-0.4-1.2
			v-6.9h1.2V103.2z"/>
		<path class="st7" d="M128.8,104.8c0,0-0.2-0.1-0.6-0.3s-0.7-0.5-0.9-0.9s-0.3-0.9-0.3-1.5v-0.7c0-0.6,0.1-1.1,0.3-1.5
			s0.5-0.8,0.9-1s0.8-0.3,1.4-0.3c0.5,0,0.9,0.1,1.3,0.4s0.6,0.6,0.8,1.1s0.3,1.1,0.3,1.7v0.4h-4.1v-1h3c0-0.5-0.2-0.9-0.4-1.2
			s-0.5-0.4-0.9-0.4c-0.5,0-0.8,0.1-1.1,0.4s-0.4,0.7-0.4,1.3v0.8c0,0.5,0.1,0.9,0.4,1.2s0.6,0.4,1.1,0.4c0.2,0,0.5,0,0.7-0.1
			s0.5-0.2,0.6-0.4l0.8,0.8c-0.3,0.3-0.6,0.5-1,0.7s-0.8,0.2-1.1,0.2C129,104.8,128.8,104.8,128.8,104.8z"/>
		<path class="st7" d="M136.9,96.2h1.2v8.5h-1.2V96.2z M137.6,103.6h2.3c0.6,0,1-0.1,1.3-0.3s0.4-0.6,0.4-1v0c0-0.3,0-0.5-0.1-0.7
			s-0.3-0.4-0.5-0.5s-0.5-0.2-0.8-0.2h-2.6v-1.1h2.6c0.4,0,0.8-0.1,1-0.3s0.3-0.5,0.3-0.9c0-0.4-0.1-0.7-0.4-1s-0.6-0.3-1.1-0.3
			h-2.4v-1.1h2.7c0.6,0,1,0.1,1.4,0.3s0.6,0.5,0.8,0.8s0.3,0.8,0.3,1.2c0,0.3-0.1,0.6-0.2,0.8s-0.3,0.5-0.5,0.7s-0.5,0.3-0.9,0.4
			c0.3,0.1,0.6,0.2,0.9,0.4s0.4,0.4,0.6,0.7s0.2,0.6,0.2,0.9v0c0,0.5-0.1,0.9-0.3,1.2s-0.5,0.6-0.9,0.8s-0.8,0.3-1.3,0.3h-2.8V103.6
			z"/>
	</g>
</g>
</svg>
