<?xml version="1.0" encoding="utf-8"?>
<!-- Generator: Adobe Illustrator 23.0.0, SVG Export Plug-In . SVG Version: 6.00 Build 0)  -->
<svg version="1.1" id="Calque_1" xmlns="http://www.w3.org/2000/svg" xmlns:xlink="http://www.w3.org/1999/xlink" x="0px" y="0px"
	 viewBox="0 0 190.7 108" style="enable-background:new 0 0 190.7 108;" xml:space="preserve">
<style type="text/css">
	.st0{fill:none;stroke:#000000;stroke-miterlimit:10;}
	.st1{fill:#00AEEF;stroke:#2E3192;stroke-linejoin:round;stroke-miterlimit:10;}
	.st2{fill:none;stroke:#000000;stroke-linejoin:round;stroke-miterlimit:10;}
	.st3{fill:none;stroke:#ED1C24;stroke-width:2;stroke-linecap:round;stroke-miterlimit:10;}
	.st4{fill:none;stroke:#009444;stroke-width:2;stroke-linejoin:round;stroke-miterlimit:10;}
</style>
<rect x="163" y="74.9" class="st0" width="12.6" height="12.6"/>
<path class="st1" d="M65.3,87.5c0-7.2-1.6-14-4.5-20.1L18.5,87.5H65.3z"/>
<polygon class="st2" points="18.5,87.5 175.6,87.5 175.6,13 "/>
<line class="st3" x1="175.6" y1="87.5" x2="18.5" y2="87.5"/>
<line class="st4" x1="18.5" y1="87.5" x2="175.6" y2="13"/>
<g>
	<g>
		<path d="M7.6,84h1l3.1,8.5h-1.3l-2.4-6.9l-2.4,6.9H4.5L7.6,84z M5.9,89.5h4.5v1.1H5.9V89.5z"/>
	</g>
</g>
<g>
	<g>
		<path d="M180.3,86.7h1.2v8.5h-1.2V86.7z M181,94.1h2.3c0.6,0,1-0.1,1.3-0.3s0.4-0.6,0.4-1v0c0-0.3,0-0.5-0.1-0.7s-0.3-0.4-0.5-0.5
			s-0.5-0.2-0.8-0.2H181v-1.1h2.6c0.4,0,0.8-0.1,1-0.3s0.3-0.5,0.3-0.9c0-0.4-0.1-0.7-0.4-1s-0.6-0.3-1.1-0.3H181v-1.1h2.7
			c0.6,0,1,0.1,1.4,0.3s0.6,0.5,0.8,0.8s0.3,0.8,0.3,1.2c0,0.3-0.1,0.6-0.2,0.8s-0.3,0.5-0.5,0.7s-0.5,0.3-0.9,0.4
			c0.3,0.1,0.6,0.2,0.9,0.4s0.4,0.4,0.6,0.7s0.2,0.6,0.2,0.9v0c0,0.5-0.1,0.9-0.3,1.2s-0.5,0.6-0.9,0.8s-0.8,0.3-1.3,0.3H181V94.1z"
			/>
	</g>
</g>
<g>
	<g>
		<path d="M182.2,13.1c0,0-0.2-0.1-0.7-0.4s-0.8-0.6-1-1.1s-0.4-1-0.4-1.7V7.6c0-0.6,0.1-1.2,0.4-1.7s0.6-0.9,1-1.1s1-0.4,1.6-0.4
			c0.5,0,0.9,0.1,1.3,0.3s0.8,0.5,1,0.9s0.5,0.8,0.6,1.3h-1.2c-0.1-0.3-0.2-0.5-0.4-0.7s-0.4-0.4-0.6-0.5s-0.5-0.2-0.7-0.2
			c-0.3,0-0.7,0.1-0.9,0.3s-0.5,0.4-0.6,0.7s-0.2,0.7-0.2,1.1v2.3c0,0.4,0.1,0.8,0.2,1.1s0.3,0.5,0.6,0.7s0.6,0.2,0.9,0.2
			c0.3,0,0.5-0.1,0.7-0.2s0.4-0.3,0.6-0.5s0.3-0.5,0.4-0.7h1.2c-0.1,0.5-0.3,0.9-0.6,1.3s-0.6,0.7-1,0.9s-0.9,0.3-1.3,0.3
			C182.5,13.1,182.2,13.1,182.2,13.1z"/>
	</g>
</g>
<g>
	<g>
		<path d="M71.7,102.7c0,0-0.2-0.1-0.5-0.3s-0.7-0.4-0.9-0.8s-0.4-0.7-0.4-1.2H71c0,0.2,0.1,0.4,0.2,0.6s0.3,0.3,0.5,0.3
			s0.4,0.1,0.7,0.1c0.4,0,0.7-0.1,0.9-0.3s0.3-0.5,0.3-0.9V100c0-0.4-0.1-0.8-0.3-1s-0.5-0.3-0.9-0.3h-0.6v-1.1h0.6
			c0.3,0,0.6-0.1,0.8-0.3s0.3-0.5,0.3-0.8v-0.3c0-0.3-0.1-0.6-0.3-0.8s-0.5-0.3-0.8-0.3c-0.2,0-0.4,0-0.5,0.1s-0.3,0.2-0.4,0.4
			s-0.2,0.4-0.2,0.6H70c0.1-0.5,0.2-0.9,0.4-1.2s0.5-0.6,0.8-0.8s0.7-0.3,1.1-0.3c0.7,0,1.3,0.2,1.7,0.6s0.6,0.9,0.6,1.6v0.1
			c0,0.4-0.1,0.8-0.3,1.1s-0.6,0.5-1,0.7c0.5,0.1,0.8,0.3,1.1,0.7s0.4,0.8,0.4,1.4v0.1c0,0.5-0.1,0.9-0.3,1.3s-0.5,0.6-0.8,0.8
			s-0.8,0.3-1.3,0.3C71.9,102.7,71.7,102.7,71.7,102.7z"/>
		<path d="M77.1,102c-0.4-0.4-0.6-1-0.6-1.8v-3.9c0-0.8,0.2-1.4,0.6-1.8s1-0.6,1.8-0.6c0.8,0,1.4,0.2,1.8,0.6s0.6,1,0.6,1.8v3.9
			c0,0.8-0.2,1.4-0.6,1.8s-1,0.6-1.8,0.6C78.2,102.7,77.5,102.4,77.1,102z M79.9,101.2c0.2-0.2,0.3-0.5,0.3-1v-3.9
			c0-0.4-0.1-0.7-0.3-1s-0.5-0.3-0.9-0.3s-0.7,0.1-0.9,0.3s-0.3,0.5-0.3,1v3.9c0,0.4,0.1,0.7,0.3,1s0.5,0.3,0.9,0.3
			S79.7,101.4,79.9,101.2z"/>
		<path d="M83,101.3h1.3v1.9l-1.3,1.3V101.3z"/>
		<path d="M88.9,98.3l0,0.2c-0.1,0.2-0.2,0.3-0.4,0.4s-0.4,0.1-0.7,0.1c-0.4,0-0.8-0.1-1.1-0.3s-0.5-0.5-0.7-0.9s-0.3-0.8-0.3-1.3v0
			c0-0.6,0.1-1,0.3-1.4s0.5-0.7,0.8-0.9s0.8-0.3,1.3-0.3s0.9,0.1,1.3,0.3s0.6,0.5,0.8,0.9s0.3,0.9,0.3,1.4v0c0,0.3,0,0.6-0.1,1
			s-0.2,0.7-0.3,1c0,0.1,0,0.1-0.1,0.2s0,0.1-0.1,0.2l-1.8,3.7h-1.3L88.9,98.3z M88.9,97.6c0.2-0.3,0.3-0.6,0.3-1.1v0
			c0-0.4-0.1-0.8-0.3-1s-0.5-0.4-0.9-0.4c-0.4,0-0.7,0.1-0.9,0.4s-0.3,0.6-0.3,1v0c0,0.5,0.1,0.8,0.3,1.1s0.5,0.4,0.9,0.4
			C88.4,98,88.7,97.8,88.9,97.6z"/>
		<path d="M96.9,102.7c0,0-0.2-0.1-0.6-0.3s-0.7-0.5-0.9-0.9s-0.3-0.9-0.3-1.4v-1c0-0.6,0.1-1,0.3-1.4s0.5-0.7,0.9-0.9
			s0.9-0.3,1.4-0.3c0.3,0,0.6,0,0.9,0.1s0.5,0.2,0.8,0.3s0.4,0.3,0.6,0.5l-0.9,0.8c-0.2-0.2-0.4-0.3-0.6-0.5s-0.5-0.2-0.7-0.2
			c-0.5,0-0.8,0.1-1.1,0.4s-0.4,0.6-0.4,1.1v1c0,0.5,0.1,0.9,0.4,1.1s0.6,0.4,1.1,0.4c0.3,0,0.5-0.1,0.7-0.2s0.4-0.3,0.6-0.5
			l0.9,0.8c-0.2,0.2-0.3,0.4-0.6,0.5s-0.5,0.3-0.8,0.3s-0.6,0.1-0.9,0.1C97.2,102.7,96.9,102.7,96.9,102.7z"/>
		<path d="M101.3,96.5h1.2v6.1h-1.2V96.5z M104.9,98.9c0-0.4-0.1-0.8-0.3-1s-0.5-0.4-0.9-0.4c-0.4,0-0.7,0.1-0.9,0.3
			s-0.3,0.5-0.3,0.9l-0.1-1.2c0.2-0.4,0.4-0.7,0.7-0.8s0.6-0.3,1-0.3c0.4,0,0.8,0.1,1.1,0.3s0.5,0.5,0.7,0.8s0.2,0.8,0.2,1.3v3.7
			h-1.2V98.9z M108.5,98.9c0-0.4-0.1-0.8-0.3-1s-0.5-0.4-0.9-0.4c-0.4,0-0.7,0.1-0.9,0.3s-0.3,0.5-0.3,1l-0.2-1.2
			c0.2-0.4,0.4-0.7,0.8-0.9s0.7-0.3,1-0.3c0.4,0,0.8,0.1,1.1,0.3s0.5,0.5,0.7,0.8s0.2,0.8,0.2,1.3v3.7h-1.2V98.9z"/>
	</g>
</g>
<g>
	<g>
		<path d="M71.9,57l-1.1,0.5L67.7,51l-0.8,1.2l-0.5-1.1l0.7-1.3l1.1-0.5L71.9,57z"/>
		<path d="M74,55.4c-0.6-0.2-1-0.6-1.3-1.3l-1.7-3.5c-0.3-0.7-0.4-1.3-0.2-1.9c0.2-0.6,0.6-1,1.3-1.4c0.7-0.3,1.4-0.4,1.9-0.2
			c0.6,0.2,1,0.6,1.3,1.3l1.7,3.5c0.3,0.7,0.4,1.3,0.2,1.9s-0.6,1-1.3,1.4C75.2,55.5,74.5,55.6,74,55.4z M76.1,53.4
			c0.1-0.3,0-0.6-0.1-1l-1.7-3.5c-0.2-0.4-0.4-0.6-0.7-0.7c-0.3-0.1-0.6-0.1-1,0.1c-0.4,0.2-0.6,0.4-0.7,0.7s0,0.6,0.1,1l1.7,3.5
			c0.2,0.4,0.4,0.6,0.7,0.7c0.3,0.1,0.6,0.1,1-0.1S76,53.7,76.1,53.4z"/>
		<path d="M79.9,52.5c-0.6-0.2-1-0.6-1.3-1.3l-1.7-3.5c-0.3-0.7-0.4-1.3-0.2-1.9c0.2-0.6,0.6-1,1.3-1.4c0.7-0.3,1.4-0.4,1.9-0.2
			c0.6,0.2,1,0.6,1.3,1.3L83,49c0.3,0.7,0.4,1.3,0.2,1.9c-0.2,0.6-0.6,1-1.3,1.4C81.1,52.6,80.5,52.7,79.9,52.5z M82,50.5
			c0.1-0.3,0-0.6-0.1-1L80.2,46c-0.2-0.4-0.4-0.6-0.7-0.7c-0.3-0.1-0.6-0.1-1,0.1s-0.6,0.4-0.7,0.7s0,0.6,0.1,1l1.7,3.5
			c0.2,0.4,0.4,0.6,0.7,0.7c0.3,0.1,0.6,0.1,1-0.1C81.7,51,82,50.8,82,50.5z"/>
		<path d="M90,48.3c0,0-0.2,0-0.7,0c-0.4,0-0.8-0.2-1.2-0.4s-0.7-0.6-0.9-1.1l-0.4-0.9c-0.2-0.5-0.4-1-0.3-1.4
			c0-0.4,0.2-0.8,0.4-1.2c0.3-0.4,0.6-0.7,1.1-0.9c0.3-0.1,0.6-0.2,0.9-0.3c0.3-0.1,0.6-0.1,0.8,0c0.3,0,0.5,0.1,0.7,0.2L90,43.2
			c-0.2-0.1-0.5-0.1-0.7-0.1c-0.3,0-0.5,0.1-0.7,0.2c-0.4,0.2-0.7,0.5-0.8,0.8c-0.1,0.3-0.1,0.7,0.1,1.1l0.4,0.9
			c0.2,0.4,0.5,0.7,0.8,0.8c0.3,0.1,0.7,0.1,1.1-0.1c0.2-0.1,0.4-0.3,0.6-0.5c0.2-0.2,0.3-0.4,0.3-0.7l1.1,0.4
			c0,0.2-0.1,0.5-0.3,0.7c-0.1,0.2-0.3,0.4-0.5,0.6c-0.2,0.2-0.5,0.4-0.7,0.5C90.3,48.1,90,48.3,90,48.3z"/>
		<path d="M91.2,40.8l1.1-0.5l2.7,5.5l-1.1,0.5L91.2,40.8z M95.5,41.4c-0.2-0.4-0.4-0.6-0.7-0.8c-0.3-0.1-0.6-0.1-1,0.1
			c-0.4,0.2-0.6,0.4-0.7,0.7c-0.1,0.3-0.1,0.6,0.1,0.9l-0.6-1c0-0.4,0.1-0.8,0.3-1.1c0.2-0.3,0.4-0.5,0.8-0.7
			c0.4-0.2,0.8-0.3,1.1-0.2c0.4,0,0.7,0.2,1,0.5c0.3,0.3,0.6,0.6,0.8,1.1l1.6,3.3l-1.1,0.5L95.5,41.4z M98.8,39.8
			c-0.2-0.4-0.4-0.6-0.7-0.7c-0.3-0.1-0.6-0.1-1,0.1c-0.3,0.2-0.5,0.4-0.6,0.7s0,0.6,0.1,1l-0.7-0.9c0-0.4,0.1-0.8,0.3-1.2
			c0.2-0.3,0.4-0.6,0.8-0.8c0.4-0.2,0.8-0.3,1.1-0.2c0.4,0,0.7,0.2,1,0.4c0.3,0.3,0.6,0.6,0.8,1.1l1.6,3.3l-1.1,0.5L98.8,39.8z"/>
	</g>
</g>
<g>
	<g>
		<path d="M74.6,71.4l-2.2,7.5h-1.3l2.2-7.4h-2.2v1.2h-1.2v-2.4h4.6V71.4z"/>
		<path d="M76.1,77.8l3-4c0.2-0.2,0.3-0.5,0.4-0.7s0.1-0.5,0.1-0.7v0c0-0.3-0.1-0.6-0.3-0.8s-0.5-0.3-0.8-0.3
			c-0.3,0-0.6,0.1-0.8,0.3s-0.3,0.5-0.4,0.9v0H76v0c0.1-0.5,0.2-0.9,0.4-1.3s0.5-0.6,0.8-0.8s0.7-0.3,1.2-0.3c0.5,0,0.9,0.1,1.3,0.3
			s0.6,0.4,0.8,0.8s0.3,0.7,0.3,1.2v0c0,0.3-0.1,0.6-0.2,0.9s-0.3,0.6-0.5,0.9l-2.5,3.4h3.2v1.1h-4.8V77.8z"/>
		<path d="M82.4,73.3C82.2,73,82,72.6,82,72c0-0.6,0.1-1,0.4-1.3s0.7-0.5,1.3-0.5c0.6,0,1,0.2,1.3,0.5s0.4,0.7,0.4,1.3
			c0,0.6-0.2,1-0.5,1.3s-0.7,0.5-1.3,0.5C83.2,73.8,82.7,73.6,82.4,73.3z M84.3,72.6c0.1-0.1,0.2-0.3,0.2-0.6c0-0.3-0.1-0.5-0.2-0.6
			s-0.3-0.2-0.5-0.2s-0.4,0.1-0.5,0.2S83,71.8,83,72s0.1,0.5,0.2,0.6s0.3,0.2,0.5,0.2C83.9,72.8,84.1,72.8,84.3,72.6z"/>
	</g>
</g>
</svg>
