<?xml version="1.0" encoding="UTF-8"?>
<svg id="Calque_1" data-name="Calque 1" xmlns="http://www.w3.org/2000/svg" viewBox="0 0 198.43 170.09">
  <defs>
    <style>
      .cls-1 {
        fill: #ffedd7;
      }

      .cls-1, .cls-2, .cls-3, .cls-4, .cls-5, .cls-6, .cls-7, .cls-8, .cls-9, .cls-10, .cls-11, .cls-12, .cls-13, .cls-14, .cls-15, .cls-16 {
        stroke-width: 0px;
      }

      .cls-17 {
        font-size: 11px;
      }

      .cls-17, .cls-18, .cls-19 {
        font-family: Bahnschrift, Bahnschrift;
        font-variation-settings: 'wght' 400, 'wdth' 100;
      }

      .cls-17, .cls-10 {
        fill: #3c3c3b;
      }

      .cls-20 {
        stroke: #3c3c3b;
      }

      .cls-20, .cls-21, .cls-22 {
        fill: none;
        stroke-miterlimit: 10;
        stroke-width: 2px;
      }

      .cls-21 {
        stroke: #e30613;
        stroke-linecap: round;
      }

      .cls-2 {
        fill: #b17f4a;
      }

      .cls-3 {
        fill: #a6a7bc;
      }

      .cls-4 {
        fill: #242428;
      }

      .cls-5 {
        fill: #e6e6e6;
      }

      .cls-6 {
        fill: #c5c2d2;
      }

      .cls-7 {
        fill: #e1e0ef;
      }

      .cls-18 {
        fill: #1d1d1b;
      }

      .cls-18, .cls-19 {
        font-size: 19px;
      }

      .cls-8 {
        fill: #f6a117;
      }

      .cls-9 {
        fill: #b5d1ef;
      }

      .cls-22 {
        stroke: #fff;
      }

      .cls-11 {
        fill: #caa772;
      }

      .cls-12 {
        fill: #cdcccc;
      }

      .cls-19 {
        fill: #e30613;
      }

      .cls-13 {
        fill: #fff;
      }

      .cls-14 {
        fill: #44ace2;
      }

      .cls-15 {
        fill: #797885;
      }

      .cls-23 {
        letter-spacing: 0em;
      }

      .cls-24 {
        letter-spacing: -.02em;
      }

      .cls-16 {
        fill: #575756;
      }
    </style>
  </defs>
  <polygon class="cls-9" points="198.43 170.08 0 170.09 0 0 198.43 .01 198.43 170.08"/>
  <g>
    <path class="cls-4" d="m57.36,31.72c-3.73,1.09-7.45,2.2-11.18,3.3-1.51.52-2.15-.76-3.12-1.63,1.4-.23,1.17.17,2.18.68,3.09-.87,6.2-2.02,9.29-2.99-.88-.07-1.87-.04-2.79-.2-1.68-.06-3.11-1.13-4.7-1.33-1.96.31-3.93,1.36-5.91,1.07-1.34-.67,5.45-1.46,5.39-2.02-.11-.3-.1-.3.25-.37-1.01-1.8-2-3.59-3.01-5.39-.35-.3.92-.48,1.04-.42,1.38,1.12,2.63,2.52,4.05,3.62.41.36.26-.34.81-.16.34-.01.34,0,.26.32-.56,1.1,3.09.91,3.76.93,2.26-.13,4.51-.41,6.77-.56,1.7-.21,2.24-2.27,3.39-3.33.3-.49-.29-1.1-.39-1.62-.13-.35.55-.1.76-.18.51.26.73.97,1.15,1.38.19,1.08-.76,2.24-.95,3.35,3.48-.16,7.36-1.17,10.33,1.19.4.26.42.6.06.91-3.28,2.5-8.93,1.33-12.9,2.25,1.07.45.57,2.28-.54,2.25-1.03-.05-3.49.6-3.15-1.17.15-.41-.65.09-.83.09Zm6.36-7.92c-.06-.02-.08,0-.06.06h0c-.1,0-.14.05-.11.16h0c-.7.71-1.28,1.56-1.88,2.37,3.43-.2,2.37-.23,3.56-3.15.06-.34-1.06-1.89-1.48-1.56-.05.48.43.95.44,1.46-.16.15-.3.33-.41.52-.02.01-.02.03-.01.04h.01c-.06.01-.1.04-.06.11h0Zm-1.86,6.99c-.02-.06-.07-.04-.11-.05-1.06-.27-2.32.32-3.3.68-.2.59-.1,1.16.65,1.21.98-.09,2.19.27,2.97-.43.38-.39.27-1.26-.21-1.42h0Zm.56-.75c-.07.12-.21.15-.32.22,3.66-.44,7.45-.3,11.03-1.18,1.58-.69,2.6-1.54.3-2.07-.51.46-1.75.98-2.28.53-.2-.53.22-.44.61-.53.27-.04,1.72-.21.97-.52-5.83-1.97-20.58,3.31-24.53-.7-1.09-1-2.2-1.98-3.27-3.01-.22-.33-.65-.02-.97,0,.99,1.81,2.01,3.6,3.01,5.39.25.43-.21.15-.27.36,0,.07.03.16.14.15.69-.13,1.28.08,1.92.45-.44.13-.7.13-1.11.31,2.98,1.26,6.31,2,9.43.84,1.02,0,5.15-1.42,5.34-.23Zm-16.99,4.26c-.08-.06-.15.03-.23.02-.54-.32-.96-.97-1.66-.75.81.77,1.45,1.75,2.69,1.23,5.31-1.66,10.78-3.02,15.99-4.88-1.91-.33-4.23.43-6.15.86-3.52,1.23-7.17,2.25-10.64,3.52Zm-4.24-3.89c2.35.21,4.63-.98,6.97-1.35-1.82-.63-5,.95-6.97,1.35Zm30.61-2.89c.4.06,1.52-.32,1.52-.71-.07-.05-.16-.2-.25-.07-.16.23-.4.24-.63.29-.33.15-1.08,0-1.18.36.03.27.34.1.54.13Zm-22.24-1.43c-.76,0,.19.91.15.11.05-.16-.09-.1-.15-.11Z"/>
    <path class="cls-15" d="m57.36,31.72c1.32-.44.59-.36.87.58-.11-.1-.29.06-.37-.09-.13-.16.39-.58-.06-.44-.18.26-.31.08-.44-.05Z"/>
    <path class="cls-7" d="m61.34,29.58c-5.07.75-8.68,2.31-13.69-.16.41-.18.67-.18,1.11-.31-.63-.36-1.22-.58-1.92-.45-.11.01-.13-.07-.14-.15.05-.21.52.07.27-.36-1.01-1.8-2.03-3.58-3.01-5.39.31-.03.76-.34.97,0,1.07,1.03,2.18,2.01,3.27,3.01,3.2,2.79,7.85,1.1,11.67,1.03,3.33-.32,6.66-.63,9.99-.78.37-.09,3.92.35,2.84.8-.44.22-1.83-.04-1.55.7.02.12.06.15.18.15.78.01,1.51-.13,2.1-.68,2.28.52,1.33,1.36-.3,2.07-3.14.75-6.53.82-9.72.99,2.88-.85-.78-1.06-1.56-.53-.13,0-.26.02-.39.03-.05-.02-.09-.03-.13.02Zm-15.26-5.37c-.13-.18-.19-.35-.49-.43.18.2.28.39.48.45.01,0,.02.01.03.02,0-.01-.02-.02-.02-.03Zm3.93,3.47c.24-.07.49-.14.73-.21,0-.02-.01-.04-.02-.06-1.14.27-2.28.49-3.43.73.97.48,1.81-.2,2.72-.46Zm-3.77-3.27s-.02-.01-.04-.02c.76,1.02,1.73,1.87,2.5,2.89.17.26.65.28.83.02-1.15-.84-2.21-1.94-3.3-2.89Zm8.24,4.51c-.16.02-.34-.02-.29.22.02.12-.02.29.19.23.11-.03.32.06.27-.19-.02-.12.05-.31-.17-.27Zm-1.14.29c-.01.16,0,.28.22.24.12-.02.26,0,.21-.19-.03-.11.05-.31-.2-.26-.13.03-.3-.02-.23.21Zm3.65-.03c.14,0,.31.02.26-.2-.02-.11.03-.29-.19-.25-.13.02-.31-.04-.27.21.02.13-.02.3.2.24Zm8.48-.96c.02.15-.04.33.19.28.11-.03.32.07.28-.18-.02-.12.06-.31-.19-.28-.13.02-.33-.04-.28.17Zm-7.58.45c-.08.03-.27-.07-.23.16.02.11-.07.32.18.28.1-.02.3.07.27-.16-.02-.11.07-.33-.22-.28Zm-6.31.63c.03.15-.03.33.21.29.16-.02.27-.04.24-.25-.02-.16-.04-.24-.23-.21-.12.02-.28-.01-.23.17Zm8.27-.5c-.02-.15.03-.32-.2-.28-.11.02-.29-.04-.24.19.02.13-.04.32.21.27.12-.02.29.03.24-.18Zm5.22-.4c-.02-.16.03-.33-.19-.28-.1.02-.3-.08-.26.16.02.12-.05.32.2.29.13-.02.3.03.25-.17Zm-12.39,1.1c.08-.01.27.06.22-.2-.02-.14,0-.28-.22-.24-.12.02-.28-.02-.23.2.03.11-.05.29.23.24Zm9.57-.74c.05-.02.26.07.19-.16-.03-.1.09-.32-.17-.28-.12.02-.32-.05-.27.21.02.12-.03.3.25.23Zm-1.54-.07c0-.14.01-.27-.19-.23-.13.02-.3-.03-.25.21.02.11-.03.29.19.24.13-.03.33.04.26-.21Zm3.21-.06c.14-.02.31.05.27-.18-.03-.14.02-.31-.23-.26-.12.02-.28-.03-.24.19.03.13-.02.33.2.25Zm-1.04-.17c.03.1-.07.29.17.25.13-.02.31.04.27-.22-.02-.15-.01-.27-.22-.24-.13.02-.28-.02-.22.21Zm-1.51-.05c-.14-.02-.28-.02-.25.21.02.13,0,.26.2.23.14-.02.31.03.26-.22-.02-.13,0-.28-.22-.21Zm-5.32.85c.19-.03.36.03.32-.19-.02-.11.07-.32-.18-.27-.1.02-.3-.08-.26.16.02.11-.08.33.12.3Zm12.05-1.2c0,.14-.03.28.19.25.14-.02.27-.02.23-.23-.02-.12,0-.26-.21-.23-.14.02-.29.01-.22.21Zm-9.35.97c.17.02.26-.02.22-.22-.03-.12.02-.26-.2-.23-.32-.07-.35.56-.02.45Zm-3.69.02c0,.15-.04.31.22.26.14-.03.25,0,.23-.22-.02-.18-.05-.26-.25-.22-.12.02-.27,0-.19.18Zm12.58-.87c.08-.35-.47-.38-.42-.02-.07.28.51.28.42.02Zm-16.5,1.27c-.02-.11.06-.3-.19-.26-.11.02-.26-.01-.22.18.02.13-.03.31.21.28.13-.02.25-.01.2-.2Zm15.63-1.23c.13-.32-.54-.34-.44-.03.02.11-.04.29.19.24.11-.03.32.05.25-.21Z"/>
    <path class="cls-7" d="m48.1,33.39c4.61-1.25,9.31-3.78,14.12-3.47-5.22,1.86-10.69,3.21-15.99,4.88-1.24.52-1.88-.46-2.69-1.23.75-.22,1.23.52,1.81.86.16.23.35.22.6.13,2.3-.87,4.71-1.58,6.96-2.52-1.58.39-3.14.99-4.74,1.4-.02-.02-.04-.04-.06-.06Zm5.79-1.67c-.32.02-.63.14-.89.31.31-.03.62-.15.9-.3.19-.01.37-.07.52-.18-.19.02-.37.06-.53.17Zm.7-.25s-.03.02-.04.02c.03.02.05.02.08,0-.01,0-.03-.01-.04-.02Z"/>
    <path class="cls-7" d="m64.18,23.13c-.01-.51-.48-.98-.44-1.46.43-.33,1.53,1.21,1.48,1.56-1.2,2.88-.09,2.94-3.49,3.15-.01-.01-.02-.03-.04-.04.6-.79,1.16-1.62,1.85-2.33-.09.39-.48.69-.63,1.07.02.03.03,0,.04-.01.73-.57,1.22-1.38,2-1.98-.29.04-.53.06-.78.05Zm-1.34,2.07s-.02,0-.02.02c.01-.02.05-.02.05-.05,0,0-.01.02-.02.03Z"/>
    <path class="cls-7" d="m61.5,30.67s.03.01.05.02c-.17.3-.57.46-.52.86.04.24.13.87.41.85.25.03.41-.17.61-.29,0,.03,0,.06.01.09-.78.69-2,.33-2.97.43-.76-.06-.85-.62-.65-1.21.93-.4,2.01-.75,3.05-.75Zm-.86,1.33c-.55.1-2.36-.81-2.15.02.15.84,1.51.02,2.15-.02Z"/>
    <path class="cls-7" d="m41.18,30.41c1.95-.39,5.18-1.98,6.97-1.35-2.34.37-4.62,1.56-6.97,1.35Z"/>
    <path class="cls-3" d="m48.15,33.45c1.51-.39,2.97-.96,4.48-1.33,0,0,.02.02.02.03-2.21.87-4.49,1.59-6.72,2.41-.34.17-.5-.04-.74-.24.08,0,.15-.08.23-.02.9-.19,1.88-.51,2.73-.85Z"/>
    <path class="cls-3" d="m61.85,29.54c.18-.22,3.17-.62,2.52.14-.53.38-1.33.57-1.96.36.08-.36-.32-.4-.57-.5Z"/>
    <path class="cls-3" d="m64.18,23.13c.25.01.49,0,.78-.05-.79.59-1.27,1.41-2,1.98,0,0-.01-.01-.02-.02.13-.38.54-.65.61-1.04,0,0,0,0,0,0,.08-.02.12-.08.11-.16.01,0,.04-.04.06-.05.02.02.07-.06.05-.1,0,0-.01,0-.01,0,.01,0,.03,0,.04-.01-.01-.01-.02-.02-.03-.03.11-.19.25-.37.41-.52Z"/>
    <path class="cls-3" d="m71.79,27.52c-.2-.03-.5.14-.54-.13.1-.37.85-.21,1.18-.37.23-.04.47-.06.63-.29.09-.13.18.03.25.07,0,.39-1.12.77-1.52.71Z"/>
    <path class="cls-15" d="m61.49,30.79s.04-.07.06-.11c.07,0,.15-.02.2.05.02.06.05.07.11.05,0,0,0,0,0,0-.03.16.21.15.2.31-.06.01-.09.04-.1.1.02.33-.17.79-.1,1.05-.12.11-.25.17-.41.16-.1-.21.43-1.68.04-1.61Z"/>
    <path class="cls-6" d="m48.15,33.45c-.84.35-1.83.67-2.73.85.81-.41,1.8-.58,2.67-.91.02.02.04.04.06.06Z"/>
    <path class="cls-6" d="m62.06,31.09c.01-.15-.23-.14-.2-.31.48.16.59,1.03.21,1.42.04-.38.16-.73-.01-1.11Z"/>
    <path class="cls-7" d="m49.55,26.09c.06.01.2-.06.15.11.04.8-.91-.11-.15-.11Z"/>
    <path class="cls-6" d="m62.42,30.04c.35.24.76-.07,1.1.09-.47.08-.94.13-1.42.14.11-.07.25-.1.32-.22Z"/>
    <path class="cls-15" d="m61.5,30.67c-.18,0-.35,0-.53.01.18-.06.35-.07.53-.01Z"/>
    <path class="cls-7" d="m63.66,23.85c0,.08-.02.14-.11.16-.03-.1.01-.15.11-.16Z"/>
    <path class="cls-3" d="m61.34,29.58s.08-.04.13-.02c-.04,0-.08.01-.13.02Z"/>
    <path class="cls-6" d="m61.86,30.79c-.05.02-.09,0-.11-.05.04,0,.09,0,.11.05Z"/>
    <path class="cls-7" d="m63.76,23.7c0,.05,0,.09-.06.11-.05-.07,0-.1.06-.11Z"/>
    <path class="cls-7" d="m63.77,23.65s.02.02.03.03c-.01,0-.03,0-.04.01,0-.02,0-.03.01-.04Z"/>
    <path class="cls-7" d="m61.73,26.37s-.04,0-.06,0c0-.02.02-.03.03-.05.01.01.02.03.04.04Z"/>
    <path class="cls-7" d="m63.71,23.8s-.04.04-.06.06c-.02-.06,0-.08.06-.06Z"/>
    <path class="cls-3" d="m46.24,24.42c1.09.95,2.14,2.04,3.3,2.89-.54.96-2.74-2.38-3.31-2.87l.02-.02Z"/>
    <path class="cls-3" d="m50.01,27.69c-.91.27-1.75.94-2.72.46.9-.19,1.81-.38,2.71-.57,0,.03,0,.07,0,.1Z"/>
    <path class="cls-4" d="m54.48,28.93c.22-.04.15.15.17.27.05.25-.16.16-.27.19-.22.05-.17-.11-.19-.23-.04-.25.13-.21.29-.22Z"/>
    <path class="cls-4" d="m53.34,29.21c-.07-.23.1-.18.23-.21.25-.05.17.15.2.26.05.19-.09.17-.21.19-.21.04-.23-.08-.22-.24Z"/>
    <path class="cls-4" d="m56.99,29.18c-.22.06-.18-.11-.2-.24-.04-.25.15-.19.27-.21.22-.04.16.14.19.25.05.23-.12.19-.26.2Z"/>
    <path class="cls-4" d="m65.47,28.22c-.05-.22.15-.15.28-.17.24-.03.17.16.19.28.04.25-.17.15-.28.18-.22.05-.17-.12-.19-.28Z"/>
    <path class="cls-4" d="m57.89,28.67c.29-.05.2.17.22.28.04.23-.16.14-.27.16-.25.04-.16-.16-.18-.28-.05-.24.15-.14.23-.16Z"/>
    <path class="cls-4" d="m51.58,29.3c-.05-.18.11-.15.23-.17.18-.03.2.05.23.21.03.22-.08.23-.24.25-.24.04-.18-.14-.21-.29Z"/>
    <path class="cls-4" d="m59.85,28.8c.05.2-.12.15-.24.18-.25.05-.19-.14-.21-.27-.04-.23.13-.17.24-.19.23-.05.19.13.2.28Z"/>
    <path class="cls-4" d="m65.07,28.4c.05.19-.13.15-.25.17-.26.03-.18-.17-.2-.29-.04-.24.16-.13.26-.16.22-.05.17.12.19.28Z"/>
    <path class="cls-4" d="m52.68,29.5c-.28.05-.2-.13-.23-.24-.05-.21.11-.17.23-.2.22-.04.2.1.22.24.04.26-.14.19-.22.2Z"/>
    <path class="cls-4" d="m62.25,28.76c-.28.07-.22-.11-.25-.23-.05-.25.15-.19.27-.21.26-.04.14.18.17.28.07.24-.14.14-.19.16Z"/>
    <path class="cls-4" d="m60.71,28.69c.07.25-.13.19-.26.21-.22.05-.17-.13-.19-.24-.05-.23.13-.18.25-.21.21-.04.2.09.19.23Z"/>
    <path class="cls-4" d="m63.93,28.63c-.22.07-.17-.12-.2-.25-.04-.22.12-.17.24-.19.24-.05.2.12.23.26.04.23-.12.16-.27.18Z"/>
    <path class="cls-4" d="m62.88,28.46c-.07-.22.09-.18.22-.21.21-.04.2.09.22.24.04.25-.14.2-.27.22-.24.04-.14-.15-.17-.25Z"/>
    <path class="cls-4" d="m61.37,28.41c.22-.06.2.08.22.21.04.25-.12.2-.26.22-.21.04-.18-.09-.2-.23-.04-.23.1-.23.25-.21Z"/>
    <path class="cls-4" d="m56.05,29.25c-.19.04-.1-.18-.12-.3-.04-.24.16-.14.26-.16.25-.05.16.15.18.27.04.22-.13.16-.32.19Z"/>
    <path class="cls-4" d="m68.11,28.06c-.07-.2.07-.19.22-.21.21-.03.18.11.21.23.04.21-.09.2-.23.23-.22.04-.18-.11-.19-.25Z"/>
    <path class="cls-4" d="m58.76,29.03c-.33.11-.3-.51.02-.45.22-.03.17.11.2.23.04.2-.05.24-.22.22Z"/>
    <path class="cls-4" d="m55.06,29.05c-.08-.19.07-.16.19-.18.2-.04.23.04.25.22.02.21-.09.19-.23.22-.25.05-.21-.12-.22-.26Z"/>
    <path class="cls-4" d="m67.64,28.18c.08.26-.49.26-.42-.02-.05-.36.51-.33.42.02Z"/>
    <path class="cls-4" d="m51.15,29.46c.05.19-.07.18-.2.2-.25.03-.19-.14-.21-.28-.03-.2.11-.16.22-.18.25-.04.16.15.19.26Z"/>
    <path class="cls-4" d="m66.78,28.23c.07.26-.14.18-.25.21-.23.05-.16-.13-.19-.24-.1-.31.57-.29.44.03Z"/>
    <path class="cls-6" d="m50.01,27.69s0-.07,0-.1c.24-.06.48-.11.72-.17,0,.02.01.04.02.06-.24.07-.49.14-.73.21Z"/>
    <path class="cls-6" d="m46.02,24.22c-.15-.11-.27-.24-.43-.44.25.09.43.23.43.44Z"/>
    <path class="cls-3" d="m46.22,24.43l-.02-.04s.02.01.04.02c0,0-.02.02-.02.02Z"/>
    <path class="cls-3" d="m46.08,24.22s.02.02.02.03c-.01,0-.02-.01-.03-.02,0,0,.01-.01.01-.01Z"/>
    <path class="cls-3" d="m46.02,24.22s0-.05,0-.07c.02.02.04.04.05.06,0,0-.01.01-.01.01-.02,0-.03,0-.05,0Z"/>
    <path class="cls-6" d="m53.27,31.91c.19-.13.39-.19.62-.19h0c-.19.15-.42.17-.63.26,0-.02,0-.05,0-.07Z"/>
    <path class="cls-6" d="m53.88,31.72c.16-.12.34-.15.53-.17-.16.11-.33.17-.52.18,0,0,0-.01,0-.01Z"/>
    <path class="cls-3" d="m53.27,31.91s0,.05,0,.07c-.09,0-.16.08-.27.05.06-.12.18-.08.27-.11Z"/>
    <path class="cls-3" d="m52.63,32.12c.07-.05.14-.1.26-.08-.06.11-.15.09-.23.1,0,0-.01-.02-.02-.03Z"/>
    <path class="cls-6" d="m54.59,31.47s.03.01.04.02c-.03.02-.05.02-.08,0,.01,0,.02-.01.04-.02Z"/>
    <path class="cls-3" d="m62.84,25.2s-.02.01-.02.02c0-.02.01-.02.02-.02,0,0,0,0,0,0Z"/>
    <path class="cls-3" d="m62.84,25.2s.01-.02.02-.03c0,.02,0,.02-.02.03,0,0,0,0,0,0Z"/>
    <path class="cls-3" d="m62.95,25.06s-.07.02-.02-.02c0,0,.01.01.02.02Z"/>
    <path class="cls-3" d="m60.64,31.99c-.64.04-2,.86-2.15.02-.21-.83,1.6.07,2.15-.02Z"/>
    <path class="cls-4" d="m61.49,30.79c.39-.07-.14,1.4-.04,1.61-.28.01-.37-.61-.41-.85-.04-.35.24-.55.46-.76Z"/>
    <path class="cls-3" d="m62.06,31.09c.12.34.12.68,0,1.02-.07.04-.13.09-.2.13-.06-.26.12-.72.1-1.05,0-.06.04-.09.1-.1Z"/>
  </g>
  <g>
    <line class="cls-21" x1="52.74" y1="21.73" x2="65.86" y2="34.85"/>
    <line class="cls-21" x1="65.86" y1="21.73" x2="52.74" y2="34.85"/>
  </g>
  <text class="cls-19" transform="translate(53.39 18.43)"><tspan x="0" y="0">P</tspan></text>
  <rect class="cls-16" x="88.37" y="104.37" width="110.06" height="65.71"/>
  <g>
    <line class="cls-22" x1="96.7" y1="113.33" x2="181.74" y2="113.33"/>
    <rect class="cls-13" x="95.7" y="106.83" width="2" height="13"/>
    <rect class="cls-13" x="180.74" y="106.83" width="2" height="13"/>
  </g>
  <text class="cls-18" transform="translate(90.7 103.55)"><tspan x="0" y="0">A</tspan></text>
  <text class="cls-18" transform="translate(176.13 103.55)"><tspan x="0" y="0">B</tspan></text>
  <g>
    <line class="cls-20" x1="155.26" y1="41.9" x2="183.61" y2="41.9"/>
    <rect class="cls-10" x="154.26" y="35.4" width="2" height="13"/>
    <rect class="cls-10" x="182.61" y="35.4" width="2" height="13"/>
  </g>
  <text class="cls-17" transform="translate(155.46 32.17)"><tspan x="0" y="0">1</tspan><tspan class="cls-24" x="3.66" y="0">0</tspan><tspan class="cls-23" x="9.51" y="0">0 m</tspan></text>
  <g>
    <path class="cls-1" d="m160.19,106.4c.37.07.95-.16,1.14.27.07.2-.06.33-.2.44h-5.5c-.24-.33-.24-.43,0-.67,1.51-.1,3.04,0,4.56-.04Z"/>
    <path class="cls-11" d="m155.72,86.79c-.21-1.59,1.11-2.68,2.62-2.27-.86.46-1.34,1.28-1.2,2.26-.47,0-.95,0-1.42,0Z"/>
    <path class="cls-11" d="m155.63,106.44c-.25.24-.25.35,0,.67h-1.32c-.19-.12-.27-.27-.19-.48.14-.37,1.16-.15,1.52-.2Z"/>
    <path class="cls-5" d="m160.19,106.4c-1.17,0-2.33,0-3.5,0,.05-1.7-.12-3.44.08-5.13.36-1.49,2.18-1.27,3.41-1.26.04,2.13,0,4.26.01,6.39Z"/>
    <path class="cls-8" d="m152.48,97.45c-.07-.22-.14-.44-.21-.67.27-.1.6-.03.89-.04.21.02.24-.06.2-.25-.59-2.15.17-1.86-1.72-1.88-.08-.22-.16-.44-.19-.68,4.17,0,8.34,0,12.51,0-.03.23-.11.45-.18.67-.38,0-.77,0-1.15,0-.13,0-.19.03-.22.18-.34,2.24-.94,1.99.72,2-.04.24-.12.47-.21.7-3.46-.11-6.97,0-10.44-.03Zm5.23-2.84c-.4,0-.8,0-1.2,0-.1,0-.19,0-.18.15.06.62.12,1.25.17,1.87.01.14.08.15.19.15.67,0,1.34,0,2.02,0,.13,0,.19-.03.21-.18.05-.6.1-1.2.16-1.81.01-.13-.02-.19-.17-.19-.4,0-.8,0-1.2,0Zm3.04,0c-.27,0-.55,0-.82,0-.13,0-.18.03-.19.17-.05,2.42-.78,1.94,1.36,2,.16,0,.2-.07.23-.2.12-.6.25-1.2.38-1.79.03-.14,0-.19-.14-.18-.27,0-.55,0-.82,0Zm-6.06,0s0,0,0,.01c-.29,0-.58,0-.86,0-.11,0-.14.03-.12.14.11.27.32,2.06.53,1.98,2.24.06,1.48.4,1.43-1.97.04-.29-.77-.11-.98-.16Z"/>
    <path class="cls-12" d="m160.18,100.02c-1.23-.01-3.05-.23-3.41,1.26-.2,1.69-.02,3.42-.08,5.13-.49-.01-.98.03-1.47.03,0-2.6.04-5.19-.01-7.79,1.66,0,3.33,0,4.99,0-.06.46,0,.92-.03,1.37Z"/>
    <path class="cls-8" d="m153.81,91.71c-.08-.23-.15-.46-.17-.71.47,0,.93,0,1.4,0,.1,0,.2.02.18-.14-.08-.63-.17-1.26-.24-1.88-.02-.15-.08-.19-.22-.19-.55,0-1.09,0-1.64,0-.09-.23-.11-.47-.18-.7,3.18-.02,6.36,0,9.54,0-.03.23-.07.46-.15.67-.55,0-1.11,0-1.66,0-.17,0-.22.07-.23.22-.17,2.46-.87,2,1.36,2.05-.03.23-.09.46-.17.68-2.6-.01-5.21,0-7.81.02Zm3.92-2.96c-.6,0-1.2,0-1.8,0-.27,0-.28,0-.25.27.07.6.15,1.2.22,1.8.01.12.06.18.19.18,1.08,0,2.16,0,3.24,0,.14,0,.18-.06.2-.18.22-2.63.87-2-1.8-2.07Z"/>
    <path class="cls-8" d="m151.19,93.06c-.31-.03-.89.1-.9-.34,0-.21.14-.34.37-.34,4.61,0,9.23-.02,13.84,0,.67-.12.93.55.28.68-4.52.05-9.06,0-13.59,0Z"/>
    <path class="cls-5" d="m160.21,98.64c-1.72,0-3.44,0-5.16,0-.06-.4-.12-.79-.18-1.19,2.68.01,5.39-.07,8.05.03-.11.22-.23,1.25-.48,1.17-.74,0-1.49,0-2.23,0Z"/>
    <path class="cls-5" d="m154.16,93.09c3.35-.01,6.7-.02,10.05,0-.08.27-.16.53-.25.8-.01.01-.03.02-.04.03-3.2,0-6.39.02-9.59,0-.12-.27-.11-.56-.17-.83Z"/>
    <path class="cls-8" d="m155.72,86.79c2.47-.02,4.94,0,7.4.01.44.04.43.67-.01.7-1.76.02-3.53,0-5.29,0-1.68,0-3.35,0-5.03,0-.3-.01-.84.04-.81-.37-.01-.28.31-.35.57-.33,1.06,0,2.11-.01,3.17-.02Z"/>
    <path class="cls-1" d="m159.7,86.78c-.85,0-1.71,0-2.56,0-.13-.98.34-1.8,1.2-2.26.97.25,1.5,1.31,1.35,2.25Z"/>
    <path class="cls-5" d="m155.14,87.51c2.49,0,4.98-.02,7.47,0-.05.19-.09.38-.14.57-2.43,0-4.86.02-7.28-.01-.02-.19-.03-.37-.05-.56Z"/>
    <path class="cls-1" d="m161.78,91.01c-2.23-.05-1.53.41-1.36-2.05.02-.14.07-.22.23-.22.55.01,1.11,0,1.66,0-.18.75-.35,1.5-.53,2.25Z"/>
    <path class="cls-5" d="m155.67,91.71c1.98-.07,3.97,0,5.95-.02-.05.22-.1.43-.14.65-1.88,0-3.75,0-5.63,0-.23-.02-.12-.46-.18-.62Z"/>
    <path class="cls-1" d="m163.13,96.78c-1.66-.01-1.07.25-.72-2,.03-.14.09-.18.22-.18.38,0,.77,0,1.15,0-.22.72-.43,1.45-.65,2.17Z"/>
    <path class="cls-12" d="m155.67,91.71c.06.17-.05.6.18.62,1.88,0,3.75,0,5.63,0,0,0,0,.02,0,.03-2.51.03-5.02.01-7.53,0-.05-.22-.09-.44-.14-.66.62,0,1.24,0,1.86,0Z"/>
    <path class="cls-12" d="m163.92,93.92s.03-.02.04-.03c0,.01,0,.03,0,.04-.01,0-.03,0-.04,0Z"/>
    <path class="cls-1" d="m153.11,88.78c.55,0,1.09,0,1.64,0,.14,0,.21.03.22.19.07.63.16,1.26.24,1.88.02.16-.08.14-.18.14-.47,0-.93,0-1.4,0-.22-.73-.37-1.48-.53-2.22Z"/>
    <path class="cls-12" d="m154.87,97.45c.06.4.12.79.18,1.19-.68.07-1.36,0-2.05.03-.11,0-.18-.01-.21-.13-.1-.37-.2-.73-.31-1.09.8,0,1.59,0,2.39,0Z"/>
    <path class="cls-1" d="m151.64,94.61c1.88.02,1.12-.28,1.72,1.88.04.19.02.27-.2.25-.29,0-.62-.06-.89.04-.21-.72-.42-1.45-.63-2.17Z"/>
    <path class="cls-12" d="m154.16,93.09c.06.28.05.57.17.83-.96,0-1.92,0-2.88,0-.12-.28-.19-.57-.26-.87.99-.03,1.98.02,2.97.03Z"/>
    <path class="cls-12" d="m155.14,87.51c.02.19.03.37.05.56-.75,0-1.5,0-2.26.01-.05-.19-.09-.39-.14-.58.78,0,1.56,0,2.34,0Z"/>
    <path class="cls-1" d="m157.72,94.6c.4,0,.8,0,1.2,0,.14,0,.18.05.17.19-.06.6-.12,1.2-.16,1.81-.01.15-.07.18-.21.18-.67,0-1.34,0-2.02,0-.11,0-.18-.01-.19-.15-.05-.62-.11-1.25-.17-1.87-.01-.15.08-.15.18-.15.4,0,.8,0,1.2,0Z"/>
    <path class="cls-1" d="m160.76,94.6c.27,0,.55,0,.82,0,.14,0,.17.04.14.18-.13.6-.26,1.2-.38,1.79-.03.13-.08.2-.23.2-2.14-.06-1.4.42-1.36-2,0-.14.06-.18.19-.17.27,0,.55,0,.82,0Z"/>
    <path class="cls-1" d="m154.69,94.6c.21.05,1.02-.13.98.16.05,2.37.81,2.03-1.43,1.97-.08,0-.11-.04-.13-.12-.13-.62-.26-1.24-.4-1.86-.03-.11,0-.14.12-.14.29,0,.58,0,.86,0,0,0,0,0,0-.01Z"/>
    <path class="cls-1" d="m157.72,88.75c.61,0,1.21,0,1.82,0,.19,0,.23.07.21.23-.08.61-.15,1.23-.23,1.84-.01.12-.06.18-.2.18-1.08,0-2.16,0-3.24,0-.14,0-.18-.06-.19-.18-.07-.6-.15-1.2-.22-1.8-.03-.26-.02-.27.25-.27.6,0,1.2,0,1.8,0Z"/>
  </g>
  <polygon class="cls-14" points="88.37 170.07 0 170.07 0 150.15 88.37 149.77 88.37 170.07"/>
  <rect class="cls-2" x="88.37" y="123.35" width="110.06" height="46.73"/>
</svg>