<?xml version="1.0" encoding="utf-8"?>
<!-- Generator: Adobe Illustrator 28.0.0, SVG Export Plug-In . SVG Version: 6.00 Build 0)  -->
<svg version="1.1" id="Calque_1" xmlns="http://www.w3.org/2000/svg" xmlns:xlink="http://www.w3.org/1999/xlink" x="0px" y="0px"
	 viewBox="0 0 198.4 170.1" style="enable-background:new 0 0 198.4 170.1;" xml:space="preserve">
<style type="text/css">
	.st0{fill:#B5D1EF;}
	.st1{fill:#242428;}
	.st2{fill:#797885;}
	.st3{fill:#E1E0EF;}
	.st4{fill:#A6A7BC;}
	.st5{fill:#C5C2D2;}
	.st6{fill:none;stroke:#E30613;stroke-width:2;stroke-linecap:round;stroke-miterlimit:10;}
	.st7{enable-background:new    ;}
	.st8{fill:#E30613;}
	.st9{fill:#575756;}
	.st10{fill:none;stroke:#FFFFFF;stroke-width:2;stroke-miterlimit:10;}
	.st11{fill:#FFFFFF;}
	.st12{fill:#1D1D1B;}
	.st13{fill:none;stroke:#3C3C3B;stroke-width:2;stroke-miterlimit:10;}
	.st14{fill:#3C3C3B;}
	.st15{fill:#FFEDD7;}
	.st16{fill:#CAA772;}
	.st17{fill:#E6E6E6;}
	.st18{fill:#F6A117;}
	.st19{fill:#CDCCCC;}
</style>
<rect y="0" class="st0" width="198.4" height="170.1"/>
<g>
	<path class="st1" d="M57.4,40.7c-3.7,1.1-7.5,2.2-11.2,3.3c-1.5,0.5-2.2-0.8-3.1-1.6c1.4-0.2,1.2,0.2,2.2,0.7c3.1-0.9,6.2-2,9.3-3
		c-0.9-0.1-1.9,0-2.8-0.2c-1.7-0.1-3.1-1.1-4.7-1.3c-2,0.3-3.9,1.4-5.9,1.1c-1.3-0.7,5.5-1.5,5.4-2c-0.1-0.3-0.1-0.3,0.2-0.4
		c-1-1.8-2-3.6-3-5.4c-0.3-0.3,0.9-0.5,1-0.4c1.4,1.1,2.6,2.5,4,3.6c0.4,0.4,0.3-0.3,0.8-0.2c0.3,0,0.3,0,0.3,0.3
		c-0.6,1.1,3.1,0.9,3.8,0.9c2.3-0.1,4.5-0.4,6.8-0.6c1.7-0.2,2.2-2.3,3.4-3.3c0.3-0.5-0.3-1.1-0.4-1.6c-0.1-0.4,0.5-0.1,0.8-0.2
		c0.5,0.3,0.7,1,1.2,1.4c0.2,1.1-0.8,2.2-0.9,3.3c3.5-0.2,7.4-1.2,10.3,1.2c0.4,0.3,0.4,0.6,0.1,0.9c-3.3,2.5-8.9,1.3-12.9,2.2
		c1.1,0.5,0.6,2.3-0.5,2.2c-1,0-3.5,0.6-3.2-1.2C58.4,40.2,57.6,40.7,57.4,40.7L57.4,40.7z M63.7,32.8
		C63.7,32.8,63.6,32.8,63.7,32.8L63.7,32.8c-0.2,0.1-0.2,0.1-0.2,0.2l0,0c-0.7,0.7-1.3,1.6-1.9,2.4c3.4-0.2,2.4-0.2,3.6-3.2
		c0.1-0.3-1.1-1.9-1.5-1.6c0,0.5,0.4,1,0.4,1.5c-0.2,0.2-0.3,0.3-0.4,0.5C63.8,32.7,63.8,32.7,63.7,32.8L63.7,32.8
		C63.7,32.7,63.7,32.7,63.7,32.8L63.7,32.8L63.7,32.8z M61.9,39.8c0-0.1-0.1,0-0.1,0c-1.1-0.3-2.3,0.3-3.3,0.7
		c-0.2,0.6-0.1,1.2,0.7,1.2c1-0.1,2.2,0.3,3-0.4C62.5,40.8,62.3,39.9,61.9,39.8L61.9,39.8L61.9,39.8z M62.4,39
		c-0.1,0.1-0.2,0.2-0.3,0.2c3.7-0.4,7.5-0.3,11-1.2c1.6-0.7,2.6-1.5,0.3-2.1c-0.5,0.5-1.8,1-2.3,0.5C71,36,71.4,36.1,71.8,36
		c0.3,0,1.7-0.2,1-0.5c-5.8-2-20.6,3.3-24.5-0.7c-1.1-1-2.2-2-3.3-3c-0.2-0.3-0.7,0-1,0c1,1.8,2,3.6,3,5.4c0.2,0.4-0.2,0.2-0.3,0.4
		c0,0.1,0,0.2,0.1,0.2c0.7-0.1,1.3,0.1,1.9,0.5c-0.4,0.1-0.7,0.1-1.1,0.3c3,1.3,6.3,2,9.4,0.8C58.1,39.3,62.2,37.9,62.4,39L62.4,39z
		 M45.4,43.3c-0.1-0.1-0.2,0-0.2,0c-0.5-0.3-1-1-1.7-0.8c0.8,0.8,1.5,1.8,2.7,1.2c5.3-1.7,10.8-3,16-4.9c-1.9-0.3-4.2,0.4-6.2,0.9
		C52.5,41,48.9,42,45.4,43.3z M41.2,39.4c2.3,0.2,4.6-1,7-1.3C46.3,37.4,43.2,39,41.2,39.4z M71.8,36.5c0.4,0.1,1.5-0.3,1.5-0.7
		c-0.1,0-0.2-0.2-0.2-0.1C72.9,36,72.7,36,72.4,36c-0.3,0.2-1.1,0-1.2,0.4C71.3,36.7,71.6,36.5,71.8,36.5z M49.6,35.1
		c-0.8,0,0.2,0.9,0.2,0.1C49.8,35,49.6,35.1,49.6,35.1z"/>
	<path class="st2" d="M57.4,40.7c1.3-0.4,0.6-0.4,0.9,0.6c-0.1-0.1-0.3,0.1-0.4-0.1c-0.1-0.2,0.4-0.6-0.1-0.4
		C57.6,41,57.5,40.9,57.4,40.7z"/>
	<path class="st3" d="M61.3,38.6c-5.1,0.8-8.7,2.3-13.7-0.2c0.4-0.2,0.7-0.2,1.1-0.3c-0.6-0.4-1.2-0.6-1.9-0.5
		c-0.1,0-0.1-0.1-0.1-0.2c0-0.2,0.5,0.1,0.3-0.4c-1-1.8-2-3.6-3-5.4c0.3,0,0.8-0.3,1,0c1.1,1,2.2,2,3.3,3c3.2,2.8,7.8,1.1,11.7,1
		c3.3-0.3,6.7-0.6,10-0.8c0.4-0.1,3.9,0.3,2.8,0.8c-0.4,0.2-1.8,0-1.6,0.7c0,0.1,0.1,0.2,0.2,0.2c0.8,0,1.5-0.1,2.1-0.7
		c2.3,0.5,1.3,1.4-0.3,2.1c-3.1,0.8-6.5,0.8-9.7,1c2.9-0.8-0.8-1.1-1.6-0.5c-0.1,0-0.3,0-0.4,0C61.4,38.5,61.4,38.5,61.3,38.6
		L61.3,38.6z M46.1,33.2c-0.1-0.2-0.2-0.3-0.5-0.4C45.8,33,45.9,33.2,46.1,33.2C46.1,33.2,46.1,33.3,46.1,33.2
		C46.1,33.3,46.1,33.2,46.1,33.2L46.1,33.2z M50,36.7c0.2-0.1,0.5-0.1,0.7-0.2c0,0,0,0,0-0.1c-1.1,0.3-2.3,0.5-3.4,0.7
		C48.3,37.6,49.1,37,50,36.7z M46.2,33.4C46.2,33.4,46.2,33.4,46.2,33.4c0.7,1,1.7,1.8,2.5,2.9c0.2,0.3,0.7,0.3,0.8,0
		C48.4,35.5,47.3,34.4,46.2,33.4L46.2,33.4z M54.5,37.9c-0.2,0-0.3,0-0.3,0.2c0,0.1,0,0.3,0.2,0.2c0.1,0,0.3,0.1,0.3-0.2
		C54.6,38.1,54.7,37.9,54.5,37.9L54.5,37.9z M53.3,38.2c0,0.2,0,0.3,0.2,0.2c0.1,0,0.3,0,0.2-0.2c0-0.1,0-0.3-0.2-0.3
		C53.4,38,53.3,38,53.3,38.2z M57,38.2c0.1,0,0.3,0,0.3-0.2c0-0.1,0-0.3-0.2-0.2c-0.1,0-0.3,0-0.3,0.2C56.8,38.1,56.8,38.3,57,38.2z
		 M65.5,37.2c0,0.2,0,0.3,0.2,0.3c0.1,0,0.3,0.1,0.3-0.2c0-0.1,0.1-0.3-0.2-0.3C65.6,37.1,65.4,37,65.5,37.2L65.5,37.2z M57.9,37.7
		c-0.1,0-0.3-0.1-0.2,0.2c0,0.1-0.1,0.3,0.2,0.3c0.1,0,0.3,0.1,0.3-0.2C58.1,37.9,58.2,37.6,57.9,37.7z M51.6,38.3
		c0,0.2,0,0.3,0.2,0.3c0.2,0,0.3,0,0.2-0.2c0-0.2,0-0.2-0.2-0.2C51.7,38.2,51.5,38.1,51.6,38.3L51.6,38.3z M59.8,37.8
		c0-0.2,0-0.3-0.2-0.3c-0.1,0-0.3,0-0.2,0.2c0,0.1,0,0.3,0.2,0.3C59.7,38,59.9,38,59.8,37.8L59.8,37.8z M65.1,37.4
		c0-0.2,0-0.3-0.2-0.3c-0.1,0-0.3-0.1-0.3,0.2c0,0.1-0.1,0.3,0.2,0.3C64.9,37.6,65.1,37.6,65.1,37.4z M52.7,38.5
		c0.1,0,0.3,0.1,0.2-0.2c0-0.1,0-0.3-0.2-0.2c-0.1,0-0.3,0-0.2,0.2C52.5,38.4,52.4,38.6,52.7,38.5z M62.2,37.8c0,0,0.3,0.1,0.2-0.2
		c0-0.1,0.1-0.3-0.2-0.3c-0.1,0-0.3,0-0.3,0.2C62,37.7,62,37.8,62.2,37.8z M60.7,37.7c0-0.1,0-0.3-0.2-0.2c-0.1,0-0.3,0-0.2,0.2
		c0,0.1,0,0.3,0.2,0.2C60.6,37.9,60.8,38,60.7,37.7L60.7,37.7z M63.9,37.6c0.1,0,0.3,0,0.3-0.2c0-0.1,0-0.3-0.2-0.3
		c-0.1,0-0.3,0-0.2,0.2C63.7,37.5,63.7,37.7,63.9,37.6z M62.9,37.5c0,0.1-0.1,0.3,0.2,0.2c0.1,0,0.3,0,0.3-0.2c0-0.2,0-0.3-0.2-0.2
		C63,37.3,62.8,37.2,62.9,37.5z M61.4,37.4c-0.1,0-0.3,0-0.2,0.2c0,0.1,0,0.3,0.2,0.2c0.1,0,0.3,0,0.3-0.2
		C61.6,37.5,61.6,37.4,61.4,37.4L61.4,37.4z M56,38.3c0.2,0,0.4,0,0.3-0.2c0-0.1,0.1-0.3-0.2-0.3c-0.1,0-0.3-0.1-0.3,0.2
		C56,38.1,55.8,38.3,56,38.3z M68.1,37.1c0,0.1,0,0.3,0.2,0.2c0.1,0,0.3,0,0.2-0.2c0-0.1,0-0.3-0.2-0.2C68.2,36.9,68,36.9,68.1,37.1
		L68.1,37.1z M58.8,38c0.2,0,0.3,0,0.2-0.2c0-0.1,0-0.3-0.2-0.2C58.5,37.5,58.4,38.2,58.8,38z M55.1,38.1c0,0.2,0,0.3,0.2,0.3
		c0.1,0,0.2,0,0.2-0.2c0-0.2,0-0.3-0.2-0.2C55.1,37.9,55,37.9,55.1,38.1L55.1,38.1z M67.6,37.2c0.1-0.3-0.5-0.4-0.4,0
		C67.2,37.5,67.7,37.5,67.6,37.2z M51.1,38.5c0-0.1,0.1-0.3-0.2-0.3c-0.1,0-0.3,0-0.2,0.2c0,0.1,0,0.3,0.2,0.3
		C51.1,38.6,51.2,38.7,51.1,38.5z M66.8,37.2c0.1-0.3-0.5-0.3-0.4,0c0,0.1,0,0.3,0.2,0.2C66.6,37.4,66.8,37.5,66.8,37.2z"/>
	<path class="st3" d="M48.1,42.4c4.6-1.2,9.3-3.8,14.1-3.5c-5.2,1.9-10.7,3.2-16,4.9c-1.2,0.5-1.9-0.5-2.7-1.2
		c0.8-0.2,1.2,0.5,1.8,0.9c0.2,0.2,0.3,0.2,0.6,0.1c2.3-0.9,4.7-1.6,7-2.5C51.3,41.4,49.8,42,48.1,42.4
		C48.1,42.4,48.1,42.4,48.1,42.4L48.1,42.4z M53.9,40.7c-0.3,0-0.6,0.1-0.9,0.3C53.3,41,53.6,40.9,53.9,40.7c0.2,0,0.4-0.1,0.5-0.2
		C54.2,40.6,54.1,40.6,53.9,40.7z M54.6,40.5C54.6,40.5,54.6,40.5,54.6,40.5C54.6,40.5,54.6,40.5,54.6,40.5
		C54.6,40.5,54.6,40.5,54.6,40.5z"/>
	<path class="st3" d="M64.2,32.1c0-0.5-0.5-1-0.4-1.5c0.4-0.3,1.5,1.2,1.5,1.6c-1.2,2.9-0.1,2.9-3.5,3.2c0,0,0,0,0,0
		c0.6-0.8,1.2-1.6,1.8-2.3c-0.1,0.4-0.5,0.7-0.6,1.1c0,0,0,0,0,0c0.7-0.6,1.2-1.4,2-2C64.7,32.1,64.4,32.2,64.2,32.1L64.2,32.1z
		 M62.8,34.2C62.8,34.2,62.8,34.2,62.8,34.2C62.8,34.2,62.9,34.2,62.8,34.2C62.9,34.2,62.9,34.2,62.8,34.2L62.8,34.2z"/>
	<path class="st3" d="M61.5,39.7C61.5,39.7,61.5,39.7,61.5,39.7C61.4,40,61,40.2,61,40.6c0,0.2,0.1,0.9,0.4,0.8
		c0.2,0,0.4-0.2,0.6-0.3c0,0,0,0.1,0,0.1c-0.8,0.7-2,0.3-3,0.4c-0.8-0.1-0.8-0.6-0.7-1.2C59.4,40,60.4,39.7,61.5,39.7L61.5,39.7z
		 M60.6,41c-0.5,0.1-2.4-0.8-2.2,0C58.6,41.9,60,41,60.6,41z"/>
	<path class="st3" d="M41.2,39.4c2-0.4,5.2-2,7-1.3C45.8,38.4,43.5,39.6,41.2,39.4z"/>
	<path class="st4" d="M48.2,42.5c1.5-0.4,3-1,4.5-1.3c0,0,0,0,0,0c-2.2,0.9-4.5,1.6-6.7,2.4c-0.3,0.2-0.5,0-0.7-0.2
		c0.1,0,0.2-0.1,0.2,0C46.3,43.1,47.3,42.8,48.2,42.5z"/>
	<path class="st4" d="M61.8,38.5c0.2-0.2,3.2-0.6,2.5,0.1c-0.5,0.4-1.3,0.6-2,0.4C62.5,38.7,62.1,38.6,61.8,38.5L61.8,38.5z"/>
	<path class="st4" d="M64.2,32.1c0.2,0,0.5,0,0.8,0c-0.8,0.6-1.3,1.4-2,2c0,0,0,0,0,0c0.1-0.4,0.5-0.7,0.6-1l0,0
		c0.1,0,0.1-0.1,0.1-0.2c0,0,0,0,0.1,0c0,0,0.1-0.1,0-0.1h0c0,0,0,0,0,0c0,0,0,0,0,0C63.9,32.5,64,32.3,64.2,32.1z"/>
	<path class="st4" d="M71.8,36.5c-0.2,0-0.5,0.1-0.5-0.1c0.1-0.4,0.8-0.2,1.2-0.4c0.2,0,0.5-0.1,0.6-0.3c0.1-0.1,0.2,0,0.2,0.1
		C73.3,36.2,72.2,36.6,71.8,36.5L71.8,36.5z"/>
	<path class="st2" d="M61.5,39.8c0,0,0-0.1,0.1-0.1c0.1,0,0.2,0,0.2,0c0,0.1,0,0.1,0.1,0l0,0c0,0.2,0.2,0.2,0.2,0.3
		c-0.1,0-0.1,0-0.1,0.1c0,0.3-0.2,0.8-0.1,1c-0.1,0.1-0.2,0.2-0.4,0.2C61.4,41.2,61.9,39.7,61.5,39.8z"/>
	<path class="st5" d="M48.2,42.5c-0.8,0.3-1.8,0.7-2.7,0.8C46.2,42.9,47.2,42.7,48.2,42.5C48.1,42.4,48.1,42.4,48.2,42.5z"/>
	<path class="st5" d="M62.1,40.1c0-0.2-0.2-0.1-0.2-0.3c0.5,0.2,0.6,1,0.2,1.4C62.1,40.8,62.2,40.5,62.1,40.1z"/>
	<path class="st3" d="M49.5,35.1c0.1,0,0.2-0.1,0.2,0.1C49.7,36,48.8,35.1,49.5,35.1z"/>
	<path class="st5" d="M62.4,39c0.3,0.2,0.8-0.1,1.1,0.1c-0.5,0.1-0.9,0.1-1.4,0.1C62.2,39.2,62.3,39.2,62.4,39L62.4,39z"/>
	<path class="st2" d="M61.5,39.7c-0.2,0-0.3,0-0.5,0C61.2,39.6,61.3,39.6,61.5,39.7z"/>
	<path class="st3" d="M63.7,32.9c0,0.1,0,0.1-0.1,0.2C63.5,32.9,63.6,32.9,63.7,32.9z"/>
	<path class="st4" d="M61.3,38.6c0,0,0.1,0,0.1,0C61.4,38.6,61.4,38.6,61.3,38.6z"/>
	<path class="st5" d="M61.9,39.8c0,0-0.1,0-0.1,0C61.8,39.7,61.8,39.7,61.9,39.8z"/>
	<path class="st3" d="M63.8,32.7c0,0,0,0.1-0.1,0.1C63.6,32.7,63.7,32.7,63.8,32.7z"/>
	<path class="st3" d="M63.8,32.7C63.8,32.7,63.8,32.7,63.8,32.7C63.8,32.7,63.8,32.7,63.8,32.7C63.8,32.7,63.8,32.7,63.8,32.7z"/>
	<path class="st3" d="M61.7,35.4C61.7,35.4,61.7,35.4,61.7,35.4C61.7,35.4,61.7,35.3,61.7,35.4C61.7,35.3,61.7,35.4,61.7,35.4
		L61.7,35.4z"/>
	<path class="st3" d="M63.7,32.8C63.7,32.8,63.7,32.8,63.7,32.8C63.6,32.8,63.6,32.8,63.7,32.8z"/>
	<path class="st4" d="M46.2,33.4c1.1,1,2.1,2,3.3,2.9C49,37.3,46.8,33.9,46.2,33.4L46.2,33.4L46.2,33.4z"/>
	<path class="st4" d="M50,36.7c-0.9,0.3-1.8,0.9-2.7,0.5c0.9-0.2,1.8-0.4,2.7-0.6C50,36.6,50,36.7,50,36.7L50,36.7z"/>
	<path class="st1" d="M54.5,37.9c0.2,0,0.2,0.2,0.2,0.3c0,0.2-0.2,0.2-0.3,0.2c-0.2,0-0.2-0.1-0.2-0.2C54.1,37.9,54.3,38,54.5,37.9
		L54.5,37.9z"/>
	<path class="st1" d="M53.3,38.2C53.3,38,53.4,38,53.6,38c0.2,0,0.2,0.2,0.2,0.3c0,0.2-0.1,0.2-0.2,0.2
		C53.4,38.5,53.3,38.4,53.3,38.2z"/>
	<path class="st1" d="M57,38.2c-0.2,0.1-0.2-0.1-0.2-0.2c0-0.2,0.2-0.2,0.3-0.2c0.2,0,0.2,0.1,0.2,0.2C57.3,38.2,57.1,38.2,57,38.2z
		"/>
	<path class="st1" d="M65.5,37.2c-0.1-0.2,0.2-0.2,0.3-0.2c0.2,0,0.2,0.2,0.2,0.3c0,0.2-0.2,0.2-0.3,0.2
		C65.4,37.6,65.5,37.4,65.5,37.2L65.5,37.2z"/>
	<path class="st1" d="M57.9,37.7c0.3,0,0.2,0.2,0.2,0.3c0,0.2-0.2,0.1-0.3,0.2c-0.2,0-0.2-0.2-0.2-0.3
		C57.6,37.6,57.8,37.7,57.9,37.7z"/>
	<path class="st1" d="M51.6,38.3c0-0.2,0.1-0.2,0.2-0.2c0.2,0,0.2,0,0.2,0.2c0,0.2-0.1,0.2-0.2,0.2C51.6,38.6,51.6,38.5,51.6,38.3
		L51.6,38.3z"/>
	<path class="st1" d="M59.8,37.8c0,0.2-0.1,0.2-0.2,0.2c-0.2,0-0.2-0.1-0.2-0.3c0-0.2,0.1-0.2,0.2-0.2
		C59.9,37.5,59.8,37.7,59.8,37.8L59.8,37.8z"/>
	<path class="st1" d="M65.1,37.4c0.1,0.2-0.1,0.2-0.2,0.2c-0.3,0-0.2-0.2-0.2-0.3c0-0.2,0.2-0.1,0.3-0.2
		C65.1,37.1,65.1,37.2,65.1,37.4z"/>
	<path class="st1" d="M52.7,38.5c-0.3,0-0.2-0.1-0.2-0.2c0-0.2,0.1-0.2,0.2-0.2c0.2,0,0.2,0.1,0.2,0.2
		C52.9,38.6,52.8,38.5,52.7,38.5z"/>
	<path class="st1" d="M62.2,37.8C62,37.8,62,37.7,62,37.5c0-0.2,0.2-0.2,0.3-0.2c0.3,0,0.1,0.2,0.2,0.3
		C62.5,37.8,62.3,37.7,62.2,37.8z"/>
	<path class="st1" d="M60.7,37.7c0.1,0.2-0.1,0.2-0.3,0.2c-0.2,0-0.2-0.1-0.2-0.2c0-0.2,0.1-0.2,0.2-0.2
		C60.7,37.4,60.7,37.5,60.7,37.7L60.7,37.7z"/>
	<path class="st1" d="M63.9,37.6c-0.2,0.1-0.2-0.1-0.2-0.2c0-0.2,0.1-0.2,0.2-0.2c0.2,0,0.2,0.1,0.2,0.3
		C64.2,37.7,64.1,37.6,63.9,37.6z"/>
	<path class="st1" d="M62.9,37.5c-0.1-0.2,0.1-0.2,0.2-0.2c0.2,0,0.2,0.1,0.2,0.2c0,0.2-0.1,0.2-0.3,0.2
		C62.8,37.8,62.9,37.6,62.9,37.5z"/>
	<path class="st1" d="M61.4,37.4c0.2-0.1,0.2,0.1,0.2,0.2c0,0.2-0.1,0.2-0.3,0.2c-0.2,0-0.2-0.1-0.2-0.2
		C61.1,37.4,61.2,37.4,61.4,37.4L61.4,37.4z"/>
	<path class="st1" d="M56,38.3c-0.2,0-0.1-0.2-0.1-0.3c0-0.2,0.2-0.1,0.3-0.2c0.2,0,0.2,0.2,0.2,0.3C56.4,38.3,56.2,38.2,56,38.3z"
		/>
	<path class="st1" d="M68.1,37.1c-0.1-0.2,0.1-0.2,0.2-0.2c0.2,0,0.2,0.1,0.2,0.2c0,0.2-0.1,0.2-0.2,0.2
		C68.1,37.4,68.1,37.2,68.1,37.1L68.1,37.1z"/>
	<path class="st1" d="M58.8,38c-0.3,0.1-0.3-0.5,0-0.5c0.2,0,0.2,0.1,0.2,0.2C59,38,58.9,38.1,58.8,38z"/>
	<path class="st1" d="M55.1,38.1c-0.1-0.2,0.1-0.2,0.2-0.2c0.2,0,0.2,0,0.2,0.2c0,0.2-0.1,0.2-0.2,0.2C55,38.4,55.1,38.2,55.1,38.1
		L55.1,38.1z"/>
	<path class="st1" d="M67.6,37.2c0.1,0.3-0.5,0.3-0.4,0C67.2,36.8,67.7,36.8,67.6,37.2z"/>
	<path class="st1" d="M51.2,38.5c0,0.2-0.1,0.2-0.2,0.2c-0.2,0-0.2-0.1-0.2-0.3c0-0.2,0.1-0.2,0.2-0.2
		C51.2,38.2,51.1,38.4,51.2,38.5z"/>
	<path class="st1" d="M66.8,37.2c0.1,0.3-0.1,0.2-0.2,0.2c-0.2,0-0.2-0.1-0.2-0.2C66.2,36.9,66.9,36.9,66.8,37.2z"/>
	<path class="st5" d="M50,36.7C50,36.7,50,36.6,50,36.7c0.2-0.2,0.5-0.2,0.7-0.3c0,0,0,0,0,0.1C50.5,36.6,50.3,36.6,50,36.7L50,36.7
		z"/>
	<path class="st5" d="M46,33.2c-0.2-0.1-0.3-0.2-0.4-0.4C45.8,32.9,46,33,46,33.2z"/>
	<path class="st4" d="M46.2,33.4L46.2,33.4C46.2,33.4,46.2,33.4,46.2,33.4L46.2,33.4z"/>
	<path class="st4" d="M46.1,33.2C46.1,33.2,46.1,33.2,46.1,33.2C46.1,33.3,46.1,33.2,46.1,33.2L46.1,33.2z"/>
	<path class="st4" d="M46,33.2C46,33.2,46,33.2,46,33.2C46,33.2,46.1,33.2,46,33.2L46,33.2C46,33.2,46,33.2,46,33.2L46,33.2z"/>
	<path class="st5" d="M53.3,40.9c0.2-0.1,0.4-0.2,0.6-0.2l0,0C53.7,40.9,53.5,40.9,53.3,40.9C53.3,41,53.3,40.9,53.3,40.9L53.3,40.9
		z"/>
	<path class="st5" d="M53.9,40.7c0.2-0.1,0.3-0.2,0.5-0.2C54.2,40.7,54.1,40.7,53.9,40.7L53.9,40.7L53.9,40.7z"/>
	<path class="st4" d="M53.3,40.9C53.3,40.9,53.3,41,53.3,40.9C53.2,41,53.1,41.1,53,41C53.1,40.9,53.2,41,53.3,40.9L53.3,40.9z"/>
	<path class="st4" d="M52.6,41.1c0.1,0,0.1-0.1,0.3-0.1C52.8,41.2,52.7,41.1,52.6,41.1C52.7,41.1,52.7,41.1,52.6,41.1L52.6,41.1z"/>
	<path class="st5" d="M54.6,40.5C54.6,40.5,54.6,40.5,54.6,40.5C54.6,40.5,54.6,40.5,54.6,40.5C54.6,40.5,54.6,40.5,54.6,40.5z"/>
	<path class="st4" d="M62.8,34.2C62.8,34.2,62.8,34.2,62.8,34.2C62.8,34.2,62.8,34.2,62.8,34.2L62.8,34.2z"/>
	<path class="st4" d="M62.8,34.2C62.8,34.2,62.8,34.2,62.8,34.2C62.9,34.2,62.9,34.2,62.8,34.2L62.8,34.2z"/>
	<path class="st4" d="M63,34.1C63,34.1,62.9,34.1,63,34.1C62.9,34,62.9,34.1,63,34.1z"/>
	<path class="st4" d="M60.6,41c-0.6,0-2,0.9-2.2,0C58.3,40.2,60.1,41.1,60.6,41z"/>
	<path class="st1" d="M61.5,39.8c0.4-0.1-0.1,1.4,0,1.6c-0.3,0-0.4-0.6-0.4-0.8C61,40.2,61.3,40,61.5,39.8L61.5,39.8z"/>
	<path class="st4" d="M62.1,40.1c0.1,0.3,0.1,0.7,0,1c-0.1,0-0.1,0.1-0.2,0.1c-0.1-0.3,0.1-0.7,0.1-1C62,40.1,62,40.1,62.1,40.1z"/>
</g>
<g>
	<line class="st6" x1="52.7" y1="31.4" x2="65.9" y2="44.5"/>
	<line class="st6" x1="65.9" y1="31.4" x2="52.7" y2="44.5"/>
</g>
<g>
	<g class="st7">
		<path class="st8" d="M55.1,14.9H57v13.5h-1.9V14.9z M56,21.4h4.3c0.4,0,0.8-0.1,1.1-0.3c0.3-0.2,0.5-0.5,0.7-0.8
			c0.2-0.4,0.3-0.8,0.3-1.2c0-0.5-0.1-0.9-0.3-1.2c-0.2-0.4-0.4-0.6-0.7-0.8c-0.3-0.2-0.7-0.3-1.1-0.3H56v-1.8h4.2
			c0.8,0,1.5,0.2,2.1,0.5c0.6,0.3,1.1,0.8,1.4,1.5c0.3,0.6,0.5,1.3,0.5,2.2s-0.2,1.5-0.5,2.2c-0.3,0.6-0.8,1.1-1.4,1.4
			c-0.6,0.3-1.3,0.5-2.1,0.5H56V21.4z"/>
	</g>
</g>
<rect y="142.4" class="st9" width="198.4" height="27.7"/>
<g>
	<line class="st10" x1="12.2" y1="151.3" x2="182.3" y2="151.3"/>
	<rect x="11.2" y="144.8" class="st11" width="2" height="13"/>
	<rect x="181.3" y="144.8" class="st11" width="2" height="13"/>
</g>
<g>
	<g class="st7">
		<path class="st12" d="M11.4,128.1H13l5,13.5h-2l-3.7-10.9l-3.7,10.9h-2L11.4,128.1z M8.7,136.8h7.1v1.8H8.7V136.8z"/>
	</g>
</g>
<g>
	<g class="st7">
		<path class="st12" d="M177.8,128.1h1.9v13.5h-1.9V128.1z M178.9,139.8h3.7c1,0,1.7-0.2,2.1-0.5s0.7-0.9,0.7-1.5v0
			c0-0.5-0.1-0.8-0.2-1.2c-0.2-0.3-0.4-0.6-0.7-0.8c-0.3-0.2-0.8-0.3-1.3-0.3h-4.1v-1.7h4.1c0.7,0,1.2-0.2,1.6-0.5
			c0.4-0.3,0.5-0.8,0.5-1.5c0-0.7-0.2-1.2-0.6-1.5s-1-0.5-1.8-0.5h-3.9v-1.8h4.2c0.9,0,1.6,0.1,2.2,0.4c0.6,0.3,1,0.7,1.3,1.3
			c0.3,0.5,0.4,1.2,0.4,1.9c0,0.5-0.1,0.9-0.3,1.3c-0.2,0.4-0.5,0.8-0.8,1c-0.4,0.3-0.8,0.5-1.4,0.6c0.5,0.1,1,0.3,1.4,0.6
			c0.4,0.3,0.7,0.7,0.9,1.1c0.2,0.5,0.3,1,0.3,1.5v0c0,0.7-0.2,1.4-0.5,1.9c-0.3,0.6-0.8,1-1.4,1.3c-0.6,0.3-1.3,0.5-2.1,0.5h-4.4
			V139.8z"/>
	</g>
</g>
<g>
	<line class="st13" x1="155.3" y1="41.9" x2="183.6" y2="41.9"/>
	<rect x="154.3" y="35.4" class="st14" width="2" height="13"/>
	<rect x="182.6" y="35.4" class="st14" width="2" height="13"/>
</g>
<g>
	<g class="st7">
		<path class="st14" d="M158.2,32.2h-1.1v-6.6l-1.1,0.7v-1.1l1.1-0.7h1.1V32.2z"/>
	</g>
</g>
<g>
	<g class="st7">
		<path class="st14" d="M160.5,31.7c-0.4-0.4-0.6-0.9-0.6-1.6v-3.5c0-0.7,0.2-1.2,0.6-1.6c0.4-0.4,0.9-0.6,1.7-0.6
			c0.7,0,1.3,0.2,1.7,0.6c0.4,0.4,0.6,0.9,0.6,1.6V30c0,0.7-0.2,1.2-0.6,1.6c-0.4,0.4-0.9,0.6-1.7,0.6
			C161.4,32.2,160.9,32.1,160.5,31.7z M163,30.9c0.2-0.2,0.3-0.5,0.3-0.9v-3.5c0-0.4-0.1-0.7-0.3-0.9s-0.5-0.3-0.9-0.3
			c-0.4,0-0.7,0.1-0.9,0.3s-0.3,0.5-0.3,0.9V30c0,0.4,0.1,0.7,0.3,0.9s0.5,0.3,0.9,0.3S162.8,31.1,163,30.9z"/>
	</g>
</g>
<g>
	<g class="st7">
		<path class="st14" d="M166.3,31.7c-0.4-0.4-0.6-0.9-0.6-1.6v-3.5c0-0.7,0.2-1.2,0.6-1.6c0.4-0.4,0.9-0.6,1.7-0.6
			c0.7,0,1.3,0.2,1.7,0.6s0.6,0.9,0.6,1.6V30c0,0.7-0.2,1.2-0.6,1.6c-0.4,0.4-0.9,0.6-1.7,0.6C167.3,32.2,166.7,32.1,166.3,31.7z
			 M168.9,30.9c0.2-0.2,0.3-0.5,0.3-0.9v-3.5c0-0.4-0.1-0.7-0.3-0.9s-0.5-0.3-0.9-0.3c-0.4,0-0.7,0.1-0.9,0.3s-0.3,0.5-0.3,0.9V30
			c0,0.4,0.1,0.7,0.3,0.9c0.2,0.2,0.5,0.3,0.9,0.3S168.7,31.1,168.9,30.9z"/>
		<path class="st14" d="M174.9,26.6h1.1v5.6h-1.1V26.6z M178.2,28.8c0-0.4-0.1-0.7-0.3-0.9s-0.5-0.3-0.8-0.3c-0.4,0-0.6,0.1-0.8,0.3
			s-0.3,0.5-0.3,0.8l-0.1-1.1c0.2-0.3,0.4-0.6,0.7-0.8s0.6-0.3,0.9-0.3c0.4,0,0.7,0.1,1,0.3c0.3,0.2,0.5,0.4,0.6,0.8
			c0.1,0.3,0.2,0.8,0.2,1.2v3.4h-1.1V28.8z M181.5,28.8c0-0.4-0.1-0.7-0.3-0.9s-0.5-0.3-0.9-0.3c-0.3,0-0.6,0.1-0.8,0.3
			c-0.2,0.2-0.3,0.5-0.3,0.9l-0.2-1.1c0.2-0.4,0.4-0.7,0.7-0.9s0.6-0.3,1-0.3c0.4,0,0.7,0.1,1,0.3c0.3,0.2,0.5,0.4,0.7,0.8
			c0.1,0.3,0.2,0.8,0.2,1.2v3.4h-1.1V28.8z"/>
	</g>
</g>
<g>
	<path class="st15" d="M160.2,144.4c0.4,0.1,0.9-0.2,1.1,0.3c0.1,0.2-0.1,0.3-0.2,0.4h-5.5c-0.2-0.3-0.2-0.4,0-0.7
		C157.1,144.3,158.7,144.4,160.2,144.4L160.2,144.4z"/>
	<path class="st16" d="M155.7,124.8c-0.2-1.6,1.1-2.7,2.6-2.3c-0.9,0.5-1.3,1.3-1.2,2.3C156.7,124.8,156.2,124.8,155.7,124.8
		L155.7,124.8z"/>
	<path class="st16" d="M155.6,144.4c-0.2,0.2-0.2,0.4,0,0.7h-1.3c-0.2-0.1-0.3-0.3-0.2-0.5C154.3,144.3,155.3,144.5,155.6,144.4
		L155.6,144.4z"/>
	<path class="st17" d="M160.2,144.4c-1.2,0-2.3,0-3.5,0c0.1-1.7-0.1-3.4,0.1-5.1c0.4-1.5,2.2-1.3,3.4-1.3
		C160.2,140.1,160.2,142.3,160.2,144.4z"/>
	<path class="st18" d="M152.5,135.4c-0.1-0.2-0.1-0.4-0.2-0.7c0.3-0.1,0.6,0,0.9,0c0.2,0,0.2-0.1,0.2-0.2c-0.6-2.1,0.2-1.9-1.7-1.9
		c-0.1-0.2-0.2-0.4-0.2-0.7c4.2,0,8.3,0,12.5,0c0,0.2-0.1,0.4-0.2,0.7c-0.4,0-0.8,0-1.1,0c-0.1,0-0.2,0-0.2,0.2
		c-0.3,2.2-0.9,2,0.7,2c0,0.2-0.1,0.5-0.2,0.7C159.5,135.4,155.9,135.5,152.5,135.4L152.5,135.4z M157.7,132.6c-0.4,0-0.8,0-1.2,0
		c-0.1,0-0.2,0-0.2,0.1c0.1,0.6,0.1,1.2,0.2,1.9c0,0.1,0.1,0.1,0.2,0.1c0.7,0,1.3,0,2,0c0.1,0,0.2,0,0.2-0.2
		c0.1-0.6,0.1-1.2,0.2-1.8c0-0.1,0-0.2-0.2-0.2C158.5,132.6,158.1,132.6,157.7,132.6L157.7,132.6z M160.7,132.6c-0.3,0-0.6,0-0.8,0
		c-0.1,0-0.2,0-0.2,0.2c-0.1,2.4-0.8,1.9,1.4,2c0.2,0,0.2-0.1,0.2-0.2c0.1-0.6,0.2-1.2,0.4-1.8c0-0.1,0-0.2-0.1-0.2
		C161.3,132.6,161,132.6,160.7,132.6L160.7,132.6z M154.7,132.6C154.7,132.6,154.7,132.6,154.7,132.6c-0.3,0-0.6,0-0.9,0
		c-0.1,0-0.1,0-0.1,0.1c0.1,0.3,0.3,2.1,0.5,2c2.2,0.1,1.5,0.4,1.4-2C155.7,132.5,154.9,132.7,154.7,132.6L154.7,132.6z"/>
	<path class="st19" d="M160.2,138c-1.2,0-3.1-0.2-3.4,1.3c-0.2,1.7,0,3.4-0.1,5.1c-0.5,0-1,0-1.5,0c0-2.6,0-5.2,0-7.8
		c1.7,0,3.3,0,5,0C160.1,137.1,160.2,137.6,160.2,138L160.2,138z"/>
	<path class="st18" d="M153.8,129.7c-0.1-0.2-0.1-0.5-0.2-0.7c0.5,0,0.9,0,1.4,0c0.1,0,0.2,0,0.2-0.1c-0.1-0.6-0.2-1.3-0.2-1.9
		c0-0.2-0.1-0.2-0.2-0.2c-0.6,0-1.1,0-1.6,0c-0.1-0.2-0.1-0.5-0.2-0.7c3.2,0,6.4,0,9.5,0c0,0.2-0.1,0.5-0.1,0.7c-0.6,0-1.1,0-1.7,0
		c-0.2,0-0.2,0.1-0.2,0.2c-0.2,2.5-0.9,2,1.4,2c0,0.2-0.1,0.5-0.2,0.7C159,129.7,156.4,129.7,153.8,129.7L153.8,129.7z M157.7,126.7
		c-0.6,0-1.2,0-1.8,0c-0.3,0-0.3,0-0.2,0.3c0.1,0.6,0.1,1.2,0.2,1.8c0,0.1,0.1,0.2,0.2,0.2c1.1,0,2.2,0,3.2,0c0.1,0,0.2-0.1,0.2-0.2
		C159.8,126.2,160.4,126.8,157.7,126.7z"/>
	<path class="st18" d="M151.2,131.1c-0.3,0-0.9,0.1-0.9-0.3c0-0.2,0.1-0.3,0.4-0.3c4.6,0,9.2,0,13.8,0c0.7-0.1,0.9,0.6,0.3,0.7
		C160.3,131.1,155.7,131.1,151.2,131.1z"/>
	<path class="st17" d="M160.2,136.6c-1.7,0-3.4,0-5.2,0c-0.1-0.4-0.1-0.8-0.2-1.2c2.7,0,5.4-0.1,8.1,0c-0.1,0.2-0.2,1.2-0.5,1.2
		C161.7,136.6,161,136.6,160.2,136.6L160.2,136.6z"/>
	<path class="st17" d="M154.2,131.1c3.4,0,6.7,0,10.1,0c-0.1,0.3-0.2,0.5-0.2,0.8c0,0,0,0,0,0c-3.2,0-6.4,0-9.6,0
		C154.2,131.6,154.2,131.4,154.2,131.1L154.2,131.1z"/>
	<path class="st18" d="M155.7,124.8c2.5,0,4.9,0,7.4,0c0.4,0,0.4,0.7,0,0.7c-1.8,0-3.5,0-5.3,0c-1.7,0-3.4,0-5,0
		c-0.3,0-0.8,0-0.8-0.4c0-0.3,0.3-0.3,0.6-0.3C153.6,124.8,154.7,124.8,155.7,124.8L155.7,124.8z"/>
	<path class="st15" d="M159.7,124.8c-0.9,0-1.7,0-2.6,0c-0.1-1,0.3-1.8,1.2-2.3C159.3,122.8,159.8,123.8,159.7,124.8L159.7,124.8z"
		/>
	<path class="st17" d="M155.1,125.5c2.5,0,5,0,7.5,0c-0.1,0.2-0.1,0.4-0.1,0.6c-2.4,0-4.9,0-7.3,0
		C155.2,125.9,155.2,125.7,155.1,125.5z"/>
	<path class="st15" d="M161.8,129c-2.2-0.1-1.5,0.4-1.4-2.1c0-0.1,0.1-0.2,0.2-0.2c0.6,0,1.1,0,1.7,0
		C162.1,127.5,162,128.2,161.8,129L161.8,129z"/>
	<path class="st17" d="M155.7,129.7c2-0.1,4,0,5.9,0c-0.1,0.2-0.1,0.4-0.1,0.6c-1.9,0-3.8,0-5.6,0
		C155.6,130.3,155.7,129.9,155.7,129.7L155.7,129.7z"/>
	<path class="st15" d="M163.1,134.8c-1.7,0-1.1,0.2-0.7-2c0-0.1,0.1-0.2,0.2-0.2c0.4,0,0.8,0,1.1,0
		C163.6,133.3,163.4,134,163.1,134.8L163.1,134.8z"/>
	<path class="st19" d="M155.7,129.7c0.1,0.2-0.1,0.6,0.2,0.6c1.9,0,3.8,0,5.6,0c0,0,0,0,0,0c-2.5,0-5,0-7.5,0
		c-0.1-0.2-0.1-0.4-0.1-0.7C154.4,129.7,155.1,129.7,155.7,129.7L155.7,129.7z"/>
	<path class="st19" d="M163.9,131.9C163.9,131.9,163.9,131.9,163.9,131.9C164,131.9,164,131.9,163.9,131.9
		C163.9,131.9,163.9,131.9,163.9,131.9L163.9,131.9z"/>
	<path class="st15" d="M153.1,126.8c0.6,0,1.1,0,1.6,0c0.1,0,0.2,0,0.2,0.2c0.1,0.6,0.2,1.3,0.2,1.9c0,0.2-0.1,0.1-0.2,0.1
		c-0.5,0-0.9,0-1.4,0C153.4,128.3,153.3,127.5,153.1,126.8L153.1,126.8z"/>
	<path class="st19" d="M154.9,135.4c0.1,0.4,0.1,0.8,0.2,1.2c-0.7,0.1-1.4,0-2.1,0c-0.1,0-0.2,0-0.2-0.1c-0.1-0.4-0.2-0.7-0.3-1.1
		C153.3,135.4,154.1,135.4,154.9,135.4L154.9,135.4z"/>
	<path class="st15" d="M151.6,132.6c1.9,0,1.1-0.3,1.7,1.9c0,0.2,0,0.3-0.2,0.2c-0.3,0-0.6-0.1-0.9,0
		C152.1,134.1,151.9,133.3,151.6,132.6z"/>
	<path class="st19" d="M154.2,131.1c0.1,0.3,0.1,0.6,0.2,0.8c-1,0-1.9,0-2.9,0c-0.1-0.3-0.2-0.6-0.3-0.9
		C152.2,131,153.2,131.1,154.2,131.1L154.2,131.1z"/>
	<path class="st19" d="M155.1,125.5c0,0.2,0,0.4,0.1,0.6c-0.8,0-1.5,0-2.3,0c-0.1-0.2-0.1-0.4-0.1-0.6
		C153.6,125.5,154.4,125.5,155.1,125.5L155.1,125.5z"/>
	<path class="st15" d="M157.7,132.6c0.4,0,0.8,0,1.2,0c0.1,0,0.2,0.1,0.2,0.2c-0.1,0.6-0.1,1.2-0.2,1.8c0,0.1-0.1,0.2-0.2,0.2
		c-0.7,0-1.3,0-2,0c-0.1,0-0.2,0-0.2-0.1c-0.1-0.6-0.1-1.2-0.2-1.9c0-0.1,0.1-0.1,0.2-0.1C156.9,132.6,157.3,132.6,157.7,132.6
		L157.7,132.6z"/>
	<path class="st15" d="M160.8,132.6c0.3,0,0.6,0,0.8,0c0.1,0,0.2,0,0.1,0.2c-0.1,0.6-0.3,1.2-0.4,1.8c0,0.1-0.1,0.2-0.2,0.2
		c-2.1-0.1-1.4,0.4-1.4-2c0-0.1,0.1-0.2,0.2-0.2C160.2,132.6,160.5,132.6,160.8,132.6L160.8,132.6z"/>
	<path class="st15" d="M154.7,132.6c0.2,0.1,1-0.1,1,0.2c0.1,2.4,0.8,2-1.4,2c-0.1,0-0.1,0-0.1-0.1c-0.1-0.6-0.3-1.2-0.4-1.9
		c0-0.1,0-0.1,0.1-0.1C154.1,132.6,154.4,132.6,154.7,132.6C154.7,132.6,154.7,132.6,154.7,132.6L154.7,132.6z"/>
	<path class="st15" d="M157.7,126.7c0.6,0,1.2,0,1.8,0c0.2,0,0.2,0.1,0.2,0.2c-0.1,0.6-0.1,1.2-0.2,1.8c0,0.1-0.1,0.2-0.2,0.2
		c-1.1,0-2.2,0-3.2,0c-0.1,0-0.2-0.1-0.2-0.2c-0.1-0.6-0.1-1.2-0.2-1.8c0-0.3,0-0.3,0.2-0.3C156.5,126.7,157.1,126.7,157.7,126.7
		L157.7,126.7z"/>
</g>
</svg>
