<svg width="252" height="252" xmlns="http://www.w3.org/2000/svg" xmlns:xlink="http://www.w3.org/1999/xlink" xml:space="preserve" overflow="hidden"><defs><clipPath id="clip0"><rect x="349" y="496" width="252" height="252"/></clipPath></defs><g clip-path="url(#clip0)" transform="translate(-349 -496)"><rect x="353.5" y="561.25" width="182.25" height="182.25" fill="#FFFFFF"/><path d="M535.75 561.25 596.5 500.5 596.5 682.75 535.75 743.5Z" fill="#CDCDCD" fill-rule="evenodd"/><path d="M353.5 561.25 414.25 500.5 596.5 500.5 535.75 561.25Z" fill="#FFFFFF" fill-rule="evenodd"/><path d="M353.5 561.25 414.25 500.5 596.5 500.5 596.5 682.75 535.75 743.5 353.5 743.5ZM353.5 561.25 535.75 561.25 596.5 500.5M535.75 561.25 535.75 743.5" stroke="#000000" stroke-width="9.16667" stroke-miterlimit="8" fill="none" fill-rule="evenodd"/><path d="M422.5 656C422.5 647.439 429.663 640.5 438.5 640.5 447.336 640.5 454.5 647.439 454.5 656 454.5 664.56 447.336 671.5 438.5 671.5 429.663 671.5 422.5 664.56 422.5 656Z" stroke="#000000" stroke-width="9.16667" stroke-linejoin="round" stroke-miterlimit="10" fill-rule="evenodd"/><path d="M502.5 523C502.5 518.858 509.663 515.5 518.5 515.5 527.337 515.5 534.5 518.858 534.5 523 534.5 527.142 527.337 530.5 518.5 530.5 509.663 530.5 502.5 527.142 502.5 523Z" stroke="#000000" stroke-width="9.16667" stroke-linejoin="round" stroke-miterlimit="10" fill-rule="evenodd"/><path d="M416.5 539C416.5 534.858 423.44 531.5 432 531.5 440.56 531.5 447.5 534.858 447.5 539 447.5 543.142 440.56 546.5 432 546.5 423.44 546.5 416.5 543.142 416.5 539Z" stroke="#000000" stroke-width="9.16667" stroke-linejoin="round" stroke-miterlimit="10" fill-rule="evenodd"/><path d="M578 546.5C582.142 546.5 585.5 553.664 585.5 562.5 585.5 571.337 582.142 578.5 578 578.5 573.858 578.5 570.5 571.337 570.5 562.5 570.5 553.664 573.858 546.5 578 546.5Z" stroke="#000000" stroke-width="9.16667" stroke-linejoin="round" stroke-miterlimit="10" fill-rule="evenodd"/><path d="M569 608.5C573.142 608.5 576.5 615.44 576.5 624 576.5 632.56 573.142 639.5 569 639.5 564.858 639.5 561.5 632.56 561.5 624 561.5 615.44 564.858 608.5 569 608.5Z" stroke="#000000" stroke-width="9.16667" stroke-linejoin="round" stroke-miterlimit="10" fill-rule="evenodd"/><path d="M555 671.5C559.142 671.5 562.5 678.439 562.5 687 562.5 695.56 559.142 702.5 555 702.5 550.858 702.5 547.5 695.56 547.5 687 547.5 678.439 550.858 671.5 555 671.5Z" stroke="#000000" stroke-width="9.16667" stroke-linejoin="round" stroke-miterlimit="10" fill-rule="evenodd"/></g></svg>