<?xml version="1.0" encoding="utf-8"?>
<!-- Generator: Adobe Illustrator 28.0.0, SVG Export Plug-In . SVG Version: 6.00 Build 0)  -->
<svg version="1.1" id="Calque_1" xmlns="http://www.w3.org/2000/svg" xmlns:xlink="http://www.w3.org/1999/xlink" x="0px" y="0px"
	 viewBox="0 0 224.1 135.3" style="enable-background:new 0 0 224.1 135.3;" xml:space="preserve">
<style type="text/css">
	.st0{fill:none;stroke:#3AAA35;stroke-miterlimit:10;}
	.st1{fill:none;stroke:#1D1D1B;stroke-width:2;stroke-miterlimit:10;}
	.st2{enable-background:new    ;}
	.st3{fill:#1D1D1B;}
	.st4{fill:none;stroke:#E6332A;stroke-linecap:round;stroke-miterlimit:10;}
</style>
<rect x="24.1" y="36.6" class="st0" width="11.9" height="11.9"/>
<rect x="205.6" y="36.6" class="st0" width="11.9" height="11.9"/>
<rect x="205.6" y="112" class="st0" width="11.9" height="11.9"/>
<rect x="24.1" y="112" class="st0" width="11.9" height="11.9"/>
<rect x="24.1" y="36.6" class="st1" width="193.4" height="87.3"/>
<g>
	<g class="st2">
		<path class="st3" d="M115,23.9V4.1h2.8v19.9H115z M116.4,23.9v-2.7h11.4v2.7H116.4z"/>
	</g>
</g>
<line class="st4" x1="18.1" y1="86.3" x2="30.1" y2="74.3"/>
<line class="st4" x1="211.5" y1="86.3" x2="223.6" y2="74.3"/>
<g>
	<line class="st4" x1="111.8" y1="42.6" x2="123.8" y2="30.6"/>
	<line class="st4" x1="117.8" y1="42.6" x2="129.8" y2="30.6"/>
</g>
<g>
	<line class="st4" x1="108.8" y1="130" x2="120.8" y2="117.9"/>
	<line class="st4" x1="114.8" y1="130" x2="126.8" y2="117.9"/>
</g>
<g>
	<path d="M4.5,81.6c-1,0.5-2.2,1-3.6,1.5L0.5,82c1.5-0.5,2.9-1.1,4.2-1.7l0.8-3.9c0.5-2.3,1.2-4.1,2.2-5.2s2-1.7,3.3-1.7
		c0.6,0,1.1,0.1,1.5,0.4c0.4,0.3,0.7,0.6,0.8,1c0.2,0.4,0.3,0.9,0.3,1.5c0,0.8-0.2,1.7-0.6,2.7c-0.4,0.9-1.1,1.8-2,2.8
		s-2.3,1.9-4.2,2.8l-0.9,4c-0.2,0.9-0.3,1.6-0.3,2c0,0.4,0.1,0.6,0.2,0.8c0.1,0.2,0.3,0.2,0.6,0.2c0.2,0,0.5-0.1,0.7-0.2
		S7.7,87.2,8,87c0.2-0.2,0.5-0.5,0.7-0.8c0.2-0.3,0.5-0.7,0.8-1.1l1,0.7c-0.6,0.9-1.2,1.5-1.6,2s-1,0.8-1.5,1.1
		c-0.5,0.3-1.1,0.4-1.7,0.4c-0.7,0-1.2-0.2-1.6-0.6c-0.4-0.4-0.6-1-0.6-1.7c0-0.7,0.1-1.6,0.4-2.7L4.5,81.6z M7.2,79.3
		c1.5-0.9,2.7-2,3.5-3.3c0.8-1.3,1.2-2.6,1.2-4c0-0.5-0.1-0.8-0.3-1.1s-0.4-0.4-0.8-0.4c-0.4,0-0.8,0.2-1.2,0.5
		c-0.3,0.3-0.6,0.9-0.9,1.6c-0.3,0.7-0.5,1.6-0.8,2.8L7.2,79.3z"/>
</g>
</svg>
