<svg xmlns="http://www.w3.org/2000/svg" version="1.1" xmlns:xlink="http://www.w3.org/1999/xlink" xmlns:svgjs="http://svgjs.dev/svgjs" xml:space="preserve" width="520" height="520" viewBox="0 0 520 520" x="30" y="30"><defs><mask><rect width="100%" height="100%" fill="url(#SvgjsPattern1605)"></rect></mask><pattern x="0" y="0" width="20" height="20" patternUnits="userSpaceOnUse" id="SvgjsPattern1605"><rect width="10" height="10" fill="#ffffff"></rect><rect width="10" height="10" x="10" y="10" fill="#ffffff"></rect></pattern><mask><rect width="100%" height="100%" fill="url(#SvgjsPattern1606)"></rect></mask><pattern x="0" y="0" width="20" height="20" patternUnits="userSpaceOnUse" id="SvgjsPattern1606"><line x1="0" y1="0" x2="0" y2="20" stroke="#ffffff" stroke-width="3"></line><line x1="10" y1="0" x2="10" y2="20" stroke="#ffffff" stroke-width="3"></line><line x1="20" y1="0" x2="20" y2="20" stroke="#ffffff" stroke-width="3"></line></pattern><mask><rect width="100%" height="100%" fill="url(#SvgjsPattern1607)"></rect></mask><pattern x="0" y="0" width="20" height="20" patternUnits="userSpaceOnUse" id="SvgjsPattern1607"><line x1="0" y1="0" x2="20" y2="0" stroke="#ffffff" stroke-width="3"></line><line x1="0" y1="10" x2="20" y2="10" stroke="#ffffff" stroke-width="3"></line><line x1="0" y1="20" x2="20" y2="20" stroke="#ffffff" stroke-width="3"></line></pattern><mask><rect width="100%" height="100%" fill="url(#SvgjsPattern1608)"></rect></mask><pattern x="0" y="0" width="20" height="20" patternUnits="userSpaceOnUse" id="SvgjsPattern1608"><line x1="0" y1="0" x2="20" y2="20" stroke="#ffffff" stroke-width="3"></line><line x1="10" y1="-10" x2="30" y2="10" stroke="#ffffff" stroke-width="3"></line><line x1="-10" y1="10" x2="10" y2="30" stroke="#ffffff" stroke-width="3"></line></pattern><mask><rect width="100%" height="100%" fill="url(#SvgjsPattern1609)"></rect></mask><pattern x="0" y="0" width="20" height="20" patternUnits="userSpaceOnUse" id="SvgjsPattern1609"><line x1="0" y1="20" x2="20" y2="0" stroke="#ffffff" stroke-width="3"></line><line x1="-10" y1="10" x2="10" y2="-10" stroke="#ffffff" stroke-width="3"></line><line x1="10" y1="30" x2="30" y2="10" stroke="#ffffff" stroke-width="3"></line></pattern><mask><rect width="100%" height="100%" fill="url(#SvgjsPattern1610)"></rect></mask><pattern x="0" y="0" width="20" height="20" patternUnits="userSpaceOnUse" id="SvgjsPattern1610"><circle r="4" cx="14" cy="14" fill="#ffffff"></circle></pattern><mask><rect width="100%" height="100%" fill="url(#SvgjsPattern1611)"></rect></mask><pattern x="0" y="0" width="20" height="20" patternUnits="userSpaceOnUse" id="SvgjsPattern1611"><circle r="2" cx="2" cy="2" fill="#ffffff"></circle><circle r="2" cx="22" cy="2" fill="#ffffff"></circle><circle r="2" cx="2" cy="22" fill="#ffffff"></circle><circle r="2" cx="22" cy="22" fill="#ffffff"></circle><circle r="2" cx="12" cy="12" fill="#ffffff"></circle></pattern><mask><rect width="100%" height="100%" fill="url(#SvgjsPattern1612)"></rect></mask><pattern x="0" y="0" width="20" height="20" patternUnits="userSpaceOnUse" id="SvgjsPattern1612"><polygon points="0,0 2,5 0,10 5,8 10,10 8,5 10,0 5,2" transform="matrix(2,0,0,2,0,0)" fill="#ffffff"></polygon></pattern><mask><rect width="100%" height="100%" fill="url(#SvgjsPattern1613)"></rect></mask><pattern x="0" y="0" width="20" height="20" patternUnits="userSpaceOnUse" id="SvgjsPattern1613"><circle r="1" cx="11" cy="11" fill="#ffffff"></circle></pattern><mask><rect width="100%" height="100%" fill="url(#SvgjsPattern1614)"></rect></mask><pattern x="0" y="0" width="20" height="20" patternUnits="userSpaceOnUse" id="SvgjsPattern1614"><path d="M 0,5 A 5,5,90,0,0,5,0 M 5,0 A 5,5,90,0,0,10,5 M 0,5 A 5,5,180,0,0,10,5 M 0,-5 A 5,5,180,0,0,10,-5" transform="matrix(2,0,0,2,0,0)" fill="none" stroke="#ffffff"></path></pattern><mask><rect width="100%" height="100%" fill="url(#SvgjsPattern1615)"></rect></mask><pattern x="0" y="0" width="20" height="20" patternUnits="userSpaceOnUse" id="SvgjsPattern1615"><polygon points="0,0 2.5,0 0,2.5" transform="matrix(2,0,0,2,0,0)" fill="#ffffff"></polygon><polygon points="10,10 7.5,10 10,7.5" transform="matrix(2,0,0,2,0,0)" fill="#ffffff"></polygon><polygon points="10,0 10,5 5,10 5,7.5 7.5,5 5,5 5,2.5 2.5,5 0,5 5,0" transform="matrix(2,0,0,2,0,0)" fill="#ffffff"></polygon></pattern></defs><g fill="none" stroke="black" stroke-width="2" stroke-linecap="round" stroke-linejoin="round" stroke-dasharray=""><circle r="250" cx="260" cy="260"></circle></g><g><g><g fill="none" stroke="none"><path d="M510 260A250 250 0 0 1 10 260L260 260Z "></path></g><g fill="none" stroke="black" stroke-width="2" stroke-linecap="round" stroke-linejoin="round" stroke-dasharray=""><path d="M510 260A250 250 0 0 1 10 260L260 260Z "></path><line x1="243" y1="438.5" x2="277" y2="438.5" stroke-width="3.4"></line></g><g fill="#000000" stroke="none" font-size="34" font-family="Bahnschrift" text-anchor="middle" stroke-linecap="round" stroke-linejoin="round"><text x="260" y="424.70000000000005" fill="white" stroke="white" stroke-width="8" font-weight="bold"><tspan dy="0" x="260">1</tspan></text><text x="260" y="424.70000000000005"><tspan dy="0" x="260">1</tspan></text><text x="260" y="472.29999999999995" fill="white" stroke="white" stroke-width="8" font-weight="bold"><tspan dy="0" x="260">2</tspan></text><text x="260" y="472.29999999999995"><tspan dy="0" x="260">2</tspan></text></g></g><g><g fill="none" stroke="none"><path d="M10 260A250 250 0 0 1 315.63 16.268L260 260Z "></path></g><g fill="none" stroke="black" stroke-width="2" stroke-linecap="round" stroke-linejoin="round" stroke-dasharray=""><path d="M10 260A250 250 0 0 1 315.63 16.268L260 260Z "></path><line x1="131.70706939697266" y1="120.44307708740234" x2="165.70706939697266" y2="120.44307708740234" stroke-width="3.4"></line></g><g fill="#000000" stroke="none" font-size="34" font-family="Bahnschrift" text-anchor="middle" stroke-linecap="round" stroke-linejoin="round"><text x="148.70707036821602" y="106.6430803794567" fill="white" stroke="white" stroke-width="8" font-weight="bold"><tspan dy="0" x="148.70707036821602">2</tspan></text><text x="148.70707036821602" y="106.6430803794567"><tspan dy="0" x="148.70707036821602">2</tspan></text><text x="148.70707036821602" y="154.24308037945667" fill="white" stroke="white" stroke-width="8" font-weight="bold"><tspan dy="0" x="148.70707036821602">7</tspan></text><text x="148.70707036821602" y="154.24308037945667"><tspan dy="0" x="148.70707036821602">7</tspan></text></g></g><g><g fill="none" stroke="none"><path d="M315.63 16.268A250 250 0 0 1 485.242 151.529L260 260Z "></path></g><g fill="none" stroke="black" stroke-width="2" stroke-linecap="round" stroke-linejoin="round" stroke-dasharray=""><path d="M315.63 16.268A250 250 0 0 1 485.242 151.529L260 260Z "></path><line x1="354.2929382324219" y1="120.44307708740234" x2="388.2929382324219" y2="120.44307708740234" stroke-width="3.4"></line></g><g fill="#000000" stroke="none" font-size="34" font-family="Bahnschrift" text-anchor="middle" stroke-linecap="round" stroke-linejoin="round"><text x="371.29292963178386" y="106.64308037945665" fill="white" stroke="white" stroke-width="8" font-weight="bold"><tspan dy="0" x="371.29292963178386">1</tspan></text><text x="371.29292963178386" y="106.64308037945665"><tspan dy="0" x="371.29292963178386">1</tspan></text><text x="371.29292963178386" y="154.24308037945667" fill="white" stroke="white" stroke-width="8" font-weight="bold"><tspan dy="0" x="371.29292963178386">7</tspan></text><text x="371.29292963178386" y="154.24308037945667"><tspan dy="0" x="371.29292963178386">7</tspan></text></g></g><g><g fill="none" stroke="none"><path d="M485.242 151.529A250 250 0 0 1 510 260L260 260Z "></path></g><g fill="none" stroke="black" stroke-width="2" stroke-linecap="round" stroke-linejoin="round" stroke-dasharray=""><path d="M485.242 151.529A250 250 0 0 1 510 260L260 260Z "></path><line x1="417.0246276855469" y1="220.28001403808594" x2="451.0246276855469" y2="220.28001403808594" stroke-width="3.4"></line></g><g fill="#000000" stroke="none" font-size="34" font-family="Bahnschrift" text-anchor="middle" stroke-linecap="round" stroke-linejoin="round"><text x="434.0246323244555" y="206.4800132887977" fill="white" stroke="white" stroke-width="8" font-weight="bold"><tspan dy="0" x="434.0246323244555">1</tspan></text><text x="434.0246323244555" y="206.4800132887977"><tspan dy="0" x="434.0246323244555">1</tspan></text><text x="434.0246323244555" y="254.08001328879766" fill="white" stroke="white" stroke-width="8" font-weight="bold"><tspan dy="0" x="434.0246323244555">14</tspan></text><text x="434.0246323244555" y="254.08001328879766"><tspan dy="0" x="434.0246323244555">14</tspan></text></g></g></g></svg>