<?xml version="1.0" encoding="utf-8"?>
<!-- Generator: Adobe Illustrator 28.0.0, SVG Export Plug-In . SVG Version: 6.00 Build 0)  -->
<svg version="1.1" id="Calque_1" xmlns="http://www.w3.org/2000/svg" xmlns:xlink="http://www.w3.org/1999/xlink" x="0px" y="0px"
	 viewBox="0 0 193.9 69.3" style="enable-background:new 0 0 193.9 69.3;" xml:space="preserve">
<style type="text/css">
	.st0{fill:none;stroke:#000000;stroke-width:3;stroke-miterlimit:10;}
	.st1{fill:none;stroke:#000000;stroke-width:3;stroke-linecap:round;stroke-miterlimit:10;}
	.st2{fill:none;stroke:#E30613;stroke-width:3;stroke-linecap:round;stroke-miterlimit:10;}
</style>
<g>
	<g>
		<line class="st0" x1="11.3" y1="59.4" x2="187.8" y2="33.7"/>
		<g>
			<rect x="9.8" y="49.7" transform="matrix(0.9895 -0.1446 0.1446 0.9895 -8.4781 2.2663)" width="3" height="19.5"/>
		</g>
		<g>
			<rect x="186.3" y="23.9" transform="matrix(0.9895 -0.1446 0.1446 0.9895 -2.8937 27.5112)" width="3" height="19.5"/>
		</g>
	</g>
</g>
<line class="st1" x1="98.4" y1="39.9" x2="100.7" y2="53.2"/>
<line class="st2" x1="53.4" y1="45.1" x2="45.8" y2="62.6"/>
<line class="st2" x1="60.1" y1="44.1" x2="52.4" y2="61.6"/>
<line class="st2" x1="147.1" y1="31.4" x2="139.4" y2="48.9"/>
<line class="st2" x1="153.7" y1="30.4" x2="146" y2="48"/>
<g>
	<g>
		<path d="M2.2,26.4h2.5v17.8H2.2V26.4z M3.3,34.3h6.1c0.5,0,0.9-0.1,1.3-0.3c0.4-0.2,0.6-0.6,0.8-1c0.2-0.4,0.3-0.9,0.3-1.4
			c0-0.5-0.1-1-0.3-1.4c-0.2-0.4-0.5-0.7-0.8-1c-0.4-0.2-0.8-0.3-1.3-0.3H3.3v-2.4h6c1,0,1.9,0.2,2.7,0.6c0.8,0.4,1.4,1,1.8,1.8
			c0.4,0.8,0.6,1.7,0.6,2.7c0,1-0.2,1.9-0.6,2.7c-0.4,0.8-1,1.4-1.8,1.8c-0.8,0.4-1.7,0.6-2.7,0.6h-6V34.3z M8.1,36.1l2.5-0.6
			l4.5,8.6h-3L8.1,36.1z"/>
	</g>
</g>
<g>
	<g>
		<path d="M183.6,21.3c-0.8-0.2-1.5-0.4-2.1-0.7c-0.7-0.3-1.3-0.7-1.9-1.2l1.5-1.9c0.7,0.6,1.4,1,2.2,1.3s1.7,0.4,2.6,0.4
			c1.3,0,2.3-0.2,3-0.7c0.7-0.5,1.1-1.1,1.1-2v0c0-0.6-0.2-1.1-0.5-1.5c-0.3-0.4-0.7-0.6-1.2-0.8c-0.5-0.2-1.2-0.3-2-0.5
			c0,0-0.1,0-0.1,0c0,0-0.1,0-0.1,0l-0.2,0c-1.2-0.2-2.2-0.4-2.9-0.7c-0.7-0.3-1.4-0.7-1.9-1.4c-0.5-0.7-0.8-1.6-0.8-2.9v0
			c0-1.1,0.2-2,0.7-2.8c0.5-0.8,1.2-1.4,2.2-1.8c0.9-0.4,2.1-0.6,3.4-0.6c0.6,0,1.3,0.1,1.9,0.2s1.2,0.3,1.8,0.6
			c0.6,0.3,1.2,0.6,1.8,1l-1.4,2c-0.7-0.5-1.3-0.9-2-1.1c-0.7-0.2-1.3-0.4-2-0.4c-1.2,0-2.2,0.2-2.8,0.7c-0.7,0.5-1,1.2-1,2.1v0
			c0,0.6,0.2,1.1,0.5,1.4c0.3,0.3,0.8,0.6,1.3,0.8c0.5,0.2,1.2,0.3,2.2,0.5c0,0,0.1,0,0.1,0c0,0,0.1,0,0.1,0c0,0,0.1,0,0.1,0
			c0,0,0.1,0,0.1,0c1.1,0.2,2,0.5,2.7,0.8c0.7,0.3,1.3,0.8,1.8,1.5c0.5,0.7,0.7,1.6,0.7,2.8v0c0,1.1-0.3,2-0.8,2.8
			c-0.5,0.8-1.3,1.4-2.2,1.8c-1,0.4-2.1,0.6-3.5,0.6C185.2,21.6,184.4,21.5,183.6,21.3z"/>
	</g>
</g>
<g>
	<g>
		<path d="M100.8,34.3h-2.5V16.6h2.5V34.3z"/>
	</g>
</g>
</svg>
