<?xml version="1.0" encoding="utf-8"?>
<!-- Generator: Adobe Illustrator 28.0.0, SVG Export Plug-In . SVG Version: 6.00 Build 0)  -->
<svg version="1.1" id="Calque_1" xmlns="http://www.w3.org/2000/svg" xmlns:xlink="http://www.w3.org/1999/xlink" x="0px" y="0px"
	 viewBox="0 0 147.1 52.6" style="enable-background:new 0 0 147.1 52.6;" xml:space="preserve">
<style type="text/css">
	.st0{fill:none;stroke:#000000;stroke-width:3;stroke-linecap:round;stroke-miterlimit:10;}
	.st1{fill:none;}
	.st2{fill:none;stroke:#E30613;stroke-linecap:round;stroke-miterlimit:10;}
	.st3{fill:#E30613;}
</style>
<line class="st0" x1="13.3" y1="27.5" x2="13.3" y2="51.1"/>
<line class="st0" x1="25.1" y1="39.3" x2="1.5" y2="39.3"/>
<rect x="25.1" y="17.3" class="st1" width="3.4" height="0"/>
<g>
	<g>
		<path d="M12.2,3.6h2.1l6.5,17.7h-2.7L13.3,7.1L8.4,21.4H5.7L12.2,3.6z M8.7,15.1H18v2.4H8.7V15.1z"/>
	</g>
</g>
<g>
	<g>
		<line class="st2" x1="41" y1="9.2" x2="29.8" y2="11.9"/>
		<g>
			<polygon class="st3" points="26.8,12.6 30.6,9.9 30,11.8 31.4,13.3 			"/>
		</g>
	</g>
</g>
<g>
	<g>
		<path class="st3" d="M47.6,4.5H49v9.9h-1.4V4.5z M48.3,13.1H54v1.3h-5.7V13.1z"/>
		<path class="st3" d="M56.7,14.1c-0.5-0.2-0.8-0.6-1.1-1.1s-0.4-1.1-0.4-1.7v-0.8c0-0.7,0.1-1.3,0.4-1.8s0.6-0.9,1-1.1
			s1-0.4,1.6-0.4c0.6,0,1.1,0.1,1.5,0.4s0.7,0.7,1,1.3s0.3,1.2,0.3,2v0.5h-4.8v-1.1h3.5c0-0.6-0.2-1-0.4-1.4s-0.6-0.5-1-0.5
			c-0.5,0-0.9,0.2-1.2,0.5s-0.4,0.8-0.4,1.5v0.9c0,0.6,0.2,1,0.5,1.4s0.7,0.5,1.3,0.5c0.3,0,0.6-0.1,0.8-0.2s0.5-0.3,0.7-0.5
			l0.9,0.9c-0.4,0.3-0.7,0.6-1.2,0.8s-0.9,0.3-1.3,0.3C57.8,14.5,57.2,14.4,56.7,14.1z"/>
		<path class="st3" d="M66.8,7.3h1.4v7.1h-1.4V7.3z M71.1,10.1c0-0.5-0.1-0.9-0.4-1.2s-0.6-0.4-1.1-0.4c-0.5,0-0.8,0.1-1.1,0.4
			s-0.4,0.6-0.4,1L68,8.5c0.2-0.4,0.5-0.8,0.9-1s0.7-0.3,1.2-0.3c0.8,0,1.4,0.3,1.8,0.8s0.6,1.2,0.6,2.1v4.3h-1.4V10.1z"/>
		<path class="st3" d="M75.7,14.1c-0.4-0.2-0.8-0.6-1-1.1s-0.3-1-0.3-1.7v-1.2c0-0.6,0.1-1.2,0.3-1.7s0.6-0.8,1-1s1-0.4,1.6-0.4
			s1.1,0.1,1.6,0.4s0.8,0.6,1,1c0.2,0.5,0.3,1,0.3,1.7v1.2c0,0.6-0.1,1.2-0.3,1.7c-0.2,0.5-0.6,0.8-1,1s-1,0.4-1.6,0.4
			S76.2,14.4,75.7,14.1z M78.5,12.7c0.3-0.3,0.4-0.7,0.4-1.3v-1.2c0-0.6-0.1-1-0.4-1.3s-0.6-0.5-1.1-0.5S76.5,8.7,76.2,9
			s-0.4,0.7-0.4,1.3v1.2c0,0.6,0.1,1,0.4,1.3s0.6,0.5,1.1,0.5S78.2,13,78.5,12.7z"/>
		<path class="st3" d="M82.2,7.3h1.4v7.1h-1.4V7.3z M86.5,10.1c0-0.5-0.1-0.9-0.4-1.2s-0.6-0.4-1-0.4c-0.5,0-0.8,0.1-1.1,0.4
			c-0.2,0.2-0.4,0.6-0.4,1l-0.1-1.4c0.2-0.4,0.5-0.8,0.9-1c0.4-0.2,0.7-0.3,1.2-0.3c0.5,0,0.9,0.1,1.3,0.3c0.4,0.2,0.6,0.6,0.8,1
			s0.3,1,0.3,1.6v4.3h-1.4V10.1z M90.7,10.1c0-0.5-0.1-0.9-0.4-1.2s-0.6-0.4-1.1-0.4c-0.4,0-0.8,0.1-1,0.4C88,9.2,87.9,9.6,87.9,10
			l-0.3-1.4c0.2-0.5,0.5-0.8,0.9-1.1c0.4-0.3,0.8-0.4,1.2-0.4c0.5,0,0.9,0.1,1.3,0.3s0.6,0.6,0.8,1c0.2,0.4,0.3,1,0.3,1.6v4.3h-1.4
			V10.1z"/>
		<path class="st3" d="M98.9,14.2c-0.4-0.2-0.6-0.6-0.8-1s-0.3-1-0.3-1.6v-1.6c0-0.6,0.1-1.1,0.3-1.6c0.2-0.4,0.5-0.8,0.8-1
			c0.4-0.2,0.8-0.3,1.3-0.3c0.4,0,0.8,0.1,1.2,0.3s0.6,0.5,0.8,0.9L102,9.9c0-0.3-0.1-0.6-0.2-0.8s-0.3-0.4-0.5-0.5
			c-0.2-0.1-0.5-0.2-0.8-0.2c-0.5,0-0.8,0.1-1.1,0.4s-0.4,0.7-0.4,1.2v1.5c0,0.5,0.1,0.9,0.4,1.2s0.6,0.4,1.1,0.4
			c0.3,0,0.5-0.1,0.8-0.2c0.2-0.1,0.4-0.3,0.5-0.5s0.2-0.5,0.2-0.8l0.1,1.5c-0.1,0.4-0.4,0.6-0.7,0.9s-0.7,0.4-1.2,0.4
			C99.7,14.5,99.3,14.4,98.9,14.2z M102,4.5h1.4v9.9H102V4.5z"/>
		<path class="st3" d="M106.9,11.6c0,0.5,0.1,0.9,0.4,1.2s0.6,0.4,1.1,0.4c0.5,0,0.8-0.1,1.1-0.4c0.2-0.2,0.4-0.6,0.4-1l0.1,1.5
			c-0.1,0.4-0.4,0.6-0.7,0.9s-0.7,0.4-1.2,0.4c-0.8,0-1.4-0.3-1.8-0.8c-0.4-0.5-0.6-1.2-0.6-2.1V7.3h1.4V11.6z M109.8,7.3h1.4v7.1
			h-1.4V7.3z"/>
		<path class="st3" d="M117.1,7.3h1.4v10h-1.4V7.3z M119.1,14.2c-0.3-0.2-0.6-0.5-0.7-0.9l0.1-1.5c0,0.3,0.1,0.6,0.2,0.8
			s0.3,0.4,0.5,0.5c0.2,0.1,0.5,0.2,0.8,0.2c0.5,0,0.8-0.1,1.1-0.4s0.4-0.7,0.4-1.2v-1.5c0-0.5-0.1-0.9-0.4-1.2s-0.6-0.4-1.1-0.4
			c-0.3,0-0.5,0.1-0.8,0.2c-0.2,0.1-0.4,0.3-0.5,0.5s-0.2,0.5-0.2,0.8l-0.1-1.4c0.2-0.4,0.5-0.7,0.8-1c0.3-0.2,0.7-0.3,1.2-0.3
			c0.5,0,0.9,0.1,1.3,0.3c0.4,0.2,0.6,0.6,0.8,1c0.2,0.4,0.3,1,0.3,1.6v1.5c0,0.6-0.1,1.1-0.3,1.5s-0.5,0.8-0.8,1s-0.8,0.3-1.3,0.3
			C119.8,14.5,119.4,14.4,119.1,14.2z"/>
		<path class="st3" d="M125.8,14.1c-0.4-0.2-0.8-0.6-1-1.1c-0.2-0.5-0.3-1-0.3-1.7v-1.2c0-0.6,0.1-1.2,0.3-1.7c0.2-0.5,0.6-0.8,1-1
			s1-0.4,1.6-0.4s1.1,0.1,1.6,0.4s0.8,0.6,1,1c0.2,0.5,0.3,1,0.3,1.7v1.2c0,0.6-0.1,1.2-0.3,1.7c-0.2,0.5-0.6,0.8-1,1
			s-1,0.4-1.6,0.4S126.3,14.4,125.8,14.1z M128.5,12.7c0.3-0.3,0.4-0.7,0.4-1.3v-1.2c0-0.6-0.1-1-0.4-1.3s-0.6-0.5-1.1-0.5
			c-0.5,0-0.9,0.2-1.1,0.5s-0.4,0.7-0.4,1.3v1.2c0,0.6,0.1,1,0.4,1.3s0.6,0.5,1.1,0.5C127.9,13.2,128.3,13,128.5,12.7z"/>
		<path class="st3" d="M132.3,4.5h1.4v1.4h-1.4V4.5z M132.3,7.3h1.4v7.1h-1.4V7.3z"/>
		<path class="st3" d="M135.8,7.3h1.4v7.1h-1.4V7.3z M140.1,10.1c0-0.5-0.1-0.9-0.4-1.2s-0.6-0.4-1.1-0.4c-0.5,0-0.8,0.1-1.1,0.4
			c-0.2,0.2-0.4,0.6-0.4,1l-0.1-1.4c0.2-0.4,0.5-0.8,0.9-1c0.4-0.2,0.7-0.3,1.2-0.3c0.8,0,1.4,0.3,1.8,0.8c0.4,0.5,0.6,1.2,0.6,2.1
			v4.3h-1.4V10.1z"/>
		<path class="st3" d="M143.1,7.3h3.2v1.3h-3.2V7.3z M144.2,14c-0.3-0.3-0.4-0.8-0.4-1.4V5.2h1.4v7.3c0,0.2,0,0.3,0.1,0.4
			s0.2,0.1,0.3,0.1h0.7v1.3h-0.8C144.9,14.4,144.5,14.3,144.2,14z"/>
	</g>
</g>
<g>
	<g>
		<line class="st2" x1="47.3" y1="41.5" x2="35.8" y2="39.8"/>
		<g>
			<polygon class="st3" points="32.8,39.3 37.3,38.2 36,39.8 36.8,41.7 			"/>
		</g>
	</g>
</g>
<g>
	<g>
		<path class="st3" d="M52.9,36.5h1.4v9.9h-1.4V36.5z M53.6,45.1h5.7v1.3h-5.7V45.1z"/>
		<path class="st3" d="M62.1,46.2c-0.5-0.2-0.8-0.6-1.1-1.1c-0.2-0.5-0.4-1.1-0.4-1.7v-0.8c0-0.7,0.1-1.3,0.4-1.8
			c0.2-0.5,0.6-0.9,1-1.1s1-0.4,1.6-0.4c0.6,0,1.1,0.1,1.5,0.4c0.4,0.3,0.7,0.7,1,1.3s0.3,1.2,0.3,2v0.5h-4.8v-1.1h3.5
			c0-0.6-0.2-1-0.4-1.3s-0.6-0.5-1-0.5c-0.5,0-0.9,0.2-1.2,0.5c-0.3,0.3-0.4,0.8-0.4,1.5v0.9c0,0.6,0.2,1,0.5,1.4s0.7,0.5,1.3,0.5
			c0.3,0,0.6-0.1,0.8-0.2c0.3-0.1,0.5-0.3,0.7-0.5l0.9,0.9c-0.4,0.3-0.7,0.6-1.2,0.8s-0.9,0.3-1.3,0.3
			C63.1,46.6,62.5,46.4,62.1,46.2z"/>
		<path class="st3" d="M72.1,39.4h1.4v10h-1.4V39.4z M74.1,46.2c-0.3-0.2-0.6-0.5-0.7-0.9l0.1-1.5c0,0.3,0.1,0.6,0.2,0.8
			c0.1,0.2,0.3,0.4,0.5,0.5c0.2,0.1,0.5,0.2,0.8,0.2c0.5,0,0.8-0.1,1.1-0.4s0.4-0.7,0.4-1.2v-1.5c0-0.5-0.1-0.9-0.4-1.2
			s-0.6-0.4-1.1-0.4c-0.3,0-0.5,0.1-0.8,0.2s-0.4,0.3-0.5,0.5s-0.2,0.5-0.2,0.8l-0.1-1.4c0.2-0.4,0.5-0.7,0.8-1s0.7-0.3,1.2-0.3
			c0.5,0,0.9,0.1,1.3,0.3s0.6,0.6,0.8,1c0.2,0.4,0.3,1,0.3,1.6v1.5c0,0.6-0.1,1.1-0.3,1.5c-0.2,0.4-0.5,0.8-0.8,1s-0.8,0.3-1.3,0.3
			C74.8,46.6,74.4,46.5,74.1,46.2z"/>
		<path class="st3" d="M80.9,46.2c-0.4-0.2-0.8-0.6-1-1.1c-0.2-0.5-0.3-1-0.3-1.7v-1.2c0-0.6,0.1-1.2,0.3-1.7c0.2-0.5,0.6-0.8,1-1
			s1-0.4,1.6-0.4s1.1,0.1,1.6,0.4s0.8,0.6,1,1c0.2,0.5,0.3,1,0.3,1.7v1.2c0,0.6-0.1,1.2-0.3,1.7c-0.2,0.5-0.6,0.8-1,1
			c-0.4,0.2-1,0.4-1.6,0.4S81.3,46.4,80.9,46.2z M83.6,44.8c0.3-0.3,0.4-0.7,0.4-1.3v-1.2c0-0.6-0.1-1-0.4-1.3s-0.6-0.5-1.1-0.5
			c-0.5,0-0.9,0.2-1.1,0.5s-0.4,0.7-0.4,1.3v1.2c0,0.6,0.1,1,0.4,1.3c0.3,0.3,0.6,0.5,1.1,0.5C82.9,45.2,83.3,45.1,83.6,44.8z"/>
		<path class="st3" d="M87.3,36.5h1.4v1.4h-1.4V36.5z M87.3,39.4h1.4v7.1h-1.4V39.4z"/>
		<path class="st3" d="M90.9,39.4h1.4v7.1h-1.4V39.4z M95.2,42.2c0-0.5-0.1-0.9-0.4-1.2s-0.6-0.4-1.1-0.4c-0.5,0-0.8,0.1-1.1,0.4
			c-0.2,0.2-0.4,0.6-0.4,1l-0.1-1.4c0.2-0.4,0.5-0.8,0.9-1c0.4-0.2,0.7-0.3,1.2-0.3c0.8,0,1.4,0.3,1.8,0.8c0.4,0.5,0.6,1.2,0.6,2.1
			v4.3h-1.4V42.2z"/>
		<path class="st3" d="M98.1,39.4h3.2v1.3h-3.2V39.4z M99.3,46c-0.3-0.3-0.4-0.8-0.4-1.4v-7.3h1.4v7.3c0,0.2,0,0.3,0.1,0.4
			c0.1,0.1,0.2,0.1,0.3,0.1h0.7v1.3h-0.8C99.9,46.5,99.5,46.3,99.3,46z"/>
	</g>
</g>
</svg>
