<?xml version="1.0" encoding="utf-8"?>
<!-- Generator: Adobe Illustrator 28.0.0, SVG Export Plug-In . SVG Version: 6.00 Build 0)  -->
<svg version="1.1" id="Calque_1" xmlns="http://www.w3.org/2000/svg" xmlns:xlink="http://www.w3.org/1999/xlink" x="0px" y="0px"
	 viewBox="0 0 389 388.3" style="enable-background:new 0 0 389 388.3;" xml:space="preserve">
<style type="text/css">
	.st0{fill:none;stroke:#008D36;stroke-width:3;stroke-miterlimit:10;}
	.st1{fill:#E30613;stroke:#1D71B8;stroke-width:3;stroke-miterlimit:10;}
	.st2{stroke:#E30613;stroke-width:3;stroke-miterlimit:10;}
	.st3{fill:none;stroke:#000000;stroke-width:3;stroke-miterlimit:10;}
	.st4{fill:none;stroke:#000000;stroke-width:3;stroke-linecap:round;stroke-linejoin:round;stroke-miterlimit:10;}
	.st5{fill:#008D36;}
	.st6{fill:#E30613;}
	.st7{fill:#1D71B8;}
	.st8{fill:none;stroke:#A3195B;stroke-width:3;stroke-miterlimit:10;}
	.st9{fill:#A3195B;}
</style>
<line class="st0" x1="190.1" y1="176.1" x2="359.3" y2="132.9"/>
<line class="st1" x1="46" y1="274.7" x2="293.4" y2="316.9"/>
<line class="st2" x1="23.5" y1="124" x2="356.7" y2="228.3"/>
<circle class="st3" cx="190.1" cy="176.1" r="174.6"/>
<polygon class="st4" points="190.1,176.1 184.2,164.9 190.1,176.1 201.3,170.3 190.1,176.1 196,187.4 190.1,176.1 178.9,182 "/>
<g>
	<g>
		<path d="M190.6,164.1c-1.1-0.6-2-1.5-2.7-2.7c-0.6-1.2-1-2.6-1-4.1l-0.1-6c0-1.6,0.3-2.9,0.9-4.1c0.6-1.2,1.5-2.1,2.6-2.8
			c1.1-0.7,2.4-1,3.9-1c1.5,0,2.8,0.3,3.9,0.9c1.1,0.6,2,1.5,2.7,2.7c0.6,1.2,1,2.6,1,4.1l0.1,6c0,1.6-0.3,2.9-0.9,4.1
			c-0.6,1.2-1.5,2.1-2.6,2.8c-1.1,0.7-2.4,1-3.9,1C193.1,165.1,191.8,164.8,190.6,164.1z M196.9,161.5c0.7-0.4,1.2-1,1.5-1.7
			c0.4-0.7,0.5-1.6,0.5-2.5l-0.1-6.2c0-1-0.2-1.8-0.6-2.5c-0.4-0.7-0.9-1.3-1.6-1.7c-0.7-0.4-1.4-0.6-2.3-0.6
			c-0.9,0-1.7,0.2-2.3,0.6c-0.7,0.4-1.2,1-1.5,1.7c-0.4,0.7-0.5,1.6-0.5,2.5l0.1,6.2c0,1,0.2,1.8,0.6,2.5c0.4,0.7,0.9,1.3,1.6,1.7
			c0.7,0.4,1.4,0.6,2.3,0.6C195.4,162.1,196.2,161.9,196.9,161.5z"/>
	</g>
</g>
<g>
	<g>
		<path class="st5" d="M254.4,165.2l2.9-0.7l5.3,20.6l-2.9,0.7L254.4,165.2z M258,174l7-1.8c0.5-0.1,1-0.4,1.4-0.8
			c0.4-0.4,0.6-0.8,0.7-1.4c0.1-0.5,0.1-1.1-0.1-1.8s-0.4-1.2-0.8-1.6s-0.8-0.7-1.3-0.9c-0.5-0.2-1-0.2-1.6,0l-7,1.8l-0.7-2.8
			l6.9-1.8c1.2-0.3,2.3-0.3,3.3-0.1s1.9,0.8,2.6,1.6c0.7,0.8,1.2,1.8,1.5,2.9c0.3,1.2,0.3,2.3,0,3.3c-0.3,1-0.8,1.9-1.6,2.6
			c-0.8,0.7-1.8,1.2-2.9,1.5l-6.9,1.8L258,174z M264.1,174.7l2.7-1.4l7.8,8.7l-3.4,0.9L264.1,174.7z"/>
		<path class="st5" d="M284.2,169.6c-0.2-1-0.7-1.6-1.3-2.1c-0.7-0.4-1.5-0.5-2.4-0.2c-0.6,0.2-1.1,0.4-1.7,0.7
			c-0.5,0.3-1,0.7-1.3,1.1l-2.5-0.9c0.4-0.8,1-1.5,1.8-2.1c0.8-0.6,1.8-1.1,2.9-1.3c1.2-0.3,2.3-0.4,3.3-0.2c1,0.2,1.8,0.7,2.5,1.4
			c0.7,0.7,1.1,1.6,1.4,2.8l2.4,9.5l-2.8,0.7L284.2,169.6z M278.7,180c-1.1-0.5-1.8-1.5-2.2-3.1c-0.4-1.5-0.2-2.7,0.4-3.6
			c0.6-0.9,1.8-1.6,3.5-2l4.2-1.1l0.8,2.3l-4.4,1.1c-0.8,0.2-1.3,0.5-1.6,0.9s-0.3,1-0.2,1.7c0.2,0.7,0.6,1.2,1.2,1.5
			c0.6,0.2,1.4,0.2,2.4,0c1.1-0.3,1.9-0.6,2.4-1s0.7-0.8,0.5-1.3l0.8,2c-0.2,0.5-0.4,0.9-0.7,1.2s-0.7,0.7-1.2,0.9
			c-0.5,0.3-1,0.5-1.6,0.6C281.3,180.5,279.8,180.5,278.7,180z"/>
		<path class="st5" d="M288.4,162.8l3-0.8l7.8,11.6l-0.8,3.5L288.4,162.8z M301.5,159.4l-1.6,19.8c-0.1,0.7-0.2,1.3-0.5,1.8
			c-0.3,0.5-0.7,0.9-1.1,1.2c-0.5,0.3-1.1,0.6-1.9,0.8l-0.6,0.1l-0.7-2.8l0.6-0.1c0.5-0.1,0.9-0.4,1.2-0.7c0.3-0.3,0.4-0.7,0.5-1.3
			l1.2-18L301.5,159.4z"/>
		<path class="st5" d="M310,172.3c-1-0.3-1.9-0.8-2.6-1.7c-0.7-0.8-1.3-1.9-1.6-3.3l-0.6-2.4c-0.3-1.3-0.4-2.5-0.2-3.6
			c0.2-1.1,0.7-2,1.5-2.7c0.8-0.7,1.8-1.3,3.1-1.6c1.3-0.3,2.4-0.4,3.5-0.1c1,0.3,1.9,0.8,2.6,1.6c0.7,0.8,1.3,1.9,1.6,3.2l0.6,2.4
			c0.3,1.3,0.4,2.6,0.2,3.6c-0.2,1.1-0.7,2-1.5,2.7c-0.8,0.7-1.8,1.3-3.1,1.6S311.1,172.6,310,172.3z M314.9,168
			c0.4-0.8,0.4-1.7,0.1-2.9l-0.6-2.4c-0.3-1.1-0.8-2-1.5-2.4c-0.7-0.5-1.6-0.6-2.6-0.3c-1,0.3-1.7,0.8-2.1,1.5
			c-0.4,0.8-0.4,1.7-0.2,2.9l0.6,2.4c0.3,1.1,0.8,2,1.5,2.5c0.7,0.5,1.6,0.6,2.6,0.3C313.8,169.2,314.5,168.7,314.9,168z"/>
		<path class="st5" d="M319.9,154.7l2.9-0.7l3.8,14.7l-2.9,0.7L319.9,154.7z M330.3,158.2c-0.3-1-0.7-1.8-1.4-2.2
			c-0.7-0.4-1.5-0.5-2.5-0.3c-0.9,0.2-1.6,0.7-2,1.3c-0.4,0.6-0.5,1.4-0.2,2.3l-1-2.8c0.2-1,0.6-1.8,1.3-2.5s1.4-1.1,2.2-1.3
			c1.6-0.4,3-0.2,4.1,0.6c1.1,0.8,2,2.2,2.4,4.1l2.3,8.9l-2.9,0.7L330.3,158.2z"/>
	</g>
</g>
<g>
	<g>
		<path class="st6" d="M54.8,102.6l2.9,0.9l-6.4,20.3l-2.9-0.9L54.8,102.6z M51.2,120.8l4.6,1.4c1.5,0.5,2.8,0.4,3.9-0.1
			c1.1-0.5,1.8-1.5,2.3-2.9l1.9-6c0.4-1.4,0.4-2.6-0.2-3.7c-0.6-1-1.6-1.8-3.1-2.3l-4.6-1.4l0.8-2.7l4.5,1.4
			c1.6,0.5,2.9,1.2,3.9,2.2c1,0.9,1.6,2,1.9,3.3c0.3,1.3,0.2,2.7-0.3,4.2l-1.8,5.8c-0.5,1.5-1.2,2.8-2.1,3.7
			c-0.9,0.9-2.1,1.5-3.4,1.7s-2.8,0.1-4.5-0.5l-4.5-1.4L51.2,120.8z"/>
		<path class="st6" d="M71.5,114.2l2.9,0.9l-4.5,14.5l-2.9-0.9L71.5,114.2z M73.3,108.4l2.9,0.9l-0.9,2.9l-2.9-0.9L73.3,108.4z"/>
		<path class="st6" d="M75.1,130.3c-0.7-1-0.7-2.3-0.3-3.8c0.4-1.4,1.2-2.4,2.2-2.8c1-0.5,2.4-0.4,4,0.1l4.1,1.3l-0.5,2.4l-4.3-1.3
			c-0.7-0.2-1.4-0.2-1.8,0s-0.8,0.7-1,1.3c-0.2,0.7-0.2,1.4,0.2,1.9c0.4,0.5,1.1,0.9,2.1,1.2c1.1,0.3,1.9,0.5,2.5,0.4
			c0.6-0.1,1-0.3,1.1-0.8l-0.3,2.1c-0.4,0.3-0.8,0.5-1.2,0.7c-0.4,0.1-0.9,0.2-1.5,0.2c-0.5,0-1.1-0.1-1.7-0.3
			C77,132.1,75.7,131.3,75.1,130.3z M85.2,124.3c0.3-1,0.3-1.8-0.1-2.5s-1-1.2-1.9-1.5c-0.6-0.2-1.2-0.3-1.8-0.3
			c-0.6,0-1.2,0.1-1.7,0.3l-1.6-2.1c0.8-0.5,1.6-0.8,2.7-0.9c1-0.1,2.1,0,3.2,0.4c1.2,0.4,2.2,0.9,2.9,1.6s1.2,1.5,1.4,2.5
			c0.2,0.9,0.1,2-0.2,3.1l-2.9,9.3l-2.7-0.8L85.2,124.3z"/>
		<path class="st6" d="M93.9,121.2l2.9,0.9l-4.5,14.5l-2.9-0.9L93.9,121.2z M100.8,129.7c0.3-1,0.3-1.9,0-2.6s-1-1.2-1.9-1.5
			c-0.9-0.3-1.7-0.3-2.4,0.1c-0.7,0.3-1.1,0.9-1.4,1.8l0.6-2.9c0.7-0.7,1.5-1.2,2.4-1.5s1.7-0.2,2.6,0c1,0.3,1.8,0.8,2.4,1.5
			c0.6,0.7,0.9,1.5,1,2.5c0.1,1,0,2.1-0.4,3.4l-2.8,8.8l-2.9-0.9L100.8,129.7z M109.5,132.4c0.3-1,0.3-1.9-0.1-2.6
			c-0.4-0.7-1-1.2-2-1.5c-0.9-0.3-1.7-0.2-2.3,0.2c-0.7,0.4-1.1,1.1-1.4,2.1l0.3-3c0.8-0.8,1.6-1.4,2.5-1.7c0.9-0.3,1.8-0.3,2.7,0
			c1,0.3,1.9,0.8,2.5,1.5c0.6,0.7,0.9,1.5,1.1,2.5s0,2.1-0.4,3.4l-2.8,8.8l-2.9-0.9L109.5,132.4z"/>
		<path class="st6" d="M116.6,143.6c-0.8-0.8-1.3-1.8-1.5-2.9s-0.1-2.4,0.4-3.8l0.5-1.6c0.5-1.4,1.1-2.6,1.9-3.5
			c0.8-0.9,1.7-1.4,2.8-1.7c1.1-0.2,2.3-0.2,3.5,0.2c1.2,0.4,2.2,1,2.8,1.9s1,2,1.1,3.2c0.1,1.3-0.1,2.7-0.6,4.3l-0.3,1l-9.8-3.1
			l0.7-2.3l7.1,2.2c0.3-1.2,0.3-2.2-0.1-3c-0.3-0.8-0.9-1.4-1.8-1.6c-1.1-0.3-2-0.2-2.8,0.3c-0.8,0.5-1.4,1.4-1.8,2.7l-0.6,1.8
			c-0.4,1.2-0.3,2.2,0.1,3.1s1.2,1.4,2.4,1.8c0.6,0.2,1.2,0.2,1.8,0.2c0.6-0.1,1.3-0.2,1.8-0.5l1.3,2.5c-0.9,0.5-1.9,0.7-2.9,0.8
			c-1,0.1-2,0-2.9-0.3C118.5,145.1,117.4,144.4,116.6,143.6z M121.7,121.7l2.6-1.1l2.4,6.2l-2.2,0.9L121.7,121.7z"/>
		<path class="st6" d="M130.7,147.7c-0.3-0.8-0.3-1.9,0.1-3.1l4.7-15l2.9,0.9l-4.7,15c-0.1,0.4-0.1,0.6,0,0.9
			c0.1,0.2,0.3,0.4,0.5,0.5l1.4,0.4l-0.8,2.7l-1.6-0.5C131.8,149.1,131.1,148.5,130.7,147.7z M132.7,133.4l6.5,2l-0.8,2.6l-6.5-2
			L132.7,133.4z"/>
		<path class="st6" d="M143.2,136.6l2.9,0.9l-4.5,14.5l-2.9-0.9L143.2,136.6z M149.3,141.6c-0.3-0.3-0.8-0.5-1.3-0.7
			c-0.9-0.3-1.7-0.3-2.3,0.1c-0.7,0.3-1.1,1-1.4,1.8l0.6-2.9c0.7-0.7,1.5-1.2,2.4-1.5s1.7-0.3,2.6,0c0.7,0.2,1.2,0.5,1.7,0.8
			c0.5,0.4,0.9,0.8,1.1,1.3l-2.6,1.9C149.9,142.2,149.7,141.8,149.3,141.6z"/>
		<path class="st6" d="M153.5,155.2c-0.8-0.8-1.3-1.8-1.5-2.9c-0.2-1.1-0.1-2.4,0.4-3.8l0.5-1.6c0.4-1.4,1.1-2.6,1.9-3.5
			c0.8-0.9,1.7-1.4,2.8-1.7c1.1-0.2,2.3-0.2,3.5,0.2c1.2,0.4,2.2,1,2.8,1.9c0.7,0.9,1,2,1.1,3.2c0.1,1.3-0.1,2.7-0.6,4.3l-0.3,1
			l-9.8-3.1l0.7-2.3l7.1,2.2c0.3-1.2,0.3-2.2-0.1-3c-0.3-0.8-0.9-1.4-1.8-1.6c-1.1-0.3-2-0.2-2.8,0.3s-1.4,1.4-1.8,2.7l-0.6,1.8
			c-0.4,1.2-0.3,2.2,0.1,3.1c0.4,0.8,1.2,1.4,2.4,1.8c0.6,0.2,1.2,0.2,1.8,0.2c0.6-0.1,1.3-0.2,1.8-0.5l1.3,2.5
			c-0.9,0.5-1.9,0.7-2.9,0.8c-1,0.1-2,0-2.9-0.3C155.4,156.6,154.3,156,153.5,155.2z"/>
	</g>
</g>
<g>
	<g>
		<path class="st7" d="M136.1,281.1c-1-0.8-1.7-1.9-2-3.2c-0.4-1.3-0.4-2.7-0.1-4.3l1.1-5.7c0.3-1.6,0.9-2.9,1.7-3.9
			s1.8-1.8,3.1-2.3c1.2-0.4,2.6-0.5,4-0.3c1.2,0.2,2.3,0.7,3.2,1.4c0.9,0.7,1.6,1.6,2.1,2.7c0.5,1.1,0.8,2.2,0.8,3.5l-3-0.6
			c-0.1-0.7-0.3-1.3-0.6-1.9s-0.8-1.1-1.3-1.5c-0.5-0.4-1.1-0.6-1.7-0.8c-0.9-0.2-1.6-0.1-2.4,0.2c-0.7,0.3-1.3,0.8-1.8,1.5
			c-0.5,0.7-0.8,1.5-1,2.5l-1.1,5.7c-0.2,1-0.2,1.9,0,2.7c0.2,0.8,0.6,1.5,1.2,2s1.3,0.9,2.1,1c0.6,0.1,1.2,0.1,1.9-0.1
			c0.6-0.2,1.2-0.4,1.7-0.9c0.5-0.4,0.9-1,1.3-1.6l3,0.6c-0.5,1.2-1.1,2.2-2,3c-0.9,0.8-1.8,1.4-2.9,1.7c-1.1,0.3-2.3,0.4-3.4,0.2
			C138.3,282.5,137.1,282,136.1,281.1z"/>
		<path class="st7" d="M153.4,284.6c-0.8-0.7-1.4-1.6-1.7-2.6c-0.3-1.1-0.3-2.3-0.1-3.7l0.5-2.4c0.3-1.4,0.7-2.5,1.4-3.3
			c0.7-0.9,1.5-1.5,2.5-1.8s2.2-0.4,3.5-0.1c1.3,0.2,2.4,0.7,3.2,1.4s1.4,1.5,1.7,2.6c0.3,1.1,0.3,2.3,0.1,3.6l-0.5,2.5
			c-0.3,1.4-0.7,2.5-1.4,3.4c-0.7,0.9-1.5,1.5-2.5,1.8c-1,0.3-2.2,0.4-3.5,0.1S154.2,285.3,153.4,284.6z M159.7,282.7
			c0.7-0.5,1.1-1.4,1.3-2.5l0.5-2.5c0.2-1.2,0.1-2.1-0.3-2.9c-0.4-0.7-1.2-1.2-2.2-1.4c-1-0.2-1.9,0-2.6,0.5
			c-0.7,0.5-1.1,1.4-1.3,2.5l-0.5,2.5c-0.2,1.2-0.1,2.1,0.3,2.9c0.4,0.7,1.2,1.2,2.2,1.4C158.1,283.4,159,283.2,159.7,282.7z"/>
		<path class="st7" d="M169.8,272.7l2.9,0.6l-2.8,14.9l-2.9-0.6L169.8,272.7z M176.5,276.9c-0.4-0.2-0.8-0.4-1.3-0.5
			c-0.9-0.2-1.7-0.1-2.3,0.4c-0.6,0.4-1,1.1-1.2,2l0.2-2.9c0.6-0.8,1.4-1.4,2.2-1.7s1.7-0.5,2.6-0.3c0.7,0.1,1.3,0.3,1.8,0.6
			c0.5,0.3,0.9,0.7,1.3,1.1l-2.4,2.2C177.1,277.5,176.8,277.2,176.5,276.9z"/>
		<path class="st7" d="M181.6,290c-0.7-0.6-1.1-1.4-1.4-2.4c-0.2-1-0.2-2.1,0-3.4l0.6-3.3c0.2-1.3,0.6-2.3,1.2-3.2
			c0.6-0.8,1.3-1.4,2.1-1.8c0.8-0.3,1.8-0.4,2.8-0.2c0.9,0.2,1.6,0.5,2.3,1.1c0.6,0.6,1.1,1.4,1.4,2.3l-0.9,3c0.1-0.6,0.1-1.2,0-1.7
			c-0.1-0.5-0.4-0.9-0.8-1.2c-0.4-0.3-0.9-0.5-1.5-0.7c-1-0.2-1.8,0-2.4,0.5c-0.6,0.5-1.1,1.3-1.3,2.4l-0.6,3.3
			c-0.2,1.1-0.1,2,0.3,2.7c0.4,0.7,1.1,1.1,2.1,1.3c0.6,0.1,1.2,0.1,1.7-0.1c0.5-0.2,0.9-0.5,1.2-0.9c0.3-0.4,0.5-0.9,0.7-1.6
			l-0.4,3.2c-0.4,0.7-1,1.2-1.8,1.6c-0.8,0.4-1.6,0.5-2.6,0.3C183.1,291,182.3,290.6,181.6,290z M192,270.7l2.9,0.6l-3.9,20.9
			l-2.9-0.6L192,270.7z"/>
		<path class="st7" d="M198.1,292.9c-0.9-0.7-1.5-1.6-1.8-2.7c-0.3-1.1-0.4-2.4-0.1-3.8l0.3-1.7c0.3-1.5,0.8-2.7,1.5-3.6
			c0.7-1,1.6-1.6,2.6-2c1-0.4,2.2-0.4,3.6-0.2c1.2,0.2,2.3,0.7,3,1.5c0.8,0.8,1.3,1.8,1.5,3.1s0.2,2.7-0.1,4.4l-0.2,1l-10.1-1.9
			l0.4-2.4l7.3,1.4c0.1-1.2,0-2.2-0.4-3s-1.1-1.3-2-1.4c-1.1-0.2-2,0-2.8,0.6c-0.7,0.6-1.2,1.6-1.5,2.9L199,287
			c-0.2,1.2-0.1,2.2,0.4,3c0.5,0.8,1.4,1.3,2.6,1.5c0.6,0.1,1.2,0.1,1.8,0c0.6-0.1,1.2-0.4,1.8-0.7l1.6,2.3c-0.9,0.6-1.8,1-2.8,1.2
			s-2,0.2-2.9,0.1C200.1,294.1,199,293.6,198.1,292.9z"/>
	</g>
</g>
<path class="st8" d="M293.4,316.9C250.2,348.6,193,360,137.9,342.7C99,330.6,67.3,306,46,274.7"/>
<g>
	<g>
		<path d="M8.4,96.5H11l7.9,21.3h-3.2l-5.9-17.2l-5.9,17.2H0.6L8.4,96.5z M4.2,110.3h11.2v2.8H4.2V110.3z"/>
	</g>
</g>
<g>
	<g>
		<path d="M372.3,111.6h3v21.3h-3V111.6z M374.1,130.2h5.8c1.5,0,2.6-0.3,3.3-0.9s1-1.4,1-2.4v0c0-0.7-0.1-1.3-0.4-1.9
			c-0.2-0.5-0.6-0.9-1.2-1.2s-1.2-0.4-2.1-0.4h-6.5v-2.7h6.5c1.1,0,1.9-0.3,2.5-0.8c0.6-0.5,0.8-1.3,0.8-2.3c0-1.1-0.3-1.9-0.9-2.4
			s-1.6-0.8-2.8-0.8h-6.1v-2.8h6.6c1.4,0,2.5,0.2,3.5,0.7s1.6,1.1,2.1,2s0.7,1.9,0.7,3.1c0,0.7-0.1,1.4-0.4,2.1s-0.7,1.2-1.3,1.6
			c-0.6,0.5-1.3,0.8-2.2,0.9c0.9,0.1,1.6,0.4,2.2,0.9s1.1,1.1,1.4,1.8s0.5,1.5,0.5,2.3v0c0,1.2-0.3,2.2-0.8,3s-1.2,1.6-2.2,2
			s-2.1,0.7-3.3,0.7h-6.9V130.2z"/>
	</g>
</g>
<g>
	<g>
		<path d="M370.4,245.8c-1.1-0.7-2-1.6-2.6-2.8s-0.9-2.6-0.9-4.2V233c0-1.6,0.3-3,0.9-4.2s1.5-2.1,2.6-2.8c1.1-0.7,2.4-1,3.9-1
			c1.2,0,2.3,0.3,3.4,0.8s1.9,1.3,2.6,2.2c0.7,1,1.2,2.1,1.4,3.3h-3.1c-0.2-0.7-0.5-1.3-0.9-1.8c-0.4-0.5-0.9-0.9-1.5-1.2
			s-1.2-0.4-1.8-0.4c-0.9,0-1.6,0.2-2.3,0.6s-1.2,1-1.5,1.8S370,232,370,233v5.8c0,1,0.2,1.9,0.5,2.6s0.9,1.4,1.5,1.8
			s1.4,0.6,2.3,0.6c0.6,0,1.2-0.1,1.8-0.4c0.6-0.3,1.1-0.7,1.5-1.2c0.4-0.5,0.7-1.1,0.9-1.8h3.1c-0.2,1.3-0.7,2.4-1.4,3.3
			s-1.6,1.7-2.6,2.2s-2.1,0.8-3.4,0.8C372.9,246.8,371.6,246.5,370.4,245.8z"/>
	</g>
</g>
<g>
	<g>
		<path d="M305,315.6h3v21.3h-3V315.6z M306.5,315.6h12.2v2.8h-12.2V315.6z M306.5,324.9h10.6v2.8h-10.6V324.9z M306.5,334.1h12.2
			v2.8h-12.2V334.1z"/>
	</g>
</g>
<g>
	<g>
		<path d="M26.1,270h3v21.3h-3V270z M28.1,288.4H33c1.6,0,2.8-0.4,3.7-1.2c0.9-0.8,1.3-2,1.3-3.4v-6.3c0-1.5-0.4-2.6-1.3-3.5
			c-0.9-0.8-2.1-1.2-3.7-1.2h-4.8V270h4.7c1.7,0,3.2,0.3,4.4,0.9s2.1,1.5,2.8,2.6s1,2.5,1,4.1v6c0,1.6-0.3,3-1,4.1s-1.6,2-2.8,2.6
			c-1.2,0.6-2.7,0.9-4.4,0.9h-4.7V288.4z"/>
	</g>
</g>
<g>
	<path d="M89,4.9l-0.4,0.6c-1.1-0.6-2.5-0.9-4.1-0.9c-1.1,0-2.1,0.2-3.1,0.5c-1,0.3-1.8,0.9-2.6,1.6c-0.7,0.7-1.1,1.6-1.1,2.6
		c0,1.2,0.4,2.2,1.3,2.9c0.9,0.7,1.9,1.1,3.2,1.3c1.6-2.5,3.8-4.7,6.5-6.5c2.7-1.8,5.1-2.7,7.2-2.7c0.9,0,1.6,0.2,2.1,0.6
		c0.5,0.4,0.8,0.9,0.8,1.7c0,1.2-0.7,2.4-2,3.7c-1.3,1.3-3.1,2.3-5.3,3.1c-2.2,0.8-4.5,1.3-6.8,1.3c-1.4,2-2.1,4-2.1,6
		c0,1,0.3,1.8,0.9,2.4c0.6,0.6,1.5,0.9,2.6,0.9c1.6,0,3-0.5,4.2-1.5c1.2-1,1.8-2.1,1.8-3.2c0-0.7-0.2-1.3-0.6-1.7
		c-0.4-0.4-0.9-0.6-1.5-0.6c-1.1,0-2.1,0.5-3.1,1.6c-1,1.1-1.5,2.4-1.7,3.9l-0.7-0.1c0-1.8,0.6-3.4,1.8-4.7c1.2-1.3,2.6-2,4.2-2
		c1.1,0,2,0.3,2.6,0.8c0.6,0.5,0.9,1.3,0.9,2.3c0,0.8-0.3,1.6-0.8,2.4c-0.5,0.8-1.2,1.5-2.1,2c-1.6,1.1-3.3,1.6-5.2,1.6
		c-1.7,0-3.1-0.5-4.2-1.4c-1.1-0.9-1.7-2.2-1.7-3.8c0-1.6,0.5-3.3,1.4-5.1c-1.4-0.2-2.6-0.8-3.6-1.6c-1-0.9-1.5-2-1.5-3.5
		c0-1.5,0.7-2.8,2.1-3.9c1.4-1.1,3.3-1.7,5.5-1.7C86.1,3.7,87.7,4.1,89,4.9z M85.4,13.6L85.4,13.6c2.5,0,4.9-0.6,7.3-1.8
		c1.5-0.7,2.6-1.6,3.6-2.5c0.9-1,1.4-1.9,1.4-2.7c0-0.8-0.5-1.2-1.5-1.2c-1.4,0-3.2,0.8-5.2,2.4C89,9.3,87.1,11.2,85.4,13.6z"/>
</g>
<g>
	<g>
		<path class="st9" d="M80.2,324.1l2.1,1.4l-5,22.2l-2.7-1.7l4.4-17.6l-14.3,11.2l-2.7-1.7L80.2,324.1z M69.1,333.3l9.4,6.1
			l-1.5,2.4l-9.4-6.1L69.1,333.3z"/>
		<path class="st9" d="M88.1,336.1l2.6,1.4l-7.3,13.3l-2.6-1.4L88.1,336.1z M93.1,342.2c-0.3-0.3-0.6-0.6-1.1-0.9
			c-0.8-0.5-1.6-0.6-2.3-0.4c-0.7,0.2-1.3,0.7-1.7,1.5l1.1-2.7c0.8-0.6,1.7-0.9,2.6-1c0.9-0.1,1.7,0.1,2.5,0.5
			c0.6,0.3,1.1,0.7,1.5,1.2c0.4,0.4,0.7,0.9,0.9,1.5l-3,1.4C93.6,342.9,93.4,342.5,93.1,342.2z"/>
		<path class="st9" d="M95.3,356.5c-0.7-0.9-1-1.9-1.1-3c0-1.1,0.2-2.3,0.8-3.6l1.1-2.3c0.6-1.2,1.3-2.2,2.2-2.9
			c0.9-0.7,1.9-1,3-1.1c1.1,0,2.3,0.2,3.5,0.8c0.7,0.3,1.3,0.7,1.9,1.2s1,1,1.3,1.6c0.3,0.6,0.6,1.2,0.7,1.8l-2.8,0.8
			c-0.2-0.6-0.5-1.2-0.9-1.7c-0.4-0.5-0.9-0.9-1.5-1.1c-1-0.5-2-0.6-2.8-0.3s-1.5,1-2,2.1l-1.1,2.3c-0.5,1.1-0.6,2.1-0.3,2.9
			s1,1.5,2,2c0.6,0.3,1.2,0.4,1.8,0.4s1.3-0.2,1.9-0.4l1.1,2.8c-0.6,0.3-1.2,0.5-1.8,0.6s-1.3,0.1-2-0.1c-0.7-0.1-1.4-0.4-2.1-0.7
			C96.9,358.1,96,357.3,95.3,356.5z"/>
		<path class="st9" d="M117,365.9c-0.6-0.7-0.9-1.6-1-2.6c-0.1-1,0.1-2.1,0.5-3.4l1.1-3.2c0.4-1.2,1-2.2,1.7-3s1.5-1.2,2.4-1.4
			c0.9-0.2,1.8-0.1,2.8,0.2c0.8,0.3,1.5,0.8,2.1,1.5c0.5,0.7,0.9,1.5,1,2.5l-1.3,2.8c0.2-0.6,0.3-1.2,0.2-1.7
			c-0.1-0.5-0.3-1-0.6-1.3c-0.3-0.4-0.8-0.7-1.4-0.9c-0.9-0.3-1.8-0.3-2.5,0.1c-0.7,0.4-1.3,1.1-1.6,2.2l-1.1,3.1
			c-0.4,1-0.4,1.9-0.1,2.7s0.9,1.3,1.9,1.6c0.6,0.2,1.1,0.3,1.7,0.2c0.5-0.1,0.9-0.3,1.3-0.7c0.4-0.4,0.7-0.9,0.9-1.5l-0.9,3.1
			c-0.5,0.6-1.2,1-2,1.3s-1.7,0.2-2.6-0.1C118.4,367.2,117.6,366.6,117,365.9z M130.3,348.5l2.8,1l-7.1,20.1l-2.8-1L130.3,348.5z"/>
		<path class="st9" d="M133.9,371.3c-0.8-0.8-1.4-1.7-1.6-2.8c-0.2-1.1-0.2-2.4,0.2-3.8l0.5-1.7c0.4-1.5,1-2.6,1.7-3.5
			c0.8-0.9,1.7-1.5,2.8-1.8c1.1-0.3,2.3-0.3,3.6,0.1c1.2,0.3,2.2,0.9,2.9,1.8s1.1,1.9,1.3,3.2c0.1,1.3,0,2.7-0.4,4.4l-0.3,1
			l-9.9-2.7l0.6-2.3l7.2,1.9c0.2-1.2,0.2-2.2-0.2-3c-0.4-0.8-1-1.3-1.9-1.6c-1.1-0.3-2-0.2-2.8,0.4c-0.8,0.6-1.4,1.5-1.7,2.8
			l-0.5,1.9c-0.3,1.2-0.3,2.2,0.2,3.1s1.3,1.4,2.5,1.7c0.6,0.2,1.2,0.2,1.8,0.1c0.6-0.1,1.2-0.3,1.8-0.6l1.4,2.4
			c-0.9,0.5-1.9,0.8-2.9,1c-1,0.1-2,0.1-2.9-0.2C135.8,372.7,134.7,372.1,133.9,371.3z"/>
		<path class="st9" d="M158.8,377c-0.9-0.7-1.5-1.5-1.9-2.6s-0.4-2.3-0.2-3.7l0.4-2.5c0.2-1.4,0.6-2.5,1.3-3.4
			c0.7-0.9,1.5-1.5,2.6-1.9c1-0.4,2.3-0.4,3.6-0.2c0.8,0.1,1.5,0.3,2.2,0.6c0.7,0.3,1.2,0.7,1.7,1.1c0.5,0.4,0.9,0.9,1.2,1.5
			l-2.4,1.6c-0.4-0.5-0.8-1-1.3-1.3c-0.5-0.3-1.1-0.6-1.7-0.7c-1.1-0.2-2.1,0-2.8,0.6c-0.7,0.5-1.2,1.4-1.3,2.6l-0.4,2.5
			c-0.2,1.2,0,2.2,0.5,2.9s1.4,1.2,2.5,1.4c0.6,0.1,1.2,0,1.9-0.1c0.6-0.2,1.2-0.5,1.7-1l1.8,2.4c-0.5,0.4-1,0.8-1.6,1.1
			c-0.6,0.3-1.3,0.4-2,0.5s-1.5,0.1-2.2-0.1C160.8,378,159.7,377.6,158.8,377z"/>
		<path class="st9" d="M174.7,378.9c-1-0.6-1.7-1.4-2.1-2.5c-0.5-1.1-0.6-2.3-0.5-3.7l0.1-1.7c0.1-1.5,0.4-2.8,1-3.8
			c0.6-1,1.4-1.8,2.4-2.3c1-0.5,2.2-0.7,3.5-0.6c1.3,0.1,2.3,0.5,3.2,1.2c0.9,0.7,1.5,1.7,1.9,2.9c0.4,1.2,0.5,2.7,0.4,4.4l-0.1,1
			l-10.2-0.7l0.2-2.4l7.4,0.5c0-1.2-0.3-2.2-0.8-3c-0.5-0.7-1.2-1.1-2.1-1.2c-1.1-0.1-2,0.2-2.7,0.9c-0.7,0.7-1.1,1.7-1.1,3.1
			l-0.1,1.9c-0.1,1.3,0.2,2.2,0.8,3c0.6,0.7,1.5,1.1,2.8,1.2c0.6,0,1.2,0,1.8-0.2c0.6-0.2,1.2-0.5,1.7-0.9l1.8,2.1
			c-0.8,0.7-1.7,1.2-2.6,1.5c-1,0.3-1.9,0.5-2.9,0.4C176.8,379.9,175.7,379.5,174.7,378.9z"/>
		<path class="st9" d="M189,365l3,0l0.1,15.2l-3,0L189,365z M196.4,367.8c-0.4-0.2-0.9-0.2-1.4-0.2c-0.9,0-1.7,0.3-2.2,0.8
			c-0.5,0.5-0.8,1.3-0.8,2.2l-0.3-2.9c0.5-0.9,1.1-1.6,1.8-2.1c0.7-0.5,1.6-0.8,2.5-0.8c0.7,0,1.3,0.1,1.9,0.3s1.1,0.5,1.5,0.9
			l-1.9,2.7C197.1,368.2,196.8,368,196.4,367.8z"/>
		<path class="st9" d="M205.5,379.2c-1-0.4-1.8-1.1-2.4-2.1c-0.6-0.9-1-2.1-1.1-3.5l-0.2-2.5c-0.1-1.4,0-2.6,0.5-3.6
			s1.1-1.8,2.1-2.4s2.1-0.9,3.5-1.1c0.8-0.1,1.5,0,2.2,0.1s1.4,0.4,1.9,0.7c0.6,0.3,1.1,0.7,1.5,1.2l-2,2.1c-0.5-0.5-1-0.8-1.6-1
			c-0.6-0.2-1.2-0.3-1.8-0.2c-1.1,0.1-2,0.5-2.6,1.2c-0.6,0.7-0.8,1.6-0.7,2.8l0.2,2.5c0.1,1.2,0.5,2.1,1.2,2.7s1.6,0.8,2.8,0.8
			c0.6-0.1,1.2-0.2,1.8-0.6c0.5-0.3,1-0.8,1.4-1.3l2.3,1.9c-0.3,0.5-0.8,1-1.3,1.4s-1.1,0.7-1.8,1c-0.7,0.2-1.4,0.4-2.2,0.5
			C207.7,379.8,206.5,379.6,205.5,379.2z"/>
		<path class="st9" d="M221,374c0.1,0.4,0.2,0.6,0.4,0.8c0.2,0.2,0.4,0.2,0.7,0.2l1.4-0.2l0.4,2.8l-1.7,0.3c-1.1,0.2-2,0-2.8-0.7
			c-0.7-0.6-1.2-1.5-1.4-2.8l-2.6-17.2l3-0.4L221,374z"/>
		<path class="st9" d="M230.5,375.7c-1.1-0.3-2-0.9-2.7-1.8s-1.3-2-1.6-3.4l-0.4-1.7c-0.3-1.5-0.4-2.8-0.1-3.9
			c0.3-1.1,0.8-2.1,1.6-2.8c0.8-0.8,1.9-1.3,3.2-1.6c1.2-0.3,2.4-0.2,3.4,0.2s1.9,1.2,2.6,2.2c0.7,1.1,1.3,2.4,1.6,4.1l0.2,1
			l-10,2.2l-0.5-2.3l7.2-1.6c-0.4-1.2-0.9-2.1-1.6-2.6c-0.7-0.6-1.5-0.7-2.4-0.5c-1.1,0.2-1.9,0.8-2.3,1.7s-0.5,2-0.2,3.3l0.4,1.9
			c0.3,1.2,0.8,2.1,1.6,2.6c0.8,0.5,1.8,0.6,3,0.4c0.6-0.1,1.2-0.4,1.7-0.7s1-0.8,1.3-1.3l2.3,1.5c-0.6,0.9-1.3,1.6-2.1,2.2
			c-0.8,0.6-1.7,1-2.6,1.2C232.9,376,231.6,376,230.5,375.7z"/>
	</g>
</g>
</svg>
