<?xml version="1.0" encoding="UTF-8"?>
<svg id="Calque_1" data-name="Calque 1" xmlns="http://www.w3.org/2000/svg" viewBox="0 0 352.2 352.2">
  <defs>
    <style>
      .cls-1 {
        fill: none;
        stroke: #e30613;
        stroke-linecap: round;
        stroke-linejoin: round;
      }

      .cls-1, .cls-2 {
        stroke-width: 3px;
      }

      .cls-3 {
        fill: #e30613;
        stroke-width: 0px;
      }

      .cls-2 {
        fill: #fbc36f;
        stroke: #000;
        stroke-miterlimit: 10;
      }

      .cls-4 {
        fill: #b54617;
        font-family: Bahnschrift, Bahnschrift;
        font-size: 36px;
        font-variation-settings: 'wght' 400, 'wdth' 100;
      }
    </style>
  </defs>
  <circle class="cls-2" cx="176.1" cy="176.1" r="174.6"/>
  <polygon class="cls-1" points="175.7 176.1 184.7 167.1 175.7 176.1 184.7 185.1 175.7 176.1 166.7 185.1 175.7 176.1 166.7 167.1 175.7 176.1"/>
  <path class="cls-3" d="m171.8,155c-1.1-.6-2-1.6-2.6-2.8s-.9-2.6-.9-4.1v-6c0-1.6.3-2.9.9-4.1s1.5-2.1,2.6-2.8,2.4-1,3.9-1,2.8.3,3.9,1,2,1.6,2.6,2.8.9,2.6.9,4.1v6c0,1.6-.3,2.9-.9,4.1s-1.5,2.1-2.6,2.8-2.4,1-3.9,1-2.8-.4-3.9-1Zm6.2-2.6c.7-.4,1.2-1,1.6-1.7s.5-1.6.5-2.5v-6.2c0-1-.2-1.8-.5-2.5s-.9-1.3-1.6-1.7-1.4-.6-2.3-.6-1.7.2-2.3.6-1.2,1-1.6,1.7-.5,1.6-.5,2.5v6.2c0,1,.2,1.8.5,2.5s.9,1.3,1.6,1.7,1.4.6,2.3.6,1.6-.2,2.3-.6Z"/>
  <text class="cls-4" transform="translate(120.67 268.65)"><tspan x="0" y="0">Disque</tspan></text>
</svg>