<?xml version="1.0" encoding="utf-8"?>
<!-- Generator: Adobe Illustrator 28.0.0, SVG Export Plug-In . SVG Version: 6.00 Build 0)  -->
<svg version="1.1" id="Calque_1" xmlns="http://www.w3.org/2000/svg" xmlns:xlink="http://www.w3.org/1999/xlink" x="0px" y="0px"
	 viewBox="0 0 95.7 118.7" style="enable-background:new 0 0 95.7 118.7;" xml:space="preserve">
<style type="text/css">
	.st0{fill:none;stroke:#000000;stroke-linejoin:round;stroke-miterlimit:10;}
	.st1{fill:none;stroke:#000000;stroke-miterlimit:10;}
	.st2{fill:#E62E31;}
</style>
<g>
	<polygon class="st0" points="82.9,11.6 12.1,22.2 59.2,106 	"/>
	<line class="st1" x1="31.4" y1="56.4" x2="73.2" y2="50.2"/>
</g>
<g>
	<g>
		<path d="M3.7,15.7h1.1l4.2,6.6l-0.1,0.2v-6.7H10v8.5H8.9l-4.2-6.5l0.1-0.2v6.6H3.7V15.7z"/>
	</g>
</g>
<g>
	<g>
		<path d="M91.2,3h1.1v8.5h-1.2V5.2l0.1,0.4l-2.1,4.8h-0.8l-2.1-4.7l0.1-0.5v6.4h-1.2V3h1.1l2.5,5.6L91.2,3z"/>
	</g>
</g>
<g>
	<g>
		<path d="M23.3,55.6h1.2v8.5h-1.2V55.6z M24,63h2.3c0.6,0,1-0.1,1.3-0.3s0.4-0.6,0.4-1v0c0-0.3,0-0.5-0.1-0.7s-0.3-0.4-0.5-0.5
			s-0.5-0.2-0.8-0.2H24v-1.1h2.6c0.4,0,0.8-0.1,1-0.3s0.3-0.5,0.3-0.9c0-0.4-0.1-0.7-0.4-1s-0.6-0.3-1.1-0.3H24v-1.1h2.7
			c0.6,0,1,0.1,1.4,0.3s0.6,0.5,0.8,0.8s0.3,0.8,0.3,1.2c0,0.3-0.1,0.6-0.2,0.8s-0.3,0.5-0.5,0.7s-0.5,0.3-0.9,0.4
			c0.3,0.1,0.6,0.2,0.9,0.4s0.4,0.4,0.6,0.7s0.2,0.6,0.2,0.9v0c0,0.5-0.1,0.9-0.3,1.2s-0.5,0.6-0.9,0.8s-0.8,0.3-1.3,0.3H24V63z"/>
	</g>
</g>
<g>
	<g>
		<path d="M77.9,55.3c-0.4-0.3-0.8-0.6-1-1.1s-0.4-1-0.4-1.7v-2.3c0-0.6,0.1-1.2,0.4-1.7s0.6-0.9,1-1.1s1-0.4,1.6-0.4
			c0.5,0,0.9,0.1,1.3,0.3s0.8,0.5,1,0.9s0.5,0.8,0.6,1.3h-1.2c-0.1-0.3-0.2-0.5-0.4-0.7s-0.4-0.4-0.6-0.5s-0.5-0.2-0.7-0.2
			c-0.3,0-0.7,0.1-0.9,0.3s-0.5,0.4-0.6,0.7s-0.2,0.7-0.2,1.1v2.3c0,0.4,0.1,0.8,0.2,1.1s0.3,0.5,0.6,0.7s0.6,0.2,0.9,0.2
			c0.3,0,0.5-0.1,0.7-0.2s0.4-0.3,0.6-0.5s0.3-0.5,0.4-0.7h1.2c-0.1,0.5-0.3,0.9-0.6,1.3s-0.6,0.7-1,0.9s-0.9,0.3-1.3,0.3
			C78.9,55.7,78.4,55.5,77.9,55.3z"/>
	</g>
</g>
<g>
	<g>
		<path d="M59.8,108.1h1l3.1,8.5h-1.3l-2.4-6.9l-2.4,6.9h-1.3L59.8,108.1z M58.1,113.6h4.5v1.1h-4.5V113.6z"/>
	</g>
</g>
<g>
	<g>
		<path class="st2" d="M5.1,34.7l-0.6-1l6.3-3.6l-1.2-0.7l1.1-0.6l1.3,0.7l0.6,1L5.1,34.7z"/>
		<path class="st2" d="M6.9,35.7l4.9,0.6c0.3,0,0.6,0,0.8,0c0.3,0,0.5-0.1,0.7-0.2l0,0c0.3-0.2,0.5-0.4,0.5-0.7s0-0.6-0.2-0.9
			c-0.2-0.3-0.4-0.5-0.7-0.6c-0.3-0.1-0.6-0.1-1,0.1l0,0l-0.6-1.1l0,0c0.5-0.2,0.9-0.3,1.3-0.2c0.4,0,0.8,0.1,1.1,0.3
			c0.3,0.2,0.6,0.5,0.8,0.9c0.3,0.4,0.4,0.9,0.4,1.3c0,0.4-0.1,0.8-0.3,1.1c-0.2,0.3-0.5,0.6-0.9,0.8l0,0c-0.3,0.1-0.6,0.2-0.9,0.3
			c-0.3,0.1-0.7,0.1-1.1,0l-4.1-0.5l1.6,2.8l-1,0.6L6,36.3L6.9,35.7z"/>
		<path class="st2" d="M11.5,45.4c0-0.4,0.1-0.9,0.3-1.2c0.2-0.4,0.6-0.7,1.1-1l0.9-0.5c0.5-0.3,0.9-0.4,1.4-0.4
			c0.4,0,0.8,0.1,1.2,0.3c0.4,0.2,0.7,0.6,1,1.1c0.2,0.3,0.3,0.6,0.3,0.8s0.1,0.6,0.1,0.8c0,0.3-0.1,0.5-0.2,0.7l-1.1-0.4
			c0.1-0.2,0.1-0.5,0.1-0.7c0-0.3-0.1-0.5-0.2-0.7c-0.2-0.4-0.5-0.6-0.9-0.7c-0.3-0.1-0.7,0-1.1,0.2l-0.9,0.5
			c-0.4,0.2-0.7,0.5-0.8,0.9c-0.1,0.3,0,0.7,0.2,1.1c0.1,0.2,0.3,0.4,0.5,0.5c0.2,0.1,0.5,0.2,0.7,0.3l-0.3,1.2
			c-0.3,0-0.5-0.1-0.7-0.2c-0.2-0.1-0.5-0.3-0.7-0.5c-0.2-0.2-0.4-0.4-0.5-0.7C11.6,46.3,11.5,45.8,11.5,45.4z"/>
		<path class="st2" d="M19,46.8l0.6,1l-5.3,3l-0.6-1L19,46.8z M18.7,51.2c0.4-0.2,0.6-0.5,0.7-0.8c0.1-0.3,0.1-0.6-0.1-1
			c-0.2-0.3-0.4-0.6-0.7-0.6s-0.6,0-0.9,0.2l1-0.7c0.4,0,0.8,0.1,1.1,0.2c0.3,0.2,0.6,0.4,0.8,0.7c0.2,0.4,0.3,0.7,0.3,1.1
			c0,0.4-0.2,0.7-0.4,1c-0.2,0.3-0.6,0.6-1.1,0.9L16.1,54l-0.6-1L18.7,51.2z M20.5,54.3c0.4-0.2,0.6-0.5,0.7-0.8
			c0.1-0.3,0-0.6-0.2-1c-0.2-0.3-0.4-0.5-0.7-0.6c-0.3-0.1-0.6,0-1,0.2l0.9-0.8c0.4,0,0.8,0,1.2,0.2c0.3,0.2,0.6,0.4,0.8,0.7
			c0.2,0.4,0.3,0.8,0.3,1.1c0,0.4-0.1,0.7-0.4,1c-0.2,0.3-0.6,0.6-1,0.9l-3.2,1.8l-0.6-1L20.5,54.3z"/>
	</g>
</g>
<g>
	<g>
		<path class="st2" d="M26.9,74.5l-0.6-1l6.3-3.6l-1.2-0.7l1.1-0.6l1.3,0.7l0.6,1L26.9,74.5z"/>
		<path class="st2" d="M28.6,76.5c0.2-0.6,0.6-1,1.2-1.4l3.4-1.9c0.7-0.4,1.3-0.5,1.9-0.3s1.1,0.6,1.4,1.3c0.4,0.7,0.5,1.3,0.3,1.9
			s-0.6,1-1.2,1.4l-3.4,1.9c-0.7,0.4-1.3,0.5-1.9,0.3c-0.6-0.2-1.1-0.6-1.4-1.3C28.6,77.7,28.5,77.1,28.6,76.5z M30.7,78.5
			c0.3,0.1,0.6,0,1-0.2l3.4-1.9c0.4-0.2,0.6-0.4,0.7-0.7c0.1-0.3,0-0.6-0.2-1c-0.2-0.4-0.5-0.6-0.8-0.7s-0.6,0-1,0.2l-3.4,1.9
			c-0.4,0.2-0.6,0.4-0.7,0.7c-0.1,0.3,0,0.6,0.2,1C30.2,78.2,30.4,78.4,30.7,78.5z"/>
		<path class="st2" d="M32.1,81.2l0.6,1.1l-1.7,0.9l-1.8-0.4L32.1,81.2z"/>
		<path class="st2" d="M33.2,85.3c0-0.4,0.1-0.7,0.2-1.1c0.2-0.3,0.4-0.7,0.8-0.9l0,0l0.6,1l0,0c-0.3,0.2-0.4,0.4-0.4,0.7
			c0,0.3,0,0.5,0.2,0.8c0.2,0.3,0.4,0.5,0.8,0.6c0.3,0.1,0.7,0,1.1-0.3l0.6-0.4c0.4-0.2,0.7-0.5,0.8-0.8c0.1-0.3,0.1-0.6-0.1-1
			c-0.1-0.2-0.3-0.3-0.4-0.4c-0.2-0.1-0.4-0.2-0.7-0.2l-0.5-0.9l3.9-2.2l2.1,3.8l-1,0.6l-1.6-2.7l-1.7,0.9c0.2,0.1,0.3,0.2,0.5,0.3
			c0.1,0.1,0.3,0.3,0.4,0.4c0.2,0.4,0.4,0.8,0.4,1.2c0,0.4-0.1,0.8-0.4,1.1s-0.6,0.7-1.1,0.9L37,87.3c-0.5,0.3-0.9,0.4-1.4,0.5
			c-0.4,0-0.8-0.1-1.2-0.3c-0.4-0.2-0.7-0.5-0.9-1C33.3,86.1,33.2,85.7,33.2,85.3z"/>
		<path class="st2" d="M38,93.7c0-0.4,0.1-0.9,0.3-1.2s0.6-0.7,1.1-1l0.9-0.5c0.5-0.3,0.9-0.4,1.4-0.4c0.4,0,0.8,0.1,1.2,0.3
			c0.4,0.2,0.7,0.6,1,1.1c0.2,0.3,0.3,0.6,0.3,0.8c0.1,0.3,0.1,0.6,0.1,0.8c0,0.3-0.1,0.5-0.2,0.7L43,94c0.1-0.2,0.1-0.5,0.1-0.7
			c0-0.3-0.1-0.5-0.2-0.7c-0.2-0.4-0.5-0.6-0.9-0.7s-0.7,0-1.1,0.2L40,92.5c-0.4,0.2-0.7,0.5-0.8,0.9c-0.1,0.3,0,0.7,0.2,1.1
			c0.1,0.2,0.3,0.4,0.5,0.5s0.4,0.2,0.7,0.3l-0.3,1.2c-0.3,0-0.5-0.1-0.7-0.2c-0.2-0.1-0.5-0.3-0.7-0.5c-0.2-0.2-0.4-0.4-0.5-0.7
			C38.2,94.6,38,94.1,38,93.7z"/>
		<path class="st2" d="M45.5,95.1l0.6,1l-5.3,3l-0.6-1L45.5,95.1z M45.2,99.4c0.4-0.2,0.6-0.5,0.7-0.8c0.1-0.3,0.1-0.6-0.1-1
			c-0.2-0.3-0.4-0.6-0.7-0.6s-0.6,0-0.9,0.2l1-0.7c0.4,0,0.8,0.1,1.1,0.2c0.3,0.2,0.6,0.4,0.8,0.7c0.2,0.4,0.3,0.7,0.3,1.1
			c0,0.4-0.2,0.7-0.4,1c-0.2,0.3-0.6,0.6-1.1,0.9l-3.2,1.8l-0.6-1L45.2,99.4z M47,102.6c0.4-0.2,0.6-0.5,0.7-0.8
			c0.1-0.3,0-0.6-0.2-1c-0.2-0.3-0.4-0.5-0.7-0.6c-0.3-0.1-0.6,0-1,0.2l0.9-0.8c0.4,0,0.8,0,1.2,0.2s0.6,0.4,0.8,0.7
			c0.2,0.4,0.3,0.8,0.3,1.1c0,0.4-0.1,0.7-0.4,1s-0.6,0.6-1,0.9l-3.2,1.8l-0.6-1L47,102.6z"/>
	</g>
</g>
<g>
	<g>
		<path class="st2" d="M68.7,86.7l6.7,4l-0.3,1.2l-6.6-4L67.9,90l1.2,0.3l-0.3,1.2l-2.3-0.6l1.1-4.5L68.7,86.7z"/>
		<path class="st2" d="M77.2,82.7c-0.3,0.3-0.7,0.5-1.1,0.6s-0.9,0.1-1.5-0.1l-1-0.2c-0.5-0.1-1-0.4-1.3-0.6
			c-0.3-0.3-0.5-0.7-0.6-1.1c-0.1-0.4-0.1-0.9,0.1-1.5c0.1-0.3,0.2-0.6,0.3-0.8s0.3-0.5,0.5-0.6c0.2-0.2,0.4-0.3,0.6-0.4l0.5,1
			c-0.2,0.1-0.4,0.3-0.6,0.5c-0.2,0.2-0.3,0.4-0.3,0.7c-0.1,0.4-0.1,0.8,0.1,1.1c0.2,0.3,0.5,0.5,1,0.6l1,0.2
			c0.5,0.1,0.9,0.1,1.2-0.1c0.3-0.2,0.5-0.5,0.6-0.9c0.1-0.2,0.1-0.5,0-0.7c-0.1-0.3-0.2-0.5-0.3-0.7l1-0.6c0.2,0.2,0.3,0.4,0.4,0.7
			c0.1,0.3,0.1,0.5,0.1,0.8c0,0.3,0,0.6-0.1,0.9C77.7,81.9,77.5,82.3,77.2,82.7z"/>
		<path class="st2" d="M72.7,76.4l0.3-1.2l5.9,1.5l-0.3,1.2L72.7,76.4z M75.9,73.5c-0.4-0.1-0.8-0.1-1,0.1c-0.3,0.1-0.5,0.4-0.6,0.8
			c-0.1,0.4-0.1,0.7,0.1,1c0.1,0.3,0.4,0.4,0.8,0.5L74,75.7c-0.3-0.3-0.5-0.6-0.6-0.9c-0.1-0.3-0.1-0.7,0-1c0.1-0.4,0.3-0.7,0.5-1
			c0.3-0.2,0.6-0.4,1-0.5c0.4-0.1,0.9,0,1.4,0.1l3.6,0.9l-0.3,1.2L75.9,73.5z M76.8,70c-0.4-0.1-0.8-0.1-1,0.1
			c-0.3,0.2-0.5,0.4-0.6,0.8c-0.1,0.4-0.1,0.7,0.1,0.9c0.2,0.3,0.5,0.4,0.9,0.5L75,72.3c-0.3-0.3-0.6-0.6-0.7-1
			c-0.1-0.4-0.2-0.7-0.1-1.1c0.1-0.4,0.3-0.8,0.6-1c0.3-0.3,0.6-0.4,1-0.5c0.4-0.1,0.9,0,1.4,0.1l3.6,0.9l-0.3,1.2L76.8,70z"/>
	</g>
</g>
<g>
	<g>
		<path class="st2" d="M87.5,42.3c-0.3,0.3-0.6,0.6-1,0.7c-0.4,0.1-0.8,0.1-1.3,0L85,43c-0.4-0.1-0.8-0.3-1.1-0.6
			c-0.3-0.3-0.5-0.6-0.6-1c-0.2,0.3-0.5,0.4-0.9,0.5s-0.7,0.1-1,0l-0.2-0.1c-0.4-0.1-0.8-0.3-1.1-0.6c-0.3-0.3-0.5-0.6-0.6-1
			c-0.1-0.4-0.1-0.8,0-1.3c0.1-0.5,0.3-0.9,0.6-1.2c0.3-0.3,0.6-0.5,1-0.6c0.4-0.1,0.8-0.1,1.2,0l0.2,0.1c0.3,0.1,0.6,0.3,0.9,0.5
			c0.3,0.3,0.4,0.6,0.5,0.9c0.3-0.3,0.6-0.5,1-0.6c0.4-0.1,0.8-0.1,1.2,0l0.1,0c0.5,0.1,0.8,0.3,1.1,0.6c0.3,0.3,0.5,0.7,0.6,1.1
			c0.1,0.4,0.1,0.9-0.1,1.4C88,41.6,87.7,42,87.5,42.3z M83.2,39.2c-0.1-0.2-0.2-0.4-0.3-0.5s-0.4-0.2-0.6-0.3l-0.1,0
			c-0.2-0.1-0.4-0.1-0.7,0c-0.2,0.1-0.4,0.2-0.5,0.3c-0.1,0.2-0.2,0.3-0.3,0.6c-0.1,0.2-0.1,0.4,0,0.6c0.1,0.2,0.2,0.4,0.3,0.5
			c0.2,0.1,0.3,0.2,0.6,0.3l0.1,0c0.2,0.1,0.5,0.1,0.7,0s0.4-0.2,0.5-0.3s0.2-0.3,0.3-0.6C83.3,39.6,83.3,39.4,83.2,39.2z M87,40.1
			c-0.1-0.2-0.2-0.4-0.3-0.6c-0.2-0.2-0.4-0.3-0.6-0.3l-0.1,0c-0.3-0.1-0.5-0.1-0.7,0c-0.2,0.1-0.4,0.2-0.6,0.4
			c-0.2,0.2-0.3,0.4-0.3,0.7c-0.1,0.3-0.1,0.5,0,0.7c0.1,0.2,0.2,0.4,0.3,0.6c0.2,0.2,0.4,0.3,0.6,0.3l0.1,0c0.2,0.1,0.5,0.1,0.7,0
			c0.2-0.1,0.4-0.2,0.6-0.4s0.3-0.4,0.3-0.7S87,40.3,87,40.1z"/>
		<path class="st2" d="M89.9,32.7c-0.3,0.3-0.7,0.5-1.1,0.6c-0.4,0.1-0.9,0.1-1.5-0.1l-1-0.2c-0.5-0.1-1-0.4-1.3-0.6
			c-0.3-0.3-0.5-0.7-0.6-1.1c-0.1-0.4-0.1-0.9,0.1-1.5c0.1-0.3,0.2-0.6,0.3-0.8c0.1-0.3,0.3-0.5,0.5-0.6c0.2-0.2,0.4-0.3,0.6-0.4
			l0.5,1c-0.2,0.1-0.4,0.3-0.6,0.5c-0.2,0.2-0.3,0.4-0.3,0.7c-0.1,0.4-0.1,0.8,0.1,1.1c0.2,0.3,0.5,0.5,1,0.6l1,0.2
			c0.5,0.1,0.9,0.1,1.2-0.1c0.3-0.2,0.5-0.5,0.6-0.9c0.1-0.2,0.1-0.5,0-0.7c-0.1-0.3-0.2-0.5-0.3-0.7l1-0.6c0.2,0.2,0.3,0.4,0.4,0.7
			s0.1,0.5,0.1,0.8c0,0.3,0,0.6-0.1,0.9C90.4,31.9,90.2,32.4,89.9,32.7z"/>
		<path class="st2" d="M85.4,26.5l0.3-1.2l5.9,1.5L91.3,28L85.4,26.5z M88.7,23.5c-0.4-0.1-0.8-0.1-1,0.1c-0.3,0.1-0.5,0.4-0.6,0.8
			c-0.1,0.4-0.1,0.7,0.1,1c0.1,0.3,0.4,0.4,0.8,0.5l-1.2-0.2c-0.3-0.3-0.5-0.6-0.6-0.9c-0.1-0.3-0.1-0.7,0-1c0.1-0.4,0.3-0.7,0.5-1
			c0.3-0.2,0.6-0.4,1-0.5c0.4-0.1,0.9,0,1.4,0.1l3.6,0.9l-0.3,1.2L88.7,23.5z M89.6,20c-0.4-0.1-0.8-0.1-1,0.1
			c-0.3,0.2-0.5,0.4-0.6,0.8c-0.1,0.4-0.1,0.7,0.1,0.9c0.2,0.3,0.5,0.4,0.9,0.5l-1.2-0.1c-0.3-0.3-0.6-0.6-0.7-1
			c-0.1-0.4-0.2-0.7-0.1-1.1c0.1-0.4,0.3-0.8,0.6-1c0.3-0.3,0.6-0.4,1-0.5s0.9,0,1.4,0.1l3.6,0.9l-0.3,1.2L89.6,20z"/>
	</g>
</g>
</svg>
