<?xml version="1.0" encoding="UTF-8"?>
<svg id="Calque_1" data-name="Calque 1" xmlns="http://www.w3.org/2000/svg" xmlns:xlink="http://www.w3.org/1999/xlink" viewBox="0 0 408.17 344.37">
  <defs>
    <style>
      .cls-1, .cls-2 {
        fill: #3aaa35;
      }

      .cls-1, .cls-3, .cls-4, .cls-5, .cls-6, .cls-7, .cls-8, .cls-9, .cls-10, .cls-11, .cls-12, .cls-13 {
        stroke-miterlimit: 10;
      }

      .cls-1, .cls-3, .cls-5, .cls-7, .cls-8, .cls-9, .cls-11, .cls-12 {
        stroke-linecap: round;
      }

      .cls-1, .cls-3, .cls-7, .cls-9 {
        stroke: #1d1d1b;
      }

      .cls-1, .cls-3, .cls-7, .cls-9, .cls-10, .cls-13 {
        stroke-width: 3px;
      }

      .cls-14 {
        fill: #22371d;
      }

      .cls-14, .cls-15, .cls-16, .cls-17, .cls-18, .cls-19, .cls-20, .cls-21, .cls-22, .cls-23, .cls-24, .cls-25, .cls-26 {
        stroke-width: 0px;
      }

      .cls-15 {
        fill: #086b31;
      }

      .cls-16 {
        fill: #192a1b;
      }

      .cls-27, .cls-10 {
        fill: #3eab37;
      }

      .cls-17 {
        fill: #008d36;
      }

      .cls-18 {
        fill: #936037;
      }

      .cls-28 {
        clip-path: url(#clippath-2);
      }

      .cls-29 {
        clip-path: url(#clippath-6);
      }

      .cls-30, .cls-4 {
        fill: #008c39;
      }

      .cls-31 {
        clip-path: url(#clippath-7);
      }

      .cls-3, .cls-32 {
        fill: #b17f4a;
      }

      .cls-4, .cls-6 {
        stroke-width: 2px;
      }

      .cls-4, .cls-6, .cls-10, .cls-13 {
        stroke: #13110c;
      }

      .cls-33 {
        clip-path: url(#clippath-1);
      }

      .cls-34 {
        clip-path: url(#clippath-4);
      }

      .cls-19 {
        fill: #255024;
      }

      .cls-35, .cls-20 {
        fill: #693d16;
      }

      .cls-21 {
        fill: #009fe3;
      }

      .cls-5 {
        fill: #fff;
        stroke: #e30613;
        stroke-width: 6px;
      }

      .cls-6, .cls-7, .cls-8, .cls-11, .cls-12, .cls-13 {
        fill: none;
      }

      .cls-8 {
        stroke-dasharray: 0 0 8 8;
      }

      .cls-8, .cls-11, .cls-12 {
        stroke: #009fe3;
        stroke-width: 5px;
      }

      .cls-9 {
        fill: #643f23;
      }

      .cls-36 {
        clip-path: url(#clippath);
      }

      .cls-22 {
        fill: #1d672e;
      }

      .cls-37 {
        clip-path: url(#clippath-3);
      }

      .cls-23 {
        fill: #063;
      }

      .cls-38 {
        clip-path: url(#clippath-8);
      }

      .cls-24 {
        fill: #482916;
      }

      .cls-39 {
        clip-path: url(#clippath-5);
      }

      .cls-12 {
        stroke-dasharray: 0 0 8.14 8.14;
      }

      .cls-25 {
        fill: #13110c;
      }

      .cls-26 {
        fill: #154b24;
      }
    </style>
    <clipPath id="clippath">
      <path class="cls-10" d="m230.09,83.33s11.86,14.9,17.03-2.19c0,0,19.07,15.5,13.91-7.55,0,0,21.85.4,5.17-12.32,0,0,23.84-18.28,3.58-24.24,0,0-4.37-24.24-19.87-10.73,0,0-12.6-20.11-19.81-4.1,0,0-9.99-20.14-15.55.52,0,0-9.93-25.83-19.47,1.19,0,0-8.74-25.83-15.89-.79,0,0-11.68-27.09-12.32-.4,0,0-15.89-25.43-17.48,8.74,0,0-20.66-12.32-13.51,11.12,0,0-22.08,9.93-1.5,19.47,0,0-13.84,18.67,6.67,16.29,0,0-.79,22.65,12.71,5.17,0,0,7.55,23.44,15.89,2.38,0,0,8.74,27.42,15.1,2.78,0,0,7.42,25.03,17.02-.79l28.33-4.57Z"/>
    </clipPath>
    <clipPath id="clippath-1">
      <path class="cls-20" d="m176.87,176.48c9.52-7.45,23.28-20.49,24.69-36.32,1.41-15.83,8.47-12.11,3.17-31.66s-21.52-45.17-27.87-33.99c-6.35,11.18-16.58,6.98-23.63,1.86v-6.98s8.82,10.24,21.52,0-6-9.78-9.52-18.16l3.17-4.66s18.69,11.18,25.04,17.23c6.35,6.05,7.76,20.49,17.28,11.64,9.52-8.85,13.76-19.09,11.64-26.54l5.29-2.33s-7.76,34.92-2.12,30.27c5.64-4.66,14.46-17.69,15.87-23.28l4.23,4.66c1.94-2.78-41.18,63.95-5.64,111.75l-8.11,1.4s-9.61-14.39-17.99.47l-5.29.47c-2.69-3.42-6.72-10.64-15.87,1.4l-15.87,2.79Z"/>
    </clipPath>
    <clipPath id="clippath-2">
      <path class="cls-4" d="m175.26,177.85s3.26-1.25,1.61-6.38c0,0,4.55,1.51,5.08,3.76,0,0,3.25-2.09,2.53-5.63,0,0,2.45,3.48,3.78,5.13,0,0,3.58-3.64,2.32-6.36,0,0,5.4,2.68,4.7-1.64,0,0,4.67,3.53,4.57-2.18,0,0,3.08,2.82,5.76.34,0,0-.83,1.89,1.46,4.27,0,0,.99,4.7,2.25,1.89,0,0,2.05,3.54,2.91,0,0,0,3.91.42,2.25-4.58,0,0,6.22,2.42,4.17-3.8,0,0,5.1,5.69,6.75.6,0,0,2.62,8.01,5.76,2.22,0,0-.13,9.9,1.85,3.87,0,0,2.75,4.6,2.98-.83,0,0,4.17,3.89,4.57-2.21,0,0,1.62,4.04.83,5.13"/>
    </clipPath>
    <clipPath id="clippath-3">
      <path class="cls-3" d="m42.43,285.02c-4.26-2.75-19.26-3.75-17.76-24s18-18.88,27.25-18.38,24.75,4.53,26,27.95-14.82,18-23.79,13.28c-8.96-4.73-20.71-12.73-15.46-21.48s15.12-5.75,15.38-1.38-2.38,8.75-6.12,7.12"/>
    </clipPath>
    <clipPath id="clippath-4">
      <path class="cls-1" d="m339.6,250.8c.02-.95,1.24-1.8,1.51-2.8.25-.92.79-1.68,1.21-2.61.4-.87,1.01-1.56,1.55-2.42s-.27-2.58.35-3.37,1.83-1.08,2.51-1.8,1.11-1.76,1.85-2.4,1.51-1.42,2.3-1.97c.84-.58,1.76-1.15,2.6-1.58.92-.47,2.38.5,3.27.23,1.01-.3,1.76-1.67,2.69-1.67,1.09,0,1.05,1.49,1.59,2.24.47.65,2.42.83,2.57,1.9.11.83-.87,1.88-.91,2.91-.03.88.66,1.89.54,2.88-.11.89-1.31,1.66-1.48,2.61-.16.9-.96,1.67-1.16,2.6s-.14,1.86-.36,2.77.04,1.93-.19,2.84-.93,1.7-1.17,2.59-.18,1.92-.42,2.79c-.25.94-.99,1.72-1.21,2.58-.26.97.47,2.13.27,2.97-.23.96.05,2.08-.28,2.9-.37.92-.92,1.8-1.37,2.55-.51.85-1.59,1.27-2.17,1.94-.66.76-1.36,1.37-2.03,1.91-.82.66-1.87.66-2.58,1.05-1.49.81-.92,1.19-2.28,1.53"/>
    </clipPath>
    <clipPath id="clippath-5">
      <path class="cls-1" d="m328.92,255.66c-.45-.78-1.47-1.32-1.91-2.18s1.04-2.57.64-3.43-1.46-1.36-1.82-2.22-1.16-1.55-1.48-2.42-.52-1.82-.78-2.69c-.28-.93-.22-1.9-.41-2.78-.22-.97.39-1.93.31-2.79-.1-1.02-.66-1.78-.54-2.61.15-1.05-.2-2.15.38-2.76s1.55-1.42,2.65-1.47c.91-.05,1.75,1.65,2.72,1.78.91.12,2.4-2.1,3.33-1.81.87.28.73,3.14,1.59,3.59.81.42,2.68-.87,3.47-.29.73.54.65,2.12,1.34,2.82.64.64.99,1.48,1.59,2.27.55.72.81,1.56,1.31,2.41.46.78,2.58.75,2.99,1.65.37.83-.03,2.06.29,2.99.3.86,1.09,1.63,1.35,2.58.24.88.62,1.81.82,2.77.18.9.35,1.87.49,2.84s-1.38,2.19-1.21,3.09c.18.97,1.78,1.62,1.98,2.52.22.96-1.21,2.32-.97,3.2.26.96,2.6,1.26,2.88,2.13.31.95-.5,2.22-.19,3.07.35.95,1.55,1.48,1.9,2.31.4.94-.33,2.31.04,3.1.45.96.22,2.13.59,2.9.49,1.02,1.15,1.66,1.41,2.38.46,1.26,1.16,1.48.47,2.02"/>
    </clipPath>
    <clipPath id="clippath-6">
      <path class="cls-1" d="m357.51,282.77c.21-.71-.4-2.04.09-3.05.36-.76,2.2-.89,2.69-1.78.43-.77.64-1.71,1.16-2.55.47-.76,1.14-1.44,1.68-2.24.5-.76.95-1.57,1.5-2.35s.53-1.92,1.09-2.67.46-2.04,1.05-2.77,2.96.03,3.57-.67,1.22-1.38,1.85-2.05,1.14-1.47,1.8-2.1c.69-.67,1.2-1.43,1.89-2.02.75-.63,1.34-1.31,2.08-1.81.82-.57.9-2.38,1.68-2.77.91-.45,2.17-.32,3.01-.47,1.06-.19,1.63-.49,2.27-1.06.72-.64,1.31-1.12,1.55-2.05.22-.88-.29-1.65-.46-2.62-.16-.9,1.16-2.41.7-3.26s-1.65-1.36-2.35-2.02-1.72-.86-2.61-1.24c-.83-.36-1.71-.69-2.71-.75-.88-.06-1.89-.24-2.88-.01-.85.2-2.08-.06-3,.39-.79.38-1.47,1.31-2.31,1.89s-1.24,1.63-2.03,2.17-1.44,1.33-2.24,1.87-2.41-.08-3.2.46-.41,2.84-1.19,3.38-2.93-.75-3.7-.19-.52,2.58-1.27,3.16-2.19.39-2.92,1-1.66,1.13-2.34,1.78c-.72.68-1.58,1.28-2.21,1.98-.66.74,0,2.5-.55,3.27-.57.81-1.65,1.21-2.08,2.06s-.37,1.88-.63,2.8-.28,1.78-.36,2.75-.04,1.77.08,2.76"/>
    </clipPath>
    <clipPath id="clippath-7">
      <path class="cls-1" d="m344.3,283.87c-.26-.5.22-1.9-.45-2.97-.43-.69-1.03-1.45-1.6-2.31-.48-.72-2.43-.52-2.99-1.32-.51-.73.81-2.83.25-3.61-.53-.73-2.36-.54-2.94-1.3s-.06-2.31-.65-3.04-2.46-.39-3.06-1.1-1.57-1.08-2.19-1.76.06-2.61-.58-3.27-1.38-1.33-2.04-1.95c-.7-.65-2.29-.25-2.99-.83-.75-.62-1.53-1.02-2.26-1.51-.82-.55-1.49-1.01-2.28-1.38-.91-.43-1.36-1.97-2.21-2.11-.97-.17-1.92.56-2.78.85-1.07.37-2.12.59-2.89.44-1.02-.19-2.4-.7-2.86-1.5-.43-.75.11-2.1.2-3.12.07-.87-.66-2.31-.2-3.2.41-.78,2.34-.62,3.07-1.3.65-.6,1.15-1.33,2.05-1.76.79-.38,1.66-.45,2.65-.64.86-.17,1.7-.35,2.71-.34.87,0,1.87-.65,2.87-.49.87.14,2.09-.54,3.05-.27.9.26,1,2.88,1.87,3.23s1.62.7,2.45,1.14,1.67.68,2.46,1.18,1.65.8,2.4,1.37,1.56.99,2.27,1.61,2.51.09,3.18.75.93,1.77,1.55,2.47,1.26,1.43,1.85,2.16.91,1.69,1.46,2.45,1.57,1.23,2.08,2.01-.58,2.58-.11,3.38,1.52,1.28,1.95,2.09,1.25,1.48,1.65,2.32.69,1.78,1.03,2.62c.37.9.43,1.87.72,2.72.32.93-.08,1.98.15,2.85.25.97.93,1.71,1.06,2.57.16,1.03.93,1.89.91,2.72"/>
    </clipPath>
    <clipPath id="clippath-8">
      <path class="cls-1" d="m343.53,282.64c-.19-.38-3.24-.04-4.78-.25-.82-.11-1.81-.46-2.91-.55-.9-.07-1.95.98-2.99.91-.93-.06-1.76-2.64-2.77-2.69-.95-.05-2.21,4.7-3.2,4.64s-1.84-1.86-2.82-1.93-1.92-.63-2.89-.72-2.2,1.88-3.15,1.77-1.85-1.55-2.79-1.69c-1-.15-1.71-1.92-2.62-2.11-1.01-.2-1.49-1.89-2.37-2.15-1.03-.3-1.79-.2-2.56-.59-1.02-.51-4,1.34-4.48.66-.54-.79-.63-3.24-.26-4.31.31-.88,1.36-1.76,1.88-2.59s.56-2.27,1.23-2.99,2.15-.75,2.91-1.36,3.44,1.8,4.27,1.29,1.43-.71,2.31-1.12-.21-5.56.7-5.87,2.36.63,3.29.42,2.31,2.24,3.25,2.12,1.72-4.26,2.68-4.26,1.58,5.26,2.53,5.38,1.88-1.08,2.8-.83,1.08,1.73,1.95,2.13,2.45-1.06,3.25-.52c.85.57,2.96-.52,3.72.11s.45,2.62,1.15,3.31c.73.72,2.14.81,2.78,1.55.68.78-.59,3.06-.02,3.83.63.84,1.31,1.49,1.83,2.28.59.9,4.29-.18,4.76.61.58.99-3.21,4.38-2.8,5.1.93,1.61,3.18.67,3.56.12.5-.71,3.37.4,4.1-.42.6-.69-1.35-3.85-.61-4.59.66-.66.73-2.17,1.49-2.85.71-.64,4.03,1.67,4.81,1.02s1.42-1.26,2.21-1.87-.18-3.53.64-4.11,1.48-1.42,2.31-1.96,1.78-1,2.62-1.51,3.13,1.49,3.99,1.02,1.05-2.26,1.93-2.68,1.7-1.12,2.6-1.49,1.57-1.71,2.49-2.02,2.45,1.1,3.39.87,1.63-2.85,2.58-2.97,2.29,3.38,3.25,3.38,1.91-.6,2.85-.43,1.65.84,2.56,1.21,1.7.56,2.51,1.14,2.58.03,3.26.8c.74.83,3.25.96,3.59,1.68.48,1.02-4.36,2.6-4.56,3.43s.01.37-.8,1.06c-.65.54-.76,1.13-1.71,1.59-.79.38-1.3,1.14-2.26,1.47-.85.29-1.58.92-2.53,1.18-.89.24-1.01,3.87-1.96,4.08s-2.14-.81-3.09-.63-1.87.39-2.82.56-2-.37-2.94-.21-1.68,1.54-2.61,1.69-2.57-3.68-3.49-3.52-1.66,1.79-2.57,1.96c-.97.18-1.73,1.3-2.61,1.5-.99.22-1.97.21-2.82.45-1.02.29-2.18.02-2.95.35-1.08.46-3.32.26-3.78.84"/>
    </clipPath>
  </defs>
  <path class="cls-10" d="m233.15,162.31c.6,2.58,4.5.17,4.5.17-.83,3.24,1.56,1.29,1.56,1.29-1.52,4.07.86,2.25.86,2.25,0,0-.63,3.08-3.81,1.13"/>
  <g>
    <path class="cls-27" d="m230.09,83.33s11.86,14.9,17.03-2.19c0,0,19.07,15.5,13.91-7.55,0,0,21.85.4,5.17-12.32,0,0,23.84-18.28,3.58-24.24,0,0-4.37-24.24-19.87-10.73,0,0-12.6-20.11-19.81-4.1,0,0-9.99-20.14-15.55.52,0,0-9.93-25.83-19.47,1.19,0,0-8.74-25.83-15.89-.79,0,0-11.68-27.09-12.32-.4,0,0-15.89-25.43-17.48,8.74,0,0-20.66-12.32-13.51,11.12,0,0-22.08,9.93-1.5,19.47,0,0-13.84,18.67,6.67,16.29,0,0-.79,22.65,12.71,5.17,0,0,7.55,23.44,15.89,2.38,0,0,8.74,27.42,15.1,2.78,0,0,7.42,25.03,17.02-.79l28.33-4.57Z"/>
    <g class="cls-36">
      <path class="cls-25" d="m134.48,15.77c-5.12,0-5.12,7.95,0,7.95s5.12-7.95,0-7.95Z"/>
      <path class="cls-22" d="m236.47,63.74c-7.99-7.65-14.16-19.34-6.4-29.34,3.59-4.63,10.61-9,10.61-15.57,0-4.44-4.34-6.62-8.11-5.97-1.58.27-2.77,1.89-3.69,3.23-.24-.65-.51-1.29-.79-1.94-1.53-3.59-6.44-4.57-9.59-2.62-2.45,1.52-3.76,3.46-4.75,5.6-.48-1.27-.97-2.53-1.54-3.78-.82-1.81-2.71-2.26-4.37-1.79-.13-.28-.28-.55-.39-.84-.95-2.38-3.41-3.73-5.84-2.37-2.68,1.5-4.87,3.01-6.85,5.37-.68.81-1.15,1.73-1.55,2.69-.5-1.57-1.02-3.13-1.66-4.65-1.13-2.66-5.69-2.55-6.86,0-.04.08-.08.16-.11.24-.28-.31-.59-.62-.95-.92-3.83-3.23-9.74-4.23-14.58-4.27-3.61-.03-5.07,4.28-2.81,6.78,6.04,6.68,13.26,14.96,7.76,24.32-3.43,5.84-9.6,9.9-9.71,17.37-.1,7.2,3.45,13.67,3.37,20.86-.11,8.99-4.79,17.79-13.77,20.21-4.94,1.33-2.84,9,2.11,7.66,8.74-2.35,13.94-8.04,17.3-16.25,3.83-9.36,1.83-18.28-.62-27.6-1.91-7.26,3.24-11.28,7.02-16.61,2.49-3.52,3.7-6.76,4.24-11,.32-2.51.06-4.92-.58-7.22,1.47.27,3.07-.25,4.03-1.6.53,1.61,1.11,3.2,1.86,4.75,1.11,2.29,4.57,2.57,6.24.8,3.4-3.59,3.94-7.97,6.81-11.36.99,1.72,2.04,3.42,3.04,5.19.75,1.32,1.86,1.9,3,1.95.55,1.48,1.11,2.96,1.77,4.4,1.29,2.84,5.43,2.33,6.86,0,1.02-1.67,1.7-3.4,2.34-5.25.44-1.29,1.57-7.1,2.22-5.13.85,2.56,1.53,4.58,3.83,6.16.51.35,1.12.54,1.77.62-.43.42-.85.83-1.23,1.23-7.6,8.06-9.85,19.08-4.66,29.18-1.54-.62-3.38-.32-4.49,1.15-1.86-2.63-6.94-1-7.19,2.63-.05.77-.05,1.54-.08,2.31-.06-.05-.13-.09-.19-.14-.27-1.47-.56-2.95-.87-4.42-.99-4.76-7.31-3.04-7.8,1.06-.05.38-.08.76-.11,1.14-1.84.07-3.59,1.31-3.66,3.82-.14,4.84-.66,9.66-.79,14.5-.06,2.19,1.36,3.44,3.02,3.75.91,6.14,1.96,12.25,3.09,18.36.53,2.88,3.53,3.42,5.65,2.32,2.08,1.76,5.53,1.59,6.38-1.72.04-.17.08-.35.12-.52,2.34.95,5.58-.21,5.59-3.51,0-4.98,0-9.96-.23-14.91,1.11,1.63,3.56,1.84,5.34.77.11,1.95.42,3.87.98,5.66.95,3.02,3.93,3.46,5.93,2.1.95,2.15,3.92,2.93,5.85,1.83.23,1.01.51,2,.94,2.97,1.05,2.37,4.59,2.48,6.24.8,11.17-11.38.51-23.89-8.5-32.52Z"/>
      <path class="cls-22" d="m227.52,22.7c-.15-.87-.34-1.74-.6-2.62-.77-2.59-3.52-3.51-5.84-2.37-3.21,1.58-5.3,3.46-6.22,6.13-.49-.14-.99-.19-1.49-.16-.3-1.8-.66-3.59-1.15-5.39-.95-3.49-5.74-3.76-7.32-.84-.04-.69-.08-1.38-.09-2.08-.12-5.11-8.04-5.13-7.95,0,.05,3.01.27,6.04.54,9.08-1.29-.54-2.96-.27-4.19.61-.33-.53-.67-1.05-1.06-1.56-1.46-1.92-3.78-2.34-5.48-1.29-1.94-.44-4.35.45-5.16,2.64-2.02,5.51-2.55,10.92-1.93,16.75,0,.04.02.07.02.11-.18.11-.36.22-.52.35-1.49.03-2.89.89-3.33,2.86-.19.87-.39,1.73-.59,2.58-.11.28-.22.47-.35.46-2.65-.15-4.43,2.64-3.83,5.03.92,3.67.62,7.09.04,10.52-.23.49-.37,1.07-.38,1.73,0,.13,0,.26-.01.39-.4,2.05-.83,4.13-1.11,6.28-.77,5.96-.64,11.64.13,17.54,0,.01,0,.02,0,.03,0,0,0,0,0,0,.05.35.09.7.14,1.06.26,1.8,1.53,2.68,2.96,2.83.55,2.34,1.26,4.65,2.2,6.91,1.57,3.76,6.13,3.6,7.47.25.52.02,1.03-.04,1.51-.21.18.58.36,1.17.55,1.74,1.19,3.57,6.69,4.01,7.66,0,.22-.92.44-1.83.66-2.75.32.99.66,1.98,1.02,2.95,1.25,3.42,6.75,4.15,7.66,0,2.83-12.87.92-26,2.33-39,.06-.59,0-1.1-.14-1.55h0c.4.08.82.09,1.22.05-.12,2.56-.17,5.11-.09,7.65.14,4.68,6.25,5.16,7.8,1.06,1.11-2.91,2-5.87,2.74-8.86,2.12.95,5.12.18,5.6-2.46,1.19-6.54,1.51-13.08,1.63-19.71.02-1.32-.14-2.94-.28-4.62,1.8.84,4.09.57,5-1.54,1.03-2.37,1.95-4.74,1.93-7.37-.01-1.52-.73-2.58-1.73-3.2Z"/>
      <path class="cls-19" d="m222.49,62.26c.09-4.71-3.58-9.85-5.67-13.81-4.19-7.97-2.49-14.58.9-22.32,6.93-15.83-11.49-27.91-25.89-25.91-3.31.46-3.35,4.63-1.75,6.64,7.09,8.96,6.23,16.91,1.89,27.19-2.99,7.07-5.16,13.62-3.7,21.31,1.25,6.61,6.76,11.93,10,17.58,5.59,9.74-3.23,20.34-5.63,29.78-1.26,4.97,6.4,7.08,7.66,2.11,1.15-4.54,3.18-8.78,4.87-13.09.09.39.17.79.25,1.19,0,1.91.23,3.88.73,5.94,1.05,4.39,7.88,3.41,7.8-1.06-.03-1.94-.27-3.91-.6-5.89.38-10.2,8.95-19.15,9.14-29.67Z"/>
      <path class="cls-14" d="m281.17,50.58c1.66-6.4-.19-12.85-5.65-15.82-.09-5.52-.86-10.62-5.53-14.44-1.22-1-2.85-1.19-4.21-.75-.1-.05-.19-.1-.29-.15-4.31-1.93-9.72-.86-13.85,1.7-4.95-6.19-13.01-8.35-18.86-3.66-2.72-3.76-6.37-6.24-11.71-6.26-2.72,0-4.67,1.33-6.13,3.24-1.69-2.77-4.07-4.82-7.78-4.69-6.16.22-8.62,3.09-10.64,6.89-1.47-2.69-3.62-4.8-7.35-5.69-3.88-.92-6.59.7-8.54,3.26-1.74-3.02-4.23-5.21-9.04-5.78-3.74-.45-5.84,1.8-7.04,4.84-2.73-2.93-6.14-4.74-10.28-2.9-5.84,2.58-8.33,9.01-8.79,15.38-4.88-1.85-10.34-2.01-13.84,2.52-2.95,3.82-3.87,9.4-2.21,13.96-4.13,2.01-7.71,5.21-7.47,10.3.26,5.49,3.02,8.26,6.97,10.58-4.49,8.59-2.04,18.55,7.68,18.4.02,4.85,1.17,9.81,6.34,11.7,3.21,1.18,6.25.84,8.86-.49,1.38,3.54,4.03,6.37,8.29,6.3,3.38-.05,5.96-1.3,7.99-3.23,1.19,3.33,3.29,6.08,7.45,7.46,4.75,1.58,7.79-1.45,9.84-5.48,1.98,3.14,4.88,5.25,9.67,4.43,5.14-.88,9.24-4.03,13.6-6.69,5.87-3.58,15.8-4.76,21.96-1.6,2.19,1.13,4.25.11,5.3-1.5,4.73.12,8.55-1.32,11.36-4.88,3.61,2.7,8.08,4.06,12.58,1.81s7.11-6.34,7.18-10.78c4.36-.47,8.65-1.98,9.94-6.69,1.11-4.02-.62-7.26-3.35-9.66,3.68-2.77,6.11-6.11,7.54-11.62Zm-9.14,2.21c-1.43,3.19-5.17,4.5-8.04,6.04-3.26,1.75-2.08,6.15.95,7.26,2.92.45,3.18,2.01.77,4.69-1.16.03-2.32.04-3.49.02-3.14-.02-4.78,3.35-3.43,5.98.95,4.18-1.19,5.8-6.42,4.88-1.22-.98-2.3-2.09-3.23-3.34-2.08-2.49-5.71-.79-6.64,1.75-1.86,5.07-5.17,4.98-9.81,3.98-1.49-.32-2.72.14-3.58.97-6.01-1.4-12.34-.55-18.4,1.11-4.2,1.15-7.68,3.51-11.32,5.81-7.1,4.49-8.55-.99-10.42-6.7-1.21-3.7-6.53-3.88-7.66,0-.82,2.8-1.41,5.69-2.58,8.38-2.35,5.38-4.3-5.85-4.2-5.01-.18-1.57-.3-3.13-.51-4.7-.57-4.23-6.43-5.67-7.8-1.06-.6,2.02-1.34,3.89-2.34,5.75l-5.38-1.14c-.06-1.13.02-2.25.22-3.36.51-4-5.66-5.32-7.4-2.01-1.32,3.97-3.63,3.73-6.94-.73.16-1.54.31-3.08.44-4.62.24-2.56-2.72-4.55-5.03-3.83-7.57,2.34-5.46-4.88-2.29-8.46,1.59-1.8,1.61-5.04-.8-6.24-1.58-.78-3.15-1.55-4.7-2.39-7.69-4.13,3.31-7.48,4.55-7.83,2.7-.77,4.09-4.64,1.75-6.64-2.44-2.1-1.98-5.27-.73-7.86,1.73-3.6,8.56,1.33,10.22,2.57,3.08,2.31,6.42-1.48,5.84-4.49-.77-3.97-.27-9.73,2.36-13.02,2.56-3.21,6.75,6.15,7.47,7.54,1.9,3.67,7.28,1.75,7.4-2.01.07-2.12.09-4.22.47-6.31,2.36.05,3.65,1.07,3.88,3.07.51,1.51.95,3.01,1.55,4.5,1.38,3.41,6.56,4.13,7.66,0,.34-1.28,2.06-10.09,5.37-4.96,1.25,1.95,1.58,4.94,2.27,7.14,1.04,3.34,5.39,3.88,7.26.95,1.39-2.18,2.27-4.52,3.17-6.94,1.28-3.45,5.51-4.39,6.94-.6.57,1.5.98,3.08,1.5,4.61,1.29,3.77,6.38,3.79,7.66,0,.65-1.92,1.21-3.83,2.13-5.66,2.37-4.71,7.62,5.58,8.09,6.61,1.22,2.7,5.58,2.49,6.86,0,2.94-5.7,8.92-3.99,11.21,1.63,1.02,2.49,4.49,4.28,6.64,1.75,1.97-2.3,7.62-5.62,10.39-1.8,1.9,2.62,2.31,6.73,3.23,9.78.23.76.65,1.36,1.18,1.8.52.75,1.29,1.33,2.19,1.57,5.4,1.43,3.01,8.24,1.53,11.53Z"/>
    </g>
    <path class="cls-13" d="m230.09,83.33s11.86,14.9,17.03-2.19c0,0,19.07,15.5,13.91-7.55,0,0,21.85.4,5.17-12.32,0,0,23.84-18.28,3.58-24.24,0,0-4.37-24.24-19.87-10.73,0,0-12.6-20.11-19.81-4.1,0,0-9.99-20.14-15.55.52,0,0-9.93-25.83-19.47,1.19,0,0-8.74-25.83-15.89-.79,0,0-11.68-27.09-12.32-.4,0,0-15.89-25.43-17.48,8.74,0,0-20.66-12.32-13.51,11.12,0,0-22.08,9.93-1.5,19.47,0,0-13.84,18.67,6.67,16.29,0,0-.79,22.65,12.71,5.17,0,0,7.55,23.44,15.89,2.38,0,0,8.74,27.42,15.1,2.78,0,0,7.42,25.03,17.02-.79l28.33-4.57Z"/>
  </g>
  <g>
    <path class="cls-35" d="m176.87,176.48c9.52-7.45,23.28-20.49,24.69-36.32,1.41-15.83,8.47-12.11,3.17-31.66s-21.52-45.17-27.87-33.99c-6.35,11.18-16.58,6.98-23.63,1.86v-6.98s8.82,10.24,21.52,0-6-9.78-9.52-18.16l3.17-4.66s18.69,11.18,25.04,17.23c6.35,6.05,7.76,20.49,17.28,11.64,9.52-8.85,13.76-19.09,11.64-26.54l5.29-2.33s-7.76,34.92-2.12,30.27c5.64-4.66,14.46-17.69,15.87-23.28l4.23,4.66c1.94-2.78-41.18,63.95-5.64,111.75l-8.11,1.4s-9.61-14.39-17.99.47l-5.29.47c-2.69-3.42-6.72-10.64-15.87,1.4l-15.87,2.79Z"/>
    <g class="cls-33">
      <path class="cls-20" d="m239.57,118.08c-5.12,0-5.12,7.95,0,7.95s5.12-7.95,0-7.95Z"/>
      <path class="cls-24" d="m249.96,61.08c2.61-4.42-4.26-8.42-6.86-4.01-11.5,19.45-23.24,43.4-22.89,66.51.23,15.47,5.35,41.08,19.75,49.77,4.4,2.66,8.39-4.22,4.01-6.86-6.53-3.94-9.08-12.32-11.26-19.17-2.72-8.56-4.46-17.36-4.59-26.36-.15-10.23,4.04-21.2,7.51-30.68,3.73-10.2,8.82-19.87,14.34-29.2Z"/>
      <path class="cls-24" d="m233,51.2c.07-1.21.08-2.42.02-3.64-.25-5.1-8.2-5.12-7.95,0,.47,9.59-3.48,18.67-3.97,28.21-.18,3.4,4.51,5.36,6.78,2.81,5.89-6.59,8.97-14.92,9.71-23.67.25-2.96-2.31-4.18-4.59-3.71Z"/>
      <path class="cls-24" d="m209.92,58.82c-.36,2.46-.7,4.91-1.19,7.35-.39,1.98-2.85,12.13-7.52,5.52-2.71-3.84-3.75-8.57-6.53-12.46-5.94-8.32-15.3-13.89-24.96-16.7-4.93-1.43-7.02,6.23-2.11,7.66,9.56,2.78,17.65,8.48,22.86,17.05,3.08,5.07,3.75,10.17,9.09,13.63,12.41,8.04,16.98-12.67,18.03-19.94.73-5.01-6.93-7.17-7.66-2.11Z"/>
      <path class="cls-24" d="m200.69,101.73c-2.57-9.95-4.3-21.14-11.75-28.79-3.38-3.47-7.82-3.92-12.29-2.81-2.4.6-4.81,2.13-6.96,3.27-5.62,2.97-11.01,2.74-16.72.13-4.63-2.11-8.67,4.74-4.01,6.86,4.57,2.09,8.74,3.36,13.81,3.21,6.02-.18,10.65-3.64,16-5.81,9.08-3.69,12.92,20.86,14.26,26.05,1.28,4.96,8.95,2.85,7.66-2.11Z"/>
      <path class="cls-24" d="m186.73,89.47c-5.1-.51-5.05,7.44,0,7.95,37.38,3.76,4.91,67.3-14.92,76.23-4.67,2.1-.62,8.95,4.01,6.86,8.61-3.88,14.33-11.92,19.33-19.61,6.54-10.05,12.03-20.68,15.04-32.33,4.8-18.56-2.82-37.02-23.47-39.1Z"/>
      <path class="cls-24" d="m200.78,163c-7.58,1.47-9.3,11.07-13,16.49-2.9,4.24,3.99,8.21,6.86,4.01,2.61-3.82,3.66-8.69,6.87-12.1,0-.01.02-.02.03-.03,0,.09.02.17.03.28.18,2.35-.16,4.74-.42,7.07-.24,2.16,1.99,3.97,3.97,3.97,2.35,0,3.73-1.82,3.97-3.97.68-6.01,1.08-17.54-8.31-15.72Z"/>
      <path class="cls-24" d="m234.31,176.47c-1.47-2.88-2.54-6.25-3.93-9.3-1.26-2.78-3.2-6.75-6.58-7.28-7.77-1.23-10.2,9.87-11.85,15.35-1.48,4.92,6.19,7.01,7.66,2.11.61-2.03,1.2-4.06,1.94-6.06.29-.78.65-1.53,1.04-2.26.77,1.4,1.39,3.14,1.93,4.44.96,2.33,1.78,4.76,2.93,7.01,2.33,4.57,9.18.54,6.86-4.01Z"/>
    </g>
  </g>
  <path class="cls-13" d="m227.67,46.57s-7.76,34.92-2.12,30.27c5.64-4.66,14.46-17.69,15.87-23.28"/>
  <path class="cls-13" d="m168.41,46.57s18.69,11.18,25.04,17.23c6.35,6.05,7.76,20.49,17.28,11.64,9.52-8.85,13.76-19.09,11.64-26.54"/>
  <path class="cls-13" d="m153.24,69.38s8.82,10.24,21.52,0-6-9.78-9.52-18.16"/>
  <path class="cls-13" d="m176.87,176.48c9.52-7.45,23.28-20.49,24.69-36.32,1.41-15.83,8.47-12.11,3.17-31.66s-21.52-45.17-27.87-33.99c-6.35,11.18-16.58,6.98-23.63,1.86"/>
  <path class="cls-13" d="m208.62,172.29s-5.7-13.14-15.87,1.4"/>
  <path class="cls-13" d="m231.9,171.36s-9.71-14.79-17.99.47"/>
  <path class="cls-13" d="m245.65,58.21c1.94-2.78-41.18,63.95-5.64,111.75"/>
  <g>
    <path class="cls-30" d="m175.26,177.85s3.26-1.25,1.61-6.38c0,0,4.55,1.51,5.08,3.76,0,0,3.25-2.09,2.53-5.63,0,0,2.45,3.48,3.78,5.13,0,0,3.58-3.64,2.32-6.36,0,0,5.4,2.68,4.7-1.64,0,0,4.67,3.53,4.57-2.18,0,0,3.08,2.82,5.76.34,0,0-.83,1.89,1.46,4.27,0,0,.99,4.7,2.25,1.89,0,0,2.05,3.54,2.91,0,0,0,3.91.42,2.25-4.58,0,0,6.22,2.42,4.17-3.8,0,0,5.1,5.69,6.75.6,0,0,2.62,8.01,5.76,2.22,0,0-.13,9.9,1.85,3.87,0,0,2.75,4.6,2.98-.83,0,0,4.17,3.89,4.57-2.21,0,0,1.62,4.04.83,5.13"/>
    <g class="cls-28">
      <path class="cls-25" d="m178.52,159.86c-5.12,0-5.12,7.95,0,7.95s5.12-7.95,0-7.95Z"/>
      <path class="cls-15" d="m215.39,174.83c-1.04-4.8-4.4-9.5-8.74-11.87-4.63-2.53-11.95-2.59-17.08-2.84-5.12-.25-5.1,7.7,0,7.95,7.13.35,16.31.31,18.15,8.87,1.08,5.01,8.74,2.88,7.66-2.11Z"/>
      <path class="cls-15" d="m219.63,156.76c-1.47-4.9-9.14-2.81-7.66,2.11.52,1.72,1.3,2.82.29,4.62-.96,1.71-1.99,3.28-2.8,5.08-1.43,3.17-1.88,6.45-1.61,9.9.4,5.07,8.35,5.11,7.95,0-.34-4.31,1.06-7.38,3.32-10.97,2.35-3.74,1.71-6.76.51-10.75Z"/>
      <path class="cls-26" d="m245.45,170.51c-1.51-3.13-4.75-3.85-7.93-3.5-1.7.19-1.48.44-2.38-.77-1.13-1.53-2.62-2.74-3.66-4.34-2.78-4.28-9.66-.3-6.86,4.01.95,1.46,2.07,2.77,3.27,4.02,1.24,1.29,2.1,2.86,3.58,3.91,1.44,1.02,3.08,1.34,4.82,1.25.62-.03,1.24-.13,1.86-.2.28-.03.48-.04.64-.04,2.39,4.05,8.82.14,6.66-4.34Z"/>
      <path class="cls-26" d="m179.47,174.05c.04-2.43-1.32-4.57-3.39-5.77-1.88-1.08-4.34-.45-5.44,1.43-.96,1.64-.57,3.76.81,4.99-.22,1.15-.48,2.27-.56,3.44-.13,2.16,1.91,3.97,3.97,3.97,2.27,0,3.84-1.81,3.97-3.97,0-.03,0-.04,0-.07.07-.4.17-.79.25-1.19.2-.93.35-1.88.37-2.83Z"/>
      <path class="cls-26" d="m206.25,178.12c-4.24-7.03-13.22-5.93-19.41-2.29-4.41,2.6-.41,9.47,4.01,6.86,2.13-1.25,6.83-3.39,8.54-.56,2.64,4.38,9.51.39,6.86-4.01Z"/>
      <path class="cls-26" d="m228.9,176.29c-.79-2.87-3.2-5.37-6.34-5.32-3.54.06-5.74,3.32-5.57,6.64.11,2.16,1.72,3.97,3.97,3.97.81,0,1.6-.28,2.27-.74.87.46,1.89.61,2.89.34,2.09-.57,3.35-2.8,2.78-4.89Z"/>
      <path class="cls-16" d="m209.25,162.05c-.13.51-.2,1.03-.25,1.55-.26-.39-.51-.77-.75-1.11-1.25-1.77-2.87-2.77-4.98-3.28-4.98-1.22-7.09,6.44-2.11,7.66.44.11.83.24.34-.14.1.08.16.12.2.14,0,.04.04.14.22.4.72,1.1,1.55,2.12,2.42,3.1,1.87,2.09,4.69,3.86,7.59,3.19,2.4-.55,3.82-2.61,4.43-4.87.26-.97.33-2,.42-3,.04-.37.06-.75.08-1.13.01-.15.02-.26.02-.34,0-.02.01-.04.02-.08,1.24-4.97-6.42-7.08-7.66-2.11Z"/>
      <path class="cls-16" d="m244.63,168.44c.08.09.14.15.19.21.09.17.1.17.08.09.26.29.14.16-.02-.05-.07-.2-.25-.65-.29-.83-.01-.06-.02-.13-.04-.2,0-.02,0-.03,0-.05,0-.14,0-.27,0-.41.45-2.06-.72-4.18-2.8-4.75-2.06-.57-4.35.68-4.89,2.78-.75,2.97.09,6.56,2.15,8.83,1.45,1.61,4.14,1.47,5.62,0,1.59-1.59,1.45-4.02,0-5.62Z"/>
      <path class="cls-16" d="m174.61,170.79c-5.12,0-5.12,7.95,0,7.95s5.12-7.95,0-7.95Z"/>
    </g>
    <path class="cls-6" d="m175.26,177.85s3.26-1.25,1.61-6.38c0,0,4.55,1.51,5.08,3.76,0,0,3.25-2.09,2.53-5.63,0,0,2.45,3.48,3.78,5.13,0,0,3.58-3.64,2.32-6.36,0,0,5.4,2.68,4.7-1.64,0,0,4.67,3.53,4.57-2.18,0,0,3.08,2.82,5.76.34,0,0-.83,1.89,1.46,4.27,0,0,.99,4.7,2.25,1.89,0,0,2.05,3.54,2.91,0,0,0,3.91.42,2.25-4.58,0,0,6.22,2.42,4.17-3.8,0,0,5.1,5.69,6.75.6,0,0,2.62,8.01,5.76,2.22,0,0-.13,9.9,1.85,3.87,0,0,2.75,4.6,2.98-.83,0,0,4.17,3.89,4.57-2.21,0,0,1.62,4.04.83,5.13"/>
  </g>
  <g>
    <path class="cls-32" d="m42.43,285.02c-4.26-2.75-19.26-3.75-17.76-24s18-18.88,27.25-18.38,24.75,4.53,26,27.95-14.82,18-23.79,13.28c-8.96-4.73-20.71-12.73-15.46-21.48s15.12-5.75,15.38-1.38-2.38,8.75-6.12,7.12"/>
    <g class="cls-37">
      <path class="cls-18" d="m21.79,265.43c3.22,0,3.22-5,0-5s-3.22,5,0,5h0Z"/>
      <path class="cls-18" d="m38.23,279.5c-4.63-3.61-8.47-8.46-9.97-14.07-.64-2.4-.8-5.02-.27-7.32.61-2.64,1.96-4.89,3.99-6.83,8.94-8.56,24.36-7.11,32.54,1.62,5.93,6.33,6.61,15.63,5.77,23.87-.21,2.11,2.91,3.36,4.27,1.77,7.47-8.78,4.17-21.45-1.94-30.03-.78-1.1-2.18-1.62-3.42-.9-1.09.63-1.68,2.32-.9,3.42,4.62,6.47,8.63,17.02,2.72,23.97l4.27,1.77c.89-8.76-.07-18.31-5.61-25.48-4.32-5.58-10.9-9.29-17.87-10.33-7.38-1.11-15.18.4-21.2,4.97-5.57,4.22-8.67,10.62-7.78,17.64.99,7.76,5.77,14.73,11.86,19.47,1.06.83,2.5,1.04,3.54,0,.86-.86,1.07-2.7,0-3.54h0Z"/>
      <path class="cls-18" d="m48.79,269.51c3.86-1.18,6.59-4.43,5.9-8.59-.61-3.67-3.84-6.29-7.46-6.61-4.13-.36-7.6,2.29-9.01,6.04-1.26,3.34-.98,7.32,0,10.7.63,2.17,1.61,4.05,3.15,5.72,1.93,2.09,4.36,3.75,6.83,5.15,2.8,1.59,5.32-2.73,2.52-4.32-1.6-.91-3.16-1.9-4.54-3.13-.66-.58-1.32-1.21-1.86-1.92-.2-.26-.36-.53-.51-.82-.07-.12-.43-.93-.22-.43-1.08-2.61-1.36-4.67-1.12-7.4,0-.08.07-.49,0-.06.02-.16.05-.32.08-.48.06-.31.13-.62.22-.92s.18-.59.3-.88c-.18.44.24-.41.3-.52.07-.12.47-.65.19-.31.19-.23.4-.44.61-.64.34-.32.11-.09.02-.03.12-.09.25-.17.38-.25s.27-.15.41-.22c.63-.31-.39.1.3-.11.76-.23.7-.22,1.58-.2.43,0-.2-.1.36.05.14.04,1.02.33.54.12.26.11.5.26.74.4.39.23.08.04,0-.03.1.08.21.17.31.27.11.11.6.68.28.24.2.26.36.55.52.84.03.05.15.35.03.06-.13-.34.05.18.07.25.03.12.06.26.09.37.16.5.04-.43.01.1,0,.16-.04.91,0,.62s-.13.45-.19.6c.19-.55-.18.28-.3.46.29-.4-.18.15-.31.28-.34.32-.11.1-.03.03-.2.14-.41.27-.62.38-.46.25-.38.19-.91.35-3.07.94-1.76,5.77,1.33,4.82h0Z"/>
    </g>
    <path class="cls-7" d="m42.43,285.02c-4.26-2.75-19.26-3.75-17.76-24s18-18.88,27.25-18.38,24.75,4.53,26,27.95-14.82,18-23.79,13.28c-8.96-4.73-20.71-12.73-15.46-21.48s15.12-5.75,15.38-1.38-2.38,8.75-6.12,7.12"/>
  </g>
  <g>
    <line class="cls-5" x1="192.75" y1="156.57" x2="226.97" y2="190.8"/>
    <line class="cls-5" x1="192.75" y1="190.8" x2="226.97" y2="156.57"/>
  </g>
  <path class="cls-9" d="m34.13,287.77c5.3.24,5.67-1.83,21,3s37.17-4.67,35.33-13.33-12.17-20.2-14-3c-.83,7.83-113.5,10.17-42.33,13.33Z"/>
  <path class="cls-7" d="m85.29,271.52c0-1.55,4.27-13.25,9.67-13.25"/>
  <g>
    <path class="cls-23" d="m336.73,246.43c.2-.61.3-1.61.64-2.77.23-.81.76-1.65,1.05-2.63.25-.86.02-1.92.31-2.85.28-.88.26-1.89.56-2.79s.67-1.78,1-2.66,1-1.67,1.36-2.51c.39-.92.81-1.77,1.22-2.54.5-.94,1.23-1.54,1.75-2.18.76-.94,1.25-1.63,2.02-1.59.71.03,1.89.2,2.57,1.36.5.86.03,2.29.53,3.14s.92,1.76,1.41,2.62,1.09,1.67,1.54,2.53c.47.91.82,1.81,1.22,2.68.43.95,1.76,1.48,2.05,2.38.33,1,.65,2.03.77,2.95.14,1.05.18,2.21-.02,3.13-.21.97-.9,1.93-1.57,2.73"/>
    <path class="cls-7" d="m336.73,246.43c.2-.61.3-1.61.64-2.77.23-.81.76-1.65,1.05-2.63.25-.86.02-1.92.31-2.85.28-.88.26-1.89.56-2.79s.67-1.78,1-2.66,1-1.67,1.36-2.51c.39-.92.81-1.77,1.22-2.54.5-.94,1.23-1.54,1.75-2.18.76-.94,1.25-1.63,2.02-1.59.71.03,1.89.2,2.57,1.36.5.86.03,2.29.53,3.14s.92,1.76,1.41,2.62,1.09,1.67,1.54,2.53c.47.91.82,1.81,1.22,2.68.43.95,1.76,1.48,2.05,2.38.33,1,.65,2.03.77,2.95.14,1.05.18,2.21-.02,3.13-.21.97-.9,1.93-1.57,2.73"/>
  </g>
  <g>
    <path class="cls-17" d="m336.65,243.79c-.25-.91,0-1.97-.25-2.88s-.91-1.73-1.15-2.63.05-2-.18-2.88c-.25-.96-.15-1.95-.34-2.82-.23-1-.55-1.88-.69-2.72-.19-1.13-.55-2.01-.53-2.74.04-1.39.13-1.61,1.25-.95.54.32,1.27.74,2.14,1.68.68.74,1.14,1.67,1.81,2.46s1.7,1.23,2.32,2.04,1.5,1.44,2.09,2.26,1.15,1.73,1.7,2.56c.58.88.85,1.93,1.34,2.77.55.93,1.02,1.83,1.45,2.69.5,1.01.63,2.04.94,2.9.43,1.19.9,2.07.86,2.84"/>
    <path class="cls-7" d="m336.65,243.79c-.25-.91,0-1.97-.25-2.88s-.91-1.73-1.15-2.63.05-2-.18-2.88c-.25-.96-.15-1.95-.34-2.82-.23-1-.55-1.88-.69-2.72-.19-1.13-.55-2.01-.53-2.74.04-1.39.13-1.61,1.25-.95.54.32,1.27.74,2.14,1.68.68.74,1.14,1.67,1.81,2.46s1.7,1.23,2.32,2.04,1.5,1.44,2.09,2.26,1.15,1.73,1.7,2.56c.58.88.85,1.93,1.34,2.77.55.93,1.02,1.83,1.45,2.69.5,1.01.63,2.04.94,2.9.43,1.19.9,2.07.86,2.84"/>
  </g>
  <g>
    <path class="cls-2" d="m339.6,250.8c.02-.95,1.24-1.8,1.51-2.8.25-.92.79-1.68,1.21-2.61.4-.87,1.01-1.56,1.55-2.42s-.27-2.58.35-3.37,1.83-1.08,2.51-1.8,1.11-1.76,1.85-2.4,1.51-1.42,2.3-1.97c.84-.58,1.76-1.15,2.6-1.58.92-.47,2.38.5,3.27.23,1.01-.3,1.76-1.67,2.69-1.67,1.09,0,1.05,1.49,1.59,2.24.47.65,2.42.83,2.57,1.9.11.83-.87,1.88-.91,2.91-.03.88.66,1.89.54,2.88-.11.89-1.31,1.66-1.48,2.61-.16.9-.96,1.67-1.16,2.6s-.14,1.86-.36,2.77.04,1.93-.19,2.84-.93,1.7-1.17,2.59-.18,1.92-.42,2.79c-.25.94-.99,1.72-1.21,2.58-.26.97.47,2.13.27,2.97-.23.96.05,2.08-.28,2.9-.37.92-.92,1.8-1.37,2.55-.51.85-1.59,1.27-2.17,1.94-.66.76-1.36,1.37-2.03,1.91-.82.66-1.87.66-2.58,1.05-1.49.81-.92,1.19-2.28,1.53"/>
    <g class="cls-34">
      <path class="cls-17" d="m363.58,227.68c-1.12.83-1.91,1.71-2.53,2.74-1.3-.09-2.63.44-3.22,1.69-1.96,4.11-3.5,8.55-5.25,12.89-3.96,5.64-8.88,10.77-10.94,17.45-.03.09-.04.18-.06.28-.89,2.88,3.09,6.04,5.91,3.46.12-.11.22-.22.34-.33,4.37-2.62,7.01-8.13,10.06-11.97,3.2-4.02,5.54-8.39,6.37-13.15.15-.25.31-.5.45-.76.78-1.42,1.25-5.38,2.41-6.24,3.58-2.66.1-8.74-3.53-6.04Z"/>
    </g>
    <path class="cls-7" d="m339.6,250.8c.02-.95,1.24-1.8,1.51-2.8.25-.92.79-1.68,1.21-2.61.4-.87,1.01-1.56,1.55-2.42s-.27-2.58.35-3.37,1.83-1.08,2.51-1.8,1.11-1.76,1.85-2.4,1.51-1.42,2.3-1.97c.84-.58,1.76-1.15,2.6-1.58.92-.47,2.38.5,3.27.23,1.01-.3,1.76-1.67,2.69-1.67,1.09,0,1.05,1.49,1.59,2.24.47.65,2.42.83,2.57,1.9.11.83-.87,1.88-.91,2.91-.03.88.66,1.89.54,2.88-.11.89-1.31,1.66-1.48,2.61-.16.9-.96,1.67-1.16,2.6s-.14,1.86-.36,2.77.04,1.93-.19,2.84-.93,1.7-1.17,2.59-.18,1.92-.42,2.79c-.25.94-.99,1.72-1.21,2.58-.26.97.47,2.13.27,2.97-.23.96.05,2.08-.28,2.9-.37.92-.92,1.8-1.37,2.55-.51.85-1.59,1.27-2.17,1.94-.66.76-1.36,1.37-2.03,1.91-.82.66-1.87.66-2.58,1.05-1.49.81-.92,1.19-2.28,1.53"/>
  </g>
  <path class="cls-7" d="m81.79,272.14c-.38-3.12-3.81-13.21-8.67-10.88"/>
  <g>
    <path class="cls-2" d="m328.92,255.66c-.45-.78-1.47-1.32-1.91-2.18s1.04-2.57.64-3.43-1.46-1.36-1.82-2.22-1.16-1.55-1.48-2.42-.52-1.82-.78-2.69c-.28-.93-.22-1.9-.41-2.78-.22-.97.39-1.93.31-2.79-.1-1.02-.66-1.78-.54-2.61.15-1.05-.2-2.15.38-2.76s1.55-1.42,2.65-1.47c.91-.05,1.75,1.65,2.72,1.78.91.12,2.4-2.1,3.33-1.81.87.28.73,3.14,1.59,3.59.81.42,2.68-.87,3.47-.29.73.54.65,2.12,1.34,2.82.64.64.99,1.48,1.59,2.27.55.72.81,1.56,1.31,2.41.46.78,2.58.75,2.99,1.65.37.83-.03,2.06.29,2.99.3.86,1.09,1.63,1.35,2.58.24.88.62,1.81.82,2.77.18.9.35,1.87.49,2.84s-1.38,2.19-1.21,3.09c.18.97,1.78,1.62,1.98,2.52.22.96-1.21,2.32-.97,3.2.26.96,2.6,1.26,2.88,2.13.31.95-.5,2.22-.19,3.07.35.95,1.55,1.48,1.9,2.31.4.94-.33,2.31.04,3.1.45.96.22,2.13.59,2.9.49,1.02,1.15,1.66,1.41,2.38.46,1.26,1.16,1.48.47,2.02"/>
    <g class="cls-39">
      <path class="cls-17" d="m340.22,257.11c-.39-1.9-1.18-3.44-2.42-4.94-1.8-2.17-2.76-4.44-3.68-7.09-1.87-5.41-3.23-11.23-5.92-16.3-1.06-2-3.12-2.11-4.63-1.21-.77-.58-1.64-1.06-2.63-1.4-1.81-.63-3.81.7-4.31,2.44-2.15,7.62-.71,13.8,4.14,19.97,3.58,4.55,9.01,11.89,15.14,12.84,2.68.42,4.89-1.51,4.31-4.31Z"/>
    </g>
    <path class="cls-7" d="m328.92,255.66c-.45-.78-1.47-1.32-1.91-2.18s1.04-2.57.64-3.43-1.46-1.36-1.82-2.22-1.16-1.55-1.48-2.42-.52-1.82-.78-2.69c-.28-.93-.22-1.9-.41-2.78-.22-.97.39-1.93.31-2.79-.1-1.02-.66-1.78-.54-2.61.15-1.05-.2-2.15.38-2.76s1.55-1.42,2.65-1.47c.91-.05,1.75,1.65,2.72,1.78.91.12,2.4-2.1,3.33-1.81.87.28.73,3.14,1.59,3.59.81.42,2.68-.87,3.47-.29.73.54.65,2.12,1.34,2.82.64.64.99,1.48,1.59,2.27.55.72.81,1.56,1.31,2.41.46.78,2.58.75,2.99,1.65.37.83-.03,2.06.29,2.99.3.86,1.09,1.63,1.35,2.58.24.88.62,1.81.82,2.77.18.9.35,1.87.49,2.84s-1.38,2.19-1.21,3.09c.18.97,1.78,1.62,1.98,2.52.22.96-1.21,2.32-.97,3.2.26.96,2.6,1.26,2.88,2.13.31.95-.5,2.22-.19,3.07.35.95,1.55,1.48,1.9,2.31.4.94-.33,2.31.04,3.1.45.96.22,2.13.59,2.9.49,1.02,1.15,1.66,1.41,2.38.46,1.26,1.16,1.48.47,2.02"/>
  </g>
  <g>
    <line class="cls-5" x1="34.16" y1="274.96" x2="68.39" y2="309.19"/>
    <line class="cls-5" x1="34.16" y1="309.19" x2="68.39" y2="274.96"/>
  </g>
  <g>
    <path class="cls-2" d="m357.51,282.77c.21-.71-.4-2.04.09-3.05.36-.76,2.2-.89,2.69-1.78.43-.77.64-1.71,1.16-2.55.47-.76,1.14-1.44,1.68-2.24.5-.76.95-1.57,1.5-2.35s.53-1.92,1.09-2.67.46-2.04,1.05-2.77,2.96.03,3.57-.67,1.22-1.38,1.85-2.05,1.14-1.47,1.8-2.1c.69-.67,1.2-1.43,1.89-2.02.75-.63,1.34-1.31,2.08-1.81.82-.57.9-2.38,1.68-2.77.91-.45,2.17-.32,3.01-.47,1.06-.19,1.63-.49,2.27-1.06.72-.64,1.31-1.12,1.55-2.05.22-.88-.29-1.65-.46-2.62-.16-.9,1.16-2.41.7-3.26s-1.65-1.36-2.35-2.02-1.72-.86-2.61-1.24c-.83-.36-1.71-.69-2.71-.75-.88-.06-1.89-.24-2.88-.01-.85.2-2.08-.06-3,.39-.79.38-1.47,1.31-2.31,1.89s-1.24,1.63-2.03,2.17-1.44,1.33-2.24,1.87-2.41-.08-3.2.46-.41,2.84-1.19,3.38-2.93-.75-3.7-.19-.52,2.58-1.27,3.16-2.19.39-2.92,1-1.66,1.13-2.34,1.78c-.72.68-1.58,1.28-2.21,1.98-.66.74,0,2.5-.55,3.27-.57.81-1.65,1.21-2.08,2.06s-.37,1.88-.63,2.8-.28,1.78-.36,2.75-.04,1.77.08,2.76"/>
    <g class="cls-29">
      <path class="cls-17" d="m387.22,238.94c-.56-2.36-4.21-3.64-5.85-1.54-2.67,3.4-2.73,8.19-5.5,11.33-3.75,4.25-8.45,7.65-13.14,10.74-3.53,2.32-5.96,5.21-7.09,9.31-1.28,4.66-5.06,7.27-6.67,11.67-.75,2.06.45,3.54,2.07,4.05,1.2,2.83,5.9,3.49,6.52-.19,1.92-11.53,10.2-15.69,19.18-21.63,8.19-5.43,12.8-13.94,10.49-23.73Z"/>
    </g>
    <path class="cls-7" d="m357.51,282.77c.21-.71-.4-2.04.09-3.05.36-.76,2.2-.89,2.69-1.78.43-.77.64-1.71,1.16-2.55.47-.76,1.14-1.44,1.68-2.24.5-.76.95-1.57,1.5-2.35s.53-1.92,1.09-2.67.46-2.04,1.05-2.77,2.96.03,3.57-.67,1.22-1.38,1.85-2.05,1.14-1.47,1.8-2.1c.69-.67,1.2-1.43,1.89-2.02.75-.63,1.34-1.31,2.08-1.81.82-.57.9-2.38,1.68-2.77.91-.45,2.17-.32,3.01-.47,1.06-.19,1.63-.49,2.27-1.06.72-.64,1.31-1.12,1.55-2.05.22-.88-.29-1.65-.46-2.62-.16-.9,1.16-2.41.7-3.26s-1.65-1.36-2.35-2.02-1.72-.86-2.61-1.24c-.83-.36-1.71-.69-2.71-.75-.88-.06-1.89-.24-2.88-.01-.85.2-2.08-.06-3,.39-.79.38-1.47,1.31-2.31,1.89s-1.24,1.63-2.03,2.17-1.44,1.33-2.24,1.87-2.41-.08-3.2.46-.41,2.84-1.19,3.38-2.93-.75-3.7-.19-.52,2.58-1.27,3.16-2.19.39-2.92,1-1.66,1.13-2.34,1.78c-.72.68-1.58,1.28-2.21,1.98-.66.74,0,2.5-.55,3.27-.57.81-1.65,1.21-2.08,2.06s-.37,1.88-.63,2.8-.28,1.78-.36,2.75-.04,1.77.08,2.76"/>
  </g>
  <g>
    <path class="cls-2" d="m344.3,283.87c-.26-.5.22-1.9-.45-2.97-.43-.69-1.03-1.45-1.6-2.31-.48-.72-2.43-.52-2.99-1.32-.51-.73.81-2.83.25-3.61-.53-.73-2.36-.54-2.94-1.3s-.06-2.31-.65-3.04-2.46-.39-3.06-1.1-1.57-1.08-2.19-1.76.06-2.61-.58-3.27-1.38-1.33-2.04-1.95c-.7-.65-2.29-.25-2.99-.83-.75-.62-1.53-1.02-2.26-1.51-.82-.55-1.49-1.01-2.28-1.38-.91-.43-1.36-1.97-2.21-2.11-.97-.17-1.92.56-2.78.85-1.07.37-2.12.59-2.89.44-1.02-.19-2.4-.7-2.86-1.5-.43-.75.11-2.1.2-3.12.07-.87-.66-2.31-.2-3.2.41-.78,2.34-.62,3.07-1.3.65-.6,1.15-1.33,2.05-1.76.79-.38,1.66-.45,2.65-.64.86-.17,1.7-.35,2.71-.34.87,0,1.87-.65,2.87-.49.87.14,2.09-.54,3.05-.27.9.26,1,2.88,1.87,3.23s1.62.7,2.45,1.14,1.67.68,2.46,1.18,1.65.8,2.4,1.37,1.56.99,2.27,1.61,2.51.09,3.18.75.93,1.77,1.55,2.47,1.26,1.43,1.85,2.16.91,1.69,1.46,2.45,1.57,1.23,2.08,2.01-.58,2.58-.11,3.38,1.52,1.28,1.95,2.09,1.25,1.48,1.65,2.32.69,1.78,1.03,2.62c.37.9.43,1.87.72,2.72.32.93-.08,1.98.15,2.85.25.97.93,1.71,1.06,2.57.16,1.03.93,1.89.91,2.72"/>
    <g class="cls-31">
      <path class="cls-17" d="m350.71,283.61c-3.68-8.67-7.84-15.86-14.98-22.21-3.26-2.9-7.06-4.9-10.96-6.79-5.1-2.48-7.94-4.56-6.87-10.47.76-4.22-5.36-6.11-6.6-2.39-2.08-.77-4.87.26-4.78,3.13.28,9.01,6.48,12.84,13.23,17.5,9.79,6.76,17.08,17.15,25.46,25.48,3.03,3.01,6.97-.78,5.5-4.24Z"/>
    </g>
    <path class="cls-7" d="m344.3,283.87c-.26-.5.22-1.9-.45-2.97-.43-.69-1.03-1.45-1.6-2.31-.48-.72-2.43-.52-2.99-1.32-.51-.73.81-2.83.25-3.61-.53-.73-2.36-.54-2.94-1.3s-.06-2.31-.65-3.04-2.46-.39-3.06-1.1-1.57-1.08-2.19-1.76.06-2.61-.58-3.27-1.38-1.33-2.04-1.95c-.7-.65-2.29-.25-2.99-.83-.75-.62-1.53-1.02-2.26-1.51-.82-.55-1.49-1.01-2.28-1.38-.91-.43-1.36-1.97-2.21-2.11-.97-.17-1.92.56-2.78.85-1.07.37-2.12.59-2.89.44-1.02-.19-2.4-.7-2.86-1.5-.43-.75.11-2.1.2-3.12.07-.87-.66-2.31-.2-3.2.41-.78,2.34-.62,3.07-1.3.65-.6,1.15-1.33,2.05-1.76.79-.38,1.66-.45,2.65-.64.86-.17,1.7-.35,2.71-.34.87,0,1.87-.65,2.87-.49.87.14,2.09-.54,3.05-.27.9.26,1,2.88,1.87,3.23s1.62.7,2.45,1.14,1.67.68,2.46,1.18,1.65.8,2.4,1.37,1.56.99,2.27,1.61,2.51.09,3.18.75.93,1.77,1.55,2.47,1.26,1.43,1.85,2.16.91,1.69,1.46,2.45,1.57,1.23,2.08,2.01-.58,2.58-.11,3.38,1.52,1.28,1.95,2.09,1.25,1.48,1.65,2.32.69,1.78,1.03,2.62c.37.9.43,1.87.72,2.72.32.93-.08,1.98.15,2.85.25.97.93,1.71,1.06,2.57.16,1.03.93,1.89.91,2.72"/>
  </g>
  <g>
    <path class="cls-2" d="m343.53,282.64c-.19-.38-3.24-.04-4.78-.25-.82-.11-1.81-.46-2.91-.55-.9-.07-1.95.98-2.99.91-.93-.06-1.76-2.64-2.77-2.69-.95-.05-2.21,4.7-3.2,4.64s-1.84-1.86-2.82-1.93-1.92-.63-2.89-.72-2.2,1.88-3.15,1.77-1.85-1.55-2.79-1.69c-1-.15-1.71-1.92-2.62-2.11-1.01-.2-1.49-1.89-2.37-2.15-1.03-.3-1.79-.2-2.56-.59-1.02-.51-4,1.34-4.48.66-.54-.79-.63-3.24-.26-4.31.31-.88,1.36-1.76,1.88-2.59s.56-2.27,1.23-2.99,2.15-.75,2.91-1.36,3.44,1.8,4.27,1.29,1.43-.71,2.31-1.12-.21-5.56.7-5.87,2.36.63,3.29.42,2.31,2.24,3.25,2.12,1.72-4.26,2.68-4.26,1.58,5.26,2.53,5.38,1.88-1.08,2.8-.83,1.08,1.73,1.95,2.13,2.45-1.06,3.25-.52c.85.57,2.96-.52,3.72.11s.45,2.62,1.15,3.31c.73.72,2.14.81,2.78,1.55.68.78-.59,3.06-.02,3.83.63.84,1.31,1.49,1.83,2.28.59.9,4.29-.18,4.76.61.58.99-3.21,4.38-2.8,5.1.93,1.61,3.18.67,3.56.12.5-.71,3.37.4,4.1-.42.6-.69-1.35-3.85-.61-4.59.66-.66.73-2.17,1.49-2.85.71-.64,4.03,1.67,4.81,1.02s1.42-1.26,2.21-1.87-.18-3.53.64-4.11,1.48-1.42,2.31-1.96,1.78-1,2.62-1.51,3.13,1.49,3.99,1.02,1.05-2.26,1.93-2.68,1.7-1.12,2.6-1.49,1.57-1.71,2.49-2.02,2.45,1.1,3.39.87,1.63-2.85,2.58-2.97,2.29,3.38,3.25,3.38,1.91-.6,2.85-.43,1.65.84,2.56,1.21,1.7.56,2.51,1.14,2.58.03,3.26.8c.74.83,3.25.96,3.59,1.68.48,1.02-4.36,2.6-4.56,3.43s.01.37-.8,1.06c-.65.54-.76,1.13-1.71,1.59-.79.38-1.3,1.14-2.26,1.47-.85.29-1.58.92-2.53,1.18-.89.24-1.01,3.87-1.96,4.08s-2.14-.81-3.09-.63-1.87.39-2.82.56-2-.37-2.94-.21-1.68,1.54-2.61,1.69-2.57-3.68-3.49-3.52-1.66,1.79-2.57,1.96c-.97.18-1.73,1.3-2.61,1.5-.99.22-1.97.21-2.82.45-1.02.29-2.18.02-2.95.35-1.08.46-3.32.26-3.78.84"/>
    <g class="cls-38">
      <path class="cls-17" d="m349.22,286.94c-2.98-7.78-13.09-9.56-20.43-9.35-4.22.12-7.37-.08-11.32-1.55-1.88-.7-7.88-3.21-6.43-5.9,1.33-2.47-.9-6.31-3.95-5.14-8.37,3.22-8.33,11.49-1.42,16.26,2.03,1.4,3.97,2.56,6.25,3.49,2.35.96,5.77.23,8.26.46,6.66.59,13.34,1.06,20,1.67.14.01.26,0,.4,0,.88.52,1.6,1.15,1.9,1.93,1.6,4.17,8.37,2.36,6.75-1.86Z"/>
      <path class="cls-17" d="m403.51,258.6c-2.27,0-4.22,1.29-6.04,2.59-1.44.28-2.58,1-3.53,1.96-2.29,1.1-4.75,1.89-7.03,3.03-2.64,1.33-4.92,3.49-6.89,5.75-2.32.78-4.69,1.44-6.94,2.44-2.75,1.22-5.24,2.9-7.77,4.52-2.3.1-4.65.06-6.97.15-4.5.17-4.52,7.17,0,7,.94-.04,1.89-.06,2.85-.08.97,1.24,2.65,1.92,4.42.93.69-.38,1.37-.77,2.03-1.15,4.33-.3,8.57-1.12,12.21-3.56.74,1.25,2.12,2.05,3.75,1.4,4.08-1.62,7.64-4.09,10.54-7.4.02-.02.04-.05.05-.07,3.42-1.98,6.97-3.8,10.21-5.98,3.95-2.66,6.31-11.53-.9-11.53Z"/>
    </g>
    <path class="cls-7" d="m343.53,282.64c-.19-.38-3.24-.04-4.78-.25-.82-.11-1.81-.46-2.91-.55-.9-.07-1.95.98-2.99.91-.93-.06-1.76-2.64-2.77-2.69-.95-.05-2.21,4.7-3.2,4.64s-1.84-1.86-2.82-1.93-1.92-.63-2.89-.72-2.2,1.88-3.15,1.77-1.85-1.55-2.79-1.69c-1-.15-1.71-1.92-2.62-2.11-1.01-.2-1.49-1.89-2.37-2.15-1.03-.3-1.79-.2-2.56-.59-1.02-.51-4,1.34-4.48.66-.54-.79-.63-3.24-.26-4.31.31-.88,1.36-1.76,1.88-2.59s.56-2.27,1.23-2.99,2.15-.75,2.91-1.36,3.44,1.8,4.27,1.29,1.43-.71,2.31-1.12-.21-5.56.7-5.87,2.36.63,3.29.42,2.31,2.24,3.25,2.12,1.72-4.26,2.68-4.26,1.58,5.26,2.53,5.38,1.88-1.08,2.8-.83,1.08,1.73,1.95,2.13,2.45-1.06,3.25-.52c.85.57,2.96-.52,3.72.11s.45,2.62,1.15,3.31c.73.72,2.14.81,2.78,1.55.68.78-.59,3.06-.02,3.83.63.84,1.31,1.49,1.83,2.28.59.9,4.29-.18,4.76.61.58.99-3.21,4.38-2.8,5.1.93,1.61,3.18.67,3.56.12.5-.71,3.37.4,4.1-.42.6-.69-1.35-3.85-.61-4.59.66-.66.73-2.17,1.49-2.85.71-.64,4.03,1.67,4.81,1.02s1.42-1.26,2.21-1.87-.18-3.53.64-4.11,1.48-1.42,2.31-1.96,1.78-1,2.62-1.51,3.13,1.49,3.99,1.02,1.05-2.26,1.93-2.68,1.7-1.12,2.6-1.49,1.57-1.71,2.49-2.02,2.45,1.1,3.39.87,1.63-2.85,2.58-2.97,2.29,3.38,3.25,3.38,1.91-.6,2.85-.43,1.65.84,2.56,1.21,1.7.56,2.51,1.14,2.58.03,3.26.8c.74.83,3.25.96,3.59,1.68.48,1.02-4.36,2.6-4.56,3.43s.01.37-.8,1.06c-.65.54-.76,1.13-1.71,1.59-.79.38-1.3,1.14-2.26,1.47-.85.29-1.58.92-2.53,1.18-.89.24-1.01,3.87-1.96,4.08s-2.14-.81-3.09-.63-1.87.39-2.82.56-2-.37-2.94-.21-1.68,1.54-2.61,1.69-2.57-3.68-3.49-3.52-1.66,1.79-2.57,1.96c-.97.18-1.73,1.3-2.61,1.5-.99.22-1.97.21-2.82.45-1.02.29-2.18.02-2.95.35-1.08.46-3.32.26-3.78.84"/>
  </g>
  <g>
    <line class="cls-5" x1="334.47" y1="266.59" x2="368.7" y2="300.82"/>
    <line class="cls-5" x1="334.47" y1="300.82" x2="368.7" y2="266.59"/>
  </g>
  <g>
    <line class="cls-11" x1="52.36" y1="331.04" x2="317.38" y2="323.65"/>
    <polygon class="cls-21" points="352.67 322.67 303.51 344.37 314.74 323.73 302.38 303.74 352.67 322.67"/>
  </g>
  <g>
    <line class="cls-11" x1="132.8" y1="152.72" x2="129.59" y2="155.12"/>
    <line class="cls-12" x1="123.07" y1="159.98" x2="8.97" y2="245.17"/>
    <line class="cls-11" x1="5.71" y1="247.6" x2="2.5" y2="249.99"/>
    <polygon class="cls-21" points="161.09 131.61 109.06 145.08 130.68 154.3 133.38 177.65 161.09 131.61"/>
  </g>
  <g>
    <line class="cls-8" x1="376.31" y1="207.07" x2="262.47" y2="118.7"/>
    <polygon class="cls-21" points="404.2 228.72 377.36 182.16 374.22 205.45 352.44 214.27 404.2 228.72"/>
  </g>
</svg>