<svg xmlns="http://www.w3.org/2000/svg" width="4cm" height="4cm" viewBox="0 0 113.38 113.38">
  <title>Volumes</title>
  <ellipse cx="56.69" cy="83.67" rx="48.73" ry="24.37" fill="none" stroke="#231f20" stroke-miterlimit="10" stroke-width="2" stroke-dasharray="4.85 2.77"/>
  <g>
    <line x1="56.69" y1="5.34" x2="56.69" y2="83.67" fill="none" stroke="#ed1c24" stroke-miterlimit="10"/>
    <polyline points="51.38 83.67 51.38 78.36 56.69 78.36 56.69 83.67" fill="none" stroke="#ed1c24" stroke-miterlimit="10"/>
  </g>
  <path d="M103.06,76.16a13.72,13.72,0,0,1,2.36,7.51C105.42,97.12,83.6,108,56.69,108S8,97.12,8,83.67a13.84,13.84,0,0,1,2.56-7.82h0L56.69,5.34l46.37,70.82Z" fill="none" stroke="#231f20" stroke-miterlimit="10" stroke-width="2"/>
  <g>
    <path d="M60,31.05h1.2v8.52H60Zm.75,3.76h4.72V36H60.79Zm4.09-3.76h1.2v8.52h-1.2Z" fill="none" stroke="#fff" stroke-miterlimit="10" stroke-width="3"/>
    <path d="M68.33,39.19a1.73,1.73,0,0,1-.55-1.41,1.71,1.71,0,0,1,.51-1.35A2.27,2.27,0,0,1,69.83,36h1.72l.09,1H69.83a1.08,1.08,0,0,0-.7.2.83.83,0,0,0-.23.64.79.79,0,0,0,.31.69,1.63,1.63,0,0,0,.93.22,2.7,2.7,0,0,0,1-.15.48.48,0,0,0,.33-.46l.13.86a1.49,1.49,0,0,1-.39.4,1.65,1.65,0,0,1-.54.24,2.84,2.84,0,0,1-.69.08A2.51,2.51,0,0,1,68.33,39.19Zm3.17-3.47a1.25,1.25,0,0,0-.32-.93,1.19,1.19,0,0,0-.9-.33,2.15,2.15,0,0,0-.71.11,2,2,0,0,0-.62.31l-.88-.6a2.32,2.32,0,0,1,.92-.65,3.31,3.31,0,0,1,1.25-.23,2.87,2.87,0,0,1,1.3.27,1.85,1.85,0,0,1,.82.77,2.47,2.47,0,0,1,.28,1.22v3.91H71.5Z" fill="none" stroke="#fff" stroke-miterlimit="10" stroke-width="3"/>
    <path d="M75.65,37.19a1.41,1.41,0,0,0,.33,1,1.18,1.18,0,0,0,.91.34,1.24,1.24,0,0,0,.91-.31,1.13,1.13,0,0,0,.32-.88l.09,1.27a1.86,1.86,0,0,1-.61.76,1.77,1.77,0,0,1-1,.3A2,2,0,0,1,75,39a2.76,2.76,0,0,1-.54-1.82v-3.7h1.19Zm2.47-3.7h1.19v6.08H78.12Z" fill="none" stroke="#fff" stroke-miterlimit="10" stroke-width="3"/>
    <path d="M80.66,33.49H83.4v1.08H80.66Zm1,5.7a1.81,1.81,0,0,1-.34-1.2V31.72h1.19V38a.58.58,0,0,0,.09.35.3.3,0,0,0,.26.12h.57V39.6h-.69A1.31,1.31,0,0,1,81.63,39.19Z" fill="none" stroke="#fff" stroke-miterlimit="10" stroke-width="3"/>
    <path d="M86.69,39.66l-.6-.32a2.13,2.13,0,0,1-.91-.92,3.23,3.23,0,0,1-.31-1.48v-.69a3.62,3.62,0,0,1,.3-1.54,2.08,2.08,0,0,1,.88-1,2.62,2.62,0,0,1,1.38-.34,2.22,2.22,0,0,1,1.3.38,2.37,2.37,0,0,1,.82,1.11,4.65,4.65,0,0,1,.29,1.72V37H85.73v-1h3a2.13,2.13,0,0,0-.38-1.16,1.11,1.11,0,0,0-.89-.41,1.27,1.27,0,0,0-1.05.45A1.88,1.88,0,0,0,86,36.19V37a1.62,1.62,0,0,0,.4,1.16,1.53,1.53,0,0,0,1.13.4,1.78,1.78,0,0,0,.72-.14,2.13,2.13,0,0,0,.64-.41l.79.78a3.11,3.11,0,0,1-1,.67,2.83,2.83,0,0,1-1.13.24Z" fill="none" stroke="#fff" stroke-miterlimit="10" stroke-width="3"/>
    <path d="M92.53,37.19a1.41,1.41,0,0,0,.32,1,1.2,1.2,0,0,0,.92.34,1.26,1.26,0,0,0,.91-.31,1.17,1.17,0,0,0,.32-.88l.08,1.27a1.78,1.78,0,0,1-.61.76,1.75,1.75,0,0,1-1,.3A1.92,1.92,0,0,1,91.88,39a2.71,2.71,0,0,1-.55-1.82v-3.7h1.2ZM95,33.49h1.19v6.08H95Z" fill="none" stroke="#fff" stroke-miterlimit="10" stroke-width="3"/>
    <path d="M98,33.49h1.2v6.08H98Zm3,1.15a1.37,1.37,0,0,0-.56-.1,1.2,1.2,0,0,0-.88.31,1.17,1.17,0,0,0-.31.87l-.12-1.17a2.32,2.32,0,0,1,.72-.85,1.75,1.75,0,0,1,1-.3,2.23,2.23,0,0,1,.75.12,1.71,1.71,0,0,1,.59.36l-.78,1A1.06,1.06,0,0,0,101,34.64Z" fill="none" stroke="#fff" stroke-miterlimit="10" stroke-width="3"/>
  </g>
  <g>
    <path d="M60,31.05h1.2v8.52H60Zm.75,3.76h4.72V36H60.79Zm4.09-3.76h1.2v8.52h-1.2Z" fill="#231f20"/>
    <path d="M68.33,39.19a1.73,1.73,0,0,1-.55-1.41,1.71,1.71,0,0,1,.51-1.35A2.27,2.27,0,0,1,69.83,36h1.72l.09,1H69.83a1.08,1.08,0,0,0-.7.2.83.83,0,0,0-.23.64.79.79,0,0,0,.31.69,1.63,1.63,0,0,0,.93.22,2.7,2.7,0,0,0,1-.15.48.48,0,0,0,.33-.46l.13.86a1.49,1.49,0,0,1-.39.4,1.65,1.65,0,0,1-.54.24,2.84,2.84,0,0,1-.69.08A2.51,2.51,0,0,1,68.33,39.19Zm3.17-3.47a1.25,1.25,0,0,0-.32-.93,1.19,1.19,0,0,0-.9-.33,2.15,2.15,0,0,0-.71.11,2,2,0,0,0-.62.31l-.88-.6a2.32,2.32,0,0,1,.92-.65,3.31,3.31,0,0,1,1.25-.23,2.87,2.87,0,0,1,1.3.27,1.85,1.85,0,0,1,.82.77,2.47,2.47,0,0,1,.28,1.22v3.91H71.5Z" fill="#231f20"/>
    <path d="M75.65,37.19a1.41,1.41,0,0,0,.33,1,1.18,1.18,0,0,0,.91.34,1.24,1.24,0,0,0,.91-.31,1.13,1.13,0,0,0,.32-.88l.09,1.27a1.86,1.86,0,0,1-.61.76,1.77,1.77,0,0,1-1,.3A2,2,0,0,1,75,39a2.76,2.76,0,0,1-.54-1.82v-3.7h1.19Zm2.47-3.7h1.19v6.08H78.12Z" fill="#231f20"/>
    <path d="M80.66,33.49H83.4v1.08H80.66Zm1,5.7a1.81,1.81,0,0,1-.34-1.2V31.72h1.19V38a.58.58,0,0,0,.09.35.3.3,0,0,0,.26.12h.57V39.6h-.69A1.31,1.31,0,0,1,81.63,39.19Z" fill="#231f20"/>
    <path d="M86.69,39.66l-.6-.32a2.13,2.13,0,0,1-.91-.92,3.23,3.23,0,0,1-.31-1.48v-.69a3.62,3.62,0,0,1,.3-1.54,2.08,2.08,0,0,1,.88-1,2.62,2.62,0,0,1,1.38-.34,2.22,2.22,0,0,1,1.3.38,2.37,2.37,0,0,1,.82,1.11,4.65,4.65,0,0,1,.29,1.72V37H85.73v-1h3a2.13,2.13,0,0,0-.38-1.16,1.11,1.11,0,0,0-.89-.41,1.27,1.27,0,0,0-1.05.45A1.88,1.88,0,0,0,86,36.19V37a1.62,1.62,0,0,0,.4,1.16,1.53,1.53,0,0,0,1.13.4,1.78,1.78,0,0,0,.72-.14,2.13,2.13,0,0,0,.64-.41l.79.78a3.11,3.11,0,0,1-1,.67,2.83,2.83,0,0,1-1.13.24Z" fill="#231f20"/>
    <path d="M92.53,37.19a1.41,1.41,0,0,0,.32,1,1.2,1.2,0,0,0,.92.34,1.26,1.26,0,0,0,.91-.31,1.17,1.17,0,0,0,.32-.88l.08,1.27a1.78,1.78,0,0,1-.61.76,1.75,1.75,0,0,1-1,.3A1.92,1.92,0,0,1,91.88,39a2.71,2.71,0,0,1-.55-1.82v-3.7h1.2ZM95,33.49h1.19v6.08H95Z" fill="#231f20"/>
    <path d="M98,33.49h1.2v6.08H98Zm3,1.15a1.37,1.37,0,0,0-.56-.1,1.2,1.2,0,0,0-.88.31,1.17,1.17,0,0,0-.31.87l-.12-1.17a2.32,2.32,0,0,1,.72-.85,1.75,1.75,0,0,1,1-.3,2.23,2.23,0,0,1,.75.12,1.71,1.71,0,0,1,.59.36l-.78,1A1.06,1.06,0,0,0,101,34.64Z" fill="#231f20"/>
  </g>
  <g>
    <line x1="56.69" y1="83.67" x2="57.61" y2="84.05" fill="none" stroke="#231f20" stroke-linecap="round" stroke-miterlimit="10"/>
    <line x1="59.48" y1="84.83" x2="92.22" y2="98.51" fill="none" stroke="#231f20" stroke-linecap="round" stroke-miterlimit="10" stroke-dasharray="2.03 2.03"/>
    <line x1="93.16" y1="98.9" x2="94.08" y2="99.29" fill="none" stroke="#231f20" stroke-linecap="round" stroke-miterlimit="10"/>
  </g>
  <g>
    <path d="M50.18,92.9h1.2v8.52h-1.2Zm.52,3.78h2.91a1.08,1.08,0,0,0,.6-.16,1.11,1.11,0,0,0,.41-.47,1.52,1.52,0,0,0,.14-.69,1.56,1.56,0,0,0-.14-.7,1.13,1.13,0,0,0-.4-.46,1.14,1.14,0,0,0-.61-.17H50.7V92.9h2.86a2.71,2.71,0,0,1,1.3.3,2.14,2.14,0,0,1,.87.87A2.67,2.67,0,0,1,56,95.36a2.57,2.57,0,0,1-.32,1.29,2.06,2.06,0,0,1-.87.86,2.57,2.57,0,0,1-1.29.31H50.7Zm2.32.87,1.19-.26,2.18,4.13H55Z" fill="#231f20"/>
    <path d="M58,101a1.73,1.73,0,0,1-.55-1.41,1.71,1.71,0,0,1,.51-1.35,2.22,2.22,0,0,1,1.54-.46H61.2l.08,1H59.47a1,1,0,0,0-.7.2.83.83,0,0,0-.23.64.78.78,0,0,0,.31.68,1.61,1.61,0,0,0,.94.23,2.67,2.67,0,0,0,1-.15.48.48,0,0,0,.33-.46l.13.86a1.49,1.49,0,0,1-.39.4,1.56,1.56,0,0,1-.54.24,2.82,2.82,0,0,1-.68.08A2.62,2.62,0,0,1,58,101Zm3.17-3.47a1.29,1.29,0,0,0-.31-.93,1.22,1.22,0,0,0-.91-.33,2.15,2.15,0,0,0-.71.11,2.12,2.12,0,0,0-.62.31l-.87-.6a2.29,2.29,0,0,1,.91-.65,3.35,3.35,0,0,1,1.25-.23,2.87,2.87,0,0,1,1.3.27,1.85,1.85,0,0,1,.82.77,2.47,2.47,0,0,1,.28,1.22v3.91H61.14Z" fill="#231f20"/>
    <path d="M63.28,95.34H64.5l1.87,5.29-.67,1.29Zm5.38,0-2.59,7.51a1.63,1.63,0,0,1-.37.65,1.22,1.22,0,0,1-.56.35,2.76,2.76,0,0,1-.82.11h-.24v-1.15h.24a.93.93,0,0,0,.53-.13,1,1,0,0,0,.34-.47l2.25-6.87Z" fill="#231f20"/>
    <path d="M70.58,101.2a2,2,0,0,1-.86-.91,3.12,3.12,0,0,1-.3-1.43v-1a3.06,3.06,0,0,1,.3-1.41,2,2,0,0,1,.86-.9,2.7,2.7,0,0,1,1.35-.31,2.76,2.76,0,0,1,1.36.31,2,2,0,0,1,.85.9,3.06,3.06,0,0,1,.3,1.41v1a3.1,3.1,0,0,1-.3,1.42,2.06,2.06,0,0,1-.85.9,2.76,2.76,0,0,1-1.36.31A2.7,2.7,0,0,1,70.58,101.2ZM72.9,100a1.61,1.61,0,0,0,.34-1.1v-1a1.57,1.57,0,0,0-.34-1.09,1.4,1.4,0,0,0-1.94,0,1.57,1.57,0,0,0-.34,1.09v1A1.61,1.61,0,0,0,71,100a1.4,1.4,0,0,0,1.94,0Z" fill="#231f20"/>
    <path d="M76.14,95.34h1.19v6.08H76.14Zm3.69,2.4a1.4,1.4,0,0,0-.33-1,1.46,1.46,0,0,0-1.85,0,1.18,1.18,0,0,0-.32.87l-.12-1.17a2.13,2.13,0,0,1,.74-.85,1.76,1.76,0,0,1,1-.3,1.89,1.89,0,0,1,1.53.65A2.78,2.78,0,0,1,81,97.73v3.69h-1.2Z" fill="#231f20"/>
  </g>
</svg>
