<?xml version="1.0" encoding="utf-8"?>
<!-- Generator: Adobe Illustrator 23.0.0, SVG Export Plug-In . SVG Version: 6.00 Build 0)  -->
<svg version="1.1" id="Calque_1" xmlns="http://www.w3.org/2000/svg" xmlns:xlink="http://www.w3.org/1999/xlink" x="0px" y="0px"
	 viewBox="0 0 218.7 133.7" style="enable-background:new 0 0 218.7 133.7;" xml:space="preserve">
<style type="text/css">
	.st0{fill:none;stroke:#1B75BC;stroke-linecap:round;stroke-linejoin:round;stroke-miterlimit:10;}
	.st1{fill:none;stroke:#ED1C24;stroke-linecap:round;stroke-miterlimit:10;}
	.st2{fill:#00A651;stroke:#1B75BC;stroke-linecap:round;stroke-linejoin:round;stroke-miterlimit:10;}
	.st3{fill:#ED1C24;}
	.st4{fill:#1B75BC;}
	.st5{fill:#EF4136;stroke:#BE1E2D;stroke-width:2.5485;stroke-miterlimit:10;}
</style>
<polyline class="st0" points="2.4,32.8 59,124.7 216.3,28 "/>
<line class="st1" x1="2.4" y1="32.8" x2="216.3" y2="28"/>
<rect x="52.8" y="102.8" transform="matrix(0.8516 -0.5241 0.5241 0.8516 -49.5102 49.1361)" class="st2" width="18.5" height="18.5"/>
<circle cx="2.4" cy="32.8" r="2.4"/>
<circle cx="216.3" cy="28" r="2.4"/>
<circle cx="59.1" cy="124.5" r="2.4"/>
<g>
	<g>
		<path class="st3" d="M92.7,23.4c-0.4-0.3-0.6-0.8-0.6-1.4c0-0.6,0.2-1.1,0.5-1.4s0.9-0.5,1.5-0.5h1.7l0.1,1h-1.8
			c-0.3,0-0.5,0.1-0.7,0.2s-0.2,0.4-0.2,0.6c0,0.3,0.1,0.5,0.3,0.7s0.5,0.2,0.9,0.2c0.5,0,0.8,0,1-0.1s0.3-0.3,0.3-0.5l0.1,0.9
			c-0.1,0.2-0.2,0.3-0.4,0.4s-0.3,0.2-0.5,0.2s-0.4,0.1-0.7,0.1C93.6,23.8,93,23.7,92.7,23.4z M95.8,19.9c0-0.4-0.1-0.7-0.3-0.9
			s-0.5-0.3-0.9-0.3c-0.2,0-0.5,0-0.7,0.1s-0.4,0.2-0.6,0.3l-0.9-0.6c0.2-0.3,0.5-0.5,0.9-0.6s0.8-0.2,1.3-0.2
			c0.5,0,0.9,0.1,1.3,0.3s0.6,0.4,0.8,0.8s0.3,0.7,0.3,1.2v3.9h-1.1V19.9z"/>
	</g>
</g>
<g>
	<g>
		<path class="st4" d="M19.3,78.7h1.2v8.5h-1.2V78.7z M21.1,87c-0.3-0.2-0.5-0.4-0.6-0.8l0.1-1.3c0,0.3,0,0.5,0.1,0.7
			s0.2,0.3,0.4,0.4s0.4,0.1,0.6,0.1c0.4,0,0.7-0.1,0.9-0.4s0.3-0.6,0.3-1v-1.3c0-0.4-0.1-0.8-0.3-1s-0.5-0.4-0.9-0.4
			c-0.3,0-0.5,0-0.6,0.1s-0.3,0.2-0.4,0.4s-0.1,0.4-0.1,0.7l-0.1-1.2c0.2-0.4,0.4-0.6,0.7-0.8s0.6-0.3,1-0.3c0.4,0,0.8,0.1,1.1,0.3
			s0.5,0.5,0.7,0.8s0.2,0.8,0.2,1.3v1.3c0,0.5-0.1,1-0.2,1.3s-0.4,0.6-0.7,0.8s-0.7,0.3-1.1,0.3C21.7,87.3,21.4,87.2,21.1,87z"/>
	</g>
</g>
<g>
	<g>
		<path class="st4" d="M145.8,93.2c0,0-0.2-0.1-0.6-0.3s-0.7-0.5-0.9-0.9s-0.3-0.9-0.3-1.4v-1c0-0.6,0.1-1,0.3-1.4s0.5-0.7,0.9-0.9
			s0.9-0.3,1.4-0.3c0.3,0,0.6,0,0.9,0.1s0.5,0.2,0.8,0.3s0.4,0.3,0.6,0.5l-0.9,0.8c-0.2-0.2-0.4-0.3-0.6-0.5s-0.5-0.2-0.7-0.2
			c-0.5,0-0.8,0.1-1.1,0.4s-0.4,0.6-0.4,1.1v1c0,0.5,0.1,0.9,0.4,1.1s0.6,0.4,1.1,0.4c0.3,0,0.5-0.1,0.7-0.2s0.4-0.3,0.6-0.5
			l0.9,0.8c-0.2,0.2-0.3,0.4-0.6,0.5s-0.5,0.3-0.8,0.3s-0.6,0.1-0.9,0.1C146.1,93.2,145.8,93.2,145.8,93.2z"/>
	</g>
</g>
<polygon class="st5" points="163.6,122.4 108,66.8 163.6,11.3 154.1,1.8 98.5,57.4 42.9,1.8 33.5,11.3 89.1,66.8 33.5,122.4 
	42.9,131.9 98.5,76.3 154.1,131.9 "/>
</svg>
