<?xml version="1.0" encoding="utf-8"?>
<!-- Generator: Adobe Illustrator 23.0.0, SVG Export Plug-In . SVG Version: 6.00 Build 0)  -->
<svg version="1.1" id="Calque_1" xmlns="http://www.w3.org/2000/svg" xmlns:xlink="http://www.w3.org/1999/xlink" x="0px" y="0px"
	 viewBox="0 0 243.1 147.5" style="enable-background:new 0 0 243.1 147.5;" xml:space="preserve">
<style type="text/css">
	.st0{fill:none;stroke:#1B75BC;stroke-linecap:round;stroke-linejoin:round;stroke-miterlimit:10;}
	.st1{fill:none;stroke:#1B75BC;stroke-linecap:round;stroke-miterlimit:10;}
	.st2{fill:#1B75BC;}
</style>
<polyline class="st0" points="15.2,23 43.4,128.5 229,18.2 "/>
<line class="st1" x1="15.2" y1="23" x2="229" y2="18.2"/>
<circle cx="15.2" cy="23" r="2.4"/>
<circle cx="229" cy="18.2" r="2.4"/>
<circle cx="43.5" cy="128.2" r="2.4"/>
<g>
	<g>
		<path d="M9.3,9.6h1l3.1,8.5h-1.3l-2.4-6.9l-2.4,6.9H6.1L9.3,9.6z M7.6,15.2H12v1.1H7.6V15.2z"/>
	</g>
</g>
<g>
	<g>
		<path d="M37.3,144.4c0,0-0.2-0.1-0.7-0.4s-0.8-0.6-1-1.1s-0.4-1-0.4-1.7v-2.3c0-0.6,0.1-1.2,0.4-1.7s0.6-0.9,1-1.1s1-0.4,1.6-0.4
			c0.5,0,0.9,0.1,1.3,0.3s0.8,0.5,1,0.9s0.5,0.8,0.6,1.3h-1.2c-0.1-0.3-0.2-0.5-0.4-0.7s-0.4-0.4-0.6-0.5s-0.5-0.2-0.7-0.2
			c-0.3,0-0.7,0.1-0.9,0.3s-0.5,0.4-0.6,0.7s-0.2,0.7-0.2,1.1v2.3c0,0.4,0.1,0.8,0.2,1.1s0.3,0.5,0.6,0.7s0.6,0.2,0.9,0.2
			c0.3,0,0.5-0.1,0.7-0.2s0.4-0.3,0.6-0.5s0.3-0.5,0.4-0.7h1.2c-0.1,0.5-0.3,0.9-0.6,1.3s-0.6,0.7-1,0.9s-0.9,0.3-1.3,0.3
			C37.6,144.4,37.3,144.4,37.3,144.4z"/>
	</g>
</g>
<g>
	<g>
		<path d="M236.4,9.6h1.2v8.5h-1.2V9.6z M237.1,17.1h2.3c0.6,0,1-0.1,1.3-0.3s0.4-0.6,0.4-1v0c0-0.3,0-0.5-0.1-0.7s-0.3-0.4-0.5-0.5
			s-0.5-0.2-0.8-0.2h-2.6v-1.1h2.6c0.4,0,0.8-0.1,1-0.3s0.3-0.5,0.3-0.9c0-0.4-0.1-0.7-0.4-1s-0.6-0.3-1.1-0.3h-2.4V9.6h2.7
			c0.6,0,1,0.1,1.4,0.3s0.6,0.5,0.8,0.8s0.3,0.8,0.3,1.2c0,0.3-0.1,0.6-0.2,0.8s-0.3,0.5-0.5,0.7s-0.5,0.3-0.9,0.4
			c0.3,0.1,0.6,0.2,0.9,0.4s0.4,0.4,0.6,0.7s0.2,0.6,0.2,0.9v0c0,0.5-0.1,0.9-0.3,1.2s-0.5,0.6-0.9,0.8s-0.8,0.3-1.3,0.3h-2.8V17.1z
			"/>
	</g>
</g>
<g>
	<g>
		<path class="st2" d="M100.3,12.8h-1.5v-9l-1.5,0.9V3.2l1.5-1h1.5V12.8z"/>
		<path class="st2" d="M104.3,12.6c-0.4-0.2-0.8-0.5-1-0.9s-0.4-0.9-0.5-1.4v0h1.5v0c0.1,0.4,0.2,0.7,0.5,0.9s0.6,0.3,1,0.3
			c0.5,0,0.8-0.2,1.1-0.5c0.3-0.3,0.4-0.8,0.4-1.4V8.8c0-0.6-0.1-1-0.4-1.3c-0.3-0.3-0.6-0.5-1.1-0.5c-0.3,0-0.5,0.1-0.7,0.2
			s-0.4,0.4-0.6,0.6H103V2.2h5.4v1.4h-3.9V6c0.2-0.2,0.4-0.3,0.6-0.4s0.5-0.1,0.7-0.1c0.6,0,1.1,0.1,1.6,0.4c0.4,0.3,0.8,0.6,1,1.1
			c0.2,0.5,0.3,1.1,0.3,1.8v0.9c0,0.7-0.1,1.3-0.4,1.8s-0.6,0.9-1,1.1c-0.4,0.3-1,0.4-1.6,0.4C105.2,12.9,104.7,12.8,104.3,12.6z"/>
		<path class="st2" d="M117,12.9c0,0-0.2-0.1-0.7-0.4c-0.5-0.3-0.9-0.6-1.1-1.1s-0.4-1.1-0.4-1.8V8.4c0-0.7,0.1-1.3,0.4-1.8
			s0.6-0.9,1.1-1.1c0.5-0.3,1.1-0.4,1.8-0.4c0.4,0,0.8,0,1.1,0.1c0.3,0.1,0.7,0.2,0.9,0.4s0.5,0.4,0.7,0.7l-1.1,1
			c-0.2-0.2-0.5-0.4-0.8-0.6s-0.6-0.2-0.9-0.2c-0.6,0-1,0.2-1.3,0.5s-0.5,0.8-0.5,1.4v1.3c0,0.6,0.2,1.1,0.5,1.4
			c0.3,0.3,0.8,0.5,1.3,0.5c0.3,0,0.6-0.1,0.9-0.2s0.5-0.3,0.7-0.6l1.1,1c-0.2,0.3-0.4,0.5-0.7,0.6s-0.6,0.3-0.9,0.4
			c-0.3,0.1-0.7,0.1-1.1,0.1C117.4,12.9,117,12.9,117,12.9z"/>
		<path class="st2" d="M122.5,5.2h1.5v7.6h-1.5V5.2z M127,8.2c0-0.5-0.1-1-0.4-1.2s-0.6-0.4-1.1-0.4c-0.5,0-0.9,0.1-1.1,0.4
			C124.1,7.2,124,7.5,124,8l-0.2-1.5c0.2-0.5,0.5-0.8,0.9-1.1c0.4-0.2,0.8-0.4,1.3-0.4c0.5,0,1,0.1,1.4,0.4c0.4,0.2,0.7,0.6,0.9,1.1
			c0.2,0.5,0.3,1,0.3,1.7v4.6H127V8.2z M131.6,8.2c0-0.5-0.1-1-0.4-1.2c-0.3-0.3-0.7-0.4-1.2-0.4c-0.5,0-0.8,0.1-1.1,0.4
			s-0.4,0.7-0.4,1.2l-0.3-1.5c0.2-0.5,0.6-0.9,0.9-1.2c0.4-0.3,0.8-0.4,1.3-0.4c0.5,0,1,0.1,1.4,0.4c0.4,0.2,0.7,0.6,0.9,1.1
			c0.2,0.5,0.3,1,0.3,1.7v4.6h-1.5V8.2z"/>
	</g>
</g>
<g>
	<g>
		<path class="st2" d="M129.6,98.6l-1.3,0.7l-4.3-7.9l-0.9,1.5l-0.7-1.4l0.8-1.6l1.3-0.7L129.6,98.6z"/>
		<path class="st2" d="M132.1,86.6l2,9.5l-1.4,0.8l-2-9.4l-2.4,1.3l0.7,1.3l-1.3,0.7l-1.4-2.6l5.1-2.8L132.1,86.6z"/>
		<path class="st2" d="M143.8,91c0,0-0.3,0-0.8,0c-0.6,0-1.1-0.1-1.5-0.5s-0.9-0.8-1.2-1.4l-0.6-1.1c-0.3-0.6-0.5-1.2-0.5-1.7
			c0-0.6,0.1-1.1,0.5-1.5c0.3-0.5,0.8-0.9,1.4-1.2c0.3-0.2,0.7-0.3,1.1-0.4c0.4-0.1,0.7-0.1,1-0.1s0.6,0.1,0.9,0.2l-0.5,1.4
			c-0.3-0.1-0.6-0.2-0.9-0.1c-0.3,0-0.6,0.1-0.9,0.3c-0.5,0.3-0.8,0.6-0.9,1.1c-0.1,0.4,0,0.9,0.2,1.4l0.6,1.1
			c0.3,0.5,0.6,0.9,1.1,1c0.4,0.1,0.9,0.1,1.4-0.2c0.3-0.2,0.5-0.4,0.7-0.6c0.2-0.3,0.3-0.6,0.4-0.9l1.4,0.4c0,0.3-0.1,0.6-0.3,0.9
			c-0.2,0.3-0.4,0.6-0.6,0.8c-0.3,0.2-0.6,0.5-0.9,0.7C144.1,90.8,143.8,91,143.8,91z"/>
		<path class="st2" d="M144.9,81.6l1.3-0.7l3.6,6.7l-1.3,0.7L144.9,81.6z M150.3,82.1c-0.3-0.5-0.6-0.8-0.9-0.9
			c-0.4-0.1-0.8-0.1-1.2,0.2c-0.4,0.2-0.7,0.5-0.8,0.9c-0.1,0.4-0.1,0.7,0.2,1.1l-0.8-1.2c0-0.5,0.1-1,0.3-1.4
			c0.2-0.4,0.5-0.7,0.9-0.9c0.5-0.3,0.9-0.4,1.4-0.3c0.4,0,0.9,0.2,1.3,0.5s0.8,0.8,1.1,1.3l2.2,4.1l-1.3,0.7L150.3,82.1z
			 M154.3,79.9c-0.3-0.5-0.6-0.8-1-0.9c-0.4-0.1-0.8-0.1-1.2,0.2c-0.4,0.2-0.7,0.5-0.7,0.9c-0.1,0.4,0,0.8,0.2,1.2l-1-1.1
			c0-0.6,0.1-1,0.3-1.5c0.2-0.4,0.5-0.8,0.9-1c0.5-0.3,0.9-0.4,1.4-0.4c0.5,0,0.9,0.2,1.3,0.5c0.4,0.3,0.8,0.8,1.1,1.3l2.2,4.1
			l-1.3,0.7L154.3,79.9z"/>
	</g>
</g>
<g>
	<g>
		<path class="st2" d="M4.9,60.5c0.1-0.5,0.3-1,0.6-1.4c0.3-0.4,0.8-0.7,1.3-0.9L7,58.1C7.5,58,8,57.9,8.6,58s1,0.3,1.4,0.7
			c0.1-0.4,0.3-0.8,0.5-1.1s0.6-0.6,1-0.7l0.2-0.1c0.5-0.2,1-0.2,1.5-0.1c0.5,0.1,0.9,0.3,1.3,0.7s0.7,0.8,0.8,1.4
			c0.2,0.6,0.3,1.1,0.2,1.6c-0.1,0.5-0.3,0.9-0.6,1.3c-0.3,0.4-0.7,0.7-1.3,0.8l-0.2,0.1c-0.4,0.1-0.8,0.2-1.3,0.1
			c-0.4-0.1-0.8-0.3-1.1-0.6c-0.1,0.5-0.3,1-0.7,1.4c-0.4,0.4-0.8,0.7-1.3,0.9L9,64.3c-0.6,0.2-1.1,0.2-1.6,0.1
			c-0.5-0.1-1-0.3-1.4-0.7c-0.4-0.4-0.7-0.9-0.9-1.5C4.9,61.6,4.8,61,4.9,60.5z M7,62.6c0.2,0.2,0.5,0.3,0.7,0.4
			C8,63,8.3,63,8.6,62.9l0.1,0c0.3-0.1,0.6-0.3,0.7-0.5s0.3-0.5,0.3-0.8c0-0.3,0-0.6-0.1-0.9c-0.1-0.3-0.3-0.6-0.5-0.8
			c-0.2-0.2-0.5-0.3-0.7-0.4c-0.3-0.1-0.6,0-0.9,0.1l-0.1,0c-0.3,0.1-0.5,0.3-0.7,0.5s-0.3,0.5-0.3,0.8c0,0.3,0,0.6,0.1,0.9
			C6.6,62.1,6.7,62.3,7,62.6z M11.5,60.9c0.2,0.2,0.4,0.3,0.7,0.3c0.3,0,0.5,0,0.8-0.1l0.1,0c0.3-0.1,0.5-0.2,0.7-0.4
			c0.2-0.2,0.3-0.4,0.3-0.7c0-0.3,0-0.5-0.1-0.8s-0.2-0.5-0.4-0.7c-0.2-0.2-0.4-0.3-0.7-0.3c-0.3,0-0.5,0-0.8,0.1l-0.1,0
			c-0.3,0.1-0.5,0.3-0.7,0.4c-0.2,0.2-0.3,0.4-0.3,0.7c0,0.3,0,0.5,0.1,0.8C11.1,60.5,11.3,60.7,11.5,60.9z"/>
		<path class="st2" d="M8.9,73c0,0,0-0.3,0.1-0.8c0.1-0.5,0.3-1,0.7-1.4c0.4-0.4,0.9-0.7,1.6-1l1.2-0.4c0.7-0.2,1.2-0.3,1.8-0.2
			s1,0.3,1.4,0.7c0.4,0.4,0.7,0.9,0.9,1.6c0.1,0.4,0.2,0.7,0.2,1.1c0,0.4,0,0.7-0.1,1c-0.1,0.3-0.2,0.6-0.4,0.9l-1.3-0.7
			c0.2-0.3,0.3-0.6,0.3-0.9c0-0.3,0-0.6-0.1-0.9c-0.2-0.5-0.5-0.9-0.9-1.1c-0.4-0.2-0.9-0.2-1.4,0l-1.2,0.4c-0.6,0.2-1,0.5-1.2,0.9
			c-0.2,0.4-0.2,0.9,0,1.4c0.1,0.3,0.3,0.6,0.5,0.8c0.2,0.2,0.5,0.4,0.8,0.5l-0.6,1.4c-0.3-0.1-0.6-0.2-0.8-0.5
			c-0.3-0.2-0.5-0.5-0.7-0.8c-0.2-0.3-0.4-0.6-0.5-1C9,73.4,8.9,73,8.9,73z"/>
		<path class="st2" d="M17.9,75.7l0.5,1.4l-7.2,2.5l-0.5-1.4L17.9,75.7z M16.6,80.9c0.5-0.2,0.9-0.4,1-0.8c0.2-0.3,0.2-0.7,0-1.2
			c-0.2-0.5-0.4-0.8-0.7-0.9c-0.3-0.2-0.7-0.2-1.2,0l1.3-0.6c0.5,0.1,0.9,0.2,1.3,0.5c0.4,0.3,0.6,0.6,0.8,1.1
			c0.2,0.5,0.2,1,0.1,1.4c-0.1,0.4-0.3,0.8-0.7,1.2c-0.4,0.3-0.9,0.6-1.5,0.8l-4.4,1.5l-0.5-1.4L16.6,80.9z M18.1,85.2
			c0.5-0.2,0.9-0.4,1-0.8s0.2-0.8,0-1.3c-0.2-0.4-0.4-0.7-0.8-0.9c-0.4-0.1-0.8-0.1-1.3,0l1.3-0.8c0.6,0.1,1,0.2,1.4,0.5
			c0.4,0.3,0.7,0.6,0.8,1.1c0.2,0.5,0.2,1,0.1,1.4c-0.1,0.4-0.3,0.8-0.7,1.2c-0.4,0.3-0.9,0.6-1.5,0.8l-4.4,1.5l-0.5-1.4L18.1,85.2z
			"/>
	</g>
</g>
</svg>
