<?xml version="1.0" encoding="utf-8"?>
<!-- Generator: Adobe Illustrator 23.0.0, SVG Export Plug-In . SVG Version: 6.00 Build 0)  -->
<svg version="1.1" id="Calque_1" xmlns="http://www.w3.org/2000/svg" xmlns:xlink="http://www.w3.org/1999/xlink" x="0px" y="0px"
	 viewBox="0 0 243.1 147.5" style="enable-background:new 0 0 243.1 147.5;" xml:space="preserve">
<style type="text/css">
	.st0{fill:none;stroke:#1B75BC;stroke-linecap:round;stroke-linejoin:round;stroke-miterlimit:10;}
	.st1{fill:none;stroke:#1B75BC;stroke-linecap:round;stroke-miterlimit:10;}
	.st2{fill:#1B75BC;}
</style>
<polyline class="st0" points="15.2,23 43.4,128.5 229,18.2 "/>
<line class="st1" x1="15.2" y1="23" x2="229" y2="18.2"/>
<circle cx="15.2" cy="23" r="2.4"/>
<circle cx="229" cy="18.2" r="2.4"/>
<circle cx="43.5" cy="128.2" r="2.4"/>
<g>
	<g>
		<path d="M9.3,9.6h1l3.1,8.5h-1.3l-2.4-6.9l-2.4,6.9H6.1L9.3,9.6z M7.6,15.2H12v1.1H7.6V15.2z"/>
	</g>
</g>
<g>
	<g>
		<path d="M37.3,144.4c0,0-0.2-0.1-0.7-0.4s-0.8-0.6-1-1.1s-0.4-1-0.4-1.7v-2.3c0-0.6,0.1-1.2,0.4-1.7s0.6-0.9,1-1.1s1-0.4,1.6-0.4
			c0.5,0,0.9,0.1,1.3,0.3s0.8,0.5,1,0.9s0.5,0.8,0.6,1.3h-1.2c-0.1-0.3-0.2-0.5-0.4-0.7s-0.4-0.4-0.6-0.5s-0.5-0.2-0.7-0.2
			c-0.3,0-0.7,0.1-0.9,0.3s-0.5,0.4-0.6,0.7s-0.2,0.7-0.2,1.1v2.3c0,0.4,0.1,0.8,0.2,1.1s0.3,0.5,0.6,0.7s0.6,0.2,0.9,0.2
			c0.3,0,0.5-0.1,0.7-0.2s0.4-0.3,0.6-0.5s0.3-0.5,0.4-0.7h1.2c-0.1,0.5-0.3,0.9-0.6,1.3s-0.6,0.7-1,0.9s-0.9,0.3-1.3,0.3
			C37.6,144.4,37.3,144.4,37.3,144.4z"/>
	</g>
</g>
<g>
	<g>
		<path d="M236.4,9.6h1.2v8.5h-1.2V9.6z M237.1,17.1h2.3c0.6,0,1-0.1,1.3-0.3s0.4-0.6,0.4-1v0c0-0.3,0-0.5-0.1-0.7s-0.3-0.4-0.5-0.5
			s-0.5-0.2-0.8-0.2h-2.6v-1.1h2.6c0.4,0,0.8-0.1,1-0.3s0.3-0.5,0.3-0.9c0-0.4-0.1-0.7-0.4-1s-0.6-0.3-1.1-0.3h-2.4V9.6h2.7
			c0.6,0,1,0.1,1.4,0.3s0.6,0.5,0.8,0.8s0.3,0.8,0.3,1.2c0,0.3-0.1,0.6-0.2,0.8s-0.3,0.5-0.5,0.7s-0.5,0.3-0.9,0.4
			c0.3,0.1,0.6,0.2,0.9,0.4s0.4,0.4,0.6,0.7s0.2,0.6,0.2,0.9v0c0,0.5-0.1,0.9-0.3,1.2s-0.5,0.6-0.9,0.8s-0.8,0.3-1.3,0.3h-2.8V17.1z
			"/>
	</g>
</g>
<g>
	<g>
		<path class="st2" d="M99.3,12.6c-0.4-0.2-0.8-0.5-1-0.9s-0.4-0.9-0.5-1.4v0h1.5v0c0.1,0.4,0.2,0.7,0.5,0.9s0.6,0.3,1,0.3
			c0.5,0,0.8-0.2,1.1-0.5c0.3-0.3,0.4-0.8,0.4-1.4V8.8c0-0.6-0.1-1-0.4-1.3c-0.3-0.3-0.6-0.5-1.1-0.5c-0.3,0-0.5,0.1-0.7,0.2
			s-0.4,0.4-0.6,0.6H98V2.2h5.4v1.4h-3.9V6c0.2-0.2,0.4-0.3,0.6-0.4s0.5-0.1,0.7-0.1c0.6,0,1.1,0.1,1.6,0.4c0.4,0.3,0.8,0.6,1,1.1
			c0.2,0.5,0.3,1.1,0.3,1.8v0.9c0,0.7-0.1,1.3-0.4,1.8s-0.6,0.9-1,1.1c-0.4,0.3-1,0.4-1.6,0.4C100.2,12.9,99.7,12.8,99.3,12.6z"/>
		<path class="st2" d="M112.1,12.9c0,0-0.2-0.1-0.7-0.4c-0.5-0.3-0.9-0.6-1.1-1.1s-0.4-1.1-0.4-1.8V8.4c0-0.7,0.1-1.3,0.4-1.8
			s0.6-0.9,1.1-1.1c0.5-0.3,1.1-0.4,1.8-0.4c0.4,0,0.8,0,1.1,0.1c0.3,0.1,0.7,0.2,0.9,0.4s0.5,0.4,0.7,0.7l-1.1,1
			c-0.2-0.2-0.5-0.4-0.8-0.6s-0.6-0.2-0.9-0.2c-0.6,0-1,0.2-1.3,0.5s-0.5,0.8-0.5,1.4v1.3c0,0.6,0.2,1.1,0.5,1.4
			c0.3,0.3,0.8,0.5,1.3,0.5c0.3,0,0.6-0.1,0.9-0.2s0.5-0.3,0.7-0.6l1.1,1c-0.2,0.3-0.4,0.5-0.7,0.6s-0.6,0.3-0.9,0.4
			c-0.3,0.1-0.7,0.1-1.1,0.1C112.4,12.9,112.1,12.9,112.1,12.9z"/>
		<path class="st2" d="M117.5,5.2h1.5v7.6h-1.5V5.2z M122,8.2c0-0.5-0.1-1-0.4-1.2s-0.6-0.4-1.1-0.4c-0.5,0-0.9,0.1-1.1,0.4
			C119.1,7.2,119,7.5,119,8l-0.2-1.5c0.2-0.5,0.5-0.8,0.9-1.1c0.4-0.2,0.8-0.4,1.3-0.4c0.5,0,1,0.1,1.4,0.4c0.4,0.2,0.7,0.6,0.9,1.1
			s0.3,1,0.3,1.7v4.6H122V8.2z M126.6,8.2c0-0.5-0.1-1-0.4-1.2s-0.7-0.4-1.2-0.4c-0.5,0-0.8,0.1-1.1,0.4s-0.4,0.7-0.4,1.2l-0.3-1.5
			c0.2-0.5,0.6-0.9,0.9-1.2c0.4-0.3,0.8-0.4,1.3-0.4c0.5,0,1,0.1,1.4,0.4c0.4,0.2,0.7,0.6,0.9,1.1s0.3,1,0.3,1.7v4.6h-1.5V8.2z"/>
	</g>
</g>
<g>
	<g>
		<path class="st2" d="M128.3,99.1c-0.5,0-1-0.2-1.4-0.5c-0.4-0.3-0.8-0.8-1.1-1.4l0,0c-0.2-0.3-0.3-0.7-0.5-1.2
			c-0.1-0.4-0.2-0.9-0.3-1.3c0-0.1,0-0.2,0-0.2c0-0.1,0-0.2,0-0.2l-0.2-5.1l1.4-0.8l0.2,6l-0.1-0.2c0-0.3,0.1-0.5,0.2-0.7
			s0.4-0.4,0.6-0.6c0.5-0.3,1-0.4,1.4-0.4s0.9,0.2,1.3,0.5c0.4,0.3,0.8,0.8,1.1,1.4l0,0c0.3,0.6,0.5,1.2,0.5,1.7
			c0,0.5-0.1,1-0.4,1.5c-0.3,0.4-0.7,0.8-1.2,1.1S128.8,99.1,128.3,99.1z M129.9,96.5c0.1-0.4,0-0.8-0.3-1.3l0,0
			c-0.3-0.5-0.6-0.9-1-1c-0.4-0.2-0.8-0.1-1.2,0.1c-0.4,0.2-0.6,0.5-0.7,0.9c-0.1,0.4,0.1,0.9,0.3,1.4l0,0c0.3,0.5,0.6,0.8,0.9,0.9
			c0.4,0.1,0.8,0.1,1.2-0.1C129.6,97.1,129.8,96.8,129.9,96.5z"/>
		<path class="st2" d="M139.6,93.3c0,0-0.3,0-0.8,0s-1.1-0.1-1.5-0.5c-0.5-0.3-0.9-0.8-1.2-1.4l-0.6-1.1c-0.3-0.6-0.5-1.2-0.5-1.7
			c0-0.6,0.1-1.1,0.5-1.5c0.3-0.5,0.8-0.9,1.4-1.2c0.3-0.2,0.7-0.3,1-0.4c0.4-0.1,0.7-0.1,1-0.1c0.3,0,0.6,0.1,0.9,0.2l-0.5,1.4
			c-0.3-0.1-0.6-0.2-0.9-0.1s-0.6,0.1-0.9,0.3c-0.5,0.3-0.8,0.6-0.9,1.1c-0.1,0.4,0,0.9,0.2,1.4l0.6,1.1c0.3,0.5,0.6,0.9,1.1,1
			s0.9,0.1,1.4-0.2c0.3-0.2,0.5-0.4,0.7-0.6c0.2-0.3,0.3-0.6,0.4-0.9l1.4,0.4c0,0.3-0.1,0.6-0.3,0.9c-0.2,0.3-0.4,0.6-0.6,0.8
			c-0.3,0.2-0.6,0.5-0.9,0.7C139.9,93.2,139.6,93.3,139.6,93.3z"/>
		<path class="st2" d="M140.7,83.9l1.3-0.7l3.6,6.7l-1.3,0.7L140.7,83.9z M146.1,84.4c-0.3-0.5-0.6-0.8-0.9-0.9
			c-0.4-0.1-0.8-0.1-1.2,0.2c-0.4,0.2-0.7,0.5-0.8,0.9c-0.1,0.4-0.1,0.7,0.2,1.1l-0.8-1.2c0-0.5,0.1-1,0.3-1.4
			c0.2-0.4,0.5-0.7,0.9-0.9c0.5-0.3,0.9-0.4,1.4-0.3c0.4,0,0.9,0.2,1.3,0.5c0.4,0.3,0.8,0.8,1.1,1.3l2.2,4.1l-1.3,0.7L146.1,84.4z
			 M150.1,82.2c-0.3-0.5-0.6-0.8-1-0.9s-0.8-0.1-1.2,0.2c-0.4,0.2-0.7,0.5-0.7,0.9c-0.1,0.4,0,0.8,0.2,1.2l-1-1.1
			c0-0.6,0.1-1,0.3-1.5c0.2-0.4,0.5-0.8,0.9-1c0.5-0.3,0.9-0.4,1.4-0.4c0.5,0,0.9,0.2,1.3,0.5c0.4,0.3,0.8,0.8,1.1,1.3l2.2,4.1
			l-1.3,0.7L150.1,82.2z"/>
	</g>
</g>
<g>
	<g>
		<path class="st2" d="M4.7,61c0,0,0-0.3,0.1-0.8c0.1-0.5,0.2-0.9,0.5-1.3c0.3-0.4,0.7-0.7,1.2-1l0.5,1.4c-0.3,0.1-0.5,0.3-0.6,0.5
			c-0.1,0.2-0.2,0.4-0.2,0.7c0,0.3,0,0.5,0.1,0.8c0.2,0.5,0.4,0.8,0.8,1c0.3,0.2,0.7,0.2,1.2,0l0.3-0.1c0.5-0.2,0.8-0.4,1-0.8
			c0.2-0.3,0.2-0.7,0.1-1.2l-0.2-0.7l1.3-0.5l0.2,0.7c0.1,0.4,0.4,0.7,0.7,0.8s0.7,0.1,1.1,0l0.3-0.1c0.4-0.1,0.7-0.4,0.8-0.7
			c0.1-0.3,0.1-0.7,0-1.1c-0.1-0.2-0.2-0.4-0.4-0.6c-0.2-0.2-0.3-0.3-0.6-0.3c-0.2-0.1-0.5-0.1-0.8,0l-0.5-1.4
			c0.6-0.1,1.1-0.1,1.6,0c0.5,0.1,0.9,0.3,1.2,0.7c0.3,0.3,0.6,0.7,0.8,1.2c0.3,0.9,0.3,1.6,0,2.3s-0.9,1.1-1.7,1.4L13.4,62
			c-0.5,0.2-1,0.2-1.5,0c-0.5-0.1-0.9-0.4-1.2-0.9c0.1,0.6-0.1,1.1-0.4,1.6c-0.3,0.4-0.8,0.8-1.4,1l-0.2,0.1C8.2,64,7.6,64.1,7.1,64
			c-0.5-0.1-0.9-0.3-1.3-0.7S5.2,62.5,5,61.9C4.8,61.3,4.7,61,4.7,61z"/>
		<path class="st2" d="M8.7,72.6c0,0,0-0.3,0.1-0.8c0.1-0.5,0.3-1,0.7-1.4s0.9-0.7,1.6-1l1.2-0.4c0.7-0.2,1.2-0.3,1.8-0.2
			c0.5,0.1,1,0.3,1.4,0.7c0.4,0.4,0.7,0.9,0.9,1.6c0.1,0.4,0.2,0.7,0.2,1.1c0,0.4,0,0.7-0.1,1c-0.1,0.3-0.2,0.6-0.4,0.9l-1.3-0.7
			c0.2-0.3,0.3-0.6,0.3-0.9c0-0.3,0-0.6-0.1-0.9c-0.2-0.5-0.5-0.9-0.9-1.1c-0.4-0.2-0.9-0.2-1.4,0l-1.2,0.4c-0.6,0.2-1,0.5-1.2,0.9
			c-0.2,0.4-0.2,0.9,0,1.4c0.1,0.3,0.3,0.6,0.5,0.8c0.2,0.2,0.5,0.4,0.8,0.5l-0.6,1.4c-0.3-0.1-0.6-0.2-0.8-0.5
			c-0.3-0.2-0.5-0.5-0.7-0.8c-0.2-0.3-0.4-0.6-0.5-1C8.8,72.9,8.7,72.6,8.7,72.6z"/>
		<path class="st2" d="M17.8,75.2l0.5,1.4l-7.2,2.5l-0.5-1.4L17.8,75.2z M16.4,80.4c0.5-0.2,0.9-0.4,1-0.8s0.2-0.7,0-1.2
			c-0.2-0.5-0.4-0.8-0.7-0.9s-0.7-0.2-1.2,0l1.3-0.6c0.5,0.1,0.9,0.2,1.3,0.5c0.4,0.3,0.6,0.6,0.8,1.1c0.2,0.5,0.2,1,0.1,1.4
			c-0.1,0.4-0.3,0.8-0.7,1.2c-0.4,0.3-0.9,0.6-1.5,0.8l-4.4,1.5L12.1,82L16.4,80.4z M17.9,84.7c0.5-0.2,0.9-0.4,1-0.8s0.2-0.8,0-1.3
			c-0.2-0.4-0.4-0.7-0.8-0.9c-0.4-0.1-0.8-0.1-1.3,0l1.3-0.8c0.6,0.1,1,0.2,1.4,0.5c0.4,0.3,0.7,0.6,0.8,1.1c0.2,0.5,0.2,1,0.1,1.4
			c-0.1,0.4-0.3,0.8-0.7,1.2c-0.4,0.3-0.9,0.6-1.5,0.8L14,87.7l-0.5-1.4L17.9,84.7z"/>
	</g>
</g>
</svg>
