<?xml version="1.0" encoding="utf-8"?>
<!-- Generator: Adobe Illustrator 28.0.0, SVG Export Plug-In . SVG Version: 6.00 Build 0)  -->
<svg version="1.1" id="Calque_1" xmlns="http://www.w3.org/2000/svg" xmlns:xlink="http://www.w3.org/1999/xlink" x="0px" y="0px"
	 viewBox="0 0 269.7 264.2" style="enable-background:new 0 0 269.7 264.2;" xml:space="preserve">
<style type="text/css">
	.st0{fill:#008D36;}
	.st1{fill:none;stroke:#1D1D1B;stroke-width:2;stroke-linejoin:round;}
	.st2{fill:none;stroke:#E30613;stroke-width:2;stroke-linecap:round;stroke-miterlimit:10;}
	.st3{fill:#FFFFFF;stroke:#E30613;stroke-width:2;stroke-linecap:round;stroke-miterlimit:10;}
	.st4{enable-background:new    ;}
	.st5{fill:#1D1D1B;}
	.st6{fill:none;stroke:#009FE3;stroke-width:2;stroke-linecap:round;stroke-miterlimit:10;}
	.st7{fill:none;stroke:#E7D900;stroke-miterlimit:10;}
	.st8{fill:none;stroke:#74BD83;stroke-linecap:round;stroke-miterlimit:10;}
	.st9{fill:none;stroke:#B44090;stroke-linecap:round;stroke-miterlimit:10;}
</style>
<rect x="30.8" y="173.9" transform="matrix(0.9326 -0.361 0.361 0.9326 -61.909 24.647)" class="st0" width="8.4" height="8.4"/>
<rect x="112.7" y="177.4" transform="matrix(0.4644 -0.8856 0.8856 0.4644 -98.4539 201.6327)" class="st0" width="9.6" height="9.6"/>
<rect x="137.6" y="221.7" class="st0" width="9.3" height="9.3"/>
<polygon class="st1" points="7.2,120 29.5,175.5 51.8,231 137.6,231 223.4,231 115.3,175.5 "/>
<line class="st2" x1="137.6" y1="110.2" x2="137.6" y2="250.4"/>
<polyline class="st3" points="1,187 29.5,175.5 152.8,126 "/>
<polyline class="st2" points="150.3,107.5 115.3,175.5 97.7,209.9 "/>
<g>
	<g class="st4">
		<path class="st5" d="M151,144.1l4-8.9h1.8v13.5h-1.8v-10.1l0.1,0.6l-3.3,7.6h-1.3l-3.3-7.5l0.1-0.8v10.1h-1.8v-13.5h1.8L151,144.1
			z"/>
	</g>
</g>
<circle class="st6" cx="137.6" cy="132.1" r="131.1"/>
<circle class="st7" cx="18.4" cy="149.5" r="5"/>
<circle class="st7" cx="40.9" cy="205.5" r="5"/>
<g>
	<line class="st8" x1="62.5" y1="141" x2="60.3" y2="153.8"/>
	<line class="st8" x1="65.4" y1="142.5" x2="63.2" y2="155.3"/>
</g>
<g>
	<line class="st8" x1="177.6" y1="200.5" x2="175.4" y2="213.3"/>
	<line class="st8" x1="180.6" y1="202" x2="178.4" y2="214.8"/>
</g>
<polygon class="st9" points="92.6,226 90.6,234.7 99.1,232.1 "/>
<polygon class="st9" points="177.3,226.2 175.2,234.8 183.7,232.2 "/>
</svg>
