<?xml version="1.0" encoding="utf-8"?>
<!-- Generator: Adobe Illustrator 28.0.0, SVG Export Plug-In . SVG Version: 6.00 Build 0)  -->
<svg version="1.1" id="Calque_1" xmlns="http://www.w3.org/2000/svg" xmlns:xlink="http://www.w3.org/1999/xlink" x="0px" y="0px"
	 viewBox="0 0 205.2 205.2" style="enable-background:new 0 0 205.2 205.2;" xml:space="preserve">
<style type="text/css">
	.st0{fill:#008D36;}
	.st1{fill:none;stroke:#1D1D1B;stroke-width:2;stroke-linejoin:round;}
	.st2{fill:none;stroke:#E30613;stroke-width:2;stroke-linecap:round;stroke-miterlimit:10;}
	.st3{enable-background:new    ;}
	.st4{fill:#1D1D1B;}
	.st5{fill:none;stroke:#009FE3;stroke-width:2;stroke-linecap:round;stroke-miterlimit:10;}
	.st6{fill:none;stroke:#B44090;stroke-linecap:round;stroke-miterlimit:10;}
	.st7{fill:none;stroke:#E7D900;stroke-miterlimit:10;}
	.st8{fill:none;stroke:#74BD83;stroke-linecap:round;stroke-miterlimit:10;}
</style>
<rect x="139.5" y="68.4" transform="matrix(0.7503 -0.6611 0.6611 0.7503 -12.2884 113.5207)" class="st0" width="9.3" height="9.3"/>
<rect x="102.1" y="117.4" transform="matrix(4.344502e-02 -0.9991 0.9991 4.344502e-02 -19.7995 223.4076)" class="st0" width="9.3" height="9.3"/>
<rect x="42.1" y="64.5" transform="matrix(0.5714 -0.8207 0.8207 0.5714 -36.7248 68.0418)" class="st0" width="9.3" height="9.3"/>
<polygon class="st1" points="89.1,1.3 45.8,62.3 2.6,123.3 101.4,127 200.3,130.7 144.7,66 "/>
<polyline class="st2" points="16.7,41.6 45.8,62.3 113,110 "/>
<polyline class="st2" points="174.6,40.3 144.7,66 80,121.6 "/>
<polyline class="st2" points="100.1,163.1 101.4,127 105.1,28.1 "/>
<g>
	<g class="st3">
		<path class="st4" d="M93.1,84.4l4-8.9h1.8V89H97V78.9l0.1,0.6l-3.3,7.6h-1.3l-3.3-7.5l0.1-0.8V89h-1.8V75.5h1.8L93.1,84.4z"/>
	</g>
</g>
<circle class="st5" cx="102.6" cy="102.6" r="101.6"/>
<polygon class="st6" points="145.2,124.8 143.1,133.4 151.6,130.9 "/>
<polygon class="st6" points="42.3,120.3 40.3,128.9 48.8,126.4 "/>
<circle class="st7" cx="173.1" cy="99.6" r="5"/>
<circle class="st7" cx="118.2" cy="35.3" r="5"/>
<g>
	<line class="st8" x1="16.7" y1="92.2" x2="28.3" y2="97.9"/>
	<line class="st8" x1="19" y1="89.8" x2="30.6" y2="95.5"/>
</g>
<g>
	<line class="st8" x1="61.6" y1="27.8" x2="72.3" y2="35.2"/>
	<line class="st8" x1="64.3" y1="25.8" x2="74.9" y2="33.2"/>
</g>
</svg>
