<?xml version="1.0" encoding="utf-8"?>
<!-- Generator: Adobe Illustrator 28.0.0, SVG Export Plug-In . SVG Version: 6.00 Build 0)  -->
<svg version="1.1" id="Calque_1" xmlns="http://www.w3.org/2000/svg" xmlns:xlink="http://www.w3.org/1999/xlink" x="0px" y="0px"
	 viewBox="0 0 227.6 144.9" style="enable-background:new 0 0 227.6 144.9;" xml:space="preserve">
<style type="text/css">
	.st0{fill:#008D36;}
	.st1{fill:none;stroke:#1D1D1B;stroke-width:2;stroke-miterlimit:10;}
	.st2{fill:none;stroke:#E30613;stroke-width:2;stroke-linecap:round;stroke-miterlimit:10;}
	.st3{fill:#FFFFFF;stroke:#E30613;stroke-width:2;stroke-linecap:round;stroke-miterlimit:10;}
	.st4{enable-background:new    ;}
	.st5{fill:#1D1D1B;}
	.st6{fill:none;stroke:#E7D900;stroke-miterlimit:10;}
	.st7{fill:none;stroke:#74BD83;stroke-linecap:round;stroke-miterlimit:10;}
	.st8{fill:none;stroke:#B44090;stroke-linecap:round;stroke-miterlimit:10;}
</style>
<rect x="30.8" y="67.4" transform="matrix(0.9326 -0.361 0.361 0.9326 -23.4689 17.467)" class="st0" width="8.4" height="8.4"/>
<rect x="112.7" y="70.9" transform="matrix(0.4644 -0.8856 0.8856 0.4644 -4.1275 144.5956)" class="st0" width="9.6" height="9.6"/>
<rect x="137.6" y="115.2" class="st0" width="9.3" height="9.3"/>
<polygon class="st1" points="7.2,13.5 29.5,69 51.8,124.5 137.6,124.5 223.4,124.5 115.3,69 "/>
<line class="st2" x1="137.6" y1="3.7" x2="137.6" y2="143.9"/>
<polyline class="st3" points="1,80.5 29.5,69 152.8,19.5 "/>
<polyline class="st2" points="150.3,1 115.3,69 97.7,103.4 "/>
<g>
	<g class="st4">
		<path class="st5" d="M151,37.6l4-8.9h1.8v13.5h-1.8V32.1l0.1,0.6l-3.3,7.6h-1.3l-3.3-7.5l0.1-0.8v10.1h-1.8V28.7h1.8L151,37.6z"/>
	</g>
</g>
<circle class="st6" cx="19.3" cy="43.5" r="5"/>
<circle class="st6" cx="41.8" cy="99.5" r="5"/>
<g>
	<line class="st7" x1="63.4" y1="35" x2="61.1" y2="47.8"/>
	<line class="st7" x1="66.3" y1="36.6" x2="64.1" y2="49.4"/>
</g>
<g>
	<line class="st7" x1="178.5" y1="94.5" x2="176.3" y2="107.3"/>
	<line class="st7" x1="181.5" y1="96.1" x2="179.3" y2="108.8"/>
</g>
<polygon class="st8" points="93.5,120.1 91.5,128.7 100,126.2 "/>
<polygon class="st8" points="178.2,120.2 176.1,128.8 184.6,126.3 "/>
</svg>
