<?xml version="1.0" encoding="utf-8"?>
<!-- Generator: Adobe Illustrator 28.0.0, SVG Export Plug-In . SVG Version: 6.00 Build 0)  -->
<svg version="1.1" id="Calque_1" xmlns="http://www.w3.org/2000/svg" xmlns:xlink="http://www.w3.org/1999/xlink" x="0px" y="0px"
	 viewBox="0 0 255.8 126.3" style="enable-background:new 0 0 255.8 126.3;" xml:space="preserve">
<style type="text/css">
	.st0{fill:#C2DDF5;}
	.st1{fill:none;stroke:#1E1E1C;stroke-miterlimit:10;}
	.st2{fill:#020203;}
</style>
<polygon class="st0" points="255.3,1.3 0.5,1.3 0.5,12.8 0.5,40.4 0.5,125.8 64.2,125.8 64.2,32.4 255.3,32.4 "/>
<g>
	<rect x="0.5" y="1.3" class="st1" width="254.8" height="124.5"/>
	<line class="st1" x1="0.5" y1="94.7" x2="255.3" y2="94.7"/>
	<line class="st1" x1="0.5" y1="63.5" x2="255.3" y2="63.5"/>
	<line class="st1" x1="0.5" y1="32.4" x2="255.3" y2="32.4"/>
	<line class="st1" x1="191.6" y1="1.3" x2="191.6" y2="125.8"/>
	<line class="st1" x1="127.9" y1="1.3" x2="127.9" y2="125.8"/>
	<line class="st1" x1="64.2" y1="1.3" x2="64.2" y2="125.8"/>
</g>
<line class="st1" x1="0.5" y1="1.3" x2="64.2" y2="32.4"/>
<g>
	<g>
		<path class="st2" d="M26.8,11.9h-1v-6l-1,0.6v-1l1-0.7h1V11.9z"/>
		<path class="st2" d="M28.6,8.4c-0.2-0.1-0.3-0.3-0.4-0.5s-0.2-0.4-0.2-0.7V6.9c0-0.3,0-0.5,0.1-0.7c0.1-0.2,0.2-0.4,0.4-0.5
			c0.2-0.1,0.4-0.2,0.7-0.2c0.2,0,0.5,0.1,0.6,0.2c0.2,0.1,0.3,0.3,0.4,0.5c0.1,0.2,0.1,0.5,0.1,0.8v0.2h-2V6.8h1.4
			c0-0.2-0.1-0.4-0.2-0.6c-0.1-0.1-0.3-0.2-0.4-0.2c-0.2,0-0.4,0.1-0.5,0.2c-0.1,0.1-0.2,0.3-0.2,0.6v0.4c0,0.2,0.1,0.4,0.2,0.6
			C28.9,8,29.1,8,29.3,8c0.1,0,0.2,0,0.4-0.1c0.1,0,0.2-0.1,0.3-0.2l0.4,0.4c-0.1,0.1-0.3,0.2-0.5,0.3c-0.2,0.1-0.4,0.1-0.5,0.1
			C29.1,8.6,28.8,8.5,28.6,8.4z"/>
		<path class="st2" d="M31.3,5.6h0.6v3h-0.6V5.6z M32.7,6.2c-0.1,0-0.2,0-0.3,0c-0.2,0-0.3,0.1-0.4,0.2s-0.2,0.2-0.2,0.4l-0.1-0.6
			c0.1-0.2,0.2-0.3,0.4-0.4c0.1-0.1,0.3-0.1,0.5-0.1c0.1,0,0.3,0,0.4,0.1c0.1,0,0.2,0.1,0.3,0.2l-0.4,0.5
			C32.8,6.2,32.8,6.2,32.7,6.2z"/>
		<path class="st2" d="M36.4,6.8h2.3v0.9h-2.3V6.8z M37.2,11.6c-0.2-0.2-0.3-0.6-0.3-1V5.3h1v5.2c0,0.1,0,0.2,0.1,0.3
			c0,0.1,0.1,0.1,0.2,0.1h0.5v0.9h-0.6C37.7,11.9,37.4,11.8,37.2,11.6z"/>
		<path class="st2" d="M40,4.8h1v1h-1V4.8z M40,6.8h1v5.1h-1V6.8z"/>
		<path class="st2" d="M42.5,6.8h1v5.1h-1V6.8z M45,7.8c-0.1-0.1-0.3-0.1-0.5-0.1c-0.3,0-0.6,0.1-0.7,0.3c-0.2,0.2-0.3,0.4-0.3,0.7
			l-0.1-1C43.6,7.4,43.8,7.2,44,7c0.2-0.2,0.5-0.3,0.8-0.3c0.2,0,0.4,0,0.6,0.1C45.7,6.9,45.8,7,46,7.1L45.3,8
			C45.2,7.9,45.1,7.8,45,7.8z"/>
		<path class="st2" d="M47,11.6c-0.3-0.3-0.5-0.7-0.5-1.2c0-0.5,0.1-0.9,0.4-1.1s0.7-0.4,1.3-0.4h1.4l0.1,0.8h-1.5
			c-0.3,0-0.5,0.1-0.6,0.2c-0.1,0.1-0.2,0.3-0.2,0.5c0,0.3,0.1,0.4,0.3,0.6s0.4,0.2,0.8,0.2c0.4,0,0.7,0,0.9-0.1s0.3-0.2,0.3-0.4
			l0.1,0.7c-0.1,0.1-0.2,0.2-0.3,0.3s-0.3,0.2-0.4,0.2c-0.2,0-0.4,0.1-0.6,0.1C47.8,12,47.3,11.8,47,11.6z M49.7,8.7
			c0-0.3-0.1-0.6-0.3-0.8c-0.2-0.2-0.4-0.3-0.8-0.3c-0.2,0-0.4,0-0.6,0.1S47.7,7.9,47.5,8l-0.7-0.5c0.2-0.2,0.4-0.4,0.8-0.5
			c0.3-0.1,0.7-0.2,1-0.2c0.4,0,0.8,0.1,1.1,0.2c0.3,0.1,0.5,0.4,0.7,0.6c0.2,0.3,0.2,0.6,0.2,1v3.3h-0.9V8.7z"/>
		<path class="st2" d="M52.8,11.7c-0.3-0.2-0.5-0.4-0.6-0.7S52,10.3,52,9.9V8.8C52,8.4,52,8,52.2,7.7s0.3-0.5,0.6-0.7
			c0.3-0.2,0.6-0.2,0.9-0.2c0.3,0,0.6,0.1,0.8,0.2s0.5,0.4,0.6,0.7l-0.1,1c0-0.2,0-0.4-0.1-0.6s-0.2-0.3-0.3-0.3
			c-0.1-0.1-0.3-0.1-0.5-0.1c-0.3,0-0.6,0.1-0.8,0.3S53,8.4,53,8.8v1.1c0,0.4,0.1,0.7,0.3,0.9c0.2,0.2,0.4,0.3,0.8,0.3
			c0.2,0,0.4,0,0.5-0.1c0.1-0.1,0.3-0.2,0.3-0.4S55,10.2,55,10l0.1,1.1c-0.1,0.3-0.3,0.5-0.5,0.6S54.1,12,53.7,12
			C53.4,12,53,11.9,52.8,11.7z M52.8,13.7c-0.3-0.1-0.5-0.3-0.7-0.6l0.7-0.6c0.1,0.2,0.3,0.3,0.5,0.4s0.4,0.1,0.6,0.1
			c0.4,0,0.7-0.1,0.9-0.3c0.2-0.2,0.3-0.5,0.3-0.9V6.8h1v4.9c0,0.5-0.1,0.9-0.3,1.2s-0.4,0.6-0.7,0.8s-0.7,0.3-1.2,0.3
			C53.4,13.9,53.1,13.9,52.8,13.7z"/>
		<path class="st2" d="M58.4,11.7c-0.3-0.2-0.6-0.4-0.8-0.8c-0.2-0.3-0.3-0.8-0.3-1.2V9.1c0-0.5,0.1-0.9,0.3-1.3S58,7.2,58.3,7
			s0.7-0.3,1.2-0.3c0.4,0,0.8,0.1,1.1,0.3s0.5,0.5,0.7,0.9s0.2,0.9,0.2,1.4v0.3h-3.4V8.9h2.5c0-0.4-0.1-0.7-0.3-1
			c-0.2-0.2-0.4-0.3-0.7-0.3c-0.4,0-0.7,0.1-0.9,0.4s-0.3,0.6-0.3,1v0.6c0,0.4,0.1,0.7,0.3,1s0.5,0.3,0.9,0.3c0.2,0,0.4,0,0.6-0.1
			s0.4-0.2,0.5-0.3l0.7,0.7c-0.3,0.2-0.5,0.4-0.8,0.6c-0.3,0.1-0.6,0.2-0.9,0.2C59.1,12,58.7,11.9,58.4,11.7z"/>
	</g>
</g>
<g>
	<g>
		<path class="st2" d="M2.2,29.1l2.5-3.3c0.1-0.2,0.3-0.4,0.3-0.6C5,25,5.1,24.9,5.1,24.7v0c0-0.3-0.1-0.5-0.2-0.7s-0.4-0.2-0.7-0.2
			c-0.3,0-0.5,0.1-0.7,0.3c-0.2,0.2-0.3,0.4-0.3,0.7v0h-1v0c0.1-0.4,0.2-0.8,0.4-1c0.2-0.3,0.4-0.5,0.7-0.7c0.3-0.2,0.6-0.2,1-0.2
			c0.4,0,0.8,0.1,1.1,0.2c0.3,0.1,0.5,0.4,0.7,0.6s0.2,0.6,0.2,1v0c0,0.3-0.1,0.5-0.2,0.8S5.7,26,5.5,26.3l-2.1,2.8h2.7V30h-4V29.1z
			"/>
		<path class="st2" d="M7.7,26.6c-0.2-0.1-0.3-0.3-0.4-0.5s-0.2-0.4-0.2-0.7v-0.3c0-0.3,0-0.5,0.1-0.7c0.1-0.2,0.2-0.4,0.4-0.5
			c0.2-0.1,0.4-0.2,0.7-0.2c0.2,0,0.5,0.1,0.6,0.2c0.2,0.1,0.3,0.3,0.4,0.5c0.1,0.2,0.1,0.5,0.1,0.8v0.2h-2V25h1.4
			c0-0.2-0.1-0.4-0.2-0.6c-0.1-0.1-0.3-0.2-0.4-0.2c-0.2,0-0.4,0.1-0.5,0.2c-0.1,0.1-0.2,0.3-0.2,0.6v0.4c0,0.2,0.1,0.4,0.2,0.6
			c0.1,0.1,0.3,0.2,0.5,0.2c0.1,0,0.2,0,0.4-0.1C8.8,26,8.9,26,9,25.9l0.4,0.4c-0.1,0.1-0.3,0.2-0.5,0.3c-0.2,0.1-0.4,0.1-0.5,0.1
			C8.1,26.7,7.9,26.7,7.7,26.6z M7.3,22.2l0.4-0.3l0.8,1l-0.4,0.3L7.3,22.2z"/>
		<path class="st2" d="M10.3,23.7h0.6v3h-0.6V23.7z M12,24.9c0-0.2-0.1-0.4-0.2-0.5c-0.1-0.1-0.2-0.2-0.4-0.2
			c-0.2,0-0.3,0.1-0.4,0.2s-0.2,0.2-0.2,0.4l-0.1-0.6c0.1-0.2,0.2-0.3,0.4-0.4c0.1-0.1,0.3-0.1,0.5-0.1c0.2,0,0.4,0,0.5,0.1
			c0.1,0.1,0.3,0.2,0.3,0.4c0.1,0.2,0.1,0.4,0.1,0.7v1.8H12V24.9z M13.8,24.9c0-0.2-0.1-0.4-0.2-0.5c-0.1-0.1-0.3-0.2-0.5-0.2
			c-0.2,0-0.3,0.1-0.4,0.2s-0.1,0.3-0.1,0.5l-0.1-0.6c0.1-0.2,0.2-0.3,0.4-0.5c0.2-0.1,0.3-0.2,0.5-0.2c0.2,0,0.4,0,0.5,0.1
			s0.3,0.2,0.3,0.4c0.1,0.2,0.1,0.4,0.1,0.7v1.8h-0.6V24.9z"/>
		<path class="st2" d="M15.8,26.6c-0.2-0.1-0.3-0.3-0.4-0.5s-0.2-0.4-0.2-0.7v-0.3c0-0.3,0-0.5,0.1-0.7c0.1-0.2,0.2-0.4,0.4-0.5
			c0.2-0.1,0.4-0.2,0.7-0.2c0.2,0,0.5,0.1,0.6,0.2c0.2,0.1,0.3,0.3,0.4,0.5c0.1,0.2,0.1,0.5,0.1,0.8v0.2h-2V25H17
			c0-0.2-0.1-0.4-0.2-0.6c-0.1-0.1-0.3-0.2-0.4-0.2c-0.2,0-0.4,0.1-0.5,0.2c-0.1,0.1-0.2,0.3-0.2,0.6v0.4c0,0.2,0.1,0.4,0.2,0.6
			c0.1,0.1,0.3,0.2,0.5,0.2c0.1,0,0.2,0,0.4-0.1c0.1,0,0.2-0.1,0.3-0.2l0.4,0.4c-0.1,0.1-0.3,0.2-0.5,0.3c-0.2,0.1-0.4,0.1-0.5,0.1
			C16.2,26.7,16,26.7,15.8,26.6z"/>
		<path class="st2" d="M21,24.9h2.3v0.9H21V24.9z M21.8,29.7c-0.2-0.2-0.3-0.6-0.3-1v-5.2h1v5.2c0,0.1,0,0.2,0.1,0.3
			c0,0.1,0.1,0.1,0.2,0.1h0.5V30h-0.6C22.3,30,22,29.9,21.8,29.7z"/>
		<path class="st2" d="M24.7,22.9h1v1h-1V22.9z M24.7,24.9h1V30h-1V24.9z"/>
		<path class="st2" d="M27.2,24.9h1V30h-1V24.9z M29.6,25.9c-0.1-0.1-0.3-0.1-0.5-0.1c-0.3,0-0.6,0.1-0.7,0.3
			c-0.2,0.2-0.3,0.4-0.3,0.7l-0.1-1c0.2-0.3,0.4-0.5,0.6-0.7c0.2-0.2,0.5-0.3,0.8-0.3c0.2,0,0.4,0,0.6,0.1c0.2,0.1,0.4,0.2,0.5,0.3
			L30,26.1C29.9,26,29.8,25.9,29.6,25.9z"/>
		<path class="st2" d="M31.7,29.7c-0.3-0.3-0.5-0.7-0.5-1.2c0-0.5,0.1-0.9,0.4-1.1s0.7-0.4,1.3-0.4h1.4l0.1,0.8h-1.5
			c-0.3,0-0.5,0.1-0.6,0.2c-0.1,0.1-0.2,0.3-0.2,0.5c0,0.3,0.1,0.4,0.3,0.6s0.4,0.2,0.8,0.2c0.4,0,0.7,0,0.9-0.1s0.3-0.2,0.3-0.4
			l0.1,0.7c-0.1,0.1-0.2,0.2-0.3,0.3S33.8,30,33.6,30c-0.2,0-0.4,0.1-0.6,0.1C32.4,30.1,32,29.9,31.7,29.7z M34.3,26.8
			c0-0.3-0.1-0.6-0.3-0.8c-0.2-0.2-0.4-0.3-0.8-0.3c-0.2,0-0.4,0-0.6,0.1s-0.4,0.1-0.5,0.3l-0.7-0.5c0.2-0.2,0.4-0.4,0.8-0.5
			c0.3-0.1,0.7-0.2,1-0.2c0.4,0,0.8,0.1,1.1,0.2c0.3,0.1,0.5,0.4,0.7,0.6c0.2,0.3,0.2,0.6,0.2,1V30h-0.9V26.8z"/>
		<path class="st2" d="M37.4,29.9c-0.3-0.2-0.5-0.4-0.6-0.7s-0.2-0.7-0.2-1.1v-1.1c0-0.4,0.1-0.8,0.2-1.1s0.3-0.5,0.6-0.7
			c0.3-0.2,0.6-0.2,0.9-0.2c0.3,0,0.6,0.1,0.8,0.2s0.5,0.4,0.6,0.7l-0.1,1c0-0.2,0-0.4-0.1-0.6s-0.2-0.3-0.3-0.3
			c-0.1-0.1-0.3-0.1-0.5-0.1c-0.3,0-0.6,0.1-0.8,0.3s-0.3,0.5-0.3,0.9V28c0,0.4,0.1,0.7,0.3,0.9c0.2,0.2,0.4,0.3,0.8,0.3
			c0.2,0,0.4,0,0.5-0.1c0.1-0.1,0.3-0.2,0.3-0.4s0.1-0.3,0.1-0.6l0.1,1.1c-0.1,0.3-0.3,0.5-0.5,0.6s-0.5,0.3-0.8,0.3
			C38,30.1,37.7,30,37.4,29.9z M37.4,31.9c-0.3-0.1-0.5-0.3-0.7-0.6l0.7-0.6c0.1,0.2,0.3,0.3,0.5,0.4s0.4,0.1,0.6,0.1
			c0.4,0,0.7-0.1,0.9-0.3c0.2-0.2,0.3-0.5,0.3-0.9v-5.1h1v4.9c0,0.5-0.1,0.9-0.3,1.2s-0.4,0.6-0.7,0.8s-0.7,0.3-1.2,0.3
			C38.1,32.1,37.7,32,37.4,31.9z"/>
		<path class="st2" d="M43,29.8c-0.3-0.2-0.6-0.4-0.8-0.8c-0.2-0.3-0.3-0.8-0.3-1.2v-0.6c0-0.5,0.1-0.9,0.3-1.3s0.4-0.6,0.7-0.8
			s0.7-0.3,1.2-0.3c0.4,0,0.8,0.1,1.1,0.3s0.5,0.5,0.7,0.9s0.2,0.9,0.2,1.4v0.3h-3.4v-0.8h2.5c0-0.4-0.1-0.7-0.3-1
			c-0.2-0.2-0.4-0.3-0.7-0.3c-0.4,0-0.7,0.1-0.9,0.4s-0.3,0.6-0.3,1v0.6c0,0.4,0.1,0.7,0.3,1s0.5,0.3,0.9,0.3c0.2,0,0.4,0,0.6-0.1
			s0.4-0.2,0.5-0.3l0.7,0.7c-0.3,0.2-0.5,0.4-0.8,0.6c-0.3,0.1-0.6,0.2-0.9,0.2C43.8,30.1,43.4,30,43,29.8z"/>
	</g>
</g>
<g>
	<g>
		<path class="st2" d="M91.6,13.9H93v9.9h-1.4V13.9z M92.2,18.4h3.4c0.3,0,0.5-0.1,0.7-0.2s0.4-0.3,0.5-0.5c0.1-0.2,0.2-0.5,0.2-0.8
			s-0.1-0.6-0.2-0.8c-0.1-0.2-0.3-0.4-0.5-0.5s-0.4-0.2-0.7-0.2h-3.4v-1.3h3.3c0.6,0,1.1,0.1,1.5,0.4s0.8,0.6,1,1
			c0.2,0.4,0.4,0.9,0.4,1.5s-0.1,1.1-0.4,1.5c-0.2,0.4-0.6,0.8-1,1s-0.9,0.4-1.5,0.4h-3.3V18.4z M94.9,19.4l1.4-0.3l2.5,4.8h-1.7
			L94.9,19.4z"/>
	</g>
</g>
<g>
	<g>
		<path class="st2" d="M29,44.8h1.4v9.9H29V44.8z M29.6,49.3H33c0.3,0,0.5-0.1,0.7-0.2s0.4-0.3,0.5-0.5c0.1-0.2,0.2-0.5,0.2-0.8
			s-0.1-0.6-0.2-0.8c-0.1-0.2-0.3-0.4-0.5-0.5s-0.4-0.2-0.7-0.2h-3.4v-1.3H33c0.6,0,1.1,0.1,1.5,0.4s0.8,0.6,1,1
			c0.2,0.4,0.4,0.9,0.4,1.5s-0.1,1.1-0.4,1.5c-0.2,0.4-0.6,0.8-1,1s-0.9,0.4-1.5,0.4h-3.3V49.3z M32.3,50.3l1.4-0.3l2.5,4.8h-1.7
			L32.3,50.3z"/>
	</g>
</g>
<g>
	<g>
		<path class="st2" d="M155.9,11.9h1.3l4.9,7.7l-0.2,0.2v-7.9h1.4v9.9h-1.3l-4.8-7.6l0.2-0.2v7.7h-1.4V11.9z"/>
		<path class="st2" d="M166.4,26.5h-0.8v-4.9l-0.8,0.5v-0.8l0.8-0.5h0.8V26.5z"/>
	</g>
</g>
<g>
	<g>
		<path class="st2" d="M220.1,11.3h1.3l4.9,7.7l-0.2,0.2v-7.9h1.4v9.9h-1.3l-4.8-7.6l0.2-0.2v7.7h-1.4V11.3z"/>
		<path class="st2" d="M229.2,25.2l2-2.7c0.1-0.2,0.2-0.3,0.3-0.5c0.1-0.2,0.1-0.3,0.1-0.5v0c0-0.2-0.1-0.4-0.2-0.5
			c-0.1-0.1-0.3-0.2-0.6-0.2c-0.2,0-0.4,0.1-0.6,0.2c-0.1,0.1-0.2,0.3-0.3,0.6v0h-0.8v0c0-0.3,0.1-0.6,0.3-0.9
			c0.1-0.2,0.3-0.4,0.6-0.5c0.2-0.1,0.5-0.2,0.8-0.2c0.3,0,0.6,0.1,0.9,0.2s0.4,0.3,0.6,0.5c0.1,0.2,0.2,0.5,0.2,0.8v0
			c0,0.2,0,0.4-0.1,0.6c-0.1,0.2-0.2,0.4-0.4,0.6l-1.7,2.3h2.2v0.8h-3.3V25.2z"/>
	</g>
</g>
<g>
	<g>
		<path class="st2" d="M27.3,73.4h1.3l4.9,7.7l-0.2,0.2v-7.9h1.4v9.9h-1.3l-4.8-7.6l0.2-0.2v7.7h-1.4V73.4z"/>
		<path class="st2" d="M37.9,88h-0.8v-4.9l-0.8,0.5v-0.8l0.8-0.5h0.8V88z"/>
	</g>
</g>
<g>
	<g>
		<path class="st2" d="M26.6,105.1h1.3l4.9,7.7l-0.2,0.2v-7.9h1.4v9.9h-1.3l-4.8-7.6l0.2-0.2v7.7h-1.4V105.1z"/>
		<path class="st2" d="M35.6,119l2-2.7c0.1-0.2,0.2-0.3,0.3-0.5s0.1-0.3,0.1-0.5v0c0-0.2-0.1-0.4-0.2-0.5c-0.1-0.1-0.3-0.2-0.6-0.2
			c-0.2,0-0.4,0.1-0.6,0.2s-0.2,0.3-0.3,0.6v0h-0.8v0c0-0.3,0.1-0.6,0.3-0.9c0.1-0.2,0.3-0.4,0.6-0.5c0.2-0.1,0.5-0.2,0.8-0.2
			c0.3,0,0.6,0.1,0.9,0.2c0.2,0.1,0.4,0.3,0.6,0.5c0.1,0.2,0.2,0.5,0.2,0.8v0c0,0.2,0,0.4-0.1,0.6c-0.1,0.2-0.2,0.4-0.4,0.6
			l-1.7,2.3h2.2v0.8h-3.3V119z"/>
	</g>
</g>
<g>
	<g>
		<path class="st2" d="M81.3,53.8c-0.4-1.1-0.6-2.3-0.6-3.6s0.2-2.5,0.6-3.6c0.4-1.1,1-2.1,1.8-3l1,0.9c-0.7,0.8-1.2,1.6-1.5,2.6
			S82,49,82,50.2s0.2,2.2,0.5,3.1s0.9,1.8,1.5,2.6l-1,0.9C82.3,55.9,81.7,54.9,81.3,53.8z"/>
		<path class="st2" d="M85.5,44.6h1.4v9.9h-1.4V44.6z M86.1,49.1h3.4c0.3,0,0.5-0.1,0.7-0.2s0.4-0.3,0.5-0.5
			c0.1-0.2,0.2-0.5,0.2-0.8s-0.1-0.6-0.2-0.8c-0.1-0.2-0.3-0.4-0.5-0.5S89.7,46,89.5,46h-3.4v-1.3h3.3c0.6,0,1.1,0.1,1.5,0.4
			s0.8,0.6,1,1c0.2,0.4,0.4,0.9,0.4,1.5s-0.1,1.1-0.4,1.5c-0.2,0.4-0.6,0.8-1,1s-0.9,0.4-1.5,0.4h-3.3V49.1z M88.8,50.1l1.4-0.3
			l2.5,4.8h-1.7L88.8,50.1z"/>
		<path class="st2" d="M94.2,47.4h1.5v1.5h-1.5V47.4z M94.2,53.1h1.5v2.2l-1.5,1.5V53.1z"/>
		<path class="st2" d="M97.8,44.6h1.4v9.9h-1.4V44.6z M98.4,49.1h3.4c0.3,0,0.5-0.1,0.7-0.2s0.4-0.3,0.5-0.5
			c0.1-0.2,0.2-0.5,0.2-0.8s-0.1-0.6-0.2-0.8c-0.1-0.2-0.3-0.4-0.5-0.5S102,46,101.8,46h-3.4v-1.3h3.3c0.6,0,1.1,0.1,1.5,0.4
			s0.8,0.6,1,1c0.2,0.4,0.4,0.9,0.4,1.5s-0.1,1.1-0.4,1.5c-0.2,0.4-0.6,0.8-1,1s-0.9,0.4-1.5,0.4h-3.3V49.1z M101.1,50.1l1.4-0.3
			l2.5,4.8h-1.7L101.1,50.1z"/>
		<path class="st2" d="M105.8,55.9c0.7-0.8,1.2-1.6,1.5-2.6s0.5-2,0.5-3.1s-0.2-2.2-0.5-3.1s-0.9-1.8-1.5-2.6l1-0.9
			c0.8,0.9,1.4,1.9,1.8,3c0.4,1.1,0.6,2.3,0.6,3.6s-0.2,2.5-0.6,3.6c-0.4,1.1-1,2.1-1.8,3L105.8,55.9z"/>
	</g>
</g>
<g>
	<g>
		<path class="st2" d="M79.6,82c-0.4-1.1-0.6-2.3-0.6-3.6s0.2-2.5,0.6-3.6c0.4-1.1,1-2.1,1.8-3l1,0.9c-0.7,0.8-1.2,1.6-1.5,2.6
			s-0.5,2-0.5,3.1s0.2,2.2,0.5,3.1s0.9,1.8,1.5,2.6l-1,0.9C80.6,84.1,80,83.1,79.6,82z"/>
		<path class="st2" d="M83.8,72.9H85l4.9,7.7l-0.2,0.2v-7.9h1.4v9.9h-1.3L85,75.3l0.2-0.2v7.7h-1.4V72.9z"/>
		<path class="st2" d="M94.3,87.5h-0.8v-4.9l-0.8,0.5v-0.8l0.8-0.5h0.8V87.5z"/>
		<path class="st2" d="M95.9,75.7h1.5v1.5h-1.5V75.7z M95.9,81.4h1.5v2.2l-1.5,1.5V81.4z"/>
		<path class="st2" d="M99.5,72.9h1.4v9.9h-1.4V72.9z M100.1,77.3h3.4c0.3,0,0.5-0.1,0.7-0.2s0.4-0.3,0.5-0.5
			c0.1-0.2,0.2-0.5,0.2-0.8s-0.1-0.6-0.2-0.8c-0.1-0.2-0.3-0.4-0.5-0.5s-0.4-0.2-0.7-0.2h-3.4v-1.3h3.3c0.6,0,1.1,0.1,1.5,0.4
			s0.8,0.6,1,1c0.2,0.4,0.4,0.9,0.4,1.5s-0.1,1.1-0.4,1.5c-0.2,0.4-0.6,0.8-1,1s-0.9,0.4-1.5,0.4h-3.3V77.3z M102.8,78.3l1.4-0.3
			l2.5,4.8h-1.7L102.8,78.3z"/>
		<path class="st2" d="M107.5,84.1c0.7-0.8,1.2-1.6,1.5-2.6s0.5-2,0.5-3.1s-0.2-2.2-0.5-3.1s-0.9-1.8-1.5-2.6l1-0.9
			c0.8,0.9,1.4,1.9,1.8,3c0.4,1.1,0.6,2.3,0.6,3.6s-0.2,2.5-0.6,3.6c-0.4,1.1-1,2.1-1.8,3L107.5,84.1z"/>
	</g>
</g>
<g>
	<g>
		<path class="st2" d="M78.9,115.8c-0.4-1.1-0.6-2.3-0.6-3.6s0.2-2.5,0.6-3.6c0.4-1.1,1-2.1,1.8-3l1,0.9c-0.7,0.8-1.2,1.6-1.5,2.6
			s-0.5,2-0.5,3.1s0.2,2.2,0.5,3.1s0.9,1.8,1.5,2.6l-1,0.9C79.9,117.9,79.3,116.9,78.9,115.8z"/>
		<path class="st2" d="M83,106.7h1.3l4.9,7.7l-0.2,0.2v-7.9h1.4v9.9h-1.3l-4.8-7.6l0.2-0.2v7.7H83V106.7z"/>
		<path class="st2" d="M92.1,120.6l2-2.7c0.1-0.2,0.2-0.3,0.3-0.5s0.1-0.3,0.1-0.5v0c0-0.2-0.1-0.4-0.2-0.5
			c-0.1-0.1-0.3-0.2-0.6-0.2c-0.2,0-0.4,0.1-0.6,0.2s-0.2,0.3-0.3,0.6v0H92v0c0-0.3,0.1-0.6,0.3-0.9c0.1-0.2,0.3-0.4,0.6-0.5
			c0.2-0.1,0.5-0.2,0.8-0.2c0.3,0,0.6,0.1,0.9,0.2c0.2,0.1,0.4,0.3,0.6,0.5c0.1,0.2,0.2,0.5,0.2,0.8v0c0,0.2,0,0.4-0.1,0.6
			c-0.1,0.2-0.2,0.4-0.4,0.6l-1.7,2.3h2.2v0.8h-3.3V120.6z"/>
		<path class="st2" d="M96.7,109.5h1.5v1.5h-1.5V109.5z M96.7,115.2h1.5v2.2l-1.5,1.5V115.2z"/>
		<path class="st2" d="M100.2,106.7h1.4v9.9h-1.4V106.7z M100.8,111.1h3.4c0.3,0,0.5-0.1,0.7-0.2s0.4-0.3,0.5-0.5
			c0.1-0.2,0.2-0.5,0.2-0.8s-0.1-0.6-0.2-0.8c-0.1-0.2-0.3-0.4-0.5-0.5s-0.4-0.2-0.7-0.2h-3.4v-1.3h3.3c0.6,0,1.1,0.1,1.5,0.4
			s0.8,0.6,1,1c0.2,0.4,0.4,0.9,0.4,1.5s-0.1,1.1-0.4,1.5c-0.2,0.4-0.6,0.8-1,1s-0.9,0.4-1.5,0.4h-3.3V111.1z M103.5,112.1l1.4-0.3
			l2.5,4.8h-1.7L103.5,112.1z"/>
		<path class="st2" d="M108.2,117.9c0.7-0.8,1.2-1.6,1.5-2.6s0.5-2,0.5-3.1s-0.2-2.2-0.5-3.1s-0.9-1.8-1.5-2.6l1-0.9
			c0.8,0.9,1.4,1.9,1.8,3c0.4,1.1,0.6,2.3,0.6,3.6s-0.2,2.5-0.6,3.6c-0.4,1.1-1,2.1-1.8,3L108.2,117.9z"/>
	</g>
</g>
<g>
	<g>
		<path class="st2" d="M145.6,51.8c-0.4-1.1-0.6-2.3-0.6-3.6s0.2-2.5,0.6-3.6c0.4-1.1,1-2.1,1.8-3l1,0.9c-0.7,0.8-1.2,1.6-1.5,2.6
			s-0.5,2-0.5,3.1s0.2,2.2,0.5,3.1s0.9,1.8,1.5,2.6l-1,0.9C146.6,53.9,146,52.9,145.6,51.8z"/>
		<path class="st2" d="M149.7,42.7h1.4v9.9h-1.4V42.7z M150.3,47.1h3.4c0.3,0,0.5-0.1,0.7-0.2s0.4-0.3,0.5-0.5
			c0.1-0.2,0.2-0.5,0.2-0.8s-0.1-0.6-0.2-0.8c-0.1-0.2-0.3-0.4-0.5-0.5c-0.2-0.1-0.4-0.2-0.7-0.2h-3.4v-1.3h3.3
			c0.6,0,1.1,0.1,1.5,0.4c0.4,0.2,0.8,0.6,1,1c0.2,0.4,0.4,0.9,0.4,1.5s-0.1,1.1-0.4,1.5c-0.2,0.4-0.6,0.8-1,1
			c-0.4,0.2-0.9,0.4-1.5,0.4h-3.3V47.1z M153,48.1l1.4-0.3l2.5,4.8h-1.7L153,48.1z"/>
		<path class="st2" d="M158.5,45.5h1.5V47h-1.5V45.5z M158.5,51.2h1.5v2.2l-1.5,1.5V51.2z"/>
		<path class="st2" d="M162,42.7h1.3l4.9,7.7l-0.2,0.2v-7.9h1.4v9.9h-1.3l-4.8-7.6l0.2-0.2v7.7H162V42.7z"/>
		<path class="st2" d="M172.6,57.3h-0.8v-4.9l-0.8,0.5v-0.8l0.8-0.5h0.8V57.3z"/>
		<path class="st2" d="M173.4,53.9c0.7-0.8,1.2-1.6,1.5-2.6s0.5-2,0.5-3.1s-0.2-2.2-0.5-3.1s-0.9-1.8-1.5-2.6l1-0.9
			c0.8,0.9,1.4,1.9,1.8,3c0.4,1.1,0.6,2.3,0.6,3.6s-0.2,2.5-0.6,3.6c-0.4,1.1-1,2.1-1.8,3L173.4,53.9z"/>
	</g>
</g>
<g>
	<g>
		<path class="st2" d="M143.9,83c-0.4-1.1-0.6-2.3-0.6-3.6s0.2-2.5,0.6-3.6c0.4-1.1,1-2.1,1.8-3l1,0.9c-0.7,0.8-1.2,1.6-1.5,2.6
			s-0.5,2-0.5,3.1s0.2,2.2,0.5,3.1s0.9,1.8,1.5,2.6l-1,0.9C144.9,85.1,144.3,84.1,143.9,83z"/>
		<path class="st2" d="M148,73.9h1.3l4.9,7.7l-0.2,0.2v-7.9h1.4v9.9h-1.3l-4.8-7.6l0.2-0.2v7.7H148V73.9z"/>
		<path class="st2" d="M158.6,88.5h-0.8v-4.9l-0.8,0.5v-0.8l0.8-0.5h0.8V88.5z"/>
		<path class="st2" d="M160.2,76.7h1.5v1.5h-1.5V76.7z M160.2,82.4h1.5v2.2l-1.5,1.5V82.4z"/>
		<path class="st2" d="M163.7,73.9h1.3l4.9,7.7l-0.2,0.2v-7.9h1.4v9.9h-1.3l-4.8-7.6l0.2-0.2v7.7h-1.4V73.9z"/>
		<path class="st2" d="M174.3,88.5h-0.8v-4.9l-0.8,0.5v-0.8l0.8-0.5h0.8V88.5z"/>
		<path class="st2" d="M175.1,85.1c0.7-0.8,1.2-1.6,1.5-2.6s0.5-2,0.5-3.1s-0.2-2.2-0.5-3.1s-0.9-1.8-1.5-2.6l1-0.9
			c0.8,0.9,1.4,1.9,1.8,3c0.4,1.1,0.6,2.3,0.6,3.6s-0.2,2.5-0.6,3.6c-0.4,1.1-1,2.1-1.8,3L175.1,85.1z"/>
	</g>
</g>
<g>
	<g>
		<path class="st2" d="M209.8,51.2c-0.4-1.1-0.6-2.3-0.6-3.6s0.2-2.5,0.6-3.6c0.4-1.1,1-2.1,1.8-3l1,0.9c-0.7,0.8-1.2,1.6-1.5,2.6
			s-0.5,2-0.5,3.1s0.2,2.2,0.5,3.1s0.9,1.8,1.5,2.6l-1,0.9C210.8,53.3,210.2,52.3,209.8,51.2z"/>
		<path class="st2" d="M213.9,42.1h1.4v9.9h-1.4V42.1z M214.5,46.5h3.4c0.3,0,0.5-0.1,0.7-0.2s0.4-0.3,0.5-0.5
			c0.1-0.2,0.2-0.5,0.2-0.8s-0.1-0.6-0.2-0.8c-0.1-0.2-0.3-0.4-0.5-0.5c-0.2-0.1-0.4-0.2-0.7-0.2h-3.4v-1.3h3.3
			c0.6,0,1.1,0.1,1.5,0.4c0.4,0.2,0.8,0.6,1,1c0.2,0.4,0.4,0.9,0.4,1.5s-0.1,1.1-0.4,1.5c-0.2,0.4-0.6,0.8-1,1
			c-0.4,0.2-0.9,0.4-1.5,0.4h-3.3V46.5z M217.2,47.6l1.4-0.3l2.5,4.8h-1.7L217.2,47.6z"/>
		<path class="st2" d="M222.7,44.9h1.5v1.5h-1.5V44.9z M222.7,50.6h1.5v2.2l-1.5,1.5V50.6z"/>
		<path class="st2" d="M226.2,42.1h1.3l4.9,7.7l-0.2,0.2v-7.9h1.4v9.9h-1.3l-4.8-7.6l0.2-0.2v7.7h-1.4V42.1z"/>
		<path class="st2" d="M235.3,56l2-2.7c0.1-0.2,0.2-0.3,0.3-0.5c0.1-0.2,0.1-0.3,0.1-0.5v0c0-0.2-0.1-0.4-0.2-0.5
			c-0.1-0.1-0.3-0.2-0.6-0.2c-0.2,0-0.4,0.1-0.6,0.2c-0.1,0.1-0.2,0.3-0.3,0.6v0h-0.8v0c0-0.3,0.1-0.6,0.3-0.9
			c0.1-0.2,0.3-0.4,0.6-0.5c0.2-0.1,0.5-0.2,0.8-0.2c0.3,0,0.6,0.1,0.9,0.2s0.4,0.3,0.6,0.5c0.1,0.2,0.2,0.5,0.2,0.8v0
			c0,0.2,0,0.4-0.1,0.6c-0.1,0.2-0.2,0.4-0.4,0.6l-1.7,2.3h2.2v0.8h-3.3V56z"/>
		<path class="st2" d="M239.1,53.3c0.7-0.8,1.2-1.6,1.5-2.6s0.5-2,0.5-3.1s-0.2-2.2-0.5-3.1s-0.9-1.8-1.5-2.6l1-0.9
			c0.8,0.9,1.4,1.9,1.8,3c0.4,1.1,0.6,2.3,0.6,3.6s-0.2,2.5-0.6,3.6c-0.4,1.1-1,2.1-1.8,3L239.1,53.3z"/>
	</g>
</g>
<g>
	<g>
		<path class="st2" d="M143.1,115c-0.4-1.1-0.6-2.3-0.6-3.6s0.2-2.5,0.6-3.6c0.4-1.1,1-2.1,1.8-3l1,0.9c-0.7,0.8-1.2,1.6-1.5,2.6
			s-0.5,2-0.5,3.1s0.2,2.2,0.5,3.1s0.9,1.8,1.5,2.6l-1,0.9C144.1,117.1,143.5,116.1,143.1,115z"/>
		<path class="st2" d="M147.3,105.9h1.3l4.9,7.7l-0.2,0.2v-7.9h1.4v9.9h-1.3l-4.8-7.6l0.2-0.2v7.7h-1.4V105.9z"/>
		<path class="st2" d="M156.3,119.8l2-2.7c0.1-0.2,0.2-0.3,0.3-0.5c0.1-0.2,0.1-0.3,0.1-0.5v0c0-0.2-0.1-0.4-0.2-0.5
			c-0.1-0.1-0.3-0.2-0.6-0.2c-0.2,0-0.4,0.1-0.6,0.2s-0.2,0.3-0.3,0.6v0h-0.8v0c0-0.3,0.1-0.6,0.3-0.9c0.1-0.2,0.3-0.4,0.6-0.5
			c0.2-0.1,0.5-0.2,0.8-0.2c0.3,0,0.6,0.1,0.9,0.2s0.4,0.3,0.6,0.5c0.1,0.2,0.2,0.5,0.2,0.8v0c0,0.2,0,0.4-0.1,0.6
			c-0.1,0.2-0.2,0.4-0.4,0.6l-1.7,2.3h2.2v0.8h-3.3V119.8z"/>
		<path class="st2" d="M160.9,108.7h1.5v1.5h-1.5V108.7z M160.9,114.4h1.5v2.2l-1.5,1.5V114.4z"/>
		<path class="st2" d="M164.5,105.9h1.3l4.9,7.7l-0.2,0.2v-7.9h1.4v9.9h-1.3l-4.8-7.6l0.2-0.2v7.7h-1.4V105.9z"/>
		<path class="st2" d="M175,120.5h-0.8v-4.9l-0.8,0.5v-0.8l0.8-0.5h0.8V120.5z"/>
		<path class="st2" d="M175.9,117.1c0.7-0.8,1.2-1.6,1.5-2.6s0.5-2,0.5-3.1s-0.2-2.2-0.5-3.1s-0.9-1.8-1.5-2.6l1-0.9
			c0.8,0.9,1.4,1.9,1.8,3c0.4,1.1,0.6,2.3,0.6,3.6s-0.2,2.5-0.6,3.6c-0.4,1.1-1,2.1-1.8,3L175.9,117.1z"/>
	</g>
</g>
<g>
	<g>
		<path class="st2" d="M208.1,81.5c-0.4-1.1-0.6-2.3-0.6-3.6s0.2-2.5,0.6-3.6c0.4-1.1,1-2.1,1.8-3l1,0.9c-0.7,0.8-1.2,1.6-1.5,2.6
			s-0.5,2-0.5,3.1s0.2,2.2,0.5,3.1s0.9,1.8,1.5,2.6l-1,0.9C209.1,83.6,208.5,82.6,208.1,81.5z"/>
		<path class="st2" d="M212.2,72.4h1.3l4.9,7.7l-0.2,0.2v-7.9h1.4v9.9h-1.3l-4.8-7.6l0.2-0.2v7.7h-1.4V72.4z"/>
		<path class="st2" d="M222.8,87H222v-4.9l-0.8,0.5v-0.8l0.8-0.5h0.8V87z"/>
		<path class="st2" d="M224.4,75.2h1.5v1.5h-1.5V75.2z M224.4,80.9h1.5v2.2l-1.5,1.5V80.9z"/>
		<path class="st2" d="M227.9,72.4h1.3l4.9,7.7l-0.2,0.2v-7.9h1.4v9.9H234l-4.8-7.6l0.2-0.2v7.7h-1.4V72.4z"/>
		<path class="st2" d="M237,86.3l2-2.7c0.1-0.2,0.2-0.3,0.3-0.5c0.1-0.2,0.1-0.3,0.1-0.5v0c0-0.2-0.1-0.4-0.2-0.5
			c-0.1-0.1-0.3-0.2-0.6-0.2c-0.2,0-0.4,0.1-0.6,0.2c-0.1,0.1-0.2,0.3-0.3,0.6v0h-0.8v0c0-0.3,0.1-0.6,0.3-0.9
			c0.1-0.2,0.3-0.4,0.6-0.5c0.2-0.1,0.5-0.2,0.8-0.2c0.3,0,0.6,0.1,0.9,0.2s0.4,0.3,0.6,0.5c0.1,0.2,0.2,0.5,0.2,0.8v0
			c0,0.2,0,0.4-0.1,0.6c-0.1,0.2-0.2,0.4-0.4,0.6l-1.7,2.3h2.2V87H237V86.3z"/>
		<path class="st2" d="M240.8,83.6c0.7-0.8,1.2-1.6,1.5-2.6s0.5-2,0.5-3.1s-0.2-2.2-0.5-3.1s-0.9-1.8-1.5-2.6l1-0.9
			c0.8,0.9,1.4,1.9,1.8,3c0.4,1.1,0.6,2.3,0.6,3.6s-0.2,2.5-0.6,3.6c-0.4,1.1-1,2.1-1.8,3L240.8,83.6z"/>
	</g>
</g>
<g>
	<g>
		<path class="st2" d="M207.3,113.5c-0.4-1.1-0.6-2.3-0.6-3.6s0.2-2.5,0.6-3.6c0.4-1.1,1-2.1,1.8-3l1,0.9c-0.7,0.8-1.2,1.6-1.5,2.6
			s-0.5,2-0.5,3.1s0.2,2.2,0.5,3.1s0.9,1.8,1.5,2.6l-1,0.9C208.3,115.5,207.7,114.6,207.3,113.5z"/>
		<path class="st2" d="M211.5,104.3h1.3l4.9,7.7l-0.2,0.2v-7.9h1.4v9.9h-1.3l-4.8-7.6l0.2-0.2v7.7h-1.4V104.3z"/>
		<path class="st2" d="M220.6,118.2l2-2.7c0.1-0.2,0.2-0.3,0.3-0.5c0.1-0.2,0.1-0.3,0.1-0.5v0c0-0.2-0.1-0.4-0.2-0.5
			c-0.1-0.1-0.3-0.2-0.6-0.2c-0.2,0-0.4,0.1-0.6,0.2c-0.1,0.1-0.2,0.3-0.3,0.6v0h-0.8v0c0-0.3,0.1-0.6,0.3-0.9
			c0.1-0.2,0.3-0.4,0.6-0.5c0.2-0.1,0.5-0.2,0.8-0.2c0.3,0,0.6,0.1,0.9,0.2c0.2,0.1,0.4,0.3,0.6,0.5s0.2,0.5,0.2,0.8v0
			c0,0.2,0,0.4-0.1,0.6c-0.1,0.2-0.2,0.4-0.4,0.6l-1.7,2.3h2.2v0.8h-3.3V118.2z"/>
		<path class="st2" d="M225.1,107.1h1.5v1.5h-1.5V107.1z M225.1,112.8h1.5v2.2l-1.5,1.5V112.8z"/>
		<path class="st2" d="M228.7,104.3h1.3l4.9,7.7l-0.2,0.2v-7.9h1.4v9.9h-1.3l-4.8-7.6l0.2-0.2v7.7h-1.4V104.3z"/>
		<path class="st2" d="M237.7,118.2l2-2.7c0.1-0.2,0.2-0.3,0.3-0.5c0.1-0.2,0.1-0.3,0.1-0.5v0c0-0.2-0.1-0.4-0.2-0.5
			c-0.1-0.1-0.3-0.2-0.6-0.2c-0.2,0-0.4,0.1-0.6,0.2c-0.1,0.1-0.2,0.3-0.3,0.6v0h-0.8v0c0-0.3,0.1-0.6,0.3-0.9
			c0.1-0.2,0.3-0.4,0.6-0.5c0.2-0.1,0.5-0.2,0.8-0.2c0.3,0,0.6,0.1,0.9,0.2s0.4,0.3,0.6,0.5c0.1,0.2,0.2,0.5,0.2,0.8v0
			c0,0.2,0,0.4-0.1,0.6c-0.1,0.2-0.2,0.4-0.4,0.6l-1.7,2.3h2.2v0.8h-3.3V118.2z"/>
		<path class="st2" d="M241.6,115.6c0.7-0.8,1.2-1.6,1.5-2.6s0.5-2,0.5-3.1s-0.2-2.2-0.5-3.1s-0.9-1.8-1.5-2.6l1-0.9
			c0.8,0.9,1.4,1.9,1.8,3c0.4,1.1,0.6,2.3,0.6,3.6s-0.2,2.5-0.6,3.6c-0.4,1.1-1,2.1-1.8,3L241.6,115.6z"/>
	</g>
</g>
</svg>
