<?xml version="1.0" encoding="utf-8"?>
<!-- Generator: Adobe Illustrator 28.0.0, SVG Export Plug-In . SVG Version: 6.00 Build 0)  -->
<svg version="1.1" id="Calque_1" xmlns:svgjs="http://svgjs.com/svgjs"
	 xmlns="http://www.w3.org/2000/svg" xmlns:xlink="http://www.w3.org/1999/xlink" x="0px" y="0px" viewBox="0 0 234.4 232.3"
	 style="enable-background:new 0 0 234.4 232.3;" xml:space="preserve">
<style type="text/css">
	.st0{fill:#0000FF;}
	.st1{fill:none;stroke:#000000;stroke-linecap:round;stroke-linejoin:round;stroke-opacity:0.5;}
	.st2{fill:none;stroke:#000000;stroke-width:0.5;stroke-linecap:round;stroke-linejoin:round;stroke-opacity:0.5;}
	.st3{fill:none;stroke:#000000;stroke-width:3;stroke-linecap:round;stroke-linejoin:round;}
	.st4{display:none;}
	.st5{display:inline;}
	.st6{font-family:'ArialMT';}
	.st7{font-size:12px;}
	.st8{display:inline;fill:none;stroke:#000000;stroke-width:3;stroke-linecap:round;stroke-linejoin:round;}
</style>
<g>
	<rect x="7.5" y="3.6" class="st0" width="74.2" height="74.2"/>
	<rect x="7.5" y="77.8" class="st0" width="74.2" height="74.2"/>
	<rect x="7.5" y="152" class="st0" width="74.2" height="74.2"/>
	<rect x="81.7" y="3.6" class="st0" width="74.2" height="74.2"/>
	<rect x="81.7" y="77.8" class="st0" width="74.2" height="74.2"/>
	<rect x="81.7" y="152" class="st0" width="74.2" height="74.2"/>
	<rect x="155.9" y="77.8" class="st0" width="74.2" height="74.2"/>
	<rect x="155.9" y="152" class="st0" width="74.2" height="74.2"/>
	<line class="st1" x1="-66.7" y1="-70.6" x2="-66.7" y2="300.4"/>
	<line class="st2" x1="-29.6" y1="-70.6" x2="-29.6" y2="300.4"/>
	<line class="st1" x1="7.5" y1="-70.6" x2="7.5" y2="300.4"/>
	<line class="st2" x1="44.6" y1="-70.6" x2="44.6" y2="300.4"/>
	<line class="st1" x1="81.7" y1="-70.6" x2="81.7" y2="300.4"/>
	<line class="st2" x1="118.8" y1="-70.6" x2="118.8" y2="300.4"/>
	<line class="st1" x1="155.9" y1="-70.6" x2="155.9" y2="300.4"/>
	<line class="st2" x1="193" y1="-70.6" x2="193" y2="300.4"/>
	<line class="st1" x1="230.1" y1="-70.6" x2="230.1" y2="300.4"/>
	<line class="st2" x1="267.2" y1="-70.6" x2="267.2" y2="300.4"/>
	<line class="st1" x1="304.3" y1="-70.6" x2="304.3" y2="300.4"/>
	<line class="st1" x1="-66.7" y1="-70.6" x2="304.3" y2="-70.6"/>
	<line class="st2" x1="-66.7" y1="-33.5" x2="304.3" y2="-33.5"/>
	<line class="st1" x1="-66.7" y1="3.6" x2="304.3" y2="3.6"/>
	<line class="st2" x1="-66.7" y1="40.7" x2="304.3" y2="40.7"/>
	<line class="st1" x1="-66.7" y1="77.8" x2="304.3" y2="77.8"/>
	<line class="st2" x1="-66.7" y1="114.9" x2="304.3" y2="114.9"/>
	<line class="st1" x1="-66.7" y1="152" x2="304.3" y2="152"/>
	<line class="st2" x1="-66.7" y1="189.1" x2="304.3" y2="189.1"/>
	<line class="st1" x1="-66.7" y1="226.2" x2="304.3" y2="226.2"/>
	<line class="st2" x1="-66.7" y1="263.3" x2="304.3" y2="263.3"/>
	<line class="st1" x1="-66.7" y1="300.4" x2="304.3" y2="300.4"/>
	<line class="st3" x1="7.5" y1="3.6" x2="7.5" y2="77.8"/>
	<line class="st3" x1="7.5" y1="77.8" x2="7.5" y2="152"/>
	<line class="st3" x1="7.5" y1="152" x2="7.5" y2="226.2"/>
	<line class="st3" x1="7.5" y1="3.6" x2="81.7" y2="3.6"/>
	<line class="st3" x1="7.5" y1="77.8" x2="81.7" y2="77.8"/>
	<line class="st3" x1="81.7" y1="77.8" x2="81.7" y2="152"/>
	<line class="st3" x1="81.7" y1="152" x2="81.7" y2="226.2"/>
	<line class="st3" x1="7.5" y1="226.2" x2="81.7" y2="226.2"/>
	<line class="st3" x1="81.7" y1="3.6" x2="155.9" y2="3.6"/>
	<line class="st3" x1="155.9" y1="3.6" x2="155.9" y2="77.8"/>
	<line class="st3" x1="81.7" y1="152" x2="155.9" y2="152"/>
	<line class="st3" x1="155.9" y1="152" x2="155.9" y2="226.2"/>
	<line class="st3" x1="81.7" y1="226.2" x2="155.9" y2="226.2"/>
	<line class="st3" x1="155.9" y1="77.8" x2="230.1" y2="77.8"/>
	<line class="st3" x1="230.1" y1="77.8" x2="230.1" y2="152"/>
	<line class="st3" x1="230.1" y1="152" x2="230.1" y2="226.2"/>
	<line class="st3" x1="155.9" y1="226.2" x2="230.1" y2="226.2"/>
	<text transform="matrix(1 0 0 1 -66.6809 -57.8345)" class="st7" style="font-family:'Arial-BoldMT';">Vue de gauche</text>
	
		<text transform="matrix(1 0 0 1 -66.6809 -57.8345)" class="st7" style="fill:none;stroke:#FFFFFF;stroke-width:5; font-family:'Arial-BoldMT';">Vue de gauche</text>
	<text transform="matrix(1 0 0 1 -66.6809 -57.8345)" class="st7" style="font-family:'Arial-BoldMT';">Vue de gauche</text>
</g>
<g class="st4">
	<text transform="matrix(1 0 0 1 39.5608 46.1655)" class="st5 st6 st7">1</text>
	<text transform="matrix(1 0 0 1 39.5608 46.1655)" class="st8 st6 st7">1</text>
	<text transform="matrix(1 0 0 1 39.5608 120.3655)" class="st5 st6 st7">3</text>
	<text transform="matrix(1 0 0 1 39.5608 120.3655)" class="st8 st6 st7">3</text>
	<text transform="matrix(1 0 0 1 39.5608 194.5655)" class="st5 st6 st7">3</text>
	<text transform="matrix(1 0 0 1 39.5608 194.5655)" class="st8 st6 st7">3</text>
	<text transform="matrix(1 0 0 1 113.7608 46.1655)" class="st5 st6 st7">1</text>
	<text transform="matrix(1 0 0 1 113.7608 46.1655)" class="st8 st6 st7">1</text>
	<text transform="matrix(1 0 0 1 113.7608 120.3655)" class="st5 st6 st7">1</text>
	<text transform="matrix(1 0 0 1 113.7608 120.3655)" class="st8 st6 st7">1</text>
	<text transform="matrix(1 0 0 1 113.7608 194.5655)" class="st5 st6 st7">2</text>
	<text transform="matrix(1 0 0 1 113.7608 194.5655)" class="st8 st6 st7">2</text>
	<text transform="matrix(1 0 0 1 187.9608 120.3655)" class="st5 st6 st7">1</text>
	<text transform="matrix(1 0 0 1 187.9608 120.3655)" class="st8 st6 st7">1</text>
	<text transform="matrix(1 0 0 1 187.9608 194.5655)" class="st5 st6 st7">1</text>
	<text transform="matrix(1 0 0 1 187.9608 194.5655)" class="st8 st6 st7">1</text>
</g>
</svg>
