<?xml version="1.0" encoding="utf-8"?>
<!-- Generator: Adobe Illustrator 28.0.0, SVG Export Plug-In . SVG Version: 6.00 Build 0)  -->
<svg version="1.1" id="Calque_1" xmlns:svgjs="http://svgjs.com/svgjs"
	 xmlns="http://www.w3.org/2000/svg" xmlns:xlink="http://www.w3.org/1999/xlink" x="0px" y="0px" viewBox="0 0 239.7 238.2"
	 style="enable-background:new 0 0 239.7 238.2;" xml:space="preserve">
<style type="text/css">
	.st0{fill:#FFFF00;}
	.st1{fill:none;stroke:#000000;stroke-linecap:round;stroke-linejoin:round;stroke-opacity:0.5;}
	.st2{fill:none;stroke:#000000;stroke-width:0.5;stroke-linecap:round;stroke-linejoin:round;stroke-opacity:0.5;}
	.st3{fill:none;stroke:#000000;stroke-width:3;stroke-linecap:round;stroke-linejoin:round;}
	.st4{fill:#1D1D1B;}
	.st5{font-family:'Arial-Black';}
	.st6{font-size:17px;}
</style>
<g>
	<rect x="8.5" y="8.4" class="st0" width="74.2" height="74.2"/>
	<rect x="82.7" y="8.4" class="st0" width="74.2" height="74.2"/>
	<rect x="82.7" y="82.6" class="st0" width="74.2" height="74.2"/>
	<rect x="156.9" y="8.4" class="st0" width="74.2" height="74.2"/>
	<rect x="156.9" y="82.6" class="st0" width="74.2" height="74.2"/>
	<rect x="156.9" y="156.8" class="st0" width="74.2" height="74.2"/>
	<line class="st1" x1="-65.7" y1="-65.8" x2="-65.7" y2="305.2"/>
	<line class="st2" x1="-28.6" y1="-65.8" x2="-28.6" y2="305.2"/>
	<line class="st1" x1="8.5" y1="-65.8" x2="8.5" y2="305.2"/>
	<line class="st2" x1="45.6" y1="-65.8" x2="45.6" y2="305.2"/>
	<line class="st1" x1="82.7" y1="-65.8" x2="82.7" y2="305.2"/>
	<line class="st2" x1="119.8" y1="-65.8" x2="119.8" y2="305.2"/>
	<line class="st1" x1="156.9" y1="-65.8" x2="156.9" y2="305.2"/>
	<line class="st2" x1="194" y1="-65.8" x2="194" y2="305.2"/>
	<line class="st1" x1="231.1" y1="-65.8" x2="231.1" y2="305.2"/>
	<line class="st2" x1="268.2" y1="-65.8" x2="268.2" y2="305.2"/>
	<line class="st1" x1="305.3" y1="-65.8" x2="305.3" y2="305.2"/>
	<line class="st1" x1="-65.7" y1="-65.8" x2="305.3" y2="-65.8"/>
	<line class="st2" x1="-65.7" y1="-28.7" x2="305.3" y2="-28.7"/>
	<line class="st1" x1="-65.7" y1="8.4" x2="305.3" y2="8.4"/>
	<line class="st2" x1="-65.7" y1="45.5" x2="305.3" y2="45.5"/>
	<line class="st1" x1="-65.7" y1="82.6" x2="305.3" y2="82.6"/>
	<line class="st2" x1="-65.7" y1="119.7" x2="305.3" y2="119.7"/>
	<line class="st1" x1="-65.7" y1="156.8" x2="305.3" y2="156.8"/>
	<line class="st2" x1="-65.7" y1="193.9" x2="305.3" y2="193.9"/>
	<line class="st1" x1="-65.7" y1="231" x2="305.3" y2="231"/>
	<line class="st2" x1="-65.7" y1="268.1" x2="305.3" y2="268.1"/>
	<line class="st1" x1="-65.7" y1="305.2" x2="305.3" y2="305.2"/>
	<line class="st3" x1="8.5" y1="8.4" x2="8.5" y2="82.6"/>
	<line class="st3" x1="8.5" y1="8.4" x2="82.7" y2="8.4"/>
	<line class="st3" x1="8.5" y1="82.6" x2="82.7" y2="82.6"/>
	<line class="st3" x1="82.7" y1="82.6" x2="82.7" y2="156.8"/>
	<line class="st3" x1="82.7" y1="8.4" x2="156.9" y2="8.4"/>
	<line class="st3" x1="156.9" y1="8.4" x2="156.9" y2="82.6"/>
	<line class="st3" x1="82.7" y1="82.6" x2="156.9" y2="82.6"/>
	<line class="st3" x1="156.9" y1="82.6" x2="156.9" y2="156.8"/>
	<line class="st3" x1="82.7" y1="156.8" x2="156.9" y2="156.8"/>
	<line class="st3" x1="156.9" y1="156.8" x2="156.9" y2="231"/>
	<line class="st3" x1="156.9" y1="8.4" x2="231.1" y2="8.4"/>
	<line class="st3" x1="231.1" y1="8.4" x2="231.1" y2="82.6"/>
	<line class="st3" x1="231.1" y1="82.6" x2="231.1" y2="156.8"/>
	<line class="st3" x1="156.9" y1="156.8" x2="231.1" y2="156.8"/>
	<line class="st3" x1="231.1" y1="156.8" x2="231.1" y2="231"/>
	<line class="st3" x1="156.9" y1="231" x2="231.1" y2="231"/>
	<text transform="matrix(1 0 0 1 -65.6596 -52.9835)" style="font-family:'Arial-BoldMT'; font-size:12px;">Vue de dessus</text>
	
		<text transform="matrix(1 0 0 1 -65.6596 -52.9835)" style="fill:none;stroke:#FFFFFF;stroke-width:5; font-family:'Arial-BoldMT'; font-size:12px;">Vue de dessus</text>
	<text transform="matrix(1 0 0 1 -65.6596 -52.9835)" style="font-family:'Arial-BoldMT'; font-size:12px;">Vue de dessus</text>
</g>
<g>
	<text transform="matrix(1 0 0 1 40.5821 51.0165)" class="st4 st5 st6">2</text>
	<text transform="matrix(1 0 0 1 40.5821 51.0165)" class="st4 st5 st6">2</text>
	<text transform="matrix(1 0 0 1 114.7821 51.0165)" class="st4 st5 st6">2</text>
	<text transform="matrix(1 0 0 1 114.7821 51.0165)" class="st4 st5 st6">2</text>
	<text transform="matrix(1 0 0 1 114.7821 125.2166)" class="st4 st5 st6">1</text>
	<text transform="matrix(1 0 0 1 114.7821 125.2166)" class="st4 st5 st6">1</text>
	<text transform="matrix(1 0 0 1 188.9821 51.0165)" class="st4 st5 st6">3</text>
	<text transform="matrix(1 0 0 1 188.9821 51.0165)" class="st4 st5 st6">3</text>
	<text transform="matrix(1 0 0 1 188.9821 125.2166)" class="st4 st5 st6">3</text>
	<text transform="matrix(1 0 0 1 188.9821 125.2166)" class="st4 st5 st6">3</text>
	<text transform="matrix(1 0 0 1 188.9821 199.4166)" class="st4 st5 st6">2</text>
	<text transform="matrix(1 0 0 1 188.9821 199.4166)" class="st4 st5 st6">2</text>
</g>
</svg>
