<?xml version="1.0" encoding="utf-8"?>
<!-- Generator: Adobe Illustrator 28.0.0, SVG Export Plug-In . SVG Version: 6.00 Build 0)  -->
<svg version="1.1" id="Calque_1" xmlns:svgjs="http://svgjs.com/svgjs"
	 xmlns="http://www.w3.org/2000/svg" xmlns:xlink="http://www.w3.org/1999/xlink" x="0px" y="0px" viewBox="0 0 222.3 202.4"
	 style="enable-background:new 0 0 222.3 202.4;" xml:space="preserve">
<style type="text/css">
	.st0{fill:#FF0000;}
	.st1{fill:#0000FF;}
	.st2{fill:#FFFF00;}
	.st3{fill:none;stroke:#000000;stroke-width:3;stroke-linecap:round;stroke-linejoin:round;}
	.st4{fill:none;stroke:#000000;stroke-linecap:round;stroke-linejoin:round;stroke-opacity:0.5;}
</style>
<polygon class="st0" points="109.8,117.4 141.9,98.9 141.9,136 109.8,154.5 "/>
<polygon class="st1" points="77.7,98.9 109.8,117.4 109.8,154.5 77.7,136 "/>
<polygon class="st2" points="77.7,98.9 109.8,117.4 141.9,98.9 109.8,80.3 "/>
<polygon class="st0" points="141.9,136 174.1,117.4 174.1,154.5 141.9,173.1 "/>
<polygon class="st1" points="109.8,117.4 141.9,136 141.9,173.1 109.8,154.5 "/>
<polygon class="st2" points="109.8,117.4 141.9,136 174.1,117.4 141.9,98.9 "/>
<polygon class="st0" points="174.1,154.5 206.2,136 206.2,173.1 174.1,191.6 "/>
<polygon class="st1" points="141.9,136 174.1,154.5 174.1,191.6 141.9,173.1 "/>
<polygon class="st2" points="141.9,136 174.1,154.5 206.2,136 174.1,117.4 "/>
<line class="st3" x1="206.2" y1="173.1" x2="206.2" y2="136"/>
<line class="st3" x1="206.2" y1="173.1" x2="174.1" y2="191.6"/>
<polygon class="st0" points="109.8,80.3 141.9,61.8 141.9,98.9 109.8,117.4 "/>
<polygon class="st1" points="77.7,61.8 109.8,80.3 109.8,117.4 77.7,98.9 "/>
<polygon class="st2" points="77.7,61.8 109.8,80.3 141.9,61.8 109.8,43.2 "/>
<polygon class="st0" points="141.9,98.9 174.1,80.3 174.1,117.4 141.9,136 "/>
<polygon class="st1" points="109.8,80.3 141.9,98.9 141.9,136 109.8,117.4 "/>
<polygon class="st2" points="109.8,80.3 141.9,98.9 174.1,80.3 141.9,61.8 "/>
<polygon class="st0" points="174.1,117.4 206.2,98.9 206.2,136 174.1,154.5 "/>
<polygon class="st1" points="141.9,98.9 174.1,117.4 174.1,154.5 141.9,136 "/>
<polygon class="st2" points="141.9,98.9 174.1,117.4 206.2,98.9 174.1,80.3 "/>
<line class="st3" x1="206.2" y1="136" x2="206.2" y2="98.9"/>
<polygon class="st0" points="109.8,43.2 141.9,24.7 141.9,61.8 109.8,80.3 "/>
<polygon class="st1" points="77.7,24.7 109.8,43.2 109.8,80.3 77.7,61.8 "/>
<polygon class="st2" points="77.7,24.7 109.8,43.2 141.9,24.7 109.8,6.1 "/>
<polygon class="st0" points="141.9,61.8 174.1,43.2 174.1,80.3 141.9,98.9 "/>
<polygon class="st1" points="109.8,43.2 141.9,61.8 141.9,98.9 109.8,80.3 "/>
<polygon class="st2" points="109.8,43.2 141.9,61.8 174.1,43.2 141.9,24.7 "/>
<line class="st3" x1="174.1" y1="80.3" x2="174.1" y2="43.2"/>
<line class="st3" x1="174.1" y1="80.3" x2="206.2" y2="98.9"/>
<line class="st3" x1="174.1" y1="80.3" x2="141.9" y2="98.9"/>
<line class="st3" x1="206.2" y1="98.9" x2="174.1" y2="117.4"/>
<line class="st3" x1="109.8" y1="6.1" x2="141.9" y2="24.7"/>
<line class="st3" x1="109.8" y1="6.1" x2="77.7" y2="24.7"/>
<line class="st3" x1="141.9" y1="24.7" x2="174.1" y2="43.2"/>
<line class="st3" x1="174.1" y1="43.2" x2="141.9" y2="61.8"/>
<polygon class="st0" points="77.7,136 109.8,117.4 109.8,154.5 77.7,173.1 "/>
<polygon class="st1" points="45.5,117.4 77.7,136 77.7,173.1 45.5,154.5 "/>
<polygon class="st2" points="45.5,117.4 77.7,136 109.8,117.4 77.7,98.9 "/>
<polygon class="st0" points="109.8,154.5 141.9,136 141.9,173.1 109.8,191.6 "/>
<polygon class="st1" points="77.7,136 109.8,154.5 109.8,191.6 77.7,173.1 "/>
<polygon class="st2" points="77.7,136 109.8,154.5 141.9,136 109.8,117.4 "/>
<line class="st3" x1="141.9" y1="173.1" x2="141.9" y2="136"/>
<line class="st3" x1="141.9" y1="173.1" x2="174.1" y2="191.6"/>
<line class="st3" x1="141.9" y1="173.1" x2="109.8" y2="191.6"/>
<line class="st3" x1="174.1" y1="191.6" x2="174.1" y2="154.5"/>
<polygon class="st0" points="77.7,98.9 109.8,80.3 109.8,117.4 77.7,136 "/>
<polygon class="st1" points="45.5,80.3 77.7,98.9 77.7,136 45.5,117.4 "/>
<polygon class="st2" points="45.5,80.3 77.7,98.9 109.8,80.3 77.7,61.8 "/>
<line class="st3" x1="109.8" y1="117.4" x2="109.8" y2="80.3"/>
<line class="st3" x1="109.8" y1="117.4" x2="141.9" y2="136"/>
<line class="st3" x1="109.8" y1="117.4" x2="77.7" y2="136"/>
<line class="st3" x1="141.9" y1="136" x2="109.8" y2="154.5"/>
<line class="st3" x1="174.1" y1="154.5" x2="174.1" y2="117.4"/>
<line class="st3" x1="77.7" y1="61.8" x2="77.7" y2="24.7"/>
<line class="st3" x1="77.7" y1="61.8" x2="109.8" y2="80.3"/>
<line class="st3" x1="77.7" y1="61.8" x2="45.5" y2="80.3"/>
<line class="st3" x1="109.8" y1="80.3" x2="77.7" y2="98.9"/>
<line class="st3" x1="141.9" y1="98.9" x2="141.9" y2="61.8"/>
<line class="st3" x1="141.9" y1="98.9" x2="174.1" y2="117.4"/>
<line class="st3" x1="77.7" y1="24.7" x2="109.8" y2="43.2"/>
<line class="st3" x1="109.8" y1="43.2" x2="141.9" y2="61.8"/>
<polygon class="st0" points="45.5,154.5 77.7,136 77.7,173.1 45.5,191.6 "/>
<polygon class="st1" points="13.4,136 45.5,154.5 45.5,191.6 13.4,173.1 "/>
<polygon class="st2" points="13.4,136 45.5,154.5 77.7,136 45.5,117.4 "/>
<line class="st3" x1="77.7" y1="173.1" x2="77.7" y2="136"/>
<line class="st3" x1="77.7" y1="173.1" x2="109.8" y2="191.6"/>
<line class="st3" x1="77.7" y1="173.1" x2="45.5" y2="191.6"/>
<line class="st3" x1="109.8" y1="191.6" x2="109.8" y2="154.5"/>
<polygon class="st0" points="45.5,117.4 77.7,98.9 77.7,136 45.5,154.5 "/>
<polygon class="st1" points="13.4,98.9 45.5,117.4 45.5,154.5 13.4,136 "/>
<polygon class="st2" points="13.4,98.9 45.5,117.4 77.7,98.9 45.5,80.3 "/>
<line class="st3" x1="77.7" y1="136" x2="109.8" y2="154.5"/>
<line class="st3" x1="45.5" y1="80.3" x2="13.4" y2="98.9"/>
<line class="st3" x1="77.7" y1="98.9" x2="45.5" y2="117.4"/>
<line class="st3" x1="13.4" y1="173.1" x2="13.4" y2="136"/>
<line class="st3" x1="13.4" y1="173.1" x2="45.5" y2="191.6"/>
<line class="st3" x1="45.5" y1="191.6" x2="45.5" y2="154.5"/>
<line class="st3" x1="13.4" y1="136" x2="13.4" y2="98.9"/>
<line class="st3" x1="45.5" y1="154.5" x2="45.5" y2="117.4"/>
<line class="st3" x1="13.4" y1="98.9" x2="45.5" y2="117.4"/>
<line class="st4" x1="-50.8" y1="-68.1" x2="-50.8" y2="302.9"/>
<line class="st4" x1="-18.7" y1="-68.1" x2="-18.7" y2="302.9"/>
<line class="st4" x1="13.4" y1="-68.1" x2="13.4" y2="302.9"/>
<line class="st4" x1="45.5" y1="-68.1" x2="45.5" y2="302.9"/>
<line class="st4" x1="77.7" y1="-68.1" x2="77.7" y2="302.9"/>
<line class="st4" x1="109.8" y1="-68.1" x2="109.8" y2="302.9"/>
<line class="st4" x1="141.9" y1="-68.1" x2="141.9" y2="302.9"/>
<line class="st4" x1="174.1" y1="-68.1" x2="174.1" y2="302.9"/>
<line class="st4" x1="206.2" y1="-68.1" x2="206.2" y2="302.9"/>
<line class="st4" x1="238.3" y1="-68.1" x2="238.3" y2="302.9"/>
<line class="st4" x1="270.4" y1="-68.1" x2="270.4" y2="302.9"/>
<line class="st4" x1="238.3" y1="-68.1" x2="270.4" y2="-49.5"/>
<line class="st4" x1="-18.7" y1="-68.1" x2="-50.8" y2="-49.5"/>
<line class="st4" x1="174.1" y1="-68.1" x2="270.4" y2="-12.4"/>
<line class="st4" x1="45.5" y1="-68.1" x2="-50.8" y2="-12.4"/>
<line class="st4" x1="109.8" y1="-68.1" x2="270.4" y2="24.7"/>
<line class="st4" x1="109.8" y1="-68.1" x2="-50.8" y2="24.7"/>
<line class="st4" x1="45.5" y1="-68.1" x2="270.4" y2="61.8"/>
<line class="st4" x1="174.1" y1="-68.1" x2="-50.8" y2="61.8"/>
<line class="st4" x1="-18.7" y1="-68.1" x2="270.4" y2="98.9"/>
<line class="st4" x1="238.3" y1="-68.1" x2="-50.8" y2="98.9"/>
<line class="st4" x1="-50.8" y1="-49.5" x2="270.4" y2="136"/>
<line class="st4" x1="270.4" y1="-49.5" x2="-50.8" y2="136"/>
<line class="st4" x1="-50.8" y1="-12.4" x2="270.4" y2="173.1"/>
<line class="st4" x1="270.4" y1="-12.4" x2="-50.8" y2="173.1"/>
<line class="st4" x1="-50.8" y1="24.7" x2="270.4" y2="210.2"/>
<line class="st4" x1="270.4" y1="24.7" x2="-50.8" y2="210.2"/>
<line class="st4" x1="-50.8" y1="61.8" x2="270.4" y2="247.3"/>
<line class="st4" x1="270.4" y1="61.8" x2="-50.8" y2="247.3"/>
<line class="st4" x1="-50.8" y1="98.9" x2="270.4" y2="284.4"/>
<line class="st4" x1="270.4" y1="98.9" x2="-50.8" y2="284.4"/>
<line class="st4" x1="-50.8" y1="136" x2="238.3" y2="302.9"/>
<line class="st4" x1="270.4" y1="136" x2="-18.7" y2="302.9"/>
<line class="st4" x1="-50.8" y1="173.1" x2="174.1" y2="302.9"/>
<line class="st4" x1="270.4" y1="173.1" x2="45.5" y2="302.9"/>
<line class="st4" x1="-50.8" y1="210.2" x2="109.8" y2="302.9"/>
<line class="st4" x1="270.4" y1="210.2" x2="109.8" y2="302.9"/>
<line class="st4" x1="-50.8" y1="247.3" x2="45.5" y2="302.9"/>
<line class="st4" x1="270.4" y1="247.3" x2="174.1" y2="302.9"/>
<line class="st4" x1="-50.8" y1="284.4" x2="-18.7" y2="302.9"/>
<line class="st4" x1="270.4" y1="284.4" x2="238.3" y2="302.9"/>
<text transform="matrix(1 0 0 1 -75.6995 -55.2813)" style="font-family:'Arial-BoldMT'; font-size:12px;">Perspective isométrique</text>
<text transform="matrix(1 0 0 1 -75.6995 -55.2813)" style="fill:none;stroke:#FFFFFF;stroke-width:5; font-family:'Arial-BoldMT'; font-size:12px;">Perspective isométrique</text>
<text transform="matrix(1 0 0 1 -75.6995 -55.2813)" style="font-family:'Arial-BoldMT'; font-size:12px;">Perspective isométrique</text>
</svg>
