<svg xmlns="http://www.w3.org/2000/svg" version="1.1" xmlns:xlink="http://www.w3.org/1999/xlink" xmlns:svgjs="http://svgjs.com/svgjs" width="381" height="381" viewBox="0 0 381 381"><rect width="49.46666666666667" height="49.46666666666667" x="202.86666666666667" y="202.86666666666667" stroke="none" fill="red"></rect><polygon points="178.13333129882812,178.13333129882812 202.86666463216147,202.86666463216147 202.86666463216147,252.3333312988281 178.13333129882812,227.5999979654948" stroke="none" fill="blue"></polygon><polygon points="178.13333129882812,178.13333129882812 227.5999979654948,178.13333129882812 252.3333312988281,202.86666463216147 202.86666463216147,202.86666463216147" stroke="none" fill="yellow"></polygon><rect width="49.46666666666667" height="49.46666666666667" x="227.60000000000002" y="227.60000000000002" stroke="none" fill="red"></rect><polygon points="202.86666870117188,202.86666870117188 227.60000203450522,227.60000203450522 227.60000203450522,277.06666870117186 202.86666870117188,252.33333536783854" stroke="none" fill="blue"></polygon><polygon points="202.86666870117188,202.86666870117188 252.33333536783854,202.86666870117188 277.06666870117186,227.60000203450522 227.60000203450522,227.60000203450522" stroke="none" fill="yellow"></polygon><rect width="49.46666666666667" height="49.46666666666667" x="252.33333333333337" y="252.33333333333337" stroke="none" fill="red"></rect><polygon points="227.60000610351562,227.60000610351562 252.33333943684897,252.33333943684897 252.33333943684897,301.8000061035156 227.60000610351562,277.0666727701823" stroke="none" fill="blue"></polygon><polygon points="227.60000610351562,227.60000610351562 277.0666727701823,227.60000610351562 301.8000061035156,252.33333943684897 252.33333943684897,252.33333943684897" stroke="none" fill="yellow"></polygon><line x1="301.79998779296875" y1="252.3333282470703" x2="301.79998779296875" y2="301.799994913737" stroke="black" stroke-width="3" stroke-linecap="round" stroke-linejoin="round"></line><line x1="252.3333282470703" y1="301.79998779296875" x2="301.799994913737" y2="301.79998779296875" stroke="black" stroke-width="3" stroke-linecap="round" stroke-linejoin="round"></line><rect width="49.46666666666667" height="49.46666666666667" x="202.86666666666667" y="153.4" stroke="none" fill="red"></rect><polygon points="178.13333129882812,128.66666412353516 202.86666463216147,153.3999974568685 202.86666463216147,202.86666412353514 178.13333129882812,178.1333307902018" stroke="none" fill="blue"></polygon><polygon points="178.13333129882812,128.66666412353516 227.5999979654948,128.66666412353516 252.3333312988281,153.3999974568685 202.86666463216147,153.3999974568685" stroke="none" fill="yellow"></polygon><rect width="49.46666666666667" height="49.46666666666667" x="227.60000000000002" y="178.13333333333333" stroke="none" fill="red"></rect><polygon points="202.86666870117188,153.39999389648438 227.60000203450522,178.1333272298177 227.60000203450522,227.5999938964844 202.86666870117188,202.86666056315104" stroke="none" fill="blue"></polygon><polygon points="202.86666870117188,153.39999389648438 252.33333536783854,153.39999389648438 277.06666870117186,178.1333272298177 227.60000203450522,178.1333272298177" stroke="none" fill="yellow"></polygon><rect width="49.46666666666667" height="49.46666666666667" x="252.33333333333337" y="202.86666666666667" stroke="none" fill="red"></rect><polygon points="227.60000610351562,178.13333129882812 252.33333943684897,202.86666463216147 252.33333943684897,252.3333312988281 227.60000610351562,227.5999979654948" stroke="none" fill="blue"></polygon><polygon points="227.60000610351562,178.13333129882812 277.0666727701823,178.13333129882812 301.8000061035156,202.86666463216147 252.33333943684897,202.86666463216147" stroke="none" fill="yellow"></polygon><line x1="301.79998779296875" y1="202.86666870117188" x2="301.79998779296875" y2="252.33333536783854" stroke="black" stroke-width="3" stroke-linecap="round" stroke-linejoin="round"></line><rect width="49.46666666666667" height="49.46666666666667" x="202.86666666666667" y="103.93333333333334" stroke="none" fill="red"></rect><polygon points="178.13333129882812,79.19999694824219 202.86666463216147,103.93333028157552 202.86666463216147,153.39999694824218 178.13333129882812,128.66666361490886" stroke="none" fill="blue"></polygon><polygon points="178.13333129882812,79.19999694824219 227.5999979654948,79.19999694824219 252.3333312988281,103.93333028157552 202.86666463216147,103.93333028157552" stroke="none" fill="yellow"></polygon><rect width="49.46666666666667" height="49.46666666666667" x="227.60000000000002" y="128.66666666666669" stroke="none" fill="red"></rect><polygon points="202.86666870117188,103.93333435058594 227.60000203450522,128.6666676839193 227.60000203450522,178.13333435058593 202.86666870117188,153.4000010172526" stroke="none" fill="blue"></polygon><polygon points="202.86666870117188,103.93333435058594 252.33333536783854,103.93333435058594 277.06666870117186,128.6666676839193 227.60000203450522,128.6666676839193" stroke="none" fill="yellow"></polygon><line x1="277.0666809082031" y1="128.66666412353516" x2="277.0666809082031" y2="178.1333307902018" stroke="black" stroke-width="3" stroke-linecap="round" stroke-linejoin="round"></line><line x1="277.0666809082031" y1="178.13333129882812" x2="301.8000142415364" y2="202.86666463216147" stroke="black" stroke-width="3" stroke-linecap="round" stroke-linejoin="round"></line><line x1="227.60000610351562" y1="178.13333129882812" x2="277.0666727701823" y2="178.13333129882812" stroke="black" stroke-width="3" stroke-linecap="round" stroke-linejoin="round"></line><line x1="252.3333282470703" y1="202.86666870117188" x2="301.799994913737" y2="202.86666870117188" stroke="black" stroke-width="3" stroke-linecap="round" stroke-linejoin="round"></line><line x1="227.60000610351562" y1="79.19999694824219" x2="252.33333943684895" y2="103.93333028157552" stroke="black" stroke-width="3" stroke-linecap="round" stroke-linejoin="round"></line><line x1="178.13333129882812" y1="79.19999694824219" x2="227.5999979654948" y2="79.19999694824219" stroke="black" stroke-width="3" stroke-linecap="round" stroke-linejoin="round"></line><line x1="252.3333282470703" y1="103.93333435058594" x2="277.06666158040366" y2="128.6666676839193" stroke="black" stroke-width="3" stroke-linecap="round" stroke-linejoin="round"></line><line x1="227.60000610351562" y1="128.66666412353516" x2="277.0666727701823" y2="128.66666412353516" stroke="black" stroke-width="3" stroke-linecap="round" stroke-linejoin="round"></line><rect width="49.46666666666667" height="49.46666666666667" x="153.4" y="202.86666666666667" stroke="none" fill="red"></rect><polygon points="128.6666717529297,178.13333129882812 153.40000508626304,202.86666463216147 153.40000508626304,252.3333312988281 128.6666717529297,227.5999979654948" stroke="none" fill="blue"></polygon><polygon points="128.6666717529297,178.13333129882812 178.13333841959633,178.13333129882812 202.86667175292968,202.86666463216147 153.40000508626304,202.86666463216147" stroke="none" fill="yellow"></polygon><rect width="49.46666666666667" height="49.46666666666667" x="178.13333333333333" y="227.60000000000002" stroke="none" fill="red"></rect><polygon points="153.39999389648438,202.86666870117188 178.1333272298177,227.60000203450522 178.1333272298177,277.06666870117186 153.39999389648438,252.33333536783854" stroke="none" fill="blue"></polygon><polygon points="153.39999389648438,202.86666870117188 202.86666056315104,202.86666870117188 227.5999938964844,227.60000203450522 178.1333272298177,227.60000203450522" stroke="none" fill="yellow"></polygon><line x1="227.60000610351562" y1="227.60000610351562" x2="227.60000610351562" y2="277.0666727701823" stroke="black" stroke-width="3" stroke-linecap="round" stroke-linejoin="round"></line><line x1="227.60000610351562" y1="277.0666809082031" x2="252.33333943684895" y2="301.8000142415364" stroke="black" stroke-width="3" stroke-linecap="round" stroke-linejoin="round"></line><line x1="178.13333129882812" y1="277.0666809082031" x2="227.5999979654948" y2="277.0666809082031" stroke="black" stroke-width="3" stroke-linecap="round" stroke-linejoin="round"></line><line x1="252.3333282470703" y1="252.3333282470703" x2="252.3333282470703" y2="301.799994913737" stroke="black" stroke-width="3" stroke-linecap="round" stroke-linejoin="round"></line><rect width="49.46666666666667" height="49.46666666666667" x="153.4" y="153.4" stroke="none" fill="red"></rect><polygon points="128.6666717529297,128.66666412353516 153.40000508626304,153.3999974568685 153.40000508626304,202.86666412353514 128.6666717529297,178.1333307902018" stroke="none" fill="blue"></polygon><polygon points="128.6666717529297,128.66666412353516 178.13333841959633,128.66666412353516 202.86667175292968,153.3999974568685 153.40000508626304,153.3999974568685" stroke="none" fill="yellow"></polygon><line x1="202.86666870117188" y1="153.39999389648438" x2="202.86666870117188" y2="202.86666056315104" stroke="black" stroke-width="3" stroke-linecap="round" stroke-linejoin="round"></line><line x1="202.86666870117188" y1="202.86666870117188" x2="227.60000203450522" y2="227.60000203450522" stroke="black" stroke-width="3" stroke-linecap="round" stroke-linejoin="round"></line><line x1="153.39999389648438" y1="202.86666870117188" x2="202.86666056315104" y2="202.86666870117188" stroke="black" stroke-width="3" stroke-linecap="round" stroke-linejoin="round"></line><line x1="178.13333129882812" y1="227.60000610351562" x2="227.5999979654948" y2="227.60000610351562" stroke="black" stroke-width="3" stroke-linecap="round" stroke-linejoin="round"></line><line x1="252.3333282470703" y1="202.86666870117188" x2="252.3333282470703" y2="252.33333536783854" stroke="black" stroke-width="3" stroke-linecap="round" stroke-linejoin="round"></line><line x1="178.13333129882812" y1="79.19999694824219" x2="178.13333129882812" y2="128.66666361490886" stroke="black" stroke-width="3" stroke-linecap="round" stroke-linejoin="round"></line><line x1="178.13333129882812" y1="128.66666412353516" x2="202.86666463216147" y2="153.3999974568685" stroke="black" stroke-width="3" stroke-linecap="round" stroke-linejoin="round"></line><line x1="128.6666717529297" y1="128.66666412353516" x2="178.13333841959633" y2="128.66666412353516" stroke="black" stroke-width="3" stroke-linecap="round" stroke-linejoin="round"></line><line x1="153.39999389648438" y1="153.39999389648438" x2="202.86666056315104" y2="153.39999389648438" stroke="black" stroke-width="3" stroke-linecap="round" stroke-linejoin="round"></line><line x1="227.60000610351562" y1="128.66666412353516" x2="227.60000610351562" y2="178.1333307902018" stroke="black" stroke-width="3" stroke-linecap="round" stroke-linejoin="round"></line><line x1="227.60000610351562" y1="178.13333129882812" x2="252.33333943684895" y2="202.86666463216147" stroke="black" stroke-width="3" stroke-linecap="round" stroke-linejoin="round"></line><line x1="178.13333129882812" y1="79.19999694824219" x2="202.86666463216147" y2="103.93333028157552" stroke="black" stroke-width="3" stroke-linecap="round" stroke-linejoin="round"></line><line x1="202.86666870117188" y1="103.93333435058594" x2="227.60000203450522" y2="128.6666676839193" stroke="black" stroke-width="3" stroke-linecap="round" stroke-linejoin="round"></line><rect width="49.46666666666667" height="49.46666666666667" x="103.93333333333334" y="202.86666666666667" stroke="none" fill="red"></rect><polygon points="79.19999694824219,178.13333129882812 103.93333028157552,202.86666463216147 103.93333028157552,252.3333312988281 79.19999694824219,227.5999979654948" stroke="none" fill="blue"></polygon><polygon points="79.19999694824219,178.13333129882812 128.66666361490886,178.13333129882812 153.39999694824218,202.86666463216147 103.93333028157552,202.86666463216147" stroke="none" fill="yellow"></polygon><line x1="153.39999389648438" y1="202.86666870117188" x2="153.39999389648438" y2="252.33333536783854" stroke="black" stroke-width="3" stroke-linecap="round" stroke-linejoin="round"></line><line x1="153.39999389648438" y1="252.3333282470703" x2="178.1333272298177" y2="277.06666158040366" stroke="black" stroke-width="3" stroke-linecap="round" stroke-linejoin="round"></line><line x1="103.93333435058594" y1="252.3333282470703" x2="153.4000010172526" y2="252.3333282470703" stroke="black" stroke-width="3" stroke-linecap="round" stroke-linejoin="round"></line><line x1="178.13333129882812" y1="227.60000610351562" x2="178.13333129882812" y2="277.0666727701823" stroke="black" stroke-width="3" stroke-linecap="round" stroke-linejoin="round"></line><rect width="49.46666666666667" height="49.46666666666667" x="103.93333333333334" y="153.4" stroke="none" fill="red"></rect><polygon points="79.19999694824219,128.66666412353516 103.93333028157552,153.3999974568685 103.93333028157552,202.86666412353514 79.19999694824219,178.1333307902018" stroke="none" fill="blue"></polygon><polygon points="79.19999694824219,128.66666412353516 128.66666361490886,128.66666412353516 153.39999694824218,153.3999974568685 103.93333028157552,153.3999974568685" stroke="none" fill="yellow"></polygon><line x1="153.39999389648438" y1="202.86666870117188" x2="178.1333272298177" y2="227.60000203450522" stroke="black" stroke-width="3" stroke-linecap="round" stroke-linejoin="round"></line><line x1="79.19999694824219" y1="128.66666412353516" x2="128.66666361490886" y2="128.66666412353516" stroke="black" stroke-width="3" stroke-linecap="round" stroke-linejoin="round"></line><line x1="103.93333435058594" y1="153.39999389648438" x2="153.4000010172526" y2="153.39999389648438" stroke="black" stroke-width="3" stroke-linecap="round" stroke-linejoin="round"></line><line x1="79.19999694824219" y1="178.13333129882812" x2="79.19999694824219" y2="227.5999979654948" stroke="black" stroke-width="3" stroke-linecap="round" stroke-linejoin="round"></line><line x1="79.19999694824219" y1="227.60000610351562" x2="103.93333028157552" y2="252.33333943684895" stroke="black" stroke-width="3" stroke-linecap="round" stroke-linejoin="round"></line><line x1="103.93333435058594" y1="202.86666870117188" x2="103.93333435058594" y2="252.33333536783854" stroke="black" stroke-width="3" stroke-linecap="round" stroke-linejoin="round"></line><line x1="79.19999694824219" y1="128.66666412353516" x2="79.19999694824219" y2="178.1333307902018" stroke="black" stroke-width="3" stroke-linecap="round" stroke-linejoin="round"></line><line x1="103.93333435058594" y1="153.39999389648438" x2="103.93333435058594" y2="202.86666056315104" stroke="black" stroke-width="3" stroke-linecap="round" stroke-linejoin="round"></line><line x1="79.19999694824219" y1="128.66666412353516" x2="103.93333028157552" y2="153.3999974568685" stroke="black" stroke-width="3" stroke-linecap="round" stroke-linejoin="round"></line><line x1="5" y1="5" x2="5" y2="376" stroke="black" stroke-width="1" stroke-opacity="0.5" stroke-linecap="round" stroke-linejoin="round"></line><line x1="29.733333587646484" y1="5" x2="29.733333587646484" y2="376" stroke="black" stroke-width="1" stroke-opacity="0.5" stroke-linecap="round" stroke-linejoin="round"></line><line x1="54.46666717529297" y1="5" x2="54.46666717529297" y2="376" stroke="black" stroke-width="1" stroke-opacity="0.5" stroke-linecap="round" stroke-linejoin="round"></line><line x1="79.19999694824219" y1="5" x2="79.19999694824219" y2="376" stroke="black" stroke-width="1" stroke-opacity="0.5" stroke-linecap="round" stroke-linejoin="round"></line><line x1="103.93333435058594" y1="5" x2="103.93333435058594" y2="376" stroke="black" stroke-width="1" stroke-opacity="0.5" stroke-linecap="round" stroke-linejoin="round"></line><line x1="128.6666717529297" y1="5" x2="128.6666717529297" y2="376" stroke="black" stroke-width="1" stroke-opacity="0.5" stroke-linecap="round" stroke-linejoin="round"></line><line x1="153.39999389648438" y1="5" x2="153.39999389648438" y2="376" stroke="black" stroke-width="1" stroke-opacity="0.5" stroke-linecap="round" stroke-linejoin="round"></line><line x1="178.13333129882812" y1="5" x2="178.13333129882812" y2="376" stroke="black" stroke-width="1" stroke-opacity="0.5" stroke-linecap="round" stroke-linejoin="round"></line><line x1="202.86666870117188" y1="5" x2="202.86666870117188" y2="376" stroke="black" stroke-width="1" stroke-opacity="0.5" stroke-linecap="round" stroke-linejoin="round"></line><line x1="227.60000610351562" y1="5" x2="227.60000610351562" y2="376" stroke="black" stroke-width="1" stroke-opacity="0.5" stroke-linecap="round" stroke-linejoin="round"></line><line x1="252.3333282470703" y1="5" x2="252.3333282470703" y2="376" stroke="black" stroke-width="1" stroke-opacity="0.5" stroke-linecap="round" stroke-linejoin="round"></line><line x1="277.0666809082031" y1="5" x2="277.0666809082031" y2="376" stroke="black" stroke-width="1" stroke-opacity="0.5" stroke-linecap="round" stroke-linejoin="round"></line><line x1="301.79998779296875" y1="5" x2="301.79998779296875" y2="376" stroke="black" stroke-width="1" stroke-opacity="0.5" stroke-linecap="round" stroke-linejoin="round"></line><line x1="326.5333251953125" y1="5" x2="326.5333251953125" y2="376" stroke="black" stroke-width="1" stroke-opacity="0.5" stroke-linecap="round" stroke-linejoin="round"></line><line x1="351.26666259765625" y1="5" x2="351.26666259765625" y2="376" stroke="black" stroke-width="1" stroke-opacity="0.5" stroke-linecap="round" stroke-linejoin="round"></line><line x1="376" y1="5" x2="376" y2="376" stroke="black" stroke-width="1" stroke-opacity="0.5" stroke-linecap="round" stroke-linejoin="round"></line><line x1="5" y1="5" x2="376" y2="5" stroke="black" stroke-width="1" stroke-opacity="0.5" stroke-linecap="round" stroke-linejoin="round"></line><line x1="5" y1="29.733333587646484" x2="376" y2="29.733333587646484" stroke="black" stroke-width="1" stroke-opacity="0.5" stroke-linecap="round" stroke-linejoin="round"></line><line x1="5" y1="54.46666717529297" x2="376" y2="54.46666717529297" stroke="black" stroke-width="1" stroke-opacity="0.5" stroke-linecap="round" stroke-linejoin="round"></line><line x1="5" y1="79.19999694824219" x2="376" y2="79.19999694824219" stroke="black" stroke-width="1" stroke-opacity="0.5" stroke-linecap="round" stroke-linejoin="round"></line><line x1="5" y1="103.93333435058594" x2="376" y2="103.93333435058594" stroke="black" stroke-width="1" stroke-opacity="0.5" stroke-linecap="round" stroke-linejoin="round"></line><line x1="5" y1="128.66666412353516" x2="376" y2="128.66666412353516" stroke="black" stroke-width="1" stroke-opacity="0.5" stroke-linecap="round" stroke-linejoin="round"></line><line x1="5" y1="153.39999389648438" x2="376" y2="153.39999389648438" stroke="black" stroke-width="1" stroke-opacity="0.5" stroke-linecap="round" stroke-linejoin="round"></line><line x1="5" y1="178.13333129882812" x2="376" y2="178.13333129882812" stroke="black" stroke-width="1" stroke-opacity="0.5" stroke-linecap="round" stroke-linejoin="round"></line><line x1="5" y1="202.86666870117188" x2="376" y2="202.86666870117188" stroke="black" stroke-width="1" stroke-opacity="0.5" stroke-linecap="round" stroke-linejoin="round"></line><line x1="5" y1="227.60000610351562" x2="376" y2="227.60000610351562" stroke="black" stroke-width="1" stroke-opacity="0.5" stroke-linecap="round" stroke-linejoin="round"></line><line x1="5" y1="252.3333282470703" x2="376" y2="252.3333282470703" stroke="black" stroke-width="1" stroke-opacity="0.5" stroke-linecap="round" stroke-linejoin="round"></line><line x1="5" y1="277.0666809082031" x2="376" y2="277.0666809082031" stroke="black" stroke-width="1" stroke-opacity="0.5" stroke-linecap="round" stroke-linejoin="round"></line><line x1="5" y1="301.79998779296875" x2="376" y2="301.79998779296875" stroke="black" stroke-width="1" stroke-opacity="0.5" stroke-linecap="round" stroke-linejoin="round"></line><line x1="5" y1="326.5333251953125" x2="376" y2="326.5333251953125" stroke="black" stroke-width="1" stroke-opacity="0.5" stroke-linecap="round" stroke-linejoin="round"></line><line x1="5" y1="351.26666259765625" x2="376" y2="351.26666259765625" stroke="black" stroke-width="1" stroke-opacity="0.5" stroke-linecap="round" stroke-linejoin="round"></line><line x1="5" y1="376" x2="376" y2="376" stroke="black" stroke-width="1" stroke-opacity="0.5" stroke-linecap="round" stroke-linejoin="round"></line><defs></defs><text x="5" y="2.200000762939453" stroke="white" stroke-width="5" font-family="arial" font-weight="bold" font-size="12"><tspan dy="15.600000000000001" x="5">Perspective cavalière</tspan></text><text x="5" y="2.200000762939453" fill="black" font-family="arial" font-weight="bold" font-size="12"><tspan dy="15.600000000000001" x="5">Perspective cavalière</tspan></text></svg>