<svg width="246" height="50" xmlns="http://www.w3.org/2000/svg" xmlns:xlink="http://www.w3.org/1999/xlink" xml:space="preserve" overflow="hidden"><defs><clipPath id="clip0"><rect x="0" y="0" width="246" height="50"/></clipPath></defs><g clip-path="url(#clip0)"><path d="M7.91362 28.0515 234.738 44.4739" stroke="#1D1D1B" stroke-width="1.60846" stroke-miterlimit="10" fill="none" transform="matrix(1.00342 0 0 1 0 0.125185)"/><path d="M2.68617 27.2478 13.1413 27.2478 13.1413 28.8563 2.68617 28.8563Z" fill="#1D1D1B" transform="matrix(0.0724395 -0.997373 1.00078 0.0721925 -20.7071 34.0476)"/><path d="M229.515 43.6704 239.97 43.6704 239.97 45.2789 229.515 45.2789Z" fill="#1D1D1B" transform="matrix(0.0724395 -0.997373 1.00078 0.0721925 174.017 275.509)"/><path d="M80.9376 28.2928 80.3908 38.973" stroke="#1D1D1B" stroke-width="1.60846" stroke-miterlimit="10" fill="none" transform="matrix(1.00342 0 0 1 0 0.125185)"/><text fill="#1D1D1B" font-family="Bahnschrift,Bahnschrift_MSFontService,sans-serif" font-weight="400" font-size="12" transform="matrix(1.61396 0 0 1.60846 0 17)">A</text><text fill="#1D1D1B" font-family="Bahnschrift,Bahnschrift_MSFontService,sans-serif" font-weight="400" font-size="12" transform="matrix(1.61396 0 0 1.60846 233.492 34)">B</text><text fill="#1D1D1B" font-family="Bahnschrift,Bahnschrift_MSFontService,sans-serif" font-weight="400" font-size="12" transform="matrix(1.61396 0 0 1.60846 73.403 24)">M</text></g></svg>