<svg width="242" height="99" xmlns="http://www.w3.org/2000/svg" xmlns:xlink="http://www.w3.org/1999/xlink" xml:space="preserve" overflow="hidden"><defs><clipPath id="clip0"><rect x="0" y="0" width="242" height="99"/></clipPath></defs><g clip-path="url(#clip0)"><path d="M7.81157 76.528 231.712 92.7545" stroke="#1D1D1B" stroke-width="1.58772" stroke-miterlimit="10" fill="none" transform="matrix(1 0 0 1.00293 0 0.383217)"/><path d="M2.65153 75.7353 12.9719 75.7353 12.9719 77.3231 2.65153 77.3231Z" fill="#1D1D1B" transform="matrix(0.0721927 -1.0003 0.997375 0.0724044 -69.0816 79.4128)"/><path d="M226.555 91.962 236.875 91.962 236.875 93.5498 226.555 93.5498Z" fill="#1D1D1B" transform="matrix(0.0721927 -1.0003 0.997375 0.0724044 122.477 318.476)"/><text fill="#1D1D1B" font-family="Bahnschrift,Bahnschrift_MSFontService,sans-serif" font-weight="400" font-size="12" transform="matrix(1.58772 0 0 1.59237 0 66)">A</text><text fill="#1D1D1B" font-family="Bahnschrift,Bahnschrift_MSFontService,sans-serif" font-weight="400" font-size="12" transform="matrix(1.58772 0 0 1.59237 98.2004 17)">N</text><text fill="#1D1D1B" font-family="Bahnschrift,Bahnschrift_MSFontService,sans-serif" font-weight="400" font-size="12" transform="matrix(1.58772 0 0 1.59237 229.695 83)">B</text><path d="M7.81157 76.528 10.6218 75.0514" stroke="#2FAC66" stroke-width="1.58772" stroke-linecap="round" stroke-miterlimit="10" fill="none" transform="matrix(1 0 0 1.00293 0 0.383217)"/><path d="M16.0518 72.2253 100.058 28.1979" stroke="#2FAC66" stroke-width="1.58772" stroke-linecap="round" stroke-miterlimit="10" stroke-dasharray="0 0 6.11271 6.11271" fill="none" transform="matrix(1 0 0 1.00293 0 0.383217)"/><path d="M102.757 26.7689 105.583 25.2924 108.378 26.8007" stroke="#2FAC66" stroke-width="1.58772" stroke-linecap="round" stroke-miterlimit="10" fill="none" transform="matrix(1 0 0 1.00293 0 0.383217)"/><path d="M114.109 29.865 226.043 89.7219" stroke="#2FAC66" stroke-width="1.58772" stroke-linecap="round" stroke-miterlimit="10" stroke-dasharray="0 0 6.50964 6.50964" fill="none" transform="matrix(1 0 0 1.00293 0 0.383217)"/><path d="M228.917 91.2462 231.712 92.7545" stroke="#2FAC66" stroke-width="1.58772" stroke-linecap="round" stroke-miterlimit="10" fill="none" transform="matrix(1 0 0 1.00293 0 0.383217)"/><path d="M105.583 20.4339 105.583 30.1666" stroke="#1D1D1B" stroke-width="1.58772" stroke-miterlimit="10" fill="none" transform="matrix(1 0 0 1.00293 0 0.383217)"/><path d="M110.442 25.2924 100.709 25.2924" stroke="#1D1D1B" stroke-width="1.58772" stroke-miterlimit="10" fill="none" transform="matrix(1 0 0 1.00293 0 0.383217)"/></g></svg>