<svg height="500" version="1.1" width="500" xmlns="http://www.w3.org/2000/svg" xmlns:xlink="http://www.w3.org/1999/xlink" style="overflow: hidden; position: relative; top: -0.399994px;"><desc>Created with Raphaël 2.3.0</desc><defs></defs><path style="stroke-linecap: round; stroke-linejoin: round;" fill="none" stroke="#505050" d="M10,10L10,495" stroke-width="2" stroke-linecap="round" stroke-linejoin="round"></path><path style="stroke-linecap: round; stroke-linejoin: round;" fill="none" stroke="#505050" d="M57.5,10L57.5,495" stroke-width="2" stroke-linecap="round" stroke-linejoin="round"></path><path style="stroke-linecap: round; stroke-linejoin: round;" fill="none" stroke="#505050" d="M105,10L105,495" stroke-width="2" stroke-linecap="round" stroke-linejoin="round"></path><path style="stroke-linecap: round; stroke-linejoin: round;" fill="none" stroke="#505050" d="M152.5,10L152.5,495" stroke-width="2" stroke-linecap="round" stroke-linejoin="round"></path><path style="stroke-linecap: round; stroke-linejoin: round;" fill="none" stroke="#505050" d="M200,10L200,495" stroke-width="2" stroke-linecap="round" stroke-linejoin="round"></path><path style="stroke-linecap: round; stroke-linejoin: round;" fill="none" stroke="#505050" d="M247.5,10L247.5,495" stroke-width="2" stroke-linecap="round" stroke-linejoin="round"></path><path style="stroke-linecap: round; stroke-linejoin: round;" fill="none" stroke="#505050" d="M295,10L295,495" stroke-width="2" stroke-linecap="round" stroke-linejoin="round"></path><path style="stroke-linecap: round; stroke-linejoin: round;" fill="none" stroke="#505050" d="M342.5,10L342.5,495" stroke-width="2" stroke-linecap="round" stroke-linejoin="round"></path><path style="stroke-linecap: round; stroke-linejoin: round;" fill="none" stroke="#505050" d="M390,10L390,495" stroke-width="2" stroke-linecap="round" stroke-linejoin="round"></path><path style="stroke-linecap: round; stroke-linejoin: round;" fill="none" stroke="#505050" d="M437.5,10L437.5,495" stroke-width="2" stroke-linecap="round" stroke-linejoin="round"></path><path style="stroke-linecap: round; stroke-linejoin: round;" fill="none" stroke="#505050" d="M485,10L485,495" stroke-width="2" stroke-linecap="round" stroke-linejoin="round"></path><path style="stroke-linecap: round; stroke-linejoin: round;" fill="none" stroke="#505050" d="M5,490L490,490" stroke-width="2" stroke-linecap="round" stroke-linejoin="round"></path><path style="stroke-linecap: round; stroke-linejoin: round;" fill="none" stroke="#505050" d="M5,442.5L490,442.5" stroke-width="2" stroke-linecap="round" stroke-linejoin="round"></path><path style="stroke-linecap: round; stroke-linejoin: round;" fill="none" stroke="#505050" d="M5,395L490,395" stroke-width="2" stroke-linecap="round" stroke-linejoin="round"></path><path style="stroke-linecap: round; stroke-linejoin: round;" fill="none" stroke="#505050" d="M5,347.5L490,347.5" stroke-width="2" stroke-linecap="round" stroke-linejoin="round"></path><path style="stroke-linecap: round; stroke-linejoin: round;" fill="none" stroke="#505050" d="M5,300L490,300" stroke-width="2" stroke-linecap="round" stroke-linejoin="round"></path><path style="stroke-linecap: round; stroke-linejoin: round;" fill="none" stroke="#505050" d="M5,252.5L490,252.5" stroke-width="2" stroke-linecap="round" stroke-linejoin="round"></path><path style="stroke-linecap: round; stroke-linejoin: round;" fill="none" stroke="#505050" d="M5,205L490,205" stroke-width="2" stroke-linecap="round" stroke-linejoin="round"></path><path style="stroke-linecap: round; stroke-linejoin: round;" fill="none" stroke="#505050" d="M5,157.5L490,157.5" stroke-width="2" stroke-linecap="round" stroke-linejoin="round"></path><path style="stroke-linecap: round; stroke-linejoin: round;" fill="none" stroke="#505050" d="M5,110L490,110" stroke-width="2" stroke-linecap="round" stroke-linejoin="round"></path><path style="stroke-linecap: round; stroke-linejoin: round;" fill="none" stroke="#505050" d="M5,62.5L490,62.5" stroke-width="2" stroke-linecap="round" stroke-linejoin="round"></path><path style="stroke-linecap: round; stroke-linejoin: round;" fill="none" stroke="#505050" d="M5,15L490,15" stroke-width="2" stroke-linecap="round" stroke-linejoin="round"></path><path style="stroke-linecap: round; stroke-linejoin: round;" fill="none" stroke="#505050" d="M33.75,10L33.75,495" stroke-width="1" stroke-linecap="round" stroke-linejoin="round"></path><path style="stroke-linecap: round; stroke-linejoin: round;" fill="none" stroke="#505050" d="M81.25,10L81.25,495" stroke-width="1" stroke-linecap="round" stroke-linejoin="round"></path><path style="stroke-linecap: round; stroke-linejoin: round;" fill="none" stroke="#505050" d="M128.75,10L128.75,495" stroke-width="1" stroke-linecap="round" stroke-linejoin="round"></path><path style="stroke-linecap: round; stroke-linejoin: round;" fill="none" stroke="#505050" d="M176.25,10L176.25,495" stroke-width="1" stroke-linecap="round" stroke-linejoin="round"></path><path style="stroke-linecap: round; stroke-linejoin: round;" fill="none" stroke="#505050" d="M223.75,10L223.75,495" stroke-width="1" stroke-linecap="round" stroke-linejoin="round"></path><path style="stroke-linecap: round; stroke-linejoin: round;" fill="none" stroke="#505050" d="M271.25,10L271.25,495" stroke-width="1" stroke-linecap="round" stroke-linejoin="round"></path><path style="stroke-linecap: round; stroke-linejoin: round;" fill="none" stroke="#505050" d="M318.75,10L318.75,495" stroke-width="1" stroke-linecap="round" stroke-linejoin="round"></path><path style="stroke-linecap: round; stroke-linejoin: round;" fill="none" stroke="#505050" d="M366.25,10L366.25,495" stroke-width="1" stroke-linecap="round" stroke-linejoin="round"></path><path style="stroke-linecap: round; stroke-linejoin: round;" fill="none" stroke="#505050" d="M413.75,10L413.75,495" stroke-width="1" stroke-linecap="round" stroke-linejoin="round"></path><path style="stroke-linecap: round; stroke-linejoin: round;" fill="none" stroke="#505050" d="M461.25,10L461.25,495" stroke-width="1" stroke-linecap="round" stroke-linejoin="round"></path><path style="stroke-linecap: round; stroke-linejoin: round;" fill="none" stroke="#505050" d="M5,466.25L490,466.25" stroke-width="1" stroke-linecap="round" stroke-linejoin="round"></path><path style="stroke-linecap: round; stroke-linejoin: round;" fill="none" stroke="#505050" d="M5,418.75L490,418.75" stroke-width="1" stroke-linecap="round" stroke-linejoin="round"></path><path style="stroke-linecap: round; stroke-linejoin: round;" fill="none" stroke="#505050" d="M5,371.25L490,371.25" stroke-width="1" stroke-linecap="round" stroke-linejoin="round"></path><path style="stroke-linecap: round; stroke-linejoin: round;" fill="none" stroke="#505050" d="M5,323.75L490,323.75" stroke-width="1" stroke-linecap="round" stroke-linejoin="round"></path><path style="stroke-linecap: round; stroke-linejoin: round;" fill="none" stroke="#505050" d="M5,276.25L490,276.25" stroke-width="1" stroke-linecap="round" stroke-linejoin="round"></path><path style="stroke-linecap: round; stroke-linejoin: round;" fill="none" stroke="#505050" d="M5,228.75L490,228.75" stroke-width="1" stroke-linecap="round" stroke-linejoin="round"></path><path style="stroke-linecap: round; stroke-linejoin: round;" fill="none" stroke="#505050" d="M5,181.25L490,181.25" stroke-width="1" stroke-linecap="round" stroke-linejoin="round"></path><path style="stroke-linecap: round; stroke-linejoin: round;" fill="none" stroke="#505050" d="M5,133.75L490,133.75" stroke-width="1" stroke-linecap="round" stroke-linejoin="round"></path><path style="stroke-linecap: round; stroke-linejoin: round;" fill="none" stroke="#505050" d="M5,86.25L490,86.25" stroke-width="1" stroke-linecap="round" stroke-linejoin="round"></path><path style="stroke-linecap: round; stroke-linejoin: round;" fill="none" stroke="#505050" d="M5,38.75L490,38.75" stroke-width="1" stroke-linecap="round" stroke-linejoin="round"></path><path style="stroke-linecap: round; stroke-linejoin: round;" fill="none" stroke="#000000" d="M10,247.5L10,257.5" stroke-width="3" stroke-linecap="round" stroke-linejoin="round"></path><path style="stroke-linecap: round; stroke-linejoin: round;" fill="none" stroke="#000000" d="M33.75,250L33.75,255" stroke-width="2" stroke-linecap="round" stroke-linejoin="round"></path><path style="stroke-linecap: round; stroke-linejoin: round;" fill="none" stroke="#000000" d="M57.5,247.5L57.5,257.5" stroke-width="3" stroke-linecap="round" stroke-linejoin="round"></path><path style="stroke-linecap: round; stroke-linejoin: round;" fill="none" stroke="#000000" d="M81.25,250L81.25,255" stroke-width="2" stroke-linecap="round" stroke-linejoin="round"></path><path style="stroke-linecap: round; stroke-linejoin: round;" fill="none" stroke="#000000" d="M105,247.5L105,257.5" stroke-width="3" stroke-linecap="round" stroke-linejoin="round"></path><path style="stroke-linecap: round; stroke-linejoin: round;" fill="none" stroke="#000000" d="M128.75,250L128.75,255" stroke-width="2" stroke-linecap="round" stroke-linejoin="round"></path><path style="stroke-linecap: round; stroke-linejoin: round;" fill="none" stroke="#000000" d="M152.5,247.5L152.5,257.5" stroke-width="3" stroke-linecap="round" stroke-linejoin="round"></path><path style="stroke-linecap: round; stroke-linejoin: round;" fill="none" stroke="#000000" d="M176.25,250L176.25,255" stroke-width="2" stroke-linecap="round" stroke-linejoin="round"></path><path style="stroke-linecap: round; stroke-linejoin: round;" fill="none" stroke="#000000" d="M200,247.5L200,257.5" stroke-width="3" stroke-linecap="round" stroke-linejoin="round"></path><path style="stroke-linecap: round; stroke-linejoin: round;" fill="none" stroke="#000000" d="M223.75,250L223.75,255" stroke-width="2" stroke-linecap="round" stroke-linejoin="round"></path><path style="stroke-linecap: round; stroke-linejoin: round;" fill="none" stroke="#000000" d="M271.25,250L271.25,255" stroke-width="2" stroke-linecap="round" stroke-linejoin="round"></path><path style="stroke-linecap: round; stroke-linejoin: round;" fill="none" stroke="#000000" d="M295,247.5L295,257.5" stroke-width="3" stroke-linecap="round" stroke-linejoin="round"></path><path style="stroke-linecap: round; stroke-linejoin: round;" fill="none" stroke="#000000" d="M318.75,250L318.75,255" stroke-width="2" stroke-linecap="round" stroke-linejoin="round"></path><path style="stroke-linecap: round; stroke-linejoin: round;" fill="none" stroke="#000000" d="M342.5,247.5L342.5,257.5" stroke-width="3" stroke-linecap="round" stroke-linejoin="round"></path><path style="stroke-linecap: round; stroke-linejoin: round;" fill="none" stroke="#000000" d="M366.25,250L366.25,255" stroke-width="2" stroke-linecap="round" stroke-linejoin="round"></path><path style="stroke-linecap: round; stroke-linejoin: round;" fill="none" stroke="#000000" d="M390,247.5L390,257.5" stroke-width="3" stroke-linecap="round" stroke-linejoin="round"></path><path style="stroke-linecap: round; stroke-linejoin: round;" fill="none" stroke="#000000" d="M413.75,250L413.75,255" stroke-width="2" stroke-linecap="round" stroke-linejoin="round"></path><path style="stroke-linecap: round; stroke-linejoin: round;" fill="none" stroke="#000000" d="M437.5,247.5L437.5,257.5" stroke-width="3" stroke-linecap="round" stroke-linejoin="round"></path><path style="stroke-linecap: round; stroke-linejoin: round;" fill="none" stroke="#000000" d="M461.25,250L461.25,255" stroke-width="2" stroke-linecap="round" stroke-linejoin="round"></path><path style="stroke-linecap: round; stroke-linejoin: round;" fill="none" stroke="#000000" d="M485,247.5L485,257.5" stroke-width="3" stroke-linecap="round" stroke-linejoin="round"></path><path style="stroke-linecap: round; stroke-linejoin: round;" fill="none" stroke="#000000" d="M242.5,490L252.5,490" stroke-width="3" stroke-linecap="round" stroke-linejoin="round"></path><path style="stroke-linecap: round; stroke-linejoin: round;" fill="none" stroke="#000000" d="M245,466.25L250,466.25" stroke-width="2" stroke-linecap="round" stroke-linejoin="round"></path><path style="stroke-linecap: round; stroke-linejoin: round;" fill="none" stroke="#000000" d="M242.5,442.5L252.5,442.5" stroke-width="3" stroke-linecap="round" stroke-linejoin="round"></path><path style="stroke-linecap: round; stroke-linejoin: round;" fill="none" stroke="#000000" d="M245,418.75L250,418.75" stroke-width="2" stroke-linecap="round" stroke-linejoin="round"></path><path style="stroke-linecap: round; stroke-linejoin: round;" fill="none" stroke="#000000" d="M242.5,395L252.5,395" stroke-width="3" stroke-linecap="round" stroke-linejoin="round"></path><path style="stroke-linecap: round; stroke-linejoin: round;" fill="none" stroke="#000000" d="M245,371.25L250,371.25" stroke-width="2" stroke-linecap="round" stroke-linejoin="round"></path><path style="stroke-linecap: round; stroke-linejoin: round;" fill="none" stroke="#000000" d="M242.5,347.5L252.5,347.5" stroke-width="3" stroke-linecap="round" stroke-linejoin="round"></path><path style="stroke-linecap: round; stroke-linejoin: round;" fill="none" stroke="#000000" d="M245,323.75L250,323.75" stroke-width="2" stroke-linecap="round" stroke-linejoin="round"></path><path style="stroke-linecap: round; stroke-linejoin: round;" fill="none" stroke="#000000" d="M242.5,300L252.5,300" stroke-width="3" stroke-linecap="round" stroke-linejoin="round"></path><path style="stroke-linecap: round; stroke-linejoin: round;" fill="none" stroke="#000000" d="M245,276.25L250,276.25" stroke-width="2" stroke-linecap="round" stroke-linejoin="round"></path><path style="stroke-linecap: round; stroke-linejoin: round;" fill="none" stroke="#000000" d="M245,228.75L250,228.75" stroke-width="2" stroke-linecap="round" stroke-linejoin="round"></path><path style="stroke-linecap: round; stroke-linejoin: round;" fill="none" stroke="#000000" d="M242.5,205L252.5,205" stroke-width="3" stroke-linecap="round" stroke-linejoin="round"></path><path style="stroke-linecap: round; stroke-linejoin: round;" fill="none" stroke="#000000" d="M245,181.25L250,181.25" stroke-width="2" stroke-linecap="round" stroke-linejoin="round"></path><path style="stroke-linecap: round; stroke-linejoin: round;" fill="none" stroke="#000000" d="M242.5,157.5L252.5,157.5" stroke-width="3" stroke-linecap="round" stroke-linejoin="round"></path><path style="stroke-linecap: round; stroke-linejoin: round;" fill="none" stroke="#000000" d="M245,133.75L250,133.75" stroke-width="2" stroke-linecap="round" stroke-linejoin="round"></path><path style="stroke-linecap: round; stroke-linejoin: round;" fill="none" stroke="#000000" d="M242.5,110L252.5,110" stroke-width="3" stroke-linecap="round" stroke-linejoin="round"></path><path style="stroke-linecap: round; stroke-linejoin: round;" fill="none" stroke="#000000" d="M245,86.25L250,86.25" stroke-width="2" stroke-linecap="round" stroke-linejoin="round"></path><path style="stroke-linecap: round; stroke-linejoin: round;" fill="none" stroke="#000000" d="M242.5,62.5L252.5,62.5" stroke-width="3" stroke-linecap="round" stroke-linejoin="round"></path><path style="stroke-linecap: round; stroke-linejoin: round;" fill="none" stroke="#000000" d="M245,38.75L250,38.75" stroke-width="2" stroke-linecap="round" stroke-linejoin="round"></path><path style="stroke-linecap: round; stroke-linejoin: round;" fill="none" stroke="#000000" d="M242.5,15L252.5,15" stroke-width="3" stroke-linecap="round" stroke-linejoin="round"></path><path style="stroke-linecap: round; stroke-linejoin: round;" fill="none" stroke="#000000" d="M5,252.5L490,252.5" stroke-width="3" stroke-linecap="round" stroke-linejoin="round"></path><path style="stroke-linecap: round; stroke-linejoin: round;" fill="none" stroke="#000000" d="M247.5,495L247.5,10" stroke-width="3" stroke-linecap="round" stroke-linejoin="round"></path><path style="stroke-linecap: round; stroke-linejoin: round;" fill="#000000" stroke="#000000" d="M490,252.5L491.25,252.5L491.25,255L495,252.5L491.25,250L491.25,252.5Z" stroke-width="3" stroke-linecap="round" stroke-linejoin="round"></path><path style="stroke-linecap: round; stroke-linejoin: round;" fill="#000000" stroke="#000000" d="M247.5,10L247.5,8.75L250,8.75L247.5,5L245,8.75L247.5,8.75Z" stroke-width="3" stroke-linecap="round" stroke-linejoin="round"></path><path style="stroke-linecap: round; stroke-linejoin: round;" fill="none" stroke="#ff0000" d="M153,489.25L154,487.75L154.99999999999997,486.25L156,484.75000000000006L157,483.25L158,481.75L159,480.25L160,478.75L161,477.25L161.99999999999997,475.75L163,474.25L164,472.75L165,471.25L166,469.75L167,468.25L168,466.75L168.99999999999997,465.25000000000006L170,463.75L171,462.25L172,460.75L173,459.25L174,457.75L175,456.24999999999994L175.99999999999997,454.75L177,453.25L178,451.75L179,450.25L180,448.75L181,447.25L182,445.75000000000006L182.99999999999997,444.25L184,442.75L185,441.25L186,439.75L187,438.25L188,436.75L189,435.25L189.99999999999997,433.75L191,432.25L192,430.75L193,429.25L194,427.75L195,426.25L196,424.75L196.99999999999997,423.25L198,421.75L199,420.25L200,418.75L201,417.25L202,415.75L203.00000000000003,414.25L204,412.75L205.00000000000003,411.25L205.99999999999997,409.75L206.99999999999997,408.25L207.99999999999997,406.75L209,405.25L210,403.75L210.99999999999997,402.25L212,400.75L213,399.25L214,397.75L215,396.25L216,394.75L217.00000000000003,393.25L218,391.75L218.99999999999997,390.25000000000006L219.99999999999997,388.75L221,387.25L221.99999999999997,385.75L223,384.25L224,382.75L224.99999999999997,381.25L226,379.75L227,378.25L228,376.75L229,375.25L230,373.75L231.00000000000003,372.25L232,370.75L232.99999999999997,369.25000000000006L233.99999999999997,367.75L235,366.25000000000006L235.99999999999997,364.75L237,363.25L238,361.75L238.99999999999997,360.25L240,358.75L241,357.25L242.00000000000003,355.75L243,354.25L244,352.75L245.00000000000003,351.25L245.99999999999997,349.75L246.99999999999997,348.25L247.99999999999997,346.75L248.99999999999997,345.25L250,343.75L251,342.25L252,340.75L252.99999999999997,339.25L253.99999999999997,337.75L255.00000000000003,336.25L256,334.75L257,333.25L258,331.75L259,330.25L260,328.75L261,327.25L262,325.75L263,324.25L264,322.75L265,321.25L266,319.75L267,318.25L268,316.75L269,315.25L270,313.75L271,312.25L272,310.75L273,309.25L274,307.75L275,306.25L276,304.75L276.99999999999994,303.25L278,301.75L279,300.25L280,298.75L281,297.25L282,295.75L283,294.25L284,292.75L285,291.25L286,289.75L287,288.25L288,286.75L289,285.25L290,283.75000000000006L290.99999999999994,282.25L292,280.75L293,279.25L294,277.75L295,276.25L296,274.75L297,273.25L298,271.75L299,270.25L299.99999999999994,268.75000000000006L301,267.25L302,265.75L303,264.25000000000006L304,262.75L304.99999999999994,261.25L306,259.75L307,258.25L308,256.75L309,255.24999999999997L310,253.75L311.00000000000006,252.25L312,250.74999999999997L313,249.24999999999997L313.99999999999994,247.75L315,246.25000000000003L316,244.75000000000006L317,243.25L318,241.75L318.99999999999994,240.25000000000003L320,238.75L321,237.25L322,235.74999999999997L323,234.25000000000003L324,232.75L325.00000000000006,231.25L326,229.74999999999994L326.99999999999994,228.25L327.99999999999994,226.75000000000006L329,225.25000000000006L330,223.75L331,222.25L332,220.75000000000006L332.99999999999994,219.25L334,217.75L335,216.25L336,214.75L337,213.25L338,211.75L339.00000000000006,210.25L340,208.74999999999994L340.99999999999994,207.25000000000006L341.99999999999994,205.75000000000006L343,204.25000000000006L344,202.75L345,201.25L346,199.75000000000006L347,198.25L348,196.75L349,195.25L350,193.75L351,192.25L352,190.74999999999994L353.00000000000006,189.25L354,187.75L354.99999999999994,186.25000000000006L355.99999999999994,184.75000000000006L357,183.25L358,181.75L359,180.25000000000006L360,178.75000000000006L361,177.24999999999994L362,175.75L363,174.25000000000006L364,172.75L365,171.24999999999994L366,169.75L367.00000000000006,168.25L368,166.75000000000006L368.99999999999994,165.25000000000006L369.99999999999994,163.75L371,162.25L372,160.75000000000006L373,159.25L374,157.75L375,156.25L376,154.75L377,153.25L378,151.75L379,150.25L380,148.75L381,147.25000000000006L382,145.75L382.99999999999994,144.25L383.99999999999994,142.75000000000006L385,141.25L386,139.75L387,138.25L388,136.75000000000006L389,135.25L390,133.75L390.99999999999994,132.25000000000006L392,130.74999999999994L392.99999999999994,129.25000000000006L394,127.75L395,126.25000000000006L396.00000000000006,124.74999999999994L396.99999999999994,123.25000000000006L398,121.75L399,120.25L400.00000000000006,118.74999999999994L401,117.25L401.99999999999994,115.75000000000006L403,114.25L403.99999999999994,112.75000000000006L405,111.25L405.99999999999994,109.75000000000006L407,108.25L408,106.75000000000006L409.00000000000006,105.24999999999994L410,103.75L411,102.24999999999994L411.99999999999994,100.75000000000006L413,99.25L414,97.75000000000006L414.99999999999994,96.25000000000011L416,94.75L417,93.25000000000006L418,91.74999999999994L418.99999999999994,90.25000000000006L420,88.74999999999994L420.99999999999994,87.25000000000006L422,85.75000000000006L423,84.25000000000006L424.00000000000006,82.74999999999994L425,81.25000000000006L426,79.74999999999994L427,78.24999999999994L427.99999999999994,76.75000000000006L429,75.25L429.99999999999994,73.75000000000006L431,72.25000000000006L432,70.75000000000011L433,69.25L433.99999999999994,67.75000000000006L435,66.24999999999994L436,64.75L437.00000000000006,63.24999999999994L438,61.75L439,60.25L439.99999999999994,58.75000000000006L441,57.24999999999994L442,55.75L442.99999999999994,54.250000000000114L444,52.74999999999994L445,51.25L446,49.75L446.99999999999994,48.25000000000006L448,46.75L448.99999999999994,45.250000000000114L450,43.75L451,42.25L452.00000000000006,40.749999999999886L453,39.25L454,37.75L455,36.25L455.99999999999994,34.75000000000006L457,33.25000000000006L457.99999999999994,31.750000000000114L459,30.25L460,28.750000000000057L461,27.249999999999943L461.99999999999994,25.75L463,24.25L464,22.750000000000057L465.00000000000006,21.25L466,19.750000000000057L467,18.249999999999943L467.99999999999994,16.75L468.99999999999994,15.250000000000057L470,15" stroke-width="3" stroke-linecap="round" stroke-linejoin="round" stroke-dasharray="none"></path><path style="stroke-linecap: round; stroke-linejoin: round;" fill="none" stroke="#0000ff" d="M90,488.75L91,487.25L92,485.75L93,484.25L94.00000000000001,482.75L95.00000000000001,481.25L96,479.75L97,478.25L98,476.75L99,475.25L99.99999999999999,473.75000000000006L100.99999999999999,472.25L101.99999999999999,470.75L103,469.25L104,467.75L105,466.25L106,464.75L107,463.25L107.99999999999999,461.75L108.99999999999999,460.25L110,458.75L111,457.25L112,455.75L113,454.25L114,452.75L114.99999999999999,451.25L115.99999999999999,449.75L117,448.25L118,446.75L119,445.25L120,443.75L121,442.25L121.99999999999999,440.75L122.99999999999999,439.25L124,437.75L125,436.25L126.00000000000001,434.75L127,433.25L127.99999999999999,431.75L129,430.25L130,428.75L131,427.25L132,425.75L133,424.25L134,422.75L135,421.25L136,419.75L137,418.25L138,416.75L139,415.25L140,413.75L141,412.25L142,410.75L143,409.25L144,407.75L145,406.25L146,404.75L147,403.25L148,401.75L149,400.25L150,398.75L151,397.25L152,395.75L153,394.25L154,392.75L154.99999999999997,391.25L156,389.75L157,388.25L158,386.75L159,385.25L160,383.75L161,382.25L161.99999999999997,380.75L163,379.25L164,377.75L165,376.25L166,374.75L167,373.25L168,371.75L168.99999999999997,370.25L170,368.75L171,367.25L172,365.75L173,364.25L174,362.75L175,361.25L175.99999999999997,359.75L177,358.25L178,356.75L179,355.25L180,353.75L181,352.25L182,350.75L182.99999999999997,349.25L184,347.75L185,346.25L186,344.75L187,343.25L188,341.75L189,340.25L189.99999999999997,338.75L191,337.25L192,335.75L193,334.25L194,332.75L195,331.25L196,329.75L196.99999999999997,328.25L198,326.75L199,325.25L200,323.75L201,322.25L202,320.75L203.00000000000003,319.25L204,317.75L205.00000000000003,316.25L205.99999999999997,314.75L206.99999999999997,313.25L207.99999999999997,311.75L209,310.25L210,308.75L210.99999999999997,307.25L212,305.75L213,304.25L214,302.75L215,301.25L216,299.75L217.00000000000003,298.25L218,296.74999999999994L218.99999999999997,295.25L219.99999999999997,293.75L221,292.25000000000006L221.99999999999997,290.75L223,289.25L224,287.75L224.99999999999997,286.25L226,284.75L227,283.25L228,281.75L229,280.25L230,278.75L231.00000000000003,277.25L232,275.75L232.99999999999997,274.25L233.99999999999997,272.75000000000006L235,271.25L235.99999999999997,269.75L237,268.25L238,266.75L238.99999999999997,265.25L240,263.75L241,262.25L242.00000000000003,260.75L243,259.25L244,257.75L245.00000000000003,256.25L245.99999999999997,254.75000000000006L246.99999999999997,253.25000000000006L247.99999999999997,251.75000000000003L248.99999999999997,250.25L250,248.75000000000003L251,247.25000000000003L252,245.75L252.99999999999997,244.25L253.99999999999997,242.74999999999997L255.00000000000003,241.25000000000003L256,239.75L257,238.25L258,236.74999999999997L259,235.25L260,233.75000000000006L261,232.25000000000006L262,230.75L263,229.25L264,227.75000000000006L265,226.25L266,224.75L267,223.25L268,221.75000000000006L269,220.25L270,218.74999999999994L271,217.25L272,215.75L273,214.25000000000006L274,212.75000000000006L275,211.25000000000006L276,209.75L276.99999999999994,208.25000000000006L278,206.75000000000006L279,205.24999999999994L280,203.75L281,202.25000000000006L282,200.75L283,199.24999999999994L284,197.75L285,196.25L286,194.74999999999994L287,193.25000000000006L288,191.75L289,190.25L290,188.75000000000006L290.99999999999994,187.25L292,185.75L293,184.25L294,182.75L295,181.25L296,179.75L297,178.25L298,176.75L299,175.25L299.99999999999994,173.75L301,172.25L302,170.75000000000006L303,169.25L304,167.75L304.99999999999994,166.25L306,164.75000000000006L307,163.25L308,161.75L309,160.25L310,158.75L311.00000000000006,157.25L312,155.75L313,154.25L313.99999999999994,152.75L315,151.25000000000006L316,149.75000000000006L317,148.25L318,146.75L318.99999999999994,145.25L320,143.75000000000006L321,142.25L322,140.75L323,139.25L324,137.75L325.00000000000006,136.25L326,134.74999999999994L326.99999999999994,133.25000000000006L327.99999999999994,131.75L329,130.25000000000006L330,128.75000000000006L331,127.25L332,125.75L332.99999999999994,124.25000000000006L334,122.75000000000006L335,121.24999999999994L336,119.75L337,118.25000000000006L338,116.74999999999994L339.00000000000006,115.24999999999994L340,113.75L340.99999999999994,112.25L341.99999999999994,110.75000000000006L343,109.25000000000006L344,107.75L345,106.25000000000006L346,104.75000000000006L347,103.25L348,101.75L349,100.24999999999994L350,98.75L351,97.25L352,95.74999999999994L353.00000000000006,94.25L354,92.75000000000011L354.99999999999994,91.25000000000006L355.99999999999994,89.75L357,88.25L358,86.75L359,85.25L360,83.75L361,82.25L362,80.75L363,79.25L364,77.75L365,76.25L366,74.74999999999994L367.00000000000006,73.25L368,71.75000000000006L368.99999999999994,70.25L369.99999999999994,68.75L371,67.25000000000006L372,65.75000000000006L373,64.25L374,62.75L375,61.25L376,59.75L377,58.25L378,56.75L379,55.25000000000006L380,53.75L381,52.25000000000006L382,50.75000000000006L382.99999999999994,49.25L383.99999999999994,47.75L385,46.25000000000006L386,44.75000000000006L387,43.25L388,41.75000000000006L389,40.25000000000006L390,38.75L390.99999999999994,37.25000000000006L392,35.74999999999994L392.99999999999994,34.25L394,32.74999999999994L395,31.250000000000057L396.00000000000006,29.750000000000057L396.99999999999994,28.250000000000057L398,26.749999999999943L399,25.250000000000057L400.00000000000006,23.749999999999943L401,22.249999999999943L401.99999999999994,20.750000000000057L403,19.25L403.99999999999994,17.750000000000057L405,16.250000000000057L405.99999999999994,15" stroke-width="3" stroke-linecap="round" stroke-linejoin="round" stroke-dasharray="none"></path><path style="stroke-linecap: round; stroke-linejoin: round;" fill="none" stroke="#000040" d="M342.5,110L342.5,205" stroke-width="3" stroke-linecap="round" stroke-linejoin="round" stroke-dasharray="none"></path><path style="" fill="#000040" stroke="#000040" d="M337.5,120L342.5,110L347.5,120L342.5,115Z"></path><path style="" fill="#000040" stroke="#000040" d="M347.5,195L342.5,205L337.5,195L342.5,200Z"></path><text style="text-anchor: middle; font-family: &quot;Arial&quot;; font-size: 18px; font-weight: bold;" x="354.375" y="148" text-anchor="middle" font-family="&quot;Arial&quot;" font-size="18px" stroke="#ffffff" fill="#ffffff" stroke-width="5" font-weight="bold" transform="matrix(1,0,0,1,0,0)"><tspan dy="6">2</tspan></text><text style="text-anchor: middle; font-family: &quot;Arial&quot;; font-size: 18px;" x="354.375" y="148" text-anchor="middle" font-family="&quot;Arial&quot;" font-size="18px" stroke="none" fill="#000040" transform="matrix(1,0,0,1,0,0)"><tspan dy="6">2</tspan></text><text style="text-anchor: middle; font-family: &quot;Arial&quot;; font-size: 18px; font-weight: bold;" x="485" y="15" text-anchor="middle" font-family="&quot;Arial&quot;" font-size="18px" stroke="#ffffff" fill="#ffffff" stroke-width="5" font-weight="bold" transform="matrix(1,0,0,1,0,0)"><tspan dy="6.000000238418579">g</tspan></text><text style="text-anchor: middle; font-family: &quot;Arial&quot;; font-size: 18px;" x="485" y="15" text-anchor="middle" font-family="&quot;Arial&quot;" font-size="18px" stroke="none" fill="#ff0000" transform="matrix(1,0,0,1,0,0)"><tspan dy="6.000000238418579">g</tspan></text><text style="text-anchor: middle; font-family: &quot;Arial&quot;; font-size: 20px; font-weight: bold;" x="418.5" y="15" text-anchor="middle" font-family="&quot;Arial&quot;" font-size="20px" stroke="#ffffff" fill="#ffffff" stroke-width="5" font-weight="bold" transform="matrix(1,0,0,1,0,0)"><tspan dy="7.200000524520874">f</tspan></text><text style="text-anchor: middle; font-family: &quot;Arial&quot;; font-size: 20px;" x="418.5" y="15" text-anchor="middle" font-family="&quot;Arial&quot;" font-size="20px" stroke="none" fill="#000000" transform="matrix(1,0,0,1,0,0)"><tspan dy="7.200000524520874">f</tspan></text><text style="text-anchor: middle; font-family: &quot;Arial&quot;; font-size: 12px; font-weight: bold;" x="10" y="271.5" text-anchor="middle" font-family="&quot;Arial&quot;" font-size="12px" stroke="#ffffff" fill="#ffffff" stroke-width="5" font-weight="bold"><tspan dy="4.400012016296387">-5</tspan></text><text style="text-anchor: middle; font-family: &quot;Arial&quot;; font-size: 12px;" x="10" y="271.5" text-anchor="middle" font-family="&quot;Arial&quot;" font-size="12px" stroke="none" fill="#000000"><tspan dy="4.400012016296387">-5</tspan></text><text style="text-anchor: middle; font-family: &quot;Arial&quot;; font-size: 12px; font-weight: bold;" x="57.5" y="271.5" text-anchor="middle" font-family="&quot;Arial&quot;" font-size="12px" stroke="#ffffff" fill="#ffffff" stroke-width="5" font-weight="bold"><tspan dy="4.400012016296387">-4</tspan></text><text style="text-anchor: middle; font-family: &quot;Arial&quot;; font-size: 12px;" x="57.5" y="271.5" text-anchor="middle" font-family="&quot;Arial&quot;" font-size="12px" stroke="none" fill="#000000"><tspan dy="4.400012016296387">-4</tspan></text><text style="text-anchor: middle; font-family: &quot;Arial&quot;; font-size: 12px; font-weight: bold;" x="105" y="271.5" text-anchor="middle" font-family="&quot;Arial&quot;" font-size="12px" stroke="#ffffff" fill="#ffffff" stroke-width="5" font-weight="bold"><tspan dy="4.400012016296387">-3</tspan></text><text style="text-anchor: middle; font-family: &quot;Arial&quot;; font-size: 12px;" x="105" y="271.5" text-anchor="middle" font-family="&quot;Arial&quot;" font-size="12px" stroke="none" fill="#000000"><tspan dy="4.400012016296387">-3</tspan></text><text style="text-anchor: middle; font-family: &quot;Arial&quot;; font-size: 12px; font-weight: bold;" x="152.5" y="271.5" text-anchor="middle" font-family="&quot;Arial&quot;" font-size="12px" stroke="#ffffff" fill="#ffffff" stroke-width="5" font-weight="bold"><tspan dy="4.400012016296387">-2</tspan></text><text style="text-anchor: middle; font-family: &quot;Arial&quot;; font-size: 12px;" x="152.5" y="271.5" text-anchor="middle" font-family="&quot;Arial&quot;" font-size="12px" stroke="none" fill="#000000"><tspan dy="4.400012016296387">-2</tspan></text><text style="text-anchor: middle; font-family: &quot;Arial&quot;; font-size: 12px; font-weight: bold;" x="200" y="271.5" text-anchor="middle" font-family="&quot;Arial&quot;" font-size="12px" stroke="#ffffff" fill="#ffffff" stroke-width="5" font-weight="bold"><tspan dy="4.400012016296387">-1</tspan></text><text style="text-anchor: middle; font-family: &quot;Arial&quot;; font-size: 12px;" x="200" y="271.5" text-anchor="middle" font-family="&quot;Arial&quot;" font-size="12px" stroke="none" fill="#000000"><tspan dy="4.400012016296387">-1</tspan></text><text style="text-anchor: middle; font-family: &quot;Arial&quot;; font-size: 12px; font-weight: bold;" x="295" y="271.5" text-anchor="middle" font-family="&quot;Arial&quot;" font-size="12px" stroke="#ffffff" fill="#ffffff" stroke-width="5" font-weight="bold"><tspan dy="4.400012016296387">1</tspan></text><text style="text-anchor: middle; font-family: &quot;Arial&quot;; font-size: 12px;" x="295" y="271.5" text-anchor="middle" font-family="&quot;Arial&quot;" font-size="12px" stroke="none" fill="#000000"><tspan dy="4.400012016296387">1</tspan></text><text style="text-anchor: middle; font-family: &quot;Arial&quot;; font-size: 12px; font-weight: bold;" x="342.5" y="271.5" text-anchor="middle" font-family="&quot;Arial&quot;" font-size="12px" stroke="#ffffff" fill="#ffffff" stroke-width="5" font-weight="bold"><tspan dy="4.400012016296387">2</tspan></text><text style="text-anchor: middle; font-family: &quot;Arial&quot;; font-size: 12px;" x="342.5" y="271.5" text-anchor="middle" font-family="&quot;Arial&quot;" font-size="12px" stroke="none" fill="#000000"><tspan dy="4.400012016296387">2</tspan></text><text style="text-anchor: middle; font-family: &quot;Arial&quot;; font-size: 12px; font-weight: bold;" x="390" y="271.5" text-anchor="middle" font-family="&quot;Arial&quot;" font-size="12px" stroke="#ffffff" fill="#ffffff" stroke-width="5" font-weight="bold"><tspan dy="4.400012016296387">3</tspan></text><text style="text-anchor: middle; font-family: &quot;Arial&quot;; font-size: 12px;" x="390" y="271.5" text-anchor="middle" font-family="&quot;Arial&quot;" font-size="12px" stroke="none" fill="#000000"><tspan dy="4.400012016296387">3</tspan></text><text style="text-anchor: middle; font-family: &quot;Arial&quot;; font-size: 12px; font-weight: bold;" x="437.5" y="271.5" text-anchor="middle" font-family="&quot;Arial&quot;" font-size="12px" stroke="#ffffff" fill="#ffffff" stroke-width="5" font-weight="bold"><tspan dy="4.400012016296387">4</tspan></text><text style="text-anchor: middle; font-family: &quot;Arial&quot;; font-size: 12px;" x="437.5" y="271.5" text-anchor="middle" font-family="&quot;Arial&quot;" font-size="12px" stroke="none" fill="#000000"><tspan dy="4.400012016296387">4</tspan></text><text style="text-anchor: middle; font-family: &quot;Arial&quot;; font-size: 12px; font-weight: bold;" x="485" y="271.5" text-anchor="middle" font-family="&quot;Arial&quot;" font-size="12px" stroke="#ffffff" fill="#ffffff" stroke-width="5" font-weight="bold"><tspan dy="4.400012016296387">5</tspan></text><text style="text-anchor: middle; font-family: &quot;Arial&quot;; font-size: 12px;" x="485" y="271.5" text-anchor="middle" font-family="&quot;Arial&quot;" font-size="12px" stroke="none" fill="#000000"><tspan dy="4.400012016296387">5</tspan></text><path style="" fill="none" stroke="#000000" d="M242.5,490L252.5,490"></path><text style="text-anchor: middle; font-family: &quot;Arial&quot;; font-size: 12px; font-weight: bold;" x="230.5" y="490" text-anchor="middle" font-family="&quot;Arial&quot;" font-size="12px" stroke="#ffffff" fill="#ffffff" stroke-width="5" font-weight="bold"><tspan dy="4.400012016296387">-5</tspan></text><text style="text-anchor: middle; font-family: &quot;Arial&quot;; font-size: 12px;" x="230.5" y="490" text-anchor="middle" font-family="&quot;Arial&quot;" font-size="12px" stroke="none" fill="#000000"><tspan dy="4.400012016296387">-5</tspan></text><path style="" fill="none" stroke="#000000" d="M242.5,442.5L252.5,442.5"></path><text style="text-anchor: middle; font-family: &quot;Arial&quot;; font-size: 12px; font-weight: bold;" x="230.5" y="442.5" text-anchor="middle" font-family="&quot;Arial&quot;" font-size="12px" stroke="#ffffff" fill="#ffffff" stroke-width="5" font-weight="bold"><tspan dy="4.400012016296387">-4</tspan></text><text style="text-anchor: middle; font-family: &quot;Arial&quot;; font-size: 12px;" x="230.5" y="442.5" text-anchor="middle" font-family="&quot;Arial&quot;" font-size="12px" stroke="none" fill="#000000"><tspan dy="4.400012016296387">-4</tspan></text><path style="" fill="none" stroke="#000000" d="M242.5,395L252.5,395"></path><text style="text-anchor: middle; font-family: &quot;Arial&quot;; font-size: 12px; font-weight: bold;" x="230.5" y="395" text-anchor="middle" font-family="&quot;Arial&quot;" font-size="12px" stroke="#ffffff" fill="#ffffff" stroke-width="5" font-weight="bold"><tspan dy="4.400012016296387">-3</tspan></text><text style="text-anchor: middle; font-family: &quot;Arial&quot;; font-size: 12px;" x="230.5" y="395" text-anchor="middle" font-family="&quot;Arial&quot;" font-size="12px" stroke="none" fill="#000000"><tspan dy="4.400012016296387">-3</tspan></text><path style="" fill="none" stroke="#000000" d="M242.5,347.5L252.5,347.5"></path><text style="text-anchor: middle; font-family: &quot;Arial&quot;; font-size: 12px; font-weight: bold;" x="230.5" y="347.5" text-anchor="middle" font-family="&quot;Arial&quot;" font-size="12px" stroke="#ffffff" fill="#ffffff" stroke-width="5" font-weight="bold"><tspan dy="4.400012016296387">-2</tspan></text><text style="text-anchor: middle; font-family: &quot;Arial&quot;; font-size: 12px;" x="230.5" y="347.5" text-anchor="middle" font-family="&quot;Arial&quot;" font-size="12px" stroke="none" fill="#000000"><tspan dy="4.400012016296387">-2</tspan></text><path style="" fill="none" stroke="#000000" d="M242.5,300L252.5,300"></path><text style="text-anchor: middle; font-family: &quot;Arial&quot;; font-size: 12px; font-weight: bold;" x="230.5" y="300" text-anchor="middle" font-family="&quot;Arial&quot;" font-size="12px" stroke="#ffffff" fill="#ffffff" stroke-width="5" font-weight="bold"><tspan dy="4.400012016296387">-1</tspan></text><text style="text-anchor: middle; font-family: &quot;Arial&quot;; font-size: 12px;" x="230.5" y="300" text-anchor="middle" font-family="&quot;Arial&quot;" font-size="12px" stroke="none" fill="#000000"><tspan dy="4.400012016296387">-1</tspan></text><path style="" fill="none" stroke="#000000" d="M242.5,205L252.5,205"></path><text style="text-anchor: middle; font-family: &quot;Arial&quot;; font-size: 12px; font-weight: bold;" x="230.5" y="205" text-anchor="middle" font-family="&quot;Arial&quot;" font-size="12px" stroke="#ffffff" fill="#ffffff" stroke-width="5" font-weight="bold"><tspan dy="4.399996757507324">1</tspan></text><text style="text-anchor: middle; font-family: &quot;Arial&quot;; font-size: 12px;" x="230.5" y="205" text-anchor="middle" font-family="&quot;Arial&quot;" font-size="12px" stroke="none" fill="#000000"><tspan dy="4.399996757507324">1</tspan></text><path style="" fill="none" stroke="#000000" d="M242.5,157.5L252.5,157.5"></path><text style="text-anchor: middle; font-family: &quot;Arial&quot;; font-size: 12px; font-weight: bold;" x="230.5" y="157.5" text-anchor="middle" font-family="&quot;Arial&quot;" font-size="12px" stroke="#ffffff" fill="#ffffff" stroke-width="5" font-weight="bold"><tspan dy="4.399996757507324">2</tspan></text><text style="text-anchor: middle; font-family: &quot;Arial&quot;; font-size: 12px;" x="230.5" y="157.5" text-anchor="middle" font-family="&quot;Arial&quot;" font-size="12px" stroke="none" fill="#000000"><tspan dy="4.399996757507324">2</tspan></text><path style="" fill="none" stroke="#000000" d="M242.5,110L252.5,110"></path><text style="text-anchor: middle; font-family: &quot;Arial&quot;; font-size: 12px; font-weight: bold;" x="230.5" y="110" text-anchor="middle" font-family="&quot;Arial&quot;" font-size="12px" stroke="#ffffff" fill="#ffffff" stroke-width="5" font-weight="bold"><tspan dy="4.399996757507324">3</tspan></text><text style="text-anchor: middle; font-family: &quot;Arial&quot;; font-size: 12px;" x="230.5" y="110" text-anchor="middle" font-family="&quot;Arial&quot;" font-size="12px" stroke="none" fill="#000000"><tspan dy="4.399996757507324">3</tspan></text><path style="" fill="none" stroke="#000000" d="M242.5,62.5L252.5,62.5"></path><text style="text-anchor: middle; font-family: &quot;Arial&quot;; font-size: 12px; font-weight: bold;" x="230.5" y="62.5" text-anchor="middle" font-family="&quot;Arial&quot;" font-size="12px" stroke="#ffffff" fill="#ffffff" stroke-width="5" font-weight="bold"><tspan dy="4.40000057220459">4</tspan></text><text style="text-anchor: middle; font-family: &quot;Arial&quot;; font-size: 12px;" x="230.5" y="62.5" text-anchor="middle" font-family="&quot;Arial&quot;" font-size="12px" stroke="none" fill="#000000"><tspan dy="4.40000057220459">4</tspan></text><path style="" fill="none" stroke="#000000" d="M242.5,15L252.5,15"></path><text style="text-anchor: middle; font-family: &quot;Arial&quot;; font-size: 12px; font-weight: bold;" x="230.5" y="15" text-anchor="middle" font-family="&quot;Arial&quot;" font-size="12px" stroke="#ffffff" fill="#ffffff" stroke-width="5" font-weight="bold"><tspan dy="4.400000095367432">5</tspan></text><text style="text-anchor: middle; font-family: &quot;Arial&quot;; font-size: 12px;" x="230.5" y="15" text-anchor="middle" font-family="&quot;Arial&quot;" font-size="12px" stroke="none" fill="#000000"><tspan dy="4.400000095367432">5</tspan></text></svg>