<svg height="500" version="1.1" width="500" xmlns="http://www.w3.org/2000/svg" xmlns:xlink="http://www.w3.org/1999/xlink" style="overflow: hidden; position: relative; top: -0.399994px;"><desc>Created with Raphaël 2.3.0</desc><defs></defs><path style="stroke-linecap: round; stroke-linejoin: round;" fill="none" stroke="#505050" d="M10,10L10,495" stroke-width="2" stroke-linecap="round" stroke-linejoin="round"></path><path style="stroke-linecap: round; stroke-linejoin: round;" fill="none" stroke="#505050" d="M57.5,10L57.5,495" stroke-width="2" stroke-linecap="round" stroke-linejoin="round"></path><path style="stroke-linecap: round; stroke-linejoin: round;" fill="none" stroke="#505050" d="M105,10L105,495" stroke-width="2" stroke-linecap="round" stroke-linejoin="round"></path><path style="stroke-linecap: round; stroke-linejoin: round;" fill="none" stroke="#505050" d="M152.5,10L152.5,495" stroke-width="2" stroke-linecap="round" stroke-linejoin="round"></path><path style="stroke-linecap: round; stroke-linejoin: round;" fill="none" stroke="#505050" d="M200,10L200,495" stroke-width="2" stroke-linecap="round" stroke-linejoin="round"></path><path style="stroke-linecap: round; stroke-linejoin: round;" fill="none" stroke="#505050" d="M247.5,10L247.5,495" stroke-width="2" stroke-linecap="round" stroke-linejoin="round"></path><path style="stroke-linecap: round; stroke-linejoin: round;" fill="none" stroke="#505050" d="M295,10L295,495" stroke-width="2" stroke-linecap="round" stroke-linejoin="round"></path><path style="stroke-linecap: round; stroke-linejoin: round;" fill="none" stroke="#505050" d="M342.5,10L342.5,495" stroke-width="2" stroke-linecap="round" stroke-linejoin="round"></path><path style="stroke-linecap: round; stroke-linejoin: round;" fill="none" stroke="#505050" d="M390,10L390,495" stroke-width="2" stroke-linecap="round" stroke-linejoin="round"></path><path style="stroke-linecap: round; stroke-linejoin: round;" fill="none" stroke="#505050" d="M437.5,10L437.5,495" stroke-width="2" stroke-linecap="round" stroke-linejoin="round"></path><path style="stroke-linecap: round; stroke-linejoin: round;" fill="none" stroke="#505050" d="M485,10L485,495" stroke-width="2" stroke-linecap="round" stroke-linejoin="round"></path><path style="stroke-linecap: round; stroke-linejoin: round;" fill="none" stroke="#505050" d="M5,490L490,490" stroke-width="2" stroke-linecap="round" stroke-linejoin="round"></path><path style="stroke-linecap: round; stroke-linejoin: round;" fill="none" stroke="#505050" d="M5,442.5L490,442.5" stroke-width="2" stroke-linecap="round" stroke-linejoin="round"></path><path style="stroke-linecap: round; stroke-linejoin: round;" fill="none" stroke="#505050" d="M5,395L490,395" stroke-width="2" stroke-linecap="round" stroke-linejoin="round"></path><path style="stroke-linecap: round; stroke-linejoin: round;" fill="none" stroke="#505050" d="M5,347.5L490,347.5" stroke-width="2" stroke-linecap="round" stroke-linejoin="round"></path><path style="stroke-linecap: round; stroke-linejoin: round;" fill="none" stroke="#505050" d="M5,300L490,300" stroke-width="2" stroke-linecap="round" stroke-linejoin="round"></path><path style="stroke-linecap: round; stroke-linejoin: round;" fill="none" stroke="#505050" d="M5,252.5L490,252.5" stroke-width="2" stroke-linecap="round" stroke-linejoin="round"></path><path style="stroke-linecap: round; stroke-linejoin: round;" fill="none" stroke="#505050" d="M5,205L490,205" stroke-width="2" stroke-linecap="round" stroke-linejoin="round"></path><path style="stroke-linecap: round; stroke-linejoin: round;" fill="none" stroke="#505050" d="M5,157.5L490,157.5" stroke-width="2" stroke-linecap="round" stroke-linejoin="round"></path><path style="stroke-linecap: round; stroke-linejoin: round;" fill="none" stroke="#505050" d="M5,110L490,110" stroke-width="2" stroke-linecap="round" stroke-linejoin="round"></path><path style="stroke-linecap: round; stroke-linejoin: round;" fill="none" stroke="#505050" d="M5,62.5L490,62.5" stroke-width="2" stroke-linecap="round" stroke-linejoin="round"></path><path style="stroke-linecap: round; stroke-linejoin: round;" fill="none" stroke="#505050" d="M5,15L490,15" stroke-width="2" stroke-linecap="round" stroke-linejoin="round"></path><path style="stroke-linecap: round; stroke-linejoin: round;" fill="none" stroke="#505050" d="M33.75,10L33.75,495" stroke-width="1" stroke-linecap="round" stroke-linejoin="round"></path><path style="stroke-linecap: round; stroke-linejoin: round;" fill="none" stroke="#505050" d="M81.25,10L81.25,495" stroke-width="1" stroke-linecap="round" stroke-linejoin="round"></path><path style="stroke-linecap: round; stroke-linejoin: round;" fill="none" stroke="#505050" d="M128.75,10L128.75,495" stroke-width="1" stroke-linecap="round" stroke-linejoin="round"></path><path style="stroke-linecap: round; stroke-linejoin: round;" fill="none" stroke="#505050" d="M176.25,10L176.25,495" stroke-width="1" stroke-linecap="round" stroke-linejoin="round"></path><path style="stroke-linecap: round; stroke-linejoin: round;" fill="none" stroke="#505050" d="M223.75,10L223.75,495" stroke-width="1" stroke-linecap="round" stroke-linejoin="round"></path><path style="stroke-linecap: round; stroke-linejoin: round;" fill="none" stroke="#505050" d="M271.25,10L271.25,495" stroke-width="1" stroke-linecap="round" stroke-linejoin="round"></path><path style="stroke-linecap: round; stroke-linejoin: round;" fill="none" stroke="#505050" d="M318.75,10L318.75,495" stroke-width="1" stroke-linecap="round" stroke-linejoin="round"></path><path style="stroke-linecap: round; stroke-linejoin: round;" fill="none" stroke="#505050" d="M366.25,10L366.25,495" stroke-width="1" stroke-linecap="round" stroke-linejoin="round"></path><path style="stroke-linecap: round; stroke-linejoin: round;" fill="none" stroke="#505050" d="M413.75,10L413.75,495" stroke-width="1" stroke-linecap="round" stroke-linejoin="round"></path><path style="stroke-linecap: round; stroke-linejoin: round;" fill="none" stroke="#505050" d="M461.25,10L461.25,495" stroke-width="1" stroke-linecap="round" stroke-linejoin="round"></path><path style="stroke-linecap: round; stroke-linejoin: round;" fill="none" stroke="#505050" d="M5,466.25L490,466.25" stroke-width="1" stroke-linecap="round" stroke-linejoin="round"></path><path style="stroke-linecap: round; stroke-linejoin: round;" fill="none" stroke="#505050" d="M5,418.75L490,418.75" stroke-width="1" stroke-linecap="round" stroke-linejoin="round"></path><path style="stroke-linecap: round; stroke-linejoin: round;" fill="none" stroke="#505050" d="M5,371.25L490,371.25" stroke-width="1" stroke-linecap="round" stroke-linejoin="round"></path><path style="stroke-linecap: round; stroke-linejoin: round;" fill="none" stroke="#505050" d="M5,323.75L490,323.75" stroke-width="1" stroke-linecap="round" stroke-linejoin="round"></path><path style="stroke-linecap: round; stroke-linejoin: round;" fill="none" stroke="#505050" d="M5,276.25L490,276.25" stroke-width="1" stroke-linecap="round" stroke-linejoin="round"></path><path style="stroke-linecap: round; stroke-linejoin: round;" fill="none" stroke="#505050" d="M5,228.75L490,228.75" stroke-width="1" stroke-linecap="round" stroke-linejoin="round"></path><path style="stroke-linecap: round; stroke-linejoin: round;" fill="none" stroke="#505050" d="M5,181.25L490,181.25" stroke-width="1" stroke-linecap="round" stroke-linejoin="round"></path><path style="stroke-linecap: round; stroke-linejoin: round;" fill="none" stroke="#505050" d="M5,133.75L490,133.75" stroke-width="1" stroke-linecap="round" stroke-linejoin="round"></path><path style="stroke-linecap: round; stroke-linejoin: round;" fill="none" stroke="#505050" d="M5,86.25L490,86.25" stroke-width="1" stroke-linecap="round" stroke-linejoin="round"></path><path style="stroke-linecap: round; stroke-linejoin: round;" fill="none" stroke="#505050" d="M5,38.75L490,38.75" stroke-width="1" stroke-linecap="round" stroke-linejoin="round"></path><path style="stroke-linecap: round; stroke-linejoin: round;" fill="none" stroke="#000000" d="M10,390L10,400" stroke-width="3" stroke-linecap="round" stroke-linejoin="round"></path><path style="stroke-linecap: round; stroke-linejoin: round;" fill="none" stroke="#000000" d="M33.75,392.5L33.75,397.5" stroke-width="2" stroke-linecap="round" stroke-linejoin="round"></path><path style="stroke-linecap: round; stroke-linejoin: round;" fill="none" stroke="#000000" d="M57.5,390L57.5,400" stroke-width="3" stroke-linecap="round" stroke-linejoin="round"></path><path style="stroke-linecap: round; stroke-linejoin: round;" fill="none" stroke="#000000" d="M81.25,392.5L81.25,397.5" stroke-width="2" stroke-linecap="round" stroke-linejoin="round"></path><path style="stroke-linecap: round; stroke-linejoin: round;" fill="none" stroke="#000000" d="M105,390L105,400" stroke-width="3" stroke-linecap="round" stroke-linejoin="round"></path><path style="stroke-linecap: round; stroke-linejoin: round;" fill="none" stroke="#000000" d="M128.75,392.5L128.75,397.5" stroke-width="2" stroke-linecap="round" stroke-linejoin="round"></path><path style="stroke-linecap: round; stroke-linejoin: round;" fill="none" stroke="#000000" d="M152.5,390L152.5,400" stroke-width="3" stroke-linecap="round" stroke-linejoin="round"></path><path style="stroke-linecap: round; stroke-linejoin: round;" fill="none" stroke="#000000" d="M176.25,392.5L176.25,397.5" stroke-width="2" stroke-linecap="round" stroke-linejoin="round"></path><path style="stroke-linecap: round; stroke-linejoin: round;" fill="none" stroke="#000000" d="M223.75,392.5L223.75,397.5" stroke-width="2" stroke-linecap="round" stroke-linejoin="round"></path><path style="stroke-linecap: round; stroke-linejoin: round;" fill="none" stroke="#000000" d="M247.5,390L247.5,400" stroke-width="3" stroke-linecap="round" stroke-linejoin="round"></path><path style="stroke-linecap: round; stroke-linejoin: round;" fill="none" stroke="#000000" d="M271.25,392.5L271.25,397.5" stroke-width="2" stroke-linecap="round" stroke-linejoin="round"></path><path style="stroke-linecap: round; stroke-linejoin: round;" fill="none" stroke="#000000" d="M295,390L295,400" stroke-width="3" stroke-linecap="round" stroke-linejoin="round"></path><path style="stroke-linecap: round; stroke-linejoin: round;" fill="none" stroke="#000000" d="M318.75,392.5L318.75,397.5" stroke-width="2" stroke-linecap="round" stroke-linejoin="round"></path><path style="stroke-linecap: round; stroke-linejoin: round;" fill="none" stroke="#000000" d="M342.5,390L342.5,400" stroke-width="3" stroke-linecap="round" stroke-linejoin="round"></path><path style="stroke-linecap: round; stroke-linejoin: round;" fill="none" stroke="#000000" d="M366.25,392.5L366.25,397.5" stroke-width="2" stroke-linecap="round" stroke-linejoin="round"></path><path style="stroke-linecap: round; stroke-linejoin: round;" fill="none" stroke="#000000" d="M390,390L390,400" stroke-width="3" stroke-linecap="round" stroke-linejoin="round"></path><path style="stroke-linecap: round; stroke-linejoin: round;" fill="none" stroke="#000000" d="M413.75,392.5L413.75,397.5" stroke-width="2" stroke-linecap="round" stroke-linejoin="round"></path><path style="stroke-linecap: round; stroke-linejoin: round;" fill="none" stroke="#000000" d="M437.5,390L437.5,400" stroke-width="3" stroke-linecap="round" stroke-linejoin="round"></path><path style="stroke-linecap: round; stroke-linejoin: round;" fill="none" stroke="#000000" d="M461.25,392.5L461.25,397.5" stroke-width="2" stroke-linecap="round" stroke-linejoin="round"></path><path style="stroke-linecap: round; stroke-linejoin: round;" fill="none" stroke="#000000" d="M485,390L485,400" stroke-width="3" stroke-linecap="round" stroke-linejoin="round"></path><path style="stroke-linecap: round; stroke-linejoin: round;" fill="none" stroke="#000000" d="M195,490L205,490" stroke-width="3" stroke-linecap="round" stroke-linejoin="round"></path><path style="stroke-linecap: round; stroke-linejoin: round;" fill="none" stroke="#000000" d="M197.5,466.25L202.5,466.25" stroke-width="2" stroke-linecap="round" stroke-linejoin="round"></path><path style="stroke-linecap: round; stroke-linejoin: round;" fill="none" stroke="#000000" d="M195,442.5L205,442.5" stroke-width="3" stroke-linecap="round" stroke-linejoin="round"></path><path style="stroke-linecap: round; stroke-linejoin: round;" fill="none" stroke="#000000" d="M197.5,418.75L202.5,418.75" stroke-width="2" stroke-linecap="round" stroke-linejoin="round"></path><path style="stroke-linecap: round; stroke-linejoin: round;" fill="none" stroke="#000000" d="M197.5,371.25L202.5,371.25" stroke-width="2" stroke-linecap="round" stroke-linejoin="round"></path><path style="stroke-linecap: round; stroke-linejoin: round;" fill="none" stroke="#000000" d="M195,347.5L205,347.5" stroke-width="3" stroke-linecap="round" stroke-linejoin="round"></path><path style="stroke-linecap: round; stroke-linejoin: round;" fill="none" stroke="#000000" d="M197.5,323.75L202.5,323.75" stroke-width="2" stroke-linecap="round" stroke-linejoin="round"></path><path style="stroke-linecap: round; stroke-linejoin: round;" fill="none" stroke="#000000" d="M195,300L205,300" stroke-width="3" stroke-linecap="round" stroke-linejoin="round"></path><path style="stroke-linecap: round; stroke-linejoin: round;" fill="none" stroke="#000000" d="M197.5,276.25L202.5,276.25" stroke-width="2" stroke-linecap="round" stroke-linejoin="round"></path><path style="stroke-linecap: round; stroke-linejoin: round;" fill="none" stroke="#000000" d="M195,252.5L205,252.5" stroke-width="3" stroke-linecap="round" stroke-linejoin="round"></path><path style="stroke-linecap: round; stroke-linejoin: round;" fill="none" stroke="#000000" d="M197.5,228.75L202.5,228.75" stroke-width="2" stroke-linecap="round" stroke-linejoin="round"></path><path style="stroke-linecap: round; stroke-linejoin: round;" fill="none" stroke="#000000" d="M195,205L205,205" stroke-width="3" stroke-linecap="round" stroke-linejoin="round"></path><path style="stroke-linecap: round; stroke-linejoin: round;" fill="none" stroke="#000000" d="M197.5,181.25L202.5,181.25" stroke-width="2" stroke-linecap="round" stroke-linejoin="round"></path><path style="stroke-linecap: round; stroke-linejoin: round;" fill="none" stroke="#000000" d="M195,157.5L205,157.5" stroke-width="3" stroke-linecap="round" stroke-linejoin="round"></path><path style="stroke-linecap: round; stroke-linejoin: round;" fill="none" stroke="#000000" d="M197.5,133.75L202.5,133.75" stroke-width="2" stroke-linecap="round" stroke-linejoin="round"></path><path style="stroke-linecap: round; stroke-linejoin: round;" fill="none" stroke="#000000" d="M195,110L205,110" stroke-width="3" stroke-linecap="round" stroke-linejoin="round"></path><path style="stroke-linecap: round; stroke-linejoin: round;" fill="none" stroke="#000000" d="M197.5,86.25L202.5,86.25" stroke-width="2" stroke-linecap="round" stroke-linejoin="round"></path><path style="stroke-linecap: round; stroke-linejoin: round;" fill="none" stroke="#000000" d="M195,62.5L205,62.5" stroke-width="3" stroke-linecap="round" stroke-linejoin="round"></path><path style="stroke-linecap: round; stroke-linejoin: round;" fill="none" stroke="#000000" d="M197.5,38.75L202.5,38.75" stroke-width="2" stroke-linecap="round" stroke-linejoin="round"></path><path style="stroke-linecap: round; stroke-linejoin: round;" fill="none" stroke="#000000" d="M195,15L205,15" stroke-width="3" stroke-linecap="round" stroke-linejoin="round"></path><path style="stroke-linecap: round; stroke-linejoin: round;" fill="none" stroke="#000000" d="M5,395L490,395" stroke-width="3" stroke-linecap="round" stroke-linejoin="round"></path><path style="stroke-linecap: round; stroke-linejoin: round;" fill="none" stroke="#000000" d="M200,495L200,10" stroke-width="3" stroke-linecap="round" stroke-linejoin="round"></path><path style="stroke-linecap: round; stroke-linejoin: round;" fill="#000000" stroke="#000000" d="M490,395L491.25,395L491.25,397.5L495,395L491.25,392.5L491.25,395Z" stroke-width="3" stroke-linecap="round" stroke-linejoin="round"></path><path style="stroke-linecap: round; stroke-linejoin: round;" fill="#000000" stroke="#000000" d="M200,10L200,8.75L202.5,8.75L200,5L197.5,8.75L200,8.75Z" stroke-width="3" stroke-linecap="round" stroke-linejoin="round"></path><path style="stroke-linecap: round; stroke-linejoin: round;" fill="none" stroke="#ff0000" d="M41.99999999999999,489.5L43,488L44,486.5L45,485L46.00000000000001,483.5L46.999999999999986,482L47.99999999999999,480.50000000000006L48.99999999999999,479L50,477.5L51,476L52.00000000000001,474.5L53.00000000000001,473L54.00000000000001,471.49999999999994L54.99999999999999,470L55.99999999999999,468.5L57,467L58,465.5L58.999999999999986,464L59.999999999999986,462.5L60.99999999999999,461.00000000000006L61.99999999999999,459.5L62.99999999999999,458L64,456.5L65,455L66,453.5L67.00000000000001,451.99999999999994L68,450.5L69,449L70,447.5L71,446L72,444.5L72.99999999999997,443L73.99999999999999,441.5L74.99999999999999,440L76,438.5L77,437L78,435.5L79,434L80,432.5L81.00000000000001,431L82.00000000000001,429.5L83,428L84,426.5L85,425L85.99999999999999,423.5L86.99999999999999,422L87.99999999999999,420.5L88.99999999999999,419L90,417.5L91,416L92,414.5L93,413L94.00000000000001,411.5L95.00000000000001,410L96,408.5L97,407L98,405.5L99,404L99.99999999999999,402.5L100.99999999999999,401L101.99999999999999,399.5L103,398L104,396.5L105,395L106,393.5L107,392L107.99999999999999,390.5L108.99999999999999,389L110,387.5L111,386L112,384.5L113,383L114,381.5L114.99999999999999,380L115.99999999999999,378.5L117,377L118,375.5L119,374L120,372.5L121,371L121.99999999999999,369.5L122.99999999999999,368L124,366.5L125,365L126.00000000000001,363.5L127,362L127.99999999999999,360.5L129,359L130,357.5L131,356L132,354.5L133,353L134,351.5L135,350L136,348.5L137,347L138,345.5L139,344L140,342.5L141,341L142,339.5L143,338L144,336.5L145,335L146,333.5L147,332L148,330.5L149,329L150,327.5L151,326L152,324.5L153,323L154,321.5L154.99999999999997,320L156,318.5L157,317L158,315.5L159,314L160,312.5L161,311L161.99999999999997,309.5L163,308L164,306.5L165,305L166,303.5L167,302L168,300.5L168.99999999999997,299.00000000000006L170,297.5L171,296L172,294.5L173,293L174,291.5L175,290L175.99999999999997,288.5L177,287L178,285.5L179,284L180,282.5L181,281L182,279.5L182.99999999999997,278L184,276.5L185,275L186,273.5L187,272L188,270.5L189,269L189.99999999999997,267.5L191,266L192,264.5L193,263L194,261.5L195,260L196,258.5L196.99999999999997,257L198,255.5L199,254.00000000000003L200,252.5L201,250.99999999999997L202,249.49999999999997L203.00000000000003,248L204,246.5L205.00000000000003,244.99999999999997L205.99999999999997,243.5L206.99999999999997,242.00000000000006L207.99999999999997,240.50000000000003L209,239.00000000000003L210,237.5L210.99999999999997,236L212,234.50000000000003L213,233L214,231.5L215,230L216,228.5L217.00000000000003,227L218,225.49999999999994L218.99999999999997,224L219.99999999999997,222.5L221,221.00000000000006L221.99999999999997,219.50000000000006L223,218L224,216.5L224.99999999999997,215.00000000000006L226,213.5L227,211.99999999999994L228,210.5L229,209.00000000000006L230,207.49999999999994L231.00000000000003,205.99999999999994L232,204.5L232.99999999999997,203L233.99999999999997,201.50000000000006L235,200.00000000000006L235.99999999999997,198.5L237,197L238,195.50000000000006L238.99999999999997,194L240,192.5L241,191L242.00000000000003,189.5L243,188L244,186.49999999999994L245.00000000000003,185L245.99999999999997,183.50000000000006L246.99999999999997,182.00000000000006L247.99999999999997,180.5L248.99999999999997,179L250,177.50000000000006L251,176L252,174.5L252.99999999999997,173L253.99999999999997,171.5L255.00000000000003,170L256,168.5L257,167L258,165.49999999999994L259,164L260,162.50000000000006L261,161L262,159.5L263,158.00000000000006L264,156.50000000000006L265,155L266,153.5L267,152L268,150.5L269,149L270,147.5L271,146L272,144.5L273,143.00000000000006L274,141.50000000000006L275,140L276,138.5L276.99999999999994,137.00000000000006L278,135.5L279,134L280,132.5L281,131.00000000000006L282,129.5L283,127.99999999999994L284,126.5L285,125L286,123.49999999999994L287,122.00000000000006L288,120.50000000000006L289,119L290,117.50000000000006L290.99999999999994,116.00000000000006L292,114.5L293,113L294,111.50000000000006L295,110L296,108.49999999999994L297,106.99999999999994L298,105.5L299,103.99999999999994L299.99999999999994,102.50000000000006L301,101L302,99.50000000000006L303,98.00000000000006L304,96.5L304.99999999999994,95L306,93.49999999999994L307,92L308,90.5L309,89L310,87.5L311.00000000000006,86L312,84.5L313,82.99999999999994L313.99999999999994,81.5L315,80L316,78.50000000000006L317,77L318,75.5L318.99999999999994,74.00000000000006L320,72.5L321,71L322,69.5L323,68L324,66.5L325.00000000000006,65L326,63.5L326.99999999999994,62L327.99999999999994,60.50000000000006L329,59.00000000000006L330,57.5L331,56L332,54.5L332.99999999999994,53.00000000000006L334,51.5L335,50L336,48.50000000000006L337,47L338,45.5L339.00000000000006,43.99999999999994L340,42.49999999999994L340.99999999999994,41L341.99999999999994,39.50000000000006L343,38.00000000000006L344,36.5L345,35.00000000000006L346,33.50000000000006L347,32.00000000000006L348,30.499999999999943L349,28.999999999999943L350,27.500000000000057L351,25.999999999999943L352,24.499999999999943L353.00000000000006,23.000000000000057L354,21.500000000000057L354.99999999999994,20.000000000000057L355.99999999999994,18.500000000000057L357,17L358,15.499999999999943L359,15" stroke-width="2" stroke-linecap="round" stroke-linejoin="round" stroke-dasharray="none"></path><path style="stroke-linecap: round; stroke-linejoin: round;" fill="none" stroke="#0000ff" d="M193,245.5L207,259.5" stroke-width="2" stroke-linecap="round" stroke-linejoin="round" stroke-dasharray="none"></path><path style="stroke-linecap: round; stroke-linejoin: round;" fill="none" stroke="#0000ff" d="M193,259.5L207,245.5" stroke-width="2" stroke-linecap="round" stroke-linejoin="round" stroke-dasharray="none"></path><text style="text-anchor: middle; font-family: &quot;Arial&quot;; font-size: 16px; font-weight: bold;" x="187" y="234.5" text-anchor="middle" font-family="&quot;Arial&quot;" font-size="16px" stroke="#ffffff" fill="#ffffff" stroke-width="5" font-weight="bold"><tspan dy="5.599993705749512">M</tspan></text><text style="text-anchor: middle; font-family: &quot;Arial&quot;; font-size: 16px;" x="187" y="234.5" text-anchor="middle" font-family="&quot;Arial&quot;" font-size="16px" stroke="none" fill="#0000ff"><tspan dy="5.599993705749512">M</tspan></text><path style="stroke-linecap: round; stroke-linejoin: round;" fill="none" stroke="#0000ff" d="M289,104L301,116" stroke-width="2" stroke-linecap="round" stroke-linejoin="round" stroke-dasharray="none"></path><path style="stroke-linecap: round; stroke-linejoin: round;" fill="none" stroke="#0000ff" d="M289,116L301,104" stroke-width="2" stroke-linecap="round" stroke-linejoin="round" stroke-dasharray="none"></path><text style="text-anchor: middle; font-family: &quot;Arial&quot;; font-size: 16px; font-weight: bold;" x="285" y="92" text-anchor="middle" font-family="&quot;Arial&quot;" font-size="16px" stroke="#ffffff" fill="#ffffff" stroke-width="5" font-weight="bold"><tspan dy="5.600001335144043">N</tspan></text><text style="text-anchor: middle; font-family: &quot;Arial&quot;; font-size: 16px;" x="285" y="92" text-anchor="middle" font-family="&quot;Arial&quot;" font-size="16px" stroke="none" fill="#0000ff"><tspan dy="5.600001335144043">N</tspan></text><path style="stroke-linecap: round; stroke-linejoin: round;" fill="none" stroke="#0000ff" d="M200,252.5L295,252.5" stroke-width="3" stroke-linecap="round" stroke-linejoin="round" stroke-dasharray="none"></path><path style="" fill="#0000ff" stroke="#0000ff" d="M210,257.5L200,252.5L210,247.5L205,252.5Z"></path><path style="" fill="#0000ff" stroke="#0000ff" d="M285,247.5L295,252.5L285,257.5L290,252.5Z"></path><path style="stroke-linecap: round; stroke-linejoin: round;" fill="none" stroke="#0000ff" d="M295,252.5L295,110" stroke-width="3" stroke-linecap="round" stroke-linejoin="round" stroke-dasharray="none"></path><path style="" fill="#0000ff" stroke="#0000ff" d="M300,242.5L295,252.5L290,242.5L295,247.5Z"></path><path style="" fill="#0000ff" stroke="#0000ff" d="M290,120L295,110L300,120L295,115Z"></path><text style="text-anchor: middle; font-family: &quot;Arial&quot;; font-size: 18px; font-weight: bold;" x="247.5" y="264.375" text-anchor="middle" font-family="&quot;Arial&quot;" font-size="18px" stroke="#ffffff" fill="#ffffff" stroke-width="5" font-weight="bold" transform="matrix(1,0,0,1,0,0)"><tspan dy="6">4</tspan></text><text style="text-anchor: middle; font-family: &quot;Arial&quot;; font-size: 18px;" x="247.5" y="264.375" text-anchor="middle" font-family="&quot;Arial&quot;" font-size="18px" stroke="none" fill="#0000ff" transform="matrix(1,0,0,1,0,0)"><tspan dy="6">4</tspan></text><text style="text-anchor: middle; font-family: &quot;Arial&quot;; font-size: 18px; font-weight: bold;" x="306.875" y="181.25" text-anchor="middle" font-family="&quot;Arial&quot;" font-size="18px" stroke="#ffffff" fill="#ffffff" stroke-width="5" font-weight="bold" transform="matrix(1,0,0,1,0,0)"><tspan dy="6">6</tspan></text><text style="text-anchor: middle; font-family: &quot;Arial&quot;; font-size: 18px;" x="306.875" y="181.25" text-anchor="middle" font-family="&quot;Arial&quot;" font-size="18px" stroke="none" fill="#0000ff" transform="matrix(1,0,0,1,0,0)"><tspan dy="6">6</tspan></text><text style="text-anchor: middle; font-family: &quot;Arial&quot;; font-size: 12px; font-weight: bold;" x="10" y="414" text-anchor="middle" font-family="&quot;Arial&quot;" font-size="12px" stroke="#ffffff" fill="#ffffff" stroke-width="5" font-weight="bold"><tspan dy="4.400012016296387">-8</tspan></text><text style="text-anchor: middle; font-family: &quot;Arial&quot;; font-size: 12px;" x="10" y="414" text-anchor="middle" font-family="&quot;Arial&quot;" font-size="12px" stroke="none" fill="#000000"><tspan dy="4.400012016296387">-8</tspan></text><text style="text-anchor: middle; font-family: &quot;Arial&quot;; font-size: 12px; font-weight: bold;" x="57.5" y="414" text-anchor="middle" font-family="&quot;Arial&quot;" font-size="12px" stroke="#ffffff" fill="#ffffff" stroke-width="5" font-weight="bold"><tspan dy="4.400012016296387">-6</tspan></text><text style="text-anchor: middle; font-family: &quot;Arial&quot;; font-size: 12px;" x="57.5" y="414" text-anchor="middle" font-family="&quot;Arial&quot;" font-size="12px" stroke="none" fill="#000000"><tspan dy="4.400012016296387">-6</tspan></text><text style="text-anchor: middle; font-family: &quot;Arial&quot;; font-size: 12px; font-weight: bold;" x="105" y="414" text-anchor="middle" font-family="&quot;Arial&quot;" font-size="12px" stroke="#ffffff" fill="#ffffff" stroke-width="5" font-weight="bold"><tspan dy="4.400012016296387">-4</tspan></text><text style="text-anchor: middle; font-family: &quot;Arial&quot;; font-size: 12px;" x="105" y="414" text-anchor="middle" font-family="&quot;Arial&quot;" font-size="12px" stroke="none" fill="#000000"><tspan dy="4.400012016296387">-4</tspan></text><text style="text-anchor: middle; font-family: &quot;Arial&quot;; font-size: 12px; font-weight: bold;" x="152.5" y="414" text-anchor="middle" font-family="&quot;Arial&quot;" font-size="12px" stroke="#ffffff" fill="#ffffff" stroke-width="5" font-weight="bold"><tspan dy="4.400012016296387">-2</tspan></text><text style="text-anchor: middle; font-family: &quot;Arial&quot;; font-size: 12px;" x="152.5" y="414" text-anchor="middle" font-family="&quot;Arial&quot;" font-size="12px" stroke="none" fill="#000000"><tspan dy="4.400012016296387">-2</tspan></text><text style="text-anchor: middle; font-family: &quot;Arial&quot;; font-size: 12px; font-weight: bold;" x="247.5" y="414" text-anchor="middle" font-family="&quot;Arial&quot;" font-size="12px" stroke="#ffffff" fill="#ffffff" stroke-width="5" font-weight="bold"><tspan dy="4.400012016296387">2</tspan></text><text style="text-anchor: middle; font-family: &quot;Arial&quot;; font-size: 12px;" x="247.5" y="414" text-anchor="middle" font-family="&quot;Arial&quot;" font-size="12px" stroke="none" fill="#000000"><tspan dy="4.400012016296387">2</tspan></text><text style="text-anchor: middle; font-family: &quot;Arial&quot;; font-size: 12px; font-weight: bold;" x="295" y="414" text-anchor="middle" font-family="&quot;Arial&quot;" font-size="12px" stroke="#ffffff" fill="#ffffff" stroke-width="5" font-weight="bold"><tspan dy="4.400012016296387">4</tspan></text><text style="text-anchor: middle; font-family: &quot;Arial&quot;; font-size: 12px;" x="295" y="414" text-anchor="middle" font-family="&quot;Arial&quot;" font-size="12px" stroke="none" fill="#000000"><tspan dy="4.400012016296387">4</tspan></text><text style="text-anchor: middle; font-family: &quot;Arial&quot;; font-size: 12px; font-weight: bold;" x="342.5" y="414" text-anchor="middle" font-family="&quot;Arial&quot;" font-size="12px" stroke="#ffffff" fill="#ffffff" stroke-width="5" font-weight="bold"><tspan dy="4.400012016296387">6</tspan></text><text style="text-anchor: middle; font-family: &quot;Arial&quot;; font-size: 12px;" x="342.5" y="414" text-anchor="middle" font-family="&quot;Arial&quot;" font-size="12px" stroke="none" fill="#000000"><tspan dy="4.400012016296387">6</tspan></text><text style="text-anchor: middle; font-family: &quot;Arial&quot;; font-size: 12px; font-weight: bold;" x="390" y="414" text-anchor="middle" font-family="&quot;Arial&quot;" font-size="12px" stroke="#ffffff" fill="#ffffff" stroke-width="5" font-weight="bold"><tspan dy="4.400012016296387">8</tspan></text><text style="text-anchor: middle; font-family: &quot;Arial&quot;; font-size: 12px;" x="390" y="414" text-anchor="middle" font-family="&quot;Arial&quot;" font-size="12px" stroke="none" fill="#000000"><tspan dy="4.400012016296387">8</tspan></text><text style="text-anchor: middle; font-family: &quot;Arial&quot;; font-size: 12px; font-weight: bold;" x="437.5" y="414" text-anchor="middle" font-family="&quot;Arial&quot;" font-size="12px" stroke="#ffffff" fill="#ffffff" stroke-width="5" font-weight="bold"><tspan dy="4.400012016296387">10</tspan></text><text style="text-anchor: middle; font-family: &quot;Arial&quot;; font-size: 12px;" x="437.5" y="414" text-anchor="middle" font-family="&quot;Arial&quot;" font-size="12px" stroke="none" fill="#000000"><tspan dy="4.400012016296387">10</tspan></text><text style="text-anchor: middle; font-family: &quot;Arial&quot;; font-size: 12px; font-weight: bold;" x="485" y="414" text-anchor="middle" font-family="&quot;Arial&quot;" font-size="12px" stroke="#ffffff" fill="#ffffff" stroke-width="5" font-weight="bold"><tspan dy="4.400012016296387">12</tspan></text><text style="text-anchor: middle; font-family: &quot;Arial&quot;; font-size: 12px;" x="485" y="414" text-anchor="middle" font-family="&quot;Arial&quot;" font-size="12px" stroke="none" fill="#000000"><tspan dy="4.400012016296387">12</tspan></text><path style="" fill="none" stroke="#000000" d="M195,490L205,490"></path><text style="text-anchor: middle; font-family: &quot;Arial&quot;; font-size: 12px; font-weight: bold;" x="183" y="490" text-anchor="middle" font-family="&quot;Arial&quot;" font-size="12px" stroke="#ffffff" fill="#ffffff" stroke-width="5" font-weight="bold"><tspan dy="4.400012016296387">-4</tspan></text><text style="text-anchor: middle; font-family: &quot;Arial&quot;; font-size: 12px;" x="183" y="490" text-anchor="middle" font-family="&quot;Arial&quot;" font-size="12px" stroke="none" fill="#000000"><tspan dy="4.400012016296387">-4</tspan></text><path style="" fill="none" stroke="#000000" d="M195,442.5L205,442.5"></path><text style="text-anchor: middle; font-family: &quot;Arial&quot;; font-size: 12px; font-weight: bold;" x="183" y="442.5" text-anchor="middle" font-family="&quot;Arial&quot;" font-size="12px" stroke="#ffffff" fill="#ffffff" stroke-width="5" font-weight="bold"><tspan dy="4.400012016296387">-2</tspan></text><text style="text-anchor: middle; font-family: &quot;Arial&quot;; font-size: 12px;" x="183" y="442.5" text-anchor="middle" font-family="&quot;Arial&quot;" font-size="12px" stroke="none" fill="#000000"><tspan dy="4.400012016296387">-2</tspan></text><path style="" fill="none" stroke="#000000" d="M195,347.5L205,347.5"></path><text style="text-anchor: middle; font-family: &quot;Arial&quot;; font-size: 12px; font-weight: bold;" x="183" y="347.5" text-anchor="middle" font-family="&quot;Arial&quot;" font-size="12px" stroke="#ffffff" fill="#ffffff" stroke-width="5" font-weight="bold"><tspan dy="4.400012016296387">2</tspan></text><text style="text-anchor: middle; font-family: &quot;Arial&quot;; font-size: 12px;" x="183" y="347.5" text-anchor="middle" font-family="&quot;Arial&quot;" font-size="12px" stroke="none" fill="#000000"><tspan dy="4.400012016296387">2</tspan></text><path style="" fill="none" stroke="#000000" d="M195,300L205,300"></path><text style="text-anchor: middle; font-family: &quot;Arial&quot;; font-size: 12px; font-weight: bold;" x="183" y="300" text-anchor="middle" font-family="&quot;Arial&quot;" font-size="12px" stroke="#ffffff" fill="#ffffff" stroke-width="5" font-weight="bold"><tspan dy="4.400012016296387">4</tspan></text><text style="text-anchor: middle; font-family: &quot;Arial&quot;; font-size: 12px;" x="183" y="300" text-anchor="middle" font-family="&quot;Arial&quot;" font-size="12px" stroke="none" fill="#000000"><tspan dy="4.400012016296387">4</tspan></text><path style="" fill="none" stroke="#000000" d="M195,252.5L205,252.5"></path><text style="text-anchor: middle; font-family: &quot;Arial&quot;; font-size: 12px; font-weight: bold;" x="183" y="252.5" text-anchor="middle" font-family="&quot;Arial&quot;" font-size="12px" stroke="#ffffff" fill="#ffffff" stroke-width="5" font-weight="bold"><tspan dy="4.399996757507324">6</tspan></text><text style="text-anchor: middle; font-family: &quot;Arial&quot;; font-size: 12px;" x="183" y="252.5" text-anchor="middle" font-family="&quot;Arial&quot;" font-size="12px" stroke="none" fill="#000000"><tspan dy="4.399996757507324">6</tspan></text><path style="" fill="none" stroke="#000000" d="M195,205L205,205"></path><text style="text-anchor: middle; font-family: &quot;Arial&quot;; font-size: 12px; font-weight: bold;" x="183" y="205" text-anchor="middle" font-family="&quot;Arial&quot;" font-size="12px" stroke="#ffffff" fill="#ffffff" stroke-width="5" font-weight="bold"><tspan dy="4.399996757507324">8</tspan></text><text style="text-anchor: middle; font-family: &quot;Arial&quot;; font-size: 12px;" x="183" y="205" text-anchor="middle" font-family="&quot;Arial&quot;" font-size="12px" stroke="none" fill="#000000"><tspan dy="4.399996757507324">8</tspan></text><path style="" fill="none" stroke="#000000" d="M195,157.5L205,157.5"></path><text style="text-anchor: middle; font-family: &quot;Arial&quot;; font-size: 12px; font-weight: bold;" x="183" y="157.5" text-anchor="middle" font-family="&quot;Arial&quot;" font-size="12px" stroke="#ffffff" fill="#ffffff" stroke-width="5" font-weight="bold"><tspan dy="4.399996757507324">10</tspan></text><text style="text-anchor: middle; font-family: &quot;Arial&quot;; font-size: 12px;" x="183" y="157.5" text-anchor="middle" font-family="&quot;Arial&quot;" font-size="12px" stroke="none" fill="#000000"><tspan dy="4.399996757507324">10</tspan></text><path style="" fill="none" stroke="#000000" d="M195,110L205,110"></path><text style="text-anchor: middle; font-family: &quot;Arial&quot;; font-size: 12px; font-weight: bold;" x="183" y="110" text-anchor="middle" font-family="&quot;Arial&quot;" font-size="12px" stroke="#ffffff" fill="#ffffff" stroke-width="5" font-weight="bold"><tspan dy="4.399996757507324">12</tspan></text><text style="text-anchor: middle; font-family: &quot;Arial&quot;; font-size: 12px;" x="183" y="110" text-anchor="middle" font-family="&quot;Arial&quot;" font-size="12px" stroke="none" fill="#000000"><tspan dy="4.399996757507324">12</tspan></text><path style="" fill="none" stroke="#000000" d="M195,62.5L205,62.5"></path><text style="text-anchor: middle; font-family: &quot;Arial&quot;; font-size: 12px; font-weight: bold;" x="183" y="62.5" text-anchor="middle" font-family="&quot;Arial&quot;" font-size="12px" stroke="#ffffff" fill="#ffffff" stroke-width="5" font-weight="bold"><tspan dy="4.40000057220459">14</tspan></text><text style="text-anchor: middle; font-family: &quot;Arial&quot;; font-size: 12px;" x="183" y="62.5" text-anchor="middle" font-family="&quot;Arial&quot;" font-size="12px" stroke="none" fill="#000000"><tspan dy="4.40000057220459">14</tspan></text><path style="" fill="none" stroke="#000000" d="M195,15L205,15"></path><text style="text-anchor: middle; font-family: &quot;Arial&quot;; font-size: 12px; font-weight: bold;" x="183" y="15" text-anchor="middle" font-family="&quot;Arial&quot;" font-size="12px" stroke="#ffffff" fill="#ffffff" stroke-width="5" font-weight="bold"><tspan dy="4.400000095367432">16</tspan></text><text style="text-anchor: middle; font-family: &quot;Arial&quot;; font-size: 12px;" x="183" y="15" text-anchor="middle" font-family="&quot;Arial&quot;" font-size="12px" stroke="none" fill="#000000"><tspan dy="4.400000095367432">16</tspan></text></svg>