<?xml version="1.0" encoding="utf-8"?>
<!-- Generator: Adobe Illustrator 28.0.0, SVG Export Plug-In . SVG Version: 6.00 Build 0)  -->
<svg version="1.0" xmlns="http://www.w3.org/2000/svg" xmlns:xlink="http://www.w3.org/1999/xlink" x="0px" y="0px"
	 viewBox="0 0 295.9 284.3" enable-background="new 0 0 295.9 284.3" xml:space="preserve">
<g id="Calque_1">
	<path fill="#89C059" d="M289.9,283.2L289.9,283.2l-0.2,0v0.2l0.1,0l0.1,0.1v0l0.1,0l0,0l0.1-0.1l-0.2,0V283.2z M289.7,284
		L289.7,284l-0.2,0.1l0.2,0.2v-0.1L289.7,284L289.7,284z M295.9,258.4l-0.1-0.5l-0.4-1.1l-0.1-0.6v-0.5l0-0.4l0.1-0.4l0.1-0.4
		l-0.2-0.6l0-0.8l0-1.6l-0.1-0.5l-0.2-0.5l-0.6-0.9l0.4,0.7l0.1,0.2l0,0.4l-0.5-0.2l-0.2-0.1l-0.1-0.2l-0.1-0.2L294,250l-0.1-0.1
		l0.1-0.2v-0.1l-0.1-0.2l0-0.2h0l-0.1,0l-0.1-0.1l-0.1-0.1v-0.1l0.1-0.1l0.1-0.1v-0.9l0.1-0.4l-0.1-0.3l0.6-2.6l0-0.8l-0.4-2.5
		l0.1-0.5l-0.2-0.3l-0.1-0.3v-0.3l0.2-0.2v-0.2l-0.4-0.2l-0.2-0.2l-0.3-0.4l-0.4,0.2h-0.8l-0.3,0.2l-0.1,0.4l0.1,0.5l0.1,0.4
		l0.2,0.2l-0.1,0.2l0,0.1l0,0.1l0.1,0.1l-0.5,0.5l-0.1,0.2l-0.1,0.3v0.2l0.2,0.3v0.2l-0.5,0.8l0.3,0.4l0.3,0.4l0.1,0.5l-0.1,0.5
		l0.2,0.6l-0.3,0.8l-0.7,1.2h-0.1l-0.2-0.5l-0.1-0.2l-0.1-0.2l-0.1-0.1l-0.4-0.2l-1-0.3l-0.2,0l-0.2-0.1l-0.5,0l-0.5,0.1l-0.2,0.2
		l-1.1,1.2l-0.1,0.5l-0.6,0.3l-2.2,0.5l-1.3,0.7l-0.7,0l0.2,0.2l-0.2,0.4l-0.1,0.4l-0.2,0.3l-0.3,0.1l-0.2-0.1l-0.2-0.2l-0.2-0.1
		l-0.4,0.2l0-0.2l-0.1,0l0,0l-0.1-0.1v0.2l0.1,0.3l-0.1,0.6l0.1,0.3l-0.4,0.1l-0.3,0.2l-0.3,0.3l-0.1,0.7l-0.1,0.1l0.1,0.1l0.2,0
		l0.1,0.1l-0.1,0.2l-0.2,0.3v0.6l-0.2,0.2L277,255l-0.1,0.1l-0.1,0.1l-0.1,0.1l-0.1,0.2l0,0.2l-0.1,0.1l-0.2-0.1l-0.1,0.2L276,256
		h-0.2l-0.2-0.1l-0.1,0.3v0.3l0.1,0.3l0.1,0.2l-0.2,0.2l0.8-0.3l0.4,0l0.4,0.4l-0.6,0.4l-0.1,0.1l0.1,0.2l0,0.1l0.2,0l0.2-0.2
		l0.1,0.1l0,0.2l0.1,0.1l0.8,0.4l0,0l0.3,0.2l-0.1,0.2l0,0l-0.1,0l-0.1,0.1l-0.2,0.1l-0.3,0.1l-0.8,0.2l-0.2,0.1l-0.2,0.1l-0.2,0.1
		l-0.5,0l-0.3,0.1l0,0.3l0.1,0.1l0.3,0.1l0.1,0.2l-0.1,0.3l0.2,0.1l0.1,0.3l-0.1,0.3l-0.2,0.1v0.2h0.5v0.2l-0.3,0.2l-0.2,0.1l-0.2,0
		l0.2,0l0.2,0l0.2,0.1l0.1,0.1l0,0.1l-0.1,0.3l0.4,0l0.4,0.1l0.4,0.2l0.2,0.3l0.1,0.1l0.6-0.2l0.2,0.1l0.2,0.2l0.3,0.8l0.3,0.2
		l0.1,0.2l0,0.3l-0.1,0l-0.5,0.3l-0.1,0.1l-0.4,0.1l-0.4,0.3l-0.2,0.3l0.2,0.2l-0.2,0.5l-0.4,0.2l-1,0.1l0.6,0.7l0.1,0.4l-0.2,0.5
		l0.2,0.4l0.3-0.2l0.4-0.1l0.8,0l0.4-0.1l0.7-0.4l0.4,0l0.2,0l0.2,0.1l0.1,0.2l0.1,0.2l0.3,0.2l0,0l0,0.2l-0.2,0.2l0,0.1h0l-0.3,0.4
		l0.1,0l0.1,0.2l0.1,0.2l0,0.1l-0.1,0.1l-0.7,0.2l0.3,0l0.2,0.1l0.1,0.2l0.1,0.3l-0.6,0.4l-0.4,0.1h-0.4v0.2l0.2,0.1v0.3l-0.1,0.3
		l-0.1,0.2l-0.3,0.1l-0.6,0.1l-0.2,0.1l0.2,0.1l0.2,0.1l0.3,0.1l0.2,0l-0.1,0.2l0,0.1l0.5,0l0.8-0.3l0.5,0l-0.2,0.5l0.3,0.3l0.5,0.1
		l0.4,0l1.3,0.4l0.5,0l-0.2,0.3l-0.3,0.2l-0.2,0.2l-0.1,0.4l-0.2,0.2l-1.1,0.5l-0.3-0.2l-0.2,0.4l-0.1,0.5l-0.2,0.4l0.3,0.1l0.1,0.2
		l-0.1,0.5l0.1,0.1l0.3,0.1l0.3,0.1l0.2,0l0.1,0.1l0.3,0.1v0.2l-0.3,0.2l0.2,0.1l0.2,0l0.2,0l0.2,0.1l0.1,0.1l0.1,0.1l0,0.1l0.4,0.1
		l0.2,0.2l0.2,0.2l0.2,0.2l0.3-0.1l0.5,0.1l0.5,0.2l0.2,0.2l0.1,0.2l0.2-0.1l0,0l0.2-0.1l0,0.1l-0.1,0v0l-0.1,0.1l0.1,0.2l0.6-0.5
		l0.3-0.1v0.2l-0.3,0.4l0.3,0.2l0.5,0.2l0.3,0.3l-0.2,0.1l-0.1,0.1l-0.3,0.7l0.5,0.2l0.6,0.1l0.3,0.1l0.5,0.5l0.3,0.1l0.3-0.2
		l0.1-0.2l0.2-0.4l0.2-0.5l0.1-0.4l-0.3,0.1l-0.3,0.3l-0.2,0.1v-0.2l0.2-0.2l0.1-0.2l-0.1-0.2l-0.2-0.1v-0.2l0.4,0l0.5-0.4l0.3-0.1
		l-0.1-0.2l0.2-0.2l0.1-0.2l-0.1-0.2l-0.2-0.1l0-0.2l0.1-0.2l-0.1-0.2l0-0.2l0.4-0.1l0.2-0.3l0.2-0.3l0.2-0.1l0.3-0.1l0.3-0.2
		l0.2-0.3l0.1-0.4l-0.2-0.2l-0.4,0.1l-0.6,0.3l-0.3-0.2l0.2-0.2l0.2-0.3l0-0.2l0.3,0l0.3,0l0.3,0.1l0.2,0.1l0-0.4l0-0.2l0.2,0l0.2,0
		l0.2-0.1l0.1-0.3l0-0.5H292l0.1-0.3l0.2-0.2l0.2-0.2l0.2-0.1l0-0.1l0.1-2l-0.2-1.8l0.2-1.9v-1l0.1-0.3l0.3-0.3l1.4-2l0.4-0.7
		l0.2-0.4l0.5-0.5l0.2-0.2l0-0.2l0.1-0.5l0-0.2l-0.1-0.6L295.9,258.4z M66.6,69.3L66.6,69.3v-0.1l0,0l-0.1-0.1l0,0v0.2l0,0.1H66.6
		L66.6,69.3z M234.1,237.6l-0.3,0.1l-0.2,0.2l-0.1,0.3l-0.4,0.2l-0.1,0.2l0.1,0.3l0.1,0l0.2-0.2l0.4-0.1l0.3-0.5l0.1-0.2l0.4,0v-0.1
		l-0.1-0.1L234.1,237.6z M57.1,133.6l-0.8-0.3l-0.4-0.1l-0.3,0.1l-0.2,0.3l0.3,0.5l1.6,0l0.4,0.2l-0.2-0.4L57.1,133.6z M60.2,126.7
		l-0.2-0.2l-0.7-0.4l-0.2-0.2l0-0.4l0.1-0.4l-0.1-0.3l-0.4-0.3l-0.3-0.1l-1.2,0.1l0.3,0.5l0.4,1.1l0.3,0.5l0.5-0.3l0.5,0.4l0.4,0.7
		l0.3,0.7l0.4,0.2l0.1-0.4l0-0.6L60.2,126.7z M1.8,81.4l-0.1-0.1L1.3,81l-0.5,0.1L0,81.6v0.2l0.5-0.1l0.2,0.1l0.1,0.3l0,0l-0.2,0
		l0,0v0.2l0.4-0.1l1-0.5v-0.2L1.8,81.4L1.8,81.4z M73.7,147.7l0.2-0.2v-0.2l-0.1-0.1l-0.1-0.1l-0.4-0.1l-1.1,0.3v0.2l0.2,0.2
		l0.8,0.9l0.3,0.1l1.1-0.2l2,1.3l0.9,0.2l0.1,0l0.1,0.1l0.2-0.1l0.1,0l0.2,0l-0.3-0.5l-0.4-0.5l-0.4-0.3l-2.1-0.3l-0.3-0.2v-0.2H75
		v-0.2l-0.5,0.1l-0.6,0.3l-0.5,0l-0.4-0.6l0.3,0L73.7,147.7z M228.9,238.5l-0.2,0.2l-0.1,0l-0.1,0l-0.1,0l0,0.1l-0.2,0.1l-0.5,0
		l-0.2,0.1l0,0.2l0.5,0.3l0.3,0.1l0.3-0.1l0.3-0.1l0.2-0.3v-0.4L228.9,238.5L228.9,238.5z M40.9,115.7l-0.2-0.1l-0.7-0.7l0-0.1
		l-0.5-0.4l-0.9-0.5l-0.2,0l-0.2-0.2H38l-0.1,0.2l-0.2,0.2l0.2,0.4L38,115l0.2,0.5l0,0.5l0.3,0.2l1.1,0.3l1.6,0.1l0.5-0.2l0-0.5
		l-0.2-0.2L40.9,115.7z M78.5,154.8l-0.2-0.3l-0.3,0l-0.2,0.1l-0.3-0.1L77,154l-0.6-0.5l-0.7-0.4l-0.6-0.1l0.4,1l0.3,0.7l0,0.3
		l-0.1,0.3l0.3,0.5l0.4,0.5l0.4,0.3L78,158l0.3,0.4l0.1,0.4l0.3,1L79,160l0.3-0.5l0.3-0.8l0.1-1.2l0-0.2l-0.2-0.3l-0.6-0.4l-0.2-0.2
		l0.1-0.3V156l-0.2-0.2l-0.1-0.3l0.1-0.3L78.5,154.8z M266.3,66l-3.2-1.7l-0.4,0l-1.1,0.1l-1.6-0.5l-0.3,0.1l-0.5,0.3l-0.3,0.1
		l-0.1,0l-0.4-0.2l-0.3,0l-0.2,0l-0.3,0.1l-0.2,0.1l-0.3-0.1L257,64l-0.2-0.4l-0.2-0.2l-0.4-0.2l-0.9-0.1l-0.4-0.3l-0.3-0.3
		l-0.4-0.8l-0.3-0.3l0-0.1l0.1-0.1l0.1-0.1l-0.1-0.5l-0.4-0.1l-0.9-0.1l-0.1-0.3l-0.4,0l-0.4,0.1l-0.3,0.2l-0.1,0.2l-0.1,0.4
		l-0.1,0.2l-0.1,0.1l-0.4,0l-0.1,0.1l-0.2,0.2L250,62l-0.1,0.1l-0.1,0l-0.5-0.3l-1.8,0l-0.3-0.1l-0.3-0.2L246,61l-0.1,0l-0.2,0.2
		l0,0.2l0.1,0.2l-0.1,0.1l-0.6,0.4l-0.4-0.3l-0.3-0.8v-1.1l-0.4,0l-1.2-0.7l-0.3,0L242,59l-0.8-0.2l-0.2,0l-0.1,0.4l0.1,0.5l0.1,0.5
		l-0.3,0.5l-0.3,0.1l-0.8-0.3l-0.9,0l-0.3-0.1l-0.2-0.4l0.1-0.4l0.1-0.4l-0.1-0.5l-0.1,0L238,59l-0.1,0l-0.1-0.1l-0.1-0.2l0-0.1
		l-0.1-0.1l-0.2-0.6l-0.1-0.1l-0.3-0.1l-0.1-0.1v-0.1l0-0.3l0-0.1l-1.3-1.3l-0.3-0.4l-0.2-0.4l0.1-0.3l0.4,0l0.1-0.2l-0.1-0.2l-1-1
		l-0.2-0.2l0.1,0v-0.2l-0.1-0.3l-0.1-0.3l-0.4-0.3l-1.9-0.9l-0.2,0l-0.2,0.1l-0.4,0.3l-0.2,0l-0.2,0l-0.4,0l-0.5-0.3l-1-0.7
		l-0.5-0.2l-0.6-0.1l-1.1,0.1l0.1,0.3l-0.5,0.1l-0.1,0l-0.1,0.2v0.2l-0.1,0.2l-0.2,0.1l-0.2,0.3l-0.3,0.1l-1.7,0.1l-0.4,0.1
		l-0.3-0.9l-0.4-0.4l-1.3-0.3l-0.5-0.2l-0.4-0.3l-0.6-0.8l-0.2-0.1l-0.4-0.3l-0.3,0l-0.2,0.1l-0.3,0.3l-0.2,0.1l0,0l-0.4-0.1
		l-0.4-0.2l-0.5-0.1l-0.5,0.3l-0.2,0.3l0,0.2v0l0,0.1l-0.2,0l-0.1,0l-0.2,0l-0.6-0.3l-0.2,0.1l-0.1,0l-0.2,0.2l-0.3,0.2l-0.4,0.2
		l-0.1,0.1l-0.4-0.1l-0.1-0.2l0-0.1l0-0.3l0.1-0.3v-0.3l-0.1-0.3l-0.9-1.8l-0.4-0.3l-0.6-0.2l-0.1-0.1l-0.1-0.1l-0.1,0l-0.1,0.1
		l-0.1,0.2l-0.1,0.2v0l-0.2,0l-0.3-0.1l-0.1-0.1l0-0.1V46l0-0.4v0l0.1-0.1l0,0l0.1-0.1l-0.2-0.5l-0.4-0.5l-0.4-0.4l-0.3,0l-0.2,0
		l-0.3,0.1l-0.6,0.2l-0.4-0.1l-0.4-0.3l-0.1-0.1l-0.2-0.2l-0.5-0.7l-0.3-0.5l-0.3-0.2l-0.2,0l-0.5-0.2l-0.4-0.2l-0.7-0.7l-0.3-0.2
		l0,0l-0.2,0l-0.2,0l-0.4,0.1l-0.4,0.2l-0.3,0.1l-0.2,0l-0.3,0l-0.2,0l-0.2-0.2v-1.2l0-0.2v0l-0.2-0.3l0-0.2l0-0.2l0.2-0.2l0,0
		l0-0.1v-0.1l0.1-0.3l0-0.1l0-0.1l0-0.3v-0.2l0-0.2l-0.3-0.6v0l-0.5-0.2l-0.4-0.2l-0.3-0.4l0.1-0.5l0.5-1.4l0.2-0.5v-0.3l0-0.3
		l0-0.2v-0.1l0.1-0.2l0.3-0.6v0l0.1,0l0.2,0.2l0.1,0v-0.3l0-0.2l0.1-0.7V30l-0.2-0.2l-0.6,0.1l-0.2-0.1l-0.1-0.4v0l-0.5,0.3
		l-2.2,2.2l-0.1,0.2l0,0.3v0.1l0,0.1v0.1l0,0.1v0.1l0.1,0.1l-0.1,0.3l-0.1,0.7l-0.2,0.5v0.1l-0.1,0.3l-0.1,0.1l-0.1,0l-0.8,0.1
		l-0.7,0.3l-2.1,1l-0.6,0.1l-2.6-0.7l-0.5-0.1l-0.6,0.1l-1,0.1l-0.2-0.1l-0.1,0l-1.1-0.6l0.2,0v-0.3l0-0.2l0-0.2l-0.1-0.2l-0.1,0
		l0.1-0.4l0.1-0.2v0l0.1-0.2l0.2-0.2l0.1-0.1l0.4-0.2l0.1-0.1l0.3-0.1l0.2-0.1v-0.2l-0.1-0.2l-0.1-0.2l0-0.1l-0.3-1.4l-0.2-0.1
		l-0.3,0l-0.4,0.2l-0.2-0.1l-0.1-0.1l0-0.5v-0.1l0.2-0.8l0.2-0.5L187,28l0.1-0.2v0l0.2-0.3l0.4-0.4l0,0l0.1-0.2l0.1-0.2v-0.2
		l-0.1-0.2l-0.3-0.2l-0.2-0.1l-0.1-0.1l-0.2-0.1v0l-0.2,0.1v0.3l0,0.1l-0.1,0l-0.1,0.1l-0.3-0.1l-0.1-0.1l-0.4-0.9l-0.1-0.3
		l-0.4-0.4l-0.3-0.2l-0.2-0.1l-0.6-0.7l0,0l-0.3-0.2l-0.2,0l-0.2,0l-0.8,0.4l-0.4,0.2l-0.3,0h-0.1l-0.1,0l-0.3-0.1l-0.2-0.1
		l-0.1-0.1l-0.4-0.2l-0.8-0.1l-0.9,0.1l-0.1,0l-0.2,0.1l-0.1,0.2l-0.4,0.6l0,0.2l0,0.1v0l-0.1,0.1l0,0l-0.1,0l0,0.2l-0.7-0.7
		l-0.2-1.3l0-1.5l-0.1-1.2l-0.3-0.6l-0.4-0.4l-0.4-0.2l-0.4-0.1l-1.2,0h-0.1l-0.2-0.2l0.2-0.3v0l0-0.3l-0.2-0.2l-0.1,0l-0.2-0.1
		l-0.2,0h-0.1l-0.2,0.1l0,0l0,0.1l-0.2,0.1l-0.1,0l-0.2,0.2l-0.7,0.3l-0.2,0.1l-0.2,0l-0.3,0l-0.4-0.1l-0.9-0.5l-0.2-0.2l-0.3-0.4
		l0,0l-0.1-0.4v-1l-0.5-1.8l-0.2-0.9l0.2-0.3l0.1-0.3l-0.1-0.3l-0.2-0.5l-0.1-0.3v0l-0.2-0.1l-0.3,0l-0.1-0.2l-0.3-0.6l-0.2-0.4
		l-0.1-0.2l-0.3-0.5l-0.3-0.3L166,9.7l-0.1,0l-1,0.3l-0.6,0.2l-0.2,0.1l-0.9,0.3l-0.2,0.2l-0.2,0.1l-0.2,0.2l-0.2,0.2l-0.2,0.4
		l-0.4,0.6l-0.3,0.2l-0.1,0l-0.2,0l0,0l-0.1,0v0l-1.4-0.6l-0.2-0.1l-0.1-0.1l-0.3-0.2v-0.1l-0.1-0.1l-0.3-0.6l-0.1-0.2l0-0.1
		l-0.7-0.6l-0.1-0.2v0l-0.1-0.2l-0.1-0.2l-0.3-0.1h0l-0.1,0l-0.4,0h-0.1l-0.3-0.1l-0.1,0v0L156,8.5l0-0.2l-0.1-0.2L155.8,8l0,0
		l-0.2-0.1l0-0.1V7.6l0.1-0.4l0-0.2l-0.2-0.7l-0.2-0.7l0.1-0.3l0.2-0.2l0.3-0.3l0.1-0.1l0-0.1l0-0.6l-0.3-0.5l-0.7-0.8l-0.2-0.6V1.9
		l-0.2-1.2l0-0.1L154.2,0l-0.3,0.2L153,0.6L151.4,1l-1.2-0.2l-0.2,0L149.8,1l-3.4,1.1l-3.2,0.4L142.4,3l-0.3-0.1l-3.9,1.7l-0.6,0.6
		L137,6l-0.3,0.3l-0.4,0.1l-0.4,0l-0.2,0.1L135.2,7v0.2l0.1,0.4l0.3,1.2l0.1,0.7l-0.1,0.6l-0.3,0.5l-0.4,1.3l-0.1,0.6l0,0.7l0.2,1.3
		l0.1,1.5l0.1,0.4l0.5,0.8l-0.6,0.5l-0.1,1.3v1.5l-0.4,1.1v0.2l1.1,0.9v0.2l-0.8-0.2l-0.4,0.8l-0.2,1.2v1l0.2,0.3l0.8,0.4l0.2,0.4
		l0.1,0.4l0.3,0.2l0.4,0.1l0.4,0v0.2h-0.4l0.1,0.2l0.1,0.1l0.1,0l0.3,0v0.2l-0.2,0.2l-0.2,0l-2-1l-0.7,0.1l-0.7,0.9l-0.4,1.7
		l-0.2,0.3l-0.2,0.2l-1.1,1.3l-2.6,2.1L128,35l-0.5,0.2l-0.5,0.4l-8.3,2.7l-1.7,0l-1.6,0.6l-0.8,0.5l-0.7,0.2l-2.5,1.5l-0.2,0.3
		l-2.6,1.2l-0.2,0.2h-0.2l-1,0.8l-0.3,0.4l-0.8,2.7l-1,1.9l-0.1,0.2l0,0.3l0,0.3l0.3,0.2l0.1,0.2l0.2,0.3l0.4,0.2l0.5,0.1l0.4,0h0.4
		l1.5,0.5l1.7,0.2l1.7-0.2l1.4-0.9l-0.3,0.5l-0.4,0.3l-0.9,0.5l-5,1.1l-1.3,1l-0.5,0.8l-0.2,0.1l-0.4,0.1l-0.6,0.5l-0.9,0.4
		l-3.2,0.8L99,56.7l-1.9-1.1l-1-0.2L95.5,55l-0.3-0.2h-1.4l-0.9-0.4l-0.5-0.1l-0.7,0.4l-0.5,0l-0.9-0.3l-3.4-0.2l-2.4-0.9l-2.6-0.1
		l-0.3,0.2l-0.3,0.4L81,54.1l0.2,0.3v0.2l-0.4,0.1l-0.2-0.1l-0.2-0.2l-0.2-0.2l-0.3,0l-0.2,0.1l-0.2,0l-0.1-0.3l0.1-0.1l0.1-0.2
		l0.1-0.2l0-0.3l-0.1-0.7l-0.2-0.5L78,50.2l-0.3-0.9l-0.4-0.5l-0.3-0.6l0.1-0.7l0.2-0.2l0.2-0.1l0.4,0l0-0.1l0-0.3l0.1-0.3l0.5-0.4
		l-0.1-0.5l-0.4-0.9L78,44.1l-0.1-0.2l-0.1-0.1l-2.5-0.5l-0.3,0l-0.9,0.3l-0.3,0.2l-0.5,0.7l-0.3,0.3l-0.3,0.2l-0.3,0L72,44.9
		l-0.2,0l-0.3,0.1l-0.2,0.3L71,45.3l-0.1-0.1l0-0.2v-0.1l0-0.1l-0.3,0L69,44.4l-1.3-0.2L67.2,44l-0.1,0l-0.3,0l-0.1,0l0-0.1
		l-0.1-0.4l-0.1-0.1l-0.2-0.1l-0.6,0.1l-0.2-0.1L65.2,43L65,42.9L64.4,43l-0.1,0.2l0,0.5l-0.2,0.7l0.9,0.4l0.7,0.1l0.1,0.2l0.2,0.3
		l0.1,0.3l0.2,0.4v0.5l-0.1,1L66.2,48l-0.6,0.5L65.4,49l0.2,0.2l0.5,0.6l0.2,0.3l0.1,0.2v0.2l0,0.2l0.3,0.5l0,0.2l0,0.2l0,0.4
		l-0.1,1l0,0.4l0.2,0.2l0.3,0l0.3-0.1l0.3-0.1l0,0.1l0,0.1l0,0.2l0.4,0.2l0.5,0.5l0.3,0.2l0.2-0.5h0.1l0.2,0.6v0.2H69l0.1,0.5
		l0.2,0.3l0.6,0.5l-0.1,0l-0.1,0l-0.1,0.1l0.3,0.4l0.3,1.1l0.3,0.4l0.2-0.6l0.4,0l0.5,0.3l0.4,0.1v0.2l-0.7-0.2l-0.4,0l-0.2,0.3
		l0,0.6l0.1,0.6l0.1,0.6l0.2,0.5l0.1-0.1l0.1,0l0.3,0.2l-0.4,0.3l-0.1,0.2l-0.1,0.4L71,62.2v0.3l0.1,0.2l0.3,0l-0.1,0.3l-0.1,0.3
		v0.7l0.1,0.3l0.1,0.3l0.2,0.2l0-0.1l0.2-0.5l0.4-0.2l0.5,0l0.3,0.2v0.2l-0.5-0.2l-0.2,0.1l-0.2,0.5l-0.2,1.8l0.1,0.2l0.3,0.1
		l0.1,0.2v0.3l-0.1,0.4L72,67.4l-0.2,0.3l-0.1,1.5l-0.1,0.4l-0.2,0.3l-0.3,0.1v0.2l0.5,0.1l0.2,0.5l0.1,0.7v0.8l0.2,0.7l0.7,0.7
		l0.2,0.7l0.2,0.2l0.2,0.2l0.7,0.2l0.1,0.1l0,0.2l0.1,0.2l0,0.1l0.1,0l0.1-0.1v-0.1l0.8,0.1l0.4,0.2l0.3,0.5l-0.7-0.3l-2.2,0.5
		l-1.6-0.2l-0.3,0.1l-1,0.5l-1.6,0.3l-1.5,0l-0.9-0.2l-0.5-0.5v-0.7l0.5-0.8l-0.1-0.2l-0.1-0.2v-0.1l0.1-0.1l-2.1,0.4l0.1,0.2h-0.8
		l-0.2,0.1l0,0.2v0.2l0,0.1L63,75.5l-0.2,0.2L62.6,76l-0.1,0.2l0.2,0.4l0.4,0.9l0.2,0.2l0.2,0l0.3,0.1l0.1,0.2l0.2,0.4l-0.2-0.2
		l0-0.1l-0.1-0.1h-0.1l0.1,0.5l0.3,0.5l-0.1,0.2l0.6,0.4L63.7,80l-0.2,0.2l0.1-0.7l-0.2-0.4L63,78.3l0-0.1l0.1-0.3l-0.3-0.1
		l-0.2-0.2l-0.1-0.3l-0.1-0.3l-0.4-0.8l0-0.1l-0.9,0.1l-0.9,0.3l0.2,0.4l0.1,0.2l0.2,0.2L60.4,77l-0.3,0l-0.2,0.2l-0.2,0.3l0.2,0.2
		l0,0v0.2l-0.3,0.2l-0.2-0.2l-0.1-0.4l0-0.4v0.4l-0.1,0.3L59,78l-0.2,0.1l0-0.3l0-0.3l-0.2-0.3l-0.2-0.1l0-0.2l-0.1-0.7L58.1,76
		l-0.5,0.2l-0.4,0.4l-0.4,0.3l-0.4-0.3L57,76l0.1-0.2l0.1-0.2l0.1-0.2l0.1-0.1v-0.2l-0.3,0l-0.2-0.1l-0.1-0.2l0-0.4l-0.3,0.6
		l-0.5,0.5L55.3,76l-0.5,0.2l-0.2-0.4l-0.4-0.1L53.3,76l0.4,0.2l0.2,0v0.2l-0.3,0.3l-1.4,0.9l-0.4,0.1l-0.2,0.2l-0.2,0.2L51,78.8
		l-0.4,0.4l-0.3,0.1l-0.8,0l-0.1,0.2V80l0,0.3l-0.3-0.2l-0.2-0.2l-0.2-0.2l-0.2-0.1l-0.2,0l0.1-0.1l0.1-0.2l0.1-0.2l0-0.3l-1.1-0.6
		l-0.5-0.4l-0.3-0.1l-0.1-0.1l0-0.2l0-0.2l0.1-0.1l-0.1-0.2l0-0.2l-0.3-0.9l-1.3-1.1L45,74.4L44.7,74l-0.4-0.3L44,73.5v-0.2l0.1,0
		l0.2-0.2l0-0.2v-0.2l0-0.3l-0.4-0.1l-1,0L42.4,72v-0.2h-0.3v-0.2l0.3-0.3l0.1-0.1l0.2-0.1v-0.2l0,0h0l0,0l0.1-0.2l-0.2-0.2
		l-0.2-0.1l-0.2,0L42,70.8l-0.3-0.1l-0.4,0.6l-0.6,1.4h-0.2v-0.2l0.4-0.6l0.1-0.2l0.3-0.8l0.2-0.3l-0.3-0.2v-0.2l0.2-0.3v-0.3
		l-0.2-0.3l-0.3-0.2l-0.3,0.1l-0.3,0.5L40,69.5l-0.1,0.2l-0.5,0.4l-0.6,0.7l-0.2,0.3l0,0.4l-0.2-0.2v-0.1l0-0.1l0.3-0.3l0.2-0.5
		v-0.6l-0.2-0.4l-0.3-0.1L37.7,70l-0.1,0h-0.2l-0.2,0.2l-1.7,0.6l-0.1,0.1l-0.2,0.3L35,71.2l-0.2,0l-0.5,0l0-0.2l0-0.1l0.1-0.1
		l0.1-0.1l-0.3,0l-0.7-0.4l-0.6,0l-0.2-0.2h-0.1l-0.1,0.3L32,71.2l-0.6,0.3l-0.2,0.3l0.1,0.5l0.7,0.9l0.3,0.2l-1.1,0.2l0,0.2l0,0.5
		l0.2,0.7L31.2,75h-0.6l-0.5-0.2l0-0.5l-0.7,0.2l-0.2,0l-0.2-0.1L28.5,74l-0.2-0.1L27.3,74l-0.4-0.1l-0.3-0.4v0.4l0,0.1l-0.1,0.1
		l-0.2-0.2l-0.1,0.3L26,74.9l0.1,0.5l-0.2-0.2l0-0.1L25.8,75h-0.1l0.1,0.6l0.1,0.3L26,76l-0.1,0.2l0.1,0.2l-0.1,0.2l-0.3-0.3
		l-0.6-0.4l-0.2-0.3v-0.2l0.1,0l0.2-0.2l-0.4-0.1l-0.3,0.2l-0.6,0.6l0.1-0.4v-0.3l-0.2-0.2l-0.2-0.1v-0.2h0.2v-0.2l-0.2-0.1
		l-0.1-0.1l0.1-0.2l0-0.3l-0.1-0.1l-0.7,0.2L22.2,74L22,74.1l-0.3,0l0.1,0.3v0.2l-0.1,0.2L21.5,75h-0.1l-0.1-0.2l-0.1-0.1h-0.1
		L21,74.8l-0.3-0.2l-0.4,0l-0.5,0.1l-0.4,0.2L19,75l-0.3,0.4l-0.1,0.3l0.4,0.1V76l-0.3,0l-0.4-0.2l-0.3,0l-0.2,0.1l-0.6,0.4
		l-0.4,0.1l0.2-0.7l-0.4-0.4l-0.5,0l-0.5,0.2l-0.5,0.3l-0.6,0.1V76l0.1,0l0.2,0.2l-0.4,0l-0.7,0.3l-0.4,0.1h-1.6v0.2l0.1,0.1
		l0.1,0.1l-0.1,0.1l0,0.1l0.5,0.2l-0.3,0l-0.9-0.2l-0.3,0.2l0.1,0.4l0.5,0.6L11,78.6l-0.7-0.4l-0.4-0.1l-0.6,0.1l-0.3,0.1l-0.4,0.2
		l0.2,0.2l-0.2-0.1l-0.2-0.1L7.9,79L7.4,80l-0.2,0.9l0.5,0.4v0.2l-0.3,0.1l-0.3,0.4L7,82.5v0.6l0.4,0.8l0,0.4l-0.4,0L7.2,85l0.2,0.3
		l0.3,0.1l1,0l0.2-0.1l0-0.2v-0.2l0-0.1l0.4,0.1l0.7,0.3l0.4,0.1l0.4,0l0.6-0.3l1-0.2l1.3-0.8l0.6-0.3l1.4-0.2l0.4-0.2l0.6-0.4
		l0.3-0.1l-1.9,1.1L14.8,84l-1.1,1.4v0.2l0.3,0l0.3-0.1l0.2-0.1l0.1-0.2l0.2,0.2l0,0.1l0,0l-0.1,0.1l0.5-0.1l0.6-0.4l0.3,0.1l0-0.1
		l0.2-0.2l0-0.1h0.1V85h-0.1v0.2l0.3-0.1l0.5-0.3l0.4,0L17,85.2l-0.2,0.1l-0.1,0.1v0.1l-0.2,0.1l-0.1,0.1L16.3,86l0.9-0.1l0.1,0
		l0.1,0.3l0.3,0.1l0.3-0.1l0.2-0.2l0.1,0.4l0.2,0.1l0.6,0v0.2L17.4,87L17,86.8l0.3,0l0.2-0.1l0.1-0.1l-1.4,0.1L15.3,87L15,87l-0.3,0
		l-0.2-0.1l-0.1-0.1l-0.2-0.1l-1.8,0.1l-0.5-0.3l0.2-1.1l-0.3-0.2l-0.3,0.2l-0.3,0.9l0.1,0.1l0,0.2l0,0.2L11,87l-0.2,0l-0.2-0.1
		l-0.2,0L10.2,87l0.1,0.3l-0.1,0.3l1.2,0l0.2,0.1l0.1,0.3l0,0.1l-0.2,0.1l-0.1,0.4l0,0.2l0.1,0.3l0.3,0.3l-0.1,0.2l-0.2,0.6l0.5-0.2
		l0.3-0.6l0.3-0.7l0.3-0.5l0.5-0.2l1.1,0.7l0.5-0.2l0,0.2l0,0.2l0.1,0.1l0.2,0.1l0.9,0.2l0.3,0.3l0.1,0.7l0.1,0.2l0.2,0.4l0.1,0.3
		l-0.2,0.9L17,92.4l-0.3,0.1l-1.1-0.3l-6.5,1.4l-0.1,0l-0.2-0.2l-0.1,0l-0.1,0.1l0,0.1v0.1L8.5,94l0,0.2l-0.1,0.2l-0.2,0.1l1.5,0.4
		l0.7,0l0.3,0.1l0.6,0.6l0.3-0.1l0.3-0.3l0.2-0.2l0.2,0.1l1.8,1.4l0.9,1.2l0.4,0.5l0.2,0.8l0.3,0.8l0,0.5l0,0.2l-0.2,0h-0.2
		l-0.1,0.1l-0.1,0.2l0.1,0.4v0.2l2.9,0.1l0.5-0.1l0.3-0.2l0.7-0.6v-0.2h-0.5v-0.2l0-0.1l0-0.1L19,99.8l0-0.4l0.3-0.1l0.4,0.7
		l0.2-0.2l0.2-0.1l0.2-0.1l0.2,0v-0.2l-0.2-0.2l-0.3-0.4L20,98.3l0.2-0.4l0.1,0.5l0.2,0.5l0.3,0.3l0.2,0.1l0.3,0l0.3,0.1l0.6,0.5
		l0.1-0.3l0.1-0.1l0.2,0l0.3-0.1l-0.1,0.3l-0.1,0.1l-0.1,0l-0.2,0l0.4,0.1l0.4-0.5l0.2-0.5L23,98.6l0.5,0.1l0.5,0.4l0.4,0.4l0,0.3
		l0.3,0.2l0.1,0.1h0.2l-0.1,0.3l0,0.2l0.2,0.1l0.1,0.2l0.4,0.7l0,0.1l0.3,0l0.4-0.1l0.4,0l0.3,0.3l1.1-0.6l0.1,0.1l0.2,0.4l0.4,0.1
		l0.7,0l0.1,0.1l0.3,0.3l0.2,0.1l0.1,0l0.5,0l0.7,0.2l0.3,0l0.3-0.2l0,0.2l0.1,0.1l0.3,0.3l0.3,0.6l0.6,0.8l0.1,0.2l0.3,0.1l1.6-0.4
		v-0.2l-0.1-0.2l-0.1-0.1l-0.1-0.1l0.4-0.1l0.6-0.4l0.5-0.5l0.4-0.5v0.2l-0.3,0.2l-0.2,0.4l-0.3,0.7l-0.1,0l-0.3,0l0,0.1v0.3l0,0.2
		l-0.1,0.1l-0.2,0v0.2l0.8,0.1l0.3,0.1l0.4,0.2v0.2l-0.8-0.3l-0.4,0l-0.3,0.1l0.5,0l0.9,0.2l0.5,0.1l0.6,0.7l0.1,0.1l0.2-0.1l0-0.3
		l0.1-0.3l0.3-0.1l-0.2-0.3l0-0.1l0.3-0.1l0.2-0.2l0.1-0.1l0.2,0.2v-0.2l0.1,0l0.1,0l-0.1-0.4l-0.2-0.3l-0.1-0.2l-0.3-0.1l0.3-0.1
		l0.3,0.1l0.2,0.1l0.1-0.3h0.2v0.8l0.1-0.1l0.2-0.1l0.1-0.1v0.5l0,0.2l0,0.2l-1.5,0.7l-0.3,0.8l-0.1,0.4l0.1,0.2l0.2,0.1l0.2,0.1
		l0.2,0.1l0.3,0.3l0.2,0.4l0.1,0.5l0,0.7l0,0.4l-0.2,0.5l0,0.3l0,0.3l0.3,0.9h0.1l0.1-0.1l0.4,0.1l0.3,0l-0.4-0.5l-0.3-0.7l-0.1-0.9
		l0.2-1l-0.1-0.1l-0.1-0.1l-0.1,0l0.2-0.3l0.2,0l0.2,0.2l0.2,0.2l-0.2,0.1l-0.1,0.1l0.3,0.2l0.3,0l0.6-0.3l0.2,0.1l0.1,0l0.3,0
		l-0.2-0.4l0.1-0.3l0.1,0l0.1,0.5l0.1,0.4l0.2,0.1l0.1-0.2l-0.1-0.4l0.3,0.2l0.2,0.3l0.1,0.2l0.2-0.1l0.2,0.3l0,0.1l0.1-0.1l0-0.1
		l0-0.2l-0.2-0.2l-0.2-0.3l-0.2-0.3l0-0.3v-0.7l0-0.2l-0.1-0.4v-0.2h0.2l0,0.4l0.2,0.3l0.2,0.2l0.3,0l-0.2,0.1l0,0.2v0.3l0.1,0.4
		h0.2l0.1-0.1l0.1,0l0.3,0v0.2h-0.2v0.2l0.7-0.2l0.4-0.2l0.2-0.4l0.2-0.2l1-0.1l0.4-0.2l-0.3-0.2l0.6,0.1l0.2,0.2l0.3,0.3l-0.5-0.1
		l-0.4-0.1l1,0.6l0.1,0.2l0.3,0l0.1-0.1l0.1-0.1l-0.3-0.2l0.2-0.1l0.2-0.1l0-0.2l-0.2-0.2v-0.2l0.4,0.6l-0.1,0.6l-0.8,1.1l0.1,0.2
		l-0.4,0.3l-0.6,0l-0.5-0.2l-0.3-0.4l-0.2,0.4v0.2l-0.2-0.2l-0.1,0l-0.1,0.1l-0.1,0.2H46l-0.3-0.6h-0.6l-0.3,0.2l0.3,0.1v0.1l-0.1,0
		l0.1,0l0.2,0l0.2,0.1l0.1,0.2l0,0l0.3,0.6l0,0.1l0.3,0.3l0.3,0.1l0.3,0l0.4,0l1-0.4l0.4,0l0.7,0.2l0.3-0.2l0-0.7l0.2,0.1l0.3,0.1
		l0.5,0l0-0.2l-0.1-0.1l-0.1-0.1l-0.2,0l0.3-0.1l0.3,0l0.3,0l0.3-0.3l-0.1,0.4l-0.3,0.3l-0.3,0.2l-0.3,0.1l0.2,0.2l0.2,0l0.1-0.1
		L51,110h0.7l0.6-0.2l0.3,0l0.3,0l1.6,0.6h0.3l0.5-0.1l0.4,0.1l-0.4,0l-0.7,0.2l-1.3,0.1l-0.2,0.2l0.3,0.4l-0.1,0.6l0.2,0.2l0.4,0
		l0.4,0.2l-0.2,0.4l0.3,0.1l0.5,0l0.4,0.1l-0.1,0.2l-0.7,0.4l-0.2,0.2l-0.1-0.2l0.1-0.1l0-0.2l-0.4-0.1l-0.2-0.1l-0.2,0l-1.6,1
		l0.8,0.5l0.2,0.5v0.9h0.1l0.2-0.3l0-0.1l-0.1-0.2l0.1-0.1l0,0l0.1-0.1l0.3,0.4l0.4,0.4l0.2,0.4l-0.4,0.4l-0.4,0.1l-0.9-0.4
		l-0.4-0.1v0.2l1.9,1l0.6,0l0-0.1v-0.2l0.1-0.2l0.1-0.1l0.2,0l0.2,0l0.3,0l0.3,0.2l0.5,0.6l0.3,0.3l0.3,0.1l0.4,0l0.4-0.2l0.5-0.5
		l0.6-0.2l0.2-0.2l0.1-0.2l0.1-0.2l0.2-0.2l0.6-0.4l2.8-0.2l0.7,0.2l0.3,0.3l0.2,0.1l0.4,0l0.4,0.1l0.7,0.4l0.7,0.6l0.6,0.7l0.3,0.3
		l0.8,0.2l0.4,0.3l-1.1,0l-0.4-0.2l-0.5-0.5l-0.2-0.1l-0.8-0.2l-0.8-0.6v-0.2h0.4l-0.2-0.2l-0.2-0.1l-0.2-0.1h-0.2l0.1,0.2l-0.3,0
		l-1-0.3l-0.2-0.1l-0.1-0.2l-0.2,0l-0.2,0.1l-0.1,0.1l-1.9,0.2l-0.5,0.2l-0.1,0.3l-0.1,0.4l0,0.4l0,0.3l0,0.4l0.2,0.5l0,0.4l0,0.4
		l-0.1,0.2l-0.1,0.1l-0.7,0.1l-0.2,0.2l-0.3,0.2l-0.2,0.2l0.7,0.4l2.4,0.4l1.2,0.7l0.3,0.3l0.2,0.3l0.3,0.5l0,0.5l-0.4,0.3l-0.2,0.5
		l-0.4,1.1l-0.2,0.4l-0.8,0.5l-0.3,0.3l0.1,0.4l-0.5,0.4l-0.1,0.3l-0.1,0.6v0.5l0.1,0.6l0.1,0.5l0.2,0.2l0.5,0.2l0.6,0.4l1.1,1.2
		l0.6,1.2l0.2,0.2l0.4,0l0.3,0.1l0.2,0.2l0.2,0.7l0.2,0.3l0.3,0.3l0.3,0.3l0.1,0.4l0.1,0.4l0.2,0.3l0.3,0.1l-0.1,0.5L67,140l0.2,0.3
		l0.2,0.1l0.1-0.1l0-0.3l-0.1-0.5v-0.4l0.2,0.3l0.2,0.6l0.1,0.2l0.3,0.2l0.6,0.2l0.7,0.6l1.1,0.2l0.3,0.3l-0.1,0.4l0.5,0.2l1.4,0.1
		l0.5,0.1l0.4,0.3l0.3,0.5L74,144l0.3,0.6l0.5,0l1.1-0.3l0.3,0.1l0.4,0.4l0.6,0.4l0.2,0l0.3,0.1l0.4,0.6l0.4,0.5l0.5,0.2l0-0.9
		l0.8-0.4l0.9,0.1l0.4,0.6l0,0.4l0.1,0.3v0.2l-0.2,0.4l-1.4,0.9l-0.3,0.4l0.1,0.6l-0.2,0.1l-0.2,0.2l-0.1,0.3v0.2l0.2,0.2l0.2,0
		l0.2,0l0.3,0.1l0.3,0l0.1,0l0.1,0.1l-0.1,0.1v0.1l0.1,0.1l0.1,0l0.4,0.4l-0.2,0.2v0.1l0.2,0.1l0.1,0.1l0.1,0l0.3,0.1l0.1,0v0.4
		l0.1,0.4v0.3l0.1,0.2l0.4,0.1l0.1,0.1l0.1,0.1l0,0.1v0.2l-0.2,0.5l-0.3,0.2l-0.3,0l-0.4-0.3l0.3,0.9l0.2,0.4l0.3,0.2l-0.1,0.1
		l-0.2,0.2l-0.1,0.1l0.1,0.2l0.2,0.3l0.1,0.3l0.1,0.3l-0.1,0.3l-0.1,0.1l-0.2,0l-0.1,0l-0.4,0.2l-0.2,0.2l-0.1,0.1l-0.1,0.2
		l-0.2,0.2l-0.2,0.1l0.2,0.3l0.1,0.4l0.1,0.4l0,0.3l0.1,0.3l0.5,0.6l1.8,1.5l0.4,0.5l-1.4-0.7l-0.3-0.2l-0.2-0.1l-1.3-1.5l-0.4,0
		l-1.3,0.4v0.4l-0.3,2l0.3,0.2l0.7-0.2l0.4,0.3l0.2,0.3l0.3,0.3l0.3,0.2l0.4,0.1l0.6,0.2l1.1,1.1l0.7,0.2l0.1,0.1l0.1,0.5l0,0.1
		l2.9,2.1l0.9,1.1l0.4,0.7l0.4,0.8l0.7,1.8l0.3,1.1l0.8,5.5l0.3,0.9l0.4,0.7l0.7,0.6l0.9,0.3l0.8,0.4l0.5,0.9l-0.4-0.4l-0.5-0.2
		l-0.5-0.1l-0.6,0l0.4,0.3l0.5,0.5l0.2,0.6l-0.2,0.8l0.2,0.4l0,0.8l0.1,0.4l-0.3-0.2l-0.2-0.5l-0.1-0.6v-0.6l0-0.4l0-0.3l-0.1-0.4
		l-0.2-0.2l-0.6-0.4l-0.8-0.8l-0.7-0.9l-0.7-1.7l-0.1-0.3l-0.4-2.6l-0.2-1.1l-0.1-0.6L88,174l-0.6-0.8l-2.4-2.7l-0.3-0.1l-0.8-0.5
		l-1.4-1l-0.2-0.2l-0.2-0.3l-0.1-0.2v-0.2l0.1-0.1l0-0.1v-0.5l0-0.1l-0.2-0.1l-0.3,0.1l-0.2,0.4l-0.7,1.4l-0.1,0.4l-0.3,6l-0.9,4.5
		l-1.2,14l0.1-0.3l0.2-0.7l0.2-1.2l0.9-1.4l0.2-0.3l0,0v-0.1l0-0.1l0.1-0.1l0.1,0l0.1,0.1l0.1,0.1l0.1,0.1l0.2,0.1l1.5,1.4l0.2,0.4
		h-0.3l0.5,0.5v0.4l-0.4,0.3l-0.7,0.1l-1.2-0.3l-0.5,0l-0.4,0.5l-0.4,1.3l0,0.3l0,0.2l-0.5,0.8l0,0.2l0.2,0.8l0,0.4l-0.2,1.8
		l-0.5,3.9l-1.3,7.9l-0.7,3.6l-0.5,1.6l-0.8,4.6l-0.5,1.6l-0.1,0.9l-0.3,1l-0.2,0.3l-1,0.8l-0.2,0.2l-0.1,0.3l-0.4,0.9l-0.1,0.2
		l-0.4,0.3l-0.4,0.2l-0.5,0.2l-1.8,0.3l-0.4,0.2l-0.1,0.2l-0.3-0.2l-0.1,0.8v0.9l0.6,0.3l0.2,0.3l0.1,0.5l0.1,0.2l0.2,0l0.3-0.1
		l0.4-0.1l0.4-0.2l0.2,0l0.4,0.2l0.2,0.1v0.1l0,0.2v0.2l0.1,0.5l0.1,0.1l0.3,0.1l0.2,0l0.3,0l0.2-0.1l0.2-0.2l0.1-0.5l0.3-0.2l0.4,0
		l0.6,0.2l0.8,0.4l0.2,0l0.2-0.1h0.2l0.6,0.6l0.1,1l-0.3,1.1l-0.3,0.9l-0.3,0.3l-0.8,0.9l-0.2,0.2l0.3,0.6l0.3,0.4l0.4,0.3l0.5,0.1
		l0.6,0l0.3-0.1l0.1-0.4l0-0.7l0.2-0.5l0.3-0.4L77,236l0.5,0.1l-0.4,0.4l-0.2,0.4l0,0.4l0.4,0.4l0.4,0.2l1.2,0.2l0.7,0.4l0.7,0.5
		l0.7-0.1l0.2,0.1l0.3,0.2l0.2,0.1l0.7,0.1l0.4,0.1l0.2,0.3l0.7,0.5l0.8,0.3l1.6,0.1l1.6-0.3l0.5,0.2l0.4,1v0.2l-0.1,0.1v0.1
		l0.1,0.3l0.2,0.2l0.2,0l0.2,0l0.2,0l0.7,0.4l0.3,0.3l0.8,1.1l0,0.1l0,0.1v0.1l0.1,0.1h0.3l0.1,0l0.1,0.2v0.3l0.2,0.1l0.1,0l0.3-0.2
		l0.1-0.1l0.1-0.7l0.5,0l1.1,0.5l0.6-0.1l0.5-0.3l1-0.8l0.2,0.2l0.2-0.1l0.1-0.2l0.1-0.3l0.3,0.3l1.2,0.7l0.3,0.5l0.5,0.1l0.6-0.2
		l0.3-0.2v0.5l0.1,0.5l0.2,0.4l0.3,0.3l0.1,0.2l0,0.2l0,0.2l0.2,0.1l0.2,0.1l0.2,0.1l0.1,0.1l0.1,0.1l0.8,0.3l0.7-0.1l1.6-0.6
		l1.2-0.2l0.4-0.3l0.3,0l1,0.3l0.4,0.2l0.4,0.8l0.3,0.4l0.3,0l0.6-0.8l0.4-0.4l0.4-0.1l0.5,0.5l0,0.1v0.2l0.1,0.1l0.4,0.1l0.4,0
		l0.8-0.2l0.4,0.1l2.5-0.1l0.7,0.1l0.3-0.1l0.2-0.3v-0.4l-0.1-0.4l-0.3-0.3l-0.2-0.1l0.1-0.3l0.1-0.1l0.2-0.1l-0.2-0.3l0.3-0.8
		l0-0.6l0.1-0.4l0.5-0.2l0.5,0l0.3,0l0.7,0.3l0.3,0.1l0.4,0l0.4,0.1l0.8,0.5l0.6,0.2l0.2,0.1l0.4,0.3l0.2,0.1l0.2-0.1l0.2-0.2
		l0.2-0.1l0.2,0.1l0.3,0.3l0.2,0.1l1.7,0.1l0.4,0.1l0.4,0.3l0.2,0.4l0.2,0.4l0.2,0.4l0.3,0.3l0.2,0l0.7-0.2l2.5,0l0.5,0.1l-0.1,0.4
		l0.1,0.1l0.2,0l0.1,0.1l0.4,0.6l0.4,0.5l0.3,0.9l0.3,0.4l0.4-0.2l0.3-1.1l0.6,0l0.6-0.2l0.3,0l1.1,0.8l0.2,0.1l2.3,0.2l-0.2,0.6
		l0.3,0.2l0.5,0.1l0.2,0.4l-0.5,0.1l-0.3,0.4l-0.3,0.6l0,0.7l0,0l0,0.1v0.2l0.3,0.2l1.3,0.2l0.4,0.2l1.2,0.8l0.4,0.1l0.4,0l0.3,0.1
		l0.3,0.5l0.2,1l0.2,0.4l0.4,0.4l0.3,0.2l0.3,0l0.5-0.1l0.3-0.1l0.2-0.2l0.3-0.4l0.5-0.4l0.1-0.2l0.1-0.4l0.1-0.1l0.3-0.2l0.9,0.1
		l1.2-0.4l0.6-0.1l0.6,0.3l0.3,0.2l1.2,0.6l0.6,0.1l0.3,0l0.1,0.4l0.4,0.4l0.4,0.3l0.3,0.1l0.4,0.2l0.3,0.1l0.2,0l0.2-0.1l0.2-0.4
		l0.1-0.1l0.4,0l0.9,0.3l0.4,0.1l0.5,0V257l-0.3-0.3l-0.1-0.5l0.1-0.2l0.8-0.7l0.4-0.2l0.4,0l0.8,0.1l0.4-0.1l0.3-0.2l0.6-0.6
		l0.3-0.2l0.4,0l0.3,0l0.3,0l0.6-0.5l0.7,0.3l0.3-0.2l0.2,0l0.6,0l0.2,0l0.1,0.3l0.1,0.3l0.2,0.2l0.3,0.2l0.4,0.1l0.5,0.1l0.5,0
		l1.4-0.2v-0.8l-0.6-0.9l-1.4-1.4l-0.2-0.5l-0.2-2.1v-0.3l0-0.2l-0.1-0.1l-0.3,0l-0.1,0l-0.1-0.2l-0.1-0.2v-0.2l0.2-0.3l0.3,0.4
		l0.1,0.1l0-0.2l0.3-1.4l0-0.5l0-0.5l-0.1-0.5l-0.1-0.2l-0.3-0.1l-0.5-0.2l-0.4,0l-0.2-0.1l-0.1-0.2l-0.2-0.4l-0.1-0.2l0.8-0.8
		l0.2-0.1l0.1-0.1l0-0.6l0.1-0.1l0.2,0l0.2,0.1l0.1,0l0.3-0.3l-0.1-0.3l-0.5-0.5l-0.2-0.4l0-0.4l0.1-0.3l0.4-0.1l-0.3,0.5l-0.1,0.2
		l0.1,0.2l0.3,0.1l0.1-0.2l0.1-0.3l0.2-0.1l0.1-0.2l0-0.4l0.1-0.7l0-0.3l0.4-0.4l0.1-0.3l-0.1-0.3l-0.3-0.2l-0.4-0.4l-0.1-0.8
		l0.1-0.2l0.3-0.1h0.5l0.1,0.1l-0.2,0.2l-0.3,0.3v0.2l0.2,0.2l0.2,0.2l0.1,0.1l0.2,0l0.5-0.9l0.1-0.3l0.3-0.3l0.5-0.4l0.1-0.3
		l0.2-0.5l0.2-0.3l0.3-0.4l2.8-2.1l0.7-0.4l0.5-0.1l0.8,0.4l0.4-0.2l1.7-2l0.7-0.6l2.2-1.2l4-3.3v-0.2l-0.7,0.2l-0.6,0.5l-1.1,1.2
		l-1,0.9l-0.6,0.4l-0.7,0.1v-0.2l1.7-0.7l0.3-0.3l0-0.4l0.1-0.3l1.3-1.1l0.5-0.3l1.2-0.4l0.9-0.7l0.6-0.2l1.1-0.2l-0.2,0.4l-0.2,0.3
		l-0.4,0.2l-0.4,0.1l-1,0.1l-0.4,0.1l-0.2,0.3l0.7-0.3l1.2-0.1l1.1,0.1l0.5,0.4l0.1,0.1l0.4,1.5l0.1,0.2l0.1,0.2l0.4,0.2l0.5,0.1
		l6.2,0.2l0.9,0.2l0.5,0.4l0,0.5l-0.2,0.6l-0.2,0.5l-0.1,0.2l0.5,0.3l0.8,0.2l2.9,0.1l0.7-0.3l-0.5-0.5l-0.6-0.4l-0.5-0.6l-0.3-0.9
		v-2l-0.1-0.3l-0.6-1v-0.2l0.3,0.2l0.3,0.4l0.2,0.5l0.1,0.4l0,0.5l0,1.6l0.3,0.7l0.7,0.6l0.8,0.5l0.8,0.2l-0.2-0.5l-0.2-0.2
		l-0.1-0.1l0.1-0.4l0.2-0.2l0.5-0.1l0.2-0.2l0.5-0.2l1.1,0.6l0.4-0.1l0.5,0.1l0.4-0.3l0.3-0.6l-0.3-0.7l-0.3-0.3l-0.2-0.1l-0.2-0.2
		l-0.1-0.5l0-0.2l0.1-0.4l0.1-0.4l0.1-0.2l0.2,0.1l0.3,0.4l0,0.1l0.5,0l0.2,0l0.4,0.1l0.1,0.1v0.2l0.2,0.4l0.4,0.5l0.5,0.1l0.6-0.2
		l0.6-0.4l0,0.7l-0.2,0.6L208,227l-0.4,0.3l-0.6,0.2h-1.8l-0.6,0.4l-0.3,0.6l0.1,0.6l0.5,0.6l0.5,0.1l1.3,0l0.3-0.1l0.9,0.1l2.7-0.6
		l0.5,0.4v1.4l0.1,0.2l0.2,0.2l0.1,0.1l0.1,0l0,0.2l0,0.2l-0.2,0.5l-0.1,0.3l0,0.3l0.1,0.3l0.2,0.1l0.6,0l0.3,0.1l0.3-0.1l0.5,0
		l0.5,0.1l0.3,0.2l0.1,0.1l0.3-0.1l0.3-0.1l0.3-0.3l0.2,0.1l0.5,0.7l0.1,0.2l0.3,0.1l0.1,0.1l0.1,0.1l0.1,0l0.1-0.1l0-0.1l0-0.1
		l0.1-0.1l1,0l0.4,0.2l-0.1,0.5l0.8,0.4l0.4,0.1l0.5,0l0.2,0.1l0,0.4l0.2,0.1l0.4,0l0.1,0.1l0.1,0.1l-0.6,0.3l-0.2,0.3l0.1,0.4
		l0.2,0.1l1,0.4l0.5,0l0.2-0.1l0-0.4l0.1-0.2h0.3l0.6,0.1v-0.2l-0.4-0.1l-0.4-0.5l-0.3-0.1l0.6-0.3l0.3-0.1l0.3,0l-0.1,0.1v0.3
		l0,0.2l0.5-0.2l0.6,0l0.6,0.1l0.4,0.3l0.1,0.1l1.5,0.1l0.2,0.1v0.3l-0.1,0.5l-0.1,0.1l-0.7,0v0.2l0.4,0.1l1.3,0l0.3-0.1v-0.2
		l-0.2,0l-0.2,0l-0.2-0.1l0.2-0.6l0-0.5l0.2-0.4l0.4-0.3l0.3,0l1.4,0l0.2,0l0.3,0.1l0.3,0l0.2,0.1l0.1,0.3l0.1,0.3l0.1,0.1l0.7,0
		l0.2-0.1l-0.3-0.4l0.1-0.2v-0.4l0.2-0.3l0.2-0.1l0.6,0l0.4-0.2l0.4-0.2l0.2,0l0.5,0.1l0.3,0l0.3-0.2l0.3-0.3l0.4-0.2l0.5,0.1
		l0.2,0.2l0.1,0.2l0.1,0.2l0.1,0.1l0.2,0l0.4-0.2l0.2,0l-0.1-0.4l0.8-0.7l0.1-0.2l-0.1-0.1l-0.1-0.1l-0.1-0.1v-0.2l0-0.3l0.1-0.1
		l0.1-0.1l0.1-0.1l0.2-0.5l-0.1-0.1l-1.9,0.1l-0.2,0l0.1-0.2l0.3-0.3l0.5-0.3l0.4-0.1l0.2-0.2l0.1-0.3l0.2-0.4l0.3-0.3l0.4-0.1
		l0.2-0.2l0.2-0.8l0.1-0.5l0.2-0.5l0.3-0.3l0.4,0.3l0.5,0.1l1-0.1v-0.1l0.1-0.2l0.1-0.1l0.1,0.2l0.1,0.1l0.1,0h0.2l0.1,0l0.1-0.1
		l0.1-0.4l0-0.1h0.2l0.1,0l0,0l0.7-1.3v-0.1l0.1,0v-0.4l-0.1,0l0.3-0.4l0.3-0.3l0.3-0.2l0.3-0.3l0.5,0.2l0.5-0.1l0.5-0.3l0.5-0.1
		l0.1,0.1v0.2l0.1,0.1l0.2,0l0.1-0.1v-1.8l0.1-0.2l0.2-0.1l0.2-0.3l0.2-0.3l0.4-0.1l0.3,0l0.2-0.1l0.2-0.1l0.2-0.2l0.4-0.6l0.3-0.2
		l0.3,0.1l0.2,0l1-0.1l-0.1,0.3l-0.1,0.1l0.4,0l0-0.3l0.1-0.3l0.2-0.3l0.4-0.1l0.1-0.4l0.3-0.3l0.4-0.2l0.4,0.3l0.2-0.2l0.2-0.1
		l0.2,0l0.2,0h0.1l0.2-0.1v-0.1l0-0.4l0-0.1l0.1,0l0.1,0h0.1l0.3-0.2l-0.4-1.3l-0.1-0.7l0.3-0.6l0.9-1l0.4-0.6l1.1-0.9l0.4-0.5
		l0.2-0.3l0.2-0.6l0.1-0.3l0.3-0.2l0.3-0.2l0.2-0.3l0.1-0.5l-0.3-0.7l-0.5-0.4l-0.2-0.5l0.3-0.9l-0.6-0.1l-0.8,0.5l-0.5,0.1l-3.5,1
		l-0.8,0l-0.2,0l-0.1-0.2l-0.2-0.2l-0.1-0.2l-0.3-0.1l-0.5-0.1l-0.3-0.2l-2.2-1.3l-0.8-0.3l-1.2-0.6l-0.3-0.1l-0.3,0l-0.2,0.1
		l-0.2,0l-0.3-0.1l-0.2-0.2l-0.1-0.3l0-0.3l-0.2-0.3l-0.1-0.2l-0.4-0.3l-0.2-0.2l-0.1-0.2l-0.2-0.6l-0.2-0.3l-0.4-0.5l-0.1-0.1
		l-0.1-0.3v-0.1l0-0.2l0.2-0.9l0.1-0.2l0.6-0.4l-0.5-0.4l-0.6-0.6l-0.4-0.8l-0.1-0.9l0.2-0.4l1-0.8l0.7-1.2l0.3-0.2l-0.3-0.6
		l0.2-0.6l0.4-0.5l0.4-0.3h0.4l0.7,0.2h0.4l-0.1-0.4l-0.6-1.2l-0.1-0.2l-0.1-0.7l-0.2-0.6v0l0.1-0.4l0,0v-0.3l0-0.2l-0.1-0.1
		l-0.4-0.4l-1-0.4l-0.4,0l-1,0.2l-0.4-0.1l-1.4-0.8l-0.7-0.6l-0.3-0.6l0.1-1.6l-0.2-0.8l-0.5-0.4l-0.7-0.1l-0.2-0.2l-0.3-0.4
		l-0.1-0.3v-0.4l-0.3-0.3l-0.3-0.5l0.2-0.3l0.4-0.3l0.7-0.4l0.2,0l0.3,0l0.2,0l0.1-0.1l0.4-0.3l0.1-0.1l0.7,0.1l0.7,0.4l0.7,0.3
		l0.6-0.3l0.1-0.2l-0.1-0.1l-0.1-0.2l0.1-0.2l0.1-0.1h0.5l0.2,0l0.3-0.3l0.3-0.6l0.2-0.2l0.7-0.3l0.7-0.2l0.2,0.1l0.3,0.3l0.1,0
		l0.1-0.1l0.4-0.7l0.5-0.5v-0.4l-0.2-0.6l-0.1-0.8l0.1-0.2l0.7-0.8l0.4-0.8l0.2-0.4v-0.4l-0.1-0.1l-0.8-0.4l-0.3-0.2l-0.2-0.3
		l-0.2-0.4l-0.2-0.3l-0.9-0.7l-0.9-0.5l-0.1-0.4l-0.1-1.2l-0.1-0.2l-0.2-0.3l-0.1-0.2l0.1-0.2l0.2-0.5l0.1-0.2l-0.2-0.4l-0.2-0.2
		l-0.6-0.2l-0.3-0.2l-0.4-0.5l-0.3-0.1l-0.5-0.1l-0.5-0.4l-0.4-0.6l-0.2-1.2l0-0.5v-0.5l0.1-0.5l0.3-0.4l0.3-0.2l0.6-0.1v-0.1
		l0.1-0.1l0.1-0.1l0.1-0.1l0.1,0l0.2,0.1l0.1,0l0.1,0h0.5l0.4-0.1l0.4-0.2l0.4-0.3l0.2-0.5l0.2-0.4l0.2-0.3l0.2-0.3l0.3-0.1
		l-0.2-0.2l-0.1-0.3l-0.1-0.5l-0.2-0.6l-0.1-0.3l-0.1-0.1l-1.4-1.5l-0.4-0.2L242,153l-0.1,0.1l-0.2,0.1l-0.1,0l-0.2-0.1v-0.4l0,0
		v-0.3l0-0.3l-0.1,0l0.1-0.2l0.1-0.2l0.1-0.2v-0.2l-0.3-0.3l-1.6-0.4l-0.2-0.5l0.2-1l0.3-1l0.7-1.4l-0.4-0.8l-0.7-0.8l-0.4-0.7
		l0.2-0.3l0.5-0.6l0.1-0.5v-0.6l-0.2-0.3l-0.3-0.2l-3-0.8l-1.3,0l-1.3,0.3l-1.7,1.2l-0.6,0.2l-0.7,0l-0.6,0.2l-0.7,0.6l-0.5,0.8
		l-0.4,0.6l-0.1,0.4l0.1,0.3l0.2,0.5v0.1l0.2,0.5l0.1,0.1l0.2,0.1l0.3-0.2l0.1,0.1l0.1,0.7l-0.5,0.6L228,149l-1,1.2l-0.6,0.3
		l-0.7-0.3l-0.9,0l-0.9,0.2l-0.5,0.3l0.2-0.6l0.2-0.3l0.1-0.2l-0.4-0.4l-0.2-0.4l0.1-0.3l0.5-0.3l1.2-0.6l0,0h0.1l0.2,0l0.1,0l0.1,0
		l0.5-0.1l0-0.2v-0.6l0.2-0.8l0.1-0.2l0.7-1.5l-0.1-0.3l-0.3-0.4l-0.3-0.3l-1.1-0.7l0.2-0.2v-0.6l0-0.1l-0.1-0.1l0-0.1v-0.1l0.1-0.2
		l0.2-0.3l0.7-1.2l0.7-0.9l-0.5-0.5l-0.1-0.4l0.3-0.4l2.7-2.5l1.5-0.8l0.2-0.2l0.5-0.6l0.6-0.3l0.2-0.2l0.2-0.3l0.1-0.2v-0.5
		l-0.2-0.2l-0.2-0.1l0-0.2l0-0.1l0.3-1l0.1-0.3l0.2-0.3v-0.4l-0.1-0.3l-0.3-0.5l0-0.3l0.3-1l1-0.6l2.2-0.7l1.4-1l0.4-0.7l-0.2-0.5
		l0.3-0.5l0.1-0.2l0.5-0.2l0-0.2l0.1,0l0.3-0.2l-0.1-0.5l0.6-0.2l1.3-1.2l0.3-0.6l0.6-0.6l1.4-1l-0.1-0.7l0.1-0.6l0.4-0.4l0.2,0
		l0.1,0l0.3-0.4l0.2-0.1l0.2-0.1l0.2-0.1l0.2-0.3L245,115l-0.3-0.3l-0.3-0.2l-0.4,0.2l-2.4,0.2l0.1-0.4l0.3-0.5l0.3-0.4l0.5-0.3
		l0.1-0.6l0.5-0.1l0.3-0.2l0.3-0.3l0.2-0.2l-0.1-0.4l-0.2-0.4l-0.1-0.3l0.4-0.1l0.2-0.1l0.1,0l0.2,0l0.2,0.1l0.5,0.1l1-0.2l0.5,0.1
		l0.2,0.1l0.3,0l0.6,0l-0.4,0.8l0.2,0.5l0.4,0.3l0.6,0.2l0.1,0.1l0.1,0.1l0.1,0.1l0.2,0.1l0.2,0l0.8-0.3l0.5-0.1l1.4,0.1l0.6-0.2
		l0.4-0.5l0-0.3l0-0.2l-0.1-0.1l-0.1-0.1l-0.1-0.2v-0.2l0.3-0.1l0.3,0.1l0.2,0.2l0.3,0l0.3-0.3l0.1,0v-0.2l-0.2-0.2l0-0.1l0-0.1
		l0.1-0.1l0.2,0l0.2,0l0-0.2v-0.3h0l-0.4-0.3l-0.1,0l0.9-0.7l0.5-0.3l0.7-0.3l-0.1,0l0.1,0l0.1-0.3l0.1-0.1l-0.1-0.3l-0.1-0.2
		l-0.2-0.1l-0.1-0.2l-0.4-0.9l-0.3-0.4l-0.3-0.1l-0.1-0.1l0-0.3l-0.1-0.6l0.1-0.2l0.3-0.4l0.2-0.2v-0.5l-0.2-1l0-0.4l0.3-1l0.1-0.1
		l0.3-0.2v-0.3l-0.1-0.6v-0.4l0.1-0.1l0.1-0.1l0.1-0.1l0.1-0.3v-0.6l0.1-0.4l0.5-0.6l0.2-0.4l0-0.9l-0.9-1.5l-0.1-1.2l0.1-0.6
		l0.1-0.5l0.2-0.3l0.1-0.2l0.1-0.2l0.1-0.4l0.2-0.4l1.3-1.8l0.2-0.4l0.2-0.5l0.1-0.6l0.1-0.6l0.4-0.3l0.4-0.2l0.3-0.4l0-0.4
		l-0.1-0.4l-0.1-0.4l-0.1-0.4v-0.4l0.2-0.8l0.1-0.3l0.1-0.3l0.2-0.2l0.1-0.3l0.1-0.6l0.1-0.3l0.3-0.2l0.5-0.4v-0.2l-0.3-0.6v-1.1
		l0.2-1l0.8-1.3l0.3-0.2l0.3-0.1l0.3-0.3l0.5-0.7l0.2-0.1l0.3-0.3l0.2-0.3l0.1-0.2V73l0.2-0.3l0.2-0.1l0.6,0l0.1,0l0.1-0.1l0-0.2
		l0-0.3l0.1-0.2l0.1-0.1l0-0.1l0.2,0l0.8-0.4l0.1-0.1l0.2-0.4l0.9-2.5l0.6-1.2l0.4-0.5l-0.2-0.2L266.3,66z M143.6,254.3l-0.3,0h0
		l-0.4-0.1l-0.2-0.2l-0.1-0.3l0.2-0.5l0.3-0.1l0.2,0.3l0.2,0.5L143.6,254.3L143.6,254.3z"/>
</g>
<g id="Calque_2">
	<circle cx="153.2" cy="75.5" r="4.1"/>
	<circle cx="25.4" cy="82.3" r="4.1"/>
	<circle cx="186.5" cy="62.8" r="4.1"/>
	<circle cx="164.8" cy="15.3" r="4.1"/>
	<circle cx="257" cy="78.2" r="4.1"/>
	<circle cx="202.4" cy="120.7" r="4.1"/>
	<circle cx="218.6" cy="175" r="4.1"/>
	<circle cx="214.5" cy="230" r="4.1"/>
	<circle cx="253.7" cy="214" r="4.1"/>
	<circle cx="133.7" cy="221.8" r="4.1"/>
	<g>
		<g>
			<path fill="#FFFFFF" stroke="#FFFFFF" stroke-width="2" stroke-miterlimit="10" d="M10.7,54.3H12v9.2h-1.3V54.3z M11.4,62.4h2.5
				c0.7,0,1.1-0.1,1.4-0.4s0.5-0.6,0.5-1.1v0c0-0.3-0.1-0.6-0.2-0.8c-0.1-0.2-0.3-0.4-0.5-0.5c-0.2-0.1-0.5-0.2-0.9-0.2h-2.8v-1.2
				h2.8c0.5,0,0.8-0.1,1.1-0.3c0.2-0.2,0.4-0.6,0.4-1c0-0.5-0.1-0.8-0.4-1s-0.7-0.3-1.2-0.3h-2.6v-1.2h2.9c0.6,0,1.1,0.1,1.5,0.3
				c0.4,0.2,0.7,0.5,0.9,0.9s0.3,0.8,0.3,1.3c0,0.3-0.1,0.6-0.2,0.9c-0.1,0.3-0.3,0.5-0.6,0.7c-0.3,0.2-0.6,0.3-0.9,0.4
				c0.4,0.1,0.7,0.2,1,0.4c0.3,0.2,0.5,0.5,0.6,0.8s0.2,0.7,0.2,1v0c0,0.5-0.1,0.9-0.3,1.3s-0.5,0.7-0.9,0.9
				c-0.4,0.2-0.9,0.3-1.4,0.3h-3V62.4z"/>
			<path fill="#FFFFFF" stroke="#FFFFFF" stroke-width="2" stroke-miterlimit="10" d="M18.9,57h1.3v6.6h-1.3V57z M22.1,58.2
				c-0.2-0.1-0.4-0.1-0.6-0.1c-0.4,0-0.7,0.1-1,0.3c-0.2,0.2-0.3,0.5-0.3,0.9l-0.1-1.3c0.2-0.4,0.5-0.7,0.8-0.9
				c0.3-0.2,0.7-0.3,1.1-0.3c0.3,0,0.6,0,0.8,0.1c0.2,0.1,0.5,0.2,0.6,0.4l-0.8,1.1C22.5,58.4,22.3,58.3,22.1,58.2z"/>
			<path fill="#FFFFFF" stroke="#FFFFFF" stroke-width="2" stroke-miterlimit="10" d="M25.5,63.3c-0.4-0.2-0.8-0.6-1-1
				c-0.2-0.4-0.3-1-0.3-1.6V60c0-0.7,0.1-1.2,0.3-1.7c0.2-0.5,0.5-0.8,0.9-1.1s0.9-0.4,1.5-0.4c0.6,0,1,0.1,1.4,0.4s0.7,0.7,0.9,1.2
				c0.2,0.5,0.3,1.1,0.3,1.9v0.4h-4.4v-1h3.2c0-0.5-0.2-1-0.4-1.3c-0.2-0.3-0.6-0.4-1-0.4c-0.5,0-0.9,0.2-1.1,0.5
				c-0.3,0.3-0.4,0.8-0.4,1.4v0.8c0,0.5,0.1,1,0.4,1.3s0.7,0.4,1.2,0.4c0.3,0,0.5-0.1,0.8-0.2s0.5-0.3,0.7-0.4l0.9,0.9
				c-0.3,0.3-0.7,0.6-1.1,0.7c-0.4,0.2-0.8,0.3-1.2,0.3C26.5,63.6,25.9,63.5,25.5,63.3z"/>
			<path fill="#FFFFFF" stroke="#FFFFFF" stroke-width="2" stroke-miterlimit="10" d="M32.6,63.5c-0.3-0.1-0.7-0.2-1-0.3
				s-0.6-0.3-0.8-0.6l0.8-0.9c0.4,0.3,0.7,0.5,1.1,0.6s0.7,0.2,1,0.2c0.5,0,0.9-0.1,1.2-0.2c0.3-0.2,0.4-0.4,0.4-0.7
				c0-0.2-0.1-0.4-0.2-0.5s-0.3-0.2-0.5-0.2c-0.2,0-0.5-0.1-0.9-0.1c0,0-0.1,0-0.1,0c0,0-0.1,0-0.1,0c0,0,0,0-0.1,0c0,0,0,0-0.1,0
				c-0.4,0-0.8-0.1-1.1-0.2c-0.3-0.1-0.5-0.3-0.7-0.5c-0.2-0.2-0.3-0.6-0.3-1.1s0.1-0.9,0.3-1.2s0.5-0.5,0.9-0.7
				c0.4-0.2,0.8-0.2,1.4-0.2c0.3,0,0.7,0,1,0.1c0.3,0.1,0.6,0.2,0.9,0.3c0.3,0.1,0.6,0.3,0.8,0.5l-0.8,0.9c-0.3-0.2-0.7-0.4-1-0.5
				C34.3,58.1,34,58,33.7,58c-0.4,0-0.8,0.1-1,0.2c-0.2,0.1-0.3,0.4-0.3,0.7c0,0.2,0.1,0.3,0.2,0.4c0.1,0.1,0.3,0.1,0.5,0.2
				s0.5,0.1,0.8,0.1c0,0,0.1,0,0.1,0c0,0,0.1,0,0.1,0c0,0,0,0,0,0s0,0,0,0c0.5,0,0.9,0.1,1.2,0.2c0.3,0.1,0.6,0.3,0.8,0.6
				s0.3,0.7,0.3,1.2c0,0.5-0.1,0.9-0.3,1.2c-0.2,0.3-0.5,0.5-0.9,0.7c-0.4,0.2-0.9,0.2-1.5,0.2C33.3,63.6,32.9,63.6,32.6,63.5z"/>
			<path fill="#FFFFFF" stroke="#FFFFFF" stroke-width="2" stroke-miterlimit="10" d="M37.6,57h3v1.2h-3V57z M38.6,63.1
				c-0.2-0.3-0.4-0.7-0.4-1.3V55h1.3v6.8c0,0.2,0,0.3,0.1,0.4c0.1,0.1,0.2,0.1,0.3,0.1h0.6v1.2h-0.7C39.3,63.6,38.9,63.4,38.6,63.1z
				"/>
			<path fill="#FFFFFF" stroke="#FFFFFF" stroke-width="2" stroke-miterlimit="10" d="M22.9,74.4l3.2-4.3c0.2-0.2,0.3-0.5,0.4-0.8
				c0.1-0.3,0.2-0.5,0.2-0.7v0c0-0.4-0.1-0.7-0.3-0.9s-0.5-0.3-0.9-0.3c-0.4,0-0.7,0.1-0.9,0.3c-0.2,0.2-0.4,0.5-0.4,0.9v0h-1.3v0
				c0.1-0.5,0.2-1,0.5-1.4c0.2-0.4,0.5-0.7,0.9-0.9c0.4-0.2,0.8-0.3,1.3-0.3c0.6,0,1,0.1,1.4,0.3c0.4,0.2,0.7,0.5,0.9,0.8
				s0.3,0.8,0.3,1.3v0c0,0.3-0.1,0.7-0.2,1s-0.3,0.7-0.6,1l-2.7,3.6h3.5v1.2h-5.2V74.4z"/>
		</g>
	</g>
	<g>
		<g>
			<path fill="#FFFFFF" stroke="#FFFFFF" stroke-width="2" stroke-miterlimit="10" d="M175.1,10.1h1.3v9.2h-1.3V10.1z M175.7,18.1
				h5.3v1.2h-5.3V18.1z"/>
			<path fill="#FFFFFF" stroke="#FFFFFF" stroke-width="2" stroke-miterlimit="10" d="M182.4,10.1h1.3v1.3h-1.3V10.1z M182.4,12.8
				h1.3v6.6h-1.3V12.8z"/>
			<path fill="#FFFFFF" stroke="#FFFFFF" stroke-width="2" stroke-miterlimit="10" d="M186.9,17.7c0,0.2,0,0.3,0.1,0.4
				c0.1,0.1,0.2,0.1,0.3,0.1h0.6v1.2h-0.8c-0.5,0-0.9-0.2-1.1-0.5c-0.3-0.3-0.4-0.7-0.4-1.3v-7.5h1.3V17.7z"/>
			<path fill="#FFFFFF" stroke="#FFFFFF" stroke-width="2" stroke-miterlimit="10" d="M190.7,17.7c0,0.2,0,0.3,0.1,0.4
				c0.1,0.1,0.2,0.1,0.3,0.1h0.6v1.2H191c-0.5,0-0.9-0.2-1.1-0.5s-0.4-0.7-0.4-1.3v-7.5h1.3V17.7z"/>
			<path fill="#FFFFFF" stroke="#FFFFFF" stroke-width="2" stroke-miterlimit="10" d="M194.3,19.1c-0.4-0.2-0.8-0.6-1-1
				c-0.2-0.4-0.3-1-0.3-1.6v-0.7c0-0.7,0.1-1.2,0.3-1.7c0.2-0.5,0.5-0.8,0.9-1.1c0.4-0.2,0.9-0.4,1.5-0.4c0.6,0,1,0.1,1.4,0.4
				c0.4,0.3,0.7,0.7,0.9,1.2c0.2,0.5,0.3,1.1,0.3,1.9v0.4h-4.4v-1h3.2c0-0.5-0.2-1-0.4-1.3c-0.2-0.3-0.6-0.4-1-0.4
				c-0.5,0-0.9,0.2-1.1,0.5c-0.3,0.3-0.4,0.8-0.4,1.4v0.8c0,0.5,0.1,1,0.4,1.3c0.3,0.3,0.7,0.4,1.2,0.4c0.3,0,0.5-0.1,0.8-0.2
				c0.3-0.1,0.5-0.3,0.7-0.4l0.9,0.9c-0.3,0.3-0.7,0.6-1.1,0.7c-0.4,0.2-0.8,0.3-1.2,0.3C195.3,19.5,194.7,19.4,194.3,19.1z"/>
			<path fill="#FFFFFF" stroke="#FFFFFF" stroke-width="2" stroke-miterlimit="10" d="M185.6,27.4v1.2h-4.3v-1.2H185.6z"/>
			<path fill="#FFFFFF" stroke="#FFFFFF" stroke-width="2" stroke-miterlimit="10" d="M191.9,23.3l-2.4,8.1h-1.4l2.4-8h-2.3v1.3
				h-1.3v-2.6h5V23.3z"/>
		</g>
	</g>
	<g>
		<g>
			<path fill="#FFFFFF" stroke="#FFFFFF" stroke-width="2" stroke-miterlimit="10" d="M139.2,45.5h1.3v9.2h-1.3V45.5z M139.9,49.9h3
				c0.3,0,0.5-0.1,0.7-0.2s0.4-0.3,0.5-0.6c0.1-0.2,0.2-0.5,0.2-0.8c0-0.3-0.1-0.6-0.2-0.8c-0.1-0.2-0.3-0.4-0.5-0.6
				c-0.2-0.1-0.5-0.2-0.7-0.2h-3v-1.2h2.9c0.6,0,1,0.1,1.5,0.4c0.4,0.2,0.7,0.6,1,1c0.2,0.4,0.3,0.9,0.3,1.5s-0.1,1.1-0.3,1.5
				c-0.2,0.4-0.6,0.8-1,1s-0.9,0.3-1.5,0.3h-2.9V49.9z"/>
			<path fill="#FFFFFF" stroke="#FFFFFF" stroke-width="2" stroke-miterlimit="10" d="M147.2,54.3c-0.4-0.3-0.6-0.8-0.6-1.5
				c0-0.7,0.2-1.1,0.6-1.5s0.9-0.5,1.7-0.5h1.9l0.1,1h-2c-0.3,0-0.6,0.1-0.8,0.2c-0.2,0.1-0.3,0.4-0.3,0.7c0,0.3,0.1,0.6,0.3,0.7
				c0.2,0.2,0.6,0.2,1,0.2c0.5,0,0.9-0.1,1.1-0.2s0.4-0.3,0.4-0.5l0.1,0.9c-0.1,0.2-0.3,0.3-0.4,0.4s-0.4,0.2-0.6,0.3
				c-0.2,0.1-0.5,0.1-0.7,0.1C148.2,54.8,147.6,54.6,147.2,54.3z M150.6,50.5c0-0.4-0.1-0.8-0.3-1c-0.2-0.2-0.6-0.4-1-0.4
				c-0.3,0-0.5,0-0.8,0.1c-0.3,0.1-0.5,0.2-0.7,0.3l-0.9-0.6c0.2-0.3,0.6-0.5,1-0.7c0.4-0.2,0.9-0.3,1.4-0.3c0.5,0,1,0.1,1.4,0.3
				c0.4,0.2,0.7,0.5,0.9,0.8c0.2,0.4,0.3,0.8,0.3,1.3v4.2h-1.2V50.5z"/>
			<path fill="#FFFFFF" stroke="#FFFFFF" stroke-width="2" stroke-miterlimit="10" d="M153.8,48.1h1.3v6.6h-1.3V48.1z M157,49.3
				c-0.2-0.1-0.4-0.1-0.6-0.1c-0.4,0-0.7,0.1-1,0.3c-0.2,0.2-0.3,0.5-0.3,0.9l-0.1-1.3c0.2-0.4,0.5-0.7,0.8-0.9
				c0.3-0.2,0.7-0.3,1.1-0.3c0.3,0,0.6,0,0.8,0.1c0.2,0.1,0.5,0.2,0.6,0.4l-0.8,1.1C157.3,49.5,157.2,49.4,157,49.3z"/>
			<path fill="#FFFFFF" stroke="#FFFFFF" stroke-width="2" stroke-miterlimit="10" d="M159.3,45.5h1.3v1.3h-1.3V45.5z M159.3,48.1
				h1.3v6.6h-1.3V48.1z"/>
			<path fill="#FFFFFF" stroke="#FFFFFF" stroke-width="2" stroke-miterlimit="10" d="M163.8,54.7c-0.3-0.1-0.7-0.2-1-0.3
				c-0.3-0.2-0.6-0.3-0.8-0.6l0.8-0.9c0.4,0.3,0.7,0.5,1.1,0.6c0.4,0.1,0.7,0.2,1,0.2c0.5,0,0.9-0.1,1.2-0.2
				c0.3-0.2,0.4-0.4,0.4-0.7c0-0.2-0.1-0.4-0.2-0.5s-0.3-0.2-0.5-0.2c-0.2,0-0.5-0.1-0.9-0.1c0,0-0.1,0-0.1,0c0,0-0.1,0-0.1,0
				c0,0,0,0-0.1,0c0,0,0,0-0.1,0c-0.4,0-0.8-0.1-1.1-0.2c-0.3-0.1-0.5-0.3-0.7-0.5c-0.2-0.2-0.3-0.6-0.3-1.1s0.1-0.9,0.3-1.2
				s0.5-0.5,0.9-0.7c0.4-0.2,0.8-0.2,1.4-0.2c0.3,0,0.7,0,1,0.1c0.3,0.1,0.6,0.2,0.9,0.3c0.3,0.1,0.6,0.3,0.8,0.5l-0.8,0.9
				c-0.3-0.2-0.7-0.4-1-0.5c-0.3-0.1-0.6-0.2-0.9-0.2c-0.4,0-0.8,0.1-1,0.2c-0.2,0.1-0.3,0.4-0.3,0.7c0,0.2,0.1,0.3,0.2,0.4
				c0.1,0.1,0.3,0.1,0.5,0.2s0.5,0.1,0.8,0.1c0,0,0.1,0,0.1,0s0.1,0,0.1,0c0,0,0,0,0,0s0,0,0,0c0.5,0,0.9,0.1,1.2,0.2
				c0.3,0.1,0.6,0.3,0.8,0.6c0.2,0.3,0.3,0.7,0.3,1.2c0,0.5-0.1,0.9-0.3,1.2c-0.2,0.3-0.5,0.5-0.9,0.7c-0.4,0.2-0.9,0.2-1.5,0.2
				C164.5,54.8,164.2,54.7,163.8,54.7z"/>
			<path fill="#FFFFFF" stroke="#FFFFFF" stroke-width="2" stroke-miterlimit="10" d="M151.7,62.8V64h-4.3v-1.2H151.7z"/>
			<path fill="#FFFFFF" stroke="#FFFFFF" stroke-width="2" stroke-miterlimit="10" d="M153.5,64.2l3.1-6.7h1.3l-3,6.6h4.5v1.2h-5.9
				V64.2z M157.4,61.3h1.3v5.4h-1.3V61.3z"/>
		</g>
	</g>
	<g>
		<g>
			<path fill="#FFFFFF" stroke="#FFFFFF" stroke-width="2" stroke-miterlimit="10" d="M169.5,68.9h1.3v9.2h-1.3V68.9z M170.1,73h3.1
				c0.2,0,0.5-0.1,0.7-0.2s0.3-0.3,0.4-0.5c0.1-0.2,0.2-0.5,0.2-0.8s-0.1-0.5-0.2-0.8c-0.1-0.2-0.2-0.4-0.4-0.5s-0.4-0.2-0.7-0.2
				h-3.1v-1.2h3.1c0.5,0,1,0.1,1.4,0.3s0.7,0.5,0.9,0.9c0.2,0.4,0.3,0.9,0.3,1.4s-0.1,1-0.3,1.4c-0.2,0.4-0.5,0.7-0.9,0.9
				c-0.4,0.2-0.9,0.3-1.4,0.3h-3.1V73z M172.6,74l1.3-0.3l2.4,4.5h-1.5L172.6,74z"/>
			<path fill="#FFFFFF" stroke="#FFFFFF" stroke-width="2" stroke-miterlimit="10" d="M178.7,77.9c-0.4-0.2-0.8-0.6-1-1
				c-0.2-0.4-0.3-1-0.3-1.6v-0.7c0-0.7,0.1-1.2,0.3-1.7s0.5-0.8,0.9-1.1c0.4-0.2,0.9-0.4,1.5-0.4c0.5,0,1,0.1,1.4,0.4
				c0.4,0.3,0.7,0.7,0.9,1.2s0.3,1.1,0.3,1.9v0.4h-4.4v-1h3.2c0-0.5-0.2-1-0.4-1.3c-0.2-0.3-0.6-0.4-1-0.4c-0.5,0-0.9,0.2-1.1,0.5
				s-0.4,0.8-0.4,1.4v0.8c0,0.5,0.1,1,0.4,1.3c0.3,0.3,0.7,0.4,1.2,0.4c0.3,0,0.5-0.1,0.8-0.2c0.3-0.1,0.5-0.3,0.7-0.4l0.9,0.9
				c-0.3,0.3-0.7,0.6-1.1,0.7c-0.4,0.2-0.8,0.3-1.2,0.3C179.7,78.3,179.2,78.2,178.7,77.9z"/>
			<path fill="#FFFFFF" stroke="#FFFFFF" stroke-width="2" stroke-miterlimit="10" d="M184.6,68.9h1.3v1.3h-1.3V68.9z M184.6,71.6
				h1.3v6.6h-1.3V71.6z"/>
			<path fill="#FFFFFF" stroke="#FFFFFF" stroke-width="2" stroke-miterlimit="10" d="M187.8,71.6h1.3v6.6h-1.3V71.6z M191.8,74.2
				c0-0.5-0.1-0.8-0.3-1.1s-0.6-0.4-1-0.4c-0.4,0-0.8,0.1-1,0.3c-0.2,0.2-0.3,0.5-0.3,0.9l-0.1-1.3c0.2-0.4,0.5-0.7,0.8-0.9
				c0.3-0.2,0.7-0.3,1.1-0.3c0.5,0,0.9,0.1,1.2,0.3c0.3,0.2,0.6,0.5,0.7,0.9c0.2,0.4,0.3,0.9,0.3,1.5v4h-1.3V74.2z M195.7,74.2
				c0-0.5-0.1-0.8-0.4-1.1s-0.6-0.4-1-0.4c-0.4,0-0.7,0.1-0.9,0.4c-0.2,0.2-0.3,0.6-0.3,1l-0.3-1.3c0.2-0.4,0.5-0.8,0.8-1
				c0.3-0.2,0.7-0.4,1.1-0.4c0.5,0,0.9,0.1,1.2,0.3c0.3,0.2,0.6,0.5,0.8,0.9c0.2,0.4,0.3,0.9,0.3,1.5v4h-1.3V74.2z"/>
			<path fill="#FFFFFF" stroke="#FFFFFF" stroke-width="2" stroke-miterlimit="10" d="M200.2,78.2c-0.3-0.1-0.7-0.2-1-0.3
				c-0.3-0.2-0.6-0.3-0.8-0.6l0.8-0.9c0.4,0.3,0.7,0.5,1.1,0.6c0.4,0.1,0.7,0.2,1,0.2c0.5,0,0.9-0.1,1.2-0.2
				c0.3-0.2,0.4-0.4,0.4-0.7c0-0.2-0.1-0.4-0.2-0.5s-0.3-0.2-0.5-0.2c-0.2,0-0.5-0.1-0.9-0.1c0,0-0.1,0-0.1,0c0,0-0.1,0-0.1,0
				c0,0,0,0-0.1,0c0,0,0,0-0.1,0c-0.4,0-0.8-0.1-1.1-0.2c-0.3-0.1-0.5-0.3-0.7-0.5c-0.2-0.2-0.3-0.6-0.3-1.1s0.1-0.9,0.3-1.2
				s0.5-0.5,0.9-0.7c0.4-0.2,0.8-0.2,1.4-0.2c0.3,0,0.7,0,1,0.1c0.3,0.1,0.6,0.2,0.9,0.3c0.3,0.1,0.6,0.3,0.8,0.5l-0.8,0.9
				c-0.3-0.2-0.7-0.4-1-0.5s-0.6-0.2-0.9-0.2c-0.4,0-0.8,0.1-1,0.2c-0.2,0.1-0.3,0.4-0.3,0.7c0,0.2,0.1,0.3,0.2,0.4s0.3,0.1,0.5,0.2
				s0.5,0.1,0.8,0.1c0,0,0.1,0,0.1,0c0,0,0.1,0,0.1,0c0,0,0,0,0,0s0,0,0,0c0.5,0,0.9,0.1,1.2,0.2c0.3,0.1,0.6,0.3,0.8,0.6
				c0.2,0.3,0.3,0.7,0.3,1.2c0,0.5-0.1,0.9-0.3,1.2c-0.2,0.3-0.5,0.5-0.9,0.7s-0.9,0.2-1.5,0.2C200.9,78.3,200.5,78.2,200.2,78.2z"
				/>
			<path fill="#FFFFFF" stroke="#FFFFFF" stroke-width="2" stroke-miterlimit="10" d="M185.3,86.2v1.2H181v-1.2H185.3z"/>
			<path fill="#FFFFFF" stroke="#FFFFFF" stroke-width="2" stroke-miterlimit="10" d="M188.2,90c-0.4-0.2-0.7-0.5-0.9-0.8
				c-0.2-0.4-0.4-0.8-0.5-1.3h1.3c0,0.3,0.1,0.5,0.2,0.6s0.3,0.3,0.5,0.4c0.2,0.1,0.4,0.1,0.7,0.1c0.4,0,0.8-0.1,1-0.3
				c0.2-0.2,0.4-0.6,0.4-1v-0.3c0-0.5-0.1-0.8-0.3-1.1c-0.2-0.3-0.5-0.4-1-0.4H189v-1.2h0.7c0.4,0,0.6-0.1,0.8-0.3
				c0.2-0.2,0.3-0.5,0.3-0.9v-0.3c0-0.4-0.1-0.6-0.3-0.8c-0.2-0.2-0.5-0.3-0.9-0.3c-0.2,0-0.4,0-0.6,0.1c-0.2,0.1-0.3,0.2-0.4,0.4
				c-0.1,0.2-0.2,0.4-0.3,0.6h-1.3c0.1-0.5,0.2-0.9,0.5-1.3c0.2-0.4,0.5-0.6,0.9-0.8c0.4-0.2,0.8-0.3,1.2-0.3c0.8,0,1.4,0.2,1.8,0.6
				c0.4,0.4,0.7,1,0.7,1.8v0.2c0,0.5-0.1,0.9-0.4,1.2c-0.2,0.3-0.6,0.6-1.1,0.7c0.5,0.1,0.9,0.4,1.2,0.7c0.3,0.4,0.4,0.9,0.4,1.5
				v0.2c0,0.5-0.1,1-0.3,1.4c-0.2,0.4-0.5,0.7-0.9,0.9c-0.4,0.2-0.9,0.3-1.4,0.3C189,90.3,188.6,90.2,188.2,90z"/>
		</g>
	</g>
	<g>
		<g>
			<path fill="#FFFFFF" stroke="#FFFFFF" stroke-width="2" stroke-miterlimit="10" d="M223.2,59.5c-0.4-0.1-0.8-0.2-1.1-0.4
				c-0.3-0.2-0.7-0.4-1-0.6l0.8-1c0.4,0.3,0.7,0.5,1.2,0.7c0.4,0.2,0.9,0.2,1.4,0.2c0.7,0,1.2-0.1,1.6-0.4c0.4-0.2,0.6-0.6,0.6-1.1
				v0c0-0.3-0.1-0.6-0.3-0.8c-0.2-0.2-0.4-0.3-0.6-0.4c-0.3-0.1-0.6-0.2-1-0.3c0,0,0,0,0,0s0,0,0,0l-0.1,0c-0.6-0.1-1.1-0.2-1.5-0.4
				c-0.4-0.1-0.7-0.4-1-0.7c-0.3-0.4-0.4-0.9-0.4-1.5v0c0-0.6,0.1-1.1,0.4-1.5c0.3-0.4,0.6-0.7,1.1-0.9c0.5-0.2,1.1-0.3,1.8-0.3
				c0.3,0,0.7,0,1,0.1c0.3,0.1,0.6,0.2,0.9,0.3c0.3,0.1,0.6,0.3,0.9,0.5l-0.7,1c-0.4-0.3-0.7-0.5-1.1-0.6c-0.3-0.1-0.7-0.2-1-0.2
				c-0.6,0-1.1,0.1-1.5,0.4c-0.3,0.3-0.5,0.6-0.5,1.1v0c0,0.3,0.1,0.6,0.3,0.7s0.4,0.3,0.7,0.4c0.3,0.1,0.6,0.2,1.1,0.3c0,0,0,0,0,0
				c0,0,0,0,0,0c0,0,0,0,0.1,0s0,0,0.1,0c0.6,0.1,1,0.2,1.4,0.4c0.4,0.2,0.7,0.4,0.9,0.8c0.3,0.3,0.4,0.8,0.4,1.4v0
				c0,0.6-0.1,1-0.4,1.4c-0.3,0.4-0.7,0.7-1.2,0.9c-0.5,0.2-1.1,0.3-1.8,0.3C224.1,59.6,223.6,59.6,223.2,59.5z"/>
			<path fill="#FFFFFF" stroke="#FFFFFF" stroke-width="2" stroke-miterlimit="10" d="M229.1,52.9h3v1.2h-3V52.9z M230.2,59.1
				c-0.2-0.3-0.4-0.7-0.4-1.3V51h1.3v6.8c0,0.2,0,0.3,0.1,0.4c0.1,0.1,0.2,0.1,0.3,0.1h0.6v1.2h-0.7
				C230.8,59.6,230.4,59.4,230.2,59.1z"/>
			<path fill="#FFFFFF" stroke="#FFFFFF" stroke-width="2" stroke-miterlimit="10" d="M233.8,52.9h1.3v6.6h-1.3V52.9z M237,54.2
				c-0.2-0.1-0.4-0.1-0.6-0.1c-0.4,0-0.7,0.1-1,0.3c-0.2,0.2-0.3,0.5-0.3,0.9l-0.1-1.3c0.2-0.4,0.5-0.7,0.8-0.9
				c0.3-0.2,0.7-0.3,1.1-0.3c0.3,0,0.6,0,0.8,0.1c0.2,0.1,0.5,0.2,0.6,0.4l-0.8,1.1C237.4,54.4,237.2,54.3,237,54.2z"/>
			<path fill="#FFFFFF" stroke="#FFFFFF" stroke-width="2" stroke-miterlimit="10" d="M239.7,59.1c-0.4-0.3-0.6-0.8-0.6-1.5
				c0-0.7,0.2-1.1,0.6-1.5s0.9-0.5,1.7-0.5h1.9l0.1,1h-2c-0.3,0-0.6,0.1-0.8,0.2c-0.2,0.1-0.3,0.4-0.3,0.7c0,0.3,0.1,0.6,0.3,0.7
				c0.2,0.2,0.6,0.2,1,0.2c0.5,0,0.9-0.1,1.1-0.2s0.4-0.3,0.4-0.5l0.1,0.9c-0.1,0.2-0.3,0.3-0.4,0.4s-0.4,0.2-0.6,0.3
				c-0.2,0.1-0.5,0.1-0.7,0.1C240.7,59.6,240.1,59.5,239.7,59.1z M243.1,55.4c0-0.4-0.1-0.8-0.3-1c-0.2-0.2-0.6-0.4-1-0.4
				c-0.3,0-0.5,0-0.8,0.1c-0.3,0.1-0.5,0.2-0.7,0.3l-0.9-0.6c0.2-0.3,0.6-0.5,1-0.7c0.4-0.2,0.9-0.3,1.4-0.3c0.5,0,1,0.1,1.4,0.3
				c0.4,0.2,0.7,0.5,0.9,0.8c0.2,0.4,0.3,0.8,0.3,1.3v4.2h-1.2V55.4z"/>
			<path fill="#FFFFFF" stroke="#FFFFFF" stroke-width="2" stroke-miterlimit="10" d="M247.6,59.5c-0.3-0.1-0.7-0.2-1-0.3
				c-0.3-0.2-0.6-0.3-0.8-0.6l0.8-0.9c0.4,0.3,0.7,0.5,1.1,0.6c0.4,0.1,0.7,0.2,1,0.2c0.5,0,0.9-0.1,1.2-0.2
				c0.3-0.2,0.4-0.4,0.4-0.7c0-0.2-0.1-0.4-0.2-0.5s-0.3-0.2-0.5-0.2c-0.2,0-0.5-0.1-0.9-0.1c0,0-0.1,0-0.1,0c0,0-0.1,0-0.1,0
				c0,0,0,0-0.1,0c0,0,0,0-0.1,0c-0.4,0-0.8-0.1-1.1-0.2c-0.3-0.1-0.5-0.3-0.7-0.5c-0.2-0.2-0.3-0.6-0.3-1.1s0.1-0.9,0.3-1.2
				s0.5-0.5,0.9-0.7c0.4-0.2,0.8-0.2,1.4-0.2c0.3,0,0.7,0,1,0.1c0.3,0.1,0.6,0.2,0.9,0.3c0.3,0.1,0.6,0.3,0.8,0.5l-0.8,0.9
				c-0.3-0.2-0.7-0.4-1-0.5c-0.3-0.1-0.6-0.2-0.9-0.2c-0.4,0-0.8,0.1-1,0.2c-0.2,0.1-0.3,0.4-0.3,0.7c0,0.2,0.1,0.3,0.2,0.4
				c0.1,0.1,0.3,0.1,0.5,0.2s0.5,0.1,0.8,0.1c0,0,0.1,0,0.1,0s0.1,0,0.1,0c0,0,0,0,0,0s0,0,0,0c0.5,0,0.9,0.1,1.2,0.2
				c0.3,0.1,0.6,0.3,0.8,0.6c0.2,0.3,0.3,0.7,0.3,1.2c0,0.5-0.1,0.9-0.3,1.2c-0.2,0.3-0.5,0.5-0.9,0.7c-0.4,0.2-0.9,0.2-1.5,0.2
				C248.3,59.6,247.9,59.6,247.6,59.5z"/>
			<path fill="#FFFFFF" stroke="#FFFFFF" stroke-width="2" stroke-miterlimit="10" d="M253.1,50.3h1.3v9.2h-1.3V50.3z M254.9,59.3
				c-0.3-0.2-0.5-0.5-0.7-0.8l0.1-1.4c0,0.3,0.1,0.5,0.2,0.7s0.2,0.4,0.4,0.5c0.2,0.1,0.4,0.2,0.7,0.2c0.4,0,0.8-0.1,1-0.4
				c0.2-0.3,0.4-0.6,0.4-1.1v-1.4c0-0.5-0.1-0.9-0.4-1.1c-0.2-0.3-0.6-0.4-1-0.4c-0.3,0-0.5,0.1-0.7,0.2c-0.2,0.1-0.3,0.3-0.4,0.4
				c-0.1,0.2-0.2,0.4-0.2,0.7l-0.1-1.3c0.2-0.4,0.5-0.7,0.8-0.9c0.3-0.2,0.7-0.3,1.1-0.3c0.5,0,0.9,0.1,1.2,0.3
				c0.3,0.2,0.6,0.5,0.8,0.9c0.2,0.4,0.3,0.9,0.3,1.5V57c0,0.6-0.1,1-0.3,1.4s-0.4,0.7-0.8,0.9c-0.3,0.2-0.8,0.3-1.2,0.3
				C255.6,59.6,255.2,59.5,254.9,59.3z"/>
			<path fill="#FFFFFF" stroke="#FFFFFF" stroke-width="2" stroke-miterlimit="10" d="M261.2,59.3c-0.4-0.2-0.7-0.6-0.9-1
				c-0.2-0.4-0.3-0.9-0.3-1.6v-1.1c0-0.6,0.1-1.1,0.3-1.5c0.2-0.4,0.5-0.7,0.9-1c0.4-0.2,0.9-0.3,1.5-0.3s1.1,0.1,1.5,0.3
				c0.4,0.2,0.7,0.5,0.9,1c0.2,0.4,0.3,0.9,0.3,1.5v1.1c0,0.6-0.1,1.1-0.3,1.5c-0.2,0.4-0.5,0.8-0.9,1s-0.9,0.3-1.5,0.3
				S261.6,59.5,261.2,59.3z M263.7,58c0.2-0.3,0.4-0.7,0.4-1.2v-1.1c0-0.5-0.1-0.9-0.4-1.2c-0.2-0.3-0.6-0.4-1.1-0.4
				c-0.5,0-0.8,0.1-1.1,0.4c-0.2,0.3-0.4,0.7-0.4,1.2v1.1c0,0.5,0.1,0.9,0.4,1.2c0.2,0.3,0.6,0.4,1.1,0.4
				C263.1,58.4,263.5,58.3,263.7,58z"/>
			<path fill="#FFFFFF" stroke="#FFFFFF" stroke-width="2" stroke-miterlimit="10" d="M268.3,56.9c0,0.5,0.1,0.8,0.4,1.1
				c0.2,0.3,0.6,0.4,1,0.4c0.4,0,0.8-0.1,1-0.3c0.2-0.2,0.3-0.5,0.3-1l0.1,1.4c-0.1,0.3-0.4,0.6-0.7,0.8s-0.7,0.3-1.1,0.3
				c-0.7,0-1.3-0.2-1.7-0.7c-0.4-0.5-0.6-1.1-0.6-2v-4h1.3V56.9z M271,52.9h1.3v6.6H271V52.9z"/>
			<path fill="#FFFFFF" stroke="#FFFFFF" stroke-width="2" stroke-miterlimit="10" d="M274.3,52.9h1.3v6.6h-1.3V52.9z M277.5,54.2
				c-0.2-0.1-0.4-0.1-0.6-0.1c-0.4,0-0.7,0.1-1,0.3c-0.2,0.2-0.3,0.5-0.3,0.9l-0.1-1.3c0.2-0.4,0.5-0.7,0.8-0.9
				c0.3-0.2,0.7-0.3,1.1-0.3c0.3,0,0.6,0,0.8,0.1c0.2,0.1,0.5,0.2,0.6,0.4l-0.8,1.1C277.8,54.4,277.7,54.3,277.5,54.2z"/>
			<path fill="#FFFFFF" stroke="#FFFFFF" stroke-width="2" stroke-miterlimit="10" d="M280.6,59.3c-0.3-0.2-0.6-0.5-0.8-0.9
				s-0.3-0.9-0.3-1.4v-1.5c0-0.6,0.1-1.1,0.3-1.5c0.2-0.4,0.4-0.7,0.8-0.9c0.3-0.2,0.7-0.3,1.2-0.3c0.4,0,0.7,0.1,1.1,0.3
				c0.3,0.2,0.6,0.5,0.8,0.9l-0.1,1.3c0-0.3-0.1-0.5-0.2-0.7s-0.2-0.4-0.4-0.5c-0.2-0.1-0.4-0.2-0.7-0.2c-0.4,0-0.8,0.1-1,0.4
				c-0.2,0.3-0.4,0.6-0.4,1.1V57c0,0.5,0.1,0.8,0.4,1.1c0.2,0.3,0.6,0.4,1,0.4c0.3,0,0.5-0.1,0.7-0.2c0.2-0.1,0.3-0.3,0.4-0.5
				s0.2-0.4,0.2-0.7l0.1,1.4c-0.1,0.3-0.3,0.6-0.6,0.8c-0.3,0.2-0.7,0.3-1.1,0.3C281.3,59.6,280.9,59.5,280.6,59.3z M280.6,61.9
				c-0.4-0.2-0.7-0.4-0.9-0.8l0.9-0.8c0.2,0.2,0.4,0.4,0.6,0.5c0.2,0.1,0.5,0.2,0.7,0.2c0.5,0,0.9-0.1,1.1-0.4
				c0.3-0.3,0.4-0.7,0.4-1.2v-6.6h1.3v6.4c0,0.6-0.1,1.1-0.3,1.6c-0.2,0.4-0.5,0.8-1,1c-0.4,0.2-0.9,0.3-1.5,0.3
				C281.4,62.2,281,62.1,280.6,61.9z"/>
			<path fill="#FFFFFF" stroke="#FFFFFF" stroke-width="2" stroke-miterlimit="10" d="M249.9,67.6v1.2h-4.3v-1.2H249.9z"/>
			<path fill="#FFFFFF" stroke="#FFFFFF" stroke-width="2" stroke-miterlimit="10" d="M253.8,71.5h-1.3v-7.8l-1.3,0.8v-1.3l1.3-0.9
				h1.3V71.5z"/>
			<path fill="#FFFFFF" stroke="#FFFFFF" stroke-width="2" stroke-miterlimit="10" d="M255.8,70.4l3.2-4.3c0.2-0.2,0.3-0.5,0.4-0.8
				c0.1-0.3,0.2-0.5,0.2-0.7v0c0-0.4-0.1-0.7-0.3-0.9s-0.5-0.3-0.9-0.3c-0.4,0-0.7,0.1-0.9,0.3c-0.2,0.2-0.4,0.5-0.4,0.9v0h-1.3v0
				c0.1-0.5,0.2-1,0.5-1.4c0.2-0.4,0.5-0.7,0.9-0.9c0.4-0.2,0.8-0.3,1.3-0.3c0.5,0,1,0.1,1.4,0.3c0.4,0.2,0.7,0.5,0.9,0.8
				s0.3,0.8,0.3,1.3v0c0,0.3-0.1,0.7-0.2,1c-0.1,0.4-0.3,0.7-0.6,1l-2.7,3.6h3.5v1.2h-5.2V70.4z"/>
		</g>
	</g>
	<g>
		<g>
			<path fill="#FFFFFF" stroke="#FFFFFF" stroke-width="2" stroke-miterlimit="10" d="M211,108.5h1.3v9.2H211V108.5z M211.9,116.5
				h2.1c0.7,0,1.2-0.2,1.6-0.5c0.4-0.4,0.6-0.9,0.6-1.5v-2.7c0-0.6-0.2-1.1-0.6-1.5c-0.4-0.4-0.9-0.5-1.6-0.5h-2.1v-1.2h2.1
				c0.7,0,1.4,0.1,1.9,0.4c0.5,0.3,0.9,0.6,1.2,1.1c0.3,0.5,0.4,1.1,0.4,1.8v2.6c0,0.7-0.1,1.3-0.4,1.8c-0.3,0.5-0.7,0.9-1.2,1.1
				c-0.5,0.3-1.2,0.4-1.9,0.4h-2V116.5z"/>
			<path fill="#FFFFFF" stroke="#FFFFFF" stroke-width="2" stroke-miterlimit="10" d="M219.4,108.5h1.3v1.3h-1.3V108.5z
				 M219.4,111.1h1.3v6.6h-1.3V111.1z"/>
			<path fill="#FFFFFF" stroke="#FFFFFF" stroke-width="2" stroke-miterlimit="10" d="M221.8,119.1h0.7c0.1,0,0.2,0,0.3-0.1
				s0.1-0.2,0.1-0.4v-7.5h1.3v7.5c0,0.6-0.1,1-0.4,1.3s-0.6,0.5-1.1,0.5h-0.9V119.1z M222.9,108.5h1.3v1.3h-1.3V108.5z"/>
			<path fill="#FFFFFF" stroke="#FFFFFF" stroke-width="2" stroke-miterlimit="10" d="M227.2,117.5c-0.4-0.2-0.7-0.6-0.9-1
				c-0.2-0.4-0.3-0.9-0.3-1.6v-1.1c0-0.6,0.1-1.1,0.3-1.5c0.2-0.4,0.5-0.7,0.9-1c0.4-0.2,0.9-0.3,1.5-0.3s1.1,0.1,1.5,0.3
				c0.4,0.2,0.7,0.5,0.9,1c0.2,0.4,0.3,0.9,0.3,1.5v1.1c0,0.6-0.1,1.1-0.3,1.5c-0.2,0.4-0.5,0.8-0.9,1s-0.9,0.3-1.5,0.3
				S227.6,117.7,227.2,117.5z M229.7,116.1c0.2-0.3,0.4-0.7,0.4-1.2v-1.1c0-0.5-0.1-0.9-0.4-1.2c-0.2-0.3-0.6-0.4-1.1-0.4
				c-0.5,0-0.8,0.1-1.1,0.4c-0.2,0.3-0.4,0.7-0.4,1.2v1.1c0,0.5,0.1,0.9,0.4,1.2c0.2,0.3,0.6,0.4,1.1,0.4
				C229.1,116.6,229.5,116.4,229.7,116.1z"/>
			<path fill="#FFFFFF" stroke="#FFFFFF" stroke-width="2" stroke-miterlimit="10" d="M233.2,111.1h1.3v6.6h-1.3V111.1z
				 M237.2,113.7c0-0.5-0.1-0.8-0.4-1.1s-0.6-0.4-1-0.4c-0.4,0-0.8,0.1-1,0.3s-0.3,0.5-0.3,0.9l-0.1-1.3c0.2-0.4,0.5-0.7,0.8-0.9
				s0.7-0.3,1.1-0.3c0.7,0,1.3,0.2,1.7,0.7c0.4,0.5,0.6,1.1,0.6,2v4h-1.3V113.7z"/>
			<path fill="#FFFFFF" stroke="#FFFFFF" stroke-width="2" stroke-miterlimit="10" d="M223.5,125.8v1.2h-4.3v-1.2H223.5z"/>
			<path fill="#FFFFFF" stroke="#FFFFFF" stroke-width="2" stroke-miterlimit="10" d="M228.7,125.1l0,0.2c-0.1,0.2-0.3,0.3-0.5,0.4
				c-0.2,0.1-0.5,0.1-0.8,0.1c-0.4,0-0.8-0.1-1.2-0.3c-0.3-0.2-0.6-0.5-0.8-0.9c-0.2-0.4-0.3-0.9-0.3-1.4v0c0-0.6,0.1-1.1,0.3-1.5
				c0.2-0.4,0.5-0.7,0.9-1c0.4-0.2,0.9-0.3,1.4-0.3c0.5,0,1,0.1,1.4,0.3c0.4,0.2,0.7,0.6,0.9,1c0.2,0.4,0.3,0.9,0.3,1.5v0
				c0,0.3,0,0.7-0.1,1.1c-0.1,0.4-0.2,0.7-0.4,1.1c0,0.1-0.1,0.1-0.1,0.2c0,0.1-0.1,0.1-0.1,0.2l-2,4h-1.4L228.7,125.1z
				 M228.7,124.3c0.2-0.3,0.3-0.7,0.3-1.2v0c0-0.5-0.1-0.9-0.3-1.1c-0.2-0.3-0.5-0.4-0.9-0.4c-0.4,0-0.7,0.1-0.9,0.4
				c-0.2,0.3-0.3,0.6-0.3,1.1v0c0,0.5,0.1,0.9,0.3,1.2c0.2,0.3,0.5,0.4,0.9,0.4C228.2,124.7,228.5,124.6,228.7,124.3z"/>
		</g>
	</g>
	<g>
		<g>
			<path fill="#FFFFFF" stroke="#FFFFFF" stroke-width="2" stroke-miterlimit="10" d="M199.6,150.4v1.6c0,0.7-0.1,1.3-0.4,1.8
				c-0.3,0.5-0.6,0.9-1.1,1.2c-0.5,0.3-1.1,0.4-1.7,0.4c-0.7,0-1.2-0.1-1.7-0.4s-0.9-0.6-1.1-1.1c-0.3-0.5-0.4-1.1-0.4-1.7v-2.7
				c0-0.7,0.1-1.3,0.4-1.8s0.6-0.9,1.1-1.2c0.5-0.3,1.1-0.4,1.7-0.4c0.5,0,1,0.1,1.5,0.3c0.4,0.2,0.8,0.5,1.1,1
				c0.3,0.4,0.5,0.9,0.6,1.4h-1.4c-0.1-0.3-0.2-0.6-0.4-0.8c-0.2-0.2-0.4-0.4-0.6-0.5c-0.2-0.1-0.5-0.2-0.8-0.2
				c-0.4,0-0.7,0.1-1,0.3c-0.3,0.2-0.5,0.4-0.7,0.8c-0.2,0.3-0.2,0.7-0.2,1.1v2.7c0,0.4,0.1,0.7,0.2,1c0.2,0.3,0.4,0.5,0.7,0.7
				s0.6,0.2,1,0.2c0.4,0,0.7-0.1,1-0.3c0.3-0.2,0.5-0.4,0.7-0.7c0.2-0.3,0.2-0.7,0.2-1.2v-0.4h-1.9v-1.2H199.6z"/>
			<path fill="#FFFFFF" stroke="#FFFFFF" stroke-width="2" stroke-miterlimit="10" d="M201.5,148.7h1.3v6.6h-1.3V148.7z M204.7,150
				c-0.2-0.1-0.4-0.1-0.6-0.1c-0.4,0-0.7,0.1-1,0.3c-0.2,0.2-0.3,0.5-0.3,0.9l-0.1-1.3c0.2-0.4,0.5-0.7,0.8-0.9
				c0.3-0.2,0.7-0.3,1.1-0.3c0.3,0,0.6,0,0.8,0.1c0.2,0.1,0.5,0.2,0.6,0.4l-0.8,1.1C205,150.2,204.9,150,204.7,150z"/>
			<path fill="#FFFFFF" stroke="#FFFFFF" stroke-width="2" stroke-miterlimit="10" d="M208.1,155.1c-0.4-0.2-0.8-0.6-1-1
				c-0.2-0.4-0.3-1-0.3-1.6v-0.7c0-0.7,0.1-1.2,0.3-1.7c0.2-0.5,0.5-0.8,0.9-1.1c0.4-0.2,0.9-0.4,1.5-0.4c0.6,0,1,0.1,1.4,0.4
				c0.4,0.3,0.7,0.7,0.9,1.2c0.2,0.5,0.3,1.1,0.3,1.9v0.4h-4.4v-1h3.2c0-0.5-0.2-1-0.4-1.3c-0.2-0.3-0.6-0.4-1-0.4
				c-0.5,0-0.9,0.2-1.1,0.5c-0.3,0.3-0.4,0.8-0.4,1.4v0.8c0,0.5,0.1,1,0.4,1.3c0.3,0.3,0.7,0.4,1.2,0.4c0.3,0,0.5-0.1,0.8-0.2
				c0.3-0.1,0.5-0.3,0.7-0.4l0.9,0.9c-0.3,0.3-0.7,0.6-1.1,0.7c-0.4,0.2-0.8,0.3-1.2,0.3C209,155.4,208.5,155.3,208.1,155.1z"/>
			<path fill="#FFFFFF" stroke="#FFFFFF" stroke-width="2" stroke-miterlimit="10" d="M213.9,148.7h1.3v6.6h-1.3V148.7z
				 M217.9,151.3c0-0.5-0.1-0.8-0.4-1.1s-0.6-0.4-1-0.4c-0.4,0-0.8,0.1-1,0.3c-0.2,0.2-0.3,0.5-0.3,0.9l-0.1-1.3
				c0.2-0.4,0.5-0.7,0.8-0.9s0.7-0.3,1.1-0.3c0.7,0,1.3,0.2,1.7,0.7c0.4,0.5,0.6,1.1,0.6,2v4h-1.3V151.3z"/>
			<path fill="#FFFFFF" stroke="#FFFFFF" stroke-width="2" stroke-miterlimit="10" d="M222.2,155.1c-0.4-0.2-0.7-0.6-0.9-1
				s-0.3-0.9-0.3-1.6v-1.1c0-0.6,0.1-1.1,0.3-1.5c0.2-0.4,0.5-0.7,0.9-1c0.4-0.2,0.9-0.3,1.5-0.3s1.1,0.1,1.5,0.3
				c0.4,0.2,0.7,0.5,0.9,1c0.2,0.4,0.3,0.9,0.3,1.5v1.1c0,0.6-0.1,1.1-0.3,1.5c-0.2,0.4-0.5,0.8-0.9,1c-0.4,0.2-0.9,0.3-1.5,0.3
				S222.6,155.3,222.2,155.1z M224.8,153.8c0.2-0.3,0.4-0.7,0.4-1.2v-1.1c0-0.5-0.1-0.9-0.4-1.2c-0.2-0.3-0.6-0.4-1.1-0.4
				c-0.5,0-0.8,0.1-1.1,0.4c-0.2,0.3-0.4,0.7-0.4,1.2v1.1c0,0.5,0.1,0.9,0.4,1.2c0.2,0.3,0.6,0.4,1.1,0.4
				C224.2,154.2,224.5,154,224.8,153.8z"/>
			<path fill="#FFFFFF" stroke="#FFFFFF" stroke-width="2" stroke-miterlimit="10" d="M228.3,146.1h1.3v9.2h-1.3V146.1z
				 M230.1,155.1c-0.3-0.2-0.5-0.5-0.7-0.8l0.1-1.4c0,0.3,0.1,0.5,0.2,0.7c0.1,0.2,0.2,0.4,0.4,0.5c0.2,0.1,0.4,0.2,0.7,0.2
				c0.4,0,0.8-0.1,1-0.4c0.2-0.3,0.4-0.6,0.4-1.1v-1.4c0-0.5-0.1-0.9-0.4-1.1c-0.2-0.3-0.6-0.4-1-0.4c-0.3,0-0.5,0.1-0.7,0.2
				c-0.2,0.1-0.3,0.2-0.4,0.4c-0.1,0.2-0.2,0.4-0.2,0.7l-0.1-1.3c0.2-0.4,0.5-0.7,0.8-0.9c0.3-0.2,0.7-0.3,1.1-0.3
				c0.5,0,0.9,0.1,1.2,0.3c0.3,0.2,0.6,0.5,0.8,0.9c0.2,0.4,0.3,0.9,0.3,1.5v1.4c0,0.6-0.1,1-0.3,1.4c-0.2,0.4-0.4,0.7-0.8,0.9
				c-0.3,0.2-0.8,0.3-1.2,0.3C230.8,155.4,230.4,155.3,230.1,155.1z"/>
			<path fill="#FFFFFF" stroke="#FFFFFF" stroke-width="2" stroke-miterlimit="10" d="M236.6,153.6c0,0.2,0,0.3,0.1,0.4
				c0.1,0.1,0.2,0.1,0.3,0.1h0.6v1.2h-0.8c-0.5,0-0.9-0.2-1.1-0.5c-0.3-0.3-0.4-0.7-0.4-1.3v-7.5h1.3V153.6z"/>
			<path fill="#FFFFFF" stroke="#FFFFFF" stroke-width="2" stroke-miterlimit="10" d="M240.2,155.1c-0.4-0.2-0.8-0.6-1-1
				c-0.2-0.4-0.3-1-0.3-1.6v-0.7c0-0.7,0.1-1.2,0.3-1.7c0.2-0.5,0.5-0.8,0.9-1.1c0.4-0.2,0.9-0.4,1.5-0.4c0.5,0,1,0.1,1.4,0.4
				c0.4,0.3,0.7,0.7,0.9,1.2s0.3,1.1,0.3,1.9v0.4h-4.4v-1h3.2c0-0.5-0.2-1-0.4-1.3c-0.2-0.3-0.6-0.4-1-0.4c-0.5,0-0.9,0.2-1.1,0.5
				c-0.3,0.3-0.4,0.8-0.4,1.4v0.8c0,0.5,0.1,1,0.4,1.3c0.3,0.3,0.7,0.4,1.2,0.4c0.3,0,0.5-0.1,0.8-0.2c0.3-0.1,0.5-0.3,0.7-0.4
				l0.9,0.9c-0.3,0.3-0.7,0.6-1.1,0.7c-0.4,0.2-0.8,0.3-1.2,0.3C241.2,155.4,240.7,155.3,240.2,155.1z"/>
			<path fill="#FFFFFF" stroke="#FFFFFF" stroke-width="2" stroke-miterlimit="10" d="M217.4,163.4v1.2h-4.3v-1.2H217.4z"/>
			<path fill="#FFFFFF" stroke="#FFFFFF" stroke-width="2" stroke-miterlimit="10" d="M219.2,166.2l3.2-4.3c0.2-0.2,0.3-0.5,0.4-0.8
				c0.1-0.3,0.2-0.5,0.2-0.7v0c0-0.4-0.1-0.7-0.3-0.9s-0.5-0.3-0.9-0.3c-0.4,0-0.7,0.1-0.9,0.3c-0.2,0.2-0.4,0.5-0.4,0.9v0H219v0
				c0.1-0.5,0.2-1,0.5-1.4c0.2-0.4,0.5-0.7,0.9-0.9c0.4-0.2,0.8-0.3,1.3-0.3c0.6,0,1,0.1,1.4,0.3c0.4,0.2,0.7,0.5,0.9,0.8
				c0.2,0.4,0.3,0.8,0.3,1.3v0c0,0.3-0.1,0.7-0.2,1c-0.1,0.4-0.3,0.7-0.6,1l-2.7,3.6h3.5v1.2h-5.2V166.2z"/>
		</g>
	</g>
	<g>
		<g>
			<path fill="#FFFFFF" stroke="#FFFFFF" stroke-width="2" stroke-miterlimit="10" d="M107.9,194.6h6.5v1.2h-6.5V194.6z
				 M110.5,195.4h1.3v8.5h-1.3V195.4z"/>
			<path fill="#FFFFFF" stroke="#FFFFFF" stroke-width="2" stroke-miterlimit="10" d="M115.6,203.6c-0.4-0.2-0.7-0.6-0.9-1
				c-0.2-0.4-0.3-0.9-0.3-1.6V200c0-0.6,0.1-1.1,0.3-1.5c0.2-0.4,0.5-0.7,0.9-1c0.4-0.2,0.9-0.3,1.5-0.3s1.1,0.1,1.5,0.3
				c0.4,0.2,0.7,0.5,0.9,1c0.2,0.4,0.3,0.9,0.3,1.5v1.1c0,0.6-0.1,1.1-0.3,1.5c-0.2,0.4-0.5,0.8-0.9,1c-0.4,0.2-0.9,0.3-1.5,0.3
				S116.1,203.9,115.6,203.6z M118.2,202.3c0.2-0.3,0.4-0.7,0.4-1.2V200c0-0.5-0.1-0.9-0.4-1.2c-0.2-0.3-0.6-0.4-1.1-0.4
				s-0.8,0.1-1.1,0.4c-0.2,0.3-0.4,0.7-0.4,1.2v1.1c0,0.5,0.1,0.9,0.4,1.2c0.2,0.3,0.6,0.4,1.1,0.4S117.9,202.6,118.2,202.3z"/>
			<path fill="#FFFFFF" stroke="#FFFFFF" stroke-width="2" stroke-miterlimit="10" d="M122.8,201.3c0,0.5,0.1,0.8,0.4,1.1
				c0.2,0.3,0.6,0.4,1,0.4c0.4,0,0.8-0.1,1-0.3c0.2-0.2,0.3-0.5,0.3-1l0.1,1.4c-0.1,0.3-0.4,0.6-0.7,0.8c-0.3,0.2-0.7,0.3-1.1,0.3
				c-0.7,0-1.3-0.2-1.7-0.7c-0.4-0.5-0.6-1.1-0.6-2v-4h1.3V201.3z M125.5,197.3h1.3v6.6h-1.3V197.3z"/>
			<path fill="#FFFFFF" stroke="#FFFFFF" stroke-width="2" stroke-miterlimit="10" d="M130,202.2c0,0.2,0,0.3,0.1,0.4
				c0.1,0.1,0.2,0.1,0.3,0.1h0.6v1.2h-0.8c-0.5,0-0.9-0.2-1.1-0.5c-0.3-0.3-0.4-0.7-0.4-1.3v-7.5h1.3V202.2z"/>
			<path fill="#FFFFFF" stroke="#FFFFFF" stroke-width="2" stroke-miterlimit="10" d="M133.6,203.6c-0.4-0.2-0.7-0.6-0.9-1
				c-0.2-0.4-0.3-0.9-0.3-1.6V200c0-0.6,0.1-1.1,0.3-1.5c0.2-0.4,0.5-0.7,0.9-1c0.4-0.2,0.9-0.3,1.5-0.3s1.1,0.1,1.5,0.3
				c0.4,0.2,0.7,0.5,0.9,1c0.2,0.4,0.3,0.9,0.3,1.5v1.1c0,0.6-0.1,1.1-0.3,1.5c-0.2,0.4-0.5,0.8-0.9,1c-0.4,0.2-0.9,0.3-1.5,0.3
				S134,203.9,133.6,203.6z M136.1,202.3c0.2-0.3,0.4-0.7,0.4-1.2V200c0-0.5-0.1-0.9-0.4-1.2c-0.2-0.3-0.6-0.4-1.1-0.4
				s-0.8,0.1-1.1,0.4c-0.2,0.3-0.4,0.7-0.4,1.2v1.1c0,0.5,0.1,0.9,0.4,1.2c0.2,0.3,0.6,0.4,1.1,0.4S135.8,202.6,136.1,202.3z"/>
			<path fill="#FFFFFF" stroke="#FFFFFF" stroke-width="2" stroke-miterlimit="10" d="M140.7,201.3c0,0.5,0.1,0.8,0.4,1.1
				c0.2,0.3,0.6,0.4,1,0.4c0.4,0,0.8-0.1,1-0.3c0.2-0.2,0.3-0.5,0.3-1l0.1,1.4c-0.1,0.3-0.4,0.6-0.7,0.8c-0.3,0.2-0.7,0.3-1.1,0.3
				c-0.7,0-1.3-0.2-1.7-0.7c-0.4-0.5-0.6-1.1-0.6-2v-4h1.3V201.3z M143.4,197.3h1.3v6.6h-1.3V197.3z"/>
			<path fill="#FFFFFF" stroke="#FFFFFF" stroke-width="2" stroke-miterlimit="10" d="M147.9,203.9c-0.3-0.1-0.7-0.2-1-0.3
				s-0.6-0.3-0.8-0.6l0.8-0.9c0.4,0.3,0.7,0.5,1.1,0.6c0.4,0.1,0.7,0.2,1,0.2c0.5,0,0.9-0.1,1.2-0.2c0.3-0.2,0.4-0.4,0.4-0.7
				c0-0.2-0.1-0.4-0.2-0.5c-0.1-0.1-0.3-0.2-0.5-0.2c-0.2,0-0.5-0.1-0.9-0.1c0,0-0.1,0-0.1,0s-0.1,0-0.1,0c0,0,0,0-0.1,0
				c0,0,0,0-0.1,0c-0.4,0-0.8-0.1-1.1-0.2s-0.5-0.3-0.7-0.5c-0.2-0.2-0.3-0.6-0.3-1.1c0-0.5,0.1-0.9,0.3-1.2
				c0.2-0.3,0.5-0.5,0.9-0.7s0.8-0.2,1.4-0.2c0.3,0,0.7,0,1,0.1c0.3,0.1,0.6,0.2,0.9,0.3c0.3,0.1,0.6,0.3,0.8,0.5l-0.8,0.9
				c-0.3-0.2-0.7-0.4-1-0.5c-0.3-0.1-0.6-0.2-0.9-0.2c-0.4,0-0.8,0.1-1,0.2c-0.2,0.2-0.3,0.4-0.3,0.7c0,0.2,0.1,0.3,0.2,0.4
				c0.1,0.1,0.3,0.1,0.5,0.2c0.2,0,0.5,0.1,0.8,0.1c0,0,0.1,0,0.1,0c0,0,0.1,0,0.1,0c0,0,0,0,0,0s0,0,0,0c0.5,0,0.9,0.1,1.2,0.2
				c0.3,0.1,0.6,0.3,0.8,0.6c0.2,0.3,0.3,0.7,0.3,1.2c0,0.5-0.1,0.9-0.3,1.2c-0.2,0.3-0.5,0.5-0.9,0.7c-0.4,0.2-0.9,0.2-1.5,0.2
				C148.6,204,148.2,203.9,147.9,203.9z"/>
			<path fill="#FFFFFF" stroke="#FFFFFF" stroke-width="2" stroke-miterlimit="10" d="M154.5,203.6c-0.4-0.2-0.8-0.6-1-1
				c-0.2-0.4-0.3-1-0.3-1.6v-0.7c0-0.7,0.1-1.2,0.3-1.7c0.2-0.5,0.5-0.8,0.9-1.1c0.4-0.2,0.9-0.4,1.5-0.4c0.5,0,1,0.1,1.4,0.4
				c0.4,0.3,0.7,0.7,0.9,1.2s0.3,1.1,0.3,1.9v0.4h-4.4v-1h3.2c0-0.5-0.2-1-0.4-1.3c-0.2-0.3-0.6-0.4-1-0.4c-0.5,0-0.9,0.2-1.1,0.5
				c-0.3,0.3-0.4,0.8-0.4,1.4v0.8c0,0.5,0.1,1,0.4,1.3c0.3,0.3,0.7,0.4,1.2,0.4c0.3,0,0.5-0.1,0.8-0.2c0.3-0.1,0.5-0.3,0.7-0.4
				l0.9,0.9c-0.3,0.3-0.7,0.6-1.1,0.7c-0.4,0.2-0.8,0.3-1.2,0.3C155.5,204,155,203.9,154.5,203.6z"/>
			<path fill="#FFFFFF" stroke="#FFFFFF" stroke-width="2" stroke-miterlimit="10" d="M133.8,211.9v1.2h-4.3v-1.2H133.8z"/>
			<path fill="#FFFFFF" stroke="#FFFFFF" stroke-width="2" stroke-miterlimit="10" d="M137.7,215.9h-1.3v-7.8l-1.3,0.8v-1.3l1.3-0.9
				h1.3V215.9z"/>
		</g>
	</g>
	<g>
		<g>
			<path fill="#FFFFFF" stroke="#FFFFFF" stroke-width="2" stroke-miterlimit="10" d="M195.2,202.6h1.2v9.2h-1.3V205l0.1,0.4
				l-2.3,5.2h-0.9l-2.3-5.1l0.1-0.5v6.9h-1.3v-9.2h1.2l2.7,6.1L195.2,202.6z"/>
			<path fill="#FFFFFF" stroke="#FFFFFF" stroke-width="2" stroke-miterlimit="10" d="M198.9,211.5c-0.4-0.3-0.6-0.8-0.6-1.5
				c0-0.7,0.2-1.1,0.6-1.5c0.4-0.3,0.9-0.5,1.7-0.5h1.9l0.1,1h-2c-0.3,0-0.6,0.1-0.8,0.2s-0.3,0.4-0.3,0.7c0,0.3,0.1,0.6,0.3,0.7
				c0.2,0.2,0.6,0.2,1,0.2c0.5,0,0.9-0.1,1.1-0.2c0.2-0.1,0.4-0.3,0.4-0.5l0.1,0.9c-0.1,0.2-0.3,0.3-0.4,0.4
				c-0.2,0.1-0.4,0.2-0.6,0.3c-0.2,0.1-0.5,0.1-0.7,0.1C199.9,212,199.3,211.8,198.9,211.5z M202.3,207.7c0-0.4-0.1-0.8-0.3-1
				s-0.6-0.4-1-0.4c-0.3,0-0.5,0-0.8,0.1c-0.3,0.1-0.5,0.2-0.7,0.3l-0.9-0.6c0.2-0.3,0.6-0.5,1-0.7c0.4-0.2,0.9-0.2,1.4-0.2
				c0.5,0,1,0.1,1.4,0.3c0.4,0.2,0.7,0.5,0.9,0.8c0.2,0.4,0.3,0.8,0.3,1.3v4.2h-1.2V207.7z"/>
			<path fill="#FFFFFF" stroke="#FFFFFF" stroke-width="2" stroke-miterlimit="10" d="M205.5,205.3h1.3v6.6h-1.3V205.3z
				 M208.7,206.5c-0.2-0.1-0.4-0.1-0.6-0.1c-0.4,0-0.7,0.1-1,0.3c-0.2,0.2-0.3,0.5-0.3,0.9l-0.1-1.3c0.2-0.4,0.5-0.7,0.8-0.9
				c0.3-0.2,0.7-0.3,1.1-0.3c0.3,0,0.6,0,0.8,0.1s0.5,0.2,0.6,0.4l-0.8,1.1C209,206.7,208.9,206.6,208.7,206.5z"/>
			<path fill="#FFFFFF" stroke="#FFFFFF" stroke-width="2" stroke-miterlimit="10" d="M212.3,211.9c-0.3-0.1-0.7-0.2-1-0.3
				c-0.3-0.2-0.6-0.3-0.8-0.6l0.8-0.9c0.4,0.3,0.7,0.5,1.1,0.6c0.4,0.1,0.7,0.2,1,0.2c0.5,0,0.9-0.1,1.2-0.2
				c0.3-0.2,0.4-0.4,0.4-0.7c0-0.2-0.1-0.4-0.2-0.5c-0.1-0.1-0.3-0.2-0.5-0.2c-0.2,0-0.5-0.1-0.9-0.1c0,0-0.1,0-0.1,0s-0.1,0-0.1,0
				c0,0,0,0-0.1,0c0,0,0,0-0.1,0c-0.4,0-0.8-0.1-1.1-0.2c-0.3-0.1-0.5-0.3-0.7-0.5c-0.2-0.2-0.3-0.6-0.3-1.1c0-0.5,0.1-0.9,0.3-1.2
				c0.2-0.3,0.5-0.5,0.9-0.7c0.4-0.2,0.8-0.2,1.4-0.2c0.3,0,0.7,0,1,0.1c0.3,0.1,0.6,0.2,0.9,0.3c0.3,0.1,0.6,0.3,0.8,0.5l-0.8,0.9
				c-0.3-0.2-0.7-0.4-1-0.5c-0.3-0.1-0.6-0.2-0.9-0.2c-0.4,0-0.8,0.1-1,0.2c-0.2,0.2-0.3,0.4-0.3,0.7c0,0.2,0.1,0.3,0.2,0.4
				s0.3,0.1,0.5,0.2c0.2,0,0.5,0.1,0.8,0.1c0,0,0.1,0,0.1,0c0,0,0.1,0,0.1,0c0,0,0,0,0,0s0,0,0,0c0.5,0,0.9,0.1,1.2,0.2
				c0.3,0.1,0.6,0.3,0.8,0.6c0.2,0.3,0.3,0.7,0.3,1.2c0,0.5-0.1,0.9-0.3,1.2c-0.2,0.3-0.5,0.5-0.9,0.7c-0.4,0.2-0.9,0.2-1.5,0.2
				C213,212,212.6,211.9,212.3,211.9z"/>
			<path fill="#FFFFFF" stroke="#FFFFFF" stroke-width="2" stroke-miterlimit="10" d="M219,211.6c-0.4-0.2-0.8-0.6-1-1
				c-0.2-0.4-0.3-1-0.3-1.6v-0.7c0-0.7,0.1-1.2,0.3-1.7c0.2-0.5,0.5-0.8,0.9-1.1c0.4-0.2,0.9-0.4,1.5-0.4c0.5,0,1,0.1,1.4,0.4
				c0.4,0.3,0.7,0.7,0.9,1.2s0.3,1.1,0.3,1.9v0.4h-4.4v-1h3.2c0-0.5-0.2-1-0.4-1.3c-0.2-0.3-0.6-0.4-1-0.4c-0.5,0-0.9,0.2-1.1,0.5
				c-0.3,0.3-0.4,0.8-0.4,1.4v0.8c0,0.5,0.1,1,0.4,1.3c0.3,0.3,0.7,0.4,1.2,0.4c0.3,0,0.5-0.1,0.8-0.2c0.3-0.1,0.5-0.3,0.7-0.4
				l0.9,0.9c-0.3,0.3-0.7,0.6-1.1,0.7c-0.4,0.2-0.8,0.3-1.2,0.3C219.9,212,219.4,211.9,219,211.6z"/>
			<path fill="#FFFFFF" stroke="#FFFFFF" stroke-width="2" stroke-miterlimit="10" d="M224.8,202.6h1.3v1.3h-1.3V202.6z
				 M224.8,205.3h1.3v6.6h-1.3V205.3z"/>
			<path fill="#FFFFFF" stroke="#FFFFFF" stroke-width="2" stroke-miterlimit="10" d="M229.3,210.2c0,0.2,0,0.3,0.1,0.4
				c0.1,0.1,0.2,0.1,0.3,0.1h0.6v1.2h-0.8c-0.5,0-0.9-0.2-1.1-0.5s-0.4-0.7-0.4-1.3v-7.5h1.3V210.2z"/>
			<path fill="#FFFFFF" stroke="#FFFFFF" stroke-width="2" stroke-miterlimit="10" d="M233.1,210.2c0,0.2,0,0.3,0.1,0.4
				c0.1,0.1,0.2,0.1,0.3,0.1h0.6v1.2h-0.8c-0.5,0-0.9-0.2-1.1-0.5c-0.3-0.3-0.4-0.7-0.4-1.3v-7.5h1.3V210.2z"/>
			<path fill="#FFFFFF" stroke="#FFFFFF" stroke-width="2" stroke-miterlimit="10" d="M236.7,211.6c-0.4-0.2-0.8-0.6-1-1
				c-0.2-0.4-0.3-1-0.3-1.6v-0.7c0-0.7,0.1-1.2,0.3-1.7c0.2-0.5,0.5-0.8,0.9-1.1c0.4-0.2,0.9-0.4,1.5-0.4c0.5,0,1,0.1,1.4,0.4
				c0.4,0.3,0.7,0.7,0.9,1.2s0.3,1.1,0.3,1.9v0.4h-4.4v-1h3.2c0-0.5-0.2-1-0.4-1.3c-0.2-0.3-0.6-0.4-1-0.4c-0.5,0-0.9,0.2-1.1,0.5
				c-0.3,0.3-0.4,0.8-0.4,1.4v0.8c0,0.5,0.1,1,0.4,1.3c0.3,0.3,0.7,0.4,1.2,0.4c0.3,0,0.5-0.1,0.8-0.2c0.3-0.1,0.5-0.3,0.7-0.4
				l0.9,0.9c-0.3,0.3-0.7,0.6-1.1,0.7c-0.4,0.2-0.8,0.3-1.2,0.3C237.7,212,237.1,211.9,236.7,211.6z"/>
			<path fill="#FFFFFF" stroke="#FFFFFF" stroke-width="2" stroke-miterlimit="10" d="M212.5,223.3c-0.4-0.5-0.7-1.1-0.7-1.9v-4.2
				c0-0.8,0.2-1.5,0.7-1.9c0.4-0.5,1.1-0.7,2-0.7c0.9,0,1.5,0.2,2,0.7c0.4,0.5,0.7,1.1,0.7,1.9v4.2c0,0.8-0.2,1.5-0.7,1.9
				c-0.4,0.5-1.1,0.7-2,0.7C213.6,224,213,223.7,212.5,223.3z M215.5,222.4c0.2-0.2,0.3-0.6,0.3-1v-4.2c0-0.4-0.1-0.8-0.3-1
				c-0.2-0.2-0.6-0.4-1-0.4c-0.5,0-0.8,0.1-1,0.4c-0.2,0.2-0.3,0.6-0.3,1v4.2c0,0.4,0.1,0.8,0.3,1c0.2,0.2,0.6,0.4,1,0.4
				S215.3,222.6,215.5,222.4z"/>
		</g>
	</g>
	<g>
		<g>
			<path fill="#FFFFFF" stroke="#FFFFFF" stroke-width="2" stroke-miterlimit="10" d="M242,220.8h1.2l4.5,7.1l-0.2,0.2v-7.3h1.3v9.2
				h-1.2l-4.5-7l0.2-0.2v7.2H242V220.8z"/>
			<path fill="#FFFFFF" stroke="#FFFFFF" stroke-width="2" stroke-miterlimit="10" d="M251,220.8h1.3v1.3H251V220.8z M251,223.4h1.3
				v6.6H251V223.4z"/>
			<path fill="#FFFFFF" stroke="#FFFFFF" stroke-width="2" stroke-miterlimit="10" d="M255.3,229.7c-0.4-0.2-0.8-0.6-1-1
				c-0.2-0.4-0.3-0.9-0.3-1.5v-1.1c0-0.6,0.1-1.1,0.3-1.5c0.2-0.4,0.5-0.7,1-1c0.4-0.2,0.9-0.3,1.5-0.3c0.3,0,0.7,0,1,0.1
				c0.3,0.1,0.6,0.2,0.8,0.4c0.2,0.2,0.4,0.3,0.6,0.6l-0.9,0.8c-0.2-0.2-0.4-0.4-0.7-0.5c-0.2-0.1-0.5-0.2-0.8-0.2
				c-0.5,0-0.9,0.1-1.2,0.4c-0.3,0.3-0.4,0.7-0.4,1.2v1.1c0,0.5,0.1,0.9,0.4,1.2c0.3,0.3,0.7,0.4,1.2,0.4c0.3,0,0.5-0.1,0.8-0.2
				c0.2-0.1,0.5-0.3,0.6-0.5l0.9,0.9c-0.2,0.2-0.4,0.4-0.6,0.6s-0.5,0.3-0.8,0.4c-0.3,0.1-0.6,0.1-1,0.1
				C256.3,230.1,255.8,230,255.3,229.7z"/>
			<path fill="#FFFFFF" stroke="#FFFFFF" stroke-width="2" stroke-miterlimit="10" d="M261.8,229.7c-0.4-0.2-0.8-0.6-1-1
				s-0.3-1-0.3-1.6v-0.7c0-0.7,0.1-1.2,0.3-1.7c0.2-0.5,0.5-0.8,0.9-1.1c0.4-0.2,0.9-0.4,1.5-0.4c0.5,0,1,0.1,1.4,0.4
				c0.4,0.3,0.7,0.7,0.9,1.2s0.3,1.1,0.3,1.9v0.4h-4.4v-1h3.2c0-0.5-0.2-1-0.4-1.3c-0.2-0.3-0.6-0.4-1-0.4c-0.5,0-0.9,0.2-1.1,0.5
				c-0.3,0.3-0.4,0.8-0.4,1.4v0.8c0,0.5,0.1,1,0.4,1.3c0.3,0.3,0.7,0.4,1.2,0.4c0.3,0,0.5-0.1,0.8-0.2c0.3-0.1,0.5-0.3,0.7-0.4
				l0.9,0.9c-0.3,0.3-0.7,0.6-1.1,0.7c-0.4,0.2-0.8,0.3-1.2,0.3C262.8,230.1,262.3,230,261.8,229.7z"/>
			<path fill="#FFFFFF" stroke="#FFFFFF" stroke-width="2" stroke-miterlimit="10" d="M250.9,239.4l3.1-6.7h1.3l-3,6.6h4.5v1.2h-5.9
				V239.4z M254.9,236.6h1.3v5.4h-1.3V236.6z"/>
		</g>
	</g>
	<g>
		<g>
			<path d="M10.7,54.3H12v9.2h-1.3V54.3z M11.4,62.4h2.5c0.7,0,1.1-0.1,1.4-0.4s0.5-0.6,0.5-1.1v0c0-0.3-0.1-0.6-0.2-0.8
				c-0.1-0.2-0.3-0.4-0.5-0.5c-0.2-0.1-0.5-0.2-0.9-0.2h-2.8v-1.2h2.8c0.5,0,0.8-0.1,1.1-0.3c0.2-0.2,0.4-0.6,0.4-1
				c0-0.5-0.1-0.8-0.4-1s-0.7-0.3-1.2-0.3h-2.6v-1.2h2.9c0.6,0,1.1,0.1,1.5,0.3c0.4,0.2,0.7,0.5,0.9,0.9s0.3,0.8,0.3,1.3
				c0,0.3-0.1,0.6-0.2,0.9c-0.1,0.3-0.3,0.5-0.6,0.7c-0.3,0.2-0.6,0.3-0.9,0.4c0.4,0.1,0.7,0.2,1,0.4c0.3,0.2,0.5,0.5,0.6,0.8
				s0.2,0.7,0.2,1v0c0,0.5-0.1,0.9-0.3,1.3s-0.5,0.7-0.9,0.9c-0.4,0.2-0.9,0.3-1.4,0.3h-3V62.4z"/>
			<path d="M18.9,57h1.3v6.6h-1.3V57z M22.1,58.2c-0.2-0.1-0.4-0.1-0.6-0.1c-0.4,0-0.7,0.1-1,0.3c-0.2,0.2-0.3,0.5-0.3,0.9l-0.1-1.3
				c0.2-0.4,0.5-0.7,0.8-0.9c0.3-0.2,0.7-0.3,1.1-0.3c0.3,0,0.6,0,0.8,0.1c0.2,0.1,0.5,0.2,0.6,0.4l-0.8,1.1
				C22.5,58.4,22.3,58.3,22.1,58.2z"/>
			<path d="M25.5,63.3c-0.4-0.2-0.8-0.6-1-1c-0.2-0.4-0.3-1-0.3-1.6V60c0-0.7,0.1-1.2,0.3-1.7c0.2-0.5,0.5-0.8,0.9-1.1
				s0.9-0.4,1.5-0.4c0.6,0,1,0.1,1.4,0.4s0.7,0.7,0.9,1.2c0.2,0.5,0.3,1.1,0.3,1.9v0.4h-4.4v-1h3.2c0-0.5-0.2-1-0.4-1.3
				c-0.2-0.3-0.6-0.4-1-0.4c-0.5,0-0.9,0.2-1.1,0.5c-0.3,0.3-0.4,0.8-0.4,1.4v0.8c0,0.5,0.1,1,0.4,1.3s0.7,0.4,1.2,0.4
				c0.3,0,0.5-0.1,0.8-0.2s0.5-0.3,0.7-0.4l0.9,0.9c-0.3,0.3-0.7,0.6-1.1,0.7c-0.4,0.2-0.8,0.3-1.2,0.3
				C26.5,63.6,25.9,63.5,25.5,63.3z"/>
			<path d="M32.6,63.5c-0.3-0.1-0.7-0.2-1-0.3s-0.6-0.3-0.8-0.6l0.8-0.9c0.4,0.3,0.7,0.5,1.1,0.6s0.7,0.2,1,0.2
				c0.5,0,0.9-0.1,1.2-0.2c0.3-0.2,0.4-0.4,0.4-0.7c0-0.2-0.1-0.4-0.2-0.5s-0.3-0.2-0.5-0.2c-0.2,0-0.5-0.1-0.9-0.1c0,0-0.1,0-0.1,0
				c0,0-0.1,0-0.1,0c0,0,0,0-0.1,0c0,0,0,0-0.1,0c-0.4,0-0.8-0.1-1.1-0.2c-0.3-0.1-0.5-0.3-0.7-0.5c-0.2-0.2-0.3-0.6-0.3-1.1
				s0.1-0.9,0.3-1.2s0.5-0.5,0.9-0.7c0.4-0.2,0.8-0.2,1.4-0.2c0.3,0,0.7,0,1,0.1c0.3,0.1,0.6,0.2,0.9,0.3c0.3,0.1,0.6,0.3,0.8,0.5
				l-0.8,0.9c-0.3-0.2-0.7-0.4-1-0.5C34.3,58.1,34,58,33.7,58c-0.4,0-0.8,0.1-1,0.2c-0.2,0.1-0.3,0.4-0.3,0.7c0,0.2,0.1,0.3,0.2,0.4
				c0.1,0.1,0.3,0.1,0.5,0.2s0.5,0.1,0.8,0.1c0,0,0.1,0,0.1,0c0,0,0.1,0,0.1,0c0,0,0,0,0,0s0,0,0,0c0.5,0,0.9,0.1,1.2,0.2
				c0.3,0.1,0.6,0.3,0.8,0.6s0.3,0.7,0.3,1.2c0,0.5-0.1,0.9-0.3,1.2c-0.2,0.3-0.5,0.5-0.9,0.7c-0.4,0.2-0.9,0.2-1.5,0.2
				C33.3,63.6,32.9,63.6,32.6,63.5z"/>
			<path d="M37.6,57h3v1.2h-3V57z M38.6,63.1c-0.2-0.3-0.4-0.7-0.4-1.3V55h1.3v6.8c0,0.2,0,0.3,0.1,0.4c0.1,0.1,0.2,0.1,0.3,0.1h0.6
				v1.2h-0.7C39.3,63.6,38.9,63.4,38.6,63.1z"/>
			<path d="M22.9,74.4l3.2-4.3c0.2-0.2,0.3-0.5,0.4-0.8c0.1-0.3,0.2-0.5,0.2-0.7v0c0-0.4-0.1-0.7-0.3-0.9s-0.5-0.3-0.9-0.3
				c-0.4,0-0.7,0.1-0.9,0.3c-0.2,0.2-0.4,0.5-0.4,0.9v0h-1.3v0c0.1-0.5,0.2-1,0.5-1.4c0.2-0.4,0.5-0.7,0.9-0.9
				c0.4-0.2,0.8-0.3,1.3-0.3c0.6,0,1,0.1,1.4,0.3c0.4,0.2,0.7,0.5,0.9,0.8s0.3,0.8,0.3,1.3v0c0,0.3-0.1,0.7-0.2,1s-0.3,0.7-0.6,1
				l-2.7,3.6h3.5v1.2h-5.2V74.4z"/>
		</g>
	</g>
	<g>
		<g>
			<path d="M175.1,10.1h1.3v9.2h-1.3V10.1z M175.7,18.1h5.3v1.2h-5.3V18.1z"/>
			<path d="M182.4,10.1h1.3v1.3h-1.3V10.1z M182.4,12.8h1.3v6.6h-1.3V12.8z"/>
			<path d="M186.9,17.7c0,0.2,0,0.3,0.1,0.4c0.1,0.1,0.2,0.1,0.3,0.1h0.6v1.2h-0.8c-0.5,0-0.9-0.2-1.1-0.5c-0.3-0.3-0.4-0.7-0.4-1.3
				v-7.5h1.3V17.7z"/>
			<path d="M190.7,17.7c0,0.2,0,0.3,0.1,0.4c0.1,0.1,0.2,0.1,0.3,0.1h0.6v1.2H191c-0.5,0-0.9-0.2-1.1-0.5s-0.4-0.7-0.4-1.3v-7.5h1.3
				V17.7z"/>
			<path d="M194.3,19.1c-0.4-0.2-0.8-0.6-1-1c-0.2-0.4-0.3-1-0.3-1.6v-0.7c0-0.7,0.1-1.2,0.3-1.7c0.2-0.5,0.5-0.8,0.9-1.1
				c0.4-0.2,0.9-0.4,1.5-0.4c0.6,0,1,0.1,1.4,0.4c0.4,0.3,0.7,0.7,0.9,1.2c0.2,0.5,0.3,1.1,0.3,1.9v0.4h-4.4v-1h3.2
				c0-0.5-0.2-1-0.4-1.3c-0.2-0.3-0.6-0.4-1-0.4c-0.5,0-0.9,0.2-1.1,0.5c-0.3,0.3-0.4,0.8-0.4,1.4v0.8c0,0.5,0.1,1,0.4,1.3
				c0.3,0.3,0.7,0.4,1.2,0.4c0.3,0,0.5-0.1,0.8-0.2c0.3-0.1,0.5-0.3,0.7-0.4l0.9,0.9c-0.3,0.3-0.7,0.6-1.1,0.7
				c-0.4,0.2-0.8,0.3-1.2,0.3C195.3,19.5,194.7,19.4,194.3,19.1z"/>
			<path d="M185.6,27.4v1.2h-4.3v-1.2H185.6z"/>
			<path d="M191.9,23.3l-2.4,8.1h-1.4l2.4-8h-2.3v1.3h-1.3v-2.6h5V23.3z"/>
		</g>
	</g>
	<g>
		<g>
			<path d="M139.2,45.5h1.3v9.2h-1.3V45.5z M139.9,49.9h3c0.3,0,0.5-0.1,0.7-0.2s0.4-0.3,0.5-0.6c0.1-0.2,0.2-0.5,0.2-0.8
				c0-0.3-0.1-0.6-0.2-0.8c-0.1-0.2-0.3-0.4-0.5-0.6c-0.2-0.1-0.5-0.2-0.7-0.2h-3v-1.2h2.9c0.6,0,1,0.1,1.5,0.4c0.4,0.2,0.7,0.6,1,1
				c0.2,0.4,0.3,0.9,0.3,1.5s-0.1,1.1-0.3,1.5c-0.2,0.4-0.6,0.8-1,1s-0.9,0.3-1.5,0.3h-2.9V49.9z"/>
			<path d="M147.2,54.3c-0.4-0.3-0.6-0.8-0.6-1.5c0-0.7,0.2-1.1,0.6-1.5s0.9-0.5,1.7-0.5h1.9l0.1,1h-2c-0.3,0-0.6,0.1-0.8,0.2
				c-0.2,0.1-0.3,0.4-0.3,0.7c0,0.3,0.1,0.6,0.3,0.7c0.2,0.2,0.6,0.2,1,0.2c0.5,0,0.9-0.1,1.1-0.2s0.4-0.3,0.4-0.5l0.1,0.9
				c-0.1,0.2-0.3,0.3-0.4,0.4s-0.4,0.2-0.6,0.3c-0.2,0.1-0.5,0.1-0.7,0.1C148.2,54.8,147.6,54.6,147.2,54.3z M150.6,50.5
				c0-0.4-0.1-0.8-0.3-1c-0.2-0.2-0.6-0.4-1-0.4c-0.3,0-0.5,0-0.8,0.1c-0.3,0.1-0.5,0.2-0.7,0.3l-0.9-0.6c0.2-0.3,0.6-0.5,1-0.7
				c0.4-0.2,0.9-0.3,1.4-0.3c0.5,0,1,0.1,1.4,0.3c0.4,0.2,0.7,0.5,0.9,0.8c0.2,0.4,0.3,0.8,0.3,1.3v4.2h-1.2V50.5z"/>
			<path d="M153.8,48.1h1.3v6.6h-1.3V48.1z M157,49.3c-0.2-0.1-0.4-0.1-0.6-0.1c-0.4,0-0.7,0.1-1,0.3c-0.2,0.2-0.3,0.5-0.3,0.9
				l-0.1-1.3c0.2-0.4,0.5-0.7,0.8-0.9c0.3-0.2,0.7-0.3,1.1-0.3c0.3,0,0.6,0,0.8,0.1c0.2,0.1,0.5,0.2,0.6,0.4l-0.8,1.1
				C157.3,49.5,157.2,49.4,157,49.3z"/>
			<path d="M159.3,45.5h1.3v1.3h-1.3V45.5z M159.3,48.1h1.3v6.6h-1.3V48.1z"/>
			<path d="M163.8,54.7c-0.3-0.1-0.7-0.2-1-0.3c-0.3-0.2-0.6-0.3-0.8-0.6l0.8-0.9c0.4,0.3,0.7,0.5,1.1,0.6c0.4,0.1,0.7,0.2,1,0.2
				c0.5,0,0.9-0.1,1.2-0.2c0.3-0.2,0.4-0.4,0.4-0.7c0-0.2-0.1-0.4-0.2-0.5s-0.3-0.2-0.5-0.2c-0.2,0-0.5-0.1-0.9-0.1c0,0-0.1,0-0.1,0
				c0,0-0.1,0-0.1,0c0,0,0,0-0.1,0c0,0,0,0-0.1,0c-0.4,0-0.8-0.1-1.1-0.2c-0.3-0.1-0.5-0.3-0.7-0.5c-0.2-0.2-0.3-0.6-0.3-1.1
				s0.1-0.9,0.3-1.2s0.5-0.5,0.9-0.7c0.4-0.2,0.8-0.2,1.4-0.2c0.3,0,0.7,0,1,0.1c0.3,0.1,0.6,0.2,0.9,0.3c0.3,0.1,0.6,0.3,0.8,0.5
				l-0.8,0.9c-0.3-0.2-0.7-0.4-1-0.5c-0.3-0.1-0.6-0.2-0.9-0.2c-0.4,0-0.8,0.1-1,0.2c-0.2,0.1-0.3,0.4-0.3,0.7
				c0,0.2,0.1,0.3,0.2,0.4c0.1,0.1,0.3,0.1,0.5,0.2s0.5,0.1,0.8,0.1c0,0,0.1,0,0.1,0s0.1,0,0.1,0c0,0,0,0,0,0s0,0,0,0
				c0.5,0,0.9,0.1,1.2,0.2c0.3,0.1,0.6,0.3,0.8,0.6c0.2,0.3,0.3,0.7,0.3,1.2c0,0.5-0.1,0.9-0.3,1.2c-0.2,0.3-0.5,0.5-0.9,0.7
				c-0.4,0.2-0.9,0.2-1.5,0.2C164.5,54.8,164.2,54.7,163.8,54.7z"/>
			<path d="M151.7,62.8V64h-4.3v-1.2H151.7z"/>
			<path d="M153.5,64.2l3.1-6.7h1.3l-3,6.6h4.5v1.2h-5.9V64.2z M157.4,61.3h1.3v5.4h-1.3V61.3z"/>
		</g>
	</g>
	<g>
		<g>
			<path d="M169.5,68.9h1.3v9.2h-1.3V68.9z M170.1,73h3.1c0.2,0,0.5-0.1,0.7-0.2s0.3-0.3,0.4-0.5c0.1-0.2,0.2-0.5,0.2-0.8
				s-0.1-0.5-0.2-0.8c-0.1-0.2-0.2-0.4-0.4-0.5s-0.4-0.2-0.7-0.2h-3.1v-1.2h3.1c0.5,0,1,0.1,1.4,0.3s0.7,0.5,0.9,0.9
				c0.2,0.4,0.3,0.9,0.3,1.4s-0.1,1-0.3,1.4c-0.2,0.4-0.5,0.7-0.9,0.9c-0.4,0.2-0.9,0.3-1.4,0.3h-3.1V73z M172.6,74l1.3-0.3l2.4,4.5
				h-1.5L172.6,74z"/>
			<path d="M178.7,77.9c-0.4-0.2-0.8-0.6-1-1c-0.2-0.4-0.3-1-0.3-1.6v-0.7c0-0.7,0.1-1.2,0.3-1.7s0.5-0.8,0.9-1.1
				c0.4-0.2,0.9-0.4,1.5-0.4c0.5,0,1,0.1,1.4,0.4c0.4,0.3,0.7,0.7,0.9,1.2s0.3,1.1,0.3,1.9v0.4h-4.4v-1h3.2c0-0.5-0.2-1-0.4-1.3
				c-0.2-0.3-0.6-0.4-1-0.4c-0.5,0-0.9,0.2-1.1,0.5s-0.4,0.8-0.4,1.4v0.8c0,0.5,0.1,1,0.4,1.3c0.3,0.3,0.7,0.4,1.2,0.4
				c0.3,0,0.5-0.1,0.8-0.2c0.3-0.1,0.5-0.3,0.7-0.4l0.9,0.9c-0.3,0.3-0.7,0.6-1.1,0.7c-0.4,0.2-0.8,0.3-1.2,0.3
				C179.7,78.3,179.2,78.2,178.7,77.9z"/>
			<path d="M184.6,68.9h1.3v1.3h-1.3V68.9z M184.6,71.6h1.3v6.6h-1.3V71.6z"/>
			<path d="M187.8,71.6h1.3v6.6h-1.3V71.6z M191.8,74.2c0-0.5-0.1-0.8-0.3-1.1s-0.6-0.4-1-0.4c-0.4,0-0.8,0.1-1,0.3
				c-0.2,0.2-0.3,0.5-0.3,0.9l-0.1-1.3c0.2-0.4,0.5-0.7,0.8-0.9c0.3-0.2,0.7-0.3,1.1-0.3c0.5,0,0.9,0.1,1.2,0.3
				c0.3,0.2,0.6,0.5,0.7,0.9c0.2,0.4,0.3,0.9,0.3,1.5v4h-1.3V74.2z M195.7,74.2c0-0.5-0.1-0.8-0.4-1.1s-0.6-0.4-1-0.4
				c-0.4,0-0.7,0.1-0.9,0.4c-0.2,0.2-0.3,0.6-0.3,1l-0.3-1.3c0.2-0.4,0.5-0.8,0.8-1c0.3-0.2,0.7-0.4,1.1-0.4c0.5,0,0.9,0.1,1.2,0.3
				c0.3,0.2,0.6,0.5,0.8,0.9c0.2,0.4,0.3,0.9,0.3,1.5v4h-1.3V74.2z"/>
			<path d="M200.2,78.2c-0.3-0.1-0.7-0.2-1-0.3c-0.3-0.2-0.6-0.3-0.8-0.6l0.8-0.9c0.4,0.3,0.7,0.5,1.1,0.6c0.4,0.1,0.7,0.2,1,0.2
				c0.5,0,0.9-0.1,1.2-0.2c0.3-0.2,0.4-0.4,0.4-0.7c0-0.2-0.1-0.4-0.2-0.5s-0.3-0.2-0.5-0.2c-0.2,0-0.5-0.1-0.9-0.1c0,0-0.1,0-0.1,0
				c0,0-0.1,0-0.1,0c0,0,0,0-0.1,0c0,0,0,0-0.1,0c-0.4,0-0.8-0.1-1.1-0.2c-0.3-0.1-0.5-0.3-0.7-0.5c-0.2-0.2-0.3-0.6-0.3-1.1
				s0.1-0.9,0.3-1.2s0.5-0.5,0.9-0.7c0.4-0.2,0.8-0.2,1.4-0.2c0.3,0,0.7,0,1,0.1c0.3,0.1,0.6,0.2,0.9,0.3c0.3,0.1,0.6,0.3,0.8,0.5
				l-0.8,0.9c-0.3-0.2-0.7-0.4-1-0.5s-0.6-0.2-0.9-0.2c-0.4,0-0.8,0.1-1,0.2c-0.2,0.1-0.3,0.4-0.3,0.7c0,0.2,0.1,0.3,0.2,0.4
				s0.3,0.1,0.5,0.2s0.5,0.1,0.8,0.1c0,0,0.1,0,0.1,0c0,0,0.1,0,0.1,0c0,0,0,0,0,0s0,0,0,0c0.5,0,0.9,0.1,1.2,0.2
				c0.3,0.1,0.6,0.3,0.8,0.6c0.2,0.3,0.3,0.7,0.3,1.2c0,0.5-0.1,0.9-0.3,1.2c-0.2,0.3-0.5,0.5-0.9,0.7s-0.9,0.2-1.5,0.2
				C200.9,78.3,200.5,78.2,200.2,78.2z"/>
			<path d="M185.3,86.2v1.2H181v-1.2H185.3z"/>
			<path d="M188.2,90c-0.4-0.2-0.7-0.5-0.9-0.8c-0.2-0.4-0.4-0.8-0.5-1.3h1.3c0,0.3,0.1,0.5,0.2,0.6s0.3,0.3,0.5,0.4
				c0.2,0.1,0.4,0.1,0.7,0.1c0.4,0,0.8-0.1,1-0.3c0.2-0.2,0.4-0.6,0.4-1v-0.3c0-0.5-0.1-0.8-0.3-1.1c-0.2-0.3-0.5-0.4-1-0.4H189
				v-1.2h0.7c0.4,0,0.6-0.1,0.8-0.3c0.2-0.2,0.3-0.5,0.3-0.9v-0.3c0-0.4-0.1-0.6-0.3-0.8c-0.2-0.2-0.5-0.3-0.9-0.3
				c-0.2,0-0.4,0-0.6,0.1c-0.2,0.1-0.3,0.2-0.4,0.4c-0.1,0.2-0.2,0.4-0.3,0.6h-1.3c0.1-0.5,0.2-0.9,0.5-1.3c0.2-0.4,0.5-0.6,0.9-0.8
				c0.4-0.2,0.8-0.3,1.2-0.3c0.8,0,1.4,0.2,1.8,0.6c0.4,0.4,0.7,1,0.7,1.8v0.2c0,0.5-0.1,0.9-0.4,1.2c-0.2,0.3-0.6,0.6-1.1,0.7
				c0.5,0.1,0.9,0.4,1.2,0.7c0.3,0.4,0.4,0.9,0.4,1.5v0.2c0,0.5-0.1,1-0.3,1.4c-0.2,0.4-0.5,0.7-0.9,0.9c-0.4,0.2-0.9,0.3-1.4,0.3
				C189,90.3,188.6,90.2,188.2,90z"/>
		</g>
	</g>
	<g>
		<g>
			<path d="M223.2,59.5c-0.4-0.1-0.8-0.2-1.1-0.4c-0.3-0.2-0.7-0.4-1-0.6l0.8-1c0.4,0.3,0.7,0.5,1.2,0.7c0.4,0.2,0.9,0.2,1.4,0.2
				c0.7,0,1.2-0.1,1.6-0.4c0.4-0.2,0.6-0.6,0.6-1.1v0c0-0.3-0.1-0.6-0.3-0.8c-0.2-0.2-0.4-0.3-0.6-0.4c-0.3-0.1-0.6-0.2-1-0.3
				c0,0,0,0,0,0s0,0,0,0l-0.1,0c-0.6-0.1-1.1-0.2-1.5-0.4c-0.4-0.1-0.7-0.4-1-0.7c-0.3-0.4-0.4-0.9-0.4-1.5v0c0-0.6,0.1-1.1,0.4-1.5
				c0.3-0.4,0.6-0.7,1.1-0.9c0.5-0.2,1.1-0.3,1.8-0.3c0.3,0,0.7,0,1,0.1c0.3,0.1,0.6,0.2,0.9,0.3c0.3,0.1,0.6,0.3,0.9,0.5l-0.7,1
				c-0.4-0.3-0.7-0.5-1.1-0.6c-0.3-0.1-0.7-0.2-1-0.2c-0.6,0-1.1,0.1-1.5,0.4c-0.3,0.3-0.5,0.6-0.5,1.1v0c0,0.3,0.1,0.6,0.3,0.7
				s0.4,0.3,0.7,0.4c0.3,0.1,0.6,0.2,1.1,0.3c0,0,0,0,0,0c0,0,0,0,0,0c0,0,0,0,0.1,0s0,0,0.1,0c0.6,0.1,1,0.2,1.4,0.4
				c0.4,0.2,0.7,0.4,0.9,0.8c0.3,0.3,0.4,0.8,0.4,1.4v0c0,0.6-0.1,1-0.4,1.4c-0.3,0.4-0.7,0.7-1.2,0.9c-0.5,0.2-1.1,0.3-1.8,0.3
				C224.1,59.6,223.6,59.6,223.2,59.5z"/>
			<path d="M229.1,52.9h3v1.2h-3V52.9z M230.2,59.1c-0.2-0.3-0.4-0.7-0.4-1.3V51h1.3v6.8c0,0.2,0,0.3,0.1,0.4
				c0.1,0.1,0.2,0.1,0.3,0.1h0.6v1.2h-0.7C230.8,59.6,230.4,59.4,230.2,59.1z"/>
			<path d="M233.8,52.9h1.3v6.6h-1.3V52.9z M237,54.2c-0.2-0.1-0.4-0.1-0.6-0.1c-0.4,0-0.7,0.1-1,0.3c-0.2,0.2-0.3,0.5-0.3,0.9
				l-0.1-1.3c0.2-0.4,0.5-0.7,0.8-0.9c0.3-0.2,0.7-0.3,1.1-0.3c0.3,0,0.6,0,0.8,0.1c0.2,0.1,0.5,0.2,0.6,0.4l-0.8,1.1
				C237.4,54.4,237.2,54.3,237,54.2z"/>
			<path d="M239.7,59.1c-0.4-0.3-0.6-0.8-0.6-1.5c0-0.7,0.2-1.1,0.6-1.5s0.9-0.5,1.7-0.5h1.9l0.1,1h-2c-0.3,0-0.6,0.1-0.8,0.2
				c-0.2,0.1-0.3,0.4-0.3,0.7c0,0.3,0.1,0.6,0.3,0.7c0.2,0.2,0.6,0.2,1,0.2c0.5,0,0.9-0.1,1.1-0.2s0.4-0.3,0.4-0.5l0.1,0.9
				c-0.1,0.2-0.3,0.3-0.4,0.4s-0.4,0.2-0.6,0.3c-0.2,0.1-0.5,0.1-0.7,0.1C240.7,59.6,240.1,59.5,239.7,59.1z M243.1,55.4
				c0-0.4-0.1-0.8-0.3-1c-0.2-0.2-0.6-0.4-1-0.4c-0.3,0-0.5,0-0.8,0.1c-0.3,0.1-0.5,0.2-0.7,0.3l-0.9-0.6c0.2-0.3,0.6-0.5,1-0.7
				c0.4-0.2,0.9-0.3,1.4-0.3c0.5,0,1,0.1,1.4,0.3c0.4,0.2,0.7,0.5,0.9,0.8c0.2,0.4,0.3,0.8,0.3,1.3v4.2h-1.2V55.4z"/>
			<path d="M247.6,59.5c-0.3-0.1-0.7-0.2-1-0.3c-0.3-0.2-0.6-0.3-0.8-0.6l0.8-0.9c0.4,0.3,0.7,0.5,1.1,0.6c0.4,0.1,0.7,0.2,1,0.2
				c0.5,0,0.9-0.1,1.2-0.2c0.3-0.2,0.4-0.4,0.4-0.7c0-0.2-0.1-0.4-0.2-0.5s-0.3-0.2-0.5-0.2c-0.2,0-0.5-0.1-0.9-0.1c0,0-0.1,0-0.1,0
				c0,0-0.1,0-0.1,0c0,0,0,0-0.1,0c0,0,0,0-0.1,0c-0.4,0-0.8-0.1-1.1-0.2c-0.3-0.1-0.5-0.3-0.7-0.5c-0.2-0.2-0.3-0.6-0.3-1.1
				s0.1-0.9,0.3-1.2s0.5-0.5,0.9-0.7c0.4-0.2,0.8-0.2,1.4-0.2c0.3,0,0.7,0,1,0.1c0.3,0.1,0.6,0.2,0.9,0.3c0.3,0.1,0.6,0.3,0.8,0.5
				l-0.8,0.9c-0.3-0.2-0.7-0.4-1-0.5c-0.3-0.1-0.6-0.2-0.9-0.2c-0.4,0-0.8,0.1-1,0.2c-0.2,0.1-0.3,0.4-0.3,0.7
				c0,0.2,0.1,0.3,0.2,0.4c0.1,0.1,0.3,0.1,0.5,0.2s0.5,0.1,0.8,0.1c0,0,0.1,0,0.1,0s0.1,0,0.1,0c0,0,0,0,0,0s0,0,0,0
				c0.5,0,0.9,0.1,1.2,0.2c0.3,0.1,0.6,0.3,0.8,0.6c0.2,0.3,0.3,0.7,0.3,1.2c0,0.5-0.1,0.9-0.3,1.2c-0.2,0.3-0.5,0.5-0.9,0.7
				c-0.4,0.2-0.9,0.2-1.5,0.2C248.3,59.6,247.9,59.6,247.6,59.5z"/>
			<path d="M253.1,50.3h1.3v9.2h-1.3V50.3z M254.9,59.3c-0.3-0.2-0.5-0.5-0.7-0.8l0.1-1.4c0,0.3,0.1,0.5,0.2,0.7s0.2,0.4,0.4,0.5
				c0.2,0.1,0.4,0.2,0.7,0.2c0.4,0,0.8-0.1,1-0.4c0.2-0.3,0.4-0.6,0.4-1.1v-1.4c0-0.5-0.1-0.9-0.4-1.1c-0.2-0.3-0.6-0.4-1-0.4
				c-0.3,0-0.5,0.1-0.7,0.2c-0.2,0.1-0.3,0.3-0.4,0.4c-0.1,0.2-0.2,0.4-0.2,0.7l-0.1-1.3c0.2-0.4,0.5-0.7,0.8-0.9
				c0.3-0.2,0.7-0.3,1.1-0.3c0.5,0,0.9,0.1,1.2,0.3c0.3,0.2,0.6,0.5,0.8,0.9c0.2,0.4,0.3,0.9,0.3,1.5V57c0,0.6-0.1,1-0.3,1.4
				s-0.4,0.7-0.8,0.9c-0.3,0.2-0.8,0.3-1.2,0.3C255.6,59.6,255.2,59.5,254.9,59.3z"/>
			<path d="M261.2,59.3c-0.4-0.2-0.7-0.6-0.9-1c-0.2-0.4-0.3-0.9-0.3-1.6v-1.1c0-0.6,0.1-1.1,0.3-1.5c0.2-0.4,0.5-0.7,0.9-1
				c0.4-0.2,0.9-0.3,1.5-0.3s1.1,0.1,1.5,0.3c0.4,0.2,0.7,0.5,0.9,1c0.2,0.4,0.3,0.9,0.3,1.5v1.1c0,0.6-0.1,1.1-0.3,1.5
				c-0.2,0.4-0.5,0.8-0.9,1s-0.9,0.3-1.5,0.3S261.6,59.5,261.2,59.3z M263.7,58c0.2-0.3,0.4-0.7,0.4-1.2v-1.1c0-0.5-0.1-0.9-0.4-1.2
				c-0.2-0.3-0.6-0.4-1.1-0.4c-0.5,0-0.8,0.1-1.1,0.4c-0.2,0.3-0.4,0.7-0.4,1.2v1.1c0,0.5,0.1,0.9,0.4,1.2c0.2,0.3,0.6,0.4,1.1,0.4
				C263.1,58.4,263.5,58.3,263.7,58z"/>
			<path d="M268.3,56.9c0,0.5,0.1,0.8,0.4,1.1c0.2,0.3,0.6,0.4,1,0.4c0.4,0,0.8-0.1,1-0.3c0.2-0.2,0.3-0.5,0.3-1l0.1,1.4
				c-0.1,0.3-0.4,0.6-0.7,0.8s-0.7,0.3-1.1,0.3c-0.7,0-1.3-0.2-1.7-0.7c-0.4-0.5-0.6-1.1-0.6-2v-4h1.3V56.9z M271,52.9h1.3v6.6H271
				V52.9z"/>
			<path d="M274.3,52.9h1.3v6.6h-1.3V52.9z M277.5,54.2c-0.2-0.1-0.4-0.1-0.6-0.1c-0.4,0-0.7,0.1-1,0.3c-0.2,0.2-0.3,0.5-0.3,0.9
				l-0.1-1.3c0.2-0.4,0.5-0.7,0.8-0.9c0.3-0.2,0.7-0.3,1.1-0.3c0.3,0,0.6,0,0.8,0.1c0.2,0.1,0.5,0.2,0.6,0.4l-0.8,1.1
				C277.8,54.4,277.7,54.3,277.5,54.2z"/>
			<path d="M280.6,59.3c-0.3-0.2-0.6-0.5-0.8-0.9s-0.3-0.9-0.3-1.4v-1.5c0-0.6,0.1-1.1,0.3-1.5c0.2-0.4,0.4-0.7,0.8-0.9
				c0.3-0.2,0.7-0.3,1.2-0.3c0.4,0,0.7,0.1,1.1,0.3c0.3,0.2,0.6,0.5,0.8,0.9l-0.1,1.3c0-0.3-0.1-0.5-0.2-0.7s-0.2-0.4-0.4-0.5
				c-0.2-0.1-0.4-0.2-0.7-0.2c-0.4,0-0.8,0.1-1,0.4c-0.2,0.3-0.4,0.6-0.4,1.1V57c0,0.5,0.1,0.8,0.4,1.1c0.2,0.3,0.6,0.4,1,0.4
				c0.3,0,0.5-0.1,0.7-0.2c0.2-0.1,0.3-0.3,0.4-0.5s0.2-0.4,0.2-0.7l0.1,1.4c-0.1,0.3-0.3,0.6-0.6,0.8c-0.3,0.2-0.7,0.3-1.1,0.3
				C281.3,59.6,280.9,59.5,280.6,59.3z M280.6,61.9c-0.4-0.2-0.7-0.4-0.9-0.8l0.9-0.8c0.2,0.2,0.4,0.4,0.6,0.5
				c0.2,0.1,0.5,0.2,0.7,0.2c0.5,0,0.9-0.1,1.1-0.4c0.3-0.3,0.4-0.7,0.4-1.2v-6.6h1.3v6.4c0,0.6-0.1,1.1-0.3,1.6
				c-0.2,0.4-0.5,0.8-1,1c-0.4,0.2-0.9,0.3-1.5,0.3C281.4,62.2,281,62.1,280.6,61.9z"/>
			<path d="M249.9,67.6v1.2h-4.3v-1.2H249.9z"/>
			<path d="M253.8,71.5h-1.3v-7.8l-1.3,0.8v-1.3l1.3-0.9h1.3V71.5z"/>
			<path d="M255.8,70.4l3.2-4.3c0.2-0.2,0.3-0.5,0.4-0.8c0.1-0.3,0.2-0.5,0.2-0.7v0c0-0.4-0.1-0.7-0.3-0.9s-0.5-0.3-0.9-0.3
				c-0.4,0-0.7,0.1-0.9,0.3c-0.2,0.2-0.4,0.5-0.4,0.9v0h-1.3v0c0.1-0.5,0.2-1,0.5-1.4c0.2-0.4,0.5-0.7,0.9-0.9
				c0.4-0.2,0.8-0.3,1.3-0.3c0.5,0,1,0.1,1.4,0.3c0.4,0.2,0.7,0.5,0.9,0.8s0.3,0.8,0.3,1.3v0c0,0.3-0.1,0.7-0.2,1
				c-0.1,0.4-0.3,0.7-0.6,1l-2.7,3.6h3.5v1.2h-5.2V70.4z"/>
		</g>
	</g>
	<g>
		<g>
			<path d="M211,108.5h1.3v9.2H211V108.5z M211.9,116.5h2.1c0.7,0,1.2-0.2,1.6-0.5c0.4-0.4,0.6-0.9,0.6-1.5v-2.7
				c0-0.6-0.2-1.1-0.6-1.5c-0.4-0.4-0.9-0.5-1.6-0.5h-2.1v-1.2h2.1c0.7,0,1.4,0.1,1.9,0.4c0.5,0.3,0.9,0.6,1.2,1.1
				c0.3,0.5,0.4,1.1,0.4,1.8v2.6c0,0.7-0.1,1.3-0.4,1.8c-0.3,0.5-0.7,0.9-1.2,1.1c-0.5,0.3-1.2,0.4-1.9,0.4h-2V116.5z"/>
			<path d="M219.4,108.5h1.3v1.3h-1.3V108.5z M219.4,111.1h1.3v6.6h-1.3V111.1z"/>
			<path d="M221.8,119.1h0.7c0.1,0,0.2,0,0.3-0.1s0.1-0.2,0.1-0.4v-7.5h1.3v7.5c0,0.6-0.1,1-0.4,1.3s-0.6,0.5-1.1,0.5h-0.9V119.1z
				 M222.9,108.5h1.3v1.3h-1.3V108.5z"/>
			<path d="M227.2,117.5c-0.4-0.2-0.7-0.6-0.9-1c-0.2-0.4-0.3-0.9-0.3-1.6v-1.1c0-0.6,0.1-1.1,0.3-1.5c0.2-0.4,0.5-0.7,0.9-1
				c0.4-0.2,0.9-0.3,1.5-0.3s1.1,0.1,1.5,0.3c0.4,0.2,0.7,0.5,0.9,1c0.2,0.4,0.3,0.9,0.3,1.5v1.1c0,0.6-0.1,1.1-0.3,1.5
				c-0.2,0.4-0.5,0.8-0.9,1s-0.9,0.3-1.5,0.3S227.6,117.7,227.2,117.5z M229.7,116.1c0.2-0.3,0.4-0.7,0.4-1.2v-1.1
				c0-0.5-0.1-0.9-0.4-1.2c-0.2-0.3-0.6-0.4-1.1-0.4c-0.5,0-0.8,0.1-1.1,0.4c-0.2,0.3-0.4,0.7-0.4,1.2v1.1c0,0.5,0.1,0.9,0.4,1.2
				c0.2,0.3,0.6,0.4,1.1,0.4C229.1,116.6,229.5,116.4,229.7,116.1z"/>
			<path d="M233.2,111.1h1.3v6.6h-1.3V111.1z M237.2,113.7c0-0.5-0.1-0.8-0.4-1.1s-0.6-0.4-1-0.4c-0.4,0-0.8,0.1-1,0.3
				s-0.3,0.5-0.3,0.9l-0.1-1.3c0.2-0.4,0.5-0.7,0.8-0.9s0.7-0.3,1.1-0.3c0.7,0,1.3,0.2,1.7,0.7c0.4,0.5,0.6,1.1,0.6,2v4h-1.3V113.7z
				"/>
			<path d="M223.5,125.8v1.2h-4.3v-1.2H223.5z"/>
			<path d="M228.7,125.1l0,0.2c-0.1,0.2-0.3,0.3-0.5,0.4c-0.2,0.1-0.5,0.1-0.8,0.1c-0.4,0-0.8-0.1-1.2-0.3c-0.3-0.2-0.6-0.5-0.8-0.9
				c-0.2-0.4-0.3-0.9-0.3-1.4v0c0-0.6,0.1-1.1,0.3-1.5c0.2-0.4,0.5-0.7,0.9-1c0.4-0.2,0.9-0.3,1.4-0.3c0.5,0,1,0.1,1.4,0.3
				c0.4,0.2,0.7,0.6,0.9,1c0.2,0.4,0.3,0.9,0.3,1.5v0c0,0.3,0,0.7-0.1,1.1c-0.1,0.4-0.2,0.7-0.4,1.1c0,0.1-0.1,0.1-0.1,0.2
				c0,0.1-0.1,0.1-0.1,0.2l-2,4h-1.4L228.7,125.1z M228.7,124.3c0.2-0.3,0.3-0.7,0.3-1.2v0c0-0.5-0.1-0.9-0.3-1.1
				c-0.2-0.3-0.5-0.4-0.9-0.4c-0.4,0-0.7,0.1-0.9,0.4c-0.2,0.3-0.3,0.6-0.3,1.1v0c0,0.5,0.1,0.9,0.3,1.2c0.2,0.3,0.5,0.4,0.9,0.4
				C228.2,124.7,228.5,124.6,228.7,124.3z"/>
		</g>
	</g>
	<g>
		<g>
			<path d="M199.6,150.4v1.6c0,0.7-0.1,1.3-0.4,1.8c-0.3,0.5-0.6,0.9-1.1,1.2c-0.5,0.3-1.1,0.4-1.7,0.4c-0.7,0-1.2-0.1-1.7-0.4
				s-0.9-0.6-1.1-1.1c-0.3-0.5-0.4-1.1-0.4-1.7v-2.7c0-0.7,0.1-1.3,0.4-1.8s0.6-0.9,1.1-1.2c0.5-0.3,1.1-0.4,1.7-0.4
				c0.5,0,1,0.1,1.5,0.3c0.4,0.2,0.8,0.5,1.1,1c0.3,0.4,0.5,0.9,0.6,1.4h-1.4c-0.1-0.3-0.2-0.6-0.4-0.8c-0.2-0.2-0.4-0.4-0.6-0.5
				c-0.2-0.1-0.5-0.2-0.8-0.2c-0.4,0-0.7,0.1-1,0.3c-0.3,0.2-0.5,0.4-0.7,0.8c-0.2,0.3-0.2,0.7-0.2,1.1v2.7c0,0.4,0.1,0.7,0.2,1
				c0.2,0.3,0.4,0.5,0.7,0.7s0.6,0.2,1,0.2c0.4,0,0.7-0.1,1-0.3c0.3-0.2,0.5-0.4,0.7-0.7c0.2-0.3,0.2-0.7,0.2-1.2v-0.4h-1.9v-1.2
				H199.6z"/>
			<path d="M201.5,148.7h1.3v6.6h-1.3V148.7z M204.7,150c-0.2-0.1-0.4-0.1-0.6-0.1c-0.4,0-0.7,0.1-1,0.3c-0.2,0.2-0.3,0.5-0.3,0.9
				l-0.1-1.3c0.2-0.4,0.5-0.7,0.8-0.9c0.3-0.2,0.7-0.3,1.1-0.3c0.3,0,0.6,0,0.8,0.1c0.2,0.1,0.5,0.2,0.6,0.4l-0.8,1.1
				C205,150.2,204.9,150,204.7,150z"/>
			<path d="M208.1,155.1c-0.4-0.2-0.8-0.6-1-1c-0.2-0.4-0.3-1-0.3-1.6v-0.7c0-0.7,0.1-1.2,0.3-1.7c0.2-0.5,0.5-0.8,0.9-1.1
				c0.4-0.2,0.9-0.4,1.5-0.4c0.6,0,1,0.1,1.4,0.4c0.4,0.3,0.7,0.7,0.9,1.2c0.2,0.5,0.3,1.1,0.3,1.9v0.4h-4.4v-1h3.2
				c0-0.5-0.2-1-0.4-1.3c-0.2-0.3-0.6-0.4-1-0.4c-0.5,0-0.9,0.2-1.1,0.5c-0.3,0.3-0.4,0.8-0.4,1.4v0.8c0,0.5,0.1,1,0.4,1.3
				c0.3,0.3,0.7,0.4,1.2,0.4c0.3,0,0.5-0.1,0.8-0.2c0.3-0.1,0.5-0.3,0.7-0.4l0.9,0.9c-0.3,0.3-0.7,0.6-1.1,0.7
				c-0.4,0.2-0.8,0.3-1.2,0.3C209,155.4,208.5,155.3,208.1,155.1z"/>
			<path d="M213.9,148.7h1.3v6.6h-1.3V148.7z M217.9,151.3c0-0.5-0.1-0.8-0.4-1.1s-0.6-0.4-1-0.4c-0.4,0-0.8,0.1-1,0.3
				c-0.2,0.2-0.3,0.5-0.3,0.9l-0.1-1.3c0.2-0.4,0.5-0.7,0.8-0.9s0.7-0.3,1.1-0.3c0.7,0,1.3,0.2,1.7,0.7c0.4,0.5,0.6,1.1,0.6,2v4
				h-1.3V151.3z"/>
			<path d="M222.2,155.1c-0.4-0.2-0.7-0.6-0.9-1s-0.3-0.9-0.3-1.6v-1.1c0-0.6,0.1-1.1,0.3-1.5c0.2-0.4,0.5-0.7,0.9-1
				c0.4-0.2,0.9-0.3,1.5-0.3s1.1,0.1,1.5,0.3c0.4,0.2,0.7,0.5,0.9,1c0.2,0.4,0.3,0.9,0.3,1.5v1.1c0,0.6-0.1,1.1-0.3,1.5
				c-0.2,0.4-0.5,0.8-0.9,1c-0.4,0.2-0.9,0.3-1.5,0.3S222.6,155.3,222.2,155.1z M224.8,153.8c0.2-0.3,0.4-0.7,0.4-1.2v-1.1
				c0-0.5-0.1-0.9-0.4-1.2c-0.2-0.3-0.6-0.4-1.1-0.4c-0.5,0-0.8,0.1-1.1,0.4c-0.2,0.3-0.4,0.7-0.4,1.2v1.1c0,0.5,0.1,0.9,0.4,1.2
				c0.2,0.3,0.6,0.4,1.1,0.4C224.2,154.2,224.5,154,224.8,153.8z"/>
			<path d="M228.3,146.1h1.3v9.2h-1.3V146.1z M230.1,155.1c-0.3-0.2-0.5-0.5-0.7-0.8l0.1-1.4c0,0.3,0.1,0.5,0.2,0.7
				c0.1,0.2,0.2,0.4,0.4,0.5c0.2,0.1,0.4,0.2,0.7,0.2c0.4,0,0.8-0.1,1-0.4c0.2-0.3,0.4-0.6,0.4-1.1v-1.4c0-0.5-0.1-0.9-0.4-1.1
				c-0.2-0.3-0.6-0.4-1-0.4c-0.3,0-0.5,0.1-0.7,0.2c-0.2,0.1-0.3,0.2-0.4,0.4c-0.1,0.2-0.2,0.4-0.2,0.7l-0.1-1.3
				c0.2-0.4,0.5-0.7,0.8-0.9c0.3-0.2,0.7-0.3,1.1-0.3c0.5,0,0.9,0.1,1.2,0.3c0.3,0.2,0.6,0.5,0.8,0.9c0.2,0.4,0.3,0.9,0.3,1.5v1.4
				c0,0.6-0.1,1-0.3,1.4c-0.2,0.4-0.4,0.7-0.8,0.9c-0.3,0.2-0.8,0.3-1.2,0.3C230.8,155.4,230.4,155.3,230.1,155.1z"/>
			<path d="M236.6,153.6c0,0.2,0,0.3,0.1,0.4c0.1,0.1,0.2,0.1,0.3,0.1h0.6v1.2h-0.8c-0.5,0-0.9-0.2-1.1-0.5
				c-0.3-0.3-0.4-0.7-0.4-1.3v-7.5h1.3V153.6z"/>
			<path d="M240.2,155.1c-0.4-0.2-0.8-0.6-1-1c-0.2-0.4-0.3-1-0.3-1.6v-0.7c0-0.7,0.1-1.2,0.3-1.7c0.2-0.5,0.5-0.8,0.9-1.1
				c0.4-0.2,0.9-0.4,1.5-0.4c0.5,0,1,0.1,1.4,0.4c0.4,0.3,0.7,0.7,0.9,1.2s0.3,1.1,0.3,1.9v0.4h-4.4v-1h3.2c0-0.5-0.2-1-0.4-1.3
				c-0.2-0.3-0.6-0.4-1-0.4c-0.5,0-0.9,0.2-1.1,0.5c-0.3,0.3-0.4,0.8-0.4,1.4v0.8c0,0.5,0.1,1,0.4,1.3c0.3,0.3,0.7,0.4,1.2,0.4
				c0.3,0,0.5-0.1,0.8-0.2c0.3-0.1,0.5-0.3,0.7-0.4l0.9,0.9c-0.3,0.3-0.7,0.6-1.1,0.7c-0.4,0.2-0.8,0.3-1.2,0.3
				C241.2,155.4,240.7,155.3,240.2,155.1z"/>
			<path d="M217.4,163.4v1.2h-4.3v-1.2H217.4z"/>
			<path d="M219.2,166.2l3.2-4.3c0.2-0.2,0.3-0.5,0.4-0.8c0.1-0.3,0.2-0.5,0.2-0.7v0c0-0.4-0.1-0.7-0.3-0.9s-0.5-0.3-0.9-0.3
				c-0.4,0-0.7,0.1-0.9,0.3c-0.2,0.2-0.4,0.5-0.4,0.9v0H219v0c0.1-0.5,0.2-1,0.5-1.4c0.2-0.4,0.5-0.7,0.9-0.9
				c0.4-0.2,0.8-0.3,1.3-0.3c0.6,0,1,0.1,1.4,0.3c0.4,0.2,0.7,0.5,0.9,0.8c0.2,0.4,0.3,0.8,0.3,1.3v0c0,0.3-0.1,0.7-0.2,1
				c-0.1,0.4-0.3,0.7-0.6,1l-2.7,3.6h3.5v1.2h-5.2V166.2z"/>
		</g>
	</g>
	<g>
		<g>
			<path d="M107.9,194.6h6.5v1.2h-6.5V194.6z M110.5,195.4h1.3v8.5h-1.3V195.4z"/>
			<path d="M115.6,203.6c-0.4-0.2-0.7-0.6-0.9-1c-0.2-0.4-0.3-0.9-0.3-1.6V200c0-0.6,0.1-1.1,0.3-1.5c0.2-0.4,0.5-0.7,0.9-1
				c0.4-0.2,0.9-0.3,1.5-0.3s1.1,0.1,1.5,0.3c0.4,0.2,0.7,0.5,0.9,1c0.2,0.4,0.3,0.9,0.3,1.5v1.1c0,0.6-0.1,1.1-0.3,1.5
				c-0.2,0.4-0.5,0.8-0.9,1c-0.4,0.2-0.9,0.3-1.5,0.3S116.1,203.9,115.6,203.6z M118.2,202.3c0.2-0.3,0.4-0.7,0.4-1.2V200
				c0-0.5-0.1-0.9-0.4-1.2c-0.2-0.3-0.6-0.4-1.1-0.4s-0.8,0.1-1.1,0.4c-0.2,0.3-0.4,0.7-0.4,1.2v1.1c0,0.5,0.1,0.9,0.4,1.2
				c0.2,0.3,0.6,0.4,1.1,0.4S117.9,202.6,118.2,202.3z"/>
			<path d="M122.8,201.3c0,0.5,0.1,0.8,0.4,1.1c0.2,0.3,0.6,0.4,1,0.4c0.4,0,0.8-0.1,1-0.3c0.2-0.2,0.3-0.5,0.3-1l0.1,1.4
				c-0.1,0.3-0.4,0.6-0.7,0.8c-0.3,0.2-0.7,0.3-1.1,0.3c-0.7,0-1.3-0.2-1.7-0.7c-0.4-0.5-0.6-1.1-0.6-2v-4h1.3V201.3z M125.5,197.3
				h1.3v6.6h-1.3V197.3z"/>
			<path d="M130,202.2c0,0.2,0,0.3,0.1,0.4c0.1,0.1,0.2,0.1,0.3,0.1h0.6v1.2h-0.8c-0.5,0-0.9-0.2-1.1-0.5c-0.3-0.3-0.4-0.7-0.4-1.3
				v-7.5h1.3V202.2z"/>
			<path d="M133.6,203.6c-0.4-0.2-0.7-0.6-0.9-1c-0.2-0.4-0.3-0.9-0.3-1.6V200c0-0.6,0.1-1.1,0.3-1.5c0.2-0.4,0.5-0.7,0.9-1
				c0.4-0.2,0.9-0.3,1.5-0.3s1.1,0.1,1.5,0.3c0.4,0.2,0.7,0.5,0.9,1c0.2,0.4,0.3,0.9,0.3,1.5v1.1c0,0.6-0.1,1.1-0.3,1.5
				c-0.2,0.4-0.5,0.8-0.9,1c-0.4,0.2-0.9,0.3-1.5,0.3S134,203.9,133.6,203.6z M136.1,202.3c0.2-0.3,0.4-0.7,0.4-1.2V200
				c0-0.5-0.1-0.9-0.4-1.2c-0.2-0.3-0.6-0.4-1.1-0.4s-0.8,0.1-1.1,0.4c-0.2,0.3-0.4,0.7-0.4,1.2v1.1c0,0.5,0.1,0.9,0.4,1.2
				c0.2,0.3,0.6,0.4,1.1,0.4S135.8,202.6,136.1,202.3z"/>
			<path d="M140.7,201.3c0,0.5,0.1,0.8,0.4,1.1c0.2,0.3,0.6,0.4,1,0.4c0.4,0,0.8-0.1,1-0.3c0.2-0.2,0.3-0.5,0.3-1l0.1,1.4
				c-0.1,0.3-0.4,0.6-0.7,0.8c-0.3,0.2-0.7,0.3-1.1,0.3c-0.7,0-1.3-0.2-1.7-0.7c-0.4-0.5-0.6-1.1-0.6-2v-4h1.3V201.3z M143.4,197.3
				h1.3v6.6h-1.3V197.3z"/>
			<path d="M147.9,203.9c-0.3-0.1-0.7-0.2-1-0.3s-0.6-0.3-0.8-0.6l0.8-0.9c0.4,0.3,0.7,0.5,1.1,0.6c0.4,0.1,0.7,0.2,1,0.2
				c0.5,0,0.9-0.1,1.2-0.2c0.3-0.2,0.4-0.4,0.4-0.7c0-0.2-0.1-0.4-0.2-0.5c-0.1-0.1-0.3-0.2-0.5-0.2c-0.2,0-0.5-0.1-0.9-0.1
				c0,0-0.1,0-0.1,0s-0.1,0-0.1,0c0,0,0,0-0.1,0c0,0,0,0-0.1,0c-0.4,0-0.8-0.1-1.1-0.2s-0.5-0.3-0.7-0.5c-0.2-0.2-0.3-0.6-0.3-1.1
				c0-0.5,0.1-0.9,0.3-1.2c0.2-0.3,0.5-0.5,0.9-0.7s0.8-0.2,1.4-0.2c0.3,0,0.7,0,1,0.1c0.3,0.1,0.6,0.2,0.9,0.3
				c0.3,0.1,0.6,0.3,0.8,0.5l-0.8,0.9c-0.3-0.2-0.7-0.4-1-0.5c-0.3-0.1-0.6-0.2-0.9-0.2c-0.4,0-0.8,0.1-1,0.2
				c-0.2,0.2-0.3,0.4-0.3,0.7c0,0.2,0.1,0.3,0.2,0.4c0.1,0.1,0.3,0.1,0.5,0.2c0.2,0,0.5,0.1,0.8,0.1c0,0,0.1,0,0.1,0
				c0,0,0.1,0,0.1,0c0,0,0,0,0,0s0,0,0,0c0.5,0,0.9,0.1,1.2,0.2c0.3,0.1,0.6,0.3,0.8,0.6c0.2,0.3,0.3,0.7,0.3,1.2
				c0,0.5-0.1,0.9-0.3,1.2c-0.2,0.3-0.5,0.5-0.9,0.7c-0.4,0.2-0.9,0.2-1.5,0.2C148.6,204,148.2,203.9,147.9,203.9z"/>
			<path d="M154.5,203.6c-0.4-0.2-0.8-0.6-1-1c-0.2-0.4-0.3-1-0.3-1.6v-0.7c0-0.7,0.1-1.2,0.3-1.7c0.2-0.5,0.5-0.8,0.9-1.1
				c0.4-0.2,0.9-0.4,1.5-0.4c0.5,0,1,0.1,1.4,0.4c0.4,0.3,0.7,0.7,0.9,1.2s0.3,1.1,0.3,1.9v0.4h-4.4v-1h3.2c0-0.5-0.2-1-0.4-1.3
				c-0.2-0.3-0.6-0.4-1-0.4c-0.5,0-0.9,0.2-1.1,0.5c-0.3,0.3-0.4,0.8-0.4,1.4v0.8c0,0.5,0.1,1,0.4,1.3c0.3,0.3,0.7,0.4,1.2,0.4
				c0.3,0,0.5-0.1,0.8-0.2c0.3-0.1,0.5-0.3,0.7-0.4l0.9,0.9c-0.3,0.3-0.7,0.6-1.1,0.7c-0.4,0.2-0.8,0.3-1.2,0.3
				C155.5,204,155,203.9,154.5,203.6z"/>
			<path d="M133.8,211.9v1.2h-4.3v-1.2H133.8z"/>
			<path d="M137.7,215.9h-1.3v-7.8l-1.3,0.8v-1.3l1.3-0.9h1.3V215.9z"/>
		</g>
	</g>
	<g>
		<g>
			<path d="M195.2,202.6h1.2v9.2h-1.3V205l0.1,0.4l-2.3,5.2h-0.9l-2.3-5.1l0.1-0.5v6.9h-1.3v-9.2h1.2l2.7,6.1L195.2,202.6z"/>
			<path d="M198.9,211.5c-0.4-0.3-0.6-0.8-0.6-1.5c0-0.7,0.2-1.1,0.6-1.5c0.4-0.3,0.9-0.5,1.7-0.5h1.9l0.1,1h-2
				c-0.3,0-0.6,0.1-0.8,0.2s-0.3,0.4-0.3,0.7c0,0.3,0.1,0.6,0.3,0.7c0.2,0.2,0.6,0.2,1,0.2c0.5,0,0.9-0.1,1.1-0.2
				c0.2-0.1,0.4-0.3,0.4-0.5l0.1,0.9c-0.1,0.2-0.3,0.3-0.4,0.4c-0.2,0.1-0.4,0.2-0.6,0.3c-0.2,0.1-0.5,0.1-0.7,0.1
				C199.9,212,199.3,211.8,198.9,211.5z M202.3,207.7c0-0.4-0.1-0.8-0.3-1s-0.6-0.4-1-0.4c-0.3,0-0.5,0-0.8,0.1
				c-0.3,0.1-0.5,0.2-0.7,0.3l-0.9-0.6c0.2-0.3,0.6-0.5,1-0.7c0.4-0.2,0.9-0.2,1.4-0.2c0.5,0,1,0.1,1.4,0.3c0.4,0.2,0.7,0.5,0.9,0.8
				c0.2,0.4,0.3,0.8,0.3,1.3v4.2h-1.2V207.7z"/>
			<path d="M205.5,205.3h1.3v6.6h-1.3V205.3z M208.7,206.5c-0.2-0.1-0.4-0.1-0.6-0.1c-0.4,0-0.7,0.1-1,0.3c-0.2,0.2-0.3,0.5-0.3,0.9
				l-0.1-1.3c0.2-0.4,0.5-0.7,0.8-0.9c0.3-0.2,0.7-0.3,1.1-0.3c0.3,0,0.6,0,0.8,0.1s0.5,0.2,0.6,0.4l-0.8,1.1
				C209,206.7,208.9,206.6,208.7,206.5z"/>
			<path d="M212.3,211.9c-0.3-0.1-0.7-0.2-1-0.3c-0.3-0.2-0.6-0.3-0.8-0.6l0.8-0.9c0.4,0.3,0.7,0.5,1.1,0.6c0.4,0.1,0.7,0.2,1,0.2
				c0.5,0,0.9-0.1,1.2-0.2c0.3-0.2,0.4-0.4,0.4-0.7c0-0.2-0.1-0.4-0.2-0.5c-0.1-0.1-0.3-0.2-0.5-0.2c-0.2,0-0.5-0.1-0.9-0.1
				c0,0-0.1,0-0.1,0s-0.1,0-0.1,0c0,0,0,0-0.1,0c0,0,0,0-0.1,0c-0.4,0-0.8-0.1-1.1-0.2c-0.3-0.1-0.5-0.3-0.7-0.5
				c-0.2-0.2-0.3-0.6-0.3-1.1c0-0.5,0.1-0.9,0.3-1.2c0.2-0.3,0.5-0.5,0.9-0.7c0.4-0.2,0.8-0.2,1.4-0.2c0.3,0,0.7,0,1,0.1
				c0.3,0.1,0.6,0.2,0.9,0.3c0.3,0.1,0.6,0.3,0.8,0.5l-0.8,0.9c-0.3-0.2-0.7-0.4-1-0.5c-0.3-0.1-0.6-0.2-0.9-0.2
				c-0.4,0-0.8,0.1-1,0.2c-0.2,0.2-0.3,0.4-0.3,0.7c0,0.2,0.1,0.3,0.2,0.4s0.3,0.1,0.5,0.2c0.2,0,0.5,0.1,0.8,0.1c0,0,0.1,0,0.1,0
				c0,0,0.1,0,0.1,0c0,0,0,0,0,0s0,0,0,0c0.5,0,0.9,0.1,1.2,0.2c0.3,0.1,0.6,0.3,0.8,0.6c0.2,0.3,0.3,0.7,0.3,1.2
				c0,0.5-0.1,0.9-0.3,1.2c-0.2,0.3-0.5,0.5-0.9,0.7c-0.4,0.2-0.9,0.2-1.5,0.2C213,212,212.6,211.9,212.3,211.9z"/>
			<path d="M219,211.6c-0.4-0.2-0.8-0.6-1-1c-0.2-0.4-0.3-1-0.3-1.6v-0.7c0-0.7,0.1-1.2,0.3-1.7c0.2-0.5,0.5-0.8,0.9-1.1
				c0.4-0.2,0.9-0.4,1.5-0.4c0.5,0,1,0.1,1.4,0.4c0.4,0.3,0.7,0.7,0.9,1.2s0.3,1.1,0.3,1.9v0.4h-4.4v-1h3.2c0-0.5-0.2-1-0.4-1.3
				c-0.2-0.3-0.6-0.4-1-0.4c-0.5,0-0.9,0.2-1.1,0.5c-0.3,0.3-0.4,0.8-0.4,1.4v0.8c0,0.5,0.1,1,0.4,1.3c0.3,0.3,0.7,0.4,1.2,0.4
				c0.3,0,0.5-0.1,0.8-0.2c0.3-0.1,0.5-0.3,0.7-0.4l0.9,0.9c-0.3,0.3-0.7,0.6-1.1,0.7c-0.4,0.2-0.8,0.3-1.2,0.3
				C219.9,212,219.4,211.9,219,211.6z"/>
			<path d="M224.8,202.6h1.3v1.3h-1.3V202.6z M224.8,205.3h1.3v6.6h-1.3V205.3z"/>
			<path d="M229.3,210.2c0,0.2,0,0.3,0.1,0.4c0.1,0.1,0.2,0.1,0.3,0.1h0.6v1.2h-0.8c-0.5,0-0.9-0.2-1.1-0.5s-0.4-0.7-0.4-1.3v-7.5
				h1.3V210.2z"/>
			<path d="M233.1,210.2c0,0.2,0,0.3,0.1,0.4c0.1,0.1,0.2,0.1,0.3,0.1h0.6v1.2h-0.8c-0.5,0-0.9-0.2-1.1-0.5
				c-0.3-0.3-0.4-0.7-0.4-1.3v-7.5h1.3V210.2z"/>
			<path d="M236.7,211.6c-0.4-0.2-0.8-0.6-1-1c-0.2-0.4-0.3-1-0.3-1.6v-0.7c0-0.7,0.1-1.2,0.3-1.7c0.2-0.5,0.5-0.8,0.9-1.1
				c0.4-0.2,0.9-0.4,1.5-0.4c0.5,0,1,0.1,1.4,0.4c0.4,0.3,0.7,0.7,0.9,1.2s0.3,1.1,0.3,1.9v0.4h-4.4v-1h3.2c0-0.5-0.2-1-0.4-1.3
				c-0.2-0.3-0.6-0.4-1-0.4c-0.5,0-0.9,0.2-1.1,0.5c-0.3,0.3-0.4,0.8-0.4,1.4v0.8c0,0.5,0.1,1,0.4,1.3c0.3,0.3,0.7,0.4,1.2,0.4
				c0.3,0,0.5-0.1,0.8-0.2c0.3-0.1,0.5-0.3,0.7-0.4l0.9,0.9c-0.3,0.3-0.7,0.6-1.1,0.7c-0.4,0.2-0.8,0.3-1.2,0.3
				C237.7,212,237.1,211.9,236.7,211.6z"/>
			<path d="M212.5,223.3c-0.4-0.5-0.7-1.1-0.7-1.9v-4.2c0-0.8,0.2-1.5,0.7-1.9c0.4-0.5,1.1-0.7,2-0.7c0.9,0,1.5,0.2,2,0.7
				c0.4,0.5,0.7,1.1,0.7,1.9v4.2c0,0.8-0.2,1.5-0.7,1.9c-0.4,0.5-1.1,0.7-2,0.7C213.6,224,213,223.7,212.5,223.3z M215.5,222.4
				c0.2-0.2,0.3-0.6,0.3-1v-4.2c0-0.4-0.1-0.8-0.3-1c-0.2-0.2-0.6-0.4-1-0.4c-0.5,0-0.8,0.1-1,0.4c-0.2,0.2-0.3,0.6-0.3,1v4.2
				c0,0.4,0.1,0.8,0.3,1c0.2,0.2,0.6,0.4,1,0.4S215.3,222.6,215.5,222.4z"/>
		</g>
	</g>
	<g>
		<g>
			<path d="M242,220.8h1.2l4.5,7.1l-0.2,0.2v-7.3h1.3v9.2h-1.2l-4.5-7l0.2-0.2v7.2H242V220.8z"/>
			<path d="M251,220.8h1.3v1.3H251V220.8z M251,223.4h1.3v6.6H251V223.4z"/>
			<path d="M255.3,229.7c-0.4-0.2-0.8-0.6-1-1c-0.2-0.4-0.3-0.9-0.3-1.5v-1.1c0-0.6,0.1-1.1,0.3-1.5c0.2-0.4,0.5-0.7,1-1
				c0.4-0.2,0.9-0.3,1.5-0.3c0.3,0,0.7,0,1,0.1c0.3,0.1,0.6,0.2,0.8,0.4c0.2,0.2,0.4,0.3,0.6,0.6l-0.9,0.8c-0.2-0.2-0.4-0.4-0.7-0.5
				c-0.2-0.1-0.5-0.2-0.8-0.2c-0.5,0-0.9,0.1-1.2,0.4c-0.3,0.3-0.4,0.7-0.4,1.2v1.1c0,0.5,0.1,0.9,0.4,1.2c0.3,0.3,0.7,0.4,1.2,0.4
				c0.3,0,0.5-0.1,0.8-0.2c0.2-0.1,0.5-0.3,0.6-0.5l0.9,0.9c-0.2,0.2-0.4,0.4-0.6,0.6s-0.5,0.3-0.8,0.4c-0.3,0.1-0.6,0.1-1,0.1
				C256.3,230.1,255.8,230,255.3,229.7z"/>
			<path d="M261.8,229.7c-0.4-0.2-0.8-0.6-1-1s-0.3-1-0.3-1.6v-0.7c0-0.7,0.1-1.2,0.3-1.7c0.2-0.5,0.5-0.8,0.9-1.1
				c0.4-0.2,0.9-0.4,1.5-0.4c0.5,0,1,0.1,1.4,0.4c0.4,0.3,0.7,0.7,0.9,1.2s0.3,1.1,0.3,1.9v0.4h-4.4v-1h3.2c0-0.5-0.2-1-0.4-1.3
				c-0.2-0.3-0.6-0.4-1-0.4c-0.5,0-0.9,0.2-1.1,0.5c-0.3,0.3-0.4,0.8-0.4,1.4v0.8c0,0.5,0.1,1,0.4,1.3c0.3,0.3,0.7,0.4,1.2,0.4
				c0.3,0,0.5-0.1,0.8-0.2c0.3-0.1,0.5-0.3,0.7-0.4l0.9,0.9c-0.3,0.3-0.7,0.6-1.1,0.7c-0.4,0.2-0.8,0.3-1.2,0.3
				C262.8,230.1,262.3,230,261.8,229.7z"/>
			<path d="M250.9,239.4l3.1-6.7h1.3l-3,6.6h4.5v1.2h-5.9V239.4z M254.9,236.6h1.3v5.4h-1.3V236.6z"/>
		</g>
	</g>
</g>
</svg>
