<?xml version="1.0" encoding="utf-8"?>
<!-- Generator: Adobe Illustrator 27.1.1, SVG Export Plug-In . SVG Version: 6.00 Build 0)  -->
<svg version="1.1" id="Calque_1" xmlns="http://www.w3.org/2000/svg" xmlns:xlink="http://www.w3.org/1999/xlink" x="0px" y="0px"
	width="336.85" height="229.62" viewBox="0 0 336.85 229.62" style="enable-background:new 0 0 336.85 229.62;" xml:space="preserve">
<style type="text/css">
	.st0{clip-path:url(#XMLID_00000165223935167555933190000000878109370298939824_);}
	.st1{fill:#925F36;}
	.st2{fill:#643E23;stroke:#1D1D1B;stroke-width:3;stroke-linecap:round;stroke-miterlimit:10;}
	.st3{fill:none;stroke:#1D1D1B;stroke-width:3;stroke-linecap:round;stroke-miterlimit:10;}
	.st4{fill:#FFFFFF;stroke:#E20613;stroke-width:6;stroke-linecap:round;stroke-miterlimit:10;}
	.st5{fill:#E20613;stroke:#E20613;stroke-miterlimit:10;}
	.st6{font-family:'MyriadPro-Regular';}
	.st7{font-size:20px;}
	.st8{fill:none;stroke:#000000;stroke-linecap:round;stroke-miterlimit:10;}
	.st9{fill:none;stroke:#000000;stroke-linecap:round;stroke-miterlimit:10;stroke-dasharray:11.7005,11.7005;}
	.st10{fill:none;stroke:#000000;stroke-linecap:round;stroke-miterlimit:10;stroke-dasharray:11.6684,11.6684;}
	.st11{clip-path:url(#XMLID_00000087385915842038151010000001710330689490587562_);}
	.st12{fill:#643E23;stroke:#1D1D1B;stroke-width:6;stroke-linecap:round;stroke-miterlimit:10;}
	.st13{fill:none;stroke:#1D1D1B;stroke-width:6;stroke-linecap:round;stroke-miterlimit:10;}
</style>
<g>
	<g>
		<defs>
			<path id="XMLID_1_" d="M199.13,99.87c-4.26-2.75-19.26-3.75-17.76-24s18-18.88,27.25-18.38s24.75,4.53,26,27.95
				s-14.82,18-23.79,13.28s-20.71-12.73-15.46-21.48s15.12-5.75,15.38-1.38s-2.38,8.75-6.12,7.12"/>
		</defs>
		<use xlink:href="#XMLID_1_"  style="overflow:visible;fill:#B17F49;"/>
		<clipPath id="XMLID_00000097458484250650965400000000251119911299864976_">
			<use xlink:href="#XMLID_1_"  style="overflow:visible;"/>
		</clipPath>
		<g style="clip-path:url(#XMLID_00000097458484250650965400000000251119911299864976_);">
			<g>
				<path class="st1" d="M178.5,80.28c3.22,0,3.22-5,0-5C175.28,75.28,175.28,80.28,178.5,80.28L178.5,80.28z"/>
			</g>
		</g>
		<g style="clip-path:url(#XMLID_00000097458484250650965400000000251119911299864976_);">
			<g>
				<path class="st1" d="M194.93,94.35c-5.34-4.29-10.11-10.36-10.54-17.47c-0.5-8.37,6.58-14.1,14.13-15.86
					c7.17-1.67,15.2,0.17,20.83,4.94c7.52,6.37,8.48,16.41,7.65,25.66c-0.18,2.05,2.95,3.44,4.27,1.77
					c7.23-9.18,4.24-21.08-1.94-30.03c-1.82-2.63-6.15-0.13-4.32,2.52c4.67,6.77,8.47,16.68,2.72,23.97
					c1.42,0.59,2.85,1.18,4.27,1.77c1.01-11.28-1.04-23.14-10.55-30.34c-7.15-5.41-16.85-7.25-25.48-4.76
					c-8.44,2.43-15.91,8.98-16.55,18.15c-0.64,9.17,5.11,17.71,11.98,23.22C193.88,99.88,197.44,96.36,194.93,94.35L194.93,94.35z"
					/>
			</g>
		</g>
		<g style="clip-path:url(#XMLID_00000097458484250650965400000000251119911299864976_);">
			<g>
				<path class="st1" d="M205.5,84.36c11.65-4.22,3.27-19.88-6.67-14.04c-4.32,2.54-5.11,8.05-4.5,12.6
					c0.89,6.62,4.99,10.58,10.58,13.86c2.78,1.63,5.3-2.69,2.52-4.32c-5.16-3.02-8.79-6.8-8.3-13.1c0.2-2.59,1.62-5.97,4.92-5.16
					c3.2,0.78,3.05,4.28,0.11,5.34C201.17,80.62,202.46,85.46,205.5,84.36L205.5,84.36z"/>
			</g>
		</g>
		
			<use xlink:href="#XMLID_1_"  style="overflow:visible;fill:none;stroke:#1D1D1B;stroke-width:3;stroke-linecap:round;stroke-miterlimit:10;"/>
	</g>
	<path class="st2" d="M190.83,102.62c5.3,0.24,5.67-1.83,21,3s37.17-4.67,35.33-13.33c-1.83-8.67-12.17-20.2-14-3
		C232.33,97.12,119.67,99.45,190.83,102.62z"/>
	<path class="st3" d="M242,86.37c0-1.55,4.27-13.25,9.67-13.25"/>
	<path class="st3" d="M238.5,86.99c-0.38-3.12-3.81-13.21-8.67-10.88"/>
</g>
<g>
	<line class="st4" x1="312.3" y1="22.06" x2="333.85" y2="43.62"/>
	<line class="st4" x1="312.3" y1="43.62" x2="333.85" y2="22.06"/>
</g>
<text transform="matrix(1 0 0 1 315.9854 17.2402)" class="st5 st6 st7">O</text>
<g>
	<g>
		<line class="st8" x1="322.5" y1="33.12" x2="316.61" y2="34.25"/>
		<line class="st9" x1="305.12" y1="36.46" x2="12.14" y2="92.87"/>
		<line class="st8" x1="6.39" y1="93.98" x2="0.5" y2="95.12"/>
	</g>
</g>
<g>
	<g>
		<line class="st8" x1="322.5" y1="33.12" x2="317.92" y2="36.99"/>
		<line class="st10" x1="309" y1="44.52" x2="99.54" y2="221.48"/>
		<line class="st8" x1="95.08" y1="225.24" x2="90.5" y2="229.12"/>
	</g>
</g>
<g>
	<g>
		<defs>
			<path id="XMLID_2_" d="M77.8,165.64c-8.52-5.51-38.52-7.51-35.52-48.01s36-37.75,54.5-36.75s49.5,9.06,52,55.9
				s-29.65,36-47.57,26.55s-41.43-25.45-30.93-42.95s30.25-11.5,30.75-2.75s-4.75,17.5-12.25,14.25"/>
		</defs>
		<use xlink:href="#XMLID_2_"  style="overflow:visible;fill:#B17F49;"/>
		<clipPath id="XMLID_00000116917234531714988220000002060144223030086557_">
			<use xlink:href="#XMLID_2_"  style="overflow:visible;"/>
		</clipPath>
		<g style="clip-path:url(#XMLID_00000116917234531714988220000002060144223030086557_);">
			<g>
				<path class="st1" d="M36.53,126.47c6.43,0,6.45-10,0-10C30.1,116.47,30.09,126.47,36.53,126.47L36.53,126.47z"/>
			</g>
		</g>
		<g style="clip-path:url(#XMLID_00000116917234531714988220000002060144223030086557_);">
			<g>
				<path class="st1" d="M69.4,154.6c-16.26-12.8-30.82-38.67-12.68-56.27c17.61-17.09,48.42-14.54,64.92,2.69
					c12.2,12.74,13.53,31.41,11.9,48.11c-0.41,4.19,5.85,6.78,8.54,3.54c14.78-17.83,8.39-42.66-3.88-60.06
					c-3.68-5.22-12.36-0.23-8.63,5.05c9.27,13.14,17.15,33.83,5.45,47.94c2.85,1.18,5.69,2.36,8.54,3.54
					c1.73-17.75-0.19-36.94-11.57-51.39c-8.84-11.23-22.2-18.34-36.27-20.35c-27.35-3.89-60.79,13.77-57.11,45.06
					c1.84,15.66,11.57,29.63,23.74,39.22C67.33,165.61,74.45,158.58,69.4,154.6L69.4,154.6z"/>
			</g>
		</g>
		<g style="clip-path:url(#XMLID_00000116917234531714988220000002060144223030086557_);">
			<g>
				<path class="st1" d="M90.53,134.63c9.2-3.01,15.12-12.06,10.4-21.44c-4.44-8.8-15.88-11.55-24.15-6.39
					c-8.8,5.48-9.93,17.08-8.4,26.38c2.05,12.46,10.34,20.16,20.96,26.28c5.59,3.22,10.63-5.42,5.05-8.63
					c-6.47-3.73-13.12-8.17-15.32-15.65c-1.49-5.08-2.27-11.48,0.08-16.44c1.99-4.19,7.66-6.31,11.42-2.95
					c3.91,3.5,1.61,7.79-2.69,9.2C81.78,126.98,84.39,136.64,90.53,134.63L90.53,134.63z"/>
			</g>
		</g>
		
			<use xlink:href="#XMLID_2_"  style="overflow:visible;fill:none;stroke:#1D1D1B;stroke-width:6;stroke-linecap:round;stroke-miterlimit:10;"/>
	</g>
	<path class="st12" d="M61.2,171.14c10.6,0.47,11.33-3.67,42,6s74.33-9.33,70.67-26.67c-3.67-17.33-24.34-40.4-28-6
		C144.2,160.14-81.14,164.8,61.2,171.14z"/>
	<path class="st13" d="M163.53,138.64c0-3.11,8.54-26.5,19.33-26.5"/>
	<path class="st13" d="M156.53,139.89c-0.75-6.25-7.61-26.42-17.33-21.75"/>
</g>
</svg>
