<?xml version="1.0" encoding="utf-8"?>
<!-- Generator: Adobe Illustrator 27.1.1, SVG Export Plug-In . SVG Version: 6.00 Build 0)  -->
<svg version="1.1" id="Calque_1" xmlns="http://www.w3.org/2000/svg" xmlns:xlink="http://www.w3.org/1999/xlink" x="0px" y="0px"
	width="501.23" height="282" viewBox="0 0 501.23 282" style="enable-background:new 0 0 501.23 282;" xml:space="preserve">
<style type="text/css">
	.st0{clip-path:url(#XMLID_00000041263460216788909560000013206246534316769680_);}
	.st1{fill:#925F36;}
	.st2{fill:#643E23;stroke:#1D1D1B;stroke-width:3;stroke-linecap:round;stroke-miterlimit:10;}
	.st3{fill:none;stroke:#1D1D1B;stroke-width:3;stroke-linecap:round;stroke-miterlimit:10;}
	.st4{fill:#FFFFFF;stroke:#E20613;stroke-width:6;stroke-linecap:round;stroke-miterlimit:10;}
	.st5{fill:#E20613;stroke:#E20613;stroke-miterlimit:10;}
	.st6{font-family:'MyriadPro-Regular';}
	.st7{font-size:20px;}
	.st8{fill:none;stroke:#000000;stroke-linecap:round;stroke-miterlimit:10;}
	.st9{fill:none;stroke:#000000;stroke-linecap:round;stroke-miterlimit:10;stroke-dasharray:12.1012,12.1012;}
	.st10{fill:none;stroke:#000000;stroke-linecap:round;stroke-miterlimit:10;stroke-dasharray:12.1062,12.1062;}
	.st11{clip-path:url(#XMLID_00000157279133545390705920000017088398437083860153_);}
	.st12{fill:#643E23;stroke:#1D1D1B;stroke-width:6;stroke-linecap:round;stroke-miterlimit:10;}
	.st13{fill:none;stroke:#1D1D1B;stroke-width:6;stroke-linecap:round;stroke-miterlimit:10;}
</style>
<g>
	<g>
		<defs>
			<path id="XMLID_1_" d="M33.36,254.25c-4.26-2.75-19.26-3.75-17.76-24s18-18.88,27.25-18.38s24.75,4.53,26,27.95
				s-14.82,18-23.79,13.28s-20.71-12.73-15.46-21.48s15.12-5.75,15.37-1.38s-2.38,8.75-6.12,7.12"/>
		</defs>
		<use xlink:href="#XMLID_1_"  style="overflow:visible;fill:#B17F49;"/>
		<clipPath id="XMLID_00000015317176433468224900000013588606548222436509_">
			<use xlink:href="#XMLID_1_"  style="overflow:visible;"/>
		</clipPath>
		<g style="clip-path:url(#XMLID_00000015317176433468224900000013588606548222436509_);">
			<g>
				<path class="st1" d="M12.73,234.67c3.22,0,3.22-5,0-5C9.51,229.67,9.5,234.67,12.73,234.67L12.73,234.67z"/>
			</g>
		</g>
		<g style="clip-path:url(#XMLID_00000015317176433468224900000013588606548222436509_);">
			<g>
				<path class="st1" d="M29.16,248.73c-5.34-4.29-10.11-10.36-10.54-17.47c-0.5-8.37,6.58-14.1,14.13-15.86
					c7.17-1.67,15.2,0.17,20.83,4.94c7.52,6.37,8.48,16.41,7.65,25.66c-0.18,2.05,2.95,3.44,4.27,1.77
					c7.23-9.18,4.24-21.08-1.94-30.03c-1.82-2.63-6.15-0.13-4.32,2.52c4.67,6.77,8.47,16.68,2.72,23.97
					c1.42,0.59,2.85,1.18,4.27,1.77c1.01-11.28-1.04-23.14-10.55-30.34c-7.15-5.41-16.85-7.25-25.48-4.76
					c-8.44,2.43-15.91,8.98-16.55,18.15c-0.64,9.17,5.11,17.71,11.98,23.22C28.11,254.26,31.67,250.75,29.16,248.73L29.16,248.73z"
					/>
			</g>
		</g>
		<g style="clip-path:url(#XMLID_00000015317176433468224900000013588606548222436509_);">
			<g>
				<path class="st1" d="M39.73,238.74c11.65-4.22,3.27-19.88-6.67-14.04c-4.32,2.54-5.11,8.05-4.5,12.6
					c0.89,6.62,4.99,10.58,10.58,13.86c2.78,1.63,5.3-2.69,2.52-4.32c-5.16-3.02-8.79-6.8-8.3-13.1c0.2-2.59,1.62-5.97,4.92-5.16
					c3.2,0.78,3.05,4.28,0.11,5.34C35.39,235.01,36.69,239.84,39.73,238.74L39.73,238.74z"/>
			</g>
		</g>
		
			<use xlink:href="#XMLID_1_"  style="overflow:visible;fill:none;stroke:#1D1D1B;stroke-width:3;stroke-linecap:round;stroke-miterlimit:10;"/>
	</g>
	<path class="st2" d="M25.06,257c5.3,0.24,5.67-1.83,21,3c15.33,4.83,37.17-4.67,35.33-13.33c-1.83-8.67-12.17-20.2-14-3
		C66.56,251.5-46.11,253.83,25.06,257z"/>
	<path class="st3" d="M76.23,240.75c0-1.55,4.27-13.25,9.67-13.25"/>
	<path class="st3" d="M72.73,241.38c-0.38-3.12-3.81-13.21-8.67-10.88"/>
</g>
<g>
	<line class="st4" x1="146.52" y1="176.45" x2="168.08" y2="198"/>
	<line class="st4" x1="146.52" y1="198" x2="168.08" y2="176.45"/>
</g>
<text transform="matrix(1 0 0 1 150.2129 171.625)" class="st5 st6 st7">O</text>
<g>
	<g>
		<line class="st8" x1="500.73" y1="121.5" x2="494.84" y2="122.63"/>
		<line class="st9" x1="482.95" y1="124.92" x2="13.56" y2="215.22"/>
		<line class="st8" x1="7.62" y1="216.37" x2="1.73" y2="217.5"/>
	</g>
</g>
<g>
	<g>
		<line class="st8" x1="378.73" y1="0.5" x2="374.14" y2="4.37"/>
		<line class="st10" x1="364.89" y1="12.18" x2="54.94" y2="273.73"/>
		<line class="st8" x1="50.31" y1="277.63" x2="45.73" y2="281.5"/>
	</g>
</g>
<g>
	<g>
		<defs>
			<path id="XMLID_2_" d="M401.43,54.97c8.52,5.51,38.52,7.51,35.52,48.01s-36,37.75-54.5,36.75s-49.5-9.06-52-55.9
				s29.65-36,47.57-26.55c17.93,9.45,41.43,25.45,30.93,42.95s-30.25,11.5-30.75,2.75s4.75-17.5,12.25-14.25"/>
		</defs>
		<use xlink:href="#XMLID_2_"  style="overflow:visible;fill:#B17F49;"/>
		<clipPath id="XMLID_00000054958508993671416490000016276545540979867564_">
			<use xlink:href="#XMLID_2_"  style="overflow:visible;"/>
		</clipPath>
		<g style="clip-path:url(#XMLID_00000054958508993671416490000016276545540979867564_);">
			<g>
				<path class="st1" d="M442.7,104.14c6.43,0,6.45-10,0-10C436.26,94.14,436.25,104.14,442.7,104.14L442.7,104.14z"/>
			</g>
		</g>
		<g style="clip-path:url(#XMLID_00000054958508993671416490000016276545540979867564_);">
			<g>
				<path class="st1" d="M409.83,66.01c16.26,12.8,30.82,38.67,12.68,56.27c-17.61,17.09-48.42,14.54-64.92-2.69
					c-12.2-12.74-13.53-31.41-11.9-48.11c0.41-4.19-5.85-6.78-8.54-3.54c-14.78,17.83-8.39,42.66,3.88,60.06
					c3.68,5.22,12.36,0.23,8.63-5.05c-9.27-13.14-17.15-33.83-5.45-47.94c-2.85-1.18-5.69-2.36-8.54-3.54
					c-1.73,17.75,0.19,36.94,11.57,51.39c8.84,11.23,22.2,18.34,36.27,20.35c27.35,3.89,60.79-13.77,57.11-45.06
					c-1.84-15.66-11.57-29.63-23.74-39.22C411.9,55.01,404.77,62.03,409.83,66.01L409.83,66.01z"/>
			</g>
		</g>
		<g style="clip-path:url(#XMLID_00000054958508993671416490000016276545540979867564_);">
			<g>
				<path class="st1" d="M388.7,85.99c-9.2,3.01-15.12,12.06-10.4,21.44c4.44,8.8,15.88,11.55,24.15,6.39
					c8.8-5.48,9.93-17.08,8.4-26.38c-2.05-12.46-10.34-20.16-20.96-26.28c-5.59-3.22-10.63,5.42-5.05,8.63
					c6.47,3.73,13.12,8.17,15.32,15.65c1.49,5.08,2.27,11.48-0.08,16.44c-1.99,4.19-7.66,6.31-11.42,2.95
					c-3.91-3.5-1.61-7.79,2.69-9.2C397.45,93.64,394.84,83.98,388.7,85.99L388.7,85.99z"/>
			</g>
		</g>
		
			<use xlink:href="#XMLID_2_"  style="overflow:visible;fill:none;stroke:#1D1D1B;stroke-width:6;stroke-linecap:round;stroke-miterlimit:10;"/>
	</g>
	<path class="st12" d="M418.03,49.48c-10.6-0.47-11.33,3.67-42-6s-74.33,9.33-70.67,26.67c3.67,17.33,24.34,40.4,28,6
		C335.03,60.48,560.36,55.81,418.03,49.48z"/>
	<path class="st13" d="M315.7,81.98c0,3.11-8.54,26.5-19.33,26.5"/>
	<path class="st13" d="M322.7,80.73c0.75,6.25,7.61,26.42,17.33,21.75"/>
</g>
</svg>
