<?xml version="1.0" encoding="utf-8"?>
<!-- Generator: Adobe Illustrator 27.1.1, SVG Export Plug-In . SVG Version: 6.00 Build 0)  -->
<svg version="1.1" id="Calque_1" xmlns="http://www.w3.org/2000/svg" xmlns:xlink="http://www.w3.org/1999/xlink" x="0px" y="0px"
	 viewBox="0 0 304.91 164.05" style="enable-background:new 0 0 304.91 164.05;" xml:space="preserve">
<style type="text/css">
	.st0{fill:none;stroke:#000000;stroke-width:2;stroke-linecap:round;stroke-miterlimit:10;}
	.st1{fill:#FFFFFF;stroke:#E20613;stroke-width:2;stroke-linecap:round;stroke-miterlimit:10;}
	.st2{fill:#E20613;stroke:#E20613;stroke-miterlimit:10;}
	.st3{font-family:'MyriadPro-Regular';}
	.st4{font-size:20px;}
	.st5{fill:none;stroke:#00A700;stroke-width:2;stroke-linecap:round;stroke-miterlimit:10;}
	.st6{fill:none;stroke:#E20613;stroke-width:2;stroke-linecap:round;stroke-miterlimit:10;}
</style>
<line class="st0" x1="1" y1="163.05" x2="303.91" y2="20.37"/>
<g>
	<line class="st1" x1="195.13" y1="55.4" x2="216.69" y2="76.95"/>
	<line class="st1" x1="195.13" y1="76.95" x2="216.69" y2="55.4"/>
</g>
<text transform="matrix(1 0 0 1 199.0204 52.1152)" class="st2 st3 st4">O</text>
<text transform="matrix(1 0 0 1 280.87 17.2402)" class="st2 st3 st4">M</text>
<line class="st0" x1="119.91" y1="99.37" x2="125.91" y2="112.37"/>
<text transform="matrix(1 0 0 1 29.8007 128.9902)" class="st2 st3 st4">M’</text>
<line class="st5" x1="81.92" y1="118.78" x2="79.9" y2="132.95"/>
<line class="st5" x1="87.76" y1="115.76" x2="86.06" y2="129.97"/>
<line class="st5" x1="164.92" y1="78.78" x2="162.9" y2="92.95"/>
<line class="st5" x1="170.76" y1="75.76" x2="169.06" y2="89.97"/>
<line class="st5" x1="241.92" y1="42.78" x2="239.9" y2="56.95"/>
<line class="st5" x1="247.76" y1="39.76" x2="246.06" y2="53.97"/>
<line class="st6" x1="285.91" y1="21.37" x2="291.91" y2="34.37"/>
<line class="st6" x1="36.91" y1="138.37" x2="42.91" y2="151.37"/>
</svg>
