<?xml version="1.0" encoding="utf-8"?>
<!-- Generator: Adobe Illustrator 27.1.1, SVG Export Plug-In . SVG Version: 6.00 Build 0)  -->
<svg version="1.1" id="Calque_1" xmlns="http://www.w3.org/2000/svg" xmlns:xlink="http://www.w3.org/1999/xlink" x="0px" y="0px"
	 viewBox="0 0 382 202.62" style="enable-background:new 0 0 382 202.62;" xml:space="preserve">
<style type="text/css">
	.st0{fill:none;stroke:#000000;stroke-width:2;stroke-linecap:round;stroke-miterlimit:10;}
	.st1{fill:#FFFFFF;stroke:#E20613;stroke-width:2;stroke-linecap:round;stroke-miterlimit:10;}
	.st2{fill:#E20613;stroke:#E20613;stroke-miterlimit:10;}
	.st3{font-family:'MyriadPro-Regular';}
	.st4{font-size:20px;}
	.st5{fill:none;stroke:#00A700;stroke-width:2;stroke-linecap:round;stroke-miterlimit:10;}
	.st6{fill:none;stroke:#E20613;stroke-width:2;stroke-linecap:round;stroke-miterlimit:10;}
</style>
<line class="st0" x1="1" y1="201.62" x2="381" y2="22.62"/>
<g>
	<line class="st1" x1="24.3" y1="175.06" x2="45.85" y2="196.62"/>
	<line class="st1" x1="24.3" y1="196.62" x2="45.85" y2="175.06"/>
</g>
<text transform="matrix(1 0 0 1 27.9854 170.2402)" class="st2 st3 st4">O</text>
<text transform="matrix(1 0 0 1 108.835 131.2402)" class="st2 st3 st4">M</text>
<line class="st0" x1="197" y1="101.62" x2="203" y2="114.62"/>
<line class="st0" x1="280" y1="62.62" x2="286" y2="75.62"/>
<text transform="matrix(1 0 0 1 355.7656 17.2402)" class="st2 st3 st4">M’</text>
<line class="st5" x1="78.01" y1="159.03" x2="75.99" y2="173.2"/>
<line class="st5" x1="83.85" y1="156.01" x2="82.15" y2="170.22"/>
<line class="st5" x1="159.01" y1="121.03" x2="156.99" y2="135.2"/>
<line class="st5" x1="164.85" y1="118.01" x2="163.15" y2="132.22"/>
<line class="st5" x1="242.01" y1="81.03" x2="239.99" y2="95.2"/>
<line class="st5" x1="247.85" y1="78.01" x2="246.15" y2="92.22"/>
<line class="st5" x1="319.01" y1="45.03" x2="316.99" y2="59.2"/>
<line class="st5" x1="324.85" y1="42.01" x2="323.15" y2="56.22"/>
<line class="st6" x1="363" y1="23.62" x2="369" y2="36.62"/>
<line class="st6" x1="114" y1="140.62" x2="120" y2="153.62"/>
</svg>
