<?xml version="1.0" encoding="utf-8"?>
<!-- Generator: Adobe Illustrator 28.0.0, SVG Export Plug-In . SVG Version: 6.00 Build 0)  -->
<svg version="1.1" id="Calque_1" xmlns="http://www.w3.org/2000/svg" xmlns:xlink="http://www.w3.org/1999/xlink" x="0px" y="0px"
	 viewBox="0 0 267.9 141.4" style="enable-background:new 0 0 267.9 141.4;" xml:space="preserve">
<style type="text/css">
	.st0{fill:#F9B233;stroke:#000000;stroke-linecap:round;stroke-linejoin:round;stroke-miterlimit:10;}
	.st1{fill:#BC8D3F;stroke:#000000;stroke-linecap:round;stroke-linejoin:round;stroke-miterlimit:10;}
	.st2{fill:#FBC263;stroke:#000000;stroke-linejoin:round;stroke-miterlimit:10;}
	.st3{fill:#B17F4A;stroke:#000000;stroke-linecap:round;stroke-linejoin:round;stroke-miterlimit:10;}
	.st4{fill:#B17F4A;stroke:#000000;stroke-linejoin:round;stroke-miterlimit:10;}
	.st5{fill:#FBC263;}
	.st6{fill:#BE9758;}
	.st7{fill:#F4EBE0;}
</style>
<g>
	<polygon class="st0" points="123.9,69.2 43.2,56.2 43.2,9.5 123.9,22.5 	"/>
	<polygon class="st1" points="167.1,13.5 123.9,22.5 123.9,69.2 167.1,60.2 	"/>
	<g>
		<polygon class="st2" points="167.1,13.5 123.9,22.7 43.2,9.5 86.5,0.5 		"/>
	</g>
	<polygon class="st3" points="150,26.1 142.6,27.7 142.6,18.7 150,17.1 	"/>
	<polygon class="st4" points="142.6,18.7 129,16.1 136.3,14 150,17.1 	"/>
	<polygon class="st3" points="150,63.8 142.6,65.4 142.6,56.4 150,54.8 	"/>
	<g>
		<circle class="st5" cx="53.6" cy="49" r="6.4"/>
		<circle class="st5" cx="50.7" cy="41.3" r="4.8"/>
		<circle class="st5" cx="64.5" cy="45.7" r="3.3"/>
	</g>
	
		<ellipse transform="matrix(0.9973 -7.358568e-02 7.358568e-02 0.9973 -3.3802 9.9328)" class="st6" cx="133.1" cy="50.8" rx="4.6" ry="6.5"/>
	
		<ellipse transform="matrix(0.9973 -7.358568e-02 7.358568e-02 0.9973 -3.0076 10.3885)" class="st6" cx="139.5" cy="46" rx="3.2" ry="4.5"/>
	<polygon class="st7" points="110.5,42.2 54.7,33.2 54.7,17.2 110.5,26.2 	"/>
	<g>
		<g>
			<path d="M59.3,21.5C59.2,21.5,59.2,21.5,59.3,21.5c-0.7,0.3-1,0.5-1.7,0.8c-0.1-0.4-0.1-0.5-0.2-0.9c0.8-0.4,1.2-0.6,2.1-1
				c0.4,0,0.7,0,1.1,0c0,3.5,0,5.2,0,8.7c-0.5,0-0.7,0-1.2-0.1C59.3,26.1,59.3,24.6,59.3,21.5z"/>
			<path d="M67.9,30.1c0-1,0-1.5,0-2.4c-1.8-0.3-2.6-0.4-4.4-0.6c0-0.3,0-0.5,0-0.8c1.7-2.1,2.5-3.1,4.2-5.2
				c0.6,0.1,0.8,0.1,1.4,0.2c0,2.2,0,3.4,0,5.6c0.5,0.1,0.8,0.1,1.3,0.2c0,0.4,0,0.6,0,1c-0.5-0.1-0.8-0.1-1.3-0.2c0,1,0,1.5,0,2.5
				C68.6,30.2,68.4,30.2,67.9,30.1z M67.9,26.7c0-1.2,0-1.8,0-3c0-0.5,0-0.9,0-1.4c0,0,0,0,0,0c-0.3,0.5-0.5,0.8-0.8,1.2
				c-0.9,1.1-1.4,1.6-2.3,2.7c0,0,0,0,0,0C66.1,26.4,66.7,26.5,67.9,26.7z"/>
			<path d="M71,32.4c0.3-0.8,0.7-2.2,0.9-3.2c0.6,0.1,0.9,0.1,1.4,0.1c-0.3,1.1-1,2.6-1.4,3.1C71.6,32.4,71.4,32.4,71,32.4z"/>
			<path d="M77.2,23.9C77.2,23.9,77.2,23.9,77.2,23.9c-0.7,0.2-1,0.3-1.7,0.5c-0.1-0.4-0.1-0.6-0.2-1c0.8-0.3,1.2-0.4,2.1-0.7
				c0.4,0.1,0.7,0.1,1.1,0.2c0,3.7,0,5.6,0,9.4c-0.5-0.1-0.7-0.2-1.2-0.3C77.2,28.7,77.2,27.1,77.2,23.9z"/>
			<path d="M87.6,25.8c-1.4-0.3-2.2-0.4-3.6-0.7c-0.1,1-0.2,1.4-0.4,2.4c0.2,0,0.4,0,0.8,0.1c0.7,0.2,1.5,0.5,2,0.9
				c0.7,0.6,1.4,1.5,1.4,2.8c0,1.9-1.5,3-3.5,2.5c-1-0.2-1.9-0.7-2.4-1.1c0.1-0.4,0.2-0.5,0.3-0.9c0.4,0.3,1.2,0.8,2,1
				c1.2,0.3,2.3-0.3,2.2-1.6c0-1.2-0.8-2.3-2.7-2.7c-0.5-0.1-1-0.2-1.3-0.2c0.2-1.8,0.4-2.7,0.6-4.4c1.8,0.4,2.7,0.5,4.5,0.9
				C87.6,25.2,87.6,25.4,87.6,25.8z"/>
			<path d="M94.2,31.8C94.2,31.8,94.2,31.8,94.2,31.8c0.2-0.2,0.5-0.5,0.7-0.7c0.8-0.9,1.2-1.3,2.1-2.3c0.6,0.1,0.9,0.1,1.5,0.2
				c-1.1,1.1-1.6,1.7-2.7,2.7c1.2,1.9,1.9,2.9,3.1,4.8c-0.6-0.1-0.9-0.1-1.6-0.2c-1-1.6-1.5-2.4-2.4-3.9c-0.3,0.3-0.4,0.4-0.7,0.7
				c0,1.1,0,1.7,0,2.8c-0.5-0.1-0.8-0.1-1.3-0.2c0-4.3,0-6.5,0-10.8c0.5,0.1,0.8,0.1,1.3,0.2C94.2,27.7,94.2,29,94.2,31.8z"/>
			<path d="M105.8,29.3c0,0.6-0.1,1.2-0.1,2.1c0,1.8,0,2.7,0,4.5c0,1.8-0.3,2.8-1,3.5c-0.7,0.7-1.7,0.8-2.6,0.7
				c-0.8-0.1-1.8-0.4-2.3-0.9c0.1-0.4,0.2-0.6,0.3-1c0.5,0.4,1.2,0.7,2.1,0.8c1.3,0.1,2.3-0.6,2.3-2.5c0-0.3,0-0.5,0-0.9
				c0,0,0,0,0,0c-0.4,0.7-1.2,1.2-2.2,1.2c-1.7-0.1-3-1.9-3-4c0-2.5,1.6-3.8,3.2-3.8c1.2,0.1,1.9,0.8,2.2,1.4c0,0,0,0,0,0
				c0-0.5,0-0.7,0.1-1.2C105.1,29.3,105.4,29.3,105.8,29.3z M104.5,32.3c0-0.2,0-0.4-0.1-0.6c-0.2-0.8-0.9-1.5-1.8-1.5
				c-1.2-0.1-2.1,1-2.1,2.7c0,1.5,0.7,2.8,2.1,2.9c0.8,0.1,1.5-0.5,1.8-1.3c0.1-0.2,0.1-0.5,0.1-0.7
				C104.5,33.1,104.5,32.8,104.5,32.3z"/>
		</g>
	</g>
</g>
<g>
	<polygon class="st0" points="218.1,115.5 126,100.7 126,47.4 218.1,62.2 	"/>
	<polygon class="st1" points="267.4,52 218.1,62.2 218.1,115.5 267.4,105.2 	"/>
	<g>
		<polygon class="st2" points="267.4,52 218.1,62.5 126,47.4 175.4,37.1 		"/>
	</g>
	<polygon class="st3" points="247.9,66.3 239.5,68.1 239.5,57.9 247.9,56.1 	"/>
	<polygon class="st4" points="239.5,57.9 223.9,54.8 232.3,52.5 247.9,56.1 	"/>
	<polygon class="st3" points="247.9,109.3 239.5,111.1 239.5,100.9 247.9,99.1 	"/>
	<g>
		<circle class="st5" cx="137.9" cy="92.4" r="7.3"/>
		<circle class="st5" cx="134.6" cy="83.6" r="5.4"/>
		<circle class="st5" cx="150.3" cy="88.7" r="3.8"/>
	</g>
	
		<ellipse transform="matrix(0.9973 -7.358568e-02 7.358568e-02 0.9973 -6.3363 17.0792)" class="st6" cx="228.6" cy="94.5" rx="5.2" ry="7.5"/>
	
		<ellipse transform="matrix(0.9973 -7.358568e-02 7.358568e-02 0.9973 -5.9112 17.599)" class="st6" cx="235.9" cy="89" rx="3.6" ry="5.1"/>
	<polygon class="st7" points="202.8,84.6 139.2,74.4 139.2,56.2 202.8,66.4 	"/>
	<g>
		<g>
			<path d="M145.3,62.1C145.3,62.1,145.3,62.1,145.3,62.1c-0.7,0.4-1,0.5-1.7,0.9c-0.1-0.4-0.1-0.6-0.2-1c0.8-0.5,1.2-0.7,2-1.2
				c0.4,0,0.6,0,1.1,0c0,4,0,6,0,9.9c-0.5,0-0.7,0-1.2-0.1C145.3,67.3,145.3,65.6,145.3,62.1z"/>
			<path d="M153.9,71.6c0-1.1,0-1.7,0-2.8c-1.7-0.2-2.6-0.4-4.3-0.5c0-0.4,0-0.5,0-0.9c1.7-2.4,2.5-3.6,4.2-6
				c0.5,0.1,0.8,0.1,1.4,0.2c0,2.5,0,3.8,0,6.4c0.5,0.1,0.8,0.1,1.3,0.2c0,0.4,0,0.7,0,1.1c-0.5-0.1-0.8-0.1-1.3-0.2
				c0,1.1,0,1.7,0,2.8C154.6,71.7,154.3,71.7,153.9,71.6z M153.9,67.8c0-1.4,0-2,0-3.4c0-0.5,0-1.1,0-1.6c0,0,0,0,0,0
				c-0.3,0.6-0.5,1-0.8,1.4c-0.9,1.3-1.4,1.9-2.3,3.2c0,0,0,0,0,0C152,67.5,152.6,67.6,153.9,67.8z"/>
			<path d="M156.9,74.1c0.3-0.9,0.7-2.5,0.9-3.6c0.6,0,0.8,0.1,1.4,0.1c-0.3,1.3-1,2.9-1.4,3.6C157.5,74.1,157.3,74.1,156.9,74.1z"
				/>
			<path d="M160.2,70.1c0-1.3,0.7-2.1,1.9-2.4c0,0,0,0,0-0.1c-1-0.8-1.5-1.7-1.5-2.6c0-1.7,1.3-2.6,2.9-2.3c1.8,0.3,2.7,1.8,2.7,3.1
				c0,0.9-0.4,1.8-1.5,2.2c0,0,0,0,0,0c1.2,0.8,1.9,1.9,1.9,3.1c0,1.8-1.4,2.8-3.2,2.4C161.4,73.2,160.2,71.6,160.2,70.1z
				 M165.2,71.1c0-1.3-0.8-2.1-2.1-2.7c-1.1,0.1-1.7,0.8-1.7,1.8c0,1,0.7,2.1,1.9,2.4C164.5,72.8,165.2,72.2,165.2,71.1z
				 M161.7,65.1c0,1,0.7,1.7,1.8,2.3c0.8-0.1,1.4-0.7,1.4-1.6c0-0.8-0.4-1.8-1.6-2C162.3,63.5,161.7,64.2,161.7,65.1z"/>
			<path d="M173.9,70.3c0,3.7-1.2,5.5-3.3,5c-1.8-0.4-3.1-2.7-3.1-6.2c0-3.6,1.4-5.3,3.3-4.9C172.8,64.6,173.9,66.8,173.9,70.3z
				 M168.8,69.4c0,2.8,0.7,4.5,1.9,4.8c1.3,0.3,1.9-1.3,1.9-4.1c0-2.7-0.6-4.5-1.9-4.8C169.6,65.1,168.8,66.4,168.8,69.4z"/>
			<path d="M180.7,67.5c-1.4-0.3-2.1-0.4-3.6-0.7c-0.1,1.1-0.2,1.7-0.4,2.8c0.2,0,0.4,0,0.8,0.1c0.7,0.1,1.4,0.5,2,1
				c0.7,0.6,1.3,1.7,1.3,3.1c0,2.2-1.5,3.5-3.5,3c-1-0.2-1.9-0.8-2.3-1.2c0.1-0.4,0.2-0.6,0.3-1.1c0.4,0.4,1.2,0.9,2,1.1
				c1.2,0.3,2.2-0.4,2.2-1.9c0-1.4-0.8-2.6-2.7-3c-0.5-0.1-1-0.1-1.3-0.2c0.2-2.1,0.4-3.1,0.6-5.1c1.8,0.3,2.7,0.5,4.5,0.8
				C180.7,66.8,180.7,67,180.7,67.5z"/>
			<path d="M187.2,74C187.2,74,187.2,74,187.2,74c0.2-0.3,0.4-0.6,0.6-0.9c0.8-1.1,1.2-1.6,2-2.7c0.6,0.1,0.9,0.1,1.5,0.2
				c-1.1,1.3-1.6,2-2.7,3.2c1.2,2.2,1.8,3.2,3.1,5.4c-0.6-0.1-0.9-0.1-1.5-0.2c-1-1.8-1.4-2.6-2.4-4.4c-0.3,0.3-0.4,0.5-0.6,0.8
				c0,1.3,0,1.9,0,3.2c-0.5-0.1-0.8-0.1-1.3-0.2c0-4.9,0-7.4,0-12.4c0.5,0.1,0.8,0.1,1.3,0.2C187.2,69.3,187.2,70.9,187.2,74z"/>
			<path d="M198.7,70.9c0,0.6-0.1,1.3-0.1,2.4c0,2,0,3.1,0,5.1c0,2-0.3,3.2-1,4c-0.7,0.8-1.7,1-2.5,0.9c-0.8-0.1-1.8-0.4-2.3-0.9
				c0.1-0.5,0.2-0.7,0.3-1.2c0.5,0.4,1.2,0.8,2,0.9c1.3,0.1,2.2-0.7,2.2-2.9c0-0.4,0-0.6,0-1c0,0,0,0,0,0c-0.4,0.8-1.1,1.4-2.2,1.3
				c-1.7-0.1-3-2.1-3-4.5c0-2.9,1.5-4.4,3.1-4.4c1.2,0,1.9,0.8,2.2,1.6c0,0,0,0,0,0c0-0.5,0-0.8,0.1-1.3
				C198,70.9,198.2,70.9,198.7,70.9z M197.4,74.4c0-0.3,0-0.5-0.1-0.7c-0.2-0.9-0.8-1.7-1.8-1.7c-1.2,0-2.1,1.2-2.1,3.2
				c0,1.7,0.7,3.2,2.1,3.3c0.8,0,1.5-0.5,1.8-1.5c0.1-0.3,0.1-0.6,0.1-0.8C197.4,75.3,197.4,75,197.4,74.4z"/>
		</g>
	</g>
</g>
<g>
	<polygon class="st0" points="96.6,98.8 23.8,87.1 23.8,45 96.6,56.7 	"/>
	<polygon class="st1" points="135.6,48.6 96.6,56.7 96.6,98.8 135.6,90.7 	"/>
	<g>
		<polygon class="st2" points="135.6,48.6 96.6,56.9 23.8,45 62.8,36.8 		"/>
	</g>
	<polygon class="st3" points="120.1,59.9 113.5,61.4 113.5,53.3 120.1,51.8 	"/>
	<polygon class="st4" points="113.5,53.3 101.2,50.9 107.8,49 120.1,51.8 	"/>
	<polygon class="st3" points="120.1,93.9 113.5,95.4 113.5,87.3 120.1,85.8 	"/>
	<g>
		<circle class="st5" cx="33.2" cy="80.6" r="5.8"/>
		<circle class="st5" cx="30.6" cy="73.6" r="4.3"/>
		<circle class="st5" cx="43" cy="77.6" r="3"/>
	</g>
	
		<ellipse transform="matrix(0.9973 -7.358568e-02 7.358568e-02 0.9973 -5.767 7.9425)" class="st6" cx="104.9" cy="82.2" rx="4.1" ry="5.9"/>
	
		<ellipse transform="matrix(0.9973 -7.358568e-02 7.358568e-02 0.9973 -5.431 8.3534)" class="st6" cx="110.6" cy="77.9" rx="2.9" ry="4.1"/>
	<polygon class="st7" points="84.5,74.4 34.2,66.3 34.2,51.9 84.5,60 	"/>
	<g>
		<g>
			<path d="M39.9,57.1C39.9,57.1,39.9,57.1,39.9,57.1c-0.5,0.3-0.8,0.4-1.3,0.7c-0.1-0.3-0.1-0.5-0.2-0.8c0.6-0.4,1-0.6,1.6-0.9
				c0.3,0,0.5,0,0.9,0c0,3.1,0,4.7,0,7.9c-0.4,0-0.6,0-1-0.1C39.9,61.2,39.9,59.9,39.9,57.1z"/>
			<path d="M46.6,64.6c0-0.9,0-1.3,0-2.2c-1.4-0.2-2.1-0.3-3.4-0.4c0-0.3,0-0.4,0-0.7c1.3-1.9,2-2.9,3.3-4.8c0.4,0,0.6,0.1,1.1,0.1
				c0,2,0,3,0,5c0.4,0.1,0.6,0.1,1,0.2c0,0.3,0,0.5,0,0.9c-0.4-0.1-0.6-0.1-1-0.2c0,0.9,0,1.3,0,2.2C47.2,64.7,47,64.7,46.6,64.6z
				 M46.6,61.6c0-1.1,0-1.6,0-2.7c0-0.4,0-0.8,0-1.3c0,0,0,0,0,0c-0.2,0.4-0.4,0.8-0.6,1.1c-0.7,1-1.1,1.5-1.8,2.5c0,0,0,0,0,0
				C45.2,61.4,45.7,61.5,46.6,61.6z"/>
			<path d="M49,66.6c0.3-0.7,0.6-2,0.7-2.9c0.4,0,0.7,0,1.1,0.1c-0.3,1-0.8,2.3-1.1,2.9C49.5,66.6,49.3,66.6,49,66.6z"/>
			<path d="M56.1,59.1c-1.1-0.2-1.7-0.3-2.8-0.5c-0.1,0.8-0.2,1.2-0.3,2.1c0.2,0,0.3,0,0.6,0.1c0.6,0.1,1.1,0.4,1.6,0.8
				c0.6,0.5,1.1,1.3,1.1,2.4c0,1.6-1.2,2.6-2.8,2.3c-0.8-0.2-1.5-0.6-1.8-0.9c0.1-0.3,0.2-0.5,0.3-0.8c0.3,0.3,0.9,0.6,1.6,0.8
				c0.9,0.2,1.8-0.3,1.8-1.4c0-1.1-0.6-2-2.1-2.3c-0.4-0.1-0.8-0.1-1-0.1c0.2-1.5,0.3-2.3,0.5-3.9c1.4,0.2,2.1,0.4,3.5,0.7
				C56.1,58.5,56.1,58.7,56.1,59.1z"/>
			<path d="M62.4,59.4c0,0.3,0,0.5,0,0.8c-1.3,2.9-1.9,4.3-3.2,7.1c-0.4-0.1-0.6-0.1-1-0.2c1.3-2.7,1.9-4.1,3.2-6.8c0,0,0,0,0,0
				c-1.4-0.3-2.2-0.4-3.6-0.7c0-0.4,0-0.6,0-0.9C59.6,58.8,60.5,59,62.4,59.4z"/>
			<path d="M67.8,61.4c-1.1-0.2-1.7-0.3-2.8-0.5c-0.1,0.9-0.2,1.3-0.3,2.2c0.2,0,0.3,0,0.6,0.1c0.6,0.1,1.1,0.4,1.6,0.8
				c0.6,0.5,1.1,1.4,1.1,2.5c0,1.7-1.2,2.8-2.8,2.4c-0.8-0.2-1.5-0.6-1.8-1c0.1-0.3,0.2-0.5,0.3-0.8c0.3,0.3,0.9,0.7,1.6,0.8
				c0.9,0.2,1.8-0.4,1.8-1.5c0-1.1-0.6-2.1-2.1-2.4c-0.4-0.1-0.8-0.1-1-0.1c0.2-1.6,0.3-2.4,0.5-4.1c1.4,0.3,2.1,0.4,3.5,0.7
				C67.8,60.8,67.8,61,67.8,61.4z"/>
			<path d="M73,66.6C73,66.6,73,66.6,73,66.6c0.2-0.2,0.4-0.5,0.5-0.7c0.6-0.8,1-1.3,1.6-2.1c0.5,0.1,0.7,0.1,1.2,0.1
				c-0.9,1-1.3,1.5-2.1,2.5c1,1.7,1.5,2.6,2.4,4.3c-0.5-0.1-0.7-0.1-1.2-0.1c-0.8-1.4-1.1-2.1-1.9-3.5c-0.2,0.2-0.3,0.4-0.5,0.6
				c0,1,0,1.5,0,2.5c-0.4-0.1-0.6-0.1-1-0.2c0-3.9,0-5.9,0-9.8c0.4,0.1,0.6,0.1,1,0.1C73,62.8,73,64.1,73,66.6z"/>
			<path d="M82.1,64.1c0,0.5,0,1.1,0,1.9c0,1.6,0,2.4,0,4c0,1.6-0.3,2.6-0.8,3.1c-0.5,0.6-1.3,0.8-2,0.7c-0.7-0.1-1.4-0.3-1.8-0.7
				c0.1-0.4,0.2-0.5,0.3-0.9c0.4,0.3,0.9,0.6,1.6,0.7c1,0.1,1.8-0.6,1.8-2.3c0-0.3,0-0.5,0-0.8c0,0,0,0,0,0
				c-0.3,0.6-0.9,1.1-1.8,1.1c-1.4-0.1-2.3-1.6-2.3-3.5c0-2.3,1.2-3.5,2.5-3.5c1,0,1.5,0.7,1.7,1.2c0,0,0,0,0,0c0-0.4,0-0.6,0-1
				C81.5,64.1,81.7,64.1,82.1,64.1z M81,66.8c0-0.2,0-0.4-0.1-0.6c-0.2-0.7-0.7-1.3-1.4-1.4c-1,0-1.6,0.9-1.6,2.5
				c0,1.3,0.5,2.5,1.6,2.6c0.6,0,1.2-0.4,1.4-1.2c0.1-0.2,0.1-0.5,0.1-0.7C81,67.6,81,67.3,81,66.8z"/>
		</g>
	</g>
</g>
<g>
	<polygon class="st0" points="61.4,121.2 0.5,111.4 0.5,76.2 61.4,86 	"/>
	<polygon class="st1" points="94,79.2 61.4,86 61.4,121.2 94,114.4 	"/>
	<g>
		<polygon class="st2" points="94,79.2 61.4,86.1 0.5,76.2 33.1,69.4 		"/>
	</g>
	<polygon class="st3" points="81.1,88.7 75.5,89.9 75.5,83.1 81.1,81.9 	"/>
	<polygon class="st4" points="75.5,83.1 65.2,81.1 70.7,79.6 81.1,81.9 	"/>
	<polygon class="st3" points="81.1,117.1 75.5,118.3 75.5,111.6 81.1,110.3 	"/>
	<g>
		<circle class="st5" cx="8.4" cy="106" r="4.8"/>
		<circle class="st5" cx="6.2" cy="100.1" r="3.6"/>
		<circle class="st5" cx="16.6" cy="103.5" r="2.5"/>
	</g>
	
		<ellipse transform="matrix(0.9973 -7.358568e-02 7.358568e-02 0.9973 -7.7141 5.3194)" class="st6" cx="68.3" cy="107.3" rx="3.5" ry="4.9"/>
	
		<ellipse transform="matrix(0.9973 -7.358568e-02 7.358568e-02 0.9973 -7.4329 5.6632)" class="st6" cx="73.1" cy="103.7" rx="2.4" ry="3.4"/>
	<polygon class="st7" points="51.3,100.8 9.2,94 9.2,82 51.3,88.8 	"/>
	<g>
		<g>
			<path d="M12.6,85.2C12.6,85.2,12.6,85.2,12.6,85.2c-0.5,0.2-0.8,0.4-1.3,0.6c-0.1-0.3-0.1-0.4-0.2-0.7c0.6-0.3,0.9-0.5,1.6-0.8
				c0.3,0,0.5,0,0.8,0c0,2.6,0,4,0,6.6c-0.4,0-0.6,0-0.9-0.1C12.6,88.7,12.6,87.5,12.6,85.2z"/>
			<path d="M19.1,91.7c0-0.7,0-1.1,0-1.8c-1.3-0.2-2-0.3-3.3-0.4c0-0.2,0-0.4,0-0.6c1.3-1.6,1.9-2.4,3.2-3.9c0.4,0.1,0.6,0.1,1,0.1
				c0,1.7,0,2.5,0,4.2c0.4,0.1,0.6,0.1,1,0.2c0,0.3,0,0.4,0,0.7c-0.4-0.1-0.6-0.1-1-0.2c0,0.7,0,1.1,0,1.9
				C19.7,91.8,19.5,91.8,19.1,91.7z M19.1,89.1c0-0.9,0-1.4,0-2.3c0-0.4,0-0.7,0-1.1c0,0,0,0,0,0c-0.2,0.4-0.4,0.6-0.6,0.9
				c-0.7,0.8-1,1.2-1.7,2.1c0,0,0,0,0,0C17.7,88.9,18.2,89,19.1,89.1z"/>
			<path d="M21.5,93.4c0.2-0.6,0.5-1.6,0.7-2.4c0.4,0,0.6,0.1,1.1,0.1c-0.3,0.9-0.7,1.9-1,2.4C21.9,93.5,21.8,93.5,21.5,93.4z"/>
			<path d="M28.3,87.3c-1.1-0.2-1.6-0.3-2.7-0.5c-0.1,0.7-0.2,1-0.3,1.7c0.2,0,0.3,0,0.6,0.1c0.5,0.1,1.1,0.4,1.5,0.7
				c0.6,0.4,1,1.1,1,2c0,1.4-1.1,2.2-2.7,1.8C25,93,24.4,92.6,24,92.3c0.1-0.3,0.1-0.4,0.2-0.7c0.3,0.2,0.9,0.6,1.5,0.7
				c0.9,0.2,1.7-0.2,1.7-1.1c0-0.9-0.6-1.7-2.1-2c-0.4-0.1-0.7-0.1-1-0.1c0.2-1.3,0.3-2,0.5-3.3c1.4,0.3,2.1,0.4,3.4,0.7
				C28.3,86.9,28.3,87,28.3,87.3z"/>
			<path d="M30.3,93.4c0.2,0.1,0.5,0.1,0.8,0.1c0.5,0.1,1.1-0.1,1.5-0.4c0.5-0.3,0.8-0.9,0.9-1.7c0,0,0,0,0,0
				c-0.4,0.4-1,0.6-1.7,0.4c-1.3-0.3-2.1-1.4-2.1-2.7c0-1.4,1-2.3,2.4-2.1c1.5,0.3,2.4,1.7,2.4,3.5c0,1.6-0.5,2.6-1.2,3.2
				c-0.5,0.4-1.3,0.6-2.1,0.5c-0.3,0-0.7-0.1-0.9-0.2C30.3,93.9,30.3,93.7,30.3,93.4z M30.6,89.4c0,0.9,0.5,1.6,1.4,1.8
				c0.6,0.1,1.2-0.1,1.4-0.5c0.1-0.1,0.1-0.2,0.1-0.3c0-1.2-0.5-2.3-1.5-2.5C31.2,87.7,30.6,88.3,30.6,89.4z"/>
			<path d="M38.9,92.9C39,93,39,93,38.9,92.9c0.2-0.2,0.3-0.4,0.5-0.6c0.6-0.7,0.9-1,1.6-1.7c0.5,0.1,0.7,0.1,1.2,0.1
				c-0.8,0.8-1.2,1.3-2.1,2.1c0.9,1.5,1.4,2.2,2.3,3.6c-0.5-0.1-0.7-0.1-1.2-0.2c-0.7-1.2-1.1-1.8-1.8-3c-0.2,0.2-0.3,0.3-0.5,0.5
				c0,0.8,0,1.3,0,2.1c-0.4-0.1-0.6-0.1-1-0.2c0-3.3,0-4.9,0-8.1c0.4,0.1,0.6,0.1,1,0.1C38.9,89.9,38.9,90.9,38.9,92.9z"/>
			<path d="M47.7,91.1c0,0.4,0,0.9,0,1.6c0,1.3,0,2,0,3.4c0,1.3-0.3,2.1-0.8,2.6c-0.5,0.5-1.3,0.6-1.9,0.6c-0.6-0.1-1.3-0.3-1.8-0.7
				c0.1-0.3,0.1-0.5,0.2-0.8c0.4,0.3,0.9,0.5,1.6,0.6c1,0.1,1.7-0.5,1.7-1.9c0-0.3,0-0.4,0-0.6c0,0,0,0,0,0
				c-0.3,0.5-0.9,0.9-1.7,0.9c-1.3-0.1-2.3-1.4-2.3-3c0-1.9,1.2-2.9,2.4-2.8c0.9,0,1.4,0.6,1.7,1c0,0,0,0,0,0c0-0.3,0-0.5,0-0.9
				C47.2,91.1,47.4,91.1,47.7,91.1z M46.7,93.4c0-0.2,0-0.3-0.1-0.5c-0.2-0.6-0.6-1.1-1.4-1.2c-0.9,0-1.6,0.7-1.6,2.1
				c0,1.1,0.5,2.1,1.6,2.2c0.6,0,1.1-0.3,1.3-1c0.1-0.2,0.1-0.4,0.1-0.6C46.7,94,46.7,93.8,46.7,93.4z"/>
		</g>
	</g>
</g>
<g>
	<polygon class="st0" points="156.3,119.7 99.4,110.5 99.4,77.6 156.3,86.7 	"/>
	<polygon class="st1" points="186.9,80.4 156.3,86.7 156.3,119.7 186.9,113.4 	"/>
	<g>
		<polygon class="st2" points="186.9,80.4 156.3,86.9 99.4,77.6 129.9,71.2 		"/>
	</g>
	<polygon class="st3" points="174.8,89.3 169.6,90.4 169.6,84.1 174.8,82.9 	"/>
	<polygon class="st4" points="169.6,84.1 159.9,82.2 165.1,80.8 174.8,82.9 	"/>
	<polygon class="st3" points="174.8,115.9 169.6,117 169.6,110.7 174.8,109.5 	"/>
	<g>
		<circle class="st5" cx="106.8" cy="105.4" r="4.5"/>
		<circle class="st5" cx="104.7" cy="100" r="3.4"/>
		<circle class="st5" cx="114.4" cy="103.1" r="2.3"/>
	</g>
	
		<ellipse transform="matrix(0.9973 -7.358568e-02 7.358568e-02 0.9973 -7.4126 12.2733)" class="st6" cx="162.9" cy="106.7" rx="3.2" ry="4.6"/>
	
		<ellipse transform="matrix(0.9973 -7.358568e-02 7.358568e-02 0.9973 -7.1496 12.595)" class="st6" cx="167.4" cy="103.3" rx="2.2" ry="3.2"/>
	<polygon class="st7" points="146.9,100.6 107.5,94.3 107.5,83 146.9,89.4 	"/>
	<g>
		<g>
			<path d="M110.7,86.1C110.7,86.1,110.7,86.1,110.7,86.1c-0.5,0.2-0.7,0.3-1.2,0.6c-0.1-0.3-0.1-0.4-0.2-0.6
				c0.6-0.3,0.9-0.4,1.5-0.7c0.3,0,0.5,0,0.8,0c0,2.5,0,3.7,0,6.2c-0.3,0-0.5,0-0.9-0.1C110.7,89.3,110.7,88.2,110.7,86.1z"/>
			<path d="M118,86.6c-1-0.2-1.5-0.2-2.6-0.3c-0.1,0.6-0.2,1-0.3,1.6c0.2,0,0.3,0,0.5,0c0.5,0.1,1,0.3,1.4,0.5c0.5,0.4,1,1,1,1.8
				c0,1.2-1,2-2.5,1.8c-0.7-0.1-1.3-0.4-1.7-0.6c0.1-0.2,0.1-0.4,0.2-0.6c0.3,0.2,0.8,0.4,1.4,0.5c0.9,0.1,1.6-0.3,1.6-1.1
				c0-0.8-0.6-1.5-1.9-1.7c-0.4,0-0.7,0-0.9,0c0.2-1.2,0.3-1.8,0.4-3c1.3,0.1,1.9,0.2,3.2,0.4C118,86.2,118,86.4,118,86.6z"/>
			<path d="M119,93.7c0.2-0.5,0.5-1.5,0.6-2.2c0.4,0,0.6,0.1,1,0.1c-0.2,0.8-0.7,1.8-1,2.2C119.4,93.7,119.3,93.7,119,93.7z"/>
			<path d="M121.4,93c0-0.2,0-0.3,0-0.5c0.3-0.2,0.4-0.3,0.7-0.5c1.7-1.2,2.5-1.9,2.5-2.9c0-0.7-0.3-1.4-1.3-1.6
				c-0.6-0.1-1.1,0.1-1.4,0.3c-0.1-0.3-0.2-0.4-0.3-0.7c0.5-0.3,1.1-0.5,1.9-0.3c1.4,0.3,2,1.4,2,2.3c0,1.2-0.9,2-2.3,3
				c-0.2,0.1-0.3,0.2-0.5,0.4c0,0,0,0,0,0c1.2,0.3,1.8,0.4,3,0.7c0,0.3,0,0.4,0,0.7C124,93.6,123.2,93.4,121.4,93z"/>
			<path d="M127.2,93.7c0.2,0.1,0.4,0.1,0.7,0.1c0.5,0.1,1-0.1,1.4-0.3c0.4-0.3,0.8-0.8,0.9-1.6c0,0,0,0,0,0
				c-0.4,0.4-0.9,0.5-1.6,0.4c-1.2-0.3-2-1.3-2-2.5c0-1.3,0.9-2.2,2.3-1.9s2.2,1.6,2.2,3.3c0,1.5-0.5,2.5-1.2,3
				c-0.5,0.4-1.2,0.5-1.9,0.5c-0.3,0-0.6-0.1-0.8-0.1C127.2,94.1,127.2,94,127.2,93.7z M127.6,89.9c0,0.8,0.5,1.5,1.3,1.7
				c0.6,0.1,1.1-0.1,1.3-0.4c0.1-0.1,0.1-0.2,0.1-0.3c0-1.2-0.4-2.1-1.4-2.3C128.1,88.4,127.6,89,127.6,89.9z"/>
			<path d="M135.4,93.3C135.4,93.3,135.4,93.3,135.4,93.3c0.1-0.2,0.3-0.4,0.5-0.5c0.6-0.6,0.9-1,1.5-1.6c0.4,0.1,0.7,0.1,1.1,0.1
				c-0.8,0.8-1.2,1.2-1.9,1.9c0.9,1.4,1.3,2,2.2,3.4c-0.4-0.1-0.7-0.1-1.1-0.1c-0.7-1.1-1-1.7-1.7-2.8c-0.2,0.2-0.3,0.3-0.5,0.5
				c0,0.8,0,1.2,0,2c-0.4-0.1-0.5-0.1-0.9-0.2c0-3,0-4.6,0-7.6c0.4,0.1,0.5,0.1,0.9,0.1C135.4,90.4,135.4,91.3,135.4,93.3z"/>
			<path d="M143.6,91.5c0,0.4,0,0.8,0,1.5c0,1.3,0,1.9,0,3.1c0,1.2-0.2,2-0.7,2.5c-0.5,0.5-1.2,0.6-1.8,0.5
				c-0.6-0.1-1.3-0.3-1.7-0.6c0.1-0.3,0.1-0.4,0.2-0.7c0.3,0.3,0.8,0.5,1.5,0.6c0.9,0.1,1.6-0.4,1.6-1.8c0-0.2,0-0.4,0-0.6
				c0,0,0,0,0,0c-0.3,0.5-0.8,0.9-1.6,0.8c-1.2-0.1-2.1-1.3-2.1-2.8c0-1.8,1.1-2.7,2.2-2.7c0.9,0,1.3,0.5,1.6,1c0,0,0,0,0,0
				c0-0.3,0-0.5,0-0.8C143.1,91.5,143.3,91.5,143.6,91.5z M142.6,93.6c0-0.2,0-0.3-0.1-0.4c-0.2-0.6-0.6-1-1.3-1.1
				c-0.9,0-1.5,0.7-1.5,1.9c0,1,0.5,2,1.5,2c0.6,0,1.1-0.3,1.3-0.9c0.1-0.2,0.1-0.4,0.1-0.5C142.6,94.2,142.6,94,142.6,93.6z"/>
		</g>
	</g>
</g>
<g>
	<polygon class="st0" points="115.6,136.1 68.7,128.5 68.7,101.4 115.6,108.9 	"/>
	<polygon class="st1" points="140.7,103.7 115.6,108.9 115.6,136.1 140.7,130.8 	"/>
	<g>
		<polygon class="st2" points="140.7,103.7 115.6,109.1 68.7,101.4 93.8,96.1 		"/>
	</g>
	<polygon class="st3" points="130.7,111 126.5,111.9 126.5,106.7 130.7,105.8 	"/>
	<polygon class="st4" points="126.5,106.7 118.5,105.2 122.8,104 130.7,105.8 	"/>
	<polygon class="st3" points="130.7,132.9 126.5,133.8 126.5,128.6 130.7,127.7 	"/>
	<g>
		<circle class="st5" cx="74.8" cy="124.3" r="3.7"/>
		<circle class="st5" cx="73.1" cy="119.8" r="2.8"/>
		<circle class="st5" cx="81.1" cy="122.4" r="1.9"/>
	</g>
	
		<ellipse transform="matrix(0.9973 -7.358568e-02 7.358568e-02 0.9973 -8.899 9.2393)" class="st6" cx="120.9" cy="125.4" rx="2.7" ry="3.8"/>
	
		<ellipse transform="matrix(0.9973 -7.358568e-02 7.358568e-02 0.9973 -8.6825 9.5041)" class="st6" cx="124.6" cy="122.6" rx="1.8" ry="2.6"/>
	<polygon class="st7" points="107.8,120.4 75.4,115.1 75.4,105.9 107.8,111.1 	"/>
	<g>
		<g>
			<path d="M79.3,108.7C79.3,108.7,79.3,108.7,79.3,108.7c-0.3,0.2-0.5,0.3-0.8,0.5c0-0.2-0.1-0.3-0.1-0.5c0.4-0.2,0.6-0.4,1-0.6
				c0.2,0,0.3,0,0.6,0c0,2,0,3,0,5.1c-0.2,0-0.4,0-0.6,0C79.3,111.3,79.3,110.5,79.3,108.7z"/>
			<path d="M81.8,112.5c0.2,0.1,0.6,0.4,1.1,0.4c0.8,0.1,1.1-0.4,1.1-0.9c0-0.7-0.6-1.1-1.2-1.2c-0.1,0-0.2,0-0.4,0
				c0-0.2,0-0.3,0-0.5c0.1,0,0.2,0,0.4,0c0.5,0.1,1.1-0.1,1.1-0.8c0-0.4-0.2-0.8-0.8-0.9c-0.4,0-0.7,0.1-1,0.3
				c-0.1-0.2-0.1-0.3-0.2-0.5c0.2-0.2,0.7-0.3,1.2-0.3c0.9,0.1,1.4,0.8,1.4,1.4c0,0.5-0.3,1-0.9,1.1c0,0,0,0,0,0
				c0.6,0.2,1.1,0.8,1.1,1.5c0,0.8-0.6,1.5-1.7,1.3c-0.5-0.1-1-0.3-1.2-0.5C81.7,112.8,81.7,112.7,81.8,112.5z"/>
			<path d="M85.2,114.8c0.2-0.4,0.4-1.3,0.4-1.9c0.3,0,0.4,0,0.7,0.1c-0.2,0.7-0.5,1.5-0.7,1.8C85.5,114.8,85.4,114.8,85.2,114.8z"
				/>
			<path d="M87.3,113.7c0.1,0,0.3,0.1,0.5,0.1c0.4,0,0.7-0.1,1-0.3c0.3-0.3,0.5-0.7,0.6-1.3c0,0,0,0,0,0c-0.3,0.3-0.6,0.4-1.1,0.3
				c-0.9-0.2-1.4-1-1.4-1.9c0-1,0.7-1.8,1.6-1.6c1,0.2,1.6,1.2,1.6,2.6c0,1.2-0.4,1.9-0.8,2.4c-0.4,0.3-0.9,0.4-1.4,0.4
				c-0.2,0-0.4,0-0.6-0.1C87.3,114,87.3,113.9,87.3,113.7z M87.5,110.7c0,0.7,0.4,1.2,0.9,1.3c0.4,0.1,0.8-0.1,0.9-0.4
				c0-0.1,0.1-0.1,0.1-0.3c0-0.9-0.3-1.7-1-1.8C87.9,109.4,87.5,109.9,87.5,110.7z"/>
			<path d="M91.1,114.5c0.1,0,0.3,0.1,0.5,0.1c0.4,0,0.7-0.1,1-0.3c0.3-0.3,0.5-0.7,0.6-1.3c0,0,0,0,0,0c-0.3,0.3-0.6,0.5-1.1,0.3
				c-0.9-0.2-1.4-1.1-1.4-2c0-1,0.7-1.8,1.6-1.6s1.6,1.2,1.6,2.7c0,1.2-0.4,2-0.8,2.4c-0.4,0.3-0.9,0.5-1.4,0.4
				c-0.2,0-0.4-0.1-0.6-0.1C91.1,114.9,91.1,114.8,91.1,114.5z M91.3,111.4c0,0.7,0.4,1.2,0.9,1.4c0.4,0.1,0.8-0.1,0.9-0.4
				c0-0.1,0.1-0.1,0.1-0.3c0-0.9-0.3-1.7-1-1.9C91.7,110.2,91.3,110.7,91.3,111.4z"/>
			<path d="M94.8,115.4c0.1,0,0.3,0.1,0.5,0.1c0.4,0,0.7-0.1,1-0.3c0.3-0.3,0.5-0.7,0.6-1.4c0,0,0,0,0,0c-0.3,0.3-0.6,0.5-1.1,0.4
				c-0.9-0.2-1.4-1.1-1.4-2c0-1.1,0.7-1.8,1.6-1.7c1,0.2,1.6,1.2,1.6,2.7c0,1.3-0.4,2.1-0.8,2.5c-0.4,0.3-0.9,0.5-1.4,0.5
				c-0.2,0-0.4,0-0.6-0.1C94.8,115.8,94.8,115.6,94.8,115.4z M95.1,112.2c0,0.7,0.4,1.3,0.9,1.4c0.4,0.1,0.8-0.1,0.9-0.4
				c0-0.1,0.1-0.1,0.1-0.3c0-1-0.3-1.8-1-1.9C95.4,110.9,95.1,111.4,95.1,112.2z"/>
			<path d="M100.6,114.8C100.6,114.8,100.6,114.8,100.6,114.8c0.1-0.1,0.2-0.3,0.3-0.4c0.4-0.5,0.6-0.8,1-1.4c0.3,0,0.5,0,0.8,0.1
				c-0.5,0.7-0.8,1-1.4,1.6c0.6,1.1,0.9,1.7,1.6,2.8c-0.3,0-0.5-0.1-0.8-0.1c-0.5-0.9-0.7-1.3-1.2-2.2c-0.1,0.2-0.2,0.2-0.3,0.4
				c0,0.6,0,1,0,1.6c-0.3,0-0.4-0.1-0.6-0.1c0-2.5,0-3.8,0-6.3c0.3,0,0.4,0.1,0.6,0.1C100.6,112.4,100.6,113.2,100.6,114.8z"/>
			<path d="M106.5,113.2c0,0.3,0,0.7,0,1.2c0,1,0,1.6,0,2.6c0,1-0.2,1.7-0.5,2c-0.3,0.4-0.8,0.5-1.3,0.5c-0.4,0-0.9-0.2-1.2-0.5
				c0.1-0.2,0.1-0.4,0.2-0.6c0.2,0.2,0.6,0.4,1,0.4c0.7,0,1.1-0.4,1.1-1.5c0-0.2,0-0.3,0-0.5c0,0,0,0,0,0c-0.2,0.4-0.6,0.7-1.1,0.7
				c-0.9-0.1-1.5-1.1-1.5-2.3c0-1.5,0.8-2.3,1.6-2.2c0.6,0,1,0.4,1.1,0.8c0,0,0,0,0,0c0-0.3,0-0.4,0-0.7
				C106.1,113.2,106.2,113.2,106.5,113.2z M105.8,114.9c0-0.1,0-0.3,0-0.4c-0.1-0.5-0.4-0.9-0.9-0.9c-0.6,0-1.1,0.6-1.1,1.6
				c0,0.9,0.4,1.6,1,1.7c0.4,0,0.8-0.3,0.9-0.8c0-0.1,0.1-0.3,0.1-0.4C105.8,115.4,105.8,115.3,105.8,114.9z"/>
		</g>
	</g>
</g>
<g>
	<polygon class="st0" points="200.7,54.7 151.6,46.8 151.6,18.3 200.7,26.2 	"/>
	<polygon class="st1" points="227.1,20.8 200.7,26.2 200.7,54.7 227.1,49.2 	"/>
	<g>
		<polygon class="st2" points="227.1,20.8 200.7,26.4 151.6,18.3 177.9,12.8 		"/>
	</g>
	<polygon class="st3" points="216.6,28.4 212.1,29.4 212.1,23.9 216.6,23 	"/>
	<polygon class="st4" points="212.1,23.9 203.8,22.3 208.3,21.1 216.6,23 	"/>
	<polygon class="st3" points="216.6,51.4 212.1,52.4 212.1,46.9 216.6,45.9 	"/>
	<g>
		<circle class="st5" cx="157.9" cy="42.4" r="3.9"/>
		<circle class="st5" cx="156.2" cy="37.7" r="2.9"/>
		<circle class="st5" cx="164.5" cy="40.4" r="2"/>
	</g>
	
		<ellipse transform="matrix(0.9973 -7.358568e-02 7.358568e-02 0.9973 -2.6414 15.3015)" class="st6" cx="206.3" cy="43.5" rx="2.8" ry="4"/>
	
		<ellipse transform="matrix(0.9973 -7.358568e-02 7.358568e-02 0.9973 -2.4145 15.5791)" class="st6" cx="210.2" cy="40.6" rx="1.9" ry="2.7"/>
	<polygon class="st7" points="192.6,38.2 158.6,32.7 158.6,23 192.6,28.5 	"/>
	<g>
		<g>
			<path d="M163,26.7C163,26.7,163,26.7,163,26.7c-0.5,0.2-0.7,0.3-1.2,0.5c-0.1-0.2-0.1-0.3-0.2-0.5c0.6-0.3,0.9-0.4,1.5-0.6
				c0.3,0,0.5,0,0.8,0c0,2.1,0,3.2,0,5.3c-0.4,0-0.5,0-0.9-0.1C163,29.4,163,28.5,163,26.7z"/>
			<path d="M170.4,27.4c-1-0.2-1.6-0.3-2.6-0.4c-0.1,0.5-0.2,0.8-0.3,1.4c0.2,0,0.3,0,0.6,0c0.5,0.1,1.1,0.3,1.5,0.5
				c0.5,0.3,1,0.9,1,1.6c0,1.1-1.1,1.7-2.5,1.4c-0.7-0.1-1.4-0.4-1.7-0.6c0.1-0.2,0.1-0.3,0.2-0.5c0.3,0.2,0.8,0.4,1.5,0.5
				c0.9,0.1,1.6-0.2,1.6-0.9c0-0.7-0.6-1.3-2-1.5c-0.4-0.1-0.7-0.1-0.9-0.1c0.2-1,0.3-1.5,0.4-2.6c1.3,0.2,2,0.2,3.3,0.5
				C170.4,27,170.4,27.1,170.4,27.4z"/>
			<path d="M171.4,33.6c0.2-0.5,0.5-1.3,0.6-1.9c0.4,0.1,0.6,0.1,1,0.1c-0.2,0.7-0.7,1.5-1,1.9C171.8,33.6,171.7,33.6,171.4,33.6z"
				/>
			<path d="M174.1,32.2c0.3,0.2,0.9,0.6,1.5,0.7c1.2,0.3,1.6-0.3,1.5-0.8c0-0.8-0.9-1.4-1.8-1.5c-0.2,0-0.3-0.1-0.5-0.1
				c0-0.2,0-0.3,0-0.6c0.2,0,0.3,0.1,0.5,0.1c0.7,0.1,1.5,0,1.5-0.7c0-0.5-0.3-0.9-1.2-1.1c-0.5-0.1-1.1,0-1.4,0.1
				c-0.1-0.2-0.1-0.4-0.2-0.6c0.4-0.1,1.1-0.2,1.8-0.1c1.3,0.3,2,1.1,2,1.8c0,0.6-0.4,1-1.3,1.1c0,0,0,0,0,0c0.8,0.3,1.5,1,1.5,1.8
				c0,0.9-0.9,1.5-2.5,1.2c-0.8-0.2-1.4-0.5-1.8-0.8C174,32.6,174,32.4,174.1,32.2z"/>
			<path d="M182.7,32.7C182.7,32.7,182.7,32.7,182.7,32.7c0.1-0.1,0.3-0.3,0.5-0.4c0.6-0.5,0.9-0.8,1.5-1.3c0.4,0.1,0.7,0.1,1.1,0.1
				c-0.8,0.7-1.2,1-2,1.6c0.9,1.2,1.3,1.8,2.2,3c-0.4-0.1-0.7-0.1-1.1-0.2c-0.7-1-1.1-1.5-1.8-2.5c-0.2,0.2-0.3,0.2-0.5,0.4
				c0,0.7,0,1,0,1.7c-0.4-0.1-0.5-0.1-0.9-0.2c0-2.6,0-3.9,0-6.5c0.4,0.1,0.5,0.1,0.9,0.1C182.7,30.2,182.7,31,182.7,32.7z"/>
			<path d="M191.1,31.4c0,0.3,0,0.7,0,1.3c0,1.1,0,1.6,0,2.7c0,1.1-0.2,1.7-0.7,2.1c-0.5,0.4-1.2,0.5-1.8,0.4
				c-0.6-0.1-1.3-0.3-1.7-0.6c0.1-0.2,0.1-0.4,0.2-0.6c0.3,0.2,0.9,0.5,1.5,0.5c0.9,0.1,1.6-0.3,1.6-1.5c0-0.2,0-0.3,0-0.5
				c0,0,0,0,0,0c-0.3,0.4-0.8,0.7-1.6,0.7c-1.3-0.1-2.2-1.2-2.2-2.5c0-1.5,1.1-2.3,2.3-2.2c0.9,0,1.4,0.5,1.6,0.9c0,0,0,0,0,0
				c0-0.3,0-0.4,0-0.7C190.6,31.4,190.8,31.4,191.1,31.4z M190.2,33.2c0-0.1,0-0.3-0.1-0.4c-0.2-0.5-0.6-0.9-1.3-0.9
				c-0.9,0-1.5,0.6-1.5,1.6c0,0.9,0.5,1.7,1.5,1.8c0.6,0,1.1-0.3,1.3-0.8c0.1-0.1,0.1-0.3,0.1-0.4C190.2,33.7,190.2,33.5,190.2,33.2
				z"/>
		</g>
	</g>
</g>
<g>
	<polygon class="st0" points="182,140.9 143.1,134.6 143.1,112.1 182,118.4 	"/>
	<polygon class="st1" points="202.9,114 182,118.4 182,140.9 202.9,136.6 	"/>
	<g>
		<polygon class="st2" points="202.9,114 182,118.5 143.1,112.1 164,107.8 		"/>
	</g>
	<polygon class="st3" points="194.6,120.1 191.1,120.9 191.1,116.6 194.6,115.8 	"/>
	<polygon class="st4" points="191.1,116.6 184.5,115.3 188,114.3 194.6,115.8 	"/>
	<polygon class="st3" points="194.6,138.3 191.1,139 191.1,134.7 194.6,133.9 	"/>
	<g>
		<circle class="st5" cx="148.2" cy="131.1" r="3.1"/>
		<circle class="st5" cx="146.8" cy="127.4" r="2.3"/>
		<circle class="st5" cx="153.4" cy="129.5" r="1.6"/>
	</g>
	
		<ellipse transform="matrix(0.9973 -7.358568e-02 7.358568e-02 0.9973 -9.2099 14.0793)" class="st6" cx="186.5" cy="132" rx="2.2" ry="3.2"/>
	
		<ellipse transform="matrix(0.9973 -7.358568e-02 7.358568e-02 0.9973 -9.0303 14.2989)" class="st6" cx="189.5" cy="129.7" rx="1.5" ry="2.2"/>
	<polygon class="st7" points="175.6,127.8 148.7,123.5 148.7,115.8 175.6,120.2 	"/>
	<g>
		<g>
			<path d="M151.7,117.9C151.7,117.9,151.7,117.9,151.7,117.9c-0.3,0.2-0.4,0.2-0.7,0.4c0-0.2-0.1-0.3-0.1-0.4
				c0.3-0.2,0.5-0.3,0.9-0.5c0.2,0,0.3,0,0.5,0c0,1.7,0,2.5,0,4.2c-0.2,0-0.3,0-0.5,0C151.7,120.1,151.7,119.4,151.7,117.9z"/>
			<path d="M155.3,121.9c0-0.5,0-0.7,0-1.2c-0.7-0.1-1.1-0.1-1.8-0.2c0-0.2,0-0.2,0-0.4c0.7-1,1.1-1.5,1.8-2.5c0.2,0,0.3,0,0.6,0.1
				c0,1.1,0,1.6,0,2.7c0.2,0,0.3,0.1,0.6,0.1c0,0.2,0,0.3,0,0.5c-0.2,0-0.3-0.1-0.6-0.1c0,0.5,0,0.7,0,1.2
				C155.6,122,155.5,122,155.3,121.9z M155.3,120.3c0-0.6,0-0.9,0-1.4c0-0.2,0-0.5,0-0.7c0,0,0,0,0,0c-0.1,0.2-0.2,0.4-0.3,0.6
				c-0.4,0.5-0.6,0.8-1,1.3c0,0,0,0,0,0C154.5,120.2,154.8,120.2,155.3,120.3z"/>
			<path d="M156.6,123c0.1-0.4,0.3-1.1,0.4-1.5c0.2,0,0.4,0,0.6,0c-0.1,0.5-0.4,1.2-0.6,1.5C156.8,123,156.7,123,156.6,123z"/>
			<path d="M160.4,119c-0.6-0.1-0.9-0.2-1.5-0.3c-0.1,0.4-0.1,0.7-0.2,1.1c0.1,0,0.2,0,0.3,0c0.3,0.1,0.6,0.2,0.9,0.4
				c0.3,0.3,0.6,0.7,0.6,1.3c0,0.9-0.6,1.4-1.5,1.2c-0.4-0.1-0.8-0.3-1-0.5c0.1-0.2,0.1-0.3,0.1-0.4c0.2,0.1,0.5,0.3,0.8,0.4
				c0.5,0.1,0.9-0.2,0.9-0.8c0-0.6-0.3-1.1-1.1-1.2c-0.2,0-0.4-0.1-0.5-0.1c0.1-0.8,0.2-1.2,0.3-2.1c0.8,0.1,1.1,0.2,1.9,0.4
				C160.4,118.6,160.4,118.7,160.4,119z"/>
			<path d="M163.8,121.4c0,1.6-0.5,2.3-1.4,2.1c-0.8-0.2-1.3-1.1-1.3-2.6c0-1.5,0.6-2.2,1.4-2.1
				C163.3,118.9,163.8,119.9,163.8,121.4z M161.6,121c0,1.2,0.3,1.9,0.8,2c0.5,0.1,0.8-0.6,0.8-1.7c0-1.1-0.2-1.9-0.8-2
				C162,119.2,161.6,119.7,161.6,121z"/>
			<path d="M164.6,123.5c0.1,0,0.3,0.1,0.4,0.1c0.3,0,0.6-0.1,0.8-0.3c0.3-0.2,0.5-0.6,0.5-1.1c0,0,0,0,0,0
				c-0.2,0.3-0.5,0.4-0.9,0.3c-0.7-0.2-1.2-0.9-1.2-1.7c0-0.9,0.5-1.5,1.4-1.4c0.8,0.2,1.3,1,1.3,2.2c0,1-0.3,1.7-0.7,2.1
				c-0.3,0.3-0.7,0.4-1.2,0.4c-0.2,0-0.4,0-0.5-0.1C164.6,123.8,164.6,123.7,164.6,123.5z M164.8,120.8c0,0.6,0.3,1,0.8,1.1
				c0.4,0.1,0.6-0.1,0.8-0.3c0-0.1,0-0.1,0-0.2c0-0.8-0.2-1.5-0.8-1.6C165.1,119.8,164.8,120.2,164.8,120.8z"/>
			<path d="M169.4,122.9C169.4,122.9,169.4,122.9,169.4,122.9c0.1-0.1,0.2-0.3,0.3-0.4c0.3-0.4,0.5-0.7,0.9-1.1c0.3,0,0.4,0,0.6,0.1
				c-0.5,0.6-0.7,0.8-1.1,1.4c0.5,0.9,0.8,1.4,1.3,2.3c-0.3,0-0.4,0-0.7-0.1c-0.4-0.7-0.6-1.1-1-1.9c-0.1,0.1-0.2,0.2-0.3,0.3
				c0,0.5,0,0.8,0,1.3c-0.2,0-0.3-0.1-0.5-0.1c0-2.1,0-3.1,0-5.2c0.2,0,0.3,0,0.5,0.1C169.4,121,169.4,121.6,169.4,122.9z"/>
			<path d="M174.2,121.6c0,0.3,0,0.6,0,1c0,0.9,0,1.3,0,2.2c0,0.8-0.1,1.4-0.4,1.7c-0.3,0.3-0.7,0.4-1.1,0.4c-0.4,0-0.7-0.2-1-0.4
				c0.1-0.2,0.1-0.3,0.1-0.5c0.2,0.2,0.5,0.3,0.9,0.4c0.5,0,0.9-0.3,0.9-1.2c0-0.2,0-0.2,0-0.4c0,0,0,0,0,0
				c-0.2,0.3-0.5,0.6-0.9,0.6c-0.7,0-1.3-0.9-1.3-1.9c0-1.2,0.7-1.9,1.3-1.8c0.5,0,0.8,0.4,0.9,0.7c0,0,0,0,0,0c0-0.2,0-0.3,0-0.6
				C174,121.6,174.1,121.6,174.2,121.6z M173.7,123.1c0-0.1,0-0.2,0-0.3c-0.1-0.4-0.4-0.7-0.7-0.7c-0.5,0-0.9,0.5-0.9,1.3
				c0,0.7,0.3,1.3,0.9,1.4c0.3,0,0.6-0.2,0.7-0.7c0-0.1,0-0.2,0-0.4C173.7,123.5,173.7,123.4,173.7,123.1z"/>
		</g>
	</g>
</g>
</svg>
