<?xml version="1.0" encoding="utf-8"?>
<!-- Generator: Adobe Illustrator 28.0.0, SVG Export Plug-In . SVG Version: 6.00 Build 0)  -->
<svg version="1.1" id="Calque_1" xmlns="http://www.w3.org/2000/svg" xmlns:xlink="http://www.w3.org/1999/xlink" x="0px" y="0px"
	 viewBox="0 0 115 65" style="enable-background:new 0 0 115 65;" xml:space="preserve">
<style type="text/css">
	.st0{fill:none;stroke:#000000;stroke-miterlimit:10;}
	.st1{fill:none;stroke:#000000;stroke-linecap:round;stroke-miterlimit:10;}
	.st2{fill:#0871B8;}
	.st3{fill:none;stroke:#010202;stroke-linecap:round;stroke-miterlimit:10;}
	.st4{fill:#009245;}
	.st5{fill:#E52528;}
	.st6{fill:none;stroke:#0871B8;stroke-linecap:round;stroke-miterlimit:10;}
	.st7{fill:#8E2F89;}
</style>
<g>
	<g>
		<path d="M43.5,31.4h1l3.1,8.5h-1.3L44,33l-2.4,6.9h-1.3L43.5,31.4z M41.8,36.9h4.5V38h-4.5V36.9z"/>
		<path d="M48.8,33.8H50v6.1h-1.2V33.8z M51.8,35c-0.2-0.1-0.3-0.1-0.6-0.1c-0.4,0-0.7,0.1-0.9,0.3S50,35.7,50,36l-0.1-1.2
			c0.2-0.4,0.4-0.6,0.7-0.8s0.6-0.3,1-0.3c0.3,0,0.5,0,0.8,0.1s0.4,0.2,0.6,0.4l-0.8,1.1C52,35.1,51.9,35,51.8,35z"/>
		<path d="M55,39.7c-0.4-0.2-0.7-0.5-0.9-0.9s-0.3-0.9-0.3-1.4v-1c0-0.6,0.1-1,0.3-1.4s0.5-0.7,0.9-0.9s0.9-0.3,1.4-0.3
			c0.3,0,0.6,0,0.9,0.1s0.5,0.2,0.8,0.3s0.4,0.3,0.6,0.5l-0.9,0.8c-0.2-0.2-0.4-0.3-0.6-0.5s-0.5-0.2-0.7-0.2
			c-0.5,0-0.8,0.1-1.1,0.4s-0.4,0.6-0.4,1.1v1c0,0.5,0.1,0.9,0.4,1.1s0.6,0.4,1.1,0.4c0.3,0,0.5-0.1,0.7-0.2s0.4-0.3,0.6-0.5
			l0.9,0.8c-0.2,0.2-0.3,0.4-0.6,0.5s-0.5,0.3-0.8,0.3S56.7,40,56.4,40C55.8,40,55.4,39.9,55,39.7z"/>
		<path d="M61,39.9c-0.3-0.1-0.6-0.2-0.9-0.3s-0.5-0.3-0.8-0.5l0.7-0.9c0.3,0.2,0.7,0.4,1,0.6s0.6,0.2,1,0.2c0.5,0,0.8-0.1,1.1-0.2
			s0.4-0.4,0.4-0.7c0-0.2-0.1-0.3-0.2-0.4s-0.3-0.2-0.5-0.2s-0.5-0.1-0.8-0.1c0,0-0.1,0-0.1,0s-0.1,0-0.1,0c0,0,0,0,0,0s0,0,0,0
			c-0.4,0-0.7-0.1-1-0.2s-0.5-0.2-0.7-0.5s-0.3-0.6-0.3-1s0.1-0.8,0.3-1.1s0.4-0.5,0.8-0.6s0.8-0.2,1.3-0.2c0.3,0,0.6,0,0.9,0.1
			s0.6,0.1,0.8,0.3s0.5,0.3,0.8,0.4l-0.7,0.9c-0.3-0.2-0.6-0.3-0.9-0.4s-0.6-0.1-0.9-0.1c-0.4,0-0.7,0.1-0.9,0.2s-0.3,0.3-0.3,0.6
			c0,0.2,0.1,0.3,0.2,0.4s0.3,0.1,0.4,0.2s0.4,0.1,0.8,0.1c0,0,0,0,0.1,0s0.1,0,0.1,0c0,0,0,0,0,0s0,0,0,0c0.4,0,0.8,0.1,1.1,0.2
			s0.5,0.3,0.8,0.5s0.3,0.6,0.3,1.1c0,0.4-0.1,0.8-0.3,1.1s-0.5,0.5-0.8,0.6S62.6,40,62.1,40C61.7,40,61.4,39.9,61,39.9z"/>
		<path d="M66.1,31.4h1.2v1.2h-1.2V31.4z M66.1,33.8h1.2v6.1h-1.2V33.8z"/>
		<path d="M69.1,33.8h1.2v6.1h-1.2V33.8z M72.8,36.2c0-0.4-0.1-0.8-0.3-1s-0.5-0.4-0.9-0.4c-0.4,0-0.7,0.1-0.9,0.3s-0.3,0.5-0.3,0.9
			l-0.1-1.2c0.2-0.4,0.4-0.7,0.7-0.8s0.6-0.3,1-0.3c0.7,0,1.2,0.2,1.5,0.6s0.5,1,0.5,1.8v3.7h-1.2V36.2z"/>
	</g>
</g>
<rect x="29.2" y="28.1" class="st0" width="56.7" height="16.9"/>
<g>
	<g>
		<line class="st1" x1="7.4" y1="36.5" x2="25.6" y2="36.5"/>
		<g>
			<polygon points="29.2,36.5 24.2,38.6 25.4,36.5 24.2,34.5 			"/>
		</g>
	</g>
</g>
<g>
	<g>
		<line class="st1" x1="85.8" y1="36.5" x2="100.6" y2="36.5"/>
		<g>
			<polygon points="104.1,36.5 99.2,38.6 100.3,36.5 99.2,34.5 			"/>
		</g>
	</g>
</g>
<g>
	<g>
		<path class="st2" d="M92.2,43.5h1.2V52h-1.2V43.5z M92.9,50.9h2.3c0.6,0,1-0.1,1.3-0.3s0.4-0.6,0.4-1v0c0-0.3,0-0.5-0.1-0.7
			s-0.3-0.4-0.5-0.5s-0.5-0.2-0.8-0.2h-2.6v-1.1h2.6c0.4,0,0.8-0.1,1-0.3s0.3-0.5,0.3-0.9c0-0.4-0.1-0.7-0.4-1s-0.6-0.3-1.1-0.3
			h-2.4v-1.1h2.7c0.6,0,1,0.1,1.4,0.3s0.6,0.5,0.8,0.8s0.3,0.8,0.3,1.2c0,0.3-0.1,0.6-0.2,0.8s-0.3,0.5-0.5,0.7s-0.5,0.3-0.9,0.4
			c0.3,0.1,0.6,0.2,0.9,0.4s0.4,0.4,0.6,0.7s0.2,0.6,0.2,0.9v0c0,0.5-0.1,0.9-0.3,1.2s-0.5,0.6-0.9,0.8S96.2,52,95.7,52h-2.8V50.9z"
			/>
	</g>
</g>
<g>
	<g>
		<path d="M21.5,11h1l3.1,8.5h-1.3L22,12.7l-2.4,6.9h-1.3L21.5,11z M19.8,16.5h4.5v1.1h-4.5V16.5z"/>
		<path d="M26.8,13.4H28v6.1h-1.2V13.4z M29.8,14.6c-0.2-0.1-0.3-0.1-0.6-0.1c-0.4,0-0.7,0.1-0.9,0.3S28,15.3,28,15.7l-0.1-1.2
			c0.2-0.4,0.4-0.6,0.7-0.8s0.6-0.3,1-0.3c0.3,0,0.5,0,0.8,0.1s0.4,0.2,0.6,0.4l-0.8,1.1C30.1,14.8,29.9,14.7,29.8,14.6z"/>
		<path d="M33,19.3c-0.4-0.2-0.7-0.5-0.9-0.9s-0.3-0.9-0.3-1.4v-1c0-0.6,0.1-1,0.3-1.4s0.5-0.7,0.9-0.9s0.9-0.3,1.4-0.3
			c0.3,0,0.6,0,0.9,0.1s0.5,0.2,0.8,0.3s0.4,0.3,0.6,0.5l-0.9,0.8c-0.2-0.2-0.4-0.3-0.6-0.5s-0.5-0.2-0.7-0.2
			c-0.5,0-0.8,0.1-1.1,0.4S33,15.5,33,16v1c0,0.5,0.1,0.9,0.4,1.1s0.6,0.4,1.1,0.4c0.3,0,0.5-0.1,0.7-0.2s0.4-0.3,0.6-0.5l0.9,0.8
			c-0.2,0.2-0.3,0.4-0.6,0.5s-0.5,0.3-0.8,0.3s-0.6,0.1-0.9,0.1C33.8,19.6,33.4,19.5,33,19.3z"/>
		<path d="M39.1,19.5c-0.3-0.1-0.6-0.2-0.9-0.3s-0.5-0.3-0.8-0.5l0.7-0.9c0.3,0.2,0.7,0.4,1,0.6s0.6,0.2,1,0.2
			c0.5,0,0.8-0.1,1.1-0.2s0.4-0.4,0.4-0.7c0-0.2-0.1-0.3-0.2-0.4S41,17.1,40.8,17S40.4,17,40,16.9c0,0-0.1,0-0.1,0s-0.1,0-0.1,0
			c0,0,0,0,0,0s0,0,0,0c-0.4,0-0.7-0.1-1-0.2s-0.5-0.2-0.7-0.5s-0.3-0.6-0.3-1s0.1-0.8,0.3-1.1s0.4-0.5,0.8-0.6s0.8-0.2,1.3-0.2
			c0.3,0,0.6,0,0.9,0.1s0.6,0.1,0.8,0.3s0.5,0.3,0.8,0.4L41.9,15c-0.3-0.2-0.6-0.3-0.9-0.4s-0.6-0.1-0.9-0.1c-0.4,0-0.7,0.1-0.9,0.2
			s-0.3,0.3-0.3,0.6c0,0.2,0.1,0.3,0.2,0.4s0.3,0.1,0.4,0.2s0.4,0.1,0.8,0.1c0,0,0,0,0.1,0s0.1,0,0.1,0c0,0,0,0,0,0s0,0,0,0
			c0.4,0,0.8,0.1,1.1,0.2c0.3,0.1,0.5,0.3,0.8,0.5s0.3,0.6,0.3,1.1c0,0.4-0.1,0.8-0.3,1.1s-0.5,0.5-0.8,0.6s-0.9,0.2-1.4,0.2
			C39.7,19.6,39.4,19.6,39.1,19.5z"/>
		<path d="M44.1,11h1.2v1.2h-1.2V11z M44.1,13.4h1.2v6.1h-1.2V13.4z"/>
		<path d="M47.2,13.4h1.2v6.1h-1.2V13.4z M50.8,15.8c0-0.4-0.1-0.8-0.3-1s-0.5-0.4-0.9-0.4c-0.4,0-0.7,0.1-0.9,0.3s-0.3,0.5-0.3,0.9
			l-0.1-1.2c0.2-0.4,0.4-0.7,0.7-0.8s0.6-0.3,1-0.3c0.7,0,1.2,0.2,1.5,0.6s0.5,1,0.5,1.8v3.7h-1.2V15.8z"/>
		<path d="M54.5,18.8c-0.3-0.9-0.5-2-0.5-3.1s0.2-2.2,0.5-3.1s0.9-1.8,1.6-2.5l0.8,0.7c-0.6,0.7-1,1.4-1.3,2.2s-0.4,1.7-0.4,2.7
			s0.1,1.9,0.4,2.7s0.7,1.5,1.3,2.2l-0.8,0.7C55.4,20.6,54.8,19.8,54.5,18.8z"/>
		<path d="M76.4,20.6c0.6-0.7,1-1.4,1.3-2.2s0.4-1.7,0.4-2.7s-0.1-1.9-0.4-2.7s-0.7-1.5-1.3-2.2l0.8-0.7c0.7,0.8,1.2,1.6,1.6,2.5
			s0.5,2,0.5,3.1s-0.2,2.2-0.5,3.1s-0.9,1.8-1.6,2.5L76.4,20.6z"/>
		<path d="M81.2,14.1h3.9v1.1h-3.9V14.1z M81.2,16h3.9v1.1h-3.9V16z"/>
		<path class="st2" d="M90.2,11h1.2v8.5h-1.2V11z M90.9,18.4h2.3c0.6,0,1-0.1,1.3-0.3s0.4-0.6,0.4-1v0c0-0.3,0-0.5-0.1-0.7
			s-0.3-0.4-0.5-0.5s-0.5-0.2-0.8-0.2h-2.6v-1.1h2.6c0.4,0,0.8-0.1,1-0.3s0.3-0.5,0.3-0.9c0-0.4-0.1-0.7-0.4-1s-0.6-0.3-1.1-0.3
			h-2.4V11h2.7c0.6,0,1,0.1,1.4,0.3s0.6,0.5,0.8,0.8s0.3,0.8,0.3,1.2c0,0.3-0.1,0.6-0.2,0.8s-0.3,0.5-0.5,0.7s-0.5,0.3-0.9,0.4
			c0.3,0.1,0.6,0.2,0.9,0.4s0.4,0.4,0.6,0.7c0.1,0.3,0.2,0.6,0.2,0.9v0c0,0.5-0.1,0.9-0.3,1.2s-0.5,0.6-0.9,0.8s-0.8,0.3-1.3,0.3
			h-2.8V18.4z"/>
	</g>
</g>
<polyline class="st6" points="88.7,9.5 92.4,7.1 96,9.5 "/>
<polyline class="st6" points="91.4,42.8 95,40.4 98.7,42.8 "/>
<g>
	<line class="st3" x1="58" y1="15.4" x2="76.3" y2="15.4"/>
	<g>
		<g>
			<path class="st4" d="M62.9,4.3h1l3.1,8.5h-1.3l-2.4-6.9l-2.4,6.9h-1.3L62.9,4.3z M61.2,9.8h4.5v1.1h-4.5V9.8z"/>
			<path class="st4" d="M69.6,12.5c-0.4-0.3-0.8-0.6-1-1.1s-0.4-1-0.4-1.7V7.4c0-0.6,0.1-1.2,0.4-1.7s0.6-0.9,1-1.1s1-0.4,1.6-0.4
				c0.5,0,0.9,0.1,1.3,0.3s0.8,0.5,1,0.9s0.5,0.8,0.6,1.3h-1.2c-0.1-0.3-0.2-0.5-0.4-0.7s-0.4-0.4-0.6-0.5s-0.5-0.2-0.7-0.2
				c-0.3,0-0.7,0.1-0.9,0.3S69.8,6,69.7,6.3S69.4,7,69.4,7.4v2.3c0,0.4,0.1,0.8,0.2,1.1s0.3,0.5,0.6,0.7s0.6,0.2,0.9,0.2
				c0.3,0,0.5-0.1,0.7-0.2s0.4-0.3,0.6-0.5s0.3-0.5,0.4-0.7h1.2c-0.1,0.5-0.3,0.9-0.6,1.3s-0.6,0.7-1,0.9s-0.9,0.3-1.3,0.3
				C70.6,12.9,70.1,12.8,69.6,12.5z"/>
		</g>
	</g>
	<g>
		<g>
			<path class="st5" d="M62.8,17.7h1l3.1,8.5h-1.3l-2.4-6.9l-2.4,6.9h-1.3L62.8,17.7z M61.1,23.2h4.5v1.1h-4.5V23.2z"/>
			<path class="st5" d="M68.2,17.7h1.2v8.5h-1.2V17.7z M68.9,25.1h2.3c0.6,0,1-0.1,1.3-0.3s0.4-0.6,0.4-1v0c0-0.3,0-0.5-0.1-0.7
				s-0.3-0.4-0.5-0.5s-0.5-0.2-0.8-0.2h-2.6v-1.1h2.6c0.4,0,0.8-0.1,1-0.3s0.3-0.5,0.3-0.9c0-0.4-0.1-0.7-0.4-1s-0.6-0.3-1.1-0.3
				h-2.4v-1.1h2.7c0.6,0,1,0.1,1.4,0.3s0.6,0.5,0.8,0.8s0.3,0.8,0.3,1.2c0,0.3-0.1,0.6-0.2,0.8s-0.3,0.5-0.5,0.7s-0.5,0.3-0.9,0.4
				c0.3,0.1,0.6,0.2,0.9,0.4s0.4,0.4,0.6,0.7s0.2,0.6,0.2,0.9v0c0,0.5-0.1,0.9-0.3,1.2S73.4,25.8,73,26s-0.8,0.3-1.3,0.3h-2.8V25.1z
				"/>
		</g>
	</g>
</g>
<g>
	<line class="st3" x1="7.4" y1="49.6" x2="25.7" y2="49.6"/>
	<g>
		<g>
			<path class="st4" d="M12.3,38.5h1l3.1,8.5h-1.3l-2.4-6.9L10.4,47H9.1L12.3,38.5z M10.6,44h4.5v1.1h-4.5V44z"/>
			<path class="st4" d="M19,46.7c-0.4-0.3-0.8-0.6-1-1.1s-0.4-1-0.4-1.7v-2.3c0-0.6,0.1-1.2,0.4-1.7s0.6-0.9,1-1.1s1-0.4,1.6-0.4
				c0.5,0,0.9,0.1,1.3,0.3s0.8,0.5,1,0.9s0.5,0.8,0.6,1.3h-1.2c-0.1-0.3-0.2-0.5-0.4-0.7s-0.4-0.4-0.6-0.5s-0.5-0.2-0.7-0.2
				c-0.3,0-0.7,0.1-0.9,0.3s-0.5,0.4-0.6,0.7s-0.2,0.7-0.2,1.1v2.3c0,0.4,0.1,0.8,0.2,1.1s0.3,0.5,0.6,0.7s0.6,0.2,0.9,0.2
				c0.3,0,0.5-0.1,0.7-0.2s0.4-0.3,0.6-0.5s0.3-0.5,0.4-0.7h1.2c-0.1,0.5-0.3,0.9-0.6,1.3s-0.6,0.7-1,0.9s-0.9,0.3-1.3,0.3
				C19.9,47.1,19.4,47,19,46.7z"/>
		</g>
	</g>
	<g>
		<g>
			<path class="st5" d="M12.1,51.9h1l3.1,8.5H15l-2.4-6.9l-2.4,6.9H9L12.1,51.9z M10.4,57.4h4.5v1.1h-4.5V57.4z"/>
			<path class="st5" d="M17.6,51.9h1.2v8.5h-1.2V51.9z M18.3,59.3h2.3c0.6,0,1-0.1,1.3-0.3s0.4-0.6,0.4-1v0c0-0.3,0-0.5-0.1-0.7
				s-0.3-0.4-0.5-0.5s-0.5-0.2-0.8-0.2h-2.6v-1.1h2.6c0.4,0,0.8-0.1,1-0.3s0.3-0.5,0.3-0.9c0-0.4-0.1-0.7-0.4-1S21.2,53,20.7,53
				h-2.4v-1.1h2.7c0.6,0,1,0.1,1.4,0.3s0.6,0.5,0.8,0.8s0.3,0.8,0.3,1.2c0,0.3-0.1,0.6-0.2,0.8s-0.3,0.5-0.5,0.7s-0.5,0.3-0.9,0.4
				c0.3,0.1,0.6,0.2,0.9,0.4s0.4,0.4,0.6,0.7s0.2,0.6,0.2,0.9v0c0,0.5-0.1,0.9-0.3,1.2s-0.5,0.6-0.9,0.8s-0.8,0.3-1.3,0.3h-2.8V59.3
				z"/>
		</g>
	</g>
</g>
</svg>
