<?xml version="1.0" encoding="utf-8"?>
<!-- Generator: Adobe Illustrator 28.0.0, SVG Export Plug-In . SVG Version: 6.00 Build 0)  -->
<svg version="1.1" id="Calque_1" xmlns="http://www.w3.org/2000/svg" xmlns:xlink="http://www.w3.org/1999/xlink" x="0px" y="0px"
	 viewBox="0 0 115 65" style="enable-background:new 0 0 115 65;" xml:space="preserve">
<style type="text/css">
	.st0{fill:none;stroke:#000000;stroke-miterlimit:10;}
	.st1{fill:none;stroke:#000000;stroke-linecap:round;stroke-miterlimit:10;}
	.st2{fill:#0871B8;}
	.st3{fill:none;stroke:#010202;stroke-linecap:round;stroke-miterlimit:10;}
	.st4{fill:#009245;}
	.st5{fill:#E52528;}
	.st6{fill:none;stroke:#0871B8;stroke-linecap:round;stroke-miterlimit:10;}
	.st7{fill:#8E2F89;}
</style>
<g>
	<g>
		<path d="M42.1,31.4h1l3.1,8.5h-1.3L42.6,33l-2.4,6.9h-1.3L42.1,31.4z M40.4,36.9h4.5V38h-4.5V36.9z"/>
		<path d="M47.4,33.8h1.2v6.1h-1.2V33.8z M50.4,35c-0.2-0.1-0.3-0.1-0.6-0.1c-0.4,0-0.7,0.1-0.9,0.3s-0.3,0.5-0.3,0.9l-0.1-1.2
			c0.2-0.4,0.4-0.6,0.7-0.8s0.6-0.3,1-0.3c0.3,0,0.5,0,0.8,0.1s0.4,0.2,0.6,0.4l-0.8,1.1C50.6,35.1,50.5,35,50.4,35z"/>
		<path d="M53.6,39.7c-0.4-0.2-0.7-0.5-0.9-0.9s-0.3-0.9-0.3-1.4v-1c0-0.6,0.1-1,0.3-1.4s0.5-0.7,0.9-0.9s0.9-0.3,1.4-0.3
			c0.3,0,0.6,0,0.9,0.1s0.5,0.2,0.8,0.3s0.4,0.3,0.6,0.5l-0.9,0.8c-0.2-0.2-0.4-0.3-0.6-0.5s-0.5-0.2-0.7-0.2
			c-0.5,0-0.8,0.1-1.1,0.4s-0.4,0.6-0.4,1.1v1c0,0.5,0.1,0.9,0.4,1.1s0.6,0.4,1.1,0.4c0.3,0,0.5-0.1,0.7-0.2s0.4-0.3,0.6-0.5
			l0.9,0.8c-0.2,0.2-0.3,0.4-0.6,0.5s-0.5,0.3-0.8,0.3S55.3,40,55,40C54.4,40,54,39.9,53.6,39.7z"/>
		<path d="M59.5,39.7c-0.4-0.2-0.7-0.5-0.9-0.9s-0.3-0.9-0.3-1.4v-1c0-0.6,0.1-1,0.3-1.4s0.5-0.7,0.9-0.9s0.9-0.3,1.4-0.3
			c0.3,0,0.6,0,0.9,0.1s0.5,0.2,0.8,0.3s0.4,0.3,0.6,0.5l-0.9,0.8c-0.2-0.2-0.4-0.3-0.6-0.5s-0.5-0.2-0.7-0.2
			c-0.5,0-0.8,0.1-1.1,0.4s-0.4,0.6-0.4,1.1v1c0,0.5,0.1,0.9,0.4,1.1s0.6,0.4,1.1,0.4c0.3,0,0.5-0.1,0.7-0.2s0.4-0.3,0.6-0.5
			l0.9,0.8c-0.2,0.2-0.3,0.4-0.6,0.5s-0.5,0.3-0.8,0.3S61.3,40,61,40C60.4,40,59.9,39.9,59.5,39.7z"/>
		<path d="M65.5,39.7c-0.4-0.2-0.7-0.5-0.9-0.9s-0.3-0.9-0.3-1.4v-1c0-0.6,0.1-1,0.3-1.4s0.5-0.7,0.9-0.9s0.8-0.3,1.4-0.3
			s1,0.1,1.4,0.3s0.7,0.5,0.9,0.9s0.3,0.9,0.3,1.4v1c0,0.6-0.1,1-0.3,1.4s-0.5,0.7-0.9,0.9S67.3,40,66.8,40S65.8,39.9,65.5,39.7z
			 M67.8,38.5c0.2-0.3,0.3-0.6,0.3-1.1v-1c0-0.5-0.1-0.8-0.3-1.1s-0.6-0.4-1-0.4s-0.7,0.1-1,0.4s-0.3,0.6-0.3,1.1v1
			c0,0.5,0.1,0.8,0.3,1.1s0.6,0.4,1,0.4S67.6,38.7,67.8,38.5z"/>
		<path d="M72.2,39.9c-0.3-0.1-0.6-0.2-0.9-0.3s-0.5-0.3-0.8-0.5l0.7-0.9c0.3,0.2,0.7,0.4,1,0.6s0.6,0.2,1,0.2
			c0.5,0,0.8-0.1,1.1-0.2s0.4-0.4,0.4-0.7c0-0.2-0.1-0.3-0.2-0.4s-0.3-0.2-0.5-0.2s-0.5-0.1-0.8-0.1c0,0-0.1,0-0.1,0s-0.1,0-0.1,0
			c0,0,0,0,0,0s0,0,0,0c-0.4,0-0.7-0.1-1-0.2s-0.5-0.2-0.7-0.5s-0.3-0.6-0.3-1s0.1-0.8,0.3-1.1s0.4-0.5,0.8-0.6s0.8-0.2,1.3-0.2
			c0.3,0,0.6,0,0.9,0.1s0.6,0.1,0.8,0.3s0.5,0.3,0.8,0.4L75,35.4c-0.3-0.2-0.6-0.3-0.9-0.4s-0.6-0.1-0.9-0.1c-0.4,0-0.7,0.1-0.9,0.2
			S72,35.4,72,35.6c0,0.2,0.1,0.3,0.2,0.4s0.3,0.1,0.4,0.2s0.4,0.1,0.8,0.1c0,0,0,0,0.1,0s0.1,0,0.1,0c0,0,0,0,0,0s0,0,0,0
			c0.4,0,0.8,0.1,1.1,0.2s0.5,0.3,0.8,0.5s0.3,0.6,0.3,1.1c0,0.4-0.1,0.8-0.3,1.1s-0.5,0.5-0.8,0.6S73.7,40,73.2,40
			C72.8,40,72.5,39.9,72.2,39.9z"/>
	</g>
</g>
<rect x="29.2" y="28.1" class="st0" width="56.7" height="16.9"/>
<g>
	<g>
		<line class="st1" x1="7.4" y1="36.5" x2="25.6" y2="36.5"/>
		<g>
			<polygon points="29.2,36.5 24.2,38.6 25.4,36.5 24.2,34.5 			"/>
		</g>
	</g>
</g>
<g>
	<g>
		<line class="st1" x1="85.8" y1="36.5" x2="100.6" y2="36.5"/>
		<g>
			<polygon points="104.1,36.5 99.2,38.6 100.3,36.5 99.2,34.5 			"/>
		</g>
	</g>
</g>
<g>
	<g>
		<path class="st2" d="M92.2,43.5h1.2V52h-1.2V43.5z M92.9,50.9h2.3c0.6,0,1-0.1,1.3-0.3s0.4-0.6,0.4-1v0c0-0.3,0-0.5-0.1-0.7
			s-0.3-0.4-0.5-0.5s-0.5-0.2-0.8-0.2h-2.6v-1.1h2.6c0.4,0,0.8-0.1,1-0.3s0.3-0.5,0.3-0.9c0-0.4-0.1-0.7-0.4-1s-0.6-0.3-1.1-0.3
			h-2.4v-1.1h2.7c0.6,0,1,0.1,1.4,0.3s0.6,0.5,0.8,0.8s0.3,0.8,0.3,1.2c0,0.3-0.1,0.6-0.2,0.8s-0.3,0.5-0.5,0.7s-0.5,0.3-0.9,0.4
			c0.3,0.1,0.6,0.2,0.9,0.4s0.4,0.4,0.6,0.7s0.2,0.6,0.2,0.9v0c0,0.5-0.1,0.9-0.3,1.2s-0.5,0.6-0.9,0.8S96.2,52,95.7,52h-2.8V50.9z"
			/>
	</g>
</g>
<polyline class="st6" points="91.4,42.8 95,40.4 98.7,42.8 "/>
<g>
	<g>
		<path d="M20.1,11h1l3.1,8.5H23l-2.4-6.9l-2.4,6.9H17L20.1,11z M18.4,16.5h4.5v1.1h-4.5V16.5z"/>
		<path d="M25.4,13.4h1.2v6.1h-1.2V13.4z M28.4,14.6c-0.2-0.1-0.3-0.1-0.6-0.1c-0.4,0-0.7,0.1-0.9,0.3s-0.3,0.5-0.3,0.9l-0.1-1.2
			c0.2-0.4,0.4-0.6,0.7-0.8s0.6-0.3,1-0.3c0.3,0,0.5,0,0.8,0.1s0.4,0.2,0.6,0.4l-0.8,1.1C28.7,14.8,28.5,14.7,28.4,14.6z"/>
		<path d="M31.6,19.3c-0.4-0.2-0.7-0.5-0.9-0.9s-0.3-0.9-0.3-1.4v-1c0-0.6,0.1-1,0.3-1.4s0.5-0.7,0.9-0.9s0.9-0.3,1.4-0.3
			c0.3,0,0.6,0,0.9,0.1s0.5,0.2,0.8,0.3s0.4,0.3,0.6,0.5l-0.9,0.8c-0.2-0.2-0.4-0.3-0.6-0.5s-0.5-0.2-0.7-0.2
			c-0.5,0-0.8,0.1-1.1,0.4s-0.4,0.6-0.4,1.1v1c0,0.5,0.1,0.9,0.4,1.1s0.6,0.4,1.1,0.4c0.3,0,0.5-0.1,0.7-0.2s0.4-0.3,0.6-0.5
			l0.9,0.8c-0.2,0.2-0.3,0.4-0.6,0.5s-0.5,0.3-0.8,0.3s-0.6,0.1-0.9,0.1C32.4,19.6,32,19.5,31.6,19.3z"/>
		<path d="M37.6,19.3c-0.4-0.2-0.7-0.5-0.9-0.9s-0.3-0.9-0.3-1.4v-1c0-0.6,0.1-1,0.3-1.4s0.5-0.7,0.9-0.9s0.9-0.3,1.4-0.3
			c0.3,0,0.6,0,0.9,0.1s0.5,0.2,0.8,0.3s0.4,0.3,0.6,0.5l-0.9,0.8c-0.2-0.2-0.4-0.3-0.6-0.5s-0.5-0.2-0.7-0.2
			c-0.5,0-0.8,0.1-1.1,0.4s-0.4,0.6-0.4,1.1v1c0,0.5,0.1,0.9,0.4,1.1s0.6,0.4,1.1,0.4c0.3,0,0.5-0.1,0.7-0.2s0.4-0.3,0.6-0.5
			l0.9,0.8c-0.2,0.2-0.3,0.4-0.6,0.5s-0.5,0.3-0.8,0.3s-0.6,0.1-0.9,0.1C38.4,19.6,38,19.5,37.6,19.3z"/>
		<path d="M43.5,19.3c-0.4-0.2-0.7-0.5-0.9-0.9s-0.3-0.9-0.3-1.4v-1c0-0.6,0.1-1,0.3-1.4s0.5-0.7,0.9-0.9s0.8-0.3,1.4-0.3
			s1,0.1,1.4,0.3s0.7,0.5,0.9,0.9s0.3,0.9,0.3,1.4v1c0,0.6-0.1,1-0.3,1.4s-0.5,0.7-0.9,0.9s-0.8,0.3-1.4,0.3S43.9,19.5,43.5,19.3z
			 M45.8,18.1c0.2-0.3,0.3-0.6,0.3-1.1v-1c0-0.5-0.1-0.8-0.3-1.1s-0.6-0.4-1-0.4s-0.7,0.1-1,0.4s-0.3,0.6-0.3,1.1v1
			c0,0.5,0.1,0.8,0.3,1.1s0.6,0.4,1,0.4S45.6,18.4,45.8,18.1z"/>
		<path d="M50.2,19.5c-0.3-0.1-0.6-0.2-0.9-0.3s-0.5-0.3-0.8-0.5l0.7-0.9c0.3,0.2,0.7,0.4,1,0.6s0.6,0.2,1,0.2
			c0.5,0,0.8-0.1,1.1-0.2s0.4-0.4,0.4-0.7c0-0.2-0.1-0.3-0.2-0.4s-0.3-0.2-0.5-0.2s-0.5-0.1-0.8-0.1c0,0-0.1,0-0.1,0s-0.1,0-0.1,0
			c0,0,0,0,0,0s0,0,0,0c-0.4,0-0.7-0.1-1-0.2s-0.5-0.2-0.7-0.5s-0.3-0.6-0.3-1s0.1-0.8,0.3-1.1s0.4-0.5,0.8-0.6s0.8-0.2,1.3-0.2
			c0.3,0,0.6,0,0.9,0.1s0.6,0.1,0.8,0.3s0.5,0.3,0.8,0.4L53,15c-0.3-0.2-0.6-0.3-0.9-0.4s-0.6-0.1-0.9-0.1c-0.4,0-0.7,0.1-0.9,0.2
			S50,15,50,15.3c0,0.2,0.1,0.3,0.2,0.4s0.3,0.1,0.4,0.2s0.4,0.1,0.8,0.1c0,0,0,0,0.1,0s0.1,0,0.1,0c0,0,0,0,0,0s0,0,0,0
			c0.4,0,0.8,0.1,1.1,0.2c0.3,0.1,0.5,0.3,0.8,0.5s0.3,0.6,0.3,1.1c0,0.4-0.1,0.8-0.3,1.1s-0.5,0.5-0.8,0.6s-0.9,0.2-1.4,0.2
			C50.8,19.6,50.5,19.6,50.2,19.5z"/>
		<path d="M55.9,18.8c-0.3-0.9-0.5-2-0.5-3.1s0.2-2.2,0.5-3.1s0.9-1.8,1.6-2.5l0.8,0.7c-0.6,0.7-1,1.4-1.3,2.2s-0.4,1.7-0.4,2.7
			s0.1,1.9,0.4,2.7s0.7,1.5,1.3,2.2l-0.8,0.7C56.8,20.6,56.2,19.8,55.9,18.8z"/>
		<path d="M77.8,20.6c0.6-0.7,1-1.4,1.3-2.2s0.4-1.7,0.4-2.7s-0.1-1.9-0.4-2.7s-0.7-1.5-1.3-2.2l0.8-0.7c0.7,0.8,1.2,1.6,1.6,2.5
			s0.5,2,0.5,3.1s-0.2,2.2-0.5,3.1s-0.9,1.8-1.6,2.5L77.8,20.6z"/>
		<path d="M82.6,14.1h3.9v1.1h-3.9V14.1z M82.6,16h3.9v1.1h-3.9V16z"/>
		<path class="st2" d="M91.6,11h1.2v8.5h-1.2V11z M92.3,18.4h2.3c0.6,0,1-0.1,1.3-0.3s0.4-0.6,0.4-1v0c0-0.3,0-0.5-0.1-0.7
			s-0.3-0.4-0.5-0.5s-0.5-0.2-0.8-0.2h-2.6v-1.1h2.6c0.4,0,0.8-0.1,1-0.3s0.3-0.5,0.3-0.9c0-0.4-0.1-0.7-0.4-1s-0.6-0.3-1.1-0.3
			h-2.4V11h2.7c0.6,0,1,0.1,1.4,0.3s0.6,0.5,0.8,0.8s0.3,0.8,0.3,1.2c0,0.3-0.1,0.6-0.2,0.8s-0.3,0.5-0.5,0.7s-0.5,0.3-0.9,0.4
			c0.3,0.1,0.6,0.2,0.9,0.4s0.4,0.4,0.6,0.7c0.1,0.3,0.2,0.6,0.2,0.9v0c0,0.5-0.1,0.9-0.3,1.2s-0.5,0.6-0.9,0.8s-0.8,0.3-1.3,0.3
			h-2.8V18.4z"/>
	</g>
</g>
<polyline class="st6" points="90.7,9.5 94.4,7.1 98,9.5 "/>
<g>
	<line class="st3" x1="7.4" y1="50.7" x2="25.7" y2="50.7"/>
	<g>
		<g>
			<path class="st7" d="M10,39.6h1.2v8.5H10V39.6z M10.7,47H13c0.6,0,1-0.1,1.3-0.3s0.4-0.6,0.4-1v0c0-0.3,0-0.5-0.1-0.7
				s-0.3-0.4-0.5-0.5s-0.5-0.2-0.8-0.2h-2.6v-1.1h2.6c0.4,0,0.8-0.1,1-0.3s0.3-0.5,0.3-0.9c0-0.4-0.1-0.7-0.4-1s-0.6-0.3-1.1-0.3
				h-2.4v-1.1h2.7c0.6,0,1,0.1,1.4,0.3s0.6,0.5,0.8,0.8c0.2,0.3,0.3,0.8,0.3,1.2c0,0.3-0.1,0.6-0.2,0.8s-0.3,0.5-0.5,0.7
				s-0.5,0.3-0.9,0.4c0.3,0.1,0.6,0.2,0.9,0.4s0.4,0.4,0.6,0.7s0.2,0.6,0.2,0.9v0c0,0.5-0.1,0.9-0.3,1.2s-0.5,0.6-0.9,0.8
				s-0.8,0.3-1.3,0.3h-2.8V47z"/>
			<path class="st7" d="M19,47.8c-0.4-0.3-0.8-0.6-1-1.1s-0.4-1-0.4-1.7v-2.3c0-0.6,0.1-1.2,0.4-1.7s0.6-0.9,1-1.1s1-0.4,1.6-0.4
				c0.5,0,0.9,0.1,1.3,0.3s0.8,0.5,1,0.9c0.3,0.4,0.5,0.8,0.6,1.3h-1.2c-0.1-0.3-0.2-0.5-0.4-0.7s-0.4-0.4-0.6-0.5s-0.5-0.2-0.7-0.2
				c-0.3,0-0.7,0.1-0.9,0.3s-0.5,0.4-0.6,0.7s-0.2,0.7-0.2,1.1V45c0,0.4,0.1,0.8,0.2,1.1s0.3,0.5,0.6,0.7s0.6,0.2,0.9,0.2
				c0.3,0,0.5-0.1,0.7-0.2s0.4-0.3,0.6-0.5s0.3-0.5,0.4-0.7h1.2c-0.1,0.5-0.3,0.9-0.6,1.3s-0.6,0.7-1,0.9s-0.9,0.3-1.3,0.3
				C19.9,48.2,19.4,48.1,19,47.8z"/>
		</g>
	</g>
	<g>
		<g>
			<path class="st5" d="M12.1,53h1l3.1,8.5H15l-2.4-6.9l-2.4,6.9H9L12.1,53z M10.4,58.6h4.5v1.1h-4.5V58.6z"/>
			<path class="st5" d="M17.6,53h1.2v8.5h-1.2V53z M18.3,60.5h2.3c0.6,0,1-0.1,1.3-0.3s0.4-0.6,0.4-1v0c0-0.3,0-0.5-0.1-0.7
				s-0.3-0.4-0.5-0.5s-0.5-0.2-0.8-0.2h-2.6v-1.1h2.6c0.4,0,0.8-0.1,1-0.3s0.3-0.5,0.3-0.9c0-0.4-0.1-0.7-0.4-1s-0.6-0.3-1.1-0.3
				h-2.4V53h2.7c0.6,0,1,0.1,1.4,0.3s0.6,0.5,0.8,0.8s0.3,0.8,0.3,1.2c0,0.3-0.1,0.6-0.2,0.8s-0.3,0.5-0.5,0.7s-0.5,0.3-0.9,0.4
				c0.3,0.1,0.6,0.2,0.9,0.4s0.4,0.4,0.6,0.7s0.2,0.6,0.2,0.9v0c0,0.5-0.1,0.9-0.3,1.2s-0.5,0.6-0.9,0.8s-0.8,0.3-1.3,0.3h-2.8V60.5
				z"/>
		</g>
	</g>
</g>
<g>
	<line class="st3" x1="58.5" y1="15.4" x2="76.8" y2="15.4"/>
	<g>
		<g>
			<path class="st7" d="M61.1,4.3h1.2v8.5h-1.2V4.3z M61.8,11.7h2.3c0.6,0,1-0.1,1.3-0.3s0.4-0.6,0.4-1v0c0-0.3,0-0.5-0.1-0.7
				s-0.3-0.4-0.5-0.5S64.8,9,64.4,9h-2.6V7.9h2.6c0.4,0,0.8-0.1,1-0.3s0.3-0.5,0.3-0.9c0-0.4-0.1-0.7-0.4-1s-0.6-0.3-1.1-0.3h-2.4
				V4.3h2.7c0.6,0,1,0.1,1.4,0.3s0.6,0.5,0.8,0.8S67,6.1,67,6.6c0,0.3-0.1,0.6-0.2,0.8s-0.3,0.5-0.5,0.7c-0.2,0.2-0.5,0.3-0.9,0.4
				c0.3,0.1,0.6,0.2,0.9,0.4s0.4,0.4,0.6,0.7s0.2,0.6,0.2,0.9v0c0,0.5-0.1,0.9-0.3,1.2s-0.5,0.6-0.9,0.8s-0.8,0.3-1.3,0.3h-2.8V11.7
				z"/>
			<path class="st7" d="M70.1,12.5c-0.4-0.3-0.8-0.6-1-1.1s-0.4-1-0.4-1.7V7.4c0-0.6,0.1-1.2,0.4-1.7s0.6-0.9,1-1.1s1-0.4,1.6-0.4
				c0.5,0,0.9,0.1,1.3,0.3s0.8,0.5,1,0.9s0.5,0.8,0.6,1.3h-1.2C73.3,6.5,73.2,6.2,73,6s-0.4-0.4-0.6-0.5s-0.5-0.2-0.7-0.2
				c-0.3,0-0.7,0.1-0.9,0.3S70.3,6,70.1,6.3S69.9,7,69.9,7.4v2.3c0,0.4,0.1,0.8,0.2,1.1s0.3,0.5,0.6,0.7s0.6,0.2,0.9,0.2
				c0.3,0,0.5-0.1,0.7-0.2s0.4-0.3,0.6-0.5s0.3-0.5,0.4-0.7h1.2c-0.1,0.5-0.3,0.9-0.6,1.3s-0.6,0.7-1,0.9s-0.9,0.3-1.3,0.3
				C71.1,12.9,70.5,12.8,70.1,12.5z"/>
		</g>
	</g>
	<g>
		<g>
			<path class="st5" d="M63.3,17.7h1l3.1,8.5h-1.3l-2.4-6.9l-2.4,6.9h-1.3L63.3,17.7z M61.6,23.2H66v1.1h-4.5V23.2z"/>
			<path class="st5" d="M68.7,17.7h1.2v8.5h-1.2V17.7z M69.4,25.1h2.3c0.6,0,1-0.1,1.3-0.3s0.4-0.6,0.4-1v0c0-0.3,0-0.5-0.1-0.7
				s-0.3-0.4-0.5-0.5s-0.5-0.2-0.8-0.2h-2.6v-1.1H72c0.4,0,0.8-0.1,1-0.3s0.3-0.5,0.3-0.9c0-0.4-0.1-0.7-0.4-1s-0.6-0.3-1.1-0.3
				h-2.4v-1.1h2.7c0.6,0,1,0.1,1.4,0.3s0.6,0.5,0.8,0.8s0.3,0.8,0.3,1.2c0,0.3-0.1,0.6-0.2,0.8s-0.3,0.5-0.5,0.7s-0.5,0.3-0.9,0.4
				c0.3,0.1,0.6,0.2,0.9,0.4s0.4,0.4,0.6,0.7s0.2,0.6,0.2,0.9v0c0,0.5-0.1,0.9-0.3,1.2s-0.5,0.6-0.9,0.8s-0.8,0.3-1.3,0.3h-2.8V25.1
				z"/>
		</g>
	</g>
</g>
</svg>
