<?xml version="1.0" encoding="UTF-8"?>
<svg id="Calque_2" data-name="Calque 2" xmlns="http://www.w3.org/2000/svg" viewBox="0 0 156.33 91.84">
  <defs>
    <style>
      .cls-1 {
        fill: none;
        stroke: #e30613;
        stroke-linecap: round;
      }

      .cls-1, .cls-2, .cls-3 {
        stroke-miterlimit: 10;
      }

      .cls-4 {
        fill: #e30613;
        stroke-width: 0px;
      }

      .cls-2 {
        fill: #f6a117;
      }

      .cls-2, .cls-3 {
        stroke: #1d1d1b;
      }

      .cls-3 {
        fill: #b5d1ef;
      }
    </style>
  </defs>
  <polygon class="cls-2" points="1.74 81.99 24.46 1.83 47.18 81.99 1.74 81.99"/>
  <polygon class="cls-3" points="57.91 63.35 97.23 41.01 154.93 70.76 110.5 81.99 57.91 63.35"/>
  <line class="cls-1" x1="10.03" y1="39.61" x2="16.42" y2="44.2"/>
  <line class="cls-1" x1="32.22" y1="43.88" x2="39.03" y2="39.95"/>
  <circle class="cls-1" cx="24.46" cy="81.99" r="3.32"/>
  <circle class="cls-1" cx="77.94" cy="51.96" r="3.32"/>
  <circle class="cls-1" cx="131.73" cy="76.68" r="3.32"/>
  <g>
    <path class="cls-4" d="m2.41,40.12v8.52h-1.2v-7.22l-1.21.74v-1.24l1.21-.81h1.2Z"/>
    <path class="cls-4" d="m6.72,48.72c-.65,0-1.18-.19-1.6-.56s-.68-.9-.78-1.58h0s1.2,0,1.2,0h0c.04.32.17.56.38.73s.48.26.81.26c.38,0,.68-.13.89-.38s.31-.62.31-1.08v-.71c0-.46-.1-.82-.31-1.08s-.5-.38-.89-.38c-.21,0-.41.06-.6.18s-.36.28-.5.49h-1.09v-4.49h4.34v1.14h-3.15v1.92c.15-.12.31-.21.5-.28s.37-.1.56-.1c.74,0,1.32.23,1.72.68s.61,1.1.61,1.92v.71c0,.83-.21,1.48-.63,1.93s-1.01.68-1.77.68Z"/>
  </g>
  <path class="cls-4" d="m22.15,87.05c.16-.05.31-.1.45-.14.14-.04.27-.08.39-.11.12-.03.22-.05.3-.07.08-.02.15-.02.2-.02.07,0,.14.01.2.03.06.02.12.06.18.12.06.06.11.14.17.25.06.11.11.24.17.41.07.2.14.39.21.57.07.18.13.36.2.53.15-.29.29-.55.44-.79.15-.24.29-.44.44-.61.15-.17.3-.3.45-.39.15-.09.31-.14.47-.14.1,0,.19.02.27.05.08.03.14.07.2.12.05.05.09.11.12.18.03.07.04.14.04.21,0,.1-.02.19-.07.29s-.12.17-.22.24h-.03c-.04-.05-.08-.09-.13-.12-.04-.03-.09-.05-.13-.07-.05-.02-.09-.03-.13-.03-.04,0-.09,0-.13,0-.13,0-.26.04-.39.12-.12.08-.24.18-.36.32s-.23.3-.34.48c-.11.18-.22.39-.33.6.11.29.21.55.3.78.09.22.17.42.25.58s.16.3.23.41.15.2.23.26.16.11.24.14.18.04.28.04c.07,0,.13,0,.19,0,.06,0,.12-.01.17-.02.06-.01.11-.03.18-.04s.13-.04.21-.07l.07.2c-.11.07-.23.14-.35.21-.13.06-.25.12-.38.16-.13.04-.25.08-.37.1-.12.02-.23.04-.34.04-.15,0-.28-.04-.4-.11-.12-.07-.23-.19-.33-.34-.11-.16-.21-.36-.32-.6-.11-.24-.23-.54-.36-.88-.16.29-.32.55-.48.79-.16.24-.32.45-.48.62-.16.17-.32.31-.48.4-.16.1-.32.14-.49.14-.1,0-.19-.01-.26-.04s-.14-.06-.19-.11c-.05-.04-.09-.1-.11-.16-.03-.06-.04-.12-.04-.19,0-.08.02-.16.05-.24.03-.08.09-.16.15-.23.12.05.23.08.33.1.1.02.19.03.26.03.15,0,.29-.04.42-.11.13-.07.27-.18.39-.31.13-.13.25-.29.38-.48.13-.19.25-.4.38-.63-.04-.11-.08-.22-.12-.34-.04-.12-.09-.24-.13-.37s-.1-.27-.15-.41-.11-.3-.17-.46c-.05-.14-.1-.25-.16-.34-.05-.09-.11-.16-.16-.21-.06-.05-.12-.08-.19-.1-.07-.02-.14-.03-.22-.03-.07,0-.16,0-.26.03-.1.02-.21.04-.32.06l-.05-.24Z"/>
  <path class="cls-4" d="m73.77,42.28c.16-.05.31-.1.45-.14s.27-.08.39-.11c.12-.03.22-.05.3-.07.08-.02.15-.02.2-.02.07,0,.14.01.2.03.06.02.12.06.18.12.06.06.11.14.17.25.06.1.11.24.17.41.07.2.14.39.21.57.07.18.13.36.2.53.15-.29.29-.55.44-.79.15-.24.29-.44.44-.61.15-.17.3-.3.45-.39.15-.09.31-.14.47-.14.1,0,.19.02.27.05.08.03.14.07.2.12.05.05.09.11.12.18.03.07.04.14.04.21,0,.1-.02.19-.07.29-.05.09-.12.18-.22.24h-.03c-.04-.05-.08-.09-.13-.12-.04-.03-.09-.05-.13-.07-.05-.02-.09-.03-.13-.03-.04,0-.09,0-.13,0-.13,0-.26.04-.39.11-.12.08-.24.18-.36.32-.12.14-.23.3-.34.48-.11.18-.22.39-.33.6.11.29.21.55.3.78.09.22.17.42.25.58.08.16.16.3.23.41s.15.2.23.26c.08.07.16.11.24.14s.18.04.28.04c.07,0,.13,0,.19,0,.06,0,.12-.01.17-.02.06-.01.11-.03.18-.04s.13-.04.21-.07l.07.2c-.11.07-.23.14-.35.21-.13.06-.25.12-.38.16-.13.04-.25.08-.37.1-.12.02-.23.04-.34.04-.15,0-.28-.04-.4-.11-.12-.07-.23-.19-.33-.34-.11-.16-.21-.36-.32-.6-.11-.24-.23-.54-.36-.88-.16.29-.32.55-.48.79-.16.24-.32.44-.48.62-.16.17-.32.31-.48.4-.16.1-.32.14-.49.14-.1,0-.19-.01-.26-.04s-.14-.06-.19-.11c-.05-.04-.09-.1-.11-.16-.03-.06-.04-.12-.04-.19,0-.08.02-.16.05-.24.03-.08.09-.16.15-.23.12.05.23.08.33.1.1.02.19.03.26.03.15,0,.29-.04.42-.11s.27-.18.39-.31c.13-.13.25-.29.38-.48s.25-.4.38-.63c-.04-.11-.08-.22-.12-.34-.04-.12-.09-.24-.13-.37-.05-.13-.1-.27-.15-.41-.05-.14-.11-.3-.17-.46-.05-.14-.1-.25-.16-.34-.05-.09-.11-.16-.16-.21-.06-.05-.12-.08-.19-.1-.07-.02-.14-.03-.22-.03-.07,0-.16,0-.26.03-.1.02-.21.04-.32.06l-.05-.24Z"/>
  <g>
    <path class="cls-4" d="m81.66,75.52v8.52h-1.2v-7.22l-1.21.74v-1.24l1.21-.81h1.2Z"/>
    <path class="cls-4" d="m86.03,84.13c-.81,0-1.42-.22-1.83-.65s-.61-1.02-.61-1.77v-3.87c0-.75.21-1.35.62-1.78s1.02-.64,1.82-.64,1.41.21,1.82.64.61,1.02.61,1.78v3.87c0,.75-.2,1.35-.61,1.78s-1.01.64-1.82.64Zm0-1.14c.44,0,.75-.11.95-.34s.29-.54.29-.94v-3.87c0-.4-.1-.72-.29-.94s-.51-.34-.95-.34-.75.11-.95.34-.29.54-.29.94v3.87c0,.4.1.71.29.94s.51.34.95.34Z"/>
  </g>
  <g>
    <path class="cls-4" d="m126.86,44.09v8.52h-1.2v-7.22l-1.21.74v-1.24l1.21-.81h1.2Z"/>
    <path class="cls-4" d="m128.66,52.61v-1.04l2.97-3.96c.17-.23.31-.46.4-.7s.14-.47.14-.69h0c0-.35-.1-.62-.3-.8s-.48-.28-.85-.28c-.34,0-.62.1-.84.31s-.35.5-.4.87h0s-1.24,0-1.24,0h0c.11-.74.37-1.31.8-1.71s.98-.61,1.66-.61c.77,0,1.36.19,1.78.58s.63.93.63,1.64h0c0,.31-.06.62-.19.95s-.3.65-.52.95l-2.47,3.35h3.22v1.14h-4.8Z"/>
  </g>
</svg>