<?xml version="1.0" encoding="utf-8"?>
<!-- Generator: Adobe Illustrator 23.0.0, SVG Export Plug-In . SVG Version: 6.00 Build 0)  -->
<svg version="1.1" id="Calque_1" xmlns="http://www.w3.org/2000/svg" xmlns:xlink="http://www.w3.org/1999/xlink" x="0px" y="0px"
	 viewBox="0 0 176.8 162" style="enable-background:new 0 0 176.8 162;" xml:space="preserve">
<style type="text/css">
	.st0{fill:#FBB040;stroke:#000000;stroke-linejoin:round;stroke-miterlimit:10;}
	.st1{fill:#8DC63F;stroke:#000000;stroke-linejoin:round;stroke-miterlimit:10;}
	.st2{fill:none;stroke:#ED1C24;stroke-linecap:round;stroke-linejoin:round;stroke-miterlimit:10;}
	.st3{fill:#ED1C24;}
</style>
<polygon class="st0" points="0.5,87.8 1,31.9 43,14.1 37.4,59.5 85.5,87.8 85.1,143.7 43,161.5 48.7,116.2 "/>
<polygon class="st1" points="128.1,14.1 176.3,42.4 170.7,87.8 134.2,60.2 85.6,87.7 37.4,59.4 43,14.1 79.5,41.7 "/>
<g>
	<g>
		<line class="st2" x1="41.1" y1="12.3" x2="44.9" y2="16.1"/>
		<line class="st2" x1="44.9" y1="12.3" x2="41.1" y2="16.1"/>
	</g>
	<g>
		<g>
			<path class="st3" d="M42.5,1.7h1l3.1,8.5h-1.3L43,3.4l-2.4,6.9h-1.3L42.5,1.7z M40.8,7.3h4.5v1.1h-4.5V7.3z"/>
		</g>
	</g>
</g>
<g>
	<g>
		<line class="st2" x1="83.6" y1="85.6" x2="87.4" y2="89.4"/>
		<line class="st2" x1="87.4" y1="85.6" x2="83.6" y2="89.4"/>
	</g>
	<g>
		<g>
			<path class="st3" d="M82.7,75.1h1.2v8.5h-1.2V75.1z M83.4,82.5h2.3c0.6,0,1-0.1,1.3-0.3s0.4-0.6,0.4-1v0c0-0.3,0-0.5-0.1-0.7
				s-0.3-0.4-0.5-0.5s-0.5-0.2-0.8-0.2h-2.6v-1.1H86c0.4,0,0.8-0.1,1-0.3s0.3-0.5,0.3-0.9c0-0.4-0.1-0.7-0.4-1s-0.6-0.3-1.1-0.3
				h-2.4v-1.1h2.7c0.6,0,1,0.1,1.4,0.3s0.6,0.5,0.8,0.8s0.3,0.8,0.3,1.2c0,0.3-0.1,0.6-0.2,0.8s-0.3,0.5-0.5,0.7s-0.5,0.3-0.9,0.4
				c0.3,0.1,0.6,0.2,0.9,0.4s0.4,0.4,0.6,0.7s0.2,0.6,0.2,0.9v0c0,0.5-0.1,0.9-0.3,1.2s-0.5,0.6-0.9,0.8s-0.8,0.3-1.3,0.3h-2.8V82.5
				z"/>
		</g>
	</g>
</g>
</svg>
