<?xml version="1.0" encoding="utf-8"?>
<!-- Generator: Adobe Illustrator 23.0.0, SVG Export Plug-In . SVG Version: 6.00 Build 0)  -->
<svg version="1.1" id="Calque_1" xmlns="http://www.w3.org/2000/svg" xmlns:xlink="http://www.w3.org/1999/xlink" x="0px" y="0px"
	 viewBox="0 0 66.7 90.1" style="enable-background:new 0 0 66.7 90.1;" xml:space="preserve">
<style type="text/css">
	.st0{fill:none;stroke:#39B54A;stroke-miterlimit:10;}
	.st1{fill:#39B54A;}
	.st2{fill:none;stroke:#006838;stroke-miterlimit:10;}
	.st3{fill:#006838;}
	.st4{fill:none;stroke:#ED1C24;stroke-miterlimit:10;}
	.st5{fill:none;stroke:#000000;stroke-miterlimit:10;}
	.st6{fill:none;stroke:#000000;stroke-miterlimit:10;stroke-dasharray:2.0684,2.0684;}
	.st7{fill:none;stroke:#000000;stroke-miterlimit:10;stroke-dasharray:2.0795,2.0795;}
</style>
<polygon class="st0" points="12.4,10.2 20,39 44.4,26.8 "/>
<path class="st1" d="M51.5,47.2c-0.5-1.3-0.7-2.7-0.7-4.1c0-3.1,1.2-6,3.1-8.1l9.1,8.2L51.5,47.2z"/>
<g>
	<g>
		<path class="st2" d="M51,45.4c-0.1-0.8-0.2-1.5-0.2-2.3c0-3.1,1.2-6,3.1-8.1"/>
		<g>
			<polygon class="st3" points="48.9,45.7 53,44.6 51.5,47.2 			"/>
		</g>
	</g>
</g>
<polygon class="st4" points="9,70.6 37.7,78.5 39.4,51.1 "/>
<g>
	<g>
		<line class="st5" x1="44.4" y1="26.8" x2="45.2" y2="27.5"/>
		<line class="st6" x1="46.7" y1="28.8" x2="61.4" y2="41.9"/>
		<polyline class="st5" points="62.2,42.6 62.9,43.2 62,43.6 		"/>
		<line class="st7" x1="60" y1="44.2" x2="41.3" y2="50.5"/>
		<line class="st5" x1="40.3" y1="50.8" x2="39.4" y2="51.1"/>
	</g>
</g>
<g>
	<line class="st5" x1="60.9" y1="41.1" x2="64.9" y2="45.1"/>
	<line class="st5" x1="64.9" y1="41.1" x2="60.9" y2="45.1"/>
</g>
<g>
	<g>
		<path d="M62,53.6c-0.4-0.2-0.7-0.5-0.9-0.9c-0.2-0.4-0.3-0.9-0.3-1.4v-2c0-0.5,0.1-1,0.3-1.4c0.2-0.4,0.5-0.7,0.9-0.9
			c0.4-0.2,0.9-0.3,1.4-0.3s1,0.1,1.4,0.3c0.4,0.2,0.7,0.5,0.9,0.9c0.2,0.4,0.3,0.9,0.3,1.4v2c0,0.5-0.1,1-0.3,1.4
			c-0.2,0.4-0.5,0.7-0.9,0.9c-0.4,0.2-0.9,0.3-1.4,0.3S62.4,53.9,62,53.6z M64.2,52.8c0.2-0.1,0.4-0.3,0.5-0.6
			c0.1-0.2,0.2-0.5,0.2-0.8v-2.1c0-0.3-0.1-0.6-0.2-0.8c-0.1-0.2-0.3-0.4-0.5-0.6c-0.2-0.1-0.5-0.2-0.8-0.2c-0.3,0-0.6,0.1-0.8,0.2
			c-0.2,0.1-0.4,0.3-0.5,0.6c-0.1,0.2-0.2,0.5-0.2,0.8v2.1c0,0.3,0.1,0.6,0.2,0.8c0.1,0.2,0.3,0.4,0.5,0.6c0.2,0.1,0.5,0.2,0.8,0.2
			C63.6,53,63.9,52.9,64.2,52.8z"/>
	</g>
</g>
<g>
	<g>
		<path d="M45.8,17.5h1v7.1h-1V17.5z M46.4,23.7h2c0.5,0,0.9-0.1,1.2-0.3c0.2-0.2,0.4-0.5,0.4-0.8v0c0-0.2,0-0.4-0.1-0.6
			s-0.2-0.3-0.4-0.4s-0.4-0.1-0.7-0.1h-2.3v-0.9h2.3c0.4,0,0.7-0.1,0.9-0.3s0.3-0.4,0.3-0.8c0-0.4-0.1-0.6-0.3-0.8s-0.5-0.3-1-0.3
			h-2.1v-0.9h2.3c0.5,0,0.9,0.1,1.2,0.2s0.6,0.4,0.7,0.7s0.2,0.6,0.2,1c0,0.2,0,0.5-0.1,0.7s-0.3,0.4-0.5,0.5s-0.5,0.3-0.8,0.3
			c0.3,0,0.6,0.1,0.8,0.3s0.4,0.4,0.5,0.6c0.1,0.2,0.2,0.5,0.2,0.8v0c0,0.4-0.1,0.7-0.3,1c-0.2,0.3-0.4,0.5-0.8,0.7
			c-0.3,0.2-0.7,0.2-1.2,0.2h-2.4V23.7z"/>
	</g>
</g>
<g>
	<g>
		<path d="M42.4,51.5h1v7.1h-1V51.5z M43,57.6h2c0.5,0,0.9-0.1,1.2-0.3c0.2-0.2,0.4-0.5,0.4-0.8v0c0-0.2,0-0.4-0.1-0.6
			s-0.2-0.3-0.4-0.4c-0.2-0.1-0.4-0.1-0.7-0.1H43v-0.9h2.3c0.4,0,0.7-0.1,0.9-0.3s0.3-0.4,0.3-0.8c0-0.4-0.1-0.6-0.3-0.8
			s-0.5-0.3-1-0.3H43v-0.9h2.3c0.5,0,0.9,0.1,1.2,0.2s0.6,0.4,0.7,0.7s0.2,0.6,0.2,1c0,0.2,0,0.5-0.1,0.7c-0.1,0.2-0.3,0.4-0.5,0.5
			c-0.2,0.2-0.5,0.3-0.8,0.3c0.3,0,0.6,0.1,0.8,0.3c0.2,0.2,0.4,0.4,0.5,0.6c0.1,0.2,0.2,0.5,0.2,0.8v0c0,0.4-0.1,0.7-0.3,1
			c-0.2,0.3-0.4,0.5-0.8,0.7c-0.3,0.2-0.7,0.2-1.2,0.2H43V57.6z"/>
		<path d="M48.6,51.5h1.1V53l-1.1,1.1V51.5z"/>
	</g>
</g>
<g>
	<g>
		<path d="M17.8,40.7h0.9l2.8,7.1h-1.1L18.2,42l-2.1,5.7H15L17.8,40.7z M16.3,45.3h3.9v0.9h-3.9V45.3z"/>
	</g>
</g>
<g>
	<g>
		<path d="M39,80.3h0.9l2.8,7.1h-1.1l-2.1-5.7l-2.1,5.7h-1.1L39,80.3z M37.5,84.9h3.9v0.9h-3.9V84.9z"/>
		<path d="M43.2,80.3h1.1v1.6L43.2,83V80.3z"/>
	</g>
</g>
<g>
	<g>
		<path d="M2.6,74.7c0,0-0.2-0.1-0.6-0.3c-0.4-0.2-0.7-0.5-0.9-0.9C0.9,73,0.8,72.6,0.8,72v-1.9c0-0.5,0.1-1,0.3-1.4
			C1.3,68.3,1.6,68,2,67.8c0.4-0.2,0.8-0.3,1.4-0.3c0.4,0,0.8,0.1,1.2,0.3c0.4,0.2,0.7,0.4,0.9,0.7c0.2,0.3,0.4,0.7,0.5,1.1H4.9
			c-0.1-0.2-0.2-0.4-0.3-0.6c-0.2-0.2-0.3-0.3-0.5-0.4c-0.2-0.1-0.4-0.1-0.6-0.1c-0.3,0-0.6,0.1-0.8,0.2S2.2,69,2,69.2
			c-0.1,0.3-0.2,0.5-0.2,0.9V72c0,0.3,0.1,0.6,0.2,0.9s0.3,0.5,0.5,0.6c0.2,0.1,0.5,0.2,0.8,0.2c0.2,0,0.4,0,0.6-0.1
			s0.4-0.2,0.5-0.4s0.3-0.4,0.3-0.6H6c-0.1,0.4-0.3,0.8-0.5,1.1s-0.5,0.6-0.9,0.7c-0.4,0.2-0.8,0.3-1.2,0.3
			C2.9,74.7,2.6,74.7,2.6,74.7z"/>
		<path d="M6.9,67.5H8v1.6l-1.1,1.1V67.5z"/>
	</g>
</g>
<g>
	<g>
		<path d="M10.8,8.6c0,0-0.2-0.1-0.6-0.3C9.8,8.1,9.5,7.8,9.3,7.4C9,7,8.9,6.5,8.9,6V4c0-0.5,0.1-1,0.3-1.4c0.2-0.4,0.5-0.7,0.9-0.9
			c0.4-0.2,0.8-0.3,1.4-0.3c0.4,0,0.8,0.1,1.2,0.3s0.7,0.4,0.9,0.7c0.2,0.3,0.4,0.7,0.5,1.1H13c-0.1-0.2-0.2-0.4-0.3-0.6
			s-0.3-0.3-0.5-0.4c-0.2-0.1-0.4-0.1-0.6-0.1c-0.3,0-0.6,0.1-0.8,0.2s-0.4,0.3-0.5,0.6S10,3.7,10,4V6c0,0.3,0.1,0.6,0.2,0.9
			s0.3,0.5,0.5,0.6s0.5,0.2,0.8,0.2c0.2,0,0.4,0,0.6-0.1s0.4-0.2,0.5-0.4S13,6.8,13,6.5h1.1c-0.1,0.4-0.3,0.8-0.5,1.1
			s-0.5,0.6-0.9,0.7c-0.4,0.2-0.8,0.3-1.2,0.3C11,8.6,10.8,8.6,10.8,8.6z"/>
	</g>
</g>
<g>
	<g>
		<path class="st1" d="M36,42.3c-0.3-0.2-0.5-0.4-0.7-0.7s-0.2-0.7-0.2-1.2v0c0-0.3,0-0.5,0.1-0.8c0.1-0.3,0.2-0.6,0.3-0.9
			c0,0,0-0.1,0.1-0.1s0-0.1,0.1-0.1l1.6-3.1h1.1l-1.9,3.5l0-0.2c0.1-0.2,0.2-0.3,0.4-0.4c0.2-0.1,0.4-0.1,0.6-0.1
			c0.4,0,0.7,0.1,1,0.2c0.3,0.2,0.5,0.4,0.6,0.7s0.2,0.7,0.2,1.1v0c0,0.5-0.1,0.8-0.2,1.2s-0.4,0.6-0.7,0.7
			c-0.3,0.2-0.7,0.3-1.1,0.3C36.7,42.6,36.4,42.5,36,42.3z M37.9,41.3c0.2-0.2,0.3-0.5,0.3-0.8v0c0-0.4-0.1-0.7-0.3-0.9
			c-0.2-0.2-0.5-0.3-0.8-0.3c-0.3,0-0.6,0.1-0.7,0.3c-0.2,0.2-0.3,0.5-0.3,0.9v0c0,0.4,0.1,0.6,0.3,0.8c0.2,0.2,0.4,0.3,0.8,0.3
			C37.5,41.6,37.8,41.5,37.9,41.3z"/>
		<path class="st1" d="M41.2,42c-0.4-0.4-0.5-0.8-0.5-1.5v-3.2c0-0.6,0.2-1.1,0.5-1.5c0.4-0.4,0.9-0.5,1.6-0.5
			c0.7,0,1.2,0.2,1.6,0.5c0.4,0.4,0.5,0.8,0.5,1.5v3.2c0,0.6-0.2,1.1-0.5,1.5s-0.9,0.5-1.6,0.5C42.1,42.6,41.6,42.4,41.2,42z
			 M43.6,41.3c0.2-0.2,0.3-0.4,0.3-0.8v-3.2c0-0.3-0.1-0.6-0.3-0.8s-0.4-0.3-0.8-0.3s-0.6,0.1-0.8,0.3s-0.3,0.4-0.3,0.8v3.2
			c0,0.3,0.1,0.6,0.3,0.8s0.5,0.3,0.8,0.3C43.2,41.6,43.4,41.5,43.6,41.3z"/>
		<path class="st1" d="M46.5,37.8c-0.3-0.3-0.4-0.6-0.4-1.1c0-0.5,0.1-0.8,0.4-1.1c0.3-0.3,0.6-0.4,1.1-0.4c0.5,0,0.9,0.1,1.1,0.4
			c0.3,0.3,0.4,0.6,0.4,1.1c0,0.5-0.1,0.8-0.4,1.1c-0.3,0.3-0.6,0.4-1.1,0.4C47.1,38.2,46.8,38.1,46.5,37.8z M48.1,37.3
			c0.1-0.1,0.2-0.3,0.2-0.5c0-0.2-0.1-0.4-0.2-0.5s-0.3-0.2-0.5-0.2s-0.4,0.1-0.5,0.2C47,36.4,47,36.6,47,36.8s0.1,0.4,0.2,0.5
			c0.1,0.1,0.3,0.2,0.5,0.2C47.8,37.4,48,37.4,48.1,37.3z"/>
	</g>
</g>
</svg>
