<?xml version="1.0" encoding="utf-8"?>
<!-- Generator: Adobe Illustrator 23.0.0, SVG Export Plug-In . SVG Version: 6.00 Build 0)  -->
<svg version="1.1" id="Calque_1" xmlns="http://www.w3.org/2000/svg" xmlns:xlink="http://www.w3.org/1999/xlink" x="0px" y="0px"
	 viewBox="0 0 97.3 101.4" style="enable-background:new 0 0 97.3 101.4;" xml:space="preserve">
<style type="text/css">
	.st0{fill:#39B54A;}
	.st1{fill:none;stroke:#000000;stroke-miterlimit:10;}
	.st2{fill:none;stroke:#000000;stroke-miterlimit:10;stroke-dasharray:2.0826,2.0826;}
	.st3{fill:none;stroke:#006838;stroke-miterlimit:10;}
	.st4{fill:none;stroke:#ED1C24;stroke-miterlimit:10;}
	.st5{fill:none;stroke:#27AAE1;stroke-miterlimit:10;}
	.st6{fill:#27AAE1;}
	.st7{fill:#009444;}
	.st8{fill:#ED1C24;}
</style>
<path class="st0" d="M37.6,47.6c2-3.5,5.3-6.2,9.3-7.3L51,55.1L37.6,47.6z"/>
<g>
	<line class="st1" x1="49.1" y1="53.2" x2="53" y2="57.1"/>
	<line class="st1" x1="53" y1="53.2" x2="49.1" y2="57.1"/>
</g>
<circle class="st1" cx="51" cy="55.1" r="45.7"/>
<g>
	<g>
		<line class="st1" x1="51" y1="55.1" x2="50.8" y2="54.2"/>
		<line class="st2" x1="50.2" y1="52.2" x2="39.1" y2="13.1"/>
		<line class="st1" x1="38.8" y1="12.1" x2="38.6" y2="11.1"/>
	</g>
</g>
<g>
	<g>
		<line class="st1" x1="51" y1="55.1" x2="50.2" y2="54.7"/>
		<line class="st2" x1="48.4" y1="53.6" x2="12.9" y2="33.9"/>
		<line class="st1" x1="12" y1="33.4" x2="11.1" y2="32.9"/>
	</g>
</g>
<g>
	<line class="st3" x1="36.6" y1="9.1" x2="40.5" y2="13.1"/>
	<line class="st3" x1="40.5" y1="9.1" x2="36.6" y2="13.1"/>
</g>
<g>
	<line class="st4" x1="9" y1="30.8" x2="13" y2="34.8"/>
	<line class="st4" x1="13" y1="30.8" x2="9" y2="34.8"/>
</g>
<g>
	<g>
		<path class="st5" d="M11.9,19.6c4.5-4.9,9.9-9,15.9-12"/>
		<g>
			<polygon class="st6" points="9.9,21.8 13.9,19.9 12,19.5 11.4,17.6 			"/>
		</g>
	</g>
</g>
<g>
	<g>
		<path class="st7" d="M46,1.5h1v7.1h-1V3.2L46,3.5l-1.8,4h-0.7l-1.8-3.9l0.1-0.4v5.3h-1V1.5h1l2.2,4.7L46,1.5z"/>
	</g>
</g>
<g>
	<g>
		<path class="st8" d="M6.3,25.1h1v7.1h-1v-5.3l0.1,0.3l-1.8,4H3.7l-1.8-3.9L2,26.9v5.3h-1v-7.1h1l2.2,4.7L6.3,25.1z"/>
		<path class="st8" d="M8.6,25.1h1.1v1.6l-1.1,1.1V25.1z"/>
	</g>
</g>
<g>
	<g>
		<path d="M49.6,66.6c-0.4-0.2-0.7-0.5-0.9-0.9c-0.2-0.4-0.3-0.9-0.3-1.4v-2c0-0.5,0.1-1,0.3-1.4c0.2-0.4,0.5-0.7,0.9-0.9
			c0.4-0.2,0.9-0.3,1.4-0.3c0.5,0,1,0.1,1.4,0.3c0.4,0.2,0.7,0.5,0.9,0.9c0.2,0.4,0.3,0.9,0.3,1.4v2c0,0.5-0.1,1-0.3,1.4
			c-0.2,0.4-0.5,0.7-0.9,0.9c-0.4,0.2-0.9,0.3-1.4,0.3C50.4,66.9,50,66.8,49.6,66.6z M51.7,65.7c0.2-0.1,0.4-0.3,0.5-0.6
			c0.1-0.2,0.2-0.5,0.2-0.8v-2.1c0-0.3-0.1-0.6-0.2-0.8c-0.1-0.2-0.3-0.4-0.5-0.6c-0.2-0.1-0.5-0.2-0.8-0.2c-0.3,0-0.6,0.1-0.8,0.2
			c-0.2,0.1-0.4,0.3-0.5,0.6c-0.1,0.2-0.2,0.5-0.2,0.8v2.1c0,0.3,0.1,0.6,0.2,0.8c0.1,0.2,0.3,0.4,0.5,0.6c0.2,0.1,0.5,0.2,0.8,0.2
			C51.2,65.9,51.5,65.9,51.7,65.7z"/>
	</g>
</g>
<g>
	<g>
		<path class="st0" d="M29.5,39l2.5-5.1h1.1l-2.4,5.1h3.7v0.9h-4.8V39z M32.7,36.7h1v4.2h-1V36.7z"/>
		<path class="st0" d="M36.7,40.8c-0.3-0.1-0.5-0.3-0.7-0.6s-0.3-0.6-0.4-1v0h1v0c0,0.3,0.1,0.5,0.3,0.6c0.2,0.1,0.4,0.2,0.7,0.2
			c0.3,0,0.6-0.1,0.8-0.3s0.3-0.5,0.3-0.9v-0.6c0-0.4-0.1-0.7-0.3-0.9S38,37,37.7,37c-0.2,0-0.4,0-0.5,0.1s-0.3,0.2-0.4,0.4h-1v-3.7
			h3.8v0.9h-2.8v1.6c0.1-0.1,0.3-0.2,0.4-0.2c0.2-0.1,0.3-0.1,0.5-0.1c0.4,0,0.8,0.1,1.1,0.3s0.5,0.4,0.7,0.7
			c0.2,0.3,0.2,0.7,0.2,1.2v0.6c0,0.5-0.1,0.9-0.2,1.2c-0.2,0.3-0.4,0.6-0.7,0.7S38.1,41,37.7,41C37.3,41,37,40.9,36.7,40.8z"/>
		<path class="st0" d="M41.4,36.3C41.1,36,41,35.7,41,35.2c0-0.5,0.1-0.8,0.4-1.1c0.3-0.3,0.6-0.4,1.1-0.4c0.5,0,0.9,0.1,1.1,0.4
			c0.3,0.3,0.4,0.6,0.4,1.1c0,0.5-0.1,0.8-0.4,1.1s-0.6,0.4-1.1,0.4C42,36.7,41.6,36.5,41.4,36.3z M43,35.7c0.1-0.1,0.2-0.3,0.2-0.5
			c0-0.2-0.1-0.4-0.2-0.5s-0.3-0.2-0.5-0.2c-0.2,0-0.4,0.1-0.5,0.2s-0.2,0.3-0.2,0.5s0.1,0.4,0.2,0.5s0.3,0.2,0.5,0.2
			C42.7,35.9,42.9,35.8,43,35.7z"/>
	</g>
</g>
</svg>
