<?xml version="1.0" encoding="utf-8"?>
<!-- Generator: Adobe Illustrator 23.0.0, SVG Export Plug-In . SVG Version: 6.00 Build 0)  -->
<svg version="1.1" id="Calque_1" xmlns="http://www.w3.org/2000/svg" xmlns:xlink="http://www.w3.org/1999/xlink" x="0px" y="0px"
	 viewBox="0 0 325.9 245.1" style="enable-background:new 0 0 325.9 245.1;" xml:space="preserve">
<style type="text/css">
	.st0{fill:none;stroke:#000000;stroke-width:0.8859;stroke-miterlimit:10;}
	.st1{fill:none;stroke:#000000;stroke-miterlimit:10;}
	.st2{fill:none;stroke:#00AEEF;stroke-miterlimit:10;}
	.st3{fill:none;stroke:#006838;stroke-linecap:round;stroke-miterlimit:10;}
	.st4{fill:none;stroke:#00AEEF;stroke-linecap:round;stroke-miterlimit:10;}
	.st5{fill:#00AEEF;}
	.st6{fill:#006838;}
	.st7{fill:none;stroke:#ED1C24;stroke-miterlimit:10;}
	.st8{fill:#ED1C24;}
	.st9{fill:none;stroke:#1B75BC;stroke-width:1.4276;stroke-miterlimit:10;}
	.st10{fill:#1B75BC;}
</style>
<line class="st0" x1="81.4" y1="201.2" x2="181.9" y2="201.2"/>
<line class="st1" x1="3.5" y1="3.9" x2="131.6" y2="3.9"/>
<line class="st1" x1="131.6" y1="102.5" x2="131.6" y2="224.1"/>
<circle class="st2" cx="131.6" cy="102.5" r="98.6"/>
<g>
	<line class="st3" x1="226.8" y1="99.1" x2="233.7" y2="106"/>
	<line class="st3" x1="233.7" y1="99.1" x2="226.8" y2="106"/>
</g>
<g>
	<line class="st3" x1="128.2" y1="197.8" x2="135" y2="204.6"/>
	<line class="st3" x1="135" y1="197.8" x2="128.2" y2="204.6"/>
</g>
<g>
	<line class="st3" x1="128.2" y1="0.5" x2="135" y2="7.3"/>
	<line class="st3" x1="135" y1="0.5" x2="128.2" y2="7.3"/>
</g>
<g>
	<line class="st3" x1="29.6" y1="99.1" x2="36.4" y2="106"/>
	<line class="st3" x1="36.4" y1="99.1" x2="29.6" y2="106"/>
</g>
<g>
	<line class="st3" x1="128.2" y1="99.1" x2="135" y2="106"/>
	<line class="st3" x1="135" y1="99.1" x2="128.2" y2="106"/>
</g>
<g>
	<g>
		<path class="st4" d="M42.4,42.4c3.9-5.7,8.3-11.1,13.1-15.9s10.2-9.3,15.9-13.1"/>
		<g>
			<polygon class="st5" points="39.4,46.8 46.1,42.3 42.6,42 41,38.9 			"/>
		</g>
	</g>
</g>
<g>
	<g>
		<path class="st4" d="M55.5,178.6c-4.9-4.9-9.3-10.2-13.1-15.9c-3.9-5.7-7.2-11.8-9.9-18.3"/>
		<g>
			<polygon class="st5" points="59.2,182.4 56.1,175 55.2,178.4 51.8,179.3 			"/>
		</g>
	</g>
</g>
<g>
	<g>
		<path class="st4" d="M230.8,144.4c-2.7,6.4-6.1,12.6-9.9,18.3c-3.9,5.7-8.3,11.1-13.1,15.9"/>
		<g>
			<polygon class="st5" points="232.8,139.6 227.1,145.2 230.6,144.8 232.7,147.6 			"/>
		</g>
	</g>
</g>
<g>
	<g>
		<path class="st4" d="M191.8,13.3c5.7,3.9,11.1,8.3,15.9,13.1c4.9,4.9,9.3,10.2,13.1,15.9"/>
		<g>
			<polygon class="st5" points="187.4,10.3 191.9,17 192.1,13.5 195.3,12 			"/>
		</g>
	</g>
</g>
<g>
	<g>
		<path d="M197.2,186.5h1.7v11.1h-1.7V186.5z M198.1,191.8h4c0.4,0,0.7-0.1,1-0.2s0.5-0.4,0.7-0.7s0.2-0.6,0.2-1
			c0-0.4-0.1-0.7-0.2-1s-0.4-0.5-0.7-0.7c-0.3-0.2-0.6-0.2-1-0.2h-4v-1.5h3.9c0.7,0,1.4,0.1,2,0.4s1,0.7,1.3,1.2
			c0.3,0.5,0.5,1.1,0.5,1.8s-0.2,1.3-0.5,1.8c-0.3,0.5-0.7,0.9-1.3,1.2s-1.2,0.4-2,0.4h-3.9V191.8z"/>
		<path d="M209.7,195.5c0,0.2,0,0.3,0.1,0.4c0.1,0.1,0.2,0.2,0.4,0.2h0.8v1.5h-1c-0.7,0-1.2-0.2-1.5-0.6c-0.4-0.4-0.5-0.9-0.5-1.6
			v-9.1h1.7V195.5z"/>
		<path d="M213.4,197.1c-0.5-0.4-0.8-1-0.8-1.8c0-0.8,0.2-1.4,0.7-1.8s1.2-0.6,2.2-0.6h2.5l0.1,1.3h-2.6c-0.5,0-0.8,0.1-1,0.3
			c-0.2,0.2-0.3,0.5-0.3,0.8c0,0.4,0.1,0.7,0.4,0.9c0.3,0.2,0.8,0.3,1.4,0.3c0.7,0,1.2-0.1,1.5-0.2c0.3-0.1,0.5-0.3,0.5-0.6l0.2,1.1
			c-0.2,0.2-0.3,0.4-0.6,0.5c-0.2,0.1-0.5,0.2-0.8,0.3c-0.3,0.1-0.6,0.1-1,0.1C214.7,197.7,213.9,197.5,213.4,197.1z M218,192.6
			c0-0.5-0.2-0.9-0.5-1.2c-0.3-0.3-0.8-0.4-1.3-0.4c-0.4,0-0.7,0-1,0.1c-0.3,0.1-0.6,0.2-0.9,0.4l-1.3-0.8c0.3-0.4,0.8-0.6,1.3-0.8
			s1.2-0.3,1.8-0.3c0.7,0,1.4,0.1,1.9,0.3c0.5,0.2,0.9,0.6,1.2,1c0.3,0.4,0.4,1,0.4,1.6v5.1H218V192.6z"/>
		<path d="M221.6,189.6h4v1.4h-4V189.6z M223,197.1c-0.3-0.4-0.5-0.9-0.5-1.6v-8.2h1.7v8.2c0,0.2,0,0.3,0.1,0.4s0.2,0.2,0.4,0.2h0.8
			v1.5h-1C223.9,197.6,223.4,197.5,223,197.1z"/>
		<path d="M230.4,197.7c0,0-0.3-0.1-0.9-0.4c-0.6-0.3-1-0.7-1.3-1.2c-0.3-0.5-0.5-1.2-0.5-1.9v-0.9c0-0.8,0.1-1.5,0.4-2
			c0.3-0.6,0.7-1,1.3-1.3c0.6-0.3,1.2-0.4,2-0.4c0.7,0,1.4,0.2,1.9,0.5c0.5,0.3,0.9,0.8,1.2,1.4c0.3,0.6,0.4,1.4,0.4,2.3v0.5h-6V193
			h4.3c-0.1-0.6-0.2-1.2-0.6-1.5c-0.3-0.4-0.8-0.5-1.3-0.5c-0.7,0-1.2,0.2-1.5,0.6c-0.4,0.4-0.5,0.9-0.5,1.6v1
			c0,0.7,0.2,1.2,0.6,1.5c0.4,0.4,0.9,0.5,1.7,0.5c0.4,0,0.7-0.1,1.1-0.2c0.3-0.1,0.7-0.3,0.9-0.5l1.1,1c-0.4,0.4-0.9,0.7-1.5,0.9
			c-0.5,0.2-1.1,0.3-1.7,0.3C230.8,197.7,230.4,197.7,230.4,197.7z"/>
		<path d="M236.7,189.6h4.4v1.3h-4.4V189.6z M237.7,188.6c0-0.7,0.2-1.2,0.5-1.6c0.4-0.3,0.9-0.5,1.7-0.5h1.3v1.5h-1.2
			c-0.2,0-0.3,0.1-0.4,0.2s-0.1,0.3-0.1,0.4v9h-1.7V188.6z"/>
		<path d="M244.4,197.3c-0.5-0.3-1-0.7-1.3-1.2s-0.4-1.1-0.4-1.9V193c0-0.7,0.1-1.3,0.4-1.8c0.3-0.5,0.7-0.9,1.3-1.2
			c0.5-0.3,1.2-0.4,2-0.4c0.8,0,1.4,0.1,2,0.4c0.5,0.3,1,0.7,1.3,1.2c0.3,0.5,0.4,1.1,0.4,1.8v1.3c0,0.7-0.1,1.3-0.4,1.9
			c-0.3,0.5-0.7,0.9-1.3,1.2c-0.5,0.3-1.2,0.4-2,0.4C245.6,197.7,244.9,197.6,244.4,197.3z M247.8,195.7c0.3-0.3,0.5-0.8,0.5-1.4
			V193c0-0.6-0.2-1.1-0.5-1.4s-0.8-0.5-1.4-0.5c-0.6,0-1.1,0.2-1.4,0.5s-0.5,0.8-0.5,1.4v1.3c0,0.6,0.2,1.1,0.5,1.4
			c0.3,0.3,0.8,0.5,1.4,0.5C247,196.2,247.5,196.1,247.8,195.7z"/>
		<path d="M252.5,189.6h1.7v7.9h-1.7V189.6z M256.8,191.1c-0.2-0.1-0.5-0.1-0.8-0.1c-0.6,0-1,0.1-1.3,0.4c-0.3,0.3-0.5,0.7-0.5,1.1
			l-0.2-1.5c0.3-0.5,0.6-0.8,1.1-1.1c0.4-0.3,0.9-0.4,1.4-0.4c0.4,0,0.8,0.1,1.1,0.2c0.3,0.1,0.6,0.3,0.9,0.5l-1.1,1.4
			C257.2,191.4,257.1,191.2,256.8,191.1z"/>
		<path d="M260,189.6h1.7v7.9H260V189.6z M265.3,192.8c0-0.6-0.2-1-0.5-1.3c-0.3-0.3-0.7-0.5-1.3-0.5c-0.6,0-1,0.1-1.3,0.4
			s-0.5,0.7-0.5,1.1l-0.2-1.5c0.3-0.5,0.6-0.9,1.1-1.1s0.9-0.4,1.5-0.4c0.6,0,1.2,0.1,1.6,0.4c0.4,0.3,0.8,0.6,1,1.1
			c0.2,0.5,0.3,1.1,0.3,1.8v4.8h-1.7V192.8z M270.6,192.8c0-0.6-0.2-1-0.5-1.3c-0.3-0.3-0.8-0.5-1.4-0.5c-0.5,0-1,0.1-1.3,0.4
			s-0.4,0.7-0.4,1.3l-0.4-1.5c0.3-0.5,0.6-0.9,1.1-1.2c0.5-0.3,1-0.4,1.5-0.4c0.6,0,1.2,0.1,1.6,0.4c0.5,0.3,0.8,0.6,1,1.1
			c0.2,0.5,0.4,1.1,0.4,1.8v4.8h-1.7V192.8z"/>
		<path d="M277.4,197.7c0,0-0.3-0.1-0.9-0.4c-0.6-0.3-1-0.7-1.3-1.2c-0.3-0.5-0.5-1.2-0.5-1.9v-0.9c0-0.8,0.1-1.5,0.4-2
			c0.3-0.6,0.7-1,1.3-1.3c0.6-0.3,1.2-0.4,2-0.4c0.7,0,1.4,0.2,1.9,0.5c0.5,0.3,0.9,0.8,1.2,1.4c0.3,0.6,0.4,1.4,0.4,2.3v0.5h-6V193
			h4.3c-0.1-0.6-0.2-1.2-0.6-1.5c-0.3-0.4-0.8-0.5-1.3-0.5c-0.7,0-1.2,0.2-1.5,0.6c-0.4,0.4-0.5,0.9-0.5,1.6v1
			c0,0.7,0.2,1.2,0.6,1.5c0.4,0.4,0.9,0.5,1.7,0.5c0.4,0,0.7-0.1,1.1-0.2c0.3-0.1,0.7-0.3,0.9-0.5l1.1,1c-0.4,0.4-0.9,0.7-1.5,0.9
			c-0.5,0.2-1.1,0.3-1.7,0.3C277.8,197.7,277.4,197.7,277.4,197.7z"/>
		<path d="M198.2,213.4c-0.5-0.3-0.8-0.6-1-1.1c-0.2-0.5-0.4-1.1-0.4-1.7v-1.8c0-0.7,0.1-1.3,0.4-1.8c0.2-0.5,0.6-0.9,1-1.1
			c0.4-0.3,1-0.4,1.6-0.4c0.5,0,1,0.1,1.4,0.4c0.4,0.2,0.8,0.6,1.1,1l-0.2,1.6c0-0.3-0.1-0.6-0.2-0.9c-0.1-0.2-0.3-0.4-0.6-0.5
			c-0.3-0.1-0.6-0.2-0.9-0.2c-0.6,0-1,0.2-1.3,0.5c-0.3,0.3-0.5,0.8-0.5,1.4v1.7c0,0.6,0.2,1,0.5,1.3s0.8,0.5,1.3,0.5
			c0.4,0,0.7-0.1,0.9-0.2c0.3-0.1,0.5-0.3,0.6-0.6c0.1-0.2,0.2-0.5,0.2-0.9l0.1,1.7c-0.2,0.4-0.5,0.7-0.9,1
			c-0.4,0.3-0.9,0.4-1.5,0.4C199.2,213.7,198.6,213.6,198.2,213.4z M202.1,202.5h1.7v11.1h-1.7V202.5z"/>
		<path d="M205.7,202.5h1.8v2.5l-1.8,1.7V202.5z"/>
		<path d="M212,213.7c0,0-0.3-0.1-0.9-0.4c-0.6-0.3-1-0.7-1.3-1.2c-0.3-0.5-0.5-1.2-0.5-1.9v-0.9c0-0.8,0.1-1.5,0.4-2
			c0.3-0.6,0.7-1,1.3-1.3c0.6-0.3,1.2-0.4,2-0.4c0.7,0,1.4,0.2,1.9,0.5c0.5,0.3,0.9,0.8,1.2,1.4c0.3,0.6,0.4,1.4,0.4,2.3v0.5h-6V209
			h4.3c-0.1-0.6-0.2-1.2-0.6-1.5c-0.3-0.4-0.8-0.5-1.3-0.5c-0.7,0-1.2,0.2-1.5,0.6c-0.4,0.4-0.5,0.9-0.5,1.6v1
			c0,0.7,0.2,1.2,0.6,1.5c0.4,0.4,0.9,0.5,1.7,0.5c0.4,0,0.7-0.1,1.1-0.2c0.3-0.1,0.7-0.3,0.9-0.5l1.1,1c-0.4,0.4-0.9,0.7-1.5,0.9
			c-0.5,0.2-1.1,0.3-1.7,0.3C212.4,213.7,212,213.7,212,213.7z"/>
		<path d="M219,205.6h1.7v7.9H219V205.6z M224.3,208.8c0-0.6-0.2-1-0.5-1.3c-0.3-0.3-0.7-0.5-1.3-0.5c-0.6,0-1,0.1-1.3,0.4
			s-0.5,0.7-0.5,1.1l-0.2-1.5c0.3-0.5,0.6-0.9,1.1-1.1s0.9-0.4,1.5-0.4c0.6,0,1.2,0.1,1.6,0.4c0.4,0.3,0.8,0.6,1,1.1
			c0.2,0.5,0.3,1.1,0.3,1.8v4.8h-1.7V208.8z M229.6,208.8c0-0.6-0.2-1-0.5-1.3c-0.3-0.3-0.8-0.5-1.4-0.5c-0.5,0-1,0.1-1.3,0.4
			s-0.4,0.7-0.4,1.3l-0.4-1.5c0.3-0.5,0.6-0.9,1.1-1.2c0.5-0.3,1-0.4,1.5-0.4c0.6,0,1.2,0.1,1.6,0.4c0.5,0.3,0.8,0.6,1,1.1
			c0.2,0.5,0.4,1.1,0.4,1.8v4.8h-1.7V208.8z"/>
		<path d="M234,202.5h1.7v11.1H234V202.5z M236.5,213.4c-0.4-0.2-0.7-0.6-0.9-1l0.1-1.7c0,0.3,0.1,0.6,0.2,0.9s0.3,0.4,0.6,0.6
			c0.3,0.1,0.6,0.2,0.9,0.2c0.6,0,1-0.2,1.3-0.5c0.3-0.3,0.5-0.8,0.5-1.3v-1.7c0-0.6-0.2-1-0.5-1.4c-0.3-0.3-0.8-0.5-1.3-0.5
			c-0.4,0-0.7,0.1-0.9,0.2c-0.3,0.1-0.5,0.3-0.6,0.5c-0.1,0.2-0.2,0.5-0.2,0.9l-0.2-1.5c0.3-0.5,0.6-0.8,1.1-1.1
			c0.4-0.3,0.9-0.4,1.4-0.4c0.6,0,1.2,0.1,1.6,0.4c0.4,0.3,0.8,0.6,1,1.1c0.2,0.5,0.4,1.1,0.4,1.8v1.7c0,0.7-0.1,1.3-0.4,1.7
			c-0.2,0.5-0.6,0.8-1.1,1.1s-1,0.4-1.7,0.4C237.4,213.7,236.9,213.6,236.5,213.4z"/>
		<path d="M243.9,213.1c-0.5-0.4-0.8-1-0.8-1.8c0-0.8,0.2-1.4,0.7-1.8s1.2-0.6,2.2-0.6h2.5l0.1,1.3h-2.6c-0.5,0-0.8,0.1-1,0.3
			c-0.2,0.2-0.3,0.5-0.3,0.8c0,0.4,0.1,0.7,0.4,0.9c0.3,0.2,0.8,0.3,1.4,0.3c0.7,0,1.2-0.1,1.5-0.2c0.3-0.1,0.5-0.3,0.5-0.6l0.2,1.1
			c-0.2,0.2-0.3,0.4-0.6,0.5c-0.2,0.1-0.5,0.2-0.8,0.3c-0.3,0.1-0.6,0.1-1,0.1C245.2,213.7,244.4,213.5,243.9,213.1z M248.5,208.6
			c0-0.5-0.2-0.9-0.5-1.2c-0.3-0.3-0.8-0.4-1.3-0.4c-0.4,0-0.7,0-1,0.1c-0.3,0.1-0.6,0.2-0.9,0.4l-1.3-0.8c0.3-0.4,0.8-0.6,1.3-0.8
			s1.2-0.3,1.8-0.3c0.7,0,1.4,0.1,1.9,0.3c0.5,0.2,0.9,0.6,1.2,1c0.3,0.4,0.4,1,0.4,1.6v5.1h-1.7V208.6z"/>
		<path d="M252.8,205.6h1.7v7.9h-1.7V205.6z M257.1,207.1c-0.2-0.1-0.5-0.1-0.8-0.1c-0.6,0-1,0.1-1.3,0.4c-0.3,0.3-0.5,0.7-0.5,1.1
			l-0.2-1.5c0.3-0.5,0.6-0.8,1.1-1.1c0.4-0.3,0.9-0.4,1.4-0.4c0.4,0,0.8,0.1,1.1,0.2c0.3,0.1,0.6,0.3,0.9,0.5l-1.1,1.4
			C257.5,207.4,257.4,207.2,257.1,207.1z"/>
		<path d="M261.4,213.4c-0.5-0.3-0.8-0.6-1-1.1c-0.2-0.5-0.4-1.1-0.4-1.7v-1.8c0-0.7,0.1-1.3,0.4-1.8c0.2-0.5,0.6-0.9,1-1.1
			c0.4-0.3,1-0.4,1.6-0.4c0.5,0,1,0.1,1.4,0.4c0.4,0.2,0.8,0.6,1.1,1l-0.2,1.6c0-0.3-0.1-0.6-0.2-0.9c-0.1-0.2-0.3-0.4-0.6-0.5
			c-0.3-0.1-0.6-0.2-0.9-0.2c-0.6,0-1,0.2-1.3,0.5c-0.3,0.3-0.5,0.8-0.5,1.4v1.7c0,0.6,0.2,1,0.5,1.3s0.8,0.5,1.3,0.5
			c0.4,0,0.7-0.1,0.9-0.2c0.3-0.1,0.5-0.3,0.6-0.6c0.1-0.2,0.2-0.5,0.2-0.9l0.1,1.7c-0.2,0.4-0.5,0.7-0.9,1
			c-0.4,0.3-0.9,0.4-1.5,0.4C262.5,213.7,261.9,213.6,261.4,213.4z M265.3,205.6h1.7v11.2h-1.7V205.6z"/>
		<path d="M271.5,210.5c0,0.6,0.2,1,0.5,1.3s0.8,0.5,1.3,0.5c0.6,0,1-0.1,1.3-0.4c0.3-0.3,0.5-0.7,0.5-1.2l0.1,1.7
			c-0.2,0.4-0.5,0.7-0.9,1c-0.4,0.3-0.9,0.4-1.5,0.4c-1,0-1.7-0.3-2.3-0.8s-0.8-1.4-0.8-2.4v-4.8h1.7V210.5z M275.1,205.6h1.7v7.9
			h-1.7V205.6z"/>
		<path d="M281.9,213.7c0,0-0.3-0.1-0.9-0.4c-0.6-0.3-1-0.7-1.3-1.2c-0.3-0.5-0.5-1.2-0.5-1.9v-0.9c0-0.8,0.1-1.5,0.4-2
			c0.3-0.6,0.7-1,1.3-1.3c0.6-0.3,1.2-0.4,2-0.4c0.7,0,1.4,0.2,1.9,0.5c0.5,0.3,0.9,0.8,1.2,1.4c0.3,0.6,0.4,1.4,0.4,2.3v0.5h-6V209
			h4.3c-0.1-0.6-0.2-1.2-0.6-1.5c-0.3-0.4-0.8-0.5-1.3-0.5c-0.7,0-1.2,0.2-1.5,0.6c-0.4,0.4-0.5,0.9-0.5,1.6v1
			c0,0.7,0.2,1.2,0.6,1.5c0.4,0.4,0.9,0.5,1.7,0.5c0.4,0,0.7-0.1,1.1-0.2c0.3-0.1,0.7-0.3,0.9-0.5l1.1,1c-0.4,0.4-0.9,0.7-1.5,0.9
			c-0.5,0.2-1.1,0.3-1.7,0.3C282.3,213.7,281.9,213.7,281.9,213.7z"/>
		<path d="M288.9,205.6h1.7v7.9h-1.7V205.6z M294.2,208.8c0-0.6-0.2-1-0.5-1.3c-0.3-0.3-0.7-0.5-1.3-0.5c-0.6,0-1,0.1-1.3,0.4
			s-0.5,0.7-0.5,1.1l-0.2-1.5c0.3-0.5,0.6-0.9,1.1-1.1s0.9-0.4,1.5-0.4c0.6,0,1.2,0.1,1.6,0.4c0.4,0.3,0.8,0.6,1,1.1
			c0.2,0.5,0.3,1.1,0.3,1.8v4.8h-1.7V208.8z M299.5,208.8c0-0.6-0.2-1-0.5-1.3c-0.3-0.3-0.8-0.5-1.4-0.5c-0.5,0-1,0.1-1.3,0.4
			s-0.4,0.7-0.4,1.3l-0.4-1.5c0.3-0.5,0.6-0.9,1.1-1.2c0.5-0.3,1-0.4,1.5-0.4c0.6,0,1.2,0.1,1.6,0.4c0.5,0.3,0.8,0.6,1,1.1
			c0.2,0.5,0.4,1.1,0.4,1.8v4.8h-1.7V208.8z"/>
		<path d="M306.3,213.7c0,0-0.3-0.1-0.9-0.4c-0.6-0.3-1-0.7-1.3-1.2c-0.3-0.5-0.5-1.2-0.5-1.9v-0.9c0-0.8,0.1-1.5,0.4-2
			c0.3-0.6,0.7-1,1.3-1.3c0.6-0.3,1.2-0.4,2-0.4c0.7,0,1.4,0.2,1.9,0.5c0.5,0.3,0.9,0.8,1.2,1.4c0.3,0.6,0.4,1.4,0.4,2.3v0.5h-6V209
			h4.3c-0.1-0.6-0.2-1.2-0.6-1.5c-0.3-0.4-0.8-0.5-1.3-0.5c-0.7,0-1.2,0.2-1.5,0.6c-0.4,0.4-0.5,0.9-0.5,1.6v1
			c0,0.7,0.2,1.2,0.6,1.5c0.4,0.4,0.9,0.5,1.7,0.5c0.4,0,0.7-0.1,1.1-0.2c0.3-0.1,0.7-0.3,0.9-0.5l1.1,1c-0.4,0.4-0.9,0.7-1.5,0.9
			c-0.5,0.2-1.1,0.3-1.7,0.3C306.7,213.7,306.3,213.7,306.3,213.7z"/>
		<path d="M313.3,205.6h1.7v7.9h-1.7V205.6z M318.7,208.8c0-0.6-0.2-1-0.5-1.3c-0.3-0.3-0.8-0.5-1.4-0.5c-0.6,0-1,0.1-1.3,0.4
			s-0.5,0.7-0.5,1.1l-0.2-1.5c0.3-0.5,0.6-0.9,1.1-1.1s0.9-0.4,1.5-0.4c1,0,1.7,0.3,2.2,0.8s0.8,1.4,0.8,2.4v4.8h-1.7V208.8z"/>
		<path d="M322.4,205.6h4v1.4h-4V205.6z M323.8,213.1c-0.3-0.4-0.5-0.9-0.5-1.6v-8.2h1.7v8.2c0,0.2,0,0.3,0.1,0.4s0.2,0.2,0.4,0.2
			h0.8v1.5h-1C324.6,213.6,324.1,213.5,323.8,213.1z"/>
	</g>
</g>
<g>
	<g>
		<path class="st6" d="M214.7,107.2c-0.6-0.3-1.1-0.8-1.4-1.4c-0.3-0.6-0.5-1.3-0.5-2.2v-3.2c0-0.8,0.2-1.5,0.5-2.2
			c0.3-0.6,0.8-1.1,1.4-1.4s1.3-0.5,2.2-0.5c0.8,0,1.5,0.2,2.2,0.5s1.1,0.8,1.4,1.4c0.3,0.6,0.5,1.3,0.5,2.2v3.2
			c0,0.8-0.2,1.5-0.5,2.2c-0.3,0.6-0.8,1.1-1.4,1.4c-0.6,0.3-1.3,0.5-2.2,0.5C216,107.7,215.3,107.6,214.7,107.2z M218.1,105.9
			c0.4-0.2,0.7-0.5,0.9-0.9s0.3-0.8,0.3-1.3v-3.3c0-0.5-0.1-0.9-0.3-1.3c-0.2-0.4-0.5-0.7-0.9-0.9c-0.4-0.2-0.8-0.3-1.3-0.3
			c-0.5,0-0.9,0.1-1.3,0.3c-0.4,0.2-0.7,0.5-0.9,0.9c-0.2,0.4-0.3,0.8-0.3,1.3v3.3c0,0.5,0.1,0.9,0.3,1.3s0.5,0.7,0.9,0.9
			c0.4,0.2,0.8,0.3,1.3,0.3C217.3,106.2,217.7,106.1,218.1,105.9z M216.8,104.5l0.9-1l4.4,3.3l-0.9,1L216.8,104.5z"/>
	</g>
</g>
<g>
	<g>
		<path d="M151,216.3h-1.7v-9.4l-1.7,1v-1.6l1.7-1.1h1.7V216.3z"/>
		<path d="M154.6,215.6c-0.6-0.6-0.9-1.3-0.9-2.3v-5.1c0-1,0.3-1.8,0.9-2.3c0.6-0.6,1.5-0.8,2.6-0.8c1.1,0,2,0.3,2.6,0.8
			c0.6,0.6,0.9,1.3,0.9,2.3v5.1c0,1-0.3,1.8-0.9,2.3s-1.5,0.8-2.6,0.8C156.1,216.4,155.2,216.1,154.6,215.6z M158.5,214.5
			c0.3-0.3,0.4-0.7,0.4-1.2v-5.1c0-0.5-0.1-1-0.4-1.2c-0.3-0.3-0.7-0.4-1.3-0.4c-0.6,0-1.1,0.1-1.3,0.4c-0.3,0.3-0.4,0.7-0.4,1.2
			v5.1c0,0.5,0.1,1,0.4,1.2c0.3,0.3,0.7,0.4,1.3,0.4S158.3,214.8,158.5,214.5z"/>
		<path d="M167.9,208.4h1.7v7.9h-1.7V208.4z M173.1,211.5c0-0.6-0.2-1-0.5-1.3c-0.3-0.3-0.7-0.5-1.3-0.5c-0.6,0-1,0.1-1.3,0.4
			c-0.3,0.3-0.5,0.7-0.5,1.1l-0.2-1.5c0.3-0.5,0.6-0.9,1.1-1.1s0.9-0.4,1.4-0.4c0.6,0,1.1,0.1,1.6,0.4c0.4,0.3,0.8,0.6,1,1.1
			c0.2,0.5,0.3,1.1,0.3,1.8v4.8h-1.7V211.5z M178.3,211.5c0-0.6-0.2-1-0.5-1.3c-0.3-0.3-0.8-0.5-1.3-0.5c-0.5,0-0.9,0.1-1.2,0.4
			c-0.3,0.3-0.4,0.7-0.4,1.3l-0.3-1.5c0.3-0.5,0.6-0.9,1.1-1.2c0.5-0.3,0.9-0.4,1.5-0.4c0.6,0,1.2,0.1,1.6,0.4
			c0.4,0.3,0.8,0.6,1,1.1c0.2,0.5,0.3,1.1,0.3,1.8v4.8h-1.7V211.5z"/>
	</g>
</g>
<g>
	<g>
		<path d="M13.4,127.4v1.7H4l1,1.7H3.3l-1.1-1.7v-1.7H13.4z"/>
		<path d="M13.2,122.9c-0.2,0.5-0.5,0.9-1,1.2c-0.4,0.3-0.9,0.5-1.5,0.6h0V123h0c0.4-0.1,0.7-0.2,1-0.5c0.2-0.3,0.3-0.7,0.3-1.2
			c0-0.5-0.2-1-0.5-1.3c-0.3-0.3-0.8-0.4-1.4-0.4H9.2c-0.6,0-1.1,0.1-1.4,0.4c-0.3,0.3-0.5,0.7-0.5,1.3c0,0.3,0.1,0.6,0.2,0.9
			c0.2,0.3,0.4,0.5,0.6,0.7v1.6H2.3v-6.2h1.5v4.5h2.5c-0.2-0.2-0.3-0.5-0.4-0.7c-0.1-0.3-0.1-0.5-0.1-0.8c0-0.7,0.1-1.3,0.4-1.8
			s0.7-0.9,1.2-1.1c0.5-0.3,1.1-0.4,1.8-0.4h0.9c0.7,0,1.3,0.1,1.8,0.4c0.5,0.3,0.9,0.7,1.2,1.2c0.3,0.5,0.4,1.1,0.4,1.9
			C13.5,121.9,13.4,122.4,13.2,122.9z"/>
		<path d="M12.7,114.4c-0.6,0.6-1.3,0.9-2.3,0.9H5.3c-1,0-1.8-0.3-2.3-0.9c-0.6-0.6-0.8-1.5-0.8-2.6c0-1.1,0.3-2,0.8-2.6
			c0.6-0.6,1.3-0.9,2.3-0.9h5.1c1,0,1.8,0.3,2.3,0.9s0.8,1.5,0.8,2.6C13.5,113,13.2,113.8,12.7,114.4z M11.6,110.5
			c-0.3-0.3-0.7-0.4-1.2-0.4H5.3c-0.5,0-1,0.1-1.2,0.4c-0.3,0.3-0.4,0.7-0.4,1.3c0,0.6,0.1,1.1,0.4,1.3c0.3,0.3,0.7,0.4,1.2,0.4h5.1
			c0.5,0,1-0.1,1.2-0.4c0.3-0.3,0.4-0.7,0.4-1.3S11.9,110.8,11.6,110.5z"/>
		<path d="M8.6,90.7c-0.6,0-1,0.2-1.3,0.5C7,91.5,6.8,92,6.8,92.5c0,0.5,0.1,0.9,0.4,1.2c0.3,0.3,0.7,0.4,1.3,0.4L7,94.6
			c-0.5-0.3-0.9-0.6-1.2-1.1S5.3,92.5,5.3,92c0-0.6,0.1-1.2,0.4-1.6c0.3-0.4,0.6-0.8,1.1-1S7.9,89,8.6,89h4.8v1.7H8.6z M8.6,95.9
			c-0.6,0-1,0.2-1.3,0.5c-0.3,0.3-0.5,0.7-0.5,1.3c0,0.6,0.1,1,0.4,1.3c0.3,0.3,0.7,0.5,1.1,0.5l-1.5,0.2C6.4,99.3,6,99,5.7,98.5
			c-0.3-0.4-0.4-0.9-0.4-1.4c0-0.6,0.1-1.1,0.4-1.6c0.3-0.4,0.6-0.8,1.1-1s1.1-0.3,1.8-0.3h4.8v1.7H8.6z M5.5,101.1v-1.7h7.9v1.7
			H5.5z"/>
	</g>
</g>
<g>
	<g>
		<path class="st6" d="M127.9,11.9h1.6V23h-1.6V11.9z M128.6,16.8h4c0.3,0,0.6-0.1,0.8-0.2c0.2-0.1,0.4-0.3,0.6-0.6
			c0.1-0.3,0.2-0.6,0.2-0.9c0-0.3-0.1-0.6-0.2-0.9c-0.1-0.3-0.3-0.5-0.6-0.6s-0.5-0.2-0.8-0.2h-4v-1.5h3.9c0.7,0,1.3,0.1,1.8,0.4
			c0.5,0.3,0.9,0.6,1.2,1.1c0.3,0.5,0.4,1.1,0.4,1.7s-0.1,1.2-0.4,1.7c-0.3,0.5-0.7,0.9-1.2,1.1c-0.5,0.3-1.1,0.4-1.8,0.4h-3.9V16.8
			z M131.8,18l1.6-0.4l3,5.4h-2L131.8,18z"/>
	</g>
</g>
<g>
	<g>
		<path class="st6" d="M45,107.7c0,0-0.3-0.1-0.8-0.2c-0.5-0.1-1-0.3-1.4-0.5s-0.8-0.5-1.2-0.8l1-1.2c0.4,0.4,0.9,0.6,1.5,0.8
			c0.5,0.2,1.1,0.3,1.8,0.3c0.8,0,1.5-0.1,2-0.4c0.5-0.3,0.7-0.7,0.7-1.3v0c0-0.4-0.1-0.7-0.3-0.9s-0.5-0.4-0.8-0.5
			c-0.3-0.1-0.8-0.2-1.3-0.3c0,0,0,0-0.1,0c0,0,0,0-0.1,0l-0.1,0c-0.8-0.1-1.4-0.3-1.9-0.4c-0.5-0.2-0.9-0.5-1.3-0.9s-0.5-1-0.5-1.8
			v0c0-0.7,0.2-1.3,0.5-1.8c0.3-0.5,0.8-0.9,1.4-1.1c0.6-0.3,1.4-0.4,2.3-0.4c0.4,0,0.8,0,1.2,0.1c0.4,0.1,0.8,0.2,1.2,0.4
			c0.4,0.2,0.8,0.4,1.2,0.6L49,98.8c-0.4-0.3-0.9-0.5-1.3-0.7c-0.4-0.2-0.9-0.2-1.3-0.2c-0.8,0-1.4,0.2-1.9,0.5
			c-0.4,0.3-0.7,0.7-0.7,1.3v0c0,0.4,0.1,0.7,0.3,0.9c0.2,0.2,0.5,0.4,0.9,0.5s0.8,0.2,1.4,0.3c0,0,0,0,0.1,0c0,0,0,0,0.1,0
			c0,0,0.1,0,0.1,0c0,0,0.1,0,0.1,0c0.7,0.1,1.3,0.3,1.8,0.5c0.5,0.2,0.9,0.5,1.2,0.9c0.3,0.4,0.5,1,0.5,1.7v0
			c0,0.7-0.2,1.3-0.5,1.7c-0.3,0.5-0.8,0.9-1.5,1.1c-0.6,0.3-1.4,0.4-2.3,0.4C45.3,107.7,45,107.7,45,107.7z"/>
	</g>
</g>
<g>
	<g>
		<path class="st6" d="M109.1,165.1h1.6v11.1h-1.6V165.1z M110,170.4h3.8c0.4,0,0.7-0.1,0.9-0.2s0.5-0.4,0.6-0.7s0.2-0.6,0.2-1
			c0-0.4-0.1-0.7-0.2-1s-0.4-0.5-0.6-0.7c-0.3-0.2-0.6-0.2-0.9-0.2H110v-1.5h3.7c0.7,0,1.3,0.1,1.8,0.4c0.5,0.3,0.9,0.7,1.2,1.2
			s0.4,1.1,0.4,1.8s-0.1,1.3-0.4,1.8c-0.3,0.5-0.7,0.9-1.2,1.2c-0.5,0.3-1.1,0.4-1.8,0.4H110V170.4z"/>
	</g>
</g>
<g>
	<g>
		<path class="st6" d="M135.3,83.8h1.5V95h-1.6v-8.3l0.1,0.5l-2.9,6.3h-1.1l-2.9-6.1l0.1-0.6V95h-1.6V83.8h1.5l3.4,7.4L135.3,83.8z"
			/>
	</g>
</g>
<g>
	<g>
		<line class="st3" x1="113.4" y1="176.3" x2="121.6" y2="188.7"/>
		<g>
			<polygon class="st6" points="118.7,188.5 121.2,188 122.6,185.9 123.7,191.8 			"/>
		</g>
	</g>
</g>
<g>
	<g>
		<line class="st7" x1="18.4" y1="8.8" x2="18.4" y2="218.6"/>
		<g>
			<polygon class="st8" points="15.3,14.7 16.2,15.1 18.4,8.9 20.7,15.1 21.6,14.7 18.4,6 			"/>
		</g>
		<g>
			<polygon class="st8" points="15.3,212.7 16.2,212.3 18.4,218.5 20.7,212.3 21.6,212.7 18.4,221.4 			"/>
		</g>
	</g>
</g>
<g>
	<g>
		<line class="st7" x1="140.2" y1="206.2" x2="140.2" y2="220.5"/>
		<g>
			<polygon class="st8" points="137,212.1 138,212.4 140.2,206.3 142.5,212.4 143.4,212.1 140.2,203.3 			"/>
		</g>
		<g>
			<polygon class="st8" points="137,214.6 138,214.2 140.2,220.4 142.5,214.2 143.4,214.6 140.2,223.3 			"/>
		</g>
	</g>
</g>
<line class="st9" x1="1.1" y1="224.1" x2="322.1" y2="224.1"/>
<g>
	<g>
		<path class="st10" d="M171.1,229.7h1.7v11.1h-1.7V229.7z M172,239.3h7v1.5h-7V239.3z"/>
		<path class="st10" d="M180.8,229.7h1.7v1.6h-1.7V229.7z M180.8,232.9h1.7v7.9h-1.7V232.9z"/>
		<path class="st10" d="M184.5,232.9h3.9v1.4h-3.9V232.9z M185.9,240.3c-0.3-0.4-0.5-0.9-0.5-1.6v-8.2h1.7v8.2c0,0.2,0,0.3,0.1,0.4
			c0.1,0.1,0.2,0.2,0.4,0.2h0.8v1.5h-1C186.7,240.9,186.2,240.7,185.9,240.3z"/>
		<path class="st10" d="M196.5,240.6c-0.5-0.3-0.8-0.6-1-1.1s-0.4-1.1-0.4-1.7V236c0-0.7,0.1-1.3,0.3-1.8c0.2-0.5,0.6-0.9,1-1.1
			c0.4-0.3,1-0.4,1.6-0.4c0.5,0,1,0.1,1.4,0.4s0.8,0.6,1,1l-0.2,1.6c0-0.3-0.1-0.6-0.2-0.9c-0.1-0.2-0.3-0.4-0.6-0.5
			s-0.6-0.2-0.9-0.2c-0.6,0-1,0.2-1.3,0.5c-0.3,0.3-0.5,0.8-0.5,1.4v1.7c0,0.6,0.2,1,0.5,1.3s0.7,0.5,1.3,0.5c0.4,0,0.7-0.1,0.9-0.2
			c0.3-0.1,0.4-0.3,0.6-0.6c0.1-0.2,0.2-0.5,0.2-0.9l0.1,1.7c-0.2,0.4-0.5,0.7-0.9,1c-0.4,0.3-0.9,0.4-1.5,0.4
			C197.5,241,197,240.8,196.5,240.6z M200.4,229.7h1.7v11.1h-1.7V229.7z"/>
		<path class="st10" d="M206.4,237.7c0,0.6,0.2,1,0.5,1.3s0.7,0.5,1.3,0.5c0.6,0,1-0.1,1.3-0.4c0.3-0.3,0.5-0.7,0.5-1.2l0.1,1.7
			c-0.2,0.4-0.5,0.7-0.9,1c-0.4,0.3-0.9,0.4-1.5,0.4c-1,0-1.7-0.3-2.2-0.8s-0.8-1.4-0.8-2.4v-4.8h1.7V237.7z M209.9,232.9h1.7v7.9
			h-1.7V232.9z"/>
		<path class="st10" d="M218.2,232.9h4.4v1.3h-4.4V232.9z M219.1,231.8c0-0.7,0.2-1.2,0.5-1.6s0.9-0.5,1.6-0.5h1.3v1.5h-1.2
			c-0.2,0-0.3,0.1-0.4,0.2s-0.1,0.3-0.1,0.4v9h-1.7V231.8z"/>
		<path class="st10" d="M226,238.8c0,0.2,0,0.3,0.1,0.4c0.1,0.1,0.2,0.2,0.4,0.2h0.8v1.5h-1c-0.7,0-1.2-0.2-1.5-0.6
			c-0.4-0.4-0.5-0.9-0.5-1.6v-9.1h1.7V238.8z"/>
		<path class="st10" d="M231.7,240.9c0,0-0.3-0.1-0.9-0.4c-0.6-0.3-1-0.7-1.3-1.2c-0.3-0.5-0.4-1.2-0.4-1.9v-0.9
			c0-0.8,0.1-1.5,0.4-2c0.3-0.6,0.7-1,1.3-1.3c0.5-0.3,1.2-0.4,2-0.4c0.7,0,1.4,0.2,1.9,0.5c0.5,0.3,0.9,0.8,1.2,1.4
			c0.3,0.6,0.4,1.4,0.4,2.3v0.5h-5.9v-1.3h4.3c-0.1-0.6-0.2-1.2-0.6-1.5c-0.3-0.4-0.7-0.5-1.3-0.5c-0.6,0-1.2,0.2-1.5,0.6
			c-0.4,0.4-0.5,0.9-0.5,1.6v1c0,0.7,0.2,1.2,0.6,1.5c0.4,0.4,0.9,0.5,1.6,0.5c0.3,0,0.7-0.1,1-0.2c0.3-0.1,0.6-0.3,0.9-0.5l1.1,1
			c-0.4,0.4-0.9,0.7-1.5,0.9c-0.5,0.2-1.1,0.3-1.6,0.3C232.1,240.9,231.7,240.9,231.7,240.9z"/>
		<path class="st10" d="M240.3,237.7c0,0.6,0.2,1,0.5,1.3s0.7,0.5,1.3,0.5c0.6,0,1-0.1,1.3-0.4c0.3-0.3,0.5-0.7,0.5-1.2l0.1,1.7
			c-0.2,0.4-0.5,0.7-0.9,1c-0.4,0.3-0.9,0.4-1.5,0.4c-1,0-1.7-0.3-2.2-0.8s-0.8-1.4-0.8-2.4v-4.8h1.7V237.7z M243.8,232.9h1.7v7.9
			h-1.7V232.9z"/>
		<path class="st10" d="M253.3,232.9h1.8l-3.3,7.9h-1.3l-3.3-7.9h1.8l2.1,5.7L253.3,232.9z"/>
		<path class="st10" d="M259.1,240.9c0,0-0.3-0.1-0.9-0.4c-0.6-0.3-1-0.7-1.3-1.2c-0.3-0.5-0.4-1.2-0.4-1.9v-0.9
			c0-0.8,0.1-1.5,0.4-2c0.3-0.6,0.7-1,1.3-1.3c0.5-0.3,1.2-0.4,2-0.4c0.7,0,1.4,0.2,1.9,0.5c0.5,0.3,0.9,0.8,1.2,1.4
			c0.3,0.6,0.4,1.4,0.4,2.3v0.5h-5.9v-1.3h4.3c-0.1-0.6-0.2-1.2-0.6-1.5c-0.3-0.4-0.7-0.5-1.3-0.5c-0.6,0-1.2,0.2-1.5,0.6
			c-0.4,0.4-0.5,0.9-0.5,1.6v1c0,0.7,0.2,1.2,0.6,1.5c0.4,0.4,0.9,0.5,1.6,0.5c0.3,0,0.7-0.1,1-0.2c0.3-0.1,0.6-0.3,0.9-0.5l1.1,1
			c-0.4,0.4-0.9,0.7-1.5,0.9c-0.5,0.2-1.1,0.3-1.6,0.3C259.5,240.9,259.1,240.9,259.1,240.9z"/>
	</g>
</g>
</svg>
