<svg xmlns="http://www.w3.org/2000/svg" width="4cm" height="4cm" viewBox="0 0 113.39 113.39">
  <title>Volumes</title>
  <circle cx="56.69" cy="56.69" r="49.95" fill="none" stroke="#231f20" stroke-miterlimit="10" stroke-width="2"/>
  <path d="M6.74,56.69c0-13.79,22.37-25,49.95-25s50,11.18,50,25" fill="none" stroke="#231f20" stroke-miterlimit="10" stroke-width="2" stroke-dasharray="5.54 3.17"/>
  <path d="M106.64,56.69c0,13.8-22.36,25-49.95,25S6.74,70.49,6.74,56.69" fill="none" stroke="#231f20" stroke-miterlimit="10" stroke-width="2"/>
  <path d="M56.69,6.74c13.8,0,25,22.37,25,49.95s-11.18,50-25,50" fill="none" stroke="#231f20" stroke-miterlimit="10" stroke-width="2" stroke-dasharray="5.54 3.17"/>
  <path d="M56.69,106.64c-13.79,0-25-22.36-25-49.95S42.9,6.74,56.69,6.74" fill="none" stroke="#231f20" stroke-miterlimit="10" stroke-width="2"/>
  <g>
    <line x1="56.69" y1="56.69" x2="55.99" y2="57.4" fill="none" stroke="#231f20" stroke-linecap="round" stroke-miterlimit="10"/>
    <line x1="54.59" y1="58.8" x2="35.76" y2="77.63" fill="none" stroke="#231f20" stroke-linecap="round" stroke-miterlimit="10" stroke-dasharray="1.97 1.97"/>
    <line x1="35.06" y1="78.33" x2="34.35" y2="79.04" fill="none" stroke="#231f20" stroke-linecap="round" stroke-miterlimit="10"/>
  </g>
  <g>
    <line x1="55.33" y1="55.33" x2="58.05" y2="58.05" fill="none" stroke="#231f20" stroke-linecap="round" stroke-miterlimit="10"/>
    <line x1="58.05" y1="55.33" x2="55.33" y2="58.05" fill="none" stroke="#231f20" stroke-linecap="round" stroke-miterlimit="10"/>
  </g>
  <g>
    <path d="M53.16,63.6h1.19v8.52H53.16Zm.52,3.78h2.91a1.12,1.12,0,0,0,.6-.16,1.18,1.18,0,0,0,.41-.47,1.67,1.67,0,0,0,.14-.69,1.75,1.75,0,0,0-.14-.7,1.11,1.11,0,0,0-1-.63H53.68V63.6h2.86a2.74,2.74,0,0,1,1.3.3,2.12,2.12,0,0,1,.86.87,2.84,2.84,0,0,1,0,2.58,2.18,2.18,0,0,1-.87.86,2.57,2.57,0,0,1-1.29.31H53.68Zm2.32.88L57.19,68l2.18,4.13H58Z" fill="none" stroke="#fff" stroke-miterlimit="10" stroke-width="3"/>
    <path d="M61,71.75a1.77,1.77,0,0,1-.56-1.42A1.71,1.71,0,0,1,60.9,69a2.28,2.28,0,0,1,1.54-.45h1.73l.09,1H62.45a1.06,1.06,0,0,0-.7.2.85.85,0,0,0-.23.64.79.79,0,0,0,.31.69,1.63,1.63,0,0,0,.93.22,2.6,2.6,0,0,0,1-.15.48.48,0,0,0,.34-.46l.12.86a1.24,1.24,0,0,1-.39.4,1.51,1.51,0,0,1-.53.24,2.91,2.91,0,0,1-.69.08A2.57,2.57,0,0,1,61,71.75Zm3.17-3.48a1.3,1.3,0,0,0-.32-.93,1.19,1.19,0,0,0-.9-.33,2.51,2.51,0,0,0-.72.11,2.06,2.06,0,0,0-.61.31l-.88-.6a2.36,2.36,0,0,1,.91-.65A3.4,3.4,0,0,1,62.86,66a2.9,2.9,0,0,1,1.3.27A2,2,0,0,1,65,67a2.59,2.59,0,0,1,.28,1.22v3.91H64.12Z" fill="none" stroke="#fff" stroke-miterlimit="10" stroke-width="3"/>
    <path d="M66.25,66h1.22l1.87,5.29-.66,1.29Zm5.39,0-2.59,7.51a2.07,2.07,0,0,1-.37.66,1.28,1.28,0,0,1-.56.34,2.5,2.5,0,0,1-.82.11h-.24V73.51h.24a.93.93,0,0,0,.53-.13,1.12,1.12,0,0,0,.34-.47L70.42,66Z" fill="none" stroke="#fff" stroke-miterlimit="10" stroke-width="3"/>
    <path d="M73.55,71.9a2.06,2.06,0,0,1-.85-.9,3.19,3.19,0,0,1-.3-1.44v-1a3.06,3.06,0,0,1,.3-1.41,2,2,0,0,1,.85-.9A2.87,2.87,0,0,1,74.91,66a2.83,2.83,0,0,1,1.35.31,2,2,0,0,1,.86.9,3.06,3.06,0,0,1,.3,1.41v1a3.1,3.1,0,0,1-.3,1.42,2.08,2.08,0,0,1-.86.9,2.72,2.72,0,0,1-1.35.31A2.76,2.76,0,0,1,73.55,71.9Zm2.33-1.22a1.61,1.61,0,0,0,.34-1.1v-1a1.57,1.57,0,0,0-.34-1.09,1.4,1.4,0,0,0-1.94,0,1.57,1.57,0,0,0-.34,1.09v1a1.61,1.61,0,0,0,.34,1.1,1.4,1.4,0,0,0,1.94,0Z" fill="none" stroke="#fff" stroke-miterlimit="10" stroke-width="3"/>
    <path d="M79.11,66h1.2v6.08h-1.2Zm3.7,2.4a1.42,1.42,0,0,0-.34-1,1.24,1.24,0,0,0-.94-.35,1.22,1.22,0,0,0-.9.31,1.18,1.18,0,0,0-.32.87l-.12-1.17a2.11,2.11,0,0,1,.73-.85,1.79,1.79,0,0,1,1-.3,1.89,1.89,0,0,1,1.53.65A2.77,2.77,0,0,1,84,68.43v3.69H82.81Z" fill="none" stroke="#fff" stroke-miterlimit="10" stroke-width="3"/>
  </g>
  <g>
    <path d="M53.16,63.6h1.19v8.52H53.16Zm.52,3.78h2.91a1.12,1.12,0,0,0,.6-.16,1.18,1.18,0,0,0,.41-.47,1.67,1.67,0,0,0,.14-.69,1.75,1.75,0,0,0-.14-.7,1.11,1.11,0,0,0-1-.63H53.68V63.6h2.86a2.74,2.74,0,0,1,1.3.3,2.12,2.12,0,0,1,.86.87,2.84,2.84,0,0,1,0,2.58,2.18,2.18,0,0,1-.87.86,2.57,2.57,0,0,1-1.29.31H53.68Zm2.32.88L57.19,68l2.18,4.13H58Z" fill="#231f20"/>
    <path d="M61,71.75a1.77,1.77,0,0,1-.56-1.42A1.71,1.71,0,0,1,60.9,69a2.28,2.28,0,0,1,1.54-.45h1.73l.09,1H62.45a1.06,1.06,0,0,0-.7.2.85.85,0,0,0-.23.64.79.79,0,0,0,.31.69,1.63,1.63,0,0,0,.93.22,2.6,2.6,0,0,0,1-.15.48.48,0,0,0,.34-.46l.12.86a1.24,1.24,0,0,1-.39.4,1.51,1.51,0,0,1-.53.24,2.91,2.91,0,0,1-.69.08A2.57,2.57,0,0,1,61,71.75Zm3.17-3.48a1.3,1.3,0,0,0-.32-.93,1.19,1.19,0,0,0-.9-.33,2.51,2.51,0,0,0-.72.11,2.06,2.06,0,0,0-.61.31l-.88-.6a2.36,2.36,0,0,1,.91-.65A3.4,3.4,0,0,1,62.86,66a2.9,2.9,0,0,1,1.3.27A2,2,0,0,1,65,67a2.59,2.59,0,0,1,.28,1.22v3.91H64.12Z" fill="#231f20"/>
    <path d="M66.25,66h1.22l1.87,5.29-.66,1.29Zm5.39,0-2.59,7.51a2.07,2.07,0,0,1-.37.66,1.28,1.28,0,0,1-.56.34,2.5,2.5,0,0,1-.82.11h-.24V73.51h.24a.93.93,0,0,0,.53-.13,1.12,1.12,0,0,0,.34-.47L70.42,66Z" fill="#231f20"/>
    <path d="M73.55,71.9a2.06,2.06,0,0,1-.85-.9,3.19,3.19,0,0,1-.3-1.44v-1a3.06,3.06,0,0,1,.3-1.41,2,2,0,0,1,.85-.9A2.87,2.87,0,0,1,74.91,66a2.83,2.83,0,0,1,1.35.31,2,2,0,0,1,.86.9,3.06,3.06,0,0,1,.3,1.41v1a3.1,3.1,0,0,1-.3,1.42,2.08,2.08,0,0,1-.86.9,2.72,2.72,0,0,1-1.35.31A2.76,2.76,0,0,1,73.55,71.9Zm2.33-1.22a1.61,1.61,0,0,0,.34-1.1v-1a1.57,1.57,0,0,0-.34-1.09,1.4,1.4,0,0,0-1.94,0,1.57,1.57,0,0,0-.34,1.09v1a1.61,1.61,0,0,0,.34,1.1,1.4,1.4,0,0,0,1.94,0Z" fill="#231f20"/>
    <path d="M79.11,66h1.2v6.08h-1.2Zm3.7,2.4a1.42,1.42,0,0,0-.34-1,1.24,1.24,0,0,0-.94-.35,1.22,1.22,0,0,0-.9.31,1.18,1.18,0,0,0-.32.87l-.12-1.17a2.11,2.11,0,0,1,.73-.85,1.79,1.79,0,0,1,1-.3,1.89,1.89,0,0,1,1.53.65A2.77,2.77,0,0,1,84,68.43v3.69H82.81Z" fill="#231f20"/>
  </g>
</svg>
