<?xml version="1.0" encoding="utf-8"?>
<!-- Generator: Adobe Illustrator 28.0.0, SVG Export Plug-In . SVG Version: 6.00 Build 0)  -->
<svg version="1.1" id="Calque_1" xmlns="http://www.w3.org/2000/svg" xmlns:xlink="http://www.w3.org/1999/xlink" x="0px" y="0px"
	 viewBox="0 0 396.8 363.8" style="enable-background:new 0 0 396.8 363.8;" xml:space="preserve">
<style type="text/css">
	.st0{fill:none;stroke:#009640;stroke-width:3;stroke-linecap:round;stroke-miterlimit:10;stroke-dasharray:9;}
	.st1{fill:none;}
	.st2{fill:none;stroke:#009640;stroke-width:3;stroke-linecap:round;stroke-miterlimit:10;}
	.st3{fill:none;stroke:#009640;stroke-width:3;stroke-linecap:round;stroke-miterlimit:10;stroke-dasharray:8.7165,8.7165;}
	.st4{fill:none;stroke:#000000;stroke-width:3;stroke-miterlimit:10;}
	.st5{fill:none;stroke:#E30613;stroke-width:3;stroke-linecap:round;stroke-linejoin:round;stroke-miterlimit:10;}
	.st6{fill:#E30613;}
	.st7{fill:none;stroke:#000000;stroke-width:3;stroke-linecap:round;stroke-linejoin:round;stroke-miterlimit:10;}
	.st8{fill:none;stroke:#FBB03B;stroke-width:3;stroke-linecap:round;stroke-miterlimit:10;}
</style>
<line class="st0" x1="176.1" y1="176.1" x2="306.1" y2="59.6"/>
<g>
	<line class="st1" x1="176.1" y1="176.1" x2="350.7" y2="179"/>
	<g>
		<line class="st2" x1="176.1" y1="176.1" x2="180.6" y2="176.2"/>
		<line class="st3" x1="189.3" y1="176.3" x2="341.8" y2="178.8"/>
		<line class="st2" x1="346.2" y1="178.9" x2="350.7" y2="179"/>
	</g>
</g>
<circle class="st4" cx="176.1" cy="176.1" r="174.6"/>
<polygon class="st5" points="176.1,176.1 185.1,167.1 176.1,176.1 185.1,185.1 176.1,176.1 167.1,185.1 176.1,176.1 167.1,167.1 "/>
<g>
	<g>
		<path class="st6" d="M171.6,155c-1.1-0.6-2-1.6-2.6-2.8s-0.9-2.6-0.9-4.1v-6c0-1.6,0.3-2.9,0.9-4.1s1.5-2.1,2.6-2.8s2.4-1,3.9-1
			s2.8,0.3,3.9,1s2,1.6,2.6,2.8s0.9,2.6,0.9,4.1v6c0,1.6-0.3,2.9-0.9,4.1s-1.5,2.1-2.6,2.8s-2.4,1-3.9,1S172.7,155.6,171.6,155z
			 M177.8,152.4c0.7-0.4,1.2-1,1.6-1.7s0.5-1.6,0.5-2.5V142c0-1-0.2-1.8-0.5-2.5s-0.9-1.3-1.6-1.7s-1.4-0.6-2.3-0.6
			s-1.7,0.2-2.3,0.6s-1.2,1-1.6,1.7s-0.5,1.6-0.5,2.5v6.2c0,1,0.2,1.8,0.5,2.5s0.9,1.3,1.6,1.7s1.4,0.6,2.3,0.6
			S177.1,152.8,177.8,152.4z"/>
	</g>
</g>
<g>
	<path d="M84.6,337.7l-0.4,0.6c-1.1-0.6-2.5-0.9-4.1-0.9c-1.1,0-2.1,0.2-3.1,0.5s-1.8,0.9-2.6,1.6c-0.7,0.7-1.1,1.6-1.1,2.6
		c0,1.2,0.4,2.2,1.3,2.9c0.9,0.7,1.9,1.1,3.2,1.3c1.6-2.5,3.8-4.7,6.5-6.5s5.1-2.7,7.2-2.7c0.9,0,1.6,0.2,2.1,0.6s0.8,0.9,0.8,1.7
		c0,1.2-0.7,2.4-2,3.7c-1.3,1.3-3.1,2.3-5.3,3.1c-2.2,0.8-4.5,1.3-6.8,1.3c-1.4,2-2.1,4-2.1,6c0,1,0.3,1.8,0.9,2.4s1.5,0.9,2.6,0.9
		c1.6,0,3-0.5,4.2-1.5s1.8-2.1,1.8-3.2c0-0.7-0.2-1.3-0.6-1.7c-0.4-0.4-0.9-0.6-1.5-0.6c-1.1,0-2.1,0.5-3.1,1.6s-1.5,2.4-1.7,3.9
		l-0.7-0.1c0-1.8,0.6-3.4,1.8-4.7c1.2-1.3,2.6-2,4.2-2c1.1,0,2,0.3,2.6,0.8s0.9,1.3,0.9,2.3c0,0.8-0.3,1.6-0.8,2.4s-1.2,1.5-2.1,2
		c-1.6,1.1-3.3,1.6-5.2,1.6c-1.7,0-3.1-0.5-4.2-1.4s-1.7-2.2-1.7-3.8c0-1.6,0.5-3.3,1.4-5.1c-1.4-0.2-2.6-0.8-3.6-1.6
		c-1-0.9-1.5-2-1.5-3.5s0.7-2.8,2.1-3.9s3.3-1.7,5.5-1.7C81.8,336.4,83.3,336.8,84.6,337.7z M81.1,346.4L81.1,346.4
		c2.5,0,4.9-0.6,7.3-1.8c1.5-0.7,2.6-1.6,3.6-2.5c0.9-1,1.4-1.9,1.4-2.7c0-0.8-0.5-1.2-1.5-1.2c-1.4,0-3.2,0.8-5.2,2.4
		C84.6,342,82.8,344,81.1,346.4z"/>
</g>
<polygon class="st7" points="306.1,59.6 308,47 306.1,59.6 318.7,61.4 306.1,59.6 304.3,72.1 306.1,59.6 293.6,57.7 "/>
<polygon class="st7" points="350.7,179 359.6,170 350.7,179 359.6,188 350.7,179 341.7,188 350.7,179 341.7,170 "/>
<g>
	<g>
		<path d="M341,38.3h2.8v21.3h-2.9v-16l0.1,0.9l-5.2,12.1h-2.1l-5.2-11.8l0.1-1.2v16h-2.9V38.3h2.8l6.3,14.1L341,38.3z"/>
	</g>
</g>
<g>
	<g>
		<path d="M378.5,163.8h2.7l10.4,16.5l-0.4,0.4v-16.8h3V185h-2.7l-10.4-16.2l0.4-0.4V185h-3V163.8z"/>
	</g>
</g>
<g>
	<line class="st8" x1="228.1" y1="110.5" x2="247.6" y2="129.8"/>
	<line class="st8" x1="234.6" y1="105.9" x2="254.1" y2="125.2"/>
</g>
<g>
	<line class="st8" x1="250.4" y1="170.2" x2="269.9" y2="189.5"/>
	<line class="st8" x1="256.9" y1="165.6" x2="276.4" y2="184.9"/>
</g>
</svg>
