<?xml version="1.0" encoding="utf-8"?>
<!-- Generator: Adobe Illustrator 28.0.0, SVG Export Plug-In . SVG Version: 6.00 Build 0)  -->
<svg version="1.1" id="Calque_1" xmlns="http://www.w3.org/2000/svg" xmlns:xlink="http://www.w3.org/1999/xlink" x="0px" y="0px"
	 viewBox="0 0 352.2 363.8" style="enable-background:new 0 0 352.2 363.8;" xml:space="preserve">
<style type="text/css">
	.st0{fill:none;stroke:#008D36;stroke-width:3;stroke-miterlimit:10;}
	.st1{fill:none;stroke:#008D36;stroke-width:3;stroke-miterlimit:10;stroke-dasharray:8.7153,8.7153;}
	.st2{fill:none;stroke:#000000;stroke-width:3;stroke-miterlimit:10;}
	.st3{fill:none;stroke:#E30613;stroke-width:3;stroke-linecap:round;stroke-linejoin:round;stroke-miterlimit:10;}
	.st4{fill:#E30613;}
	.st5{fill:none;stroke:#E30613;stroke-miterlimit:10;}
	.st6{fill:#008D36;}
</style>
<g>
	<g>
		<line class="st0" x1="176.1" y1="176.1" x2="180.6" y2="176.1"/>
		<line class="st1" x1="189.3" y1="176.1" x2="341.8" y2="176.1"/>
		<line class="st0" x1="346.2" y1="176.1" x2="350.7" y2="176.1"/>
	</g>
</g>
<circle class="st2" cx="176.1" cy="176.1" r="174.6"/>
<polygon class="st3" points="176.1,176.1 185.1,167.1 176.1,176.1 185.1,185.1 176.1,176.1 167.1,185.1 176.1,176.1 167.1,167.1 "/>
<g>
	<g>
		<path class="st4" d="M171.6,155c-1.1-0.6-2-1.6-2.6-2.8s-0.9-2.6-0.9-4.1v-6c0-1.6,0.3-2.9,0.9-4.1s1.5-2.1,2.6-2.8s2.4-1,3.9-1
			s2.8,0.3,3.9,1s2,1.6,2.6,2.8s0.9,2.6,0.9,4.1v6c0,1.6-0.3,2.9-0.9,4.1s-1.5,2.1-2.6,2.8s-2.4,1-3.9,1S172.7,155.6,171.6,155z
			 M177.8,152.4c0.7-0.4,1.2-1,1.6-1.7s0.5-1.6,0.5-2.5V142c0-1-0.2-1.8-0.5-2.5s-0.9-1.3-1.6-1.7s-1.4-0.6-2.3-0.6
			s-1.7,0.2-2.3,0.6s-1.2,1-1.6,1.7s-0.5,1.6-0.5,2.5v6.2c0,1,0.2,1.8,0.5,2.5s0.9,1.3,1.6,1.7s1.4,0.6,2.3,0.6
			S177.1,152.8,177.8,152.4z"/>
	</g>
</g>
<g>
	<g>
		<path class="st5" d="M114.3,153.6c16.2,11.2,36.1,19.3,49,21.8"/>
		<g>
			<polygon class="st4" points="170.3,176.1 159.9,178.9 162.8,175.1 161,170.8 			"/>
		</g>
	</g>
</g>
<g>
	<g>
		<path class="st4" d="M60.9,147c-1.1-0.7-2-1.6-2.6-2.8s-0.9-2.6-0.9-4.2v-5.8c0-1.6,0.3-3,0.9-4.2s1.5-2.1,2.6-2.8s2.4-1,3.9-1
			c1.2,0,2.3,0.3,3.4,0.8s1.9,1.3,2.6,2.2s1.2,2.1,1.4,3.3H69c-0.2-0.7-0.5-1.3-0.9-1.8s-0.9-0.9-1.5-1.2s-1.2-0.4-1.8-0.4
			c-0.9,0-1.6,0.2-2.3,0.6s-1.2,1-1.5,1.8s-0.5,1.6-0.5,2.6v5.8c0,1,0.2,1.9,0.5,2.6s0.9,1.4,1.5,1.8s1.4,0.6,2.3,0.6
			c0.6,0,1.2-0.1,1.8-0.4s1.1-0.7,1.5-1.2s0.7-1.1,0.9-1.8h3.1c-0.2,1.3-0.7,2.4-1.4,3.3s-1.6,1.7-2.6,2.2s-2.1,0.8-3.4,0.8
			C63.3,147.9,62,147.6,60.9,147z"/>
		<path class="st4" d="M78.7,147.2c-1-0.5-1.8-1.3-2.3-2.3s-0.8-2.3-0.8-3.7v-1.7c0-1.5,0.3-2.8,0.8-3.9s1.2-1.9,2.2-2.4
			s2.1-0.8,3.5-0.8c1.3,0,2.4,0.3,3.3,1s1.6,1.6,2.1,2.8s0.7,2.6,0.7,4.3v1H77.8v-2.4h7.4c-0.1-1.2-0.4-2.2-1-2.9s-1.3-1-2.2-1
			c-1.1,0-2,0.4-2.6,1.1s-0.9,1.8-0.9,3.1v1.9c0,1.3,0.3,2.2,1,2.9s1.6,1,2.8,1c0.6,0,1.2-0.1,1.8-0.4s1.1-0.6,1.6-1l2,2
			c-0.8,0.7-1.6,1.3-2.5,1.7s-1.9,0.6-2.8,0.6C80.9,147.9,79.7,147.7,78.7,147.2z"/>
		<path class="st4" d="M92.1,132.5h3v15.2h-3V132.5z M101.4,138.5c0-1.1-0.3-1.9-0.8-2.5s-1.3-0.9-2.3-0.9c-1,0-1.7,0.3-2.3,0.8
			s-0.8,1.2-0.8,2.2l-0.3-2.9c0.5-0.9,1.1-1.6,1.8-2.1s1.6-0.7,2.5-0.7c1.7,0,2.9,0.5,3.8,1.6s1.4,2.6,1.4,4.6v9.2h-3V138.5z"/>
		<path class="st4" d="M107.7,132.5h6.9v2.7h-6.9V132.5z M110.1,146.8c-0.6-0.7-0.9-1.7-0.9-3v-15.7h3v15.7c0,0.4,0.1,0.7,0.2,0.9
			s0.4,0.3,0.6,0.3h1.4v2.8h-1.7C111.6,147.8,110.7,147.5,110.1,146.8z"/>
		<path class="st4" d="M118.7,132.5h3v15.2h-3V132.5z M126,135.4c-0.4-0.2-0.9-0.2-1.4-0.2c-0.9,0-1.7,0.3-2.2,0.8s-0.8,1.2-0.8,2.2
			l-0.3-2.9c0.5-0.9,1.1-1.6,1.8-2.1s1.6-0.8,2.5-0.8c0.7,0,1.3,0.1,1.9,0.3s1.1,0.5,1.5,0.9l-1.9,2.6
			C126.8,135.8,126.4,135.6,126,135.4z"/>
		<path class="st4" d="M134.1,147.2c-1-0.5-1.8-1.3-2.3-2.3s-0.8-2.3-0.8-3.7v-1.7c0-1.5,0.3-2.8,0.8-3.9s1.2-1.9,2.2-2.4
			s2.1-0.8,3.5-0.8c1.3,0,2.4,0.3,3.3,1s1.6,1.6,2.1,2.8s0.7,2.6,0.7,4.3v1h-10.3v-2.4h7.4c-0.1-1.2-0.4-2.2-1-2.9s-1.3-1-2.2-1
			c-1.1,0-2,0.4-2.6,1.1s-0.9,1.8-0.9,3.1v1.9c0,1.3,0.3,2.2,1,2.9s1.6,1,2.8,1c0.6,0,1.2-0.1,1.8-0.4s1.1-0.6,1.6-1l2,2
			c-0.8,0.7-1.6,1.3-2.5,1.7s-1.9,0.6-2.8,0.6C136.3,147.9,135.1,147.7,134.1,147.2z"/>
	</g>
</g>
<g>
	<g>
		<path class="st6" d="M228.8,185.4h3v21.3h-3V185.4z M230.1,194.9h7.3c0.6,0,1.1-0.1,1.5-0.4s0.8-0.7,1-1.2s0.4-1.1,0.4-1.7
			s-0.1-1.2-0.4-1.7s-0.6-0.9-1-1.2s-0.9-0.4-1.5-0.4h-7.3v-2.8h7.1c1.2,0,2.3,0.3,3.2,0.8s1.7,1.2,2.2,2.2s0.8,2,0.8,3.2
			s-0.3,2.3-0.8,3.2s-1.2,1.7-2.2,2.2s-2,0.8-3.2,0.8h-7.1V194.9z M235.9,197.1l3-0.7l5.4,10.3h-3.5L235.9,197.1z"/>
		<path class="st6" d="M248.7,205.8c-0.9-0.8-1.4-2-1.4-3.5c0-1.5,0.4-2.6,1.3-3.4s2.1-1.1,3.9-1.1h4.3l0.2,2.4h-4.5
			c-0.8,0-1.4,0.2-1.8,0.5s-0.6,0.9-0.6,1.6c0,0.8,0.3,1.3,0.8,1.7s1.3,0.6,2.3,0.6c1.1,0,2-0.1,2.6-0.4c0.6-0.2,0.8-0.6,0.8-1.1
			l0.3,2.1c-0.3,0.4-0.6,0.7-1,1c-0.4,0.3-0.8,0.5-1.3,0.6s-1.1,0.2-1.7,0.2C251,206.9,249.6,206.6,248.7,205.8z M256.6,197.1
			c0-1-0.3-1.8-0.8-2.3c-0.5-0.6-1.3-0.8-2.3-0.8c-0.6,0-1.2,0.1-1.8,0.3s-1.1,0.4-1.5,0.8l-2.2-1.5c0.6-0.7,1.3-1.2,2.3-1.6
			s2-0.6,3.1-0.6c1.3,0,2.3,0.2,3.2,0.7c0.9,0.4,1.6,1.1,2.1,1.9s0.7,1.9,0.7,3.1v9.8h-2.8V197.1z"/>
		<path class="st6" d="M262.4,191.5h3l4.7,13.2l-1.7,3.2L262.4,191.5z M275.9,191.5l-6.5,18.8c-0.2,0.7-0.5,1.2-0.9,1.6
			s-0.8,0.7-1.4,0.9s-1.2,0.3-2.1,0.3h-0.6v-2.9h0.6c0.6,0,1-0.1,1.3-0.3s0.6-0.6,0.9-1.2l5.6-17.2H275.9z"/>
		<path class="st6" d="M280.9,206.2c-0.9-0.5-1.7-1.3-2.1-2.3s-0.7-2.2-0.7-3.6v-2.5c0-1.4,0.2-2.6,0.7-3.5s1.2-1.7,2.1-2.2
			s2.1-0.8,3.4-0.8s2.4,0.3,3.4,0.8s1.7,1.3,2.1,2.2s0.7,2.2,0.7,3.5v2.5c0,1.4-0.2,2.6-0.7,3.6s-1.2,1.7-2.1,2.2s-2.1,0.8-3.4,0.8
			S281.9,206.7,280.9,206.2z M286.8,203.1c0.6-0.7,0.9-1.6,0.9-2.8v-2.5c0-1.2-0.3-2.1-0.9-2.7s-1.4-1-2.4-1s-1.9,0.3-2.4,1
			s-0.9,1.6-0.9,2.7v2.5c0,1.2,0.3,2.1,0.9,2.8s1.4,1,2.4,1S286.2,203.8,286.8,203.1z"/>
		<path class="st6" d="M294.8,191.5h3v15.2h-3V191.5z M304.1,197.5c0-1.1-0.3-1.9-0.8-2.5s-1.3-0.9-2.3-0.9c-1,0-1.7,0.3-2.3,0.8
			s-0.8,1.2-0.8,2.2l-0.3-2.9c0.5-0.9,1.1-1.6,1.8-2.1s1.6-0.7,2.5-0.7c1.7,0,2.9,0.5,3.8,1.6s1.4,2.6,1.4,4.6v9.2h-3V197.5z"/>
	</g>
</g>
<g>
	<path d="M84.6,337.7l-0.4,0.6c-1.1-0.6-2.5-0.9-4.1-0.9c-1.1,0-2.1,0.2-3.1,0.5c-1,0.3-1.8,0.9-2.6,1.6c-0.7,0.7-1.1,1.6-1.1,2.6
		c0,1.2,0.4,2.2,1.3,2.9c0.9,0.7,1.9,1.1,3.2,1.3c1.6-2.5,3.8-4.7,6.5-6.5c2.7-1.8,5.1-2.7,7.2-2.7c0.9,0,1.6,0.2,2.1,0.6
		c0.5,0.4,0.8,0.9,0.8,1.7c0,1.2-0.7,2.4-2,3.7c-1.3,1.3-3.1,2.3-5.3,3.1c-2.2,0.8-4.5,1.3-6.8,1.3c-1.4,2-2.1,4-2.1,6
		c0,1,0.3,1.8,0.9,2.4c0.6,0.6,1.5,0.9,2.6,0.9c1.6,0,3-0.5,4.2-1.5c1.2-1,1.8-2.1,1.8-3.2c0-0.7-0.2-1.3-0.6-1.7
		c-0.4-0.4-0.9-0.6-1.5-0.6c-1.1,0-2.1,0.5-3.1,1.6c-1,1.1-1.5,2.4-1.7,3.9l-0.7-0.1c0-1.8,0.6-3.4,1.8-4.7c1.2-1.3,2.6-2,4.2-2
		c1.1,0,2,0.3,2.6,0.8c0.6,0.5,0.9,1.3,0.9,2.3c0,0.8-0.3,1.6-0.8,2.4c-0.5,0.8-1.2,1.5-2.1,2c-1.6,1.1-3.3,1.6-5.2,1.6
		c-1.7,0-3.1-0.5-4.2-1.4c-1.1-0.9-1.7-2.2-1.7-3.8c0-1.6,0.5-3.3,1.4-5.1c-1.4-0.2-2.6-0.8-3.6-1.6c-1-0.9-1.5-2-1.5-3.5
		c0-1.5,0.7-2.8,2.1-3.9c1.4-1.1,3.3-1.7,5.5-1.7C81.8,336.4,83.3,336.8,84.6,337.7z M81.1,346.4L81.1,346.4c2.5,0,4.9-0.6,7.3-1.8
		c1.5-0.7,2.6-1.6,3.6-2.5c0.9-1,1.4-1.9,1.4-2.7c0-0.8-0.5-1.2-1.5-1.2c-1.4,0-3.2,0.8-5.2,2.4C84.6,342,82.8,344,81.1,346.4z"/>
</g>
</svg>
