<?xml version="1.0" encoding="utf-8"?>
<!-- Generator: Adobe Illustrator 28.0.0, SVG Export Plug-In . SVG Version: 6.00 Build 0)  -->
<svg version="1.1" id="Calque_1" xmlns="http://www.w3.org/2000/svg" xmlns:xlink="http://www.w3.org/1999/xlink" x="0px" y="0px"
	 viewBox="0 0 115 91.7" style="enable-background:new 0 0 115 91.7;" xml:space="preserve">
<style type="text/css">
	.st0{fill:#7FBC47;fill-opacity:0.5;stroke:#7FBC47;stroke-width:1;stroke-miterlimit:10.0003;}
	.st1{fill:#E62E31;fill-opacity:0.5;stroke:#E62E31;stroke-miterlimit:10;}
	.st2{fill:none;stroke:#000000;stroke-miterlimit:10;}
	.st3{fill:#FF1D25;}
	.st4{fill:#3FA9F5;}
</style>
<g>
	<rect x="84.1" y="63" transform="matrix(0.3289 -0.9444 0.9444 0.3289 -3.8139 126.4471)" class="st0" width="5.9" height="5.9"/>
	<path class="st1" d="M27.3,48.2c1-2.8,1.1-5.6,0.4-8.3l-14.5,3.4L27.3,48.2z"/>
	<polygon class="st2" points="13.3,43.3 88.8,69.6 105.5,21.7 	"/>
</g>
<g>
	<g>
		<path d="M4,38h1.2v8.5H4V38z M4.7,45.4H7c0.6,0,1-0.1,1.3-0.3s0.4-0.6,0.4-1l0,0c0-0.3,0-0.5-0.1-0.7S8.3,43,8.1,42.9
			s-0.4-0.2-0.8-0.2H4.7v-1.1h2.6c0.4,0,0.8-0.1,1-0.3s0.3-0.5,0.3-0.9s-0.1-0.7-0.4-1s-0.6-0.3-1.1-0.3H4.7V38h2.7
			c0.6,0,1,0.1,1.4,0.3s0.6,0.5,0.8,0.8s0.3,0.8,0.3,1.2c0,0.3-0.1,0.6-0.2,0.8s-0.3,0.5-0.5,0.7s-0.5,0.3-0.9,0.4
			c0.3,0.1,0.6,0.2,0.9,0.4s0.4,0.4,0.6,0.7s0.2,0.6,0.2,0.9l0,0c0,0.5-0.1,0.9-0.3,1.2S9.2,46,8.8,46.2S8,46.5,7.5,46.5H4.7V45.4z"
			/>
	</g>
</g>
<g>
	<g>
		<path d="M109.2,20c-0.4-0.3-0.8-0.6-1-1.1s-0.4-1-0.4-1.7v-2.3c0-0.6,0.1-1.2,0.4-1.7s0.6-0.9,1-1.1s1-0.4,1.6-0.4
			c0.5,0,0.9,0.1,1.3,0.3s0.8,0.5,1,0.9s0.5,0.8,0.6,1.3h-1.2c-0.1-0.3-0.2-0.5-0.4-0.7s-0.4-0.4-0.6-0.5s-0.5-0.2-0.7-0.2
			c-0.3,0-0.7,0.1-0.9,0.3s-0.5,0.4-0.6,0.7s-0.2,0.7-0.2,1.1v2.3c0,0.4,0.1,0.8,0.2,1.1s0.3,0.5,0.6,0.7s0.6,0.2,0.9,0.2
			s0.5-0.1,0.7-0.2s0.4-0.3,0.6-0.5s0.3-0.5,0.4-0.7h1.2c-0.1,0.5-0.3,0.9-0.6,1.3s-0.6,0.7-1,0.9s-0.9,0.3-1.3,0.3
			C110.1,20.4,109.6,20.2,109.2,20z"/>
	</g>
</g>
<g>
	<g>
		<path d="M89.1,72h1l3.1,8.5H92l-2.4-6.9l-2.4,6.9H86L89.1,72z M87.4,77.5h4.5v1.1h-4.5V77.5z"/>
	</g>
</g>
<g>
	<g>
		<path class="st3" d="M20.4,4h1.2v8.5h-1.2V4z M21.1,7.7h4.7v1.1h-4.7V7.7z M25.2,4h1.2v8.5h-1.2V4z"/>
		<path class="st3" d="M27.7,6.4H29l1.9,5.3L30.2,13L27.7,6.4z M33.1,6.4l-2.6,7.5c-0.1,0.3-0.2,0.5-0.4,0.7s-0.3,0.3-0.6,0.3
			S29.1,15,28.8,15h-0.2v-1.1h0.2c0.2,0,0.4,0,0.5-0.1s0.2-0.2,0.3-0.5l2.2-6.9H33.1z"/>
		<path class="st3" d="M34.2,6.4h1.2V15h-1.2V6.4z M35.9,12.3c-0.3-0.2-0.5-0.4-0.6-0.8l0.1-1.3c0,0.3,0,0.5,0.1,0.7
			s0.2,0.3,0.4,0.4s0.4,0.1,0.6,0.1c0.4,0,0.7-0.1,0.9-0.4s0.3-0.6,0.3-1V8.8c0-0.4-0.1-0.8-0.3-1c-0.2-0.2-0.5-0.4-0.9-0.4
			c-0.3,0-0.5,0-0.6,0.1s-0.3,0.2-0.4,0.4c-0.1,0.2-0.1,0.4-0.1,0.7l-0.1-1.2c0.2-0.4,0.4-0.6,0.7-0.8s0.6-0.3,1-0.3
			c0.4,0,0.8,0.1,1.1,0.3s0.5,0.5,0.7,0.8S39,8.3,39,8.8v1.3c0,0.5-0.1,1-0.2,1.3s-0.4,0.6-0.7,0.8s-0.7,0.3-1.1,0.3
			C36.5,12.6,36.2,12.5,35.9,12.3z"/>
		<path class="st3" d="M41.7,12.3c-0.4-0.2-0.7-0.5-0.9-0.9s-0.3-0.9-0.3-1.4v-1c0-0.6,0.1-1,0.3-1.4s0.5-0.7,0.9-0.9
			s0.8-0.3,1.4-0.3s1,0.1,1.4,0.3s0.7,0.5,0.9,0.9s0.3,0.9,0.3,1.4v1c0,0.6-0.1,1-0.3,1.4s-0.5,0.7-0.9,0.9s-0.8,0.3-1.4,0.3
			S42.1,12.5,41.7,12.3z M44,11c0.2-0.3,0.3-0.6,0.3-1.1v-1c0-0.5-0.1-0.8-0.3-1.1c-0.2-0.3-0.6-0.4-1-0.4s-0.7,0.1-1,0.4
			c-0.2,0.3-0.3,0.6-0.3,1.1v1c0,0.5,0.1,0.8,0.3,1.1s0.6,0.4,1,0.4S43.8,11.3,44,11z"/>
		<path class="st3" d="M46.8,6.4h2.7v1.1h-2.7V6.4z M47.7,12.1c-0.2-0.3-0.3-0.7-0.3-1.2V4.6h1.2v6.3c0,0.1,0,0.3,0.1,0.3
			s0.1,0.1,0.3,0.1h0.6v1.1h-0.7C48.3,12.5,48,12.4,47.7,12.1z"/>
		<path class="st3" d="M51.2,4h1.2v8.5h-1.2V4z M54.9,8.8c0-0.4-0.1-0.8-0.3-1c-0.2-0.2-0.5-0.4-0.9-0.4c-0.4,0-0.7,0.1-0.9,0.3
			s-0.3,0.5-0.3,0.9l-0.1-1.2c0.2-0.4,0.4-0.6,0.7-0.8s0.6-0.3,1-0.3c0.7,0,1.2,0.2,1.5,0.6S56,8,56,8.8v3.7h-1.2V8.8z"/>
		<path class="st3" d="M58.9,12.3c-0.4-0.2-0.7-0.5-0.9-0.9s-0.3-0.9-0.3-1.5V9.2c0-0.6,0.1-1.1,0.3-1.5c0.2-0.4,0.5-0.8,0.9-1
			s0.8-0.3,1.4-0.3c0.5,0,0.9,0.1,1.3,0.4s0.6,0.6,0.8,1.1s0.3,1.1,0.3,1.7v0.4h-4.1V9h3c0-0.5-0.2-0.9-0.4-1.2
			c-0.2-0.3-0.5-0.4-0.9-0.4c-0.5,0-0.8,0.1-1.1,0.4c-0.2,0.3-0.4,0.7-0.4,1.3v0.8c0,0.5,0.1,0.9,0.4,1.2s0.6,0.4,1.1,0.4
			c0.2,0,0.5,0,0.7-0.1s0.5-0.2,0.6-0.4l0.8,0.8c-0.3,0.3-0.6,0.5-1,0.7s-0.8,0.2-1.1,0.2C59.8,12.6,59.3,12.5,58.9,12.3z M59.5,4.6
			l1.7-2.1l0.9,0.7l-1.8,2L59.5,4.6z"/>
		<path class="st3" d="M64.3,6.4h1.2v6.1h-1.2V6.4z M68,8.8c0-0.4-0.1-0.8-0.3-1c-0.2-0.2-0.5-0.4-0.9-0.4c-0.4,0-0.7,0.1-0.9,0.3
			s-0.3,0.5-0.3,0.9l-0.1-1.2c0.2-0.4,0.4-0.7,0.7-0.8s0.6-0.3,1-0.3c0.7,0,1.2,0.2,1.5,0.6s0.5,1,0.5,1.8v3.7H68V8.8z"/>
		<path class="st3" d="M72.2,10.1c0,0.4,0.1,0.8,0.3,1s0.5,0.3,0.9,0.3c0.4,0,0.7-0.1,0.9-0.3s0.3-0.5,0.3-0.9l0.1,1.3
			c-0.1,0.3-0.3,0.6-0.6,0.8s-0.6,0.3-1,0.3c-0.7,0-1.2-0.2-1.6-0.6s-0.5-1-0.5-1.8V6.4h1.2V10.1z M74.7,6.4h1.2v6.1h-1.2V6.4z"/>
		<path class="st3" d="M78.8,12.5c-0.3-0.1-0.6-0.2-0.9-0.3s-0.5-0.3-0.8-0.5l0.7-0.9c0.3,0.2,0.7,0.4,1,0.6s0.6,0.2,1,0.2
			c0.5,0,0.8-0.1,1.1-0.2s0.4-0.4,0.4-0.7c0-0.2-0.1-0.3-0.2-0.4S80.8,10,80.6,10s-0.5-0.1-0.8-0.1c0,0-0.1,0-0.1,0s-0.1,0-0.1,0
			c0,0,0,0,0,0s0,0,0,0c-0.4,0-0.7-0.1-1-0.2S78,9.5,77.8,9.2s-0.3-0.6-0.3-1c0-0.4,0.1-0.8,0.3-1.1s0.4-0.5,0.8-0.6
			s0.8-0.2,1.3-0.2c0.3,0,0.6,0,0.9,0.1s0.6,0.1,0.8,0.3s0.5,0.3,0.8,0.4L81.6,8c-0.3-0.2-0.6-0.3-0.9-0.4s-0.6-0.1-0.9-0.1
			c-0.4,0-0.7,0.1-0.9,0.2s-0.3,0.3-0.3,0.6c0,0.2,0.1,0.3,0.2,0.4s0.3,0.1,0.4,0.2s0.4,0.1,0.8,0.1c0,0,0,0,0.1,0s0.1,0,0.1,0
			c0,0,0,0,0,0s0,0,0,0c0.4,0,0.8,0.1,1.1,0.2s0.5,0.3,0.8,0.5s0.3,0.6,0.3,1.1c0,0.4-0.1,0.8-0.3,1.1s-0.5,0.5-0.8,0.6
			s-0.9,0.2-1.4,0.2C79.5,12.6,79.1,12.5,78.8,12.5z"/>
		<path class="st3" d="M84.9,12.3c-0.4-0.2-0.7-0.5-0.9-0.9s-0.3-0.9-0.3-1.5V9.2c0-0.6,0.1-1.1,0.3-1.5c0.2-0.4,0.5-0.8,0.9-1
			s0.8-0.3,1.4-0.3c0.5,0,0.9,0.1,1.3,0.4s0.6,0.6,0.8,1.1s0.3,1.1,0.3,1.7v0.4h-4.1V9h3c0-0.5-0.2-0.9-0.4-1.2
			c-0.2-0.3-0.5-0.4-0.9-0.4c-0.5,0-0.8,0.1-1.1,0.4c-0.2,0.3-0.4,0.7-0.4,1.3v0.8c0,0.5,0.1,0.9,0.4,1.2s0.6,0.4,1.1,0.4
			c0.2,0,0.5,0,0.7-0.1s0.5-0.2,0.6-0.4l0.8,0.8c-0.3,0.3-0.6,0.5-1,0.7s-0.8,0.2-1.1,0.2C85.8,12.6,85.3,12.5,84.9,12.3z"/>
		<path class="st3" d="M42.3,26.9h-1.2v-7.2l-1.2,0.7v-1.2l1.2-0.8h1.2V26.9z"/>
		<path class="st3" d="M45.5,26.7c-0.3-0.2-0.6-0.4-0.8-0.7s-0.3-0.7-0.4-1.2v0h1.2v0c0,0.3,0.2,0.6,0.4,0.7s0.5,0.3,0.8,0.3
			c0.4,0,0.7-0.1,0.9-0.4s0.3-0.6,0.3-1.1v-0.7c0-0.5-0.1-0.8-0.3-1.1s-0.5-0.4-0.9-0.4c-0.2,0-0.4,0.1-0.6,0.2s-0.4,0.3-0.5,0.5
			h-1.1v-4.5h4.3v1.1h-3.1v1.9c0.1-0.1,0.3-0.2,0.5-0.3s0.4-0.1,0.6-0.1c0.5,0,0.9,0.1,1.3,0.3s0.6,0.5,0.8,0.9s0.3,0.9,0.3,1.4v0.7
			c0,0.6-0.1,1-0.3,1.4s-0.5,0.7-0.8,0.9S47.1,27,46.6,27C46.2,27,45.8,26.9,45.5,26.7z"/>
		<path class="st3" d="M55.1,26.7c-0.4-0.2-0.7-0.5-0.9-0.9s-0.3-0.9-0.3-1.4v-1c0-0.6,0.1-1,0.3-1.4s0.5-0.7,0.9-0.9
			s0.9-0.3,1.4-0.3c0.3,0,0.6,0,0.9,0.1s0.5,0.2,0.8,0.3s0.4,0.3,0.6,0.5l-0.9,0.8c-0.2-0.2-0.4-0.3-0.6-0.5s-0.5-0.2-0.7-0.2
			c-0.5,0-0.8,0.1-1.1,0.4s-0.4,0.6-0.4,1.1v1c0,0.5,0.1,0.9,0.4,1.1s0.6,0.4,1.1,0.4c0.3,0,0.5-0.1,0.7-0.2s0.4-0.3,0.6-0.5
			l0.9,0.8c-0.2,0.2-0.3,0.4-0.6,0.5s-0.5,0.3-0.8,0.3S56.8,27,56.5,27C55.9,27,55.5,26.9,55.1,26.7z"/>
		<path class="st3" d="M60,20.8h1.2v6.1H60V20.8z M63.6,23.2c0-0.4-0.1-0.8-0.3-1s-0.5-0.4-0.9-0.4c-0.4,0-0.7,0.1-0.9,0.3
			s-0.3,0.5-0.3,0.9l-0.1-1.2c0.2-0.4,0.4-0.7,0.7-0.8s0.6-0.3,1-0.3c0.4,0,0.8,0.1,1.1,0.3s0.5,0.5,0.7,0.8s0.2,0.8,0.2,1.3v3.7
			h-1.2V23.2z M67.3,23.2c0-0.4-0.1-0.8-0.3-1s-0.5-0.4-0.9-0.4c-0.4,0-0.7,0.1-0.9,0.3s-0.3,0.5-0.3,1L64.6,22
			c0.2-0.4,0.4-0.7,0.8-0.9s0.7-0.3,1-0.3c0.4,0,0.8,0.1,1.1,0.3s0.5,0.5,0.7,0.8s0.2,0.8,0.2,1.3v3.7h-1.2V23.2z"/>
	</g>
</g>
<g>
	<g>
		<path class="st4" d="M5.7,74.1c-0.4-0.3-0.8-0.6-1-1.1s-0.4-1-0.4-1.7v-2.3c0-0.6,0.1-1.2,0.4-1.7s0.6-0.9,1-1.1s1-0.4,1.6-0.4
			c0.5,0,0.9,0.1,1.3,0.3s0.8,0.5,1,0.9s0.5,0.8,0.6,1.3H8.9c-0.1-0.3-0.2-0.5-0.4-0.7s-0.4-0.4-0.6-0.5s-0.5-0.2-0.7-0.2
			c-0.3,0-0.7,0.1-0.9,0.3s-0.5,0.4-0.6,0.7s-0.2,0.7-0.2,1.1v2.3c0,0.4,0.1,0.8,0.2,1.1S6,72.9,6.3,73s0.6,0.2,0.9,0.2
			c0.3,0,0.5-0.1,0.7-0.2s0.4-0.3,0.6-0.5s0.3-0.5,0.4-0.7h1.2c-0.1,0.5-0.3,0.9-0.6,1.3s-0.6,0.7-1,0.9s-0.9,0.3-1.3,0.3
			C6.6,74.5,6.1,74.3,5.7,74.1z"/>
		<path class="st4" d="M12.7,74.1c-0.4-0.2-0.7-0.5-0.9-0.9s-0.3-0.9-0.3-1.4v-1c0-0.6,0.1-1,0.3-1.4s0.5-0.7,0.9-0.9
			s0.8-0.3,1.4-0.3s1,0.1,1.4,0.3s0.7,0.5,0.9,0.9s0.3,0.9,0.3,1.4v1c0,0.6-0.1,1-0.3,1.4s-0.5,0.7-0.9,0.9s-0.8,0.3-1.4,0.3
			S13.1,74.4,12.7,74.1z M15.9,66.5l-0.7,0.6L14.1,66l-1.2,1.1l-0.7-0.6l1.8-1.8L15.9,66.5z M15,72.9c0.2-0.3,0.3-0.6,0.3-1.1v-1
			c0-0.5-0.1-0.8-0.3-1.1s-0.6-0.4-1-0.4s-0.7,0.1-1,0.4s-0.3,0.6-0.3,1.1v1c0,0.5,0.1,0.8,0.3,1.1s0.6,0.4,1,0.4S14.8,73.2,15,72.9
			z"/>
		<path class="st4" d="M17.8,68.3h2.7v1.1h-2.7V68.3z M18.8,74c-0.2-0.3-0.3-0.7-0.3-1.2v-6.3h1.2v6.3c0,0.1,0,0.3,0.1,0.3
			s0.1,0.1,0.3,0.1h0.6v1.1h-0.7C19.4,74.4,19,74.3,18.8,74z"/>
		<path class="st4" d="M23.2,74.1c-0.4-0.2-0.7-0.5-0.9-0.9S22,72.3,22,71.7V71c0-0.6,0.1-1.1,0.3-1.5s0.5-0.8,0.9-1
			s0.8-0.3,1.4-0.3c0.5,0,0.9,0.1,1.3,0.4s0.6,0.6,0.8,1.1s0.3,1.1,0.3,1.7v0.4h-4.1v-1h3c0-0.5-0.2-0.9-0.4-1.2s-0.5-0.4-0.9-0.4
			c-0.5,0-0.8,0.1-1.1,0.4s-0.4,0.7-0.4,1.3v0.8c0,0.5,0.1,0.9,0.4,1.2s0.6,0.4,1.1,0.4c0.2,0,0.5,0,0.7-0.1s0.5-0.2,0.6-0.4
			l0.8,0.8c-0.3,0.3-0.6,0.5-1,0.7s-0.8,0.2-1.1,0.2C24.1,74.5,23.6,74.4,23.2,74.1z M23.8,66.5l1.7-2.1l0.9,0.7l-1.8,2L23.8,66.5z"
			/>
		<path class="st4" d="M32.1,74c-0.4-0.3-0.6-0.8-0.6-1.4c0-0.6,0.2-1.1,0.5-1.4s0.9-0.5,1.5-0.5h1.7l0.1,1h-1.8
			c-0.3,0-0.5,0.1-0.7,0.2s-0.2,0.4-0.2,0.6c0,0.3,0.1,0.5,0.3,0.7s0.5,0.2,0.9,0.2c0.5,0,0.8,0,1-0.1s0.3-0.2,0.3-0.5l0.1,0.9
			c-0.1,0.2-0.2,0.3-0.4,0.4s-0.3,0.2-0.5,0.2s-0.4,0.1-0.7,0.1C33,74.5,32.5,74.3,32.1,74z M35.3,70.5c0-0.4-0.1-0.7-0.3-0.9
			s-0.5-0.3-0.9-0.3c-0.2,0-0.5,0-0.7,0.1s-0.4,0.2-0.6,0.3l-0.9-0.6c0.2-0.3,0.5-0.5,0.9-0.6s0.8-0.2,1.3-0.2
			c0.5,0,0.9,0.1,1.3,0.3s0.6,0.4,0.8,0.8s0.3,0.7,0.3,1.2v3.9h-1.1V70.5z"/>
		<path class="st4" d="M39,74.2c-0.3-0.2-0.6-0.5-0.7-0.8S38,72.5,38,72v-1.3c0-0.5,0.1-1,0.2-1.3s0.4-0.7,0.7-0.8s0.7-0.3,1.1-0.3
			c0.4,0,0.7,0.1,1,0.3s0.5,0.5,0.7,0.8l-0.1,1.2c0-0.3,0-0.5-0.1-0.7s-0.2-0.3-0.4-0.4s-0.4-0.1-0.6-0.1c-0.4,0-0.7,0.1-0.9,0.4
			s-0.3,0.6-0.3,1V72c0,0.4,0.1,0.8,0.3,1s0.5,0.4,0.9,0.4c0.3,0,0.5,0,0.6-0.1s0.3-0.2,0.4-0.4s0.1-0.4,0.1-0.7l0.1,1.3
			c-0.1,0.3-0.3,0.6-0.6,0.8s-0.6,0.3-1,0.3C39.7,74.5,39.3,74.4,39,74.2z M41.7,65.9h1.2v8.5h-1.2V65.9z"/>
		<path class="st4" d="M43.9,75.7h0.7c0.1,0,0.2,0,0.3-0.1s0.1-0.2,0.1-0.3v-7h1.2v6.9c0,0.5-0.1,0.9-0.4,1.2s-0.6,0.4-1.1,0.4h-0.8
			V75.7z M44.9,65.9h1.2V67h-1.2V65.9z"/>
		<path class="st4" d="M48.2,74c-0.4-0.3-0.6-0.8-0.6-1.4c0-0.6,0.2-1.1,0.5-1.4s0.9-0.5,1.5-0.5h1.7l0.1,1h-1.8
			c-0.3,0-0.5,0.1-0.7,0.2s-0.2,0.4-0.2,0.6c0,0.3,0.1,0.5,0.3,0.7s0.5,0.2,0.9,0.2c0.5,0,0.8,0,1-0.1s0.3-0.2,0.3-0.5l0.1,0.9
			c-0.1,0.2-0.2,0.3-0.4,0.4s-0.3,0.2-0.5,0.2s-0.4,0.1-0.7,0.1C49.1,74.5,48.5,74.3,48.2,74z M51.3,70.5c0-0.4-0.1-0.7-0.3-0.9
			s-0.5-0.3-0.9-0.3c-0.2,0-0.5,0-0.7,0.1s-0.4,0.2-0.6,0.3l-0.9-0.6c0.2-0.3,0.5-0.5,0.9-0.6s0.8-0.2,1.3-0.2
			c0.5,0,0.9,0.1,1.3,0.3s0.6,0.4,0.8,0.8s0.3,0.7,0.3,1.2v3.9h-1.1V70.5z"/>
		<path class="st4" d="M55.3,74.1c-0.4-0.2-0.7-0.5-0.9-0.9s-0.3-0.9-0.3-1.4v-1c0-0.6,0.1-1,0.3-1.4s0.5-0.7,0.9-0.9
			s0.9-0.3,1.4-0.3c0.3,0,0.6,0,0.9,0.1s0.5,0.2,0.8,0.3s0.4,0.3,0.6,0.5l-0.9,0.8c-0.2-0.2-0.4-0.3-0.6-0.5s-0.5-0.2-0.7-0.2
			c-0.5,0-0.8,0.1-1.1,0.4s-0.4,0.6-0.4,1.1v1c0,0.5,0.1,0.9,0.4,1.1s0.6,0.4,1.1,0.4c0.3,0,0.5-0.1,0.7-0.2s0.4-0.3,0.6-0.5
			l0.9,0.8c-0.2,0.2-0.3,0.4-0.6,0.5s-0.5,0.3-0.8,0.3s-0.6,0.1-0.9,0.1C56.2,74.5,55.7,74.4,55.3,74.1z"/>
		<path class="st4" d="M61.3,74.1c-0.4-0.2-0.7-0.5-0.9-0.9s-0.3-0.9-0.3-1.5V71c0-0.6,0.1-1.1,0.3-1.5s0.5-0.8,0.9-1
			s0.8-0.3,1.4-0.3c0.5,0,0.9,0.1,1.3,0.4s0.6,0.6,0.8,1.1s0.3,1.1,0.3,1.7v0.4H61v-1h3c0-0.5-0.2-0.9-0.4-1.2s-0.5-0.4-0.9-0.4
			c-0.5,0-0.8,0.1-1.1,0.4s-0.4,0.7-0.4,1.3v0.8c0,0.5,0.1,0.9,0.4,1.2s0.6,0.4,1.1,0.4c0.2,0,0.5,0,0.7-0.1s0.5-0.2,0.6-0.4
			l0.8,0.8c-0.3,0.3-0.6,0.5-1,0.7s-0.8,0.2-1.1,0.2C62.2,74.5,61.7,74.4,61.3,74.1z"/>
		<path class="st4" d="M66.7,68.3h1.2v6.1h-1.2V68.3z M70.4,70.7c0-0.4-0.1-0.8-0.3-1s-0.5-0.4-0.9-0.4c-0.4,0-0.7,0.1-0.9,0.3
			s-0.3,0.5-0.3,0.9l-0.1-1.2c0.2-0.4,0.4-0.7,0.7-0.8s0.6-0.3,1-0.3c0.7,0,1.2,0.2,1.5,0.6s0.5,1,0.5,1.8v3.7h-1.2V70.7z"/>
		<path class="st4" d="M72.9,68.3h2.7v1.1h-2.7V68.3z M73.9,74c-0.2-0.3-0.3-0.7-0.3-1.2v-6.3h1.2v6.3c0,0.1,0,0.3,0.1,0.3
			s0.1,0.1,0.3,0.1h0.6v1.1H75C74.5,74.4,74.1,74.3,73.9,74z"/>
		<path class="st4" d="M29.1,88.8h-1.2v-7.2l-1.2,0.7v-1.2l1.2-0.8h1.2V88.8z"/>
		<path class="st4" d="M33.1,88.8h-1.2v-7.2l-1.2,0.7v-1.2l1.2-0.8h1.2V88.8z"/>
		<path class="st4" d="M39.3,88.5c-0.4-0.2-0.7-0.5-0.9-0.9s-0.3-0.9-0.3-1.4v-1c0-0.6,0.1-1,0.3-1.4s0.5-0.7,0.9-0.9
			s0.9-0.3,1.4-0.3c0.3,0,0.6,0,0.9,0.1s0.5,0.2,0.8,0.3s0.4,0.3,0.6,0.5l-0.9,0.8c-0.2-0.2-0.4-0.3-0.6-0.5s-0.5-0.2-0.7-0.2
			c-0.5,0-0.8,0.1-1.1,0.4s-0.4,0.6-0.4,1.1v1c0,0.5,0.1,0.9,0.4,1.1s0.6,0.4,1.1,0.4c0.3,0,0.5-0.1,0.7-0.2s0.4-0.3,0.6-0.5
			l0.9,0.8c-0.2,0.2-0.3,0.4-0.6,0.5s-0.5,0.3-0.8,0.3s-0.6,0.1-0.9,0.1C40.2,88.9,39.7,88.8,39.3,88.5z"/>
		<path class="st4" d="M44.3,82.7h1.2v6.1h-1.2V82.7z M47.9,85.1c0-0.4-0.1-0.8-0.3-1s-0.5-0.4-0.9-0.4c-0.4,0-0.7,0.1-0.9,0.3
			s-0.3,0.5-0.3,0.9l-0.1-1.2c0.2-0.4,0.4-0.7,0.7-0.8s0.6-0.3,1-0.3c0.4,0,0.8,0.1,1.1,0.3s0.5,0.5,0.7,0.8s0.2,0.8,0.2,1.3v3.7
			h-1.2V85.1z M51.5,85.1c0-0.4-0.1-0.8-0.3-1s-0.5-0.4-0.9-0.4c-0.4,0-0.7,0.1-0.9,0.3s-0.3,0.5-0.3,1l-0.2-1.2
			c0.2-0.4,0.4-0.7,0.8-0.9s0.7-0.3,1-0.3c0.4,0,0.8,0.1,1.1,0.3s0.5,0.5,0.7,0.8s0.2,0.8,0.2,1.3v3.7h-1.2V85.1z"/>
	</g>
</g>
</svg>
