<svg width="380" height="319" xmlns="http://www.w3.org/2000/svg" xmlns:xlink="http://www.w3.org/1999/xlink" overflow="hidden">
<defs>
<clipPath id="clip0">
<rect x="1869" y="1091" width="380" height="319"/>
</clipPath>
</defs>
<g clip-path="url(#clip0)" transform="translate(-1869 -1091)">
<path d="M1873.5 1339.5C1873.5 1303.05 1903.72 1273.5 1941 1273.5 1978.28 1273.5 2008.5 1303.05 2008.5 1339.5 2008.5 1375.95 1978.28 1405.5 1941 1405.5 1903.72 1405.5 1873.5 1375.95 1873.5 1339.5Z" stroke="#000000" stroke-width="9.16667" stroke-linejoin="round" stroke-miterlimit="10" fill="#FFFFFF" fill-rule="evenodd"/>
<text font-family="Verdana,Verdana_MSFontService,sans-serif" font-weight="400" font-size="46" transform="matrix(1 0 0 1 1925.56 1358)">
3
</text>
<path d="M2109.5 1339.5C2109.5 1303.05 2139.72 1273.5 2177 1273.5 2214.28 1273.5 2244.5 1303.05 2244.5 1339.5 2244.5 1375.95 2214.28 1405.5 2177 1405.5 2139.72 1405.5 2109.5 1375.95 2109.5 1339.5Z" stroke="#000000" stroke-width="9.16667" stroke-linejoin="round" stroke-miterlimit="10" fill="#FFFFFF" fill-rule="evenodd"/>
<text font-family="Verdana,Verdana_MSFontService,sans-serif" font-weight="400" font-size="46" transform="matrix(1 0 0 1 2162.06 1358)">
5
</text>
<path d="M2186.25 1275 2158.49 1251.25 2170.37 1251.25C2155.98 1209.31 2105.73 1180 2048.19 1180L2071.94 1180C2129.48 1180 2179.73 1209.31 2194.12 1251.25L2205.99 1251.25Z" fill-rule="evenodd"/>
<path d="M2060.06 1180.42C1995.26 1185.03 1945.75 1226 1945.75 1275L1922 1275C1922 1222.53 1978.5 1180 2048.19 1180 2052.15 1180 2056.12 1180.14 2060.06 1180.42Z" fill-rule="evenodd"/>
<rect x="1955.5" y="1095.5" width="201" height="106" stroke="#000000" stroke-width="9.16667" stroke-linejoin="round" stroke-miterlimit="10" fill="#FFFFFF"/>
<g transform="translate(10 20)">

<path d="M2019.45 1114.39 2030.51 1125.43 2041.57 1114.39 2043.86 1116.66 2032.93 1127.79 2043.89 1138.88 2041.45 1141.32 2030.51 1130.16 2019.23 1141.22 2016.96 1138.93 2028.12 1127.79 2017.01 1116.83Z" fill-rule="evenodd"/>
<text fill="#000000" fill-opacity="0" font-family="Arial,Arial_MSFontService,sans-serif" font-size="26.9287" x="2016.96" y="1137.95">
×
</text>
<path d="M2066.64 1136.39 2071.52 1136.39 2071.52 1142.05 2066.64 1142.05ZM2070.47 1108.34C2072.43 1108.34 2074.04 1108.63 2075.32 1109.22 2076.6 1109.8 2077.52 1110.6 2078.1 1111.61 2078.68 1112.62 2078.97 1113.78 2078.97 1115.1 2078.97 1115.77 2078.91 1116.38 2078.78 1116.94 2078.66 1117.5 2078.48 1118.05 2078.24 1118.59 2077.99 1119.13 2077.68 1119.68 2077.31 1120.24 2076.93 1120.8 2076.51 1121.37 2076.05 1121.93 2075.59 1122.5 2074.78 1123.46 2073.62 1124.82 2072.76 1125.82 2072.13 1126.63 2071.74 1127.24 2071.35 1127.86 2071.07 1128.45 2070.91 1129.03 2070.75 1129.6 2070.67 1130.36 2070.67 1131.29L2070.67 1131.9 2067.4 1131.9 2067.4 1131.07C2067.4 1130.4 2067.44 1129.86 2067.52 1129.45 2067.6 1129.05 2067.74 1128.61 2067.95 1128.15 2068.15 1127.68 2068.47 1127.14 2068.9 1126.5 2069.33 1125.87 2069.94 1125.05 2070.74 1124.06 2071.68 1122.85 2072.36 1121.88 2072.78 1121.13 2073.19 1120.38 2073.51 1119.6 2073.72 1118.8 2073.93 1117.99 2074.04 1117.09 2074.04 1116.1 2074.04 1114.85 2073.87 1113.78 2073.52 1112.91 2073.18 1112.04 2072.7 1111.39 2072.08 1110.95 2071.46 1110.51 2070.75 1110.29 2069.93 1110.29 2068.65 1110.29 2067.62 1110.67 2066.85 1111.44 2066.07 1112.2 2065.54 1113.35 2065.25 1114.88L2061.93 1114.88 2061.93 1110.88C2063.78 1109.93 2065.36 1109.27 2066.65 1108.9 2067.95 1108.52 2069.22 1108.34 2070.47 1108.34Z" fill="#FF0000" fill-rule="evenodd"/>
<text fill="#FF0000" fill-opacity="0" font-family="Arial,Arial_MSFontService,sans-serif" font-size="33.7158" x="2061.93" y="1137.84">
?
</text>
</g>
</g>
</svg>
