<?xml version="1.0" encoding="utf-8"?>
<!-- Generator: Adobe Illustrator 28.0.0, SVG Export Plug-In . SVG Version: 6.00 Build 0)  -->
<svg version="1.1" xmlns="http://www.w3.org/2000/svg" xmlns:xlink="http://www.w3.org/1999/xlink" x="0px" y="0px"
	 viewBox="0 0 738 534" style="enable-background:new 0 0 738 534;" xml:space="preserve">
<style type="text/css">
	.st0{fill-rule:evenodd;clip-rule:evenodd;fill:#006738;}
	.st1{fill:#3AB54A;}
	.st2{fill:#019444;}
	.st3{fill:none;stroke:#FFFFFF;stroke-width:2;stroke-miterlimit:10;}
	.st4{fill:#FFFFFF;}
	.st5{fill:none;stroke:#FF0000;stroke-width:3;stroke-linecap:round;stroke-miterlimit:10;}
	.st6{fill:#FF0000;stroke:#000000;stroke-width:0.5;stroke-miterlimit:10;}
</style>
<g id="svg2" xmlns:inkscape="http://www.inkscape.org/namespaces/inkscape" xmlns:cc="http://creativecommons.org/ns#" xmlns:dc="http://purl.org/dc/elements/1.1/" xmlns:svg="http://www.w3.org/2000/svg" xmlns:sodipodi="http://sodipodi.sourceforge.net/DTD/sodipodi-0.dtd" xmlns:rdf="http://www.w3.org/1999/02/22-rdf-syntax-ns#" inkscape:version="0.48.5 r10040">
	<defs>
		
			<inkscape:perspective  id="perspective2523" inkscape:persp3d-origin="267 : 246 : 1" inkscape:vp_x="0 : 369 : 1" inkscape:vp_y="0 : 1000 : 0" inkscape:vp_z="534 : 369 : 1" sodipodi:type="inkscape:persp3d">
			</inkscape:perspective>
	</defs>
	
		<sodipodi:namedview  bordercolor="#666666" borderopacity="1.0" id="base" inkscape:current-layer="layer2" inkscape:cx="266.14264" inkscape:cy="568.84333" inkscape:document-units="px" inkscape:guide-points="true" inkscape:pageopacity="0.0" inkscape:pageshadow="2" inkscape:window-height="1018" inkscape:window-maximized="1" inkscape:window-width="1920" inkscape:window-x="-8" inkscape:window-y="-8" inkscape:zoom="2.32" pagecolor="#ffffff" showgrid="true">
		<inkscape:grid  id="grid2525" type="xygrid"></inkscape:grid>
	</sodipodi:namedview>
	<path id="rect1317" class="st0" d="M735.4,534H2.6c-1.4,0-2.6-1.1-2.6-2.6L0,2.6C0,1.1,1.1,0,2.6,0l732.9,0c1.4,0,2.6,1.1,2.6,2.6
		v528.9C738,532.9,736.9,534,735.4,534z"/>
	<g>
		
			<rect x="123.6" y="-60.8" transform="matrix(4.489393e-11 -1 1 4.489393e-11 102.271 635.9686)" class="st1" width="491" height="655.3"/>
		<g>
			
				<rect x="-183.5" y="246.4" transform="matrix(4.489659e-11 -1 1 4.489659e-11 -204.8313 328.8663)" class="st2" width="491" height="40.8"/>
			
				<rect x="-101.8" y="246.4" transform="matrix(4.489659e-11 -1 1 4.489659e-11 -123.1836 410.514)" class="st2" width="491" height="40.8"/>
			
				<rect x="-20.2" y="246.4" transform="matrix(4.489659e-11 -1 1 4.489659e-11 -41.5359 492.1617)" class="st2" width="491" height="40.8"/>
			
				<rect x="61.5" y="246.4" transform="matrix(4.489659e-11 -1 1 4.489659e-11 40.1118 573.8094)" class="st2" width="491" height="40.8"/>
			
				<rect x="143.6" y="246.4" transform="matrix(4.489393e-11 -1 1 4.489393e-11 122.2449 655.9426)" class="st2" width="491" height="40.8"/>
			
				<rect x="225.2" y="246.4" transform="matrix(4.490192e-11 -1 1 4.490192e-11 203.8926 737.5903)" class="st2" width="491" height="40.8"/>
			
				<rect x="306.9" y="246.4" transform="matrix(4.489393e-11 -1 1 4.489393e-11 285.5403 819.238)" class="st2" width="491" height="40.8"/>
			
				<rect x="388.5" y="246.5" transform="matrix(4.489393e-11 -1 1 4.489393e-11 367.1263 900.9473)" class="st2" width="491" height="40.8"/>
		</g>
	</g>
	
		<path id="path2212" sodipodi:cx="336.13116" sodipodi:cy="254.39229" sodipodi:rx="34.842865" sodipodi:ry="35.526058" sodipodi:type="arc" class="st3" d="
		M318.9,266.7c0-27.1,22.4-49,50.1-49c27.7,0,50.1,22,50.1,49c0,27.1-22.4,49-50.1,49C341.3,315.7,318.9,293.8,318.9,266.7
		L318.9,266.7z"/>
	<path id="path2196" sodipodi:nodetypes="ccccc" class="st3" d="M698.3,157.2H607v219.2h90.7l0,0"/>
	<path id="path2200" sodipodi:nodetypes="cccc" class="st3" d="M697.7,286.8h16.5v-40.1l-16.5,0"/>
	<path id="path2206" sodipodi:nodetypes="cc" class="st3" d="M607.1,227.6c-28.9,16.7-27.7,61.9,0.1,78.4"/>
	<path id="path3091" sodipodi:nodetypes="cccc" class="st3" d="M41.5,157.1l89.5,0.1v219.2H41.9"/>
	<path id="path3095" sodipodi:nodetypes="cccc" class="st3" d="M41.8,286.8h-18v-40.1h17.6"/>
	<circle class="st4" cx="637.6" cy="266.8" r="2.2"/>
	<path id="path3097" sodipodi:nodetypes="cc" class="st3" d="M131.2,227.9c28.9,16.7,27.7,61.3-0.1,77.8"/>
	<path id="path3107" class="st3" d="M369,513.1V22.3l0,0"/>
	<path id="path3117" sodipodi:nodetypes="cs" class="st3" d="M697.7,505.2c0,0-6.1,1.5-7.6,7.8"/>
	<path id="path3120" sodipodi:nodetypes="cs" class="st3" d="M690.5,20.9c0,0,1.5,6.1,7.8,7.6"/>
	<path id="path3122" sodipodi:nodetypes="cs" class="st3" d="M41.5,29c0,0,6.1-1.5,7.6-7.8"/>
	<path id="path3124" sodipodi:nodetypes="cs" class="st3" d="M50.7,511.7c0,0-1.5-6.1-7.8-7.6"/>
	
		<path id="path3130" sodipodi:cx="336.13116" sodipodi:cy="253.02589" sodipodi:rx="1.3663868" sodipodi:ry="1.3663868" sodipodi:type="arc" class="st4" d="
		M363.6,266.7c0-3,2.4-5.4,5.4-5.4c3,0,5.4,2.4,5.4,5.4c0,3-2.4,5.4-5.4,5.4C366,272,363.6,269.6,363.6,266.7z"/>
	
		<rect x="631.4" y="250.7" transform="matrix(4.487350e-11 -1 1 4.487350e-11 415.0684 948.587)" class="st3" width="100.9" height="32.2"/>
	<circle class="st4" cx="100.9" cy="266.8" r="2.2"/>
	
		<rect x="7.5" y="250.6" transform="matrix(4.489126e-11 -1 1 4.489126e-11 -208.8602 324.6584)" class="st3" width="100.9" height="32.3"/>
	
		<rect x="124.2" y="-61.4" transform="matrix(4.489215e-11 -1 1 4.489215e-11 103.0288 636.5475)" class="st3" width="491.3" height="656.2"/>
</g>
<g id="Calque_2">
	<g>
		<line class="st5" x1="262.9" y1="113" x2="247.9" y2="128"/>
		<line class="st5" x1="247.9" y1="113" x2="262.9" y2="128"/>
	</g>
	<g>
		<line class="st5" x1="498.7" y1="154" x2="483.7" y2="169"/>
		<line class="st5" x1="483.7" y1="154" x2="498.7" y2="169"/>
	</g>
	<g>
		<line class="st5" x1="345" y1="246.3" x2="330" y2="261.3"/>
		<line class="st5" x1="330" y1="246.3" x2="345" y2="261.3"/>
	</g>
	<g>
		<g>
			<line class="st5" x1="301.5" y1="389.9" x2="286.5" y2="404.9"/>
			<line class="st5" x1="286.5" y1="389.9" x2="301.5" y2="404.9"/>
		</g>
		<g>
			<path class="st6" d="M254.3,91.4l-6.3,17h2.6l1.3-3.7h6.9l1.3,3.7h2.6l-6.3-17H254.3z M252.7,102.4l2.7-7.7l2.7,7.7H252.7z"/>
			<path class="st6" d="M497,142.9c-0.3-0.6-0.6-1.1-1.1-1.4s-1.1-0.6-1.8-0.7c0.7-0.1,1.3-0.4,1.7-0.7s0.8-0.8,1-1.3
				s0.3-1.1,0.3-1.6c0-1-0.2-1.8-0.6-2.5s-0.9-1.2-1.7-1.6s-1.7-0.6-2.8-0.6h-4.3h-1h-1.4v17h1.4h1h4.5c1,0,1.9-0.2,2.6-0.6
				s1.3-0.9,1.7-1.6s0.6-1.5,0.6-2.4v0C497.4,144.1,497.3,143.4,497,142.9z M491.8,134.6c1,0,1.8,0.2,2.2,0.6s0.8,1.1,0.8,1.9
				c0,0.8-0.2,1.4-0.7,1.8s-1.1,0.6-2,0.6h-4.2v-5H491.8z M495,144.6c0,0.8-0.3,1.5-0.8,1.9s-1.4,0.7-2.6,0.7h-3.6v-5.4h4.2
				c0.7,0,1.2,0.1,1.7,0.3s0.7,0.5,0.9,1S495,144,495,144.6L495,144.6z"/>
			<path class="st6" d="M334.8,228.8c0.3-0.6,0.7-1.1,1.2-1.4s1.1-0.5,1.8-0.5c0.5,0,1,0.1,1.5,0.3s0.9,0.5,1.2,1s0.6,0.9,0.7,1.4
				h2.4c-0.2-1-0.6-1.9-1.1-2.7s-1.2-1.4-2.1-1.8s-1.7-0.6-2.7-0.6c-1.2,0-2.2,0.3-3.1,0.8s-1.6,1.3-2.1,2.2s-0.7,2.1-0.7,3.3v4.7
				c0,1.3,0.2,2.4,0.7,3.3s1.2,1.7,2.1,2.2s1.9,0.8,3.1,0.8c1,0,1.9-0.2,2.7-0.6s1.5-1,2.1-1.8s0.9-1.7,1.1-2.7h-2.4
				c-0.1,0.6-0.4,1.1-0.7,1.5s-0.8,0.7-1.2,0.9s-1,0.3-1.5,0.3c-0.7,0-1.3-0.2-1.8-0.5s-0.9-0.8-1.2-1.4s-0.4-1.3-0.4-2.1v-4.7
				C334.3,230.1,334.5,229.4,334.8,228.8z"/>
			<path class="st6" d="M297.2,369c-1-0.5-2.1-0.7-3.5-0.7h-3h-0.8h-1.6v17h1.6h0.8h3c1.4,0,2.5-0.2,3.5-0.7s1.7-1.2,2.2-2.1
				s0.8-2,0.8-3.3v-4.8c0-1.3-0.3-2.4-0.8-3.3S298.2,369.4,297.2,369z M297.7,379.3c0,1.2-0.3,2.1-1,2.8s-1.7,1-2.9,1h-3.1v-12.5
				h3.1c1.3,0,2.2,0.3,2.9,1s1,1.6,1,2.8V379.3z"/>
		</g>
	</g>
</g>
</svg>
