<?xml version="1.0" encoding="utf-8"?>
<!-- Generator: Adobe Illustrator 28.0.0, SVG Export Plug-In . SVG Version: 6.00 Build 0)  -->
<svg version="1.0" id="Calque_1" xmlns="http://www.w3.org/2000/svg" xmlns:xlink="http://www.w3.org/1999/xlink" x="0px" y="0px"
	 viewBox="0 0 137.7 52.1" enable-background="new 0 0 137.7 52.1" xml:space="preserve">
<path fill="#B5D1EF" fill-opacity="0.5" stroke="#B5D1EF" stroke-miterlimit="10" d="M89.8,35.2c0-12.6-10.2-22.8-22.8-22.8
	S44.2,22.6,44.2,35.2"/>
<line fill="none" stroke="#000000" stroke-miterlimit="10" x1="0" y1="35.5" x2="137.7" y2="35.5"/>
<line fill="none" stroke="#000000" stroke-miterlimit="10" x1="22.2" y1="31.6" x2="22.2" y2="38.1"/>
<line fill="none" stroke="#000000" stroke-miterlimit="10" x1="67" y1="31.6" x2="67" y2="38.8"/>
<line fill="none" stroke="#000000" stroke-miterlimit="10" x1="112.8" y1="31.6" x2="112.8" y2="38.1"/>
<g>
	<g>
		<path fill="#E30613" d="M65.4,48.6c-0.5-0.3-0.8-0.6-1.1-1.1s-0.4-1-0.4-1.6v-2.4c0-0.6,0.1-1.2,0.4-1.6s0.6-0.8,1.1-1.1
			s1-0.4,1.6-0.4s1.1,0.1,1.6,0.4s0.8,0.6,1.1,1.1c0.2,0.5,0.4,1,0.4,1.6v2.4c0,0.6-0.1,1.2-0.4,1.6c-0.2,0.5-0.6,0.8-1.1,1.1
			S67.6,49,67,49S65.9,48.8,65.4,48.6z M67.9,47.5c0.3-0.2,0.5-0.4,0.6-0.7s0.2-0.6,0.2-1v-2.5c0-0.4-0.1-0.7-0.2-1
			s-0.4-0.5-0.6-0.7s-0.6-0.2-0.9-0.2s-0.7,0.1-0.9,0.2s-0.5,0.4-0.6,0.7s-0.2,0.6-0.2,1v2.5c0,0.4,0.1,0.7,0.2,1s0.4,0.5,0.6,0.7
			s0.6,0.2,0.9,0.2S67.7,47.7,67.9,47.5z"/>
	</g>
</g>
<g>
	<g>
		<path d="M21.7,20.6h1l3.1,8.5h-1.3l-2.4-6.9l-2.4,6.9h-1.3L21.7,20.6z M20,26.1h4.5v1.1H20V26.1z"/>
	</g>
</g>
<g>
	<g>
		<path d="M110,20.6h1.2v8.5H110V20.6z M110.7,28h2.3c0.6,0,1-0.1,1.3-0.3s0.4-0.6,0.4-1v0c0-0.3,0-0.5-0.1-0.7s-0.3-0.4-0.5-0.5
			s-0.5-0.2-0.8-0.2h-2.6v-1.1h2.6c0.4,0,0.8-0.1,1-0.3s0.3-0.5,0.3-0.9c0-0.4-0.1-0.7-0.4-1s-0.6-0.3-1.1-0.3h-2.4v-1.1h2.7
			c0.6,0,1,0.1,1.4,0.3s0.6,0.5,0.8,0.8s0.3,0.8,0.3,1.2c0,0.3-0.1,0.6-0.2,0.8s-0.3,0.5-0.5,0.7s-0.5,0.3-0.9,0.4
			c0.3,0.1,0.6,0.2,0.9,0.4s0.4,0.4,0.6,0.7s0.2,0.6,0.2,0.9v0c0,0.5-0.1,0.9-0.3,1.2s-0.5,0.6-0.9,0.8s-0.8,0.3-1.3,0.3h-2.8V28z"
			/>
	</g>
</g>
<g>
	<g>
		<path fill="#B5D1EF" d="M59.1,10.3h-1.2V3l-1.2,0.7V2.5l1.2-0.8h1.2V10.3z"/>
		<path fill="#B5D1EF" d="M62.1,10.1c-0.4-0.2-0.7-0.5-0.9-0.8S60.9,8.5,60.9,8V7.8c0-0.4,0.1-0.8,0.3-1.2s0.5-0.7,0.9-0.8
			c-0.3-0.2-0.5-0.4-0.7-0.7s-0.3-0.6-0.3-1V3.9c0-0.4,0.1-0.8,0.3-1.2s0.5-0.6,0.8-0.8s0.8-0.3,1.3-0.3s0.9,0.1,1.3,0.3
			s0.6,0.4,0.8,0.8s0.3,0.7,0.3,1.2v0.2c0,0.4-0.1,0.7-0.3,1s-0.4,0.5-0.7,0.7c0.4,0.2,0.6,0.5,0.9,0.9s0.3,0.8,0.3,1.2V8
			c0,0.5-0.1,0.9-0.3,1.2s-0.5,0.6-0.9,0.8s-0.8,0.3-1.4,0.3S62.5,10.2,62.1,10.1z M64.2,9c0.2-0.1,0.4-0.3,0.5-0.5s0.2-0.4,0.2-0.7
			V7.8c0-0.3-0.1-0.5-0.2-0.7s-0.3-0.4-0.5-0.5s-0.5-0.2-0.7-0.2S63,6.6,62.8,6.7s-0.4,0.3-0.5,0.5s-0.2,0.4-0.2,0.7v0.1
			c0,0.3,0.1,0.5,0.2,0.7s0.3,0.3,0.5,0.5s0.5,0.2,0.7,0.2S64,9.1,64.2,9z M64.1,5.2c0.2-0.1,0.3-0.3,0.4-0.4s0.2-0.4,0.2-0.7V4
			c0-0.2-0.1-0.4-0.2-0.6S64.3,3,64.1,3s-0.4-0.1-0.6-0.1S63,2.9,62.9,3s-0.3,0.2-0.4,0.4S62.3,3.8,62.3,4v0.1
			c0,0.2,0.1,0.5,0.2,0.7s0.2,0.3,0.4,0.4s0.4,0.2,0.6,0.2S63.9,5.3,64.1,5.2z"/>
		<path fill="#B5D1EF" d="M68.4,9.7c-0.4-0.4-0.6-1-0.6-1.8V4.1c0-0.8,0.2-1.4,0.6-1.8s1-0.6,1.8-0.6c0.8,0,1.4,0.2,1.8,0.6
			s0.6,1,0.6,1.8v3.9c0,0.8-0.2,1.4-0.6,1.8s-1,0.6-1.8,0.6C69.4,10.3,68.8,10.1,68.4,9.7z M71.1,8.9c0.2-0.2,0.3-0.5,0.3-1V4.1
			c0-0.4-0.1-0.7-0.3-1s-0.5-0.3-0.9-0.3s-0.7,0.1-0.9,0.3s-0.3,0.5-0.3,1v3.9c0,0.4,0.1,0.7,0.3,1s0.5,0.3,0.9,0.3
			S70.9,9.1,71.1,8.9z"/>
		<path fill="#B5D1EF" d="M74.4,4.7C74.1,4.4,74,3.9,74,3.4c0-0.6,0.1-1,0.4-1.3s0.7-0.5,1.3-0.5c0.6,0,1,0.2,1.3,0.5
			s0.4,0.7,0.4,1.3c0,0.6-0.2,1-0.5,1.3s-0.7,0.5-1.3,0.5C75.1,5.1,74.7,5,74.4,4.7z M76.2,4c0.1-0.1,0.2-0.3,0.2-0.6
			c0-0.3-0.1-0.5-0.2-0.6s-0.3-0.2-0.5-0.2s-0.4,0.1-0.5,0.2S75,3.1,75,3.4S75,3.9,75.1,4s0.3,0.2,0.5,0.2C75.9,4.2,76.1,4.1,76.2,4
			z"/>
	</g>
</g>
</svg>
