<?xml version="1.0" encoding="utf-8"?>
<!-- Generator: Adobe Illustrator 28.0.0, SVG Export Plug-In . SVG Version: 6.00 Build 0)  -->
<svg version="1.0" id="Calque_1" xmlns="http://www.w3.org/2000/svg" xmlns:xlink="http://www.w3.org/1999/xlink" x="0px" y="0px"
	 viewBox="0 0 200 98.1" enable-background="new 0 0 200 98.1" xml:space="preserve">
<path fill="#674695" fill-opacity="0.5" stroke="#674695" stroke-miterlimit="10" d="M73.1,72.9L36.6,58.3l33.7-20.3
	c3.6,5.9,5.6,12.9,5.6,20.3C75.9,63.5,74.9,68.4,73.1,72.9L73.1,72.9z"/>
<polyline fill="none" stroke="#000000" stroke-miterlimit="10" points="132.9,0.4 36.6,58.3 135.2,97.7 "/>
<g>
	<g>
		<line fill="none" stroke="#E30613" stroke-linecap="round" stroke-miterlimit="10" x1="95.3" y1="31.7" x2="112.7" y2="56.1"/>
		<g>
			<polygon fill="#E30613" points="92,27.1 94,35.5 95.6,32 99.3,31.7 			"/>
		</g>
	</g>
</g>
<g>
	<g>
		<line fill="none" stroke="#E30613" stroke-linecap="round" stroke-miterlimit="10" x1="103.4" y1="76.5" x2="112.7" y2="56.1"/>
		<g>
			<polygon fill="#E30613" points="101,81.6 107.3,75.7 103.6,76.1 101.4,73 			"/>
		</g>
	</g>
</g>
<g>
	<g>
		<path d="M117.7,59.5c-0.4-0.3-0.8-0.6-1-1.1s-0.4-1-0.4-1.7v-2.3c0-0.6,0.1-1.2,0.4-1.7s0.6-0.9,1-1.1s1-0.4,1.6-0.4
			c0.5,0,0.9,0.1,1.3,0.3s0.8,0.5,1,0.9s0.5,0.8,0.6,1.3H121c-0.1-0.3-0.2-0.5-0.4-0.7s-0.4-0.4-0.6-0.5s-0.5-0.2-0.7-0.2
			c-0.3,0-0.7,0.1-0.9,0.3s-0.5,0.4-0.6,0.7s-0.2,0.7-0.2,1.1v2.3c0,0.4,0.1,0.8,0.2,1.1s0.3,0.5,0.6,0.7s0.6,0.2,0.9,0.2
			c0.3,0,0.5-0.1,0.7-0.2s0.4-0.3,0.6-0.5s0.3-0.5,0.4-0.7h1.2c-0.1,0.5-0.3,0.9-0.6,1.3s-0.6,0.7-1,0.9s-0.9,0.3-1.3,0.3
			C118.7,59.9,118.2,59.8,117.7,59.5z"/>
		<path d="M124.8,59.6c-0.4-0.2-0.7-0.5-0.9-0.9s-0.3-0.9-0.3-1.4v-1c0-0.6,0.1-1,0.3-1.4s0.5-0.7,0.9-0.9s0.8-0.3,1.4-0.3
			s1,0.1,1.4,0.3s0.7,0.5,0.9,0.9s0.3,0.9,0.3,1.4v1c0,0.6-0.1,1-0.3,1.4s-0.5,0.7-0.9,0.9s-0.8,0.3-1.4,0.3S125.1,59.8,124.8,59.6z
			 M128,51.9l-0.7,0.6l-1.2-1.1l-1.2,1.1l-0.7-0.6l1.8-1.8L128,51.9z M127.1,58.4c0.2-0.3,0.3-0.6,0.3-1.1v-1c0-0.5-0.1-0.8-0.3-1.1
			s-0.6-0.4-1-0.4s-0.7,0.1-1,0.4s-0.3,0.6-0.3,1.1v1c0,0.5,0.1,0.8,0.3,1.1s0.6,0.4,1,0.4S126.9,58.6,127.1,58.4z"/>
		<path d="M129.8,53.7h2.7v1.1h-2.7V53.7z M130.8,59.4c-0.2-0.3-0.3-0.7-0.3-1.2V52h1.2v6.3c0,0.1,0,0.3,0.1,0.3s0.1,0.1,0.3,0.1
			h0.6v1.1h-0.7C131.4,59.8,131,59.7,130.8,59.4z"/>
		<path d="M135.3,59.6c-0.4-0.2-0.7-0.5-0.9-0.9s-0.3-0.9-0.3-1.5v-0.7c0-0.6,0.1-1.1,0.3-1.5s0.5-0.8,0.9-1s0.8-0.3,1.4-0.3
			c0.5,0,0.9,0.1,1.3,0.4s0.6,0.6,0.8,1.1s0.3,1.1,0.3,1.7v0.4h-4.1v-1h3c0-0.5-0.2-0.9-0.4-1.2s-0.5-0.4-0.9-0.4
			c-0.5,0-0.8,0.1-1.1,0.4s-0.4,0.7-0.4,1.3v0.8c0,0.5,0.1,0.9,0.4,1.2s0.6,0.4,1.1,0.4c0.2,0,0.5,0,0.7-0.1s0.5-0.2,0.6-0.4
			l0.8,0.8c-0.3,0.3-0.6,0.5-1,0.7s-0.8,0.2-1.1,0.2C136.2,59.9,135.7,59.8,135.3,59.6z M135.9,52l1.7-2.1l0.9,0.7l-1.8,2L135.9,52z
			"/>
		<path d="M141.8,59.8c-0.3-0.1-0.6-0.2-0.9-0.3s-0.5-0.3-0.8-0.5l0.7-0.9c0.3,0.2,0.7,0.4,1,0.6s0.6,0.2,1,0.2
			c0.5,0,0.8-0.1,1.1-0.2s0.4-0.4,0.4-0.7c0-0.2-0.1-0.3-0.2-0.4s-0.3-0.2-0.5-0.2s-0.5-0.1-0.8-0.1c0,0-0.1,0-0.1,0s-0.1,0-0.1,0
			c0,0,0,0,0,0s0,0,0,0c-0.4,0-0.7-0.1-1-0.2s-0.5-0.2-0.7-0.5s-0.3-0.6-0.3-1s0.1-0.8,0.3-1.1s0.4-0.5,0.8-0.6s0.8-0.2,1.3-0.2
			c0.3,0,0.6,0,0.9,0.1s0.6,0.1,0.8,0.3s0.5,0.3,0.8,0.4l-0.7,0.9c-0.3-0.2-0.6-0.3-0.9-0.4s-0.6-0.1-0.9-0.1
			c-0.4,0-0.7,0.1-0.9,0.2s-0.3,0.3-0.3,0.6c0,0.2,0.1,0.3,0.2,0.4s0.3,0.1,0.4,0.2s0.4,0.1,0.8,0.1c0,0,0,0,0.1,0s0.1,0,0.1,0
			c0,0,0,0,0,0s0,0,0,0c0.4,0,0.8,0.1,1.1,0.2s0.5,0.3,0.8,0.5s0.3,0.6,0.3,1.1c0,0.4-0.1,0.8-0.3,1.1s-0.5,0.5-0.8,0.6
			s-0.9,0.2-1.4,0.2C142.5,59.9,142.1,59.9,141.8,59.8z"/>
		<path d="M150.9,59.6c-0.3-0.2-0.6-0.5-0.7-0.8s-0.2-0.8-0.2-1.3v-1.3c0-0.5,0.1-1,0.2-1.3s0.4-0.7,0.7-0.8s0.7-0.3,1.1-0.3
			c0.4,0,0.7,0.1,1,0.3s0.5,0.5,0.7,0.8l-0.1,1.2c0-0.3,0-0.5-0.1-0.7s-0.2-0.3-0.4-0.4s-0.4-0.1-0.6-0.1c-0.4,0-0.7,0.1-0.9,0.4
			s-0.3,0.6-0.3,1v1.3c0,0.4,0.1,0.8,0.3,1s0.5,0.4,0.9,0.4c0.3,0,0.5,0,0.6-0.1s0.3-0.2,0.4-0.4s0.1-0.4,0.1-0.7l0.1,1.3
			c-0.1,0.3-0.3,0.6-0.6,0.8s-0.6,0.3-1,0.3C151.6,59.9,151.2,59.8,150.9,59.6z M153.6,51.3h1.2v8.5h-1.2V51.3z"/>
		<path d="M157.6,59.6c-0.4-0.2-0.7-0.5-0.9-0.9s-0.3-0.9-0.3-1.5v-0.7c0-0.6,0.1-1.1,0.3-1.5s0.5-0.8,0.9-1s0.8-0.3,1.4-0.3
			c0.5,0,0.9,0.1,1.3,0.4s0.6,0.6,0.8,1.1s0.3,1.1,0.3,1.7v0.4h-4.1v-1h3c0-0.5-0.2-0.9-0.4-1.2s-0.5-0.4-0.9-0.4
			c-0.5,0-0.8,0.1-1.1,0.4s-0.4,0.7-0.4,1.3v0.8c0,0.5,0.1,0.9,0.4,1.2s0.6,0.4,1.1,0.4c0.2,0,0.5,0,0.7-0.1s0.5-0.2,0.6-0.4
			l0.8,0.8c-0.3,0.3-0.6,0.5-1,0.7s-0.8,0.2-1.1,0.2C158.5,59.9,158,59.8,157.6,59.6z"/>
		<path d="M167.4,58.2c0,0.1,0,0.3,0.1,0.3s0.2,0.1,0.3,0.1h0.6v1.1h-0.7c-0.5,0-0.8-0.1-1.1-0.4s-0.4-0.7-0.4-1.2v-6.9h1.2V58.2z"
			/>
		<path d="M169.2,51.3h1.3v1.9l-1.3,1.3V51.3z"/>
		<path d="M171.7,59.4c-0.4-0.3-0.6-0.8-0.6-1.4c0-0.6,0.2-1.1,0.5-1.4s0.9-0.5,1.5-0.5h1.7l0.1,1h-1.8c-0.3,0-0.5,0.1-0.7,0.2
			s-0.2,0.4-0.2,0.6c0,0.3,0.1,0.5,0.3,0.7s0.5,0.2,0.9,0.2c0.5,0,0.8,0,1-0.1s0.3-0.2,0.3-0.5l0.1,0.9c-0.1,0.2-0.2,0.3-0.4,0.4
			s-0.3,0.2-0.5,0.2s-0.4,0.1-0.7,0.1C172.6,59.9,172.1,59.8,171.7,59.4z M174.9,56c0-0.4-0.1-0.7-0.3-0.9s-0.5-0.3-0.9-0.3
			c-0.2,0-0.5,0-0.7,0.1s-0.4,0.2-0.6,0.3l-0.9-0.6c0.2-0.3,0.5-0.5,0.9-0.6s0.8-0.2,1.3-0.2c0.5,0,0.9,0.1,1.3,0.3s0.6,0.4,0.8,0.8
			s0.3,0.7,0.3,1.2v3.9h-1.1V56z"/>
		<path d="M177.8,53.7h1.2v6.1h-1.2V53.7z M181.5,56.1c0-0.4-0.1-0.8-0.3-1s-0.5-0.4-0.9-0.4c-0.4,0-0.7,0.1-0.9,0.3
			S179,55.6,179,56l-0.1-1.2c0.2-0.4,0.4-0.7,0.7-0.8s0.6-0.3,1-0.3c0.7,0,1.2,0.2,1.5,0.6s0.5,1,0.5,1.8v3.7h-1.2V56.1z"/>
		<path d="M185.3,59.6c-0.3-0.2-0.6-0.5-0.7-0.8s-0.2-0.8-0.2-1.3v-1.3c0-0.5,0.1-1,0.2-1.3s0.4-0.7,0.7-0.8s0.7-0.3,1.1-0.3
			c0.4,0,0.7,0.1,1,0.3s0.5,0.5,0.7,0.8l-0.1,1.2c0-0.3,0-0.5-0.1-0.7s-0.2-0.3-0.4-0.4s-0.4-0.1-0.6-0.1c-0.4,0-0.7,0.1-0.9,0.4
			s-0.3,0.6-0.3,1v1.3c0,0.4,0.1,0.8,0.3,1s0.5,0.4,0.9,0.4c0.3,0,0.5,0,0.6-0.1s0.3-0.2,0.4-0.4s0.1-0.4,0.1-0.7l0.1,1.3
			c-0.1,0.3-0.3,0.6-0.6,0.8s-0.6,0.3-1,0.3C186,59.9,185.6,59.8,185.3,59.6z M185.3,62c-0.4-0.2-0.6-0.4-0.8-0.7l0.8-0.7
			c0.2,0.2,0.3,0.4,0.6,0.5s0.4,0.2,0.7,0.2c0.5,0,0.8-0.1,1.1-0.4s0.4-0.6,0.4-1.1v-6.1h1.2v5.9c0,0.6-0.1,1-0.3,1.4
			s-0.5,0.7-0.9,0.9s-0.9,0.3-1.4,0.3C186.1,62.3,185.7,62.2,185.3,62z"/>
		<path d="M192.2,58.2c0,0.1,0,0.3,0.1,0.3s0.2,0.1,0.3,0.1h0.6v1.1h-0.7c-0.5,0-0.8-0.1-1.1-0.4s-0.4-0.7-0.4-1.2v-6.9h1.2V58.2z"
			/>
		<path d="M195.5,59.6c-0.4-0.2-0.7-0.5-0.9-0.9s-0.3-0.9-0.3-1.5v-0.7c0-0.6,0.1-1.1,0.3-1.5s0.5-0.8,0.9-1s0.8-0.3,1.4-0.3
			c0.5,0,0.9,0.1,1.3,0.4s0.6,0.6,0.8,1.1s0.3,1.1,0.3,1.7v0.4h-4.1v-1h3c0-0.5-0.2-0.9-0.4-1.2s-0.5-0.4-0.9-0.4
			c-0.5,0-0.8,0.1-1.1,0.4s-0.4,0.7-0.4,1.3v0.8c0,0.5,0.1,0.9,0.4,1.2s0.6,0.4,1.1,0.4c0.2,0,0.5,0,0.7-0.1s0.5-0.2,0.6-0.4
			l0.8,0.8c-0.3,0.3-0.6,0.5-1,0.7s-0.8,0.2-1.1,0.2C196.4,59.9,195.9,59.8,195.5,59.6z"/>
	</g>
</g>
<g>
	<g>
		<line fill="none" stroke="#E30613" stroke-linecap="round" stroke-miterlimit="10" x1="38.8" y1="50" x2="45.4" y2="24.3"/>
		<g>
			<polygon fill="#E30613" points="37.3,55.5 42.5,48.6 38.9,49.6 36.2,47 			"/>
		</g>
	</g>
</g>
<g>
	<g>
		<path d="M2.4,20.8c-0.4-0.1-0.7-0.2-1-0.4s-0.6-0.4-0.9-0.6L1.3,19c0.3,0.3,0.7,0.5,1.1,0.6s0.8,0.2,1.3,0.2
			c0.6,0,1.1-0.1,1.4-0.3s0.5-0.6,0.5-1v0c0-0.3-0.1-0.5-0.2-0.7S5,17.5,4.7,17.4s-0.6-0.2-0.9-0.2c0,0,0,0,0,0s0,0,0,0l-0.1,0
			c-0.6-0.1-1-0.2-1.4-0.3s-0.7-0.3-0.9-0.7s-0.4-0.8-0.4-1.4v0c0-0.5,0.1-1,0.4-1.4s0.6-0.7,1-0.9s1-0.3,1.6-0.3
			c0.3,0,0.6,0,0.9,0.1s0.6,0.2,0.9,0.3s0.6,0.3,0.8,0.5l-0.7,0.9c-0.3-0.2-0.6-0.4-1-0.5s-0.6-0.2-1-0.2c-0.6,0-1,0.1-1.4,0.3
			s-0.5,0.6-0.5,1v0c0,0.3,0.1,0.5,0.2,0.7s0.4,0.3,0.6,0.4S3.6,16,4,16c0,0,0,0,0,0s0,0,0,0c0,0,0,0,0.1,0s0,0,0.1,0
			c0.5,0.1,0.9,0.2,1.3,0.4s0.6,0.4,0.9,0.7s0.3,0.8,0.3,1.3v0c0,0.5-0.1,1-0.4,1.3s-0.6,0.7-1.1,0.8S4.3,21,3.6,21
			C3.2,21,2.8,20.9,2.4,20.8z"/>
		<path d="M9.3,20.6c-0.4-0.2-0.7-0.5-0.9-0.9s-0.3-0.9-0.3-1.4v-1c0-0.6,0.1-1,0.3-1.4s0.5-0.7,0.9-0.9s0.8-0.3,1.4-0.3
			s1,0.1,1.4,0.3s0.7,0.5,0.9,0.9s0.3,0.9,0.3,1.4v1c0,0.6-0.1,1-0.3,1.4s-0.5,0.7-0.9,0.9S11.2,21,10.7,21S9.7,20.9,9.3,20.6z
			 M11.6,19.4c0.2-0.3,0.3-0.6,0.3-1.1v-1c0-0.5-0.1-0.8-0.3-1.1s-0.6-0.4-1-0.4s-0.7,0.1-1,0.4s-0.3,0.6-0.3,1.1v1
			c0,0.5,0.1,0.8,0.3,1.1s0.6,0.4,1,0.4S11.4,19.7,11.6,19.4z"/>
		<path d="M14.9,14.8h1.2v6.1h-1.2V14.8z M18.5,17.2c0-0.4-0.1-0.8-0.3-1s-0.5-0.4-0.9-0.4c-0.4,0-0.7,0.1-0.9,0.3s-0.3,0.5-0.3,0.9
			l-0.1-1.2c0.2-0.4,0.4-0.7,0.7-0.8s0.6-0.3,1-0.3c0.4,0,0.8,0.1,1.1,0.3s0.5,0.5,0.7,0.8s0.2,0.8,0.2,1.3v3.7h-1.2V17.2z
			 M22.1,17.2c0-0.4-0.1-0.8-0.3-1s-0.5-0.4-0.9-0.4c-0.4,0-0.7,0.1-0.9,0.3s-0.3,0.5-0.3,1L19.5,16c0.2-0.4,0.4-0.7,0.8-0.9
			s0.7-0.3,1-0.3c0.4,0,0.8,0.1,1.1,0.3s0.5,0.5,0.7,0.8s0.2,0.8,0.2,1.3v3.7h-1.2V17.2z"/>
		<path d="M25.1,14.8h1.2v6.1h-1.2V14.8z M28.8,17.2c0-0.4-0.1-0.8-0.3-1s-0.5-0.4-0.9-0.4c-0.4,0-0.7,0.1-0.9,0.3s-0.3,0.5-0.3,0.9
			l-0.1-1.2c0.2-0.4,0.4-0.7,0.7-0.8s0.6-0.3,1-0.3c0.4,0,0.8,0.1,1.1,0.3s0.5,0.5,0.7,0.8s0.2,0.8,0.2,1.3v3.7h-1.2V17.2z
			 M32.4,17.2c0-0.4-0.1-0.8-0.3-1s-0.5-0.4-0.9-0.4c-0.4,0-0.7,0.1-0.9,0.3s-0.3,0.5-0.3,1L29.7,16c0.2-0.4,0.4-0.7,0.8-0.9
			s0.7-0.3,1-0.3c0.4,0,0.8,0.1,1.1,0.3s0.5,0.5,0.7,0.8s0.2,0.8,0.2,1.3v3.7h-1.2V17.2z"/>
		<path d="M36.5,20.6c-0.4-0.2-0.7-0.5-0.9-0.9s-0.3-0.9-0.3-1.5v-0.7c0-0.6,0.1-1.1,0.3-1.5s0.5-0.8,0.9-1s0.8-0.3,1.4-0.3
			c0.5,0,0.9,0.1,1.3,0.4s0.6,0.6,0.8,1.1s0.3,1.1,0.3,1.7v0.4h-4.1v-1h3c0-0.5-0.2-0.9-0.4-1.2s-0.5-0.4-0.9-0.4
			c-0.5,0-0.8,0.1-1.1,0.4s-0.4,0.7-0.4,1.3v0.8c0,0.5,0.1,0.9,0.4,1.2s0.6,0.4,1.1,0.4c0.2,0,0.5,0,0.7-0.1s0.5-0.2,0.6-0.4
			l0.8,0.8c-0.3,0.3-0.6,0.5-1,0.7S38.3,21,37.9,21C37.3,21,36.9,20.9,36.5,20.6z"/>
		<path d="M41.4,14.8h2.7v1.1h-2.7V14.8z M42.4,20.5c-0.2-0.3-0.3-0.7-0.3-1.2V13h1.2v6.3c0,0.1,0,0.3,0.1,0.3s0.1,0.1,0.3,0.1h0.6
			v1.1h-0.7C42.9,20.9,42.6,20.8,42.4,20.5z"/>
		<path d="M49.8,20.7c-0.3-0.2-0.6-0.5-0.7-0.8s-0.2-0.8-0.2-1.3v-1.3c0-0.5,0.1-1,0.2-1.3s0.4-0.7,0.7-0.8s0.7-0.3,1.1-0.3
			c0.4,0,0.7,0.1,1,0.3s0.5,0.5,0.7,0.8L52.4,17c0-0.3,0-0.5-0.1-0.7s-0.2-0.3-0.4-0.4s-0.4-0.1-0.6-0.1c-0.4,0-0.7,0.1-0.9,0.4
			s-0.3,0.6-0.3,1v1.3c0,0.4,0.1,0.8,0.3,1s0.5,0.4,0.9,0.4c0.3,0,0.5,0,0.6-0.1s0.3-0.2,0.4-0.4s0.1-0.4,0.1-0.7l0.1,1.3
			c-0.1,0.3-0.3,0.6-0.6,0.8s-0.6,0.3-1,0.3C50.5,21,50.1,20.9,49.8,20.7z M52.4,12.3h1.2v8.5h-1.2V12.3z"/>
		<path d="M56.5,20.6c-0.4-0.2-0.7-0.5-0.9-0.9s-0.3-0.9-0.3-1.5v-0.7c0-0.6,0.1-1.1,0.3-1.5s0.5-0.8,0.9-1s0.8-0.3,1.4-0.3
			c0.5,0,0.9,0.1,1.3,0.4s0.6,0.6,0.8,1.1s0.3,1.1,0.3,1.7v0.4h-4.1v-1h3c0-0.5-0.2-0.9-0.4-1.2s-0.5-0.4-0.9-0.4
			c-0.5,0-0.8,0.1-1.1,0.4s-0.4,0.7-0.4,1.3v0.8c0,0.5,0.1,0.9,0.4,1.2s0.6,0.4,1.1,0.4c0.2,0,0.5,0,0.7-0.1s0.5-0.2,0.6-0.4
			l0.8,0.8c-0.3,0.3-0.6,0.5-1,0.7S58.3,21,57.9,21C57.4,21,56.9,20.9,56.5,20.6z"/>
		<path d="M66.3,19.3c0,0.1,0,0.3,0.1,0.3s0.2,0.1,0.3,0.1h0.6v1.1h-0.7c-0.5,0-0.8-0.1-1.1-0.4s-0.4-0.7-0.4-1.2v-6.9h1.2V19.3z"/>
		<path d="M68.1,12.3h1.3v1.9l-1.3,1.3V12.3z"/>
		<path d="M70.6,20.5c-0.4-0.3-0.6-0.8-0.6-1.4c0-0.6,0.2-1.1,0.5-1.4s0.9-0.5,1.5-0.5h1.7l0.1,1h-1.8c-0.3,0-0.5,0.1-0.7,0.2
			s-0.2,0.4-0.2,0.6c0,0.3,0.1,0.5,0.3,0.7S72,20,72.4,20c0.5,0,0.8,0,1-0.1s0.3-0.2,0.3-0.5l0.1,0.9c-0.1,0.2-0.2,0.3-0.4,0.4
			s-0.3,0.2-0.5,0.2S72.5,21,72.3,21C71.5,21,70.9,20.8,70.6,20.5z M73.7,17c0-0.4-0.1-0.7-0.3-0.9s-0.5-0.3-0.9-0.3
			c-0.2,0-0.5,0-0.7,0.1s-0.4,0.2-0.6,0.3l-0.9-0.6c0.2-0.3,0.5-0.5,0.9-0.6s0.8-0.2,1.3-0.2c0.5,0,0.9,0.1,1.3,0.3s0.6,0.4,0.8,0.8
			s0.3,0.7,0.3,1.2v3.9h-1.1V17z"/>
		<path d="M76.7,14.8h1.2v6.1h-1.2V14.8z M80.4,17.2c0-0.4-0.1-0.8-0.3-1s-0.5-0.4-0.9-0.4c-0.4,0-0.7,0.1-0.9,0.3s-0.3,0.5-0.3,0.9
			l-0.1-1.2c0.2-0.4,0.4-0.7,0.7-0.8s0.6-0.3,1-0.3c0.7,0,1.2,0.2,1.5,0.6s0.5,1,0.5,1.8v3.7h-1.2V17.2z"/>
		<path d="M84.2,20.7c-0.3-0.2-0.6-0.5-0.7-0.8s-0.2-0.8-0.2-1.3v-1.3c0-0.5,0.1-1,0.2-1.3s0.4-0.7,0.7-0.8s0.7-0.3,1.1-0.3
			c0.4,0,0.7,0.1,1,0.3s0.5,0.5,0.7,0.8L86.9,17c0-0.3,0-0.5-0.1-0.7s-0.2-0.3-0.4-0.4s-0.4-0.1-0.6-0.1c-0.4,0-0.7,0.1-0.9,0.4
			s-0.3,0.6-0.3,1v1.3c0,0.4,0.1,0.8,0.3,1s0.5,0.4,0.9,0.4c0.3,0,0.5,0,0.6-0.1s0.3-0.2,0.4-0.4s0.1-0.4,0.1-0.7l0.1,1.3
			c-0.1,0.3-0.3,0.6-0.6,0.8s-0.6,0.3-1,0.3C84.9,21,84.5,20.9,84.2,20.7z M84.2,23.1c-0.4-0.2-0.6-0.4-0.8-0.7l0.8-0.7
			c0.2,0.2,0.3,0.4,0.6,0.5s0.4,0.2,0.7,0.2c0.5,0,0.8-0.1,1.1-0.4s0.4-0.6,0.4-1.1v-6.1h1.2v5.9c0,0.6-0.1,1-0.3,1.4
			s-0.5,0.7-0.9,0.9s-0.9,0.3-1.4,0.3C85,23.3,84.6,23.3,84.2,23.1z"/>
		<path d="M91.1,19.3c0,0.1,0,0.3,0.1,0.3s0.2,0.1,0.3,0.1H92v1.1h-0.7c-0.5,0-0.8-0.1-1.1-0.4s-0.4-0.7-0.4-1.2v-6.9h1.2V19.3z"/>
		<path d="M94.4,20.6c-0.4-0.2-0.7-0.5-0.9-0.9s-0.3-0.9-0.3-1.5v-0.7c0-0.6,0.1-1.1,0.3-1.5s0.5-0.8,0.9-1s0.8-0.3,1.4-0.3
			c0.5,0,0.9,0.1,1.3,0.4s0.6,0.6,0.8,1.1s0.3,1.1,0.3,1.7v0.4H94v-1h3c0-0.5-0.2-0.9-0.4-1.2s-0.5-0.4-0.9-0.4
			c-0.5,0-0.8,0.1-1.1,0.4s-0.4,0.7-0.4,1.3v0.8c0,0.5,0.1,0.9,0.4,1.2s0.6,0.4,1.1,0.4c0.2,0,0.5,0,0.7-0.1s0.5-0.2,0.6-0.4L98,20
			c-0.3,0.3-0.6,0.5-1,0.7S96.2,21,95.8,21C95.3,21,94.8,20.9,94.4,20.6z"/>
	</g>
</g>
</svg>
