<?xml version="1.0" encoding="utf-8"?>
<!-- Generator: Adobe Illustrator 28.0.0, SVG Export Plug-In . SVG Version: 6.00 Build 0)  -->
<svg version="1.1" id="Calque_1" xmlns="http://www.w3.org/2000/svg" xmlns:xlink="http://www.w3.org/1999/xlink" x="0px" y="0px"
	 viewBox="0 0 800 100" style="enable-background:new 0 0 800 100;" xml:space="preserve">
<style type="text/css">
	.st0{fill:none;stroke:#000000;stroke-width:3;stroke-linecap:round;stroke-linejoin:round;}
	.st1{fill:none;stroke:#000000;stroke-width:2;stroke-linecap:round;stroke-linejoin:round;}
	.st2{stroke:#000000;stroke-width:3;stroke-linecap:round;stroke-linejoin:round;}
	.st3{font-family:'ArialMT';}
	.st4{font-size:18px;}
	.st5{fill:none;stroke:#000000;stroke-width:2;stroke-linecap:round;stroke-miterlimit:10;}
</style>
<path class="st0" d="M10,42.5v15"/>
<path class="st1" d="M139.2,45v10"/>
<path class="st1" d="M268.3,45v10"/>
<path class="st1" d="M397.5,45v10"/>
<path class="st1" d="M526.7,45v10"/>
<path class="st1" d="M655.8,45v10"/>
<path class="st0" d="M785,42.5v15"/>
<path class="st0" d="M5,50h785"/>
<path class="st2" d="M790,50h1.2v2.5L795,50l-3.8-2.5V50H790z"/>
<text transform="matrix(1 0 0 1 4.9946 83.5)" class="st3 st4">0</text>
<text transform="matrix(1 0 0 1 779.9946 83.5)" class="st3 st4">1</text>
<text transform="matrix(1 0 0 1 134.1613 76.4216)"><tspan x="0" y="0" class="st3 st4">1</tspan><tspan x="0" y="21.6" class="st3 st4">6</tspan></text>
<text transform="matrix(1 0 0 1 263.3281 76.4217)"><tspan x="0" y="0" class="st3 st4">1</tspan><tspan x="0" y="21.6" class="st3 st4">3</tspan></text>
<line class="st5" x1="131" y1="80.6" x2="147.3" y2="80.6"/>
<line class="st5" x1="260.2" y1="80.6" x2="276.5" y2="80.6"/>
</svg>
