<?xml version="1.0" encoding="UTF-8"?>
<svg xmlns="http://www.w3.org/2000/svg" xmlns:xlink="http://www.w3.org/1999/xlink" viewBox="0 0 1208.28 118.98">
  <defs>
    <style>
      .cls-1, .cls-2 {
        fill: #e30613;
      }

      .cls-1, .cls-3 {
        stroke: #e30613;
      }

      .cls-1, .cls-3, .cls-4 {
        stroke-miterlimit: 10;
        stroke-width: 2px;
      }

      .cls-2, .cls-5 {
        font-family: Bahnschrift, Bahnschrift;
        font-size: 30px;
        font-variation-settings: 'wght' 400, 'wdth' 100;
      }

      .cls-6 {
        fill: #39271c;
      }

      .cls-6, .cls-7, .cls-8, .cls-9, .cls-10, .cls-11, .cls-12, .cls-13 {
        stroke-width: 0px;
      }

      .cls-7 {
        fill: #d7c8c2;
      }

      .cls-8 {
        fill: #f7a900;
      }

      .cls-5, .cls-13 {
        fill: #1d1d1b;
      }

      .cls-9 {
        fill: #f9c044;
      }

      .cls-3, .cls-4 {
        fill: none;
      }

      .cls-10 {
        fill: #fff;
      }

      .cls-14 {
        filter: url(#luminosity-invert);
      }

      .cls-11 {
        fill: #878787;
      }

      .cls-12 {
        fill: #fed36f;
      }

      .cls-4 {
        stroke: #1d1d1b;
      }

      .cls-15 {
        mask: url(#mask);
      }
    </style>
    <filter id="luminosity-invert" x="7.28" y="0" width="1028.33" height="62.22" color-interpolation-filters="sRGB" filterUnits="userSpaceOnUse">
      <feColorMatrix result="cm" values="-1 0 0 0 1 0 -1 0 0 1 0 0 -1 0 1 0 0 0 1 0"/>
    </filter>
    <mask id="mask" x="7.28" y="0" width="1028.33" height="62.22" maskUnits="userSpaceOnUse">
      <g class="cls-14">
        <polygon class="cls-11" points="1034.94 62.22 7.28 62.22 7.28 0 1035.61 0 1034.94 62.22"/>
      </g>
    </mask>
  </defs>
  <g id="Calque_2" data-name="Calque 2">
    <g class="cls-15">
      <g>
        <g>
          <path class="cls-6" d="m44.98,46.52c-9.37-2.03-18.5-4.32-26.25-8.21-5.07-2.54-8.54-5.69-10.45-9.46,0-1.79,0-3.59,0-5.38.22-.08.57-.12.64-.23,4.89-7.67,14.87-11.09,27.89-12.05,5.91-.44,11.64-1.22,16.77-3.24,3.2-1.26,6.89-1.55,10.78-1.68,5.56-.18,10.48,2.05,16.24,1.16,2.18-.34,4.39-.45,6.46-1.12,4.17-1.34,8.62-1.82,13.31-1.17,14.16,1.97,28.24,2.67,42.24-.59,2.59-.6,5.68-.79,8.35-.05,5.04,1.39,9.87,1.18,14.74-.21,6.65-1.9,13.81-1.89,20.72-1.23,10.66,1.02,21.06.71,31.34-.99,6.25-1.03,12.36-1.61,18.65-.28,3.02.64,6.07,1.24,9.35.62,3.71-.7,7.55-.59,11.32-.44,5.92.24,11.15-1.32,16.72-1.98h10.62c1.46.96,3.54.5,5.29.72,17.82,2.35,35.71,2.55,53.66.4,3-.36,6.15-.97,9.26-.41,7.56,1.36,15.2,1.87,23.08,1.28,2.36-.18,5.16.59,7.16.09,10.79-2.74,21.15-1.53,31.58.67,15.96,3.37,32.33,5.19,49.34,4.58,3.39-.12,6.8-.07,10.2,0,17.97.32,28.49,4.84,34.3,14.68v6.36c-2.03,2.83-3.09,5.9-5.75,8.59-4.03,4.07-9.6,7.19-16.54,9.4-1.08.34-1.96.8-2.96,1.17-5.18.82-9.44,2.93-14.97,3.4-6.43.55-12.56,1.97-19.11,2.52-14.66,1.24-29.35,1.97-44.12,2.29-3.64.08-7.33-.15-10.91.48-1.36.02-2.71.04-4.07.05-.84,0-1.69,0-2.53.01-1.33,0-2.66.01-3.99.02-3.12-.03-6.25-.13-9.37-.08-44.59.71-89.18.6-133.78.59-7.61,0-15.22.01-22.83.02-.23-.06-.45-.07-.68-.01-1.13,0-2.26,0-3.4,0-7.37-.02-14.73-.04-22.1-.06-15.21-.83-30.49-.32-45.71-.91-.23-.06-.46-.07-.7-.02-1.67,0-3.34-.01-5.01-.02-1.08-.02-2.16-.04-3.25-.05-1.65-.48-3.45-.41-5.2-.49-7.5-.36-15.06-.44-22.49-1.09-11.2-.99-22.63-.94-33.66-2.82-3.62-.62-8.02-.46-11.25-1.22-6.22-1.47-12.92-1.9-18.94-3.61ZM246.9,7.81c-.62-.48-1.43-.67-2.43-.59l.05.02c-4.75-2.01-10.19-3.14-15.85-3.29-8.43-.23-16.35,2.01-25.67,1.91,4.65,1.64,8.4,2.81,11.87,4.22,5.25,2.13,10.32,4.43,15.46,6.66l.05-.07c-.06.38.37.48.86.53,4.66,2.57,9.48,5.06,13.94,7.75,3.67,2.22,8.47,3.69,11.46,6.33-2.26.03-3.52-1.24-5.53-1.53-.43-.23-.85-.46-1.28-.69l-.23-.06c-3.88-1.6-7.75-3.25-11.41-4.98-15.62-7.38-31.28-14.54-51.25-17.36-3.9-.55-7.54-.99-12.7-.59,16.12,2.06,29.77,5.73,41.99,11.25,1.03.46,2.57.73,2.1,1.82-17.23-6.97-36.23-10.53-57-10.74,2.34,1.61,4.89,2.92,7.39,4.27,19.72,10.63,42.69,17.45,68.48,20.99,3.74.51,7.66.52,11.22,1.5-13.37,0-26.21-1.78-38.91-4.08-12.97-2.92-25.13-6.69-36.03-11.89-6.27-2.99-11.48-6.7-18.22-9.35-3.07-3.04-8.14-3.01-12.98-2.69-4.76.31-9.17,1.83-14.19,1.64-3.52-.13-7.06-.02-11.26-.02,3.05,1.38,5.42,2.34,7.57,3.45,5.13,2.65,10.16,5.37,15.23,8.06,8.01,4.54,17.21,8.02,27.08,10.91-5.04.14-9.21-1.54-13.79-2.36-10-3.34-19.17-7.35-27.69-11.93-4.34-2.33-8.78-4.6-13.91-6.32-5.83-1.96-11.93-3.24-19.14-3,.58.32.81.57,1.13.62,13.26,1.97,24.21,6.33,34.05,11.83.93.52,2.4.91,1.87,1.96-.93-.63-2.53-.25-3.54-.91-5.41-3.53-12.61-5.48-19.53-7.63-4.19-1.3-8.64-2.25-13.23-2.98-1.55-.25-3.06-.05-3.58.51-.64.71,1.14.93,1.96,1.25,7.99,3.08,15.45,6.61,23.09,9.99,12.1,5.35,24.63,10.18,39.6,12.29,4.47.63,9.09.29,13.45,1.14-13.03,1.16-25.2-1.09-36.88-3.97-4.86-1.2-9.85-2.63-14.4-4.38.21-.73-.73-.96-1.51-1.28-5.14-2.13-10.26-4.27-15.42-6.38-8.06-3.3-16.02-6.7-25.38-8.64-6.94-1.44-13.7-2.06-19.84,1.18-7.71,2.73-16.87,2.37-25.03,4.23-5.62,1.28-11.93,5.14-12.79,8.76-1.12,4.71,3.49,7.7,9.08,10.18,12.15,5.39,26.53,7.54,40.89,9.6,19.84,2.84,40.12,3.93,60.39,4.86,27.14,1.24,54.37,1.11,81.57,1.29,41.91.28,83.83.46,125.73.13,36.04-.28,72.18,1.02,108.12-2.1,5.34-.46,10.9-.6,16.23-1.27,11.49-1.45,22.83-3.35,31.87-8.15,8.32-4.42,12.63-10.02,11.95-16.81-.48-3.84-3.66-6.68-8.93-8.79-6.37-2.55-13.5-3.67-21.03-3.83-9.35-.19-18.74.32-28.05-.51-4.89-.44-9.75-1-14.63-1.51,7.04,2.95,12.6,6.8,19.19,9.92,2.91,2.33,7.66,3.59,10.15,6.17-3.04-1.27-6.07-2.55-9.59-3.31.11-.92-1.17-1.23-2.11-1.65-7.01-3.1-13.9-6.3-21.12-9.22-9.83-3.97-20.22-7.22-32.66-7.04.56.59,1.5.65,2.42.81,12.09,2.12,23.13,5.49,33.1,10.1.83.38,2.74.52,1.87,1.66-8.53-2.23-16.44-5.24-25.19-7.2-10.93-2.45-22.2-3.86-34.13-3.71,3.9,1.37,7.8,2.73,11.69,4.1.61.28,1.22.55,1.84.83.18.12.4.19.67.2,1.07.45,2.14.89,3.21,1.34,7.56,3.4,15.5,6.44,24.02,8.91,3.28,1.2,6.57,2.38,10.38,2.89,5.77,2.02,12.31,2.74,18.61,3.81,6.87,1.17,13.98,1.67,21.17,1.52.94-.02,2.2-.39,2.84.44-8.4.78-16.8.71-25.15-.18-15.85-1.69-30.41-5.35-44.22-10.28-9.63-3.43-18.03-8.06-28.6-10.58-.22-.19-.45-.39-.67-.58v-.02c-7.51-3.11-15.54-4.62-24.85-3.44-2.47.31-4.6,1.41-7.23,1.15-4.98-.48-9.94.15-14.92.02-2.86-.08-5.84-.28-8.64.81,1.98,1.3,4.75,1.83,7.04,2.77,7.92,3.25,15.87,6.47,23.8,9.71l-.05-.04c.59.27,1.18.55,1.77.82,3.67,1.61,7.33,3.22,11.03,4.81.96.41,2.28.61,2.04,1.56-1.97.32-3.61-.4-4.77-1.02-2.75-1.47-6.06-2.28-9.22-3.28-3.3-1.27-6.55-2.58-9.89-3.81-12.46-4.56-24.47-9.64-38.44-12.53-5.7-1.18-11.48-2.26-18.64-1.56,8.02.95,14.8,2.31,21.41,3.98,5.76,1.46,11.29,3.19,16.6,5.16.71.26,2.63.86-.21.95-10.25-3.02-20.87-5.42-32.07-6.83-5.04-.73-10.18-1.09-15.33-1.43-.31-.01-.62-.03-.92-.04h-13.93c-.06.12-.12.24-.18.37,2.48.69,4.96,1.38,7.44,2.07l.07.03c.53.16,1.06.32,1.58.48,15.47,5.46,30.87,10.99,47.42,15.23,9.87,2.53,19.88,4.78,30.23,6.62,9.7,1.73,19.34,3.33,29.38,4.04-.6.74-1.3.72-2.77.68-8.63-.2-16.98-1.75-25.61-1.77-.6-.83-1.93-.75-3.1-.92-18.73-2.76-36.63-6.8-53.83-12.05-11.01-3.36-21.04-7.71-32.15-10.93-.91-.57-2.1-.82-3.34-1l.05.02Z"/>
          <path class="cls-7" d="m387.32,56.28c.84,0,1.69,0,2.53-.01,1.38.63,2.74.64,4.07-.05,3.58-.63,7.27-.4,10.91-.48,14.77-.32,29.46-1.05,44.12-2.29,6.55-.55,12.67-1.97,19.11-2.52,5.52-.48,9.79-2.59,14.97-3.4,2.35.66,5.13.19,7.44.99,1.79.62,4.56.69,4.65,2.36.09,1.65-2.44,2.01-4.37,2.51-4.9,1.25-10.12,1.88-15.33,2.33-14.99,1.29-30.01,2.42-45.14,3.06-13.39.57-26.77,1.12-40.18,1.51-13.83.4-27.67.58-41.48,1-12.1.37-24.2.04-36.27.41-28.41.86-56.84.51-85.24.29-19.57-.15-39.15-.08-58.71-.47-13.28-.26-26.57-.59-39.85-.95-15.42-.42-30.85-.95-46.18-1.95-13.27-.87-26.7-1.4-39.59-3.79-2.49-.46-4.91-1.01-6.96-1.95-2.72-1.26-2.47-2.4.1-3.77,2.64-1.41,6.4-1.27,9.07-2.55,6.02,1.71,12.72,2.14,18.94,3.61,3.22.76,7.63.6,11.25,1.22,11.03,1.88,22.46,1.83,33.66,2.82,7.42.65,14.99.74,22.49,1.09,1.75.08,3.55.02,5.2.49,1.05.82,2.14.48,3.25.05,1.67,0,3.34.01,5.01.02.22.24.45.22.7.02,15.22.59,30.5.08,45.71.91-2.1.08-4.19.15-6.29.23,5.85.22,11.7.29,17.53.19,3.62-.06,7.3.45,10.86-.36,1.13,0,2.26,0,3.4,0,.23,0,.46,0,.68.01,7.61,0,15.22-.02,22.83-.02,44.6,0,89.19.12,133.78-.59,3.12-.05,6.24.05,9.37.08,1.34.59,2.67.58,3.99-.02Z"/>
          <path class="cls-8" d="m116.18,27.3c4.55,1.75,9.54,3.18,14.4,4.38,11.68,2.88,23.85,5.13,36.88,3.97,1.47-.39,4.05.5,4.24-1.36.18-1.69-1.21-2.55-3.93-2.76-.38-.03-.72-.22-1.07-.33-9.86-2.89-19.07-6.37-27.08-10.91-.01-1.46-1.82-2.45-2.81-3.65-2.45-2.98-1.02-5.1,4.31-6.06,3.44-.62,6.97-.35,10.43-.24,1.45.05,2.57-.02,3.69-.49,6.74,2.65,11.95,6.36,18.22,9.35,10.89,5.2,23.06,8.96,36.02,11.88-.54.22-1.07.63-1.61.63-4.2.01-8.41.28-12.6-.19-5.35-.6-10.83.19-16.22-.54,2.75.78,5.53,1.39,8.37,1.87,16.42,2.8,33.22,4.25,50.18,5.36,17.12,1.12,34.29,1.46,51.45,1.8,17.89.36,35.79-.13,53.69-.8,11.48-.44,22.95-.99,34.37-1.7,13.95-.87,27.85-2.2,41.46-4.32,4.38-.68,8.62-1.67,12.93-2.52-9.5-.06-18.81.46-28.13.56-8.96.1-17.86.88-26.84.59-1.02-.03-2.07.3-3.11.47-5.07-2.63-9.23-6.01-16.31-6.95.24-.95-1.08-1.15-2.04-1.56-3.7-1.59-7.35-3.2-11.03-4.81-.05-.69-.74-.89-1.77-.82,0,0,.05.04.05.04.15-1.06-1.47-1.48-2.28-2.18-4.56-3.94-2.61-7.73,4.95-9.11,3.56-.65,7.14-1.01,11.05-.67,3.68.32,7.24,1.31,11.08.94,0,0-.01.02-.01.02.22.19.45.39.67.58,10.57,2.52,18.97,7.14,28.6,10.58,13.81,4.92,28.37,8.59,44.22,10.28,8.34.89,16.75.96,25.15.18,1.45.01,1.98-.71,2.87-1.11-3.42-1.17-6.66-2.27-9.89-3.37-2.49-2.58-7.24-3.84-10.15-6.17.26-.18.75-.37.74-.55-.14-2.8,2.76-3.65,6.76-4.06,9.91-1.02,19.22.74,28.57,2.14,7.2,1.08,12.92,3.64,17.38,7.19.68,6.79-3.63,12.39-11.95,16.81-9.04,4.8-20.38,6.7-31.87,8.15-5.33.67-10.89.81-16.23,1.27-35.94,3.12-72.08,1.82-108.12,2.1-41.9.33-83.82.15-125.73-.13-27.19-.18-54.42-.05-81.57-1.29-20.27-.93-40.55-2.02-60.39-4.86-14.35-2.06-28.74-4.21-40.89-9.6-5.59-2.48-10.19-5.47-9.08-10.18.86-3.62,7.17-7.48,12.79-8.76,8.16-1.86,17.32-1.5,25.03-4.23,1.53,1.22,3.46.07,5.27.28,12.62,1.46,23.25,5.66,34.61,8.81,7.4,2.05,14.69,4.23,22.26,6.05Z"/>
          <path class="cls-8" d="m256.63,31.29c-2.99-2.64-7.79-4.12-11.46-6.33-4.46-2.69-9.28-5.18-13.94-7.75-.29-.18-.58-.36-.86-.53l-.05.07c.48-.89-.62-1.5-1.01-2.24-.96-1.82-2.47-3.76-.07-5.57,2.12-1.6,5.08-1.92,8.37-1.73,2.28.13,4.6.04,6.91.04,0,0-.05-.02-.05-.02.41.78,1.49.59,2.43.59l-.05-.02c.24,1.38,2.04.89,3.34,1,11.11,3.23,21.14,7.58,32.15,10.93,17.2,5.25,35.1,9.29,53.83,12.05,1.16.17,2.49.09,3.1.92-19.81.05-39.6.84-59.42.55-3.94-.06-7.92.15-11.79-.19-2-.17-3.36,0-4.81.65-1.98-1.04-3.69-2.33-6.62-2.42Z"/>
          <path class="cls-9" d="m263.25,33.71c1.44-.66,2.81-.82,4.81-.65,3.86.33,7.85.13,11.79.19,19.82.29,39.61-.5,59.42-.55,8.64.03,16.99,1.57,25.61,1.77,1.47.03,2.18.06,2.77-.68,2.07.16,4.05.72,6.67.45-2.19-.51-2.01-1.18-.9-1.93,1.04-.17,2.09-.5,3.11-.47,8.98.28,17.88-.49,26.84-.59,9.32-.1,18.63-.62,28.13-.56-4.31.85-8.55,1.84-12.93,2.52-13.61,2.12-27.51,3.45-41.46,4.32-11.42.71-22.89,1.27-34.37,1.7-17.9.68-35.79,1.16-53.69.8-17.16-.34-34.34-.68-51.45-1.8-16.95-1.11-33.75-2.56-50.18-5.36-2.84-.48-5.62-1.09-8.37-1.87,5.39.73,10.86-.05,16.22.54,4.19.47,8.4.2,12.6.19.54,0,1.07-.41,1.61-.63,12.69,2.31,25.54,4.09,38.91,4.09,1.46-.18,2.91,0,4.36-.01,3.65,0,7.65.68,10.5-1.46Z"/>
          <path class="cls-12" d="m263.25,33.71c-2.85,2.14-6.85,1.45-10.5,1.46-1.45,0-2.9-.16-4.36.01-3.56-.98-7.49-.99-11.22-1.5-25.79-3.54-48.76-10.37-68.48-20.99-2.5-1.35-5.05-2.67-7.39-4.27,20.77.21,39.77,3.76,57,10.74,8.38,3.37,16.73,6.76,26.13,9.1,1.68.42,3.02,1.49,5.15.76,0,0,.23.06.23.06-.34.75.58.64,1.28.69,2.01.29,3.27,1.56,5.53,1.53,2.94.09,4.65,1.39,6.62,2.42Z"/>
          <path class="cls-12" d="m388.74,11.24c7.56,3.4,15.49,6.44,24.02,8.91,5.39,1.74,4.11,1.8,10.38,2.89,5.77,2.02,12.31,2.73,18.61,3.81,6.87,1.17,13.98,1.67,21.17,1.52.94-.02,2.2-.39,2.84.44,1.45.01,1.98-.71,2.87-1.11-3.42-1.17-6.66-2.27-9.89-3.37-3.04-1.27-6.07-2.55-9.59-3.31-5.33,0-9.7-1.37-13.57-3.43-1.97-.35-3.66-.96-4.95-1.93l.02.02c-8.53-2.23-16.44-5.24-25.19-7.2-10.93-2.45-22.2-3.86-34.13-3.71,3.9,1.37,7.65,2.83,11.69,4.1,1.39.86,5.71,2.37,5.71,2.37Z"/>
          <path class="cls-12" d="m166.7,31.2c.36.12.7.3,1.07.33,2.72.21,4.1,1.07,3.93,2.76-.19,1.85-2.78.97-4.24,1.36-4.36-.85-8.98-.51-13.45-1.14-14.97-2.12-27.5-6.95-39.6-12.29-7.64-3.38-15.09-6.9-23.09-9.99-.82-.32-2.61-.54-1.96-1.25.51-.57,2.03-.76,3.58-.51,4.59.74,9.04,1.68,13.23,2.98,6.92,2.15,14.12,4.1,19.53,7.63,1.01.66,2.6.28,3.54.91,2.97,1.21,5.78,2.6,8.93,3.6,4.65,1.47,9.17,3.26,14.75,3.25,4.58.82,8.75,2.5,13.79,2.36Z"/>
          <path class="cls-9" d="m502.04,22.89c-4.46-3.56-10.18-6.11-17.38-7.19-9.35-1.4-18.66-3.15-28.57-2.14-4,.41-6.9,1.26-6.76,4.06,0,.18-.48.36-.74.55-6.59-3.12-12.15-6.97-19.19-9.92,4.88.51,9.74,1.07,14.63,1.51,9.31.83,18.7.32,28.05.51,7.54.15,14.66,1.27,21.03,3.83,5.27,2.11,8.45,4.95,8.93,8.79Z"/>
          <path class="cls-9" d="m367.13,7.18c-3.84.36-7.4-.62-11.08-.94-3.91-.35-7.49.02-11.05.67-7.56,1.38-9.51,5.17-4.95,9.11.81.7,2.43,1.12,2.28,2.18-7.94-3.23-15.89-6.46-23.8-9.71-2.29-.94-5.06-1.47-7.04-2.77,2.81-1.09,5.78-.89,8.64-.81,4.98.13,9.94-.5,14.92-.02,2.63.26,4.76-.84,7.23-1.15,9.31-1.18,17.33.33,24.86,3.44Z"/>
          <path class="cls-9" d="m116.18,27.3c-7.57-1.81-14.86-4-22.26-6.05-11.37-3.14-22-7.34-34.61-8.81-1.82-.21-3.74.94-5.27-.28,6.14-3.24,12.9-2.62,19.84-1.18,9.36,1.94,17.32,5.34,25.38,8.64,5.15,2.11,10.28,4.26,15.42,6.38.77.32,1.72.56,1.51,1.28Z"/>
          <path class="cls-9" d="m244.52,7.24c-2.3,0-4.62.09-6.91-.04-3.29-.19-6.25.12-8.37,1.73-2.4,1.81-.89,3.76.07,5.57.39.74,1.49,1.35,1.01,2.24-5.14-2.23-10.21-4.52-15.46-6.66-3.47-1.41-7.21-2.58-11.87-4.22,9.32.1,17.24-2.14,25.67-1.91,5.66.15,11.1,1.28,15.85,3.29Z"/>
          <path class="cls-9" d="m249.58,29.01c-2.13.73-3.47-.34-5.15-.76-9.39-2.34-17.74-5.73-26.13-9.1.48-1.09-1.07-1.36-2.1-1.82-12.22-5.51-25.87-9.18-41.99-11.25,5.16-.4,8.79.04,12.7.59,19.97,2.83,35.63,9.99,51.25,17.36,3.66,1.73,7.53,3.38,11.41,4.98Z"/>
          <path class="cls-9" d="m155.24,9.85c-1.12.47-2.24.54-3.69.49-3.46-.11-6.98-.39-10.43.24-5.32.96-6.75,3.08-4.31,6.06.98,1.2,2.79,2.18,2.81,3.65-5.07-2.69-10.1-5.42-15.23-8.07-2.15-1.11-4.52-2.07-7.57-3.45,4.2,0,7.74-.1,11.26.02,5.01.18,9.42-1.33,14.19-1.64,4.84-.32,9.91-.35,12.98,2.69Z"/>
          <path class="cls-9" d="m449.15,21.02c-5.33,0-9.7-1.37-13.57-3.43-1.38-.89-2.19-2.3-4.95-1.93l.02.02c.88-1.14-1.04-1.28-1.87-1.66-9.97-4.61-21-7.99-33.1-10.1-.92-.16-1.86-.22-2.42-.81,12.44-.18,22.83,3.07,32.66,7.04,7.22,2.92,14.11,6.12,21.12,9.22.93.41,2.22.73,2.11,1.65Z"/>
          <path class="cls-9" d="m343.13,21.05c-1.54.7-2.82.07-4.1-.32-6.91-2.13-13.79-4.28-20.7-6.4-1.4-.43-2.91-.73-4.37-1.08,2.84-.09.91-.69.21-.95-5.31-1.97-10.84-3.71-16.6-5.16-6.61-1.67-13.4-3.03-21.41-3.98,7.16-.71,12.95.38,18.64,1.56,13.97,2.89,25.97,7.97,38.44,12.53,3.34,1.22,6.6,2.53,9.89,3.81Z"/>
          <path class="cls-9" d="m152.91,28.84c-5.59,0-10.11-1.79-14.75-3.25-3.16-1-5.97-2.38-8.93-3.6.54-1.05-.94-1.44-1.87-1.96-9.83-5.5-20.79-9.85-34.05-11.83-.32-.05-.55-.29-1.13-.62,7.2-.24,13.31,1.04,19.14,3,5.12,1.73,9.57,3.99,13.91,6.32,8.52,4.58,17.69,8.59,27.69,11.93Z"/>
          <path class="cls-10" d="m213.28,56.81c-3.55.81-7.24.3-10.86.36-5.84.1-11.68.03-17.53-.19,2.1-.08,4.19-.15,6.29-.23,7.37.02,14.73.04,22.1.06Z"/>
          <path class="cls-9" d="m250.19,8.79c-1.3-.11-3.1.38-3.34-1,1.25.18,2.43.43,3.34,1Z"/>
          <path class="cls-10" d="m387.32,56.28c-1.32.6-2.65.61-3.99.02,1.33,0,2.66-.01,3.99-.02Z"/>
          <path class="cls-10" d="m393.92,56.21c-1.33.7-2.69.68-4.07.05,1.36-.02,2.71-.04,4.07-.05Z"/>
          <path class="cls-10" d="m139.76,55.81c-1.1.43-2.2.77-3.25-.05,1.08.02,2.16.04,3.25.05Z"/>
          <path class="cls-9" d="m246.9,7.81c-.94,0-2.01.19-2.43-.59,1-.08,1.81.12,2.43.59Z"/>
          <path class="cls-9" d="m342.28,18.15c1.04-.07,1.72.13,1.77.82-.59-.27-1.18-.55-1.77-.82Z"/>
          <path class="cls-12" d="m373.43,32.3c-5.07-2.63-9.23-6.01-16.31-6.95-1.98.33-3.61-.4-4.77-1.02-2.75-1.47-6.06-2.28-9.22-3.28-1.54.7-2.82.07-4.1-.32-6.91-2.13-13.79-4.28-20.7-6.4-1.4-.43-2.91-.73-4.37-1.08-10.25-3.02-20.86-5.42-32.07-6.83-5.04-.73-10.18-1.09-15.33-1.43-.31-.01-.61-.03-.92-.04h-13.93c-.06.12-.12.24-.18.37,2.48.69,4.96,1.38,7.44,2.07,0,0,.07.03.07.03.53.16,1.06.32,1.58.48,15.47,5.46,30.87,10.99,47.42,15.23,9.87,2.53,19.88,4.78,30.23,6.62,9.7,1.73,19.34,3.33,29.38,4.04,2.07.16,4.05.72,6.67.45-2.19-.51-2.01-1.18-.9-1.93Z"/>
          <path class="cls-9" d="m251.1,29.76c-.7-.05-1.63.06-1.28-.69.43.23.86.46,1.28.69Z"/>
          <path class="cls-9" d="m230.37,16.67c.29.18.58.36.86.53-.5-.06-.93-.15-.86-.53Z"/>
          <path class="cls-9" d="m367.79,7.78c-.23-.19-.45-.39-.67-.58.23.19.45.39.67.58Z"/>
          <path class="cls-10" d="m145.47,55.84c-.25.2-.48.23-.7-.02.24-.05.47-.05.7.02Z"/>
          <path class="cls-10" d="m217.36,56.83c-.23,0-.46,0-.68-.01.23-.06.46-.05.68.01Z"/>
          <path class="cls-6" d="m430.63,15.67c2.75-.37,3.56,1.04,4.95,1.93-1.97-.35-3.66-.96-4.95-1.93Z"/>
        </g>
        <g>
          <path class="cls-6" d="m544.98,46.52c-9.37-2.03-18.5-4.32-26.25-8.21-5.07-2.54-8.54-5.69-10.45-9.46,0-1.79,0-3.59,0-5.38.22-.08.57-.12.64-.23,4.89-7.67,14.87-11.09,27.89-12.05,5.91-.44,11.64-1.22,16.77-3.24,3.2-1.26,6.89-1.55,10.78-1.68,5.56-.18,10.48,2.05,16.24,1.16,2.18-.34,4.39-.45,6.46-1.12,4.17-1.34,8.62-1.82,13.31-1.17,14.16,1.97,28.24,2.67,42.24-.59,2.59-.6,5.68-.79,8.35-.05,5.04,1.39,9.87,1.18,14.74-.21,6.65-1.9,13.81-1.89,20.72-1.23,10.66,1.02,21.06.71,31.34-.99,6.25-1.03,12.36-1.61,18.65-.28,3.02.64,6.07,1.24,9.35.62,3.71-.7,7.55-.59,11.32-.44,5.92.24,11.15-1.32,16.72-1.98h10.62c1.46.96,3.54.5,5.29.72,17.82,2.35,35.71,2.55,53.66.4,3-.36,6.15-.97,9.26-.41,7.56,1.36,15.2,1.87,23.08,1.28,2.36-.18,5.16.59,7.16.09,10.79-2.74,21.15-1.53,31.58.67,15.96,3.37,32.33,5.19,49.34,4.58,3.39-.12,6.8-.07,10.2,0,17.97.32,28.49,4.84,34.3,14.68v6.36c-2.03,2.83-3.09,5.9-5.75,8.59-4.03,4.07-9.6,7.19-16.54,9.4-1.08.34-1.96.8-2.96,1.17-5.18.82-9.44,2.93-14.97,3.4-6.43.55-12.56,1.97-19.11,2.52-14.66,1.24-29.35,1.97-44.12,2.29-3.64.08-7.33-.15-10.91.48-1.36.02-2.71.04-4.07.05-.84,0-1.69,0-2.53.01-1.33,0-2.66.01-3.99.02-3.12-.03-6.25-.13-9.37-.08-44.59.71-89.18.6-133.78.59-7.61,0-15.22.01-22.83.02-.23-.06-.45-.07-.68-.01-1.13,0-2.26,0-3.4,0-7.37-.02-14.73-.04-22.1-.06-15.21-.83-30.49-.32-45.71-.91-.23-.06-.46-.07-.7-.02-1.67,0-3.34-.01-5.01-.02-1.08-.02-2.16-.04-3.25-.05-1.65-.48-3.45-.41-5.2-.49-7.5-.36-15.06-.44-22.49-1.09-11.2-.99-22.63-.94-33.66-2.82-3.62-.62-8.02-.46-11.25-1.22-6.22-1.47-12.92-1.9-18.94-3.61ZM746.9,7.81c-.62-.48-1.43-.67-2.43-.59l.05.02c-4.75-2.01-10.19-3.14-15.85-3.29-8.43-.23-16.35,2.01-25.67,1.91,4.65,1.64,8.4,2.81,11.87,4.22,5.25,2.13,10.32,4.43,15.46,6.66l.05-.07c-.06.38.37.48.86.53,4.66,2.57,9.48,5.06,13.94,7.75,3.67,2.22,8.47,3.69,11.46,6.33-2.26.03-3.52-1.24-5.53-1.53-.43-.23-.85-.46-1.28-.69l-.23-.06c-3.88-1.6-7.75-3.25-11.41-4.98-15.62-7.38-31.28-14.54-51.25-17.36-3.9-.55-7.54-.99-12.7-.59,16.12,2.06,29.77,5.73,41.99,11.25,1.03.46,2.57.73,2.1,1.82-17.23-6.97-36.23-10.53-57-10.74,2.34,1.61,4.89,2.92,7.39,4.27,19.72,10.63,42.69,17.45,68.48,20.99,3.74.51,7.66.52,11.22,1.5-13.37,0-26.21-1.78-38.91-4.08-12.97-2.92-25.13-6.69-36.03-11.89-6.27-2.99-11.48-6.7-18.22-9.35-3.07-3.04-8.14-3.01-12.98-2.69-4.76.31-9.17,1.83-14.19,1.64-3.52-.13-7.06-.02-11.26-.02,3.05,1.38,5.42,2.34,7.57,3.45,5.13,2.65,10.16,5.37,15.23,8.06,8.01,4.54,17.21,8.02,27.08,10.91-5.04.14-9.21-1.54-13.79-2.36-10-3.34-19.17-7.35-27.69-11.93-4.34-2.33-8.78-4.6-13.91-6.32-5.83-1.96-11.93-3.24-19.14-3,.58.32.81.57,1.13.62,13.26,1.97,24.21,6.33,34.05,11.83.93.52,2.4.91,1.87,1.96-.93-.63-2.53-.25-3.54-.91-5.41-3.53-12.61-5.48-19.53-7.63-4.19-1.3-8.64-2.25-13.23-2.98-1.55-.25-3.06-.05-3.58.51-.64.71,1.14.93,1.96,1.25,7.99,3.08,15.45,6.61,23.09,9.99,12.1,5.35,24.63,10.18,39.6,12.29,4.47.63,9.09.29,13.45,1.14-13.03,1.16-25.2-1.09-36.88-3.97-4.86-1.2-9.85-2.63-14.4-4.38.21-.73-.73-.96-1.51-1.28-5.14-2.13-10.26-4.27-15.42-6.38-8.06-3.3-16.02-6.7-25.38-8.64-6.94-1.44-13.7-2.06-19.84,1.18-7.71,2.73-16.87,2.37-25.03,4.23-5.62,1.28-11.93,5.14-12.79,8.76-1.12,4.71,3.49,7.7,9.08,10.18,12.15,5.39,26.53,7.54,40.89,9.6,19.84,2.84,40.12,3.93,60.39,4.86,27.14,1.24,54.37,1.11,81.57,1.29,41.91.28,83.83.46,125.73.13,36.04-.28,72.18,1.02,108.12-2.1,5.34-.46,10.9-.6,16.23-1.27,11.49-1.45,22.83-3.35,31.87-8.15,8.32-4.42,12.63-10.02,11.95-16.81-.48-3.84-3.66-6.68-8.93-8.79-6.37-2.55-13.5-3.67-21.03-3.83-9.35-.19-18.74.32-28.05-.51-4.89-.44-9.75-1-14.63-1.51,7.04,2.95,12.6,6.8,19.19,9.92,2.91,2.33,7.66,3.59,10.15,6.17-3.04-1.27-6.07-2.55-9.59-3.31.11-.92-1.17-1.23-2.11-1.65-7.01-3.1-13.9-6.3-21.12-9.22-9.83-3.97-20.22-7.22-32.66-7.04.56.59,1.5.65,2.42.81,12.09,2.12,23.13,5.49,33.1,10.1.83.38,2.74.52,1.87,1.66-8.53-2.23-16.44-5.24-25.19-7.2-10.93-2.45-22.2-3.86-34.13-3.71,3.9,1.37,7.8,2.73,11.69,4.1.61.28,1.22.55,1.84.83.18.12.4.19.67.2,1.07.45,2.14.89,3.21,1.34,7.56,3.4,15.5,6.44,24.02,8.91,3.28,1.2,6.57,2.38,10.38,2.89,5.77,2.02,12.31,2.74,18.61,3.81,6.87,1.17,13.98,1.67,21.17,1.52.94-.02,2.2-.39,2.84.44-8.4.78-16.8.71-25.15-.18-15.85-1.69-30.41-5.35-44.22-10.28-9.63-3.43-18.03-8.06-28.6-10.58-.22-.19-.45-.39-.67-.58v-.02c-7.51-3.11-15.54-4.62-24.85-3.44-2.47.31-4.6,1.41-7.23,1.15-4.98-.48-9.94.15-14.92.02-2.86-.08-5.84-.28-8.64.81,1.98,1.3,4.75,1.83,7.04,2.77,7.92,3.25,15.87,6.47,23.8,9.71l-.05-.04c.59.27,1.18.55,1.77.82,3.67,1.61,7.33,3.22,11.03,4.81.96.41,2.28.61,2.04,1.56-1.97.32-3.61-.4-4.77-1.02-2.75-1.47-6.06-2.28-9.22-3.28-3.3-1.27-6.55-2.58-9.89-3.81-12.46-4.56-24.47-9.64-38.44-12.53-5.7-1.18-11.48-2.26-18.64-1.56,8.02.95,14.8,2.31,21.41,3.98,5.76,1.46,11.29,3.19,16.6,5.16.71.26,2.63.86-.21.95-10.25-3.02-20.87-5.42-32.07-6.83-5.04-.73-10.18-1.09-15.33-1.43-.31-.01-.62-.03-.92-.04h-13.93c-.06.12-.12.24-.18.37,2.48.69,4.96,1.38,7.44,2.07l.07.03c.53.16,1.06.32,1.58.48,15.47,5.46,30.87,10.99,47.42,15.23,9.87,2.53,19.88,4.78,30.23,6.62,9.7,1.73,19.34,3.33,29.38,4.04-.6.74-1.3.72-2.77.68-8.63-.2-16.98-1.75-25.61-1.77-.6-.83-1.93-.75-3.1-.92-18.73-2.76-36.63-6.8-53.83-12.05-11.01-3.36-21.04-7.71-32.15-10.93-.91-.57-2.1-.82-3.34-1l.05.02Z"/>
          <path class="cls-7" d="m887.32,56.28c.84,0,1.69,0,2.53-.01,1.38.63,2.74.64,4.07-.05,3.58-.63,7.27-.4,10.91-.48,14.77-.32,29.46-1.05,44.12-2.29,6.55-.55,12.67-1.97,19.11-2.52,5.52-.48,9.79-2.59,14.97-3.4,2.35.66,5.13.19,7.44.99,1.79.62,4.56.69,4.65,2.36.09,1.65-2.44,2.01-4.37,2.51-4.9,1.25-10.12,1.88-15.33,2.33-14.99,1.29-30.01,2.42-45.14,3.06-13.39.57-26.77,1.12-40.18,1.51-13.83.4-27.67.58-41.48,1-12.1.37-24.2.04-36.27.41-28.41.86-56.84.51-85.24.29-19.57-.15-39.15-.08-58.71-.47-13.28-.26-26.57-.59-39.85-.95-15.42-.42-30.85-.95-46.18-1.95-13.27-.87-26.7-1.4-39.59-3.79-2.49-.46-4.91-1.01-6.96-1.95-2.72-1.26-2.47-2.4.1-3.77,2.64-1.41,6.4-1.27,9.07-2.55,6.02,1.71,12.72,2.14,18.94,3.61,3.22.76,7.63.6,11.25,1.22,11.03,1.88,22.46,1.83,33.66,2.82,7.42.65,14.99.74,22.49,1.09,1.75.08,3.55.02,5.2.49,1.05.82,2.14.48,3.25.05,1.67,0,3.34.01,5.01.02.22.24.45.22.7.02,15.22.59,30.5.08,45.71.91-2.1.08-4.19.15-6.29.23,5.85.22,11.7.29,17.53.19,3.62-.06,7.3.45,10.86-.36,1.13,0,2.26,0,3.4,0,.23,0,.46,0,.68.01,7.61,0,15.22-.02,22.83-.02,44.6,0,89.19.12,133.78-.59,3.12-.05,6.24.05,9.37.08,1.34.59,2.67.58,3.99-.02Z"/>
          <path class="cls-8" d="m616.18,27.3c4.55,1.75,9.54,3.18,14.4,4.38,11.68,2.88,23.85,5.13,36.88,3.97,1.47-.39,4.05.5,4.24-1.36.18-1.69-1.21-2.55-3.93-2.76-.38-.03-.72-.22-1.07-.33-9.86-2.89-19.07-6.37-27.08-10.91-.01-1.46-1.82-2.45-2.81-3.65-2.45-2.98-1.02-5.1,4.31-6.06,3.44-.62,6.97-.35,10.43-.24,1.45.05,2.57-.02,3.69-.49,6.74,2.65,11.95,6.36,18.22,9.35,10.89,5.2,23.06,8.96,36.02,11.88-.54.22-1.07.63-1.61.63-4.2.01-8.41.28-12.6-.19-5.35-.6-10.83.19-16.22-.54,2.75.78,5.53,1.39,8.37,1.87,16.42,2.8,33.22,4.25,50.18,5.36,17.12,1.12,34.29,1.46,51.45,1.8,17.89.36,35.79-.13,53.69-.8,11.48-.44,22.95-.99,34.37-1.7,13.95-.87,27.85-2.2,41.46-4.32,4.38-.68,8.62-1.67,12.93-2.52-9.5-.06-18.81.46-28.13.56-8.96.1-17.86.88-26.84.59-1.02-.03-2.07.3-3.11.47-5.07-2.63-9.23-6.01-16.31-6.95.24-.95-1.08-1.15-2.04-1.56-3.7-1.59-7.35-3.2-11.03-4.81-.05-.69-.74-.89-1.77-.82,0,0,.05.04.05.04.15-1.06-1.47-1.48-2.28-2.18-4.56-3.94-2.61-7.73,4.95-9.11,3.56-.65,7.14-1.01,11.05-.67,3.68.32,7.24,1.31,11.08.94,0,0-.01.02-.01.02.22.19.45.39.67.58,10.57,2.52,18.97,7.14,28.6,10.58,13.81,4.92,28.37,8.59,44.22,10.28,8.34.89,16.75.96,25.15.18,1.45.01,1.98-.71,2.87-1.11-3.42-1.17-6.66-2.27-9.89-3.37-2.49-2.58-7.24-3.84-10.15-6.17.26-.18.75-.37.74-.55-.14-2.8,2.76-3.65,6.76-4.06,9.91-1.02,19.22.74,28.57,2.14,7.2,1.08,12.92,3.64,17.38,7.19.68,6.79-3.63,12.39-11.95,16.81-9.04,4.8-20.38,6.7-31.87,8.15-5.33.67-10.89.81-16.23,1.27-35.94,3.12-72.08,1.82-108.12,2.1-41.9.33-83.82.15-125.73-.13-27.19-.18-54.42-.05-81.57-1.29-20.27-.93-40.55-2.02-60.39-4.86-14.35-2.06-28.74-4.21-40.89-9.6-5.59-2.48-10.19-5.47-9.08-10.18.86-3.62,7.17-7.48,12.79-8.76,8.16-1.86,17.32-1.5,25.03-4.23,1.53,1.22,3.46.07,5.27.28,12.62,1.46,23.25,5.66,34.61,8.81,7.4,2.05,14.69,4.23,22.26,6.05Z"/>
          <path class="cls-8" d="m756.63,31.29c-2.99-2.64-7.79-4.12-11.46-6.33-4.46-2.69-9.28-5.18-13.94-7.75-.29-.18-.58-.36-.86-.53l-.05.07c.48-.89-.62-1.5-1.01-2.24-.96-1.82-2.47-3.76-.07-5.57,2.12-1.6,5.08-1.92,8.37-1.73,2.28.13,4.6.04,6.91.04,0,0-.05-.02-.05-.02.41.78,1.49.59,2.43.59l-.05-.02c.24,1.38,2.04.89,3.34,1,11.11,3.23,21.14,7.58,32.15,10.93,17.2,5.25,35.1,9.29,53.83,12.05,1.16.17,2.49.09,3.1.92-19.81.05-39.6.84-59.42.55-3.94-.06-7.92.15-11.79-.19-2-.17-3.36,0-4.81.65-1.98-1.04-3.69-2.33-6.62-2.42Z"/>
          <path class="cls-9" d="m763.25,33.71c1.44-.66,2.81-.82,4.81-.65,3.86.33,7.85.13,11.79.19,19.82.29,39.61-.5,59.42-.55,8.64.03,16.99,1.57,25.61,1.77,1.47.03,2.18.06,2.77-.68,2.07.16,4.05.72,6.67.45-2.19-.51-2.01-1.18-.9-1.93,1.04-.17,2.09-.5,3.11-.47,8.98.28,17.88-.49,26.84-.59,9.32-.1,18.63-.62,28.13-.56-4.31.85-8.55,1.84-12.93,2.52-13.61,2.12-27.51,3.45-41.46,4.32-11.42.71-22.89,1.27-34.37,1.7-17.9.68-35.79,1.16-53.69.8-17.16-.34-34.34-.68-51.45-1.8-16.95-1.11-33.75-2.56-50.18-5.36-2.84-.48-5.62-1.09-8.37-1.87,5.39.73,10.86-.05,16.22.54,4.19.47,8.4.2,12.6.19.54,0,1.07-.41,1.61-.63,12.69,2.31,25.54,4.09,38.91,4.09,1.46-.18,2.91,0,4.36-.01,3.65,0,7.65.68,10.5-1.46Z"/>
          <path class="cls-12" d="m763.25,33.71c-2.85,2.14-6.85,1.45-10.5,1.46-1.45,0-2.9-.16-4.36.01-3.56-.98-7.49-.99-11.22-1.5-25.79-3.54-48.76-10.37-68.48-20.99-2.5-1.35-5.05-2.67-7.39-4.27,20.77.21,39.77,3.76,57,10.74,8.38,3.37,16.73,6.76,26.13,9.1,1.68.42,3.02,1.49,5.15.76,0,0,.23.06.23.06-.34.75.58.64,1.28.69,2.01.29,3.27,1.56,5.53,1.53,2.94.09,4.65,1.39,6.62,2.42Z"/>
          <path class="cls-12" d="m888.74,11.24c7.56,3.4,15.49,6.44,24.02,8.91,5.39,1.74,4.11,1.8,10.38,2.89,5.77,2.02,12.31,2.73,18.61,3.81,6.87,1.17,13.98,1.67,21.17,1.52.94-.02,2.2-.39,2.84.44,1.45.01,1.98-.71,2.87-1.11-3.42-1.17-6.66-2.27-9.89-3.37-3.04-1.27-6.07-2.55-9.59-3.31-5.33,0-9.7-1.37-13.57-3.43-1.97-.35-3.66-.96-4.95-1.93l.02.02c-8.53-2.23-16.44-5.24-25.19-7.2-10.93-2.45-22.2-3.86-34.13-3.71,3.9,1.37,7.65,2.83,11.69,4.1,1.39.86,5.71,2.37,5.71,2.37Z"/>
          <path class="cls-12" d="m666.7,31.2c.36.12.7.3,1.07.33,2.72.21,4.1,1.07,3.93,2.76-.19,1.85-2.78.97-4.24,1.36-4.36-.85-8.98-.51-13.45-1.14-14.97-2.12-27.5-6.95-39.6-12.29-7.64-3.38-15.09-6.9-23.09-9.99-.82-.32-2.61-.54-1.96-1.25.51-.57,2.03-.76,3.58-.51,4.59.74,9.04,1.68,13.23,2.98,6.92,2.15,14.12,4.1,19.53,7.63,1.01.66,2.6.28,3.54.91,2.97,1.21,5.78,2.6,8.93,3.6,4.65,1.47,9.17,3.26,14.75,3.25,4.58.82,8.75,2.5,13.79,2.36Z"/>
          <path class="cls-9" d="m1002.04,22.89c-4.46-3.56-10.18-6.11-17.38-7.19-9.35-1.4-18.66-3.15-28.57-2.14-4,.41-6.9,1.26-6.76,4.06,0,.18-.48.36-.74.55-6.59-3.12-12.15-6.97-19.19-9.92,4.88.51,9.74,1.07,14.63,1.51,9.31.83,18.7.32,28.05.51,7.54.15,14.66,1.27,21.03,3.83,5.27,2.11,8.45,4.95,8.93,8.79Z"/>
          <path class="cls-9" d="m867.13,7.18c-3.84.36-7.4-.62-11.08-.94-3.91-.35-7.49.02-11.05.67-7.56,1.38-9.51,5.17-4.95,9.11.81.7,2.43,1.12,2.28,2.18-7.94-3.23-15.89-6.46-23.8-9.71-2.29-.94-5.06-1.47-7.04-2.77,2.81-1.09,5.78-.89,8.64-.81,4.98.13,9.94-.5,14.92-.02,2.63.26,4.76-.84,7.23-1.15,9.31-1.18,17.33.33,24.86,3.44Z"/>
          <path class="cls-9" d="m616.18,27.3c-7.57-1.81-14.86-4-22.26-6.05-11.37-3.14-22-7.34-34.61-8.81-1.82-.21-3.74.94-5.27-.28,6.14-3.24,12.9-2.62,19.84-1.18,9.36,1.94,17.32,5.34,25.38,8.64,5.15,2.11,10.28,4.26,15.42,6.38.77.32,1.72.56,1.51,1.28Z"/>
          <path class="cls-9" d="m744.52,7.24c-2.3,0-4.62.09-6.91-.04-3.29-.19-6.25.12-8.37,1.73-2.4,1.81-.89,3.76.07,5.57.39.74,1.49,1.35,1.01,2.24-5.14-2.23-10.21-4.52-15.46-6.66-3.47-1.41-7.21-2.58-11.87-4.22,9.32.1,17.24-2.14,25.67-1.91,5.66.15,11.1,1.28,15.85,3.29Z"/>
          <path class="cls-9" d="m749.58,29.01c-2.13.73-3.47-.34-5.15-.76-9.39-2.34-17.74-5.73-26.13-9.1.48-1.09-1.07-1.36-2.1-1.82-12.22-5.51-25.87-9.18-41.99-11.25,5.16-.4,8.79.04,12.7.59,19.97,2.83,35.63,9.99,51.25,17.36,3.66,1.73,7.53,3.38,11.41,4.98Z"/>
          <path class="cls-9" d="m655.24,9.85c-1.12.47-2.24.54-3.69.49-3.46-.11-6.98-.39-10.43.24-5.32.96-6.75,3.08-4.31,6.06.98,1.2,2.79,2.18,2.81,3.65-5.07-2.69-10.1-5.42-15.23-8.07-2.15-1.11-4.52-2.07-7.57-3.45,4.2,0,7.74-.1,11.26.02,5.01.18,9.42-1.33,14.19-1.64,4.84-.32,9.91-.35,12.98,2.69Z"/>
          <path class="cls-9" d="m949.15,21.02c-5.33,0-9.7-1.37-13.57-3.43-1.38-.89-2.19-2.3-4.95-1.93l.02.02c.88-1.14-1.04-1.28-1.87-1.66-9.97-4.61-21-7.99-33.1-10.1-.92-.16-1.86-.22-2.42-.81,12.44-.18,22.83,3.07,32.66,7.04,7.22,2.92,14.11,6.12,21.12,9.22.93.41,2.22.73,2.11,1.65Z"/>
          <path class="cls-9" d="m843.13,21.05c-1.54.7-2.82.07-4.1-.32-6.91-2.13-13.79-4.28-20.7-6.4-1.4-.43-2.91-.73-4.37-1.08,2.84-.09.91-.69.21-.95-5.31-1.97-10.84-3.71-16.6-5.16-6.61-1.67-13.4-3.03-21.41-3.98,7.16-.71,12.95.38,18.64,1.56,13.97,2.89,25.97,7.97,38.44,12.53,3.34,1.22,6.6,2.53,9.89,3.81Z"/>
          <path class="cls-9" d="m652.91,28.84c-5.59,0-10.11-1.79-14.75-3.25-3.16-1-5.97-2.38-8.93-3.6.54-1.05-.94-1.44-1.87-1.96-9.83-5.5-20.79-9.85-34.05-11.83-.32-.05-.55-.29-1.13-.62,7.2-.24,13.31,1.04,19.14,3,5.12,1.73,9.57,3.99,13.91,6.32,8.52,4.58,17.69,8.59,27.69,11.93Z"/>
          <path class="cls-10" d="m713.28,56.81c-3.55.81-7.24.3-10.86.36-5.84.1-11.68.03-17.53-.19,2.1-.08,4.19-.15,6.29-.23,7.37.02,14.73.04,22.1.06Z"/>
          <path class="cls-9" d="m750.19,8.79c-1.3-.11-3.1.38-3.34-1,1.25.18,2.43.43,3.34,1Z"/>
          <path class="cls-10" d="m887.32,56.28c-1.32.6-2.65.61-3.99.02,1.33,0,2.66-.01,3.99-.02Z"/>
          <path class="cls-10" d="m893.92,56.21c-1.33.7-2.69.68-4.07.05,1.36-.02,2.71-.04,4.07-.05Z"/>
          <path class="cls-10" d="m639.76,55.81c-1.1.43-2.2.77-3.25-.05,1.08.02,2.16.04,3.25.05Z"/>
          <path class="cls-9" d="m746.9,7.81c-.94,0-2.01.19-2.43-.59,1-.08,1.81.12,2.43.59Z"/>
          <path class="cls-9" d="m842.28,18.15c1.04-.07,1.72.13,1.77.82-.59-.27-1.18-.55-1.77-.82Z"/>
          <path class="cls-12" d="m873.43,32.3c-5.07-2.63-9.23-6.01-16.31-6.95-1.98.33-3.61-.4-4.77-1.02-2.75-1.47-6.06-2.28-9.22-3.28-1.54.7-2.82.07-4.1-.32-6.91-2.13-13.79-4.28-20.7-6.4-1.4-.43-2.91-.73-4.37-1.08-10.25-3.02-20.86-5.42-32.07-6.83-5.04-.73-10.18-1.09-15.33-1.43-.31-.01-.61-.03-.92-.04h-13.93c-.06.12-.12.24-.18.37,2.48.69,4.96,1.38,7.44,2.07,0,0,.07.03.07.03.53.16,1.06.32,1.58.48,15.47,5.46,30.87,10.99,47.42,15.23,9.87,2.53,19.88,4.78,30.23,6.62,9.7,1.73,19.34,3.33,29.38,4.04,2.07.16,4.05.72,6.67.45-2.19-.51-2.01-1.18-.9-1.93Z"/>
          <path class="cls-9" d="m751.1,29.76c-.7-.05-1.63.06-1.28-.69.43.23.86.46,1.28.69Z"/>
          <path class="cls-9" d="m730.37,16.67c.29.18.58.36.86.53-.5-.06-.93-.15-.86-.53Z"/>
          <path class="cls-9" d="m867.79,7.78c-.23-.19-.45-.39-.67-.58.23.19.45.39.67.58Z"/>
          <path class="cls-10" d="m645.47,55.84c-.25.2-.48.23-.7-.02.24-.05.47-.05.7.02Z"/>
          <path class="cls-10" d="m717.36,56.83c-.23,0-.46,0-.68-.01.23-.06.46-.05.68.01Z"/>
          <path class="cls-6" d="m930.63,15.67c2.75-.37,3.56,1.04,4.95,1.93-1.97-.35-3.66-.96-4.95-1.93Z"/>
        </g>
      </g>
    </g>
  </g>
  <g id="Calque_1" data-name="Calque 1">
    <g>
      <line class="cls-4" x1="8.28" y1="31.11" x2="1193.92" y2="31.11"/>
      <polygon class="cls-13" points="1191.01 41.08 1208.28 31.11 1191.01 21.14 1191.01 41.08"/>
    </g>
    <line class="cls-4" x1="8.28" y1="16.11" x2="8.28" y2="46.11"/>
    <line class="cls-4" x1="108.28" y1="21.11" x2="108.28" y2="41.11"/>
    <line class="cls-4" x1="208.28" y1="21.11" x2="208.28" y2="41.11"/>
    <line class="cls-4" x1="308.28" y1="21.11" x2="308.28" y2="41.11"/>
    <line class="cls-4" x1="408.28" y1="21.11" x2="408.28" y2="41.11"/>
    <line class="cls-1" x1="508.28" y1="16.11" x2="508.28" y2="46.11"/>
    <line class="cls-4" x1="608.28" y1="21.11" x2="608.28" y2="41.11"/>
    <line class="cls-4" x1="708.28" y1="21.11" x2="708.28" y2="41.11"/>
    <line class="cls-4" x1="808.28" y1="21.11" x2="808.28" y2="41.11"/>
    <line class="cls-4" x1="908.28" y1="21.11" x2="908.28" y2="41.11"/>
    <line class="cls-3" x1="1008.28" y1="16.11" x2="1008.28" y2="46.11"/>
    <line class="cls-4" x1="1108.28" y1="21.11" x2="1108.28" y2="41.11"/>
    <text class="cls-5" transform="translate(0 77.86)"><tspan x="0" y="0">0</tspan></text>
    <g>
      <text class="cls-5" transform="translate(103.29 76.69)"><tspan x="0" y="0">1</tspan></text>
      <text class="cls-5" transform="translate(100.11 110.86)"><tspan x="0" y="0">5</tspan></text>
      <line class="cls-4" x1="96.53" y1="81.44" x2="120.03" y2="81.44"/>
    </g>
    <text class="cls-5" transform="translate(200.53 76.69)"><tspan x="0" y="0">2</tspan></text>
    <text class="cls-5" transform="translate(200.11 110.86)"><tspan x="0" y="0">5</tspan></text>
    <line class="cls-4" x1="196.53" y1="81.44" x2="220.03" y2="81.44"/>
    <text class="cls-5" transform="translate(300.34 76.69)"><tspan x="0" y="0">3</tspan></text>
    <text class="cls-5" transform="translate(300.11 110.86)"><tspan x="0" y="0">5</tspan></text>
    <line class="cls-4" x1="296.53" y1="81.44" x2="320.03" y2="81.44"/>
    <g>
      <text class="cls-5" transform="translate(701.59 76.69)"><tspan x="0" y="0">7</tspan></text>
      <text class="cls-5" transform="translate(700.97 110.86)"><tspan x="0" y="0">5</tspan></text>
      <line class="cls-4" x1="697.39" y1="81.44" x2="720.89" y2="81.44"/>
    </g>
    <text class="cls-2" transform="translate(503.29 76.69)"><tspan x="0" y="0">1</tspan></text>
    <text class="cls-2" transform="translate(1000.53 76.69)"><tspan x="0" y="0">2</tspan></text>
  </g>
</svg>