<svg xmlns="http://www.w3.org/2000/svg" version="1.1" xmlns:xlink="http://www.w3.org/1999/xlink" xmlns:svgjs="http://svgjs.dev/svgjs" xml:space="preserve" width="510" height="70" viewBox="0 0 510 70" x="10" y="10"><defs><mask><rect width="100%" height="100%" fill="url(#SvgjsPattern1132)"></rect></mask><pattern x="0" y="0" width="20" height="20" patternUnits="userSpaceOnUse" id="SvgjsPattern1132"><rect width="10" height="10" fill="#ffffff"></rect><rect width="10" height="10" x="10" y="10" fill="#ffffff"></rect></pattern><mask><rect width="100%" height="100%" fill="url(#SvgjsPattern1133)"></rect></mask><pattern x="0" y="0" width="20" height="20" patternUnits="userSpaceOnUse" id="SvgjsPattern1133"><line x1="0" y1="0" x2="0" y2="20" stroke="#ffffff" stroke-width="3"></line><line x1="10" y1="0" x2="10" y2="20" stroke="#ffffff" stroke-width="3"></line><line x1="20" y1="0" x2="20" y2="20" stroke="#ffffff" stroke-width="3"></line></pattern><mask><rect width="100%" height="100%" fill="url(#SvgjsPattern1134)"></rect></mask><pattern x="0" y="0" width="20" height="20" patternUnits="userSpaceOnUse" id="SvgjsPattern1134"><line x1="0" y1="0" x2="20" y2="0" stroke="#ffffff" stroke-width="3"></line><line x1="0" y1="10" x2="20" y2="10" stroke="#ffffff" stroke-width="3"></line><line x1="0" y1="20" x2="20" y2="20" stroke="#ffffff" stroke-width="3"></line></pattern><mask><rect width="100%" height="100%" fill="url(#SvgjsPattern1135)"></rect></mask><pattern x="0" y="0" width="20" height="20" patternUnits="userSpaceOnUse" id="SvgjsPattern1135"><line x1="0" y1="0" x2="20" y2="20" stroke="#ffffff" stroke-width="3"></line><line x1="10" y1="-10" x2="30" y2="10" stroke="#ffffff" stroke-width="3"></line><line x1="-10" y1="10" x2="10" y2="30" stroke="#ffffff" stroke-width="3"></line></pattern><mask><rect width="100%" height="100%" fill="url(#SvgjsPattern1136)"></rect></mask><pattern x="0" y="0" width="20" height="20" patternUnits="userSpaceOnUse" id="SvgjsPattern1136"><line x1="0" y1="20" x2="20" y2="0" stroke="#ffffff" stroke-width="3"></line><line x1="-10" y1="10" x2="10" y2="-10" stroke="#ffffff" stroke-width="3"></line><line x1="10" y1="30" x2="30" y2="10" stroke="#ffffff" stroke-width="3"></line></pattern><mask><rect width="100%" height="100%" fill="url(#SvgjsPattern1137)"></rect></mask><pattern x="0" y="0" width="20" height="20" patternUnits="userSpaceOnUse" id="SvgjsPattern1137"><circle r="4" cx="14" cy="14" fill="#ffffff"></circle></pattern><mask><rect width="100%" height="100%" fill="url(#SvgjsPattern1138)"></rect></mask><pattern x="0" y="0" width="20" height="20" patternUnits="userSpaceOnUse" id="SvgjsPattern1138"><circle r="2" cx="2" cy="2" fill="#ffffff"></circle><circle r="2" cx="22" cy="2" fill="#ffffff"></circle><circle r="2" cx="2" cy="22" fill="#ffffff"></circle><circle r="2" cx="22" cy="22" fill="#ffffff"></circle><circle r="2" cx="12" cy="12" fill="#ffffff"></circle></pattern><mask><rect width="100%" height="100%" fill="url(#SvgjsPattern1139)"></rect></mask><pattern x="0" y="0" width="20" height="20" patternUnits="userSpaceOnUse" id="SvgjsPattern1139"><polygon points="0,0 2,5 0,10 5,8 10,10 8,5 10,0 5,2" transform="matrix(2,0,0,2,0,0)" fill="#ffffff"></polygon></pattern><mask><rect width="100%" height="100%" fill="url(#SvgjsPattern1140)"></rect></mask><pattern x="0" y="0" width="20" height="20" patternUnits="userSpaceOnUse" id="SvgjsPattern1140"><circle r="1" cx="11" cy="11" fill="#ffffff"></circle></pattern><mask><rect width="100%" height="100%" fill="url(#SvgjsPattern1141)"></rect></mask><pattern x="0" y="0" width="20" height="20" patternUnits="userSpaceOnUse" id="SvgjsPattern1141"><path d="M 0,5 A 5,5,90,0,0,5,0 M 5,0 A 5,5,90,0,0,10,5 M 0,5 A 5,5,180,0,0,10,5 M 0,-5 A 5,5,180,0,0,10,-5" transform="matrix(2,0,0,2,0,0)" fill="none" stroke="#ffffff"></path></pattern><mask><rect width="100%" height="100%" fill="url(#SvgjsPattern1142)"></rect></mask><pattern x="0" y="0" width="20" height="20" patternUnits="userSpaceOnUse" id="SvgjsPattern1142"><polygon points="0,0 2.5,0 0,2.5" transform="matrix(2,0,0,2,0,0)" fill="#ffffff"></polygon><polygon points="10,10 7.5,10 10,7.5" transform="matrix(2,0,0,2,0,0)" fill="#ffffff"></polygon><polygon points="10,0 10,5 5,10 5,7.5 7.5,5 5,5 5,2.5 2.5,5 0,5 5,0" transform="matrix(2,0,0,2,0,0)" fill="#ffffff"></polygon></pattern></defs><g stroke="black" stroke-width="2" stroke-linecap="round" stroke-linejoin="round"><line x1="50.41666793823242" y1="31.5" x2="50.41666793823242" y2="38.5"></line><line x1="90.83333587646484" y1="31.5" x2="90.83333587646484" y2="38.5"></line><line x1="131.25" y1="31.5" x2="131.25" y2="38.5"></line><line x1="171.6666717529297" y1="31.5" x2="171.6666717529297" y2="38.5"></line><line x1="212.0833282470703" y1="31.5" x2="212.0833282470703" y2="38.5"></line><line x1="292.9166564941406" y1="31.5" x2="292.9166564941406" y2="38.5"></line><line x1="333.3333435058594" y1="31.5" x2="333.3333435058594" y2="38.5"></line><line x1="373.75" y1="31.5" x2="373.75" y2="38.5"></line><line x1="414.1666564941406" y1="31.5" x2="414.1666564941406" y2="38.5"></line><line x1="454.5833435058594" y1="31.5" x2="454.5833435058594" y2="38.5"></line></g><g stroke="black" stroke-width="3" stroke-linecap="round" stroke-linejoin="round" text-anchor="middle"><line x1="10" y1="30" x2="10" y2="40"></line><line x1="10" y1="30" x2="10" y2="40"></line><line x1="252.5" y1="30" x2="252.5" y2="40"></line><line x1="495" y1="30" x2="495" y2="40"></line><line x1="5" y1="35" x2="500" y2="35"></line><polygon points="500,35 501.25,35 501.25,37.5 505,35 501.25,32.5 501.25,35"></polygon></g><g><g><g fill="#ff0000" stroke="none" font-size="16" font-family="Bahnschrift" text-anchor="middle" stroke-linecap="round" stroke-linejoin="round"><text x="333.332525" y="25" fill="white" stroke="white" stroke-width="5" font-weight="bold"><tspan dy="0" x="333.332525">A</tspan></text><text x="333.332525" y="25"><tspan dy="0" x="333.332525">A</tspan></text></g><g fill="none" stroke="#ff0000" stroke-width="4" stroke-dasharray="" stroke-linecap="round" stroke-linejoin="round"><line x1="333.332525" y1="30" x2="333.332525" y2="40"></line><line x1="328.332525" y1="35" x2="338.332525" y2="35"></line></g></g></g><g fill="black" font-size="12" font-family="Bahnschrift" text-anchor="middle" stroke-linecap="round" stroke-linejoin="round"><text fill="white" stroke="white" stroke-width="5" font-weight="bold" x="10" y="52"><tspan dy="0" x="10">0</tspan></text><text x="10" y="52"><tspan dy="0" x="10">0</tspan></text><text fill="white" stroke="white" stroke-width="5" font-weight="bold" x="10" y="52"><tspan dy="0" x="10">0</tspan></text><text x="10" y="52"><tspan dy="0" x="10">0</tspan></text><text fill="white" stroke="white" stroke-width="5" font-weight="bold" x="252.5" y="52"><tspan dy="0" x="252.5">1</tspan></text><text x="252.5" y="52"><tspan dy="0" x="252.5">1</tspan></text><text fill="white" stroke="white" stroke-width="5" font-weight="bold" x="495" y="52"><tspan dy="0" x="495">2</tspan></text><text x="495" y="52"><tspan dy="0" x="495">2</tspan></text></g></svg>