<?xml version="1.0" encoding="utf-8"?>
<!-- Generator: Adobe Illustrator 28.0.0, SVG Export Plug-In . SVG Version: 6.00 Build 0)  -->
<svg version="1.0" id="Calque_1" xmlns="http://www.w3.org/2000/svg" xmlns:xlink="http://www.w3.org/1999/xlink" x="0px" y="0px"
	 viewBox="0 0 217.3 192" enable-background="new 0 0 217.3 192" xml:space="preserve">
<path fill="#E5064A" fill-opacity="0.5" stroke="#E5064A" stroke-miterlimit="10" d="M134.6,172.3c0-34,21.5-62.9,51.6-74l27.2,74
	H134.6z"/>
<line fill="none" stroke="#020203" stroke-linecap="round" stroke-linejoin="round" stroke-miterlimit="3.2" x1="213.4" y1="172.3" x2="150.2" y2="0.5"/>
<line fill="none" stroke="#706F6F" stroke-linecap="round" stroke-miterlimit="10" x1="161.6" y1="31" x2="159.4" y2="25.7"/>
<g>
	<g>
		<line fill="none" stroke="#010202" stroke-miterlimit="10" x1="213.4" y1="172.3" x2="0" y2="172.3"/>
		<g>
			<rect x="212.9" y="169" fill="#010202" width="1" height="6.5"/>
		</g>
	</g>
</g>
<g>
	<g>
		<path d="M210.6,180.2h1.2v8.5h-1.2V180.2z M211.3,187.6h2.3c0.6,0,1-0.1,1.3-0.3s0.4-0.6,0.4-1v0c0-0.3,0-0.5-0.1-0.7
			s-0.3-0.4-0.5-0.5s-0.5-0.2-0.8-0.2h-2.6v-1.1h2.6c0.4,0,0.8-0.1,1-0.3s0.3-0.5,0.3-0.9c0-0.4-0.1-0.7-0.4-1s-0.6-0.3-1.1-0.3
			h-2.4v-1.1h2.7c0.6,0,1,0.1,1.4,0.3s0.6,0.5,0.8,0.8s0.3,0.8,0.3,1.2c0,0.3-0.1,0.6-0.2,0.8s-0.3,0.5-0.5,0.7s-0.5,0.3-0.9,0.4
			c0.3,0.1,0.6,0.2,0.9,0.4s0.4,0.4,0.6,0.7s0.2,0.6,0.2,0.9v0c0,0.5-0.1,0.9-0.3,1.2s-0.5,0.6-0.9,0.8s-0.8,0.3-1.3,0.3h-2.8V187.6
			z"/>
	</g>
</g>
<g>
	<g>
		<path d="M166.3,138.1l-2.2,7.5h-1.3l2.2-7.4h-2.2v1.2h-1.2V137h4.6V138.1z"/>
		<path d="M168.6,145c-0.4-0.4-0.6-1-0.6-1.8v-3.9c0-0.8,0.2-1.4,0.6-1.8s1-0.6,1.8-0.6c0.8,0,1.4,0.2,1.8,0.6s0.6,1,0.6,1.8v3.9
			c0,0.8-0.2,1.4-0.6,1.8s-1,0.6-1.8,0.6C169.6,145.6,169,145.4,168.6,145z M171.3,144.2c0.2-0.2,0.3-0.5,0.3-1v-3.9
			c0-0.4-0.1-0.7-0.3-1s-0.5-0.3-0.9-0.3s-0.7,0.1-0.9,0.3s-0.3,0.5-0.3,1v3.9c0,0.4,0.1,0.7,0.3,1s0.5,0.3,0.9,0.3
			S171.1,144.4,171.3,144.2z"/>
		<path d="M174.6,140c-0.3-0.3-0.4-0.7-0.4-1.3c0-0.6,0.1-1,0.4-1.3s0.7-0.5,1.3-0.5c0.6,0,1,0.2,1.3,0.5s0.4,0.7,0.4,1.3
			c0,0.6-0.2,1-0.5,1.3s-0.7,0.5-1.3,0.5C175.3,140.4,174.9,140.3,174.6,140z M176.4,139.3c0.1-0.1,0.2-0.3,0.2-0.6
			c0-0.3-0.1-0.5-0.2-0.6s-0.3-0.2-0.5-0.2s-0.4,0.1-0.5,0.2s-0.2,0.3-0.2,0.6s0.1,0.5,0.2,0.6s0.3,0.2,0.5,0.2
			C176.1,139.5,176.3,139.4,176.4,139.3z"/>
	</g>
</g>
</svg>
