<?xml version="1.0" encoding="utf-8"?>
<!-- Generator: Adobe Illustrator 28.0.0, SVG Export Plug-In . SVG Version: 6.00 Build 0)  -->
<svg version="1.1" id="Calque_1" xmlns="http://www.w3.org/2000/svg" xmlns:xlink="http://www.w3.org/1999/xlink" x="0px" y="0px"
	 viewBox="0 0 92.1 29.1" style="enable-background:new 0 0 92.1 29.1;" xml:space="preserve">
<style type="text/css">
	.st0{fill:none;stroke:#9D9D9C;stroke-width:1.5;stroke-miterlimit:10;}
	.st1{fill:none;stroke:#9D9D9C;stroke-linecap:round;stroke-miterlimit:10;}
	.st2{fill:#878787;}
	.st3{fill:#009FE3;fill-opacity:0.23;}
	.st4{fill:none;stroke:#009FE3;stroke-miterlimit:10;}
	.st5{fill:none;stroke:#000000;stroke-miterlimit:10;}
</style>
<g>
	<g>
		<line class="st0" x1="4.6" y1="15.3" x2="4.6" y2="20.3"/>
		<line class="st1" x1="6.5" y1="15.3" x2="6.5" y2="18.3"/>
		<line class="st1" x1="8.3" y1="15.3" x2="8.3" y2="18.3"/>
		<line class="st1" x1="10.2" y1="15.3" x2="10.2" y2="18.3"/>
		<line class="st1" x1="12.1" y1="15.3" x2="12.1" y2="18.3"/>
		<line class="st1" x1="13.9" y1="15.3" x2="13.9" y2="20.3"/>
		<line class="st1" x1="15.8" y1="15.3" x2="15.8" y2="18.3"/>
		<line class="st1" x1="17.7" y1="15.3" x2="17.7" y2="18.3"/>
		<line class="st1" x1="19.5" y1="15.3" x2="19.5" y2="18.3"/>
		<line class="st1" x1="21.4" y1="15.3" x2="21.4" y2="18.3"/>
		<line class="st0" x1="23.3" y1="15.3" x2="23.3" y2="20.3"/>
		<line class="st1" x1="25.1" y1="15.3" x2="25.1" y2="18.3"/>
		<line class="st1" x1="27" y1="15.3" x2="27" y2="18.3"/>
		<line class="st1" x1="28.8" y1="15.3" x2="28.8" y2="18.3"/>
		<line class="st1" x1="30.7" y1="15.3" x2="30.7" y2="18.3"/>
		<line class="st1" x1="32.6" y1="15.3" x2="32.6" y2="20.3"/>
		<line class="st1" x1="34.4" y1="15.3" x2="34.4" y2="18.3"/>
		<line class="st1" x1="36.3" y1="15.3" x2="36.3" y2="18.3"/>
		<line class="st1" x1="38.2" y1="15.3" x2="38.2" y2="18.3"/>
		<line class="st1" x1="40" y1="15.3" x2="40" y2="18.3"/>
		<line class="st0" x1="41.9" y1="15.3" x2="41.9" y2="20.3"/>
		<line class="st1" x1="43.8" y1="15.3" x2="43.8" y2="18.3"/>
		<line class="st1" x1="45.6" y1="15.3" x2="45.6" y2="18.3"/>
		<line class="st1" x1="47.5" y1="15.3" x2="47.5" y2="18.3"/>
		<line class="st1" x1="49.3" y1="15.3" x2="49.3" y2="18.3"/>
		<line class="st1" x1="51.2" y1="15.3" x2="51.2" y2="20.3"/>
		<line class="st1" x1="53.1" y1="15.3" x2="53.1" y2="18.3"/>
		<line class="st1" x1="54.9" y1="15.3" x2="54.9" y2="18.3"/>
		<line class="st1" x1="56.8" y1="15.3" x2="56.8" y2="18.3"/>
		<line class="st1" x1="58.7" y1="15.3" x2="58.7" y2="18.3"/>
		<line class="st0" x1="60.5" y1="15.3" x2="60.5" y2="20.3"/>
		<line class="st1" x1="62.4" y1="15.3" x2="62.4" y2="18.3"/>
		<line class="st1" x1="64.3" y1="15.3" x2="64.3" y2="18.3"/>
		<line class="st1" x1="66.1" y1="15.3" x2="66.1" y2="18.3"/>
		<line class="st1" x1="68" y1="15.3" x2="68" y2="18.3"/>
		<line class="st1" x1="69.8" y1="15.3" x2="69.8" y2="20.3"/>
		<line class="st1" x1="71.7" y1="15.3" x2="71.7" y2="18.3"/>
		<line class="st1" x1="73.6" y1="15.3" x2="73.6" y2="18.3"/>
		<line class="st1" x1="75.4" y1="15.3" x2="75.4" y2="18.3"/>
		<line class="st1" x1="77.3" y1="15.3" x2="77.3" y2="18.3"/>
		<line class="st0" x1="79.2" y1="15.3" x2="79.2" y2="20.3"/>
		<line class="st1" x1="81" y1="15.3" x2="81" y2="18.3"/>
		<line class="st1" x1="82.9" y1="15.3" x2="82.9" y2="18.3"/>
		<line class="st1" x1="84.8" y1="15.3" x2="84.8" y2="18.3"/>
		<line class="st1" x1="86.6" y1="15.3" x2="86.6" y2="18.3"/>
		<g>
			<g>
				<path class="st2" d="M3.6,25.7c-0.2-0.2-0.4-0.6-0.4-1v-2.3c0-0.4,0.1-0.8,0.4-1S4.2,21,4.6,21c0.5,0,0.8,0.1,1.1,0.4
					S6,22,6,22.4v2.3c0,0.4-0.1,0.8-0.4,1s-0.6,0.4-1.1,0.4C4.2,26.1,3.8,25.9,3.6,25.7z M5.2,25.2c0.1-0.1,0.2-0.3,0.2-0.6v-2.3
					c0-0.2-0.1-0.4-0.2-0.6c-0.1-0.1-0.3-0.2-0.5-0.2c-0.2,0-0.4,0.1-0.5,0.2C4,22,3.9,22.2,3.9,22.4v2.3c0,0.2,0.1,0.4,0.2,0.6
					s0.3,0.2,0.5,0.2S5,25.3,5.2,25.2z"/>
			</g>
		</g>
		<g>
			<g>
				<path class="st2" d="M23.8,26.1h-0.7v-4.2l-0.7,0.4v-0.7l0.7-0.5h0.7V26.1z"/>
			</g>
		</g>
		<g>
			<g>
				<path class="st2" d="M40.5,25.2l1.7-2.3c0.1-0.1,0.2-0.3,0.2-0.4s0.1-0.3,0.1-0.4v0c0-0.2-0.1-0.4-0.2-0.5
					c-0.1-0.1-0.3-0.2-0.5-0.2c-0.2,0-0.4,0.1-0.5,0.2c-0.1,0.1-0.2,0.3-0.2,0.5v0h-0.7v0c0-0.3,0.1-0.5,0.3-0.7
					c0.1-0.2,0.3-0.4,0.5-0.5c0.2-0.1,0.4-0.2,0.7-0.2c0.3,0,0.5,0.1,0.8,0.2s0.4,0.2,0.5,0.4c0.1,0.2,0.2,0.4,0.2,0.7v0
					c0,0.2,0,0.4-0.1,0.6S43,23,42.9,23.2l-1.4,2h1.9v0.7h-2.8V25.2z"/>
			</g>
		</g>
		<g>
			<g>
				<path class="st2" d="M59.7,25.9c-0.2-0.1-0.4-0.2-0.5-0.4S59,25.1,59,24.8h0.7c0,0.1,0.1,0.3,0.1,0.3s0.2,0.2,0.3,0.2
					c0.1,0,0.2,0.1,0.4,0.1c0.2,0,0.4-0.1,0.5-0.2c0.1-0.1,0.2-0.3,0.2-0.5v-0.2c0-0.2-0.1-0.4-0.2-0.6s-0.3-0.2-0.5-0.2h-0.4v-0.7
					h0.4c0.2,0,0.3-0.1,0.5-0.2s0.2-0.3,0.2-0.5v-0.2c0-0.2-0.1-0.3-0.2-0.5c-0.1-0.1-0.3-0.2-0.5-0.2c-0.1,0-0.2,0-0.3,0.1
					c-0.1,0-0.2,0.1-0.2,0.2c-0.1,0.1-0.1,0.2-0.1,0.3h-0.7c0-0.3,0.1-0.5,0.3-0.7c0.1-0.2,0.3-0.3,0.5-0.4C60,21,60.2,21,60.5,21
					c0.4,0,0.8,0.1,1,0.3s0.4,0.5,0.4,1v0.1c0,0.2-0.1,0.5-0.2,0.6c-0.1,0.2-0.3,0.3-0.6,0.4c0.3,0.1,0.5,0.2,0.6,0.4
					s0.2,0.5,0.2,0.8v0.1c0,0.3-0.1,0.5-0.2,0.7s-0.3,0.4-0.5,0.5s-0.5,0.2-0.8,0.2C60.2,26.1,60,26,59.7,25.9z"/>
			</g>
		</g>
		<g>
			<g>
				<path class="st2" d="M77.6,24.7l1.7-3.6H80l-1.6,3.6h2.4v0.6h-3.2V24.7z M79.8,23.1h0.7V26h-0.7V23.1z"/>
			</g>
		</g>
	</g>
	<path class="st3" d="M0.5,29.1V17.3c0-1.1,0.9-2,2-2h89.6l-3.2,5l3.2,1.9l-5.6,2.6l5.6,0.1L89.3,27l2.2,2"/>
	<path class="st4" d="M0.5,29.1V17.3c0-1.1,0.9-2,2-2h89.6"/>
</g>
<g>
	<g>
		<line class="st5" x1="4.6" y1="10.7" x2="51.2" y2="10.7"/>
		<g>
			<rect x="4.1" y="7.5" width="1" height="6.5"/>
		</g>
		<g>
			<rect x="50.7" y="7.5" width="1" height="6.5"/>
		</g>
	</g>
</g>
<g>
	<g>
		<path d="M4.3,1h0.6l1.8,5H6L4.6,2L3.2,6H2.5L4.3,1z M3.3,4.2H6v0.7H3.3V4.2z"/>
	</g>
</g>
<g>
	<g>
		<path d="M49.6,1h0.7v5h-0.7V1z M50,5.3h1.3c0.4,0,0.6-0.1,0.8-0.2s0.2-0.3,0.2-0.6v0c0-0.2,0-0.3-0.1-0.4C52.2,4,52.1,3.9,52,3.8
			c-0.1-0.1-0.3-0.1-0.5-0.1H50V3.1h1.5c0.3,0,0.5-0.1,0.6-0.2c0.1-0.1,0.2-0.3,0.2-0.5c0-0.2-0.1-0.4-0.2-0.6s-0.4-0.2-0.7-0.2H50
			V1h1.5c0.3,0,0.6,0.1,0.8,0.2c0.2,0.1,0.4,0.3,0.5,0.5C52.9,1.8,53,2.1,53,2.4c0,0.2,0,0.3-0.1,0.5c-0.1,0.1-0.2,0.3-0.3,0.4
			c-0.1,0.1-0.3,0.2-0.5,0.2c0.2,0,0.4,0.1,0.5,0.2c0.1,0.1,0.3,0.3,0.3,0.4C53,4.2,53,4.4,53,4.6v0c0,0.3-0.1,0.5-0.2,0.7
			c-0.1,0.2-0.3,0.4-0.5,0.5C52.1,5.9,51.9,6,51.6,6H50V5.3z"/>
	</g>
</g>
</svg>
