<?xml version="1.0" encoding="UTF-8"?>
<svg id="Calque_1" data-name="Calque 1" xmlns="http://www.w3.org/2000/svg" viewBox="0 0 222.94 221.6">
  <defs>
    <style>
      .cls-1 {
        fill: #1d1d1b;
        font-family: Bahnschrift, Bahnschrift;
        font-size: 30px;
        font-variation-settings: 'wght' 400, 'wdth' 100;
      }

      .cls-2 {
        stroke: #312783;
        stroke-width: 2px;
      }

      .cls-2, .cls-3, .cls-4 {
        fill: none;
        stroke-linecap: round;
        stroke-miterlimit: 10;
      }

      .cls-3 {
        stroke: #1d1d1b;
      }

      .cls-3, .cls-4 {
        stroke-width: 3px;
      }

      .cls-4 {
        stroke: #3aaa35;
      }

      .cls-5 {
        fill: #36a9e1;
        stroke-width: 0px;
      }
    </style>
  </defs>
  <text class="cls-1" transform="translate(104.67 25.65)"><tspan x="0" y="0">D</tspan></text>
  <path class="cls-5" d="m160.08,189.46c0-14.55,7.91-27.26,19.66-34.06l19.66,34.06h-39.32Z"/>
  <line class="cls-2" x1="172.12" y1="170.36" x2="162.01" y2="163.83"/>
  <path class="cls-5" d="m129.58,68.51c-12.6,7.28-27.56,6.78-39.33,0l19.67-34.06,19.66,34.05Z"/>
  <line class="cls-2" x1="107.03" y1="67.63" x2="106.42" y2="79.65"/>
  <line class="cls-2" x1="112.45" y1="79.95" x2="113.05" y2="67.94"/>
  <line class="cls-2" x1="158.74" y1="168.9" x2="168.84" y2="175.43"/>
  <path class="cls-5" d="m59.75,189.46c0-14.55-7.91-27.26-19.66-34.06l-19.66,34.06h39.32Z"/>
  <text class="cls-1" transform="translate(0 213.48)"><tspan x="0" y="0">E</tspan></text>
  <polygon class="cls-3" points="20.43 189.46 109.92 34.46 199.41 189.46 20.43 189.46"/>
  <text class="cls-1" transform="translate(206.17 213.48)"><tspan x="0" y="0">F</tspan></text>
  <line class="cls-4" x1="58.69" y1="93.9" x2="74.69" y2="119.62"/>
  <line class="cls-4" x1="163.53" y1="100.11" x2="147.53" y2="125.83"/>
  <line class="cls-4" x1="117.92" y1="176.6" x2="101.92" y2="202.32"/>
  <line class="cls-2" x1="47.72" y1="170.36" x2="57.82" y2="163.83"/>
  <line class="cls-2" x1="61.09" y1="168.9" x2="50.99" y2="175.43"/>
</svg>