<?xml version="1.0" encoding="utf-8"?>
<!-- Generator: Adobe Illustrator 28.0.0, SVG Export Plug-In . SVG Version: 6.00 Build 0)  -->
<svg version="1.1" id="Calque_1" xmlns="http://www.w3.org/2000/svg"
	 viewBox="0 0 310 354.4" width="310" height="354.4">
<style type="text/css">
	.st0{fill:#74BD83;fill-opacity:0.5;}
	.st1{fill:#74BD83;fill-opacity:0.7;}
	.st2{fill:none;stroke:#578E62;stroke-width:2;stroke-linecap:round;stroke-linejoin:round;stroke-dasharray:14,8;}
	.st3{fill:none;stroke:#578E62;stroke-width:2;stroke-linecap:round;stroke-linejoin:round;}
</style>
<polygon class="st0" points="5,282.2 80,224 230,224 305,282.2 305,72.2 230,14 80,14 5,72.2 "/>
<polygon class="st1" points="5,282.2 80,224 230,224 305,282.2 230,340.4 80,340.4 "/>
<path class="st2" d="M230,14v210"/>
<path class="st2" d="M230,224l75,58.2"/>
<path class="st2" d="M80,14v210"/>
<path class="st2" d="M80,224h150"/>
<path class="st2" d="M5,282.2L80,224"/>
<path class="st3" d="M305,72.2l-75,58.2"/>
<path class="st3" d="M305,282.2l-75,58.2"/>
<path class="st3" d="M305,72.2v210"/>
<path class="st3" d="M230,130.4H80"/>
<path class="st3" d="M230,340.4H80"/>
<path class="st3" d="M230,130.4v210"/>
<path class="st3" d="M80,130.4L5,72.2"/>
<path class="st3" d="M80,340.4L5,282.2"/>
<path class="st3" d="M80,130.4v210"/>
<path class="st3" d="M5,72.2L80,14"/>
<path class="st3" d="M5,72.2v210"/>
<path class="st3" d="M80,14h150"/>
<path class="st3" d="M230,14l75,58.2"/>
</svg>
