<?xml version="1.0" encoding="utf-8"?>
<!-- Generator: Adobe Illustrator 28.0.0, SVG Export Plug-In . SVG Version: 6.00 Build 0)  -->
<svg version="1.1" id="Calque_1" xmlns="http://www.w3.org/2000/svg" xmlns:xlink="http://www.w3.org/1999/xlink" x="0px" y="0px"
	 viewBox="0 0 227.7 125.8" style="enable-background:new 0 0 227.7 125.8;" xml:space="preserve">
<style type="text/css">
	.st0{fill:none;stroke:#1D1E1B;stroke-width:3;stroke-linecap:round;stroke-miterlimit:10;}
</style>
<g>
	<line class="st0" x1="19.4" y1="3" x2="186.9" y2="124.3"/>
	<line class="st0" x1="1.5" y1="70.4" x2="226.2" y2="1.5"/>
	<line class="st0" x1="19.6" y1="57.9" x2="24.5" y2="70.7"/>
	<line class="st0" x1="165.4" y1="13.5" x2="170.5" y2="25.8"/>
	<line class="st0" x1="106.7" y1="56.4" x2="96" y2="67.9"/>
	<line class="st0" x1="173.6" y1="106.7" x2="165.2" y2="117.9"/>
	<g>
		<g>
			<path d="M27.2,73.9h2.1l6.5,17.7h-2.7l-4.9-14.3l-4.9,14.3h-2.7L27.2,73.9z M23.7,85.4h9.3v2.4h-9.3V85.4z"/>
		</g>
	</g>
	<g>
		<g>
			<path d="M171.5,30h2.5v17.7h-2.5V30z M173,45.4h4.8c1.3,0,2.2-0.2,2.8-0.7s0.9-1.2,0.9-2v0c0-0.6-0.1-1.1-0.3-1.5
				c-0.2-0.4-0.5-0.8-1-1c-0.4-0.2-1-0.3-1.7-0.3H173v-2.2h5.4c0.9,0,1.6-0.2,2.1-0.6c0.5-0.4,0.7-1.1,0.7-1.9c0-0.9-0.3-1.6-0.8-2
				s-1.3-0.7-2.3-0.7H173V30h5.5c1.1,0,2.1,0.2,2.9,0.6c0.8,0.4,1.4,0.9,1.7,1.7c0.4,0.7,0.6,1.6,0.6,2.6c0,0.6-0.1,1.2-0.4,1.7
				c-0.2,0.5-0.6,1-1.1,1.4c-0.5,0.4-1.1,0.6-1.8,0.8c0.7,0.1,1.3,0.4,1.9,0.8c0.5,0.4,0.9,0.9,1.2,1.5c0.3,0.6,0.4,1.3,0.4,2v0
				c0,1-0.2,1.8-0.6,2.5c-0.4,0.7-1,1.3-1.8,1.7c-0.8,0.4-1.7,0.6-2.8,0.6H173V45.4z"/>
		</g>
	</g>
	<g>
		<g>
			<path d="M98.1,71.6h2.3v17.7H98V76.1l0.1,0.8l-4.4,10H92l-4.4-9.8l0.1-1v13.3h-2.4V71.6h2.3l5.2,11.7L98.1,71.6z"/>
		</g>
	</g>
	<g>
		<g>
			<path d="M166.2,85.4h2.3l8.7,13.7l-0.3,0.3v-14h2.5v17.7H177l-8.7-13.5l0.3-0.3v13.8h-2.5V85.4z"/>
		</g>
	</g>
	<g>
		<g>
			<path d="M75.9,19.3h2.5V37h-2.5V19.3z M77.6,34.7h4c1.3,0,2.3-0.3,3-1c0.7-0.7,1.1-1.6,1.1-2.9v-5.2c0-1.2-0.4-2.2-1.1-2.9
				c-0.7-0.7-1.7-1-3-1h-4v-2.4h3.9c1.4,0,2.6,0.2,3.7,0.7c1,0.5,1.8,1.2,2.3,2.2c0.5,1,0.8,2.1,0.8,3.4v5c0,1.3-0.3,2.5-0.8,3.4
				c-0.5,1-1.3,1.7-2.3,2.2c-1,0.5-2.2,0.7-3.7,0.7h-3.9V34.7z"/>
		</g>
	</g>
</g>
</svg>
