<?xml version="1.0" encoding="utf-8"?>
<!-- Generator: Adobe Illustrator 28.0.0, SVG Export Plug-In . SVG Version: 6.00 Build 0)  -->
<svg version="1.1" id="Calque_1" xmlns="http://www.w3.org/2000/svg" xmlns:xlink="http://www.w3.org/1999/xlink" x="0px" y="0px"
	 viewBox="0 0 215.9 88.9" style="enable-background:new 0 0 215.9 88.9;" xml:space="preserve">
<style type="text/css">
	.st0{fill:none;stroke:#000000;stroke-width:3;stroke-linecap:round;stroke-miterlimit:10;}
	.st1{fill:none;stroke:#E30613;stroke-linecap:round;stroke-miterlimit:10;}
	.st2{fill:#E30613;}
</style>
<g>
	<g>
		<line class="st0" x1="7" y1="33.6" x2="208.9" y2="67.7"/>
		<g>
			<rect x="-2.7" y="32.1" transform="matrix(0.1663 -0.9861 0.9861 0.1663 -27.2765 34.965)" width="19.5" height="3"/>
		</g>
		<g>
			<rect x="199.2" y="66.2" transform="matrix(0.1663 -0.9861 0.9861 0.1663 107.4577 262.4082)" width="19.5" height="3"/>
		</g>
	</g>
</g>
<g>
	<g>
		<path d="M2.2,3.6h2.5v17.7H2.2V3.6z M3.7,19.1h4.8c1.3,0,2.2-0.2,2.8-0.7c0.6-0.5,0.9-1.2,0.9-2v0c0-0.6-0.1-1.1-0.3-1.6
			c-0.2-0.4-0.5-0.8-1-1c-0.4-0.2-1-0.3-1.7-0.3H3.7v-2.2h5.4c0.9,0,1.6-0.2,2.1-0.6c0.5-0.4,0.7-1.1,0.7-1.9c0-0.9-0.3-1.6-0.8-2
			c-0.5-0.4-1.3-0.7-2.3-0.7H3.7V3.6h5.5c1.1,0,2.1,0.2,2.9,0.6c0.8,0.4,1.4,0.9,1.7,1.7c0.4,0.7,0.6,1.6,0.6,2.6
			c0,0.6-0.1,1.2-0.4,1.7c-0.2,0.5-0.6,1-1.1,1.4c-0.5,0.4-1.1,0.6-1.8,0.8c0.7,0.1,1.3,0.4,1.9,0.8c0.5,0.4,0.9,0.9,1.2,1.5
			c0.3,0.6,0.4,1.3,0.4,2v0c0,1-0.2,1.8-0.6,2.5c-0.4,0.7-1,1.3-1.8,1.7c-0.8,0.4-1.7,0.6-2.8,0.6H3.7V19.1z"/>
	</g>
</g>
<g>
	<g>
		<path d="M205.2,53.2c-0.9-0.5-1.7-1.3-2.2-2.3s-0.8-2.2-0.8-3.5v-4.9c0-1.3,0.3-2.5,0.8-3.5s1.2-1.8,2.2-2.3
			c0.9-0.5,2-0.8,3.2-0.8c1,0,2,0.2,2.8,0.7c0.9,0.4,1.6,1.1,2.1,1.8c0.6,0.8,1,1.7,1.2,2.8H212c-0.2-0.6-0.4-1-0.8-1.5
			c-0.4-0.4-0.8-0.8-1.3-1c-0.5-0.2-1-0.4-1.5-0.4c-0.7,0-1.4,0.2-1.9,0.5c-0.5,0.4-1,0.8-1.3,1.5c-0.3,0.6-0.5,1.4-0.5,2.2v4.9
			c0,0.8,0.2,1.6,0.5,2.2s0.7,1.1,1.3,1.5c0.5,0.3,1.2,0.5,1.9,0.5c0.5,0,1-0.1,1.5-0.3c0.5-0.2,0.9-0.5,1.3-1
			c0.4-0.4,0.6-0.9,0.8-1.5h2.6c-0.2,1-0.6,2-1.2,2.8c-0.6,0.8-1.3,1.4-2.1,1.8c-0.9,0.4-1.8,0.7-2.8,0.7
			C207.2,54,206.1,53.8,205.2,53.2z"/>
	</g>
</g>
<g>
	<g>
		<line class="st1" x1="29.5" y1="55.4" x2="14.4" y2="41.1"/>
		<g>
			<polygon class="st2" points="12.1,39.1 16.5,40.7 14.5,41.3 14.1,43.3 			"/>
		</g>
	</g>
</g>
<g>
	<g>
		<line class="st1" x1="180" y1="82" x2="201.3" y2="72.9"/>
		<g>
			<polygon class="st2" points="204.1,71.7 200.9,75 201.1,73 199.5,71.8 			"/>
		</g>
	</g>
</g>
<g>
	<g>
		<path class="st2" d="M34.4,51.4l1.4,0.2l-1.7,9.8l-1.4-0.2L34.4,51.4z M33.6,60l5.6,0.9L39,62.2l-5.6-0.9L33.6,60z M34.3,55.7
			l4.9,0.8L39,57.9l-4.9-0.8L34.3,55.7z M35,51.5l5.6,0.9l-0.2,1.3l-5.6-0.9L35,51.5z"/>
		<path class="st2" d="M43.4,59l0.4,1.4l-2.2,2.3l-1.5-0.3L43.4,59z M43.4,59.7l-1.9-4.2l1.5,0.3l1.5,3.5l2,4.3l-1.5-0.3L43.4,59.7z
			 M44,58.4l1.9-2.2l1.5,0.3l-3.1,3.4L44,58.4z"/>
		<path class="st2" d="M48.6,56.6l3.2,0.5l-0.2,1.2l-3.2-0.5L48.6,56.6z M48.6,63.4c-0.2-0.4-0.3-0.8-0.2-1.5l1.2-7.2L51,55
			l-1.2,7.2c0,0.2,0,0.3,0,0.4c0.1,0.1,0.1,0.2,0.3,0.2l0.7,0.1l-0.2,1.3l-0.8-0.1C49.2,64,48.8,63.7,48.6,63.4z"/>
		<path class="st2" d="M53.6,57.5l1.4,0.2l-1.2,7l-1.4-0.2L53.6,57.5z M56.8,59.4c-0.2-0.1-0.4-0.2-0.6-0.2c-0.4-0.1-0.8,0-1.1,0.2
			c-0.3,0.2-0.5,0.5-0.5,0.9l0.1-1.4c0.3-0.4,0.6-0.7,1-0.8c0.4-0.2,0.8-0.2,1.2-0.2c0.3,0.1,0.6,0.1,0.8,0.3
			c0.2,0.1,0.4,0.3,0.6,0.5l-1.1,1.1C57.1,59.6,57,59.5,56.8,59.4z"/>
		<path class="st2" d="M59.6,65.4c-0.4-0.3-0.7-0.7-0.9-1.2c-0.2-0.5-0.2-1.1-0.1-1.8l0.1-0.8c0.1-0.7,0.3-1.3,0.6-1.7
			c0.3-0.5,0.7-0.8,1.2-0.9c0.5-0.2,1-0.2,1.7-0.1c0.6,0.1,1.1,0.3,1.4,0.7c0.4,0.4,0.6,0.8,0.7,1.4c0.1,0.6,0.1,1.3,0,2l-0.1,0.5
			l-4.7-0.8l0.2-1.1l3.4,0.6c0.1-0.6,0-1-0.2-1.4c-0.2-0.4-0.5-0.6-0.9-0.6c-0.5-0.1-1,0-1.3,0.3c-0.3,0.3-0.6,0.8-0.7,1.4L60,62.7
			c-0.1,0.6,0,1.1,0.2,1.4c0.3,0.4,0.7,0.6,1.2,0.7c0.3,0,0.6,0,0.9,0c0.3-0.1,0.6-0.2,0.8-0.3l0.8,1.1c-0.4,0.3-0.8,0.5-1.3,0.6
			c-0.5,0.1-0.9,0.1-1.3,0.1C60.5,66,60,65.7,59.6,65.4z M61.8,56.8l2.3-2.1l0.9,1l-2.4,1.9L61.8,56.8z"/>
		<path class="st2" d="M66.9,59.7l1.4,0.2l-1.2,7l-1.4-0.2L66.9,59.7z M70.6,63.2c0.1-0.5,0-0.9-0.2-1.2s-0.5-0.5-1-0.6
			c-0.4-0.1-0.8,0-1.1,0.2c-0.3,0.2-0.5,0.5-0.5,0.9l0.1-1.4c0.3-0.4,0.6-0.7,1-0.8c0.4-0.2,0.8-0.2,1.2-0.1
			c0.5,0.1,0.9,0.3,1.2,0.5c0.3,0.3,0.5,0.6,0.6,1.1c0.1,0.5,0.1,1,0,1.6l-0.7,4.2l-1.4-0.2L70.6,63.2z M74.8,63.9
			c0.1-0.5,0-0.9-0.2-1.2s-0.5-0.5-1-0.6c-0.4-0.1-0.8,0-1.1,0.2c-0.3,0.2-0.5,0.6-0.5,1l0-1.4c0.3-0.4,0.6-0.7,1.1-0.9
			c0.4-0.2,0.8-0.3,1.3-0.2c0.5,0.1,0.9,0.3,1.2,0.6c0.3,0.3,0.5,0.7,0.7,1.1c0.1,0.5,0.1,1,0,1.6l-0.7,4.2l-1.4-0.2L74.8,63.9z"/>
		<path class="st2" d="M78.8,61.7l1.4,0.2l-1.2,7l-1.4-0.2L78.8,61.7z M79.2,58.9l1.4,0.2l-0.2,1.4L79,60.3L79.2,58.9z"/>
		<path class="st2" d="M81.7,62.2l3.2,0.5L84.6,64l-3.2-0.5L81.7,62.2z M81.7,69c-0.2-0.4-0.3-0.8-0.2-1.5l1.2-7.2l1.4,0.2l-1.2,7.2
			c0,0.2,0,0.3,0,0.4c0.1,0.1,0.1,0.2,0.3,0.2l0.7,0.1l-0.2,1.3l-0.8-0.1C82.3,69.6,81.9,69.3,81.7,69z"/>
		<path class="st2" d="M86.8,70c-0.4-0.3-0.7-0.7-0.9-1.2c-0.2-0.5-0.2-1.1-0.1-1.8l0.1-0.8c0.1-0.7,0.3-1.3,0.6-1.7
			c0.3-0.5,0.7-0.8,1.2-0.9c0.5-0.2,1-0.2,1.7-0.1c0.6,0.1,1.1,0.3,1.4,0.7s0.6,0.8,0.7,1.4c0.1,0.6,0.1,1.3,0,2L91.6,68l-4.7-0.8
			l0.2-1.1l3.4,0.6c0.1-0.6,0-1-0.2-1.4c-0.2-0.4-0.5-0.6-0.9-0.6c-0.5-0.1-1,0-1.3,0.3s-0.6,0.8-0.7,1.4l-0.1,0.9
			c-0.1,0.6,0,1.1,0.2,1.4s0.7,0.6,1.2,0.7c0.3,0,0.6,0,0.9,0c0.3-0.1,0.6-0.2,0.8-0.3L91,70c-0.4,0.3-0.8,0.5-1.3,0.6
			c-0.5,0.1-0.9,0.1-1.3,0.1C87.7,70.5,87.2,70.3,86.8,70z M89,61.3l2.3-2.1l0.9,1l-2.4,1.9L89,61.3z"/>
		<path class="st2" d="M94.3,71.5c-0.3-0.1-0.7-0.3-1-0.5s-0.5-0.5-0.8-0.8l1-0.9c0.3,0.4,0.7,0.6,1,0.8s0.7,0.3,1.1,0.4
			c0.5,0.1,1,0.1,1.3,0c0.3-0.1,0.5-0.4,0.5-0.7c0-0.2,0-0.4-0.1-0.5c-0.1-0.1-0.3-0.2-0.5-0.3c-0.2-0.1-0.5-0.2-0.9-0.3
			c0,0-0.1,0-0.1,0s-0.1,0-0.1,0c0,0,0,0-0.1,0c0,0,0,0-0.1,0c-0.4-0.1-0.8-0.2-1.1-0.4c-0.3-0.1-0.5-0.4-0.7-0.7
			c-0.2-0.3-0.2-0.7-0.1-1.2s0.3-0.9,0.5-1.2c0.3-0.3,0.6-0.5,1-0.6c0.4-0.1,0.9-0.1,1.5,0c0.4,0.1,0.7,0.2,1,0.3
			c0.3,0.1,0.6,0.3,0.9,0.5c0.3,0.2,0.5,0.4,0.8,0.6l-1,0.9c-0.3-0.3-0.6-0.5-0.9-0.7c-0.3-0.2-0.6-0.3-1-0.3
			c-0.5-0.1-0.8-0.1-1.1,0.1c-0.3,0.1-0.4,0.3-0.5,0.7c0,0.2,0,0.3,0.1,0.5c0.1,0.1,0.3,0.2,0.5,0.3c0.2,0.1,0.5,0.1,0.8,0.2
			c0,0,0.1,0,0.1,0c0,0,0.1,0,0.1,0c0,0,0,0,0,0c0,0,0,0,0,0c0.5,0.1,0.9,0.2,1.2,0.4s0.6,0.4,0.8,0.7s0.2,0.8,0.1,1.3
			c-0.1,0.5-0.3,0.9-0.5,1.2c-0.3,0.3-0.6,0.5-1.1,0.6c-0.5,0.1-1,0.1-1.7,0C95,71.8,94.6,71.7,94.3,71.5z"/>
		<path class="st2" d="M104.8,73.1c-0.3-0.3-0.5-0.7-0.7-1.1c-0.1-0.5-0.1-1,0-1.6l0.3-1.5c0.1-0.6,0.3-1.1,0.5-1.5
			c0.3-0.4,0.6-0.7,1-0.8c0.4-0.2,0.8-0.2,1.3-0.1c0.4,0.1,0.8,0.2,1.1,0.5c0.3,0.3,0.5,0.6,0.7,1l-0.4,1.4c0-0.3,0-0.6,0-0.8
			c-0.1-0.2-0.2-0.4-0.4-0.6s-0.4-0.2-0.7-0.3c-0.5-0.1-0.8,0-1.1,0.2c-0.3,0.2-0.5,0.6-0.6,1.1l-0.3,1.5c-0.1,0.5,0,0.9,0.2,1.2
			c0.2,0.3,0.5,0.5,1,0.6c0.3,0,0.5,0,0.8,0c0.2-0.1,0.4-0.2,0.6-0.4c0.1-0.2,0.2-0.4,0.3-0.7l-0.2,1.5c-0.2,0.3-0.5,0.6-0.8,0.8
			c-0.4,0.2-0.8,0.2-1.2,0.2C105.5,73.6,105.1,73.4,104.8,73.1z M109.4,64l1.4,0.2l-1.7,9.8l-1.4-0.2L109.4,64z"/>
		<path class="st2" d="M113.1,71.9c-0.1,0.5,0,0.9,0.2,1.2c0.2,0.3,0.5,0.5,1,0.6c0.4,0.1,0.8,0,1.1-0.2c0.3-0.2,0.5-0.5,0.5-1
			l-0.2,1.5c-0.2,0.3-0.5,0.6-0.8,0.8c-0.4,0.2-0.8,0.2-1.3,0.1c-0.8-0.1-1.3-0.5-1.7-1c-0.3-0.6-0.4-1.3-0.3-2.2l0.7-4.3l1.4,0.2
			L113.1,71.9z M116.6,68.1l1.4,0.2l-1.2,7l-1.4-0.2L116.6,68.1z"/>
		<path class="st2" d="M123.9,76.5c-0.3-0.1-0.7-0.3-1-0.5s-0.5-0.5-0.8-0.8l1-0.9c0.3,0.4,0.7,0.6,1,0.8c0.3,0.2,0.7,0.3,1.1,0.4
			c0.5,0.1,1,0.1,1.3,0c0.3-0.1,0.5-0.4,0.5-0.7c0-0.2,0-0.4-0.1-0.5s-0.3-0.2-0.5-0.3c-0.2-0.1-0.5-0.2-0.9-0.3c0,0-0.1,0-0.1,0
			c0,0-0.1,0-0.1,0c0,0,0,0-0.1,0c0,0,0,0-0.1,0c-0.4-0.1-0.8-0.2-1.1-0.4c-0.3-0.1-0.5-0.4-0.7-0.7s-0.2-0.7-0.1-1.2
			c0.1-0.5,0.3-0.9,0.5-1.2c0.3-0.3,0.6-0.5,1-0.6c0.4-0.1,0.9-0.1,1.5,0c0.4,0.1,0.7,0.2,1,0.3c0.3,0.1,0.6,0.3,0.9,0.5
			c0.3,0.2,0.5,0.4,0.8,0.6l-1,0.9c-0.3-0.3-0.6-0.5-1-0.7c-0.3-0.2-0.6-0.3-1-0.3c-0.5-0.1-0.8-0.1-1.1,0.1s-0.4,0.3-0.5,0.7
			c0,0.2,0,0.3,0.1,0.5c0.1,0.1,0.3,0.2,0.5,0.3c0.2,0.1,0.5,0.1,0.8,0.2c0,0,0.1,0,0.1,0s0.1,0,0.1,0c0,0,0,0,0,0c0,0,0,0,0,0
			c0.5,0.1,0.9,0.2,1.2,0.4c0.3,0.2,0.6,0.4,0.8,0.7c0.2,0.3,0.2,0.8,0.1,1.3c-0.1,0.5-0.3,0.9-0.5,1.2c-0.3,0.3-0.6,0.5-1.1,0.6
			c-0.5,0.1-1,0.1-1.7,0C124.7,76.8,124.3,76.7,123.9,76.5z"/>
		<path class="st2" d="M131,77.5c-0.4-0.3-0.7-0.7-0.9-1.2c-0.2-0.5-0.2-1.1-0.1-1.8l0.1-0.8c0.1-0.7,0.3-1.3,0.6-1.7
			c0.3-0.5,0.7-0.8,1.2-0.9c0.5-0.2,1-0.2,1.7-0.1c0.6,0.1,1.1,0.3,1.4,0.7c0.4,0.4,0.6,0.8,0.7,1.4c0.1,0.6,0.1,1.3,0,2l-0.1,0.5
			l-4.7-0.8l0.2-1.1l3.4,0.6c0.1-0.6,0-1-0.2-1.4c-0.2-0.4-0.5-0.6-0.9-0.6c-0.5-0.1-1,0-1.3,0.3c-0.3,0.3-0.6,0.8-0.7,1.4l-0.2,0.9
			c-0.1,0.6,0,1.1,0.2,1.4c0.3,0.4,0.7,0.6,1.2,0.7c0.3,0,0.6,0,0.9,0c0.3-0.1,0.6-0.2,0.8-0.3l0.8,1.1c-0.4,0.3-0.8,0.5-1.3,0.6
			c-0.5,0.1-0.9,0.1-1.3,0.1C132,78,131.5,77.8,131,77.5z"/>
		<path class="st2" d="M137.7,81.5c-0.4-0.3-0.7-0.6-0.8-1l1.1-0.7c0.1,0.3,0.3,0.5,0.5,0.7c0.2,0.2,0.5,0.3,0.8,0.3
			c0.5,0.1,1,0,1.3-0.2c0.3-0.2,0.5-0.6,0.6-1.2l1.2-7l1.4,0.2l-1.1,6.8c-0.1,0.6-0.3,1.2-0.6,1.6c-0.3,0.4-0.7,0.7-1.2,0.9
			s-1.1,0.2-1.7,0.1C138.5,81.9,138.1,81.8,137.7,81.5z M138.1,78.7c-0.3-0.3-0.5-0.7-0.7-1.1c-0.1-0.5-0.1-1,0-1.6l0.3-1.5
			c0.1-0.6,0.3-1.1,0.5-1.5c0.3-0.4,0.6-0.7,1-0.8s0.8-0.2,1.3-0.1c0.4,0.1,0.8,0.2,1.1,0.5c0.3,0.3,0.5,0.6,0.7,1.1l-0.4,1.4
			c0-0.3,0-0.6,0-0.8s-0.2-0.4-0.4-0.6c-0.2-0.1-0.4-0.2-0.7-0.3c-0.5-0.1-0.8,0-1.1,0.2c-0.3,0.2-0.5,0.6-0.6,1.1l-0.3,1.5
			c-0.1,0.5,0,0.9,0.2,1.2c0.2,0.3,0.5,0.5,1,0.6c0.3,0,0.5,0,0.8,0c0.2-0.1,0.4-0.2,0.6-0.4c0.1-0.2,0.2-0.4,0.3-0.7l-0.2,1.5
			c-0.2,0.3-0.5,0.6-0.8,0.8c-0.4,0.2-0.8,0.2-1.2,0.2C138.9,79.2,138.5,79,138.1,78.7z"/>
		<path class="st2" d="M145.8,73l1.4,0.2l-1.2,7l-1.4-0.2L145.8,73z M149.5,76.5c0.1-0.5,0-0.9-0.2-1.2s-0.5-0.5-1-0.6
			c-0.4-0.1-0.8,0-1.1,0.2c-0.3,0.2-0.5,0.5-0.5,0.9l0.1-1.4c0.3-0.4,0.6-0.7,1-0.8c0.4-0.2,0.8-0.2,1.2-0.1
			c0.5,0.1,0.9,0.3,1.2,0.5c0.3,0.3,0.5,0.7,0.6,1.1c0.1,0.5,0.1,1,0,1.6l-0.7,4.2l-1.4-0.2L149.5,76.5z M153.7,77.2
			c0.1-0.5,0-0.9-0.2-1.2c-0.2-0.3-0.5-0.5-1-0.6c-0.4-0.1-0.8,0-1.1,0.2c-0.3,0.2-0.5,0.6-0.5,1l0-1.4c0.3-0.4,0.6-0.7,1.1-0.9
			c0.4-0.2,0.8-0.3,1.3-0.2c0.5,0.1,0.9,0.3,1.2,0.6c0.3,0.3,0.5,0.7,0.7,1.1c0.1,0.5,0.1,1,0,1.6l-0.7,4.2l-1.4-0.2L153.7,77.2z"/>
		<path class="st2" d="M157.7,82c-0.4-0.3-0.7-0.7-0.9-1.2c-0.2-0.5-0.2-1.1-0.1-1.8l0.1-0.8c0.1-0.7,0.3-1.3,0.6-1.7
			c0.3-0.5,0.7-0.8,1.2-0.9c0.5-0.2,1-0.2,1.7-0.1c0.6,0.1,1.1,0.3,1.4,0.7c0.4,0.4,0.6,0.8,0.7,1.4s0.1,1.3,0,2l-0.1,0.5l-4.7-0.8
			l0.2-1.1l3.4,0.6c0.1-0.6,0-1-0.2-1.4c-0.2-0.4-0.5-0.6-0.9-0.6c-0.5-0.1-1,0-1.3,0.3c-0.3,0.3-0.6,0.8-0.7,1.4l-0.2,0.9
			c-0.1,0.6,0,1.1,0.2,1.4c0.3,0.4,0.7,0.6,1.2,0.7c0.3,0,0.6,0,0.9,0c0.3-0.1,0.6-0.2,0.8-0.3L162,82c-0.4,0.3-0.8,0.5-1.3,0.6
			c-0.5,0.1-0.9,0.1-1.3,0.1C158.7,82.5,158.1,82.3,157.7,82z"/>
		<path class="st2" d="M165,76.3l1.4,0.2l-1.2,7l-1.4-0.2L165,76.3z M168.8,79.7c0.1-0.5,0-0.9-0.2-1.2c-0.2-0.3-0.5-0.5-1-0.6
			c-0.4-0.1-0.8,0-1.1,0.2c-0.3,0.2-0.5,0.5-0.5,0.9l0.1-1.4c0.3-0.4,0.6-0.7,1-0.8s0.8-0.2,1.2-0.1c0.8,0.1,1.3,0.5,1.6,1
			c0.3,0.6,0.4,1.3,0.3,2.2l-0.7,4.2l-1.4-0.2L168.8,79.7z"/>
		<path class="st2" d="M172.2,77.5l3.2,0.5l-0.2,1.2l-3.2-0.5L172.2,77.5z M172.2,84.2c-0.2-0.4-0.3-0.8-0.2-1.5l1.2-7.2l1.4,0.2
			l-1.2,7.2c0,0.2,0,0.3,0,0.4c0.1,0.1,0.1,0.2,0.3,0.2l0.7,0.1l-0.2,1.3l-0.8-0.1C172.8,84.8,172.4,84.6,172.2,84.2z"/>
	</g>
</g>
</svg>
