<svg style="overflow: hidden; position: relative;" xmlns="http://www.w3.org/2000/svg" xmlns:xlink="http://www.w3.org/1999/xlink" width="500" version="1.1" height="500"><path transform="matrix(1,0,0,1,0,0)" fill="none" stroke="#505050" d="M19,19L19,486" stroke-width="2" stroke-linecap="round" stroke-linejoin="round"></path><path transform="matrix(1,0,0,1,0,0)" fill="none" stroke="#505050" d="M133.25,19L133.25,486" stroke-width="2" stroke-linecap="round" stroke-linejoin="round"></path><path transform="matrix(1,0,0,1,0,0)" fill="none" stroke="#505050" d="M247.5,19L247.5,486" stroke-width="2" stroke-linecap="round" stroke-linejoin="round"></path><path transform="matrix(1,0,0,1,0,0)" fill="none" stroke="#505050" d="M361.75,19L361.75,486" stroke-width="2" stroke-linecap="round" stroke-linejoin="round"></path><path transform="matrix(1,0,0,1,0,0)" fill="none" stroke="#505050" d="M476,19L476,486" stroke-width="2" stroke-linecap="round" stroke-linejoin="round"></path><path transform="matrix(1,0,0,1,0,0)" fill="none" stroke="#505050" d="M14,481L481,481" stroke-width="2" stroke-linecap="round" stroke-linejoin="round"></path><path transform="matrix(1,0,0,1,0,0)" fill="none" stroke="#505050" d="M14,366.75L481,366.75" stroke-width="2" stroke-linecap="round" stroke-linejoin="round"></path><path transform="matrix(1,0,0,1,0,0)" fill="none" stroke="#505050" d="M14,252.5L481,252.5" stroke-width="2" stroke-linecap="round" stroke-linejoin="round"></path><path transform="matrix(1,0,0,1,0,0)" fill="none" stroke="#505050" d="M14,138.25L481,138.25" stroke-width="2" stroke-linecap="round" stroke-linejoin="round"></path><path transform="matrix(1,0,0,1,0,0)" fill="none" stroke="#505050" d="M14,24L481,24" stroke-width="2" stroke-linecap="round" stroke-linejoin="round"></path><path transform="matrix(1,0,0,1,0,0)" fill="none" stroke="#505050" d="M41.85,19L41.85,486" stroke-width="1" stroke-linecap="round" stroke-linejoin="round"></path><path transform="matrix(1,0,0,1,0,0)" fill="none" stroke="#505050" d="M64.7,19L64.7,486" stroke-width="1" stroke-linecap="round" stroke-linejoin="round"></path><path transform="matrix(1,0,0,1,0,0)" fill="none" stroke="#505050" d="M87.55000000000001,19L87.55000000000001,486" stroke-width="1" stroke-linecap="round" stroke-linejoin="round"></path><path transform="matrix(1,0,0,1,0,0)" fill="none" stroke="#505050" d="M110.4,19L110.4,486" stroke-width="1" stroke-linecap="round" stroke-linejoin="round"></path><path transform="matrix(1,0,0,1,0,0)" fill="none" stroke="#505050" d="M156.1,19L156.1,486" stroke-width="1" stroke-linecap="round" stroke-linejoin="round"></path><path transform="matrix(1,0,0,1,0,0)" fill="none" stroke="#505050" d="M178.95,19L178.95,486" stroke-width="1" stroke-linecap="round" stroke-linejoin="round"></path><path transform="matrix(1,0,0,1,0,0)" fill="none" stroke="#505050" d="M201.8,19L201.8,486" stroke-width="1" stroke-linecap="round" stroke-linejoin="round"></path><path transform="matrix(1,0,0,1,0,0)" fill="none" stroke="#505050" d="M224.65,19L224.65,486" stroke-width="1" stroke-linecap="round" stroke-linejoin="round"></path><path transform="matrix(1,0,0,1,0,0)" fill="none" stroke="#505050" d="M270.35,19L270.35,486" stroke-width="1" stroke-linecap="round" stroke-linejoin="round"></path><path transform="matrix(1,0,0,1,0,0)" fill="none" stroke="#505050" d="M293.2,19L293.2,486" stroke-width="1" stroke-linecap="round" stroke-linejoin="round"></path><path transform="matrix(1,0,0,1,0,0)" fill="none" stroke="#505050" d="M316.05,19L316.05,486" stroke-width="1" stroke-linecap="round" stroke-linejoin="round"></path><path transform="matrix(1,0,0,1,0,0)" fill="none" stroke="#505050" d="M338.9,19L338.9,486" stroke-width="1" stroke-linecap="round" stroke-linejoin="round"></path><path transform="matrix(1,0,0,1,0,0)" fill="none" stroke="#505050" d="M384.6,19L384.6,486" stroke-width="1" stroke-linecap="round" stroke-linejoin="round"></path><path transform="matrix(1,0,0,1,0,0)" fill="none" stroke="#505050" d="M407.45,19L407.45,486" stroke-width="1" stroke-linecap="round" stroke-linejoin="round"></path><path transform="matrix(1,0,0,1,0,0)" fill="none" stroke="#505050" d="M430.3,19L430.3,486" stroke-width="1" stroke-linecap="round" stroke-linejoin="round"></path><path transform="matrix(1,0,0,1,0,0)" fill="none" stroke="#505050" d="M453.15,19L453.15,486" stroke-width="1" stroke-linecap="round" stroke-linejoin="round"></path><path transform="matrix(1,0,0,1,0,0)" fill="none" stroke="#505050" d="M14,458.15L481,458.15" stroke-width="1" stroke-linecap="round" stroke-linejoin="round"></path><path transform="matrix(1,0,0,1,0,0)" fill="none" stroke="#505050" d="M14,435.3L481,435.3" stroke-width="1" stroke-linecap="round" stroke-linejoin="round"></path><path transform="matrix(1,0,0,1,0,0)" fill="none" stroke="#505050" d="M14,412.45L481,412.45" stroke-width="1" stroke-linecap="round" stroke-linejoin="round"></path><path transform="matrix(1,0,0,1,0,0)" fill="none" stroke="#505050" d="M14,389.6L481,389.6" stroke-width="1" stroke-linecap="round" stroke-linejoin="round"></path><path transform="matrix(1,0,0,1,0,0)" fill="none" stroke="#505050" d="M14,343.9L481,343.9" stroke-width="1" stroke-linecap="round" stroke-linejoin="round"></path><path transform="matrix(1,0,0,1,0,0)" fill="none" stroke="#505050" d="M14,321.05L481,321.05" stroke-width="1" stroke-linecap="round" stroke-linejoin="round"></path><path transform="matrix(1,0,0,1,0,0)" fill="none" stroke="#505050" d="M14,298.2L481,298.2" stroke-width="1" stroke-linecap="round" stroke-linejoin="round"></path><path transform="matrix(1,0,0,1,0,0)" fill="none" stroke="#505050" d="M14,275.35L481,275.35" stroke-width="1" stroke-linecap="round" stroke-linejoin="round"></path><path transform="matrix(1,0,0,1,0,0)" fill="none" stroke="#505050" d="M14,229.65L481,229.65" stroke-width="1" stroke-linecap="round" stroke-linejoin="round"></path><path transform="matrix(1,0,0,1,0,0)" fill="none" stroke="#505050" d="M14,206.8L481,206.8" stroke-width="1" stroke-linecap="round" stroke-linejoin="round"></path><path transform="matrix(1,0,0,1,0,0)" fill="none" stroke="#505050" d="M14,183.95L481,183.95" stroke-width="1" stroke-linecap="round" stroke-linejoin="round"></path><path transform="matrix(1,0,0,1,0,0)" fill="none" stroke="#505050" d="M14,161.1L481,161.1" stroke-width="1" stroke-linecap="round" stroke-linejoin="round"></path><path transform="matrix(1,0,0,1,0,0)" fill="none" stroke="#505050" d="M14,115.4L481,115.4" stroke-width="1" stroke-linecap="round" stroke-linejoin="round"></path><path transform="matrix(1,0,0,1,0,0)" fill="none" stroke="#505050" d="M14,92.55L481,92.55" stroke-width="1" stroke-linecap="round" stroke-linejoin="round"></path><path transform="matrix(1,0,0,1,0,0)" fill="none" stroke="#505050" d="M14,69.69999999999999L481,69.69999999999999" stroke-width="1" stroke-linecap="round" stroke-linejoin="round"></path><path transform="matrix(1,0,0,1,0,0)" fill="none" stroke="#505050" d="M14,46.849999999999994L481,46.849999999999994" stroke-width="1" stroke-linecap="round" stroke-linejoin="round"></path><path transform="matrix(1,0,0,1,0,0)" fill="none" stroke="#000000" d="M41.85,478.5L41.85,483.5" stroke-width="2" stroke-linecap="round" stroke-linejoin="round"></path><path transform="matrix(1,0,0,1,0,0)" fill="none" stroke="#000000" d="M64.7,478.5L64.7,483.5" stroke-width="2" stroke-linecap="round" stroke-linejoin="round"></path><path transform="matrix(1,0,0,1,0,0)" fill="none" stroke="#000000" d="M87.55000000000001,478.5L87.55000000000001,483.5" stroke-width="2" stroke-linecap="round" stroke-linejoin="round"></path><path transform="matrix(1,0,0,1,0,0)" fill="none" stroke="#000000" d="M110.4,478.5L110.4,483.5" stroke-width="2" stroke-linecap="round" stroke-linejoin="round"></path><path transform="matrix(1,0,0,1,0,0)" fill="none" stroke="#000000" d="M133.25,476L133.25,486" stroke-width="3" stroke-linecap="round" stroke-linejoin="round"></path><path transform="matrix(1,0,0,1,0,0)" fill="none" stroke="#000000" d="M156.1,478.5L156.1,483.5" stroke-width="2" stroke-linecap="round" stroke-linejoin="round"></path><path transform="matrix(1,0,0,1,0,0)" fill="none" stroke="#000000" d="M178.95,478.5L178.95,483.5" stroke-width="2" stroke-linecap="round" stroke-linejoin="round"></path><path transform="matrix(1,0,0,1,0,0)" fill="none" stroke="#000000" d="M201.8,478.5L201.8,483.5" stroke-width="2" stroke-linecap="round" stroke-linejoin="round"></path><path transform="matrix(1,0,0,1,0,0)" fill="none" stroke="#000000" d="M224.65,478.5L224.65,483.5" stroke-width="2" stroke-linecap="round" stroke-linejoin="round"></path><path transform="matrix(1,0,0,1,0,0)" fill="none" stroke="#000000" d="M247.5,476L247.5,486" stroke-width="3" stroke-linecap="round" stroke-linejoin="round"></path><path transform="matrix(1,0,0,1,0,0)" fill="none" stroke="#000000" d="M270.35,478.5L270.35,483.5" stroke-width="2" stroke-linecap="round" stroke-linejoin="round"></path><path transform="matrix(1,0,0,1,0,0)" fill="none" stroke="#000000" d="M293.2,478.5L293.2,483.5" stroke-width="2" stroke-linecap="round" stroke-linejoin="round"></path><path transform="matrix(1,0,0,1,0,0)" fill="none" stroke="#000000" d="M316.05,478.5L316.05,483.5" stroke-width="2" stroke-linecap="round" stroke-linejoin="round"></path><path transform="matrix(1,0,0,1,0,0)" fill="none" stroke="#000000" d="M338.9,478.5L338.9,483.5" stroke-width="2" stroke-linecap="round" stroke-linejoin="round"></path><path transform="matrix(1,0,0,1,0,0)" fill="none" stroke="#000000" d="M361.75,476L361.75,486" stroke-width="3" stroke-linecap="round" stroke-linejoin="round"></path><path transform="matrix(1,0,0,1,0,0)" fill="none" stroke="#000000" d="M384.6,478.5L384.6,483.5" stroke-width="2" stroke-linecap="round" stroke-linejoin="round"></path><path transform="matrix(1,0,0,1,0,0)" fill="none" stroke="#000000" d="M407.45,478.5L407.45,483.5" stroke-width="2" stroke-linecap="round" stroke-linejoin="round"></path><path transform="matrix(1,0,0,1,0,0)" fill="none" stroke="#000000" d="M430.3,478.5L430.3,483.5" stroke-width="2" stroke-linecap="round" stroke-linejoin="round"></path><path transform="matrix(1,0,0,1,0,0)" fill="none" stroke="#000000" d="M453.15,478.5L453.15,483.5" stroke-width="2" stroke-linecap="round" stroke-linejoin="round"></path><path transform="matrix(1,0,0,1,0,0)" fill="none" stroke="#000000" d="M476,476L476,486" stroke-width="3" stroke-linecap="round" stroke-linejoin="round"></path><path transform="matrix(1,0,0,1,0,0)" fill="none" stroke="#000000" d="M16.5,458.15L21.5,458.15" stroke-width="2" stroke-linecap="round" stroke-linejoin="round"></path><path transform="matrix(1,0,0,1,0,0)" fill="none" stroke="#000000" d="M16.5,435.3L21.5,435.3" stroke-width="2" stroke-linecap="round" stroke-linejoin="round"></path><path transform="matrix(1,0,0,1,0,0)" fill="none" stroke="#000000" d="M16.5,412.45L21.5,412.45" stroke-width="2" stroke-linecap="round" stroke-linejoin="round"></path><path transform="matrix(1,0,0,1,0,0)" fill="none" stroke="#000000" d="M16.5,389.6L21.5,389.6" stroke-width="2" stroke-linecap="round" stroke-linejoin="round"></path><path transform="matrix(1,0,0,1,0,0)" fill="none" stroke="#000000" d="M14,366.75L24,366.75" stroke-width="3" stroke-linecap="round" stroke-linejoin="round"></path><path transform="matrix(1,0,0,1,0,0)" fill="none" stroke="#000000" d="M16.5,343.9L21.5,343.9" stroke-width="2" stroke-linecap="round" stroke-linejoin="round"></path><path transform="matrix(1,0,0,1,0,0)" fill="none" stroke="#000000" d="M16.5,321.05L21.5,321.05" stroke-width="2" stroke-linecap="round" stroke-linejoin="round"></path><path transform="matrix(1,0,0,1,0,0)" fill="none" stroke="#000000" d="M16.5,298.2L21.5,298.2" stroke-width="2" stroke-linecap="round" stroke-linejoin="round"></path><path transform="matrix(1,0,0,1,0,0)" fill="none" stroke="#000000" d="M16.5,275.35L21.5,275.35" stroke-width="2" stroke-linecap="round" stroke-linejoin="round"></path><path transform="matrix(1,0,0,1,0,0)" fill="none" stroke="#000000" d="M14,252.5L24,252.5" stroke-width="3" stroke-linecap="round" stroke-linejoin="round"></path><path transform="matrix(1,0,0,1,0,0)" fill="none" stroke="#000000" d="M16.5,229.65L21.5,229.65" stroke-width="2" stroke-linecap="round" stroke-linejoin="round"></path><path transform="matrix(1,0,0,1,0,0)" fill="none" stroke="#000000" d="M16.5,206.8L21.5,206.8" stroke-width="2" stroke-linecap="round" stroke-linejoin="round"></path><path transform="matrix(1,0,0,1,0,0)" fill="none" stroke="#000000" d="M16.5,183.95L21.5,183.95" stroke-width="2" stroke-linecap="round" stroke-linejoin="round"></path><path transform="matrix(1,0,0,1,0,0)" fill="none" stroke="#000000" d="M16.5,161.1L21.5,161.1" stroke-width="2" stroke-linecap="round" stroke-linejoin="round"></path><path transform="matrix(1,0,0,1,0,0)" fill="none" stroke="#000000" d="M14,138.25L24,138.25" stroke-width="3" stroke-linecap="round" stroke-linejoin="round"></path><path transform="matrix(1,0,0,1,0,0)" fill="none" stroke="#000000" d="M16.5,115.4L21.5,115.4" stroke-width="2" stroke-linecap="round" stroke-linejoin="round"></path><path transform="matrix(1,0,0,1,0,0)" fill="none" stroke="#000000" d="M16.5,92.55L21.5,92.55" stroke-width="2" stroke-linecap="round" stroke-linejoin="round"></path><path transform="matrix(1,0,0,1,0,0)" fill="none" stroke="#000000" d="M16.5,69.69999999999999L21.5,69.69999999999999" stroke-width="2" stroke-linecap="round" stroke-linejoin="round"></path><path transform="matrix(1,0,0,1,0,0)" fill="none" stroke="#000000" d="M16.5,46.849999999999994L21.5,46.849999999999994" stroke-width="2" stroke-linecap="round" stroke-linejoin="round"></path><path transform="matrix(1,0,0,1,0,0)" fill="none" stroke="#000000" d="M14,24L24,24" stroke-width="3" stroke-linecap="round" stroke-linejoin="round"></path><path transform="matrix(1,0,0,1,0,0)" fill="none" stroke="#000000" d="M14,481L481,481" stroke-width="3" stroke-linecap="round" stroke-linejoin="round"></path><path transform="matrix(1,0,0,1,0,0)" fill="none" stroke="#000000" d="M19,486L19,19" stroke-width="3" stroke-linecap="round" stroke-linejoin="round"></path><path transform="matrix(1,0,0,1,0,0)" fill="#000000" stroke="#000000" d="M481,481L482.25,481L482.25,483.5L486,481L482.25,478.5L482.25,481Z" stroke-width="3" stroke-linecap="round" stroke-linejoin="round"></path><path transform="matrix(1,0,0,1,0,0)" fill="#000000" stroke="#000000" d="M19,19L19,17.75L21.5,17.75L19,14L16.5,17.75L19,17.75Z" stroke-width="3" stroke-linecap="round" stroke-linejoin="round"></path><path transform="matrix(1,0,0,1,0,0)" fill="none" stroke="#ff0000" d="M20,479.8L21,478.6L22,477.4L23,476.2L24,475L25,473.8L26,472.6L27,471.4L28,470.2L29,469L30,467.8L31,466.6L32,465.4L33,464.2L34,463L35,461.8L36,460.6L37,459.4L38,458.2L39,457L40,455.8L41,454.6L42,453.4L43,452.2L44,451L45,449.8L46,448.6L47,447.4L48,446.2L49,445L50,443.8L51,442.6L51.99999999999999,441.4L53,440.2L54,439L55,437.8L56,436.6L57,435.4L58,434.2L59,433L59.99999999999999,431.8L61,430.6L62,429.4L62.99999999999999,428.2L64,427L65,425.8L66,424.6L67,423.40000000000003L68,422.2L69,421L70,419.8L71,418.6L72,417.4L73,416.2L74,415L75,413.8L76,412.6L77,411.4L78,410.20000000000005L79,409L80,407.8L81,406.6L82,405.4L83,404.2L84,403L84.99999999999999,401.8L86,400.6L87,399.4L88,398.2L89,397L90,395.8L91,394.6L92,393.4L93,392.2L94,391L95,389.8L95.99999999999999,388.6L97,387.4L98,386.2L99,385L100,383.8L100.99999999999999,382.6L102,381.4L103,380.2L104,379L105,377.8L105.99999999999999,376.6L106.99999999999999,375.4L108,374.2L109,373L110,371.8L111,370.6L111.99999999999999,369.40000000000003L113,368.2L114,367L115,365.8L116,364.6L116.99999999999999,363.40000000000003L118,362.20000000000005L119,361L120,359.8L121,358.6L121.99999999999999,357.4L123,356.2L124,355L125,353.8L126,352.6L127,351.4L127.99999999999999,350.20000000000005L129,349L130,347.8L131,346.6L132,345.4L133,344.20000000000005L134,343L135,341.8L136,340.6L137,339.40000000000003L138,338.2L139,337L140,335.8L141,334.6L142,333.4L143,332.20000000000005L144,331L145,329.8L146,328.6L147,327.4L148,326.2L149,325L150,323.79999999999995L150.99999999999997,322.6L152,321.4L153,320.2L154,319L155,317.8L156,316.6L157,315.4L158,314.2L159,313L160,311.8L161,310.6L162,309.4L163,308.2L164,307L165,305.8L166,304.6L167,303.4L167.99999999999997,302.20000000000005L169,301L170,299.8L171,298.6L172,297.4L172.99999999999997,296.20000000000005L174,295L175,293.79999999999995L176,292.6L177,291.4L177.99999999999997,290.20000000000005L179,289L180,287.8L181,286.6L182,285.4L182.99999999999997,284.20000000000005L184,283L185,281.79999999999995L186,280.6L187,279.4L187.99999999999997,278.20000000000005L189,277L190,275.8L191,274.6L192,273.4L192.99999999999997,272.20000000000005L194,271L194.99999999999997,269.8L196,268.6L197,267.4L198,266.20000000000005L199,265L199.99999999999997,263.80000000000007L201,262.6L202,261.4L203,260.20000000000005L204,259L204.99999999999997,257.80000000000007L206,256.6L207,255.4L208,254.20000000000002L209,253.00000000000003L209.99999999999997,251.80000000000004L211,250.60000000000005L212,249.39999999999998L213,248.20000000000005L214,247.00000000000003L214.99999999999997,245.80000000000004L216,244.60000000000002L217,243.40000000000003L218,242.20000000000002L219,241.00000000000003L219.99999999999997,239.8L221,238.60000000000002L222,237.4L223,236.20000000000002L224,235L224.99999999999997,233.8L226,232.6L227,231.4L228,230.2L229,229L229.99999999999997,227.80000000000004L231,226.6L231.99999999999997,225.40000000000003L233,224.20000000000005L234,223L235,221.8L236,220.60000000000002L236.99999999999997,219.40000000000003L238,218.20000000000005L239,217.00000000000006L240,215.8L241,214.60000000000002L241.99999999999997,213.40000000000003L243,212.20000000000005L244,211L245,209.8L246,208.60000000000002L246.99999999999997,207.40000000000003L248,206.2L248.99999999999997,205.00000000000006L250,203.8L251,202.60000000000002L251.99999999999997,201.40000000000003L252.99999999999997,200.20000000000005L254,199L255,197.80000000000007L255.99999999999997,196.60000000000002L257,195.39999999999998L258,194.20000000000005L259,193.00000000000006L260,191.79999999999995L261,190.60000000000002L262,189.40000000000003L263,188.20000000000005L264,187L265,185.8L266,184.60000000000002L267,183.40000000000003L268,182.2L269,181L270,179.8L271,178.60000000000002L272,177.40000000000003L273,176.20000000000005L274,175L275,173.8L276,172.60000000000002L277,171.39999999999998L278,170.2L279,169.00000000000006L279.99999999999994,167.80000000000007L281,166.59999999999997L282,165.40000000000003L282.99999999999994,164.20000000000005L284,163L285,161.8L286,160.60000000000002L287,159.39999999999998L288,158.20000000000005L289,157L289.99999999999994,155.80000000000007L291,154.60000000000002L292,153.40000000000003L293,152.20000000000005L294,151L295,149.8L296,148.60000000000008L297,147.39999999999998L298,146.2L299,145.00000000000006L299.99999999999994,143.80000000000007L301,142.60000000000002L302,141.40000000000003L303,140.20000000000005L304,139L305,137.8L306,136.60000000000002L307,135.39999999999998L308,134.20000000000005L309,133.00000000000006L309.99999999999994,131.8L311,130.60000000000002L312,129.40000000000003L313,128.20000000000005L314,127L315,125.80000000000001L316,124.60000000000002L316.99999999999994,123.40000000000003L318,122.19999999999999L319,121L319.99999999999994,119.80000000000007L321,118.60000000000002L322,117.39999999999998L323,116.20000000000005L324,115L325,113.80000000000001L326,112.60000000000002L326.99999999999994,111.40000000000003L328,110.19999999999999L329,109.00000000000006L330,107.80000000000001L331,106.59999999999997L332,105.40000000000003L333,104.20000000000005L334,103L335,101.80000000000001L336,100.60000000000002L336.99999999999994,99.40000000000009L338,98.19999999999999L339,97L340,95.80000000000007L341,94.60000000000002L342,93.40000000000003L343,92.20000000000005L343.99999999999994,91.00000000000006L345,89.80000000000001L346,88.60000000000002L346.99999999999994,87.40000000000003L348,86.19999999999999L349,85.00000000000006L350,83.80000000000007L351,82.59999999999997L352,81.40000000000003L353,80.20000000000005L353.99999999999994,79.00000000000006L355,77.80000000000001L356,76.60000000000002L356.99999999999994,75.40000000000003L358,74.20000000000005L359,73L360,71.80000000000001L361,70.60000000000002L362,69.40000000000003L363,68.20000000000005L363.99999999999994,67.00000000000006L365,65.80000000000001L366,64.60000000000008L366.99999999999994,63.400000000000034L368,62.19999999999999L369,61.00000000000006L370,59.80000000000007L370.99999999999994,58.60000000000002L372,57.400000000000034L373,56.200000000000045L373.99999999999994,55.00000000000006L375,53.80000000000001L376,52.60000000000002L377,51.400000000000034L378,50.200000000000045L379,49L380,47.80000000000001L380.99999999999994,46.60000000000008L382,45.400000000000034L383,44.200000000000045L383.99999999999994,43.00000000000006L385,41.80000000000001L386,40.60000000000002L387,39.400000000000034L388,38.19999999999999L389,37L390,35.80000000000007L390.99999999999994,34.60000000000008L392,33.39999999999998L393,32.200000000000045L393.99999999999994,31.000000000000057L395,29.80000000000001L396,28.600000000000023L397,27.400000000000034L398,26.19999999999999L399,25.000000000000057L400,24" stroke-width="2" stroke-linecap="round" stroke-linejoin="round" stroke-dasharray="6,8"></path><path transform="matrix(1,0,0,1,0,0)" fill="none" stroke="#ff0000" d="M133.25,333.9L133.25,353.9" stroke-width="3" stroke-linecap="round" stroke-linejoin="round" stroke-dasharray=""></path><path transform="matrix(1,0,0,1,0,0)" fill="none" stroke="#ff0000" d="M123.25,343.9L143.25,343.9" stroke-width="3" stroke-linecap="round" stroke-linejoin="round" stroke-dasharray=""></path><path transform="matrix(1,0,0,1,0,0)" fill="none" stroke="#ff0000" d="M247.5,196.8L247.5,216.8" stroke-width="3" stroke-linecap="round" stroke-linejoin="round" stroke-dasharray=""></path><path transform="matrix(1,0,0,1,0,0)" fill="none" stroke="#ff0000" d="M237.5,206.8L257.5,206.8" stroke-width="3" stroke-linecap="round" stroke-linejoin="round" stroke-dasharray=""></path><path transform="matrix(1,0,0,1,0,0)" fill="none" stroke="#ff0000" d="M361.75,59.69999999999999L361.75,79.69999999999999" stroke-width="3" stroke-linecap="round" stroke-linejoin="round" stroke-dasharray=""></path><path transform="matrix(1,0,0,1,0,0)" fill="none" stroke="#ff0000" d="M351.75,69.69999999999999L371.75,69.69999999999999" stroke-width="3" stroke-linecap="round" stroke-linejoin="round" stroke-dasharray=""></path><text transform="matrix(1,0,0,1,0,0)" style="text-anchor: middle; font: normal normal bold 12px/normal ;" x="133.25" y="495" text-anchor="middle" font-family="&quot;Arial&quot;" font-size="12px" stroke="white" fill="white" stroke-width="5" font-weight="bold"><tspan dy="4.361538461538462">1</tspan></text><text transform="matrix(1,0,0,1,0,0)" style="text-anchor: middle; font: normal normal normal 12px/normal ;" x="133.25" y="495" text-anchor="middle" font-family="&quot;Arial&quot;" font-size="12px" stroke="none" fill="#000000"><tspan dy="4.361538461538462">1</tspan></text><text transform="matrix(1,0,0,1,0,0)" style="text-anchor: middle; font: normal normal bold 12px/normal ;" x="247.5" y="495" text-anchor="middle" font-family="&quot;Arial&quot;" font-size="12px" stroke="white" fill="white" stroke-width="5" font-weight="bold"><tspan dy="4.361538461538462">2</tspan></text><text transform="matrix(1,0,0,1,0,0)" style="text-anchor: middle; font: normal normal normal 12px/normal ;" x="247.5" y="495" text-anchor="middle" font-family="&quot;Arial&quot;" font-size="12px" stroke="none" fill="#000000"><tspan dy="4.361538461538462">2</tspan></text><text transform="matrix(1,0,0,1,0,0)" style="text-anchor: middle; font: normal normal bold 12px/normal ;" x="361.75" y="495" text-anchor="middle" font-family="&quot;Arial&quot;" font-size="12px" stroke="white" fill="white" stroke-width="5" font-weight="bold"><tspan dy="4.361538461538462">3</tspan></text><text transform="matrix(1,0,0,1,0,0)" style="text-anchor: middle; font: normal normal normal 12px/normal ;" x="361.75" y="495" text-anchor="middle" font-family="&quot;Arial&quot;" font-size="12px" stroke="none" fill="#000000"><tspan dy="4.361538461538462">3</tspan></text><text transform="matrix(1,0,0,1,0,0)" style="text-anchor: middle; font: normal normal bold 12px/normal ;" x="476" y="495" text-anchor="middle" font-family="&quot;Arial&quot;" font-size="12px" stroke="white" fill="white" stroke-width="5" font-weight="bold"><tspan dy="4.361538461538462">4</tspan></text><text transform="matrix(1,0,0,1,0,0)" style="text-anchor: middle; font: normal normal normal 12px/normal ;" x="476" y="495" text-anchor="middle" font-family="&quot;Arial&quot;" font-size="12px" stroke="none" fill="#000000"><tspan dy="4.361538461538462">4</tspan></text><path transform="matrix(1,0,0,1,0,0)" fill="none" stroke="#000" d="M14,366.75L24,366.75"></path><text transform="matrix(1,0,0,1,0,0)" style="text-anchor: middle; font: normal normal bold 12px/normal ;" x="7" y="366.75" text-anchor="middle" font-family="&quot;Arial&quot;" font-size="12px" stroke="white" fill="white" stroke-width="5" font-weight="bold"><tspan dy="4.361538461538462">1</tspan></text><text transform="matrix(1,0,0,1,0,0)" style="text-anchor: middle; font: normal normal normal 12px/normal ;" x="7" y="366.75" text-anchor="middle" font-family="&quot;Arial&quot;" font-size="12px" stroke="none" fill="#000000"><tspan dy="4.361538461538462">1</tspan></text><path transform="matrix(1,0,0,1,0,0)" fill="none" stroke="#000" d="M14,252.5L24,252.5"></path><text transform="matrix(1,0,0,1,0,0)" style="text-anchor: middle; font: normal normal bold 12px/normal ;" x="7" y="252.5" text-anchor="middle" font-family="&quot;Arial&quot;" font-size="12px" stroke="white" fill="white" stroke-width="5" font-weight="bold"><tspan dy="4.361538461538462">2</tspan></text><text transform="matrix(1,0,0,1,0,0)" style="text-anchor: middle; font: normal normal normal 12px/normal ;" x="7" y="252.5" text-anchor="middle" font-family="&quot;Arial&quot;" font-size="12px" stroke="none" fill="#000000"><tspan dy="4.361538461538462">2</tspan></text><path transform="matrix(1,0,0,1,0,0)" fill="none" stroke="#000" d="M14,138.25L24,138.25"></path><text transform="matrix(1,0,0,1,0,0)" style="text-anchor: middle; font: normal normal bold 12px/normal ;" x="7" y="138.25" text-anchor="middle" font-family="&quot;Arial&quot;" font-size="12px" stroke="white" fill="white" stroke-width="5" font-weight="bold"><tspan dy="4.361538461538462">3</tspan></text><text transform="matrix(1,0,0,1,0,0)" style="text-anchor: middle; font: normal normal normal 12px/normal ;" x="7" y="138.25" text-anchor="middle" font-family="&quot;Arial&quot;" font-size="12px" stroke="none" fill="#000000"><tspan dy="4.361538461538462">3</tspan></text><path transform="matrix(1,0,0,1,0,0)" fill="none" stroke="#000" d="M14,24L24,24"></path><text transform="matrix(1,0,0,1,0,0)" style="text-anchor: middle; font: normal normal bold 12px/normal ;" x="7" y="24" text-anchor="middle" font-family="&quot;Arial&quot;" font-size="12px" stroke="white" fill="white" stroke-width="5" font-weight="bold"><tspan dy="4.361538461538462">4</tspan></text><text transform="matrix(1,0,0,1,0,0)" style="text-anchor: middle; font: normal normal normal 12px/normal ;" x="7" y="24" text-anchor="middle" font-family="&quot;Arial&quot;" font-size="12px" stroke="none" fill="#000000"><tspan dy="4.361538461538462">4</tspan></text></svg>