<svg style="overflow: hidden; position: relative;" xmlns="http://www.w3.org/2000/svg" xmlns:xlink="http://www.w3.org/1999/xlink" width="500" version="1.1" height="500"><path transform="matrix(1,0,0,1,0,0)" fill="none" stroke="#505050" d="M19,19L19,486" stroke-width="2" stroke-linecap="round" stroke-linejoin="round"></path><path transform="matrix(1,0,0,1,0,0)" fill="none" stroke="#505050" d="M133.25,19L133.25,486" stroke-width="2" stroke-linecap="round" stroke-linejoin="round"></path><path transform="matrix(1,0,0,1,0,0)" fill="none" stroke="#505050" d="M247.5,19L247.5,486" stroke-width="2" stroke-linecap="round" stroke-linejoin="round"></path><path transform="matrix(1,0,0,1,0,0)" fill="none" stroke="#505050" d="M361.75,19L361.75,486" stroke-width="2" stroke-linecap="round" stroke-linejoin="round"></path><path transform="matrix(1,0,0,1,0,0)" fill="none" stroke="#505050" d="M476,19L476,486" stroke-width="2" stroke-linecap="round" stroke-linejoin="round"></path><path transform="matrix(1,0,0,1,0,0)" fill="none" stroke="#505050" d="M14,481L481,481" stroke-width="2" stroke-linecap="round" stroke-linejoin="round"></path><path transform="matrix(1,0,0,1,0,0)" fill="none" stroke="#505050" d="M14,366.75L481,366.75" stroke-width="2" stroke-linecap="round" stroke-linejoin="round"></path><path transform="matrix(1,0,0,1,0,0)" fill="none" stroke="#505050" d="M14,252.5L481,252.5" stroke-width="2" stroke-linecap="round" stroke-linejoin="round"></path><path transform="matrix(1,0,0,1,0,0)" fill="none" stroke="#505050" d="M14,138.25L481,138.25" stroke-width="2" stroke-linecap="round" stroke-linejoin="round"></path><path transform="matrix(1,0,0,1,0,0)" fill="none" stroke="#505050" d="M14,24L481,24" stroke-width="2" stroke-linecap="round" stroke-linejoin="round"></path><path transform="matrix(1,0,0,1,0,0)" fill="none" stroke="#505050" d="M41.85,19L41.85,486" stroke-width="1" stroke-linecap="round" stroke-linejoin="round"></path><path transform="matrix(1,0,0,1,0,0)" fill="none" stroke="#505050" d="M64.7,19L64.7,486" stroke-width="1" stroke-linecap="round" stroke-linejoin="round"></path><path transform="matrix(1,0,0,1,0,0)" fill="none" stroke="#505050" d="M87.55000000000001,19L87.55000000000001,486" stroke-width="1" stroke-linecap="round" stroke-linejoin="round"></path><path transform="matrix(1,0,0,1,0,0)" fill="none" stroke="#505050" d="M110.4,19L110.4,486" stroke-width="1" stroke-linecap="round" stroke-linejoin="round"></path><path transform="matrix(1,0,0,1,0,0)" fill="none" stroke="#505050" d="M156.1,19L156.1,486" stroke-width="1" stroke-linecap="round" stroke-linejoin="round"></path><path transform="matrix(1,0,0,1,0,0)" fill="none" stroke="#505050" d="M178.95,19L178.95,486" stroke-width="1" stroke-linecap="round" stroke-linejoin="round"></path><path transform="matrix(1,0,0,1,0,0)" fill="none" stroke="#505050" d="M201.8,19L201.8,486" stroke-width="1" stroke-linecap="round" stroke-linejoin="round"></path><path transform="matrix(1,0,0,1,0,0)" fill="none" stroke="#505050" d="M224.65,19L224.65,486" stroke-width="1" stroke-linecap="round" stroke-linejoin="round"></path><path transform="matrix(1,0,0,1,0,0)" fill="none" stroke="#505050" d="M270.35,19L270.35,486" stroke-width="1" stroke-linecap="round" stroke-linejoin="round"></path><path transform="matrix(1,0,0,1,0,0)" fill="none" stroke="#505050" d="M293.2,19L293.2,486" stroke-width="1" stroke-linecap="round" stroke-linejoin="round"></path><path transform="matrix(1,0,0,1,0,0)" fill="none" stroke="#505050" d="M316.05,19L316.05,486" stroke-width="1" stroke-linecap="round" stroke-linejoin="round"></path><path transform="matrix(1,0,0,1,0,0)" fill="none" stroke="#505050" d="M338.9,19L338.9,486" stroke-width="1" stroke-linecap="round" stroke-linejoin="round"></path><path transform="matrix(1,0,0,1,0,0)" fill="none" stroke="#505050" d="M384.6,19L384.6,486" stroke-width="1" stroke-linecap="round" stroke-linejoin="round"></path><path transform="matrix(1,0,0,1,0,0)" fill="none" stroke="#505050" d="M407.45,19L407.45,486" stroke-width="1" stroke-linecap="round" stroke-linejoin="round"></path><path transform="matrix(1,0,0,1,0,0)" fill="none" stroke="#505050" d="M430.3,19L430.3,486" stroke-width="1" stroke-linecap="round" stroke-linejoin="round"></path><path transform="matrix(1,0,0,1,0,0)" fill="none" stroke="#505050" d="M453.15,19L453.15,486" stroke-width="1" stroke-linecap="round" stroke-linejoin="round"></path><path transform="matrix(1,0,0,1,0,0)" fill="none" stroke="#505050" d="M14,458.15L481,458.15" stroke-width="1" stroke-linecap="round" stroke-linejoin="round"></path><path transform="matrix(1,0,0,1,0,0)" fill="none" stroke="#505050" d="M14,435.3L481,435.3" stroke-width="1" stroke-linecap="round" stroke-linejoin="round"></path><path transform="matrix(1,0,0,1,0,0)" fill="none" stroke="#505050" d="M14,412.45L481,412.45" stroke-width="1" stroke-linecap="round" stroke-linejoin="round"></path><path transform="matrix(1,0,0,1,0,0)" fill="none" stroke="#505050" d="M14,389.6L481,389.6" stroke-width="1" stroke-linecap="round" stroke-linejoin="round"></path><path transform="matrix(1,0,0,1,0,0)" fill="none" stroke="#505050" d="M14,343.9L481,343.9" stroke-width="1" stroke-linecap="round" stroke-linejoin="round"></path><path transform="matrix(1,0,0,1,0,0)" fill="none" stroke="#505050" d="M14,321.05L481,321.05" stroke-width="1" stroke-linecap="round" stroke-linejoin="round"></path><path transform="matrix(1,0,0,1,0,0)" fill="none" stroke="#505050" d="M14,298.2L481,298.2" stroke-width="1" stroke-linecap="round" stroke-linejoin="round"></path><path transform="matrix(1,0,0,1,0,0)" fill="none" stroke="#505050" d="M14,275.35L481,275.35" stroke-width="1" stroke-linecap="round" stroke-linejoin="round"></path><path transform="matrix(1,0,0,1,0,0)" fill="none" stroke="#505050" d="M14,229.65L481,229.65" stroke-width="1" stroke-linecap="round" stroke-linejoin="round"></path><path transform="matrix(1,0,0,1,0,0)" fill="none" stroke="#505050" d="M14,206.8L481,206.8" stroke-width="1" stroke-linecap="round" stroke-linejoin="round"></path><path transform="matrix(1,0,0,1,0,0)" fill="none" stroke="#505050" d="M14,183.95L481,183.95" stroke-width="1" stroke-linecap="round" stroke-linejoin="round"></path><path transform="matrix(1,0,0,1,0,0)" fill="none" stroke="#505050" d="M14,161.1L481,161.1" stroke-width="1" stroke-linecap="round" stroke-linejoin="round"></path><path transform="matrix(1,0,0,1,0,0)" fill="none" stroke="#505050" d="M14,115.4L481,115.4" stroke-width="1" stroke-linecap="round" stroke-linejoin="round"></path><path transform="matrix(1,0,0,1,0,0)" fill="none" stroke="#505050" d="M14,92.55L481,92.55" stroke-width="1" stroke-linecap="round" stroke-linejoin="round"></path><path transform="matrix(1,0,0,1,0,0)" fill="none" stroke="#505050" d="M14,69.69999999999999L481,69.69999999999999" stroke-width="1" stroke-linecap="round" stroke-linejoin="round"></path><path transform="matrix(1,0,0,1,0,0)" fill="none" stroke="#505050" d="M14,46.849999999999994L481,46.849999999999994" stroke-width="1" stroke-linecap="round" stroke-linejoin="round"></path><path transform="matrix(1,0,0,1,0,0)" fill="none" stroke="#000000" d="M41.85,478.5L41.85,483.5" stroke-width="2" stroke-linecap="round" stroke-linejoin="round"></path><path transform="matrix(1,0,0,1,0,0)" fill="none" stroke="#000000" d="M64.7,478.5L64.7,483.5" stroke-width="2" stroke-linecap="round" stroke-linejoin="round"></path><path transform="matrix(1,0,0,1,0,0)" fill="none" stroke="#000000" d="M87.55000000000001,478.5L87.55000000000001,483.5" stroke-width="2" stroke-linecap="round" stroke-linejoin="round"></path><path transform="matrix(1,0,0,1,0,0)" fill="none" stroke="#000000" d="M110.4,478.5L110.4,483.5" stroke-width="2" stroke-linecap="round" stroke-linejoin="round"></path><path transform="matrix(1,0,0,1,0,0)" fill="none" stroke="#000000" d="M133.25,476L133.25,486" stroke-width="3" stroke-linecap="round" stroke-linejoin="round"></path><path transform="matrix(1,0,0,1,0,0)" fill="none" stroke="#000000" d="M156.1,478.5L156.1,483.5" stroke-width="2" stroke-linecap="round" stroke-linejoin="round"></path><path transform="matrix(1,0,0,1,0,0)" fill="none" stroke="#000000" d="M178.95,478.5L178.95,483.5" stroke-width="2" stroke-linecap="round" stroke-linejoin="round"></path><path transform="matrix(1,0,0,1,0,0)" fill="none" stroke="#000000" d="M201.8,478.5L201.8,483.5" stroke-width="2" stroke-linecap="round" stroke-linejoin="round"></path><path transform="matrix(1,0,0,1,0,0)" fill="none" stroke="#000000" d="M224.65,478.5L224.65,483.5" stroke-width="2" stroke-linecap="round" stroke-linejoin="round"></path><path transform="matrix(1,0,0,1,0,0)" fill="none" stroke="#000000" d="M247.5,476L247.5,486" stroke-width="3" stroke-linecap="round" stroke-linejoin="round"></path><path transform="matrix(1,0,0,1,0,0)" fill="none" stroke="#000000" d="M270.35,478.5L270.35,483.5" stroke-width="2" stroke-linecap="round" stroke-linejoin="round"></path><path transform="matrix(1,0,0,1,0,0)" fill="none" stroke="#000000" d="M293.2,478.5L293.2,483.5" stroke-width="2" stroke-linecap="round" stroke-linejoin="round"></path><path transform="matrix(1,0,0,1,0,0)" fill="none" stroke="#000000" d="M316.05,478.5L316.05,483.5" stroke-width="2" stroke-linecap="round" stroke-linejoin="round"></path><path transform="matrix(1,0,0,1,0,0)" fill="none" stroke="#000000" d="M338.9,478.5L338.9,483.5" stroke-width="2" stroke-linecap="round" stroke-linejoin="round"></path><path transform="matrix(1,0,0,1,0,0)" fill="none" stroke="#000000" d="M361.75,476L361.75,486" stroke-width="3" stroke-linecap="round" stroke-linejoin="round"></path><path transform="matrix(1,0,0,1,0,0)" fill="none" stroke="#000000" d="M384.6,478.5L384.6,483.5" stroke-width="2" stroke-linecap="round" stroke-linejoin="round"></path><path transform="matrix(1,0,0,1,0,0)" fill="none" stroke="#000000" d="M407.45,478.5L407.45,483.5" stroke-width="2" stroke-linecap="round" stroke-linejoin="round"></path><path transform="matrix(1,0,0,1,0,0)" fill="none" stroke="#000000" d="M430.3,478.5L430.3,483.5" stroke-width="2" stroke-linecap="round" stroke-linejoin="round"></path><path transform="matrix(1,0,0,1,0,0)" fill="none" stroke="#000000" d="M453.15,478.5L453.15,483.5" stroke-width="2" stroke-linecap="round" stroke-linejoin="round"></path><path transform="matrix(1,0,0,1,0,0)" fill="none" stroke="#000000" d="M476,476L476,486" stroke-width="3" stroke-linecap="round" stroke-linejoin="round"></path><path transform="matrix(1,0,0,1,0,0)" fill="none" stroke="#000000" d="M16.5,458.15L21.5,458.15" stroke-width="2" stroke-linecap="round" stroke-linejoin="round"></path><path transform="matrix(1,0,0,1,0,0)" fill="none" stroke="#000000" d="M16.5,435.3L21.5,435.3" stroke-width="2" stroke-linecap="round" stroke-linejoin="round"></path><path transform="matrix(1,0,0,1,0,0)" fill="none" stroke="#000000" d="M16.5,412.45L21.5,412.45" stroke-width="2" stroke-linecap="round" stroke-linejoin="round"></path><path transform="matrix(1,0,0,1,0,0)" fill="none" stroke="#000000" d="M16.5,389.6L21.5,389.6" stroke-width="2" stroke-linecap="round" stroke-linejoin="round"></path><path transform="matrix(1,0,0,1,0,0)" fill="none" stroke="#000000" d="M14,366.75L24,366.75" stroke-width="3" stroke-linecap="round" stroke-linejoin="round"></path><path transform="matrix(1,0,0,1,0,0)" fill="none" stroke="#000000" d="M16.5,343.9L21.5,343.9" stroke-width="2" stroke-linecap="round" stroke-linejoin="round"></path><path transform="matrix(1,0,0,1,0,0)" fill="none" stroke="#000000" d="M16.5,321.05L21.5,321.05" stroke-width="2" stroke-linecap="round" stroke-linejoin="round"></path><path transform="matrix(1,0,0,1,0,0)" fill="none" stroke="#000000" d="M16.5,298.2L21.5,298.2" stroke-width="2" stroke-linecap="round" stroke-linejoin="round"></path><path transform="matrix(1,0,0,1,0,0)" fill="none" stroke="#000000" d="M16.5,275.35L21.5,275.35" stroke-width="2" stroke-linecap="round" stroke-linejoin="round"></path><path transform="matrix(1,0,0,1,0,0)" fill="none" stroke="#000000" d="M14,252.5L24,252.5" stroke-width="3" stroke-linecap="round" stroke-linejoin="round"></path><path transform="matrix(1,0,0,1,0,0)" fill="none" stroke="#000000" d="M16.5,229.65L21.5,229.65" stroke-width="2" stroke-linecap="round" stroke-linejoin="round"></path><path transform="matrix(1,0,0,1,0,0)" fill="none" stroke="#000000" d="M16.5,206.8L21.5,206.8" stroke-width="2" stroke-linecap="round" stroke-linejoin="round"></path><path transform="matrix(1,0,0,1,0,0)" fill="none" stroke="#000000" d="M16.5,183.95L21.5,183.95" stroke-width="2" stroke-linecap="round" stroke-linejoin="round"></path><path transform="matrix(1,0,0,1,0,0)" fill="none" stroke="#000000" d="M16.5,161.1L21.5,161.1" stroke-width="2" stroke-linecap="round" stroke-linejoin="round"></path><path transform="matrix(1,0,0,1,0,0)" fill="none" stroke="#000000" d="M14,138.25L24,138.25" stroke-width="3" stroke-linecap="round" stroke-linejoin="round"></path><path transform="matrix(1,0,0,1,0,0)" fill="none" stroke="#000000" d="M16.5,115.4L21.5,115.4" stroke-width="2" stroke-linecap="round" stroke-linejoin="round"></path><path transform="matrix(1,0,0,1,0,0)" fill="none" stroke="#000000" d="M16.5,92.55L21.5,92.55" stroke-width="2" stroke-linecap="round" stroke-linejoin="round"></path><path transform="matrix(1,0,0,1,0,0)" fill="none" stroke="#000000" d="M16.5,69.69999999999999L21.5,69.69999999999999" stroke-width="2" stroke-linecap="round" stroke-linejoin="round"></path><path transform="matrix(1,0,0,1,0,0)" fill="none" stroke="#000000" d="M16.5,46.849999999999994L21.5,46.849999999999994" stroke-width="2" stroke-linecap="round" stroke-linejoin="round"></path><path transform="matrix(1,0,0,1,0,0)" fill="none" stroke="#000000" d="M14,24L24,24" stroke-width="3" stroke-linecap="round" stroke-linejoin="round"></path><path transform="matrix(1,0,0,1,0,0)" fill="none" stroke="#000000" d="M14,481L481,481" stroke-width="3" stroke-linecap="round" stroke-linejoin="round"></path><path transform="matrix(1,0,0,1,0,0)" fill="none" stroke="#000000" d="M19,486L19,19" stroke-width="3" stroke-linecap="round" stroke-linejoin="round"></path><path transform="matrix(1,0,0,1,0,0)" fill="#000000" stroke="#000000" d="M481,481L482.25,481L482.25,483.5L486,481L482.25,478.5L482.25,481Z" stroke-width="3" stroke-linecap="round" stroke-linejoin="round"></path><path transform="matrix(1,0,0,1,0,0)" fill="#000000" stroke="#000000" d="M19,19L19,17.75L21.5,17.75L19,14L16.5,17.75L19,17.75Z" stroke-width="3" stroke-linecap="round" stroke-linejoin="round"></path><path transform="matrix(1,0,0,1,0,0)" fill="none" stroke="#ff0000" d="M20,479.9166666666667L21,478.8333333333333L22,477.75L23,476.6666666666667L24,475.5833333333333L25,474.5L26,473.4166666666667L27,472.3333333333333L28,471.25L29,470.1666666666667L30,469.0833333333333L31,468L32,466.9166666666667L33,465.8333333333333L34,464.75L35,463.6666666666667L36,462.5833333333333L37,461.5L38,460.4166666666667L39,459.3333333333333L40,458.25L41,457.1666666666667L42,456.0833333333333L43,455L44,453.9166666666667L45,452.8333333333333L46,451.75L47,450.6666666666667L48,449.5833333333333L49,448.5L50,447.41666666666663L51,446.3333333333333L51.99999999999999,445.25L53,444.1666666666667L54,443.0833333333333L55,442L56,440.9166666666667L57,439.8333333333333L58,438.75L59,437.66666666666663L59.99999999999999,436.5833333333333L61,435.5L62,434.4166666666667L62.99999999999999,433.3333333333333L64,432.25L65,431.1666666666667L66,430.0833333333333L67,429L68,427.9166666666667L69,426.8333333333333L70,425.75L71,424.66666666666663L72,423.5833333333333L73,422.5L74,421.41666666666663L75,420.3333333333333L76,419.25L77,418.16666666666663L78,417.0833333333333L79,416L80,414.9166666666667L81,413.8333333333333L82,412.75L83,411.6666666666667L84,410.5833333333333L84.99999999999999,409.5L86,408.41666666666663L87,407.3333333333333L88,406.25L89,405.16666666666663L90,404.08333333333337L91,403L92,401.91666666666663L93,400.8333333333333L94,399.75L95,398.66666666666663L95.99999999999999,397.5833333333333L97,396.5L98,395.41666666666663L99,394.3333333333333L100,393.25L100.99999999999999,392.1666666666667L102,391.0833333333333L103,390L104,388.91666666666663L105,387.8333333333333L105.99999999999999,386.75L106.99999999999999,385.6666666666667L108,384.5833333333333L109,383.5L110,382.41666666666663L111,381.3333333333333L111.99999999999999,380.25L113,379.16666666666663L114,378.0833333333333L115,377L116,375.91666666666663L116.99999999999999,374.8333333333333L118,373.75L119,372.66666666666663L120,371.5833333333333L121,370.5L121.99999999999999,369.41666666666663L123,368.3333333333333L124,367.25L125,366.16666666666663L126,365.0833333333333L127,364L127.99999999999999,362.9166666666667L129,361.8333333333333L130,360.75L131,359.66666666666663L132,358.5833333333333L133,357.5L134,356.41666666666663L135,355.3333333333333L136,354.25L137,353.16666666666663L138,352.0833333333333L139,351L140,349.91666666666663L141,348.83333333333337L142,347.75L143,346.66666666666663L144,345.58333333333337L145,344.5L146,343.41666666666663L147,342.33333333333337L148,341.25L149,340.16666666666663L150,339.0833333333333L150.99999999999997,338L152,336.91666666666663L153,335.8333333333333L154,334.75L155,333.66666666666663L156,332.5833333333333L157,331.5L158,330.41666666666663L159,329.3333333333333L160,328.25L161,327.1666666666667L162,326.0833333333333L163,325L164,323.91666666666663L165,322.8333333333333L166,321.75L167,320.66666666666663L167.99999999999997,319.5833333333333L169,318.5L170,317.41666666666663L171,316.3333333333333L172,315.25L172.99999999999997,314.16666666666663L174,313.0833333333333L175,312L176,310.91666666666663L177,309.8333333333333L177.99999999999997,308.75L179,307.66666666666663L180,306.5833333333333L181,305.5L182,304.41666666666663L182.99999999999997,303.33333333333337L184,302.25L185,301.16666666666663L186,300.0833333333333L187,299L187.99999999999997,297.91666666666663L189,296.8333333333333L190,295.75L191,294.66666666666663L192,293.5833333333333L192.99999999999997,292.5L194,291.41666666666663L194.99999999999997,290.33333333333337L196,289.25L197,288.16666666666663L198,287.0833333333333L199,286L199.99999999999997,284.91666666666663L201,283.8333333333333L202,282.75L203,281.66666666666663L204,280.58333333333326L204.99999999999997,279.5L206,278.41666666666663L207,277.33333333333326L208,276.25L209,275.16666666666663L209.99999999999997,274.0833333333333L211,273L212,271.91666666666663L213,270.8333333333333L214,269.75L214.99999999999997,268.66666666666663L216,267.5833333333333L217,266.5L218,265.41666666666663L219,264.3333333333333L219.99999999999997,263.25L221,262.16666666666663L222,261.08333333333326L223,260L224,258.91666666666663L224.99999999999997,257.8333333333333L226,256.75L227,255.66666666666663L228,254.58333333333331L229,253.49999999999997L229.99999999999997,252.41666666666663L231,251.3333333333333L231.99999999999997,250.24999999999997L233,249.16666666666663L234,248.0833333333333L235,246.99999999999997L236,245.91666666666663L236.99999999999997,244.83333333333334L238,243.74999999999997L239,242.66666666666663L240,241.58333333333334L241,240.49999999999997L241.99999999999997,239.41666666666669L243,238.33333333333331L244,237.24999999999997L245,236.16666666666663L246,235.08333333333331L246.99999999999997,233.99999999999997L248,232.91666666666663L248.99999999999997,231.83333333333331L250,230.74999999999997L251,229.66666666666663L251.99999999999997,228.58333333333331L252.99999999999997,227.50000000000003L254,226.41666666666663L255,225.33333333333331L255.99999999999997,224.24999999999994L257,223.16666666666663L258,222.08333333333331L259,220.99999999999994L260,219.91666666666663L261,218.83333333333331L262,217.74999999999994L263,216.66666666666669L264,215.58333333333331L265,214.49999999999994L266,213.41666666666669L267,212.33333333333326L268,211.24999999999994L269,210.16666666666669L270,209.08333333333326L271,207.99999999999994L272,206.91666666666669L273,205.83333333333331L274,204.74999999999994L275,203.66666666666669L276,202.58333333333331L277,201.49999999999994L278,200.41666666666663L279,199.33333333333331L279.99999999999994,198.25L281,197.16666666666663L282,196.08333333333331L282.99999999999994,195L284,193.91666666666663L285,192.83333333333331L286,191.75L287,190.66666666666663L288,189.58333333333331L289,188.5L289.99999999999994,187.41666666666663L291,186.33333333333331L292,185.24999999999994L293,184.16666666666663L293.2,183.95" stroke-width="2" stroke-linecap="round" stroke-linejoin="round" stroke-dasharray="6,8"></path><path transform="matrix(1,0,0,1,0,0)" fill="none" stroke="#ff0000" d="M293.2,183.95L294,183.95L295,183.95L296,183.95L297,183.95L298,183.95L299,183.95L299.99999999999994,183.95L301,183.95L302,183.95L303,183.95L304,183.95L305,183.95L306,183.95L307,183.95L308,183.95L309,183.95L309.99999999999994,183.95L311,183.95L312,183.95L313,183.95L314,183.95L315,183.95L316,183.95L316.99999999999994,183.95L318,183.95L319,183.95L319.99999999999994,183.95L321,183.95L322,183.95L323,183.95L324,183.95L325,183.95L326,183.95L326.99999999999994,183.95L328,183.95L329,183.95L330,183.95L331,183.95L332,183.95L333,183.95L334,183.95L335,183.95L336,183.95L336.99999999999994,183.95L338,183.95L339,183.95L340,183.95L341,183.95L342,183.95L343,183.95L343.99999999999994,183.95L345,183.95L346,183.95L346.99999999999994,183.95L348,183.95L349,183.95L350,183.95L351,183.95L352,183.95L353,183.95L353.99999999999994,183.95L355,183.95L356,183.95L356.99999999999994,183.95L358,183.95L359,183.95L360,183.95L361,183.95L362,183.95L363,183.95L363.99999999999994,183.95L365,183.95L366,183.95L366.99999999999994,183.95L368,183.95L369,183.95L370,183.95L370.99999999999994,183.95L372,183.95L373,183.95L373.99999999999994,183.95L375,183.95L376,183.95L377,183.95L378,183.95L379,183.95L380,183.95L380.99999999999994,183.95L382,183.95L383,183.95L383.99999999999994,183.95L385,183.95L386,183.95L387,183.95L388,183.95L389,183.95L390,183.95L390.99999999999994,183.95L392,183.95L393,183.95L393.99999999999994,183.95L395,183.95L396,183.95L397,183.95L398,183.95L399,183.95L400,183.95L400.99999999999994,183.95L402,183.95L403,183.95L403.99999999999994,183.95L405,183.95L406,183.95L407,183.95L407.99999999999994,183.95L409,183.95L410,183.95L410.99999999999994,183.95L412,183.95L413,183.95L414,183.95L415,183.95L416,183.95L417,183.95L417.99999999999994,183.95L419,183.95L420,183.95L420.99999999999994,183.95L422,183.95L423,183.95L424,183.95L425,183.95L426,183.95L427,183.95L427.99999999999994,183.95L429,183.95L430,183.95L430.99999999999994,183.95L432,183.95L433,183.95L434,183.95L435,183.95L436,183.95L437,183.95L437.99999999999994,183.95L439,183.95L440,183.95L440.99999999999994,183.95L442,183.95L443,183.95L444,183.95L444.99999999999994,183.95L446,183.95L447,183.95L447.99999999999994,183.95L449,183.95L450,183.95L451,183.95L452,183.95L453,183.95L454,183.95L454.99999999999994,183.95L456,183.95L457,183.95L457.99999999999994,183.95L459,183.95L460,183.95L461,183.95L462,183.95L463,183.95L464,183.95L464.99999999999994,183.95L466,183.95L467,183.95L467.99999999999994,183.95L469,183.95L470,183.95L471,183.95L471.99999999999994,183.95L473,183.95L474,183.95L474.99999999999994,183.95L476,183.95" stroke-width="2" stroke-linecap="round" stroke-linejoin="round" stroke-dasharray="6,8"></path><path transform="matrix(1,0,0,1,0,0)" fill="none" stroke="#ff0000" d="M133.25,347.61L133.25,367.61" stroke-width="3" stroke-linecap="round" stroke-linejoin="round" stroke-dasharray=""></path><path transform="matrix(1,0,0,1,0,0)" fill="none" stroke="#ff0000" d="M123.25,357.61L143.25,357.61" stroke-width="3" stroke-linecap="round" stroke-linejoin="round" stroke-dasharray=""></path><path transform="matrix(1,0,0,1,0,0)" fill="none" stroke="#ff0000" d="M247.5,221.93499999999997L247.5,241.93499999999997" stroke-width="3" stroke-linecap="round" stroke-linejoin="round" stroke-dasharray=""></path><path transform="matrix(1,0,0,1,0,0)" fill="none" stroke="#ff0000" d="M237.5,231.93499999999997L257.5,231.93499999999997" stroke-width="3" stroke-linecap="round" stroke-linejoin="round" stroke-dasharray=""></path><path transform="matrix(1,0,0,1,0,0)" fill="none" stroke="#ff0000" d="M361.75,173.95L361.75,193.95" stroke-width="3" stroke-linecap="round" stroke-linejoin="round" stroke-dasharray=""></path><path transform="matrix(1,0,0,1,0,0)" fill="none" stroke="#ff0000" d="M351.75,183.95L371.75,183.95" stroke-width="3" stroke-linecap="round" stroke-linejoin="round" stroke-dasharray=""></path><text transform="matrix(1,0,0,1,0,0)" style="text-anchor: middle; font: normal normal bold 12px/normal ;" x="133.25" y="495" text-anchor="middle" font-family="&quot;Arial&quot;" font-size="12px" stroke="white" fill="white" stroke-width="5" font-weight="bold"><tspan dy="4.361538461538462">1</tspan></text><text transform="matrix(1,0,0,1,0,0)" style="text-anchor: middle; font: normal normal normal 12px/normal ;" x="133.25" y="495" text-anchor="middle" font-family="&quot;Arial&quot;" font-size="12px" stroke="none" fill="#000000"><tspan dy="4.361538461538462">1</tspan></text><text transform="matrix(1,0,0,1,0,0)" style="text-anchor: middle; font: normal normal bold 12px/normal ;" x="247.5" y="495" text-anchor="middle" font-family="&quot;Arial&quot;" font-size="12px" stroke="white" fill="white" stroke-width="5" font-weight="bold"><tspan dy="4.361538461538462">2</tspan></text><text transform="matrix(1,0,0,1,0,0)" style="text-anchor: middle; font: normal normal normal 12px/normal ;" x="247.5" y="495" text-anchor="middle" font-family="&quot;Arial&quot;" font-size="12px" stroke="none" fill="#000000"><tspan dy="4.361538461538462">2</tspan></text><text transform="matrix(1,0,0,1,0,0)" style="text-anchor: middle; font: normal normal bold 12px/normal ;" x="361.75" y="495" text-anchor="middle" font-family="&quot;Arial&quot;" font-size="12px" stroke="white" fill="white" stroke-width="5" font-weight="bold"><tspan dy="4.361538461538462">3</tspan></text><text transform="matrix(1,0,0,1,0,0)" style="text-anchor: middle; font: normal normal normal 12px/normal ;" x="361.75" y="495" text-anchor="middle" font-family="&quot;Arial&quot;" font-size="12px" stroke="none" fill="#000000"><tspan dy="4.361538461538462">3</tspan></text><text transform="matrix(1,0,0,1,0,0)" style="text-anchor: middle; font: normal normal bold 12px/normal ;" x="476" y="495" text-anchor="middle" font-family="&quot;Arial&quot;" font-size="12px" stroke="white" fill="white" stroke-width="5" font-weight="bold"><tspan dy="4.361538461538462">4</tspan></text><text transform="matrix(1,0,0,1,0,0)" style="text-anchor: middle; font: normal normal normal 12px/normal ;" x="476" y="495" text-anchor="middle" font-family="&quot;Arial&quot;" font-size="12px" stroke="none" fill="#000000"><tspan dy="4.361538461538462">4</tspan></text><path transform="matrix(1,0,0,1,0,0)" fill="none" stroke="#000" d="M14,366.75L24,366.75"></path><text transform="matrix(1,0,0,1,0,0)" style="text-anchor: middle; font: normal normal bold 12px/normal ;" x="7" y="366.75" text-anchor="middle" font-family="&quot;Arial&quot;" font-size="12px" stroke="white" fill="white" stroke-width="5" font-weight="bold"><tspan dy="4.361538461538462">1</tspan></text><text transform="matrix(1,0,0,1,0,0)" style="text-anchor: middle; font: normal normal normal 12px/normal ;" x="7" y="366.75" text-anchor="middle" font-family="&quot;Arial&quot;" font-size="12px" stroke="none" fill="#000000"><tspan dy="4.361538461538462">1</tspan></text><path transform="matrix(1,0,0,1,0,0)" fill="none" stroke="#000" d="M14,252.5L24,252.5"></path><text transform="matrix(1,0,0,1,0,0)" style="text-anchor: middle; font: normal normal bold 12px/normal ;" x="7" y="252.5" text-anchor="middle" font-family="&quot;Arial&quot;" font-size="12px" stroke="white" fill="white" stroke-width="5" font-weight="bold"><tspan dy="4.361538461538462">2</tspan></text><text transform="matrix(1,0,0,1,0,0)" style="text-anchor: middle; font: normal normal normal 12px/normal ;" x="7" y="252.5" text-anchor="middle" font-family="&quot;Arial&quot;" font-size="12px" stroke="none" fill="#000000"><tspan dy="4.361538461538462">2</tspan></text><path transform="matrix(1,0,0,1,0,0)" fill="none" stroke="#000" d="M14,138.25L24,138.25"></path><text transform="matrix(1,0,0,1,0,0)" style="text-anchor: middle; font: normal normal bold 12px/normal ;" x="7" y="138.25" text-anchor="middle" font-family="&quot;Arial&quot;" font-size="12px" stroke="white" fill="white" stroke-width="5" font-weight="bold"><tspan dy="4.361538461538462">3</tspan></text><text transform="matrix(1,0,0,1,0,0)" style="text-anchor: middle; font: normal normal normal 12px/normal ;" x="7" y="138.25" text-anchor="middle" font-family="&quot;Arial&quot;" font-size="12px" stroke="none" fill="#000000"><tspan dy="4.361538461538462">3</tspan></text><path transform="matrix(1,0,0,1,0,0)" fill="none" stroke="#000" d="M14,24L24,24"></path><text transform="matrix(1,0,0,1,0,0)" style="text-anchor: middle; font: normal normal bold 12px/normal ;" x="7" y="24" text-anchor="middle" font-family="&quot;Arial&quot;" font-size="12px" stroke="white" fill="white" stroke-width="5" font-weight="bold"><tspan dy="4.361538461538462">4</tspan></text><text transform="matrix(1,0,0,1,0,0)" style="text-anchor: middle; font: normal normal normal 12px/normal ;" x="7" y="24" text-anchor="middle" font-family="&quot;Arial&quot;" font-size="12px" stroke="none" fill="#000000"><tspan dy="4.361538461538462">4</tspan></text></svg>