<svg xmlns="http://www.w3.org/2000/svg" width="20.79mm" height="13.73mm" viewBox="0 0 58.92 38.91">
  <title>Pourcentages</title>
  <rect x="1.11" y="9.67" width="56.69" height="28.35" fill="#e1e43c"/>
  <rect x="1.11" y="9.67" width="56.69" height="28.35" fill="none" stroke="#e1e43c" stroke-miterlimit="10"/>
  <rect x="43.63" y="10.56" width="14.17" height="26.56" fill="#d34f1d"/>
  <g>
    <path d="M19.23,1.81h0L18,2.48l-.18-.73L19.34.91h.83V8.06h-.94Z" fill="#642d10"/>
    <path d="M27.52,4.41c0,2.43-.9,3.77-2.48,3.77-1.4,0-2.35-1.31-2.37-3.67s1-3.72,2.49-3.72S27.52,2.13,27.52,4.41Zm-3.88.11c0,1.86.57,2.92,1.45,2.92s1.47-1.16,1.47-3-.45-2.91-1.46-2.91C24.26,1.54,23.64,2.57,23.64,4.52Z" fill="#642d10"/>
    <path d="M33.17,4.41c0,2.43-.9,3.77-2.49,3.77-1.4,0-2.34-1.31-2.36-3.67S29.35.79,30.8.79,33.17,2.13,33.17,4.41Zm-3.89.11c0,1.86.58,2.92,1.46,2.92s1.46-1.16,1.46-3-.45-2.91-1.45-2.91S29.28,2.57,29.28,4.52Z" fill="#642d10"/>
    <path d="M37.28,2.92c0,1.51-.79,2.26-1.72,2.26S33.9,4.46,33.89,3,34.67.79,35.62.79,37.28,1.56,37.28,2.92ZM34.66,3c0,.91.32,1.61.93,1.61s.92-.68.92-1.63-.25-1.6-.92-1.6S34.66,2.09,34.66,3Zm.84,5.19L39.7.79h.62L36.11,8.18Zm6.43-2.3c0,1.51-.79,2.26-1.7,2.26S38.57,7.42,38.56,6s.78-2.24,1.72-2.24S41.93,4.52,41.93,5.88ZM39.32,6c0,.91.34,1.61.93,1.61s.93-.69.93-1.63-.26-1.6-.93-1.6S39.32,5.05,39.32,6Z" fill="#642d10"/>
  </g>
  <g>
    <path d="M50.57,15.2h-.72V12.49h.72Z" fill="#e1e43c"/>
    <path d="M53.49,18.13v0l-.68-1.25.74-.18.84,1.56v.82H47.24v-.93Z" fill="#e1e43c"/>
    <path d="M50.89,26.42c-2.43,0-3.77-.9-3.77-2.48,0-1.4,1.3-2.35,3.67-2.37s3.72,1,3.72,2.49S53.17,26.42,50.89,26.42Zm-.11-3.88c-1.86,0-2.92.57-2.92,1.45s1.16,1.47,3,1.47S53.76,25,53.76,24C53.76,23.16,52.73,22.54,50.78,22.54Z" fill="#e1e43c"/>
    <path d="M47.12,28.75,54.51,33v.61l-7.39-4.2Zm2.29,6.44c-1.5,0-2.25-.79-2.25-1.7s.71-1.67,2.14-1.68,2.25.78,2.25,1.73S50.78,35.19,49.41,35.19Zm-.06-2.62c-.91,0-1.61.34-1.61.94s.68.92,1.63.92,1.6-.25,1.6-.92S50.25,32.57,49.35,32.57Zm3-2c-1.5,0-2.25-.8-2.25-1.72s.71-1.66,2.15-1.67,2.24.78,2.24,1.73S53.74,30.54,52.37,30.54Zm-.06-2.62c-.91,0-1.61.32-1.61.92s.68.93,1.63.93,1.6-.26,1.6-.93S53.21,27.92,52.31,27.92Z" fill="#e1e43c"/>
  </g>
  <g>
    <path d="M12.35,26.32a5.09,5.09,0,0,0,1,0,3.49,3.49,0,0,0,1.91-.89A4,4,0,0,0,16.45,23h0a2.67,2.67,0,0,1-2.15,1,2.63,2.63,0,0,1-2.68-2.79,3.11,3.11,0,0,1,3.11-3.23c1.86,0,3,1.51,3,3.84A5.78,5.78,0,0,1,16.13,26a4.53,4.53,0,0,1-2.65,1.22,6,6,0,0,1-1.13.07Zm.44-5.24A1.75,1.75,0,0,0,14.54,23a2,2,0,0,0,1.8-1,.81.81,0,0,0,.11-.45c0-1.55-.57-2.74-1.86-2.74C13.54,18.87,12.79,19.79,12.79,21.08Z" fill="#ee2b2f"/>
    <path d="M24.86,22.54c0,3.09-1.14,4.8-3.16,4.8-1.78,0-3-1.67-3-4.68s1.31-4.73,3.16-4.73S24.86,19.64,24.86,22.54Zm-4.94.14c0,2.36.73,3.71,1.85,3.71s1.86-1.47,1.86-3.8-.57-3.71-1.85-3.71C20.7,18.88,19.92,20.2,19.92,22.68Z" fill="#ee2b2f"/>
    <path d="M30.1,20.65c0,1.91-1,2.87-2.19,2.87s-2.11-.91-2.12-2.75,1-2.84,2.19-2.84S30.1,18.91,30.1,20.65Zm-3.33.08c0,1.16.4,2,1.17,2s1.18-.86,1.18-2.07-.32-2-1.18-2S26.77,19.58,26.77,20.73Zm1.06,6.61,5.35-9.41H34l-5.36,9.41ZM36,24.41c0,1.92-1,2.88-2.17,2.88s-2.11-.91-2.13-2.74,1-2.85,2.2-2.85S36,22.68,36,24.41Zm-3.33.09c0,1.16.44,2,1.19,2s1.18-.87,1.18-2.07-.32-2-1.18-2S32.69,23.35,32.69,24.5Z" fill="#ee2b2f"/>
  </g>
  <path d="M42.88,11.31V36.37h-41V11.31h41m.75-.75H1.11V37.12H43.63V10.56Z" fill="#ee2b2f"/>
</svg>
