<svg style="overflow: hidden; position: relative;" xmlns="http://www.w3.org/2000/svg" xmlns:xlink="http://www.w3.org/1999/xlink" width="500" version="1.1" height="700"><path transform="matrix(1,0,0,1,0,0)" fill="none" stroke="#000000" d="M36,36L36,669" stroke-width="2" stroke-linecap="round" stroke-linejoin="round"></path><path transform="matrix(1,0,0,1,0,0)" fill="none" stroke="#000000" d="M120.6,36L120.6,669" stroke-width="2" stroke-linecap="round" stroke-linejoin="round"></path><path transform="matrix(1,0,0,1,0,0)" fill="none" stroke="#000000" d="M205.2,36L205.2,669" stroke-width="2" stroke-linecap="round" stroke-linejoin="round"></path><path transform="matrix(1,0,0,1,0,0)" fill="none" stroke="#000000" d="M289.79999999999995,36L289.79999999999995,669" stroke-width="2" stroke-linecap="round" stroke-linejoin="round"></path><path transform="matrix(1,0,0,1,0,0)" fill="none" stroke="#000000" d="M374.4,36L374.4,669" stroke-width="2" stroke-linecap="round" stroke-linejoin="round"></path><path transform="matrix(1,0,0,1,0,0)" fill="none" stroke="#000000" d="M459,36L459,669" stroke-width="2" stroke-linecap="round" stroke-linejoin="round"></path><path transform="matrix(1,0,0,1,0,0)" fill="none" stroke="#000000" d="M31,664L464,664" stroke-width="2" stroke-linecap="round" stroke-linejoin="round"></path><path transform="matrix(1,0,0,1,0,0)" fill="none" stroke="#000000" d="M31,560.1666666666666L464,560.1666666666666" stroke-width="2" stroke-linecap="round" stroke-linejoin="round"></path><path transform="matrix(1,0,0,1,0,0)" fill="none" stroke="#000000" d="M31,456.33333333333337L464,456.33333333333337" stroke-width="2" stroke-linecap="round" stroke-linejoin="round"></path><path transform="matrix(1,0,0,1,0,0)" fill="none" stroke="#000000" d="M31,352.5L464,352.5" stroke-width="2" stroke-linecap="round" stroke-linejoin="round"></path><path transform="matrix(1,0,0,1,0,0)" fill="none" stroke="#000000" d="M31,248.66666666666669L464,248.66666666666669" stroke-width="2" stroke-linecap="round" stroke-linejoin="round"></path><path transform="matrix(1,0,0,1,0,0)" fill="none" stroke="#000000" d="M31,144.83333333333337L464,144.83333333333337" stroke-width="2" stroke-linecap="round" stroke-linejoin="round"></path><path transform="matrix(1,0,0,1,0,0)" fill="none" stroke="#000000" d="M31,41L464,41" stroke-width="2" stroke-linecap="round" stroke-linejoin="round"></path><path transform="matrix(1,0,0,1,0,0)" fill="none" stroke="#505050" d="M52.92,36L52.92,669" stroke-width="1" stroke-linecap="round" stroke-linejoin="round"></path><path transform="matrix(1,0,0,1,0,0)" fill="none" stroke="#505050" d="M69.84,36L69.84,669" stroke-width="1" stroke-linecap="round" stroke-linejoin="round"></path><path transform="matrix(1,0,0,1,0,0)" fill="none" stroke="#505050" d="M86.75999999999999,36L86.75999999999999,669" stroke-width="1" stroke-linecap="round" stroke-linejoin="round"></path><path transform="matrix(1,0,0,1,0,0)" fill="none" stroke="#505050" d="M103.67999999999999,36L103.67999999999999,669" stroke-width="1" stroke-linecap="round" stroke-linejoin="round"></path><path transform="matrix(1,0,0,1,0,0)" fill="none" stroke="#505050" d="M137.51999999999998,36L137.51999999999998,669" stroke-width="1" stroke-linecap="round" stroke-linejoin="round"></path><path transform="matrix(1,0,0,1,0,0)" fill="none" stroke="#505050" d="M154.44,36L154.44,669" stroke-width="1" stroke-linecap="round" stroke-linejoin="round"></path><path transform="matrix(1,0,0,1,0,0)" fill="none" stroke="#505050" d="M171.35999999999999,36L171.35999999999999,669" stroke-width="1" stroke-linecap="round" stroke-linejoin="round"></path><path transform="matrix(1,0,0,1,0,0)" fill="none" stroke="#505050" d="M188.27999999999997,36L188.27999999999997,669" stroke-width="1" stroke-linecap="round" stroke-linejoin="round"></path><path transform="matrix(1,0,0,1,0,0)" fill="none" stroke="#505050" d="M222.11999999999998,36L222.11999999999998,669" stroke-width="1" stroke-linecap="round" stroke-linejoin="round"></path><path transform="matrix(1,0,0,1,0,0)" fill="none" stroke="#505050" d="M239.04,36L239.04,669" stroke-width="1" stroke-linecap="round" stroke-linejoin="round"></path><path transform="matrix(1,0,0,1,0,0)" fill="none" stroke="#505050" d="M255.95999999999998,36L255.95999999999998,669" stroke-width="1" stroke-linecap="round" stroke-linejoin="round"></path><path transform="matrix(1,0,0,1,0,0)" fill="none" stroke="#505050" d="M272.88,36L272.88,669" stroke-width="1" stroke-linecap="round" stroke-linejoin="round"></path><path transform="matrix(1,0,0,1,0,0)" fill="none" stroke="#505050" d="M306.71999999999997,36L306.71999999999997,669" stroke-width="1" stroke-linecap="round" stroke-linejoin="round"></path><path transform="matrix(1,0,0,1,0,0)" fill="none" stroke="#505050" d="M323.63999999999993,36L323.63999999999993,669" stroke-width="1" stroke-linecap="round" stroke-linejoin="round"></path><path transform="matrix(1,0,0,1,0,0)" fill="none" stroke="#505050" d="M340.55999999999995,36L340.55999999999995,669" stroke-width="1" stroke-linecap="round" stroke-linejoin="round"></path><path transform="matrix(1,0,0,1,0,0)" fill="none" stroke="#505050" d="M357.47999999999996,36L357.47999999999996,669" stroke-width="1" stroke-linecap="round" stroke-linejoin="round"></path><path transform="matrix(1,0,0,1,0,0)" fill="none" stroke="#505050" d="M391.32,36L391.32,669" stroke-width="1" stroke-linecap="round" stroke-linejoin="round"></path><path transform="matrix(1,0,0,1,0,0)" fill="none" stroke="#505050" d="M408.23999999999995,36L408.23999999999995,669" stroke-width="1" stroke-linecap="round" stroke-linejoin="round"></path><path transform="matrix(1,0,0,1,0,0)" fill="none" stroke="#505050" d="M425.15999999999997,36L425.15999999999997,669" stroke-width="1" stroke-linecap="round" stroke-linejoin="round"></path><path transform="matrix(1,0,0,1,0,0)" fill="none" stroke="#505050" d="M442.08,36L442.08,669" stroke-width="1" stroke-linecap="round" stroke-linejoin="round"></path><path transform="matrix(1,0,0,1,0,0)" fill="none" stroke="#505050" d="M31,653.6166666666667L464,653.6166666666667" stroke-width="1" stroke-linecap="round" stroke-linejoin="round"></path><path transform="matrix(1,0,0,1,0,0)" fill="none" stroke="#505050" d="M31,643.2333333333333L464,643.2333333333333" stroke-width="1" stroke-linecap="round" stroke-linejoin="round"></path><path transform="matrix(1,0,0,1,0,0)" fill="none" stroke="#505050" d="M31,632.85L464,632.85" stroke-width="1" stroke-linecap="round" stroke-linejoin="round"></path><path transform="matrix(1,0,0,1,0,0)" fill="none" stroke="#505050" d="M31,622.4666666666667L464,622.4666666666667" stroke-width="1" stroke-linecap="round" stroke-linejoin="round"></path><path transform="matrix(1,0,0,1,0,0)" fill="none" stroke="#505050" d="M31,612.0833333333334L464,612.0833333333334" stroke-width="1" stroke-linecap="round" stroke-linejoin="round"></path><path transform="matrix(1,0,0,1,0,0)" fill="none" stroke="#505050" d="M31,601.7L464,601.7" stroke-width="1" stroke-linecap="round" stroke-linejoin="round"></path><path transform="matrix(1,0,0,1,0,0)" fill="none" stroke="#505050" d="M31,591.3166666666666L464,591.3166666666666" stroke-width="1" stroke-linecap="round" stroke-linejoin="round"></path><path transform="matrix(1,0,0,1,0,0)" fill="none" stroke="#505050" d="M31,580.9333333333334L464,580.9333333333334" stroke-width="1" stroke-linecap="round" stroke-linejoin="round"></path><path transform="matrix(1,0,0,1,0,0)" fill="none" stroke="#505050" d="M31,570.55L464,570.55" stroke-width="1" stroke-linecap="round" stroke-linejoin="round"></path><path transform="matrix(1,0,0,1,0,0)" fill="none" stroke="#505050" d="M31,549.7833333333333L464,549.7833333333333" stroke-width="1" stroke-linecap="round" stroke-linejoin="round"></path><path transform="matrix(1,0,0,1,0,0)" fill="none" stroke="#505050" d="M31,539.4L464,539.4" stroke-width="1" stroke-linecap="round" stroke-linejoin="round"></path><path transform="matrix(1,0,0,1,0,0)" fill="none" stroke="#505050" d="M31,529.0166666666667L464,529.0166666666667" stroke-width="1" stroke-linecap="round" stroke-linejoin="round"></path><path transform="matrix(1,0,0,1,0,0)" fill="none" stroke="#505050" d="M31,518.6333333333333L464,518.6333333333333" stroke-width="1" stroke-linecap="round" stroke-linejoin="round"></path><path transform="matrix(1,0,0,1,0,0)" fill="none" stroke="#505050" d="M31,508.24999999999994L464,508.24999999999994" stroke-width="1" stroke-linecap="round" stroke-linejoin="round"></path><path transform="matrix(1,0,0,1,0,0)" fill="none" stroke="#505050" d="M31,497.8666666666666L464,497.8666666666666" stroke-width="1" stroke-linecap="round" stroke-linejoin="round"></path><path transform="matrix(1,0,0,1,0,0)" fill="none" stroke="#505050" d="M31,487.4833333333333L464,487.4833333333333" stroke-width="1" stroke-linecap="round" stroke-linejoin="round"></path><path transform="matrix(1,0,0,1,0,0)" fill="none" stroke="#505050" d="M31,477.09999999999997L464,477.09999999999997" stroke-width="1" stroke-linecap="round" stroke-linejoin="round"></path><path transform="matrix(1,0,0,1,0,0)" fill="none" stroke="#505050" d="M31,466.71666666666664L464,466.71666666666664" stroke-width="1" stroke-linecap="round" stroke-linejoin="round"></path><path transform="matrix(1,0,0,1,0,0)" fill="none" stroke="#505050" d="M31,445.95000000000005L464,445.95000000000005" stroke-width="1" stroke-linecap="round" stroke-linejoin="round"></path><path transform="matrix(1,0,0,1,0,0)" fill="none" stroke="#505050" d="M31,435.5666666666667L464,435.5666666666667" stroke-width="1" stroke-linecap="round" stroke-linejoin="round"></path><path transform="matrix(1,0,0,1,0,0)" fill="none" stroke="#505050" d="M31,425.1833333333334L464,425.1833333333334" stroke-width="1" stroke-linecap="round" stroke-linejoin="round"></path><path transform="matrix(1,0,0,1,0,0)" fill="none" stroke="#505050" d="M31,414.80000000000007L464,414.80000000000007" stroke-width="1" stroke-linecap="round" stroke-linejoin="round"></path><path transform="matrix(1,0,0,1,0,0)" fill="none" stroke="#505050" d="M31,404.4166666666667L464,404.4166666666667" stroke-width="1" stroke-linecap="round" stroke-linejoin="round"></path><path transform="matrix(1,0,0,1,0,0)" fill="none" stroke="#505050" d="M31,394.03333333333336L464,394.03333333333336" stroke-width="1" stroke-linecap="round" stroke-linejoin="round"></path><path transform="matrix(1,0,0,1,0,0)" fill="none" stroke="#505050" d="M31,383.65000000000003L464,383.65000000000003" stroke-width="1" stroke-linecap="round" stroke-linejoin="round"></path><path transform="matrix(1,0,0,1,0,0)" fill="none" stroke="#505050" d="M31,373.2666666666667L464,373.2666666666667" stroke-width="1" stroke-linecap="round" stroke-linejoin="round"></path><path transform="matrix(1,0,0,1,0,0)" fill="none" stroke="#505050" d="M31,362.8833333333334L464,362.8833333333334" stroke-width="1" stroke-linecap="round" stroke-linejoin="round"></path><path transform="matrix(1,0,0,1,0,0)" fill="none" stroke="#505050" d="M31,342.1166666666667L464,342.1166666666667" stroke-width="1" stroke-linecap="round" stroke-linejoin="round"></path><path transform="matrix(1,0,0,1,0,0)" fill="none" stroke="#505050" d="M31,331.73333333333335L464,331.73333333333335" stroke-width="1" stroke-linecap="round" stroke-linejoin="round"></path><path transform="matrix(1,0,0,1,0,0)" fill="none" stroke="#505050" d="M31,321.35L464,321.35" stroke-width="1" stroke-linecap="round" stroke-linejoin="round"></path><path transform="matrix(1,0,0,1,0,0)" fill="none" stroke="#505050" d="M31,310.9666666666667L464,310.9666666666667" stroke-width="1" stroke-linecap="round" stroke-linejoin="round"></path><path transform="matrix(1,0,0,1,0,0)" fill="none" stroke="#505050" d="M31,300.5833333333333L464,300.5833333333333" stroke-width="1" stroke-linecap="round" stroke-linejoin="round"></path><path transform="matrix(1,0,0,1,0,0)" fill="none" stroke="#505050" d="M31,290.2L464,290.2" stroke-width="1" stroke-linecap="round" stroke-linejoin="round"></path><path transform="matrix(1,0,0,1,0,0)" fill="none" stroke="#505050" d="M31,279.81666666666666L464,279.81666666666666" stroke-width="1" stroke-linecap="round" stroke-linejoin="round"></path><path transform="matrix(1,0,0,1,0,0)" fill="none" stroke="#505050" d="M31,269.43333333333334L464,269.43333333333334" stroke-width="1" stroke-linecap="round" stroke-linejoin="round"></path><path transform="matrix(1,0,0,1,0,0)" fill="none" stroke="#505050" d="M31,259.05L464,259.05" stroke-width="1" stroke-linecap="round" stroke-linejoin="round"></path><path transform="matrix(1,0,0,1,0,0)" fill="none" stroke="#505050" d="M31,238.28333333333336L464,238.28333333333336" stroke-width="1" stroke-linecap="round" stroke-linejoin="round"></path><path transform="matrix(1,0,0,1,0,0)" fill="none" stroke="#505050" d="M31,227.90000000000003L464,227.90000000000003" stroke-width="1" stroke-linecap="round" stroke-linejoin="round"></path><path transform="matrix(1,0,0,1,0,0)" fill="none" stroke="#505050" d="M31,217.51666666666668L464,217.51666666666668" stroke-width="1" stroke-linecap="round" stroke-linejoin="round"></path><path transform="matrix(1,0,0,1,0,0)" fill="none" stroke="#505050" d="M31,207.13333333333335L464,207.13333333333335" stroke-width="1" stroke-linecap="round" stroke-linejoin="round"></path><path transform="matrix(1,0,0,1,0,0)" fill="none" stroke="#505050" d="M31,196.75000000000003L464,196.75000000000003" stroke-width="1" stroke-linecap="round" stroke-linejoin="round"></path><path transform="matrix(1,0,0,1,0,0)" fill="none" stroke="#505050" d="M31,186.36666666666667L464,186.36666666666667" stroke-width="1" stroke-linecap="round" stroke-linejoin="round"></path><path transform="matrix(1,0,0,1,0,0)" fill="none" stroke="#505050" d="M31,175.98333333333335L464,175.98333333333335" stroke-width="1" stroke-linecap="round" stroke-linejoin="round"></path><path transform="matrix(1,0,0,1,0,0)" fill="none" stroke="#505050" d="M31,165.60000000000002L464,165.60000000000002" stroke-width="1" stroke-linecap="round" stroke-linejoin="round"></path><path transform="matrix(1,0,0,1,0,0)" fill="none" stroke="#505050" d="M31,155.2166666666667L464,155.2166666666667" stroke-width="1" stroke-linecap="round" stroke-linejoin="round"></path><path transform="matrix(1,0,0,1,0,0)" fill="none" stroke="#505050" d="M31,134.45000000000005L464,134.45000000000005" stroke-width="1" stroke-linecap="round" stroke-linejoin="round"></path><path transform="matrix(1,0,0,1,0,0)" fill="none" stroke="#505050" d="M31,124.0666666666667L464,124.0666666666667" stroke-width="1" stroke-linecap="round" stroke-linejoin="round"></path><path transform="matrix(1,0,0,1,0,0)" fill="none" stroke="#505050" d="M31,113.68333333333337L464,113.68333333333337" stroke-width="1" stroke-linecap="round" stroke-linejoin="round"></path><path transform="matrix(1,0,0,1,0,0)" fill="none" stroke="#505050" d="M31,103.30000000000004L464,103.30000000000004" stroke-width="1" stroke-linecap="round" stroke-linejoin="round"></path><path transform="matrix(1,0,0,1,0,0)" fill="none" stroke="#505050" d="M31,92.91666666666671L464,92.91666666666671" stroke-width="1" stroke-linecap="round" stroke-linejoin="round"></path><path transform="matrix(1,0,0,1,0,0)" fill="none" stroke="#505050" d="M31,82.53333333333337L464,82.53333333333337" stroke-width="1" stroke-linecap="round" stroke-linejoin="round"></path><path transform="matrix(1,0,0,1,0,0)" fill="none" stroke="#505050" d="M31,72.15000000000003L464,72.15000000000003" stroke-width="1" stroke-linecap="round" stroke-linejoin="round"></path><path transform="matrix(1,0,0,1,0,0)" fill="none" stroke="#505050" d="M31,61.76666666666671L464,61.76666666666671" stroke-width="1" stroke-linecap="round" stroke-linejoin="round"></path><path transform="matrix(1,0,0,1,0,0)" fill="none" stroke="#505050" d="M31,51.38333333333338L464,51.38333333333338" stroke-width="1" stroke-linecap="round" stroke-linejoin="round"></path><path transform="matrix(1,0,0,1,0,0)" fill="none" stroke="#000000" d="M52.92,661.5L52.92,666.5" stroke-width="2" stroke-linecap="round" stroke-linejoin="round"></path><path transform="matrix(1,0,0,1,0,0)" fill="none" stroke="#000000" d="M69.84,661.5L69.84,666.5" stroke-width="2" stroke-linecap="round" stroke-linejoin="round"></path><path transform="matrix(1,0,0,1,0,0)" fill="none" stroke="#000000" d="M86.75999999999999,661.5L86.75999999999999,666.5" stroke-width="2" stroke-linecap="round" stroke-linejoin="round"></path><path transform="matrix(1,0,0,1,0,0)" fill="none" stroke="#000000" d="M103.67999999999999,661.5L103.67999999999999,666.5" stroke-width="2" stroke-linecap="round" stroke-linejoin="round"></path><path transform="matrix(1,0,0,1,0,0)" fill="none" stroke="#000000" d="M120.6,659L120.6,669" stroke-width="3" stroke-linecap="round" stroke-linejoin="round"></path><path transform="matrix(1,0,0,1,0,0)" fill="none" stroke="#000000" d="M137.51999999999998,661.5L137.51999999999998,666.5" stroke-width="2" stroke-linecap="round" stroke-linejoin="round"></path><path transform="matrix(1,0,0,1,0,0)" fill="none" stroke="#000000" d="M154.44,661.5L154.44,666.5" stroke-width="2" stroke-linecap="round" stroke-linejoin="round"></path><path transform="matrix(1,0,0,1,0,0)" fill="none" stroke="#000000" d="M171.35999999999999,661.5L171.35999999999999,666.5" stroke-width="2" stroke-linecap="round" stroke-linejoin="round"></path><path transform="matrix(1,0,0,1,0,0)" fill="none" stroke="#000000" d="M188.27999999999997,661.5L188.27999999999997,666.5" stroke-width="2" stroke-linecap="round" stroke-linejoin="round"></path><path transform="matrix(1,0,0,1,0,0)" fill="none" stroke="#000000" d="M205.2,659L205.2,669" stroke-width="3" stroke-linecap="round" stroke-linejoin="round"></path><path transform="matrix(1,0,0,1,0,0)" fill="none" stroke="#000000" d="M222.11999999999998,661.5L222.11999999999998,666.5" stroke-width="2" stroke-linecap="round" stroke-linejoin="round"></path><path transform="matrix(1,0,0,1,0,0)" fill="none" stroke="#000000" d="M239.04,661.5L239.04,666.5" stroke-width="2" stroke-linecap="round" stroke-linejoin="round"></path><path transform="matrix(1,0,0,1,0,0)" fill="none" stroke="#000000" d="M255.95999999999998,661.5L255.95999999999998,666.5" stroke-width="2" stroke-linecap="round" stroke-linejoin="round"></path><path transform="matrix(1,0,0,1,0,0)" fill="none" stroke="#000000" d="M272.88,661.5L272.88,666.5" stroke-width="2" stroke-linecap="round" stroke-linejoin="round"></path><path transform="matrix(1,0,0,1,0,0)" fill="none" stroke="#000000" d="M289.79999999999995,659L289.79999999999995,669" stroke-width="3" stroke-linecap="round" stroke-linejoin="round"></path><path transform="matrix(1,0,0,1,0,0)" fill="none" stroke="#000000" d="M306.71999999999997,661.5L306.71999999999997,666.5" stroke-width="2" stroke-linecap="round" stroke-linejoin="round"></path><path transform="matrix(1,0,0,1,0,0)" fill="none" stroke="#000000" d="M323.63999999999993,661.5L323.63999999999993,666.5" stroke-width="2" stroke-linecap="round" stroke-linejoin="round"></path><path transform="matrix(1,0,0,1,0,0)" fill="none" stroke="#000000" d="M340.55999999999995,661.5L340.55999999999995,666.5" stroke-width="2" stroke-linecap="round" stroke-linejoin="round"></path><path transform="matrix(1,0,0,1,0,0)" fill="none" stroke="#000000" d="M357.47999999999996,661.5L357.47999999999996,666.5" stroke-width="2" stroke-linecap="round" stroke-linejoin="round"></path><path transform="matrix(1,0,0,1,0,0)" fill="none" stroke="#000000" d="M374.4,659L374.4,669" stroke-width="3" stroke-linecap="round" stroke-linejoin="round"></path><path transform="matrix(1,0,0,1,0,0)" fill="none" stroke="#000000" d="M391.32,661.5L391.32,666.5" stroke-width="2" stroke-linecap="round" stroke-linejoin="round"></path><path transform="matrix(1,0,0,1,0,0)" fill="none" stroke="#000000" d="M408.23999999999995,661.5L408.23999999999995,666.5" stroke-width="2" stroke-linecap="round" stroke-linejoin="round"></path><path transform="matrix(1,0,0,1,0,0)" fill="none" stroke="#000000" d="M425.15999999999997,661.5L425.15999999999997,666.5" stroke-width="2" stroke-linecap="round" stroke-linejoin="round"></path><path transform="matrix(1,0,0,1,0,0)" fill="none" stroke="#000000" d="M442.08,661.5L442.08,666.5" stroke-width="2" stroke-linecap="round" stroke-linejoin="round"></path><path transform="matrix(1,0,0,1,0,0)" fill="none" stroke="#000000" d="M459,659L459,669" stroke-width="3" stroke-linecap="round" stroke-linejoin="round"></path><path transform="matrix(1,0,0,1,0,0)" fill="none" stroke="#000000" d="M33.5,653.6166666666667L38.5,653.6166666666667" stroke-width="2" stroke-linecap="round" stroke-linejoin="round"></path><path transform="matrix(1,0,0,1,0,0)" fill="none" stroke="#000000" d="M33.5,643.2333333333333L38.5,643.2333333333333" stroke-width="2" stroke-linecap="round" stroke-linejoin="round"></path><path transform="matrix(1,0,0,1,0,0)" fill="none" stroke="#000000" d="M33.5,632.85L38.5,632.85" stroke-width="2" stroke-linecap="round" stroke-linejoin="round"></path><path transform="matrix(1,0,0,1,0,0)" fill="none" stroke="#000000" d="M33.5,622.4666666666667L38.5,622.4666666666667" stroke-width="2" stroke-linecap="round" stroke-linejoin="round"></path><path transform="matrix(1,0,0,1,0,0)" fill="none" stroke="#000000" d="M33.5,612.0833333333334L38.5,612.0833333333334" stroke-width="2" stroke-linecap="round" stroke-linejoin="round"></path><path transform="matrix(1,0,0,1,0,0)" fill="none" stroke="#000000" d="M33.5,601.7L38.5,601.7" stroke-width="2" stroke-linecap="round" stroke-linejoin="round"></path><path transform="matrix(1,0,0,1,0,0)" fill="none" stroke="#000000" d="M33.5,591.3166666666666L38.5,591.3166666666666" stroke-width="2" stroke-linecap="round" stroke-linejoin="round"></path><path transform="matrix(1,0,0,1,0,0)" fill="none" stroke="#000000" d="M33.5,580.9333333333334L38.5,580.9333333333334" stroke-width="2" stroke-linecap="round" stroke-linejoin="round"></path><path transform="matrix(1,0,0,1,0,0)" fill="none" stroke="#000000" d="M33.5,570.55L38.5,570.55" stroke-width="2" stroke-linecap="round" stroke-linejoin="round"></path><path transform="matrix(1,0,0,1,0,0)" fill="none" stroke="#000000" d="M31,560.1666666666666L41,560.1666666666666" stroke-width="3" stroke-linecap="round" stroke-linejoin="round"></path><path transform="matrix(1,0,0,1,0,0)" fill="none" stroke="#000000" d="M33.5,549.7833333333333L38.5,549.7833333333333" stroke-width="2" stroke-linecap="round" stroke-linejoin="round"></path><path transform="matrix(1,0,0,1,0,0)" fill="none" stroke="#000000" d="M33.5,539.4L38.5,539.4" stroke-width="2" stroke-linecap="round" stroke-linejoin="round"></path><path transform="matrix(1,0,0,1,0,0)" fill="none" stroke="#000000" d="M33.5,529.0166666666667L38.5,529.0166666666667" stroke-width="2" stroke-linecap="round" stroke-linejoin="round"></path><path transform="matrix(1,0,0,1,0,0)" fill="none" stroke="#000000" d="M33.5,518.6333333333333L38.5,518.6333333333333" stroke-width="2" stroke-linecap="round" stroke-linejoin="round"></path><path transform="matrix(1,0,0,1,0,0)" fill="none" stroke="#000000" d="M33.5,508.24999999999994L38.5,508.24999999999994" stroke-width="2" stroke-linecap="round" stroke-linejoin="round"></path><path transform="matrix(1,0,0,1,0,0)" fill="none" stroke="#000000" d="M33.5,497.8666666666666L38.5,497.8666666666666" stroke-width="2" stroke-linecap="round" stroke-linejoin="round"></path><path transform="matrix(1,0,0,1,0,0)" fill="none" stroke="#000000" d="M33.5,487.4833333333333L38.5,487.4833333333333" stroke-width="2" stroke-linecap="round" stroke-linejoin="round"></path><path transform="matrix(1,0,0,1,0,0)" fill="none" stroke="#000000" d="M33.5,477.09999999999997L38.5,477.09999999999997" stroke-width="2" stroke-linecap="round" stroke-linejoin="round"></path><path transform="matrix(1,0,0,1,0,0)" fill="none" stroke="#000000" d="M33.5,466.71666666666664L38.5,466.71666666666664" stroke-width="2" stroke-linecap="round" stroke-linejoin="round"></path><path transform="matrix(1,0,0,1,0,0)" fill="none" stroke="#000000" d="M31,456.33333333333337L41,456.33333333333337" stroke-width="3" stroke-linecap="round" stroke-linejoin="round"></path><path transform="matrix(1,0,0,1,0,0)" fill="none" stroke="#000000" d="M33.5,445.95000000000005L38.5,445.95000000000005" stroke-width="2" stroke-linecap="round" stroke-linejoin="round"></path><path transform="matrix(1,0,0,1,0,0)" fill="none" stroke="#000000" d="M33.5,435.5666666666667L38.5,435.5666666666667" stroke-width="2" stroke-linecap="round" stroke-linejoin="round"></path><path transform="matrix(1,0,0,1,0,0)" fill="none" stroke="#000000" d="M33.5,425.1833333333334L38.5,425.1833333333334" stroke-width="2" stroke-linecap="round" stroke-linejoin="round"></path><path transform="matrix(1,0,0,1,0,0)" fill="none" stroke="#000000" d="M33.5,414.80000000000007L38.5,414.80000000000007" stroke-width="2" stroke-linecap="round" stroke-linejoin="round"></path><path transform="matrix(1,0,0,1,0,0)" fill="none" stroke="#000000" d="M33.5,404.4166666666667L38.5,404.4166666666667" stroke-width="2" stroke-linecap="round" stroke-linejoin="round"></path><path transform="matrix(1,0,0,1,0,0)" fill="none" stroke="#000000" d="M33.5,394.03333333333336L38.5,394.03333333333336" stroke-width="2" stroke-linecap="round" stroke-linejoin="round"></path><path transform="matrix(1,0,0,1,0,0)" fill="none" stroke="#000000" d="M33.5,383.65000000000003L38.5,383.65000000000003" stroke-width="2" stroke-linecap="round" stroke-linejoin="round"></path><path transform="matrix(1,0,0,1,0,0)" fill="none" stroke="#000000" d="M33.5,373.2666666666667L38.5,373.2666666666667" stroke-width="2" stroke-linecap="round" stroke-linejoin="round"></path><path transform="matrix(1,0,0,1,0,0)" fill="none" stroke="#000000" d="M33.5,362.8833333333334L38.5,362.8833333333334" stroke-width="2" stroke-linecap="round" stroke-linejoin="round"></path><path transform="matrix(1,0,0,1,0,0)" fill="none" stroke="#000000" d="M31,352.5L41,352.5" stroke-width="3" stroke-linecap="round" stroke-linejoin="round"></path><path transform="matrix(1,0,0,1,0,0)" fill="none" stroke="#000000" d="M33.5,342.1166666666667L38.5,342.1166666666667" stroke-width="2" stroke-linecap="round" stroke-linejoin="round"></path><path transform="matrix(1,0,0,1,0,0)" fill="none" stroke="#000000" d="M33.5,331.73333333333335L38.5,331.73333333333335" stroke-width="2" stroke-linecap="round" stroke-linejoin="round"></path><path transform="matrix(1,0,0,1,0,0)" fill="none" stroke="#000000" d="M33.5,321.35L38.5,321.35" stroke-width="2" stroke-linecap="round" stroke-linejoin="round"></path><path transform="matrix(1,0,0,1,0,0)" fill="none" stroke="#000000" d="M33.5,310.9666666666667L38.5,310.9666666666667" stroke-width="2" stroke-linecap="round" stroke-linejoin="round"></path><path transform="matrix(1,0,0,1,0,0)" fill="none" stroke="#000000" d="M33.5,300.5833333333333L38.5,300.5833333333333" stroke-width="2" stroke-linecap="round" stroke-linejoin="round"></path><path transform="matrix(1,0,0,1,0,0)" fill="none" stroke="#000000" d="M33.5,290.2L38.5,290.2" stroke-width="2" stroke-linecap="round" stroke-linejoin="round"></path><path transform="matrix(1,0,0,1,0,0)" fill="none" stroke="#000000" d="M33.5,279.81666666666666L38.5,279.81666666666666" stroke-width="2" stroke-linecap="round" stroke-linejoin="round"></path><path transform="matrix(1,0,0,1,0,0)" fill="none" stroke="#000000" d="M33.5,269.43333333333334L38.5,269.43333333333334" stroke-width="2" stroke-linecap="round" stroke-linejoin="round"></path><path transform="matrix(1,0,0,1,0,0)" fill="none" stroke="#000000" d="M33.5,259.05L38.5,259.05" stroke-width="2" stroke-linecap="round" stroke-linejoin="round"></path><path transform="matrix(1,0,0,1,0,0)" fill="none" stroke="#000000" d="M31,248.66666666666669L41,248.66666666666669" stroke-width="3" stroke-linecap="round" stroke-linejoin="round"></path><path transform="matrix(1,0,0,1,0,0)" fill="none" stroke="#000000" d="M33.5,238.28333333333336L38.5,238.28333333333336" stroke-width="2" stroke-linecap="round" stroke-linejoin="round"></path><path transform="matrix(1,0,0,1,0,0)" fill="none" stroke="#000000" d="M33.5,227.90000000000003L38.5,227.90000000000003" stroke-width="2" stroke-linecap="round" stroke-linejoin="round"></path><path transform="matrix(1,0,0,1,0,0)" fill="none" stroke="#000000" d="M33.5,217.51666666666668L38.5,217.51666666666668" stroke-width="2" stroke-linecap="round" stroke-linejoin="round"></path><path transform="matrix(1,0,0,1,0,0)" fill="none" stroke="#000000" d="M33.5,207.13333333333335L38.5,207.13333333333335" stroke-width="2" stroke-linecap="round" stroke-linejoin="round"></path><path transform="matrix(1,0,0,1,0,0)" fill="none" stroke="#000000" d="M33.5,196.75000000000003L38.5,196.75000000000003" stroke-width="2" stroke-linecap="round" stroke-linejoin="round"></path><path transform="matrix(1,0,0,1,0,0)" fill="none" stroke="#000000" d="M33.5,186.36666666666667L38.5,186.36666666666667" stroke-width="2" stroke-linecap="round" stroke-linejoin="round"></path><path transform="matrix(1,0,0,1,0,0)" fill="none" stroke="#000000" d="M33.5,175.98333333333335L38.5,175.98333333333335" stroke-width="2" stroke-linecap="round" stroke-linejoin="round"></path><path transform="matrix(1,0,0,1,0,0)" fill="none" stroke="#000000" d="M33.5,165.60000000000002L38.5,165.60000000000002" stroke-width="2" stroke-linecap="round" stroke-linejoin="round"></path><path transform="matrix(1,0,0,1,0,0)" fill="none" stroke="#000000" d="M33.5,155.2166666666667L38.5,155.2166666666667" stroke-width="2" stroke-linecap="round" stroke-linejoin="round"></path><path transform="matrix(1,0,0,1,0,0)" fill="none" stroke="#000000" d="M31,144.83333333333337L41,144.83333333333337" stroke-width="3" stroke-linecap="round" stroke-linejoin="round"></path><path transform="matrix(1,0,0,1,0,0)" fill="none" stroke="#000000" d="M33.5,134.45000000000005L38.5,134.45000000000005" stroke-width="2" stroke-linecap="round" stroke-linejoin="round"></path><path transform="matrix(1,0,0,1,0,0)" fill="none" stroke="#000000" d="M33.5,124.0666666666667L38.5,124.0666666666667" stroke-width="2" stroke-linecap="round" stroke-linejoin="round"></path><path transform="matrix(1,0,0,1,0,0)" fill="none" stroke="#000000" d="M33.5,113.68333333333337L38.5,113.68333333333337" stroke-width="2" stroke-linecap="round" stroke-linejoin="round"></path><path transform="matrix(1,0,0,1,0,0)" fill="none" stroke="#000000" d="M33.5,103.30000000000004L38.5,103.30000000000004" stroke-width="2" stroke-linecap="round" stroke-linejoin="round"></path><path transform="matrix(1,0,0,1,0,0)" fill="none" stroke="#000000" d="M33.5,92.91666666666671L38.5,92.91666666666671" stroke-width="2" stroke-linecap="round" stroke-linejoin="round"></path><path transform="matrix(1,0,0,1,0,0)" fill="none" stroke="#000000" d="M33.5,82.53333333333337L38.5,82.53333333333337" stroke-width="2" stroke-linecap="round" stroke-linejoin="round"></path><path transform="matrix(1,0,0,1,0,0)" fill="none" stroke="#000000" d="M33.5,72.15000000000003L38.5,72.15000000000003" stroke-width="2" stroke-linecap="round" stroke-linejoin="round"></path><path transform="matrix(1,0,0,1,0,0)" fill="none" stroke="#000000" d="M33.5,61.76666666666671L38.5,61.76666666666671" stroke-width="2" stroke-linecap="round" stroke-linejoin="round"></path><path transform="matrix(1,0,0,1,0,0)" fill="none" stroke="#000000" d="M33.5,51.38333333333338L38.5,51.38333333333338" stroke-width="2" stroke-linecap="round" stroke-linejoin="round"></path><path transform="matrix(1,0,0,1,0,0)" fill="none" stroke="#000000" d="M31,41L41,41" stroke-width="3" stroke-linecap="round" stroke-linejoin="round"></path><path transform="matrix(1,0,0,1,0,0)" fill="none" stroke="#000000" d="M31,664L464,664" stroke-width="3" stroke-linecap="round" stroke-linejoin="round"></path><path transform="matrix(1,0,0,1,0,0)" fill="none" stroke="#000000" d="M36,669L36,36" stroke-width="3" stroke-linecap="round" stroke-linejoin="round"></path><path transform="matrix(1,0,0,1,0,0)" fill="#000000" stroke="#000000" d="M464,664L465.25,664L465.25,666.5L469,664L465.25,661.5L465.25,664Z" stroke-width="3" stroke-linecap="round" stroke-linejoin="round"></path><path transform="matrix(1,0,0,1,0,0)" fill="#000000" stroke="#000000" d="M36,36L36,34.75L38.5,34.75L36,31L33.5,34.75L36,34.75Z" stroke-width="3" stroke-linecap="round" stroke-linejoin="round"></path><text transform="matrix(1,0,0,1,0,0)" style="text-anchor: middle; font: normal normal bold 12px/normal ;" x="120.6" y="683" text-anchor="middle" font-family="&quot;Arial&quot;" font-size="12px" stroke="white" fill="white" stroke-width="5" font-weight="bold"><tspan dy="4.361538461538462">5</tspan></text><text transform="matrix(1,0,0,1,0,0)" style="text-anchor: middle; font: normal normal normal 12px/normal ;" x="120.6" y="683" text-anchor="middle" font-family="&quot;Arial&quot;" font-size="12px" stroke="none" fill="#000000"><tspan dy="4.361538461538462">5</tspan></text><text transform="matrix(1,0,0,1,0,0)" style="text-anchor: middle; font: normal normal bold 12px/normal ;" x="205.2" y="683" text-anchor="middle" font-family="&quot;Arial&quot;" font-size="12px" stroke="white" fill="white" stroke-width="5" font-weight="bold"><tspan dy="4.361538461538462">10</tspan></text><text transform="matrix(1,0,0,1,0,0)" style="text-anchor: middle; font: normal normal normal 12px/normal ;" x="205.2" y="683" text-anchor="middle" font-family="&quot;Arial&quot;" font-size="12px" stroke="none" fill="#000000"><tspan dy="4.361538461538462">10</tspan></text><text transform="matrix(1,0,0,1,0,0)" style="text-anchor: middle; font: normal normal bold 12px/normal ;" x="289.79999999999995" y="683" text-anchor="middle" font-family="&quot;Arial&quot;" font-size="12px" stroke="white" fill="white" stroke-width="5" font-weight="bold"><tspan dy="4.361538461538462">15</tspan></text><text transform="matrix(1,0,0,1,0,0)" style="text-anchor: middle; font: normal normal normal 12px/normal ;" x="289.79999999999995" y="683" text-anchor="middle" font-family="&quot;Arial&quot;" font-size="12px" stroke="none" fill="#000000"><tspan dy="4.361538461538462">15</tspan></text><text transform="matrix(1,0,0,1,0,0)" style="text-anchor: middle; font: normal normal bold 12px/normal ;" x="374.4" y="683" text-anchor="middle" font-family="&quot;Arial&quot;" font-size="12px" stroke="white" fill="white" stroke-width="5" font-weight="bold"><tspan dy="4.361538461538462">20</tspan></text><text transform="matrix(1,0,0,1,0,0)" style="text-anchor: middle; font: normal normal normal 12px/normal ;" x="374.4" y="683" text-anchor="middle" font-family="&quot;Arial&quot;" font-size="12px" stroke="none" fill="#000000"><tspan dy="4.361538461538462">20</tspan></text><text transform="matrix(1,0,0,1,0,0)" style="text-anchor: middle; font: normal normal bold 12px/normal ;" x="459" y="683" text-anchor="middle" font-family="&quot;Arial&quot;" font-size="12px" stroke="white" fill="white" stroke-width="5" font-weight="bold"><tspan dy="4.361538461538462">25</tspan></text><text transform="matrix(1,0,0,1,0,0)" style="text-anchor: middle; font: normal normal normal 12px/normal ;" x="459" y="683" text-anchor="middle" font-family="&quot;Arial&quot;" font-size="12px" stroke="none" fill="#000000"><tspan dy="4.361538461538462">25</tspan></text><path transform="matrix(1,0,0,1,0,0)" fill="none" stroke="#000" d="M31,560.1666666666666L41,560.1666666666666"></path><text transform="matrix(1,0,0,1,0,0)" style="text-anchor: middle; font: normal normal bold 12px/normal ;" x="14" y="560.1666666666666" text-anchor="middle" font-family="&quot;Arial&quot;" font-size="12px" stroke="white" fill="white" stroke-width="5" font-weight="bold"><tspan dy="4.361538461538462">250</tspan></text><text transform="matrix(1,0,0,1,0,0)" style="text-anchor: middle; font: normal normal normal 12px/normal ;" x="14" y="560.1666666666666" text-anchor="middle" font-family="&quot;Arial&quot;" font-size="12px" stroke="none" fill="#000000"><tspan dy="4.361538461538462">250</tspan></text><path transform="matrix(1,0,0,1,0,0)" fill="none" stroke="#000" d="M31,456.33333333333337L41,456.33333333333337"></path><text transform="matrix(1,0,0,1,0,0)" style="text-anchor: middle; font: normal normal bold 12px/normal ;" x="14" y="456.33333333333337" text-anchor="middle" font-family="&quot;Arial&quot;" font-size="12px" stroke="white" fill="white" stroke-width="5" font-weight="bold"><tspan dy="4.361538461538462">500</tspan></text><text transform="matrix(1,0,0,1,0,0)" style="text-anchor: middle; font: normal normal normal 12px/normal ;" x="14" y="456.33333333333337" text-anchor="middle" font-family="&quot;Arial&quot;" font-size="12px" stroke="none" fill="#000000"><tspan dy="4.361538461538462">500</tspan></text><path transform="matrix(1,0,0,1,0,0)" fill="none" stroke="#000" d="M31,352.5L41,352.5"></path><text transform="matrix(1,0,0,1,0,0)" style="text-anchor: middle; font: normal normal bold 12px/normal ;" x="14" y="352.5" text-anchor="middle" font-family="&quot;Arial&quot;" font-size="12px" stroke="white" fill="white" stroke-width="5" font-weight="bold"><tspan dy="4.361538461538462">750</tspan></text><text transform="matrix(1,0,0,1,0,0)" style="text-anchor: middle; font: normal normal normal 12px/normal ;" x="14" y="352.5" text-anchor="middle" font-family="&quot;Arial&quot;" font-size="12px" stroke="none" fill="#000000"><tspan dy="4.361538461538462">750</tspan></text><path transform="matrix(1,0,0,1,0,0)" fill="none" stroke="#000" d="M31,248.66666666666669L41,248.66666666666669"></path><text transform="matrix(1,0,0,1,0,0)" style="text-anchor: middle; font: normal normal bold 12px/normal ;" x="14" y="248.66666666666669" text-anchor="middle" font-family="&quot;Arial&quot;" font-size="12px" stroke="white" fill="white" stroke-width="5" font-weight="bold"><tspan dy="4.361538461538462">1000</tspan></text><text transform="matrix(1,0,0,1,0,0)" style="text-anchor: middle; font: normal normal normal 12px/normal ;" x="14" y="248.66666666666669" text-anchor="middle" font-family="&quot;Arial&quot;" font-size="12px" stroke="none" fill="#000000"><tspan dy="4.361538461538462">1000</tspan></text><path transform="matrix(1,0,0,1,0,0)" fill="none" stroke="#000" d="M31,144.83333333333337L41,144.83333333333337"></path><text transform="matrix(1,0,0,1,0,0)" style="text-anchor: middle; font: normal normal bold 12px/normal ;" x="14" y="144.83333333333337" text-anchor="middle" font-family="&quot;Arial&quot;" font-size="12px" stroke="white" fill="white" stroke-width="5" font-weight="bold"><tspan dy="4.361538461538462">1250</tspan></text><text transform="matrix(1,0,0,1,0,0)" style="text-anchor: middle; font: normal normal normal 12px/normal ;" x="14" y="144.83333333333337" text-anchor="middle" font-family="&quot;Arial&quot;" font-size="12px" stroke="none" fill="#000000"><tspan dy="4.361538461538462">1250</tspan></text><path transform="matrix(1,0,0,1,0,0)" fill="none" stroke="#000" d="M31,41L41,41"></path><text transform="matrix(1,0,0,1,0,0)" style="text-anchor: middle; font: normal normal bold 12px/normal ;" x="14" y="41" text-anchor="middle" font-family="&quot;Arial&quot;" font-size="12px" stroke="white" fill="white" stroke-width="5" font-weight="bold"><tspan dy="4.361538461538462">1500</tspan></text><text transform="matrix(1,0,0,1,0,0)" style="text-anchor: middle; font: normal normal normal 12px/normal ;" x="14" y="41" text-anchor="middle" font-family="&quot;Arial&quot;" font-size="12px" stroke="none" fill="#000000"><tspan dy="4.361538461538462">1500</tspan></text></svg>